<svg xmlns="http://www.w3.org/2000/svg" width="274" height="80" viewBox="0 0 274 80">
  <g id="グループ_5924" data-name="グループ 5924" transform="translate(-160 -4310)">
    <g id="長方形_130" data-name="長方形 130" transform="translate(160 4310)" fill="#fff" stroke="#ccc" stroke-width="1">
      <rect width="274" height="80" rx="4" stroke="none"/>
      <rect x="0.5" y="0.5" width="273" height="79" rx="3.5" fill="none"/>
    </g>
    <path id="パス_11305" data-name="パス 11305" d="M-87.2-8.64a3.919,3.919,0,0,1,2.352,1.452,4.123,4.123,0,0,1,.888,2.6A4.139,4.139,0,0,1-85.44-1.236,6.226,6.226,0,0,1-89.556,0H-97.4V-16.848h7.584a6.218,6.218,0,0,1,4.02,1.176,3.89,3.89,0,0,1,1.452,3.192,3.856,3.856,0,0,1-.78,2.472A4.034,4.034,0,0,1-87.2-8.64Zm-6.1-1.392h2.688a2.38,2.38,0,0,0,1.548-.444,1.6,1.6,0,0,0,.54-1.308,1.631,1.631,0,0,0-.54-1.32,2.336,2.336,0,0,0-1.548-.456H-93.3Zm3.024,6.72a2.434,2.434,0,0,0,1.6-.468,1.662,1.662,0,0,0,.564-1.356A1.736,1.736,0,0,0-88.7-6.528a2.41,2.41,0,0,0-1.62-.5H-93.3v3.72Zm16.224,3.5a7.392,7.392,0,0,1-3.54-.84,6.151,6.151,0,0,1-2.472-2.4,7.171,7.171,0,0,1-.9-3.648,7.114,7.114,0,0,1,.912-3.636,6.188,6.188,0,0,1,2.5-2.412A7.463,7.463,0,0,1-74-13.584a7.463,7.463,0,0,1,3.552.84,6.188,6.188,0,0,1,2.5,2.412A7.114,7.114,0,0,1-67.044-6.7a7.041,7.041,0,0,1-.924,3.636,6.248,6.248,0,0,1-2.52,2.412A7.534,7.534,0,0,1-74.052.192Zm0-3.552a2.674,2.674,0,0,0,2-.864A3.432,3.432,0,0,0-71.22-6.7a3.5,3.5,0,0,0-.8-2.472A2.6,2.6,0,0,0-74-10.032,2.6,2.6,0,0,0-76-9.18,3.522,3.522,0,0,0-76.788-6.7a3.565,3.565,0,0,0,.78,2.472A2.524,2.524,0,0,0-74.052-3.36Zm14.736-14.4V0h-4.1V-17.76Zm6.48,2.976A2.487,2.487,0,0,1-54.6-15.42a2.061,2.061,0,0,1-.684-1.572,2.088,2.088,0,0,1,.684-1.6,2.487,2.487,0,0,1,1.764-.636,2.455,2.455,0,0,1,1.74.636,2.088,2.088,0,0,1,.684,1.6A2.061,2.061,0,0,1-51.1-15.42,2.455,2.455,0,0,1-52.836-14.784Zm2.04,1.392V0h-4.1V-13.392Zm3.6,6.672a8,8,0,0,1,.78-3.624,5.818,5.818,0,0,1,2.124-2.4,5.545,5.545,0,0,1,3-.84,5.269,5.269,0,0,1,2.412.552,4.4,4.4,0,0,1,1.716,1.488V-17.76h4.1V0h-4.1V-1.92A4.181,4.181,0,0,1-38.808-.384a5.154,5.154,0,0,1-2.484.576,5.487,5.487,0,0,1-3-.852,5.887,5.887,0,0,1-2.124-2.424A8.08,8.08,0,0,1-47.2-6.72Zm10.032.024a3.355,3.355,0,0,0-.852-2.424,2.768,2.768,0,0,0-2.076-.888,2.786,2.786,0,0,0-2.076.876A3.313,3.313,0,0,0-43.02-6.72a3.4,3.4,0,0,0,.852,2.436,2.751,2.751,0,0,0,2.076.9,2.768,2.768,0,0,0,2.076-.888A3.355,3.355,0,0,0-37.164-6.7Zm21.144-.216a10.477,10.477,0,0,1-.072,1.2H-25.38a2.791,2.791,0,0,0,.8,1.908,2.456,2.456,0,0,0,1.74.66A2.157,2.157,0,0,0-20.7-4.44h4.368a5.994,5.994,0,0,1-1.212,2.376,6.068,6.068,0,0,1-2.2,1.656,7.054,7.054,0,0,1-2.952.6,7.183,7.183,0,0,1-3.5-.84,5.975,5.975,0,0,1-2.4-2.4A7.409,7.409,0,0,1-29.46-6.7a7.494,7.494,0,0,1,.852-3.648,5.9,5.9,0,0,1,2.388-2.4,7.234,7.234,0,0,1,3.528-.84,7.161,7.161,0,0,1,3.456.816,5.859,5.859,0,0,1,2.364,2.328A7.066,7.066,0,0,1-16.02-6.912Zm-4.2-1.08a2.11,2.11,0,0,0-.72-1.68,2.65,2.65,0,0,0-1.8-.624,2.6,2.6,0,0,0-1.74.6,2.665,2.665,0,0,0-.876,1.7ZM-9.564-19.2l-.312,5.3h-2.76l-.312-5.3ZM-.228.192a7.7,7.7,0,0,1-3.12-.6,5.329,5.329,0,0,1-2.16-1.644A4.324,4.324,0,0,1-6.4-4.392H-2.34a1.559,1.559,0,0,0,.648,1.128,2.293,2.293,0,0,0,1.416.432,2.021,2.021,0,0,0,1.188-.3.919.919,0,0,0,.42-.78.9.9,0,0,0-.6-.852,12.121,12.121,0,0,0-1.944-.612,18.251,18.251,0,0,1-2.4-.708A4.147,4.147,0,0,1-5.268-7.26a3.2,3.2,0,0,1-.7-2.172,3.688,3.688,0,0,1,.636-2.1,4.282,4.282,0,0,1,1.872-1.5,7.168,7.168,0,0,1,2.94-.552,5.894,5.894,0,0,1,3.972,1.248A4.856,4.856,0,0,1,5.124-9.024H1.332a1.634,1.634,0,0,0-.612-1.1,2.123,2.123,0,0,0-1.356-.408,1.875,1.875,0,0,0-1.1.276.881.881,0,0,0-.384.756.923.923,0,0,0,.612.864A9.8,9.8,0,0,0,.4-8.064a20.874,20.874,0,0,1,2.424.756,4.181,4.181,0,0,1,1.644,1.2A3.4,3.4,0,0,1,5.2-3.888a3.524,3.524,0,0,1-.66,2.1A4.365,4.365,0,0,1,2.64-.336,7.251,7.251,0,0,1-.228.192Zm26.472-17.04V-5.376a5.423,5.423,0,0,1-1.5,4.1A5.6,5.6,0,0,1,20.7.168a5.983,5.983,0,0,1-4.272-1.512,5.611,5.611,0,0,1-1.608-4.3H18.9a2.514,2.514,0,0,0,.432,1.6,1.5,1.5,0,0,0,1.248.54,1.429,1.429,0,0,0,1.152-.48,2.094,2.094,0,0,0,.408-1.392V-16.848ZM30.18-6.72a8,8,0,0,1,.78-3.624,5.818,5.818,0,0,1,2.124-2.4,5.545,5.545,0,0,1,3-.84,5.154,5.154,0,0,1,2.484.576A4.243,4.243,0,0,1,40.212-11.5v-1.9h4.1V0h-4.1V-1.9A4.432,4.432,0,0,1,38.544-.384,5.154,5.154,0,0,1,36.06.192,5.445,5.445,0,0,1,33.084-.66,5.887,5.887,0,0,1,30.96-3.084,8.08,8.08,0,0,1,30.18-6.72ZM40.212-6.7A3.355,3.355,0,0,0,39.36-9.12a2.768,2.768,0,0,0-2.076-.888,2.786,2.786,0,0,0-2.076.876,3.313,3.313,0,0,0-.852,2.412,3.4,3.4,0,0,0,.852,2.436,2.751,2.751,0,0,0,2.076.9,2.768,2.768,0,0,0,2.076-.888A3.355,3.355,0,0,0,40.212-6.7Zm12.624-4.8a4.455,4.455,0,0,1,1.656-1.512,5.084,5.084,0,0,1,2.472-.576,5.545,5.545,0,0,1,3,.84,5.818,5.818,0,0,1,2.124,2.4,8,8,0,0,1,.78,3.624,8.08,8.08,0,0,1-.78,3.636A5.888,5.888,0,0,1,59.964-.66a5.487,5.487,0,0,1-3,.852A5.1,5.1,0,0,1,54.5-.384a4.51,4.51,0,0,1-1.668-1.488V6.384h-4.1V-13.392h4.1ZM58.692-6.72a3.313,3.313,0,0,0-.852-2.412,2.814,2.814,0,0,0-2.1-.876,2.768,2.768,0,0,0-2.076.888A3.355,3.355,0,0,0,52.812-6.7a3.355,3.355,0,0,0,.852,2.424,2.768,2.768,0,0,0,2.076.888,2.789,2.789,0,0,0,2.088-.9A3.37,3.37,0,0,0,58.692-6.72Zm6.96,0a8,8,0,0,1,.78-3.624,5.818,5.818,0,0,1,2.124-2.4,5.545,5.545,0,0,1,3-.84,5.154,5.154,0,0,1,2.484.576A4.243,4.243,0,0,1,75.684-11.5v-1.9h4.1V0h-4.1V-1.9A4.432,4.432,0,0,1,74.016-.384a5.154,5.154,0,0,1-2.484.576A5.445,5.445,0,0,1,68.556-.66a5.887,5.887,0,0,1-2.124-2.424A8.08,8.08,0,0,1,65.652-6.72ZM75.684-6.7a3.355,3.355,0,0,0-.852-2.424,2.768,2.768,0,0,0-2.076-.888,2.786,2.786,0,0,0-2.076.876,3.313,3.313,0,0,0-.852,2.412,3.4,3.4,0,0,0,.852,2.436,2.751,2.751,0,0,0,2.076.9,2.768,2.768,0,0,0,2.076-.888A3.355,3.355,0,0,0,75.684-6.7Zm16.68-6.84a4.86,4.86,0,0,1,3.756,1.524,5.944,5.944,0,0,1,1.4,4.188V0h-4.08V-7.272a2.939,2.939,0,0,0-.7-2.088,2.44,2.44,0,0,0-1.872-.744A2.44,2.44,0,0,0,89-9.36a2.939,2.939,0,0,0-.7,2.088V0H84.2V-13.392h4.1v1.776a4.33,4.33,0,0,1,1.68-1.4A5.341,5.341,0,0,1,92.364-13.536Z" transform="translate(297 4359)" fill="#333"/>
  </g>
</svg>
