<svg xmlns="http://www.w3.org/2000/svg" width="346.054" height="28.623" viewBox="0 0 346.054 28.623">
  <g id="グループ_5811" data-name="グループ 5811" transform="translate(11396.81 -13955.809)">
    <g id="グループ_69" data-name="グループ 69" transform="translate(-11431 13932)">
      <path id="パス_11294" data-name="パス 11294" d="M1.19-11.9a12.431,12.431,0,0,1,1.581-6.273,11.289,11.289,0,0,1,4.318-4.318,12.252,12.252,0,0,1,6.137-1.547A12.072,12.072,0,0,1,20.2-22a10.667,10.667,0,0,1,4.182,5.644H18.9a5.673,5.673,0,0,0-2.3-2.55,6.735,6.735,0,0,0-3.417-.85,7.03,7.03,0,0,0-3.689.969,6.613,6.613,0,0,0-2.516,2.737,9.023,9.023,0,0,0-.9,4.148,9.049,9.049,0,0,0,.9,4.131A6.59,6.59,0,0,0,9.5-5.015a7.03,7.03,0,0,0,3.689.969,6.631,6.631,0,0,0,3.417-.867A5.776,5.776,0,0,0,18.9-7.48h5.474a10.609,10.609,0,0,1-4.165,5.661A12.124,12.124,0,0,1,13.226.2,12.252,12.252,0,0,1,7.089-1.343a11.323,11.323,0,0,1-4.318-4.3A12.338,12.338,0,0,1,1.19-11.9ZM41.514.238a12.3,12.3,0,0,1-6.12-1.564,11.677,11.677,0,0,1-4.42-4.335,12.127,12.127,0,0,1-1.632-6.273,12.062,12.062,0,0,1,1.632-6.239,11.677,11.677,0,0,1,4.42-4.335,12.3,12.3,0,0,1,6.12-1.564,12.268,12.268,0,0,1,6.137,1.564,11.588,11.588,0,0,1,4.386,4.335,12.16,12.16,0,0,1,1.615,6.239,12.226,12.226,0,0,1-1.615,6.273,11.553,11.553,0,0,1-4.4,4.335A12.3,12.3,0,0,1,41.514.238Zm0-4.25a7.251,7.251,0,0,0,3.774-.969,6.643,6.643,0,0,0,2.55-2.771,9.093,9.093,0,0,0,.918-4.182,8.988,8.988,0,0,0-.918-4.165,6.552,6.552,0,0,0-2.55-2.737,7.352,7.352,0,0,0-3.774-.952,7.445,7.445,0,0,0-3.791.952A6.519,6.519,0,0,0,35.156-16.1a8.988,8.988,0,0,0-.918,4.165,9.093,9.093,0,0,0,.918,4.182,6.608,6.608,0,0,0,2.567,2.771A7.342,7.342,0,0,0,41.514-4.012ZM71.468,0,66.232-9.248H63.988V0h-4.76V-23.732h8.908a10.4,10.4,0,0,1,4.692.969,6.769,6.769,0,0,1,2.907,2.618,7.145,7.145,0,0,1,.969,3.689,7.066,7.066,0,0,1-1.36,4.233,6.987,6.987,0,0,1-4.046,2.6L76.976,0Zm-7.48-12.818h3.978a3.975,3.975,0,0,0,2.89-.935,3.479,3.479,0,0,0,.952-2.6,3.32,3.32,0,0,0-.952-2.533,4.07,4.07,0,0,0-2.89-.9H63.988Zm33.626,8.3H88.162L86.6,0h-5l8.534-23.766h5.542L104.21,0H99.178ZM96.322-8.33l-3.434-9.928L89.454-8.33Zm30.43-8.058a7.391,7.391,0,0,1-.9,3.57,6.618,6.618,0,0,1-2.822,2.686,10.265,10.265,0,0,1-4.845,1.02h-3.978V0h-4.76V-23.732h8.738a10.559,10.559,0,0,1,4.692.952,6.632,6.632,0,0,1,2.907,2.618A7.367,7.367,0,0,1,126.752-16.388Zm-8.772,3.434a4.125,4.125,0,0,0,2.924-.9,3.32,3.32,0,0,0,.952-2.533q0-3.468-3.876-3.468h-3.774v6.9Zm18.87-10.778V-9.044a5.036,5.036,0,0,0,1.258,3.689,4.744,4.744,0,0,0,3.536,1.275,4.791,4.791,0,0,0,3.57-1.275,5.036,5.036,0,0,0,1.258-3.689V-23.732h4.794V-9.078a9.46,9.46,0,0,1-1.309,5.117,8.3,8.3,0,0,1-3.5,3.145A11.117,11.117,0,0,1,141.576.238a10.82,10.82,0,0,1-4.811-1.054,8.024,8.024,0,0,1-3.417-3.145,9.759,9.759,0,0,1-1.258-5.117V-23.732ZM170.136,0,164.9-9.248h-2.244V0H157.9V-23.732H166.8a10.4,10.4,0,0,1,4.692.969,6.769,6.769,0,0,1,2.907,2.618,7.145,7.145,0,0,1,.969,3.689,7.066,7.066,0,0,1-1.36,4.233,6.987,6.987,0,0,1-4.046,2.6L175.644,0Zm-7.48-12.818h3.978a3.975,3.975,0,0,0,2.89-.935,3.48,3.48,0,0,0,.952-2.6,3.32,3.32,0,0,0-.952-2.533,4.07,4.07,0,0,0-2.89-.9h-3.978Zm33.626,8.3H186.83L185.266,0h-5L188.8-23.766h5.542L202.878,0h-5.032ZM194.99-8.33l-3.434-9.928L188.122-8.33Z" transform="translate(33 48)"/>
      <path id="パス_11293" data-name="パス 11293" d="M.455-4.55a4.753,4.753,0,0,1,.6-2.4A4.316,4.316,0,0,1,2.711-8.6a4.685,4.685,0,0,1,2.346-.591,4.616,4.616,0,0,1,2.665.78,4.078,4.078,0,0,1,1.6,2.158H7.228a2.169,2.169,0,0,0-.878-.975,2.575,2.575,0,0,0-1.307-.325,2.688,2.688,0,0,0-1.411.371,2.528,2.528,0,0,0-.962,1.046A3.45,3.45,0,0,0,2.327-4.55a3.46,3.46,0,0,0,.345,1.58,2.52,2.52,0,0,0,.962,1.053,2.688,2.688,0,0,0,1.411.371,2.535,2.535,0,0,0,1.307-.331,2.209,2.209,0,0,0,.878-.982H9.321A4.056,4.056,0,0,1,7.728-.7,4.636,4.636,0,0,1,5.057.078,4.685,4.685,0,0,1,2.711-.514,4.329,4.329,0,0,1,1.059-2.158,4.717,4.717,0,0,1,.455-4.55ZM16.341,0l-2-3.536h-.858V0h-1.82V-9.074h3.406a3.977,3.977,0,0,1,1.794.37,2.588,2.588,0,0,1,1.111,1,2.732,2.732,0,0,1,.371,1.411,2.7,2.7,0,0,1-.52,1.619,2.671,2.671,0,0,1-1.547.994L18.447,0Zm-2.86-4.9H15a1.52,1.52,0,0,0,1.105-.358,1.33,1.33,0,0,0,.364-.995,1.269,1.269,0,0,0-.364-.969A1.556,1.556,0,0,0,15-7.566H13.481Zm9.113-2.7V-5.33h3.055v1.443H22.594v2.405h3.445V0H20.774V-9.087h5.265v1.482Zm11.44,5.876H30.42L29.822,0H27.911l3.263-9.087h2.119L36.556,0H34.632ZM33.54-3.185l-1.313-3.8-1.313,3.8ZM44.733-9.074v1.469H42.315V0h-1.82V-7.605H38.077V-9.074Zm3.926,1.469V-5.33h3.055v1.443H48.659v2.405H52.1V0H46.839V-9.087H52.1v1.482Zm9.048-1.469a5.42,5.42,0,0,1,2.515.559A3.994,3.994,0,0,1,61.9-6.923a4.744,4.744,0,0,1,.591,2.4A4.672,4.672,0,0,1,61.9-2.139a4.017,4.017,0,0,1-1.677,1.58A5.42,5.42,0,0,1,57.707,0H54.535V-9.074Zm-.065,7.527a2.989,2.989,0,0,0,2.21-.78,2.971,2.971,0,0,0,.78-2.2,3.039,3.039,0,0,0-.78-2.217,2.947,2.947,0,0,0-2.21-.8H56.355v5.993ZM6.045,11.346a2.039,2.039,0,0,1,1.261.767,2.24,2.24,0,0,1,.494,1.43,2.3,2.3,0,0,1-.357,1.281,2.381,2.381,0,0,1-1.034.865A3.786,3.786,0,0,1,4.81,16H.9V6.926H4.641a3.883,3.883,0,0,1,1.593.3,2.268,2.268,0,0,1,1.014.832,2.178,2.178,0,0,1,.345,1.209,2.068,2.068,0,0,1-.423,1.326A2.26,2.26,0,0,1,6.045,11.346ZM2.717,10.67H4.381a1.523,1.523,0,0,0,1-.293,1.03,1.03,0,0,0,.351-.839,1.049,1.049,0,0,0-.351-.845,1.5,1.5,0,0,0-1-.3H2.717ZM4.55,14.518a1.557,1.557,0,0,0,1.034-.312,1.092,1.092,0,0,0,.371-.884,1.138,1.138,0,0,0-.39-.917,1.573,1.573,0,0,0-1.053-.332H2.717v2.444Zm12.7-7.592-3.068,5.915V16h-1.82V12.841L9.282,6.926h2.054l1.95,4.147,1.937-4.147Zm10.855,4.42a2.039,2.039,0,0,1,1.261.767,2.24,2.24,0,0,1,.494,1.43,2.3,2.3,0,0,1-.357,1.281,2.381,2.381,0,0,1-1.034.865,3.786,3.786,0,0,1-1.6.312H22.958V6.926H26.7a3.883,3.883,0,0,1,1.593.3,2.268,2.268,0,0,1,1.014.832,2.178,2.178,0,0,1,.345,1.209,2.068,2.068,0,0,1-.423,1.326A2.26,2.26,0,0,1,28.106,11.346Zm-3.328-.676h1.664a1.523,1.523,0,0,0,1-.293,1.03,1.03,0,0,0,.351-.839,1.049,1.049,0,0,0-.351-.845,1.5,1.5,0,0,0-1-.3H24.778Zm1.833,3.848a1.557,1.557,0,0,0,1.034-.312,1.092,1.092,0,0,0,.371-.884,1.138,1.138,0,0,0-.39-.917,1.573,1.573,0,0,0-1.053-.332H24.778v2.444Zm8.684,1.6a3.793,3.793,0,0,1-1.872-.462,3.323,3.323,0,0,1-1.306-1.307,3.915,3.915,0,0,1-.475-1.95,3.832,3.832,0,0,1,.488-1.95,3.388,3.388,0,0,1,1.333-1.306,4.08,4.08,0,0,1,3.77,0,3.388,3.388,0,0,1,1.332,1.306,3.832,3.832,0,0,1,.488,1.95,3.754,3.754,0,0,1-.5,1.95A3.466,3.466,0,0,1,37.2,15.656,3.931,3.931,0,0,1,35.3,16.117Zm0-1.586a1.893,1.893,0,0,0,.93-.241,1.748,1.748,0,0,0,.7-.721,2.431,2.431,0,0,0,.26-1.17,2.168,2.168,0,0,0-.539-1.58,1.773,1.773,0,0,0-1.32-.552,1.732,1.732,0,0,0-1.306.552,2.2,2.2,0,0,0-.527,1.58A2.236,2.236,0,0,0,34,13.979,1.691,1.691,0,0,0,35.3,14.531Zm7.7-8.151V16h-1.82V6.38Zm3.5,1.56a1.109,1.109,0,0,1-.8-.306,1.067,1.067,0,0,1,0-1.521,1.2,1.2,0,0,1,1.6,0,1.067,1.067,0,0,1,0,1.521A1.109,1.109,0,0,1,46.488,7.94Zm.9.858V16h-1.82V8.8Zm2.106,3.575a4.168,4.168,0,0,1,.435-1.937,3.14,3.14,0,0,1,2.867-1.755,3.059,3.059,0,0,1,1.339.306,2.677,2.677,0,0,1,1.014.813V6.38h1.846V16H55.146V14.934a2.466,2.466,0,0,1-.949.858,2.973,2.973,0,0,1-1.417.325,3.093,3.093,0,0,1-1.664-.468,3.259,3.259,0,0,1-1.19-1.319A4.238,4.238,0,0,1,49.491,12.373Zm5.668.026a2.334,2.334,0,0,0-.26-1.138,1.833,1.833,0,0,0-.7-.728,1.876,1.876,0,0,0-.949-.253,1.828,1.828,0,0,0-1.632.969,2.26,2.26,0,0,0-.266,1.125,2.335,2.335,0,0,0,.266,1.137,1.919,1.919,0,0,0,.7.747,1.783,1.783,0,0,0,.93.26,1.876,1.876,0,0,0,.949-.253,1.833,1.833,0,0,0,.7-.728A2.334,2.334,0,0,0,55.159,12.4Zm11.089-.156a4.3,4.3,0,0,1-.052.7H60.931a1.791,1.791,0,0,0,.546,1.222,1.684,1.684,0,0,0,1.183.442,1.486,1.486,0,0,0,1.443-.871h1.963a3.281,3.281,0,0,1-1.2,1.71,3.492,3.492,0,0,1-2.171.67,3.757,3.757,0,0,1-1.865-.462,3.248,3.248,0,0,1-1.287-1.307,4,4,0,0,1-.461-1.95,4.078,4.078,0,0,1,.455-1.963,3.175,3.175,0,0,1,1.274-1.3,4.091,4.091,0,0,1,3.724-.013A3.111,3.111,0,0,1,65.8,10.377,3.8,3.8,0,0,1,66.248,12.243Zm-1.885-.52a1.443,1.443,0,0,0-.507-1.125,1.8,1.8,0,0,0-1.209-.422,1.652,1.652,0,0,0-1.138.41,1.8,1.8,0,0,0-.565,1.137Zm5.135-6.1-.156,2.756H68.107l-.169-2.756Zm4.927,10.491a3.8,3.8,0,0,1-1.586-.319,2.8,2.8,0,0,1-1.112-.865,2.191,2.191,0,0,1-.448-1.209h1.833a1,1,0,0,0,.409.689,1.424,1.424,0,0,0,.891.273,1.383,1.383,0,0,0,.813-.208.63.63,0,0,0,.293-.533.562.562,0,0,0-.358-.526,6.727,6.727,0,0,0-1.137-.384,9.64,9.64,0,0,1-1.319-.4A2.291,2.291,0,0,1,71.819,12a1.71,1.71,0,0,1-.37-1.157,1.867,1.867,0,0,1,.344-1.092,2.313,2.313,0,0,1,.988-.78A3.7,3.7,0,0,1,74.3,8.681a3.092,3.092,0,0,1,2.054.643,2.384,2.384,0,0,1,.845,1.736H75.452a.943.943,0,0,0-.357-.682,1.612,1.612,0,0,0-1.612-.071.58.58,0,0,0-.267.507.6.6,0,0,0,.364.552,5.653,5.653,0,0,0,1.131.384,9.6,9.6,0,0,1,1.287.4,2.274,2.274,0,0,1,.878.643,1.767,1.767,0,0,1,.383,1.151,1.908,1.908,0,0,1-.344,1.118,2.269,2.269,0,0,1-.988.773A3.743,3.743,0,0,1,74.425,16.117ZM88.7,6.926V13.3a2.718,2.718,0,0,1-.767,2.061,2.846,2.846,0,0,1-2.054.734,2.935,2.935,0,0,1-2.1-.754,2.755,2.755,0,0,1-.8-2.106H84.8a1.451,1.451,0,0,0,.279.91.943.943,0,0,0,.774.325.926.926,0,0,0,.754-.312,1.3,1.3,0,0,0,.26-.858V6.926Zm2.431,5.447a4.168,4.168,0,0,1,.436-1.937,3.192,3.192,0,0,1,1.183-1.3,3.15,3.15,0,0,1,1.671-.455,2.934,2.934,0,0,1,1.41.325,2.862,2.862,0,0,1,.968.819V8.8h1.833V16H96.8V14.947a2.707,2.707,0,0,1-.968.838,2.963,2.963,0,0,1-1.424.332,3.061,3.061,0,0,1-1.658-.468,3.275,3.275,0,0,1-1.183-1.319A4.237,4.237,0,0,1,91.13,12.373ZM96.8,12.4a2.334,2.334,0,0,0-.26-1.138,1.833,1.833,0,0,0-.7-.728,1.876,1.876,0,0,0-.949-.253,1.828,1.828,0,0,0-1.632.969,2.26,2.26,0,0,0-.266,1.125,2.335,2.335,0,0,0,.266,1.137,1.919,1.919,0,0,0,.7.747,1.783,1.783,0,0,0,.929.26,1.876,1.876,0,0,0,.949-.253,1.833,1.833,0,0,0,.7-.728A2.334,2.334,0,0,0,96.8,12.4Zm6.214-2.561a2.764,2.764,0,0,1,.968-.825,2.935,2.935,0,0,1,1.41-.332,3.15,3.15,0,0,1,1.671.455,3.2,3.2,0,0,1,1.183,1.293,4.158,4.158,0,0,1,.436,1.944,4.237,4.237,0,0,1-.436,1.957,3.275,3.275,0,0,1-1.183,1.319,3.084,3.084,0,0,1-1.671.468,2.906,2.906,0,0,1-1.4-.325,3,3,0,0,1-.981-.819v4.459h-1.82V8.8h1.82Zm3.809,2.535a2.26,2.26,0,0,0-.267-1.125,1.845,1.845,0,0,0-.7-.722,1.879,1.879,0,0,0-.943-.247,1.818,1.818,0,0,0-.929.253,1.882,1.882,0,0,0-.7.734,2.533,2.533,0,0,0,0,2.262,1.882,1.882,0,0,0,.7.734,1.835,1.835,0,0,0,1.872-.007,1.93,1.93,0,0,0,.7-.741A2.325,2.325,0,0,0,106.821,12.373Zm3.5,0a4.168,4.168,0,0,1,.436-1.937,3.192,3.192,0,0,1,1.183-1.3,3.15,3.15,0,0,1,1.671-.455,2.934,2.934,0,0,1,1.41.325,2.862,2.862,0,0,1,.968.819V8.8h1.833V16h-1.833V14.947a2.707,2.707,0,0,1-.968.838,2.963,2.963,0,0,1-1.424.332,3.061,3.061,0,0,1-1.658-.468,3.275,3.275,0,0,1-1.183-1.319A4.237,4.237,0,0,1,110.318,12.373Zm5.668.026a2.334,2.334,0,0,0-.26-1.138,1.833,1.833,0,0,0-.7-.728,1.876,1.876,0,0,0-.949-.253,1.828,1.828,0,0,0-1.632.969,2.26,2.26,0,0,0-.266,1.125,2.335,2.335,0,0,0,.266,1.137,1.919,1.919,0,0,0,.7.747,1.783,1.783,0,0,0,.929.26,1.876,1.876,0,0,0,.949-.253,1.833,1.833,0,0,0,.7-.728A2.334,2.334,0,0,0,115.986,12.4Zm8.385-3.705a2.776,2.776,0,0,1,2.08.813,3.111,3.111,0,0,1,.793,2.269V16h-1.82V12.022A1.867,1.867,0,0,0,125,10.7a1.519,1.519,0,0,0-1.17-.462,1.557,1.557,0,0,0-1.19.462,1.85,1.85,0,0,0-.435,1.319V16h-1.82V8.8h1.82v.9a2.514,2.514,0,0,1,.929-.734A2.875,2.875,0,0,1,124.371,8.694Z" transform="translate(253 33)" fill="#333"/>
    </g>
  </g>
</svg>
