<svg xmlns="http://www.w3.org/2000/svg" width="274" height="80" viewBox="0 0 274 80"><g transform="translate(-724 -4879)"><rect width="274" height="80" rx="4" transform="translate(724 4879)" fill="#fff"/><path d="M4,1A3,3,0,0,0,1,4V76a3,3,0,0,0,3,3H270a3,3,0,0,0,3-3V4a3,3,0,0,0-3-3H4M4,0H270a4,4,0,0,1,4,4V76a4,4,0,0,1-4,4H4a4,4,0,0,1-4-4V4A4,4,0,0,1,4,0Z" transform="translate(724 4879)" fill="#ccc"/><g transform="translate(770.582 4877.4)"><path d="M13.716-10.581A17.61,17.61,0,0,1,6.472-8.888H5.908V-29.966H2.88V-8.354H13.211l.564-2.226Zm3.562-16.357L19.3-28.956l-2.019-2.019-2.019,2.019Zm-1.4,18.584h2.791v-16.09h-.119l-2.672.8ZM29.212-8c4.631,0,8.1-3.3,8.1-8.312,0-5.047-3.325-8.164-7.837-8.164-4.631,0-8.1,3.325-8.1,8.342C21.375-11.085,24.7-8,29.212-8Zm.178-.416c-2.939,0-4.987-3.147-4.987-7.9,0-4.69,1.93-7.748,4.9-7.748,2.939,0,4.987,3.176,4.987,7.926C34.288-11.471,32.359-8.413,29.39-8.413Zm19.088-16.06a7.9,7.9,0,0,0-5.759,2.583v-2.553H42.6l-2.7.8V-8.354h2.82V-21.3a6.36,6.36,0,0,1,4.542-2.108c3.473,0,3.473,3.266,3.473,4.483V-8.354h2.82V-18.863C53.555-22.693,51.773-24.474,48.478-24.474ZM71.545-8.918l-.653-2.137V-32.4h-.119l-2.7.891v8.668a6.4,6.4,0,0,0-4.364-1.633c-4.156,0-7.659,3.444-7.659,8.52C56.048-11.293,58.958-8,62.817-8a7.146,7.146,0,0,0,5.314-2.523L68.9-8.087Zm-7.808-.059c-2.7,0-4.661-2.434-4.661-7.273,0-4.78,1.989-7.718,4.9-7.718a4.465,4.465,0,0,1,4.1,3V-11.2A5.876,5.876,0,0,1,63.737-8.977ZM81.371-8c4.631,0,8.1-3.3,8.1-8.312,0-5.047-3.325-8.164-7.837-8.164-4.631,0-8.1,3.325-8.1,8.342C73.534-11.085,76.858-8,81.371-8Zm.178-.416c-2.939,0-4.987-3.147-4.987-7.9,0-4.69,1.93-7.748,4.9-7.748,2.939,0,4.987,3.176,4.987,7.926C86.447-11.471,84.518-8.413,81.549-8.413Zm18.109-16c-2.078,0-3.74,1.484-4.839,3.889v-3.919H94.7l-2.642.8V-8.354h2.82V-19.665A4.309,4.309,0,0,1,98.589-22.4a4.275,4.275,0,0,1,1.633.356l.831-2.2A5.922,5.922,0,0,0,99.658-24.414Z" transform="translate(39.365 55)"/><path d="M3.267-2.2A2.811,2.811,0,0,0,5.749-3.62l-.1-.057A2.351,2.351,0,0,1,3.635-2.559c-1.314,0-2.3-1.061-2.3-2.865,0-1.592.816-2.784,2.065-2.784A2.216,2.216,0,0,1,5.259-7.016l.408-.367a2.978,2.978,0,0,0-2.229-.955A2.932,2.932,0,0,0,.418-5.22,2.8,2.8,0,0,0,3.267-2.2ZM9.039-5.187c.776-.269,1.429-.71,1.429-1.551,0-1.012-.841-1.5-2.408-1.5H6.6V-2.3h.833V-4.983h.547a.454.454,0,0,1,.425.171l2.416,2.694h.049V-3.155Zm-.857.073a6.094,6.094,0,0,1-.751-.049V-8.11h.6c1.078,0,1.6.563,1.6,1.429A1.462,1.462,0,0,1,8.182-5.114Zm7.274,2.27a6.909,6.909,0,0,1-2.351.4h-.473V-5.318h.376a5.253,5.253,0,0,1,1.714.2h.016v-.506h-.016a5.588,5.588,0,0,1-1.714.163h-.376V-8.094h.449a6.989,6.989,0,0,1,2.221.367h.016l-.1-.514H11.8V-2.3h3.519l.155-.547ZM19.9-2.3H20.8L18.329-8.371H18.3L16.876-4.9c-.425,1.029-.735,1.788-1.127,2.6h.563a6.151,6.151,0,0,1,.482-1.951h2.319ZM16.852-4.4l.18-.449.923-2.278,1.1,2.727Zm7.739-3.845H20.362l-.114.58h.016a3.573,3.573,0,0,1,1.6-.433h.2v5.8h.833v-5.8h.188a3.573,3.573,0,0,1,1.6.433H24.7Zm4.6,5.4a6.909,6.909,0,0,1-2.351.4h-.473V-5.318h.376a5.253,5.253,0,0,1,1.714.2h.016v-.506h-.016a5.588,5.588,0,0,1-1.714.163h-.376V-8.094h.449a6.989,6.989,0,0,1,2.221.367h.016l-.1-.514H25.53V-2.3h3.519l.155-.547Zm3-5.4H30.1V-2.3h1.943c2.016,0,3.29-1.118,3.29-3.037C35.334-7.22,34.069-8.241,32.183-8.241Zm0,5.813A6.515,6.515,0,0,1,30.934-2.5V-8.11H32.11c1.4,0,2.31,1.135,2.31,2.816C34.42-3.465,33.6-2.428,32.183-2.428Zm8.694-3V-5.44a1.563,1.563,0,0,0,1.437-1.412c0-.857-.694-1.388-2.057-1.388H38.29V-2.3h1.918c1.576,0,2.465-.629,2.465-1.633C42.674-4.836,41.882-5.359,40.878-5.424Zm.555-1.339a1.23,1.23,0,0,1-1.257,1.339H39.122V-8.11h.931A1.26,1.26,0,0,1,41.433-6.763ZM39.963-2.428a5.446,5.446,0,0,1-.841-.057V-5.293h1.192a1.367,1.367,0,0,1,1.445,1.478C41.759-2.942,41.212-2.428,39.963-2.428Zm7.568-5.813h-.514A9.562,9.562,0,0,1,45.98-5.889l-.425.751-1.747-3.1h-.955l1.943,3.4V-2.3h.833V-4.942l.5-.874C46.641-6.738,47.041-7.432,47.531-8.241Zm5.1,2.816V-5.44A1.563,1.563,0,0,0,54.07-6.853c0-.857-.694-1.388-2.057-1.388H50.045V-2.3h1.918c1.576,0,2.465-.629,2.465-1.633C54.429-4.836,53.637-5.359,52.633-5.424Zm.555-1.339a1.23,1.23,0,0,1-1.257,1.339H50.878V-8.11h.931A1.26,1.26,0,0,1,53.188-6.763ZM51.719-2.428a5.446,5.446,0,0,1-.841-.057V-5.293H52.07a1.367,1.367,0,0,1,1.445,1.478C53.515-2.942,52.968-2.428,51.719-2.428Zm5.527.229a2.163,2.163,0,0,0,2.229-2.286A2.086,2.086,0,0,0,57.319-6.73a2.17,2.17,0,0,0-2.229,2.294A2.079,2.079,0,0,0,57.246-2.2Zm.049-.114c-.808,0-1.372-.865-1.372-2.172,0-1.29.531-2.131,1.347-2.131s1.372.874,1.372,2.18C58.642-3.155,58.111-2.314,57.295-2.314Zm3.086.016h.776V-8.91h-.033l-.743.245Zm2.31-5.111.555-.555-.555-.555-.555.555ZM62.307-2.3h.767V-6.722h-.033l-.735.22Zm5.943-.155-.18-.588V-8.91h-.033l-.743.245v2.384a1.759,1.759,0,0,0-1.2-.449,2.184,2.184,0,0,0-2.106,2.343A1.979,1.979,0,0,0,65.85-2.2a1.965,1.965,0,0,0,1.461-.694l.212.669ZM66.1-2.469c-.743,0-1.282-.669-1.282-2,0-1.314.547-2.123,1.347-2.123a1.228,1.228,0,0,1,1.127.825v2.686A1.616,1.616,0,0,1,66.1-2.469Zm6.825-2.3A1.709,1.709,0,0,0,71.165-6.73a2.17,2.17,0,0,0-2.2,2.335A2.028,2.028,0,0,0,71-2.2a2.181,2.181,0,0,0,1.878-1.078l-.1-.057a1.8,1.8,0,0,1-1.445.784c-.882,0-1.543-.718-1.543-2.074v-.147ZM71.1-6.608c.694,0,1.135.678,1.086,1.706H69.8C69.883-5.9,70.39-6.608,71.1-6.608Zm2.661.62h.082l.3-2.351h-.686ZM76.276-2.2c1.045,0,1.665-.547,1.665-1.29,0-.808-.743-1.118-1.257-1.331l-.327-.139c-.457-.2-1.02-.4-1.02-.914,0-.4.327-.743.922-.743A2.073,2.073,0,0,1,77.631-6l.114-.384a3.082,3.082,0,0,0-1.412-.343c-.931,0-1.518.506-1.518,1.192,0,.776.727,1.078,1.257,1.306l.335.139c.514.212,1.012.425,1.012.947,0,.49-.416.833-1.061.833a1.965,1.965,0,0,1-1.5-.694l-.122.416A3.129,3.129,0,0,0,76.276-2.2Zm3.372,1.127a2.83,2.83,0,0,0,1.992-3.086V-8.241h-.833v4.147c0,1.5-.131,2.253-1.216,2.923Zm6.621-1.4c-.4,0-.4-.229-.4-.62v-2.09A1.347,1.347,0,0,0,84.35-6.73a2.188,2.188,0,0,0-1.6.669l.073.09a1.836,1.836,0,0,1,1.225-.49c.808,0,1.045.539,1.045,1.347v.465c-.245.024-.506.041-.8.073-1.118.122-1.845.6-1.845,1.355a1.019,1.019,0,0,0,1.143,1,2.283,2.283,0,0,0,1.51-.629.6.6,0,0,0,.645.6,1.331,1.331,0,0,0,.678-.2v-.049A.9.9,0,0,1,86.268-2.477ZM84.015-2.51a.761.761,0,0,1-.8-.841c0-.792.767-1.061,1.878-1.176V-3A1.585,1.585,0,0,1,84.015-2.51ZM89.346-6.73a1.965,1.965,0,0,0-1.445.686v-.678h-.033l-.743.22V-.436H87.9V-2.648a1.759,1.759,0,0,0,1.2.449,2.177,2.177,0,0,0,2.106-2.335A1.982,1.982,0,0,0,89.346-6.73Zm-.318,4.4A1.224,1.224,0,0,1,87.9-3.163V-5.84a1.63,1.63,0,0,1,1.208-.62c.735,0,1.265.669,1.265,2C90.374-3.146,89.827-2.33,89.027-2.33Zm6.5-.147c-.4,0-.4-.229-.4-.62v-2.09A1.347,1.347,0,0,0,93.607-6.73a2.188,2.188,0,0,0-1.6.669l.073.09a1.836,1.836,0,0,1,1.225-.49c.808,0,1.045.539,1.045,1.347v.465c-.245.024-.506.041-.8.073-1.118.122-1.845.6-1.845,1.355a1.019,1.019,0,0,0,1.143,1,2.283,2.283,0,0,0,1.51-.629.6.6,0,0,0,.645.6,1.331,1.331,0,0,0,.678-.2v-.049A.9.9,0,0,1,95.526-2.477ZM93.272-2.51a.761.761,0,0,1-.8-.841c0-.792.767-1.061,1.878-1.176V-3A1.585,1.585,0,0,1,93.272-2.51Zm5.47-4.221a2.172,2.172,0,0,0-1.584.71v-.7h-.033l-.743.22v4.2h.776V-5.857a1.749,1.749,0,0,1,1.249-.58c.955,0,.955.9.955,1.233V-2.3h.776v-2.89C100.138-6.24,99.648-6.73,98.742-6.73Z" transform="translate(40 61.56)" fill="#333"/></g></g></svg>