<svg xmlns="http://www.w3.org/2000/svg" width="274" height="80" viewBox="0 0 274 80">
  <g id="グループ_5812" data-name="グループ 5812" transform="translate(11602 -13726)">
    <g id="長方形_132" data-name="長方形 132" transform="translate(-11602 13726)" fill="#fff" stroke="#ccc" stroke-width="1">
      <rect width="274" height="80" rx="4" stroke="none"/>
      <rect x="0.5" y="0.5" width="273" height="79" rx="3.5" fill="none"/>
    </g>
    <g id="グループ_2240" data-name="グループ 2240" transform="translate(-12094.76 13348.706)">
      <path id="パス_1885" data-name="パス 1885" d="M14.788-34.039a15.843,15.843,0,0,1-6.517,1.522H7.764V-51.48H5.04v19.444h9.294l.507-2Zm2.27,2h2.724V-51.48H17.059Zm15.571.32c5.8,0,10.283-3.98,10.283-10.229,0-6.143-4.38-9.855-9.935-9.855-5.8,0-10.283,3.98-10.283,10.229C22.694-35.428,27.074-31.715,32.63-31.715Zm.294-.427c-4.273,0-7.238-3.9-7.238-9.722,0-5.716,2.778-9.508,7.078-9.508,4.193,0,7.158,3.9,7.158,9.722C39.921-35.909,37.143-32.143,32.923-32.143ZM58.083-51.48a50.062,50.062,0,0,1,.534,8.493v6.57L47.933-51.48H44.7v.08l1.309,1.816v9.054a53.035,53.035,0,0,1-.534,8.493h1.6a50.063,50.063,0,0,1-.534-8.493v-8.306L58.91-31.715h.24V-42.986a53.034,53.034,0,0,1,.534-8.493Zm17.414,0H68.686v19.444h6.357c6.6,0,10.763-3.659,10.763-9.935C85.806-48.141,81.666-51.48,75.5-51.48Zm0,19.016a21.314,21.314,0,0,1-4.086-.24V-51.052h3.846c4.594,0,7.558,3.712,7.558,9.214C82.814-35.855,80.144-32.463,75.5-32.463Zm22.275.748c5.8,0,10.283-3.98,10.283-10.229,0-6.143-4.38-9.855-9.935-9.855-5.8,0-10.283,3.98-10.283,10.229C87.835-35.428,92.216-31.715,97.771-31.715Zm.294-.427c-4.273,0-7.238-3.9-7.238-9.722,0-5.716,2.778-9.508,7.078-9.508,4.193,0,7.158,3.9,7.158,9.722C105.062-35.909,102.285-32.143,98.065-32.143Zm20.886-9.348c2.537-.881,4.674-2.324,4.674-5.075,0-3.312-2.751-4.914-7.879-4.914h-4.781v19.444h2.724v-8.787h1.789a1.485,1.485,0,0,1,1.389.561l7.906,8.814h.16V-34.84Zm-2.8.24a19.938,19.938,0,0,1-2.457-.16v-9.642h1.95c3.525,0,5.235,1.843,5.235,4.674C120.874-43.6,119.057-41.25,116.146-41.25Z" transform="translate(564.827 453)"/>
      <path id="パス_1886" data-name="パス 1886" d="M3.423-9.927a2.627,2.627,0,0,0,2.32-1.328l-.092-.053a2.2,2.2,0,0,1-1.885,1.045c-1.229,0-2.152-.992-2.152-2.678,0-1.488.763-2.6,1.931-2.6a2.072,2.072,0,0,1,1.74,1.114l.382-.343a2.784,2.784,0,0,0-2.083-.893A2.741,2.741,0,0,0,.76-12.751,2.621,2.621,0,0,0,3.423-9.927ZM9.917-12.72c.725-.252,1.335-.664,1.335-1.45,0-.946-.786-1.4-2.251-1.4H7.635v5.555h.778V-12.53h.511a.424.424,0,0,1,.4.16l2.259,2.518h.046v-.969Zm-.8.069a5.7,5.7,0,0,1-.7-.046v-2.755h.557c1.007,0,1.5.527,1.5,1.335A1.367,1.367,0,0,1,9.116-12.652Zm7.9,2.121a6.458,6.458,0,0,1-2.2.374h-.443v-2.686h.351a4.911,4.911,0,0,1,1.6.183h.015v-.473h-.015a5.223,5.223,0,0,1-1.6.153h-.351v-2.457h.42a6.533,6.533,0,0,1,2.076.343h.015l-.092-.481H13.6v5.555h3.289l.145-.511Zm5.25.511h.847L20.8-15.7h-.031L19.44-12.453c-.4.961-.687,1.671-1.053,2.434h.527a5.749,5.749,0,0,1,.45-1.824h2.167ZM19.418-11.98l.168-.42.862-2.129,1.03,2.549Zm8.333-3.594H23.8l-.107.542h.015a3.34,3.34,0,0,1,1.5-.4h.183v5.418h.778v-5.418h.176a3.34,3.34,0,0,1,1.5.4h.015Zm5.4,5.044a6.458,6.458,0,0,1-2.2.374h-.443v-2.686h.351a4.911,4.911,0,0,1,1.6.183h.015v-.473h-.015a5.223,5.223,0,0,1-1.6.153h-.351v-2.457h.42A6.533,6.533,0,0,1,33-15.094h.015l-.092-.481h-3.2v5.555h3.289l.145-.511Zm3.9-5.044H35.1v5.555h1.816c1.885,0,3.075-1.045,3.075-2.839C39.991-14.62,38.808-15.574,37.045-15.574Zm0,5.433a6.09,6.09,0,0,1-1.168-.069v-5.242h1.1c1.313,0,2.16,1.061,2.16,2.633C39.136-11.11,38.373-10.141,37.045-10.141Zm10.325-2.8v-.015a1.461,1.461,0,0,0,1.343-1.32c0-.8-.649-1.3-1.923-1.3H44.951v5.555h1.793c1.473,0,2.3-.588,2.3-1.526C49.048-12.392,48.308-12.881,47.37-12.942Zm.519-1.251a1.15,1.15,0,0,1-1.175,1.251h-.984v-2.511h.87A1.177,1.177,0,0,1,47.889-14.193Zm-1.374,4.052a5.09,5.09,0,0,1-.786-.053V-12.82h1.114a1.278,1.278,0,0,1,1.351,1.381C48.194-10.622,47.683-10.141,46.515-10.141Zm8.173-5.433h-.481a8.939,8.939,0,0,1-.969,2.2l-.4.7-1.633-2.9h-.893L52.131-12.4v2.381h.778v-2.472l.465-.817C53.856-14.17,54.23-14.819,54.688-15.574Zm6.967,2.633v-.015A1.461,1.461,0,0,0,63-14.277c0-.8-.649-1.3-1.923-1.3H59.236v5.555h1.793c1.473,0,2.3-.588,2.3-1.526C63.334-12.392,62.593-12.881,61.655-12.942Zm.519-1.251A1.15,1.15,0,0,1,61-12.942h-.984v-2.511h.87A1.177,1.177,0,0,1,62.174-14.193ZM60.8-10.141a5.09,5.09,0,0,1-.786-.053V-12.82h1.114a1.278,1.278,0,0,1,1.351,1.381C62.479-10.622,61.968-10.141,60.8-10.141Zm6.265.214a2.022,2.022,0,0,0,2.083-2.137,1.95,1.95,0,0,0-2.015-2.1,2.028,2.028,0,0,0-2.083,2.144A1.943,1.943,0,0,0,67.065-9.927Zm.046-.107c-.755,0-1.282-.809-1.282-2.03,0-1.206.5-1.992,1.259-1.992s1.282.817,1.282,2.037C68.37-10.82,67.874-10.034,67.111-10.034Zm3.983.015h.725V-16.2h-.031l-.694.229ZM74.353-14.8l.519-.519-.519-.519-.519.519Zm-.359,4.777h.717v-4.136h-.031l-.687.206Zm6.654-.145-.168-.549V-16.2H80.45l-.694.229v2.228a1.644,1.644,0,0,0-1.122-.42,2.042,2.042,0,0,0-1.969,2.19A1.85,1.85,0,0,0,78.4-9.927a1.837,1.837,0,0,0,1.366-.649l.2.626Zm-2.007-.015c-.694,0-1.2-.626-1.2-1.87,0-1.229.511-1.984,1.259-1.984a1.148,1.148,0,0,1,1.053.771v2.511A1.51,1.51,0,0,1,78.641-10.179Zm7.478-2.152a1.6,1.6,0,0,0-1.648-1.831,2.028,2.028,0,0,0-2.053,2.182,1.9,1.9,0,0,0,1.9,2.053,2.038,2.038,0,0,0,1.755-1.007l-.092-.053a1.68,1.68,0,0,1-1.351.733c-.824,0-1.442-.672-1.442-1.938v-.137ZM84.41-14.048c.649,0,1.061.633,1.015,1.595H83.2C83.273-13.384,83.746-14.048,84.41-14.048Zm3.587.58h.076l.282-2.2h-.641Zm3.449,3.541c.977,0,1.557-.511,1.557-1.206,0-.755-.694-1.045-1.175-1.244l-.305-.13c-.427-.183-.954-.374-.954-.855,0-.374.305-.694.862-.694a1.938,1.938,0,0,1,1.282.572l.107-.359a2.881,2.881,0,0,0-1.32-.32c-.87,0-1.419.473-1.419,1.114,0,.725.679,1.007,1.175,1.221l.313.13c.481.2.946.4.946.885,0,.458-.389.778-.992.778a1.837,1.837,0,0,1-1.4-.649L90-10.294A2.925,2.925,0,0,0,91.446-9.927ZM96.8-8.874a2.645,2.645,0,0,0,1.862-2.884v-3.815h-.778V-11.7c0,1.4-.122,2.106-1.137,2.732Zm7.288-1.313c-.374,0-.374-.214-.374-.58V-12.72a1.259,1.259,0,0,0-1.419-1.442,2.045,2.045,0,0,0-1.5.626l.069.084a1.716,1.716,0,0,1,1.145-.458c.755,0,.977.5.977,1.259v.435c-.229.023-.473.038-.748.069-1.045.114-1.725.557-1.725,1.267a.953.953,0,0,0,1.068.939,2.134,2.134,0,0,0,1.412-.588.558.558,0,0,0,.6.565,1.244,1.244,0,0,0,.633-.191V-10.2A.845.845,0,0,1,104.083-10.187Zm-2.106-.031a.712.712,0,0,1-.748-.786c0-.74.717-.992,1.755-1.1v1.427A1.481,1.481,0,0,1,101.977-10.217Zm6.082-3.945a1.837,1.837,0,0,0-1.351.641v-.633h-.031l-.694.206v5.67h.725v-2.068a1.644,1.644,0,0,0,1.122.42A2.035,2.035,0,0,0,109.8-12.11,1.853,1.853,0,0,0,108.058-14.163Zm-.3,4.113a1.144,1.144,0,0,1-1.053-.778v-2.5a1.524,1.524,0,0,1,1.129-.58c.687,0,1.183.626,1.183,1.87C109.02-10.813,108.509-10.049,107.761-10.049Zm7.173-.137c-.374,0-.374-.214-.374-.58V-12.72a1.259,1.259,0,0,0-1.419-1.442,2.045,2.045,0,0,0-1.5.626l.069.084a1.716,1.716,0,0,1,1.145-.458c.755,0,.977.5.977,1.259v.435c-.229.023-.473.038-.748.069-1.045.114-1.725.557-1.725,1.267a.953.953,0,0,0,1.068.939,2.134,2.134,0,0,0,1.412-.588.558.558,0,0,0,.6.565,1.244,1.244,0,0,0,.633-.191V-10.2A.845.845,0,0,1,114.934-10.187Zm-2.106-.031A.712.712,0,0,1,112.08-11c0-.74.717-.992,1.755-1.1v1.427A1.482,1.482,0,0,1,112.828-10.217Zm6.212-3.945a2.03,2.03,0,0,0-1.48.664v-.656h-.031l-.694.206v3.93h.725v-3.327a1.635,1.635,0,0,1,1.168-.542c.893,0,.893.839.893,1.152v2.717h.725v-2.7C120.344-13.7,119.886-14.163,119.039-14.163Z" transform="translate(569 441.666)" fill="#333"/>
    </g>
  </g>
</svg>
