<svg xmlns="http://www.w3.org/2000/svg" xmlns:xlink="http://www.w3.org/1999/xlink" width="99" height="99" viewBox="0 0 99 99">
  <defs>
    <clipPath id="clip-path">
      <rect id="長方形_9896" data-name="長方形 9896" width="99" height="99" transform="translate(1341 327)" fill="#fff" stroke="#707070" stroke-width="1"/>
    </clipPath>
    <linearGradient id="linear-gradient" y1="0.5" x2="0.5" y2="0.5" gradientUnits="objectBoundingBox">
      <stop offset="0" stop-color="#f76c6c"/>
      <stop offset="1" stop-color="#ffbb61"/>
    </linearGradient>
  </defs>
  <g id="グループ_5807" data-name="グループ 5807" transform="translate(-1341 -14063)">
    <g id="マスクグループ_4" data-name="マスクグループ 4" transform="translate(0 13736)" clip-path="url(#clip-path)">
      <circle id="楕円形_5" data-name="楕円形 5" cx="99" cy="99" r="99" transform="translate(1341 327)" fill="url(#linear-gradient)"/>
    </g>
    <path id="パス_11288" data-name="パス 11288" d="M-16.32-5.728a2.51,2.51,0,0,1,1.552.944,2.757,2.757,0,0,1,.608,1.76,2.836,2.836,0,0,1-.44,1.576A2.93,2.93,0,0,1-15.872-.384,4.66,4.66,0,0,1-17.84,0h-4.816V-11.168h4.608a4.779,4.779,0,0,1,1.96.368A2.791,2.791,0,0,1-14.84-9.776a2.681,2.681,0,0,1,.424,1.488,2.545,2.545,0,0,1-.52,1.632A2.782,2.782,0,0,1-16.32-5.728Zm-4.1-.832h2.048a1.875,1.875,0,0,0,1.232-.36A1.268,1.268,0,0,0-16.7-7.952a1.291,1.291,0,0,0-.432-1.04,1.847,1.847,0,0,0-1.232-.368h-2.048Zm2.256,4.736a1.917,1.917,0,0,0,1.272-.384A1.344,1.344,0,0,0-16.432-3.3a1.4,1.4,0,0,0-.48-1.128,1.935,1.935,0,0,0-1.3-.408h-2.208v3.008Zm13.6-.3H-9.008L-9.744,0H-12.1L-8.08-11.184h2.608L-1.456,0H-3.824ZM-5.168-3.92-6.784-8.592-8.4-3.92ZM.464-5.6a5.85,5.85,0,0,1,.744-2.952A5.313,5.313,0,0,1,3.24-10.584a5.766,5.766,0,0,1,2.888-.728,5.681,5.681,0,0,1,3.28.96A5.02,5.02,0,0,1,11.376-7.7H8.8A2.67,2.67,0,0,0,7.72-8.9a3.169,3.169,0,0,0-1.608-.4,3.308,3.308,0,0,0-1.736.456A3.112,3.112,0,0,0,3.192-7.552,4.246,4.246,0,0,0,2.768-5.6a4.259,4.259,0,0,0,.424,1.944,3.1,3.1,0,0,0,1.184,1.3A3.308,3.308,0,0,0,6.112-1.9,3.12,3.12,0,0,0,7.72-2.312,2.718,2.718,0,0,0,8.8-3.52h2.576A4.992,4.992,0,0,1,9.416-.856,5.705,5.705,0,0,1,6.128.1,5.766,5.766,0,0,1,3.24-.632,5.329,5.329,0,0,1,1.208-2.656,5.806,5.806,0,0,1,.464-5.6ZM20.56,0,16.5-4.976V0h-2.24V-11.168H16.5V-6.16l4.064-5.008h2.7L18.656-5.632,23.392,0ZM-2.672,8.832V10.64H-5.648V20h-2.24V10.64h-2.976V8.832ZM5.1,20.112a5.786,5.786,0,0,1-2.88-.736,5.5,5.5,0,0,1-2.08-2.04,5.707,5.707,0,0,1-.768-2.952,5.676,5.676,0,0,1,.768-2.936,5.5,5.5,0,0,1,2.08-2.04A5.786,5.786,0,0,1,5.1,8.672a5.773,5.773,0,0,1,2.888.736,5.453,5.453,0,0,1,2.064,2.04,5.722,5.722,0,0,1,.76,2.936,5.753,5.753,0,0,1-.76,2.952,5.436,5.436,0,0,1-2.072,2.04A5.786,5.786,0,0,1,5.1,20.112Zm0-2a3.412,3.412,0,0,0,1.776-.456,3.126,3.126,0,0,0,1.2-1.3,4.279,4.279,0,0,0,.432-1.968,4.23,4.23,0,0,0-.432-1.96,3.083,3.083,0,0,0-1.2-1.288A3.46,3.46,0,0,0,5.1,10.688a3.5,3.5,0,0,0-1.784.448,3.068,3.068,0,0,0-1.208,1.288,4.229,4.229,0,0,0-.432,1.96,4.279,4.279,0,0,0,.432,1.968,3.11,3.11,0,0,0,1.208,1.3A3.455,3.455,0,0,0,5.1,18.112Zm-13.12,10.72V30.64h-2.976V40h-2.24V30.64h-2.976V28.832ZM-.24,40.112a5.786,5.786,0,0,1-2.88-.736,5.5,5.5,0,0,1-2.08-2.04,5.707,5.707,0,0,1-.768-2.952A5.676,5.676,0,0,1-5.2,31.448a5.5,5.5,0,0,1,2.08-2.04,5.786,5.786,0,0,1,2.88-.736,5.773,5.773,0,0,1,2.888.736,5.453,5.453,0,0,1,2.064,2.04,5.722,5.722,0,0,1,.76,2.936,5.753,5.753,0,0,1-.76,2.952,5.436,5.436,0,0,1-2.072,2.04A5.786,5.786,0,0,1-.24,40.112Zm0-2a3.412,3.412,0,0,0,1.776-.456,3.126,3.126,0,0,0,1.2-1.3,4.279,4.279,0,0,0,.432-1.968,4.23,4.23,0,0,0-.432-1.96,3.083,3.083,0,0,0-1.2-1.288A3.46,3.46,0,0,0-.24,30.688a3.5,3.5,0,0,0-1.784.448,3.068,3.068,0,0,0-1.208,1.288,4.229,4.229,0,0,0-.432,1.96,4.279,4.279,0,0,0,.432,1.968,3.11,3.11,0,0,0,1.208,1.3A3.455,3.455,0,0,0-.24,38.112Zm16.48-5.824a3.478,3.478,0,0,1-.424,1.68,3.114,3.114,0,0,1-1.328,1.264,4.83,4.83,0,0,1-2.28.48H10.336V40H8.1V28.832h4.112a4.969,4.969,0,0,1,2.208.448,3.121,3.121,0,0,1,1.368,1.232A3.467,3.467,0,0,1,16.24,32.288ZM12.112,33.9a1.941,1.941,0,0,0,1.376-.424,1.562,1.562,0,0,0,.448-1.192q0-1.632-1.824-1.632H10.336V33.9Z" transform="translate(1402 14108)" fill="#fff"/>
  </g>
</svg>
