<svg xmlns="http://www.w3.org/2000/svg" width="21.24" height="12" viewBox="0 0 21.24 12"><g transform="translate(-267.51 -403)"><path d="M19.74.75H0A.75.75,0,0,1-.75,0,.75.75,0,0,1,0-.75H19.74a.75.75,0,0,1,.75.75A.75.75,0,0,1,19.74.75Z" transform="translate(268.26 405.844)" fill="#121b2b"/><path d="M19.74.75H0A.75.75,0,0,1-.75,0,.75.75,0,0,1,0-.75H19.74a.75.75,0,0,1,.75.75A.75.75,0,0,1,19.74.75Z" transform="translate(268.26 411.844)" fill="#121b2b"/><circle cx="3" cy="3" r="3" transform="translate(279 403)" fill="#fff"/><path d="M3,1.5A1.5,1.5,0,1,0,4.5,3,1.5,1.5,0,0,0,3,1.5M3,0A3,3,0,1,1,0,3,3,3,0,0,1,3,0Z" transform="translate(279 403)" fill="#121b2b"/><circle cx="3" cy="3" r="3" transform="translate(271 409)" fill="#fff"/><path d="M3,1.5A1.5,1.5,0,1,0,4.5,3,1.5,1.5,0,0,0,3,1.5M3,0A3,3,0,1,1,0,3,3,3,0,0,1,3,0Z" transform="translate(271 409)" fill="#121b2b"/></g></svg>