<svg xmlns="http://www.w3.org/2000/svg" width="21.5" height="17.344" viewBox="0 0 21.5 17.344"><g transform="translate(-283.25 -527.25)"><g transform="translate(284 528)"><path d="M18,20.718a.75.75,0,0,1-.75-.75V7.5a.75.75,0,0,1,1.5,0V19.968A.75.75,0,0,1,18,20.718Z" transform="translate(-13.844 -7.5)" fill="#121b2b"/><path d="M11.656,22.906a.748.748,0,0,1-.53-.22L6.97,18.53A.75.75,0,0,1,8.03,17.47L11.656,21.1l3.626-3.626a.75.75,0,0,1,1.061,1.061l-4.156,4.156A.748.748,0,0,1,11.656,22.906Z" transform="translate(-7.5 -9.688)" fill="#121b2b"/></g><g transform="translate(295.429 528)"><path d="M18,20.718a.75.75,0,0,1-.75-.75V7.5a.75.75,0,0,1,1.5,0V19.968A.75.75,0,0,1,18,20.718Z" transform="translate(-13.844 -7.5)" fill="#121b2b"/><path d="M11.656,22.906a.748.748,0,0,1-.53-.22L6.97,18.53A.75.75,0,0,1,8.03,17.47L11.656,21.1l3.626-3.626a.75.75,0,0,1,1.061,1.061l-4.156,4.156A.748.748,0,0,1,11.656,22.906Z" transform="translate(-7.5 -9.688)" fill="#121b2b"/></g><path d="M19.74.75H0A.75.75,0,0,1-.75,0,.75.75,0,0,1,0-.75H19.74a.75.75,0,0,1,.75.75A.75.75,0,0,1,19.74.75Z" transform="translate(284.26 543.844)" fill="#121b2b"/></g></svg>