<svg xmlns="http://www.w3.org/2000/svg" width="416" height="115.538" viewBox="0 0 416 115.538">
  <g id="グループ_664" data-name="グループ 664" transform="translate(-31.364 -40.478)">
    <path id="パス_1787" data-name="パス 1787" d="M8.554-63.7H36.645a40.606,40.606,0,0,1,18.268,3.958A29.462,29.462,0,0,1,67.306-48.549a31.457,31.457,0,0,1,4.406,16.7,31.456,31.456,0,0,1-4.406,16.7A29.462,29.462,0,0,1,54.913-3.959,40.606,40.606,0,0,1,36.645,0H8.554Zm27.54,53.69a27.472,27.472,0,0,0,12.439-2.685,19.308,19.308,0,0,0,8.262-7.644A22.436,22.436,0,0,0,59.686-31.85a22.436,22.436,0,0,0-2.892-11.512,19.308,19.308,0,0,0-8.262-7.644A27.472,27.472,0,0,0,36.094-53.69H20.488v43.68Zm89.6-14.014q0,1.183-.184,3.367H87.042a13.2,13.2,0,0,0,5.278,8.509,17.409,17.409,0,0,0,10.6,3.139,17.95,17.95,0,0,0,13.311-5.278l6.151,7.007a20.719,20.719,0,0,1-8.354,5.915,30.665,30.665,0,0,1-11.383,2A30.514,30.514,0,0,1,88.419-2.548a23.057,23.057,0,0,1-9.5-8.873A24.887,24.887,0,0,1,75.567-24.3a25.253,25.253,0,0,1,3.259-12.786,23.02,23.02,0,0,1,9.042-8.872A26.567,26.567,0,0,1,100.9-49.14,25.9,25.9,0,0,1,113.71-46a22.33,22.33,0,0,1,8.813,8.827A26.579,26.579,0,0,1,125.69-24.024ZM100.9-40.04a13.917,13.917,0,0,0-9.318,3.23,13.555,13.555,0,0,0-4.636,8.6h27.815a13.373,13.373,0,0,0-4.5-8.554A13.753,13.753,0,0,0,100.9-40.04Zm32.13-27.482h11.475V0H133.034Zm22.858,0h11.475V0H155.892ZM197.477-49.14q10.832,0,16.57,5.141t5.737,15.516V0H208.952V-5.915a13.326,13.326,0,0,1-6.013,4.869A23.686,23.686,0,0,1,193.529.637a23.228,23.228,0,0,1-9.639-1.866,14.865,14.865,0,0,1-6.38-5.187,13.081,13.081,0,0,1-2.249-7.508,12.823,12.823,0,0,1,4.911-10.51q4.911-3.958,15.468-3.958h12.668v-.728q0-5.1-3.075-7.826t-9.134-2.73a26.577,26.577,0,0,0-8.124,1.274,20.015,20.015,0,0,0-6.747,3.549l-4.5-8.281A27.955,27.955,0,0,1,186-47.593,41.592,41.592,0,0,1,197.477-49.14Zm-1.561,41.5A14.918,14.918,0,0,0,203.581-9.6a10.669,10.669,0,0,0,4.728-5.6v-5.642H196.467q-9.914,0-9.914,6.461a5.783,5.783,0,0,0,2.479,4.914A11.437,11.437,0,0,0,195.916-7.644ZM312.593,0,312.5-42.224,291.387-7.28h-5.324l-21.114-34.4V0H253.566V-63.7h9.823l25.52,42.224L313.97-63.7h9.823L323.884,0Zm42.595-49.14q10.832,0,16.57,5.141T377.5-28.483V0H366.663V-5.915a13.326,13.326,0,0,1-6.013,4.869A23.686,23.686,0,0,1,351.241.637,23.228,23.228,0,0,1,341.6-1.229a14.865,14.865,0,0,1-6.38-5.187,13.081,13.081,0,0,1-2.249-7.508,12.823,12.823,0,0,1,4.911-10.51q4.911-3.958,15.468-3.958H366.02v-.728q0-5.1-3.075-7.826t-9.134-2.73a26.577,26.577,0,0,0-8.124,1.274,20.015,20.015,0,0,0-6.747,3.549l-4.5-8.281a27.955,27.955,0,0,1,9.272-4.459A41.592,41.592,0,0,1,355.188-49.14Zm-1.561,41.5A14.918,14.918,0,0,0,361.293-9.6a10.669,10.669,0,0,0,4.728-5.6v-5.642H354.178q-9.914,0-9.914,6.461a5.783,5.783,0,0,0,2.479,4.914A11.437,11.437,0,0,0,353.627-7.644Zm34.884-59.878h11.475V0H388.511Zm22.858,0h11.475V0H411.369Z" transform="translate(24 108)" fill="#121b2b"/>
    <path id="パス_1788" data-name="パス 1788" d="M13.059.31A12.414,12.414,0,0,1,7.071-1.132a10.679,10.679,0,0,1-4.19-3.984A10.977,10.977,0,0,1,1.364-10.85,10.891,10.891,0,0,1,2.9-16.585,10.791,10.791,0,0,1,7.1-20.569a12.414,12.414,0,0,1,5.988-1.442,12.586,12.586,0,0,1,4.91.93,10.011,10.011,0,0,1,3.753,2.7l-2.627,2.449a7.691,7.691,0,0,0-5.848-2.542,8.257,8.257,0,0,0-4.034.976,7.067,7.067,0,0,0-2.783,2.712,7.74,7.74,0,0,0-1,3.937,7.739,7.739,0,0,0,1,3.937A7.067,7.067,0,0,0,9.244-4.2a8.257,8.257,0,0,0,4.034.977A7.649,7.649,0,0,0,19.126-5.8l2.627,2.48a9.984,9.984,0,0,1-3.768,2.7A12.7,12.7,0,0,1,13.059.31ZM38.858,0,34.386-6.355a8.409,8.409,0,0,1-.844.031H28.6V0H24.536V-21.7h9.006a12.211,12.211,0,0,1,4.956.93A7.192,7.192,0,0,1,41.735-18.1a7.41,7.41,0,0,1,1.126,4.123,7.306,7.306,0,0,1-1.2,4.216A7.155,7.155,0,0,1,38.2-7.13L43.236,0Zm-.094-13.981a3.874,3.874,0,0,0-1.376-3.193,6.283,6.283,0,0,0-4.034-1.116H28.6v8.649h4.753a6.222,6.222,0,0,0,4.034-1.132A3.919,3.919,0,0,0,38.764-13.981Zm23.922,10.6V0H46.269V-21.7h15.98v3.379H50.335v5.642H60.9v3.317H50.335v5.983ZM80.292-5.022H69.347L67.19,0H63l9.85-21.7h4L86.734,0H82.481ZM78.948-8.184,74.82-17.67l-4.1,9.486ZM91.738-18.29H84.483V-21.7h18.575v3.41H95.8V0H91.738ZM121.414-3.379V0H105V-21.7h15.98v3.379H109.062v5.642h10.57v3.317h-10.57v5.983ZM124.822-21.7h9.569a13.832,13.832,0,0,1,6.223,1.348,10.036,10.036,0,0,1,4.222,3.813,10.716,10.716,0,0,1,1.5,5.688,10.716,10.716,0,0,1-1.5,5.689,10.036,10.036,0,0,1-4.222,3.813A13.832,13.832,0,0,1,134.391,0h-9.569ZM134.2-3.41a9.358,9.358,0,0,0,4.237-.914,6.577,6.577,0,0,0,2.814-2.6,7.643,7.643,0,0,0,.985-3.922,7.643,7.643,0,0,0-.985-3.922,6.577,6.577,0,0,0-2.814-2.6,9.358,9.358,0,0,0-4.237-.914h-5.316V-3.41Zm38.338-7.874a5.777,5.777,0,0,1,2.877,1.969,5.444,5.444,0,0,1,1.063,3.425,5,5,0,0,1-2.189,4.356A11.074,11.074,0,0,1,167.914,0H157.032V-21.7h10.257a10.139,10.139,0,0,1,5.973,1.5,4.817,4.817,0,0,1,2.1,4.139,5.4,5.4,0,0,1-.751,2.852A5.12,5.12,0,0,1,172.542-11.284ZM161.1-18.538v5.983h5.754a5.888,5.888,0,0,0,3.268-.759,2.5,2.5,0,0,0,1.141-2.217,2.525,2.525,0,0,0-1.141-2.248,5.888,5.888,0,0,0-3.268-.76Zm6.567,15.376q4.722,0,4.722-3.131t-4.722-3.131H161.1v6.262Zm21.014-4.495V0h-4.065V-7.6l-8.6-14.105h4.347l6.411,10.571L193.244-21.7h4Zm33.116-3.627a5.777,5.777,0,0,1,2.877,1.969,5.444,5.444,0,0,1,1.063,3.425,5,5,0,0,1-2.189,4.356A11.074,11.074,0,0,1,217.166,0H206.284V-21.7h10.257a10.139,10.139,0,0,1,5.973,1.5,4.817,4.817,0,0,1,2.1,4.139,5.4,5.4,0,0,1-.751,2.852A5.12,5.12,0,0,1,221.794-11.284Zm-11.445-7.254v5.983H216.1a5.888,5.888,0,0,0,3.268-.759,2.5,2.5,0,0,0,1.141-2.217,2.525,2.525,0,0,0-1.141-2.248,5.888,5.888,0,0,0-3.268-.76Zm6.567,15.376q4.722,0,4.722-3.131t-4.722-3.131h-6.567v6.262ZM236.085.217A9.541,9.541,0,0,1,231.52-.868a7.95,7.95,0,0,1-3.174-3.023A8.478,8.478,0,0,1,227.2-8.277a8.4,8.4,0,0,1,1.141-4.371,7.983,7.983,0,0,1,3.174-3.007,9.541,9.541,0,0,1,4.566-1.085,9.608,9.608,0,0,1,4.6,1.085,7.983,7.983,0,0,1,3.174,3.007A8.4,8.4,0,0,1,245-8.277a8.478,8.478,0,0,1-1.141,4.387,7.95,7.95,0,0,1-3.174,3.023A9.608,9.608,0,0,1,236.085.217Zm0-3.317a4.8,4.8,0,0,0,3.565-1.426,5.109,5.109,0,0,0,1.407-3.751,5.109,5.109,0,0,0-1.407-3.751,4.8,4.8,0,0,0-3.565-1.426,4.746,4.746,0,0,0-3.549,1.426,5.141,5.141,0,0,0-1.392,3.751,5.141,5.141,0,0,0,1.392,3.751A4.746,4.746,0,0,0,236.085-3.1ZM247.624-23h3.909V0h-3.909Zm7.912,6.448h3.909V0h-3.909Zm1.97-2.728a2.523,2.523,0,0,1-1.782-.667A2.169,2.169,0,0,1,255-21.607a2.169,2.169,0,0,1,.719-1.659,2.523,2.523,0,0,1,1.782-.667,2.6,2.6,0,0,1,1.782.635,2.041,2.041,0,0,1,.719,1.6,2.327,2.327,0,0,1-.7,1.721A2.446,2.446,0,0,1,257.506-19.282ZM279.8-23V0H276.05V-2.139a6.044,6.044,0,0,1-2.392,1.767,8.14,8.14,0,0,1-3.143.589,8.861,8.861,0,0,1-4.331-1.054,7.607,7.607,0,0,1-3.018-2.992,8.887,8.887,0,0,1-1.094-4.449,8.8,8.8,0,0,1,1.094-4.433,7.635,7.635,0,0,1,3.018-2.976,8.861,8.861,0,0,1,4.331-1.054,8,8,0,0,1,3.033.558,6.1,6.1,0,0,1,2.345,1.674V-23ZM270.984-3.1a5.062,5.062,0,0,0,2.533-.635A4.612,4.612,0,0,0,275.3-5.549a5.51,5.51,0,0,0,.657-2.728,5.51,5.51,0,0,0-.657-2.728,4.612,4.612,0,0,0-1.783-1.813,5.062,5.062,0,0,0-2.533-.635,5.062,5.062,0,0,0-2.533.635,4.612,4.612,0,0,0-1.783,1.813,5.51,5.51,0,0,0-.657,2.728,5.51,5.51,0,0,0,.657,2.728,4.612,4.612,0,0,0,1.783,1.814A5.062,5.062,0,0,0,270.984-3.1ZM299.5-8.184q0,.4-.063,1.147h-13.1a4.5,4.5,0,0,0,1.8,2.9,5.93,5.93,0,0,0,3.612,1.069,6.114,6.114,0,0,0,4.534-1.8l2.1,2.387a7.058,7.058,0,0,1-2.846,2.015,10.446,10.446,0,0,1-3.878.682,10.394,10.394,0,0,1-4.847-1.085,7.854,7.854,0,0,1-3.237-3.023,8.478,8.478,0,0,1-1.141-4.387,8.6,8.6,0,0,1,1.11-4.356,7.842,7.842,0,0,1,3.08-3.022,9.05,9.05,0,0,1,4.441-1.085,8.822,8.822,0,0,1,4.362,1.069,7.607,7.607,0,0,1,3,3.007A9.055,9.055,0,0,1,299.5-8.184ZM291.06-13.64a4.741,4.741,0,0,0-3.174,1.1,4.618,4.618,0,0,0-1.579,2.93h9.475a4.556,4.556,0,0,0-1.532-2.914A4.685,4.685,0,0,0,291.06-13.64Zm9.631-8.06h3.377l-.281,8.587h-2.846ZM312.418.217a15.073,15.073,0,0,1-3.971-.527,10.036,10.036,0,0,1-3.1-1.333l1.5-2.945a9.692,9.692,0,0,0,2.7,1.194,11.329,11.329,0,0,0,3.111.45q3.5,0,3.5-1.829a1.223,1.223,0,0,0-.891-1.209,15.5,15.5,0,0,0-2.861-.651,23.389,23.389,0,0,1-3.362-.713,5.166,5.166,0,0,1-2.252-1.41,3.918,3.918,0,0,1-.954-2.806,4.4,4.4,0,0,1,1.986-3.766,9.1,9.1,0,0,1,5.363-1.41,15.607,15.607,0,0,1,3.44.387,9.7,9.7,0,0,1,2.814,1.039l-1.5,2.945a9.321,9.321,0,0,0-4.785-1.24,5.342,5.342,0,0,0-2.611.511,1.525,1.525,0,0,0-.891,1.349,1.348,1.348,0,0,0,.954,1.318,15.265,15.265,0,0,0,2.955.728,22.973,22.973,0,0,1,3.283.713,5.146,5.146,0,0,1,2.2,1.364,3.782,3.782,0,0,1,.922,2.728,4.307,4.307,0,0,1-2.033,3.72A9.648,9.648,0,0,1,312.418.217ZM333.526.31a9.046,9.046,0,0,1-3.862-.822,7.554,7.554,0,0,1-2.893-2.31l2.314-2.759a5.286,5.286,0,0,0,4.347,2.48q3.409,0,3.409-4V-18.321h-7.787V-21.7h11.852V-7.316q0,3.813-1.876,5.72A7.389,7.389,0,0,1,333.526.31Zm17.95-17.05a8.189,8.189,0,0,1,5.644,1.751A6.738,6.738,0,0,1,359.075-9.7V0h-3.69V-2.015a4.539,4.539,0,0,1-2.048,1.659,8.068,8.068,0,0,1-3.205.574,7.912,7.912,0,0,1-3.283-.636,5.064,5.064,0,0,1-2.173-1.767,4.456,4.456,0,0,1-.766-2.558,4.368,4.368,0,0,1,1.673-3.58q1.673-1.348,5.269-1.349h4.315V-9.92a3.378,3.378,0,0,0-1.048-2.666,4.559,4.559,0,0,0-3.111-.93,9.053,9.053,0,0,0-2.767.434,6.818,6.818,0,0,0-2.3,1.209l-1.532-2.821a9.523,9.523,0,0,1,3.158-1.519A14.168,14.168,0,0,1,351.476-16.74ZM350.944-2.6a5.082,5.082,0,0,0,2.611-.667,3.635,3.635,0,0,0,1.61-1.907V-7.1h-4.034q-3.377,0-3.377,2.2a1.97,1.97,0,0,0,.844,1.674A3.9,3.9,0,0,0,350.944-2.6ZM372.208-16.74a8.926,8.926,0,0,1,4.362,1.054,7.635,7.635,0,0,1,3.018,2.976,8.8,8.8,0,0,1,1.094,4.433,8.887,8.887,0,0,1-1.094,4.449,7.607,7.607,0,0,1-3.018,2.992A8.926,8.926,0,0,1,372.208.217a6.769,6.769,0,0,1-5.347-2.232V6.014h-3.909V-16.554h3.721v2.17a6.044,6.044,0,0,1,2.392-1.767A8.14,8.14,0,0,1,372.208-16.74ZM371.771-3.1a4.746,4.746,0,0,0,3.549-1.426,5.141,5.141,0,0,0,1.392-3.751,5.141,5.141,0,0,0-1.392-3.751,4.746,4.746,0,0,0-3.549-1.426,5.062,5.062,0,0,0-2.533.635,4.612,4.612,0,0,0-1.782,1.813,5.51,5.51,0,0,0-.657,2.728,5.51,5.51,0,0,0,.657,2.728,4.612,4.612,0,0,0,1.782,1.814A5.062,5.062,0,0,0,371.771-3.1Zm17.668-13.64a8.189,8.189,0,0,1,5.644,1.751A6.738,6.738,0,0,1,397.038-9.7V0h-3.69V-2.015A4.539,4.539,0,0,1,391.3-.357a8.068,8.068,0,0,1-3.205.574,7.912,7.912,0,0,1-3.283-.636,5.064,5.064,0,0,1-2.173-1.767,4.456,4.456,0,0,1-.766-2.558,4.368,4.368,0,0,1,1.673-3.58q1.673-1.348,5.269-1.349h4.315V-9.92a3.378,3.378,0,0,0-1.048-2.666,4.559,4.559,0,0,0-3.111-.93,9.053,9.053,0,0,0-2.767.434,6.818,6.818,0,0,0-2.3,1.209l-1.532-2.821a9.523,9.523,0,0,1,3.158-1.519A14.168,14.168,0,0,1,389.439-16.74ZM388.907-2.6a5.082,5.082,0,0,0,2.611-.667,3.635,3.635,0,0,0,1.61-1.907V-7.1h-4.034q-3.377,0-3.377,2.2a1.97,1.97,0,0,0,.844,1.674A3.9,3.9,0,0,0,388.907-2.6ZM410.391-16.74a7.013,7.013,0,0,1,5.066,1.829,7.178,7.178,0,0,1,1.908,5.425V0h-3.909V-8.99a4.622,4.622,0,0,0-1.032-3.27,3.834,3.834,0,0,0-2.939-1.1,4.534,4.534,0,0,0-3.409,1.286,5.1,5.1,0,0,0-1.251,3.7V0h-3.909V-16.554h3.721v2.139a6.109,6.109,0,0,1,2.439-1.736A8.846,8.846,0,0,1,410.391-16.74Z" transform="translate(30 150.002)" fill="#121b2b"/>
  </g>
</svg>
