<svg xmlns="http://www.w3.org/2000/svg" width="276" height="146.122" viewBox="0 0 276 146.122"><g transform="translate(-20 -237.478)"><g transform="translate(-11.364 197)"><path d="M8.554-64.986H27.191a26.94,26.94,0,0,1,12.12,2.626,19.547,19.547,0,0,1,8.222,7.426,20.87,20.87,0,0,1,2.923,11.079,20.87,20.87,0,0,1-2.923,11.079,19.547,19.547,0,0,1-8.222,7.426,26.94,26.94,0,0,1-12.12,2.626H8.554ZM26.826-29.365a18.227,18.227,0,0,0,8.253-1.781,12.81,12.81,0,0,0,5.481-5.071,14.885,14.885,0,0,0,1.919-7.637,14.885,14.885,0,0,0-1.919-7.637,12.81,12.81,0,0,0-5.481-5.071,18.226,18.226,0,0,0-8.253-1.781H16.472v28.98Zm59.444-9.3q0,.785-.122,2.234H60.628a8.758,8.758,0,0,0,3.5,5.645A11.55,11.55,0,0,0,71.165-28.7,11.909,11.909,0,0,0,80-32.2l4.081,4.649a13.746,13.746,0,0,1-5.542,3.924A20.345,20.345,0,0,1,70.982-22.3a20.245,20.245,0,0,1-9.44-2.113,15.3,15.3,0,0,1-6.3-5.887,16.511,16.511,0,0,1-2.223-8.543,16.754,16.754,0,0,1,2.162-8.483,15.273,15.273,0,0,1,6-5.887,17.626,17.626,0,0,1,8.649-2.113,17.184,17.184,0,0,1,8.5,2.083,14.815,14.815,0,0,1,5.847,5.856A17.634,17.634,0,0,1,86.269-38.663ZM69.825-49.289a9.233,9.233,0,0,0-6.182,2.143,8.993,8.993,0,0,0-3.076,5.705H79.021a8.873,8.873,0,0,0-2.984-5.675A9.124,9.124,0,0,0,69.825-49.289ZM91.142-67.522h7.613v44.8H91.142Zm15.165,0h7.613v44.8h-7.613Zm27.59,12.2q7.187,0,10.993,3.411T148.7-41.621v18.9H141.51v-3.924a8.841,8.841,0,0,1-3.989,3.23,15.715,15.715,0,0,1-6.243,1.117,15.411,15.411,0,0,1-6.4-1.238,9.862,9.862,0,0,1-4.233-3.441,8.679,8.679,0,0,1-1.492-4.981,8.508,8.508,0,0,1,3.258-6.973q3.258-2.626,10.263-2.626h8.4v-.483a6.578,6.578,0,0,0-2.04-5.192q-2.04-1.811-6.06-1.811a17.633,17.633,0,0,0-5.39.845,13.279,13.279,0,0,0-4.477,2.355l-2.984-5.494a18.547,18.547,0,0,1,6.151-2.958A27.6,27.6,0,0,1,133.9-55.326ZM132.862-27.8a9.9,9.9,0,0,0,5.086-1.3,7.078,7.078,0,0,0,3.137-3.713V-36.55h-7.857q-6.578,0-6.578,4.287A3.837,3.837,0,0,0,128.294-29,7.588,7.588,0,0,0,132.862-27.8Zm77.411,5.072-.061-28.014L196.2-27.554h-3.533L178.662-50.375v27.652H171.11V-64.986h6.517l16.932,28.014,16.627-28.014H217.7l.061,42.262Zm28.26-32.6q7.187,0,10.993,3.411t3.807,10.294v18.9h-7.187v-3.924a8.841,8.841,0,0,1-3.989,3.23,15.714,15.714,0,0,1-6.243,1.117,15.411,15.411,0,0,1-6.395-1.238,9.863,9.863,0,0,1-4.233-3.441,8.679,8.679,0,0,1-1.492-4.981,8.508,8.508,0,0,1,3.258-6.973q3.258-2.626,10.263-2.626h8.4v-.483a6.578,6.578,0,0,0-2.04-5.192q-2.04-1.811-6.06-1.811a17.633,17.633,0,0,0-5.39.845,13.278,13.278,0,0,0-4.477,2.355l-2.984-5.494a18.547,18.547,0,0,1,6.151-2.958A27.594,27.594,0,0,1,238.532-55.326ZM237.5-27.8a9.9,9.9,0,0,0,5.086-1.3,7.078,7.078,0,0,0,3.137-3.713V-36.55h-7.857q-6.578,0-6.578,4.287A3.837,3.837,0,0,0,232.929-29,7.588,7.588,0,0,0,237.5-27.8Zm23.144-39.727h7.613v44.8h-7.613Zm15.165,0h7.613v44.8h-7.613Z" transform="translate(23.6 108)" fill="#121b2b"/><path d="M9.123-7.848A8.236,8.236,0,0,1,5.15-8.8a7.085,7.085,0,0,1-2.78-2.643,7.283,7.283,0,0,1-1.006-3.8,7.226,7.226,0,0,1,1.017-3.8A7.16,7.16,0,0,1,5.171-21.7a8.236,8.236,0,0,1,3.973-.956,8.351,8.351,0,0,1,3.257.617,6.642,6.642,0,0,1,2.49,1.789l-1.743,1.625a5.1,5.1,0,0,0-3.88-1.687,5.478,5.478,0,0,0-2.676.648,4.689,4.689,0,0,0-1.847,1.8,5.135,5.135,0,0,0-.664,2.612,5.135,5.135,0,0,0,.664,2.612,4.689,4.689,0,0,0,1.847,1.8,5.478,5.478,0,0,0,2.676.648,5.075,5.075,0,0,0,3.88-1.707l1.743,1.645a6.624,6.624,0,0,1-2.5,1.789A8.427,8.427,0,0,1,9.123-7.848ZM26.24-8.054,23.273-12.27a5.579,5.579,0,0,1-.56.021H19.435v4.2h-2.7v-14.4h5.975A8.1,8.1,0,0,1,26-21.834a4.772,4.772,0,0,1,2.147,1.769A4.916,4.916,0,0,1,28.9-17.33a4.847,4.847,0,0,1-.8,2.8A4.747,4.747,0,0,1,25.8-12.785l3.34,4.73Zm-.062-9.276a2.571,2.571,0,0,0-.913-2.118,4.169,4.169,0,0,0-2.676-.74H19.435v5.738h3.154a4.128,4.128,0,0,0,2.676-.751A2.6,2.6,0,0,0,26.178-17.33ZM42.049-10.3v2.242H31.157v-14.4h10.6v2.242h-7.9v3.743h7.013v2.2H33.854V-10.3Zm11.681-1.09H46.468L45.037-8.054h-2.78l6.535-14.4h2.656L58-8.054H55.182Zm-.892-2.1L50.1-19.777l-2.718,6.294Zm8.486-6.7H56.51v-2.262H68.834v2.262H64.021V-8.054h-2.7ZM81.012-10.3v2.242H70.12v-14.4h10.6v2.242h-7.9v3.743H79.83v2.2H72.817V-10.3Zm2.261-12.155h6.349a9.177,9.177,0,0,1,4.129.895,6.659,6.659,0,0,1,2.8,2.53,7.11,7.11,0,0,1,1,3.774,7.11,7.11,0,0,1-1,3.774,6.659,6.659,0,0,1-2.8,2.53,9.177,9.177,0,0,1-4.129.895H83.274ZM89.5-10.316a6.209,6.209,0,0,0,2.811-.607,4.364,4.364,0,0,0,1.867-1.728,5.071,5.071,0,0,0,.654-2.6,5.071,5.071,0,0,0-.654-2.6,4.364,4.364,0,0,0-1.867-1.728,6.209,6.209,0,0,0-2.811-.607H85.971v9.872Zm25.436-5.224a3.833,3.833,0,0,1,1.909,1.306,3.612,3.612,0,0,1,.705,2.273,3.321,3.321,0,0,1-1.452,2.89,7.347,7.347,0,0,1-4.232,1.018h-7.22v-14.4h6.805a6.727,6.727,0,0,1,3.963,1,3.2,3.2,0,0,1,1.39,2.746,3.582,3.582,0,0,1-.5,1.892A3.4,3.4,0,0,1,114.934-15.541Zm-7.593-4.813v3.969h3.817a3.907,3.907,0,0,0,2.168-.5,1.656,1.656,0,0,0,.757-1.471,1.675,1.675,0,0,0-.757-1.491,3.907,3.907,0,0,0-2.168-.5Zm4.357,10.2q3.133,0,3.133-2.077T111.7-14.306h-4.357v4.155Zm13.942-2.982v5.08h-2.7v-5.039l-5.705-9.358h2.884l4.253,7.013,4.295-7.013h2.656Zm21.971-2.406a3.833,3.833,0,0,1,1.909,1.306,3.612,3.612,0,0,1,.705,2.273,3.321,3.321,0,0,1-1.452,2.89,7.347,7.347,0,0,1-4.232,1.018h-7.22v-14.4h6.805a6.727,6.727,0,0,1,3.963,1,3.2,3.2,0,0,1,1.39,2.746,3.582,3.582,0,0,1-.5,1.892A3.4,3.4,0,0,1,147.611-15.541Zm-7.593-4.813v3.969h3.817a3.907,3.907,0,0,0,2.168-.5,1.656,1.656,0,0,0,.757-1.471A1.675,1.675,0,0,0,146-19.849a3.907,3.907,0,0,0-2.168-.5Zm4.357,10.2q3.133,0,3.133-2.077t-3.133-2.077h-4.357v4.155ZM157.092-7.91a6.33,6.33,0,0,1-3.029-.72,5.275,5.275,0,0,1-2.106-2.005,5.625,5.625,0,0,1-.757-2.91,5.57,5.57,0,0,1,.757-2.9,5.3,5.3,0,0,1,2.106-2,6.331,6.331,0,0,1,3.029-.72,6.374,6.374,0,0,1,3.05.72,5.3,5.3,0,0,1,2.106,2,5.57,5.57,0,0,1,.757,2.9,5.625,5.625,0,0,1-.757,2.91,5.275,5.275,0,0,1-2.106,2.005A6.374,6.374,0,0,1,157.092-7.91Zm0-2.2a3.183,3.183,0,0,0,2.365-.946,3.39,3.39,0,0,0,.934-2.489,3.39,3.39,0,0,0-.934-2.489,3.183,3.183,0,0,0-2.365-.946,3.149,3.149,0,0,0-2.355.946,3.411,3.411,0,0,0-.923,2.489,3.411,3.411,0,0,0,.923,2.489A3.149,3.149,0,0,0,157.092-10.111Zm7.656-13.2h2.593V-8.054h-2.593ZM170-19.037h2.593V-8.054H170Zm1.307-1.81a1.674,1.674,0,0,1-1.183-.442,1.439,1.439,0,0,1-.477-1.1,1.439,1.439,0,0,1,.477-1.1,1.674,1.674,0,0,1,1.183-.442,1.721,1.721,0,0,1,1.183.422,1.354,1.354,0,0,1,.477,1.059,1.544,1.544,0,0,1-.467,1.141A1.623,1.623,0,0,1,171.3-20.847ZM186.1-23.315V-8.054h-2.49V-9.473A4.01,4.01,0,0,1,182.02-8.3a5.4,5.4,0,0,1-2.085.391,5.879,5.879,0,0,1-2.874-.7,5.047,5.047,0,0,1-2-1.985,5.9,5.9,0,0,1-.726-2.951,5.839,5.839,0,0,1,.726-2.941,5.066,5.066,0,0,1,2-1.974,5.879,5.879,0,0,1,2.874-.7,5.307,5.307,0,0,1,2.012.37A4.047,4.047,0,0,1,183.5-17.68v-5.635Zm-5.851,13.2a3.358,3.358,0,0,0,1.681-.422,3.06,3.06,0,0,0,1.183-1.2,3.656,3.656,0,0,0,.436-1.81,3.656,3.656,0,0,0-.436-1.81,3.06,3.06,0,0,0-1.183-1.2,3.358,3.358,0,0,0-1.681-.422,3.358,3.358,0,0,0-1.68.422,3.06,3.06,0,0,0-1.183,1.2,3.655,3.655,0,0,0-.436,1.81,3.655,3.655,0,0,0,.436,1.81,3.06,3.06,0,0,0,1.183,1.2A3.358,3.358,0,0,0,180.246-10.111Zm18.921-3.373q0,.267-.042.761h-8.693a2.983,2.983,0,0,0,1.193,1.923,3.934,3.934,0,0,0,2.4.71,4.057,4.057,0,0,0,3.008-1.193l1.39,1.584a4.683,4.683,0,0,1-1.888,1.337,6.93,6.93,0,0,1-2.573.452,6.9,6.9,0,0,1-3.216-.72,5.211,5.211,0,0,1-2.147-2.005,5.625,5.625,0,0,1-.757-2.91,5.707,5.707,0,0,1,.737-2.89,5.2,5.2,0,0,1,2.044-2.005,6,6,0,0,1,2.946-.72,5.853,5.853,0,0,1,2.894.71,5.047,5.047,0,0,1,1.992,2A6.008,6.008,0,0,1,199.168-13.484Zm-5.6-3.62a3.145,3.145,0,0,0-2.106.73,3.063,3.063,0,0,0-1.048,1.944H196.7a3.023,3.023,0,0,0-1.017-1.933A3.108,3.108,0,0,0,193.566-17.1Zm6.39-5.347H202.2l-.187,5.7h-1.888Zm7.78,14.541a10,10,0,0,1-2.635-.35,6.659,6.659,0,0,1-2.054-.884l1-1.954a6.43,6.43,0,0,0,1.795.792,7.516,7.516,0,0,0,2.064.3q2.324,0,2.324-1.213a.811.811,0,0,0-.591-.8,10.285,10.285,0,0,0-1.9-.432,15.517,15.517,0,0,1-2.23-.473,3.427,3.427,0,0,1-1.494-.936,2.6,2.6,0,0,1-.633-1.861,2.919,2.919,0,0,1,1.317-2.5,6.035,6.035,0,0,1,3.558-.936,10.354,10.354,0,0,1,2.282.257,6.433,6.433,0,0,1,1.867.689l-1,1.954a6.184,6.184,0,0,0-3.174-.823,3.545,3.545,0,0,0-1.732.339,1.012,1.012,0,0,0-.591.895.894.894,0,0,0,.633.874,10.128,10.128,0,0,0,1.961.483,15.241,15.241,0,0,1,2.178.473,3.414,3.414,0,0,1,1.463.9,2.509,2.509,0,0,1,.612,1.81,2.858,2.858,0,0,1-1.349,2.468A6.4,6.4,0,0,1,207.736-7.91Zm14,.062a6,6,0,0,1-2.562-.545,5.011,5.011,0,0,1-1.919-1.532l1.535-1.83a3.507,3.507,0,0,0,2.884,1.645q2.261,0,2.261-2.653v-7.445h-5.166v-2.242h7.863v9.543a5.2,5.2,0,0,1-1.245,3.795A4.9,4.9,0,0,1,221.741-7.848ZM233.65-19.16A5.433,5.433,0,0,1,237.394-18a4.47,4.47,0,0,1,1.3,3.507v6.438h-2.448V-9.391a3.011,3.011,0,0,1-1.359,1.1,5.353,5.353,0,0,1-2.127.38,5.25,5.25,0,0,1-2.178-.422A3.359,3.359,0,0,1,229.137-9.5a2.956,2.956,0,0,1-.508-1.7,2.9,2.9,0,0,1,1.11-2.376,5.548,5.548,0,0,1,3.5-.895H236.1v-.165a2.241,2.241,0,0,0-.7-1.769,3.025,3.025,0,0,0-2.064-.617,6.006,6.006,0,0,0-1.836.288,4.523,4.523,0,0,0-1.525.8L228.961-17.8a6.318,6.318,0,0,1,2.1-1.008A9.4,9.4,0,0,1,233.65-19.16ZM233.3-9.782a3.371,3.371,0,0,0,1.732-.442,2.411,2.411,0,0,0,1.069-1.265v-1.275h-2.676q-2.241,0-2.241,1.46a1.307,1.307,0,0,0,.56,1.111A2.584,2.584,0,0,0,233.3-9.782ZM247.4-19.16a5.922,5.922,0,0,1,2.894.7,5.065,5.065,0,0,1,2,1.974,5.839,5.839,0,0,1,.726,2.941,5.9,5.9,0,0,1-.726,2.951,5.046,5.046,0,0,1-2,1.985,5.922,5.922,0,0,1-2.894.7,4.491,4.491,0,0,1-3.548-1.481v5.327h-2.593V-19.037h2.469v1.44a4.009,4.009,0,0,1,1.587-1.172A5.4,5.4,0,0,1,247.4-19.16Zm-.29,9.05a3.149,3.149,0,0,0,2.355-.946,3.411,3.411,0,0,0,.923-2.489,3.411,3.411,0,0,0-.923-2.489,3.149,3.149,0,0,0-2.355-.946,3.359,3.359,0,0,0-1.681.422,3.061,3.061,0,0,0-1.183,1.2,3.656,3.656,0,0,0-.436,1.81,3.656,3.656,0,0,0,.436,1.81,3.061,3.061,0,0,0,1.183,1.2A3.359,3.359,0,0,0,247.115-10.111Zm11.722-9.05A5.433,5.433,0,0,1,262.582-18a4.47,4.47,0,0,1,1.3,3.507v6.438H261.43V-9.391a3.012,3.012,0,0,1-1.359,1.1,5.353,5.353,0,0,1-2.127.38,5.25,5.25,0,0,1-2.178-.422A3.359,3.359,0,0,1,254.324-9.5a2.957,2.957,0,0,1-.508-1.7,2.9,2.9,0,0,1,1.11-2.376,5.548,5.548,0,0,1,3.5-.895h2.863v-.165a2.241,2.241,0,0,0-.7-1.769,3.025,3.025,0,0,0-2.064-.617,6.006,6.006,0,0,0-1.836.288,4.523,4.523,0,0,0-1.525.8L254.148-17.8a6.318,6.318,0,0,1,2.1-1.008A9.4,9.4,0,0,1,258.837-19.16Zm-.353,9.379a3.371,3.371,0,0,0,1.732-.442,2.411,2.411,0,0,0,1.069-1.265v-1.275h-2.676q-2.241,0-2.241,1.46a1.307,1.307,0,0,0,.56,1.111A2.585,2.585,0,0,0,258.484-9.782Zm14.253-9.379a4.653,4.653,0,0,1,3.361,1.213,4.762,4.762,0,0,1,1.266,3.6v6.294h-2.593v-5.965a3.066,3.066,0,0,0-.685-2.17,2.544,2.544,0,0,0-1.95-.73,3.008,3.008,0,0,0-2.261.854,3.384,3.384,0,0,0-.83,2.458v5.553h-2.593V-19.037h2.469v1.419a4.053,4.053,0,0,1,1.618-1.152A5.869,5.869,0,0,1,272.737-19.16Z" transform="translate(30 121.197)" fill="#121b2b"/></g><path d="M7.578.144A6.384,6.384,0,0,0,14.256-6.3a6.384,6.384,0,0,0-6.678-6.444A6.4,6.4,0,0,0,.864-6.3,6.4,6.4,0,0,0,7.578.144Zm0-1.6A4.74,4.74,0,0,1,2.664-6.3a4.74,4.74,0,0,1,4.914-4.842A4.731,4.731,0,0,1,12.456-6.3,4.731,4.731,0,0,1,7.578-1.458ZM21.852-9.63A4.089,4.089,0,0,0,18.414-8.1V-9.54H16.758V0h1.728V-4.914A2.833,2.833,0,0,1,21.51-8.082c1.638,0,2.574.918,2.574,2.79V0h1.728V-5.49C25.812-8.3,24.174-9.63,21.852-9.63ZM29.016,0h1.728V-13.356H29.016ZM34.9-11.376a1.131,1.131,0,0,0,1.17-1.152,1.12,1.12,0,0,0-1.17-1.1,1.138,1.138,0,0,0-1.17,1.134A1.123,1.123,0,0,0,34.9-11.376ZM34.038,0h1.728V-9.54H34.038ZM44.154-9.63A4.089,4.089,0,0,0,40.716-8.1V-9.54H39.06V0h1.728V-4.914a2.833,2.833,0,0,1,3.024-3.168c1.638,0,2.574.918,2.574,2.79V0h1.728V-5.49C48.114-8.3,46.476-9.63,44.154-9.63Zm15.84,4.914A4.6,4.6,0,0,0,55.278-9.63,4.672,4.672,0,0,0,50.49-4.77,4.776,4.776,0,0,0,55.62.108,4.788,4.788,0,0,0,59.382-1.44l-.954-1.116A3.562,3.562,0,0,1,55.674-1.4a3.231,3.231,0,0,1-3.456-2.79h7.74C59.976-4.356,59.994-4.572,59.994-4.716ZM55.278-8.172a2.975,2.975,0,0,1,3.06,2.736h-6.12A2.974,2.974,0,0,1,55.278-8.172ZM69.966.108c2.538,0,4.122-1.1,4.122-2.826,0-3.708-6.048-1.872-6.048-4.122,0-.756.738-1.314,2.25-1.314a4.982,4.982,0,0,1,2.754.756l.738-1.368a6.942,6.942,0,0,0-3.474-.864c-2.448,0-3.978,1.152-3.978,2.862,0,3.8,6.03,1.944,6.03,4.086,0,.81-.666,1.3-2.268,1.3a6.13,6.13,0,0,1-3.348-.99l-.72,1.368A6.885,6.885,0,0,0,69.966.108ZM81.342-9.63a4.137,4.137,0,0,0-3.366,1.44v-5.166H76.248V0h1.728V-4.914A2.833,2.833,0,0,1,81-8.082c1.638,0,2.574.918,2.574,2.79V0H85.3V-5.49C85.3-8.3,83.664-9.63,81.342-9.63ZM92.646.108A4.747,4.747,0,0,0,97.6-4.77a4.732,4.732,0,0,0-4.95-4.86,4.747,4.747,0,0,0-4.968,4.86A4.762,4.762,0,0,0,92.646.108Zm0-1.512A3.159,3.159,0,0,1,89.424-4.77a3.144,3.144,0,0,1,3.222-3.348,3.13,3.13,0,0,1,3.2,3.348A3.145,3.145,0,0,1,92.646-1.4Zm12.4-8.226a4.063,4.063,0,0,0-3.4,1.6V-9.54H99.99V3.492h1.728V-1.44a4.074,4.074,0,0,0,3.33,1.548,4.635,4.635,0,0,0,4.824-4.878A4.63,4.63,0,0,0,105.048-9.63ZM104.9-1.4a3.155,3.155,0,0,1-3.2-3.366,3.15,3.15,0,0,1,3.2-3.348,3.154,3.154,0,0,1,3.222,3.348A3.159,3.159,0,0,1,104.9-1.4ZM122.166-9.63a4.063,4.063,0,0,0-3.4,1.6V-9.54h-1.656V3.492h1.728V-1.44a4.074,4.074,0,0,0,3.33,1.548A4.635,4.635,0,0,0,126.99-4.77,4.63,4.63,0,0,0,122.166-9.63ZM122.022-1.4a3.155,3.155,0,0,1-3.2-3.366,3.15,3.15,0,0,1,3.2-3.348,3.154,3.154,0,0,1,3.222,3.348A3.159,3.159,0,0,1,122.022-1.4ZM133.47.108a4.747,4.747,0,0,0,4.95-4.878,4.732,4.732,0,0,0-4.95-4.86A4.747,4.747,0,0,0,128.5-4.77,4.762,4.762,0,0,0,133.47.108Zm0-1.512a3.159,3.159,0,0,1-3.222-3.366,3.144,3.144,0,0,1,3.222-3.348,3.13,3.13,0,0,1,3.2,3.348A3.145,3.145,0,0,1,133.47-1.4ZM143.55.108c2.538,0,4.122-1.1,4.122-2.826,0-3.708-6.048-1.872-6.048-4.122,0-.756.738-1.314,2.25-1.314a4.982,4.982,0,0,1,2.754.756l.738-1.368a6.942,6.942,0,0,0-3.474-.864c-2.448,0-3.978,1.152-3.978,2.862,0,3.8,6.03,1.944,6.03,4.086,0,.81-.666,1.3-2.268,1.3a6.13,6.13,0,0,1-3.348-.99l-.72,1.368A6.885,6.885,0,0,0,143.55.108ZM154.656-1.8a2.176,2.176,0,0,1-1.35.45,1.406,1.406,0,0,1-1.494-1.6V-8.118h2.736V-9.54h-2.736v-2.088h-1.728V-9.54h-1.62v1.422h1.62V-2.88A2.722,2.722,0,0,0,153.108.108,3.26,3.26,0,0,0,155.2-.558Zm3.492-9.576a1.131,1.131,0,0,0,1.17-1.152,1.12,1.12,0,0,0-1.17-1.1,1.138,1.138,0,0,0-1.17,1.134A1.123,1.123,0,0,0,158.148-11.376ZM157.284,0h1.728V-9.54h-1.728ZM167.4-9.63a4.089,4.089,0,0,0-3.438,1.53V-9.54h-1.656V0h1.728V-4.914a2.833,2.833,0,0,1,3.024-3.168c1.638,0,2.574.918,2.574,2.79V0h1.728V-5.49C171.36-8.3,169.722-9.63,167.4-9.63Zm14.706.09v1.476a4.353,4.353,0,0,0-3.528-1.566,4.555,4.555,0,0,0-4.842,4.608A4.569,4.569,0,0,0,178.578-.4a4.365,4.365,0,0,0,3.438-1.476v.756c0,2.16-1.026,3.2-3.276,3.2A5.823,5.823,0,0,1,175.068.846l-.828,1.332A7.063,7.063,0,0,0,178.794,3.6c3.24,0,4.95-1.53,4.95-4.9V-9.54Zm-3.33,7.632a3.075,3.075,0,0,1-3.294-3.114,3.051,3.051,0,0,1,3.294-3.1,3.046,3.046,0,0,1,3.276,3.1A3.07,3.07,0,0,1,178.776-1.908ZM194.616.108c2.538,0,4.122-1.1,4.122-2.826,0-3.708-6.048-1.872-6.048-4.122,0-.756.738-1.314,2.25-1.314a4.982,4.982,0,0,1,2.754.756l.738-1.368a6.942,6.942,0,0,0-3.474-.864c-2.448,0-3.978,1.152-3.978,2.862,0,3.8,6.03,1.944,6.03,4.086,0,.81-.666,1.3-2.268,1.3a6.13,6.13,0,0,1-3.348-.99l-.72,1.368A6.885,6.885,0,0,0,194.616.108Zm7.146-11.484a1.131,1.131,0,0,0,1.17-1.152,1.12,1.12,0,0,0-1.17-1.1,1.138,1.138,0,0,0-1.17,1.134A1.123,1.123,0,0,0,201.762-11.376ZM200.9,0h1.728V-9.54H200.9Zm9.846-1.8a2.176,2.176,0,0,1-1.35.45,1.406,1.406,0,0,1-1.494-1.6V-8.118h2.736V-9.54H207.9v-2.088h-1.728V-9.54h-1.62v1.422h1.62V-2.88A2.722,2.722,0,0,0,209.2.108a3.26,3.26,0,0,0,2.088-.666ZM221.67-4.716a4.6,4.6,0,0,0-4.716-4.914,4.672,4.672,0,0,0-4.788,4.86A4.776,4.776,0,0,0,217.3.108a4.788,4.788,0,0,0,3.762-1.548L220.1-2.556A3.562,3.562,0,0,1,217.35-1.4a3.231,3.231,0,0,1-3.456-2.79h7.74C221.652-4.356,221.67-4.572,221.67-4.716Zm-4.716-3.456a2.975,2.975,0,0,1,3.06,2.736h-6.12A2.974,2.974,0,0,1,216.954-8.172Z" transform="translate(20 380)" fill="#333"/></g></svg>