<svg xmlns="http://www.w3.org/2000/svg" xmlns:xlink="http://www.w3.org/1999/xlink" width="240" height="72" viewBox="0 0 240 72"><defs><linearGradient id="a" y1="0.482" x2="1" y2="0.488" gradientUnits="objectBoundingBox"><stop offset="0" stop-color="#dbb100"/><stop offset="1" stop-color="olive"/></linearGradient></defs><g transform="translate(-221 -164)"><path d="M10,0H230a10,10,0,0,1,10,10V62a10,10,0,0,1-10,10H10A10,10,0,0,1,0,62V10A10,10,0,0,1,10,0Z" transform="translate(221 164)" fill="#fff"/><path d="M10,1.5A8.51,8.51,0,0,0,1.5,10V62A8.51,8.51,0,0,0,10,70.5H230a8.51,8.51,0,0,0,8.5-8.5V10A8.51,8.51,0,0,0,230,1.5H10M10,0H230a10,10,0,0,1,10,10V62a10,10,0,0,1-10,10H10A10,10,0,0,1,0,62V10A10,10,0,0,1,10,0Z" transform="translate(221 164)" fill="#ccc"/><g transform="translate(-185.876 72.001)"><path d="M34.971,23.807a18.46,18.46,0,0,0,1.966-.637c.04-.016.083-.032.12-.049-.041.606-.055,1.208-.037,1.793a15.574,15.574,0,0,0,2.194,7.824A8.707,8.707,0,0,0,40.679,34.5a4.453,4.453,0,0,1-3.108,1.133,5.164,5.164,0,0,1-3.917-2.77c-.269-.438-.756-1.444-.756-1.444a3.841,3.841,0,0,0-.446-.785l.157-.053-.006-.027-.165.054a3.043,3.043,0,0,0-.61-.61,4.58,4.58,0,0,0-1.671-.63,9.622,9.622,0,0,1-1.817-.413,4.889,4.889,0,0,1-3.28-2.827,4.294,4.294,0,0,1,.065-2.914,9.1,9.1,0,0,0,1.721.689,13.185,13.185,0,0,0,3.676.5,17.688,17.688,0,0,0,4.449-.591m6.413,10.675c1.963-1.9,3.386-5.268,3.615-9.173a18.4,18.4,0,0,0,0-2.065c0-.043-.007-.083-.009-.129.564.226,1.132.425,1.694.59a17.5,17.5,0,0,0,4.872.724,12.92,12.92,0,0,0,3.25-.393,8.7,8.7,0,0,0,2.13-.847,4.46,4.46,0,0,1,.119,3.3,5.164,5.164,0,0,1-3.845,2.869c-.5.121-1.608.273-1.608.274a3.807,3.807,0,0,0-.884.181v-.165h-.026v.173a3.041,3.041,0,0,0-.769.391,4.577,4.577,0,0,0-1.115,1.395,9.634,9.634,0,0,1-.957,1.6,4.891,4.891,0,0,1-3.7,2.246h-.115a4.323,4.323,0,0,1-2.648-.971m-1.773-2A15.106,15.106,0,0,1,37.489,24.9a18.13,18.13,0,0,1,.053-1.982,15.335,15.335,0,0,0,3.5-2.055,15.723,15.723,0,0,0,3.469,2.045c.009.119.018.238.025.358a18,18,0,0,1,0,2.013c-.224,3.822-1.605,7.111-3.5,8.907a8.217,8.217,0,0,1-1.42-1.7M41.1,20.05c.089-.026.178-.055.268-.083-.106.1-.214.193-.326.288q-.165-.135-.316-.275c.083.024.165.05.248.072l.062.016Zm-2.722-1.125a10.877,10.877,0,0,0,1.278.668,11.5,11.5,0,0,0,1.006.965A14.772,14.772,0,0,1,37.6,22.38a15.153,15.153,0,0,1,.785-3.459m3.028,1.631a10.952,10.952,0,0,0,1.03-1.008,11.551,11.551,0,0,0,1.229-.661,14.774,14.774,0,0,1,.788,3.483,15.159,15.159,0,0,1-3.047-1.817m-2.857-2.079q.083-.2.165-.386a2.489,2.489,0,0,0,.009.261v.064l.036.053c.051.077.107.153.165.229-.125-.071-.248-.145-.375-.221m4.73-.036.035-.054v-.344q.089.2.173.4-.178.111-.358.216c.05-.072.1-.144.146-.216m-16.3,5.019a8.581,8.581,0,0,1-1.676-.677A8.176,8.176,0,0,1,26.481,20.9a15.106,15.106,0,0,1,6.558-4.36,18.013,18.013,0,0,1,1.9-.56,15.33,15.33,0,0,0,3.036,2.682,15.733,15.733,0,0,0-.874,3.929c-.111.045-.221.091-.33.134a18,18,0,0,1-1.916.62,17.229,17.229,0,0,1-4.33.578,12.722,12.722,0,0,1-3.544-.473m19.841-.2a17.985,17.985,0,0,1-1.866-.661,15.326,15.326,0,0,0-.878-3.958,15.708,15.708,0,0,0,3.016-2.666c.116.028.232.056.349.088a17.964,17.964,0,0,1,1.914.624c3.565,1.393,6.266,3.724,7.39,6.077a8.171,8.171,0,0,1-2.058.826,12.441,12.441,0,0,1-3.131.378,17.006,17.006,0,0,1-4.736-.708M39.938,19.2a8.947,8.947,0,0,1-.743-.938,8.114,8.114,0,0,1,.025-1.156,9,9,0,0,1,.661-.991,8.145,8.145,0,0,1,1.108-.33,8.947,8.947,0,0,1,1.151.324,8.16,8.16,0,0,1,.661.951,8.918,8.918,0,0,1,.048,1.195,8.153,8.153,0,0,1-.7.922,9,9,0,0,1-1.122.413,8.207,8.207,0,0,1-1.093-.381m-.458-3.634c.14.01.28.022.417.036-.083.03-.165.058-.248.089l-.059.024-.04.05c-.057.073-.112.149-.165.225q.043-.211.094-.424m2.988.181-.04-.05-.06-.021c-.087-.031-.176-.06-.265-.09q.214-.024.433-.041.05.206.094.408c-.054-.069-.106-.14-.161-.206m-7,.116A15.158,15.158,0,0,1,39,15.547a10.933,10.933,0,0,0-.24,1.421,11.531,11.531,0,0,0-.607,1.255,14.8,14.8,0,0,1-2.685-2.355M43.256,16.9a11.509,11.509,0,0,0-.248-1.373,14.8,14.8,0,0,1,3.556.33A15.156,15.156,0,0,1,43.9,18.191a10.947,10.947,0,0,0-.641-1.291M39.6,15.112a14.812,14.812,0,0,1,1.41-3.281,15.182,15.182,0,0,1,1.4,3.26,10.9,10.9,0,0,0-1.426.211,11.535,11.535,0,0,0-1.382-.189m-4.719.083a18.052,18.052,0,0,1-1.183-1.63,15.1,15.1,0,0,1-2.53-7.456,8.552,8.552,0,0,1,.13-1.815,8.2,8.2,0,0,1,2.147.543,15.106,15.106,0,0,1,6.172,4.89,18,18,0,0,1,1.121,1.632,15.323,15.323,0,0,0-1.616,3.716,15.718,15.718,0,0,0-4.007.384c-.078-.091-.154-.182-.23-.275m6.406-3.826c.063-.1.125-.2.19-.3a18.134,18.134,0,0,1,1.185-1.628,15.1,15.1,0,0,1,6.309-4.707,8.559,8.559,0,0,1,1.754-.437,8.191,8.191,0,0,1,.149,2.21,15.106,15.106,0,0,1-2.743,7.381,18.011,18.011,0,0,1-1.206,1.569,15.344,15.344,0,0,0-4.036-.388,15.74,15.74,0,0,0-1.6-3.7M26.05,13.5a3.042,3.042,0,0,0,.391-.767,4.606,4.606,0,0,0,.083-1.785A9.613,9.613,0,0,1,26.358,9.1,4.889,4.889,0,0,1,28.033,5.1a4.248,4.248,0,0,1,2.655-.841h.135A9.1,9.1,0,0,0,30.7,6.11a15.579,15.579,0,0,0,2.606,7.7,18.466,18.466,0,0,0,1.211,1.673c.028.035.057.069.083.1-.589.148-1.168.317-1.719.514a15.58,15.58,0,0,0-6.764,4.5,8.712,8.712,0,0,0-1.223,1.935,4.444,4.444,0,0,1-2.038-2.6,5.156,5.156,0,0,1,1.424-4.581c.33-.391,1.14-1.166,1.14-1.166a3.837,3.837,0,0,0,.609-.666l.1.132.019-.015h0l-.069-.092.071.091Zm23.479,2.734a18.567,18.567,0,0,0-1.965-.64c-.042-.012-.083-.021-.126-.031.389-.466.754-.945,1.084-1.429a15.582,15.582,0,0,0,2.824-7.619A8.7,8.7,0,0,0,51.2,4.231a4.442,4.442,0,0,1,3.175.908,5.155,5.155,0,0,1,1.541,4.542c-.039.512-.237,1.614-.236,1.614a3.8,3.8,0,0,0-.1.9l-.133-.027h0l-.03-.009.021.007-.021,0,.165.054a3.033,3.033,0,0,0,.135.852,4.569,4.569,0,0,0,.982,1.492,9.573,9.573,0,0,1,1.226,1.4,4.889,4.889,0,0,1,.991,4.212A4.3,4.3,0,0,1,57.136,22.5c-1.2-2.452-3.964-4.847-7.607-6.271m-9.543-6.8A15.579,15.579,0,0,0,33.613,4.4a8.712,8.712,0,0,0-2.218-.566A4.446,4.446,0,0,1,33.236,1.09,4.1,4.1,0,0,1,35.475.472a6.772,6.772,0,0,1,2.56.554c.475.195,1.461.723,1.462.723a3.784,3.784,0,0,0,.826.377l-.076.135-.006.011.013-.018-.011.02.1-.14h0l-.1.142.1-.141a3.036,3.036,0,0,0,.85.135h.022a4.641,4.641,0,0,0,1.7-.473,9.623,9.623,0,0,1,1.715-.733,4.891,4.891,0,0,1,4.315.359,4.294,4.294,0,0,1,1.659,2.395,9.134,9.134,0,0,0-1.8.454,15.579,15.579,0,0,0-6.514,4.856A18.544,18.544,0,0,0,41.078,10.8c-.024.036-.045.074-.069.11-.323-.514-.666-1.009-1.023-1.472M35.458,0a4.552,4.552,0,0,0-2.478.69,4.932,4.932,0,0,0-2.065,3.1,4.783,4.783,0,0,0-3.178.932A5.339,5.339,0,0,0,25.88,9.084a10.1,10.1,0,0,0,.173,1.947,4.129,4.129,0,0,1-.065,1.548,2.92,2.92,0,0,1-.887,1.262c-.034.032-.832.8-1.181,1.209A5.607,5.607,0,0,0,22.4,20.057a4.93,4.93,0,0,0,2.312,2.922,4.782,4.782,0,0,0-.095,3.311A5.338,5.338,0,0,0,28.189,29.4a10.091,10.091,0,0,0,1.906.436,4.124,4.124,0,0,1,1.453.54,2.923,2.923,0,0,1,.923,1.239c.021.042.5,1.039.785,1.5A5.609,5.609,0,0,0,37.55,36.11q.124.007.248.007a5.016,5.016,0,0,0,3.24-1.311,4.821,4.821,0,0,0,2.994,1.118h.129a5.338,5.338,0,0,0,4.065-2.436,10.1,10.1,0,0,0,1-1.677,4.11,4.11,0,0,1,.963-1.215,2.925,2.925,0,0,1,1.459-.5c.046-.006,1.144-.157,1.666-.284A5.606,5.606,0,0,0,57.49,26.66a4.933,4.933,0,0,0-.165-3.716,4.79,4.79,0,0,0,2.037-2.629A5.34,5.34,0,0,0,58.3,15.691a10.041,10.041,0,0,0-1.285-1.473,4.129,4.129,0,0,1-.857-1.292,2.923,2.923,0,0,1-.021-1.541c.008-.046.2-1.136.248-1.672a5.6,5.6,0,0,0-1.712-4.944,4.931,4.931,0,0,0-3.589-1,4.783,4.783,0,0,0-1.868-2.732A5.338,5.338,0,0,0,44.49.612a10.075,10.075,0,0,0-1.8.767,4.172,4.172,0,0,1-1.475.413H41.2a2.92,2.92,0,0,1-1.472-.457c-.041-.022-1.017-.545-1.515-.75A7.267,7.267,0,0,0,35.49,0Z" transform="translate(424.613 110)" fill="url(#a)"/><g transform="translate(496.894 116.476)"><path d="M0,183.394V161.179H4.7c4.672,0,6.807,2.29,6.807,5.414a5.13,5.13,0,0,1-2.847,4.672c3.094,1.052,4.673,2.973,4.673,5.754,0,3.311-2.568,6.374-7.24,6.374Zm2.23-12.9H3.716a7.026,7.026,0,0,0,3.9-.836,3.658,3.658,0,0,0,1.578-3.063c0-1.982-1.487-3.249-4.053-3.249H2.23Zm0,10.736H4.919c.96,0,1.918-.154,2.661-.216a4.111,4.111,0,0,0,3.435-3.964,4.061,4.061,0,0,0-2.166-3.559,10.856,10.856,0,0,0-5.105-.835H2.23Z" transform="translate(0 -160.187)" fill="#a7961e"/><path d="M46.185,179.249a8.5,8.5,0,1,1-2.443-6.163,8.571,8.571,0,0,1,2.443,6.163m-14.975.031a6.4,6.4,0,1,0,12.81,0,6.411,6.411,0,1,0-12.81,0" transform="translate(-12.465 -164.212)" fill="#a7961e"/><rect width="2.104" height="22.772" transform="translate(37.31 0.435)" fill="#a7961e"/><path d="M78.5,161.177a1.783,1.783,0,0,1-1.763,1.763A1.757,1.757,0,0,1,75,161.177a1.729,1.729,0,0,1,1.734-1.734,1.757,1.757,0,0,1,1.763,1.734m-2.785,5.043h2.1v16.429h-2.1Z" transform="translate(-32.187 -159.443)" fill="#a7961e"/><path d="M101.329,180.159a8.324,8.324,0,0,1-6.621,3.221,8.633,8.633,0,1,1,.062-17.266,7.774,7.774,0,0,1,6.559,3.437V160.2h2.1v22.772h-2.1Zm-12.871-5.384a6.5,6.5,0,1,0,6.5-6.622,6.524,6.524,0,0,0-6.5,6.622" transform="translate(-37.009 -159.768)" fill="#a7961e"/><path d="M125.51,179.372c.093,3.774,2.662,6.524,6.188,6.524,3.435,0,5.074-1.95,6.281-3.929l1.762.929a8.213,8.213,0,0,1-7.827,4.919,8.333,8.333,0,0,1-8.571-8.571,8.466,8.466,0,0,1,8.447-8.694c4.673,0,8.447,3.373,8.506,8.818Zm12.47-1.856a6.034,6.034,0,0,0-6.157-4.92c-2.939,0-5.135,1.578-6.095,4.92Z" transform="translate(-52.932 -164.21)" fill="#a7961e"/><path d="M176.811,183.982a4.67,4.67,0,0,0,3.435,1.826,2.9,2.9,0,0,0,3.032-2.725,2.643,2.643,0,0,0-1.362-2.29c-3.774-2.1-5.693-3-5.693-5.878a4.317,4.317,0,0,1,4.517-4.363,6.362,6.362,0,0,1,4.549,2.23l-1.362,1.392a4.618,4.618,0,0,0-3.311-1.578,2.336,2.336,0,0,0-2.478,2.2,2.7,2.7,0,0,0,1.268,2.2c3.775,2.2,5.879,3.032,5.879,6a4.828,4.828,0,0,1-4.95,4.858,6.2,6.2,0,0,1-4.858-2.351Z" transform="translate(-75.306 -164.21)" fill="#a7961e"/><path d="M165.2,168.511h-2.725v-4.146h1.33a8.341,8.341,0,0,0-1.052-3.469l1.175-.68a10.272,10.272,0,0,1,1.269,5.383Z" transform="translate(-69.725 -159.775)" fill="#a7961e"/></g></g></g></svg>