<svg xmlns="http://www.w3.org/2000/svg" width="240" height="72" viewBox="0 0 240 72">
  <g id="グループ_2466" data-name="グループ 2466" transform="translate(-249 -7127)">
    <g id="パス_1777" data-name="パス 1777" transform="translate(249 7127)" fill="#fff">
      <path d="M 230 71.25 L 10 71.25 C 4.899531364440918 71.25 0.75 67.10047149658203 0.75 62 L 0.75 10 C 0.75 4.899531364440918 4.899531364440918 0.75 10 0.75 L 230 0.75 C 235.1004638671875 0.75 239.25 4.899531364440918 239.25 10 L 239.25 62 C 239.25 67.10047149658203 235.1004638671875 71.25 230 71.25 Z" stroke="none"/>
      <path d="M 10 1.5 C 5.313095092773438 1.5 1.5 5.313095092773438 1.5 10 L 1.5 62 C 1.5 66.68690490722656 5.313095092773438 70.5 10 70.5 L 230 70.5 C 234.6869049072266 70.5 238.5 66.68690490722656 238.5 62 L 238.5 10 C 238.5 5.313095092773438 234.6869049072266 1.5 230 1.5 L 10 1.5 M 10 0 L 230 0 C 235.5228424072266 0 240 4.477157592773438 240 10 L 240 62 C 240 67.52284240722656 235.5228424072266 72 230 72 L 10 72 C 4.477157592773438 72 0 67.52284240722656 0 62 L 0 10 C 0 4.477157592773438 4.477157592773438 0 10 0 Z" stroke="none" fill="#ccc"/>
    </g>
    <path id="Bolide_s_Japan" data-name="Bolide&apos;s Japan" d="M11.2-8.28a3.755,3.755,0,0,1,2.254,1.392,3.951,3.951,0,0,1,.851,2.5,3.966,3.966,0,0,1-1.415,3.209A5.967,5.967,0,0,1,8.947,0H1.426V-16.146H8.694a5.959,5.959,0,0,1,3.853,1.127,3.728,3.728,0,0,1,1.391,3.059,3.7,3.7,0,0,1-.747,2.369A3.866,3.866,0,0,1,11.2-8.28ZM5.359-9.614H7.935a2.281,2.281,0,0,0,1.484-.425,1.529,1.529,0,0,0,.517-1.253,1.563,1.563,0,0,0-.517-1.265,2.239,2.239,0,0,0-1.484-.437H5.359Zm2.9,6.44a2.332,2.332,0,0,0,1.529-.449,1.592,1.592,0,0,0,.541-1.3,1.664,1.664,0,0,0-.564-1.334,2.309,2.309,0,0,0-1.552-.483H5.359v3.565ZM23.8.184a7.084,7.084,0,0,1-3.392-.805,5.894,5.894,0,0,1-2.369-2.3,6.873,6.873,0,0,1-.863-3.5A6.817,6.817,0,0,1,18.055-9.9a5.93,5.93,0,0,1,2.392-2.311,7.152,7.152,0,0,1,3.4-.805,7.152,7.152,0,0,1,3.4.805A5.93,5.93,0,0,1,29.647-9.9a6.817,6.817,0,0,1,.874,3.485,6.748,6.748,0,0,1-.886,3.484A5.988,5.988,0,0,1,27.22-.621,7.22,7.22,0,0,1,23.8.184Zm0-3.4a2.562,2.562,0,0,0,1.92-.828,3.289,3.289,0,0,0,.794-2.369,3.351,3.351,0,0,0-.77-2.369,2.49,2.49,0,0,0-1.9-.828,2.5,2.5,0,0,0-1.909.816,3.375,3.375,0,0,0-.759,2.381,3.417,3.417,0,0,0,.748,2.369A2.419,2.419,0,0,0,23.8-3.22Zm14.122-13.8V0H33.994V-17.02Zm6.21,2.852a2.384,2.384,0,0,1-1.69-.609,1.975,1.975,0,0,1-.656-1.506,2,2,0,0,1,.656-1.529,2.384,2.384,0,0,1,1.69-.61,2.352,2.352,0,0,1,1.667.61,2,2,0,0,1,.656,1.529,1.975,1.975,0,0,1-.656,1.506A2.352,2.352,0,0,1,44.137-14.168Zm1.955,1.334V0H42.159V-12.834Zm3.45,6.394a7.67,7.67,0,0,1,.747-3.473,5.576,5.576,0,0,1,2.036-2.3,5.314,5.314,0,0,1,2.875-.805,5.05,5.05,0,0,1,2.312.529,4.212,4.212,0,0,1,1.644,1.426V-17.02h3.933V0H59.156V-1.84A4.007,4.007,0,0,1,57.581-.368,4.939,4.939,0,0,1,55.2.184a5.258,5.258,0,0,1-2.875-.817A5.642,5.642,0,0,1,50.29-2.955,7.743,7.743,0,0,1,49.542-6.44Zm9.614.023A3.216,3.216,0,0,0,58.34-8.74a2.653,2.653,0,0,0-1.99-.851,2.67,2.67,0,0,0-1.989.84,3.175,3.175,0,0,0-.817,2.312,3.257,3.257,0,0,0,.817,2.334,2.636,2.636,0,0,0,1.989.863,2.653,2.653,0,0,0,1.99-.851A3.216,3.216,0,0,0,59.156-6.417Zm20.263-.207a10.041,10.041,0,0,1-.069,1.15h-8.9a2.674,2.674,0,0,0,.771,1.829,2.354,2.354,0,0,0,1.668.632,2.067,2.067,0,0,0,2.047-1.242H79.12a5.744,5.744,0,0,1-1.161,2.277,5.815,5.815,0,0,1-2.1,1.587,6.76,6.76,0,0,1-2.829.575,6.884,6.884,0,0,1-3.358-.805,5.726,5.726,0,0,1-2.3-2.3,7.1,7.1,0,0,1-.828-3.5,7.181,7.181,0,0,1,.817-3.5,5.652,5.652,0,0,1,2.288-2.3,6.932,6.932,0,0,1,3.381-.805,6.863,6.863,0,0,1,3.312.782A5.615,5.615,0,0,1,78.6-10.005,6.772,6.772,0,0,1,79.419-6.624ZM75.394-7.659a2.022,2.022,0,0,0-.69-1.61,2.54,2.54,0,0,0-1.725-.6,2.491,2.491,0,0,0-1.667.575,2.554,2.554,0,0,0-.84,1.633ZM85.606-18.4l-.3,5.083H82.662l-.3-5.083ZM94.553.184a7.377,7.377,0,0,1-2.99-.575,5.107,5.107,0,0,1-2.07-1.576,4.144,4.144,0,0,1-.851-2.243h3.887a1.494,1.494,0,0,0,.621,1.081,2.2,2.2,0,0,0,1.357.414A1.937,1.937,0,0,0,95.646-3a.88.88,0,0,0,.4-.747.862.862,0,0,0-.575-.817,11.616,11.616,0,0,0-1.863-.586,17.491,17.491,0,0,1-2.3-.679,3.974,3.974,0,0,1-1.587-1.127,3.071,3.071,0,0,1-.667-2.082,3.534,3.534,0,0,1,.609-2.012,4.1,4.1,0,0,1,1.794-1.438,6.869,6.869,0,0,1,2.818-.529,5.648,5.648,0,0,1,3.806,1.2,4.654,4.654,0,0,1,1.6,3.174H96.048a1.566,1.566,0,0,0-.587-1.058,2.034,2.034,0,0,0-1.3-.391,1.8,1.8,0,0,0-1.058.264.845.845,0,0,0-.368.724.884.884,0,0,0,.587.828,9.394,9.394,0,0,0,1.828.552A20,20,0,0,1,97.474-7a4.007,4.007,0,0,1,1.576,1.15,3.254,3.254,0,0,1,.7,2.127,3.377,3.377,0,0,1-.632,2.013A4.183,4.183,0,0,1,97.3-.322,6.949,6.949,0,0,1,94.553.184Zm25.369-16.33V-5.152a5.2,5.2,0,0,1-1.437,3.933,5.362,5.362,0,0,1-3.875,1.38,5.733,5.733,0,0,1-4.094-1.449,5.377,5.377,0,0,1-1.541-4.117h3.91a2.41,2.41,0,0,0,.414,1.53,1.442,1.442,0,0,0,1.2.517,1.37,1.37,0,0,0,1.1-.46,2.007,2.007,0,0,0,.391-1.334V-16.146Zm3.772,9.706a7.67,7.67,0,0,1,.748-3.473,5.576,5.576,0,0,1,2.035-2.3,5.314,5.314,0,0,1,2.875-.805,4.939,4.939,0,0,1,2.38.552,4.066,4.066,0,0,1,1.576,1.449v-1.817h3.933V0h-3.933V-1.817a4.247,4.247,0,0,1-1.6,1.449,4.939,4.939,0,0,1-2.38.552,5.218,5.218,0,0,1-2.852-.817,5.642,5.642,0,0,1-2.035-2.323A7.743,7.743,0,0,1,123.694-6.44Zm9.614.023a3.216,3.216,0,0,0-.816-2.323,2.653,2.653,0,0,0-1.99-.851,2.67,2.67,0,0,0-1.99.84A3.175,3.175,0,0,0,127.7-6.44a3.257,3.257,0,0,0,.816,2.334,2.636,2.636,0,0,0,1.99.863,2.653,2.653,0,0,0,1.99-.851A3.216,3.216,0,0,0,133.308-6.417Zm12.1-4.6a4.27,4.27,0,0,1,1.587-1.449,4.872,4.872,0,0,1,2.369-.552,5.314,5.314,0,0,1,2.875.805,5.576,5.576,0,0,1,2.035,2.3,7.671,7.671,0,0,1,.748,3.473,7.743,7.743,0,0,1-.748,3.485,5.642,5.642,0,0,1-2.035,2.323,5.258,5.258,0,0,1-2.875.817A4.889,4.889,0,0,1,147-.368a4.322,4.322,0,0,1-1.6-1.426V6.118h-3.933V-12.834h3.933Zm5.612,4.577a3.175,3.175,0,0,0-.817-2.312,2.7,2.7,0,0,0-2.012-.84,2.653,2.653,0,0,0-1.99.851,3.216,3.216,0,0,0-.816,2.323,3.216,3.216,0,0,0,.816,2.323,2.653,2.653,0,0,0,1.99.851,2.672,2.672,0,0,0,2-.863A3.23,3.23,0,0,0,151.018-6.44Zm6.67,0a7.67,7.67,0,0,1,.747-3.473,5.576,5.576,0,0,1,2.036-2.3,5.314,5.314,0,0,1,2.875-.805,4.939,4.939,0,0,1,2.38.552,4.066,4.066,0,0,1,1.576,1.449v-1.817h3.933V0H167.3V-1.817a4.247,4.247,0,0,1-1.6,1.449,4.939,4.939,0,0,1-2.38.552,5.218,5.218,0,0,1-2.852-.817,5.642,5.642,0,0,1-2.036-2.323A7.743,7.743,0,0,1,157.688-6.44Zm9.614.023a3.216,3.216,0,0,0-.816-2.323,2.653,2.653,0,0,0-1.99-.851,2.67,2.67,0,0,0-1.99.84,3.175,3.175,0,0,0-.816,2.312,3.257,3.257,0,0,0,.816,2.334,2.636,2.636,0,0,0,1.99.863,2.653,2.653,0,0,0,1.99-.851A3.216,3.216,0,0,0,167.3-6.417Zm15.985-6.555a4.658,4.658,0,0,1,3.6,1.46A5.7,5.7,0,0,1,188.232-7.5V0h-3.91V-6.969a2.817,2.817,0,0,0-.667-2,2.339,2.339,0,0,0-1.794-.713,2.339,2.339,0,0,0-1.794.713,2.817,2.817,0,0,0-.667,2V0h-3.933V-12.834H179.4v1.7a4.149,4.149,0,0,1,1.61-1.345A5.118,5.118,0,0,1,183.287-12.972Z" transform="translate(274 7171)" fill="#333"/>
  </g>
</svg>
