<svg xmlns="http://www.w3.org/2000/svg" width="240" height="72" viewBox="0 0 240 72"><g transform="translate(-727 -164)"><rect width="240" height="72" rx="10" transform="translate(727 164)" fill="#fff"/><path d="M10,1.5A8.51,8.51,0,0,0,1.5,10V62A8.51,8.51,0,0,0,10,70.5H230a8.51,8.51,0,0,0,8.5-8.5V10A8.51,8.51,0,0,0,230,1.5H10M10,0H230a10,10,0,0,1,10,10V62a10,10,0,0,1-10,10H10A10,10,0,0,1,0,62V10A10,10,0,0,1,10,0Z" transform="translate(727 164)" fill="#ccc"/><g transform="translate(743.51 159.072)"><path d="M1.19-15.652a8.6,8.6,0,0,1,1.094-4.339,7.809,7.809,0,0,1,2.987-2.987,8.475,8.475,0,0,1,4.245-1.07,8.351,8.351,0,0,1,4.821,1.411,7.378,7.378,0,0,1,2.893,3.9H13.443A3.924,3.924,0,0,0,11.856-20.5a4.659,4.659,0,0,0-2.364-.588,4.863,4.863,0,0,0-2.552.67A4.574,4.574,0,0,0,5.2-18.521a6.241,6.241,0,0,0-.623,2.869A6.26,6.26,0,0,0,5.2-12.795,4.559,4.559,0,0,0,6.94-10.89a4.863,4.863,0,0,0,2.552.67,4.587,4.587,0,0,0,2.364-.6,4,4,0,0,0,1.588-1.776H17.23a7.339,7.339,0,0,1-2.881,3.916,8.387,8.387,0,0,1-4.833,1.4,8.475,8.475,0,0,1-4.245-1.07,7.833,7.833,0,0,1-2.987-2.975A8.535,8.535,0,0,1,1.19-15.652Zm27.894,8.4A8.506,8.506,0,0,1,24.85-8.338a8.077,8.077,0,0,1-3.057-3,8.389,8.389,0,0,1-1.129-4.339,8.343,8.343,0,0,1,1.129-4.316,8.077,8.077,0,0,1,3.057-3,8.506,8.506,0,0,1,4.233-1.082,8.486,8.486,0,0,1,4.245,1.082,8.016,8.016,0,0,1,3.034,3,8.411,8.411,0,0,1,1.117,4.316,8.457,8.457,0,0,1-1.117,4.339,7.991,7.991,0,0,1-3.046,3A8.506,8.506,0,0,1,29.084-7.256Zm0-2.94a5.016,5.016,0,0,0,2.611-.67,4.6,4.6,0,0,0,1.764-1.917,6.29,6.29,0,0,0,.635-2.893,6.217,6.217,0,0,0-.635-2.881,4.533,4.533,0,0,0-1.764-1.893,5.086,5.086,0,0,0-2.611-.659,5.15,5.15,0,0,0-2.622.659,4.51,4.51,0,0,0-1.776,1.893,6.217,6.217,0,0,0-.635,2.881,6.29,6.29,0,0,0,.635,2.893,4.571,4.571,0,0,0,1.776,1.917A5.079,5.079,0,0,0,29.084-10.2ZM49.8-7.42l-3.622-6.4H44.63v6.4H41.337V-23.837H47.5a7.2,7.2,0,0,1,3.246.67,4.683,4.683,0,0,1,2.011,1.811,4.942,4.942,0,0,1,.67,2.552,4.888,4.888,0,0,1-.941,2.928,4.833,4.833,0,0,1-2.8,1.8L53.614-7.42ZM44.63-16.287h2.752a2.749,2.749,0,0,0,2-.647,2.407,2.407,0,0,0,.659-1.8,2.3,2.3,0,0,0-.659-1.752,2.816,2.816,0,0,0-2-.623H44.63Zm23.26,5.739H61.352L60.27-7.42H56.813l5.9-16.44H66.55l5.9,16.44H68.972ZM67-13.183,64.621-20.05l-2.375,6.868Zm21.05-5.574a5.112,5.112,0,0,1-.623,2.47,4.578,4.578,0,0,1-1.952,1.858,7.1,7.1,0,0,1-3.351.706H79.368v6.3H76.075V-23.837h6.044a7.3,7.3,0,0,1,3.246.659,4.587,4.587,0,0,1,2.011,1.811A5.1,5.1,0,0,1,88.046-18.757Zm-6.068,2.375A2.853,2.853,0,0,0,84-17a2.3,2.3,0,0,0,.659-1.752q0-2.4-2.681-2.4H79.368v4.774Zm13.053-7.456v10.16a3.483,3.483,0,0,0,.87,2.552,3.282,3.282,0,0,0,2.446.882,3.314,3.314,0,0,0,2.47-.882,3.483,3.483,0,0,0,.87-2.552v-10.16H105V-13.7a6.544,6.544,0,0,1-.905,3.54,5.743,5.743,0,0,1-2.422,2.176,7.69,7.69,0,0,1-3.375.729,7.485,7.485,0,0,1-3.328-.729,5.551,5.551,0,0,1-2.364-2.176,6.75,6.75,0,0,1-.87-3.54V-23.837ZM118.057-7.42l-3.622-6.4h-1.552v6.4H109.59V-23.837h6.162a7.2,7.2,0,0,1,3.246.67,4.683,4.683,0,0,1,2.011,1.811,4.942,4.942,0,0,1,.67,2.552,4.888,4.888,0,0,1-.941,2.928,4.833,4.833,0,0,1-2.8,1.8l3.928,6.656Zm-5.174-8.867h2.752a2.749,2.749,0,0,0,2-.647,2.407,2.407,0,0,0,.659-1.8,2.3,2.3,0,0,0-.659-1.752,2.816,2.816,0,0,0-2-.623h-2.752Zm23.26,5.739H129.6L128.523-7.42h-3.457l5.9-16.44H134.8l5.9,16.44h-3.481Zm-.894-2.634-2.375-6.868L130.5-13.183Z" transform="translate(32.784 48)" fill="#121b2b"/><path d="M.49-6.833A3.541,3.541,0,0,1,.94-8.62,3.216,3.216,0,0,1,2.17-9.85a3.49,3.49,0,0,1,1.748-.441A3.439,3.439,0,0,1,5.9-9.71,3.038,3.038,0,0,1,7.095-8.1H5.536a1.616,1.616,0,0,0-.654-.726,1.918,1.918,0,0,0-.973-.242,2,2,0,0,0-1.051.276,1.883,1.883,0,0,0-.717.78,2.57,2.57,0,0,0-.257,1.181,2.578,2.578,0,0,0,.257,1.177,1.877,1.877,0,0,0,.717.784A2,2,0,0,0,3.909-4.6a1.889,1.889,0,0,0,.973-.247,1.645,1.645,0,0,0,.654-.731H7.095A3.022,3.022,0,0,1,5.908-3.962a3.453,3.453,0,0,1-1.99.576A3.49,3.49,0,0,1,2.17-3.826,3.225,3.225,0,0,1,.94-5.051,3.514,3.514,0,0,1,.49-6.833Zm11.631,3.39L10.63-6.078H9.99v2.634H8.635V-10.2h2.537a2.963,2.963,0,0,1,1.336.276,1.928,1.928,0,0,1,.828.746,2.035,2.035,0,0,1,.276,1.051,2.013,2.013,0,0,1-.387,1.206,1.99,1.99,0,0,1-1.152.741L13.69-3.444ZM9.99-7.095h1.133a1.132,1.132,0,0,0,.823-.266.991.991,0,0,0,.271-.741.946.946,0,0,0-.271-.721,1.159,1.159,0,0,0-.823-.257H9.99Zm6.585-2.014v1.695h2.276V-6.34H16.576v1.792h2.566v1.1H15.22v-6.769h3.922v1.1Zm8.319,4.377H22.2l-.445,1.288H20.333l2.431-6.769h1.579l2.431,6.769H25.34Zm-.368-1.085-.978-2.828L22.57-5.817ZM32.661-10.2v1.094h-1.8v5.665H29.5V-9.109H27.7V-10.2Zm2.721,1.094v1.695h2.276V-6.34H35.383v1.792h2.566v1.1H34.027v-6.769h3.922v1.1ZM41.92-10.2a4.038,4.038,0,0,1,1.874.416A2.975,2.975,0,0,1,45.043-8.6a3.534,3.534,0,0,1,.441,1.787,3.481,3.481,0,0,1-.441,1.777A2.993,2.993,0,0,1,43.794-3.86a4.038,4.038,0,0,1-1.874.416H39.557V-10.2ZM41.871-4.6a2.227,2.227,0,0,0,1.646-.581A2.213,2.213,0,0,0,44.1-6.814a2.264,2.264,0,0,0-.581-1.651,2.2,2.2,0,0,0-1.646-.6h-.959V-4.6ZM53.4-6.911a1.519,1.519,0,0,1,.939.571A1.669,1.669,0,0,1,54.7-5.274a1.717,1.717,0,0,1-.266.954,1.774,1.774,0,0,1-.77.644,2.821,2.821,0,0,1-1.191.232H49.561V-10.2H52.35a2.892,2.892,0,0,1,1.186.223,1.689,1.689,0,0,1,.755.62,1.623,1.623,0,0,1,.257.9,1.54,1.54,0,0,1-.315.988A1.684,1.684,0,0,1,53.4-6.911Zm-2.479-.5h1.24a1.135,1.135,0,0,0,.746-.218.767.767,0,0,0,.261-.625.782.782,0,0,0-.261-.629,1.118,1.118,0,0,0-.746-.223h-1.24Zm1.365,2.867a1.16,1.16,0,0,0,.77-.232.813.813,0,0,0,.276-.659.848.848,0,0,0-.291-.683,1.171,1.171,0,0,0-.784-.247H50.917v1.821ZM61.54-10.2,59.255-5.8v2.353H57.9V-5.8L55.6-10.2h1.53l1.453,3.089L60.029-10.2Zm7.68,3.293a1.519,1.519,0,0,1,.939.571,1.669,1.669,0,0,1,.368,1.065,1.717,1.717,0,0,1-.266.954,1.774,1.774,0,0,1-.77.644,2.821,2.821,0,0,1-1.191.232H65.385V-10.2h2.789a2.892,2.892,0,0,1,1.186.223,1.689,1.689,0,0,1,.755.62,1.623,1.623,0,0,1,.257.9,1.54,1.54,0,0,1-.315.988A1.684,1.684,0,0,1,69.22-6.911Zm-2.479-.5h1.24a1.135,1.135,0,0,0,.746-.218.767.767,0,0,0,.261-.625.782.782,0,0,0-.261-.629,1.118,1.118,0,0,0-.746-.223h-1.24Zm1.366,2.867a1.16,1.16,0,0,0,.77-.232.813.813,0,0,0,.276-.659.848.848,0,0,0-.291-.683,1.171,1.171,0,0,0-.784-.247H66.741v1.821Zm6.266,1.191A2.826,2.826,0,0,1,72.977-3.7,2.476,2.476,0,0,1,72-4.674a2.916,2.916,0,0,1-.353-1.453,2.855,2.855,0,0,1,.363-1.453,2.524,2.524,0,0,1,.993-.973,2.881,2.881,0,0,1,1.4-.344,2.881,2.881,0,0,1,1.4.344,2.524,2.524,0,0,1,.993.973,2.855,2.855,0,0,1,.363,1.453A2.8,2.8,0,0,1,76.8-4.674a2.582,2.582,0,0,1-1.007.973A2.929,2.929,0,0,1,74.372-3.357Zm0-1.181a1.41,1.41,0,0,0,.692-.179,1.3,1.3,0,0,0,.518-.537,1.811,1.811,0,0,0,.194-.872,1.615,1.615,0,0,0-.4-1.177,1.321,1.321,0,0,0-.983-.412,1.29,1.29,0,0,0-.973.412,1.639,1.639,0,0,0-.392,1.177,1.665,1.665,0,0,0,.383,1.177A1.26,1.26,0,0,0,74.372-4.538ZM79.9-10.61v7.166H78.546V-10.61Zm2.4,1.162a.826.826,0,0,1-.6-.228.753.753,0,0,1-.237-.567.753.753,0,0,1,.237-.567.826.826,0,0,1,.6-.228.826.826,0,0,1,.6.228.753.753,0,0,1,.237.567.753.753,0,0,1-.237.567A.826.826,0,0,1,82.3-9.448Zm.668.639v5.365H81.616V-8.809Zm1.366,2.663a3.105,3.105,0,0,1,.324-1.443,2.367,2.367,0,0,1,.886-.968A2.371,2.371,0,0,1,86.8-8.9a2.279,2.279,0,0,1,1,.228,1.994,1.994,0,0,1,.755.605V-10.61h1.375v7.166H88.55v-.794a1.837,1.837,0,0,1-.707.639,2.215,2.215,0,0,1-1.056.242,2.3,2.3,0,0,1-1.24-.349,2.428,2.428,0,0,1-.886-.983A3.157,3.157,0,0,1,84.337-6.146Zm4.222.019a1.739,1.739,0,0,0-.194-.847,1.366,1.366,0,0,0-.523-.542,1.4,1.4,0,0,0-.707-.189,1.373,1.373,0,0,0-.7.184,1.386,1.386,0,0,0-.518.537,1.684,1.684,0,0,0-.2.838,1.739,1.739,0,0,0,.2.847,1.429,1.429,0,0,0,.523.557,1.328,1.328,0,0,0,.692.194,1.4,1.4,0,0,0,.707-.189,1.366,1.366,0,0,0,.523-.542A1.739,1.739,0,0,0,88.56-6.126Zm8.057-.116a3.2,3.2,0,0,1-.039.523H92.656a1.334,1.334,0,0,0,.407.91,1.254,1.254,0,0,0,.881.329,1.107,1.107,0,0,0,1.075-.649h1.462a2.444,2.444,0,0,1-.891,1.273,2.6,2.6,0,0,1-1.617.5,2.8,2.8,0,0,1-1.39-.344,2.42,2.42,0,0,1-.959-.973,2.982,2.982,0,0,1-.344-1.453,3.038,3.038,0,0,1,.339-1.462,2.365,2.365,0,0,1,.949-.968,2.843,2.843,0,0,1,1.4-.339,2.821,2.821,0,0,1,1.37.329,2.317,2.317,0,0,1,.939.935A2.828,2.828,0,0,1,96.617-6.243Zm-1.4-.387a1.075,1.075,0,0,0-.378-.838,1.338,1.338,0,0,0-.9-.315,1.231,1.231,0,0,0-.847.305,1.341,1.341,0,0,0-.421.847Zm3.622-4.542-.116,2.053H97.8l-.126-2.053ZM102.3-3.357a2.829,2.829,0,0,1-1.182-.237,2.088,2.088,0,0,1-.828-.644,1.632,1.632,0,0,1-.334-.9h1.365a.744.744,0,0,0,.305.513,1.061,1.061,0,0,0,.663.2,1.03,1.03,0,0,0,.605-.155.469.469,0,0,0,.218-.4.419.419,0,0,0-.266-.392A5.012,5.012,0,0,0,102-5.652a7.181,7.181,0,0,1-.983-.3,1.706,1.706,0,0,1-.659-.475,1.274,1.274,0,0,1-.276-.862,1.391,1.391,0,0,1,.257-.813,1.723,1.723,0,0,1,.736-.581A2.759,2.759,0,0,1,102.2-8.9a2.3,2.3,0,0,1,1.53.479,1.776,1.776,0,0,1,.629,1.293h-1.3a.7.7,0,0,0-.266-.508.99.99,0,0,0-.634-.189,1,1,0,0,0-.567.136.432.432,0,0,0-.2.378.444.444,0,0,0,.271.412,4.211,4.211,0,0,0,.843.286,7.151,7.151,0,0,1,.959.3,1.694,1.694,0,0,1,.654.479,1.316,1.316,0,0,1,.286.857,1.421,1.421,0,0,1-.257.833,1.69,1.69,0,0,1-.736.576A2.789,2.789,0,0,1,102.3-3.357ZM112.528-10.2v4.745a2.025,2.025,0,0,1-.571,1.535,2.12,2.12,0,0,1-1.53.547,2.186,2.186,0,0,1-1.564-.562,2.052,2.052,0,0,1-.6-1.569h1.356a1.081,1.081,0,0,0,.208.678.7.7,0,0,0,.576.242.69.69,0,0,0,.562-.232.969.969,0,0,0,.194-.639V-10.2Zm1.608,4.058a3.105,3.105,0,0,1,.324-1.443,2.378,2.378,0,0,1,.881-.968,2.346,2.346,0,0,1,1.244-.339,2.186,2.186,0,0,1,1.051.242,2.132,2.132,0,0,1,.721.61v-.765h1.365v5.365h-1.365v-.784a2.017,2.017,0,0,1-.721.625,2.207,2.207,0,0,1-1.06.247,2.28,2.28,0,0,1-1.235-.349,2.44,2.44,0,0,1-.881-.983A3.157,3.157,0,0,1,114.136-6.146Zm4.222.019a1.739,1.739,0,0,0-.194-.847,1.366,1.366,0,0,0-.523-.542,1.4,1.4,0,0,0-.707-.189,1.373,1.373,0,0,0-.7.184,1.386,1.386,0,0,0-.518.537,1.684,1.684,0,0,0-.2.838,1.739,1.739,0,0,0,.2.847,1.429,1.429,0,0,0,.523.557,1.328,1.328,0,0,0,.692.194,1.4,1.4,0,0,0,.707-.189,1.366,1.366,0,0,0,.523-.542A1.739,1.739,0,0,0,118.358-6.126Zm4.426-1.908a2.059,2.059,0,0,1,.721-.615,2.187,2.187,0,0,1,1.051-.247,2.346,2.346,0,0,1,1.244.339,2.385,2.385,0,0,1,.881.964,3.1,3.1,0,0,1,.324,1.448,3.157,3.157,0,0,1-.324,1.457,2.44,2.44,0,0,1-.881.983,2.3,2.3,0,0,1-1.244.349,2.165,2.165,0,0,1-1.041-.242,2.233,2.233,0,0,1-.731-.61V-.887h-1.356V-8.809h1.356Zm2.838,1.888a1.684,1.684,0,0,0-.2-.838,1.374,1.374,0,0,0-.523-.537,1.4,1.4,0,0,0-.7-.184,1.354,1.354,0,0,0-.692.189,1.4,1.4,0,0,0-.523.547,1.711,1.711,0,0,0-.2.843,1.711,1.711,0,0,0,.2.843,1.4,1.4,0,0,0,.523.547,1.354,1.354,0,0,0,.692.189,1.346,1.346,0,0,0,.7-.194,1.438,1.438,0,0,0,.523-.552A1.732,1.732,0,0,0,125.622-6.146Zm2.4,0a3.105,3.105,0,0,1,.324-1.443,2.378,2.378,0,0,1,.881-.968,2.346,2.346,0,0,1,1.244-.339,2.186,2.186,0,0,1,1.051.242,2.132,2.132,0,0,1,.721.61v-.765h1.365v5.365h-1.365v-.784a2.017,2.017,0,0,1-.721.625,2.207,2.207,0,0,1-1.06.247,2.28,2.28,0,0,1-1.235-.349,2.44,2.44,0,0,1-.881-.983A3.157,3.157,0,0,1,128.023-6.146Zm4.222.019a1.739,1.739,0,0,0-.194-.847,1.365,1.365,0,0,0-.523-.542,1.4,1.4,0,0,0-.707-.189,1.373,1.373,0,0,0-.7.184,1.385,1.385,0,0,0-.518.537,1.684,1.684,0,0,0-.2.838,1.739,1.739,0,0,0,.2.847,1.429,1.429,0,0,0,.523.557,1.328,1.328,0,0,0,.692.194,1.4,1.4,0,0,0,.707-.189,1.365,1.365,0,0,0,.523-.542A1.739,1.739,0,0,0,132.246-6.126Zm6.043-2.76a2.068,2.068,0,0,1,1.549.605,2.317,2.317,0,0,1,.591,1.69v3.147h-1.356V-6.407a1.391,1.391,0,0,0-.32-.983,1.132,1.132,0,0,0-.872-.344A1.16,1.16,0,0,0,137-7.39a1.378,1.378,0,0,0-.324.983v2.963h-1.356V-8.809h1.356v.668a1.873,1.873,0,0,1,.692-.547A2.142,2.142,0,0,1,138.289-8.886Z" transform="translate(33 58.55)" fill="#121b2b"/></g></g></svg>