<svg xmlns="http://www.w3.org/2000/svg" width="144.022" height="40" viewBox="0 0 144.022 40"><g transform="translate(-31.364 -40.478)"><path d="M8.554-66.2h9.725a14.058,14.058,0,0,1,6.325,1.37,10.2,10.2,0,0,1,4.291,3.875,10.89,10.89,0,0,1,1.526,5.781,10.89,10.89,0,0,1-1.526,5.781A10.2,10.2,0,0,1,24.6-45.516a14.058,14.058,0,0,1-6.325,1.37H8.554Zm9.534,18.588a9.511,9.511,0,0,0,4.306-.929,6.684,6.684,0,0,0,2.86-2.646,7.767,7.767,0,0,0,1-3.985,7.767,7.767,0,0,0-1-3.985,6.684,6.684,0,0,0-2.86-2.646,9.511,9.511,0,0,0-4.306-.929h-5.4v15.122Zm31.019-4.852q0,.41-.064,1.166H35.727a4.57,4.57,0,0,0,1.827,2.946,6.027,6.027,0,0,0,3.671,1.087,6.214,6.214,0,0,0,4.608-1.827l2.129,2.426a7.173,7.173,0,0,1-2.892,2.048,10.616,10.616,0,0,1-3.941.693,10.564,10.564,0,0,1-4.926-1.1A7.982,7.982,0,0,1,32.915-48.1a8.616,8.616,0,0,1-1.16-4.458,8.743,8.743,0,0,1,1.128-4.426,7.97,7.97,0,0,1,3.13-3.072,9.2,9.2,0,0,1,4.513-1.1,8.967,8.967,0,0,1,4.434,1.087,7.731,7.731,0,0,1,3.051,3.056A9.2,9.2,0,0,1,49.107-52.463Zm-8.581-5.545A4.818,4.818,0,0,0,37.3-56.889a4.693,4.693,0,0,0-1.6,2.977h9.63a4.63,4.63,0,0,0-1.557-2.961A4.761,4.761,0,0,0,40.526-58.008ZM51.65-67.522h3.973v23.377H51.65Zm7.914,0h3.973v23.377H59.563Zm14.4,6.364a8.323,8.323,0,0,1,5.737,1.78,6.848,6.848,0,0,1,1.986,5.372v9.861h-3.75v-2.048a4.614,4.614,0,0,1-2.082,1.686,8.2,8.2,0,0,1-3.258.583,8.042,8.042,0,0,1-3.337-.646,5.146,5.146,0,0,1-2.209-1.8,4.529,4.529,0,0,1-.779-2.6,4.439,4.439,0,0,1,1.7-3.639q1.7-1.37,5.355-1.37h4.386v-.252a3.433,3.433,0,0,0-1.065-2.709,4.634,4.634,0,0,0-3.162-.945,9.2,9.2,0,0,0-2.813.441,6.929,6.929,0,0,0-2.336,1.229l-1.557-2.867a9.678,9.678,0,0,1,3.21-1.544A14.4,14.4,0,0,1,73.96-61.158Zm-.54,14.366a5.165,5.165,0,0,0,2.654-.677,3.694,3.694,0,0,0,1.637-1.938V-51.36h-4.1q-3.432,0-3.432,2.237a2,2,0,0,0,.858,1.7A3.96,3.96,0,0,0,73.42-46.792Zm40.394,2.646-.032-14.618-7.31,12.1H104.63L97.32-58.575v14.429H93.379V-66.2h3.4l8.835,14.618L114.291-66.2h3.4l.032,22.053Zm14.747-17.013a8.323,8.323,0,0,1,5.737,1.78,6.848,6.848,0,0,1,1.986,5.372v9.861h-3.75v-2.048a4.614,4.614,0,0,1-2.082,1.686,8.2,8.2,0,0,1-3.258.583,8.042,8.042,0,0,1-3.337-.646,5.146,5.146,0,0,1-2.209-1.8,4.529,4.529,0,0,1-.779-2.6,4.439,4.439,0,0,1,1.7-3.639q1.7-1.37,5.355-1.37h4.386v-.252a3.433,3.433,0,0,0-1.065-2.709,4.634,4.634,0,0,0-3.162-.945,9.2,9.2,0,0,0-2.813.441,6.929,6.929,0,0,0-2.336,1.229l-1.557-2.867a9.678,9.678,0,0,1,3.21-1.544A14.4,14.4,0,0,1,128.561-61.158Zm-.54,14.366a5.165,5.165,0,0,0,2.654-.677,3.694,3.694,0,0,0,1.637-1.938V-51.36h-4.1q-3.432,0-3.432,2.237a2,2,0,0,0,.858,1.7A3.96,3.96,0,0,0,128.021-46.792ZM140.1-67.522h3.973v23.377H140.1Zm7.914,0h3.973v23.377h-3.973Z" transform="translate(23.222 108)" fill="#121b2b"/><path d="M5.413-15.539a4.3,4.3,0,0,1-2.073-.5,3.7,3.7,0,0,1-1.451-1.379A3.8,3.8,0,0,1,1.364-19.4a3.77,3.77,0,0,1,.53-1.985,3.736,3.736,0,0,1,1.456-1.379,4.3,4.3,0,0,1,2.073-.5,4.357,4.357,0,0,1,1.7.322,3.466,3.466,0,0,1,1.3.934l-.909.848a2.663,2.663,0,0,0-2.025-.88,2.858,2.858,0,0,0-1.4.338,2.447,2.447,0,0,0-.964.939A2.679,2.679,0,0,0,2.782-19.4a2.679,2.679,0,0,0,.346,1.363,2.447,2.447,0,0,0,.964.939,2.858,2.858,0,0,0,1.4.338,2.648,2.648,0,0,0,2.025-.891l.909.859a3.457,3.457,0,0,1-1.3.934A4.4,4.4,0,0,1,5.413-15.539Zm8.932-.107-1.548-2.2a2.91,2.91,0,0,1-.292.011H10.794v2.189H9.386v-7.513H12.5a4.228,4.228,0,0,1,1.716.322,2.49,2.49,0,0,1,1.121.923,2.565,2.565,0,0,1,.39,1.427,2.529,2.529,0,0,1-.417,1.46,2.477,2.477,0,0,1-1.2.912l1.743,2.468Zm-.032-4.84a1.341,1.341,0,0,0-.476-1.105,2.175,2.175,0,0,0-1.4-.386H10.794v2.994h1.646a2.154,2.154,0,0,0,1.4-.392A1.357,1.357,0,0,0,14.312-20.487Zm8.282,3.67v1.17H16.911v-7.513h5.532v1.17H18.318v1.953h3.659v1.148H18.318v2.071Zm6.1-.569H24.9l-.747,1.739H22.7l3.41-7.513H27.5l3.421,7.513H29.447Zm-.466-1.095-1.429-3.284L25.377-18.48Zm4.428-3.5H30.14v-1.181h6.431v1.181H34.059v6.332H32.652Zm10.274,5.162v1.17H37.242v-7.513h5.532v1.17H38.65v1.953h3.659v1.148H38.65v2.071Zm1.18-6.343h3.313a4.789,4.789,0,0,1,2.154.467,3.475,3.475,0,0,1,1.462,1.32,3.71,3.71,0,0,1,.52,1.969,3.71,3.71,0,0,1-.52,1.969,3.475,3.475,0,0,1-1.462,1.32,4.789,4.789,0,0,1-2.154.467H44.106Zm3.248,6.332a3.24,3.24,0,0,0,1.467-.317,2.277,2.277,0,0,0,.974-.9,2.646,2.646,0,0,0,.341-1.358,2.646,2.646,0,0,0-.341-1.358,2.277,2.277,0,0,0-.974-.9,3.24,3.24,0,0,0-1.467-.317h-1.84v5.152Zm13.273-2.726a2,2,0,0,1,1,.682,1.885,1.885,0,0,1,.368,1.186,1.733,1.733,0,0,1-.758,1.508,3.834,3.834,0,0,1-2.209.531H55.257v-7.513h3.551a3.51,3.51,0,0,1,2.068.521,1.668,1.668,0,0,1,.725,1.433,1.869,1.869,0,0,1-.26.987A1.773,1.773,0,0,1,60.627-19.553Zm-3.962-2.511v2.071h1.992a2.039,2.039,0,0,0,1.131-.263.864.864,0,0,0,.4-.767.874.874,0,0,0-.4-.778,2.039,2.039,0,0,0-1.131-.263Zm2.274,5.323q1.635,0,1.635-1.084t-1.635-1.084H56.665v2.168ZM66.213-18.3v2.651H64.806v-2.629l-2.977-4.883h1.5l2.219,3.66,2.241-3.66H69.18Zm11.465-1.256a2,2,0,0,1,1,.682,1.885,1.885,0,0,1,.368,1.186,1.733,1.733,0,0,1-.758,1.508,3.834,3.834,0,0,1-2.209.531H72.309v-7.513H75.86a3.51,3.51,0,0,1,2.068.521,1.668,1.668,0,0,1,.725,1.433,1.869,1.869,0,0,1-.26.987A1.773,1.773,0,0,1,77.679-19.553Zm-3.962-2.511v2.071h1.992a2.039,2.039,0,0,0,1.131-.263.864.864,0,0,0,.4-.767.874.874,0,0,0-.4-.778,2.039,2.039,0,0,0-1.131-.263Zm2.274,5.323q1.635,0,1.635-1.084T75.99-18.909H73.716v2.168Zm6.637,1.17a3.3,3.3,0,0,1-1.581-.376,2.752,2.752,0,0,1-1.1-1.046,2.935,2.935,0,0,1-.4-1.519,2.907,2.907,0,0,1,.4-1.513,2.764,2.764,0,0,1,1.1-1.041,3.3,3.3,0,0,1,1.581-.376,3.326,3.326,0,0,1,1.591.376,2.764,2.764,0,0,1,1.1,1.041,2.907,2.907,0,0,1,.4,1.513,2.935,2.935,0,0,1-.4,1.519,2.752,2.752,0,0,1-1.1,1.046A3.326,3.326,0,0,1,82.626-15.571Zm0-1.148a1.661,1.661,0,0,0,1.234-.494,1.769,1.769,0,0,0,.487-1.3,1.769,1.769,0,0,0-.487-1.3,1.661,1.661,0,0,0-1.234-.494,1.643,1.643,0,0,0-1.229.494,1.78,1.78,0,0,0-.482,1.3,1.78,1.78,0,0,0,.482,1.3A1.643,1.643,0,0,0,82.626-16.72Zm3.995-6.89h1.353v7.963H86.621Zm2.739,2.232h1.353v5.731H89.36Zm.682-.944a.873.873,0,0,1-.617-.231.751.751,0,0,1-.249-.574.751.751,0,0,1,.249-.574.874.874,0,0,1,.617-.231.9.9,0,0,1,.617.22.706.706,0,0,1,.249.553.806.806,0,0,1-.244.6A.847.847,0,0,1,90.042-22.322Zm7.719-1.288v7.963h-1.3v-.741a2.092,2.092,0,0,1-.828.612,2.818,2.818,0,0,1-1.088.2,3.068,3.068,0,0,1-1.5-.365A2.634,2.634,0,0,1,92-16.972a3.077,3.077,0,0,1-.379-1.54A3.047,3.047,0,0,1,92-20.047a2.643,2.643,0,0,1,1.045-1.03,3.068,3.068,0,0,1,1.5-.365,2.77,2.77,0,0,1,1.05.193,2.112,2.112,0,0,1,.812.58V-23.61Zm-3.053,6.89a1.752,1.752,0,0,0,.877-.22,1.6,1.6,0,0,0,.617-.628,1.907,1.907,0,0,0,.227-.944,1.907,1.907,0,0,0-.227-.944,1.6,1.6,0,0,0-.617-.628,1.752,1.752,0,0,0-.877-.22,1.752,1.752,0,0,0-.877.22,1.6,1.6,0,0,0-.617.628,1.907,1.907,0,0,0-.227.944,1.907,1.907,0,0,0,.227.944,1.6,1.6,0,0,0,.617.628A1.752,1.752,0,0,0,94.708-16.72Zm9.874-1.76q0,.14-.022.4h-4.536a1.557,1.557,0,0,0,.623,1,2.053,2.053,0,0,0,1.25.37,2.117,2.117,0,0,0,1.57-.622l.725.826a2.444,2.444,0,0,1-.985.7,3.616,3.616,0,0,1-1.342.236,3.6,3.6,0,0,1-1.678-.376,2.719,2.719,0,0,1-1.121-1.046,2.935,2.935,0,0,1-.4-1.519,2.978,2.978,0,0,1,.384-1.508,2.715,2.715,0,0,1,1.066-1.046,3.133,3.133,0,0,1,1.537-.376,3.054,3.054,0,0,1,1.51.37,2.634,2.634,0,0,1,1.039,1.041A3.135,3.135,0,0,1,104.582-18.48Zm-2.923-1.889a1.641,1.641,0,0,0-1.1.381,1.6,1.6,0,0,0-.547,1.014h3.28a1.577,1.577,0,0,0-.53-1.009A1.622,1.622,0,0,0,101.659-20.369Zm3.334-2.79h1.169l-.1,2.973h-.985Zm4.06,7.588a5.218,5.218,0,0,1-1.375-.182,3.475,3.475,0,0,1-1.072-.461l.52-1.02a3.355,3.355,0,0,0,.936.413,3.922,3.922,0,0,0,1.077.156q1.213,0,1.213-.633a.423.423,0,0,0-.309-.419,5.367,5.367,0,0,0-.991-.225,8.1,8.1,0,0,1-1.164-.247,1.788,1.788,0,0,1-.779-.488,1.356,1.356,0,0,1-.33-.971,1.523,1.523,0,0,1,.687-1.3,3.149,3.149,0,0,1,1.857-.488,5.4,5.4,0,0,1,1.191.134,3.357,3.357,0,0,1,.974.36l-.52,1.02a3.227,3.227,0,0,0-1.656-.429,1.85,1.85,0,0,0-.9.177.528.528,0,0,0-.309.467.467.467,0,0,0,.33.456,5.285,5.285,0,0,0,1.023.252,7.954,7.954,0,0,1,1.137.247,1.782,1.782,0,0,1,.763.472,1.309,1.309,0,0,1,.319.944,1.491,1.491,0,0,1-.7,1.288A3.34,3.34,0,0,1,109.053-15.571Zm7.308.032a3.132,3.132,0,0,1-1.337-.284,2.615,2.615,0,0,1-1-.8l.8-.955a1.83,1.83,0,0,0,1.5.859q1.18,0,1.18-1.384v-3.885h-2.7v-1.17h4.1v4.98a2.716,2.716,0,0,1-.65,1.98A2.558,2.558,0,0,1,116.361-15.539Zm6.214-5.9a2.835,2.835,0,0,1,1.954.606,2.333,2.333,0,0,1,.677,1.83v3.359h-1.278v-.7a1.572,1.572,0,0,1-.709.574,2.793,2.793,0,0,1-1.11.2,2.739,2.739,0,0,1-1.137-.22,1.753,1.753,0,0,1-.752-.612,1.543,1.543,0,0,1-.265-.885,1.512,1.512,0,0,1,.579-1.24A2.9,2.9,0,0,1,122.359-19h1.494v-.086A1.169,1.169,0,0,0,123.49-20a1.578,1.578,0,0,0-1.077-.322,3.134,3.134,0,0,0-.958.15,2.36,2.36,0,0,0-.8.419l-.53-.977a3.3,3.3,0,0,1,1.093-.526A4.905,4.905,0,0,1,122.575-21.442Zm-.184,4.894a1.759,1.759,0,0,0,.9-.231,1.258,1.258,0,0,0,.558-.66V-18.1h-1.4q-1.169,0-1.169.762a.682.682,0,0,0,.292.58A1.349,1.349,0,0,0,122.391-16.548Zm7.362-4.894a3.09,3.09,0,0,1,1.51.365,2.643,2.643,0,0,1,1.045,1.03,3.047,3.047,0,0,1,.379,1.535,3.077,3.077,0,0,1-.379,1.54,2.633,2.633,0,0,1-1.045,1.036,3.09,3.09,0,0,1-1.51.365,2.344,2.344,0,0,1-1.851-.773v2.78h-1.353v-7.813h1.288v.751a2.092,2.092,0,0,1,.828-.612A2.818,2.818,0,0,1,129.753-21.442ZM129.6-16.72a1.643,1.643,0,0,0,1.229-.494,1.78,1.78,0,0,0,.482-1.3,1.78,1.78,0,0,0-.482-1.3A1.643,1.643,0,0,0,129.6-20.3a1.752,1.752,0,0,0-.877.22,1.6,1.6,0,0,0-.617.628,1.908,1.908,0,0,0-.227.944,1.907,1.907,0,0,0,.227.944,1.6,1.6,0,0,0,.617.628A1.752,1.752,0,0,0,129.6-16.72Zm6.117-4.722a2.835,2.835,0,0,1,1.954.606,2.333,2.333,0,0,1,.677,1.83v3.359h-1.277v-.7a1.572,1.572,0,0,1-.709.574,2.793,2.793,0,0,1-1.11.2,2.739,2.739,0,0,1-1.137-.22,1.753,1.753,0,0,1-.752-.612,1.543,1.543,0,0,1-.265-.885,1.512,1.512,0,0,1,.579-1.24A2.9,2.9,0,0,1,135.5-19H137v-.086a1.169,1.169,0,0,0-.363-.923,1.578,1.578,0,0,0-1.077-.322,3.134,3.134,0,0,0-.958.15,2.361,2.361,0,0,0-.8.419l-.531-.977a3.3,3.3,0,0,1,1.093-.526A4.9,4.9,0,0,1,135.718-21.442Zm-.184,4.894a1.759,1.759,0,0,0,.9-.231,1.258,1.258,0,0,0,.558-.66V-18.1h-1.4q-1.169,0-1.169.762a.682.682,0,0,0,.292.58A1.349,1.349,0,0,0,135.534-16.548Zm7.438-4.894a2.428,2.428,0,0,1,1.754.633,2.485,2.485,0,0,1,.66,1.878v3.284h-1.353v-3.112a1.6,1.6,0,0,0-.357-1.132,1.327,1.327,0,0,0-1.018-.381,1.57,1.57,0,0,0-1.18.445,1.766,1.766,0,0,0-.433,1.283v2.9h-1.353v-5.731h1.288v.741a2.115,2.115,0,0,1,.844-.6A3.063,3.063,0,0,1,142.972-21.442Z" transform="translate(30 94.042)" fill="#121b2b"/></g></svg>