<svg xmlns="http://www.w3.org/2000/svg" width="40" height="39.98" viewBox="0 0 40 39.98">
  <g id="グループ_5812" data-name="グループ 5812" transform="translate(-508 -1865)">
    <ellipse id="楕円形_263" data-name="楕円形 263" cx="20" cy="19.99" rx="20" ry="19.99" transform="translate(508 1865)" fill="#f76c6c"/>
    <path id="パス_11292" data-name="パス 11292" d="M9.624.336A7.431,7.431,0,0,0,15.456-2.3L13.2-4.992A4.6,4.6,0,0,1,9.792-3.36c-2.52,0-4.152-2.064-4.152-5.616,0-3.48,1.9-5.544,4.2-5.544a4.53,4.53,0,0,1,3.12,1.392l2.232-2.736a7.606,7.606,0,0,0-5.424-2.328c-4.536,0-8.52,3.408-8.52,9.36C1.248-2.784,5.088.336,9.624.336Z" transform="translate(519.752 1894.192)" fill="#fff"/>
  </g>
</svg>
