<svg xmlns="http://www.w3.org/2000/svg" width="40" height="40" viewBox="0 0 40 40">
  <g id="グループ_5665" data-name="グループ 5665" transform="translate(5392 156)">
    <circle id="楕円形_11" data-name="楕円形 11" cx="20" cy="20" r="20" transform="translate(-5392 -156)" fill="#06c755"/>
    <path id="中マド_1" data-name="中マド 1" d="M10.839,21.861a.382.382,0,0,1-.308-.119.837.837,0,0,1-.058-.634l0-.027.041-.244,0-.012c.267-1.58.347-2.057-.93-2.331C4.033,17.755,0,13.893,0,9.31,0,4.176,5.144,0,11.468,0S22.936,4.176,22.936,9.31a8.357,8.357,0,0,1-2.453,5.73A36.648,36.648,0,0,1,11.468,21.7,1.731,1.731,0,0,1,10.839,21.861ZM10.287,6.835a.223.223,0,0,0-.225.225v5a.223.223,0,0,0,.225.225h.8a.223.223,0,0,0,.225-.225V9.092l2.292,3.093a.232.232,0,0,0,.183.092h.8a.223.223,0,0,0,.225-.225v-5a.222.222,0,0,0-.22-.218h-.813a.223.223,0,0,0-.225.225v2.967L11.264,6.933a.212.212,0,0,0-.183-.1Zm5.533-.007a.228.228,0,0,0-.225.225v5a.228.228,0,0,0,.225.225h3.214a.223.223,0,0,0,.225-.225v-.8a.223.223,0,0,0-.225-.225H16.847v-.843h2.187a.223.223,0,0,0,.225-.225V9.148a.223.223,0,0,0-.225-.225H16.847V8.079h2.187a.223.223,0,0,0,.225-.225v-.8a.236.236,0,0,0-.225-.225Zm-7.573,0a.223.223,0,0,0-.225.225v5a.223.223,0,0,0,.225.225h.8a.223.223,0,0,0,.225-.225v-5a.225.225,0,0,0-.225-.225Zm-4.345,0a.223.223,0,0,0-.225.225v5a.209.209,0,0,0,.064.155.231.231,0,0,0,.154.063H7.109a.223.223,0,0,0,.225-.225v-.8a.224.224,0,0,0-.218-.225H4.929V7.052A.223.223,0,0,0,4.7,6.827Z" transform="translate(-5383 -147)" fill="#fff"/>
  </g>
</svg>
