<svg xmlns="http://www.w3.org/2000/svg" width="40" height="39.98" viewBox="0 0 40 39.98">
  <g id="グループ_5811" data-name="グループ 5811" transform="translate(-508 -1815.008)">
    <ellipse id="楕円形_262" data-name="楕円形 262" cx="20" cy="19.99" rx="20" ry="19.99" transform="translate(508 1815.008)" fill="#cdd3da"/>
    <path id="パス_11293" data-name="パス 11293" d="M3.19.14A2.8,2.8,0,0,0,5.97-2.85,2.8,2.8,0,0,0,3.19-5.83,2.8,2.8,0,0,0,.4-2.85,2.8,2.8,0,0,0,3.19.14Zm0-1.44c-.67,0-.97-.6-.97-1.55s.3-1.54.97-1.54.96.6.96,1.54S3.85-1.3,3.19-1.3ZM9.61.14A4.185,4.185,0,0,0,10.9-.07l-.28-1.29a1.654,1.654,0,0,1-.52.11c-.42,0-.72-.25-.72-.88V-4.3h1.34V-5.69H9.38V-7.2H7.91l-.2,1.51-.88.07V-4.3H7.6v2.19C7.6-.77,8.18.14,9.61.14ZM12.42,0H14.2V-3.8a1.324,1.324,0,0,1,.98-.51c.45,0,.66.22.66,1.01V0h1.78V-3.52c0-1.42-.53-2.31-1.77-2.31a2.529,2.529,0,0,0-1.74.77l.09-1.01V-7.99H12.42Zm9.76.14a3.672,3.672,0,0,0,2.03-.65l-.59-1.07a2.315,2.315,0,0,1-1.2.36A1.3,1.3,0,0,1,21-2.32h3.34a3.335,3.335,0,0,0,.08-.77c0-1.55-.8-2.74-2.44-2.74a2.805,2.805,0,0,0-2.7,2.98A2.785,2.785,0,0,0,22.18.14ZM20.97-3.49a1.05,1.05,0,0,1,1.04-.98c.65,0,.9.42.9.98ZM26.16,0h1.78V-3.25a1.369,1.369,0,0,1,1.22-1.02,2.454,2.454,0,0,1,.63.09l.29-1.53a1.607,1.607,0,0,0-.69-.12A1.945,1.945,0,0,0,27.77-4.7h-.03l-.13-.99H26.16Z" transform="translate(513 1839.008)" fill="#333"/>
  </g>
</svg>
