<svg xmlns="http://www.w3.org/2000/svg" width="40" height="40" viewBox="0 0 40 40">
  <g id="グループ_5809" data-name="グループ 5809" transform="translate(5553 904)">
    <circle id="楕円形_261" data-name="楕円形 261" cx="20" cy="20" r="20" transform="translate(-5553 -904)" fill="#fff"/>
    <g id="polca_1207" transform="translate(-5680.195 -1027.644)">
      <path id="パス_11288" data-name="パス 11288" d="M194.472,130c-6.1,0-7.036,3.4-7.036,7.036s1.054,7.036,7.036,7.036,7.036-3.4,7.036-7.036S200.569,130,194.472,130Zm-2.85,12.444c.063-.021.115-.052.167-.073s.125-.052.188-.084a10.77,10.77,0,0,0,2.5-1.493,10.411,10.411,0,0,0,2.495,1.493c.063.031.125.052.188.084s.115.052.167.073a9.07,9.07,0,0,1-5.7,0Zm1.545-6.034a2.433,2.433,0,0,1,.052-2.161,1.729,1.729,0,0,1,2.516-.021,2.463,2.463,0,0,1,.031,2.172,7.689,7.689,0,0,1-1.294,2.505A7.42,7.42,0,0,1,193.167,136.41Zm5.564,5.188c-.313-.115-.72-.272-1.033-.418-.063-.031-.125-.052-.188-.084a9.679,9.679,0,0,1-2.119-1.232,8.9,8.9,0,0,0,1.618-3.038,3.78,3.78,0,0,0-.219-3.351,2.83,2.83,0,0,0-2.328-1.075,2.8,2.8,0,0,0-2.307,1.086,3.746,3.746,0,0,0-.24,3.33,8.909,8.909,0,0,0,1.618,3.038,8.9,8.9,0,0,1-2.119,1.232,1.464,1.464,0,0,1-.188.083,7.365,7.365,0,0,1-1.075.376,5.914,5.914,0,0,1-1.545-4.51c0-3.111.846-5.867,5.867-5.867s5.867,2.756,5.867,5.867A5.908,5.908,0,0,1,198.731,141.6Z" transform="translate(-47.36)" fill="#f9cd16"/>
      <path id="パス_11289" data-name="パス 11289" d="M134,292.438h.887l.219,1.107a1.839,1.839,0,0,1,1.67-1.242,1.449,1.449,0,0,1,1.242.585,2.382,2.382,0,0,1,.438,1.482,2.8,2.8,0,0,1-.532,1.722,1.816,1.816,0,0,1-1.535.7,2.076,2.076,0,0,1-1.127-.282v2.37h-.981v-4.635C134.24,293.722,134,292.438,134,292.438Zm1.618,3.153a1.188,1.188,0,0,0,.856.324.985.985,0,0,0,.866-.438,1.9,1.9,0,0,0,.292-1.065c0-.71-.334-1.242-.919-1.242a1.085,1.085,0,0,0-.94.668,2.726,2.726,0,0,0-.3,1.43c.031.052.042.219.146.324Zm6.024-3.288a2.04,2.04,0,0,1,1.608.658,2.3,2.3,0,0,1,.6,1.608,2.329,2.329,0,0,1-.6,1.618,2.019,2.019,0,0,1-1.608.647,2.071,2.071,0,0,1-1.618-.647,2.371,2.371,0,0,1-.585-1.618,2.344,2.344,0,0,1,.585-1.608A2.063,2.063,0,0,1,141.642,292.3Zm1.211,2.255a1.258,1.258,0,0,0-.365-.96,1.236,1.236,0,0,0-1.712,0,1.258,1.258,0,0,0-.365.96,1.221,1.221,0,0,0,.365.96,1.208,1.208,0,0,0,.856.345,1.191,1.191,0,0,0,.856-.345A1.222,1.222,0,0,0,142.853,294.557Zm2.14.261a5.58,5.58,0,0,0,1.023-.522v-2.505c0-1.3.626-2.036,1.545-2.036a1.426,1.426,0,0,1,1.409,1.576,3.425,3.425,0,0,1-.543,1.743,5.7,5.7,0,0,1-1.43,1.587c.031.919.292,1.19.8,1.19a2.331,2.331,0,0,0,1.4-.522l.25.929a3.128,3.128,0,0,1-1.775.553c-1,0-1.5-.522-1.629-1.555a4.808,4.808,0,0,1-.752.324Zm2-1.326a3.289,3.289,0,0,0,1.086-2.077c0-.449-.219-.741-.491-.741-.4,0-.6.4-.6,1.2Zm6.023,2.37a2.375,2.375,0,0,0,1.441-.522l.25.929a3.28,3.28,0,0,1-1.869.553,2.4,2.4,0,0,1-1.608-.585,2.11,2.11,0,0,1-.679-1.67,2.239,2.239,0,0,1,.605-1.639,2.178,2.178,0,0,1,1.639-.637,1.679,1.679,0,0,1,1.848,1.806h-1.013a.858.858,0,0,0-.919-.929,1.212,1.212,0,0,0-1.159,1.368A1.312,1.312,0,0,0,153.02,295.862Zm7.371.825a1.31,1.31,0,0,1-1.4-.9,1.687,1.687,0,0,1-2.787.438,2.133,2.133,0,0,1-.522-1.514,2.528,2.528,0,0,1,.605-1.691,1.96,1.96,0,0,1,1.566-.72,2.506,2.506,0,0,1,1.994.887V295c0,.449.177.679.522.679v1.013Zm-1.743-3.194a.976.976,0,0,0-.856-.324,1.078,1.078,0,0,0-.846.438,2.074,2.074,0,0,0-.324,1.065c0,.71.334,1.242.919,1.242a1.07,1.07,0,0,0,.95-.605,2.624,2.624,0,0,0,.282-1.493A.8.8,0,0,0,158.648,293.492Zm-1.942,4.625a.728.728,0,0,1-.177.345.759.759,0,0,0-.136-.094.471.471,0,0,0,.167-.292Z" transform="translate(0 -141.59)"/>
      <path id="パス_11290" data-name="パス 11290" d="M331.994,359.955v.136c0,.115-.084.157-.251.157a1.017,1.017,0,0,0-.073-.167.375.375,0,0,0,.115.021c.042,0,.052-.01.052-.052v-.365h-.345v-.157h.345v-.177l.167.01a.2.2,0,0,0-.01.084v.083h.324v.157h-.324Z" transform="translate(-175.037 -203.271)"/>
      <path id="パス_11291" data-name="パス 11291" d="M336.946,359.177a1.01,1.01,0,0,0,.167.292l-.125.094a1.59,1.59,0,0,1-.167-.324Zm-.021-.365a.1.1,0,1,1,.1.1A.1.1,0,0,1,336.925,358.811Zm.052,0a.042.042,0,1,0,.042-.042A.045.045,0,0,0,336.977,358.811Zm.584.042.167.01v.209a.658.658,0,0,1-.23.574c-.042-.031-.083-.073-.136-.115a.488.488,0,0,0,.209-.47A.7.7,0,0,0,337.562,358.853Zm.783.418a1.5,1.5,0,0,1-.345.292c-.01.01-.021.021-.031.021l-.125-.1a.038.038,0,0,0,.01-.031v-.626l.167.01a.557.557,0,0,0-.01.083v.449a.933.933,0,0,0,.271-.261A.432.432,0,0,0,338.345,359.271Zm.678.365a.794.794,0,0,0-.063-.167.527.527,0,0,0,.136.021c.073,0,.1-.084.1-.376H339a.691.691,0,0,1-.345.532,1.174,1.174,0,0,0-.115-.115.55.55,0,0,0,.313-.418h-.271v-.146h.282v-.188l.167.01v.188h.334c0,.605-.042.658-.344.658Z" transform="translate(-179.76 -202.702)"/>
    </g>
  </g>
</svg>
