<svg xmlns="http://www.w3.org/2000/svg" width="48" height="48" viewBox="0 0 48 48">
  <g id="グループ_5811" data-name="グループ 5811" transform="translate(-1080 -824)">
    <circle id="楕円形_11" data-name="楕円形 11" cx="24" cy="24" r="24" transform="translate(1080 824)" fill="red"/>
    <path id="Icon_awesome-youtube" data-name="Icon awesome-youtube" d="M24.548,7.14A3.016,3.016,0,0,0,22.427,5c-1.872-.5-9.377-.5-9.377-.5s-7.5,0-9.377.5A3.016,3.016,0,0,0,1.551,7.14a31.635,31.635,0,0,0-.5,5.814,31.635,31.635,0,0,0,.5,5.814,2.971,2.971,0,0,0,2.122,2.1c1.872.5,9.377.5,9.377.5s7.5,0,9.377-.5a2.971,2.971,0,0,0,2.122-2.1,31.635,31.635,0,0,0,.5-5.814,31.635,31.635,0,0,0-.5-5.814ZM10.6,16.523V9.386l6.273,3.569L10.6,16.523Z" transform="translate(1090.95 835.063)" fill="#fff"/>
  </g>
</svg>
