<svg xmlns="http://www.w3.org/2000/svg" width="172" height="56" viewBox="0 0 172 56">
  <g id="グループ_2235" data-name="グループ 2235" transform="translate(-314 -595)">
    <g id="長方形_700" data-name="長方形 700" transform="translate(314 595)" fill="rgba(255,255,255,0.24)" stroke="#ccc" stroke-width="1">
      <rect width="172" height="56" stroke="none"/>
      <rect x="0.5" y="0.5" width="171" height="55" fill="none"/>
    </g>
    <path id="パス_1887" data-name="パス 1887" d="M-58.136-5.76a2.612,2.612,0,0,1,1.568.968,2.749,2.749,0,0,1,.592,1.736A2.759,2.759,0,0,1-56.96-.824,4.151,4.151,0,0,1-59.7,0h-5.232V-11.232h5.056a4.146,4.146,0,0,1,2.68.784,2.593,2.593,0,0,1,.968,2.128,2.57,2.57,0,0,1-.52,1.648A2.689,2.689,0,0,1-58.136-5.76ZM-62.2-6.688h1.792a1.586,1.586,0,0,0,1.032-.3,1.063,1.063,0,0,0,.36-.872,1.087,1.087,0,0,0-.36-.88,1.557,1.557,0,0,0-1.032-.3H-62.2Zm2.016,4.48A1.622,1.622,0,0,0-59.12-2.52a1.108,1.108,0,0,0,.376-.9,1.157,1.157,0,0,0-.392-.928,1.606,1.606,0,0,0-1.08-.336H-62.2v2.48ZM-49.368.128a4.928,4.928,0,0,1-2.36-.56,4.1,4.1,0,0,1-1.648-1.6,4.781,4.781,0,0,1-.6-2.432,4.743,4.743,0,0,1,.608-2.424A4.126,4.126,0,0,1-51.7-8.5a4.975,4.975,0,0,1,2.368-.56,4.975,4.975,0,0,1,2.368.56A4.126,4.126,0,0,1-45.3-6.888,4.743,4.743,0,0,1-44.7-4.464a4.694,4.694,0,0,1-.616,2.424,4.165,4.165,0,0,1-1.68,1.608A5.022,5.022,0,0,1-49.368.128Zm0-2.368a1.782,1.782,0,0,0,1.336-.576,2.288,2.288,0,0,0,.552-1.648,2.331,2.331,0,0,0-.536-1.648,1.732,1.732,0,0,0-1.32-.576,1.736,1.736,0,0,0-1.328.568,2.348,2.348,0,0,0-.528,1.656,2.377,2.377,0,0,0,.52,1.648A1.683,1.683,0,0,0-49.368-2.24Zm9.824-9.6V0H-42.28V-11.84Zm4.32,1.984A1.658,1.658,0,0,1-36.4-10.28a1.374,1.374,0,0,1-.456-1.048,1.392,1.392,0,0,1,.456-1.064,1.658,1.658,0,0,1,1.176-.424,1.636,1.636,0,0,1,1.16.424,1.392,1.392,0,0,1,.456,1.064,1.374,1.374,0,0,1-.456,1.048A1.636,1.636,0,0,1-35.224-9.856Zm1.36.928V0H-36.6V-8.928Zm2.4,4.448a5.336,5.336,0,0,1,.52-2.416,3.879,3.879,0,0,1,1.416-1.6,3.7,3.7,0,0,1,2-.56,3.513,3.513,0,0,1,1.608.368,2.93,2.93,0,0,1,1.144.992V-11.84h2.736V0h-2.736V-1.28a2.787,2.787,0,0,1-1.1,1.024,3.436,3.436,0,0,1-1.656.384,3.658,3.658,0,0,1-2-.568,3.925,3.925,0,0,1-1.416-1.616A5.387,5.387,0,0,1-31.464-4.48Zm6.688.016a2.237,2.237,0,0,0-.568-1.616,1.845,1.845,0,0,0-1.384-.592,1.858,1.858,0,0,0-1.384.584A2.208,2.208,0,0,0-28.68-4.48a2.266,2.266,0,0,0,.568,1.624,1.834,1.834,0,0,0,1.384.6,1.845,1.845,0,0,0,1.384-.592A2.237,2.237,0,0,0-24.776-4.464Zm14.1-.144a6.985,6.985,0,0,1-.048.8H-16.92a1.861,1.861,0,0,0,.536,1.272,1.638,1.638,0,0,0,1.16.44A1.438,1.438,0,0,0-13.8-2.96h2.912A4,4,0,0,1-11.7-1.376a4.045,4.045,0,0,1-1.464,1.1,4.7,4.7,0,0,1-1.968.4,4.789,4.789,0,0,1-2.336-.56,3.983,3.983,0,0,1-1.6-1.6,4.94,4.94,0,0,1-.576-2.432A5,5,0,0,1-19.072-6.9,3.932,3.932,0,0,1-17.48-8.5a4.823,4.823,0,0,1,2.352-.56,4.774,4.774,0,0,1,2.3.544A3.906,3.906,0,0,1-11.248-6.96,4.711,4.711,0,0,1-10.68-4.608Zm-2.8-.72a1.407,1.407,0,0,0-.48-1.12,1.767,1.767,0,0,0-1.2-.416,1.733,1.733,0,0,0-1.16.4A1.777,1.777,0,0,0-16.9-5.328Zm7.1-7.472-.208,3.536h-1.84L-8.632-12.8ZM-.152.128a5.131,5.131,0,0,1-2.08-.4,3.552,3.552,0,0,1-1.44-1.1,2.883,2.883,0,0,1-.592-1.56h2.7a1.04,1.04,0,0,0,.432.752,1.529,1.529,0,0,0,.944.288,1.347,1.347,0,0,0,.792-.2.612.612,0,0,0,.28-.52.6.6,0,0,0-.4-.568,8.081,8.081,0,0,0-1.3-.408,12.167,12.167,0,0,1-1.6-.472,2.764,2.764,0,0,1-1.1-.784,2.137,2.137,0,0,1-.464-1.448,2.459,2.459,0,0,1,.424-1.4,2.855,2.855,0,0,1,1.248-1,4.779,4.779,0,0,1,1.96-.368A3.929,3.929,0,0,1,2.3-8.224,3.237,3.237,0,0,1,3.416-6.016H.888A1.09,1.09,0,0,0,.48-6.752a1.415,1.415,0,0,0-.9-.272,1.25,1.25,0,0,0-.736.184.587.587,0,0,0-.256.5.615.615,0,0,0,.408.576,6.535,6.535,0,0,0,1.272.384,13.916,13.916,0,0,1,1.616.5,2.788,2.788,0,0,1,1.1.8,2.264,2.264,0,0,1,.488,1.48,2.349,2.349,0,0,1-.44,1.4A2.91,2.91,0,0,1,1.76-.224,4.834,4.834,0,0,1-.152.128ZM17.5-11.232v7.648a3.615,3.615,0,0,1-1,2.736,3.73,3.73,0,0,1-2.7.96A3.988,3.988,0,0,1,10.952-.9,3.741,3.741,0,0,1,9.88-3.76H12.6A1.676,1.676,0,0,0,12.888-2.7a1,1,0,0,0,.832.36.953.953,0,0,0,.768-.32,1.4,1.4,0,0,0,.272-.928v-7.648ZM20.12-4.48A5.336,5.336,0,0,1,20.64-6.9a3.879,3.879,0,0,1,1.416-1.6,3.7,3.7,0,0,1,2-.56,3.436,3.436,0,0,1,1.656.384,2.829,2.829,0,0,1,1.1,1.008V-8.928h2.736V0H26.808V-1.264A2.955,2.955,0,0,1,25.7-.256,3.436,3.436,0,0,1,24.04.128,3.63,3.63,0,0,1,22.056-.44,3.925,3.925,0,0,1,20.64-2.056,5.387,5.387,0,0,1,20.12-4.48Zm6.688.016A2.237,2.237,0,0,0,26.24-6.08a1.845,1.845,0,0,0-1.384-.592,1.858,1.858,0,0,0-1.384.584A2.208,2.208,0,0,0,22.9-4.48a2.266,2.266,0,0,0,.568,1.624,1.834,1.834,0,0,0,1.384.6,1.845,1.845,0,0,0,1.384-.592A2.237,2.237,0,0,0,26.808-4.464Zm8.416-3.2a2.97,2.97,0,0,1,1.1-1.008,3.389,3.389,0,0,1,1.648-.384,3.7,3.7,0,0,1,2,.56,3.879,3.879,0,0,1,1.416,1.6,5.336,5.336,0,0,1,.52,2.416,5.387,5.387,0,0,1-.52,2.424A3.925,3.925,0,0,1,39.976-.44a3.658,3.658,0,0,1-2,.568,3.4,3.4,0,0,1-1.64-.384,3.007,3.007,0,0,1-1.112-.992v5.5H32.488V-8.928h2.736Zm3.9,3.184a2.208,2.208,0,0,0-.568-1.608,1.876,1.876,0,0,0-1.4-.584,1.845,1.845,0,0,0-1.384.592,2.237,2.237,0,0,0-.568,1.616,2.237,2.237,0,0,0,.568,1.616,1.845,1.845,0,0,0,1.384.592,1.859,1.859,0,0,0,1.392-.6A2.247,2.247,0,0,0,39.128-4.48Zm4.64,0a5.336,5.336,0,0,1,.52-2.416A3.879,3.879,0,0,1,45.7-8.5a3.7,3.7,0,0,1,2-.56,3.436,3.436,0,0,1,1.656.384,2.829,2.829,0,0,1,1.1,1.008V-8.928h2.736V0H50.456V-1.264A2.955,2.955,0,0,1,49.344-.256a3.436,3.436,0,0,1-1.656.384A3.63,3.63,0,0,1,45.7-.44a3.925,3.925,0,0,1-1.416-1.616A5.387,5.387,0,0,1,43.768-4.48Zm6.688.016a2.237,2.237,0,0,0-.568-1.616A1.845,1.845,0,0,0,48.5-6.672a1.858,1.858,0,0,0-1.384.584,2.208,2.208,0,0,0-.568,1.608,2.266,2.266,0,0,0,.568,1.624,1.834,1.834,0,0,0,1.384.6,1.845,1.845,0,0,0,1.384-.592A2.237,2.237,0,0,0,50.456-4.464Zm11.12-4.56a3.24,3.24,0,0,1,2.5,1.016,3.963,3.963,0,0,1,.936,2.792V0H62.3V-4.848a1.959,1.959,0,0,0-.464-1.392,1.627,1.627,0,0,0-1.248-.5,1.627,1.627,0,0,0-1.248.5,1.959,1.959,0,0,0-.464,1.392V0H56.136V-8.928h2.736v1.184a2.886,2.886,0,0,1,1.12-.936A3.561,3.561,0,0,1,61.576-9.024Z" transform="translate(400 629.5)" fill="#fff"/>
  </g>
</svg>
