<svg xmlns="http://www.w3.org/2000/svg" width="172" height="56" viewBox="0 0 172 56">
  <g id="グループ_2233" data-name="グループ 2233" transform="translate(-70 -595)">
    <g id="長方形_698" data-name="長方形 698" transform="translate(70 595)" fill="rgba(255,255,255,0.24)" stroke="#ccc" stroke-width="1">
      <rect width="172" height="56" stroke="none"/>
      <rect x="0.5" y="0.5" width="171" height="55" fill="none"/>
    </g>
    <g id="グループ_1105" data-name="グループ 1105" transform="translate(104 610.47)">
      <path id="パス_1785" data-name="パス 1785" d="M1.19-17.817A6.388,6.388,0,0,1,2-21.041,5.8,5.8,0,0,1,4.221-23.26a6.3,6.3,0,0,1,3.154-.795,6.2,6.2,0,0,1,3.582,1.048,5.481,5.481,0,0,1,2.149,2.9H10.293a2.915,2.915,0,0,0-1.179-1.31,3.461,3.461,0,0,0-1.756-.437,3.612,3.612,0,0,0-1.9.5,3.4,3.4,0,0,0-1.293,1.406,4.636,4.636,0,0,0-.463,2.132,4.65,4.65,0,0,0,.463,2.123,3.386,3.386,0,0,0,1.293,1.415,3.612,3.612,0,0,0,1.9.5,3.407,3.407,0,0,0,1.756-.446,2.968,2.968,0,0,0,1.179-1.319h2.813a5.452,5.452,0,0,1-2.14,2.909,6.23,6.23,0,0,1-3.59,1.04,6.3,6.3,0,0,1-3.154-.795A5.819,5.819,0,0,1,2-14.6,6.34,6.34,0,0,1,1.19-17.817ZM21.911-11.58a6.318,6.318,0,0,1-3.145-.8,6,6,0,0,1-2.271-2.228,6.231,6.231,0,0,1-.839-3.223,6.2,6.2,0,0,1,.839-3.206,6,6,0,0,1,2.271-2.228,6.318,6.318,0,0,1,3.145-.8,6.3,6.3,0,0,1,3.154.8,5.954,5.954,0,0,1,2.254,2.228,6.249,6.249,0,0,1,.83,3.206,6.282,6.282,0,0,1-.83,3.223,5.936,5.936,0,0,1-2.263,2.228A6.318,6.318,0,0,1,21.911-11.58Zm0-2.184a3.726,3.726,0,0,0,1.939-.5,3.413,3.413,0,0,0,1.31-1.424,4.672,4.672,0,0,0,.472-2.149,4.618,4.618,0,0,0-.472-2.14,3.367,3.367,0,0,0-1.31-1.406,3.778,3.778,0,0,0-1.939-.489,3.826,3.826,0,0,0-1.948.489,3.35,3.35,0,0,0-1.319,1.406,4.618,4.618,0,0,0-.472,2.14,4.672,4.672,0,0,0,.472,2.149,3.4,3.4,0,0,0,1.319,1.424A3.773,3.773,0,0,0,21.911-13.764ZM37.3-11.7l-2.691-4.752H33.46V-11.7H31.014V-23.9h4.577A5.345,5.345,0,0,1,38-23.4,3.479,3.479,0,0,1,39.5-22.054a3.672,3.672,0,0,1,.5,1.9,3.631,3.631,0,0,1-.7,2.175,3.59,3.59,0,0,1-2.079,1.337L40.134-11.7ZM33.46-18.289H35.5a2.042,2.042,0,0,0,1.485-.48,1.788,1.788,0,0,0,.489-1.337,1.706,1.706,0,0,0-.489-1.3,2.092,2.092,0,0,0-1.485-.463H33.46Zm17.279,4.263H45.882l-.8,2.324H42.51L46.9-23.915h2.848L54.128-11.7H51.543Zm-.664-1.957-1.765-5.1-1.765,5.1Zm15.637-4.141a3.8,3.8,0,0,1-.463,1.835,3.4,3.4,0,0,1-1.45,1.38,5.275,5.275,0,0,1-2.49.524H59.265V-11.7H56.819V-23.9h4.49a5.426,5.426,0,0,1,2.411.489,3.408,3.408,0,0,1,1.494,1.345A3.786,3.786,0,0,1,65.712-20.123ZM61.2-18.359a2.12,2.12,0,0,0,1.5-.463,1.706,1.706,0,0,0,.489-1.3q0-1.782-1.992-1.782H59.265v3.547ZM70.9-23.9v7.548a2.588,2.588,0,0,0,.646,1.9,2.438,2.438,0,0,0,1.817.655,2.462,2.462,0,0,0,1.835-.655,2.588,2.588,0,0,0,.646-1.9V-23.9h2.463v7.53a4.861,4.861,0,0,1-.673,2.629,4.266,4.266,0,0,1-1.8,1.616,5.713,5.713,0,0,1-2.507.542,5.56,5.56,0,0,1-2.472-.542A4.124,4.124,0,0,1,69.1-13.738a5.015,5.015,0,0,1-.646-2.629V-23.9Zm17.1,12.2-2.691-4.752H84.162V-11.7H81.716V-23.9h4.577a5.345,5.345,0,0,1,2.411.5A3.479,3.479,0,0,1,90.2-22.054a3.671,3.671,0,0,1,.5,1.9,3.631,3.631,0,0,1-.7,2.175,3.59,3.59,0,0,1-2.079,1.337L90.836-11.7Zm-3.844-6.587h2.044a2.042,2.042,0,0,0,1.485-.48,1.788,1.788,0,0,0,.489-1.337,1.706,1.706,0,0,0-.489-1.3,2.092,2.092,0,0,0-1.485-.463H84.162Zm17.279,4.263H96.584l-.8,2.324H93.212L97.6-23.915h2.848L104.83-11.7h-2.586Zm-.664-1.957-1.765-5.1-1.765,5.1Z" transform="translate(-0.83 24.072)" fill="#fff"/>
      <path id="パス_1786" data-name="パス 1786" d="M.49-7.949A2.63,2.63,0,0,1,.825-9.276a2.389,2.389,0,0,1,.914-.914,2.592,2.592,0,0,1,1.3-.327,2.554,2.554,0,0,1,1.475.432A2.257,2.257,0,0,1,5.4-8.891H4.238a1.2,1.2,0,0,0-.486-.54,1.425,1.425,0,0,0-.723-.18,1.487,1.487,0,0,0-.781.205,1.4,1.4,0,0,0-.532.579,1.909,1.909,0,0,0-.191.878,1.915,1.915,0,0,0,.191.874,1.394,1.394,0,0,0,.532.583,1.487,1.487,0,0,0,.781.205,1.4,1.4,0,0,0,.723-.183,1.222,1.222,0,0,0,.486-.543H5.4a2.245,2.245,0,0,1-.881,1.2,2.565,2.565,0,0,1-1.478.428,2.592,2.592,0,0,1-1.3-.327,2.4,2.4,0,0,1-.914-.91A2.611,2.611,0,0,1,.49-7.949ZM9.13-5.431,8.022-7.388H7.547v1.957H6.54v-5.021H8.425a2.2,2.2,0,0,1,.993.205,1.432,1.432,0,0,1,.615.554,1.512,1.512,0,0,1,.205.781,1.5,1.5,0,0,1-.288.9,1.478,1.478,0,0,1-.856.55l1.2,2.036ZM7.547-8.143h.842A.841.841,0,0,0,9-8.341a.736.736,0,0,0,.2-.55A.7.7,0,0,0,9-9.427a.861.861,0,0,0-.611-.191H7.547Zm4.892-1.5v1.259H14.13v.8H12.439v1.331h1.906v.82H11.432V-10.46h2.914v.82Zm6.18,3.252h-2l-.331.957H15.231l1.806-5.029h1.173l1.806,5.029H18.95Zm-.273-.806-.727-2.1-.727,2.1Zm6.043-3.259v.813H23.051v4.209H22.044V-9.64H20.705v-.813Zm2.022.813v1.259H28.1v.8H26.41v1.331h1.906v.82H25.4V-10.46h2.914v.82Zm4.856-.813a3,3,0,0,1,1.392.309,2.21,2.21,0,0,1,.928.881,2.625,2.625,0,0,1,.327,1.327,2.586,2.586,0,0,1-.327,1.32,2.223,2.223,0,0,1-.928.874,3,3,0,0,1-1.392.309H29.511v-5.021ZM31.23-6.287a1.654,1.654,0,0,0,1.223-.432,1.644,1.644,0,0,0,.432-1.216,1.682,1.682,0,0,0-.432-1.227A1.631,1.631,0,0,0,31.23-9.6h-.712v3.316Zm8.561-1.719a1.129,1.129,0,0,1,.7.424,1.24,1.24,0,0,1,.273.791,1.275,1.275,0,0,1-.2.709,1.317,1.317,0,0,1-.572.478,2.1,2.1,0,0,1-.885.173H36.942v-5.021h2.072a2.149,2.149,0,0,1,.881.165,1.255,1.255,0,0,1,.561.46,1.205,1.205,0,0,1,.191.669,1.144,1.144,0,0,1-.234.734A1.251,1.251,0,0,1,39.791-8.007ZM37.95-8.381h.921a.843.843,0,0,0,.554-.162.57.57,0,0,0,.194-.464.581.581,0,0,0-.194-.468.83.83,0,0,0-.554-.165H37.95Zm1.014,2.129a.862.862,0,0,0,.572-.173.6.6,0,0,0,.205-.489.63.63,0,0,0-.216-.507.87.87,0,0,0-.583-.183H37.95v1.352Zm6.878-4.2-1.7,3.273v1.748H43.137V-7.179l-1.705-3.273h1.137l1.079,2.295,1.072-2.295Zm5.7,2.446a1.129,1.129,0,0,1,.7.424,1.24,1.24,0,0,1,.273.791,1.275,1.275,0,0,1-.2.709,1.317,1.317,0,0,1-.572.478,2.1,2.1,0,0,1-.885.173H48.7v-5.021H50.77a2.149,2.149,0,0,1,.881.165,1.255,1.255,0,0,1,.561.46,1.206,1.206,0,0,1,.191.669,1.144,1.144,0,0,1-.234.734A1.251,1.251,0,0,1,51.547-8.007ZM49.7-8.381h.921a.843.843,0,0,0,.554-.162.57.57,0,0,0,.194-.464.581.581,0,0,0-.194-.468.83.83,0,0,0-.554-.165H49.7Zm1.014,2.129a.862.862,0,0,0,.572-.173.6.6,0,0,0,.205-.489.63.63,0,0,0-.216-.507A.87.87,0,0,0,50.7-7.6H49.7v1.352Zm4.655.885a2.1,2.1,0,0,1-1.036-.255,1.839,1.839,0,0,1-.723-.723,2.166,2.166,0,0,1-.263-1.079,2.12,2.12,0,0,1,.27-1.079,1.875,1.875,0,0,1,.737-.723A2.14,2.14,0,0,1,55.4-9.481a2.14,2.14,0,0,1,1.043.255,1.875,1.875,0,0,1,.737.723,2.12,2.12,0,0,1,.27,1.079,2.077,2.077,0,0,1-.277,1.079,1.918,1.918,0,0,1-.748.723A2.176,2.176,0,0,1,55.374-5.366Zm0-.878a1.048,1.048,0,0,0,.514-.133.967.967,0,0,0,.385-.4,1.345,1.345,0,0,0,.144-.647,1.2,1.2,0,0,0-.3-.874.981.981,0,0,0-.73-.306.958.958,0,0,0-.723.306,1.218,1.218,0,0,0-.291.874,1.237,1.237,0,0,0,.284.874A.936.936,0,0,0,55.374-6.244Zm4.108-4.511v5.324H58.474v-5.324Zm1.784.863a.614.614,0,0,1-.442-.169.559.559,0,0,1-.176-.421.559.559,0,0,1,.176-.421.614.614,0,0,1,.442-.169.614.614,0,0,1,.442.169.559.559,0,0,1,.176.421.559.559,0,0,1-.176.421A.614.614,0,0,1,61.266-9.891Zm.5.475v3.986H60.755V-9.417Zm1.014,1.978a2.306,2.306,0,0,1,.241-1.072,1.758,1.758,0,0,1,.658-.719,1.762,1.762,0,0,1,.928-.252,1.693,1.693,0,0,1,.741.169,1.482,1.482,0,0,1,.561.45v-1.892h1.022v5.324H65.906v-.59a1.365,1.365,0,0,1-.525.475,1.645,1.645,0,0,1-.784.18,1.712,1.712,0,0,1-.921-.259,1.8,1.8,0,0,1-.658-.73A2.345,2.345,0,0,1,62.777-7.438Zm3.137.014a1.292,1.292,0,0,0-.144-.629,1.015,1.015,0,0,0-.388-.4,1.038,1.038,0,0,0-.525-.14,1.02,1.02,0,0,0-.518.137,1.029,1.029,0,0,0-.385.4,1.251,1.251,0,0,0-.147.622,1.292,1.292,0,0,0,.147.629,1.062,1.062,0,0,0,.388.414.987.987,0,0,0,.514.144,1.038,1.038,0,0,0,.525-.14,1.015,1.015,0,0,0,.388-.4A1.292,1.292,0,0,0,65.913-7.424ZM71.9-7.51a2.376,2.376,0,0,1-.029.388H68.956a.991.991,0,0,0,.3.676.932.932,0,0,0,.655.245.822.822,0,0,0,.8-.482H71.8a1.815,1.815,0,0,1-.662.946,1.932,1.932,0,0,1-1.2.37A2.079,2.079,0,0,1,68.9-5.622a1.8,1.8,0,0,1-.712-.723,2.215,2.215,0,0,1-.255-1.079,2.257,2.257,0,0,1,.252-1.086,1.757,1.757,0,0,1,.705-.719,2.112,2.112,0,0,1,1.043-.252,2.1,2.1,0,0,1,1.018.245,1.721,1.721,0,0,1,.7.694A2.1,2.1,0,0,1,71.9-7.51ZM70.855-7.8a.8.8,0,0,0-.281-.622.994.994,0,0,0-.669-.234.914.914,0,0,0-.629.227,1,1,0,0,0-.313.629Zm2.691-3.374L73.46-9.647h-.683l-.094-1.525Zm2.575,5.806a2.1,2.1,0,0,1-.878-.176,1.551,1.551,0,0,1-.615-.478,1.212,1.212,0,0,1-.248-.669h1.014a.553.553,0,0,0,.227.381.788.788,0,0,0,.493.151.765.765,0,0,0,.45-.115.348.348,0,0,0,.162-.295.311.311,0,0,0-.2-.291,3.723,3.723,0,0,0-.629-.212,5.334,5.334,0,0,1-.73-.223,1.268,1.268,0,0,1-.489-.353.946.946,0,0,1-.205-.64,1.033,1.033,0,0,1,.191-.6,1.28,1.28,0,0,1,.547-.432,2.05,2.05,0,0,1,.838-.158,1.711,1.711,0,0,1,1.137.356,1.319,1.319,0,0,1,.468.96H76.69a.522.522,0,0,0-.2-.378.735.735,0,0,0-.471-.14.742.742,0,0,0-.421.1.321.321,0,0,0-.147.281.33.33,0,0,0,.2.306,3.127,3.127,0,0,0,.626.212,5.313,5.313,0,0,1,.712.223,1.258,1.258,0,0,1,.486.356.978.978,0,0,1,.212.637,1.056,1.056,0,0,1-.191.619,1.256,1.256,0,0,1-.547.428A2.072,2.072,0,0,1,76.122-5.366Zm7.6-5.086v3.525a1.5,1.5,0,0,1-.424,1.14,1.575,1.575,0,0,1-1.137.406A1.624,1.624,0,0,1,81-5.8a1.524,1.524,0,0,1-.442-1.165H81.56a.8.8,0,0,0,.155.5.522.522,0,0,0,.428.18.512.512,0,0,0,.417-.173.72.72,0,0,0,.144-.475v-3.525Zm1.194,3.014a2.306,2.306,0,0,1,.241-1.072,1.766,1.766,0,0,1,.655-.719,1.743,1.743,0,0,1,.924-.252,1.624,1.624,0,0,1,.781.18,1.584,1.584,0,0,1,.536.453v-.568h1.014v3.986H88.049v-.583a1.5,1.5,0,0,1-.536.464,1.64,1.64,0,0,1-.788.183,1.694,1.694,0,0,1-.917-.259,1.812,1.812,0,0,1-.655-.73A2.345,2.345,0,0,1,84.913-7.438Zm3.137.014a1.292,1.292,0,0,0-.144-.629,1.015,1.015,0,0,0-.388-.4,1.038,1.038,0,0,0-.525-.14,1.02,1.02,0,0,0-.518.137,1.029,1.029,0,0,0-.385.4,1.251,1.251,0,0,0-.147.622,1.292,1.292,0,0,0,.147.629,1.062,1.062,0,0,0,.388.414.987.987,0,0,0,.514.144,1.038,1.038,0,0,0,.525-.14,1.015,1.015,0,0,0,.388-.4A1.292,1.292,0,0,0,88.049-7.424Zm3.288-1.417a1.529,1.529,0,0,1,.536-.457,1.624,1.624,0,0,1,.781-.183,1.743,1.743,0,0,1,.924.252,1.771,1.771,0,0,1,.655.716,2.3,2.3,0,0,1,.241,1.076,2.345,2.345,0,0,1-.241,1.083,1.812,1.812,0,0,1-.655.73,1.706,1.706,0,0,1-.924.259,1.608,1.608,0,0,1-.773-.18A1.659,1.659,0,0,1,91.337-6v2.468H90.33V-9.417h1.007Zm2.108,1.4a1.251,1.251,0,0,0-.147-.622,1.021,1.021,0,0,0-.388-.4,1.04,1.04,0,0,0-.522-.137,1.006,1.006,0,0,0-.514.14,1.041,1.041,0,0,0-.388.406,1.271,1.271,0,0,0-.147.626,1.271,1.271,0,0,0,.147.626,1.041,1.041,0,0,0,.388.406,1.006,1.006,0,0,0,.514.14,1,1,0,0,0,.522-.144,1.068,1.068,0,0,0,.388-.41A1.287,1.287,0,0,0,93.445-7.438Zm1.784,0A2.307,2.307,0,0,1,95.47-8.51a1.767,1.767,0,0,1,.655-.719,1.743,1.743,0,0,1,.924-.252,1.624,1.624,0,0,1,.781.18,1.584,1.584,0,0,1,.536.453v-.568H99.38v3.986H98.366v-.583a1.5,1.5,0,0,1-.536.464,1.64,1.64,0,0,1-.788.183,1.694,1.694,0,0,1-.917-.259,1.813,1.813,0,0,1-.655-.73A2.345,2.345,0,0,1,95.229-7.438Zm3.137.014a1.292,1.292,0,0,0-.144-.629,1.014,1.014,0,0,0-.388-.4,1.038,1.038,0,0,0-.525-.14,1.02,1.02,0,0,0-.518.137,1.029,1.029,0,0,0-.385.4,1.251,1.251,0,0,0-.147.622,1.292,1.292,0,0,0,.147.629,1.062,1.062,0,0,0,.389.414.987.987,0,0,0,.514.144,1.038,1.038,0,0,0,.525-.14,1.014,1.014,0,0,0,.388-.4A1.292,1.292,0,0,0,98.366-7.424Zm4.489-2.05a1.536,1.536,0,0,1,1.151.45,1.721,1.721,0,0,1,.439,1.255v2.338h-1.007v-2.2a1.034,1.034,0,0,0-.237-.73.841.841,0,0,0-.647-.255.862.862,0,0,0-.658.255,1.024,1.024,0,0,0-.241.73v2.2h-1.007V-9.417h1.007v.5a1.392,1.392,0,0,1,.514-.406A1.591,1.591,0,0,1,102.855-9.474Z" transform="translate(-0.49 28.592)" fill="#fff"/>
    </g>
  </g>
</svg>
