<svg xmlns="http://www.w3.org/2000/svg" width="172" height="56" viewBox="0 0 172 56">
  <g id="グループ_2234" data-name="グループ 2234" transform="translate(-314 -595)">
    <g id="長方形_700" data-name="長方形 700" transform="translate(314 595)" fill="rgba(255,255,255,0.24)" stroke="#ccc" stroke-width="1">
      <rect width="172" height="56" stroke="none"/>
      <rect x="0.5" y="0.5" width="171" height="55" fill="none"/>
    </g>
    <g id="グループ_1106" data-name="グループ 1106" transform="translate(356 610.107)">
      <path id="パス_1787" data-name="パス 1787" d="M3.008-22.936H8.9a8.45,8.45,0,0,1,3.83.837,6.2,6.2,0,0,1,2.6,2.367,6.7,6.7,0,0,1,.924,3.531,6.7,6.7,0,0,1-.924,3.531,6.2,6.2,0,0,1-2.6,2.367,8.45,8.45,0,0,1-3.83.837H3.008ZM8.781-11.582a5.717,5.717,0,0,0,2.608-.568,4.061,4.061,0,0,0,1.732-1.616,4.777,4.777,0,0,0,.606-2.434,4.777,4.777,0,0,0-.606-2.434,4.061,4.061,0,0,0-1.732-1.616,5.717,5.717,0,0,0-2.608-.568H5.51v9.237Zm18.782-2.964q0,.25-.038.712H19.461a2.8,2.8,0,0,0,1.107,1.8,3.627,3.627,0,0,0,2.223.664,3.746,3.746,0,0,0,2.79-1.116L26.87-11a4.344,4.344,0,0,1-1.751,1.251,6.378,6.378,0,0,1-2.386.423A6.351,6.351,0,0,1,19.75-10a4.851,4.851,0,0,1-1.992-1.876,5.3,5.3,0,0,1-.7-2.723,5.377,5.377,0,0,1,.683-2.7,4.846,4.846,0,0,1,1.9-1.876,5.531,5.531,0,0,1,2.733-.674,5.392,5.392,0,0,1,2.685.664A4.7,4.7,0,0,1,26.9-17.326,5.66,5.66,0,0,1,27.563-14.545Zm-5.2-3.387a2.9,2.9,0,0,0-1.953.683,2.874,2.874,0,0,0-.972,1.819h5.831a2.836,2.836,0,0,0-.943-1.809A2.868,2.868,0,0,0,22.367-17.932ZM29.1-23.744h2.405V-9.465H29.1Zm4.792,0H36.3V-9.465H33.894Zm8.717,3.887a5.01,5.01,0,0,1,3.473,1.087,4.2,4.2,0,0,1,1.2,3.281v6.023H45.017v-1.251a2.8,2.8,0,0,1-1.26,1.03,4.927,4.927,0,0,1-1.972.356,4.833,4.833,0,0,1-2.021-.394,3.122,3.122,0,0,1-1.337-1.1,2.784,2.784,0,0,1-.471-1.588,2.721,2.721,0,0,1,1.03-2.223,5.113,5.113,0,0,1,3.243-.837h2.656v-.154a2.106,2.106,0,0,0-.645-1.655,2.789,2.789,0,0,0-1.915-.577,5.527,5.527,0,0,0-1.7.269,4.184,4.184,0,0,0-1.414.751l-.943-1.751a5.839,5.839,0,0,1,1.944-.943A8.648,8.648,0,0,1,42.612-19.857Zm-.327,8.775a3.106,3.106,0,0,0,1.607-.414,2.251,2.251,0,0,0,.991-1.183v-1.193H42.4q-2.078,0-2.078,1.366a1.226,1.226,0,0,0,.52,1.039A2.382,2.382,0,0,0,42.285-11.082ZM66.743-9.465l-.019-8.929L62.3-11H61.182l-4.426-7.274v8.814H54.37V-22.936h2.059l5.35,8.929,5.254-8.929h2.059L69.11-9.465Zm8.929-10.392a5.01,5.01,0,0,1,3.473,1.087,4.2,4.2,0,0,1,1.2,3.281v6.023H78.078v-1.251a2.8,2.8,0,0,1-1.26,1.03,4.927,4.927,0,0,1-1.972.356,4.833,4.833,0,0,1-2.021-.394,3.122,3.122,0,0,1-1.337-1.1,2.784,2.784,0,0,1-.471-1.588,2.721,2.721,0,0,1,1.03-2.223,5.113,5.113,0,0,1,3.243-.837h2.656v-.154a2.106,2.106,0,0,0-.645-1.655,2.789,2.789,0,0,0-1.915-.577,5.527,5.527,0,0,0-1.7.269,4.184,4.184,0,0,0-1.414.751l-.943-1.751a5.839,5.839,0,0,1,1.944-.943A8.648,8.648,0,0,1,75.673-19.857Zm-.327,8.775a3.106,3.106,0,0,0,1.607-.414,2.251,2.251,0,0,0,.991-1.183v-1.193H75.461q-2.078,0-2.078,1.366a1.226,1.226,0,0,0,.52,1.039A2.382,2.382,0,0,0,75.345-11.082Zm7.313-12.662h2.405V-9.465H82.658Zm4.792,0h2.405V-9.465H87.45Z" transform="translate(-2.693 23.744)" fill="#fff"/>
      <path id="パス_1788" data-name="パス 1788" d="M2.958-3.319a2.608,2.608,0,0,1-1.267-.308A2.268,2.268,0,0,1,.8-4.477,2.358,2.358,0,0,1,.484-5.7,2.34,2.34,0,0,1,.808-6.924a2.291,2.291,0,0,1,.89-.85,2.608,2.608,0,0,1,1.267-.308A2.642,2.642,0,0,1,4-7.883a2.118,2.118,0,0,1,.794.576l-.556.523A1.62,1.62,0,0,0,3-7.328a1.734,1.734,0,0,0-.853.208,1.5,1.5,0,0,0-.589.579,1.663,1.663,0,0,0-.212.84,1.663,1.663,0,0,0,.212.84,1.5,1.5,0,0,0,.589.579A1.734,1.734,0,0,0,3-4.073a1.612,1.612,0,0,0,1.237-.549l.556.529a2.113,2.113,0,0,1-.8.576A2.667,2.667,0,0,1,2.958-3.319Zm5.457-.066L7.469-4.741a1.764,1.764,0,0,1-.179.007H6.246v1.349h-.86V-8.016H7.291a2.564,2.564,0,0,1,1.048.2,1.525,1.525,0,0,1,.685.569,1.592,1.592,0,0,1,.238.88,1.569,1.569,0,0,1-.255.9,1.515,1.515,0,0,1-.731.562L9.342-3.385ZM8.4-6.369A.83.83,0,0,0,8.1-7.05a1.321,1.321,0,0,0-.853-.238H6.246v1.846H7.251A1.308,1.308,0,0,0,8.1-5.684.84.84,0,0,0,8.4-6.369Zm5.061,2.262v.721H9.983V-8.016h3.38v.721h-2.52v1.2h2.236v.708H10.843v1.277Zm3.724-.351H14.865l-.456,1.072h-.886l2.084-4.631h.847l2.09,4.631h-.9ZM16.9-5.132l-.873-2.024-.867,2.024ZM19.6-7.288H18.067v-.728H22v.728H20.461v3.9H19.6Zm6.278,3.182v.721H22.406V-8.016h3.38v.721h-2.52v1.2H25.5v.708H23.266v1.277ZM26.6-8.016h2.024a2.9,2.9,0,0,1,1.316.288,2.13,2.13,0,0,1,.893.814A2.3,2.3,0,0,1,31.151-5.7a2.3,2.3,0,0,1-.318,1.214,2.13,2.13,0,0,1-.893.814,2.9,2.9,0,0,1-1.316.288H26.6Zm1.985,3.9a1.965,1.965,0,0,0,.9-.2,1.4,1.4,0,0,0,.6-.556,1.642,1.642,0,0,0,.208-.837,1.642,1.642,0,0,0-.208-.837,1.4,1.4,0,0,0-.6-.556,1.965,1.965,0,0,0-.9-.2H27.46v3.175Zm8.11-1.68a1.222,1.222,0,0,1,.609.42,1.169,1.169,0,0,1,.225.731,1.071,1.071,0,0,1-.463.929,2.327,2.327,0,0,1-1.349.327h-2.3V-8.016h2.17a2.131,2.131,0,0,1,1.263.321,1.031,1.031,0,0,1,.443.883,1.16,1.16,0,0,1-.159.609A1.087,1.087,0,0,1,36.695-5.793ZM34.274-7.341v1.277h1.217a1.237,1.237,0,0,0,.691-.162.534.534,0,0,0,.241-.473.54.54,0,0,0-.241-.48,1.237,1.237,0,0,0-.691-.162ZM35.663-4.06q1,0,1-.668t-1-.668H34.274V-4.06Zm4.445-.959v1.634h-.86V-5.006l-1.819-3.01h.919L39.7-5.76l1.369-2.256h.847Zm7.005-.774a1.222,1.222,0,0,1,.609.42,1.169,1.169,0,0,1,.225.731,1.071,1.071,0,0,1-.463.929,2.327,2.327,0,0,1-1.349.327h-2.3V-8.016H46a2.131,2.131,0,0,1,1.263.321,1.031,1.031,0,0,1,.443.883,1.16,1.16,0,0,1-.159.609A1.087,1.087,0,0,1,47.113-5.793ZM44.692-7.341v1.277H45.91a1.237,1.237,0,0,0,.691-.162.534.534,0,0,0,.241-.473.54.54,0,0,0-.241-.48,1.237,1.237,0,0,0-.691-.162ZM46.082-4.06q1,0,1-.668t-1-.668H44.692V-4.06Zm4.055.721a2,2,0,0,1-.966-.232,1.688,1.688,0,0,1-.671-.645,1.821,1.821,0,0,1-.241-.936,1.8,1.8,0,0,1,.241-.933,1.7,1.7,0,0,1,.671-.642,2,2,0,0,1,.966-.232,2.018,2.018,0,0,1,.972.232,1.7,1.7,0,0,1,.671.642,1.8,1.8,0,0,1,.241.933,1.821,1.821,0,0,1-.241.936,1.688,1.688,0,0,1-.671.645A2.018,2.018,0,0,1,50.137-3.339Zm0-.708a1.01,1.01,0,0,0,.754-.3,1.1,1.1,0,0,0,.3-.8,1.1,1.1,0,0,0-.3-.8,1.01,1.01,0,0,0-.754-.3,1,1,0,0,0-.751.3,1.1,1.1,0,0,0-.294.8,1.1,1.1,0,0,0,.294.8A1,1,0,0,0,50.137-4.047Zm2.441-4.247H53.4v4.908h-.827Zm1.674,1.376h.827v3.532h-.827Zm.417-.582a.531.531,0,0,1-.377-.142A.465.465,0,0,1,54.139-8a.465.465,0,0,1,.152-.354.531.531,0,0,1,.377-.142.546.546,0,0,1,.377.136.437.437,0,0,1,.152.341.5.5,0,0,1-.149.367A.515.515,0,0,1,54.668-7.5Zm4.717-.794v4.908h-.794v-.456a1.279,1.279,0,0,1-.506.377,1.709,1.709,0,0,1-.665.126,1.861,1.861,0,0,1-.916-.225,1.616,1.616,0,0,1-.638-.638,1.909,1.909,0,0,1-.232-.949,1.891,1.891,0,0,1,.232-.946,1.622,1.622,0,0,1,.638-.635,1.861,1.861,0,0,1,.916-.225,1.679,1.679,0,0,1,.642.119,1.291,1.291,0,0,1,.5.357V-8.294ZM57.519-4.047a1.063,1.063,0,0,0,.536-.136.98.98,0,0,0,.377-.387,1.184,1.184,0,0,0,.139-.582,1.184,1.184,0,0,0-.139-.582.98.98,0,0,0-.377-.387,1.063,1.063,0,0,0-.536-.136,1.063,1.063,0,0,0-.536.136.98.98,0,0,0-.377.387,1.184,1.184,0,0,0-.139.582,1.184,1.184,0,0,0,.139.582.98.98,0,0,0,.377.387A1.063,1.063,0,0,0,57.519-4.047Zm6.033-1.085q0,.086-.013.245H60.767a.961.961,0,0,0,.38.619,1.247,1.247,0,0,0,.764.228,1.288,1.288,0,0,0,.959-.384l.443.509a1.493,1.493,0,0,1-.6.43,2.193,2.193,0,0,1-.82.146,2.183,2.183,0,0,1-1.025-.232,1.668,1.668,0,0,1-.685-.645,1.822,1.822,0,0,1-.241-.936,1.848,1.848,0,0,1,.235-.929,1.666,1.666,0,0,1,.652-.645,1.9,1.9,0,0,1,.939-.232,1.853,1.853,0,0,1,.923.228,1.616,1.616,0,0,1,.635.642A1.946,1.946,0,0,1,63.552-5.132ZM61.766-6.3a1,1,0,0,0-.671.235.988.988,0,0,0-.334.625h2a.975.975,0,0,0-.324-.622A.986.986,0,0,0,61.766-6.3ZM63.8-8.016h.714l-.06,1.832h-.6Zm2.481,4.677a3.163,3.163,0,0,1-.84-.112,2.114,2.114,0,0,1-.655-.284l.318-.628a2.042,2.042,0,0,0,.572.255,2.377,2.377,0,0,0,.658.1q.741,0,.741-.39a.261.261,0,0,0-.189-.258,3.256,3.256,0,0,0-.605-.139,4.91,4.91,0,0,1-.711-.152,1.091,1.091,0,0,1-.476-.3.841.841,0,0,1-.2-.6.941.941,0,0,1,.42-.8,1.912,1.912,0,0,1,1.134-.3,3.274,3.274,0,0,1,.728.083,2.04,2.04,0,0,1,.6.222l-.318.628a1.959,1.959,0,0,0-1.012-.265,1.122,1.122,0,0,0-.552.109.326.326,0,0,0-.189.288.287.287,0,0,0,.2.281,3.206,3.206,0,0,0,.625.155,4.824,4.824,0,0,1,.695.152,1.087,1.087,0,0,1,.466.291.811.811,0,0,1,.2.582.921.921,0,0,1-.43.794A2.027,2.027,0,0,1,66.284-3.339Zm4.465.02a1.9,1.9,0,0,1-.817-.175,1.6,1.6,0,0,1-.612-.493l.49-.589a1.116,1.116,0,0,0,.919.529q.721,0,.721-.853V-7.295H69.8v-.721H72.31v3.069a1.683,1.683,0,0,1-.4,1.22A1.555,1.555,0,0,1,70.749-3.319Zm3.8-3.638a1.722,1.722,0,0,1,1.194.374,1.445,1.445,0,0,1,.413,1.128v2.071h-.781v-.43a.962.962,0,0,1-.433.354,1.694,1.694,0,0,1-.678.122,1.661,1.661,0,0,1-.695-.136,1.073,1.073,0,0,1-.46-.377.957.957,0,0,1-.162-.546.935.935,0,0,1,.354-.764,1.758,1.758,0,0,1,1.115-.288h.913V-5.5a.724.724,0,0,0-.222-.569.959.959,0,0,0-.658-.2,1.9,1.9,0,0,0-.585.093,1.438,1.438,0,0,0-.486.258l-.324-.6a2.007,2.007,0,0,1,.668-.324A2.973,2.973,0,0,1,74.546-6.957Zm-.112,3.016a1.068,1.068,0,0,0,.552-.142.774.774,0,0,0,.341-.407V-4.9h-.853q-.714,0-.714.47a.422.422,0,0,0,.179.357A.819.819,0,0,0,74.434-3.941Zm4.5-3.016a1.875,1.875,0,0,1,.923.225,1.622,1.622,0,0,1,.638.635,1.891,1.891,0,0,1,.232.946,1.91,1.91,0,0,1-.232.949,1.616,1.616,0,0,1-.638.638,1.875,1.875,0,0,1-.923.225A1.426,1.426,0,0,1,77.8-3.815V-2.1h-.827V-6.918h.787v.463a1.279,1.279,0,0,1,.506-.377A1.709,1.709,0,0,1,78.932-6.957Zm-.093,2.911a1,1,0,0,0,.751-.3,1.1,1.1,0,0,0,.294-.8,1.1,1.1,0,0,0-.294-.8,1,1,0,0,0-.751-.3,1.063,1.063,0,0,0-.536.136.98.98,0,0,0-.377.387,1.184,1.184,0,0,0-.139.582,1.184,1.184,0,0,0,.139.582.98.98,0,0,0,.377.387A1.063,1.063,0,0,0,78.839-4.047Zm3.738-2.911a1.722,1.722,0,0,1,1.194.374,1.445,1.445,0,0,1,.413,1.128v2.071H83.4v-.43a.962.962,0,0,1-.433.354,1.694,1.694,0,0,1-.678.122,1.661,1.661,0,0,1-.695-.136,1.073,1.073,0,0,1-.46-.377.957.957,0,0,1-.162-.546.935.935,0,0,1,.354-.764,1.758,1.758,0,0,1,1.115-.288h.913V-5.5a.724.724,0,0,0-.222-.569.959.959,0,0,0-.658-.2,1.9,1.9,0,0,0-.585.093,1.438,1.438,0,0,0-.486.258l-.324-.6a2.007,2.007,0,0,1,.668-.324A2.973,2.973,0,0,1,82.577-6.957Zm-.112,3.016a1.068,1.068,0,0,0,.552-.142.774.774,0,0,0,.341-.407V-4.9H82.5q-.714,0-.714.47a.422.422,0,0,0,.179.357A.819.819,0,0,0,82.464-3.941Zm4.545-3.016a1.476,1.476,0,0,1,1.072.39,1.539,1.539,0,0,1,.4,1.158v2.024h-.827V-5.3a.992.992,0,0,0-.218-.7.807.807,0,0,0-.622-.235.955.955,0,0,0-.721.275,1.094,1.094,0,0,0-.265.79v1.786H85V-6.918h.787v.456a1.293,1.293,0,0,1,.516-.37A1.857,1.857,0,0,1,87.009-6.957Z" transform="translate(-0.484 27.887)" fill="#fff"/>
    </g>
  </g>
</svg>
