<svg xmlns="http://www.w3.org/2000/svg" width="314.51" height="84.36" viewBox="0 0 314.51 84.36">
  <g id="グループ_2240" data-name="グループ 2240" transform="translate(-569.76 -401.2)">
    <path id="パス_1885" data-name="パス 1885" d="M30.59-5.25A41.523,41.523,0,0,1,13.51-1.26H12.18v-49.7H5.04V0H29.4l1.33-5.25ZM36.54,0h7.14V-50.96H36.54ZM77.35.84C92.54.84,104.3-9.59,104.3-25.97c0-16.1-11.48-25.83-26.04-25.83-15.19,0-26.95,10.43-26.95,26.81C51.31-8.89,62.79.84,77.35.84Zm.77-1.12c-11.2,0-18.97-10.22-18.97-25.48,0-14.98,7.28-24.92,18.55-24.92,10.99,0,18.76,10.22,18.76,25.48C96.46-10.15,89.18-.28,78.12-.28Zm65.94-50.68c.98,5.6,1.4,12.46,1.4,22.26v17.22l-28-39.48h-8.47v.21l3.43,4.76v23.73A139,139,0,0,1,111.02,0h4.2c-.98-5.6-1.4-12.46-1.4-22.26V-44.03L146.23.84h.63V-28.7a139,139,0,0,1,1.4-22.26Zm45.64,0H171.85V0h16.66c17.29,0,28.21-9.59,28.21-26.04C216.72-42.21,205.87-50.96,189.7-50.96Zm0,49.84c-5.6,0-8.89-.21-10.71-.63V-49.84h10.08c12.04,0,19.81,9.73,19.81,24.15C208.88-10.01,201.88-1.12,189.7-1.12ZM248.08.84c15.19,0,26.95-10.43,26.95-26.81,0-16.1-11.48-25.83-26.04-25.83-15.19,0-26.95,10.43-26.95,26.81C222.04-8.89,233.52.84,248.08.84Zm.77-1.12c-11.2,0-18.97-10.22-18.97-25.48,0-14.98,7.28-24.92,18.55-24.92,10.99,0,18.76,10.22,18.76,25.48C267.19-10.15,259.91-.28,248.85-.28Zm54.74-24.5c6.65-2.31,12.25-6.09,12.25-13.3,0-8.68-7.21-12.88-20.65-12.88H282.66V0h7.14V-23.03h4.69c1.96,0,2.66.35,3.64,1.47l20.72,23.1h.42V-7.35Zm-7.35.63a52.258,52.258,0,0,1-6.44-.42V-49.84h5.11c9.24,0,13.72,4.83,13.72,12.25C308.63-30.31,303.87-24.15,296.24-24.15Z" transform="translate(565 453)"/>
    <path id="パス_1886" data-name="パス 1886" d="M7.74.24a6.886,6.886,0,0,0,6.08-3.48l-.24-.14A5.76,5.76,0,0,1,8.64-.64C5.42-.64,3-3.24,3-7.66c0-3.9,2-6.82,5.06-6.82a5.43,5.43,0,0,1,4.56,2.92l1-.9A7.3,7.3,0,0,0,8.16-14.8c-4.22,0-7.4,2.98-7.4,7.64C.76-2.66,3.74.24,7.74.24ZM24.76-7.08c1.9-.66,3.5-1.74,3.5-3.8,0-2.48-2.06-3.68-5.9-3.68H18.78V0h2.04V-6.58h1.34a1.112,1.112,0,0,1,1.04.42L29.12.44h.12V-2.1Zm-2.1.18a14.931,14.931,0,0,1-1.84-.12v-7.22h1.46c2.64,0,3.92,1.38,3.92,3.5A3.583,3.583,0,0,1,22.66-6.9Zm20.7,5.56a16.926,16.926,0,0,1-5.76.98H36.44V-7.4h.92a12.87,12.87,0,0,1,4.2.48h.04V-8.16h-.04a13.69,13.69,0,0,1-4.2.4h-.92V-14.2h1.1a17.122,17.122,0,0,1,5.44.9h.04l-.24-1.26H34.4V0h8.62l.38-1.34ZM57.12,0h2.22L53.28-14.88H53.2l-3.48,8.5C48.68-3.86,47.92-2,46.96,0h1.38a15.068,15.068,0,0,1,1.18-4.78H55.2ZM49.66-5.14l.44-1.1,2.26-5.58,2.7,6.68ZM71.5-14.56H61.14l-.28,1.42h.04a8.754,8.754,0,0,1,3.92-1.06h.48V0h2.04V-14.2h.46a8.754,8.754,0,0,1,3.92,1.06h.04ZM85.64-1.34a16.926,16.926,0,0,1-5.76.98H78.72V-7.4h.92a12.87,12.87,0,0,1,4.2.48h.04V-8.16h-.04a13.69,13.69,0,0,1-4.2.4h-.92V-14.2h1.1a17.122,17.122,0,0,1,5.44.9h.04l-.24-1.26H76.68V0H85.3l.38-1.34ZM95.86-14.56h-5.1V0h4.76c4.94,0,8.06-2.74,8.06-7.44C103.58-12.06,100.48-14.56,95.86-14.56Zm0,14.24A15.96,15.96,0,0,1,92.8-.5V-14.24h2.88c3.44,0,5.66,2.78,5.66,6.9C101.34-2.86,99.34-.32,95.86-.32Zm27.06-7.34V-7.7c1.82-.36,3.52-1.52,3.52-3.46,0-2.1-1.7-3.4-5.04-3.4h-4.82V0h4.7c3.86,0,6.04-1.54,6.04-4C127.32-6.22,125.38-7.5,122.92-7.66Zm1.36-3.28a3.014,3.014,0,0,1-3.08,3.28h-2.58v-6.58h2.28A3.086,3.086,0,0,1,124.28-10.94ZM120.68-.32a13.342,13.342,0,0,1-2.06-.14V-7.34h2.92a3.35,3.35,0,0,1,3.54,3.62C125.08-1.58,123.74-.32,120.68-.32ZM142.1-14.56h-1.26A23.427,23.427,0,0,1,138.3-8.8l-1.04,1.84-4.28-7.6h-2.34l4.76,8.32V0h2.04V-6.48l1.22-2.14C139.92-10.88,140.9-12.58,142.1-14.56Zm18.26,6.9V-7.7c1.82-.36,3.52-1.52,3.52-3.46,0-2.1-1.7-3.4-5.04-3.4h-4.82V0h4.7c3.86,0,6.04-1.54,6.04-4C164.76-6.22,162.82-7.5,160.36-7.66Zm1.36-3.28a3.014,3.014,0,0,1-3.08,3.28h-2.58v-6.58h2.28A3.086,3.086,0,0,1,161.72-10.94ZM158.12-.32a13.342,13.342,0,0,1-2.06-.14V-7.34h2.92a3.35,3.35,0,0,1,3.54,3.62C162.52-1.58,161.18-.32,158.12-.32Zm16.42.56A5.3,5.3,0,0,0,180-5.36a5.11,5.11,0,0,0-5.28-5.5,5.315,5.315,0,0,0-5.46,5.62A5.094,5.094,0,0,0,174.54.24Zm.12-.28c-1.98,0-3.36-2.12-3.36-5.32,0-3.16,1.3-5.22,3.3-5.22,1.98,0,3.36,2.14,3.36,5.34C177.96-2.1,176.66-.04,174.66-.04ZM185.1,0H187V-16.2h-.08l-1.82.6Zm8.54-12.52L195-13.88l-1.36-1.36-1.36,1.36ZM192.7,0h1.88V-10.84h-.08l-1.8.54Zm17.44-.38-.44-1.44V-16.2h-.08l-1.82.6v5.84a4.309,4.309,0,0,0-2.94-1.1c-2.8,0-5.16,2.32-5.16,5.74,0,3.14,1.96,5.36,4.56,5.36a4.814,4.814,0,0,0,3.58-1.7l.52,1.64Zm-5.26-.04c-1.82,0-3.14-1.64-3.14-4.9,0-3.22,1.34-5.2,3.3-5.2A3.008,3.008,0,0,1,207.8-8.5v6.58A3.959,3.959,0,0,1,204.88-.42Zm19.6-5.64c.04-2.82-1.44-4.8-4.32-4.8-3.08,0-5.38,2.26-5.38,5.72,0,3.24,2.12,5.38,4.98,5.38a5.342,5.342,0,0,0,4.6-2.64l-.24-.14a4.4,4.4,0,0,1-3.54,1.92c-2.16,0-3.78-1.76-3.78-5.08v-.36ZM220-10.56c1.7,0,2.78,1.66,2.66,4.18h-5.84C217.02-8.82,218.26-10.56,220-10.56Zm9.4,1.52h.2l.74-5.76h-1.68ZM238.44.24c2.56,0,4.08-1.34,4.08-3.16,0-1.98-1.82-2.74-3.08-3.26l-.8-.34c-1.12-.48-2.5-.98-2.5-2.24,0-.98.8-1.82,2.26-1.82a5.079,5.079,0,0,1,3.36,1.5l.28-.94a7.55,7.55,0,0,0-3.46-.84c-2.28,0-3.72,1.24-3.72,2.92,0,1.9,1.78,2.64,3.08,3.2l.82.34c1.26.52,2.48,1.04,2.48,2.32,0,1.2-1.02,2.04-2.6,2.04a4.813,4.813,0,0,1-3.68-1.7l-.3,1.02A7.666,7.666,0,0,0,238.44.24ZM252.46,3c2.96-1.4,4.88-2.68,4.88-7.56v-10H255.3V-4.4c0,3.68-.32,5.52-2.98,7.16Zm19.1-3.44c-.98,0-.98-.56-.98-1.52V-7.08c0-2.58-1.26-3.78-3.72-3.78a5.359,5.359,0,0,0-3.92,1.64l.18.22a4.5,4.5,0,0,1,3-1.2c1.98,0,2.56,1.32,2.56,3.3v1.14c-.6.06-1.24.1-1.96.18-2.74.3-4.52,1.46-4.52,3.32A2.5,2.5,0,0,0,265,.2a5.592,5.592,0,0,0,3.7-1.54A1.461,1.461,0,0,0,270.28.14a3.26,3.26,0,0,0,1.66-.5V-.48A2.215,2.215,0,0,1,271.56-.44Zm-5.52-.08a1.865,1.865,0,0,1-1.96-2.06c0-1.94,1.88-2.6,4.6-2.88v3.74A3.883,3.883,0,0,1,266.04-.52Zm15.94-10.34a4.814,4.814,0,0,0-3.54,1.68v-1.66h-.08l-1.82.54V4.56h1.9V-.86a4.309,4.309,0,0,0,2.94,1.1c2.8,0,5.16-2.3,5.16-5.72C286.54-8.64,284.58-10.86,281.98-10.86ZM281.2-.08a3,3,0,0,1-2.76-2.04V-8.68a3.993,3.993,0,0,1,2.96-1.52c1.8,0,3.1,1.64,3.1,4.9C284.5-2.08,283.16-.08,281.2-.08ZM300-.44c-.98,0-.98-.56-.98-1.52V-7.08c0-2.58-1.26-3.78-3.72-3.78a5.359,5.359,0,0,0-3.92,1.64l.18.22a4.5,4.5,0,0,1,3-1.2c1.98,0,2.56,1.32,2.56,3.3v1.14c-.6.06-1.24.1-1.96.18-2.74.3-4.52,1.46-4.52,3.32A2.5,2.5,0,0,0,293.44.2a5.592,5.592,0,0,0,3.7-1.54A1.461,1.461,0,0,0,298.72.14a3.26,3.26,0,0,0,1.66-.5V-.48A2.215,2.215,0,0,1,300-.44Zm-5.52-.08a1.865,1.865,0,0,1-1.96-2.06c0-1.94,1.88-2.6,4.6-2.88v3.74A3.883,3.883,0,0,1,294.48-.52Zm16.28-10.34a5.321,5.321,0,0,0-3.88,1.74v-1.72h-.08l-1.82.54V0h1.9V-8.72a4.284,4.284,0,0,1,3.06-1.42c2.34,0,2.34,2.2,2.34,3.02V0h1.9V-7.08C314.18-9.66,312.98-10.86,310.76-10.86Z" transform="translate(569 481)" fill="#333"/>
  </g>
</svg>
