<svg xmlns="http://www.w3.org/2000/svg" xmlns:xlink="http://www.w3.org/1999/xlink" width="172" height="56" viewBox="0 0 172 56">
  <defs>
    <clipPath id="clip-path">
      <rect id="長方形_10244" data-name="長方形 10244" width="144" height="19.452" fill="none"/>
    </clipPath>
  </defs>
  <g id="グループ_2236" data-name="グループ 2236" transform="translate(-314 -595)">
    <g id="長方形_700" data-name="長方形 700" transform="translate(314 595)" fill="rgba(255,255,255,0.24)" stroke="#ccc" stroke-width="1">
      <rect width="172" height="56" stroke="none"/>
      <rect x="0.5" y="0.5" width="171" height="55" fill="none"/>
    </g>
    <g id="グループ_2239" data-name="グループ 2239" transform="translate(328 613.274)">
      <g id="グループ_2238" data-name="グループ 2238" transform="translate(0 0)" clip-path="url(#clip-path)">
        <path id="パス_1874" data-name="パス 1874" d="M31.836,0H28.153V.108A12.5,12.5,0,0,1,32.132.96c1.9.813,6.6,3.586,6.6,8.765s-4.692,7.984-6.6,8.766a14.187,14.187,0,0,1-3.979.855v.105l3.506-.05c5.37,0,10.2-4.3,10.2-9.676S37.4.153,31.836,0" transform="translate(-5.721 0)" fill="#9d7b46"/>
        <path id="パス_1875" data-name="パス 1875" d="M7.871,15.172,14.963,0H20.2V.09c-2.574.3-2.9,1.316-2.843,3.411l.12,11.492c.12,3.2.21,4.1,2.843,4.369v.09H12.36v-.09c2.454-.239,2.543-1.167,2.514-4.369L14.9,2.783C12.449,8.26,8.5,16.819,7.452,19.452H6.674C5.656,16.729,2.275,8.5,0,3.082Z" transform="translate(0 0)" fill="#fff"/>
        <path id="パス_1876" data-name="パス 1876" d="M62.673,8.835v6.693h-.679V10.173l-2.629,4.5H59.03L56.4,10.2v5.326h-.68V8.835h.584L59.212,13.8,62.09,8.835Z" transform="translate(-11.323 -1.795)" fill="#fff"/>
        <path id="パス_1877" data-name="パス 1877" d="M76.38,11.367a1.9,1.9,0,0,1,.526,1.458v3.117h-.649v-.784a1.565,1.565,0,0,1-.675.613,2.365,2.365,0,0,1-1.057.219,2.07,2.07,0,0,1-1.339-.4,1.382,1.382,0,0,1-.033-2.094,2.268,2.268,0,0,1,1.477-.392h1.6V12.8a1.292,1.292,0,0,0-.363-.99,1.506,1.506,0,0,0-1.062-.339,2.713,2.713,0,0,0-.917.158,2.317,2.317,0,0,0-.756.435l-.305-.506a2.69,2.69,0,0,1,.917-.5,3.577,3.577,0,0,1,1.128-.177,2.128,2.128,0,0,1,1.511.492m-.764,3.825a1.57,1.57,0,0,0,.612-.76V13.61H74.649q-1.291,0-1.29.9a.82.82,0,0,0,.335.692,1.517,1.517,0,0,0,.937.253,1.784,1.784,0,0,0,.985-.263" transform="translate(-14.771 -2.21)" fill="#fff"/>
        <path id="パス_1878" data-name="パス 1878" d="M87.876,11.133a2.424,2.424,0,0,1,1.172-.258v.66l-.163-.01a1.605,1.605,0,0,0-1.243.488,1.939,1.939,0,0,0-.449,1.367v2.562h-.679V10.913h.649V11.9a1.649,1.649,0,0,1,.712-.765" transform="translate(-17.58 -2.21)" fill="#fff"/>
        <path id="パス_1879" data-name="パス 1879" d="M98.162,15.665a2.346,2.346,0,0,1-.922-.913,2.772,2.772,0,0,1,0-2.644,2.371,2.371,0,0,1,.922-.908,2.722,2.722,0,0,1,1.335-.325,2.583,2.583,0,0,1,1.162.254,1.925,1.925,0,0,1,.807.74l-.506.344a1.577,1.577,0,0,0-.631-.559,1.876,1.876,0,0,0-.832-.187,1.97,1.97,0,0,0-.98.244,1.708,1.708,0,0,0-.679.693,2.278,2.278,0,0,0,0,2.051,1.718,1.718,0,0,0,.679.689,1.969,1.969,0,0,0,.98.243,1.927,1.927,0,0,0,.832-.181,1.561,1.561,0,0,0,.631-.555l.506.343a1.923,1.923,0,0,1-.812.742,2.591,2.591,0,0,1-1.157.253,2.713,2.713,0,0,1-1.335-.325" transform="translate(-19.692 -2.21)" fill="#fff"/>
        <path id="パス_1880" data-name="パス 1880" d="M114.582,10.908a2.147,2.147,0,0,1,.559,1.6v2.916h-.678V12.576a1.661,1.661,0,0,0-.393-1.2,1.471,1.471,0,0,0-1.119-.411,1.715,1.715,0,0,0-1.285.483,1.82,1.82,0,0,0-.473,1.333v2.64h-.679V8.331h.679v2.945a1.846,1.846,0,0,1,.764-.68,2.523,2.523,0,0,1,1.119-.238,2.058,2.058,0,0,1,1.507.55" transform="translate(-22.457 -1.693)" fill="#fff"/>
        <path id="パス_1881" data-name="パス 1881" d="M129.1,13.637H124.9a1.8,1.8,0,0,0,.6,1.268,2,2,0,0,0,1.376.483,2.181,2.181,0,0,0,.861-.167,1.866,1.866,0,0,0,.679-.493l.382.44a2.153,2.153,0,0,1-.836.613,2.829,2.829,0,0,1-1.1.21,2.784,2.784,0,0,1-1.373-.33,2.376,2.376,0,0,1-.932-.912,2.611,2.611,0,0,1-.335-1.319,2.7,2.7,0,0,1,.321-1.32,2.31,2.31,0,0,1,.879-.908,2.458,2.458,0,0,1,1.257-.325,2.433,2.433,0,0,1,1.253.325,2.3,2.3,0,0,1,.869.9,2.721,2.721,0,0,1,.316,1.324Zm-3.648-1.715a1.826,1.826,0,0,0-.56,1.21h3.566a1.824,1.824,0,0,0-.559-1.21,1.847,1.847,0,0,0-2.448,0" transform="translate(-25.242 -2.21)" fill="#fff"/>
        <path id="パス_1882" data-name="パス 1882" d="M147.858,8.835h2.725a3.986,3.986,0,0,1,1.873.425,3.106,3.106,0,0,1,1.262,1.186,3.333,3.333,0,0,1,.45,1.735,3.336,3.336,0,0,1-.45,1.735,3.1,3.1,0,0,1-1.262,1.186,3.967,3.967,0,0,1-1.873.426h-2.725Zm2.687,6.081a3.257,3.257,0,0,0,1.539-.348,2.551,2.551,0,0,0,1.023-.966,2.958,2.958,0,0,0,0-2.841,2.551,2.551,0,0,0-1.023-.966,3.247,3.247,0,0,0-1.539-.348h-1.979v5.468Z" transform="translate(-30.046 -1.795)" fill="#fff"/>
        <path id="パス_1883" data-name="パス 1883" d="M164.422,15.66a2.391,2.391,0,0,1-.917-.912,2.764,2.764,0,0,1,0-2.64,2.362,2.362,0,0,1,.917-.908,2.8,2.8,0,0,1,2.62,0,2.333,2.333,0,0,1,.914.908,2.806,2.806,0,0,1,0,2.64,2.361,2.361,0,0,1-.914.912,2.76,2.76,0,0,1-2.62,0m2.272-.516a1.71,1.71,0,0,0,.665-.693,2.316,2.316,0,0,0,0-2.046,1.717,1.717,0,0,0-.665-.694,2.021,2.021,0,0,0-1.922,0,1.728,1.728,0,0,0-.669.694,2.262,2.262,0,0,0,0,2.046,1.721,1.721,0,0,0,.669.693,2.015,2.015,0,0,0,1.922,0" transform="translate(-33.157 -2.21)" fill="#fff"/>
        <path id="パス_1884" data-name="パス 1884" d="M178.908,11.133a2.421,2.421,0,0,1,1.171-.258v.66l-.162-.01a1.608,1.608,0,0,0-1.244.488,1.943,1.943,0,0,0-.449,1.367v2.562h-.679V10.913h.65V11.9a1.645,1.645,0,0,1,.712-.765" transform="translate(-36.079 -2.21)" fill="#fff"/>
      </g>
    </g>
  </g>
</svg>
