<svg xmlns="http://www.w3.org/2000/svg" width="12" height="13.714" viewBox="0 0 12 13.714"><path d="M11.679,4.286H.321A.321.321,0,0,1,0,3.964V3A1.286,1.286,0,0,1,1.286,1.714H2.571V.321A.321.321,0,0,1,2.893,0H3.964a.321.321,0,0,1,.321.321V1.714H7.714V.321A.321.321,0,0,1,8.036,0H9.107a.321.321,0,0,1,.321.321V1.714h1.286A1.286,1.286,0,0,1,12,3v.964A.321.321,0,0,1,11.679,4.286ZM.321,5.143H11.679A.321.321,0,0,1,12,5.464v6.964a1.286,1.286,0,0,1-1.286,1.286H1.286A1.286,1.286,0,0,1,0,12.429V5.464A.321.321,0,0,1,.321,5.143Zm8.928,2.57-.755-.761a.321.321,0,0,0-.455,0L5.2,9.768,3.968,8.526a.321.321,0,0,0-.455,0l-.761.755a.321.321,0,0,0,0,.455l2.213,2.23a.321.321,0,0,0,.455,0l3.829-3.8a.321.321,0,0,0,0-.455Z" fill="#888"/></svg>