<svg xmlns="http://www.w3.org/2000/svg" width="18" height="12.6" viewBox="0 0 18 12.6"><path d="M5.4,8.55A3.15,3.15,0,1,0,2.25,5.4,3.148,3.148,0,0,0,5.4,8.55Zm2.16.9H7.327a4.349,4.349,0,0,1-3.853,0H3.24A3.241,3.241,0,0,0,0,12.69v.81a1.35,1.35,0,0,0,1.35,1.35h8.1A1.35,1.35,0,0,0,10.8,13.5v-.81A3.241,3.241,0,0,0,7.56,9.45Zm5.94-.9a2.7,2.7,0,1,0-2.7-2.7A2.7,2.7,0,0,0,13.5,8.55Zm1.35.9h-.107a3.547,3.547,0,0,1-2.486,0H12.15a3.124,3.124,0,0,0-1.567.433A4.116,4.116,0,0,1,11.7,12.69v1.08c0,.062-.014.121-.017.18H16.65A1.35,1.35,0,0,0,18,12.6,3.148,3.148,0,0,0,14.85,9.45Z" transform="translate(0 -2.25)" fill="#888"/></svg>