<svg xmlns="http://www.w3.org/2000/svg" width="18" height="12.6" viewBox="0 0 18 12.6"><path d="M17.47,2.882A8.329,8.329,0,0,0,14.2,2.25C10.732,2.25,7.268,4,3.8,4A8.533,8.533,0,0,1,1.2,3.617a.962.962,0,0,0-.291-.046A.9.9,0,0,0,0,4.466v8.923a.894.894,0,0,0,.53.829A8.324,8.324,0,0,0,3.8,14.85c3.464,0,6.928-1.754,10.392-1.754a8.533,8.533,0,0,1,2.606.386.962.962,0,0,0,.291.046A.9.9,0,0,0,18,12.633V3.711A.9.9,0,0,0,17.47,2.882ZM9,11.25a2.506,2.506,0,0,1-2.25-2.7A2.506,2.506,0,0,1,9,5.85a2.506,2.506,0,0,1,2.25,2.7A2.506,2.506,0,0,1,9,11.25Z" transform="translate(0 -2.25)" fill="#888"/></svg>