<svg xmlns="http://www.w3.org/2000/svg" width="40" height="40" viewBox="0 0 40 40"><circle cx="20" cy="20" r="20" fill="#f2f2f2"/><path d="M21.75,5.46a19.682,19.682,0,0,1-2.48.21A19.973,19.973,0,0,1,15.2,5.06,20.8,20.8,0,0,0,10.99,4.5c-2.93,0-3.925.605-4.03.67l-.21.145V23.7h2.4V14.79a15.168,15.168,0,0,1,1.845-.1,20.236,20.236,0,0,1,3.99.775,21.445,21.445,0,0,0,4.345.575,19.844,19.844,0,0,0,2.42-.2c.375-.045.7-.085,1-.135V5.31C22.5,5.36,22.125,5.415,21.75,5.46Z" transform="translate(6.25 5.9)" fill="#121b2b"/></svg>