<svg xmlns="http://www.w3.org/2000/svg" xmlns:xlink="http://www.w3.org/1999/xlink" width="36" height="36" viewBox="0 0 36 36">
  <defs>
    <radialGradient id="radial-gradient" cx="0.216" cy="0.996" r="1.263" gradientTransform="matrix(1, 0, 0, -1, 0, 12.692)" gradientUnits="objectBoundingBox">
      <stop offset="0" stop-color="#fff"/>
      <stop offset="0.179" stop-color="#ffebb0"/>
      <stop offset="0.404" stop-color="#ffbf02"/>
      <stop offset="0.631" stop-color="#ff136e"/>
      <stop offset="0.936" stop-color="#812bed"/>
      <stop offset="1" stop-color="#564ee7"/>
    </radialGradient>
  </defs>
  <g id="グループ_2449" data-name="グループ 2449" transform="translate(-970 -942)">
    <path id="パス_1834" data-name="パス 1834" d="M663.8,243.3a18,18,0,1,1-18-18A17.988,17.988,0,0,1,663.8,243.3Zm-8.373,4.166v-8.413a5.852,5.852,0,0,0-5.825-5.825h-8.373a5.852,5.852,0,0,0-5.825,5.825v8.454a5.852,5.852,0,0,0,5.825,5.825H649.6A5.861,5.861,0,0,0,655.427,247.466Zm-14.238-12.418h8.373a4.014,4.014,0,0,1,4,4v8.454a4.014,4.014,0,0,1-4,4h-8.373a4.014,4.014,0,0,1-4-4v-8.413a4.075,4.075,0,0,1,4-4.045Zm9.344,8.211A5.137,5.137,0,1,0,645.4,248.4,5.144,5.144,0,0,0,650.533,243.26Zm-1.82,0a3.317,3.317,0,1,1-3.317-3.317A3.332,3.332,0,0,1,648.712,243.26Zm.849-5.3a1.213,1.213,0,1,0,1.214-1.213A1.192,1.192,0,0,0,649.562,237.961Z" transform="translate(342.2 716.7)" fill="url(#radial-gradient)"/>
  </g>
</svg>
