<svg xmlns="http://www.w3.org/2000/svg" width="22.976" height="25.533" viewBox="0 0 22.976 25.533"><g transform="translate(0.488 0.488)"><path d="M19.431,24.894H2.546a3.046,3.046,0,0,1-3.025-3.4L1.3,6.383A1,1,0,0,1,2.292,5.5H19.685a1,1,0,0,1,.993.883l1.777,15.108a3.046,3.046,0,0,1-3.025,3.4ZM3.181,7.5,1.507,21.725a1.046,1.046,0,0,0,1.039,1.169H19.431a1.046,1.046,0,0,0,1.039-1.169L18.8,7.5Z" transform="translate(0.012 0.151)" fill="#fff"/><path d="M15.459,9.685a1,1,0,0,1-1-1V5.1a3.6,3.6,0,0,0-7.208,0V8.685a1,1,0,0,1-2,0V5.1a5.6,5.6,0,0,1,11.208,0V8.685A1,1,0,0,1,15.459,9.685Z" transform="translate(0.145 0.012)" fill="#fff"/></g></svg>