<svg xmlns="http://www.w3.org/2000/svg" width="40" height="40" viewBox="0 0 40 40"><g transform="translate(0 -0.244)"><g transform="translate(0 0.244)"><circle cx="20" cy="20" r="20" fill="#ccc"/><path d="M35.873,27.283a19.844,19.844,0,0,0-16.232-8.174A19.846,19.846,0,0,0,3.408,27.283a19.182,19.182,0,0,0,16.233,8.43A19.181,19.181,0,0,0,35.873,27.283Z" transform="translate(0.36 4.287)" fill="#888"/><path d="M27.292,14.2c0,4.111-4.324,7.358-9.29,6.59-3.546-.548-6.371-3.834-6.371-6.918V11.845c0-3.085,2.825-6.371,6.371-6.919,4.966-.768,9.29,2.479,9.29,6.59Z" transform="translate(0.538 0.527)" fill="#888"/></g></g></svg>