<svg xmlns="http://www.w3.org/2000/svg" width="56" height="56" viewBox="0 0 56 56"><g transform="translate(0 -0.244)"><g transform="translate(0 0.244)"><circle cx="28" cy="28" r="28" fill="#b1b1b1"/><path d="M48.859,30.552A27.781,27.781,0,0,0,26.134,19.109,27.784,27.784,0,0,0,3.408,30.552a26.855,26.855,0,0,0,22.726,11.8A26.854,26.854,0,0,0,48.859,30.552Z" transform="translate(1.867 13.646)" fill="#dfdfdf"/><path d="M33.557,17.952c0,5.755-6.054,10.3-13.006,9.226-4.964-.767-8.92-5.368-8.92-9.685V14.658c0-4.319,3.956-8.92,8.92-9.687C27.5,3.9,33.557,8.442,33.557,14.2Z" transform="translate(5.406 2.663)" fill="#dfdfdf"/></g></g></svg>