<svg xmlns="http://www.w3.org/2000/svg" xmlns:xlink="http://www.w3.org/1999/xlink" width="918" height="275" viewBox="0 0 918 275">
  <defs>
    <linearGradient id="linear-gradient" x1="0.5" x2="0.5" y2="1" gradientUnits="objectBoundingBox">
      <stop offset="0" stop-color="#f77ee6"/>
      <stop offset="1" stop-color="#5096ff"/>
    </linearGradient>
    <linearGradient id="linear-gradient-6" x1="0.5" x2="0.5" y2="1" gradientUnits="objectBoundingBox">
      <stop offset="0" stop-color="#ff8e6f"/>
      <stop offset="1" stop-color="#f77ee6"/>
    </linearGradient>
    <linearGradient id="linear-gradient-9" x1="0.5" x2="0.5" y2="1" gradientUnits="objectBoundingBox">
      <stop offset="0" stop-color="#5096ff"/>
      <stop offset="1" stop-color="#00bfaf"/>
    </linearGradient>
    <filter id="パス_33187" x="225" y="40" width="235" height="235" filterUnits="userSpaceOnUse">
      <feOffset dy="3" input="SourceAlpha"/>
      <feGaussianBlur stdDeviation="3" result="blur"/>
      <feFlood flood-opacity="0.161"/>
      <feComposite operator="in" in2="blur"/>
      <feComposite in="SourceGraphic"/>
    </filter>
    <filter id="パス_33188" x="450" y="0" width="235" height="235" filterUnits="userSpaceOnUse">
      <feOffset dy="3" input="SourceAlpha"/>
      <feGaussianBlur stdDeviation="3" result="blur-2"/>
      <feFlood flood-opacity="0.161"/>
      <feComposite operator="in" in2="blur-2"/>
      <feComposite in="SourceGraphic"/>
    </filter>
    <filter id="パス_33189" x="683" y="40" width="235" height="235" filterUnits="userSpaceOnUse">
      <feOffset dy="3" input="SourceAlpha"/>
      <feGaussianBlur stdDeviation="3" result="blur-3"/>
      <feFlood flood-opacity="0.161"/>
      <feComposite operator="in" in2="blur-3"/>
      <feComposite in="SourceGraphic"/>
    </filter>
    <clipPath id="clip-path">
      <path id="パス_11056" data-name="パス 11056" d="M45,0A52.276,52.276,0,0,0,25.765,3.645q-1.614.64-3.405,1.5-1.717.826-3.28,1.718h0a52.654,52.654,0,0,0-14.406,12.1q-1.186,1.429-2.25,2.907-1.047,1.458-2,2.99l-.067.106h0A2.54,2.54,0,0,0,.379,27.6,52.7,52.7,0,0,0,12.952,41.578Q14.4,42.7,15.933,43.724t3.145,1.945l0,0a.323.323,0,0,0,.038.022h0a2.538,2.538,0,0,0,2.466-4.436v0q-1.458-.831-2.827-1.746t-2.7-1.947A47.628,47.628,0,0,1,5.55,26.265q.483-.728.992-1.436.982-1.366,2.03-2.628A47.535,47.535,0,0,1,21.586,11.278h0q1.494-.851,2.962-1.558,1.4-.67,3.087-1.339A47.182,47.182,0,0,1,45,5.093h0v-.01A47.38,47.38,0,0,1,57.315,6.708q.977.262,1.9.554a47.026,47.026,0,0,1,9.2,4.016h0q1.457.829,2.827,1.746t2.7,1.946A47.63,47.63,0,0,1,84.452,26.265q-.483.728-.993,1.436-.982,1.366-2.03,2.628A47.532,47.532,0,0,1,68.415,41.252a2.54,2.54,0,0,0,2.508,4.418,52.681,52.681,0,0,0,14.406-12.1q1.186-1.429,2.249-2.908,1.049-1.458,2-2.99c.023-.035.045-.07.067-.106h0A2.548,2.548,0,0,0,90,26.313v-.1a2.526,2.526,0,0,0-.378-1.282A52.694,52.694,0,0,0,77.05,10.952q-1.444-1.117-2.982-2.145T70.922,6.861h0A52.13,52.13,0,0,0,60.732,2.408q-1.061-.334-2.1-.614A52.438,52.438,0,0,0,45,.01V0Z" transform="translate(0)" stroke="rgba(0,0,0,0)" stroke-miterlimit="10" stroke-width="1" fill="url(#linear-gradient-6)"/>
    </clipPath>
    <clipPath id="clip-path-2">
      <path id="パス_11057" data-name="パス 11057" d="M48.508,18.112v.01a9.891,9.891,0,0,0-9.914,9.915h0a9.889,9.889,0,0,0,9.914,9.914v.011h0v-.011a9.892,9.892,0,0,0,9.914-9.914h.01a9.94,9.94,0,0,0-.18-1.847c-.026-.139-.052-.261-.075-.365-.037-.157-.065-.275-.084-.352l-.008,0,0-.013v0a2.6,2.6,0,0,0-5.017,1.357l-.007,0c.026.1.04.152.045.169.015.069.027.123.034.159a4.732,4.732,0,0,1,.079.89h.009a4.744,4.744,0,0,1-4.717,4.717v-.01h0v.01a4.744,4.744,0,0,1-4.717-4.717h0a4.745,4.745,0,0,1,4.717-4.718v.011h0a2.609,2.609,0,0,0,0-5.218Z" transform="translate(-38.584 -18.112)" stroke="rgba(0,0,0,0)" stroke-miterlimit="10" stroke-width="1" fill="url(#linear-gradient-6)"/>
    </clipPath>
    <clipPath id="clip-path-3">
      <path id="パス_11058" data-name="パス 11058" d="M47.943,9.06v.01a18.381,18.381,0,0,0-18.4,18.4h0a18.382,18.382,0,0,0,18.4,18.4v.01h0v-.01a18.379,18.379,0,0,0,18.4-18.4h.01a18.4,18.4,0,0,0-.33-3.438c-.046-.24-.093-.464-.14-.667-.059-.26-.112-.477-.159-.654l-.008,0,0-.013v0A2.6,2.6,0,0,0,60.7,24.055l-.007,0c.052.195.092.352.118.47q.059.257.1.464a13.258,13.258,0,0,1,.229,2.48h.01a13.231,13.231,0,0,1-13.2,13.2v-.01h0v.01a13.229,13.229,0,0,1-13.2-13.2h0a13.231,13.231,0,0,1,13.2-13.2v.01h0a2.609,2.609,0,0,0,0-5.217Z" transform="translate(-29.532 -9.06)" stroke="rgba(0,0,0,0)" stroke-miterlimit="10" stroke-width="1" fill="url(#linear-gradient-6)"/>
    </clipPath>
    <filter id="パス_33190" x="0" y="0" width="235" height="235" filterUnits="userSpaceOnUse">
      <feOffset dy="3" input="SourceAlpha"/>
      <feGaussianBlur stdDeviation="3" result="blur-4"/>
      <feFlood flood-opacity="0.161"/>
      <feComposite operator="in" in2="blur-4"/>
      <feComposite in="SourceGraphic"/>
    </filter>
    <linearGradient id="linear-gradient-18" x1="0.5" x2="0.5" y2="1" gradientUnits="objectBoundingBox">
      <stop offset="0" stop-color="gold"/>
      <stop offset="1" stop-color="#ff8e6f"/>
    </linearGradient>
    <clipPath id="clip-path-4">
      <rect id="長方形_1142" data-name="長方形 1142" width="148.056" height="20" fill="#211a18"/>
    </clipPath>
  </defs>
  <g id="グループ_6394" data-name="グループ 6394" transform="translate(-261 -955)">
    <g id="グループ_5762" data-name="グループ 5762" transform="translate(0 -24)">
      <path id="パス_33184" data-name="パス 33184" d="M0,0,225,45" transform="translate(378.5 1093.5)" fill="none" stroke="#ccc" stroke-width="4"/>
      <path id="パス_33185" data-name="パス 33185" d="M0,0,225,45" transform="translate(829 1093.5)" fill="none" stroke="#ccc" stroke-width="4"/>
      <path id="パス_33186" data-name="パス 33186" d="M225,0,0,45" transform="translate(599.5 1093.5)" fill="none" stroke="#ccc" stroke-width="4"/>
    </g>
    <g transform="matrix(1, 0, 0, 1, 261, 955)" filter="url(#パス_33187)">
      <path id="パス_33187-2" data-name="パス 33187" d="M108.5,0A108.5,108.5,0,1,1,0,108.5,108.5,108.5,0,0,1,108.5,0Z" transform="translate(234 46)" fill="#f5f5f5"/>
    </g>
    <g transform="matrix(1, 0, 0, 1, 261, 955)" filter="url(#パス_33188)">
      <path id="パス_33188-2" data-name="パス 33188" d="M108.5,0A108.5,108.5,0,1,1,0,108.5,108.5,108.5,0,0,1,108.5,0Z" transform="translate(459 6)" fill="#f5f5f5"/>
    </g>
    <g transform="matrix(1, 0, 0, 1, 261, 955)" filter="url(#パス_33189)">
      <path id="パス_33189-2" data-name="パス 33189" d="M108.5,0A108.5,108.5,0,1,1,0,108.5,108.5,108.5,0,0,1,108.5,0Z" transform="translate(692 46)" fill="#f5f5f5"/>
    </g>
    <g id="グループ_5746" data-name="グループ 5746" transform="translate(752.516 966.093)">
      <path id="パス_1787" data-name="パス 1787" d="M3.008-22.826H9.7a9.6,9.6,0,0,1,4.352.951A7.04,7.04,0,0,1,17-19.185a7.61,7.61,0,0,1,1.05,4.013A7.61,7.61,0,0,1,17-11.159a7.04,7.04,0,0,1-2.952,2.69A9.6,9.6,0,0,1,9.7-7.518H3.008Zm6.56,12.9a6.5,6.5,0,0,0,2.963-.645A4.615,4.615,0,0,0,14.5-12.405a5.429,5.429,0,0,0,.689-2.766,5.429,5.429,0,0,0-.689-2.766,4.615,4.615,0,0,0-1.968-1.837,6.5,6.5,0,0,0-2.963-.645H5.851v10.5Zm21.343-3.368q0,.284-.044.809H21.705a3.176,3.176,0,0,0,1.257,2.045,4.122,4.122,0,0,0,2.526.754,4.256,4.256,0,0,0,3.171-1.268l1.465,1.684a4.937,4.937,0,0,1-1.99,1.421,7.248,7.248,0,0,1-2.712.481,7.217,7.217,0,0,1-3.39-.765,5.512,5.512,0,0,1-2.263-2.132,6.021,6.021,0,0,1-.8-3.094,6.11,6.11,0,0,1,.776-3.072A5.507,5.507,0,0,1,21.9-18.561a6.285,6.285,0,0,1,3.105-.765,6.127,6.127,0,0,1,3.051.754,5.343,5.343,0,0,1,2.1,2.121A6.432,6.432,0,0,1,30.911-13.291Zm-5.9-3.849a3.3,3.3,0,0,0-2.22.776,3.265,3.265,0,0,0-1.1,2.067h6.626a3.222,3.222,0,0,0-1.072-2.056A3.259,3.259,0,0,0,25.007-17.14Zm7.654-6.6h2.733V-7.518H32.661Zm5.445,0H40.84V-7.518H38.106Zm9.906,4.417a5.694,5.694,0,0,1,3.947,1.236,4.776,4.776,0,0,1,1.367,3.728v6.845h-2.58V-8.939a3.18,3.18,0,0,1-1.432,1.17,5.6,5.6,0,0,1-2.241.4,5.492,5.492,0,0,1-2.3-.448,3.548,3.548,0,0,1-1.52-1.246,3.163,3.163,0,0,1-.536-1.8,3.092,3.092,0,0,1,1.17-2.526,5.81,5.81,0,0,1,3.685-.951h3.018v-.175A2.393,2.393,0,0,0,49.86-16.4a3.169,3.169,0,0,0-2.176-.656,6.281,6.281,0,0,0-1.935.306,4.754,4.754,0,0,0-1.607.853l-1.072-1.99a6.635,6.635,0,0,1,2.209-1.072A9.827,9.827,0,0,1,48.012-19.327ZM47.64-9.355a3.53,3.53,0,0,0,1.826-.47,2.558,2.558,0,0,0,1.126-1.345v-1.356H47.772q-2.362,0-2.362,1.553A1.394,1.394,0,0,0,46-9.792,2.707,2.707,0,0,0,47.64-9.355ZM75.435-7.518l-.022-10.147-5.03,8.4H69.115l-5.03-8.266V-7.518H61.374V-22.826h2.34l6.079,10.147,5.97-10.147H78.1l.022,15.308ZM85.581-19.327a5.694,5.694,0,0,1,3.947,1.236A4.776,4.776,0,0,1,90.9-14.363v6.845h-2.58V-8.939a3.18,3.18,0,0,1-1.432,1.17,5.6,5.6,0,0,1-2.241.4,5.492,5.492,0,0,1-2.3-.448,3.548,3.548,0,0,1-1.52-1.246,3.163,3.163,0,0,1-.536-1.8,3.092,3.092,0,0,1,1.17-2.526,5.81,5.81,0,0,1,3.685-.951h3.018v-.175a2.393,2.393,0,0,0-.733-1.881,3.169,3.169,0,0,0-2.176-.656,6.281,6.281,0,0,0-1.935.306,4.754,4.754,0,0,0-1.607.853l-1.072-1.99a6.635,6.635,0,0,1,2.209-1.072A9.827,9.827,0,0,1,85.581-19.327ZM85.21-9.355a3.529,3.529,0,0,0,1.826-.47,2.558,2.558,0,0,0,1.126-1.345v-1.356H85.341q-2.362,0-2.362,1.553a1.394,1.394,0,0,0,.59,1.181A2.707,2.707,0,0,0,85.21-9.355Zm8.31-14.389h2.733V-7.518H93.519Zm5.445,0H101.7V-7.518H98.964Z" transform="translate(23.834 51)" fill="#333"/>
    </g>
    <path id="合体_5" data-name="合体 5" d="M0,65.916V52.642H32.777V65.916Zm37.249,0V44.24H70V65.915Zm3.96-3.96h24.83V48.2H41.209ZM0,48.2V29.1H32.777V48.2Zm3.96-3.96H28.816V33.062H3.96Zm33.288-4.441V0H70V39.794Zm3.96-3.96h24.83V3.96H41.209ZM0,24.656V0H32.777V24.656Z" transform="translate(794 1032)" stroke="rgba(0,0,0,0)" stroke-miterlimit="10" stroke-width="1" fill="url(#linear-gradient)"/>
    <g id="グループ_5744" data-name="グループ 5744" transform="translate(524.582 1010.4)">
      <path id="パス_52" data-name="パス 52" d="M11.318-15.408a13.713,13.713,0,0,1-5.641,1.318H5.238V-30.5H2.88v16.83h8.045l.439-1.734Zm2.774-12.738,1.572-1.572L14.092-31.29,12.52-29.718ZM13.006-13.675h2.173V-26.2h-.092l-2.081.624Zm10.38.277A6.125,6.125,0,0,0,29.7-19.87c0-3.93-2.589-6.357-6.1-6.357a6.144,6.144,0,0,0-6.311,6.5C17.282-15.8,19.872-13.4,23.386-13.4Zm.139-.324c-2.289,0-3.884-2.45-3.884-6.149,0-3.653,1.5-6.034,3.814-6.034,2.289,0,3.884,2.474,3.884,6.172C27.339-16.1,25.836-13.721,23.524-13.721ZM38.389-26.228A6.151,6.151,0,0,0,33.9-24.216V-26.2h-.092l-2.1.624v11.906h2.2V-23.754A4.952,4.952,0,0,1,37.441-25.4c2.7,0,2.7,2.543,2.7,3.491v8.23h2.2v-8.184C42.342-24.84,40.955-26.228,38.389-26.228ZM56.352-14.114l-.509-1.664V-32.4H55.75l-2.1.694v6.75a4.981,4.981,0,0,0-3.4-1.271c-3.237,0-5.964,2.682-5.964,6.635,0,3.629,2.266,6.2,5.271,6.2a5.565,5.565,0,0,0,4.138-1.965l.6,1.9Zm-6.08-.046c-2.1,0-3.63-1.9-3.63-5.664,0-3.722,1.549-6.011,3.814-6.011a3.477,3.477,0,0,1,3.19,2.335v7.606A4.576,4.576,0,0,1,50.272-14.16ZM64-13.4a6.125,6.125,0,0,0,6.311-6.473c0-3.93-2.589-6.357-6.1-6.357a6.144,6.144,0,0,0-6.311,6.5C57.9-15.8,60.49-13.4,64-13.4Zm.139-.324c-2.289,0-3.884-2.45-3.884-6.149,0-3.653,1.5-6.034,3.814-6.034,2.289,0,3.884,2.474,3.884,6.172C67.957-16.1,66.454-13.721,64.142-13.721Zm14.1-12.461c-1.618,0-2.913,1.156-3.768,3.028V-26.2h-.092l-2.057.624v11.906h2.2v-8.808a3.356,3.356,0,0,1,2.89-2.127,3.329,3.329,0,0,1,1.271.277l.647-1.711A4.612,4.612,0,0,0,78.244-26.181Z" transform="translate(38.961 55)"/>
    </g>
    <g id="グループ_5745" data-name="グループ 5745" transform="translate(-49.802 88.511)">
      <g id="グループ_5669" data-name="グループ 5669" transform="translate(608.802 991.489)" clip-path="url(#clip-path)">
        <rect id="長方形_10085" data-name="長方形 10085" width="90.136" height="46.361" transform="translate(-0.136 0)" stroke="rgba(0,0,0,0)" stroke-miterlimit="10" stroke-width="1" fill="url(#linear-gradient-6)"/>
      </g>
      <g id="グループ_5671" data-name="グループ 5671" transform="translate(643.877 1007.771)" clip-path="url(#clip-path-2)">
        <rect id="長方形_10086" data-name="長方形 10086" width="19.851" height="19.852" transform="translate(0 0)" stroke="rgba(0,0,0,0)" stroke-miterlimit="10" stroke-width="1" fill="url(#linear-gradient-6)"/>
      </g>
      <g id="グループ_5673" data-name="グループ 5673" transform="translate(635.39 998.861)" clip-path="url(#clip-path-3)">
        <rect id="長方形_10087" data-name="長方形 10087" width="36.823" height="36.824" transform="translate(0 0)" stroke="rgba(0,0,0,0)" stroke-miterlimit="10" stroke-width="1" fill="url(#linear-gradient-6)"/>
      </g>
    </g>
    <path id="合体_6" data-name="合体 6" d="M0,85V27.329H57.672V85Zm6.774-6.773H50.9V34.1H6.774ZM42.279,23.741a3.387,3.387,0,0,1-1.9-4.4l3.253-8.208a3.386,3.386,0,1,1,6.3,2.495L46.676,21.84a3.384,3.384,0,0,1-4.4,1.9Zm-30.99-1.857-3.5-8.1A3.386,3.386,0,1,1,14,11.092l3.5,8.1a3.385,3.385,0,0,1-1.763,4.452h0a3.384,3.384,0,0,1-4.453-1.765Zm14.286-3.825V8.387a3.387,3.387,0,0,1,6.774,0v9.673a3.387,3.387,0,0,1-6.774,0Z" transform="translate(1033 1057)" stroke="rgba(0,0,0,0)" stroke-miterlimit="10" stroke-width="1" fill="url(#linear-gradient-9)"/>
    <g transform="matrix(1, 0, 0, 1, 261, 955)" filter="url(#パス_33190)">
      <path id="パス_33190-2" data-name="パス 33190" d="M108.5,0A108.5,108.5,0,1,1,0,108.5,108.5,108.5,0,0,1,108.5,0Z" transform="translate(9 6)" fill="#f5f5f5"/>
    </g>
    <g id="グループ_664" data-name="グループ 664" transform="translate(285.51 975.156)">
      <path id="パス_1836" data-name="パス 1836" d="M1.19-16.855a7.371,7.371,0,0,1,.937-3.719,6.694,6.694,0,0,1,2.56-2.56,7.265,7.265,0,0,1,3.639-.917,7.158,7.158,0,0,1,4.133,1.21,6.324,6.324,0,0,1,2.48,3.346H11.693a3.364,3.364,0,0,0-1.361-1.512,3.993,3.993,0,0,0-2.026-.5,4.168,4.168,0,0,0-2.187.575,3.921,3.921,0,0,0-1.492,1.623,5.35,5.35,0,0,0-.534,2.459,5.366,5.366,0,0,0,.534,2.449,3.907,3.907,0,0,0,1.492,1.633,4.168,4.168,0,0,0,2.187.575,3.932,3.932,0,0,0,2.026-.514,3.425,3.425,0,0,0,1.361-1.522h3.246a6.29,6.29,0,0,1-2.47,3.357,7.188,7.188,0,0,1-4.143,1.2A7.265,7.265,0,0,1,4.688-10.6a6.714,6.714,0,0,1-2.56-2.55A7.315,7.315,0,0,1,1.19-16.855ZM25.1-9.658a7.291,7.291,0,0,1-3.629-.927,6.923,6.923,0,0,1-2.621-2.57,7.19,7.19,0,0,1-.968-3.719,7.152,7.152,0,0,1,.968-3.7,6.923,6.923,0,0,1,2.621-2.57,7.291,7.291,0,0,1,3.629-.927,7.274,7.274,0,0,1,3.639.927,6.87,6.87,0,0,1,2.6,2.57,7.21,7.21,0,0,1,.958,3.7,7.249,7.249,0,0,1-.958,3.719,6.85,6.85,0,0,1-2.611,2.57A7.291,7.291,0,0,1,25.1-9.658Zm0-2.52a4.3,4.3,0,0,0,2.238-.575A3.939,3.939,0,0,0,28.849-14.4a5.391,5.391,0,0,0,.544-2.48,5.329,5.329,0,0,0-.544-2.47,3.885,3.885,0,0,0-1.512-1.623,4.359,4.359,0,0,0-2.238-.564,4.414,4.414,0,0,0-2.248.564,3.865,3.865,0,0,0-1.522,1.623,5.329,5.329,0,0,0-.544,2.47,5.391,5.391,0,0,0,.544,2.48,3.918,3.918,0,0,0,1.522,1.643A4.353,4.353,0,0,0,25.1-12.178ZM42.859-9.8l-3.1-5.483H38.424V-9.8H35.6V-23.87h5.282a6.167,6.167,0,0,1,2.782.575,4.014,4.014,0,0,1,1.724,1.552,4.236,4.236,0,0,1,.575,2.187,4.19,4.19,0,0,1-.806,2.51,4.143,4.143,0,0,1-2.4,1.542L46.125-9.8Zm-4.435-7.6h2.359a2.357,2.357,0,0,0,1.714-.554,2.063,2.063,0,0,0,.564-1.542A1.968,1.968,0,0,0,42.5-21a2.413,2.413,0,0,0-1.714-.534H38.424ZM58.362-12.48h-5.6L51.83-9.8H48.867l5.06-14.091h3.286L62.273-9.8H59.289ZM57.6-14.738,55.56-20.625l-2.036,5.887Zm18.043-4.778A4.382,4.382,0,0,1,75.1-17.4a3.924,3.924,0,0,1-1.673,1.593,6.086,6.086,0,0,1-2.873.6H68.2v5.4H65.377V-23.87h5.181a6.261,6.261,0,0,1,2.782.564,3.932,3.932,0,0,1,1.724,1.552A4.368,4.368,0,0,1,75.638-19.516Zm-5.2,2.036a2.446,2.446,0,0,0,1.734-.534,1.968,1.968,0,0,0,.564-1.5q0-2.056-2.3-2.056H68.2v4.092Zm11.188-6.39v8.709a2.986,2.986,0,0,0,.746,2.187,2.813,2.813,0,0,0,2.1.756,2.841,2.841,0,0,0,2.117-.756,2.986,2.986,0,0,0,.746-2.187V-23.87h2.842v8.689a5.609,5.609,0,0,1-.776,3.034,4.922,4.922,0,0,1-2.076,1.865,6.591,6.591,0,0,1-2.893.625,6.415,6.415,0,0,1-2.853-.625,4.758,4.758,0,0,1-2.026-1.865,5.786,5.786,0,0,1-.746-3.034V-23.87ZM101.362-9.8l-3.1-5.483H96.926V-9.8H94.1V-23.87h5.282a6.167,6.167,0,0,1,2.782.575,4.014,4.014,0,0,1,1.724,1.552,4.236,4.236,0,0,1,.575,2.187,4.19,4.19,0,0,1-.806,2.51,4.142,4.142,0,0,1-2.4,1.542L104.627-9.8Zm-4.435-7.6h2.359A2.357,2.357,0,0,0,101-17.954a2.063,2.063,0,0,0,.564-1.542A1.968,1.968,0,0,0,101-21a2.413,2.413,0,0,0-1.714-.534H96.926Zm19.938,4.919h-5.6L110.332-9.8h-2.963l5.06-14.091h3.286L120.775-9.8h-2.984Zm-.766-2.258-2.036-5.887-2.036,5.887Z" transform="translate(32.715 48)" fill="#333"/>
    </g>
    <path id="パス_33191" data-name="パス 33191" d="M-40.689-5.022a5.62,5.62,0,0,1,.639-2.736,4.438,4.438,0,0,1,1.782-1.8,5.336,5.336,0,0,1,2.619-.63,4.98,4.98,0,0,1,3.159.99,4.671,4.671,0,0,1,1.665,2.79H-34.1A1.577,1.577,0,0,0-35.7-7.56a1.615,1.615,0,0,0-1.35.657,3.039,3.039,0,0,0-.5,1.881,3.039,3.039,0,0,0,.5,1.881,1.615,1.615,0,0,0,1.35.657,1.577,1.577,0,0,0,1.6-1.152h3.276A4.715,4.715,0,0,1-32.5-.864,4.929,4.929,0,0,1-35.649.144a5.336,5.336,0,0,1-2.619-.63,4.438,4.438,0,0,1-1.782-1.8A5.62,5.62,0,0,1-40.689-5.022ZM-23.535.144a5.544,5.544,0,0,1-2.655-.63,4.613,4.613,0,0,1-1.854-1.8,5.379,5.379,0,0,1-.675-2.736,5.335,5.335,0,0,1,.684-2.727,4.641,4.641,0,0,1,1.872-1.809,5.6,5.6,0,0,1,2.664-.63,5.6,5.6,0,0,1,2.664.63,4.641,4.641,0,0,1,1.872,1.809,5.335,5.335,0,0,1,.684,2.727A5.281,5.281,0,0,1-18.972-2.3a4.686,4.686,0,0,1-1.89,1.809A5.65,5.65,0,0,1-23.535.144Zm0-2.664a2.005,2.005,0,0,0,1.5-.648,2.574,2.574,0,0,0,.621-1.854,2.622,2.622,0,0,0-.6-1.854A1.949,1.949,0,0,0-23.5-7.524a1.953,1.953,0,0,0-1.494.639,2.642,2.642,0,0,0-.594,1.863A2.674,2.674,0,0,0-25-3.168,1.893,1.893,0,0,0-23.535-2.52Zm14.094-7.632A3.645,3.645,0,0,1-6.624-9.009,4.458,4.458,0,0,1-5.571-5.868V0h-3.06V-5.454A2.2,2.2,0,0,0-9.153-7.02a1.83,1.83,0,0,0-1.4-.558,1.83,1.83,0,0,0-1.4.558,2.2,2.2,0,0,0-.522,1.566V0h-3.078V-10.044h3.078v1.332a3.247,3.247,0,0,1,1.26-1.053A4.006,4.006,0,0,1-9.441-10.152Zm13.212,0A3.645,3.645,0,0,1,6.588-9.009,4.458,4.458,0,0,1,7.641-5.868V0H4.581V-5.454A2.2,2.2,0,0,0,4.059-7.02a1.83,1.83,0,0,0-1.4-.558,1.83,1.83,0,0,0-1.4.558A2.2,2.2,0,0,0,.729-5.454V0H-2.349V-10.044H.729v1.332a3.247,3.247,0,0,1,1.26-1.053A4.006,4.006,0,0,1,3.771-10.152Zm16.56,4.968a7.858,7.858,0,0,1-.054.9H13.311a2.093,2.093,0,0,0,.6,1.431,1.842,1.842,0,0,0,1.305.495,1.618,1.618,0,0,0,1.6-.972H20.1a4.5,4.5,0,0,1-.909,1.782A4.551,4.551,0,0,1,17.541-.306a5.29,5.29,0,0,1-2.214.45A5.387,5.387,0,0,1,12.7-.486a4.481,4.481,0,0,1-1.8-1.8,5.557,5.557,0,0,1-.648-2.736,5.62,5.62,0,0,1,.639-2.736,4.423,4.423,0,0,1,1.791-1.8,5.425,5.425,0,0,1,2.646-.63,5.371,5.371,0,0,1,2.592.612A4.394,4.394,0,0,1,19.692-7.83,5.3,5.3,0,0,1,20.331-5.184Zm-3.15-.81a1.583,1.583,0,0,0-.54-1.26,1.988,1.988,0,0,0-1.35-.468,1.95,1.95,0,0,0-1.305.45,2,2,0,0,0-.657,1.278Zm5.238.972a5.62,5.62,0,0,1,.639-2.736,4.438,4.438,0,0,1,1.782-1.8,5.336,5.336,0,0,1,2.619-.63,4.98,4.98,0,0,1,3.159.99,4.671,4.671,0,0,1,1.665,2.79H29.007A1.577,1.577,0,0,0,27.4-7.56a1.615,1.615,0,0,0-1.35.657,3.039,3.039,0,0,0-.5,1.881,3.039,3.039,0,0,0,.5,1.881,1.615,1.615,0,0,0,1.35.657,1.577,1.577,0,0,0,1.6-1.152h3.276A4.715,4.715,0,0,1,30.609-.864,4.929,4.929,0,0,1,27.459.144a5.336,5.336,0,0,1-2.619-.63,4.438,4.438,0,0,1-1.782-1.8A5.62,5.62,0,0,1,22.419-5.022ZM40.6-2.61V0H39.033a3.833,3.833,0,0,1-2.61-.819,3.385,3.385,0,0,1-.936-2.673v-4H34.263v-2.556h1.224v-2.448h3.078v2.448h2.016v2.556H38.565v4.032a.844.844,0,0,0,.216.648,1.054,1.054,0,0,0,.72.2Z" transform="translate(379 1133)" fill="#333"/>
    <path id="パス_33192" data-name="パス 33192" d="M-19.521,0l-3.06-4.212V0h-3.078V-13.32h3.078v7.362l3.042-4.086h3.8L-19.917-5-15.7,0ZM-7.335-10.152A3.645,3.645,0,0,1-4.518-9.009,4.458,4.458,0,0,1-3.465-5.868V0h-3.06V-5.454A2.2,2.2,0,0,0-7.047-7.02a1.83,1.83,0,0,0-1.4-.558,1.83,1.83,0,0,0-1.4.558,2.2,2.2,0,0,0-.522,1.566V0h-3.078V-10.044h3.078v1.332a3.247,3.247,0,0,1,1.26-1.053A4.006,4.006,0,0,1-7.335-10.152ZM4.329.144a5.544,5.544,0,0,1-2.655-.63A4.613,4.613,0,0,1-.18-2.286,5.379,5.379,0,0,1-.855-5.022,5.335,5.335,0,0,1-.171-7.749,4.641,4.641,0,0,1,1.7-9.558a5.6,5.6,0,0,1,2.664-.63,5.6,5.6,0,0,1,2.664.63A4.641,4.641,0,0,1,8.9-7.749a5.335,5.335,0,0,1,.684,2.727A5.281,5.281,0,0,1,8.892-2.3,4.686,4.686,0,0,1,7-.486,5.65,5.65,0,0,1,4.329.144Zm0-2.664a2.005,2.005,0,0,0,1.5-.648,2.574,2.574,0,0,0,.621-1.854,2.622,2.622,0,0,0-.6-1.854,1.949,1.949,0,0,0-1.485-.648,1.953,1.953,0,0,0-1.494.639,2.642,2.642,0,0,0-.594,1.863,2.674,2.674,0,0,0,.585,1.854A1.893,1.893,0,0,0,4.329-2.52Zm22.392-7.524L24,0H20.6L19.017-6.516,17.379,0H14L11.259-10.044h3.078l1.422,7.182,1.692-7.182h3.258L22.419-2.9l1.4-7.146Z" transform="translate(604 1173)" fill="#333"/>
    <path id="パス_33193" data-name="パス 33193" d="M-29.538.144a5.773,5.773,0,0,1-2.34-.45A4,4,0,0,1-33.5-1.539a3.243,3.243,0,0,1-.666-1.755h3.042a1.169,1.169,0,0,0,.486.846,1.72,1.72,0,0,0,1.062.324,1.516,1.516,0,0,0,.891-.225.689.689,0,0,0,.315-.585.675.675,0,0,0-.45-.639,9.091,9.091,0,0,0-1.458-.459,13.688,13.688,0,0,1-1.8-.531,3.11,3.11,0,0,1-1.242-.882,2.4,2.4,0,0,1-.522-1.629,2.766,2.766,0,0,1,.477-1.575,3.212,3.212,0,0,1,1.4-1.125,5.376,5.376,0,0,1,2.2-.414,4.42,4.42,0,0,1,2.979.936,3.642,3.642,0,0,1,1.251,2.484h-2.844a1.226,1.226,0,0,0-.459-.828A1.592,1.592,0,0,0-29.844-7.9a1.406,1.406,0,0,0-.828.207.661.661,0,0,0-.288.567.692.692,0,0,0,.459.648,7.352,7.352,0,0,0,1.431.432,15.655,15.655,0,0,1,1.818.567,3.136,3.136,0,0,1,1.233.9,2.547,2.547,0,0,1,.549,1.665,2.643,2.643,0,0,1-.495,1.575A3.274,3.274,0,0,1-27.387-.252,5.438,5.438,0,0,1-29.538.144Zm16.506-5.328a7.858,7.858,0,0,1-.054.9h-6.966a2.093,2.093,0,0,0,.6,1.431,1.842,1.842,0,0,0,1.305.495,1.618,1.618,0,0,0,1.6-.972h3.276a4.5,4.5,0,0,1-.909,1.782A4.551,4.551,0,0,1-15.822-.306a5.29,5.29,0,0,1-2.214.45,5.387,5.387,0,0,1-2.628-.63,4.481,4.481,0,0,1-1.8-1.8,5.557,5.557,0,0,1-.648-2.736,5.62,5.62,0,0,1,.639-2.736,4.423,4.423,0,0,1,1.791-1.8,5.425,5.425,0,0,1,2.646-.63,5.371,5.371,0,0,1,2.592.612A4.394,4.394,0,0,1-13.671-7.83,5.3,5.3,0,0,1-13.032-5.184Zm-3.15-.81a1.583,1.583,0,0,0-.54-1.26,1.988,1.988,0,0,0-1.35-.468,1.95,1.95,0,0,0-1.305.45,2,2,0,0,0-.657,1.278Zm5.238.954a6,6,0,0,1,.585-2.718,4.364,4.364,0,0,1,1.593-1.8,4.159,4.159,0,0,1,2.25-.63,3.865,3.865,0,0,1,1.863.432A3.182,3.182,0,0,1-3.42-8.622v-1.422H-.342V0H-3.42V-1.422A3.324,3.324,0,0,1-4.671-.288,3.865,3.865,0,0,1-6.534.144,4.084,4.084,0,0,1-8.766-.5a4.416,4.416,0,0,1-1.593-1.818A6.06,6.06,0,0,1-10.944-5.04Zm7.524.018A2.517,2.517,0,0,0-4.059-6.84a2.076,2.076,0,0,0-1.557-.666,2.09,2.09,0,0,0-1.557.657A2.485,2.485,0,0,0-7.812-5.04a2.549,2.549,0,0,0,.639,1.827,2.063,2.063,0,0,0,1.557.675A2.076,2.076,0,0,0-4.059-3.2,2.517,2.517,0,0,0-3.42-5.022ZM6.048-8.37a4.06,4.06,0,0,1,1.35-1.3,3.481,3.481,0,0,1,1.8-.477v3.258H8.352A2.593,2.593,0,0,0,6.624-6.4a2.2,2.2,0,0,0-.576,1.737V0H2.97V-10.044H6.048Zm5.094,3.348a5.62,5.62,0,0,1,.639-2.736,4.438,4.438,0,0,1,1.782-1.8,5.336,5.336,0,0,1,2.619-.63,4.98,4.98,0,0,1,3.159.99,4.671,4.671,0,0,1,1.665,2.79H17.73a1.577,1.577,0,0,0-1.6-1.152,1.615,1.615,0,0,0-1.35.657,3.039,3.039,0,0,0-.5,1.881,3.039,3.039,0,0,0,.5,1.881,1.615,1.615,0,0,0,1.35.657,1.577,1.577,0,0,0,1.6-1.152h3.276A4.715,4.715,0,0,1,19.332-.864,4.929,4.929,0,0,1,16.182.144a5.336,5.336,0,0,1-2.619-.63,4.438,4.438,0,0,1-1.782-1.8A5.62,5.62,0,0,1,11.142-5.022ZM29.9-10.152A3.573,3.573,0,0,1,32.67-9.009a4.482,4.482,0,0,1,1.044,3.141V0h-3.06V-5.454a2.2,2.2,0,0,0-.522-1.566,1.83,1.83,0,0,0-1.4-.558,1.83,1.83,0,0,0-1.4.558A2.2,2.2,0,0,0,26.8-5.454V0H23.724V-13.32H26.8v4.626A3.29,3.29,0,0,1,28.08-9.756,4.085,4.085,0,0,1,29.9-10.152Z" transform="translate(829 1133)" fill="#333"/>
    <path id="パス_33194" data-name="パス 33194" d="M-42.453.144a5.773,5.773,0,0,1-2.34-.45,4,4,0,0,1-1.62-1.233,3.243,3.243,0,0,1-.666-1.755h3.042a1.169,1.169,0,0,0,.486.846,1.72,1.72,0,0,0,1.062.324,1.516,1.516,0,0,0,.891-.225.689.689,0,0,0,.315-.585.675.675,0,0,0-.45-.639,9.091,9.091,0,0,0-1.458-.459,13.688,13.688,0,0,1-1.8-.531,3.11,3.11,0,0,1-1.242-.882,2.4,2.4,0,0,1-.522-1.629,2.766,2.766,0,0,1,.477-1.575,3.212,3.212,0,0,1,1.4-1.125,5.376,5.376,0,0,1,2.2-.414,4.42,4.42,0,0,1,2.979.936,3.642,3.642,0,0,1,1.251,2.484h-2.844a1.226,1.226,0,0,0-.459-.828A1.592,1.592,0,0,0-42.759-7.9a1.406,1.406,0,0,0-.828.207.661.661,0,0,0-.288.567.692.692,0,0,0,.459.648,7.351,7.351,0,0,0,1.431.432,15.655,15.655,0,0,1,1.818.567,3.136,3.136,0,0,1,1.233.9,2.547,2.547,0,0,1,.549,1.665,2.643,2.643,0,0,1-.495,1.575A3.274,3.274,0,0,1-40.3-.252,5.438,5.438,0,0,1-42.453.144Zm13.212-10.3a3.573,3.573,0,0,1,2.772,1.143,4.482,4.482,0,0,1,1.044,3.141V0h-3.06V-5.454a2.2,2.2,0,0,0-.522-1.566,1.83,1.83,0,0,0-1.4-.558,1.83,1.83,0,0,0-1.4.558,2.2,2.2,0,0,0-.522,1.566V0h-3.078V-13.32h3.078v4.626a3.29,3.29,0,0,1,1.278-1.062A4.085,4.085,0,0,1-29.241-10.152Zm11.61,10.3a5.544,5.544,0,0,1-2.655-.63,4.613,4.613,0,0,1-1.854-1.8,5.379,5.379,0,0,1-.675-2.736,5.335,5.335,0,0,1,.684-2.727,4.641,4.641,0,0,1,1.872-1.809,5.6,5.6,0,0,1,2.664-.63,5.6,5.6,0,0,1,2.664.63,4.641,4.641,0,0,1,1.872,1.809,5.335,5.335,0,0,1,.684,2.727A5.281,5.281,0,0,1-13.068-2.3a4.686,4.686,0,0,1-1.89,1.809A5.65,5.65,0,0,1-17.631.144Zm0-2.664a2.005,2.005,0,0,0,1.5-.648,2.574,2.574,0,0,0,.621-1.854,2.622,2.622,0,0,0-.6-1.854,1.949,1.949,0,0,0-1.485-.648,1.953,1.953,0,0,0-1.494.639,2.642,2.642,0,0,0-.594,1.863A2.674,2.674,0,0,0-19.1-3.168,1.893,1.893,0,0,0-17.631-2.52Zm11.052-6.1A3.341,3.341,0,0,1-5.337-9.756a3.813,3.813,0,0,1,1.854-.432,4.159,4.159,0,0,1,2.25.63A4.364,4.364,0,0,1,.36-7.758,6,6,0,0,1,.945-5.04,6.06,6.06,0,0,1,.36-2.313,4.416,4.416,0,0,1-1.233-.5a4.115,4.115,0,0,1-2.25.639A3.826,3.826,0,0,1-5.328-.288,3.382,3.382,0,0,1-6.579-1.4V4.788H-9.657V-10.044h3.078ZM-2.187-5.04a2.485,2.485,0,0,0-.639-1.809A2.11,2.11,0,0,0-4.4-7.506a2.076,2.076,0,0,0-1.557.666A2.517,2.517,0,0,0-6.6-5.022,2.517,2.517,0,0,0-5.958-3.2,2.076,2.076,0,0,0-4.4-2.538a2.091,2.091,0,0,0,1.566-.675A2.528,2.528,0,0,0-2.187-5.04Zm8.91-3.582A3.341,3.341,0,0,1,7.965-9.756a3.813,3.813,0,0,1,1.854-.432,4.159,4.159,0,0,1,2.25.63,4.364,4.364,0,0,1,1.593,1.8,6,6,0,0,1,.585,2.718,6.06,6.06,0,0,1-.585,2.727A4.416,4.416,0,0,1,12.069-.5a4.115,4.115,0,0,1-2.25.639A3.826,3.826,0,0,1,7.974-.288,3.382,3.382,0,0,1,6.723-1.4V4.788H3.645V-10.044H6.723ZM11.115-5.04a2.485,2.485,0,0,0-.639-1.809A2.11,2.11,0,0,0,8.9-7.506a2.076,2.076,0,0,0-1.557.666A2.517,2.517,0,0,0,6.7-5.022,2.517,2.517,0,0,0,7.344-3.2,2.076,2.076,0,0,0,8.9-2.538a2.091,2.091,0,0,0,1.566-.675A2.528,2.528,0,0,0,11.115-5.04Zm7.38-6.048a1.866,1.866,0,0,1-1.323-.477,1.546,1.546,0,0,1-.513-1.179,1.566,1.566,0,0,1,.513-1.2,1.866,1.866,0,0,1,1.323-.477,1.841,1.841,0,0,1,1.305.477,1.566,1.566,0,0,1,.513,1.2,1.546,1.546,0,0,1-.513,1.179A1.841,1.841,0,0,1,18.495-11.088Zm1.53,1.044V0H16.947V-10.044Zm9.432-.108a3.645,3.645,0,0,1,2.817,1.143,4.458,4.458,0,0,1,1.053,3.141V0h-3.06V-5.454a2.2,2.2,0,0,0-.522-1.566,1.83,1.83,0,0,0-1.4-.558,1.83,1.83,0,0,0-1.4.558,2.2,2.2,0,0,0-.522,1.566V0H23.337V-10.044h3.078v1.332a3.247,3.247,0,0,1,1.26-1.053A4.006,4.006,0,0,1,29.457-10.152Zm10.908-.036a3.865,3.865,0,0,1,1.863.432,3.182,3.182,0,0,1,1.233,1.134v-1.422h3.078V-.018a5.649,5.649,0,0,1-.549,2.511,4.184,4.184,0,0,1-1.674,1.791,5.415,5.415,0,0,1-2.8.666A5.822,5.822,0,0,1,37.9,3.9a3.974,3.974,0,0,1-1.584-2.853h3.042a1.456,1.456,0,0,0,.684.909,2.493,2.493,0,0,0,1.332.333,2.094,2.094,0,0,0,1.521-.549,2.355,2.355,0,0,0,.567-1.755V-1.44A3.414,3.414,0,0,1,42.219-.3a3.75,3.75,0,0,1-1.854.441A4.115,4.115,0,0,1,38.115-.5a4.416,4.416,0,0,1-1.593-1.818,6.06,6.06,0,0,1-.585-2.727,6,6,0,0,1,.585-2.718,4.364,4.364,0,0,1,1.593-1.8A4.159,4.159,0,0,1,40.365-10.188Zm3.1,5.166a2.517,2.517,0,0,0-.639-1.818,2.076,2.076,0,0,0-1.557-.666,2.09,2.09,0,0,0-1.557.657,2.485,2.485,0,0,0-.639,1.809,2.549,2.549,0,0,0,.639,1.827,2.063,2.063,0,0,0,1.557.675A2.076,2.076,0,0,0,42.822-3.2,2.517,2.517,0,0,0,43.461-5.022Z" transform="translate(1062 1173)" fill="#333"/>
    <path id="パス_33195" data-name="パス 33195" d="M-20.36-5.48l.57,1.4a15.675,15.675,0,0,1,4.88-1.45,1.648,1.648,0,0,1,1.85,1.66c0,1.74-2.12,2.52-4.83,2.59l.58,1.33c3.52-.18,5.68-1.63,5.68-3.9,0-1.85-1.42-2.89-3.23-2.89a16.449,16.449,0,0,0-4.27.96C-19.49-5.68-19.99-5.54-20.36-5.48ZM-5.58-8.05l-1.38-.14a8.409,8.409,0,0,1-.27,1.67c-.31.03-.61.04-.91.04a12.633,12.633,0,0,1-1.33-.07l.09,1.16c.43.03.84.04,1.25.04.17,0,.34,0,.52-.01A15.755,15.755,0,0,1-9.65-1.83l1.21.62A18.426,18.426,0,0,0-6.3-5.49a17.348,17.348,0,0,0,1.75-.35L-4.59-7a12.259,12.259,0,0,1-1.35.32C-5.79-7.22-5.66-7.73-5.58-8.05ZM-6.1-1.13c0-.35.37-.61.95-.61a3.592,3.592,0,0,1,.81.1v.2c0,.55-.21.93-.9.93C-5.79-.51-6.1-.76-6.1-1.13Zm2.86-3.81H-4.49c.02.61.07,1.5.11,2.24-.23-.02-.45-.04-.69-.04-1.39,0-2.21.75-2.21,1.73C-7.28.09-6.3.64-5.06.64c1.42,0,1.93-.72,1.93-1.65v-.1A8.478,8.478,0,0,1-1.78-.04l.67-1.07A6.539,6.539,0,0,0-3.18-2.39c-.02-.5-.05-.98-.06-1.27C-3.25-4.1-3.27-4.52-3.24-4.94Zm1.72.53.71-1.05A17.226,17.226,0,0,0-3.28-6.82l-.64.99A14.433,14.433,0,0,1-1.52-4.41ZM4.85-7.83,3.36-7.98a10.177,10.177,0,0,1-.21,2.11c-.51.05-.98.08-1.29.09a9.548,9.548,0,0,1-1.07,0L.91-4.42c.31-.05.83-.12,1.12-.17.18-.02.5-.06.86-.1A15.3,15.3,0,0,1,.86.01l1.3.52A21.075,21.075,0,0,0,4.2-4.83c.29-.02.54-.04.7-.04.62,0,.97.11.97.91a7.936,7.936,0,0,1-.41,2.77.733.733,0,0,1-.75.43A5.778,5.778,0,0,1,3.49-.97L3.7.35A6.572,6.572,0,0,0,4.9.49,1.59,1.59,0,0,0,6.54-.43,9.8,9.8,0,0,0,7.11-4.1c0-1.44-.75-1.91-1.81-1.91-.21,0-.5.02-.84.04.07-.36.15-.73.21-1.03C4.72-7.25,4.79-7.57,4.85-7.83ZM9.3-8.66l-.8.32a11.31,11.31,0,0,1,.81,1.38l.79-.34A13.3,13.3,0,0,0,9.3-8.66Zm-1.19.45-.79.33A11.056,11.056,0,0,1,8-6.7l-.9.39A11.246,11.246,0,0,1,8.78-2.56l1.27-.58A18.146,18.146,0,0,0,8.42-6.63l.49-.21C8.72-7.21,8.36-7.84,8.11-8.21ZM14.8-1.18c0-.25.24-.48.62-.48.54,0,.91.42.97,1.07a5.221,5.221,0,0,1-.58.03C15.21-.56,14.8-.81,14.8-1.18ZM13.1-7.62l.04,1.3c.23-.03.55-.06.82-.08.53-.03,1.91-.09,2.42-.1-.49.43-1.53,1.27-2.09,1.73-.59.49-1.8,1.51-2.51,2.08l.91.94c1.07-1.22,2.07-2.03,3.6-2.03,1.18,0,2.08.61,2.08,1.51a1.449,1.449,0,0,1-.83,1.36,2,2,0,0,0-2.13-1.71,1.676,1.676,0,0,0-1.79,1.56c0,1,1.05,1.64,2.44,1.64,2.42,0,3.62-1.25,3.62-2.83a2.711,2.711,0,0,0-2.99-2.52,3.906,3.906,0,0,0-.95.11c.63-.5,1.68-1.38,2.22-1.76.23-.17.47-.31.7-.46l-.65-.89a4.369,4.369,0,0,1-.76.11c-.57.05-2.71.09-3.24.09A6.94,6.94,0,0,1,13.1-7.62Z" transform="translate(379 1151)" fill="#888"/>
    <path id="パス_33196" data-name="パス 33196" d="M-6.59-7.93-8.2-7.95A6.378,6.378,0,0,1-8.07-6.6c0,.86-.1,3.49-.1,4.83C-8.17-.06-7.11.66-5.47.66a5.177,5.177,0,0,0,4.34-2.3l-.91-1.1A4,4,0,0,1-5.46-.7,1.209,1.209,0,0,1-6.84-2.04c0-1.24.08-3.48.12-4.56C-6.7-7-6.65-7.51-6.59-7.93ZM4.2-1.18c0-.25.24-.48.62-.48.54,0,.91.42.97,1.07a5.221,5.221,0,0,1-.58.03C4.61-.56,4.2-.81,4.2-1.18ZM2.5-7.62l.04,1.3c.23-.03.55-.06.82-.08.53-.03,1.91-.09,2.42-.1-.49.43-1.53,1.27-2.09,1.73-.59.49-1.8,1.51-2.51,2.08l.91.94c1.07-1.22,2.07-2.03,3.6-2.03,1.18,0,2.08.61,2.08,1.51A1.449,1.449,0,0,1,6.94-.91,2,2,0,0,0,4.81-2.62,1.676,1.676,0,0,0,3.02-1.06c0,1,1.05,1.64,2.44,1.64C7.88.58,9.08-.67,9.08-2.25A2.711,2.711,0,0,0,6.09-4.77a3.906,3.906,0,0,0-.95.11c.63-.5,1.68-1.38,2.22-1.76.23-.17.47-.31.7-.46l-.65-.89a4.369,4.369,0,0,1-.76.11c-.57.05-2.71.09-3.24.09A6.939,6.939,0,0,1,2.5-7.62Z" transform="translate(604 1191)" fill="#888"/>
    <path id="パス_33197" data-name="パス 33197" d="M-10.53-7.1c.06.17.12.38.2.61a20.934,20.934,0,0,1-3.84-.14l.02,1.28a26.816,26.816,0,0,0,4.27.04A13.14,13.14,0,0,0-8.94-3.5c-.31-.02-.97-.08-1.46-.12l-.1,1.06c.84.07,2.1.2,2.66.31l.62-.9a6.305,6.305,0,0,1-.54-.67,10.953,10.953,0,0,1-.89-1.63,13.3,13.3,0,0,0,1.78-.36l-.16-1.26a15.059,15.059,0,0,1-2.05.46A11.694,11.694,0,0,1-9.5-8.18l-1.35.16C-10.72-7.69-10.61-7.33-10.53-7.1Zm-1.64,3.88-1.25-.29a4.093,4.093,0,0,0-.53,1.86c0,1.44,1.29,2.23,3.33,2.24A14.108,14.108,0,0,0-7.93.35l.07-1.26a13.811,13.811,0,0,1-2.68.24c-1.37,0-2.12-.36-2.12-1.2A2.409,2.409,0,0,1-12.17-3.22ZM-.45-7.83l-1.49-.15a10.177,10.177,0,0,1-.21,2.11c-.51.05-.98.08-1.29.09a9.548,9.548,0,0,1-1.07,0l.12,1.36c.31-.05.83-.12,1.12-.17.18-.02.5-.06.86-.1A15.3,15.3,0,0,1-4.44.01l1.3.52A21.075,21.075,0,0,0-1.1-4.83c.29-.02.54-.04.7-.04.62,0,.97.11.97.91A7.936,7.936,0,0,1,.16-1.19a.733.733,0,0,1-.75.43A5.778,5.778,0,0,1-1.81-.97L-1.6.35A6.572,6.572,0,0,0-.4.49,1.59,1.59,0,0,0,1.24-.43,9.8,9.8,0,0,0,1.81-4.1c0-1.44-.75-1.91-1.81-1.91-.21,0-.5.02-.84.04.07-.36.15-.73.21-1.03C-.58-7.25-.51-7.57-.45-7.83ZM4-8.66l-.8.32a11.31,11.31,0,0,1,.81,1.38L4.8-7.3A13.3,13.3,0,0,0,4-8.66Zm-1.19.45-.79.33A11.056,11.056,0,0,1,2.7-6.7l-.9.39A11.246,11.246,0,0,1,3.48-2.56l1.27-.58A18.146,18.146,0,0,0,3.12-6.63l.49-.21C3.42-7.21,3.06-7.84,2.81-8.21Zm9.32.15H10.68a7.256,7.256,0,0,1,.1.87c.01.08.01.18.02.31-1.36.02-3.18.06-4.32.06l.03,1.21c1.23-.07,2.79-.13,4.3-.15.01.22.01.45.01.67a2.6,2.6,0,0,0-.4-.03,1.886,1.886,0,0,0-2,1.87,1.764,1.764,0,0,0,1.72,1.84,2.138,2.138,0,0,0,.45-.05A4.494,4.494,0,0,1,8.15-.32L9.22.74c2.44-.68,3.2-2.34,3.2-3.64a2.545,2.545,0,0,0-.36-1.37c0-.44-.01-.99-.01-1.5,1.36,0,2.29.02,2.89.05l.01-1.18c-.52-.01-1.89.01-2.9.01.01-.12.01-.23.01-.31C12.07-7.36,12.11-7.9,12.13-8.06ZM9.62-3.27a.753.753,0,0,1,.77-.8.737.737,0,0,1,.65.35c.14.88-.23,1.2-.65,1.2A.747.747,0,0,1,9.62-3.27Z" transform="translate(829 1151)" fill="#888"/>
    <path id="パス_33198" data-name="パス 33198" d="M-5.68-7.9l-1.49-.15a11.084,11.084,0,0,1-.21,2.12c-.51.04-.98.07-1.29.08a9.548,9.548,0,0,1-1.07,0l.12,1.36c.3-.05.83-.12,1.11-.17.19-.02.5-.06.86-.1A15.033,15.033,0,0,1-9.67-.06l1.3.52A21.075,21.075,0,0,0-6.33-4.9c.28-.02.53-.04.69-.04.63,0,.97.11.97.91a7.96,7.96,0,0,1-.4,2.77.741.741,0,0,1-.75.43,5.859,5.859,0,0,1-1.23-.21L-6.83.28a6.469,6.469,0,0,0,1.2.14A1.6,1.6,0,0,0-3.99-.5a9.8,9.8,0,0,0,.57-3.67c0-1.44-.75-1.91-1.81-1.91-.21,0-.51.02-.84.04.07-.36.14-.73.21-1.03C-5.81-7.32-5.74-7.64-5.68-7.9Zm3.44.94-1.19.51a11.5,11.5,0,0,1,1.68,3.8l1.27-.59A17.284,17.284,0,0,0-2.24-6.96ZM7.15-3.27c0,1.56-1.6,2.38-4.08,2.66L3.79.63C6.57.25,8.55-1.08,8.55-3.22A2.415,2.415,0,0,0,5.86-5.69a13.186,13.186,0,0,0-3.02.46,10.066,10.066,0,0,1-1.1.17l.38,1.43c.29-.11.68-.27.97-.35a8.919,8.919,0,0,1,2.6-.49C6.63-4.47,7.15-3.93,7.15-3.27ZM3.22-8.07l-.2,1.2c1.15.2,3.32.4,4.49.48l.2-1.23A29.692,29.692,0,0,1,3.22-8.07Z" transform="translate(1062 1191)" fill="#888"/>
    <path id="合体_1" data-name="合体 1" d="M50.357,59.413A12.587,12.587,0,1,1,62.943,72,12.6,12.6,0,0,1,50.357,59.413Zm6.464,0a6.124,6.124,0,1,0,6.123-6.124A6.13,6.13,0,0,0,56.821,59.413ZM45.367,52.878,31.6,45.222A3.232,3.232,0,1,1,34.8,39.6l13.761,7.652a3.232,3.232,0,1,1-3.191,5.621ZM0,32.569a15.5,15.5,0,1,1,15.5,15.5A15.521,15.521,0,0,1,0,32.569Zm6.462,0A9.041,9.041,0,1,0,15.5,23.527,9.052,9.052,0,0,0,6.462,32.569ZM30.388,23.75a3.239,3.239,0,0,1,1.2-4.41l10.817-5.833a3.177,3.177,0,0,1,1.575-.415,3.284,3.284,0,0,1,.859.114,3.231,3.231,0,0,1,.752,5.924L34.778,24.963a3.163,3.163,0,0,1-1.575.416A3.244,3.244,0,0,1,30.388,23.75Zm17.258-14.3A9.449,9.449,0,1,1,57.1,18.9,9.46,9.46,0,0,1,47.646,9.449Zm6.462,0A2.987,2.987,0,1,0,57.1,6.462,2.99,2.99,0,0,0,54.108,9.449Z" transform="translate(341 1032)" stroke="rgba(0,0,0,0)" stroke-miterlimit="10" stroke-width="1" fill="url(#linear-gradient-18)"/>
    <g id="グループ_6203" data-name="グループ 6203" transform="translate(987 1036)">
      <g id="グループ_1353" data-name="グループ 1353" transform="translate(0 0)" clip-path="url(#clip-path-4)">
        <path id="パス_29081" data-name="パス 29081" d="M31.94,0H28.153V.111a12.848,12.848,0,0,1,4.091.877c1.949.836,6.787,3.687,6.787,9.012s-4.824,8.209-6.787,9.013a14.587,14.587,0,0,1-4.091.879V20l3.6-.052c5.522,0,10.487-4.426,10.487-9.949S37.659.157,31.94,0" transform="translate(-5.089 0)" fill="#a58b57"/>
        <path id="パス_29082" data-name="パス 29082" d="M8.092,15.6,15.384,0h5.385V.093C18.123.4,17.785,1.446,17.846,3.6l.123,11.816c.124,3.293.215,4.215,2.923,4.492V20H12.708v-.093c2.523-.246,2.615-1.2,2.585-4.492l.03-12.554C12.8,8.492,8.739,17.292,7.661,20h-.8C5.816,17.2,2.339,8.738,0,3.169Z" transform="translate(0 0)" fill="#211a18"/>
        <path id="パス_29083" data-name="パス 29083" d="M62.869,8.835v6.882h-.7V10.211l-2.7,4.63h-.344l-2.7-4.6v5.476h-.7V8.835h.6l2.989,5.1,2.959-5.1Z" transform="translate(-10.072 -1.597)" fill="#211a18"/>
        <path id="パス_29084" data-name="パス 29084" d="M76.484,11.381a1.957,1.957,0,0,1,.541,1.5v3.2h-.668v-.806a1.6,1.6,0,0,1-.694.629,2.421,2.421,0,0,1-1.086.226,2.129,2.129,0,0,1-1.376-.413,1.421,1.421,0,0,1-.034-2.153,2.332,2.332,0,0,1,1.519-.4h1.642v-.315a1.328,1.328,0,0,0-.374-1.017,1.545,1.545,0,0,0-1.092-.349,2.77,2.77,0,0,0-.943.162,2.382,2.382,0,0,0-.777.447l-.314-.521a2.778,2.778,0,0,1,.943-.516,3.678,3.678,0,0,1,1.16-.182,2.188,2.188,0,0,1,1.553.506M75.7,15.314a1.614,1.614,0,0,0,.629-.782v-.845H74.7q-1.327,0-1.326.924a.843.843,0,0,0,.344.713,1.565,1.565,0,0,0,.963.261,1.841,1.841,0,0,0,1.013-.27" transform="translate(-13.14 -1.966)" fill="#211a18"/>
        <path id="パス_29085" data-name="パス 29085" d="M87.914,11.14a2.492,2.492,0,0,1,1.205-.265v.678l-.167-.01a1.65,1.65,0,0,0-1.278.5,1.994,1.994,0,0,0-.462,1.406v2.635h-.7V10.914h.668v1.013a1.7,1.7,0,0,1,.732-.786" transform="translate(-15.639 -1.966)" fill="#211a18"/>
        <path id="パス_29086" data-name="パス 29086" d="M98.2,15.8a2.423,2.423,0,0,1-.948-.939A2.7,2.7,0,0,1,96.9,13.5a2.677,2.677,0,0,1,.345-1.357,2.433,2.433,0,0,1,.948-.934,2.8,2.8,0,0,1,1.372-.334,2.655,2.655,0,0,1,1.194.261,1.981,1.981,0,0,1,.83.762l-.52.354a1.63,1.63,0,0,0-.649-.575,1.928,1.928,0,0,0-.855-.192,2.025,2.025,0,0,0-1.008.251,1.756,1.756,0,0,0-.7.713,2.343,2.343,0,0,0,0,2.109,1.764,1.764,0,0,0,.7.708,2.025,2.025,0,0,0,1.008.251,1.97,1.97,0,0,0,.855-.187,1.593,1.593,0,0,0,.649-.57l.52.354a1.975,1.975,0,0,1-.835.762,2.664,2.664,0,0,1-1.19.261A2.79,2.79,0,0,1,98.2,15.8" transform="translate(-17.517 -1.966)" fill="#211a18"/>
        <path id="パス_29087" data-name="パス 29087" d="M114.7,10.98a2.208,2.208,0,0,1,.574,1.647v3h-.7V12.7a1.711,1.711,0,0,0-.4-1.229,1.513,1.513,0,0,0-1.15-.423,1.764,1.764,0,0,0-1.321.5,1.872,1.872,0,0,0-.487,1.371v2.713h-.7V8.331h.7v3.028a1.89,1.89,0,0,1,.786-.7,2.583,2.583,0,0,1,1.15-.246,2.116,2.116,0,0,1,1.549.565" transform="translate(-19.977 -1.506)" fill="#211a18"/>
        <path id="パス_29088" data-name="パス 29088" d="M129.241,13.716h-4.326a1.852,1.852,0,0,0,.62,1.3,2.055,2.055,0,0,0,1.415.5,2.228,2.228,0,0,0,.885-.172,1.926,1.926,0,0,0,.7-.506l.393.452a2.211,2.211,0,0,1-.859.629,2.909,2.909,0,0,1-1.135.216,2.872,2.872,0,0,1-1.412-.339,2.45,2.45,0,0,1-.958-.939,2.685,2.685,0,0,1-.344-1.357,2.772,2.772,0,0,1,.33-1.357,2.377,2.377,0,0,1,.9-.934,2.527,2.527,0,0,1,1.293-.334,2.5,2.5,0,0,1,1.289.334,2.367,2.367,0,0,1,.894.929,2.8,2.8,0,0,1,.325,1.362Zm-3.75-1.765a1.877,1.877,0,0,0-.576,1.244h3.667a1.876,1.876,0,0,0-.574-1.244,1.9,1.9,0,0,0-2.517,0" transform="translate(-22.454 -1.966)" fill="#211a18"/>
        <path id="パス_29089" data-name="パス 29089" d="M147.858,8.835h2.8a4.089,4.089,0,0,1,1.926.437,3.192,3.192,0,0,1,1.3,1.219,3.432,3.432,0,0,1,.463,1.784,3.432,3.432,0,0,1-.463,1.784,3.192,3.192,0,0,1-1.3,1.219,4.089,4.089,0,0,1-1.926.437h-2.8Zm2.762,6.252a3.339,3.339,0,0,0,1.583-.359,2.617,2.617,0,0,0,1.052-.993,3.039,3.039,0,0,0,0-2.92,2.617,2.617,0,0,0-1.052-.993,3.339,3.339,0,0,0-1.583-.359h-2.035v5.623Z" transform="translate(-26.727 -1.597)" fill="#211a18"/>
        <path id="パス_29090" data-name="パス 29090" d="M164.457,15.8a2.466,2.466,0,0,1-.943-.939,2.841,2.841,0,0,1,0-2.713,2.431,2.431,0,0,1,.943-.934,2.881,2.881,0,0,1,2.694,0,2.4,2.4,0,0,1,.94.934,2.883,2.883,0,0,1,0,2.713,2.435,2.435,0,0,1-.94.939,2.844,2.844,0,0,1-2.694,0m2.336-.531a1.758,1.758,0,0,0,.683-.713,2.381,2.381,0,0,0,0-2.1,1.758,1.758,0,0,0-.683-.713,2.072,2.072,0,0,0-1.976,0,1.77,1.77,0,0,0-.688.713,2.325,2.325,0,0,0,0,2.1,1.77,1.77,0,0,0,.688.713,2.072,2.072,0,0,0,1.976,0" transform="translate(-29.495 -1.966)" fill="#211a18"/>
        <path id="パス_29091" data-name="パス 29091" d="M178.946,11.14a2.489,2.489,0,0,1,1.2-.265v.678l-.166-.01a1.653,1.653,0,0,0-1.279.5,2,2,0,0,0-.462,1.406v2.635h-.7V10.914h.668v1.013a1.692,1.692,0,0,1,.732-.786" transform="translate(-32.094 -1.966)" fill="#211a18"/>
      </g>
    </g>
  </g>
</svg>
