<svg xmlns="http://www.w3.org/2000/svg" xmlns:xlink="http://www.w3.org/1999/xlink" width="490.678" height="9272.008" viewBox="0 0 490.678 9272.008">
  <defs>
    <clipPath id="clip-path">
      <rect id="長方形_10363" data-name="長方形 10363" width="137.425" height="114.543" fill="#f77ee6"/>
    </clipPath>
    <clipPath id="clip-path-2">
      <rect id="長方形_10366" data-name="長方形 10366" width="89.595" height="97.607" fill="#5096ff"/>
    </clipPath>
    <clipPath id="clip-path-3">
      <rect id="長方形_10361" data-name="長方形 10361" width="128.502" height="125.263" fill="#ff8e6f"/>
    </clipPath>
    <clipPath id="clip-path-4">
      <rect id="長方形_10358" data-name="長方形 10358" width="69.603" height="73.298" fill="#5096ff"/>
    </clipPath>
    <clipPath id="clip-path-5">
      <rect id="長方形_10358-2" data-name="長方形 10358" width="129.612" height="136.493" fill="gold"/>
    </clipPath>
    <clipPath id="clip-path-6">
      <rect id="長方形_10358-3" data-name="長方形 10358" width="185.807" height="195.671" fill="gold"/>
    </clipPath>
    <clipPath id="clip-path-7">
      <rect id="長方形_10363-2" data-name="長方形 10363" width="159.478" height="105.499" fill="#ff8e6f"/>
    </clipPath>
    <clipPath id="clip-path-8">
      <rect id="長方形_10363-3" data-name="長方形 10363" width="159.478" height="105.499" fill="#f77ee6"/>
    </clipPath>
    <clipPath id="clip-path-9">
      <rect id="長方形_10365" data-name="長方形 10365" width="73.755" height="86.772" fill="gold"/>
    </clipPath>
    <clipPath id="clip-path-10">
      <rect id="長方形_10362" data-name="長方形 10362" width="107.11" height="103.162" fill="#5096ff"/>
    </clipPath>
    <clipPath id="clip-path-11">
      <rect id="長方形_10360" data-name="長方形 10360" width="104.146" height="94.302" fill="#f77ee6"/>
    </clipPath>
    <clipPath id="clip-path-12">
      <rect id="長方形_10358-4" data-name="長方形 10358" width="190.864" height="200.996" fill="gold"/>
    </clipPath>
    <clipPath id="clip-path-13">
      <rect id="長方形_10363-4" data-name="長方形 10363" width="163.818" height="108.37" fill="#ff8e6f"/>
    </clipPath>
    <clipPath id="clip-path-14">
      <rect id="長方形_10358-5" data-name="長方形 10358" width="154.869" height="163.091" fill="#5096ff"/>
    </clipPath>
    <clipPath id="clip-path-15">
      <rect id="長方形_10361-2" data-name="長方形 10361" width="82.196" height="80.124" fill="gold"/>
    </clipPath>
    <clipPath id="clip-path-16">
      <rect id="長方形_10362-2" data-name="長方形 10362" width="91.58" height="88.205" fill="#f77ee6"/>
    </clipPath>
    <clipPath id="clip-path-17">
      <rect id="長方形_10366-2" data-name="長方形 10366" width="97.108" height="105.793" fill="#ff8e6f"/>
    </clipPath>
    <clipPath id="clip-path-18">
      <rect id="長方形_10364" data-name="長方形 10364" width="82.125" height="64.468" transform="translate(0)" fill="gold"/>
    </clipPath>
    <clipPath id="clip-path-19">
      <rect id="長方形_10361-3" data-name="長方形 10361" width="119.006" height="116.006" fill="#f77ee6"/>
    </clipPath>
    <clipPath id="clip-path-20">
      <rect id="長方形_10360-2" data-name="長方形 10360" width="104.146" height="94.302" fill="gold"/>
    </clipPath>
    <clipPath id="clip-path-21">
      <rect id="長方形_10366-3" data-name="長方形 10366" width="50.507" height="55.024" fill="#f77ee6"/>
    </clipPath>
    <clipPath id="clip-path-22">
      <rect id="長方形_10362-3" data-name="長方形 10362" width="150.826" height="145.267" fill="#5096ff"/>
    </clipPath>
    <clipPath id="clip-path-23">
      <rect id="長方形_10366-4" data-name="長方形 10366" width="250.982" height="275.428" fill="gold"/>
    </clipPath>
    <clipPath id="clip-path-24">
      <rect id="長方形_10365-2" data-name="長方形 10365" width="129.077" height="151.858" fill="#ff8e6f"/>
    </clipPath>
    <clipPath id="clip-path-25">
      <rect id="長方形_10366-5" data-name="長方形 10366" width="97.108" height="105.793" fill="#5096ff"/>
    </clipPath>
    <clipPath id="clip-path-26">
      <rect id="長方形_10366-6" data-name="長方形 10366" width="50.507" height="55.024" fill="gold"/>
    </clipPath>
  </defs>
  <g id="グループ_6080" data-name="グループ 6080" transform="translate(84.398 232.885)" opacity="0.2">
    <g id="グループ_5845" data-name="グループ 5845" transform="translate(406.28 5255.497) rotate(132)" opacity="0.5">
      <g id="グループ_5812" data-name="グループ 5812" clip-path="url(#clip-path)">
        <path id="パス_29106" data-name="パス 29106" d="M65.712,0,0,73.154,20.5,107.7h84.054l23.631-28.039Z" transform="translate(4.62 3.419)" fill="#f77ee6"/>
      </g>
    </g>
    <g id="グループ_5846" data-name="グループ 5846" transform="translate(280.114 2687.254) rotate(45)" opacity="0.4">
      <g id="グループ_5821" data-name="グループ 5821" clip-path="url(#clip-path-2)">
        <path id="パス_29109" data-name="パス 29109" d="M77.766,74.111V17.668L38.883,0,0,17.668V74.111L38.883,91.78Z" transform="translate(5.914 2.914)" fill="#5096ff"/>
      </g>
    </g>
    <g id="グループ_5844" data-name="グループ 5844" transform="translate(-42.543 5543.053) rotate(-77)" opacity="0.4">
      <g id="グループ_5808" data-name="グループ 5808" clip-path="url(#clip-path-3)">
        <path id="パス_29104" data-name="パス 29104" d="M26.278,33.255,0,111.569l13.254,5.222,48.962.994,54.737-47.615V0Z" transform="translate(5.775 3.739)" fill="#ff8e6f"/>
      </g>
    </g>
    <g id="グループ_5843" data-name="グループ 5843" transform="matrix(-0.99, -0.139, 0.139, -0.99, 48.551, 4121.806)" opacity="0.5">
      <g id="グループ_5802" data-name="グループ 5802" clip-path="url(#clip-path-4)">
        <path id="パス_29101" data-name="パス 29101" d="M50.932,14.7,32.276,0,19.131,9.564,0,45.772,8.655,57.823l7.971,11.1h31.3l7.97-11.1,8.654-12.052Z" transform="translate(2.526 2.188)" fill="#5096ff"/>
      </g>
    </g>
    <g id="グループ_6012" data-name="グループ 6012" transform="matrix(-0.99, -0.139, 0.139, -0.99, 372.418, 9039.123)" opacity="0.5">
      <g id="グループ_5802-2" data-name="グループ 5802" clip-path="url(#clip-path-5)">
        <path id="パス_29101-2" data-name="パス 29101" d="M94.843,27.367,60.1,0,35.624,17.809,0,85.234l16.117,22.441,14.842,20.668H89.247l14.842-20.667L120.2,85.235Z" transform="translate(4.703 4.075)" fill="gold"/>
      </g>
    </g>
    <g id="グループ_5837" data-name="グループ 5837" transform="translate(177.247 3003.396) rotate(111)" opacity="0.5">
      <g id="グループ_5802-3" data-name="グループ 5802" clip-path="url(#clip-path-6)">
        <path id="パス_29101-3" data-name="パス 29101" d="M135.963,39.232,86.161,0,51.069,25.531,0,122.189l23.1,32.17,21.277,29.63h83.559l21.277-29.628,23.1-32.172Z" transform="translate(6.742 5.841)" fill="gold"/>
      </g>
    </g>
    <g id="グループ_5838" data-name="グループ 5838" transform="translate(-75.802 3574.578) rotate(-40)" opacity="0.4">
      <g id="グループ_5812-2" data-name="グループ 5812" clip-path="url(#clip-path-7)">
        <path id="パス_29106-2" data-name="パス 29106" d="M76.257,0,0,67.378,23.791,99.2h97.543l27.423-25.825Z" transform="translate(5.361 3.149)" fill="#ff8e6f"/>
      </g>
    </g>
    <g id="グループ_6011" data-name="グループ 6011" transform="translate(-71.554 8505.705) rotate(-40)" opacity="0.4">
      <g id="グループ_5812-3" data-name="グループ 5812" clip-path="url(#clip-path-8)">
        <path id="パス_29106-3" data-name="パス 29106" d="M76.257,0,0,67.378,23.791,99.2h97.543l27.423-25.825Z" transform="translate(5.361 3.149)" fill="#f77ee6"/>
      </g>
    </g>
    <g id="グループ_5835" data-name="グループ 5835" transform="translate(240.056 1115.055) rotate(-106)" opacity="0.5">
      <g id="グループ_5819" data-name="グループ 5819" clip-path="url(#clip-path-9)">
        <path id="パス_29108" data-name="パス 29108" d="M58.051,19.383,34.784,0h0L11.515,19.383,0,46.4,4.988,69.3l29.795,10.56L64.578,69.3l4.989-22.9Z" transform="translate(2.094 3.453)" fill="gold"/>
      </g>
    </g>
    <g id="グループ_5833" data-name="グループ 5833" transform="translate(41.695 1005.559) rotate(-150)" opacity="0.4">
      <g id="グループ_5810" data-name="グループ 5810" clip-path="url(#clip-path-10)">
        <path id="パス_29105" data-name="パス 29105" d="M0,63.218,29.684,10.6,56.814,0,77.475,14.76,100.112,67.4,83.424,94.95H18.333Z" transform="translate(3.499 4.106)" fill="#5096ff"/>
      </g>
    </g>
    <g id="グループ_5832" data-name="グループ 5832" transform="translate(119.163 369.472) rotate(-14)" opacity="0.5">
      <g id="グループ_5806" data-name="グループ 5806" clip-path="url(#clip-path-11)">
        <path id="パス_29103" data-name="パス 29103" d="M66.084,2,24.261,0,0,47.962l41.538,40.5,37.178-5.411,13.93-45.783Z" transform="translate(5.749 2.808)" fill="#f77ee6"/>
      </g>
    </g>
    <g id="グループ_5829" data-name="グループ 5829" transform="translate(211.423 677.899) rotate(161)" opacity="0.5">
      <g id="グループ_5802-4" data-name="グループ 5802" clip-path="url(#clip-path-12)">
        <path id="パス_29101-4" data-name="パス 29101" d="M139.664,40.3,88.506,0,52.459,26.226,0,125.515l23.734,33.046L45.59,189h85.833l21.856-30.434,23.732-33.047Z" transform="translate(6.926 6)" fill="gold"/>
      </g>
    </g>
    <g id="グループ_5830" data-name="グループ 5830" transform="translate(-61.099 447.625) rotate(10)" opacity="0.4">
      <g id="グループ_5812-4" data-name="グループ 5812" clip-path="url(#clip-path-13)">
        <path id="パス_29106-4" data-name="パス 29106" d="M78.332,0,0,69.212,24.438,101.9h100.2L152.8,75.372Z" transform="translate(5.507 3.235)" fill="#ff8e6f"/>
      </g>
    </g>
    <g id="グループ_5827" data-name="グループ 5827" transform="translate(140.098 180.562) rotate(-42)" opacity="0.5">
      <g id="グループ_5802-5" data-name="グループ 5802" clip-path="url(#clip-path-14)">
        <path id="パス_29101-5" data-name="パス 29101" d="M113.325,32.7,71.815,0,42.566,21.28,0,101.844l19.258,26.814,17.735,24.7h69.646l17.735-24.695,19.256-26.815Z" transform="translate(5.62 4.869)" fill="#5096ff"/>
      </g>
    </g>
    <g id="グループ_5828" data-name="グループ 5828" transform="translate(293.981 281.47) rotate(-77)" opacity="0.4">
      <g id="グループ_5808-2" data-name="グループ 5808" clip-path="url(#clip-path-15)">
        <path id="パス_29104-2" data-name="パス 29104" d="M16.809,21.272,0,71.365l8.478,3.34,31.319.636L74.81,44.884V0Z" transform="translate(3.694 2.391)" fill="gold"/>
      </g>
    </g>
    <g id="グループ_5831" data-name="グループ 5831" transform="translate(44.534 251.432) rotate(-150)" opacity="0.4">
      <g id="グループ_5810-2" data-name="グループ 5810" clip-path="url(#clip-path-16)">
        <path id="パス_29105-2" data-name="パス 29105" d="M0,54.053,25.38,9.061,48.576,0,66.242,12.62,85.6,57.628,71.329,81.184H15.675Z" transform="translate(2.991 3.51)" fill="#f77ee6"/>
      </g>
    </g>
    <g id="グループ_5834" data-name="グループ 5834" transform="translate(332.087 948.503) rotate(45)" opacity="0.4">
      <g id="グループ_5821-2" data-name="グループ 5821" clip-path="url(#clip-path-17)">
        <path id="パス_29109-2" data-name="パス 29109" d="M84.287,80.326V19.15L42.144,0,0,19.15V80.326L42.144,99.477Z" transform="translate(6.41 3.158)" fill="#ff8e6f"/>
      </g>
    </g>
    <g id="グループ_5836" data-name="グループ 5836" transform="matrix(-0.174, -0.985, 0.985, -0.174, 225.684, 902.6)" opacity="0.4">
      <g id="グループ_5814" data-name="グループ 5814" transform="translate(0 0)" clip-path="url(#clip-path-18)">
        <path id="パス_29107" data-name="パス 29107" d="M55.249,0,0,47.577,19.51,60.427H50.143L76.764,26.393Z" transform="translate(2.615 2.124)" fill="gold"/>
      </g>
    </g>
    <g id="グループ_5839" data-name="グループ 5839" transform="translate(-34.481 1244.138) rotate(-77)" opacity="0.4">
      <g id="グループ_5808-3" data-name="グループ 5808" clip-path="url(#clip-path-19)">
        <path id="パス_29104-3" data-name="パス 29104" d="M24.336,30.8,0,103.324l12.275,4.836,45.344.92,50.692-44.1V0Z" transform="translate(5.348 3.462)" fill="#f77ee6"/>
      </g>
    </g>
    <g id="グループ_5840" data-name="グループ 5840" transform="translate(242.727 4370.36) rotate(-14)" opacity="0.5">
      <g id="グループ_5806-2" data-name="グループ 5806" clip-path="url(#clip-path-20)">
        <path id="パス_29103-2" data-name="パス 29103" d="M66.084,2,24.261,0,0,47.962l41.538,40.5,37.178-5.411,13.93-45.783Z" transform="translate(5.749 2.808)" fill="gold"/>
      </g>
    </g>
    <g id="グループ_5841" data-name="グループ 5841" transform="translate(338.753 4334.403) rotate(45)" opacity="0.4">
      <g id="グループ_5821-3" data-name="グループ 5821" clip-path="url(#clip-path-21)">
        <path id="パス_29109-3" data-name="パス 29109" d="M43.839,41.778V9.96L21.919,0,0,9.96V41.778l21.919,9.961Z" transform="translate(3.334 1.643)" fill="#f77ee6"/>
      </g>
    </g>
    <g id="グループ_5842" data-name="グループ 5842" transform="translate(333.646 3410.872) rotate(-150)" opacity="0.4">
      <g id="グループ_5810-3" data-name="グループ 5810" clip-path="url(#clip-path-22)">
        <path id="パス_29105-3" data-name="パス 29105" d="M0,89.021l41.8-74.1L80,0,109.1,20.784l31.877,74.125-23.5,38.794H25.816Z" transform="translate(4.927 5.781)" fill="#5096ff"/>
      </g>
    </g>
    <g id="グループ_5935" data-name="グループ 5935" transform="translate(110.358 -232.885) rotate(45)" opacity="0.4">
      <g id="グループ_5821-4" data-name="グループ 5821" clip-path="url(#clip-path-23)">
        <path id="パス_29109-4" data-name="パス 29109" d="M217.846,209.126V49.856L108.923,0,0,49.856V209.126l108.923,49.859Z" transform="translate(16.568 8.222)" fill="gold"/>
      </g>
    </g>
    <g id="グループ_5976" data-name="グループ 5976" transform="translate(217.492 7708.992) rotate(-106)" opacity="0.5">
      <g id="グループ_5819-2" data-name="グループ 5819" clip-path="url(#clip-path-24)">
        <path id="パス_29108-2" data-name="パス 29108" d="M101.593,33.922,60.874,0V0L20.153,33.922,0,81.2l8.73,40.083,52.143,18.481,52.143-18.481L121.747,81.2Z" transform="translate(3.665 6.044)" fill="#ff8e6f"/>
      </g>
    </g>
    <g id="グループ_5977" data-name="グループ 5977" transform="translate(48.273 6984.058) rotate(45)" opacity="0.5">
      <g id="グループ_5821-5" data-name="グループ 5821" transform="translate(0 0)" clip-path="url(#clip-path-25)">
        <path id="パス_29109-5" data-name="パス 29109" d="M84.287,80.326V19.15L42.144,0,0,19.15V80.326L42.144,99.477Z" transform="translate(6.41 3.158)" fill="#5096ff"/>
      </g>
    </g>
    <g id="グループ_5978" data-name="グループ 5978" transform="translate(52.405 5252.723) rotate(108)" opacity="0.5">
      <g id="グループ_5821-6" data-name="グループ 5821" clip-path="url(#clip-path-26)">
        <path id="パス_29109-6" data-name="パス 29109" d="M43.839,41.778V9.96L21.919,0,0,9.96V41.778l21.919,9.961Z" transform="translate(3.334 1.643)" fill="gold"/>
      </g>
    </g>
  </g>
</svg>
