<svg xmlns="http://www.w3.org/2000/svg" xmlns:xlink="http://www.w3.org/1999/xlink" width="1777.769" height="7689.199" viewBox="0 0 1777.769 7689.199">
  <defs>
    <clipPath id="clip-path">
      <rect id="長方形_10363" data-name="長方形 10363" width="334.67" height="278.946" fill="#f77ee6"/>
    </clipPath>
    <clipPath id="clip-path-2">
      <rect id="長方形_10366" data-name="長方形 10366" width="218.19" height="237.703" fill="#5096ff"/>
    </clipPath>
    <clipPath id="clip-path-3">
      <rect id="長方形_10361" data-name="長方形 10361" width="312.941" height="305.052" fill="#ff8e6f"/>
    </clipPath>
    <clipPath id="clip-path-4">
      <rect id="長方形_10358" data-name="長方形 10358" width="169.505" height="178.503" fill="#5096ff"/>
    </clipPath>
    <clipPath id="clip-path-5">
      <rect id="長方形_10358-2" data-name="長方形 10358" width="315.644" height="332.4" fill="gold"/>
    </clipPath>
    <clipPath id="clip-path-6">
      <rect id="長方形_10358-3" data-name="長方形 10358" width="452.496" height="476.517" fill="gold"/>
    </clipPath>
    <clipPath id="clip-path-7">
      <rect id="長方形_10363-2" data-name="長方形 10363" width="388.376" height="256.921" fill="#ff8e6f"/>
    </clipPath>
    <clipPath id="clip-path-8">
      <rect id="長方形_10363-3" data-name="長方形 10363" width="388.376" height="256.921" fill="#f77ee6"/>
    </clipPath>
    <clipPath id="clip-path-9">
      <rect id="長方形_10365" data-name="長方形 10365" width="179.615" height="211.316" fill="gold"/>
    </clipPath>
    <clipPath id="clip-path-10">
      <rect id="長方形_10362" data-name="長方形 10362" width="260.845" height="251.231" fill="#5096ff"/>
    </clipPath>
    <clipPath id="clip-path-11">
      <rect id="長方形_10360" data-name="長方形 10360" width="253.626" height="229.654" fill="#f77ee6"/>
    </clipPath>
    <clipPath id="clip-path-12">
      <rect id="長方形_10358-4" data-name="長方形 10358" width="464.811" height="489.486" fill="gold"/>
    </clipPath>
    <clipPath id="clip-path-13">
      <rect id="長方形_10363-4" data-name="長方形 10363" width="398.946" height="263.914" fill="#ff8e6f"/>
    </clipPath>
    <clipPath id="clip-path-14">
      <rect id="長方形_10358-5" data-name="長方形 10358" width="377.153" height="397.174" fill="#5096ff"/>
    </clipPath>
    <clipPath id="clip-path-15">
      <rect id="長方形_10361-2" data-name="長方形 10361" width="200.173" height="195.127" fill="gold"/>
    </clipPath>
    <clipPath id="clip-path-16">
      <rect id="長方形_10362-2" data-name="長方形 10362" width="223.026" height="214.806" fill="#f77ee6"/>
    </clipPath>
    <clipPath id="clip-path-17">
      <rect id="長方形_10366-2" data-name="長方形 10366" width="236.488" height="257.637" fill="#ff8e6f"/>
    </clipPath>
    <clipPath id="clip-path-18">
      <rect id="長方形_10364" data-name="長方形 10364" width="200" height="157" transform="translate(0.32 -0.5)" fill="gold"/>
    </clipPath>
    <clipPath id="clip-path-19">
      <rect id="長方形_10361-3" data-name="長方形 10361" width="289.815" height="282.509" fill="#f77ee6"/>
    </clipPath>
    <clipPath id="clip-path-20">
      <rect id="長方形_10360-2" data-name="長方形 10360" width="253.626" height="229.654" fill="gold"/>
    </clipPath>
    <clipPath id="clip-path-21">
      <rect id="長方形_10366-3" data-name="長方形 10366" width="123" height="134" fill="#f77ee6"/>
    </clipPath>
    <clipPath id="clip-path-22">
      <rect id="長方形_10362-3" data-name="長方形 10362" width="367.306" height="353.769" fill="#5096ff"/>
    </clipPath>
    <clipPath id="clip-path-23">
      <rect id="長方形_10366-4" data-name="長方形 10366" width="611.217" height="670.749" fill="gold"/>
    </clipPath>
    <clipPath id="clip-path-24">
      <rect id="長方形_10365-2" data-name="長方形 10365" width="314.34" height="369.819" fill="#ff8e6f"/>
    </clipPath>
    <clipPath id="clip-path-25">
      <rect id="長方形_10366-5" data-name="長方形 10366" width="236.488" height="257.637" fill="#5096ff"/>
    </clipPath>
    <clipPath id="clip-path-26">
      <rect id="長方形_10366-6" data-name="長方形 10366" width="123" height="134" fill="gold"/>
    </clipPath>
  </defs>
  <g id="グループ_5847" data-name="グループ 5847" transform="translate(176.533 219.199)" opacity="0.2">
    <g id="グループ_5845" data-name="グループ 5845" transform="translate(1601.235 6103.583) rotate(132)" opacity="0.5">
      <g id="グループ_5812" data-name="グループ 5812" clip-path="url(#clip-path)">
        <path id="パス_29106" data-name="パス 29106" d="M160.028,0,0,178.153l49.925,84.14h204.7l57.547-68.283Z" transform="translate(11.25 8.327)" fill="#f77ee6"/>
      </g>
    </g>
    <g id="グループ_5846" data-name="グループ 5846" transform="translate(1235.716 3137.747) rotate(45)" opacity="0.4">
      <g id="グループ_5821" data-name="グループ 5821" clip-path="url(#clip-path-2)">
        <path id="パス_29109" data-name="パス 29109" d="M193.383,184.482V47.028L98.692,4,4,47.028V184.482l94.692,43.03Z" transform="translate(10.403 3.096)" fill="#5096ff"/>
      </g>
    </g>
    <g id="グループ_5844" data-name="グループ 5844" transform="translate(-33.63 5716.24) rotate(-77)" opacity="0.4">
      <g id="グループ_5808" data-name="グループ 5808" clip-path="url(#clip-path-3)">
        <path id="パス_29104" data-name="パス 29104" d="M63.994,80.987,0,271.7,32.279,284.42l119.238,2.42,133.3-115.956V0Z" transform="translate(14.063 9.105)" fill="#ff8e6f"/>
      </g>
    </g>
    <g id="グループ_5843" data-name="グループ 5843" transform="matrix(-0.99, -0.139, 0.139, -0.99, 188.211, 5859.32)" opacity="0.5">
      <g id="グループ_5802" data-name="グループ 5802" clip-path="url(#clip-path-4)">
        <path id="パス_29101" data-name="パス 29101" d="M124.034,35.79,78.6,0,46.589,23.291,0,111.469l21.078,29.348,19.411,27.03h76.227l19.411-27.029L157.2,111.469Z" transform="translate(6.151 5.329)" fill="#5096ff"/>
      </g>
    </g>
    <g id="グループ_6012" data-name="グループ 6012" transform="matrix(-0.99, -0.139, 0.139, -0.99, 1393.739, 7470)" opacity="0.5">
      <g id="グループ_5802-2" data-name="グループ 5802" clip-path="url(#clip-path-5)">
        <path id="パス_29101-2" data-name="パス 29101" d="M230.971,66.646,146.369,0,86.755,43.371,0,207.572l39.25,54.65L75.4,312.555H217.342l36.145-50.331,39.247-54.652Z" transform="translate(11.453 9.923)" fill="gold"/>
      </g>
    </g>
    <g id="グループ_5837" data-name="グループ 5837" transform="translate(548 3909.093) rotate(111)" opacity="0.5">
      <g id="グループ_5802-3" data-name="グループ 5802" clip-path="url(#clip-path-6)">
        <path id="パス_29101-3" data-name="パス 29101" d="M331.111,95.542,209.829,0l-85.46,62.175L0,297.567l56.267,78.344,51.817,72.157h203.49l51.817-72.153,56.263-78.348Z" transform="translate(16.419 14.226)" fill="gold"/>
      </g>
    </g>
    <g id="グループ_5838" data-name="グループ 5838" transform="translate(-176.533 4523.988) rotate(-40)" opacity="0.4">
      <g id="グループ_5812-2" data-name="グループ 5812" clip-path="url(#clip-path-7)">
        <path id="パス_29106-2" data-name="パス 29106" d="M185.708,0,0,164.086l57.937,77.5H295.483l66.782-62.892Z" transform="translate(13.055 7.669)" fill="#ff8e6f"/>
      </g>
    </g>
    <g id="グループ_6011" data-name="グループ 6011" transform="translate(-128.659 7073.32) rotate(-40)" opacity="0.4">
      <g id="グループ_5812-3" data-name="グループ 5812" clip-path="url(#clip-path-8)">
        <path id="パス_29106-3" data-name="パス 29106" d="M185.708,0,0,164.086l57.937,77.5H295.483l66.782-62.892Z" transform="translate(13.055 7.669)" fill="#f77ee6"/>
      </g>
    </g>
    <g id="グループ_5835" data-name="グループ 5835" transform="translate(1236.87 2947.97) rotate(-106)" opacity="0.5">
      <g id="グループ_5819" data-name="グループ 5819" clip-path="url(#clip-path-9)">
        <path id="パス_29108" data-name="パス 29108" d="M145.371,51.2,88.709,4V4L32.044,51.2,4,117l12.148,55.778,72.559,25.718,72.559-25.718L173.416,117Z" transform="translate(1.1 4.411)" fill="gold"/>
      </g>
    </g>
    <g id="グループ_5833" data-name="グループ 5833" transform="translate(200.898 2345.497) rotate(-150)" opacity="0.4">
      <g id="グループ_5810" data-name="グループ 5810" clip-path="url(#clip-path-10)">
        <path id="パス_29105" data-name="パス 29105" d="M4,157.956,76.29,29.808,142.358,4l50.316,35.945,55.13,128.2-40.641,67.092H48.647Z" transform="translate(4.521 5.999)" fill="#5096ff"/>
      </g>
    </g>
    <g id="グループ_5832" data-name="グループ 5832" transform="translate(1078.349 1085.358) rotate(-14)" opacity="0.5">
      <g id="グループ_5806" data-name="グループ 5806" clip-path="url(#clip-path-11)">
        <path id="パス_29103" data-name="パス 29103" d="M164.935,8.871,63.083,4,4,120.8,105.159,219.44l90.54-13.178,33.925-111.5Z" transform="translate(10.001 2.839)" fill="#f77ee6"/>
      </g>
    </g>
    <g id="グループ_5829" data-name="グループ 5829" transform="translate(594 1463.935) rotate(161)" opacity="0.5">
      <g id="グループ_5802-4" data-name="グループ 5802" clip-path="url(#clip-path-12)">
        <path id="パス_29101-4" data-name="パス 29101" d="M340.123,98.142,215.54,0,127.754,63.867,0,305.666l57.8,80.477,53.227,74.121H320.054l53.227-74.117,57.794-80.48Z" transform="translate(16.866 14.613)" fill="gold"/>
      </g>
    </g>
    <g id="グループ_5830" data-name="グループ 5830" transform="translate(-69.674 903.148) rotate(10)" opacity="0.4">
      <g id="グループ_5812-4" data-name="グループ 5812" clip-path="url(#clip-path-13)">
        <path id="パス_29106-4" data-name="パス 29106" d="M190.763,0,0,168.552l59.514,79.605h244.01l68.6-64.6Z" transform="translate(13.411 7.878)" fill="#ff8e6f"/>
      </g>
    </g>
    <g id="グループ_5827" data-name="グループ 5827" transform="translate(720 568.532) rotate(-42)" opacity="0.5">
      <g id="グループ_5802-5" data-name="グループ 5802" clip-path="url(#clip-path-14)">
        <path id="パス_29101-5" data-name="パス 29101" d="M275.979,79.633,174.891,0l-71.23,51.822L0,248.021l46.9,65.3,43.189,60.142H259.7l43.189-60.139,46.895-65.3Z" transform="translate(13.685 11.857)" fill="#5096ff"/>
      </g>
    </g>
    <g id="グループ_5828" data-name="グループ 5828" transform="translate(1094.75 814.273) rotate(-77)" opacity="0.4">
      <g id="グループ_5808-2" data-name="グループ 5808" clip-path="url(#clip-path-15)">
        <path id="パス_29104-2" data-name="パス 29104" d="M40.934,51.8,0,173.8l20.647,8.134,76.271,1.548,85.266-74.171V0Z" transform="translate(8.995 5.824)" fill="gold"/>
      </g>
    </g>
    <g id="グループ_5831" data-name="グループ 5831" transform="translate(353.146 812.469) rotate(-150)" opacity="0.4">
      <g id="グループ_5810-2" data-name="グループ 5810" clip-path="url(#clip-path-16)">
        <path id="パス_29105-2" data-name="パス 29105" d="M4,135.634,65.809,26.066,122.3,4l43.021,30.733,47.137,109.609-34.748,57.365H42.174Z" transform="translate(3.285 4.549)" fill="#f77ee6"/>
      </g>
    </g>
    <g id="グループ_5834" data-name="グループ 5834" transform="translate(1352.177 2184.104) rotate(45)" opacity="0.4">
      <g id="グループ_5821-2" data-name="グループ 5821" clip-path="url(#clip-path-17)">
        <path id="パス_29109-2" data-name="パス 29109" d="M209.265,199.618V50.636L106.633,4,4,50.636V199.618l102.633,46.638Z" transform="translate(11.611 3.691)" fill="#ff8e6f"/>
      </g>
    </g>
    <g id="グループ_5836" data-name="グループ 5836" transform="matrix(-0.174, -0.985, 0.985, -0.174, 1152.933, 2381.944)" opacity="0.4">
      <g id="グループ_5814" data-name="グループ 5814" clip-path="url(#clip-path-18)">
        <path id="パス_29107" data-name="パス 29107" d="M138.547,4,4,119.865l47.513,31.292h74.6l64.83-82.881Z" transform="translate(2.688 0.672)" fill="gold"/>
      </g>
    </g>
    <g id="グループ_5839" data-name="グループ 5839" transform="translate(-45.887 2865.859) rotate(-77)" opacity="0.4">
      <g id="グループ_5808-3" data-name="グループ 5808" clip-path="url(#clip-path-19)">
        <path id="パス_29104-3" data-name="パス 29104" d="M63.265,79,4,255.624,33.893,267.4l110.427,2.241L267.77,162.255V4Z" transform="translate(9.024 4.433)" fill="#f77ee6"/>
      </g>
    </g>
    <g id="グループ_5840" data-name="グループ 5840" transform="translate(1149.502 5451.808) rotate(-14)" opacity="0.5">
      <g id="グループ_5806-2" data-name="グループ 5806" clip-path="url(#clip-path-20)">
        <path id="パス_29103-2" data-name="パス 29103" d="M164.935,8.871,63.083,4,4,120.8,105.159,219.44l90.54-13.178,33.925-111.5Z" transform="translate(10.001 2.839)" fill="gold"/>
      </g>
    </g>
    <g id="グループ_5841" data-name="グループ 5841" transform="translate(1383.354 5364.242) rotate(45)" opacity="0.4">
      <g id="グループ_5821-3" data-name="グループ 5821" clip-path="url(#clip-path-21)">
        <path id="パス_29109-3" data-name="パス 29109" d="M110.761,105.743V28.256L57.38,4,4,28.256v77.487L57.38,130Z" transform="translate(4.12)" fill="#f77ee6"/>
      </g>
    </g>
    <g id="グループ_5842" data-name="グループ 5842" transform="translate(1411.647 4917.208) rotate(-150)" opacity="0.4">
      <g id="グループ_5810-3" data-name="グループ 5810" clip-path="url(#clip-path-22)">
        <path id="パス_29105-3" data-name="パス 29105" d="M4,220.792,105.795,40.341,198.828,4,269.68,54.615,347.31,235.132l-57.228,94.476H66.87Z" transform="translate(7.998 10.08)" fill="#5096ff"/>
      </g>
    </g>
    <g id="グループ_5935" data-name="グループ 5935" transform="translate(534.291 -219.199) rotate(45)" opacity="0.4">
      <g id="グループ_5821-4" data-name="グループ 5821" clip-path="url(#clip-path-23)">
        <path id="パス_29109-4" data-name="パス 29109" d="M534.52,513.284V125.416L269.26,4,4,125.416V513.284L269.26,634.7Z" transform="translate(36.348 16.024)" fill="gold"/>
      </g>
    </g>
    <g id="グループ_5976" data-name="グループ 5976" transform="translate(1120.644 7096.905) rotate(-106)" opacity="0.5">
      <g id="グループ_5819-2" data-name="グループ 5819" clip-path="url(#clip-path-24)">
        <path id="パス_29108-2" data-name="パス 29108" d="M251.41,86.611,152.246,4l0,0V4L53.079,86.611,4,201.754,25.26,299.369l126.985,45.008,126.985-45.008,21.262-97.615Z" transform="translate(4.925 10.719)" fill="#ff8e6f"/>
      </g>
    </g>
    <g id="グループ_5977" data-name="グループ 5977" transform="translate(203.778 6112.301) rotate(45)" opacity="0.5">
      <g id="グループ_5821-5" data-name="グループ 5821" transform="translate(6.364 126.572)" clip-path="url(#clip-path-25)">
        <path id="パス_29109-5" data-name="パス 29109" d="M209.265,199.618V50.636L106.633,4,4,50.636V199.618l102.633,46.638Z" transform="translate(11.611 3.691)" fill="#5096ff"/>
      </g>
    </g>
    <g id="グループ_5978" data-name="グループ 5978" transform="translate(333.589 6076.146) rotate(108)" opacity="0.5">
      <g id="グループ_5821-6" data-name="グループ 5821" clip-path="url(#clip-path-26)">
        <path id="パス_29109-6" data-name="パス 29109" d="M110.761,105.743V28.256L57.38,4,4,28.256v77.487L57.38,130Z" transform="translate(4.12)" fill="gold"/>
      </g>
    </g>
  </g>
</svg>
