<svg xmlns="http://www.w3.org/2000/svg" width="183.44" height="18.68" viewBox="0 0 183.44 18.68">
  <path id="パス_33194" data-name="パス 33194" d="M12.26-9.72l-2.2-6.7H9.94l-2.2,6.7H.76v.14L6.38-5.5,4.16,1.24l.1.06L10-2.88,15.74,1.3l.1-.06L13.62-5.5l5.62-4.08v-.14ZM21.72,0h5.62c3.24,0,5.82-1.36,5.82-4.4a3.376,3.376,0,0,0-2.64-3.5v-.08a3.475,3.475,0,0,0,1.94-3.22c0-2.86-2.46-3.68-5.54-3.68h-5.2ZM25.3-8.98v-3.18h1.48c1.5,0,2.2.44,2.2,1.5,0,1.02-.68,1.68-2.2,1.68Zm0,6.24v-3.6h1.78c1.74,0,2.6.48,2.6,1.7,0,1.28-.88,1.9-2.6,1.9ZM38.68.28c3.34,0,4.88-2.4,4.88-5.32v-9.84H39.98v9.56c0,1.94-.62,2.52-1.78,2.52a2.34,2.34,0,0,1-2-1.48L33.76-2.46A5.194,5.194,0,0,0,38.68.28ZM50.6-2.16c-.38,0-1.04-.4-1.04-.86,0-.58.6-1.22,1.58-1.78.02.82.04,1.48.04,1.86C51.18-2.24,50.9-2.16,50.6-2.16Zm3.24-7.1c0-.42,0-.86.02-1.28,1.2-.14,2.46-.32,3.56-.56l-.06-2.98a24.618,24.618,0,0,1-3.42.68L54-14.42c.04-.52.14-1.54.2-1.92H50.92c.06.38.14,1.52.14,1.94v1.26c-.32.02-.64.02-.94.02a23.129,23.129,0,0,1-2.86-.14l.06,2.88a28.1,28.1,0,0,0,2.88.1c.26,0,.54,0,.86-.02v1.14c0,.5,0,1.02.02,1.54C48.58-6.54,46.6-4.68,46.6-2.9c0,2.28,2.82,4.02,4.96,4.02,1.42,0,2.42-.68,2.42-3.48,0-.6-.04-1.98-.08-3.48a14,14,0,0,1,3.38-.44c1.64,0,2.64.72,2.64,1.88,0,1.22-1.12,1.94-2.64,2.2a14.952,14.952,0,0,1-2.48.14l1.1,3.1A18.539,18.539,0,0,0,58.58.7c3.4-.86,4.46-2.76,4.46-5.08,0-2.92-2.6-4.54-5.72-4.54a16.727,16.727,0,0,0-3.48.42Zm4.42-2.62A36.654,36.654,0,0,1,63.2-9.04l1.42-2.44a48.186,48.186,0,0,0-5.06-2.74Zm16.2,9.1c0,1.02-.54,1.3-1.56,1.3s-1.68-.34-1.68-1c0-.56.64-.98,1.74-.98a9.049,9.049,0,0,1,1.48.12C74.46-3.1,74.46-2.92,74.46-2.78Zm8.3.38a15.541,15.541,0,0,0-5.42-2.94c-.04-.64-.08-1.3-.12-1.92,1.9-.06,3.36-.18,5.1-.36l-.02-2.82c-1.52.18-3.1.36-5.14.46l.02-1.64c1.9-.08,3.44-.24,4.62-.36l-.06-2.74a44.771,44.771,0,0,1-4.52.48l.02-.6c.02-.46.08-1.02.14-1.44H74.14a9.518,9.518,0,0,1,.12,1.44v.68h-.98a24.824,24.824,0,0,1-4.1-.38l.02,2.72a30.665,30.665,0,0,0,4.1.3h.94L74.22-9.9h-.88a31.784,31.784,0,0,1-4.66-.38l-.02,2.82c1.26.16,3.58.26,4.64.26h.96l.06,1.32c-.32-.02-.64-.04-.96-.04-3.16,0-5.06,1.5-5.06,3.62,0,2.2,1.74,3.52,5.08,3.52C76,1.22,77.5-.04,77.5-1.9v-.4A15.376,15.376,0,0,1,81.04.28Zm8.36-13.82a19.883,19.883,0,0,1-.38,4.14c-.88.06-1.7.12-2.28.14a22.056,22.056,0,0,1-2.3,0l.26,3.22c.66-.12,1.8-.28,2.44-.36.28-.04.72-.1,1.24-.18A28.789,28.789,0,0,1,86.2-.32L89.34.94C91.02-1.78,92.5-6.54,93.3-9.62c.36-.02.7-.04.92-.04,1.24,0,1.84.18,1.84,1.62a14.133,14.133,0,0,1-.74,5.08,1.343,1.343,0,0,1-1.34.76,12.569,12.569,0,0,1-2.42-.42L92.08.54a11.762,11.762,0,0,0,2.4.28A3.391,3.391,0,0,0,97.94-1.1c.84-1.76,1.1-4.94,1.1-7.26,0-2.96-1.5-4.04-3.78-4.04-.36,0-.82.02-1.34.06.12-.52.24-1.06.34-1.6.12-.56.28-1.3.42-1.9Zm7.5,3.28a22.371,22.371,0,0,1,3.24,7.76l3.06-1.42a36.73,36.73,0,0,0-3.4-7.54Zm21.92.82.04-1.8c.02-.58.08-1.56.14-1.86H117.5a18.873,18.873,0,0,1,.16,2v1.9c-1.62.14-3.34.3-4.88.44.02-.6.02-1.12.02-1.46a15.766,15.766,0,0,1,.14-2.3h-3.38a18,18,0,0,1,.18,2.48v1.58l-1.1.1c-1.16.1-2.18.14-2.7.14l.3,3.04c.52-.08,1.96-.3,2.6-.38l.9-.1c0,1.78,0,3.6.02,4.44.08,3.58.8,4.68,6.24,4.68a55.433,55.433,0,0,0,5.58-.32l.12-3.3a37.034,37.034,0,0,1-5.94.54c-2.72,0-2.96-.26-3-2.1-.02-.88-.02-2.58,0-4.26,1.54-.16,3.26-.32,4.86-.46-.02.76-.06,1.44-.12,1.92-.04.34-.2.4-.54.4a14.192,14.192,0,0,1-1.74-.22l-.06,2.62a31.127,31.127,0,0,0,3.18.32c1.08,0,1.62-.26,1.84-1.4a28.281,28.281,0,0,0,.28-3.86c.44-.02.82-.04,1.16-.06.54-.02,1.74-.06,2.12-.04v-2.92c-.66.06-1.56.12-2.1.16Zm21.74-1.66a1.067,1.067,0,0,1-1.06-1.06,1.067,1.067,0,0,1,1.06-1.06,1.067,1.067,0,0,1,1.06,1.06A1.067,1.067,0,0,1,142.28-13.78Zm-12.72-.7c-.66,0-1.98-.1-2.6-.18v3.42c.52-.04,1.62-.1,2.6-.1h8.8a11.235,11.235,0,0,1-2.2,5.16,13.088,13.088,0,0,1-7.86,4.62l2.64,2.9a16.4,16.4,0,0,0,8.14-5.62,21.073,21.073,0,0,0,3.02-7.24c.06-.24.14-.54.24-.84a2.508,2.508,0,0,0,2.42-2.48,2.492,2.492,0,0,0-2.48-2.48,2.492,2.492,0,0,0-2.48,2.48,1.14,1.14,0,0,0,.02.26,10.424,10.424,0,0,1-1.44.1Zm31.86,3.66a4.659,4.659,0,0,1-1.68.24h-9.52c-.68,0-1.62-.06-2.54-.14V-7.6c.9-.08,2.04-.1,2.54-.1h9.1a7.853,7.853,0,0,1-1.86,2.9,13.71,13.71,0,0,1-6.88,3.42L153,1.36a15.316,15.316,0,0,0,7.14-4.42,15.428,15.428,0,0,0,2.98-5.46,7.767,7.767,0,0,1,.44-.96Zm-11.86-1.66c.6-.06,1.56-.08,2.24-.08h7.54c.76,0,1.84.04,2.4.08V-15.6a22.45,22.45,0,0,1-2.36.12H151.8a19.174,19.174,0,0,1-2.24-.12Zm20.6-3.04-2.3,2.46a41.685,41.685,0,0,1,5.02,4.38l2.48-2.54A40.353,40.353,0,0,0,170.16-15.52ZM167.2-2.24l2.06,3.2a21.342,21.342,0,0,0,7.16-2.64,21.628,21.628,0,0,0,7.78-7.58l-1.88-3.42a19.326,19.326,0,0,1-7.64,8A20.581,20.581,0,0,1,167.2-2.24Z" transform="translate(-0.76 17.32)" fill="#333"/>
</svg>
