<svg xmlns="http://www.w3.org/2000/svg" width="520" height="280" viewBox="0 0 520 280">
  <g id="グループ_5986" data-name="グループ 5986" transform="translate(0 -10.162)">
    <g id="グループ_5985" data-name="グループ 5985" transform="translate(0 17.13)">
      <g id="グループ_5987" data-name="グループ 5987">
        <path id="パス_29973" data-name="パス 29973" d="M632.74,418.4h0a18.62,18.62,0,0,1-16.006-9.346c-5.584-9.362-2.956-21.806,5.86-27.738a17.975,17.975,0,0,1,18.721-.928,1.274,1.274,0,0,1,.608.759,1.367,1.367,0,0,1-.08.993l-7.4,15,15.93-.7a1.181,1.181,0,0,1,.879.346,1.329,1.329,0,0,1,.387.908,20.564,20.564,0,0,1-8.79,17.579,18.071,18.071,0,0,1-10.11,3.123m-.039-37.618a15.742,15.742,0,0,0-8.8,2.718c-7.681,5.169-9.972,16.013-5.105,24.171a16.226,16.226,0,0,0,13.948,8.143h0a15.74,15.74,0,0,0,8.807-2.721,17.852,17.852,0,0,0,7.649-14.011l-16.759.732a1.2,1.2,0,0,1-1.078-.6,1.36,1.36,0,0,1-.051-1.291l7.782-15.78a15.83,15.83,0,0,0-6.391-1.361" transform="translate(-197.807 -153.208)" fill="#575b64"/>
        <path id="パス_29974" data-name="パス 29974" d="M673.9,381.479a17.23,17.23,0,0,0-6.6-6.383l-.422.855L659.3,391.3l16.3-.712.908-.041a18.62,18.62,0,0,0-2.613-9.064" transform="translate(-215.615 -152.113)" fill="gold"/>
        <path id="パス_29975" data-name="パス 29975" d="M658.523,391.881a1.2,1.2,0,0,1-1.029-.6,1.36,1.36,0,0,1-.05-1.292l7.992-16.2a1.184,1.184,0,0,1,1.629-.551,18.549,18.549,0,0,1,7.078,6.843,20.03,20.03,0,0,1,2.8,9.72,1.262,1.262,0,0,1-1.165,1.328l-17.207.752h-.05m8.489-15.718-6.433,13.042,13.852-.605a17.294,17.294,0,0,0-2.344-7.137,16.178,16.178,0,0,0-5.075-5.3" transform="translate(-214.832 -151.406)" fill="#575b64"/>
        <path id="パス_29979" data-name="パス 29979" d="M342.935,469.256l.5-.24v-14.16l-.5-.225h-35.8v14.625Z" transform="translate(-117.406 -424.841)" fill="#f77ee6"/>
        <path id="パス_29980" data-name="パス 29980" d="M342.153,469.841h-35.8a1.257,1.257,0,0,1-1.217-1.293V453.924a1.256,1.256,0,0,1,1.217-1.293h35.8a1.166,1.166,0,0,1,.474.1l15.773,7.075a1.326,1.326,0,0,1,.027,2.37l-15.773,7.55a1.162,1.162,0,0,1-.5.114m-34.587-2.586h34.325l12.992-6.219-12.976-5.82H307.566Z" transform="translate(-116.624 -424.134)" fill="#575b64"/>
        <path id="パス_29981" data-name="パス 29981" d="M379.992,467.433a1.257,1.257,0,0,1-1.217-1.293v-4.8a1.22,1.22,0,1,1,2.435,0v4.8a1.257,1.257,0,0,1-1.217,1.293" transform="translate(-145.444 -426.757)" fill="#575b64"/>
        <path id="パス_29982" data-name="パス 29982" d="M363.916,469.981a1.257,1.257,0,0,1-1.217-1.293V454.319a1.22,1.22,0,1,1,2.435,0v14.369a1.257,1.257,0,0,1-1.217,1.293" transform="translate(-139.153 -424.274)" fill="#575b64"/>
        <path id="パス_30013" data-name="パス 30013" d="M521.885,461.252a1.257,1.257,0,0,1-1.217-1.293v-11.3a1.219,1.219,0,1,1,2.435,0v11.3a1.257,1.257,0,0,1-1.217,1.293" transform="translate(-163.902 -190.079)" fill="#575b64"/>
        <path id="パス_30014" data-name="パス 30014" d="M524.134,442.847H506.5a1.219,1.219,0,0,1-1.125-.8,1.353,1.353,0,0,1,.264-1.409l8.81-9.354a1.168,1.168,0,0,1,1.722,0l8.713,9.252a1.321,1.321,0,0,1,.465,1.016,1.256,1.256,0,0,1-1.217,1.293m-14.693-2.586h11.742l-5.87-6.233Z" transform="translate(-157.882 -184.258)" fill="#575b64"/>
        <path id="パス_30015" data-name="パス 30015" d="M547.923,447.262a1.257,1.257,0,0,1-1.217-1.293V409.1a1.219,1.219,0,1,1,2.435,0V445.97a1.257,1.257,0,0,1-1.217,1.293" transform="translate(-174.092 -176.089)" fill="#575b64"/>
        <path id="パス_30016" data-name="パス 30016" d="M550.172,403.291H532.541a1.219,1.219,0,0,1-1.125-.8,1.353,1.353,0,0,1,.264-1.409l8.808-9.357a1.2,1.2,0,0,1,1.722,0l8.714,9.254a1.321,1.321,0,0,1,.465,1.016,1.256,1.256,0,0,1-1.217,1.293m-14.692-2.586h11.741l-5.871-6.235Z" transform="translate(-168.072 -170.275)" fill="#575b64"/>
        <path id="パス_30017" data-name="パス 30017" d="M574.975,456.23a1.257,1.257,0,0,1-1.217-1.293V434.458a1.22,1.22,0,1,1,2.435,0v20.479a1.257,1.257,0,0,1-1.217,1.293" transform="translate(-184.679 -185.056)" fill="#575b64"/>
        <path id="パス_30018" data-name="パス 30018" d="M577.225,428.645H559.593a1.219,1.219,0,0,1-1.125-.8,1.353,1.353,0,0,1,.264-1.409l8.81-9.356a1.168,1.168,0,0,1,1.722,0l8.713,9.254a1.321,1.321,0,0,1,.465,1.016,1.257,1.257,0,0,1-1.217,1.293m-14.692-2.586h11.741l-5.87-6.235Z" transform="translate(-178.659 -179.235)" fill="#575b64"/>
        <path id="パス_30019" data-name="パス 30019" d="M557.269,467.433H508.7a1.3,1.3,0,0,1,0-2.586h48.574a1.3,1.3,0,0,1,0,2.586" transform="translate(-158.74 -196.259)" fill="#575b64"/>
        <path id="パス_30020" data-name="パス 30020" d="M127.251,208.6c-11.771,0-21.346-10.17-21.346-22.672s9.575-22.672,21.346-22.672,21.348,10.17,21.348,22.672S139.023,208.6,127.251,208.6m0-42.758c-10.429,0-18.913,9.011-18.913,20.086s8.484,20.086,18.913,20.086,18.914-9.011,18.914-20.086-8.485-20.086-18.914-20.086" transform="translate(-41.446 -75.371)" fill="#575b64"/>
        <path id="パス_30021" data-name="パス 30021" d="M67.507,201.681H46.6a7.414,7.414,0,0,1,0-14.8h20.9Z" transform="translate(-15.511 -83.725)" fill="#5096ff"/>
        <path id="パス_30022" data-name="パス 30022" d="M66.724,202.266H45.82a8.709,8.709,0,0,1,0-17.386h20.9a1.257,1.257,0,0,1,1.217,1.293v14.8a1.257,1.257,0,0,1-1.217,1.293m-20.9-14.8a6.118,6.118,0,0,0,0,12.215H65.507V187.466Z" transform="translate(-14.728 -83.018)" fill="#575b64"/>
        <path id="パス_30023" data-name="パス 30023" d="M97.607,198.913H86.766a1.3,1.3,0,0,1,0-2.586H97.607a1.3,1.3,0,0,1,0,2.586" transform="translate(-33.48 -87.065)" fill="#575b64"/>
        <g id="グループ_5989" data-name="グループ 5989" transform="translate(74.147 6.583)">
          <path id="パス_30033" data-name="パス 30033" d="M198.347,109.044a10.3,10.3,0,0,1-10.291-10.29v-2.5l-28.42.082h0a1.231,1.231,0,0,1,0-2.461l29.654-.086h0a1.231,1.231,0,0,1,1.231,1.231v3.739a7.83,7.83,0,0,0,15.66,0V90.79a1.231,1.231,0,1,1,2.461,0v7.964a10.3,10.3,0,0,1-10.292,10.29" transform="translate(-158.402 -46.624)" fill="#575b64"/>
          <g id="グループ_5988" data-name="グループ 5988" transform="translate(0.084)">
            <path id="パス_30024" data-name="パス 30024" d="M203.612,119.926H173.87a1.231,1.231,0,1,1,0-2.461h29.742a1.231,1.231,0,1,1,0,2.461" transform="translate(-163.953 -57.359)" fill="#575b64"/>
            <path id="パス_30025" data-name="パス 30025" d="M300.231,36.309v-6.8a7.734,7.734,0,0,0-15.467,0v6.8Z" transform="translate(-207.096 -20.551)" fill="gold"/>
            <path id="パス_30026" data-name="パス 30026" d="M299.462,36.77H283.995a1.231,1.231,0,0,1-1.231-1.231v-6.8a8.964,8.964,0,0,1,17.928,0v6.8a1.231,1.231,0,0,1-1.231,1.231m-14.237-2.461h13.006V28.744a6.5,6.5,0,0,0-13.006,0Z" transform="translate(-206.327 -19.781)" fill="#575b64"/>
            <path id="パス_30027" data-name="パス 30027" d="M229.918,36.77a1.231,1.231,0,0,1-1.231-1.231v-6.8a8.974,8.974,0,0,1,8.963-8.963h33.275a1.231,1.231,0,0,1,0,2.461H237.65a6.509,6.509,0,0,0-6.5,6.5v6.8a1.231,1.231,0,0,1-1.231,1.231" transform="translate(-185.524 -19.781)" fill="#575b64"/>
            <path id="パス_30028" data-name="パス 30028" d="M168.829,112.151a10.3,10.3,0,0,1-10.29-10.29V98.866a1.231,1.231,0,1,1,2.461,0v2.995a7.838,7.838,0,0,0,7.829,7.829,1.231,1.231,0,0,1,0,2.461" transform="translate(-158.539 -49.73)" fill="#575b64"/>
            <path id="パス_30029" data-name="パス 30029" d="M271.428,93.885a1.231,1.231,0,0,1,0-2.461,6.51,6.51,0,0,0,6.5-6.5v-6.8a1.231,1.231,0,0,1,2.461,0v6.8a8.973,8.973,0,0,1-8.963,8.963" transform="translate(-201.492 -41.752)" fill="#575b64"/>
            <path id="パス_30030" data-name="パス 30030" d="M258.29,91.325a8.974,8.974,0,0,1-8.963-8.963l-.185-4.29a5.317,5.317,0,1,0-10.634-.053v5.753a1.231,1.231,0,0,1-2.461,0V78.019a7.778,7.778,0,1,1,15.556,0l.185,4.29a6.5,6.5,0,1,0,13.005.053v-6.8a1.231,1.231,0,0,1,2.461,0v6.8a8.973,8.973,0,0,1-8.963,8.963" transform="translate(-188.355 -39.192)" fill="#575b64"/>
            <path id="パス_30031" data-name="パス 30031" d="M189.22,87.336a1.231,1.231,0,0,1-1.231-1.231V78.02a7.787,7.787,0,0,1,7.779-7.778,1.231,1.231,0,0,1,0,2.461,5.323,5.323,0,0,0-5.318,5.316v8.086a1.231,1.231,0,0,1-1.231,1.231" transform="translate(-169.868 -39.193)" fill="#575b64"/>
            <path id="パス_30032" data-name="パス 30032" d="M283.995,66.469a1.231,1.231,0,0,1-1.231-1.231V44.623a1.231,1.231,0,1,1,2.461,0V65.238a1.231,1.231,0,0,1-1.231,1.231" transform="translate(-206.327 -28.864)" fill="#575b64"/>
            <path id="パス_30034" data-name="パス 30034" d="M229.511,72.7H199.52a1.231,1.231,0,0,1,0-2.461h29.991a1.231,1.231,0,0,1,0,2.461" transform="translate(-173.83 -39.192)" fill="#575b64"/>
            <path id="パス_30035" data-name="パス 30035" d="M229.918,61.44a1.231,1.231,0,0,1-1.231-1.231V44.623a1.231,1.231,0,1,1,2.461,0V60.209a1.231,1.231,0,0,1-1.231,1.231" transform="translate(-185.524 -28.864)" fill="#575b64"/>
            <path id="パス_30036" data-name="パス 30036" d="M259.693,102.93H239.61a1.231,1.231,0,0,1,0-2.461h20.083a1.231,1.231,0,0,1,0,2.461" transform="translate(-189.252 -50.821)" fill="#575b64"/>
            <path id="パス_30037" data-name="パス 30037" d="M259.336,45.3h-16a1.231,1.231,0,0,1,0-2.461h16a1.231,1.231,0,0,1,0,2.461" transform="translate(-190.687 -28.65)" fill="#575b64"/>
            <path id="パス_30038" data-name="パス 30038" d="M259.336,56.076h-16a1.231,1.231,0,0,1,0-2.461h16a1.231,1.231,0,0,1,0,2.461" transform="translate(-190.687 -32.797)" fill="#575b64"/>
          </g>
        </g>
        <path id="パス_30049" data-name="パス 30049" d="M89.481,126.933a1.257,1.257,0,0,1-1.217-1.293v-5.225H83.305a5.433,5.433,0,0,1-5.256-5.584l-.042-5.575H73.326a1.2,1.2,0,0,1-1.021-.588,1.362,1.362,0,0,1-.093-1.229l5.7-13.676a11.485,11.485,0,0,1,.011-3.191c.041-.414.083-.836.1-1.273.509-10.534,8.618-17.889,19.719-17.889,11.887,0,19.536,7.448,20.458,19.925.516,7-2.616,13.6-3.587,15.451-2.353,4.82-3.761,9.436-3.948,12.965-.009,1.372,0,2.642.013,4.69l.007,1.189a1.258,1.258,0,0,1-1.209,1.3h-.008a1.256,1.256,0,0,1-1.217-1.284l-.007-1.188c-.013-2.064-.022-3.343-.011-4.79.148-2.812,1-7.48,4.237-14.107.905-1.728,3.767-7.745,3.3-14.025C114.956,80.392,108.384,74,97.749,74,88.01,74,80.9,80.345,80.462,89.432c-.023.483-.069.953-.114,1.412a8.053,8.053,0,0,0,.02,2.727,1.367,1.367,0,0,1-.065.852L75.2,106.671h4.02a1.256,1.256,0,0,1,1.217,1.282l.051,6.867a2.92,2.92,0,0,0,2.822,3.008h6.082a1.19,1.19,0,0,1,.932.461l.094.118a1.342,1.342,0,0,1,.285.832v6.4a1.256,1.256,0,0,1-1.217,1.293" transform="translate(192.77 -71.412)" fill="#575b64"/>
        <path id="パス_30050" data-name="パス 30050" d="M117,93.984a7.494,7.494,0,1,0-14.961,0A8.184,8.184,0,0,0,104,99.346c.158.184.829,1.022.977,1.281a9.887,9.887,0,0,1,1.313,4.952h6.451a9.885,9.885,0,0,1,1.349-5.014c.139-.239.967-1.232,1.2-1.53A8.215,8.215,0,0,0,117,93.984" transform="translate(181.059 -76.584)" fill="gold"/>
        <path id="パス_30051" data-name="パス 30051" d="M111.958,106.165h-6.451a1.257,1.257,0,0,1-1.217-1.293,8.566,8.566,0,0,0-1.134-4.277c-.106-.173-.668-.886-.837-1.083a9.528,9.528,0,0,1-2.284-6.236,8.714,8.714,0,1,1,17.4,0,9.6,9.6,0,0,1-1.987,5.874c-.072.094-.206.259-.359.448-.215.266-.663.819-.755.961a8.546,8.546,0,0,0-1.153,4.313,1.257,1.257,0,0,1-1.217,1.293m-5.307-2.586h4.162a11.2,11.2,0,0,1,1.461-4.405,13.078,13.078,0,0,1,.964-1.26c.138-.171.259-.32.326-.407A6.916,6.916,0,0,0,115,93.277a6.275,6.275,0,1,0-12.527,0,6.858,6.858,0,0,0,1.644,4.489,16.96,16.96,0,0,1,1.121,1.482,11.217,11.217,0,0,1,1.418,4.332" transform="translate(181.841 -75.877)" fill="#575b64"/>
        <path id="パス_30052" data-name="パス 30052" d="M112.531,122.827h-2.279a3.547,3.547,0,0,1-3.369-3.694v-3.178a1.22,1.22,0,1,1,2.435,0v3.178a1.034,1.034,0,0,0,.934,1.108h2.279a1.033,1.033,0,0,0,.934-1.108v-3.178a1.22,1.22,0,1,1,2.435,0v3.178a3.547,3.547,0,0,1-3.369,3.694" transform="translate(179.161 -86.706)" fill="#575b64"/>
        <path id="パス_30053" data-name="パス 30053" d="M361.554,118.715H344.5a1.3,1.3,0,0,1,0-2.586h17.054a1.3,1.3,0,0,1,0,2.586" transform="translate(0.337 -75.748)" fill="#575b64"/>
        <path id="パス_30054" data-name="パス 30054" d="M342.492,61.95V74.509c0,5.841,4.46,10.578,9.96,10.578s9.96-4.737,9.96-10.578V61.95Z" transform="translate(0.647 -56.59)" fill="#f77ee6"/>
        <path id="パス_30055" data-name="パス 30055" d="M351.67,85.673c-6.164,0-11.178-5.326-11.178-11.871V61.243a1.257,1.257,0,0,1,1.217-1.293h19.92a1.257,1.257,0,0,1,1.217,1.293V73.8c0,6.545-5.014,11.871-11.177,11.871m-8.743-23.137V73.8a8.759,8.759,0,1,0,17.486,0V62.536Z" transform="translate(1.429 -55.883)" fill="#575b64"/>
        <path id="パス_30056" data-name="パス 30056" d="M351.67,85.673c-6.164,0-11.178-5.326-11.178-11.871V61.243a1.257,1.257,0,0,1,1.217-1.293h19.92a1.257,1.257,0,0,1,1.217,1.293V73.8c0,6.545-5.014,11.871-11.177,11.871m-8.743-23.137V73.8a8.759,8.759,0,1,0,17.486,0V62.536Z" transform="translate(1.429 -55.883)" fill="#575b64"/>
        <path id="パス_30057" data-name="パス 30057" d="M358.074,111.227a1.257,1.257,0,0,1-1.217-1.293v-12.9a1.219,1.219,0,1,1,2.435,0v12.9a1.257,1.257,0,0,1-1.217,1.293" transform="translate(-4.975 -68.539)" fill="#575b64"/>
        <path id="パス_30058" data-name="パス 30058" d="M372.8,83A1.235,1.235,0,0,1,371.619,82a1.3,1.3,0,0,1,.917-1.547c7.258-1.75,8.868-8.5,9.225-11.348l-6.27-.091a1.26,1.26,0,0,1-1.2-1.31,1.278,1.278,0,0,1,1.234-1.275l7.571.109a1.258,1.258,0,0,1,1.2,1.293c0,.124-.128,12.468-11.221,15.144A1.149,1.149,0,0,1,372.8,83" transform="translate(-10.741 -58.173)" fill="#575b64"/>
        <path id="パス_30059" data-name="パス 30059" d="M336.884,83a1.145,1.145,0,0,1-.271-.032c-11.091-2.675-11.22-15.02-11.22-15.144a1.258,1.258,0,0,1,1.2-1.293l7.571-.109a1.3,1.3,0,0,1,.032,2.586l-6.278.091c.336,2.85,1.9,9.58,9.233,11.348A1.3,1.3,0,0,1,338.069,82,1.235,1.235,0,0,1,336.884,83" transform="translate(7.338 -58.173)" fill="#575b64"/>
        <path id="パス_30060" data-name="パス 30060" d="M96.878,288.564a1.173,1.173,0,0,1-.841-.359L83.4,275.38a1.349,1.349,0,0,1-.039-1.827,1.167,1.167,0,0,1,1.721-.041l12.634,12.825a1.349,1.349,0,0,1,.039,1.827,1.181,1.181,0,0,1-.88.4" transform="translate(-37.86 -114.231)" fill="#575b64"/>
        <path id="パス_30061" data-name="パス 30061" d="M85.638,319.683c-.107,0-.215,0-.324-.012A5.457,5.457,0,0,1,81.824,318c-.53-.538-2.366-2.4-2.895-2.939a1.349,1.349,0,0,1-.041-1.827,1.168,1.168,0,0,1,1.721-.044c.53.536,2.368,2.4,2.9,2.942a3.093,3.093,0,0,0,1.963.965A1.855,1.855,0,0,0,87,316.523c.818-.909.58-2.567-.531-3.694l-2.9-2.939a1.351,1.351,0,0,1-.038-1.828,1.169,1.169,0,0,1,1.721-.041l2.894,2.937c2.082,2.113,2.355,5.411.61,7.352a4.127,4.127,0,0,1-3.126,1.374" transform="translate(-36.109 -126.434)" fill="#575b64"/>
        <path id="パス_30062" data-name="パス 30062" d="M93.493,311.45a5.4,5.4,0,0,1-3.808-1.681l-2.9-2.94A1.351,1.351,0,0,1,86.752,305a1.169,1.169,0,0,1,1.721-.039l2.894,2.938c1.112,1.128,2.682,1.306,3.5.4s.579-2.565-.532-3.694c-.447-.452-1.84-1.866-2.574-2.612l-.321-.326a1.35,1.35,0,0,1-.039-1.827,1.168,1.168,0,0,1,1.722-.041l.321.326,2.572,2.61c2.083,2.115,2.357,5.412.612,7.35a4.154,4.154,0,0,1-3.134,1.368" transform="translate(-39.186 -123.525)" fill="#575b64"/>
        <path id="パス_30063" data-name="パス 30063" d="M101.357,303.224a5.4,5.4,0,0,1-3.806-1.682l-2.9-2.94a1.351,1.351,0,0,1-.037-1.829,1.169,1.169,0,0,1,1.721-.039l2.895,2.939c1.111,1.128,2.68,1.3,3.5.4s.578-2.566-.533-3.694c-.528-.538-2.366-2.4-2.894-2.938a1.349,1.349,0,0,1-.04-1.827,1.167,1.167,0,0,1,1.721-.042l2.9,2.94c2.079,2.112,2.353,5.408.609,7.348a4.154,4.154,0,0,1-3.134,1.367" transform="translate(-42.263 -120.617)" fill="#575b64"/>
        <path id="パス_30064" data-name="パス 30064" d="M26.355,274.891a3.684,3.684,0,0,1-2.639-1.125,4.237,4.237,0,0,1-.122-5.735,3.664,3.664,0,0,1,5.4-.128,4.241,4.241,0,0,1,.122,5.734,3.731,3.731,0,0,1-2.761,1.253m0-5.527a1.336,1.336,0,0,0-1,.455A1.537,1.537,0,0,0,25.4,271.9a1.359,1.359,0,0,0,1.957-.047,1.537,1.537,0,0,0-.043-2.078,1.34,1.34,0,0,0-.958-.409" transform="translate(-14.187 -111.978)" fill="#575b64"/>
        <path id="パス_30065" data-name="パス 30065" d="M38.361,309.278a4.55,4.55,0,0,1-3.241-1.393,5.036,5.036,0,0,1-.267-6.8c.41-.454,1.827-2.027,2.233-2.48a1.168,1.168,0,0,1,1.721-.043,1.349,1.349,0,0,1,.041,1.828c-.407.453-1.825,2.029-2.235,2.482a2.334,2.334,0,0,0,.19,3.144,2.017,2.017,0,0,0,2.966.058l2.23-2.48a1.168,1.168,0,0,1,1.721-.044,1.35,1.35,0,0,1,.042,1.828l-2.233,2.482a4.231,4.231,0,0,1-3.167,1.419" transform="translate(-18.54 -123.09)" fill="#575b64"/>
        <path id="パス_30066" data-name="パス 30066" d="M46.669,317.221a4.547,4.547,0,0,1-3.24-1.392,5.111,5.111,0,0,1-1.459-3.363,4.767,4.767,0,0,1,1.195-3.438l2.227-2.478a1.167,1.167,0,0,1,1.721-.046,1.35,1.35,0,0,1,.044,1.827l-2.23,2.481a2.112,2.112,0,0,0-.525,1.529,2.464,2.464,0,0,0,.709,1.619,2.02,2.02,0,0,0,2.966.056c.408-.453,1.825-2.028,2.233-2.48a1.168,1.168,0,0,1,1.721-.039,1.351,1.351,0,0,1,.037,1.828c-.407.451-1.822,2.024-2.23,2.477a4.236,4.236,0,0,1-3.169,1.419" transform="translate(-21.791 -125.898)" fill="#575b64"/>
        <path id="パス_30067" data-name="パス 30067" d="M54.982,325.165a4.554,4.554,0,0,1-3.242-1.392,5.039,5.039,0,0,1-.265-6.8l2.234-2.48a1.168,1.168,0,0,1,1.721-.039,1.35,1.35,0,0,1,.037,1.828l-2.231,2.478a2.336,2.336,0,0,0,.187,3.147,2.018,2.018,0,0,0,2.966.056c.409-.453,1.826-2.028,2.232-2.48a1.167,1.167,0,0,1,1.721-.042,1.35,1.35,0,0,1,.04,1.827c-.407.452-1.826,2.03-2.234,2.482a4.227,4.227,0,0,1-3.165,1.418" transform="translate(-25.044 -128.708)" fill="#575b64"/>
        <path id="パス_30068" data-name="パス 30068" d="M63.294,333.112h-.015a4.538,4.538,0,0,1-3.228-1.4,5.035,5.035,0,0,1-.266-6.8c.409-.453,1.825-2.025,2.231-2.478a1.168,1.168,0,0,1,1.721-.043,1.349,1.349,0,0,1,.041,1.827c-.407.453-1.827,2.03-2.234,2.482a2.333,2.333,0,0,0,.189,3.145,2.19,2.19,0,0,0,1.553.679A1.864,1.864,0,0,0,64.7,329.9l2.229-2.479a1.168,1.168,0,0,1,1.721-.044,1.351,1.351,0,0,1,.042,1.828l-2.231,2.48a4.213,4.213,0,0,1-3.167,1.423" transform="translate(-28.296 -131.517)" fill="#575b64"/>
        <path id="パス_30069" data-name="パス 30069" d="M67.153,330.464a1.173,1.173,0,0,1-.841-.359,1.349,1.349,0,0,1-.038-1.827l2.232-2.478a2.336,2.336,0,0,0-.189-3.145,2.019,2.019,0,0,0-2.967-.055l-2.23,2.478a1.168,1.168,0,0,1-1.722.04,1.351,1.351,0,0,1-.037-1.828l2.23-2.478A4.356,4.356,0,0,1,70,320.784a5.038,5.038,0,0,1,.267,6.8l-2.234,2.479a1.181,1.181,0,0,1-.88.4" transform="translate(-29.249 -130.582)" fill="#575b64"/>
        <path id="パス_30070" data-name="パス 30070" d="M58.842,322.519a1.175,1.175,0,0,1-.841-.358,1.351,1.351,0,0,1-.04-1.828l2.233-2.481a2.334,2.334,0,0,0-.188-3.144,2.189,2.189,0,0,0-1.553-.679h-.006a1.867,1.867,0,0,0-1.407.622c-.337.372-1.346,1.5-1.925,2.137l-.308.343a1.166,1.166,0,0,1-1.721.041,1.35,1.35,0,0,1-.039-1.828l.308-.343,1.926-2.138a4.3,4.3,0,0,1,3.178-1.42,4.544,4.544,0,0,1,3.228,1.395,5.036,5.036,0,0,1,.265,6.8l-2.231,2.48a1.182,1.182,0,0,1-.881.4" transform="translate(-25.996 -127.771)" fill="#575b64"/>
        <path id="パス_30071" data-name="パス 30071" d="M50.532,314.578a1.175,1.175,0,0,1-.84-.358,1.349,1.349,0,0,1-.04-1.827l2.231-2.479a2.335,2.335,0,0,0-.185-3.147,2.02,2.02,0,0,0-2.968-.056l-2.23,2.479a1.167,1.167,0,0,1-1.721.042,1.349,1.349,0,0,1-.04-1.827l2.229-2.479a4.356,4.356,0,0,1,6.411-.028,5.036,5.036,0,0,1,.264,6.8l-2.231,2.478a1.179,1.179,0,0,1-.881.4" transform="translate(-22.744 -124.964)" fill="#575b64"/>
        <path id="パス_30072" data-name="パス 30072" d="M42.221,306.631a1.174,1.174,0,0,1-.842-.36,1.349,1.349,0,0,1-.037-1.827c.406-.45,1.822-2.023,2.23-2.478a2.115,2.115,0,0,0,.523-1.527,2.466,2.466,0,0,0-.71-1.619,2.185,2.185,0,0,0-1.552-.678,1.929,1.929,0,0,0-1.415.623l-2.228,2.478a1.168,1.168,0,0,1-1.721.044,1.351,1.351,0,0,1-.042-1.828l2.231-2.479a4.219,4.219,0,0,1,3.17-1.423h.013a4.537,4.537,0,0,1,3.228,1.395,5.114,5.114,0,0,1,1.459,3.362,4.77,4.77,0,0,1-1.194,3.439c-.408.454-1.827,2.031-2.234,2.481a1.179,1.179,0,0,1-.879.4" transform="translate(-19.492 -122.153)" fill="#575b64"/>
        <path id="パス_30073" data-name="パス 30073" d="M65.242,285.776c-.22,0-.357-.006-.39-.008a1.244,1.244,0,0,1-1.136-1.052L60.353,265.7a1.343,1.343,0,0,1,.36-1.178l9.569-9.611a7.152,7.152,0,0,1,10.509-.223l12.822,13.241a7.459,7.459,0,0,1,1.8,5.843,9.6,9.6,0,0,1-2.57,5.7l-2.361,2.509a1.168,1.168,0,0,1-1.722,0,1.35,1.35,0,0,1,0-1.828l2.371-2.52a6.913,6.913,0,0,0,1.858-4.112,4.818,4.818,0,0,0-1.1-3.764L79.072,256.524a4.828,4.828,0,0,0-7.1.257l-9.1,9.14,3.053,17.252c1.509-.1,3.873-.559,4.969-2.045.746-1.012.859-2.475.335-4.351-2.189-7.828,2.189-10.428,3.584-11.038a1.192,1.192,0,0,1,1.589.7,1.322,1.322,0,0,1-.662,1.688c-1.784.781-3.61,2.789-2.177,7.913.763,2.728.508,4.979-.758,6.688-2.086,2.818-6.258,3.047-7.559,3.047" transform="translate(-28.978 -106.929)" fill="#575b64"/>
        <path id="パス_30074" data-name="パス 30074" d="M79.3,327.91c-.107,0-.214,0-.323-.011a5.468,5.468,0,0,1-3.492-1.676l-.9-.91a1.352,1.352,0,0,1-.038-1.829,1.168,1.168,0,0,1,1.721-.04l.895.908a3.1,3.1,0,0,0,1.967.966,1.832,1.832,0,0,0,1.533-.568,2.1,2.1,0,0,0,.467-1.653,3.447,3.447,0,0,0-1-2.041l-2.9-2.94a1.35,1.35,0,0,1-.038-1.827,1.167,1.167,0,0,1,1.721-.04l2.894,2.937a6.1,6.1,0,0,1,1.736,3.628,4.742,4.742,0,0,1-1.127,3.722A4.124,4.124,0,0,1,79.3,327.91" transform="translate(-34.41 -129.344)" fill="#575b64"/>
        <path id="パス_30075" data-name="パス 30075" d="M22.71,271.705a1.173,1.173,0,0,1-.841-.359L9.194,258.479a1.35,1.35,0,0,1-.038-1.827l21.9-24.334a1.168,1.168,0,0,1,1.721-.041l12.674,12.867a1.351,1.351,0,0,1,.039,1.828l-21.9,24.334a1.181,1.181,0,0,1-.88.4M11.757,257.5l10.915,11.081,20.22-22.464L31.977,235.04Z" transform="translate(-8.818 -99.651)" fill="#575b64"/>
        <path id="パス_30076" data-name="パス 30076" d="M105.71,266.886a1.178,1.178,0,0,1-.841-.359l-4.551-4.621a1.349,1.349,0,0,1-.039-1.827,1.168,1.168,0,0,1,1.721-.041l3.672,3.728,7.86-8.733L92.381,233.559l-7.861,8.733,3.362,3.412a1.351,1.351,0,0,1,.039,1.828,1.168,1.168,0,0,1-1.721.041l-4.241-4.306a1.35,1.35,0,0,1-.039-1.828l9.543-10.6a1.169,1.169,0,0,1,1.721-.041l22.911,23.26a1.35,1.35,0,0,1,.038,1.828l-9.542,10.6a1.185,1.185,0,0,1-.853.4h-.027" transform="translate(-37.294 -99.127)" fill="#575b64"/>
        <path id="パス_30077" data-name="パス 30077" d="M38.7,294.944a1.173,1.173,0,0,1-.841-.359L32.79,289.44a1.35,1.35,0,0,1-.039-1.827,1.167,1.167,0,0,1,1.721-.041l5.069,5.146a1.349,1.349,0,0,1,.039,1.827,1.181,1.181,0,0,1-.88.4" transform="translate(-18.053 -119.203)" fill="#575b64"/>
        <path id="パス_30078" data-name="パス 30078" d="M68.587,261.23a1.175,1.175,0,0,1-.841-.358l-4.193-4.255a1.35,1.35,0,0,1-.038-1.828,1.168,1.168,0,0,1,1.721-.041L69.428,259a1.349,1.349,0,0,1,.039,1.828,1.18,1.18,0,0,1-.88.4" transform="translate(-30.092 -107.596)" fill="#575b64"/>
        <path id="パス_30079" data-name="パス 30079" d="M30.984,269.089a1.178,1.178,0,0,1-.861-.379,1.35,1.35,0,0,1,0-1.828l2.518-2.674a1.166,1.166,0,0,1,1.721,0,1.35,1.35,0,0,1,0,1.828l-2.518,2.674a1.177,1.177,0,0,1-.861.379" transform="translate(-17.017 -110.934)" fill="#575b64"/>
        <path id="パス_30094" data-name="パス 30094" d="M649.83,92.754a11.528,11.528,0,0,1-11.079-9.46,3.713,3.713,0,0,1-2.94-3.71V75.872a3.738,3.738,0,0,1,2.674-3.651v-.243c0-6.643,5.089-12.048,11.346-12.048s11.343,5.4,11.343,12.048v.25a3.739,3.739,0,0,1,2.648,3.644v3.711a3.716,3.716,0,0,1-2.912,3.706,11.532,11.532,0,0,1-11.08,9.465M639.779,80.722a1.168,1.168,0,0,1,.717.248,1.306,1.306,0,0,1,.491.889,8.859,8.859,0,0,0,17.684,0,1.311,1.311,0,0,1,.485-.883,1.162,1.162,0,0,1,.937-.233,1.01,1.01,0,0,0,.184.018,1.148,1.148,0,0,0,1.11-1.18V75.872a1.148,1.148,0,0,0-1.11-1.18.992.992,0,0,0-.147.014,1.17,1.17,0,0,1-.971-.3,1.328,1.328,0,0,1-.421-.977V71.979a8.926,8.926,0,1,0-17.82,0v1.45a1.33,1.33,0,0,1-.42.977,1.177,1.177,0,0,1-.971.3,1.158,1.158,0,0,0-1.283,1.164v3.711a1.149,1.149,0,0,0,1.112,1.18.938.938,0,0,0,.192-.019,1.164,1.164,0,0,1,.231-.023" transform="translate(-248.826 -38.835)" fill="#575b64"/>
        <path id="パス_30095" data-name="パス 30095" d="M664.633,138.123H627.691a1.257,1.257,0,0,1-1.217-1.293V122.793c0-6.433,4.927-11.666,10.984-11.666h3.085v-4.634a1.219,1.219,0,1,1,2.435,0v5.927a1.257,1.257,0,0,1-1.217,1.293h-4.3a8.837,8.837,0,0,0-8.549,9.081v12.744h34.507V122.793a8.837,8.837,0,0,0-8.55-9.081h-4.3a1.256,1.256,0,0,1-1.217-1.293v-5.927a1.219,1.219,0,1,1,2.435,0v4.634h3.085c6.057,0,10.985,5.233,10.985,11.666V136.83a1.257,1.257,0,0,1-1.217,1.293" transform="translate(-245.172 -54.843)" fill="#575b64"/>
        <path id="パス_30096" data-name="パス 30096" d="M653.531,131.183h0a1.21,1.21,0,0,1-1.073-.683l-7.009-13.9a1.333,1.333,0,0,1,.5-1.75,1.182,1.182,0,0,1,1.648.529l5.936,11.771,5.937-11.771a1.181,1.181,0,0,1,1.648-.529,1.333,1.333,0,0,1,.5,1.75L654.6,130.5a1.21,1.21,0,0,1-1.073.683" transform="translate(-252.541 -58.201)" fill="#575b64"/>
        <path id="パス_30097" data-name="パス 30097" d="M643.073,78c-.327,0-.659-.008-1-.025a1.3,1.3,0,0,1,.111-2.583c8.752.425,12.522-5.545,12.678-5.8a1.2,1.2,0,0,1,1.234-.57,1.254,1.254,0,0,1,.976.983c.01.047,1.121,4.948,4.23,5.4a1.281,1.281,0,0,1,1.041,1.456,1.234,1.234,0,0,1-1.371,1.106c-2.993-.434-4.675-3.111-5.528-5.12A16.6,16.6,0,0,1,643.073,78" transform="translate(-250.822 -42.045)" fill="#575b64"/>
        <path id="パス_30098" data-name="パス 30098" d="M658.589,101.458H655.5a1.3,1.3,0,0,1,0-2.586h3.09a1.3,1.3,0,0,1,0,2.586" transform="translate(-256.055 -52.605)" fill="#575b64"/>
        <path id="パス_30099" data-name="パス 30099" d="M677.719,152.932a12.407,12.407,0,0,1-9.091-4,14.277,14.277,0,0,1,0-19.307,12.33,12.33,0,0,1,18.18,0,14.256,14.256,0,0,1,0,19.307,12.4,12.4,0,0,1-9.089,4m0-24.719a10.059,10.059,0,0,0-7.37,3.242,11.574,11.574,0,0,0,0,15.651,10,10,0,0,0,14.737,0,11.557,11.557,0,0,0,0-15.651,10.056,10.056,0,0,0-7.368-3.242" transform="translate(-260.198 -62.066)" fill="#575b64"/>
        <path id="パス_30100" data-name="パス 30100" d="M709.047,171.821a1.177,1.177,0,0,1-.861-.379l-10.329-10.969a1.35,1.35,0,0,1,0-1.828,1.167,1.167,0,0,1,1.721,0l10.329,10.969a1.35,1.35,0,0,1,0,1.828,1.177,1.177,0,0,1-.861.379" transform="translate(-272.968 -73.607)" fill="#575b64"/>
        <path id="パス_30101" data-name="パス 30101" d="M235.712,250.94s10.727,34.927-8.268,34.927H200.515c-18.995,0-8.268-34.927-8.268-34.927Z" transform="translate(-74.055 -106.377)" fill="#ff8e6f"/>
        <path id="パス_30102" data-name="パス 30102" d="M227.009,287.5H199.835c-4.4,0-7.71-1.622-9.853-4.823-6.268-9.367.086-29.072.36-29.906a1.2,1.2,0,0,1,1.55-.8,1.314,1.314,0,0,1,.749,1.646c-.063.192-6.216,19.279-.673,27.56,1.682,2.512,4.255,3.733,7.867,3.733h27.173c3.612,0,6.186-1.222,7.868-3.735,5.548-8.291-.611-27.366-.674-27.558a1.314,1.314,0,0,1,.749-1.646,1.2,1.2,0,0,1,1.55.8c.273.834,6.627,20.539.359,29.906-2.141,3.2-5.456,4.823-9.852,4.823" transform="translate(-73.272 -106.718)" fill="#575b64"/>
        <path id="パス_30103" data-name="パス 30103" d="M272.957,242.781c-7.3,0-13.855-4.537-17.115-11.841a1.328,1.328,0,0,1,.579-1.721,1.187,1.187,0,0,1,1.621.614c2.853,6.392,8.567,10.362,14.914,10.362,5.882,0,11.221-3.41,14.243-9a1.331,1.331,0,0,1-.288-.834,1.256,1.256,0,0,1,1.217-1.293c.3,0,.6.01.9.026a1.209,1.209,0,0,1,.985.627,1.364,1.364,0,0,1,.056,1.218c-3.26,7.3-9.819,11.84-17.115,11.84" transform="translate(-100.078 -98.643)" fill="#575b64"/>
        <path id="パス_30104" data-name="パス 30104" d="M465.156,234.637c-5.837,0-11.082-3.626-13.687-9.465a1.329,1.329,0,0,1,.579-1.722,1.188,1.188,0,0,1,1.621.615c2.2,4.926,6.6,7.986,11.487,7.986a12.53,12.53,0,0,0,10.885-6.78,1.345,1.345,0,0,1-.177-.672,1.256,1.256,0,0,1,1.217-1.293c.241,0,.481.008.721.021a1.207,1.207,0,0,1,.985.627,1.362,1.362,0,0,1,.056,1.218c-2.607,5.838-7.851,9.465-13.687,9.465" transform="translate(-176.637 -96.606)" fill="#575b64"/>
        <path id="パス_30105" data-name="パス 30105" d="M273.207,139.1a8.57,8.57,0,0,1-1.789-5.281,7.818,7.818,0,1,1,15.607,0,8.576,8.576,0,0,1-1.787,5.278Z" transform="translate(-106.22 -62.032)" fill="gold"/>
        <path id="パス_30106" data-name="パス 30106" d="M313.662,248.552a1.257,1.257,0,0,1-1.217-1.293v-7.467c0-7.4-5.667-13.417-12.633-13.417h-6.1a1.257,1.257,0,0,1-1.217-1.293v-7.942a1.22,1.22,0,1,1,2.435,0v6.649h4.883c8.309,0,15.068,7.179,15.068,16v7.467a1.257,1.257,0,0,1-1.217,1.293" transform="translate(-114.468 -93.968)" fill="#575b64"/>
        <path id="パス_30107" data-name="パス 30107" d="M240.422,248.552a1.257,1.257,0,0,1-1.217-1.293v-7.467c0-8.824,6.759-16,15.066-16h4.883v-6.649a1.219,1.219,0,1,1,2.435,0v7.942a1.257,1.257,0,0,1-1.217,1.293h-6.1c-6.965,0-12.632,6.019-12.632,13.417v7.467a1.257,1.257,0,0,1-1.217,1.293" transform="translate(-93.613 -93.968)" fill="#575b64"/>
        <path id="パス_30108" data-name="パス 30108" d="M274.872,205.826c-8.031,0-14.565-6.939-14.565-15.469V177.641a1.219,1.219,0,1,1,2.435,0v12.717c0,7.1,5.442,12.883,12.13,12.883S287,197.461,287,190.357V177.643a1.219,1.219,0,1,1,2.435,0v12.714c0,8.53-6.534,15.469-14.566,15.469" transform="translate(-101.872 -80.001)" fill="#575b64"/>
        <path id="パス_30109" data-name="パス 30109" d="M273.623,145.051c-9.117,0-16.507,7.849-16.507,17.532v3.993h19.779l4.2-4.816v4.816h9.037v-3.993c0-9.682-7.391-17.532-16.508-17.532" transform="translate(-100.623 -68.934)" fill="gold"/>
        <path id="パス_30110" data-name="パス 30110" d="M289.348,167.162h-9.037a1.257,1.257,0,0,1-1.217-1.293v-1.518l-2.09,2.4a1.184,1.184,0,0,1-.893.414H256.333a1.257,1.257,0,0,1-1.217-1.293v-3.993c0-10.38,7.951-18.824,17.724-18.824s17.725,8.445,17.725,18.824v3.993a1.257,1.257,0,0,1-1.217,1.293m-7.819-2.586h6.6v-2.7c0-8.954-6.859-16.239-15.29-16.239s-15.29,7.285-15.29,16.239v2.7h18.03l3.838-4.4a1.168,1.168,0,0,1,1.337-.325,1.294,1.294,0,0,1,.773,1.2Z" transform="translate(-99.84 -68.227)" fill="#575b64"/>
        <path id="パス_30111" data-name="パス 30111" d="M272.425,139.686a1.188,1.188,0,0,1-.939-.468,9.97,9.97,0,0,1-2.068-6.106c0-5.282,4.046-9.58,9.02-9.58s9.022,4.3,9.022,9.58a9.97,9.97,0,0,1-2.066,6.1,1.169,1.169,0,0,1-1.714.173,1.349,1.349,0,0,1-.163-1.82,7.277,7.277,0,0,0,1.508-4.454,6.6,6.6,0,1,0-13.172,0,7.275,7.275,0,0,0,1.509,4.458,1.349,1.349,0,0,1-.162,1.82,1.168,1.168,0,0,1-.775.3" transform="translate(-105.437 -61.325)" fill="#575b64"/>
        <path id="パス_30112" data-name="パス 30112" d="M271.1,190.546c-3.071,0-5.476-1.8-5.476-4.109s2.405-4.109,5.476-4.109,5.476,1.8,5.476,4.109-2.405,4.109-5.476,4.109m0-5.633c-1.828,0-3.041.917-3.041,1.524s1.213,1.524,3.041,1.524,3.041-.917,3.041-1.524-1.213-1.524-3.041-1.524" transform="translate(-103.953 -82.115)" fill="#575b64"/>
        <path id="パス_30113" data-name="パス 30113" d="M290.332,190.546c-3.071,0-5.477-1.8-5.477-4.109s2.406-4.109,5.477-4.109,5.476,1.8,5.476,4.109-2.405,4.109-5.476,4.109m0-5.633c-1.829,0-3.043.917-3.043,1.524s1.214,1.524,3.043,1.524,3.041-.917,3.041-1.524-1.213-1.524-3.041-1.524" transform="translate(-111.479 -82.115)" fill="#575b64"/>
        <path id="パス_30114" data-name="パス 30114" d="M284.035,189.07h-3.17a1.3,1.3,0,0,1,0-2.586h3.17a1.3,1.3,0,0,1,0,2.586" transform="translate(-109.44 -83.585)" fill="#575b64"/>
        <path id="パス_30115" data-name="パス 30115" d="M282.217,200.231a3.719,3.719,0,0,1-2.82-1.268,1.35,1.35,0,0,1,.071-1.827,1.168,1.168,0,0,1,1.72.076,1.506,1.506,0,0,0,2.057,0,1.168,1.168,0,0,1,1.72-.078,1.35,1.35,0,0,1,.074,1.827,3.717,3.717,0,0,1-2.822,1.268" transform="translate(-109.217 -87.231)" fill="#575b64"/>
        <path id="パス_30116" data-name="パス 30116" d="M284.26,211.457h-4.511a1.3,1.3,0,0,1,0-2.586h4.511a1.3,1.3,0,0,1,0,2.586" transform="translate(-109.004 -91.501)" fill="#575b64"/>
        <path id="パス_30117" data-name="パス 30117" d="M287.944,136.6a1.226,1.226,0,0,1-1.155-.888,1.312,1.312,0,0,1,.774-1.633l12.186-4.273a1.2,1.2,0,0,1,1.537.822,1.312,1.312,0,0,1-.774,1.633l-12.186,4.273a1.167,1.167,0,0,1-.382.065" transform="translate(-112.211 -63.521)" fill="#575b64"/>
        <path id="パス_30118" data-name="パス 30118" d="M260.7,147.061a1.226,1.226,0,0,1-1.155-.888,1.311,1.311,0,0,1,.774-1.632l6.735-2.362a1.2,1.2,0,0,1,1.537.822,1.311,1.311,0,0,1-.774,1.633L261.082,147a1.145,1.145,0,0,1-.382.066" transform="translate(-101.549 -67.895)" fill="#575b64"/>
        <path id="パス_30119" data-name="パス 30119" d="M311.218,132.1a3.89,3.89,0,1,1,3.656-3.883,3.779,3.779,0,0,1-3.656,3.883m0-5.18a1.3,1.3,0,1,0,1.222,1.3,1.262,1.262,0,0,0-1.222-1.3" transform="translate(-120.365 -61.608)" fill="#575b64"/>
        <path id="パス_30120" data-name="パス 30120" d="M614.941,248.217a1.257,1.257,0,0,1-1.217-1.293v-5.418a16.539,16.539,0,0,0-16.349-16.685h-7.739a1.257,1.257,0,0,1-1.217-1.293v-7.333a1.219,1.219,0,1,1,2.435,0v6.041h6.522a19.054,19.054,0,0,1,18.784,19.271v5.418a1.257,1.257,0,0,1-1.217,1.293" transform="translate(-230.279 -93.634)" fill="#575b64"/>
        <path id="パス_30121" data-name="パス 30121" d="M522.04,248.217a1.257,1.257,0,0,1-1.217-1.293v-5.418a19.054,19.054,0,0,1,18.785-19.271h6.523v-6.041a1.219,1.219,0,1,1,2.435,0v7.333a1.257,1.257,0,0,1-1.217,1.293h-7.74a16.539,16.539,0,0,0-16.35,16.685v5.418a1.257,1.257,0,0,1-1.217,1.293" transform="translate(-203.825 -93.634)" fill="#575b64"/>
        <path id="パス_30122" data-name="パス 30122" d="M563.847,190.21c-8.988,0-16.675-7.158-17.956-16.5a4.077,4.077,0,0,1-3.135-4.05V164.87a4.093,4.093,0,0,1,2.943-4v-7.585c0-10.627,8.141-19.274,18.147-19.274S582,142.653,582,153.281v7.585a4.1,4.1,0,0,1,2.943,4v4.795a4.078,4.078,0,0,1-3.136,4.05c-1.279,9.337-8.966,16.5-17.956,16.5m-16.866-19.031a1.177,1.177,0,0,1,.761.283,1.322,1.322,0,0,1,.452.9c.684,8.558,7.559,15.261,15.653,15.261s14.972-6.7,15.653-15.261a1.318,1.318,0,0,1,.452-.9,1.158,1.158,0,0,1,.925-.272,1.214,1.214,0,0,0,.175.016,1.5,1.5,0,0,0,1.452-1.542V164.87a1.515,1.515,0,0,0-1.607-1.534,1.157,1.157,0,0,1-.937-.329,1.331,1.331,0,0,1-.4-.958v-8.768c0-9.2-7.049-16.688-15.715-16.688s-15.713,7.487-15.713,16.688v8.768a1.329,1.329,0,0,1-.4.958,1.171,1.171,0,0,1-.937.329,1.378,1.378,0,0,0-.156-.007,1.5,1.5,0,0,0-1.45,1.541v4.795a1.5,1.5,0,0,0,1.45,1.542,1.2,1.2,0,0,0,.175-.016,1.179,1.179,0,0,1,.165-.012" transform="translate(-212.409 -65.029)" fill="#575b64"/>
        <path id="パス_30123" data-name="パス 30123" d="M558.873,186.766a1.184,1.184,0,0,1-.858-.376,1.335,1.335,0,0,1-.359-.917V154.231a1.3,1.3,0,0,1,.758-1.2,1.169,1.169,0,0,1,1.331.295,14.67,14.67,0,0,0,20.071,0,1.169,1.169,0,0,1,1.327-.3,1.3,1.3,0,0,1,.762,1.191l.181,31.1a1.333,1.333,0,0,1-.351.916,1.182,1.182,0,0,1-.859.385l-3.158.021h-.008a1.22,1.22,0,0,1-1.133-.822c-.921-2.5-3.616-5.156-6.8-5.156-3.248,0-5.945,2.7-6.832,5.24a1.223,1.223,0,0,1-1.134.844l-2.934.018Zm1.217-29.808v27.215l.917-.006c1.433-3.088,4.785-6.088,8.773-6.088,3.953,0,7.237,2.885,8.713,5.973l1.149-.008-.157-27.1a17.508,17.508,0,0,1-19.4.011" transform="translate(-218.24 -71.723)" fill="#575b64"/>
        <path id="パス_30124" data-name="パス 30124" d="M577.2,204.758H572a1.3,1.3,0,0,1,0-2.586h5.2a1.3,1.3,0,0,1,0,2.586" transform="translate(-223.376 -89.132)" fill="#575b64"/>
        <path id="パス_30125" data-name="パス 30125" d="M570.486,171.82a2.372,2.372,0,1,1-2.367-2.513,2.444,2.444,0,0,1,2.367,2.513" transform="translate(-221.408 -77.511)" fill="#575b64"/>
        <path id="パス_30126" data-name="パス 30126" d="M585.839,171.82a2.372,2.372,0,1,1-2.368-2.513,2.445,2.445,0,0,1,2.368,2.513" transform="translate(-227.416 -77.511)" fill="#575b64"/>
        <path id="パス_30127" data-name="パス 30127" d="M575.615,189.645a3.9,3.9,0,0,1-2.96-1.33,1.349,1.349,0,0,1,.072-1.827,1.167,1.167,0,0,1,1.719.076,1.628,1.628,0,0,0,2.336,0,1.167,1.167,0,0,1,1.719-.079,1.349,1.349,0,0,1,.074,1.827,3.9,3.9,0,0,1-2.961,1.331" transform="translate(-223.984 -83.466)" fill="#575b64"/>
        <path id="パス_30128" data-name="パス 30128" d="M410.634,246.259a1.257,1.257,0,0,1-1.217-1.293v-9.744c0-8.908-6.824-16.155-15.211-16.155h-7.236a1.257,1.257,0,0,1-1.217-1.293v-7.117a1.219,1.219,0,1,1,2.435,0v5.825h6.019c9.73,0,17.646,8.407,17.646,18.741v9.744a1.257,1.257,0,0,1-1.217,1.293" transform="translate(-150.965 -91.675)" fill="#575b64"/>
        <path id="パス_30129" data-name="パス 30129" d="M323.757,246.259a1.257,1.257,0,0,1-1.217-1.293v-9.744c0-10.334,7.916-18.741,17.646-18.741H346.2v-5.825a1.219,1.219,0,1,1,2.435,0v7.117a1.256,1.256,0,0,1-1.217,1.293h-7.236c-8.388,0-15.212,7.247-15.212,16.155v9.744a1.257,1.257,0,0,1-1.217,1.293" transform="translate(-126.227 -91.675)" fill="#575b64"/>
        <path id="パス_30130" data-name="パス 30130" d="M362.853,187.016c-8.427,0-15.636-6.7-16.863-15.44a3.9,3.9,0,0,1-2.94-3.858v-4.484a3.918,3.918,0,0,1,2.75-3.809V152.4c0-9.985,7.65-18.108,17.052-18.108S379.9,142.411,379.9,152.4v7.028a3.918,3.918,0,0,1,2.754,3.809v4.484a3.9,3.9,0,0,1-2.943,3.858c-1.224,8.745-8.433,15.44-16.861,15.44M347.08,169.051a1.172,1.172,0,0,1,.763.286,1.318,1.318,0,0,1,.45.9c.634,7.96,7.029,14.2,14.559,14.2s13.925-6.235,14.559-14.2a1.319,1.319,0,0,1,.448-.9,1.173,1.173,0,0,1,.921-.275,1.323,1.323,0,0,0,1.442-1.344v-4.484a1.325,1.325,0,0,0-1.419-1.349,1.168,1.168,0,0,1-.935-.33,1.329,1.329,0,0,1-.4-.957v-8.2c0-8.559-6.557-15.523-14.616-15.523s-14.618,6.964-14.618,15.523v8.2a1.329,1.329,0,0,1-.4.959,1.164,1.164,0,0,1-.939.327,1.293,1.293,0,0,0-.134-.007,1.32,1.32,0,0,0-1.277,1.357v4.484a1.321,1.321,0,0,0,1.277,1.358,1.192,1.192,0,0,0,.161-.014,1.092,1.092,0,0,1,.158-.011" transform="translate(-134.253 -65.128)" fill="#575b64"/>
        <path id="パス_30131" data-name="パス 30131" d="M357.5,194.6a4.785,4.785,0,0,1-1.306-.177,1.3,1.3,0,0,1-.859-1.584,1.213,1.213,0,0,1,1.492-.912,2.067,2.067,0,0,0,2.735-1.548c1.145-4.343,5.59-5.183,7.783-5.017a1.27,1.27,0,0,1,1.128,1.381,1.242,1.242,0,0,1-1.3,1.2c-.185-.014-4.376-.255-5.27,3.135A4.39,4.39,0,0,1,357.5,194.6" transform="translate(-139.045 -83.182)" fill="#575b64"/>
        <path id="パス_30132" data-name="パス 30132" d="M385.192,194.6a4.388,4.388,0,0,1-4.4-3.525c-.9-3.421-5.223-3.138-5.268-3.135a1.24,1.24,0,0,1-1.3-1.2,1.27,1.27,0,0,1,1.129-1.381c2.191-.162,6.638.674,7.783,5.017a2.068,2.068,0,0,0,2.741,1.545,1.217,1.217,0,0,1,1.481.926,1.3,1.3,0,0,1-.857,1.573,4.785,4.785,0,0,1-1.306.178" transform="translate(-146.451 -83.183)" fill="#575b64"/>
        <path id="パス_30133" data-name="パス 30133" d="M375.535,198.68h-4.1a1.3,1.3,0,0,1,0-2.586h4.1a1.3,1.3,0,0,1,0,2.586" transform="translate(-144.887 -86.983)" fill="#575b64"/>
        <path id="パス_30134" data-name="パス 30134" d="M374.8,177.241a1.257,1.257,0,0,1-1.217-1.293v-6.523a1.22,1.22,0,1,1,2.435,0v6.523a1.257,1.257,0,0,1-1.217,1.293" transform="translate(-146.204 -77.096)" fill="#575b64"/>
        <path id="パス_30135" data-name="パス 30135" d="M368.432,163.817a1.827,1.827,0,1,1-1.824-1.937,1.882,1.882,0,0,1,1.824,1.937" transform="translate(-142.759 -74.885)" fill="#575b64"/>
        <path id="パス_30136" data-name="パス 30136" d="M384.044,163.817a1.828,1.828,0,1,1-1.826-1.937,1.884,1.884,0,0,1,1.826,1.937" transform="translate(-148.868 -74.885)" fill="#575b64"/>
        <path id="パス_30137" data-name="パス 30137" d="M215.723,291.079v8.5h8.645c10.836,0,19.624,9.329,19.624,20.842V332.06H169.767V320.423c0-11.513,8.786-20.842,19.623-20.842h8.644v-8.5Z" transform="translate(-66.439 -120.57)" fill="#fff"/>
        <path id="パス_30138" data-name="パス 30138" d="M224.368,304.232H223.7v14.191c0,4.58-2.131,8.291-4.763,8.291H194.992c-2.631,0-4.763-3.711-4.763-8.291V304.232h-.839c-10.838,0-19.623,9.329-19.623,20.842v11.638h74.225V325.074c0-11.512-8.788-20.842-19.624-20.842" transform="translate(-66.439 -125.221)" fill="#5096ff"/>
        <path id="パス_30139" data-name="パス 30139" d="M243.209,332.646H168.984a1.256,1.256,0,0,1-1.217-1.293V319.716c0-12.205,9.349-22.135,20.841-22.135h7.427v-7.209a1.219,1.219,0,1,1,2.435,0v8.5a1.257,1.257,0,0,1-1.217,1.293h-8.644c-10.149,0-18.406,8.77-18.406,19.549v10.345h71.79V319.716c0-10.779-8.257-19.549-18.407-19.549H214.94a1.257,1.257,0,0,1-1.217-1.293v-8.5a1.219,1.219,0,1,1,2.435,0v7.209h7.427c11.492,0,20.841,9.929,20.841,22.135v11.638a1.257,1.257,0,0,1-1.217,1.293" transform="translate(-65.656 -119.863)" fill="#575b64"/>
        <path id="パス_30140" data-name="パス 30140" d="M231.313,327.633H207.367a5.921,5.921,0,0,1-5.98-5.846V304.906a1.219,1.219,0,1,1,2.435,0v16.881a3.416,3.416,0,0,0,3.545,3.26h23.946a3.416,3.416,0,0,0,3.546-3.26v-17.32a1.22,1.22,0,1,1,2.435,0v17.32a5.921,5.921,0,0,1-5.981,5.846" transform="translate(-78.813 -124.847)" fill="#575b64"/>
        <path id="パス_30141" data-name="パス 30141" d="M237.208,246.973c0,10.647-8.128,19.28-18.154,19.28S200.9,257.62,200.9,246.973V234.28c0-10.647,8.128-19.279,18.154-19.279s18.154,8.632,18.154,19.279Z" transform="translate(-78.623 -93.669)" fill="#fff"/>
        <path id="パス_30142" data-name="パス 30142" d="M237.607,250.609a2.182,2.182,0,1,0,2.179-2.312,2.248,2.248,0,0,0-2.179,2.312" transform="translate(-92.988 -105.442)" fill="#575b64"/>
        <path id="パス_30143" data-name="パス 30143" d="M216.814,250.609a2.182,2.182,0,1,0,2.178-2.312,2.247,2.247,0,0,0-2.178,2.312" transform="translate(-84.851 -105.442)" fill="#575b64"/>
        <path id="パス_30144" data-name="パス 30144" d="M218.272,266.839c-10.681,0-19.371-9.229-19.371-20.573V233.573c0-11.344,8.69-20.572,19.371-20.572s19.371,9.229,19.371,20.572v12.693c0,11.344-8.69,20.573-19.371,20.573m0-51.252c-9.338,0-16.936,8.069-16.936,17.987v12.693c0,9.918,7.6,17.987,16.936,17.987s16.936-8.07,16.936-17.987V233.573c0-9.918-7.6-17.987-16.936-17.987" transform="translate(-77.84 -92.961)" fill="#575b64"/>
        <path id="パス_30145" data-name="パス 30145" d="M230.749,227.662c0-11.9-9.087-21.555-20.3-21.555-8.79,0-16.274,5.935-19.1,14.236-.777,2.285-.909,6.849-3.085,10.077s-8.489,5.145-8.489,5.145c17.589,6.706,38.561-10.3,38.561-10.3s6.991,9.58,14.432,10.3Z" transform="translate(-70.359 -90.524)" fill="#ff8e6f"/>
        <path id="パス_30146" data-name="パス 30146" d="M187.858,237.717a25.927,25.927,0,0,1-9.269-1.641,1.319,1.319,0,0,1,.077-2.46c1.645-.5,6.258-2.313,7.834-4.654,1.329-1.973,1.838-4.657,2.247-6.813a22.89,22.89,0,0,1,.683-2.951c3.067-9.025,11.2-15.089,20.241-15.089,11.807,0,21.424,10.154,21.513,22.672l1.987,7.739a1.355,1.355,0,0,1-.242,1.171,1.183,1.183,0,0,1-1.043.457c-6.5-.627-12.469-7.281-14.531-9.825-3.533,2.646-16.22,11.4-29.5,11.4m-4.9-3.057a25,25,0,0,0,4.9.471c14.493,0,28.823-11.482,28.966-11.6a1.171,1.171,0,0,1,1.7.235c.061.083,5.633,7.62,11.786,9.446l-1.52-5.918a1.365,1.365,0,0,1-.043-.34c0-11.173-8.558-20.262-19.078-20.262a19.228,19.228,0,0,0-17.95,13.382,21.247,21.247,0,0,0-.586,2.583c-.455,2.4-1.021,5.384-2.654,7.808a14.137,14.137,0,0,1-5.52,4.193" transform="translate(-69.576 -89.817)" fill="#575b64"/>
        <path id="パス_30147" data-name="パス 30147" d="M230.3,265.645h-3.209a1.3,1.3,0,0,1,0-2.586H230.3a1.3,1.3,0,0,1,0,2.586" transform="translate(-88.395 -110.662)" fill="#575b64"/>
        <path id="パス_30148" data-name="パス 30148" d="M224.6,281.5a9.827,9.827,0,0,1-9.631-7.84,1.355,1.355,0,0,1,.244-1.083,1.193,1.193,0,0,1,.946-.48h16.881a1.193,1.193,0,0,1,.946.48,1.354,1.354,0,0,1,.244,1.083,9.827,9.827,0,0,1-9.631,7.84m-6.739-6.816a7.483,7.483,0,0,0,13.478,0Z" transform="translate(-84.119 -113.859)" fill="#575b64"/>
        <path id="パス_30149" data-name="パス 30149" d="M625.234,305.247H622l-14.4,15.3-14.4-15.3h-3c-10.855,0-19.657,9.348-19.657,20.877v11.658h74.35V326.124c0-11.53-8.8-20.877-19.657-20.877" transform="translate(-223.283 -125.58)" fill="gold"/>
        <path id="パス_30150" data-name="パス 30150" d="M636.573,232.161a2.828,2.828,0,0,0-.307.016v-9.812c0-11.112-8.482-20.12-18.946-20.12s-18.945,9.008-18.945,20.12v9.812a2.843,2.843,0,0,0-.307-.016,3.082,3.082,0,0,0-2.985,3.17V240.7a3.082,3.082,0,0,0,2.985,3.17,2.643,2.643,0,0,0,.38-.028c.823,10.306,8.956,18.4,18.872,18.4s18.05-8.094,18.872-18.4a2.652,2.652,0,0,0,.382.028,3.082,3.082,0,0,0,2.985-3.17v-5.366a3.082,3.082,0,0,0-2.985-3.17" transform="translate(-232.887 -89.158)" fill="#fff"/>
        <path id="パス_30151" data-name="パス 30151" d="M644.109,333.709h-74.35a1.257,1.257,0,0,1-1.217-1.293V320.759c0-12.225,9.364-22.17,20.875-22.17h7.44v-7.223a1.219,1.219,0,1,1,2.435,0v8.516a1.257,1.257,0,0,1-1.217,1.293h-8.657c-10.168,0-18.44,8.786-18.44,19.585v10.365h71.915V320.759c0-10.8-8.272-19.585-18.44-19.585h-8.658a1.257,1.257,0,0,1-1.217-1.293v-8.516a1.22,1.22,0,1,1,2.435,0v7.223h7.441c11.51,0,20.875,9.945,20.875,22.17v11.658a1.257,1.257,0,0,1-1.217,1.293" transform="translate(-222.5 -120.214)" fill="#575b64"/>
        <path id="パス_30152" data-name="パス 30152" d="M637.5,238.169a1.084,1.084,0,0,1-.158-.011c-7.026-.963-10.552-6.489-12.066-9.837-2.382,3.018-8.677,7.619-25.065,8.359a1.25,1.25,0,0,1-1.268-1.237,1.265,1.265,0,0,1,1.164-1.346c21.979-.992,24.18-8.885,24.2-8.965a1.2,1.2,0,0,1,2.362-.079c.1.381,2.619,9.394,10.988,10.542a1.28,1.28,0,0,1,1.052,1.447,1.245,1.245,0,0,1-1.206,1.127" transform="translate(-234.399 -96.89)" fill="#575b64"/>
        <path id="パス_30153" data-name="パス 30153" d="M619.587,256.225a1.184,1.184,0,0,1-.9-.418,1.96,1.96,0,0,0-2.829,0,1.168,1.168,0,0,1-1.72.076,1.35,1.35,0,0,1-.071-1.827,4.294,4.294,0,0,1,6.413,0,1.35,1.35,0,0,1-.073,1.827,1.171,1.171,0,0,1-.823.341" transform="translate(-240.192 -106.971)" fill="#575b64"/>
        <path id="パス_30154" data-name="パス 30154" d="M639.115,256.225a1.174,1.174,0,0,1-.823-.341,1.35,1.35,0,0,1-.073-1.827,4.293,4.293,0,0,1,6.412,0,1.35,1.35,0,0,1-.071,1.827,1.168,1.168,0,0,1-1.72-.076,1.96,1.96,0,0,0-2.828,0,1.184,1.184,0,0,1-.9.418" transform="translate(-249.643 -106.971)" fill="#575b64"/>
        <path id="パス_30155" data-name="パス 30155" d="M626.166,280.864a8.787,8.787,0,0,1-8.458-7.374,1.353,1.353,0,0,1,.254-1.072,1.191,1.191,0,0,1,.94-.472H633.43a1.19,1.19,0,0,1,.94.472,1.354,1.354,0,0,1,.254,1.072,8.788,8.788,0,0,1-8.458,7.373m-5.588-6.332a6.041,6.041,0,0,0,11.176,0Z" transform="translate(-241.732 -113.805)" fill="#575b64"/>
        <path id="パス_30156" data-name="パス 30156" d="M622.344,320.708h0a1.183,1.183,0,0,1-.861-.379L608.275,306.3a1.349,1.349,0,0,1,0-1.828,1.166,1.166,0,0,1,1.721,0l12.347,13.114,12.349-13.114a1.166,1.166,0,0,1,1.721,0,1.35,1.35,0,0,1,0,1.828L623.2,320.33a1.183,1.183,0,0,1-.861.379" transform="translate(-237.91 -125.172)" fill="#575b64"/>
        <path id="パス_30157" data-name="パス 30157" d="M593.86,338.672a1.257,1.257,0,0,1-1.217-1.293V305.671a1.22,1.22,0,1,1,2.435,0v31.708a1.257,1.257,0,0,1-1.217,1.293" transform="translate(-231.932 -125.273)" fill="#575b64"/>
        <path id="パス_30158" data-name="パス 30158" d="M667.814,338.672a1.257,1.257,0,0,1-1.217-1.293V305.671a1.219,1.219,0,1,1,2.435,0v31.708a1.257,1.257,0,0,1-1.217,1.293" transform="translate(-260.874 -125.273)" fill="#575b64"/>
        <path id="パス_30159" data-name="パス 30159" d="M616.537,262.826c-10.022,0-18.588-8.008-19.964-18.436a4.4,4.4,0,0,1-3.492-4.4v-5.366a4.417,4.417,0,0,1,3.293-4.357v-8.609c0-11.807,9.044-21.413,20.163-21.413s20.163,9.606,20.163,21.413v8.609a4.417,4.417,0,0,1,3.293,4.357v5.366a4.4,4.4,0,0,1-3.493,4.4c-1.376,10.427-9.941,18.436-19.963,18.436M597.665,241.84a1.174,1.174,0,0,1,.763.285,1.321,1.321,0,0,1,.45.9c.771,9.655,8.528,17.217,17.659,17.217s16.889-7.562,17.658-17.217a1.32,1.32,0,0,1,.451-.9,1.162,1.162,0,0,1,.923-.273,1.652,1.652,0,0,0,.221.017,1.828,1.828,0,0,0,1.768-1.877v-5.366a1.827,1.827,0,0,0-1.768-1.877,1.475,1.475,0,0,0-.179.009,1.179,1.179,0,0,1-.943-.324,1.33,1.33,0,0,1-.4-.961v-9.813c0-10.381-7.953-18.828-17.729-18.828s-17.728,8.446-17.728,18.828v9.813a1.33,1.33,0,0,1-.4.961,1.179,1.179,0,0,1-.942.324,1.83,1.83,0,0,0-1.948,1.868v5.366a1.827,1.827,0,0,0,1.768,1.877,1.632,1.632,0,0,0,.219-.017,1.135,1.135,0,0,1,.161-.012" transform="translate(-232.104 -88.451)" fill="#575b64"/>
        <path id="パス_30160" data-name="パス 30160" d="M452.241,170.727s-1.015-14.908.338-20.3,6.765-10.6,14.038-11.316,15.729,7,16.575,14.729-.338,17.782-.338,17.782-3.407-.5-3.564-5.637.012-8.552.012-8.552-3.044.9-5.074-1.078-6.921-4.286-6.758-7.083c0,0-1.529,5.107-5.588,6.723s-6.233.649-6.233.649.194,7.655,0,9.34.144,4.38-3.407,4.739" transform="translate(-176.842 -66.818)" fill="#ff8e6f"/>
        <path id="パス_30161" data-name="パス 30161" d="M511.877,246.608a1.257,1.257,0,0,1-1.217-1.293v-9.563c0-8.731-6.687-15.834-14.906-15.834h-7.1a1.256,1.256,0,0,1-1.217-1.293v-6.982a1.219,1.219,0,1,1,2.435,0v5.69h5.885c9.562,0,17.341,8.263,17.341,18.42v9.563a1.257,1.257,0,0,1-1.217,1.293" transform="translate(-190.758 -92.024)" fill="#575b64"/>
        <path id="パス_30162" data-name="パス 30162" d="M426.613,246.608a1.257,1.257,0,0,1-1.217-1.293v-9.563c0-10.157,7.779-18.42,17.341-18.42h5.884v-5.69a1.22,1.22,0,1,1,2.435,0v6.982a1.257,1.257,0,0,1-1.217,1.293h-7.1c-8.219,0-14.906,7.1-14.906,15.834v9.563a1.257,1.257,0,0,1-1.217,1.293" transform="translate(-166.48 -92.024)" fill="#575b64"/>
        <path id="パス_30163" data-name="パス 30163" d="M466.538,188.989c-9.4,0-17.041-8.118-17.041-18.1V155.688c0-9.978,7.644-18.1,17.041-18.1s17.04,8.118,17.04,18.1v15.205c0,9.978-7.644,18.1-17.04,18.1m0-48.813c-8.054,0-14.606,6.958-14.606,15.511v15.205c0,8.552,6.553,15.511,14.606,15.511s14.606-6.958,14.606-15.511V155.688c0-8.553-6.552-15.511-14.606-15.511" transform="translate(-175.912 -66.296)" fill="#575b64"/>
        <path id="パス_30164" data-name="パス 30164" d="M482.339,177.317a5.07,5.07,0,0,1-4-1.549,6.326,6.326,0,0,1-1.166-4.65c.007-.106.013-.192.013-.255v-7.872c-5.367.429-8.82-2.853-10.6-5.887-1.783,3.034-5.234,6.315-10.6,5.887v7.872c0,.063.007.149.013.255a6.326,6.326,0,0,1-1.166,4.65,5.069,5.069,0,0,1-4,1.549,1.3,1.3,0,0,1,0-2.586,2.865,2.865,0,0,0,2.225-.728,3.911,3.911,0,0,0,.516-2.708c-.012-.179-.019-.326-.019-.431v-9.34a1.327,1.327,0,0,1,.436-.992,1.169,1.169,0,0,1,1-.279c7.76,1.492,10.345-6.19,10.451-6.518a1.228,1.228,0,0,1,1.152-.874h0a1.224,1.224,0,0,1,1.15.877c.106.325,2.7,8.009,10.45,6.514a1.167,1.167,0,0,1,1,.279,1.327,1.327,0,0,1,.436.992v9.34c0,.105-.007.252-.019.431a3.911,3.911,0,0,0,.516,2.708,2.866,2.866,0,0,0,2.226.728,1.3,1.3,0,0,1,0,2.586" transform="translate(-175.953 -71.696)" fill="#575b64"/>
        <path id="パス_30165" data-name="パス 30165" d="M431.756,201.238a5.849,5.849,0,0,1-8.2-2.472,6.615,6.615,0,0,1,2.33-8.71c2.908-1.723,14.143-1.047,14.143-1.047s-5.364,10.507-8.271,12.229" transform="translate(-165.46 -84.432)" fill="#ff8e6f"/>
        <path id="パス_30166" data-name="パス 30166" d="M512.151,201.238a5.847,5.847,0,0,0,8.2-2.472,6.616,6.616,0,0,0-2.329-8.71c-2.908-1.723-14.143-1.047-14.143-1.047s5.363,10.507,8.272,12.229" transform="translate(-197.194 -84.432)" fill="#ff8e6f"/>
        <path id="パス_30167" data-name="パス 30167" d="M428.042,202.635a7.2,7.2,0,0,1-6.333-3.947,8.066,8.066,0,0,1-.642-5.851,7.581,7.581,0,0,1,3.441-4.618c.56-.332,2.264-1.341,9.882-1.341,2.685,0,4.833.127,4.923.133a1.211,1.211,0,0,1,.994.661,1.361,1.361,0,0,1,.006,1.246c-.565,1.109-5.621,10.89-8.749,12.742a6.927,6.927,0,0,1-3.523.975m6.348-13.171c-6.3,0-8.181.709-8.7,1.014a5.031,5.031,0,0,0-2.285,3.067,5.353,5.353,0,0,0,.426,3.884,4.781,4.781,0,0,0,4.207,2.621,4.6,4.6,0,0,0,2.338-.648c1.624-.962,4.717-6,6.832-9.892-.793-.025-1.769-.045-2.822-.045" transform="translate(-164.676 -83.724)" fill="#575b64"/>
        <path id="パス_30168" data-name="パス 30168" d="M514.3,202.635h0a6.921,6.921,0,0,1-3.522-.975c-3.128-1.851-8.183-11.633-8.75-12.742a1.365,1.365,0,0,1,.007-1.246,1.211,1.211,0,0,1,.995-.661c.09-.006,2.237-.133,4.922-.133,7.618,0,9.323,1.01,9.883,1.341a7.583,7.583,0,0,1,3.441,4.618,8.066,8.066,0,0,1-.642,5.85,7.2,7.2,0,0,1-6.333,3.948m-9.17-13.126c2.116,3.9,5.209,8.931,6.833,9.892a4.6,4.6,0,0,0,2.337.648h0a4.781,4.781,0,0,0,4.206-2.621,5.356,5.356,0,0,0,.426-3.884,5.028,5.028,0,0,0-2.284-3.066c-.515-.305-2.392-1.014-8.7-1.014-1.052,0-2.029.021-2.821.045" transform="translate(-196.411 -83.724)" fill="#575b64"/>
        <path id="パス_30169" data-name="パス 30169" d="M472.082,177a2.128,2.128,0,1,1-2.125-2.257A2.194,2.194,0,0,1,472.082,177" transform="translate(-183.088 -79.433)" fill="#575b64"/>
        <path id="パス_30170" data-name="パス 30170" d="M485.864,177a2.129,2.129,0,1,1-2.124-2.257A2.194,2.194,0,0,1,485.864,177" transform="translate(-188.48 -79.433)" fill="#575b64"/>
        <path id="パス_30171" data-name="パス 30171" d="M475.494,190.578a3.677,3.677,0,0,1-2.791-1.255,1.35,1.35,0,0,1,.074-1.827,1.167,1.167,0,0,1,1.72.078,1.464,1.464,0,0,0,2,0,1.168,1.168,0,0,1,1.72-.076,1.35,1.35,0,0,1,.071,1.827,3.68,3.68,0,0,1-2.791,1.254" transform="translate(-184.868 -83.822)" fill="#575b64"/>
        <path id="パス_30172" data-name="パス 30172" d="M476.609,202.917a1.3,1.3,0,0,1,0-2.586c5.988,0,7.09-4.94,7.1-4.99a1.218,1.218,0,0,1,1.452-.981,1.3,1.3,0,0,1,.924,1.543,9.287,9.287,0,0,1-9.477,7.013" transform="translate(-186.046 -86.359)" fill="#575b64"/>
        <path id="パス_30173" data-name="パス 30173" d="M289.06,316.01v9.2H279.7c-11.727,0-21.238,10.1-21.238,22.557v12.592h80.329V347.769c0-12.459-9.508-22.557-21.237-22.557H308.2v-9.2Z" transform="translate(-101.151 -129.386)" fill="#fff"/>
        <path id="パス_30174" data-name="パス 30174" d="M329.809,252.067a3.1,3.1,0,0,0-.332.018v-9.164c0-12.006-9.164-21.74-20.469-21.74s-20.468,9.734-20.468,21.74v9.164a3.165,3.165,0,0,0-.332-.018,3.331,3.331,0,0,0-3.226,3.425v5.8a3.328,3.328,0,0,0,3.226,3.423,2.984,2.984,0,0,0,.411-.028c.888,11.136,9.675,19.879,20.389,19.879s19.5-8.743,20.389-19.879a3,3,0,0,0,.412.028,3.327,3.327,0,0,0,3.225-3.423v-5.8a3.33,3.33,0,0,0-3.225-3.425" transform="translate(-111.528 -95.854)" fill="#fff"/>
        <path id="パス_30175" data-name="パス 30175" d="M329.809,252.067a3.1,3.1,0,0,0-.332.018v-9.164c0-12.006-9.164-21.74-20.469-21.74s-20.468,9.734-20.468,21.74v9.164a3.165,3.165,0,0,0-.332-.018,3.331,3.331,0,0,0-3.226,3.425v5.8a3.328,3.328,0,0,0,3.226,3.423,2.984,2.984,0,0,0,.411-.028c.888,11.136,9.675,19.879,20.389,19.879s19.5-8.743,20.389-19.879a3,3,0,0,0,.412.028,3.327,3.327,0,0,0,3.225-3.423v-5.8a3.33,3.33,0,0,0-3.225-3.425" transform="translate(-111.528 -95.854)" fill="#fff"/>
        <path id="パス_30176" data-name="パス 30176" d="M308.225,285.151c-10.8,0-20.034-8.653-21.482-19.906a4.645,4.645,0,0,1-3.763-4.66v-5.8a4.664,4.664,0,0,1,3.559-4.624v-7.947c0-12.7,9.728-23.032,21.685-23.032s21.686,10.332,21.686,23.032v7.947a4.665,4.665,0,0,1,3.558,4.624v5.8a4.645,4.645,0,0,1-3.762,4.66c-1.447,11.253-10.677,19.906-21.482,19.906m-20.389-22.466a1.174,1.174,0,0,1,.763.285,1.317,1.317,0,0,1,.45.9c.836,10.484,9.259,18.7,19.176,18.7s18.341-8.212,19.176-18.7a1.318,1.318,0,0,1,.45-.9,1.182,1.182,0,0,1,.922-.275,1.822,1.822,0,0,0,.253.018,2.075,2.075,0,0,0,2.008-2.131v-5.8a2.075,2.075,0,0,0-2.008-2.132,1.808,1.808,0,0,0-.206.012,1.174,1.174,0,0,1-.941-.326,1.331,1.331,0,0,1-.4-.96v-9.165c0-11.274-8.636-20.447-19.252-20.447s-19.251,9.172-19.251,20.447v9.165a1.332,1.332,0,0,1-.4.96,1.177,1.177,0,0,1-.941.326,1.843,1.843,0,0,0-.207-.012,2.076,2.076,0,0,0-2.009,2.132v5.8a2.075,2.075,0,0,0,2.009,2.131,1.891,1.891,0,0,0,.251-.017,1.119,1.119,0,0,1,.16-.012" transform="translate(-110.745 -95.147)" fill="#575b64"/>
        <path id="パス_30177" data-name="パス 30177" d="M338.012,360.947H257.683a1.256,1.256,0,0,1-1.217-1.293V347.061c0-13.151,10.073-23.85,22.455-23.85h8.139V315.3a1.22,1.22,0,1,1,2.435,0v9.2a1.257,1.257,0,0,1-1.217,1.293h-9.356c-11.04,0-20.021,9.539-20.021,21.264v11.3h77.894v-11.3c0-11.726-8.981-21.264-20.02-21.264H307.42A1.257,1.257,0,0,1,306.2,324.5v-9.2a1.219,1.219,0,1,1,2.435,0v7.909h8.138c12.381,0,22.454,10.7,22.454,23.85v12.592a1.257,1.257,0,0,1-1.217,1.293" transform="translate(-100.369 -128.679)" fill="#575b64"/>
        <path id="パス_30178" data-name="パス 30178" d="M324.515,286.622H319.8a1.3,1.3,0,0,1,0-2.586h4.715a1.3,1.3,0,0,1,0,2.586" transform="translate(-124.678 -118.08)" fill="#575b64"/>
        <path id="パス_30179" data-name="パス 30179" d="M329.357,301.7H317.445a1.3,1.3,0,0,1,0-2.586h11.911a1.3,1.3,0,0,1,0,2.586" transform="translate(-123.757 -123.413)" fill="#575b64"/>
        <path id="パス_30180" data-name="パス 30180" d="M327.6,307.821h-3.226a1.3,1.3,0,0,1,0-2.586H327.6a1.3,1.3,0,0,1,0,2.586" transform="translate(-126.469 -125.576)" fill="#575b64"/>
        <path id="パス_30181" data-name="パス 30181" d="M525.133,252.288c0,17.521-9.626,31.725-21.5,31.725s-21.5-14.2-21.5-31.725,9.626-31.726,21.5-31.726,21.5,14.2,21.5,31.726" transform="translate(-188.682 -95.635)" fill="#fff"/>
        <path id="パス_30182" data-name="パス 30182" d="M483.061,314.936v9.031h-9.183c-11.513,0-20.849,9.915-20.849,22.144v12.364h78.856V346.111c0-12.229-9.334-22.144-20.848-22.144h-9.183v-9.031Z" transform="translate(-177.294 -129.006)" fill="#fff"/>
        <path id="パス_30183" data-name="パス 30183" d="M531.1,359.061H452.245a1.257,1.257,0,0,1-1.217-1.293V345.4c0-12.923,9.9-23.436,22.066-23.436h7.966v-7.738a1.219,1.219,0,1,1,2.435,0v9.031a1.256,1.256,0,0,1-1.217,1.293h-9.183c-10.825,0-19.632,9.354-19.632,20.851v11.072h76.422V345.4c0-11.5-8.807-20.851-19.631-20.851H501.07a1.257,1.257,0,0,1-1.217-1.293v-9.031a1.219,1.219,0,1,1,2.435,0v7.738h7.966c12.167,0,22.065,10.514,22.065,23.436v12.365a1.257,1.257,0,0,1-1.217,1.293" transform="translate(-176.511 -128.299)" fill="#575b64"/>
        <path id="パス_30184" data-name="パス 30184" d="M504.388,310.012c-8.665,0-16.4-5.5-19.7-14.012a1.321,1.321,0,0,1,.661-1.688,1.191,1.191,0,0,1,1.589.7,18.85,18.85,0,0,0,17.454,12.412,19.04,19.04,0,0,0,17.671-13c.215-.605.407-1.244.573-1.9a1.212,1.212,0,0,1,1.489-.917,1.3,1.3,0,0,1,.863,1.582c-.186.743-.4,1.465-.647,2.149-3.1,8.776-11.119,14.673-19.95,14.673" transform="translate(-189.646 -120.741)" fill="#575b64"/>
        <path id="パス_30185" data-name="パス 30185" d="M501.516,240.823h11.2v25.22s-.121,10.347,9.257,10.218c8.523-.117,10.351-8.924,8.769-13.064a16.7,16.7,0,0,0-5.6-6.852s2.922,8.536-2.923,9.053c0,0-2.875.317-3.526-3.233-.07-.385-.249-8.02-.249-8.02V237.783c0-14.393-10.986-26.063-24.54-26.063h-.641c-13.551,0-24.539,11.669-24.539,26.063v16.362s-.178,7.635-.248,8.02c-.651,3.55-3.528,3.233-3.528,3.233-5.845-.517-2.923-9.053-2.923-9.053a16.7,16.7,0,0,0-5.6,6.852c-1.584,4.14.244,12.947,8.769,13.064,9.377.129,9.255-10.218,9.255-10.218v-25.22h20.947l2.925-5.692Z" transform="translate(-178.42 -92.508)" fill="#f77ee6"/>
        <path id="パス_30186" data-name="パス 30186" d="M521.02,276.848a9.39,9.39,0,0,1-7.19-2.9c-3.135-3.372-3.113-8.415-3.111-8.627V241.408h-9.985a1.205,1.205,0,0,1-1.045-.63l-2.107-3.748-1.9,3.7a1.209,1.209,0,0,1-1.069.674H474.881v23.928c0,.2.026,5.239-3.109,8.611a9.39,9.39,0,0,1-7.191,2.9h-.189a9.833,9.833,0,0,1-8.663-4.677A12.2,12.2,0,0,1,454.512,262a17.873,17.873,0,0,1,6.076-7.457,1.163,1.163,0,0,1,1.416.083,1.346,1.346,0,0,1,.382,1.45c-.391,1.153-1.183,4.522-.152,6.227a2.429,2.429,0,0,0,2.031,1.095l.08,0c.649,0,1.786-.281,2.145-2.155.052-.6.17-5.1.233-7.845V237.075c0-15.084,11.555-27.355,25.757-27.355h.641c14.2,0,25.758,12.271,25.758,27.355v16.362c.063,2.712.183,7.213.233,7.813.36,1.874,1.5,2.154,2.144,2.154l.07,0a2.438,2.438,0,0,0,2.041-1.1c1.03-1.706.239-5.075-.152-6.229a1.343,1.343,0,0,1,.383-1.448,1.159,1.159,0,0,1,1.414-.083A17.878,17.878,0,0,1,531.089,262a12.213,12.213,0,0,1-1.22,10.168,9.831,9.831,0,0,1-8.66,4.675Zm-19.594-38.025h10.511a1.257,1.257,0,0,1,1.217,1.293v25.22c0,.054,0,4.216,2.42,6.807a7.12,7.12,0,0,0,5.446,2.12h.157a7.561,7.561,0,0,0,6.665-3.519,9.476,9.476,0,0,0,.991-7.766,12.717,12.717,0,0,0-2.557-3.96,8,8,0,0,1-.858,4.682,4.775,4.775,0,0,1-3.879,2.281h0a2.66,2.66,0,0,1-.284.012c-1.815,0-3.962-1.126-4.541-4.286-.023-.124-.089-.493-.271-8.234V237.075c0-13.658-10.464-24.77-23.323-24.77h-.641c-12.86,0-23.322,11.112-23.322,24.77v16.362c-.181,7.775-.248,8.144-.27,8.265-.579,3.161-2.726,4.288-4.542,4.288a2.715,2.715,0,0,1-.306-.014,4.758,4.758,0,0,1-3.856-2.278,8,8,0,0,1-.858-4.676,12.732,12.732,0,0,0-2.557,3.955,9.477,9.477,0,0,0,.991,7.763,7.562,7.562,0,0,0,6.667,3.521h.158a7.119,7.119,0,0,0,5.446-2.12c2.421-2.59,2.419-6.752,2.419-6.794V240.115a1.256,1.256,0,0,1,1.217-1.293h20.224l2.579-5.019a1.207,1.207,0,0,1,1.044-.674h.024a1.2,1.2,0,0,1,1.045.63Z" transform="translate(-177.638 -91.801)" fill="#575b64"/>
        <path id="パス_30187" data-name="パス 30187" d="M505.093,272.817a1.183,1.183,0,0,1-.9-.418,2.15,2.15,0,0,0-3.107,0,1.168,1.168,0,0,1-1.72.075,1.349,1.349,0,0,1-.07-1.827,4.482,4.482,0,0,1,6.69,0,1.35,1.35,0,0,1-.073,1.827,1.174,1.174,0,0,1-.823.341" transform="translate(-195.275 -112.816)" fill="#575b64"/>
        <path id="パス_30188" data-name="パス 30188" d="M530.707,272.817a1.185,1.185,0,0,1-.9-.418,2.148,2.148,0,0,0-3.105,0,1.169,1.169,0,0,1-1.72.077,1.351,1.351,0,0,1-.072-1.827,4.483,4.483,0,0,1,6.691,0,1.351,1.351,0,0,1-.072,1.827,1.178,1.178,0,0,1-.824.341" transform="translate(-205.3 -112.816)" fill="#575b64"/>
        <path id="パス_30189" data-name="パス 30189" d="M517.75,289.079h-4.059a1.3,1.3,0,0,1,0-2.586h4.059a1.3,1.3,0,0,1,0,2.586" transform="translate(-200.558 -118.949)" fill="#575b64"/>
        <path id="パス_30190" data-name="パス 30190" d="M517.961,303.778a1.252,1.252,0,0,1-1.214-1.223,1.266,1.266,0,0,1,1.15-1.361,8.756,8.756,0,0,0,7.276-4.15,1.182,1.182,0,0,1,1.649-.526,1.335,1.335,0,0,1,.494,1.751,11.141,11.141,0,0,1-9.287,5.506l-.067,0" transform="translate(-202.229 -122.439)" fill="#575b64"/>
        <path id="パス_30191" data-name="パス 30191" d="M500.681,349.851c-11.3,0-21.71-7.234-26.526-18.432a1.327,1.327,0,0,1,.6-1.713,1.189,1.189,0,0,1,1.614.639c4.42,10.279,13.963,16.921,24.311,16.921,10.283,0,19.8-6.583,24.247-16.769a1.187,1.187,0,0,1,1.616-.63,1.327,1.327,0,0,1,.593,1.716c-4.844,11.1-15.229,18.268-26.456,18.268" transform="translate(-185.518 -134.187)" fill="#575b64"/>
        <path id="パス_30192" data-name="パス 30192" d="M504.415,343.118c-8.828,0-16.764-5.492-20.712-14.334a1.329,1.329,0,0,1,.579-1.722,1.189,1.189,0,0,1,1.621.615c3.54,7.93,10.634,12.856,18.511,12.856,7.369,0,14.052-4.31,17.782-11.357a1.326,1.326,0,0,1-.419-.976A1.257,1.257,0,0,1,523,326.907c.368,0,.73.013,1.093.032a1.209,1.209,0,0,1,.984.627,1.365,1.365,0,0,1,.055,1.217c-3.947,8.842-11.883,14.334-20.712,14.334" transform="translate(-189.252 -133.239)" fill="#575b64"/>
        <path id="パス_30193" data-name="パス 30193" d="M419.941,275.561a3.607,3.607,0,0,0-.4.023v-5.469c0-14.33-10.939-25.948-24.432-25.948s-24.431,11.618-24.431,25.948v5.469a3.674,3.674,0,0,0-.4-.023,3.975,3.975,0,0,0-3.851,4.089v6.921a3.973,3.973,0,0,0,3.851,4.085,3.621,3.621,0,0,0,.491-.034c1.06,13.291,11.548,23.727,24.336,23.727s23.277-10.435,24.337-23.727a3.616,3.616,0,0,0,.492.034,3.971,3.971,0,0,0,3.848-4.085v-6.921a3.973,3.973,0,0,0-3.848-4.089" transform="translate(-143.405 -103.982)" fill="#fff"/>
        <path id="パス_30194" data-name="パス 30194" d="M399.782,244.641h-2.469c-12.644,0-22.894,12.048-22.894,26.908v4.273c1.292-.683,5.665-3.377,6.309-8.812.757-6.385,4.164-3.756,7.192-1.878a20.329,20.329,0,0,0,21.256,0c3.028-1.878,6.433-4.507,7.192,1.878.644,5.434,5.016,8.127,6.309,8.812v-4.273c0-14.86-10.251-26.908-22.894-26.908" transform="translate(-146.529 -104.149)" fill="gold"/>
        <path id="パス_30195" data-name="パス 30195" d="M414.186,280.988c-.119,0-.231,0-.348-.006s-.229.006-.349.006Z" transform="translate(-161.82 -117)" fill="#ffca59"/>
        <path id="パス_30196" data-name="パス 30196" d="M374.524,348.934v10.4H364.206c-12.936,0-23.423,11.139-23.423,24.877v21.2h88.593v-21.2c0-13.738-10.491-24.877-23.424-24.877H395.634v-10.4Z" transform="translate(-133.366 -141.028)" fill="#fff"/>
        <path id="パス_30197" data-name="パス 30197" d="M385.007,376.289c-1.127-.479-6.088,4.551-6.088,4.551l3.608,9.1-2.481,20.6-38.336.48-1.127-19.879,1.8-11.5s4.961-9.58,9.7-11.735,21.874-3.592,21.874-3.592Z" transform="translate(-133.288 -146.467)" fill="#5096ff"/>
        <path id="パス_30198" data-name="パス 30198" d="M415.055,376.289c1.127-.479,6.088,4.551,6.088,4.551l-3.608,9.1,2.481,20.6,38.336.48,1.127-19.879-1.8-11.5s-4.961-9.58-9.7-11.735-21.874-3.592-21.874-3.592Z" transform="translate(-162.433 -146.467)" fill="#5096ff"/>
        <path id="パス_30199" data-name="パス 30199" d="M428.593,405.995H340a1.257,1.257,0,0,1-1.217-1.293v-21.2c0-14.43,11.054-26.169,24.641-26.169h9.1v-9.11a1.22,1.22,0,1,1,2.435,0v10.4a1.257,1.257,0,0,1-1.217,1.293H363.423c-12.245,0-22.206,10.58-22.206,23.584v19.9h86.159v-19.9c0-13-9.962-23.584-22.207-23.584H394.85a1.257,1.257,0,0,1-1.217-1.293v-10.4a1.22,1.22,0,1,1,2.435,0v9.11h9.1c13.587,0,24.641,11.74,24.641,26.169v21.2a1.257,1.257,0,0,1-1.217,1.293" transform="translate(-132.583 -140.321)" fill="#575b64"/>
        <path id="パス_30200" data-name="パス 30200" d="M416.418,330.808H406.69a1.3,1.3,0,0,1,0-2.586h9.727a1.3,1.3,0,0,1,0,2.586" transform="translate(-158.683 -133.704)" fill="#575b64"/>
        <path id="パス_30201" data-name="パス 30201" d="M416.64,337.481h-3.794a1.3,1.3,0,0,1,0-2.586h3.794a1.3,1.3,0,0,1,0,2.586" transform="translate(-161.092 -136.064)" fill="#575b64"/>
        <path id="パス_30202" data-name="パス 30202" d="M394.33,314.935c-12.838,0-23.8-10.33-25.429-23.73a5.283,5.283,0,0,1-4.466-5.34v-6.921a5.3,5.3,0,0,1,4.247-5.311v-4.224c0-15.02,11.506-27.24,25.648-27.24s25.649,12.22,25.649,27.24v4.224a5.3,5.3,0,0,1,4.245,5.311v6.921a5.283,5.283,0,0,1-4.463,5.34c-1.633,13.4-12.592,23.73-25.431,23.73m-24.336-26.312a1.176,1.176,0,0,1,.764.286,1.318,1.318,0,0,1,.449.9c1.008,12.641,11.164,22.543,23.123,22.543s22.116-9.9,23.124-22.543a1.32,1.32,0,0,1,.449-.9,1.17,1.17,0,0,1,.921-.275,2.467,2.467,0,0,0,.335.023,2.718,2.718,0,0,0,2.631-2.792v-6.921a2.72,2.72,0,0,0-2.631-2.8,2.272,2.272,0,0,0-.268.016,1.2,1.2,0,0,1-.943-.324,1.333,1.333,0,0,1-.4-.962v-5.469c0-13.594-10.415-24.655-23.214-24.655s-23.213,11.06-23.213,24.655v5.469a1.332,1.332,0,0,1-.4.961,1.181,1.181,0,0,1-.942.325,2.343,2.343,0,0,0-.27-.016,2.722,2.722,0,0,0-2.633,2.8v6.921a2.719,2.719,0,0,0,2.633,2.792,2.49,2.49,0,0,0,.335-.023,1.163,1.163,0,0,1,.156-.011" transform="translate(-142.622 -103.275)" fill="#575b64"/>
        <path id="パス_30203" data-name="パス 30203" d="M415.274,318.522h-4.715a1.3,1.3,0,0,1,0-2.586h4.715a1.3,1.3,0,0,1,0,2.586" transform="translate(-160.197 -129.36)" fill="#575b64"/>
        <path id="パス_30204" data-name="パス 30204" d="M316.081,356.181h0a1.209,1.209,0,0,1-1.07-.676l-12.982-25.417a1.334,1.334,0,0,1,.489-1.753,1.183,1.183,0,0,1,1.65.52l11.913,23.323,11.914-23.323a1.182,1.182,0,0,1,1.651-.52,1.334,1.334,0,0,1,.489,1.753l-12.984,25.417a1.209,1.209,0,0,1-1.07.676" transform="translate(-118.142 -133.689)" fill="#575b64"/>
        <path id="パス_30205" data-name="パス 30205" d="M772,325.812h0a39.017,39.017,0,0,1-23.13-7.605,1.344,1.344,0,0,1-.314-1.8l22.437-34.756a1.225,1.225,0,0,1,.6-.488L809,267.11a1.153,1.153,0,0,1,.931.052,1.27,1.27,0,0,1,.623.736c5.216,15.694,1.431,33.434-9.644,45.193A39.453,39.453,0,0,1,772,325.812m-20.74-9.022A36.624,36.624,0,0,0,772,323.226a37.1,37.1,0,0,0,27.191-11.962c10.128-10.755,13.774-26.827,9.457-41.278l-35.87,13.476Z" transform="translate(-292.865 -112.069)" fill="#575b64"/>
        <path id="パス_30206" data-name="パス 30206" d="M725.669,301.8a1.169,1.169,0,0,1-.691-.229,41.981,41.981,0,0,1-5.73-5.07c-15.943-16.934-15.944-44.486,0-61.419a41.155,41.155,0,0,1,9.785-7.685,1.157,1.157,0,0,1,.928-.094,1.239,1.239,0,0,1,.718.632l18.561,37.251a1.361,1.361,0,0,1-.073,1.338l-22.494,34.717a1.214,1.214,0,0,1-.782.538,1.152,1.152,0,0,1-.221.021m3.436-71.5a38.913,38.913,0,0,0-8.136,6.6c-14.994,15.925-14.993,41.837,0,57.763a39.75,39.75,0,0,0,4.4,4.019L746.743,265.7Z" transform="translate(-276.8 -97.998)" fill="#575b64"/>
        <path id="パス_30207" data-name="パス 30207" d="M765.457,202.659a37.827,37.827,0,0,0-17.849,4.824l18.471,37.3Z" transform="translate(-292.578 -89.304)" fill="#f77ee6"/>
        <path id="パス_30208" data-name="パス 30208" d="M765.3,245.373a1.211,1.211,0,0,1-1.078-.691l-18.471-37.3a1.334,1.334,0,0,1,.511-1.746,39.2,39.2,0,0,1,18.4-4.973h.019a1.255,1.255,0,0,1,1.217,1.273l.623,42.129a1.284,1.284,0,0,1-.917,1.273,1.145,1.145,0,0,1-.3.04m-16.818-38.037L764,238.683l-.523-35.4a36.883,36.883,0,0,0-15,4.051" transform="translate(-291.795 -88.597)" fill="#575b64"/>
        <path id="パス_30209" data-name="パス 30209" d="M827.344,238.589a42.408,42.408,0,0,0-9.373-15.786A38.37,38.37,0,0,0,789.22,210.47l.7,42.126Z" transform="translate(-308.863 -92.064)" fill="#5096ff"/>
        <path id="パス_30210" data-name="パス 30210" d="M789.134,253.182a1.169,1.169,0,0,1-.694-.231,1.317,1.317,0,0,1-.523-1.039l-.7-42.126a1.336,1.336,0,0,1,.341-.92,1.187,1.187,0,0,1,.855-.395,39.389,39.389,0,0,1,29.633,12.711,43.46,43.46,0,0,1,9.661,16.272,1.314,1.314,0,0,1-.743,1.648l-37.428,14.008a1.141,1.141,0,0,1-.4.074m.542-42.129.646,39.02L824.992,237.1a40.764,40.764,0,0,0-8.664-14.088,37.127,37.127,0,0,0-26.651-11.956" transform="translate(-308.081 -91.357)" fill="#575b64"/>
        <path id="パス_30211" data-name="パス 30211" d="M205.234,425.334H174.126a1.256,1.256,0,0,1-1.217-1.293V382.11a1.256,1.256,0,0,1,1.217-1.293h19.63a1.3,1.3,0,0,1,0,2.586H175.344v39.345h28.673V405.771a1.219,1.219,0,1,1,2.435,0v18.27a1.257,1.257,0,0,1-1.217,1.293" transform="translate(-67.668 -152.302)" fill="#575b64"/>
        <path id="パス_30212" data-name="パス 30212" d="M209.275,404.474l-10.377,5.8,1.459-12.354,12.866-19.731,8.916,6.559Z" transform="translate(-77.839 -151.372)" fill="#ff8e6f"/>
        <path id="パス_30213" data-name="パス 30213" d="M198.114,410.856a1.166,1.166,0,0,1-.693-.23,1.326,1.326,0,0,1-.515-1.224l1.459-12.353a1.337,1.337,0,0,1,.208-.575l12.866-19.731a1.211,1.211,0,0,1,.783-.536,1.168,1.168,0,0,1,.911.209l8.915,6.559a1.344,1.344,0,0,1,.308,1.8L209.492,404.5a1.26,1.26,0,0,1-.434.409l-10.377,5.8a1.158,1.158,0,0,1-.567.149m2.63-13.171-1.131,9.58,8.048-4.5,12-18.4-6.915-5.087Z" transform="translate(-77.056 -150.664)" fill="#575b64"/>
        <path id="パス_30214" data-name="パス 30214" d="M105.406,371.566a1.18,1.18,0,0,1-.844-.361l-6.236-6.363a1.35,1.35,0,0,1-.034-1.828,1.168,1.168,0,0,1,1.721-.037l5.326,5.435L116.97,354.6a1.167,1.167,0,0,1,1.718-.1,1.349,1.349,0,0,1,.1,1.825l-12.471,14.811a1.193,1.193,0,0,1-.861.431h-.046" transform="translate(-38.334 -142.879)" fill="#575b64"/>
        <path id="パス_30215" data-name="パス 30215" d="M101.925,376.158c-10.112,0-18.339-8.738-18.339-19.478s8.227-19.475,18.339-19.475,18.34,8.737,18.34,19.475-8.227,19.478-18.34,19.478m0-36.367c-8.77,0-15.9,7.576-15.9,16.889s7.135,16.892,15.9,16.892S117.83,366,117.83,356.681s-7.135-16.889-15.905-16.889" transform="translate(-32.712 -136.881)" fill="#575b64"/>
        <path id="パス_30224" data-name="パス 30224" d="M410.066,382.84l6.088,4.551-4.059,9.819,2.932,19.878H405.1l2.48-19.878s-6.089-8.86-5.186-9.818,7.668-4.551,7.668-4.551" transform="translate(-157.444 -153.017)" fill="gold"/>
        <path id="パス_30225" data-name="パス 30225" d="M367.464,241.156a1.2,1.2,0,0,1-.988-.537l-11.711-17.261a1.345,1.345,0,0,1,.276-1.8,1.172,1.172,0,0,1,1.7.293l11.711,17.261a1.345,1.345,0,0,1-.276,1.8,1.166,1.166,0,0,1-.71.244" transform="translate(-138.748 -95.899)" fill="#575b64"/>
        <path id="パス_30226" data-name="パス 30226" d="M374.992,241.1a1.169,1.169,0,0,1-.752-.277,1.348,1.348,0,0,1-.2-1.815l12.857-17.363a1.169,1.169,0,0,1,1.709-.217,1.347,1.347,0,0,1,.2,1.815L375.95,240.606a1.191,1.191,0,0,1-.958.494" transform="translate(-146.278 -95.843)" fill="#575b64"/>
        <path id="パス_30227" data-name="パス 30227" d="M570.683,247.946h0a1.2,1.2,0,0,1-1.038-.617l-11.01-19.071a1.34,1.34,0,0,1,.4-1.778,1.177,1.177,0,0,1,1.674.427l9.972,17.274,9.973-17.274a1.177,1.177,0,0,1,1.674-.427,1.34,1.34,0,0,1,.4,1.778l-11.01,19.071a1.2,1.2,0,0,1-1.038.617" transform="translate(-218.553 -97.66)" fill="#575b64"/>
        <path id="パス_30228" data-name="パス 30228" d="M394.851,385.366a1.194,1.194,0,0,1-.987-.534,1.346,1.346,0,0,1,.271-1.805l9.475-7.292L395,365.576a1.35,1.35,0,0,1,.091-1.825,1.167,1.167,0,0,1,1.719.1l9.513,11.227a1.347,1.347,0,0,1,.306,1,1.31,1.31,0,0,1-.5.91l-10.571,8.136a1.165,1.165,0,0,1-.713.246" transform="translate(-154.049 -146.15)" fill="#575b64"/>
        <path id="パス_30229" data-name="パス 30229" d="M390.122,385.357a1.22,1.22,0,0,1-1.128-.805L381.568,365.2a1.322,1.322,0,0,1,.668-1.685,1.194,1.194,0,0,1,1.586.71l7.427,19.351a1.322,1.322,0,0,1-.668,1.686,1.16,1.16,0,0,1-.459.1" transform="translate(-149.292 -146.15)" fill="#575b64"/>
        <path id="パス_30230" data-name="パス 30230" d="M424.522,385.367a1.166,1.166,0,0,1-.713-.246l-10.569-8.136a1.311,1.311,0,0,1-.5-.928,1.339,1.339,0,0,1,.33-1.009l10.04-11.227a1.167,1.167,0,0,1,1.721-.047,1.349,1.349,0,0,1,.044,1.827L415.8,375.758l9.443,7.269a1.345,1.345,0,0,1,.271,1.805,1.194,1.194,0,0,1-.987.534" transform="translate(-161.526 -146.15)" fill="#575b64"/>
        <path id="パス_30231" data-name="パス 30231" d="M431.267,385.357a1.15,1.15,0,0,1-.459-.1,1.322,1.322,0,0,1-.668-1.685l7.43-19.353a1.191,1.191,0,0,1,1.587-.709,1.321,1.321,0,0,1,.668,1.685l-7.43,19.354a1.22,1.22,0,0,1-1.128.805" transform="translate(-168.301 -146.149)" fill="#575b64"/>
        <path id="パス_30232" data-name="パス 30232" d="M310.791,274.89a3.02,3.02,0,1,1-3.015-3.2,3.116,3.116,0,0,1,3.015,3.2" transform="translate(-119.269 -113.713)" fill="#575b64"/>
        <path id="パス_30233" data-name="パス 30233" d="M340.917,274.89a3.02,3.02,0,1,1-3.014-3.2,3.116,3.116,0,0,1,3.014,3.2" transform="translate(-131.06 -113.713)" fill="#575b64"/>
        <path id="パス_30234" data-name="パス 30234" d="M390.958,304.791c-5.181,0-9.4-4.538-9.4-10.117a10.791,10.791,0,0,1,.5-3.263,1.227,1.227,0,0,1,1.154-.88H398.7a1.226,1.226,0,0,1,1.154.881,10.814,10.814,0,0,1,.5,3.262c0,5.578-4.215,10.117-9.4,10.117m-6.812-11.675a8.079,8.079,0,0,0-.151,1.558c0,4.152,3.124,7.531,6.963,7.531s6.963-3.379,6.963-7.531a8.081,8.081,0,0,0-.151-1.558Z" transform="translate(-149.324 -120.376)" fill="#575b64"/>
        <path id="パス_30235" data-name="パス 30235" d="M425.786,304.791c-5.182,0-9.4-4.538-9.4-10.117a10.8,10.8,0,0,1,.5-3.262,1.226,1.226,0,0,1,1.154-.881h15.483a1.226,1.226,0,0,1,1.154.882,10.83,10.83,0,0,1,.5,3.262c0,5.578-4.215,10.117-9.4,10.117m-6.813-11.675a8.127,8.127,0,0,0-.15,1.558c0,4.152,3.124,7.531,6.963,7.531s6.962-3.379,6.962-7.531a8.129,8.129,0,0,0-.15-1.558Z" transform="translate(-162.954 -120.376)" fill="#575b64"/>
        <path id="パス_30236" data-name="パス 30236" d="M372.4,286.881a1.222,1.222,0,0,1-1.141-.839,1.318,1.318,0,0,1,.709-1.664c.053-.021,5.285-2.192,5.934-7.138.3-2.312,1.045-3.757,2.268-4.415,1.884-1.017,4.147.273,6.141,1.412l.59.335a21.127,21.127,0,0,0,20.219,0l.589-.335c2-1.138,4.258-2.43,6.141-1.412,1.223.658,1.965,2.1,2.268,4.415.648,4.946,5.882,7.116,5.934,7.138a1.319,1.319,0,0,1,.707,1.666,1.2,1.2,0,0,1-1.564.754c-.271-.107-6.638-2.716-7.488-9.2-.175-1.334-.525-2.233-.959-2.467-.753-.4-2.491.588-3.888,1.385l-.605.343a21.552,21.552,0,0,1-10.743,2.867,1.208,1.208,0,0,1-.152.01h-.7a1.185,1.185,0,0,1-.152-.01,21.547,21.547,0,0,1-10.744-2.867l-.606-.343c-1.4-.8-3.135-1.786-3.887-1.385-.434.235-.783,1.133-.958,2.468-.851,6.484-7.217,9.092-7.488,9.2a1.149,1.149,0,0,1-.427.083" transform="translate(-145.264 -113.985)" fill="#575b64"/>
        <path id="パス_30237" data-name="パス 30237" d="M404.961,419.358a1.18,1.18,0,0,1-.172-.012,1.283,1.283,0,0,1-1.035-1.461l2.428-18.282-4.115-8.741a1.331,1.331,0,0,1,.544-1.734,1.185,1.185,0,0,1,1.634.578l4.284,9.1a1.37,1.37,0,0,1,.117.759l-2.481,18.68a1.244,1.244,0,0,1-1.2,1.112" transform="translate(-157.299 -155.192)" fill="#575b64"/>
        <path id="パス_30238" data-name="パス 30238" d="M420.084,419.358a1.244,1.244,0,0,1-1.2-1.112l-2.481-18.68a1.371,1.371,0,0,1,.117-.759l4.284-9.1a1.186,1.186,0,0,1,1.634-.578,1.331,1.331,0,0,1,.544,1.734l-4.115,8.741,2.428,18.282a1.283,1.283,0,0,1-1.035,1.461,1.184,1.184,0,0,1-.172.012" transform="translate(-162.954 -155.192)" fill="#575b64"/>
        <path id="パス_30239" data-name="パス 30239" d="M414.029,405.656H410.2a1.3,1.3,0,0,1,0-2.586h3.833a1.3,1.3,0,0,1,0,2.586" transform="translate(-160.054 -160.171)" fill="#575b64"/>
        <path id="パス_30240" data-name="パス 30240" d="M325.546,238.331a8.56,8.56,0,0,0,2.564-6.158,8.119,8.119,0,0,0-7.864-8.352,7.48,7.48,0,0,0-4.139,1.259,7.734,7.734,0,0,0-7.5-7.117,7.23,7.23,0,0,0-4.512,1.6,7.861,7.861,0,0,0-4.735-1.6,8.372,8.372,0,0,0-8.059,6.957,7.294,7.294,0,0,0-4.006-1.209,7.916,7.916,0,0,0-7.667,8.143,8.275,8.275,0,0,0,3.432,6.786,7.966,7.966,0,0,0-5.461,7.7,7.568,7.568,0,1,0,15.109,0,6.846,6.846,0,0,0-.9-3.951h23s1.07,5.909,10.507,7.985a12.679,12.679,0,0,0,2.192-.276,6.42,6.42,0,0,0,3.023-5.519,6.243,6.243,0,0,0-4.981-6.251" transform="translate(-108.638 -94.716)" fill="#5096ff"/>
        <path id="パス_30241" data-name="パス 30241" d="M284.4,255.432c-4.855,0-8.8-4.226-8.8-9.421a9.6,9.6,0,0,1,4.436-8.172,9.892,9.892,0,0,1-2.4-6.509c0-5.262,4-9.542,8.917-9.542a8.356,8.356,0,0,1,3.269.67,9.566,9.566,0,0,1,8.847-6.493,8.931,8.931,0,0,1,4.738,1.363,8.278,8.278,0,0,1,4.548-1.363,8.883,8.883,0,0,1,8.4,6.6,8.528,8.528,0,0,1,3.292-.664c5.026,0,9.115,4.376,9.115,9.755a10.231,10.231,0,0,1-1.669,5.61,7.749,7.749,0,0,1,4.1,6.962,7.852,7.852,0,0,1-3.646,6.712,9.3,9.3,0,0,1-2.8.452,1.21,1.21,0,0,1-.236-.023c-7.85-1.742-10.413-6.058-11.2-8.067h-20.4a11.558,11.558,0,0,1,.3,2.711c0,5.2-3.95,9.421-8.8,9.421m2.151-31.058a6.739,6.739,0,0,0-6.482,6.957,7.094,7.094,0,0,0,2.907,5.8,1.327,1.327,0,0,1,.525,1.272,1.271,1.271,0,0,1-.864,1.043,6.813,6.813,0,0,0-4.607,6.564,6.385,6.385,0,1,0,12.739,0,6.156,6.156,0,0,0-.655-3.218,1.335,1.335,0,0,1-.141-1.356,1.214,1.214,0,0,1,1.107-.722h23.1a1.239,1.239,0,0,1,1.2,1.05c.04.2,1.13,5.133,9.46,7.035.356-.023,1.265-.106,1.6-.173a5.24,5.24,0,0,0,2.312-4.4,5.023,5.023,0,0,0-3.988-5.059,1.244,1.244,0,0,1-.964-.907,1.346,1.346,0,0,1,.341-1.318,7.432,7.432,0,0,0,2.183-5.288,6.946,6.946,0,0,0-6.68-7.169,6.335,6.335,0,0,0-3.511,1.078,1.152,1.152,0,0,1-1.175.069,1.293,1.293,0,0,1-.68-1.02,6.539,6.539,0,0,0-6.325-6.061,6.031,6.031,0,0,0-3.8,1.359,1.16,1.16,0,0,1-1.438.021,6.68,6.68,0,0,0-4.05-1.38,7.211,7.211,0,0,0-6.9,6.016,1.279,1.279,0,0,1-.711.928,1.154,1.154,0,0,1-1.123-.089,6.135,6.135,0,0,0-3.382-1.031" transform="translate(-107.855 -94.009)" fill="#575b64"/>
      </g>
    </g>
    <g id="グループ_5991" data-name="グループ 5991" transform="translate(204.072 10.162)">
      <rect id="長方形_10453" data-name="長方形 10453" width="32.145" height="12.652" transform="translate(1.618 1.662)" fill="#5096ff"/>
      <g id="グループ_5990" data-name="グループ 5990">
        <path id="パス_29976" data-name="パス 29976" d="M393.622,15.633H359.377a1.231,1.231,0,0,1-1.231-1.231V1.231A1.231,1.231,0,0,1,359.377,0h34.246a1.23,1.23,0,0,1,.479.1l15.087,6.372a1.231,1.231,0,0,1,.027,2.256l-15.087,6.8a1.226,1.226,0,0,1-.506.109m-33.015-2.461h32.751l12.275-5.534-12.26-5.177H360.607Z" transform="translate(-358.146)" fill="#575b64"/>
        <path id="パス_29977" data-name="パス 29977" d="M429.053,13.8a1.231,1.231,0,0,1-1.231-1.231V8.25a1.231,1.231,0,1,1,2.461,0v4.322a1.231,1.231,0,0,1-1.231,1.231" transform="translate(-384.949 -2.7)" fill="#575b64"/>
        <path id="パス_29978" data-name="パス 29978" d="M413.843,15.777a1.231,1.231,0,0,1-1.231-1.231V1.6a1.231,1.231,0,1,1,2.461,0V14.547a1.231,1.231,0,0,1-1.231,1.231" transform="translate(-379.098 -0.144)" fill="#575b64"/>
      </g>
    </g>
  </g>
</svg>
