<svg xmlns="http://www.w3.org/2000/svg" xmlns:xlink="http://www.w3.org/1999/xlink" width="256.806" height="288.647" viewBox="0 0 256.806 288.647">
  <defs>
    <filter id="長方形_10533" x="0" y="0" width="256.806" height="288.647" filterUnits="userSpaceOnUse">
      <feOffset dy="3" input="SourceAlpha"/>
      <feGaussianBlur stdDeviation="3" result="blur"/>
      <feFlood flood-opacity="0.161"/>
      <feComposite operator="in" in2="blur"/>
      <feComposite in="SourceGraphic"/>
    </filter>
  </defs>
  <g id="_4" transform="translate(8.403 5.403)">
    <g id="グループ_6279" data-name="グループ 6279">
      <g id="グループ_6256" data-name="グループ 6256">
        <g transform="matrix(1, 0, 0, 1, -8.4, -5.4)" filter="url(#長方形_10533)">
          <rect id="長方形_10533-2" data-name="長方形 10533" width="238.806" height="270.647" transform="translate(9 6)" fill="#fff"/>
        </g>
        <path id="パス_30591" data-name="パス 30591" d="M240,271.841H0V0H240ZM1.194,270.647H238.806V1.194H1.194Z" fill="#bd9033"/>
      </g>
      <g id="グループ_6269" data-name="グループ 6269" transform="translate(46.862 28.935)">
        <g id="グループ_6257" data-name="グループ 6257" transform="translate(31.999 2.046)">
          <path id="パス_30592" data-name="パス 30592" d="M246.659,80.471a72.163,72.163,0,0,0-26.328-2.289S207.475,84.4,205.29,88.714q2.352-.758,4.991-1.445c3.009-2.539,10.758-5.576,10.758-5.576,20.565-2.289,51.355,12.681,63.546,32.223,0,0-8.239-24.525-37.918-33.445Z" transform="translate(-202.443 -77.84)" fill="#bd9033"/>
          <path id="パス_30593" data-name="パス 30593" d="M198.465,124.75a7.746,7.746,0,0,0-.295,2.5c1.552-.677,3.733-1.349,3.733-1.349a20.382,20.382,0,0,1,.72-2.444,37.324,37.324,0,0,0-4.163,1.29Z" transform="translate(-198.138 -105.303)" fill="#bd9033"/>
        </g>
        <g id="グループ_6258" data-name="グループ 6258" transform="translate(9.82 10.649)">
          <path id="パス_30594" data-name="パス 30594" d="M174.13,101.181a72.2,72.2,0,0,0-23.948,11.184s-8.024,11.813-7.761,16.641q1.66-1.833,3.6-3.745c1.337-3.705,6.527-10.2,6.527-10.2,16.665-12.263,50.818-14.695,71.144-3.865,0,0-19.4-17.122-49.56-10Z" transform="translate(-142.414 -99.456)" fill="#bd9033"/>
          <path id="パス_30595" data-name="パス 30595" d="M147.73,190.67a7.71,7.71,0,0,0,1,2.312c1.007-1.361,2.559-3.037,2.559-3.037a20.272,20.272,0,0,1-.6-2.476,38.075,38.075,0,0,0-2.961,3.2Z" transform="translate(-145.614 -152.439)" fill="#bd9033"/>
        </g>
        <g id="グループ_6259" data-name="グループ 6259" transform="translate(0 19.707)">
          <path id="パス_30596" data-name="パス 30596" d="M133.091,138.881a72.18,72.18,0,0,0-15.148,21.656s-1.043,14.241,1.6,18.293q.519-2.418,1.246-5.047c-.7-3.877.549-12.1.549-12.1,8.3-18.953,36.661-38.137,59.678-38.921,0,0-25.361-5.13-47.924,16.119Z" transform="translate(-117.74 -122.213)" fill="#bd9033"/>
          <path id="パス_30597" data-name="パス 30597" d="M137.77,274.291a7.638,7.638,0,0,0,2.022,1.5c.191-1.684.7-3.908.7-3.908a20.041,20.041,0,0,1-1.755-1.847A38.949,38.949,0,0,0,137.77,274.291Z" transform="translate(-129.798 -211.203)" fill="#bd9033"/>
        </g>
        <g id="グループ_6260" data-name="グループ 6260" transform="translate(2.046 32.326)">
          <path id="パス_30598" data-name="パス 30598" d="M125.511,191.846a72.164,72.164,0,0,0-2.289,26.328s6.217,12.856,10.531,15.041q-.758-2.352-1.445-4.991c-2.539-3.009-5.576-10.758-5.576-10.758-2.289-20.565,12.681-51.355,32.223-63.546,0,0-24.525,8.239-33.445,37.918Z" transform="translate(-122.88 -153.92)" fill="#bd9033"/>
          <path id="パス_30599" data-name="パス 30599" d="M169.79,353.2a7.744,7.744,0,0,0,2.5.295c-.677-1.552-1.349-3.733-1.349-3.733a20.39,20.39,0,0,1-2.444-.72,37.323,37.323,0,0,0,1.29,4.163Z" transform="translate(-150.343 -271.38)" fill="#bd9033"/>
        </g>
        <g id="グループ_6261" data-name="グループ 6261" transform="translate(10.649 55.367)">
          <path id="パス_30600" data-name="パス 30600" d="M146.221,261.374A72.2,72.2,0,0,0,157.4,285.322s11.813,8.024,16.641,7.761q-1.833-1.66-3.745-3.6c-3.705-1.337-10.2-6.527-10.2-6.527-12.263-16.665-14.695-50.818-3.865-71.144,0,0-17.122,19.4-10,49.56Z" transform="translate(-144.496 -211.81)" fill="#bd9033"/>
          <path id="パス_30601" data-name="パス 30601" d="M235.71,405.338a7.71,7.71,0,0,0,2.312-1c-1.361-1.007-3.037-2.559-3.037-2.559a20.273,20.273,0,0,1-2.476.6,38.094,38.094,0,0,0,3.2,2.961Z" transform="translate(-197.479 -326.17)" fill="#bd9033"/>
        </g>
        <g id="グループ_6262" data-name="グループ 6262" transform="translate(19.707 83.192)">
          <path id="パス_30602" data-name="パス 30602" d="M183.921,329.644a72.182,72.182,0,0,0,21.656,15.148s14.241,1.043,18.292-1.6q-2.418-.519-5.047-1.246c-3.877.7-12.1-.549-12.1-.549-18.953-8.3-38.137-36.661-38.921-59.678,0,0-5.13,25.361,16.119,47.924Z" transform="translate(-167.253 -281.72)" fill="#bd9033"/>
          <path id="パス_30603" data-name="パス 30603" d="M319.331,416.562a7.638,7.638,0,0,0,1.5-2.022c-1.684-.191-3.908-.7-3.908-.7a20.044,20.044,0,0,1-1.847,1.755A38.944,38.944,0,0,0,319.331,416.562Z" transform="translate(-256.243 -361.255)" fill="#bd9033"/>
        </g>
        <g id="グループ_6263" data-name="グループ 6263" transform="translate(32.326 108.346)">
          <path id="パス_30604" data-name="パス 30604" d="M236.886,378.365a72.163,72.163,0,0,0,26.328,2.288s12.856-6.217,15.041-10.531q-2.352.758-4.991,1.445c-3.009,2.539-10.758,5.576-10.758,5.576-20.565,2.289-51.355-12.681-63.546-32.223,0,0,8.239,24.525,37.918,33.445Z" transform="translate(-198.96 -344.92)" fill="#bd9033"/>
          <path id="パス_30605" data-name="パス 30605" d="M398.239,382.913a7.746,7.746,0,0,0,.294-2.5c-1.552.677-3.733,1.349-3.733,1.349a20.381,20.381,0,0,1-.72,2.444,37.336,37.336,0,0,0,4.163-1.29Z" transform="translate(-316.42 -366.285)" fill="#bd9033"/>
        </g>
        <g id="グループ_6264" data-name="グループ 6264" transform="translate(55.367 95.276)">
          <path id="パス_30606" data-name="パス 30606" d="M306.414,367.535a72.2,72.2,0,0,0,23.948-11.184s8.024-11.813,7.761-16.641q-1.66,1.833-3.6,3.745c-1.337,3.705-6.527,10.2-6.527,10.2-16.665,12.263-50.818,14.695-71.144,3.865,0,0,19.4,17.122,49.56,10Z" transform="translate(-256.85 -328.713)" fill="#bd9033"/>
          <path id="パス_30607" data-name="パス 30607" d="M450.378,314.393a7.711,7.711,0,0,0-1-2.312c-1.007,1.361-2.559,3.037-2.559,3.037a20.269,20.269,0,0,1,.6,2.476,38.081,38.081,0,0,0,2.961-3.2Z" transform="translate(-371.21 -312.08)" fill="#bd9033"/>
        </g>
        <g id="グループ_6265" data-name="グループ 6265" transform="translate(83.192 62.173)">
          <path id="パス_30608" data-name="パス 30608" d="M374.684,288.888a72.182,72.182,0,0,0,15.148-21.656s1.043-14.241-1.6-18.293q-.519,2.418-1.246,5.047c.7,3.877-.549,12.1-.549,12.1-8.3,18.953-36.661,38.137-59.678,38.921,0,0,25.361,5.13,47.924-16.119Z" transform="translate(-326.76 -240.968)" fill="#bd9033"/>
          <path id="パス_30609" data-name="パス 30609" d="M461.6,230.414a7.639,7.639,0,0,0-2.022-1.5c-.191,1.684-.7,3.908-.7,3.908a20.045,20.045,0,0,1,1.755,1.847A38.961,38.961,0,0,0,461.6,230.414Z" transform="translate(-406.295 -228.91)" fill="#bd9033"/>
        </g>
        <g id="グループ_6266" data-name="グループ 6266" transform="translate(108.346 31.999)">
          <path id="パス_30610" data-name="パス 30610" d="M423.4,201.619a72.163,72.163,0,0,0,2.289-26.328s-6.217-12.856-10.531-15.041q.758,2.352,1.445,4.991c2.539,3.009,5.576,10.758,5.576,10.758,2.289,20.565-12.681,51.355-32.223,63.546,0,0,24.525-8.239,33.445-37.918Z" transform="translate(-389.96 -157.404)" fill="#bd9033"/>
          <path id="パス_30611" data-name="パス 30611" d="M427.953,153.425a7.746,7.746,0,0,0-2.5-.295c.677,1.552,1.349,3.733,1.349,3.733a20.376,20.376,0,0,1,2.444.72,37.318,37.318,0,0,0-1.289-4.163Z" transform="translate(-411.325 -153.098)" fill="#bd9033"/>
        </g>
        <g id="グループ_6267" data-name="グループ 6267" transform="translate(95.276 9.82)">
          <path id="パス_30612" data-name="パス 30612" d="M412.575,129.09a72.2,72.2,0,0,0-11.184-23.948s-11.813-8.024-16.641-7.761q1.833,1.66,3.745,3.6c3.705,1.337,10.2,6.527,10.2,6.527,12.263,16.665,14.694,50.818,3.865,71.144,0,0,17.122-19.4,10-49.56Z" transform="translate(-373.753 -97.374)" fill="#bd9033"/>
          <path id="パス_30613" data-name="パス 30613" d="M359.432,102.69a7.711,7.711,0,0,0-2.312,1c1.361,1.007,3.037,2.559,3.037,2.559a20.275,20.275,0,0,1,2.476-.6,38.074,38.074,0,0,0-3.2-2.961Z" transform="translate(-357.12 -100.574)" fill="#bd9033"/>
        </g>
        <g id="グループ_6268" data-name="グループ 6268" transform="translate(62.173)">
          <path id="パス_30614" data-name="パス 30614" d="M333.928,88.051A72.181,72.181,0,0,0,312.273,72.9s-14.241-1.043-18.293,1.6q2.418.519,5.047,1.246c3.877-.7,12.1.549,12.1.549,18.953,8.3,38.137,36.661,38.921,59.678,0,0,5.13-25.361-16.119-47.924Z" transform="translate(-286.008 -72.7)" fill="#bd9033"/>
          <path id="パス_30615" data-name="パス 30615" d="M275.454,92.73a7.638,7.638,0,0,0-1.5,2.022c1.684.191,3.909.7,3.909.7a20.039,20.039,0,0,1,1.847-1.755,38.956,38.956,0,0,0-4.251-.967Z" transform="translate(-273.95 -84.758)" fill="#bd9033"/>
        </g>
      </g>
      <g id="グループ_6274" data-name="グループ 6274" transform="translate(32.243 187.833)">
        <g id="グループ_6272" data-name="グループ 6272">
          <g id="グループ_6270" data-name="グループ 6270" transform="translate(0 1.19)">
            <path id="パス_30616" data-name="パス 30616" d="M81.01,475.824H91.1q4.376,0,6.281.991a4.3,4.3,0,0,1,1.668,1.5,3.86,3.86,0,0,1,.685,2.2,3.948,3.948,0,0,1-.864,2.464,5.767,5.767,0,0,1-2.945,1.847,14.5,14.5,0,0,1-1.489.374,15.228,15.228,0,0,1,2.531.617,5.856,5.856,0,0,1,2.917,2.141,4.362,4.362,0,0,1,.712,2.436,4.292,4.292,0,0,1-1.429,3.3q-2.084,1.9-8.6,1.9H81.042V494.6h.8a3.319,3.319,0,0,0,1.369-.215,1.219,1.219,0,0,0,.685-1.258V478.312a1.19,1.19,0,0,0-.685-1.258,3.1,3.1,0,0,0-1.4-.243h-.8v-.991Zm6.933,8.919h3.423a4.87,4.87,0,0,0,2.173-.43,2.7,2.7,0,0,0,1.19-1.1,4.613,4.613,0,0,0,.657-2.412,3.556,3.556,0,0,0-1.906-3.483,6.014,6.014,0,0,0-2.679-.509h-.832a3.38,3.38,0,0,0-1.4.215c-.418.179-.625.589-.625,1.234v6.484Zm0,.991v7.447c0,.645.207,1.043.625,1.206a3.28,3.28,0,0,0,1.4.215H90.8a9.094,9.094,0,0,0,2.738-.374,3.548,3.548,0,0,0,1.4-.724,3.32,3.32,0,0,0,.923-1.58,5.443,5.443,0,0,0,.239-1.608,4.482,4.482,0,0,0-1.337-3.618,5.185,5.185,0,0,0-3.4-.963H87.939Z" transform="translate(-81.01 -475.462)" fill="#bd9033"/>
            <path id="パス_30617" data-name="パス 30617" d="M141.8,476.821v-.991h10.062v.991h-.8a3.1,3.1,0,0,0-1.341.215c-.458.179-.685.609-.685,1.286v11.491a7.514,7.514,0,0,1-.505,2.838,4.956,4.956,0,0,1-3.065,2.73,9.836,9.836,0,0,1-3.542.617,7.365,7.365,0,0,1-4.645-1.341,5.153,5.153,0,0,1-1.25-1.421,4.065,4.065,0,0,1-.657-2.2,3.27,3.27,0,0,1,.744-2.141,2.6,2.6,0,0,1,2.141-1.019,2.392,2.392,0,0,1,1.516.482,1.859,1.859,0,0,1,.744,1.528,1.785,1.785,0,0,1-.685,1.473,2.352,2.352,0,0,1-1.576.509h-.239a2.421,2.421,0,0,0-.267-.028c-.239,0-.358.207-.358.617a1.952,1.952,0,0,0,.8,1.58,4.022,4.022,0,0,0,2.591.8,5.045,5.045,0,0,0,2.233-.509,3.545,3.545,0,0,0,1.815-3.51V478.314c0-.677-.227-1.106-.685-1.286a3.091,3.091,0,0,0-1.337-.215H141.8Z" transform="translate(-113.734 -475.468)" fill="#bd9033"/>
            <path id="パス_30618" data-name="パス 30618" d="M199.616,475.1h.923l.239,7.634h-1.222a12.452,12.452,0,0,0-1.282-4.123,5.391,5.391,0,0,0-1.934-1.954,5.748,5.748,0,0,0-2.917-.748,5.845,5.845,0,0,0-3.662,1.234,6.589,6.589,0,0,0-2.082,3.8,18.691,18.691,0,0,0-.478,4.418,12.265,12.265,0,0,0,1.429,6.376,5.083,5.083,0,0,0,2.082,1.847,5.2,5.2,0,0,0,2.472.617,6.622,6.622,0,0,0,3.542-1.1,7.338,7.338,0,0,0,2.945-3.347,8.213,8.213,0,0,0,.446-1.445l1.071.108a11.693,11.693,0,0,1-.728,2.372,7.439,7.439,0,0,1-1.206,1.835,7.786,7.786,0,0,1-2.826,2.062,9.834,9.834,0,0,1-3.96.776,10.039,10.039,0,0,1-6.428-2.141,9.249,9.249,0,0,1-2.5-2.894,10.3,10.3,0,0,1-1.13-4.983,11.09,11.09,0,0,1,1.309-5.465,9.368,9.368,0,0,1,3.216-3.427,10.687,10.687,0,0,1,3.51-1.365,12.268,12.268,0,0,1,2.531-.267,10.656,10.656,0,0,1,3.6.617c.2.072.693.314,1.489.724a1.2,1.2,0,0,0,.565.187c.3,0,.625-.446.983-1.337Z" transform="translate(-142.052 -474.92)" fill="#bd9033"/>
          </g>
          <g id="グループ_6271" data-name="グループ 6271" transform="translate(65.305)">
            <path id="パス_30619" data-name="パス 30619" d="M251.215,476.431c.43-.525.808-.975,1.4-1.6,2.094,1.644,2.213,1.787,2.213,2,0,.143-.143.263-.382.263H246.9l-1.811.119v-.9l1.811.119h4.31Zm-.76,9.357c.382-.9.645-1.142.88-1.142.287,0,.525.048,1.333.645.736.549.808.784.808,1,0,.263-.263.5-.712.712v.808c0,2.117.119,3.455.119,3.857,0,.712-.669,1.118-1.6,1.118a.623.623,0,0,1-.712-.693v-.712h-2.547v1.357c0,.454-.573.88-1.692.88a.5.5,0,0,1-.573-.549c0-.406.072-2.237.072-5.668,0-1.095-.024-1.692-.072-2.619a11.276,11.276,0,0,1,2.6,1h2.094Zm-.119-12.382c.43-.525.856-.975,1.333-1.477,2.026,1.572,2.05,1.692,2.05,1.883,0,.143-.143.263-.382.263h-5.429l-1.811.119v-.9l1.811.119h2.428Zm-.072,6.026A16.475,16.475,0,0,1,251.55,478c2,1.5,2.094,1.644,2.094,1.835,0,.143-.143.263-.382.263H247.9l-1.811.119v-.9l1.811.119h2.356Zm-.167,3.073a16.462,16.462,0,0,1,1.286-1.429c2,1.5,2.094,1.644,2.094,1.835,0,.143-.143.263-.382.263H247.9l-1.811.119v-.9l1.811.119h2.189Zm-1.739,3.952-.334.382v3.881h2.547v-4.263Zm6.762-.191a5.246,5.246,0,0,1,1.023,3.12c0,1.572-.76,2.523-1.787,2.523a1.046,1.046,0,0,1-1.142-1.118c0-.43.143-.784.76-1.477a2.777,2.777,0,0,0,.856-1.978,7.794,7.794,0,0,0-.072-1l.358-.072Zm8.525-12.788c.358-.951.621-1.19.88-1.19.382,0,.645.119,1.429.736.716.549,1,.88,1,1.19,0,.406-.239.573-.832.832a36.158,36.158,0,0,1-.645,6,3.346,3.346,0,0,1-3.168,2.977c-.621.072-.712,0-.88-.645a2.639,2.639,0,0,0-1.954-1.572l.048-.358c.76.072,1.453.119,2.026.119.856,0,1.262-.287,1.453-1.047a34.511,34.511,0,0,0,.712-6.38h-2.237c-.024.31-.143.478-.525.573a12.877,12.877,0,0,1-.573,2.428,3.589,3.589,0,0,1,.525.263c1.047.6,1.5,1.262,1.5,1.93,0,.76-.454,1.19-.975,1.19-.43,0-.76-.119-1.31-.808-.167-.215-.382-.43-.6-.669a11.527,11.527,0,0,1-5.524,4.9l-.239-.31a13.348,13.348,0,0,0,4-6.026,11.463,11.463,0,0,0-2.547-1.357l.119-.31a15.059,15.059,0,0,1,2.786.406c.167-.736.263-1.477.382-2.213h-1.047l-2.189.119v-.9l2.189.119h6.193Zm.1,15.288a15.909,15.909,0,0,0-.119,1.859c0,.525.88.549.88,1.19,0,.88-.669,1.62-4.263,1.62-3.1,0-3.5-.358-3.5-1.62,0-.76.072-1.668.072-3.857,0-1.118-.024-1.668-.048-2.213,2.571.239,3.073.43,3.073.693,0,.287-.167.406-.736.645v3.666c0,.478.287.6,1.142.6,1.357,0,1.954-.167,2.332-.832a7.792,7.792,0,0,0,.808-1.787l.358.048Zm-4.621-4.788c2.5.478,3.713,1.883,3.713,3.24,0,.9-.5,1.453-1.214,1.453a1.162,1.162,0,0,1-1.19-1.142,5.407,5.407,0,0,0-1.524-3.264Zm4.525,1.429a7.78,7.78,0,0,1,3.192,2.619,3.447,3.447,0,0,1,.573,1.883,1.373,1.373,0,0,1-1.357,1.548,1.241,1.241,0,0,1-1.238-1.238,9.3,9.3,0,0,0-1.429-4.573l.263-.239Z" transform="translate(-245.09 -471.93)" fill="#bd9033"/>
            <path id="パス_30620" data-name="パス 30620" d="M311.448,476.431c.43-.525.88-1.023,1.477-1.644,2.308,1.691,2.38,1.835,2.38,2.05,0,.143-.143.263-.382.263h-8.072l-1.811.119v-.9l1.811.119h4.6Zm-.6,9.309c.406-.9.712-1.214.975-1.214.31,0,.669.119,1.429.712s.88.808.88,1.023c0,.287-.167.5-.76.784v.9c0,1.811.1,3,.1,3.546,0,.6-.669,1.023-1.763,1.023-.5,0-.712-.167-.712-.645v-.784h-2.786v1.453c0,.478-.621.951-1.835.951-.406,0-.621-.191-.621-.6,0-.287.072-1.524.072-5,0-1.548-.024-2.38-.072-3.288a15.329,15.329,0,0,1,2.834,1.118h2.261Zm-.5-12.263a20.289,20.289,0,0,1,1.429-1.548c2.074,1.572,2.189,1.763,2.189,1.954,0,.143-.143.263-.382.263h-5.811l-1.811.119v-.9l1.811.119h2.571Zm-.024,5.883a20.253,20.253,0,0,1,1.429-1.548c2.074,1.572,2.189,1.763,2.189,1.954,0,.143-.143.263-.382.263H307.87l-1.811.119v-.9l1.811.119h2.452Zm-.024,3.24a20.264,20.264,0,0,1,1.429-1.548c2.07,1.572,2.189,1.763,2.189,1.954,0,.143-.143.263-.382.263H307.87l-1.811.119v-.9l1.811.119H310.3Zm-1.763,3.809-.334.406v3.618h2.786V486.41h-2.452Zm11.622-11.6h-2.977l-2.261.119v-.9l2.261.119h5.906c.5-.669,1.047-1.286,1.6-1.906,2.285,1.787,2.428,2.026,2.428,2.261,0,.167-.119.31-.382.31h-3.666a.7.7,0,0,1-.382.525v7.049h.478c.43-.549.975-1.214,1.453-1.739,2.026,1.6,2.165,1.811,2.165,2.117,0,.167-.119.287-.358.287h-3.737V491.6h.454c.5-.669,1.095-1.381,1.644-1.978,2.308,1.787,2.5,2.05,2.5,2.356a.3.3,0,0,1-.334.287H315.539l-1.6.119v-.9l1.6.119h.31v-8.454c0-1.62-.048-2.762-.119-3.737,3,.287,3.5.478,3.5.784,0,.334-.215.478-.9.76V491.6h1.835V474.808Z" transform="translate(-281.179 -471.93)" fill="#bd9033"/>
            <path id="パス_30621" data-name="パス 30621" d="M365.65,486.262a2.419,2.419,0,0,0,1.787.856,13.312,13.312,0,0,0,1.524-.072c4.215-.358,8.191-.736,11.622-1.118a2.685,2.685,0,0,0,1.357-.454,1.246,1.246,0,0,1,.76-.334,3.511,3.511,0,0,1,1.906,1.095c.927.832,1.19,1.214,1.19,1.691,0,.358-.263.645-.927.808a4.1,4.1,0,0,0-1.572.832c-1.715,1.453-3.192,2.547-5.19,4.024,1.238,1.023,1.5,1.644,1.5,2.452a1.472,1.472,0,0,1-1.477,1.548c-.669,0-1.023-.382-1.453-1.071a15.685,15.685,0,0,0-5.047-5.047l.167-.43a17.336,17.336,0,0,1,5.381,1.883,40.448,40.448,0,0,0,4.382-5.429l-.1-.072c-4.239.478-7.622.975-11.526,1.62a4.015,4.015,0,0,0-1.333.406,1.612,1.612,0,0,1-.736.263c-.358,0-.76-.167-1.572-1.095a4.851,4.851,0,0,1-.927-1.62,2.6,2.6,0,0,1-.072-.621l.358-.119Z" transform="translate(-317.455 -479.882)" fill="#bd9033"/>
            <path id="パス_30622" data-name="パス 30622" d="M424.058,494.78a3.21,3.21,0,0,0,2.547.9c3.737,0,7.9-.239,11.288-.406a25.225,25.225,0,0,0,2.929-.31,6.016,6.016,0,0,1,1.763.358c.573.263,1.047.573,1.047,1.118,0,.784-.549,1.118-1.978,1.118-1.19,0-1.883.024-2.786.024-2.547-.024-6.81.119-10.643.358a3.4,3.4,0,0,0-1.047.239,1.806,1.806,0,0,1-.832.287,2.789,2.789,0,0,1-1.787-1.381,5.237,5.237,0,0,1-.88-2.141l.382-.167Z" transform="translate(-352.6 -485.685)" fill="#bd9033"/>
            <path id="パス_30623" data-name="パス 30623" d="M479.184,494.324a26.262,26.262,0,0,0,7.359-5.715,36.533,36.533,0,0,0,5.286-7.526.942.942,0,0,0,.119-.334c0-.119-.1-.167-.382-.143-1.023.048-2.117.215-2.762.263a1.349,1.349,0,0,1-1.071-.478,19.514,19.514,0,0,1-7.526,6.38l-.215-.358a27.292,27.292,0,0,0,5.93-7.6,2.852,2.852,0,0,0,.43-1.262c0-.382-.287-.808-1.166-1.118l.048-.406c.239-.024.454-.048.669-.048a4.431,4.431,0,0,1,2.308.669c.88.5,1.19.975,1.19,1.357a.8.8,0,0,1-.287.6,3.964,3.964,0,0,0-.43.454c-.143.191-.215.31-.382.549,1.071-.072,1.954-.143,2.834-.263a1.938,1.938,0,0,0,1.357-.525.98.98,0,0,1,.712-.358c.287,0,.693.239,1.477.856.88.688,1.142,1.023,1.142,1.4,0,.406-.263.669-.784.832-.31.119-.621.287-1.142,1.166a32.87,32.87,0,0,1-5.548,6.953,20.393,20.393,0,0,1-8.955,5l-.215-.358Z" transform="translate(-386.01 -474.368)" fill="#bd9033"/>
          </g>
        </g>
        <rect id="長方形_10534" data-name="長方形 10534" width="175.124" height="0.796" transform="translate(0 31.276)" fill="#bd9033"/>
        <g id="グループ_6273" data-name="グループ 6273" transform="translate(0.931 37.899)">
          <path id="パス_30624" data-name="パス 30624" d="M83.35,569.094h3.216a4.69,4.69,0,0,1,2,.314,1.4,1.4,0,0,1,.533.478,1.215,1.215,0,0,1,.219.7,1.263,1.263,0,0,1-.275.784,1.843,1.843,0,0,1-.939.589,3.783,3.783,0,0,1-.474.119,5.139,5.139,0,0,1,.808.195,1.883,1.883,0,0,1,.931.685,1.4,1.4,0,0,1,.227.776,1.368,1.368,0,0,1-.454,1.051,4.29,4.29,0,0,1-2.742.6H83.366v-.314h.255a1.1,1.1,0,0,0,.438-.068.388.388,0,0,0,.219-.4v-4.724a.378.378,0,0,0-.219-.4.976.976,0,0,0-.446-.076h-.255v-.314Zm2.213,2.846h1.091a1.545,1.545,0,0,0,.693-.135.848.848,0,0,0,.378-.35,1.474,1.474,0,0,0,.207-.768,1.136,1.136,0,0,0-.609-1.11,1.927,1.927,0,0,0-.856-.163H86.2a1.123,1.123,0,0,0-.446.068c-.131.056-.2.187-.2.394v2.066Zm0,.314v2.376c0,.2.068.334.2.386a1.083,1.083,0,0,0,.446.068h.267a2.885,2.885,0,0,0,.872-.119,1.144,1.144,0,0,0,.446-.231,1.067,1.067,0,0,0,.295-.505,1.706,1.706,0,0,0,.076-.513,1.434,1.434,0,0,0-.426-1.154,1.671,1.671,0,0,0-1.083-.306Z" transform="translate(-83.35 -568.318)" fill="#3b3b3b"/>
          <path id="パス_30625" data-name="パス 30625" d="M115.126,574.27a2.544,2.544,0,0,1,1,.2,2.316,2.316,0,0,1,1.063.88,1.932,1.932,0,0,1,.33,1.094,2,2,0,0,1-.33,1.1,2.316,2.316,0,0,1-1.063.88,2.621,2.621,0,0,1-1.023.2,2.582,2.582,0,0,1-1.015-.2,2.315,2.315,0,0,1-1.063-.88,1.948,1.948,0,0,1-.33-1.1,1.972,1.972,0,0,1,.33-1.094,2.316,2.316,0,0,1,1.063-.88A2.663,2.663,0,0,1,115.126,574.27Zm-.04.314a.939.939,0,0,0-.911.649,3.294,3.294,0,0,0-.179,1.214q0,1.869,1.11,1.871c.74,0,1.1-.625,1.1-1.871s-.374-1.863-1.118-1.863Z" transform="translate(-101.012 -571.436)" fill="#3b3b3b"/>
          <path id="パス_30626" data-name="パス 30626" d="M138.446,569.293v-.314c.454-.012.784-.024.987-.044a4.833,4.833,0,0,0,.836-.135v5.7a.374.374,0,0,0,.426.41h.239v.314H138.41v-.314h.247a.377.377,0,0,0,.418-.41v-4.784a.373.373,0,0,0-.418-.418h-.207Z" transform="translate(-116.496 -568.143)" fill="#3b3b3b"/>
          <path id="パス_30627" data-name="パス 30627" d="M158.25,571.475v-.314q.758-.018.967-.036.245-.024.872-.143V574.5a.38.38,0,0,0,.426.41h.239v.314H158.21v-.314h.255a.378.378,0,0,0,.426-.41v-2.6a.377.377,0,0,0-.426-.418h-.219Zm1.186-2.675a.779.779,0,0,1,.577.239.643.643,0,0,1,.207.478.65.65,0,0,1-.267.529.822.822,0,0,1-.533.187.8.8,0,0,1-.589-.239.654.654,0,0,1-.207-.486.642.642,0,0,1,.267-.521.829.829,0,0,1,.541-.187Z" transform="translate(-128.415 -568.143)" fill="#3b3b3b"/>
          <path id="パス_30628" data-name="パス 30628" d="M181.4,571.626v-1.914a.382.382,0,0,0-.426-.418h-.2v-.314c.494,0,.872-.024,1.13-.052a5.465,5.465,0,0,0,.685-.127v5.636a.38.38,0,0,0,.426.41h.191v.314a7.851,7.851,0,0,0-1.8.179v-.7a1.58,1.58,0,0,1-1.349.7,1.825,1.825,0,0,1-1.707-1.214,2.555,2.555,0,0,1-.171-.939,2.392,2.392,0,0,1,.5-1.536,1.71,1.71,0,0,1,.549-.446,1.931,1.931,0,0,1,.939-.231,1.379,1.379,0,0,1,1.055.418,1.534,1.534,0,0,1,.179.231Zm0,2.416v-1.759a2.02,2.02,0,0,0-.239-.486.93.93,0,0,0-.732-.434.74.74,0,0,0-.486.171,1.467,1.467,0,0,0-.406.812,3.873,3.873,0,0,0-.1.908,2.708,2.708,0,0,0,.267,1.341.718.718,0,0,0,.3.283.841.841,0,0,0,.37.084.878.878,0,0,0,.665-.291,2.043,2.043,0,0,0,.35-.625Z" transform="translate(-140.437 -568.143)" fill="#3b3b3b"/>
          <path id="パス_30629" data-name="パス 30629" d="M205.648,576.489a3.228,3.228,0,0,0,.1.872,1.148,1.148,0,0,0,.418.6.9.9,0,0,0,.561.2,1.34,1.34,0,0,0,.884-.358,2.347,2.347,0,0,0,.426-.513l.255.135a2.419,2.419,0,0,1-.33.537,1.853,1.853,0,0,1-.625.434,2.152,2.152,0,0,1-.919.2,1.894,1.894,0,0,1-1.393-.565,2.2,2.2,0,0,1-.617-1.624,2.152,2.152,0,0,1,.617-1.572,1.913,1.913,0,0,1,1.413-.6,1.746,1.746,0,0,1,1.254.462,1.918,1.918,0,0,1,.549,1.027,4.123,4.123,0,0,1,.084.752h-2.675Zm.008-.315h1.473a4.143,4.143,0,0,0-.115-1.059c-.107-.366-.283-.545-.521-.545a.557.557,0,0,0-.466.267,2.518,2.518,0,0,0-.37,1.341Z" transform="translate(-156.227 -571.418)" fill="#3b3b3b"/>
          <path id="パス_30630" data-name="パス 30630" d="M228.558,569.379l-.163-.247a1.359,1.359,0,0,0,.529-.314.728.728,0,0,0,.179-.334,1.11,1.11,0,0,1-.561-.119.611.611,0,0,1-.322-.545.633.633,0,0,1,.247-.5.777.777,0,0,1,.513-.171.81.81,0,0,1,.6.239.839.839,0,0,1,.227.613,1.275,1.275,0,0,1-.549,1.035,2.055,2.055,0,0,1-.7.342Z" transform="translate(-170.56 -567.15)" fill="#3b3b3b"/>
          <path id="パス_30631" data-name="パス 30631" d="M244.62,577.07h.322a1.474,1.474,0,0,0,.2.47,1.672,1.672,0,0,0,.657.557,1.968,1.968,0,0,0,.919.231,1.215,1.215,0,0,0,.541-.127.59.59,0,0,0,.378-.553.435.435,0,0,0-.2-.386,2.23,2.23,0,0,0-.521-.2l-1.083-.275a1.458,1.458,0,0,1-.884-.521,1.115,1.115,0,0,1-.028-1.309,1.358,1.358,0,0,1,.513-.47,1.788,1.788,0,0,1,.856-.2,2.52,2.52,0,0,1,.844.143,2.564,2.564,0,0,1,.406.215.237.237,0,0,0,.1.036.17.17,0,0,0,.123-.068,1.229,1.229,0,0,0,.143-.267h.227l.068,1.393h-.3a1.645,1.645,0,0,0-.342-.665,1.521,1.521,0,0,0-.5-.326,1.793,1.793,0,0,0-.7-.143.873.873,0,0,0-.645.247.575.575,0,0,0-.191.418.438.438,0,0,0,.207.366,1.675,1.675,0,0,0,.577.223l.947.223a1.562,1.562,0,0,1,.939.53,1.1,1.1,0,0,1,.227.692,1.183,1.183,0,0,1-.541,1.027,1.976,1.976,0,0,1-1.118.326,2.6,2.6,0,0,1-.911-.171,2.1,2.1,0,0,1-.5-.247.2.2,0,0,0-.084-.044.108.108,0,0,0-.068.024,1.651,1.651,0,0,0-.239.374h-.275l-.056-1.512Z" transform="translate(-180.433 -571.442)" fill="#3b3b3b"/>
          <path id="パス_30632" data-name="パス 30632" d="M287.84,569.414V569.1h3.208v.315h-.255a1.012,1.012,0,0,0-.426.068c-.147.056-.219.2-.219.41v3.666a2.4,2.4,0,0,1-.163.9,1.587,1.587,0,0,1-.979.872,3.116,3.116,0,0,1-1.13.2,2.364,2.364,0,0,1-1.481-.426,1.655,1.655,0,0,1-.4-.454,1.293,1.293,0,0,1-.207-.7,1.047,1.047,0,0,1,.239-.685.832.832,0,0,1,.685-.326.77.77,0,0,1,.486.155.586.586,0,0,1,.239.485.567.567,0,0,1-.219.47.752.752,0,0,1-.5.163h-.076c-.04,0-.068-.008-.084-.008-.076,0-.115.068-.115.195a.628.628,0,0,0,.255.505,1.281,1.281,0,0,0,.824.255,1.611,1.611,0,0,0,.712-.163,1.129,1.129,0,0,0,.577-1.118v-3.988c0-.215-.072-.354-.219-.41a1.014,1.014,0,0,0-.426-.068h-.322Z" transform="translate(-205.217 -568.324)" fill="#3b3b3b"/>
          <path id="パス_30633" data-name="パス 30633" d="M315.328,577.968l-.02.008a4.813,4.813,0,0,1-.541.366,2.23,2.23,0,0,1-1.091.29,1.248,1.248,0,0,1-.939-.334.893.893,0,0,1-.267-.633,1.139,1.139,0,0,1,.4-.836,4.7,4.7,0,0,1,2.42-.828v-.326a2.027,2.027,0,0,0-.076-.673q-.161-.418-.824-.418a1.1,1.1,0,0,0-.685.195.464.464,0,0,0-.239.35.206.206,0,0,0,.084.135.457.457,0,0,1,.179.334.415.415,0,0,1-.163.334.544.544,0,0,1-.362.119.592.592,0,0,1-.426-.163.579.579,0,0,1-.151-.418,1.02,1.02,0,0,1,.589-.844,2.543,2.543,0,0,1,1.385-.358,2.263,2.263,0,0,1,1.309.334,1.2,1.2,0,0,1,.39.462,1.568,1.568,0,0,1,.171.736v1.879a1.235,1.235,0,0,0,.048.394.172.172,0,0,0,.076.076.277.277,0,0,0,.1.024.494.494,0,0,0,.314-.135.977.977,0,0,0,.247-.35l.275.119a1.805,1.805,0,0,1-.33.454,1.581,1.581,0,0,1-.426.267,1.374,1.374,0,0,1-.541.111.914.914,0,0,1-.685-.275.9.9,0,0,1-.227-.394Zm-.04-.3v-1.357a.433.433,0,0,0-.084.016,3.109,3.109,0,0,0-1.186.418.8.8,0,0,0-.4.708.541.541,0,0,0,.191.462.725.725,0,0,0,.438.135,1.794,1.794,0,0,0,1.043-.386Z" transform="translate(-221.278 -571.436)" fill="#3b3b3b"/>
          <path id="パス_30634" data-name="パス 30634" d="M339.821,577.8v1.126a.38.38,0,0,0,.426.41h.267v.315h-2.5v-.315h.2c.287,0,.426-.143.426-.41v-3.714a.377.377,0,0,0-.426-.418h-.2v-.314c.486-.012.832-.024,1.035-.044a6.234,6.234,0,0,0,.78-.135v.7a2.026,2.026,0,0,1,.446-.446,1.663,1.663,0,0,1,.919-.255,1.9,1.9,0,0,1,1.138.366,1.73,1.73,0,0,1,.577.724,2.13,2.13,0,0,1,.163.836,2.762,2.762,0,0,1-.207,1.051,1.9,1.9,0,0,1-.673.844,1.942,1.942,0,0,1-1.1.334,1.474,1.474,0,0,1-.939-.3,1.91,1.91,0,0,1-.322-.358Zm0-2.193v1.536a2.017,2.017,0,0,0,.239.486.929.929,0,0,0,.72.446.792.792,0,0,0,.513-.187,1.322,1.322,0,0,0,.37-.613,3.047,3.047,0,0,0,.131-.915,2.46,2.46,0,0,0-.314-1.314.694.694,0,0,0-.625-.358.92.92,0,0,0-.685.3,1.1,1.1,0,0,0-.219.314A2.638,2.638,0,0,0,339.821,575.605Z" transform="translate(-236.653 -571.454)" fill="#3b3b3b"/>
          <path id="パス_30635" data-name="パス 30635" d="M366.988,577.968l-.02.008a4.814,4.814,0,0,1-.541.366,2.23,2.23,0,0,1-1.091.29,1.248,1.248,0,0,1-.939-.334.893.893,0,0,1-.267-.633,1.139,1.139,0,0,1,.4-.836,4.7,4.7,0,0,1,2.42-.828v-.326a2.027,2.027,0,0,0-.076-.673q-.161-.418-.824-.418a1.1,1.1,0,0,0-.685.195.464.464,0,0,0-.239.35.206.206,0,0,0,.084.135.457.457,0,0,1,.179.334.415.415,0,0,1-.163.334.544.544,0,0,1-.362.119.592.592,0,0,1-.426-.163.578.578,0,0,1-.151-.418,1.02,1.02,0,0,1,.589-.844,2.543,2.543,0,0,1,1.385-.358,2.263,2.263,0,0,1,1.309.334,1.2,1.2,0,0,1,.39.462,1.567,1.567,0,0,1,.171.736v1.879a1.237,1.237,0,0,0,.048.394.173.173,0,0,0,.076.076.277.277,0,0,0,.1.024.494.494,0,0,0,.314-.135.977.977,0,0,0,.247-.35l.275.119a1.805,1.805,0,0,1-.33.454,1.58,1.58,0,0,1-.426.267,1.374,1.374,0,0,1-.541.111.914.914,0,0,1-.685-.275.9.9,0,0,1-.227-.394Zm-.04-.3v-1.357a.432.432,0,0,0-.084.016,3.109,3.109,0,0,0-1.186.418.8.8,0,0,0-.4.708.541.541,0,0,0,.191.462.725.725,0,0,0,.438.135,1.794,1.794,0,0,0,1.043-.386Z" transform="translate(-252.377 -571.436)" fill="#3b3b3b"/>
          <path id="パス_30636" data-name="パス 30636" d="M391.333,575.158c.068-.08.147-.163.227-.247a2.433,2.433,0,0,1,.561-.426,1.837,1.837,0,0,1,.884-.215,1.233,1.233,0,0,1,1.13.545,1.481,1.481,0,0,1,.2.784v2.185a.377.377,0,0,0,.418.41h.131v.314h-2.3v-.314h.131a.378.378,0,0,0,.426-.41v-2.229a.924.924,0,0,0-.1-.478.42.42,0,0,0-.179-.163.691.691,0,0,0-.294-.068,1.712,1.712,0,0,0-1.234.685v2.257a.372.372,0,0,0,.418.41h.143v.314h-2.3V578.2h.131a.373.373,0,0,0,.426-.41v-2.6a.377.377,0,0,0-.426-.418h-.131v-.315c.442-.012.764-.024.967-.044a6.276,6.276,0,0,0,.78-.135v.88Z" transform="translate(-267.703 -571.436)" fill="#3b3b3b"/>
          <path id="パス_30637" data-name="パス 30637" d="M439,568.866h.295l.076,2.436h-.39a3.888,3.888,0,0,0-.41-1.313,1.752,1.752,0,0,0-.617-.625,1.928,1.928,0,0,0-2.1.155,2.119,2.119,0,0,0-.665,1.214,6.043,6.043,0,0,0-.151,1.409,3.918,3.918,0,0,0,.454,2.034,1.6,1.6,0,0,0,.665.589,1.65,1.65,0,0,0,.788.2,2.109,2.109,0,0,0,1.13-.35,2.351,2.351,0,0,0,.939-1.067,2.469,2.469,0,0,0,.143-.462l.342.036a3.725,3.725,0,0,1-.231.756,2.287,2.287,0,0,1-.386.585,2.505,2.505,0,0,1-.9.657,3.09,3.09,0,0,1-1.262.247,3.192,3.192,0,0,1-2.05-.685,2.981,2.981,0,0,1-.8-.923,3.317,3.317,0,0,1-.362-1.588,3.53,3.53,0,0,1,.418-1.743,3.037,3.037,0,0,1,1.023-1.095,3.315,3.315,0,0,1,1.118-.434,4,4,0,0,1,.808-.084,3.407,3.407,0,0,1,1.15.2c.064.024.223.1.474.231a.377.377,0,0,0,.179.06c.1,0,.2-.143.314-.426Z" transform="translate(-294.149 -568.149)" fill="#3b3b3b"/>
          <path id="パス_30638" data-name="パス 30638" d="M462.246,569.293v-.314c.454-.012.784-.024.987-.044a4.833,4.833,0,0,0,.836-.135v5.7a.374.374,0,0,0,.426.41h.239v.314H462.21v-.314h.247a.377.377,0,0,0,.418-.41v-4.784a.373.373,0,0,0-.418-.418h-.207Z" transform="translate(-311.42 -568.143)" fill="#3b3b3b"/>
          <path id="パス_30639" data-name="パス 30639" d="M485.568,577.791a2.129,2.129,0,0,1-1.672.872,1.249,1.249,0,0,1-1.043-.434,1.374,1.374,0,0,1-.287-.9v-2.117a.382.382,0,0,0-.426-.418h-.131v-.315c.454-.012.788-.024.995-.044a5.547,5.547,0,0,0,.748-.135v3.073c0,.486.195.724.589.724a1.749,1.749,0,0,0,1.226-.677v-2.213a.377.377,0,0,0-.426-.418H485v-.315c.454-.012.78-.024.979-.044a6.057,6.057,0,0,0,.776-.135v3.451a.377.377,0,0,0,.418.41h.131v.314c-.438.012-.748.024-.939.044a4.422,4.422,0,0,0-.8.135Z" transform="translate(-323.339 -571.454)" fill="#3b3b3b"/>
          <path id="パス_30640" data-name="パス 30640" d="M510.759,571.743a1.938,1.938,0,0,1,.39-.454,1.593,1.593,0,0,1,1-.307,1.844,1.844,0,0,1,1.178.4,1.681,1.681,0,0,1,.549.812,2.681,2.681,0,0,1,.143.888,2.973,2.973,0,0,1-.163.991,1.8,1.8,0,0,1-.732.923,2.017,2.017,0,0,1-1.138.35,1.72,1.72,0,0,1-1.083-.358,1.547,1.547,0,0,1-.314-.326.486.486,0,0,0-.115-.135.16.16,0,0,0-.1-.044q-.113,0-.239.239c-.024.044-.092.235-.2.565h-.362v-5.576a.38.38,0,0,0-.426-.41h-.2v-.314a7.243,7.243,0,0,0,1.811-.179v2.937Zm0,2.3a2.3,2.3,0,0,0,.207.454,1,1,0,0,0,.4.366.755.755,0,0,0,.37.1.777.777,0,0,0,.5-.187,1.328,1.328,0,0,0,.378-.685,4,4,0,0,0,.123-1.051,2.557,2.557,0,0,0-.294-1.333.634.634,0,0,0-.577-.342.962.962,0,0,0-.693.334,1.666,1.666,0,0,0-.275.374,2.66,2.66,0,0,0-.143.326v1.648Z" transform="translate(-339.551 -568.149)" fill="#3b3b3b"/>
        </g>
      </g>
      <g id="グループ_6275" data-name="グループ 6275" transform="translate(75.55 57.628)">
        <path id="パス_30641" data-name="パス 30641" d="M234.365,233.881a44.545,44.545,0,1,1,44.545-44.545A44.6,44.6,0,0,1,234.365,233.881Zm0-87.1a42.555,42.555,0,1,0,42.555,42.555A42.6,42.6,0,0,0,234.365,146.776Z" transform="translate(-189.82 -144.79)" fill="#3b3b3b"/>
        <path id="パス_30642" data-name="パス 30642" d="M242.986,236.792a38.846,38.846,0,1,1,38.846-38.846A38.891,38.891,0,0,1,242.986,236.792Zm0-76.892a38.05,38.05,0,1,0,38.05,38.05A38.092,38.092,0,0,0,242.986,159.9Z" transform="translate(-198.44 -153.404)" fill="#bd9033"/>
      </g>
      <g id="グループ_6278" data-name="グループ 6278" transform="translate(92.139 77.608)">
        <g id="グループ_6276" data-name="グループ 6276" transform="translate(18.905)">
          <path id="パス_30643" data-name="パス 30643" d="M280.035,201.119l-.163.45-.872-1s.943.334,1.035.549Z" transform="translate(-279 -198.349)" fill="#bd9033"/>
          <path id="パス_30644" data-name="パス 30644" d="M300.91,194.99a6.225,6.225,0,0,0-.39.979l.39.287.39-.287A6.226,6.226,0,0,0,300.91,194.99Z" transform="translate(-291.955 -194.99)" fill="#bd9033"/>
          <path id="パス_30645" data-name="パス 30645" d="M321.4,201.119l.163.45.872-1s-.943.334-1.035.549Z" transform="translate(-304.524 -198.349)" fill="#bd9033"/>
          <path id="パス_30646" data-name="パス 30646" d="M297.394,200.322a6.237,6.237,0,0,0-4.9,1.54c-.247-1.867-2.472-1.564-3.116-3.463h0c-.645,1.9-2.866,1.6-3.116,3.463a6.24,6.24,0,0,0-4.9-1.54c2.886,3.327,2.734,4.939,2.734,4.939h10.559s-.151-1.612,2.734-4.939Z" transform="translate(-280.427 -197.043)" fill="#bd9033"/>
        </g>
        <g id="グループ_6277" data-name="グループ 6277" transform="translate(0 12.092)">
          <path id="パス_30647" data-name="パス 30647" d="M231.5,225.37h14.281q6.2,0,8.892,1.556a6.365,6.365,0,0,1,2.36,2.36,6.567,6.567,0,0,1,.967,3.455,6.674,6.674,0,0,1-1.222,3.877,8.16,8.16,0,0,1-4.171,2.909,18.746,18.746,0,0,1-2.105.589,20.442,20.442,0,0,1,3.582.967,8.4,8.4,0,0,1,4.127,3.371,7.416,7.416,0,0,1,1.011,3.833,7.12,7.12,0,0,1-2.022,5.182q-2.949,2.991-12.175,2.989H231.544V254.9h1.138a4.246,4.246,0,0,0,1.938-.338,1.967,1.967,0,0,0,.967-1.978v-23.3q0-1.558-.967-1.978a3.947,3.947,0,0,0-1.978-.378H231.5v-1.556Zm9.815,14.03h4.844a6.319,6.319,0,0,0,3.077-.677A3.989,3.989,0,0,0,250.919,237a7.9,7.9,0,0,0,.927-3.793q0-3.958-2.7-5.477a7.77,7.77,0,0,0-3.793-.8h-1.182a4.347,4.347,0,0,0-1.978.338q-.884.424-.884,1.938v10.2Zm0,1.556v11.713q0,1.516.884,1.895a4.212,4.212,0,0,0,1.978.338h1.182a11.7,11.7,0,0,0,3.877-.589,4.96,4.96,0,0,0,1.978-1.138,5.34,5.34,0,0,0,1.305-2.488,9.535,9.535,0,0,0,.338-2.527q0-3.916-1.895-5.688a6.847,6.847,0,0,0-4.8-1.516h-4.844Z" transform="translate(-231.5 -225.37)" fill="#3b3b3b"/>
          <path id="パス_30648" data-name="パス 30648" d="M317.975,226.926V225.37h14.237v1.556h-1.138a3.966,3.966,0,0,0-1.895.338c-.649.283-.967.955-.967,2.022V247.36a13.057,13.057,0,0,1-.716,4.466,7.355,7.355,0,0,1-4.338,4.3,12.681,12.681,0,0,1-5.011.967,9.71,9.71,0,0,1-6.571-2.105,7.9,7.9,0,0,1-1.767-2.233,6.892,6.892,0,0,1-.927-3.455,5.528,5.528,0,0,1,1.055-3.371,3.544,3.544,0,0,1,3.033-1.6,3.214,3.214,0,0,1,2.149.756,3.052,3.052,0,0,1,1.055,2.4,2.95,2.95,0,0,1-.967,2.316,3.107,3.107,0,0,1-2.233.8h-.338a2.6,2.6,0,0,0-.378-.044c-.338,0-.505.322-.505.967a3.2,3.2,0,0,0,1.138,2.488,5.332,5.332,0,0,0,3.666,1.266,6.53,6.53,0,0,0,3.16-.8q2.567-1.433,2.571-5.516V229.286q0-1.6-.967-2.022a4.034,4.034,0,0,0-1.9-.338h-1.433Z" transform="translate(-278.082 -225.37)" fill="#3b3b3b"/>
        </g>
      </g>
    </g>
  </g>
</svg>
