<svg xmlns="http://www.w3.org/2000/svg" width="520" height="280" viewBox="0 0 520 280">
  <g id="グループ_6014" data-name="グループ 6014" transform="translate(0 -1.802)">
    <g id="グループ_6015" data-name="グループ 6015" transform="translate(0 1.802)">
      <path id="パス_30261" data-name="パス 30261" d="M259.531,416.016l47.075-50.568-24.424-26.157-60.3,65.393Z" transform="translate(-96.84 -136.375)" fill="#5096ff"/>
      <path id="パス_30262" data-name="パス 30262" d="M353.49,361.353a1.09,1.09,0,0,1-.8-.354l-30.471-32.631a1.268,1.268,0,0,1,0-1.707l11.124-11.914a1.105,1.105,0,0,1,1.594,0l30.47,32.631a1.268,1.268,0,0,1,0,1.707L354.287,361a1.091,1.091,0,0,1-.8.354m-28.876-33.838,28.876,30.924,9.53-10.207-28.876-30.924Z" transform="translate(-140.487 -126.51)" fill="#575b64"/>
      <path id="パス_30263" data-name="パス 30263" d="M222.424,405.029a1.087,1.087,0,0,1-.8-.352,1.269,1.269,0,0,1,0-1.707c8.77-9.416,18.235-19.748,27.388-29.739,10.405-11.357,21.164-23.1,31-33.6a1.075,1.075,0,0,1,1.594,0,1.268,1.268,0,0,1,0,1.707c-9.825,10.495-20.58,22.234-30.981,33.587-9.157,10-18.625,20.329-27.4,29.752a1.087,1.087,0,0,1-.8.355" transform="translate(-96.583 -136.368)" fill="#575b64"/>
      <path id="パス_30264" data-name="パス 30264" d="M289.234,433.551a1.086,1.086,0,0,1-.8-.359,1.268,1.268,0,0,1,.009-1.707c15.186-16.086,30.375-32.407,45.145-48.511a1.074,1.074,0,0,1,1.594-.015,1.268,1.268,0,0,1,.015,1.707c-14.778,16.112-29.975,32.442-45.169,48.535a1.084,1.084,0,0,1-.792.349" transform="translate(-125.742 -153.551)" fill="#575b64"/>
      <path id="パス_30265" data-name="パス 30265" d="M464.192,310.964a1.086,1.086,0,0,1-.8-.354,1.268,1.268,0,0,1,0-1.707l19.315-20.686a10.815,10.815,0,0,1,14.259-1.555,1.262,1.262,0,0,1,.32,1.673,1.082,1.082,0,0,1-1.562.342,8.663,8.663,0,0,0-11.422,1.248L464.989,310.61a1.085,1.085,0,0,1-.8.354" transform="translate(-202.1 -114.718)" fill="#575b64"/>
      <path id="パス_30266" data-name="パス 30266" d="M352.791,311.485a1.085,1.085,0,0,1-.8-.354,1.268,1.268,0,0,1,0-1.707l11.149-11.94,1.783-2.1a16.69,16.69,0,0,1,12.293-5.478h39.656A1.169,1.169,0,0,1,418,291.117v.715c0,7.771-5.9,14.094-13.16,14.094h-11.8a1.21,1.21,0,0,1,0-2.414h11.8c5.859,0,10.655-4.975,10.9-11.188H377.22a14.491,14.491,0,0,0-10.663,4.73l-1.783,2.1-11.186,11.981a1.085,1.085,0,0,1-.8.354" transform="translate(-153.481 -116.797)" fill="#575b64"/>
      <path id="パス_30267" data-name="パス 30267" d="M456.141,322.241H423.129a2.791,2.791,0,0,1-2.688-2.878v-3.908a2.792,2.792,0,0,1,2.688-2.879h10.665a1.21,1.21,0,0,1,0,2.414H423.129a.451.451,0,0,0-.434.465v3.908a.45.45,0,0,0,.434.464h33.012a1.21,1.21,0,0,1,0,2.414" transform="translate(-183.497 -125.783)" fill="#575b64"/>
      <path id="パス_30268" data-name="パス 30268" d="M389.7,333.039a1.085,1.085,0,0,1-.782-.337,1.268,1.268,0,0,1-.031-1.707,14.1,14.1,0,0,1,11.4-4.778l2.13.012h39.069l15.775-16.895a1.067,1.067,0,0,1,.164-.228l17.156-18.374a8.654,8.654,0,0,0-12.441.412l-18.759,20.227a1.074,1.074,0,0,1-1.594.005,1.268,1.268,0,0,1-.005-1.707l18.761-20.23a10.815,10.815,0,0,1,16.039,0l.4.429a1.268,1.268,0,0,1,0,1.707l-17.749,19.008a1.068,1.068,0,0,1-.165.228l-16.321,17.48a1.09,1.09,0,0,1-.8.354H402.408l-2.167-.012c-.021,0-.043,0-.064,0a11.918,11.918,0,0,0-9.667,4.041,1.088,1.088,0,0,1-.812.37" transform="translate(-169.588 -115.199)" fill="#575b64"/>
      <path id="パス_30269" data-name="パス 30269" d="M619.429,402.29c0-5.694-6.609-10.311-14.762-10.311s-14.762,4.617-14.762,10.311v16.577c0,5.694,6.61,10.311,14.762,10.311s14.762-4.616,14.762-10.311Z" transform="translate(-257.458 -157.264)" fill="gold"/>
      <path id="パス_30270" data-name="パス 30270" d="M468.464,192.572a13.4,13.4,0,0,0-19.859,0l-6.949,7.445-6.952-7.445a13.4,13.4,0,0,0-19.859,0,15.8,15.8,0,0,0,0,21.268l6.952,7.445-.012.013,19.869,21.255,0,0,.011.014.071-.1,26.725-28.623a15.8,15.8,0,0,0,0-21.268" transform="translate(-179.26 -76.459)" fill="#f77ee6"/>
      <path id="パス_30271" data-name="パス 30271" d="M440.8,242.979a1.086,1.086,0,0,1-.751-.308c-.02-.019-.04-.038-.059-.059L420.12,221.357A1.174,1.174,0,0,1,420,221.2l-6.815-7.3a17.092,17.092,0,0,1,0-22.975,14.47,14.47,0,0,1,21.453,0l6.155,6.591,6.152-6.591a14.47,14.47,0,0,1,21.453,0,17.068,17.068,0,0,1,0,22.975L441.7,242.493a1.106,1.106,0,0,1-.871.485H440.8M421.85,219.8l18.937,20.258,26.012-27.86a14.533,14.533,0,0,0,0-19.561,12.32,12.32,0,0,0-18.265,0l-6.949,7.445a1.105,1.105,0,0,1-1.594,0l-6.952-7.445a12.32,12.32,0,0,0-18.265,0,14.553,14.553,0,0,0,0,19.561l6.952,7.445a1.16,1.16,0,0,1,.124.158" transform="translate(-178.393 -75.666)" fill="#575b64"/>
      <path id="パス_30272" data-name="パス 30272" d="M711.911,247.7l-11.591-2.723v-13.2a3.93,3.93,0,1,0-7.841,0v20.189l-2.723-3.484a3.741,3.741,0,0,0-5.545.033,4.41,4.41,0,0,0,.032,5.938l15.33,19.375,17.831.238V254.87a7.535,7.535,0,0,0-5.492-7.175" transform="translate(-298.122 -92.084)" fill="#ff8e6f"/>
      <path id="パス_30273" data-name="パス 30273" d="M716.531,274.48h-.014l-17.832-.238a1.1,1.1,0,0,1-.846-.427l-15.3-19.337a5.679,5.679,0,0,1,0-7.606,4.817,4.817,0,0,1,7.139-.042c.025.027.049.055.072.084l.732.936V230.983a5.059,5.059,0,1,1,10.095,0v12.226l10.706,2.515c3.507.75,6.378,4.5,6.378,8.355v19.195a1.25,1.25,0,0,1-.335.859,1.09,1.09,0,0,1-.792.348m-17.3-2.645,16.176.216V254.078a6.365,6.365,0,0,0-4.586-5.992l-11.612-2.728a1.191,1.191,0,0,1-.885-1.179v-13.2a2.8,2.8,0,1,0-5.587,0v20.189a1.206,1.206,0,0,1-.743,1.135,1.081,1.081,0,0,1-1.249-.36l-2.686-3.436a2.666,2.666,0,0,0-3.917.059,3.142,3.142,0,0,0,.023,4.23c.024.025.046.051.068.079Z" transform="translate(-297.25 -91.291)" fill="#575b64"/>
      <path id="パス_30274" data-name="パス 30274" d="M725.224,217.922h-34.6a1.21,1.21,0,0,1,0-2.414h34.6a4.4,4.4,0,0,0,4.526-4.242V192.2a4.4,4.4,0,0,0-4.526-4.241H666.332a4.4,4.4,0,0,0-4.526,4.241v19.069a4.4,4.4,0,0,0,4.526,4.242H682.28a1.21,1.21,0,0,1,0,2.414H666.332a6.726,6.726,0,0,1-6.78-6.656V192.2a6.726,6.726,0,0,1,6.78-6.655h58.892A6.726,6.726,0,0,1,732,192.2v19.069a6.726,6.726,0,0,1-6.78,6.656" transform="translate(-287.855 -75.418)" fill="#575b64"/>
      <path id="パス_30275" data-name="パス 30275" d="M673.908,203.169a20.157,20.157,0,0,1,3.27-.238,6.554,6.554,0,0,1,4.382,1.225,5.217,5.217,0,0,1,1.81,4.317,6.019,6.019,0,0,1-1.778,4.642,7.329,7.329,0,0,1-4.939,1.479,19.422,19.422,0,0,1-2.745-.171Zm2.429,9.349a4.127,4.127,0,0,0,.841.051c2.192.017,3.62-1.275,3.62-4.012.015-2.379-1.285-3.638-3.366-3.638a4.706,4.706,0,0,0-1.094.1Z" transform="translate(-294.12 -82.312)" fill="#575b64"/>
      <path id="パス_30276" data-name="パス 30276" d="M702.937,208.559c0,3.758-2.127,6.036-5.254,6.036-3.176,0-5.032-2.567-5.032-5.831,0-3.433,2.047-6,5.206-6,3.286,0,5.079,2.634,5.079,5.8m-7.73.154c0,2.243.983,3.825,2.6,3.825s2.571-1.666,2.571-3.893c0-2.057-.922-3.825-2.588-3.825-1.635,0-2.587,1.666-2.587,3.893" transform="translate(-302.301 -82.246)" fill="#575b64"/>
      <path id="パス_30277" data-name="パス 30277" d="M713.732,214.529V203.072h2.824l2.222,4.2a34,34,0,0,1,1.748,3.928h.047a45.8,45.8,0,0,1-.207-4.778v-3.349h2.223v11.457h-2.539l-2.287-4.42a44.415,44.415,0,0,1-1.855-4.045l-.048.016c.064,1.513.095,3.128.095,5v3.451Z" transform="translate(-311.501 -82.368)" fill="#575b64"/>
      <path id="パス_30278" data-name="パス 30278" d="M735.067,211.588l-.763,2.941H731.8l3.27-11.457h3.174l3.317,11.457h-2.6l-.825-2.941Zm2.714-1.937-.667-2.432c-.19-.68-.379-1.53-.539-2.21h-.031c-.159.68-.318,1.547-.492,2.21l-.635,2.432Z" transform="translate(-319.386 -82.368)" fill="#575b64"/>
      <path id="パス_30279" data-name="パス 30279" d="M750.759,205.248h-2.874v-2.176h8.224v2.176h-2.92v9.282h-2.429Z" transform="translate(-326.407 -82.368)" fill="#575b64"/>
      <path id="パス_30280" data-name="パス 30280" d="M771.133,209.684H767.2v2.72h4.4v2.125h-6.825V203.071h6.6V205.2H767.2v2.379h3.936Z" transform="translate(-333.775 -82.368)" fill="#575b64"/>
      <path id="パス_30281" data-name="パス 30281" d="M703.271,87.931a12.581,12.581,0,0,0-2.619-.465V85.756a6.038,6.038,0,0,0,3.15-5.6c0-3.291-2.139-5.961-4.777-5.961s-4.78,2.67-4.78,5.961a6.036,6.036,0,0,0,3.149,5.6v1.71a12.594,12.594,0,0,0-2.619.465c-1.7.512-10.908-12.355-10.908-12.355l9.969,22.678,1.545,30h7.285l1.545-30,9.969-22.678s-9.208,12.868-10.908,12.355" transform="translate(-298.466 -31.273)" fill="#5096ff"/>
      <path id="パス_30282" data-name="パス 30282" d="M701.791,128.664h-7.285a1.164,1.164,0,0,1-1.125-1.141l-1.532-29.763L681.973,75.3a1.254,1.254,0,0,1,.434-1.545,1.079,1.079,0,0,1,1.481.3c3.768,5.266,8.542,11.178,9.917,11.867a12.614,12.614,0,0,1,1.449-.308,7.574,7.574,0,0,1-3.009-6.242c0-3.952,2.649-7.168,5.906-7.168s5.905,3.216,5.905,7.168a7.576,7.576,0,0,1-3.009,6.242,12.638,12.638,0,0,1,1.446.308c1.376-.689,6.15-6.6,9.918-11.867a1.079,1.079,0,0,1,1.481-.3,1.253,1.253,0,0,1,.433,1.545L704.45,97.761l-1.533,29.763a1.164,1.164,0,0,1-1.125,1.141m-6.218-2.414h5.151l1.486-28.858a1.283,1.283,0,0,1,.106-.447l6.055-13.773c-2.474,2.977-4.7,5.187-5.867,5.187a1.438,1.438,0,0,1-.414-.06,11.556,11.556,0,0,0-2.4-.424,1.176,1.176,0,0,1-1.044-1.2V84.963a1.211,1.211,0,0,1,.688-1.112,4.848,4.848,0,0,0,2.462-4.488c0-2.621-1.638-4.754-3.651-4.754s-3.652,2.133-3.652,4.754a4.845,4.845,0,0,0,2.461,4.487,1.212,1.212,0,0,1,.688,1.112v1.71a1.176,1.176,0,0,1-1.044,1.2,11.585,11.585,0,0,0-2.4.424,1.418,1.418,0,0,1-.412.06h0c-1.164,0-3.393-2.21-5.866-5.187l6.055,13.773a1.283,1.283,0,0,1,.105.447Z" transform="translate(-297.593 -30.48)" fill="#575b64"/>
      <path id="パス_30283" data-name="パス 30283" d="M757.791,128.664h-7.285a1.165,1.165,0,0,1-1.125-1.141L747.85,97.761,737.974,75.3a1.254,1.254,0,0,1,.434-1.545,1.079,1.079,0,0,1,1.481.3c3.768,5.266,8.542,11.178,9.916,11.867a12.649,12.649,0,0,1,1.449-.308,7.573,7.573,0,0,1-3.01-6.242c0-3.952,2.649-7.168,5.906-7.168s5.9,3.216,5.9,7.168a7.576,7.576,0,0,1-3.008,6.242,12.653,12.653,0,0,1,1.446.308c1.376-.689,6.15-6.6,9.919-11.867a1.078,1.078,0,0,1,1.48-.3,1.253,1.253,0,0,1,.433,1.545L760.45,97.761l-1.533,29.763a1.164,1.164,0,0,1-1.125,1.141m-6.218-2.414h5.152l1.486-28.858a1.283,1.283,0,0,1,.106-.447l6.055-13.774c-2.474,2.977-4.7,5.187-5.867,5.187a1.438,1.438,0,0,1-.414-.06,11.549,11.549,0,0,0-2.4-.424,1.176,1.176,0,0,1-1.044-1.2V84.963a1.211,1.211,0,0,1,.688-1.112,4.847,4.847,0,0,0,2.461-4.488c0-2.621-1.638-4.754-3.651-4.754s-3.652,2.133-3.652,4.754a4.846,4.846,0,0,0,2.462,4.487,1.212,1.212,0,0,1,.688,1.112v1.71a1.176,1.176,0,0,1-1.044,1.2,11.631,11.631,0,0,0-2.4.424,1.411,1.411,0,0,1-.411.06h0c-1.164,0-3.392-2.21-5.864-5.187l6.054,13.773a1.285,1.285,0,0,1,.105.448Z" transform="translate(-322.034 -30.48)" fill="#575b64"/>
      <path id="パス_30293" data-name="パス 30293" d="M839.245,204.054a10.041,10.041,0,0,1-5.581-1.648c-6.243-4.071-7.931-14.86-8.381-20.929a1.184,1.184,0,0,1,1.035-1.3,1.152,1.152,0,0,1,1.213,1.107c.415,5.609,1.918,15.545,7.307,19.06a8.68,8.68,0,0,0,7.582.777c5.952-1.879,6.413-9.373,6.946-18.051.1-1.6.2-3.244.339-4.885.044-.522.087-1.076.132-1.654.433-5.619,1.026-13.314,4.945-16.517a6.811,6.811,0,0,1,5.911-1.277c4.248.849,6.862,7.7,7.991,20.944a183.914,183.914,0,0,1,.509,18.706,1.13,1.13,0,1,1-2.253-.083c.442-13.777-.976-36.057-6.661-37.194a4.7,4.7,0,0,0-4.129.823c-3.122,2.552-3.668,9.63-4.067,14.8-.045.585-.089,1.146-.133,1.674-.137,1.611-.237,3.245-.335,4.825-.564,9.181-1.1,17.852-8.558,20.208a12.679,12.679,0,0,1-3.812.616" transform="translate(-360.185 -64.719)" fill="#575b64"/>
      <path id="パス_30294" data-name="パス 30294" d="M824.127,152.189H804.853a6.744,6.744,0,0,1-6.5-6.954V112.313a6.744,6.744,0,0,1,6.5-6.956h19.274a6.744,6.744,0,0,1,6.494,6.956v32.922a6.744,6.744,0,0,1-6.494,6.954m-19.274-44.418a4.4,4.4,0,0,0-4.241,4.542v32.922a4.4,4.4,0,0,0,4.241,4.54h19.274a4.4,4.4,0,0,0,4.24-4.54V112.313a4.4,4.4,0,0,0-4.24-4.542Z" transform="translate(-348.435 -43.627)" fill="#575b64"/>
      <path id="パス_30295" data-name="パス 30295" d="M825.25,190.381h-7.064a3.393,3.393,0,0,1-3.267-3.5v-4.814a1.13,1.13,0,1,1,2.254,0v4.814a1.052,1.052,0,0,0,1.013,1.085h7.064a1.053,1.053,0,0,0,1.014-1.085v-4.814a1.13,1.13,0,1,1,2.254,0v4.814a3.394,3.394,0,0,1-3.268,3.5" transform="translate(-355.663 -73.562)" fill="#575b64"/>
      <path id="パス_30296" data-name="パス 30296" d="M828.565,142.219a7.591,7.591,0,1,1-15.146,0c0-4.48,7.573-20.125,7.573-20.125s7.574,15.645,7.574,20.125" transform="translate(-355.009 -50.263)" fill="#ff8e6f"/>
      <path id="パス_30297" data-name="パス 30297" d="M820.118,150.743c-4.8,0-8.7-4.179-8.7-9.317,0-4.64,6.911-19.052,7.7-20.681a1.094,1.094,0,0,1,2,0c.788,1.628,7.7,16.041,7.7,20.681,0,5.137-3.9,9.317-8.7,9.317m0-26.773c-2.427,5.22-6.445,14.488-6.445,17.456a6.461,6.461,0,1,0,12.892,0c0-2.969-4.019-12.236-6.447-17.456" transform="translate(-354.135 -49.47)" fill="#575b64"/>
      <g id="グループ_6027" data-name="グループ 6027" transform="translate(2.939 3.751)">
        <path id="パス_30329" data-name="パス 30329" d="M129.779,353.989a.88.88,0,0,1-.645-.286l-2.643-2.832a1.026,1.026,0,0,1,0-1.381.87.87,0,0,1,1.29,0l2.644,2.832a1.027,1.027,0,0,1,0,1.381.879.879,0,0,1-.645.286" transform="translate(-55.832 -149.416)" fill="#575b64"/>
        <g id="グループ_6026" data-name="グループ 6026" transform="translate(67.24 161.108)">
          <path id="パス_30326" data-name="パス 30326" d="M125.912,346.938a.879.879,0,0,1-.653-.295,3.179,3.179,0,0,1,.048-4.277,2.633,2.633,0,0,1,2.007-.86,2.722,2.722,0,0,1,1.988.911,1.026,1.026,0,0,1-.016,1.381.869.869,0,0,1-1.29-.016.964.964,0,0,0-.7-.323,1,1,0,0,0-.71.3,1.125,1.125,0,0,0-.018,1.514,1.026,1.026,0,0,1-.016,1.381.877.877,0,0,1-.637.278" transform="translate(-122.111 -306.586)" fill="#575b64"/>
          <g id="グループ_6025" data-name="グループ 6025">
            <path id="パス_30298" data-name="パス 30298" d="M216.436,286.563a.881.881,0,0,1-.653-.3,1.026,1.026,0,0,1,.016-1.381,1.127,1.127,0,0,0,.016-1.515.956.956,0,0,0-1.414-.016.87.87,0,0,1-1.29-.018,1.026,1.026,0,0,1,.017-1.381,2.7,2.7,0,0,1,3.994.051,3.183,3.183,0,0,1-.048,4.279.877.877,0,0,1-.637.277" transform="translate(-170.188 -275.686)" fill="#575b64"/>
            <path id="パス_30299" data-name="パス 30299" d="M210.513,280.627a.881.881,0,0,1-.653-.3,1.026,1.026,0,0,1,.016-1.381,1.124,1.124,0,0,0,.016-1.513.961.961,0,0,0-.7-.323.948.948,0,0,0-.711.3.87.87,0,0,1-1.29-.017,1.026,1.026,0,0,1,.015-1.381,2.762,2.762,0,0,1,2.008-.86,2.716,2.716,0,0,1,1.986.912,3.178,3.178,0,0,1-.048,4.277.878.878,0,0,1-.637.277" transform="translate(-166.967 -272.648)" fill="#575b64"/>
            <path id="パス_30300" data-name="パス 30300" d="M213.322,293.337a.88.88,0,0,1-.652-.294,1.026,1.026,0,0,1,.014-1.381l2.929-3.073a.869.869,0,0,1,1.29.014,1.026,1.026,0,0,1-.014,1.381l-2.929,3.073a.88.88,0,0,1-.639.279" transform="translate(-169.948 -279.375)" fill="#575b64"/>
            <path id="パス_30301" data-name="パス 30301" d="M207.783,287.051a.881.881,0,0,1-.645-.287,1.027,1.027,0,0,1,0-1.381l2.825-3.023a.87.87,0,0,1,1.29,0,1.026,1.026,0,0,1,0,1.381l-2.824,3.023a.879.879,0,0,1-.645.286" transform="translate(-166.935 -276.185)" fill="#575b64"/>
            <path id="パス_30302" data-name="パス 30302" d="M201.469,281.712a.878.878,0,0,1-.645-.286,1.027,1.027,0,0,1,0-1.382l2.645-2.831a.87.87,0,0,1,1.29,0,1.026,1.026,0,0,1,0,1.381l-2.645,2.832a.88.88,0,0,1-.645.286" transform="translate(-163.501 -273.552)" fill="#575b64"/>
            <path id="パス_30303" data-name="パス 30303" d="M175.532,289.3a.944.944,0,0,1-.911-.945,11.015,11.015,0,0,1,2.9-7.825l.088-.094,2.545-2.645,6.4-6.91a2.705,2.705,0,0,1,4.005.039,3.18,3.18,0,0,1-.049,4.28.871.871,0,0,1-1.29-.017,1.027,1.027,0,0,1,.016-1.382,1.127,1.127,0,0,0,.019-1.515.958.958,0,0,0-1.416-.018l-6.406,6.912-2.622,2.728a8.98,8.98,0,0,0-2.371,6.381.951.951,0,0,1-.882,1.009h-.031" transform="translate(-149.392 -270.018)" fill="#575b64"/>
            <path id="パス_30304" data-name="パス 30304" d="M158.734,328.316a.879.879,0,0,1-.645-.286,1.026,1.026,0,0,1,0-1.381l9.281-9.94-8.457-9.057-11.785,12.621a.87.87,0,0,1-1.29,0,1.025,1.025,0,0,1,0-1.381l12.43-13.312a.87.87,0,0,1,1.29,0l9.747,10.438a1.026,1.026,0,0,1,0,1.381l-9.926,10.63a.878.878,0,0,1-.645.286" transform="translate(-133.595 -288.063)" fill="#575b64"/>
            <path id="パス_30305" data-name="パス 30305" d="M209.234,300.529a.879.879,0,0,1-.646-.288,1.027,1.027,0,0,1,0-1.381l7.461-7.942a1.125,1.125,0,0,0,.017-1.513.965.965,0,0,0-.7-.323.917.917,0,0,0-.709.305.87.87,0,0,1-1.29-.016,1.026,1.026,0,0,1,.014-1.381,2.693,2.693,0,0,1,3.994.049,3.179,3.179,0,0,1-.048,4.278l-1.343,1.416-6.1,6.511a.88.88,0,0,1-.644.285" transform="translate(-167.725 -278.77)" fill="#575b64"/>
            <path id="パス_30306" data-name="パス 30306" d="M195.759,316.046c-1.474,0-3.888-.712-4.482-1.348a1.026,1.026,0,0,1,0-1.381.869.869,0,0,1,1.254-.037,8.08,8.08,0,0,0,3.352.809,2.839,2.839,0,0,0,1.975-.882l6.015-6.441a1.077,1.077,0,0,0,0-1.446l-.817-.875a1.026,1.026,0,0,1,0-1.381.87.87,0,0,1,1.29,0l.817.875a3.133,3.133,0,0,1,0,4.209l-6.015,6.441a4.588,4.588,0,0,1-3.171,1.451c-.07,0-.144.006-.219.006" transform="translate(-158.309 -286.776)" fill="#575b64"/>
            <path id="パス_30307" data-name="パス 30307" d="M268.9,369.994h-.034a2.718,2.718,0,0,1-1.988-.912,1.026,1.026,0,0,1,.016-1.381.87.87,0,0,1,1.29.018.962.962,0,0,0,.7.321,1,1,0,0,0,.711-.3,1.13,1.13,0,0,0,.016-1.516,1.026,1.026,0,0,1,.016-1.381.87.87,0,0,1,1.29.018,3.185,3.185,0,0,1-.047,4.276,2.714,2.714,0,0,1-1.974.861" transform="translate(-199.432 -318.381)" fill="#575b64"/>
            <path id="パス_30308" data-name="パス 30308" d="M274.834,364.072H274.8a2.722,2.722,0,0,1-1.989-.912,1.026,1.026,0,0,1,.016-1.381.87.87,0,0,1,1.29.017.954.954,0,0,0,1.414.019,1.125,1.125,0,0,0,.018-1.514,1.026,1.026,0,0,1,.015-1.381.87.87,0,0,1,1.29.015,3.178,3.178,0,0,1-.049,4.278,2.71,2.71,0,0,1-1.971.86" transform="translate(-202.658 -315.352)" fill="#575b64"/>
            <path id="パス_30309" data-name="パス 30309" d="M264.086,369.21a.88.88,0,0,1-.652-.294l-2.869-3.136a1.027,1.027,0,0,1,.014-1.382.87.87,0,0,1,1.29.015l2.869,3.137a1.026,1.026,0,0,1-.014,1.381.879.879,0,0,1-.638.279" transform="translate(-195.997 -318.154)" fill="#575b64"/>
            <path id="パス_30310" data-name="パス 30310" d="M270.377,363.56a.881.881,0,0,1-.645-.286l-2.822-3.025a1.026,1.026,0,0,1,0-1.381.87.87,0,0,1,1.29,0l2.822,3.025a1.026,1.026,0,0,1,0,1.381.879.879,0,0,1-.645.286" transform="translate(-199.445 -315.322)" fill="#575b64"/>
            <path id="パス_30311" data-name="パス 30311" d="M275.738,357.053a.879.879,0,0,1-.645-.286l-2.644-2.832a1.026,1.026,0,0,1,0-1.381.87.87,0,0,1,1.29,0l2.644,2.832a1.026,1.026,0,0,1,0,1.381.879.879,0,0,1-.645.286" transform="translate(-202.458 -312.092)" fill="#575b64"/>
            <path id="パス_30312" data-name="パス 30312" d="M264.594,344.265a2.73,2.73,0,0,1-2.023-.911,1.026,1.026,0,0,1,.016-1.381.87.87,0,0,1,1.29.016.956.956,0,0,0,1.415.021,1.13,1.13,0,0,0,.017-1.517l-6.454-6.86-2.546-2.806a7.788,7.788,0,0,0-5.96-2.541.936.936,0,0,1-.942-.944.952.952,0,0,1,.882-1.009,9.574,9.574,0,0,1,7.306,3.108l.086.091,2.471,2.728,6.452,6.859a3.19,3.19,0,0,1-.037,4.288,2.719,2.719,0,0,1-1.973.859" transform="translate(-190.07 -298.822)" fill="#575b64"/>
            <path id="パス_30313" data-name="パス 30313" d="M217.318,322.983a.879.879,0,0,1-.645-.286l-9.926-10.63a1.026,1.026,0,0,1,0-1.381.87.87,0,0,1,1.29,0l9.281,9.939,8.457-9.057-11.785-12.622a1.026,1.026,0,0,1,0-1.381.87.87,0,0,1,1.29,0l12.431,13.313a1.026,1.026,0,0,1,0,1.381L217.963,322.7a.879.879,0,0,1-.645.286" transform="translate(-166.722 -283.963)" fill="#575b64"/>
            <path id="パス_30314" data-name="パス 30314" d="M254.033,370.584H254a2.722,2.722,0,0,1-1.987-.911l-1.322-1.439-6.08-6.537a1.027,1.027,0,0,1,0-1.381.87.87,0,0,1,1.29,0l7.416,7.991a.96.96,0,0,0,.7.322,1.021,1.021,0,0,0,.711-.3,1.124,1.124,0,0,0,.017-1.514,1.026,1.026,0,0,1,.014-1.381.87.87,0,0,1,1.29.015,3.176,3.176,0,0,1-.046,4.277,2.711,2.711,0,0,1-1.972.86" transform="translate(-187.316 -316.063)" fill="#575b64"/>
            <path id="パス_30315" data-name="パス 30315" d="M238.3,359.439a2.679,2.679,0,0,1-1.964-.87l-6.015-6.442a5.222,5.222,0,0,1-1.354-3.4,7.545,7.545,0,0,1,1.173-4.373.87.87,0,0,1,1.29,0,1.027,1.027,0,0,1,.014,1.367,6.318,6.318,0,0,0-.654,2.906,3.239,3.239,0,0,0,.822,2.115l6.015,6.442a.914.914,0,0,0,1.352,0l.816-.874a.868.868,0,0,1,1.29,0,1.026,1.026,0,0,1,0,1.381l-.816.876a2.688,2.688,0,0,1-1.968.87" transform="translate(-178.95 -307.9)" fill="#575b64"/>
            <path id="パス_30316" data-name="パス 30316" d="M187.054,424.447a2.726,2.726,0,0,1-2.021-.91,3.182,3.182,0,0,1,.047-4.277.87.87,0,0,1,1.29.016,1.026,1.026,0,0,1-.015,1.381,1.127,1.127,0,0,0-.016,1.515.955.955,0,0,0,1.414.019.869.869,0,0,1,1.29.017,1.026,1.026,0,0,1-.016,1.381,2.72,2.72,0,0,1-1.972.858" transform="translate(-154.621 -346.218)" fill="#575b64"/>
            <path id="パス_30317" data-name="パス 30317" d="M192.975,430.383h-.036a2.72,2.72,0,0,1-1.986-.912,3.178,3.178,0,0,1,.048-4.277.871.871,0,0,1,1.29.017,1.027,1.027,0,0,1-.016,1.381,1.125,1.125,0,0,0-.017,1.514.961.961,0,0,0,.7.323.915.915,0,0,0,.711-.3.87.87,0,0,1,1.29.016,1.026,1.026,0,0,1-.015,1.381,2.712,2.712,0,0,1-1.973.861" transform="translate(-157.841 -349.255)" fill="#575b64"/>
            <path id="パス_30318" data-name="パス 30318" d="M186.281,417.695a.88.88,0,0,1-.652-.294,1.026,1.026,0,0,1,.014-1.381l2.929-3.073a.87.87,0,0,1,1.29.015,1.026,1.026,0,0,1-.014,1.381l-2.929,3.073a.879.879,0,0,1-.638.279" transform="translate(-155.241 -342.989)" fill="#575b64"/>
            <path id="パス_30319" data-name="パス 30319" d="M192.049,423.982a.879.879,0,0,1-.645-.287,1.026,1.026,0,0,1,0-1.381l2.825-3.023a.87.87,0,0,1,1.29,0,1.026,1.026,0,0,1,0,1.381l-2.825,3.023a.88.88,0,0,1-.645.286" transform="translate(-158.378 -346.231)" fill="#575b64"/>
            <path id="パス_30320" data-name="パス 30320" d="M198.757,429.331a.878.878,0,0,1-.645-.286,1.026,1.026,0,0,1,0-1.381l2.644-2.832a.87.87,0,0,1,1.29,0,1.026,1.026,0,0,1,0,1.381l-2.644,2.832a.878.878,0,0,1-.645.286" transform="translate(-162.026 -349.065)" fill="#575b64"/>
            <path id="パス_30321" data-name="パス 30321" d="M199.68,421.055a2.726,2.726,0,0,1-2.017-.906,3.185,3.185,0,0,1,.048-4.281.871.871,0,0,1,1.29.016,1.027,1.027,0,0,1-.016,1.381,1.129,1.129,0,0,0-.019,1.518.958.958,0,0,0,1.416.017l6.406-6.911,2.62-2.727a8.982,8.982,0,0,0,2.374-6.382.952.952,0,0,1,.882-1.009.936.936,0,0,1,.942.945,11.014,11.014,0,0,1-2.9,7.824l-.085.092-2.546,2.647-6.4,6.91a2.742,2.742,0,0,1-1.987.867" transform="translate(-161.491 -337.415)" fill="#575b64"/>
            <path id="パス_30322" data-name="パス 30322" d="M220.668,381.666a.883.883,0,0,1-.645-.286l-9.747-10.439a1.026,1.026,0,0,1,0-1.381l10.1-10.821a.869.869,0,0,1,1.29,0,1.025,1.025,0,0,1,0,1.381l-9.46,10.131,8.457,9.057,11.785-12.622a.87.87,0,0,1,1.29,0,1.026,1.026,0,0,1,0,1.381l-12.43,13.312a.883.883,0,0,1-.645.286" transform="translate(-168.642 -315.255)" fill="#575b64"/>
            <path id="パス_30323" data-name="パス 30323" d="M181.1,410.108h-.034a2.724,2.724,0,0,1-1.988-.911,3.179,3.179,0,0,1,.05-4.278l1.342-1.415,6.1-6.512a.871.871,0,0,1,1.29,0,1.027,1.027,0,0,1,0,1.381l-7.46,7.941a1.126,1.126,0,0,0-.018,1.514.964.964,0,0,0,.7.323.911.911,0,0,0,.71-.3.87.87,0,0,1,1.29.015,1.027,1.027,0,0,1-.014,1.381,2.71,2.71,0,0,1-1.973.862" transform="translate(-151.382 -334.824)" fill="#575b64"/>
            <path id="パス_30324" data-name="パス 30324" d="M186.651,394.6a.878.878,0,0,1-.645-.286l-.817-.876a3.127,3.127,0,0,1,0-4.209l6.014-6.442a4.6,4.6,0,0,1,3.171-1.45,8.332,8.332,0,0,1,4.689,1.566,1.026,1.026,0,0,1,0,1.381.87.87,0,0,1-1.268.022,7.62,7.62,0,0,0-3.326-1.018,2.849,2.849,0,0,0-1.976.881l-6.014,6.441a1.074,1.074,0,0,0,0,1.446l.818.876a1.027,1.027,0,0,1,0,1.382.88.88,0,0,1-.645.286" transform="translate(-154.7 -326.958)" fill="#575b64"/>
            <path id="パス_30325" data-name="パス 30325" d="M131.848,341.02a.881.881,0,0,1-.653-.3,3.185,3.185,0,0,1,.048-4.277,2.7,2.7,0,0,1,4,.052,1.026,1.026,0,0,1-.016,1.381.87.87,0,0,1-1.29-.018.956.956,0,0,0-1.415-.017,1.129,1.129,0,0,0-.016,1.515,1.027,1.027,0,0,1-.016,1.382.879.879,0,0,1-.637.277" transform="translate(-125.34 -303.56)" fill="#575b64"/>
            <path id="パス_30327" data-name="パス 30327" d="M141.388,341.818a.878.878,0,0,1-.652-.293l-2.869-3.136a1.027,1.027,0,0,1,.013-1.382.87.87,0,0,1,1.29.015l2.869,3.136a1.026,1.026,0,0,1-.013,1.381.878.878,0,0,1-.639.279" transform="translate(-129.263 -304.143)" fill="#575b64"/>
            <path id="パス_30328" data-name="パス 30328" d="M135.105,347.475a.88.88,0,0,1-.645-.286l-2.822-3.024a1.027,1.027,0,0,1,0-1.382.87.87,0,0,1,1.29,0l2.822,3.024a1.027,1.027,0,0,1,0,1.382.88.88,0,0,1-.645.286" transform="translate(-125.872 -307.094)" fill="#575b64"/>
            <path id="パス_30330" data-name="パス 30330" d="M136.121,366.155a9.594,9.594,0,0,1-6.988-3.114l-.088-.093-2.469-2.726-6.452-6.859a3.189,3.189,0,0,1,.038-4.288,2.657,2.657,0,0,1,2.008-.86,2.723,2.723,0,0,1,1.987.912,1.026,1.026,0,0,1-.016,1.381.87.87,0,0,1-1.29-.016.968.968,0,0,0-.705-.324.951.951,0,0,0-.71.3,1.129,1.129,0,0,0-.017,1.516l6.454,6.861,2.547,2.807a7.769,7.769,0,0,0,5.959,2.54.932.932,0,0,1,.942.945.951.951,0,0,1-.882,1.008q-.159.006-.318.006" transform="translate(-119.314 -310.018)" fill="#575b64"/>
            <path id="パス_30331" data-name="パス 30331" d="M167.932,387.069a.879.879,0,0,1-.645-.286l-12.43-13.312a1.026,1.026,0,0,1,0-1.381l9.747-10.438a.87.87,0,0,1,1.29,0l9.927,10.631a1.026,1.026,0,0,1,0,1.381.87.87,0,0,1-1.29,0l-9.282-9.94-8.457,9.057L168.577,385.4a1.026,1.026,0,0,1,0,1.381.878.878,0,0,1-.645.286" transform="translate(-138.5 -316.746)" fill="#575b64"/>
            <path id="パス_30332" data-name="パス 30332" d="M148.024,340.185a.879.879,0,0,1-.646-.288l-7.415-7.991a.959.959,0,0,0-.7-.322,1.027,1.027,0,0,0-.711.3,1.123,1.123,0,0,0-.017,1.514,1.026,1.026,0,0,1-.015,1.381.87.87,0,0,1-1.29-.015,3.177,3.177,0,0,1,.047-4.278,2.774,2.774,0,0,1,2.007-.86,2.719,2.719,0,0,1,1.987.912l1.322,1.438,6.079,6.539a1.026,1.026,0,0,1,0,1.381.879.879,0,0,1-.644.285" transform="translate(-128.62 -300.512)" fill="#575b64"/>
            <path id="パス_30333" data-name="パス 30333" d="M162.428,351.667a.879.879,0,0,1-.644-.285,1.027,1.027,0,0,1-.024-1.356,8.648,8.648,0,0,0,.875-3.482,3.24,3.24,0,0,0-.823-2.116l-6.014-6.44a.911.911,0,0,0-1.35,0l-.819.877a.871.871,0,0,1-1.29,0,1.027,1.027,0,0,1,0-1.382l.818-.876a2.67,2.67,0,0,1,1.964-.871h0a2.675,2.675,0,0,1,1.965.872l6.014,6.441a5.224,5.224,0,0,1,1.354,3.4,9.5,9.5,0,0,1-1.382,4.937.879.879,0,0,1-.646.287" transform="translate(-137.131 -303.634)" fill="#575b64"/>
          </g>
        </g>
      </g>
      <path id="パス_30334" data-name="パス 30334" d="M857.071,262.991l-4.405-4.511,9.912-11.1,23.8,24.362-9.913,11.106L871.737,278Z" transform="translate(-372.138 -99.933)" fill="gold"/>
      <path id="パス_30335" data-name="パス 30335" d="M866.538,309.141a1.086,1.086,0,0,1-.779-.334l-13.124-13.433a1.268,1.268,0,0,1-.036-1.707,1.075,1.075,0,0,1,1.594-.039l13.124,13.433a1.268,1.268,0,0,1,.036,1.707,1.09,1.09,0,0,1-.815.373" transform="translate(-371.972 -118.138)" fill="#575b64"/>
      <path id="パス_30336" data-name="パス 30336" d="M854.491,344.3q-.162,0-.327-.012a5.521,5.521,0,0,1-3.54-1.716c-.549-.562-2.458-2.517-3.007-3.077a1.269,1.269,0,0,1-.039-1.707,1.077,1.077,0,0,1,1.594-.041c.549.561,2.461,2.517,3.009,3.08a3.34,3.34,0,0,0,2.127,1.052,2.035,2.035,0,0,0,1.7-.64c.9-1.011.653-2.84-.557-4.077l-3.008-3.08a1.269,1.269,0,0,1-.034-1.707,1.075,1.075,0,0,1,1.594-.036l3.005,3.077c2.107,2.157,2.39,5.517.629,7.49a4.142,4.142,0,0,1-3.148,1.394" transform="translate(-369.781 -133.487)" fill="#575b64"/>
      <path id="パス_30337" data-name="パス 30337" d="M863.3,335.069a5.456,5.456,0,0,1-3.86-1.72l-3.008-3.079a1.269,1.269,0,0,1-.035-1.707,1.076,1.076,0,0,1,1.594-.038L861,331.6c1.209,1.237,2.927,1.419,3.829.41s.652-2.839-.556-4.076l-3.008-3.079a1.268,1.268,0,0,1-.036-1.706,1.075,1.075,0,0,1,1.593-.039l3.007,3.077c2.108,2.159,2.39,5.519.629,7.49a4.163,4.163,0,0,1-3.155,1.387" transform="translate(-373.631 -129.828)" fill="#575b64"/>
      <path id="パス_30338" data-name="パス 30338" d="M872.126,325.84a5.457,5.457,0,0,1-3.86-1.721l-3.008-3.08a1.27,1.27,0,0,1-.034-1.707,1.076,1.076,0,0,1,1.594-.037l3.006,3.079c1.208,1.238,2.926,1.42,3.829.411s.651-2.84-.557-4.077l-3.007-3.079a1.268,1.268,0,0,1-.036-1.706,1.074,1.074,0,0,1,1.593-.039l3.007,3.079c2.108,2.157,2.39,5.517.629,7.49a4.169,4.169,0,0,1-3.156,1.387" transform="translate(-377.482 -126.169)" fill="#575b64"/>
      <path id="パス_30339" data-name="パス 30339" d="M801.653,332.706h-.015a4.566,4.566,0,0,1-3.258-1.421,5.152,5.152,0,0,1-.273-6.915c.426-.476,1.9-2.123,2.32-2.6a1.077,1.077,0,0,1,1.594-.04,1.269,1.269,0,0,1,.038,1.707c-.423.474-1.9,2.125-2.322,2.6a2.614,2.614,0,0,0,.2,3.5,2.4,2.4,0,0,0,1.707.753h.007a2.066,2.066,0,0,0,1.561-.7l2.316-2.6a1.076,1.076,0,0,1,1.594-.041,1.268,1.268,0,0,1,.038,1.707l-2.319,2.6a4.23,4.23,0,0,1-3.189,1.444" transform="translate(-347.801 -129.281)" fill="#575b64"/>
      <path id="パス_30340" data-name="パス 30340" d="M810.972,341.613A4.576,4.576,0,0,1,807.7,340.2a5.223,5.223,0,0,1-1.473-3.423,4.874,4.874,0,0,1,1.2-3.494l2.317-2.6a1.075,1.075,0,0,1,1.594-.039,1.269,1.269,0,0,1,.037,1.707l-2.318,2.6a2.378,2.378,0,0,0-.58,1.709,2.741,2.741,0,0,0,.778,1.794,2.216,2.216,0,0,0,3.277.054l2.32-2.6a1.074,1.074,0,0,1,1.593-.035,1.268,1.268,0,0,1,.032,1.707l-2.317,2.595a4.249,4.249,0,0,1-3.191,1.44" transform="translate(-351.868 -132.814)" fill="#575b64"/>
      <path id="パス_30341" data-name="パス 30341" d="M820.3,350.525a4.578,4.578,0,0,1-3.273-1.418,5.151,5.151,0,0,1-.269-6.916l2.319-2.6a1.074,1.074,0,0,1,1.593-.036,1.267,1.267,0,0,1,.034,1.706l-2.317,2.6a2.615,2.615,0,0,0,.2,3.5,2.218,2.218,0,0,0,3.276.054l2.319-2.6a1.075,1.075,0,0,1,1.594-.037,1.27,1.27,0,0,1,.034,1.707l-2.318,2.6a4.246,4.246,0,0,1-3.19,1.44" transform="translate(-355.938 -136.347)" fill="#575b64"/>
      <path id="パス_30342" data-name="パス 30342" d="M829.621,359.44h-.014a4.567,4.567,0,0,1-3.259-1.421,5.151,5.151,0,0,1-.271-6.916l2.319-2.6a1.076,1.076,0,0,1,1.594-.038,1.268,1.268,0,0,1,.036,1.707l-2.318,2.6a2.615,2.615,0,0,0,.2,3.5,2.4,2.4,0,0,0,1.708.752h.008a2.064,2.064,0,0,0,1.56-.7l2.318-2.6a1.074,1.074,0,0,1,1.594-.039,1.268,1.268,0,0,1,.036,1.707l-2.317,2.6a4.232,4.232,0,0,1-3.191,1.445" transform="translate(-360.007 -139.88)" fill="#575b64"/>
      <path id="パス_30343" data-name="パス 30343" d="M833.833,356.47a1.087,1.087,0,0,1-.778-.334,1.268,1.268,0,0,1-.037-1.707c.422-.473,1.9-2.124,2.32-2.6a2.615,2.615,0,0,0-.2-3.5,2.216,2.216,0,0,0-3.277-.052l-2.315,2.6a1.077,1.077,0,0,1-1.594.04,1.269,1.269,0,0,1-.037-1.707l2.316-2.6a4.367,4.367,0,0,1,6.465-.024,5.153,5.153,0,0,1,.272,6.915c-.425.475-1.9,2.123-2.318,2.6a1.091,1.091,0,0,1-.816.374" transform="translate(-361.199 -138.704)" fill="#575b64"/>
      <path id="パス_30344" data-name="パス 30344" d="M824.51,347.556a1.083,1.083,0,0,1-.779-.335,1.267,1.267,0,0,1-.036-1.706l2.317-2.6a2.378,2.378,0,0,0,.58-1.709,2.741,2.741,0,0,0-.778-1.793,2.4,2.4,0,0,0-1.708-.752H824.1a2.067,2.067,0,0,0-1.56.7l-2.319,2.6a1.075,1.075,0,0,1-1.594.036,1.269,1.269,0,0,1-.034-1.707l2.319-2.6a4.232,4.232,0,0,1,3.189-1.442h.014a4.562,4.562,0,0,1,3.259,1.421,5.219,5.219,0,0,1,1.473,3.422,4.872,4.872,0,0,1-1.2,3.494l-2.317,2.6a1.088,1.088,0,0,1-.814.373" transform="translate(-357.13 -135.169)" fill="#575b64"/>
      <path id="パス_30345" data-name="パス 30345" d="M815.187,338.646a1.086,1.086,0,0,1-.779-.334,1.269,1.269,0,0,1-.036-1.707l2.317-2.6a2.613,2.613,0,0,0-.2-3.5,2.215,2.215,0,0,0-3.275-.054l-2.318,2.6a1.076,1.076,0,0,1-1.594.039,1.27,1.27,0,0,1-.036-1.707l2.318-2.6a4.366,4.366,0,0,1,6.463-.022,5.152,5.152,0,0,1,.27,6.916l-2.318,2.6a1.089,1.089,0,0,1-.815.373" transform="translate(-353.061 -131.637)" fill="#575b64"/>
      <path id="パス_30346" data-name="パス 30346" d="M805.863,329.736a1.085,1.085,0,0,1-.778-.333,1.268,1.268,0,0,1-.038-1.707l2.319-2.6a2.375,2.375,0,0,0,.58-1.708,2.742,2.742,0,0,0-.779-1.794,2.215,2.215,0,0,0-3.275-.053l-2.317,2.6a1.077,1.077,0,0,1-1.594.04,1.269,1.269,0,0,1-.037-1.707l2.319-2.6a4.367,4.367,0,0,1,6.463-.023,5.225,5.225,0,0,1,1.473,3.423,4.869,4.869,0,0,1-1.2,3.493l-2.317,2.6a1.091,1.091,0,0,1-.816.374" transform="translate(-348.991 -128.104)" fill="#575b64"/>
      <path id="パス_30347" data-name="パス 30347" d="M831.8,304.685c-.227,0-.37-.007-.4-.009a1.155,1.155,0,0,1-1.051-.983l-3.495-19.913a1.261,1.261,0,0,1,.334-1.1l9.939-10.066c3.08-3.223,7.9-3.336,10.725-.238l13.321,13.872c2.756,3.022,2.372,8.565-.8,11.883l-2.454,2.629a1.075,1.075,0,0,1-1.594,0,1.268,1.268,0,0,1,0-1.707l2.464-2.639c2.323-2.43,2.688-6.377.792-8.457l-13.321-13.871c-1.978-2.166-5.365-2.036-7.57.27l-9.505,9.627,3.207,18.276c1.585-.086,4.183-.567,5.381-2.2.805-1.1.93-2.678.372-4.692-2.18-7.862,1.821-10.58,3.643-11.384a1.1,1.1,0,0,1,1.471.657,1.239,1.239,0,0,1-.613,1.576c-1.559.687-3.938,2.7-2.341,8.463.779,2.811.522,5.124-.763,6.875-2.128,2.9-6.4,3.135-7.738,3.135" transform="translate(-360.861 -108.952)" fill="#575b64"/>
      <path id="パス_30348" data-name="パス 30348" d="M847.545,353.534c-.108,0-.217,0-.326-.011a5.522,5.522,0,0,1-3.541-1.716l-.93-.951a1.27,1.27,0,0,1-.037-1.707,1.077,1.077,0,0,1,1.594-.04l.931.954a3.344,3.344,0,0,0,2.128,1.052,2.032,2.032,0,0,0,1.7-.64,2.368,2.368,0,0,0,.521-1.849,3.766,3.766,0,0,0-1.077-2.226l-3.007-3.08a1.267,1.267,0,0,1-.035-1.706,1.074,1.074,0,0,1,1.593-.038l3.007,3.079a6.254,6.254,0,0,1,1.76,3.709,4.842,4.842,0,0,1-1.132,3.78,4.14,4.14,0,0,1-3.148,1.393" transform="translate(-367.657 -137.147)" fill="#575b64"/>
      <path id="パス_30349" data-name="パス 30349" d="M783.331,288.415a1.089,1.089,0,0,1-.779-.335L769.387,274.6a1.267,1.267,0,0,1-.036-1.706l22.75-25.488a1.1,1.1,0,0,1,.789-.373,1.062,1.062,0,0,1,.8.334l13.164,13.477a1.268,1.268,0,0,1,.036,1.706l-22.75,25.488a1.089,1.089,0,0,1-.789.372h-.025M771.76,273.692,783.3,285.5l21.192-23.742-11.535-11.809Z" transform="translate(-335.639 -99.798)" fill="#575b64"/>
      <path id="パス_30350" data-name="パス 30350" d="M875.592,283.259a1.084,1.084,0,0,1-.779-.335l-4.728-4.84a1.267,1.267,0,0,1-.036-1.706,1.073,1.073,0,0,1,1.593-.039l3.914,4.006,8.355-9.36-22.17-22.695-8.354,9.36,3.59,3.677a1.267,1.267,0,0,1,.036,1.706,1.075,1.075,0,0,1-1.593.039l-4.405-4.51a1.268,1.268,0,0,1-.036-1.707l9.913-11.1a1.075,1.075,0,0,1,1.593-.039l23.8,24.362a1.268,1.268,0,0,1,.036,1.706l-9.913,11.106a1.088,1.088,0,0,1-.814.373" transform="translate(-371.265 -99.141)" fill="#575b64"/>
      <path id="パス_30351" data-name="パス 30351" d="M801.9,316.871a1.084,1.084,0,0,1-.779-.335l-5.265-5.39a1.268,1.268,0,0,1-.035-1.706,1.074,1.074,0,0,1,1.593-.039l5.265,5.391a1.267,1.267,0,0,1,.035,1.706,1.088,1.088,0,0,1-.814.373" transform="translate(-347.192 -124.392)" fill="#575b64"/>
      <path id="パス_30352" data-name="パス 30352" d="M835.5,279.115a1.086,1.086,0,0,1-.779-.334l-4.355-4.458a1.268,1.268,0,0,1-.036-1.707,1.075,1.075,0,0,1,1.593-.039l4.355,4.458a1.268,1.268,0,0,1,.036,1.707,1.088,1.088,0,0,1-.814.373" transform="translate(-362.254 -109.792)" fill="#575b64"/>
      <path id="パス_30373" data-name="パス 30373" d="M132.142,155.561c.184,0,.367.007.551.016v6.3a4.982,4.982,0,1,0,9.925,0v-.7A15.229,15.229,0,0,1,145.376,170c0,7.976-5.926,14.441-13.235,14.441S118.906,177.978,118.906,170s5.925-14.441,13.236-14.441" transform="translate(-35.079 -36.81)" fill="gold"/>
      <path id="パス_30374" data-name="パス 30374" d="M172.783,88.009a1.089,1.089,0,0,1-.773-.328L146.718,62.173a1.268,1.268,0,0,1-.063-1.689l8.533-10.075a1.075,1.075,0,0,1,1.607-.068L182.09,75.848a1.269,1.269,0,0,1,.063,1.69l-8.535,10.075a1.1,1.1,0,0,1-.791.4h-.044M149.069,61.228l23.65,23.852,7.02-8.286L156.087,52.942Z" transform="translate(-47.063 5.037)" fill="#575b64"/>
      <path id="パス_30375" data-name="パス 30375" d="M117.776,135.246a1.165,1.165,0,0,1-1.125-1.165L115.517,99.64a1.262,1.262,0,0,1,.291-.854L135.53,75.5a1.075,1.075,0,0,1,1.592-.083,1.268,1.268,0,0,1,.078,1.7l-19.413,22.922L118.9,134a1.176,1.176,0,0,1-1.087,1.249h-.041" transform="translate(-33.6 -4.912)" fill="#575b64"/>
      <path id="パス_30376" data-name="パス 30376" d="M146.918,162.154a5.715,5.715,0,0,1-4.054-1.7,6.764,6.764,0,0,1-1.958-4.726l-.224-15.676a1.172,1.172,0,0,1,1.11-1.225,1.152,1.152,0,0,1,1.145,1.188l.224,15.67a4.29,4.29,0,0,0,1.234,3,3.554,3.554,0,0,0,2.758,1.046,4.444,4.444,0,0,0,3.912-4.642l.116-15.024a1.13,1.13,0,1,1,2.254.021l-.116,14.989a6.809,6.809,0,0,1-6.033,7.066c-.123.008-.245.011-.366.011" transform="translate(-44.583 -30.177)" fill="#575b64"/>
      <path id="パス_30377" data-name="パス 30377" d="M160.962,129.094a1.082,1.082,0,0,1-.757-.313,1.268,1.268,0,0,1-.078-1.706l5.35-6.317a7.088,7.088,0,0,0-.338-9.392,1.268,1.268,0,0,1-.047-1.706,1.075,1.075,0,0,1,1.593-.051,9.639,9.639,0,0,1,.462,12.772L161.8,128.7a1.093,1.093,0,0,1-.835.4" transform="translate(-52.942 -18.461)" fill="#575b64"/>
      <path id="パス_30378" data-name="パス 30378" d="M169.746,107.464a1.081,1.081,0,0,1-.757-.313,1.267,1.267,0,0,1-.078-1.7l5.456-6.44a1.075,1.075,0,0,1,1.592-.083,1.268,1.268,0,0,1,.078,1.7l-5.456,6.44a1.093,1.093,0,0,1-.835.4" transform="translate(-56.776 -14.231)" fill="#575b64"/>
      <path id="パス_30379" data-name="パス 30379" d="M152.918,162.306l.079,2.219a2.509,2.509,0,0,1-2.279,2.691,2.469,2.469,0,0,1-2.466-2.487l-.081-2.219Z" transform="translate(-47.852 -39.484)" fill="#575b64"/>
      <path id="パス_30380" data-name="パス 30380" d="M131.252,184.222c-7.952,0-14.422-7.049-14.422-15.714s6.47-15.714,14.422-15.714a1.21,1.21,0,0,1,0,2.414c-6.709,0-12.167,5.966-12.167,13.3s5.458,13.3,12.167,13.3,12.167-5.966,12.167-13.3a14.079,14.079,0,0,0-2.238-7.689,1.262,1.262,0,0,1,.283-1.68,1.08,1.08,0,0,1,1.568.3,16.6,16.6,0,0,1,2.641,9.066c0,8.664-6.47,15.714-14.422,15.714" transform="translate(-34.173 -35.713)" fill="#575b64"/>
      <path id="パス_30381" data-name="パス 30381" d="M133.222,150.366a1.169,1.169,0,0,1-1.127-1.207v-9.121a1.17,1.17,0,0,1,1.127-1.207h4.4a1.21,1.21,0,0,1,0,2.414h-3.272v7.913a1.169,1.169,0,0,1-1.127,1.207" transform="translate(-40.835 -30.177)" fill="#575b64"/>
      <path id="パス_30382" data-name="パス 30382" d="M536.128,377.307c-8.762,0-15.889-5.167-15.889-11.518a1.13,1.13,0,1,1,2.254,0c0,5.02,6.116,9.1,13.635,9.1s13.635-4.084,13.635-9.1a1.13,1.13,0,1,1,2.254,0c0,6.35-7.127,11.518-15.889,11.518" transform="translate(-227.053 -146.402)" fill="#575b64"/>
      <path id="パス_30383" data-name="パス 30383" d="M536.128,391.816c-8.762,0-15.889-5.167-15.889-11.519a1.13,1.13,0,1,1,2.254,0c0,5.02,6.116,9.1,13.635,9.1s13.635-4.085,13.635-9.1a1.13,1.13,0,1,1,2.254,0c0,6.352-7.127,11.519-15.889,11.519" transform="translate(-227.053 -152.154)" fill="#575b64"/>
      <path id="パス_30384" data-name="パス 30384" d="M536.128,406.323c-8.762,0-15.889-5.167-15.889-11.518a1.13,1.13,0,1,1,2.254,0c0,5.02,6.116,9.1,13.635,9.1s13.635-4.084,13.635-9.1a1.13,1.13,0,1,1,2.254,0c0,6.351-7.127,11.518-15.889,11.518" transform="translate(-227.053 -157.906)" fill="#575b64"/>
      <path id="パス_30385" data-name="パス 30385" d="M536.128,420.833c-8.762,0-15.889-5.167-15.889-11.518a1.13,1.13,0,1,1,2.254,0c0,5.02,6.116,9.1,13.635,9.1s13.635-4.084,13.635-9.1a1.13,1.13,0,1,1,2.254,0c0,6.35-7.127,11.518-15.889,11.518" transform="translate(-227.053 -163.658)" fill="#575b64"/>
      <path id="パス_30386" data-name="パス 30386" d="M536.128,435.34c-8.762,0-15.889-5.167-15.889-11.518a1.13,1.13,0,1,1,2.254,0c0,5.02,6.116,9.1,13.635,9.1s13.635-4.084,13.635-9.1a1.13,1.13,0,1,1,2.254,0c0,6.35-7.127,11.518-15.889,11.518" transform="translate(-227.053 -169.41)" fill="#575b64"/>
      <path id="パス_30387" data-name="パス 30387" d="M536.128,414.149c-8.762,0-15.889-5.167-15.889-11.518V359.5c0-6.351,7.127-11.518,15.889-11.518s15.889,5.167,15.889,11.518v43.133c0,6.35-7.127,11.518-15.889,11.518m0-63.755c-7.518,0-13.635,4.085-13.635,9.1v43.133c0,5.02,6.116,9.1,13.635,9.1s13.635-4.084,13.635-9.1V359.5c0-5.02-6.116-9.1-13.635-9.1" transform="translate(-227.053 -139.82)" fill="#575b64"/>
      <path id="パス_30388" data-name="パス 30388" d="M602.993,420.24c-8.762,0-15.889-5.167-15.889-11.519a1.13,1.13,0,1,1,2.254,0c0,5.02,6.116,9.1,13.635,9.1s13.635-4.085,13.635-9.1a1.13,1.13,0,1,1,2.254,0c0,6.352-7.127,11.519-15.889,11.519" transform="translate(-256.236 -163.423)" fill="#575b64"/>
      <path id="パス_30389" data-name="パス 30389" d="M602.993,434.748c-8.762,0-15.889-5.167-15.889-11.518a1.13,1.13,0,1,1,2.254,0c0,5.02,6.116,9.1,13.635,9.1s13.635-4.084,13.635-9.1a1.13,1.13,0,1,1,2.254,0c0,6.35-7.127,11.518-15.889,11.518" transform="translate(-256.236 -169.175)" fill="#575b64"/>
      <path id="パス_30390" data-name="パス 30390" d="M602.993,449.256c-8.762,0-15.889-5.167-15.889-11.518a1.13,1.13,0,1,1,2.254,0c0,5.02,6.116,9.1,13.635,9.1s13.635-4.084,13.635-9.1a1.13,1.13,0,1,1,2.254,0c0,6.351-7.127,11.518-15.889,11.518" transform="translate(-256.236 -174.927)" fill="#575b64"/>
      <path id="パス_30391" data-name="パス 30391" d="M617.755,421.474a1.169,1.169,0,0,1-1.127-1.207V402.43c0-5.02-6.117-9.1-13.635-9.1s-13.635,4.084-13.635,9.1v17.837a1.13,1.13,0,1,1-2.254,0V402.43c0-6.35,7.128-11.518,15.89-11.518s15.889,5.167,15.889,11.518v17.837a1.169,1.169,0,0,1-1.127,1.207" transform="translate(-256.235 -156.841)" fill="#575b64"/>
      <path id="パス_30392" data-name="パス 30392" d="M53.031,212.167a1.091,1.091,0,0,1-.825-.363l0,0-6.671-7.134c-.026-.028-.051-.057-.074-.088l-2.264-2.426a6.591,6.591,0,0,1,0-8.873,5.587,5.587,0,0,1,8.284,0l1.545,1.654,1.545-1.654a5.588,5.588,0,0,1,8.285,0,6.6,6.6,0,0,1,0,8.873l-8.991,9.63a1.131,1.131,0,0,1-.756.383c-.024,0-.049,0-.074,0m-5.83-9.128,5.821,6.227,8.236-8.821a4.062,4.062,0,0,0,0-5.459,3.438,3.438,0,0,0-5.1,0l-2.342,2.508a1.1,1.1,0,0,1-1.594,0l-2.342-2.508a3.438,3.438,0,0,0-5.1,0,4.055,4.055,0,0,0,0,5.459l2.342,2.508a1.124,1.124,0,0,1,.073.086" transform="translate(-18.102 -77.757)" fill="#575b64"/>
      <path id="パス_30393" data-name="パス 30393" d="M50.3,152.258c-6.213,0-11.513-4.715-12.726-11.133a4.045,4.045,0,0,1-3.394-4.1v-4.382a4.071,4.071,0,0,1,3.132-4.055v-.543c0-7.669,5.826-13.908,12.988-13.908s12.986,6.239,12.986,13.908v.55a4.073,4.073,0,0,1,3.1,4.048v4.382a4.048,4.048,0,0,1-3.361,4.094c-1.211,6.42-6.513,11.138-12.726,11.138M38.531,138.69a1.078,1.078,0,0,1,.667.234,1.224,1.224,0,0,1,.452.827c.654,5.754,5.233,10.093,10.651,10.093s9.995-4.337,10.65-10.089a1.228,1.228,0,0,1,.448-.824,1.074,1.074,0,0,1,.867-.218,1.441,1.441,0,0,0,.268.027,1.662,1.662,0,0,0,1.6-1.714v-4.382a1.584,1.584,0,0,0-1.826-1.694,1.079,1.079,0,0,1-.891-.289,1.244,1.244,0,0,1-.384-.908v-1.707c0-6.338-4.814-11.494-10.732-11.494s-10.734,5.156-10.734,11.494v1.713a1.244,1.244,0,0,1-.392.915,1.072,1.072,0,0,1-.9.278,1.45,1.45,0,0,0-.236-.022,1.662,1.662,0,0,0-1.6,1.713v4.382a1.623,1.623,0,0,0,1.89,1.684,1.032,1.032,0,0,1,.206-.02" transform="translate(-14.918 -47.109)" fill="#575b64"/>
      <path id="パス_30394" data-name="パス 30394" d="M66.761,209.631H23.5a1.17,1.17,0,0,1-1.127-1.207V191.848c0-7.42,5.637-13.457,12.565-13.457h3.911V172.6a1.13,1.13,0,1,1,2.254,0v7a1.17,1.17,0,0,1-1.127,1.207H34.938c-5.685,0-10.311,4.954-10.311,11.043v15.369H65.634V191.848c0-6.089-4.626-11.043-10.311-11.043H50.285a1.169,1.169,0,0,1-1.127-1.207v-7a1.13,1.13,0,1,1,2.254,0v5.792h3.911c6.929,0,12.566,6.037,12.566,13.457v16.576a1.169,1.169,0,0,1-1.127,1.207" transform="translate(-9.765 -69.808)" fill="#575b64"/>
      <path id="パス_30395" data-name="パス 30395" d="M42.869,135.6c-.379,0-.763-.009-1.157-.028a1.178,1.178,0,0,1-1.075-1.261,1.16,1.16,0,0,1,1.177-1.151c10.5.51,15.063-6.916,15.108-6.991a1.1,1.1,0,0,1,1.142-.54,1.164,1.164,0,0,1,.906.92c.012.059,1.355,6.056,5.2,6.62a1.2,1.2,0,0,1,.964,1.359,1.144,1.144,0,0,1-1.27,1.032c-3.586-.525-5.51-3.955-6.417-6.29A19.047,19.047,0,0,1,42.869,135.6" transform="translate(-17.735 -51.659)" fill="#575b64"/>
      <g id="グループ_6021" data-name="グループ 6021" transform="translate(322.165 145.097)">
        <path id="パス_30396" data-name="パス 30396" d="M612.234,327.116c-16.243,0-29.458-13.735-29.458-30.617s13.215-30.618,29.458-30.618,29.457,13.735,29.457,30.618-13.215,30.617-29.457,30.617m0-58.892c-15,0-27.2,12.684-27.2,28.275s12.2,28.274,27.2,28.274,27.2-12.683,27.2-28.274-12.2-28.275-27.2-28.275" transform="translate(-582.625 -265.881)" fill="#575b64"/>
        <path id="パス_30397" data-name="パス 30397" d="M625.293,327.047c-7.062,0-12.595-13.346-12.595-30.383s5.532-30.382,12.595-30.382,12.594,13.346,12.594,30.382-5.532,30.383-12.594,30.383m0-58.422c-4.994,0-10.341,11.267-10.341,28.039s5.347,28.04,10.341,28.04,10.34-11.267,10.34-28.04-5.347-28.039-10.34-28.039" transform="translate(-595.684 -266.047)" fill="#575b64"/>
        <path id="パス_30398" data-name="パス 30398" d="M640.571,318.493H583.847a1.172,1.172,0,0,1,0-2.343h56.724a1.172,1.172,0,0,1,0,2.343" transform="translate(-582.601 -286.704)" fill="#575b64"/>
        <path id="パス_30399" data-name="パス 30399" d="M599.039,349.381h-2.3V346.7a5.174,5.174,0,0,0,3.027-4.007,1.137,1.137,0,0,0,.212.018,1.214,1.214,0,0,0,1.245-1.183v-1.774a1.215,1.215,0,0,0-1.245-1.183,1.511,1.511,0,0,0-.171.012v-.691a5.422,5.422,0,0,0-10.83,0v.693a1.356,1.356,0,0,0-.184-.013,1.215,1.215,0,0,0-1.246,1.183v1.774a1.215,1.215,0,0,0,1.246,1.183,1.247,1.247,0,0,0,.225-.02,5.169,5.169,0,0,0,3.013,4v2.689h-2.3a5.1,5.1,0,0,0-5.222,4.961v3.7h19.752v-3.7a5.1,5.1,0,0,0-5.223-4.961" transform="translate(-583.381 -293.578)" fill="#fff"/>
        <path id="パス_30400" data-name="パス 30400" d="M633.9,349.381h-2.3V346.7a5.172,5.172,0,0,0,3.027-4.007,1.153,1.153,0,0,0,.212.018,1.214,1.214,0,0,0,1.245-1.183v-1.774a1.214,1.214,0,0,0-1.245-1.183,1.521,1.521,0,0,0-.171.012v-.691a5.422,5.422,0,0,0-10.829,0v.693a1.356,1.356,0,0,0-.185-.013,1.216,1.216,0,0,0-1.246,1.183v1.774a1.215,1.215,0,0,0,1.246,1.183,1.274,1.274,0,0,0,.227-.02,5.168,5.168,0,0,0,3.013,4v2.689h-2.3a5.1,5.1,0,0,0-5.222,4.961v3.7h19.752v-3.7a5.1,5.1,0,0,0-5.222-4.961" transform="translate(-598.595 -293.578)" fill="#fff"/>
        <path id="パス_30401" data-name="パス 30401" d="M668.753,349.381h-2.3V346.7a5.166,5.166,0,0,0,3.027-4.007,1.153,1.153,0,0,0,.212.018,1.214,1.214,0,0,0,1.247-1.183v-1.774a1.215,1.215,0,0,0-1.247-1.183,1.509,1.509,0,0,0-.171.012v-.691a5.422,5.422,0,0,0-10.829,0v.693a1.35,1.35,0,0,0-.185-.013,1.215,1.215,0,0,0-1.245,1.183v1.774a1.214,1.214,0,0,0,1.245,1.183,1.279,1.279,0,0,0,.228-.02,5.17,5.17,0,0,0,3.012,4v2.689h-2.3a5.1,5.1,0,0,0-5.224,4.961v3.7h19.754v-3.7a5.1,5.1,0,0,0-5.223-4.961" transform="translate(-613.807 -293.578)" fill="#fff"/>
        <path id="パス_30402" data-name="パス 30402" d="M603.387,358.382H583.635a1.15,1.15,0,0,1-1.127-1.172v-3.7a6.251,6.251,0,0,1,6.35-6.132h1.174v-.8a6.3,6.3,0,0,1-2.811-3.631,2.36,2.36,0,0,1-1.674-2.25v-1.774a2.357,2.357,0,0,1,1.436-2.163,6.558,6.558,0,0,1,13.071.006,2.357,2.357,0,0,1,1.423,2.157V340.7a2.362,2.362,0,0,1-1.659,2.246,6.294,6.294,0,0,1-2.826,3.643v.794h1.173a6.251,6.251,0,0,1,6.35,6.132v3.7a1.15,1.15,0,0,1-1.127,1.172m-18.625-2.343h17.5v-2.526a3.956,3.956,0,0,0-4.1-3.789h-2.3a1.15,1.15,0,0,1-1.127-1.172V345.87a1.175,1.175,0,0,1,.673-1.073,3.987,3.987,0,0,0,2.364-3.091,1.181,1.181,0,0,1,.452-.79,1.1,1.1,0,0,1,.862-.208h0a.176.176,0,0,0,.14-.045l-.008-1.737c0,.02-.043-.014-.118-.014a1.158,1.158,0,0,1-.9-.29,1.212,1.212,0,0,1-.4-.87v-.691a4.3,4.3,0,0,0-8.576,0v.693a1.192,1.192,0,0,1-.387.884,1.1,1.1,0,0,1-.9.277.154.154,0,0,0-.155.043l.008,1.736c0-.019.043.014.118.014a1.123,1.123,0,0,1,.876.209,1.194,1.194,0,0,1,.466.788,3.988,3.988,0,0,0,2.353,3.086,1.173,1.173,0,0,1,.671,1.071v2.689a1.15,1.15,0,0,1-1.127,1.172h-2.3a3.956,3.956,0,0,0-4.1,3.789Z" transform="translate(-582.508 -292.75)" fill="#575b64"/>
        <path id="パス_30403" data-name="パス 30403" d="M638.246,358.382H618.494a1.15,1.15,0,0,1-1.127-1.172v-3.7a6.251,6.251,0,0,1,6.35-6.132h1.174v-.8a6.294,6.294,0,0,1-2.811-3.631,2.36,2.36,0,0,1-1.675-2.25v-1.774a2.357,2.357,0,0,1,1.437-2.164,6.557,6.557,0,0,1,13.07.006,2.357,2.357,0,0,1,1.423,2.157V340.7a2.361,2.361,0,0,1-1.658,2.246,6.294,6.294,0,0,1-2.826,3.643v.794h1.173a6.251,6.251,0,0,1,6.35,6.132v3.7a1.15,1.15,0,0,1-1.127,1.172m-18.625-2.343h17.5v-2.526a3.956,3.956,0,0,0-4.1-3.789h-2.3a1.15,1.15,0,0,1-1.127-1.172V345.87a1.174,1.174,0,0,1,.673-1.072,3.989,3.989,0,0,0,2.365-3.091,1.178,1.178,0,0,1,.451-.79,1.093,1.093,0,0,1,.861-.209h0a.176.176,0,0,0,.141-.045l-.008-1.737c0,.02-.043-.014-.118-.014a1.147,1.147,0,0,1-.9-.291,1.213,1.213,0,0,1-.4-.869v-.691a4.3,4.3,0,0,0-8.575,0v.693a1.192,1.192,0,0,1-.387.884,1.1,1.1,0,0,1-.9.277.145.145,0,0,0-.156.044l.008,1.736c0-.022.044.014.119.014a1.139,1.139,0,0,1,.876.211,1.2,1.2,0,0,1,.467.787,3.986,3.986,0,0,0,2.353,3.086,1.173,1.173,0,0,1,.671,1.071v2.689a1.15,1.15,0,0,1-1.127,1.172h-2.3a3.956,3.956,0,0,0-4.1,3.789Z" transform="translate(-597.722 -292.75)" fill="#575b64"/>
        <path id="パス_30404" data-name="パス 30404" d="M673.1,358.382H653.349a1.15,1.15,0,0,1-1.127-1.172v-3.7a6.252,6.252,0,0,1,6.351-6.132h1.173v-.8a6.294,6.294,0,0,1-2.809-3.629,2.361,2.361,0,0,1-1.676-2.251v-1.774a2.358,2.358,0,0,1,1.437-2.164,6.557,6.557,0,0,1,13.07.006,2.357,2.357,0,0,1,1.424,2.157V340.7a2.361,2.361,0,0,1-1.659,2.246,6.287,6.287,0,0,1-2.827,3.643v.794h1.174a6.251,6.251,0,0,1,6.35,6.132v3.7a1.15,1.15,0,0,1-1.127,1.172m-18.627-2.343h17.5v-2.526a3.956,3.956,0,0,0-4.1-3.789h-2.3a1.15,1.15,0,0,1-1.127-1.172V345.87a1.175,1.175,0,0,1,.673-1.073,3.981,3.981,0,0,0,2.364-3.089,1.178,1.178,0,0,1,.45-.79,1.084,1.084,0,0,1,.861-.21.213.213,0,0,0,.146-.046l-.008-1.736c0,.019-.041-.014-.119-.014a1.149,1.149,0,0,1-.9-.291,1.214,1.214,0,0,1-.4-.869v-.691a4.3,4.3,0,0,0-8.575,0v.693a1.192,1.192,0,0,1-.387.884,1.1,1.1,0,0,1-.9.277.169.169,0,0,0-.156.043l.008,1.736c0-.019.043.014.118.014a1.138,1.138,0,0,1,.876.211,1.2,1.2,0,0,1,.468.786,3.988,3.988,0,0,0,2.352,3.086,1.174,1.174,0,0,1,.67,1.071v2.689a1.15,1.15,0,0,1-1.127,1.172h-2.3a3.957,3.957,0,0,0-4.1,3.789Z" transform="translate(-612.934 -292.75)" fill="#575b64"/>
      </g>
      <g id="グループ_6019" data-name="グループ 6019" transform="translate(131.476 8.851)">
        <path id="パス_30405" data-name="パス 30405" d="M224.047,52.335h-10.51c-4.124,0-7.467-3.627-7.467-8.1s3.343-8.1,7.467-8.1h10.51Z" transform="translate(-204.943 -25.485)" fill="#ff8e6f"/>
        <path id="パス_30406" data-name="パス 30406" d="M223.174,52.678h-10.51c-4.739,0-8.594-4.159-8.594-9.271s3.855-9.271,8.594-9.271h10.51a1.15,1.15,0,0,1,1.127,1.172v16.2a1.15,1.15,0,0,1-1.127,1.172m-10.51-16.2c-3.5,0-6.34,3.108-6.34,6.928s2.844,6.928,6.34,6.928h9.383V36.479Z" transform="translate(-204.07 -24.657)" fill="#575b64"/>
        <path id="パス_30407" data-name="パス 30407" d="M257.176,55.454a1.087,1.087,0,0,1-.462-.1l-20.972-9.8A1.19,1.19,0,0,1,235.176,44a1.111,1.111,0,0,1,1.49-.588l19.383,9.057V20.936l-19.383,9.057a1.11,1.11,0,0,1-1.49-.588,1.19,1.19,0,0,1,.566-1.549l20.972-9.8a1.09,1.09,0,0,1,1.074.085,1.182,1.182,0,0,1,.515.984V54.282a1.182,1.182,0,0,1-.515.984,1.094,1.094,0,0,1-.612.188" transform="translate(-217.602 -17.953)" fill="#575b64"/>
        <path id="パス_30408" data-name="パス 30408" d="M273.384,52.349a1.172,1.172,0,0,1,0-2.343,5.578,5.578,0,0,0,5.3-5.805,5.578,5.578,0,0,0-5.3-5.805,1.172,1.172,0,0,1,0-2.343c4.168,0,7.559,3.655,7.559,8.148s-3.391,8.148-7.559,8.148" transform="translate(-233.83 -25.45)" fill="#575b64"/>
        <path id="パス_30409" data-name="パス 30409" d="M217.514,68.933a2.479,2.479,0,0,1-.787-.129,2.619,2.619,0,0,1-1.537-1.391l-1.922-4.061a1.194,1.194,0,0,1,.514-1.569,1.11,1.11,0,0,1,1.509.534l1.922,4.062a.355.355,0,0,0,.2.194.266.266,0,0,0,.221-.022L224.91,62.8a1.108,1.108,0,0,1,1.511.53,1.193,1.193,0,0,1-.509,1.57l-7.24,3.731a2.373,2.373,0,0,1-1.158.3" transform="translate(-208.034 -36.059)" fill="#575b64"/>
        <path id="パス_30410" data-name="パス 30410" d="M228.158,81.089a4.377,4.377,0,0,1-1.988-.479,10.954,10.954,0,0,1-4.844-4.919,25.163,25.163,0,0,1-2.215-7.384,1.164,1.164,0,0,1,.962-1.32,1.134,1.134,0,0,1,1.271,1,23.083,23.083,0,0,0,1.948,6.557,8.667,8.667,0,0,0,3.868,3.962,2.253,2.253,0,0,0,1.832.086,3.129,3.129,0,0,0,1.714-1.717,3.663,3.663,0,0,0,.219-2.238,5.048,5.048,0,0,0-.964-1.775l-.222-.3a11.216,11.216,0,0,1-1.177-1.792,13.606,13.606,0,0,1-1.51-6.891,1.128,1.128,0,1,1,2.253.087,11.2,11.2,0,0,0,1.265,5.739,9.377,9.377,0,0,0,.943,1.412l.232.31a7.149,7.149,0,0,1,1.375,2.673,6.1,6.1,0,0,1-.358,3.731,5.429,5.429,0,0,1-3,2.962,4.549,4.549,0,0,1-1.6.3" transform="translate(-210.63 -36.51)" fill="#575b64"/>
      </g>
      <g id="グループ_6020" data-name="グループ 6020" transform="translate(126.22 114.669)">
        <path id="パス_30411" data-name="パス 30411" d="M290.719,250.374c-4.792,6.663-17.3,19.428-40.683,14.955l.987-6.876c29.608,3.336,39.179-19.5,39.179-19.5Z" transform="translate(-246.996 -227.16)" fill="#ff8e6f"/>
        <path id="パス_30412" data-name="パス 30412" d="M270.011,280.645h-.144a1.14,1.14,0,0,1-1.111-.979c-.651-4.065-4.044-5.708-10.2-8.692-2.17-1.051-4.629-2.243-7.383-3.749-8.589-4.7-5.727-12.782-2.959-20.6,1.394-3.939,2.835-8.011,2.929-11.773.194-7.817-3.571-10.743-5.832-11.792a1.19,1.19,0,0,1-.589-1.5,1.114,1.114,0,0,1,1.413-.68,34.719,34.719,0,0,0,11.512,2.208c6.577,0,10.1-2.587,11.184-3.546a1.147,1.147,0,0,1,.629-.637,1.093,1.093,0,0,1,.5-.077,1.1,1.1,0,0,1,.468.08,1.151,1.151,0,0,1,.626.633c1.08.959,4.606,3.548,11.184,3.547a34.729,34.729,0,0,0,11.512-2.208,1.116,1.116,0,0,1,1.413.68,1.19,1.19,0,0,1-.589,1.5c-2.262,1.049-6.027,3.975-5.832,11.792.093,3.762,1.535,7.835,2.929,11.774,2.767,7.82,5.629,15.9-2.959,20.6-2.754,1.506-5.214,2.7-7.383,3.749-6.158,2.983-9.551,4.627-10.2,8.692a1.141,1.141,0,0,1-1.112.979m-19.354-56.026c1.58,2.179,2.858,5.448,2.738,10.29-.1,4.148-1.61,8.406-3.067,12.522-3.067,8.667-4.617,14.16,1.893,17.72,2.706,1.479,5.139,2.658,7.286,3.7,4.987,2.417,8.656,4.195,10.432,7.363,1.776-3.168,5.445-4.946,10.433-7.363,2.147-1.04,4.58-2.219,7.286-3.7,6.51-3.56,4.96-9.053,1.892-17.72-1.457-4.116-2.963-8.374-3.066-12.522-.121-4.843,1.159-8.111,2.738-10.29a32.407,32.407,0,0,1-6.988.811c-6.691,0-10.608-2.424-12.295-3.805-1.686,1.381-5.6,3.805-12.294,3.805h0a32.4,32.4,0,0,1-6.987-.811" transform="translate(-244.641 -218.824)" fill="#575b64"/>
        <path id="パス_30413" data-name="パス 30413" d="M256.619,259.125a52.077,52.077,0,0,1-5.826-.335,1.162,1.162,0,0,1-1-1.291,1.14,1.14,0,0,1,1.242-1.039c11.919,1.343,21.932-1.4,29.765-8.163a32.748,32.748,0,0,0,8.26-10.645,1.11,1.11,0,0,1,1.484-.6,1.189,1.189,0,0,1,.582,1.541,34.408,34.408,0,0,1-8.8,11.434c-4.985,4.329-13.3,9.1-25.711,9.1" transform="translate(-246.887 -226.332)" fill="#575b64"/>
        <path id="パス_30414" data-name="パス 30414" d="M258.493,274.671a50.66,50.66,0,0,1-9.534-.94,1.168,1.168,0,0,1-.9-1.364,1.131,1.131,0,0,1,1.312-.94c22.291,4.263,34.364-7.258,39.577-14.5a1.1,1.1,0,0,1,1.577-.237,1.2,1.2,0,0,1,.228,1.64,39.125,39.125,0,0,1-32.255,16.345" transform="translate(-246.122 -234.41)" fill="#575b64"/>
      </g>
      <path id="パス_30420" data-name="パス 30420" d="M665.149,50.758a1.21,1.21,0,0,1-.012-2.414,2.619,2.619,0,0,0,1.916-.876,3.006,3.006,0,0,0,.775-2.071,2.828,2.828,0,0,0-2.724-2.885h-.04a1.21,1.21,0,0,1-.012-2.414h.052a5.168,5.168,0,0,1,4.977,5.271,5.5,5.5,0,0,1-1.418,3.787,4.787,4.787,0,0,1-3.5,1.6Z" transform="translate(-289.769 -17.754)" fill="#575b64"/>
      <path id="パス_30421" data-name="パス 30421" d="M665.3,64.42a1.21,1.21,0,0,1-.012-2.414,2.618,2.618,0,0,0,1.914-.876,3.069,3.069,0,0,0-.043-4.124,2.615,2.615,0,0,0-1.9-.831h-.044a1.21,1.21,0,0,1-.013-2.414h.059a4.777,4.777,0,0,1,3.478,1.52,5.605,5.605,0,0,1,.078,7.537,4.789,4.789,0,0,1-3.5,1.6Z" transform="translate(-289.835 -23.171)" fill="#575b64"/>
      <g id="グループ_6022" data-name="グループ 6022" transform="translate(311.434 2.202)">
        <path id="パス_30422" data-name="パス 30422" d="M656.49,77.767a1.173,1.173,0,0,1-.012-2.343,2.832,2.832,0,0,0-.036-5.659h-.04a1.173,1.173,0,0,1-.012-2.343h.052a5.178,5.178,0,0,1,.061,10.345Z" transform="translate(-600.31 -38.844)" fill="#575b64"/>
        <path id="パス_30423" data-name="パス 30423" d="M652.493,36.663a1.173,1.173,0,0,1-.013-2.343,2.788,2.788,0,0,0,2.694-2.863,2.869,2.869,0,0,0-.82-1.99,2.607,2.607,0,0,0-1.932-.8l-3.825.026-11.742.025h0a1.172,1.172,0,0,1,0-2.343L652.4,26.32h.064a4.841,4.841,0,0,1,3.47,1.472,5.243,5.243,0,0,1,1.5,3.639,5.1,5.1,0,0,1-4.923,5.232Z" transform="translate(-591.778 -21.819)" fill="#575b64"/>
        <path id="パス_30424" data-name="パス 30424" d="M625.6,42.371a1.172,1.172,0,0,1,0-2.343l22.847-.067h0a1.172,1.172,0,0,1,0,2.343l-22.847.067Z" transform="translate(-586.869 -27.469)" fill="#575b64"/>
        <path id="パス_30425" data-name="パス 30425" d="M625.759,56.161a1.172,1.172,0,0,1,0-2.343l22.846-.069h0a1.172,1.172,0,0,1,0,2.343l-22.846.069Z" transform="translate(-586.937 -33.181)" fill="#575b64"/>
        <path id="パス_30426" data-name="パス 30426" d="M625.914,69.82a1.172,1.172,0,0,1,0-2.343l22.844-.07h0a1.172,1.172,0,0,1,0,2.343l-22.844.07Z" transform="translate(-587.004 -38.838)" fill="#575b64"/>
        <path id="パス_30427" data-name="パス 30427" d="M576.778,58.094c-10.5,0-19.034-8.85-19.034-19.728s8.539-19.73,19.033-19.73h0l.712.032,4.446-.032H598.6a5.1,5.1,0,0,1,0,10.191h-7.574a1.172,1.172,0,0,1,0-2.343h7.574a2.755,2.755,0,0,0,0-5.505H581.943l-4.467.032a.473.473,0,0,1-.057,0l-.691-.032c-9.2,0-16.729,7.8-16.729,17.388s7.527,17.385,16.779,17.385h.258l9.2-.105,24.433-.372,2.927-.065a1.172,1.172,0,0,1,.048,2.343l-2.88.064h-.023l-.2,0h-.058l-24.216.369Z" transform="translate(-557.744 -18.636)" fill="#575b64"/>
        <path id="パス_30428" data-name="パス 30428" d="M616.753,43.076a5.017,5.017,0,0,0-7.289,0l-2.55,2.652-2.551-2.652a5.016,5.016,0,0,0-7.289,0,5.51,5.51,0,0,0,0,7.576l2.552,2.652,0,0,7.292,7.571,0,0,.026-.036,9.809-10.2a5.509,5.509,0,0,0,0-7.576" transform="translate(-574.251 -28.11)" fill="#f77ee6"/>
        <path id="パス_30429" data-name="パス 30429" d="M606.052,61.209a1.109,1.109,0,0,1-.826-.351l0,0-7.268-7.545a1.21,1.21,0,0,1-.079-.092l-2.468-2.565a6.722,6.722,0,0,1,0-9.233,6.114,6.114,0,0,1,8.882,0l1.754,1.823,1.753-1.823a6.115,6.115,0,0,1,8.883,0,6.72,6.72,0,0,1,0,9.232l-9.8,10.182a1.146,1.146,0,0,1-.759.373l-.072,0m-6.422-9.471,6.412,6.657,9.043-9.4a4.309,4.309,0,0,0,0-5.919,3.922,3.922,0,0,0-5.7,0l-2.55,2.652a1.128,1.128,0,0,1-1.594,0l-2.551-2.652a3.92,3.92,0,0,0-5.695,0,4.309,4.309,0,0,0,0,5.919l2.551,2.651a1.06,1.06,0,0,1,.079.091" transform="translate(-573.38 -27.281)" fill="#575b64"/>
      </g>
      <g id="グループ_6023" data-name="グループ 6023" transform="translate(181.842 140.935)">
        <path id="パス_30430" data-name="パス 30430" d="M697.478,409.215h-38.55a4.691,4.691,0,0,1-4.592-4.773V392.06a4.69,4.69,0,0,1,4.592-4.773h38.55a4.691,4.691,0,0,1,4.593,4.773v12.382a4.692,4.692,0,0,1-4.593,4.773m-38.55-19.585a2.388,2.388,0,0,0-2.338,2.43v12.382a2.388,2.388,0,0,0,2.338,2.43h38.55a2.389,2.389,0,0,0,2.339-2.43V392.06a2.389,2.389,0,0,0-2.339-2.43Z" transform="translate(-654.336 -387.287)" fill="#575b64"/>
        <path id="パス_30431" data-name="パス 30431" d="M671.255,397.69v3.771h3.516V397.69H676.9V407.5H674.77V403.4h-3.516V407.5h-2.143V397.69Z" transform="translate(-660.785 -391.596)" fill="#575b64"/>
        <path id="パス_30432" data-name="パス 30432" d="M691.862,403.354h-3.473v2.33h3.88V407.5h-6.024V397.69h5.827v1.819h-3.683v2.038h3.473Z" transform="translate(-668.263 -391.596)" fill="#575b64"/>
        <path id="パス_30433" data-name="パス 30433" d="M699.526,397.69h2.143v7.948h3.753V407.5h-5.9Z" transform="translate(-674.059 -391.596)" fill="#575b64"/>
        <path id="パス_30434" data-name="パス 30434" d="M712.234,397.77a16.793,16.793,0,0,1,2.885-.2,4.4,4.4,0,0,1,2.884.786,2.912,2.912,0,0,1,1.009,2.272,3.2,3.2,0,0,1-.868,2.329,4.272,4.272,0,0,1-3.067,1.034,5.168,5.168,0,0,1-.729-.044v3.509h-2.114Zm2.114,4.455a3.092,3.092,0,0,0,.714.059c1.135,0,1.835-.6,1.835-1.6,0-.9-.6-1.441-1.666-1.441a3.462,3.462,0,0,0-.883.088Z" transform="translate(-679.605 -391.545)" fill="#575b64"/>
      </g>
      <path id="パス_30445" data-name="パス 30445" d="M59.458,320.392a1.077,1.077,0,0,1-.653-.223l-10.2-7.762a35.127,35.127,0,0,0-13.676-4.895c-.6-.091-1.178-.189-1.732-.294H19.473a24.446,24.446,0,0,1-3.013-.234,4.557,4.557,0,0,1-2.216-1.252L1.46,292.824A5.075,5.075,0,0,1,.006,289.48a4.806,4.806,0,0,1,1.168-3.432,4.275,4.275,0,0,1,6.29-.136c3.465,2.869,9,7.412,10.218,8.3H34.092a1.21,1.21,0,0,1,0,2.414H17.372c-.5,0-.654,0-11.327-8.839a1.03,1.03,0,0,1-.083-.077,2.127,2.127,0,0,0-3.148-.007,2.312,2.312,0,0,0-.556,1.653,2.6,2.6,0,0,0,.749,1.709l12.784,12.909a2.344,2.344,0,0,0,1.138.646,24.971,24.971,0,0,0,2.544.181H33.294a1.114,1.114,0,0,1,.2.019c.557.108,1.138.208,1.745.3a37.239,37.239,0,0,1,14.553,5.234c.026.016.052.035.077.054l8.579,6.527a56.668,56.668,0,0,0-5.275-26.375c-3.891-5.732-8.07-5.863-12.493-6l-.477-.015a1.175,1.175,0,0,1-1.092-1.244,1.15,1.15,0,0,1,1.161-1.169l.473.015c4.565.142,9.738.3,14.291,7.053.021.032.042.066.061.1.275.508,6.732,12.62,5.485,29.977a1.209,1.209,0,0,1-.645,1,1.061,1.061,0,0,1-.478.114" transform="translate(-0.001 -113.713)" fill="#575b64"/>
      <path id="パス_30446" data-name="パス 30446" d="M58.131,292.2H48.061a5.061,5.061,0,0,1,0-10.1h10.07a1.21,1.21,0,0,1,0,2.414H48.061a2.642,2.642,0,0,0,0,5.271h10.07a1.21,1.21,0,0,1,0,2.414" transform="translate(-18.918 -113.7)" fill="#575b64"/>
      <path id="パス_30447" data-name="パス 30447" d="M59.269,301.733a1.21,1.21,0,0,1,0-2.414,4.809,4.809,0,0,0,4.619-3.45,1.114,1.114,0,0,1,1.42-.776,1.227,1.227,0,0,1,.724,1.521,7.077,7.077,0,0,1-6.763,5.119" transform="translate(-25.376 -118.828)" fill="#575b64"/>
      <path id="パス_30448" data-name="パス 30448" d="M22.719,257.34a8.218,8.218,0,0,0,7.923,8.486,8.506,8.506,0,0,0,0-16.971,8.218,8.218,0,0,0-7.923,8.485" transform="translate(-9.916 -100.52)" fill="gold"/>
      <path id="パス_30449" data-name="パス 30449" d="M29.769,266.24c-4.99,0-9.05-4.348-9.05-9.693s4.06-9.692,9.05-9.692,9.051,4.348,9.051,9.692-4.06,9.693-9.051,9.693m0-16.971a7.3,7.3,0,0,0,0,14.557,7.3,7.3,0,0,0,0-14.557" transform="translate(-9.043 -99.727)" fill="#575b64"/>
      <path id="パス_30453" data-name="パス 30453" d="M427.189,95.581c6.7-8.05,12.341-16.291,12.909-21.726,1.462-14.011-13.042-12.962-13.042-12.962l-.87,7.071c14.269.168,18.883,14.3,14.5,25.858-1.028,2.709-3.382,6.434-6.383,10.547Z" transform="translate(-186.004 -25.992)" fill="#5096ff"/>
      <path id="パス_30454" data-name="パス 30454" d="M433.426,109.441a1.074,1.074,0,0,1-.693-.256,1.266,1.266,0,0,1-.194-1.694c3.228-4.425,5.323-7.877,6.227-10.259,2.329-6.138,1.941-12.9-1.009-17.655-2.617-4.214-6.925-6.476-12.456-6.54a1.21,1.21,0,0,1,.012-2.414h.012c6.221.073,11.3,2.778,14.308,7.617,3.359,5.408,3.827,13.034,1.221,19.9-.982,2.589-3.182,6.235-6.538,10.837a1.1,1.1,0,0,1-.889.464" transform="translate(-185.131 -29.856)" fill="#575b64"/>
      <path id="パス_30455" data-name="パス 30455" d="M402.2,132.289c-8.475,9.208-16.382,16.542-16.382,16.542l4.355,14.886s10.086-10.62,19.181-21.66Z" transform="translate(-168.385 -54.305)" fill="#5096ff"/>
      <path id="パス_30456" data-name="パス 30456" d="M389.3,164.131a1.058,1.058,0,0,1-.273-.036,1.164,1.164,0,0,1-.8-.81L383.866,148.4a1.262,1.262,0,0,1,.338-1.273c.079-.073,7.974-7.411,16.316-16.476a1.075,1.075,0,0,1,1.594-.012,1.269,1.269,0,0,1,.011,1.707c-7.128,7.746-13.934,14.242-15.888,16.084l3.58,12.239c3.023-3.239,10.76-11.638,17.815-20.2a1.076,1.076,0,0,1,1.59-.106,1.268,1.268,0,0,1,.1,1.7c-9.018,10.945-19.135,21.616-19.236,21.722a1.09,1.09,0,0,1-.79.346" transform="translate(-167.512 -53.512)" fill="#575b64"/>
      <path id="パス_30457" data-name="パス 30457" d="M426.99,95.995a1.08,1.08,0,0,1-.75-.306,1.268,1.268,0,0,1-.092-1.7c9.86-11.852,12.31-17.992,12.631-21.057.368-3.523-.325-6.292-2.057-8.23-3.4-3.808-9.725-3.4-9.79-3.393a1.157,1.157,0,0,1-1.2-1.123A1.181,1.181,0,0,1,426.78,58.9c.3-.021,7.447-.482,11.57,4.132,2.216,2.48,3.114,5.9,2.668,10.168-.518,4.964-4.955,12.5-13.187,22.4a1.094,1.094,0,0,1-.842.4" transform="translate(-185.805 -25.198)" fill="#575b64"/>
      <path id="パス_30458" data-name="パス 30458" d="M416.2,60.894s-14.5-1.05-13.043,12.962,35.475,47.526,35.475,47.526l-4.355,14.886s-27.319-30.887-31.7-42.446.228-25.69,14.5-25.857Z" transform="translate(-175.005 -25.992)" fill="#5096ff"/>
      <path id="パス_30459" data-name="パス 30459" d="M433.412,136.682a1.093,1.093,0,0,1-.818-.377c-1.122-1.268-27.516-31.186-31.93-42.822-2.468-6.5-2.179-13.686.711-19.022a12.294,12.294,0,0,1-.2-1.264c-.445-4.267.453-7.688,2.669-10.168,4.124-4.614,11.268-4.153,11.57-4.132a1.182,1.182,0,0,1,1.049,1.286,1.151,1.151,0,0,1-1.2,1.123c-.063-.006-6.411-.4-9.8,3.4a9.594,9.594,0,0,0-2.14,6.9,16.661,16.661,0,0,1,12.87-5.645h.012a1.21,1.21,0,0,1,.012,2.414c-5.509.065-9.8,2.308-12.424,6.489,3.978,14.4,34.414,44.516,34.737,44.833a1.266,1.266,0,0,1,.312,1.249l-4.355,14.887a1.163,1.163,0,0,1-.821.815,1.083,1.083,0,0,1-.254.031M402.4,77.725a21.518,21.518,0,0,0,.357,14.849c3.71,9.78,24.668,34.247,30.162,40.565l3.565-12.184c-4.032-4.021-28.227-28.524-34.083-43.23" transform="translate(-174.137 -25.198)" fill="#575b64"/>
      <g id="グループ_6016" data-name="グループ 6016" transform="translate(307.41 80.114)">
        <path id="パス_30460" data-name="パス 30460" d="M483.3,58.655c-11.2,0-20.311-9.471-20.311-21.112s9.112-21.111,20.311-21.111a19.571,19.571,0,0,1,6.961,1.273,1.184,1.184,0,0,1,.673,1.5,1.115,1.115,0,0,1-1.445.7,17.417,17.417,0,0,0-6.189-1.131c-9.956,0-18.056,8.419-18.056,18.768s8.1,18.769,18.056,18.769,18.056-8.42,18.056-18.769a19.656,19.656,0,0,0-.385-3.874,1.172,1.172,0,0,1,.873-1.387,1.129,1.129,0,0,1,1.334.906,22.108,22.108,0,0,1,.432,4.354c0,11.641-9.112,21.112-20.311,21.112" transform="translate(-462.994 -8.872)" fill="#575b64"/>
        <path id="パス_30461" data-name="パス 30461" d="M492.174,58.48c-5.049,0-8.857-8.82-8.857-20.516s3.808-20.516,8.857-20.516,8.858,8.82,8.858,20.516-3.808,20.516-8.858,20.516m0-38.688c-3.123,0-6.6,7.463-6.6,18.172s3.48,18.172,6.6,18.172,6.6-7.463,6.6-18.172-3.481-18.172-6.6-18.172" transform="translate(-471.864 -9.293)" fill="#575b64"/>
        <path id="パス_30462" data-name="パス 30462" d="M500.959,52.815H464.882a1.172,1.172,0,0,1,0-2.343h36.077a1.172,1.172,0,0,1,0,2.343" transform="translate(-463.326 -22.972)" fill="#575b64"/>
        <path id="パス_30463" data-name="パス 30463" d="M524.1,29.205A12.617,12.617,0,0,1,511.75,16.366a12.361,12.361,0,1,1,24.7,0A12.617,12.617,0,0,1,524.1,29.205m0-23.336a10.315,10.315,0,0,0-10.1,10.5,10.105,10.105,0,1,0,20.2,0,10.315,10.315,0,0,0-10.1-10.5" transform="translate(-484.273 -3.526)" fill="#575b64"/>
        <path id="パス_30464" data-name="パス 30464" d="M530.271,28.345V26.269a5.6,5.6,0,0,1-3.026-.9l.474-1.378a5.124,5.124,0,0,0,2.848.885,2.105,2.105,0,0,0,2.353-2.015c0-1.131-.771-1.829-2.235-2.446-2.016-.822-3.262-1.768-3.262-3.556a3.322,3.322,0,0,1,2.986-3.31V11.468h1.226v2a5.094,5.094,0,0,1,2.57.72l-.494,1.356a4.634,4.634,0,0,0-2.491-.7c-1.524,0-2.1.946-2.1,1.768,0,1.068.732,1.6,2.453,2.343,2.038.863,3.065,1.932,3.065,3.761a3.527,3.527,0,0,1-3.123,3.5v2.137Z" transform="translate(-491.036 -6.816)" fill="#575b64"/>
      </g>
      <g id="グループ_6018" data-name="グループ 6018" transform="translate(164.881 64.662)">
        <path id="パス_30465" data-name="パス 30465" d="M351.779,182.661l-10.806-3.17c-.777-.228-1.251.252-1.05,1.064l2.76,11.312c.2.812.835,1,1.412.413l1.883-1.9L351.251,196a1.434,1.434,0,0,0,2.076.03l2.174-2.2a1.572,1.572,0,0,0,.029-2.156l-5.272-5.629,1.882-1.906a.814.814,0,0,0-.361-1.479" transform="translate(-323.148 -158.746)" fill="gold"/>
        <path id="パス_30466" data-name="パス 30466" d="M351.432,196.809h0a2.533,2.533,0,0,1-1.86-.812l-4.488-4.791-1.076,1.088a2.036,2.036,0,0,1-1.465.673,1.947,1.947,0,0,1-1.825-1.637l-2.761-11.313a2.185,2.185,0,0,1,.3-1.863,1.931,1.931,0,0,1,2.144-.617l10.806,3.17a2.026,2.026,0,0,1,1.475,1.444,2.119,2.119,0,0,1-.635,2l-1.075,1.089,4.487,4.79a2.777,2.777,0,0,1-.051,3.814l-2.173,2.2a2.53,2.53,0,0,1-1.809.762m-6.326-8.432a1.1,1.1,0,0,1,.808.354l5.273,5.629a.335.335,0,0,0,.246.105.33.33,0,0,0,.236-.1l2.174-2.2a.365.365,0,0,0,.1-.25.357.357,0,0,0-.093-.248l-5.274-5.631a1.2,1.2,0,0,1,.021-1.656l1.536-1.556-9.872-2.9,2.522,10.334,1.536-1.555a1.1,1.1,0,0,1,.786-.332" transform="translate(-322.275 -157.921)" fill="#575b64"/>
        <path id="パス_30467" data-name="パス 30467" d="M327.188,182H311.32a1.15,1.15,0,0,1-1.127-1.172V145.289a1.15,1.15,0,0,1,1.127-1.172h27.91a1.15,1.15,0,0,1,1.127,1.172v18.457a1.128,1.128,0,1,1-2.254,0V146.46H312.447v33.193h14.741a1.172,1.172,0,0,1,0,2.343" transform="translate(-310.193 -144.117)" fill="#575b64"/>
        <path id="パス_30468" data-name="パス 30468" d="M337.817,161.98H322.445a1.172,1.172,0,0,1,0-2.343h15.372a1.172,1.172,0,0,1,0,2.343" transform="translate(-315.048 -150.546)" fill="#575b64"/>
        <path id="パス_30469" data-name="パス 30469" d="M337.817,169.974H322.445a1.172,1.172,0,0,1,0-2.343h15.372a1.172,1.172,0,0,1,0,2.343" transform="translate(-315.048 -153.857)" fill="#575b64"/>
      </g>
      <g id="グループ_6024" data-name="グループ 6024" transform="translate(386.448 204.064)">
        <path id="パス_30470" data-name="パス 30470" d="M751.179,323.021a5.473,5.473,0,1,1-5.469-5.686,5.581,5.581,0,0,1,5.469,5.686" transform="translate(-716.473 -315.923)" fill="#89d9ff"/>
        <path id="パス_30471" data-name="パス 30471" d="M745.069,329.529a7.1,7.1,0,1,1,6.827-7.1,6.974,6.974,0,0,1-6.827,7.1m0-11.37a4.277,4.277,0,1,0,4.111,4.274,4.2,4.2,0,0,0-4.111-4.274" transform="translate(-715.831 -315.335)" fill="#575b64"/>
        <path id="パス_30472" data-name="パス 30472" d="M710.257,371.764a5.218,5.218,0,1,1,5.016-5.213,5.123,5.123,0,0,1-5.016,5.213m0-7.605a2.393,2.393,0,1,0,2.3,2.392,2.351,2.351,0,0,0-2.3-2.392" transform="translate(-705.241 -328.866)" fill="#575b64"/>
        <path id="パス_30473" data-name="パス 30473" d="M745.925,371.764a5.218,5.218,0,1,1,5.016-5.213,5.124,5.124,0,0,1-5.016,5.213m0-7.605a2.393,2.393,0,1,0,2.3,2.392,2.351,2.351,0,0,0-2.3-2.392" transform="translate(-716.687 -328.866)" fill="#575b64"/>
        <path id="パス_30474" data-name="パス 30474" d="M782.925,372.764a5.218,5.218,0,1,1,5.016-5.213,5.124,5.124,0,0,1-5.016,5.213m0-7.606a2.393,2.393,0,1,0,2.3,2.392,2.351,2.351,0,0,0-2.3-2.392" transform="translate(-728.561 -329.16)" fill="#575b64"/>
        <path id="パス_30475" data-name="パス 30475" d="M760.666,359.86a1.386,1.386,0,0,1-1.358-1.412v-8.9h-46.63v8.9a1.359,1.359,0,1,1-2.716,0V348.134a1.385,1.385,0,0,1,1.358-1.412h49.346a1.386,1.386,0,0,1,1.358,1.412v10.315a1.386,1.386,0,0,1-1.358,1.412" transform="translate(-706.756 -324.567)" fill="#575b64"/>
        <path id="パス_30476" data-name="パス 30476" d="M747.986,356.33a1.386,1.386,0,0,1-1.358-1.412V336.134a1.359,1.359,0,1,1,2.716,0v18.785a1.386,1.386,0,0,1-1.358,1.412" transform="translate(-718.523 -321.038)" fill="#575b64"/>
      </g>
      <path id="パス_30477" data-name="パス 30477" d="M416.5,30.884a1.1,1.1,0,0,1-.82-.346l-9.4-9.915a1.222,1.222,0,0,1-.091-.107l-3.2-3.377A8.426,8.426,0,0,1,400.7,11.31a8.428,8.428,0,0,1,2.284-5.828,7.482,7.482,0,0,1,10.994,0l2.5,2.643,2.5-2.643a7.483,7.483,0,0,1,10.995,0,8.422,8.422,0,0,1,2.285,5.828,8.423,8.423,0,0,1-2.285,5.828L417.326,30.5a1.144,1.144,0,0,1-.774.385l-.057,0M407.952,19l8.529,9L428.4,15.419a6.041,6.041,0,0,0,0-8.218,5.333,5.333,0,0,0-7.829,0l-3.293,3.478a1.075,1.075,0,0,1-1.583,0L412.4,7.2a5.333,5.333,0,0,0-7.829,0,6.042,6.042,0,0,0,0,8.218l3.3,3.478a1.208,1.208,0,0,1,.09.107" transform="translate(-174.882 -3.076)" fill="#575b64"/>
      <path id="パス_30478" data-name="パス 30478" d="M891.827,239.064A1.094,1.094,0,0,1,891,238.7l0,0-7.033-7.416a1.035,1.035,0,0,1-.081-.094l-2.387-2.519a6.752,6.752,0,0,1,0-9.172,5.88,5.88,0,0,1,8.641,0l1.68,1.773L893.5,219.5a5.882,5.882,0,0,1,8.642,0,6.749,6.749,0,0,1,0,9.172l-9.487,10.017a1.135,1.135,0,0,1-.76.377l-.064,0m-6.2-9.414,6.187,6.525,8.737-9.227a4.212,4.212,0,0,0,0-5.734,3.732,3.732,0,0,0-5.476,0l-2.47,2.609a1.075,1.075,0,0,1-1.583,0l-2.471-2.609a3.731,3.731,0,0,0-5.476,0,4.215,4.215,0,0,0,0,5.734l2.471,2.608a1.209,1.209,0,0,1,.079.094" transform="translate(-383.936 -88.13)" fill="#575b64"/>
      <g id="グループ_6017" data-name="グループ 6017" transform="translate(226.588 227.815)">
        <path id="パス_30479" data-name="パス 30479" d="M380.737,269.544a1.138,1.138,0,0,1-1.1-.922,1.173,1.173,0,0,1,.861-1.395,11.964,11.964,0,0,0,8.932-9.285,1.129,1.129,0,0,1,1.342-.9,1.173,1.173,0,0,1,.861,1.395,14.272,14.272,0,0,1-10.654,11.075,1.1,1.1,0,0,1-.241.027" transform="translate(-358.099 -234.837)" fill="#575b64"/>
        <path id="パス_30480" data-name="パス 30480" d="M351.34,241.654a1.1,1.1,0,0,1-.241-.027,1.173,1.173,0,0,1-.861-1.395,14.265,14.265,0,0,1,10.655-11.073,1.129,1.129,0,0,1,1.341.9,1.172,1.172,0,0,1-.862,1.394,11.959,11.959,0,0,0-8.932,9.283,1.138,1.138,0,0,1-1.1.922" transform="translate(-345.268 -223.286)" fill="#575b64"/>
        <path id="パス_30481" data-name="パス 30481" d="M363.454,235.28a1.085,1.085,0,0,1-.485-.115,1.192,1.192,0,0,1-.531-1.562l2.134-4.646-4.774-1.374a1.177,1.177,0,0,1-.786-1.442,1.121,1.121,0,0,1,1.387-.816l6.07,1.747a1.14,1.14,0,0,1,.725.643,1.211,1.211,0,0,1-.008.991l-2.714,5.907a1.124,1.124,0,0,1-1.018.667" transform="translate(-349.091 -221.691)" fill="#575b64"/>
        <path id="パス_30482" data-name="パス 30482" d="M385.37,275.14a1.092,1.092,0,0,1-.291-.04l-6.085-1.688a1.138,1.138,0,0,1-.731-.637,1.216,1.216,0,0,1,0-.991l2.66-5.933a1.109,1.109,0,0,1,1.5-.567,1.192,1.192,0,0,1,.546,1.557l-2.092,4.666,4.786,1.327a1.177,1.177,0,0,1,.8,1.434,1.135,1.135,0,0,1-1.088.87" transform="translate(-357.464 -238.215)" fill="#575b64"/>
        <path id="パス_30483" data-name="パス 30483" d="M387.322,238.575a31.625,31.625,0,0,1-7.592-.885,1.152,1.152,0,0,1-.841-.9,8.617,8.617,0,0,1,4.067-9.134,5.953,5.953,0,0,1-.759-2.922,5.144,5.144,0,1,1,10.25,0,5.954,5.954,0,0,1-.759,2.924,8.622,8.622,0,0,1,4.067,9.132,1.151,1.151,0,0,1-.841.9,31.622,31.622,0,0,1-7.591.885m-6.331-2.993a31.173,31.173,0,0,0,12.659,0q.02-.25.02-.5a6.3,6.3,0,0,0-4.138-5.875,1.16,1.16,0,0,1-.73-.875,1.2,1.2,0,0,1,.351-1.1,3.411,3.411,0,0,0,1.039-2.492,2.892,2.892,0,1,0-5.742,0,3.421,3.421,0,0,0,1.039,2.493,1.2,1.2,0,0,1,.349,1.1,1.159,1.159,0,0,1-.73.874,6.3,6.3,0,0,0-4.138,5.875c0,.169.007.336.02.5" transform="translate(-357.709 -219.151)" fill="#575b64"/>
        <path id="パス_30484" data-name="パス 30484" d="M350.043,273.2a31.617,31.617,0,0,1-7.592-.886,1.151,1.151,0,0,1-.841-.9,8.621,8.621,0,0,1,4.067-9.131,5.957,5.957,0,0,1-.759-2.923,5.145,5.145,0,1,1,10.252,0,5.949,5.949,0,0,1-.76,2.924,8.629,8.629,0,0,1,4.067,9.133,1.151,1.151,0,0,1-.841.9,31.616,31.616,0,0,1-7.592.886m-6.329-2.993a31.131,31.131,0,0,0,12.659,0q.019-.249.02-.5a6.3,6.3,0,0,0-4.137-5.875,1.156,1.156,0,0,1-.73-.875,1.2,1.2,0,0,1,.349-1.1,3.414,3.414,0,0,0,1.041-2.492,2.893,2.893,0,1,0-5.743,0,3.423,3.423,0,0,0,1.039,2.494,1.2,1.2,0,0,1,.349,1.1,1.16,1.16,0,0,1-.73.873,6.3,6.3,0,0,0-4.137,5.875q0,.253.02.5" transform="translate(-341.439 -233.494)" fill="#575b64"/>
      </g>
      <path id="パス_30493" data-name="パス 30493" d="M636.574,132.1c-8.816,0-15.987-7.681-15.987-17.121s7.171-17.12,15.987-17.12a15.18,15.18,0,0,1,8.077,2.342,1.256,1.256,0,0,1,.4,1.651,1.087,1.087,0,0,1-1.542.432,13.039,13.039,0,0,0-6.937-2.01c-7.573,0-13.733,6.6-13.733,14.706S629,129.69,636.574,129.69s13.733-6.6,13.733-14.707a15.733,15.733,0,0,0-.479-3.865,1.22,1.22,0,0,1,.792-1.482,1.121,1.121,0,0,1,1.383.849,18.31,18.31,0,0,1,.558,4.5c0,9.44-7.171,17.121-15.987,17.121" transform="translate(-346.816 -46.875)" fill="#575b64"/>
      <path id="パス_30494" data-name="パス 30494" d="M644.352,119.9a1.1,1.1,0,0,1-.852-.416l-6.549-8.093a1.268,1.268,0,0,1,.114-1.7,1.076,1.076,0,0,1,1.59.122l5.657,6.991,16.282-22.053a1.077,1.077,0,0,1,1.583-.2,1.266,1.266,0,0,1,.185,1.7l-17.127,23.2a1.1,1.1,0,0,1-.858.459h-.025" transform="translate(-353.838 -45.458)" fill="#575b64"/>
      <path id="パス_30503" data-name="パス 30503" d="M433.44,205.155a5.084,5.084,0,1,1-5.072-5.432,5.261,5.261,0,0,1,5.072,5.432" transform="translate(-184.743 -81.04)" fill="#fff"/>
    </g>
  </g>
</svg>
