<svg id="グループ_5737" data-name="グループ 5737" xmlns="http://www.w3.org/2000/svg" xmlns:xlink="http://www.w3.org/1999/xlink" width="476.705" height="34.344" viewBox="0 0 476.705 34.344">
  <defs>
    <linearGradient id="linear-gradient" x1="0.007" y1="0.864" x2="0.995" y2="0.227" gradientUnits="objectBoundingBox">
      <stop offset="0" stop-color="gold"/>
      <stop offset="0.091" stop-color="#ffd208"/>
      <stop offset="0.182" stop-color="#ffc322"/>
      <stop offset="0.273" stop-color="#ffac42"/>
      <stop offset="0.364" stop-color="#ff906a"/>
      <stop offset="0.455" stop-color="#ff7a96"/>
      <stop offset="0.545" stop-color="#ff74c2"/>
      <stop offset="0.636" stop-color="#f87de5"/>
      <stop offset="0.727" stop-color="#c489fa"/>
      <stop offset="0.818" stop-color="#8f91ff"/>
      <stop offset="0.909" stop-color="#6395ff"/>
      <stop offset="1" stop-color="#5096ff"/>
    </linearGradient>
    <clipPath id="clip-path">
      <rect id="長方形_10115" data-name="長方形 10115" width="476.705" height="34.344" fill="url(#linear-gradient)"/>
    </clipPath>
    <clipPath id="clip-path-2">
      <rect id="長方形_10114" data-name="長方形 10114" width="476.705" height="34.344" transform="translate(0 0)" fill="url(#linear-gradient)"/>
    </clipPath>
    <clipPath id="clip-path-3">
      <rect id="長方形_10101" data-name="長方形 10101" width="474.678" height="28.078" transform="translate(1.885 1.959)" fill="url(#linear-gradient)"/>
    </clipPath>
    <clipPath id="clip-path-4">
      <path id="パス_11067" data-name="パス 11067" d="M9.486,30.036c23.691-.928,47.374-2.142,71.056-3.262q81.222-3.844,162.445-7.642Q322.346,15.4,401.708,11.7c17.328-.807,34.653-1.663,51.981-2.456,7.617-.348,15.266-.525,22.874-1.044a1.629,1.629,0,0,0-.736-.835q-1.608-1.278-3.266-2.488c-1.056-.779-2.917-2.646-4.355-2.846a30.738,30.738,0,0,0-5.347.209c-4.968.225-9.946.271-14.916.456-6.987.261-13.932.8-20.907,1.249-9.915.635-19.882.83-29.809,1.266q-81.138,3.565-162.262,7.463Q155.506,16.411,76.053,20.3c-10.145.509-20.334,1.345-30.492,1.35-7.134,0-14.286.607-21.407,1.031-5.4.322-10.722.657-16.131.566-2.046-.034-4.092-.08-6.138-.121a1.6,1.6,0,0,0,.639.9Q3.976,25.439,5.486,26.8q1.494,1.375,3.046,2.687a1.6,1.6,0,0,0,.954.551" fill="url(#linear-gradient)"/>
    </clipPath>
    <clipPath id="clip-path-5">
      <rect id="長方形_10103" data-name="長方形 10103" width="476.705" height="29.768" transform="translate(0 4.576)" fill="url(#linear-gradient)"/>
    </clipPath>
    <clipPath id="clip-path-6">
      <path id="パス_11068" data-name="パス 11068" d="M9.525,34.344c77.87-3.4,155.723-7.26,233.581-10.918Q322.472,19.7,401.84,15.987q25.984-1.215,51.968-2.444c7.62-.353,15.287-.505,22.9-1.068a2.419,2.419,0,0,0-.947-1q-2.006-1.6-4.063-3.128-2.045-1.551-4.138-3.03a2.419,2.419,0,0,0-1.229-.629c-1.642-.3-3.67.124-5.341.2-4.964.222-9.939.253-14.9.434-6.994.256-13.94.818-20.921,1.275-9.91.649-19.879.821-29.8,1.255Q314.223,11.39,233.1,15.3q-79.462,3.734-158.92,7.631c-10.141.512-20.33,1.366-30.484,1.339-7.135-.019-14.294.605-21.415,1.04-5.4.329-10.7.675-16.107.536-2.059-.054-4.118-.125-6.177-.194a2.388,2.388,0,0,0,.84,1.084q1.832,1.774,3.723,3.483,1.873,1.728,3.806,3.392a2.387,2.387,0,0,0,1.156.738" fill="url(#linear-gradient)"/>
    </clipPath>
    <clipPath id="clip-path-7">
      <rect id="長方形_10105" data-name="長方形 10105" width="473.223" height="26.809" transform="translate(2.038 1.557)" fill="url(#linear-gradient)"/>
    </clipPath>
    <clipPath id="clip-path-8">
      <path id="パス_11069" data-name="パス 11069" d="M8.221,28.365c23.683-.816,47.356-2.076,71.026-3.2q81.228-3.864,162.458-7.652,79.354-3.726,158.711-7.418c17.331-.8,34.659-1.678,51.991-2.465,7.612-.346,15.25-.526,22.854-1.026a1.161,1.161,0,0,0-.582-.716q-.924-.749-1.886-1.448-1.186-.893-2.4-1.748a9.426,9.426,0,0,0-1.744-1.1,26.513,26.513,0,0,0-3.518.1c-4.3.2-8.608.275-12.913.427-7.364.261-14.708.615-22.057,1.153-9.679.709-19.41.907-29.105,1.332q-80.5,3.535-160.988,7.406-80.016,3.755-160.026,7.643C69.584,20.174,59.1,20.971,48.626,21.2c-4.761.1-9.494.213-14.254.462-3.349.176-6.7.374-10.044.569-5.4.314-10.75.659-16.157.6-2.044-.022-4.089-.055-6.133-.086a1.134,1.134,0,0,0,.491.763q1.171,1.166,2.4,2.268c.539.49,2.326,2.625,3.29,2.592" fill="url(#linear-gradient)"/>
    </clipPath>
    <clipPath id="clip-path-9">
      <rect id="長方形_10107" data-name="長方形 10107" width="473.959" height="27.482" transform="translate(0.73 3.085)" fill="url(#linear-gradient)"/>
    </clipPath>
    <clipPath id="clip-path-10">
      <path id="パス_11070" data-name="パス 11070" d="M7.633,30.567C31.319,29.694,55,28.459,78.672,27.336q81.225-3.849,162.452-7.647,79.356-3.724,158.715-7.422c17.33-.805,34.657-1.669,51.987-2.461,7.613-.348,15.259-.514,22.863-1.035a1.387,1.387,0,0,0-.66-.777q-1.463-1.17-2.978-2.271c-.972-.716-2.666-2.409-3.991-2.571a33.188,33.188,0,0,0-5.349.213c-4.969.226-9.949.278-14.92.465-6.984.262-13.928.8-20.9,1.238-9.917.63-19.882.834-29.81,1.271q-81.14,3.576-162.265,7.469Q154.356,17.539,74.9,21.417c-10.146.507-20.336,1.336-30.495,1.355-7.134.013-14.284.607-21.4,1.027-5.406.319-10.731.657-16.142.581-2.045-.029-4.089-.069-6.134-.1a1.358,1.358,0,0,0,.566.832q1.312,1.3,2.686,2.533,1.356,1.252,2.77,2.44a1.359,1.359,0,0,0,.881.486" fill="url(#linear-gradient)"/>
    </clipPath>
    <clipPath id="clip-path-11">
      <rect id="長方形_10109" data-name="長方形 10109" width="472.408" height="26.14" transform="translate(2.431 0.997)" fill="url(#linear-gradient)"/>
    </clipPath>
    <clipPath id="clip-path-12">
      <path id="パス_11071" data-name="パス 11071" d="M7.815,27.136c23.679-.7,47.351-2.047,71.013-3.173q81.231-3.868,162.464-7.658Q320.643,12.579,400,8.891c17.333-.8,34.663-1.689,52-2.469,7.61-.342,15.243-.528,22.845-1.019a.943.943,0,0,0-.495-.65q-.807-.658-1.651-1.268-1.041-.781-2.108-1.524a7.218,7.218,0,0,0-1.541-.944,32.485,32.485,0,0,0-3.5.126c-4.3.2-8.612.285-12.918.441-7.361.267-14.7.616-22.052,1.142-9.681.694-19.41.908-29.106,1.335q-80.5,3.552-160.994,7.417-80.013,3.755-160.02,7.632c-10.46.517-20.948,1.3-31.42,1.543-4.76.11-9.495.223-14.253.47-3.347.174-6.693.368-10.039.559-5.4.309-10.766.666-16.178.629-2.044-.014-4.089-.046-6.133-.066a.907.907,0,0,0,.407.686Q3.85,23.952,4.924,24.91c.516.469,2,2.253,2.891,2.226" fill="url(#linear-gradient)"/>
    </clipPath>
    <clipPath id="clip-path-13">
      <rect id="長方形_10111" data-name="長方形 10111" width="475.563" height="28.826" transform="translate(0.197 4.012)" fill="url(#linear-gradient)"/>
    </clipPath>
    <clipPath id="clip-path-14">
      <path id="パス_11072" data-name="パス 11072" d="M8.645,32.838C86.5,29.487,164.333,25.575,242.173,21.919q79.363-3.726,158.728-7.431,25.988-1.214,51.975-2.451c7.615-.351,15.28-.488,22.884-1.056a1.949,1.949,0,0,0-.828-.908q-1.781-1.419-3.614-2.768Q469.5,5.936,467.63,4.637a1.955,1.955,0,0,0-1.108-.532,27.634,27.634,0,0,0-5.345.2c-4.966.223-9.942.262-14.911.446-6.99.258-13.935.81-20.913,1.261-9.913.641-19.881.826-29.806,1.261Q314.41,10.83,233.288,14.732q-79.461,3.735-158.916,7.624c-10.143.51-20.332,1.354-30.488,1.344-7.135-.007-14.29.606-21.411,1.035-5.4.326-10.712.667-16.118.552C4.3,25.243,2.25,25.18.2,25.13a1.93,1.93,0,0,0,.728.981q1.618,1.578,3.3,3.092,1.662,1.533,3.38,3a1.929,1.929,0,0,0,1.044.635" fill="url(#linear-gradient)"/>
    </clipPath>
    <clipPath id="clip-path-15">
      <rect id="長方形_10113" data-name="長方形 10113" width="472.009" height="25.884" transform="translate(3.327 0)" fill="url(#linear-gradient)"/>
    </clipPath>
    <clipPath id="clip-path-16">
      <path id="パス_11073" data-name="パス 11073" d="M8.372,25.884c23.659-.831,47.309-2.088,70.955-3.214q81.232-3.867,162.466-7.658Q321.145,11.285,400.5,7.6c17.334-.8,34.664-1.693,52-2.47,7.61-.341,15.236-.55,22.84-1.017a.85.85,0,0,0-.454-.618q-.753-.618-1.544-1.186-.974-.731-1.973-1.421a6.36,6.36,0,0,0-1.448-.872c-1.153-.062-2.34.083-3.493.137-3.691.171-7.385.245-11.078.381-6.989.256-13.971.5-20.947,1-9.5.673-19.026.973-28.542,1.391q-77.33,3.4-154.644,7.115-79.094,3.7-158.182,7.514-16.664.813-33.324,1.661c-6.155.322-12.32.325-18.475.644q-6.649.344-13.3.71c-8.213.465-16.383.779-24.608.744a.824.824,0,0,0,.371.653q.947.959,1.953,1.855c.5.454,1.866,2.1,2.721,2.069" fill="url(#linear-gradient)"/>
    </clipPath>
  </defs>
  <g id="グループ_5736" data-name="グループ 5736" clip-path="url(#clip-path)">
    <g id="グループ_5735" data-name="グループ 5735">
      <g id="グループ_5734" data-name="グループ 5734" clip-path="url(#clip-path-2)">
        <g id="グループ_5703" data-name="グループ 5703" opacity="0.18">
          <g id="グループ_5702" data-name="グループ 5702">
            <g id="グループ_5701" data-name="グループ 5701" clip-path="url(#clip-path-3)">
              <g id="グループ_5700" data-name="グループ 5700">
                <g id="グループ_5699" data-name="グループ 5699" clip-path="url(#clip-path-4)">
                  <rect id="長方形_10100" data-name="長方形 10100" width="474.678" height="28.235" transform="translate(1.885 1.801)" fill="url(#linear-gradient)"/>
                </g>
              </g>
            </g>
          </g>
        </g>
        <g id="グループ_5708" data-name="グループ 5708" opacity="0.18">
          <g id="グループ_5707" data-name="グループ 5707">
            <g id="グループ_5706" data-name="グループ 5706" clip-path="url(#clip-path-5)">
              <g id="グループ_5705" data-name="グループ 5705">
                <g id="グループ_5704" data-name="グループ 5704" clip-path="url(#clip-path-6)">
                  <rect id="長方形_10102" data-name="長方形 10102" width="476.705" height="29.965" transform="translate(0 4.379)" fill="url(#linear-gradient)"/>
                </g>
              </g>
            </g>
          </g>
        </g>
        <g id="グループ_5713" data-name="グループ 5713" opacity="0.18">
          <g id="グループ_5712" data-name="グループ 5712">
            <g id="グループ_5711" data-name="グループ 5711" clip-path="url(#clip-path-7)">
              <g id="グループ_5710" data-name="グループ 5710">
                <g id="グループ_5709" data-name="グループ 5709" clip-path="url(#clip-path-8)">
                  <rect id="長方形_10104" data-name="長方形 10104" width="473.223" height="26.91" transform="translate(2.038 1.488)" fill="url(#linear-gradient)"/>
                </g>
              </g>
            </g>
          </g>
        </g>
        <g id="グループ_5718" data-name="グループ 5718" opacity="0.18">
          <g id="グループ_5717" data-name="グループ 5717">
            <g id="グループ_5716" data-name="グループ 5716" clip-path="url(#clip-path-9)">
              <g id="グループ_5715" data-name="グループ 5715">
                <g id="グループ_5714" data-name="グループ 5714" clip-path="url(#clip-path-10)">
                  <rect id="長方形_10106" data-name="長方形 10106" width="473.959" height="27.625" transform="translate(0.73 2.942)" fill="url(#linear-gradient)"/>
                </g>
              </g>
            </g>
          </g>
        </g>
        <g id="グループ_5723" data-name="グループ 5723" opacity="0.18">
          <g id="グループ_5722" data-name="グループ 5722">
            <g id="グループ_5721" data-name="グループ 5721" clip-path="url(#clip-path-11)">
              <g id="グループ_5720" data-name="グループ 5720">
                <g id="グループ_5719" data-name="グループ 5719" clip-path="url(#clip-path-12)">
                  <rect id="長方形_10108" data-name="長方形 10108" width="472.408" height="26.219" transform="translate(2.431 0.944)" fill="url(#linear-gradient)"/>
                </g>
              </g>
            </g>
          </g>
        </g>
        <g id="グループ_5728" data-name="グループ 5728" opacity="0.18">
          <g id="グループ_5727" data-name="グループ 5727">
            <g id="グループ_5726" data-name="グループ 5726" clip-path="url(#clip-path-13)">
              <g id="グループ_5725" data-name="グループ 5725">
                <g id="グループ_5724" data-name="グループ 5724" clip-path="url(#clip-path-14)">
                  <rect id="長方形_10110" data-name="長方形 10110" width="475.563" height="29.004" transform="translate(0.197 3.834)" fill="url(#linear-gradient)"/>
                </g>
              </g>
            </g>
          </g>
        </g>
        <g id="グループ_5733" data-name="グループ 5733" opacity="0.18">
          <g id="グループ_5732" data-name="グループ 5732">
            <g id="グループ_5731" data-name="グループ 5731" clip-path="url(#clip-path-15)">
              <g id="グループ_5730" data-name="グループ 5730">
                <g id="グループ_5729" data-name="グループ 5729" clip-path="url(#clip-path-16)">
                  <rect id="長方形_10112" data-name="長方形 10112" width="472.009" height="25.961" transform="translate(3.327 -0.047)" fill="url(#linear-gradient)"/>
                </g>
              </g>
            </g>
          </g>
        </g>
      </g>
    </g>
  </g>
</svg>
