<svg xmlns="http://www.w3.org/2000/svg" width="130" height="130.177" viewBox="0 0 130 130.177">
  <g id="グループ_5636" data-name="グループ 5636" transform="translate(-2520.091 -3616.091)">
    <g id="Consumer_behaviour" data-name="Consumer behaviour" transform="translate(2520.091 3616.091)">
      <path id="パス_4360" data-name="パス 4360" d="M344.42,400.6c9.948-10.067-9.116-27.723-4.231-41.194,7.75-21.375,57.413-35.051,91.77-15.194,28.772,16.629,38.762,54.06,26.193,69.189-3.762,4.528-8.443,5.732-14.592,10.468-5.719,4.405-6.364,5.529-6.776,6.3-4.068,7.565,4.488,14.2,2.766,20.692-2.72,10.251-29.925,15.721-52.675,12.251-6.135-.936-37.223-6.376-48.658-28.981-.885-1.749-9.257-18.643-1.379-28.042C339.569,402.83,341.767,403.287,344.42,400.6Z" transform="translate(-333.488 -334.575)" fill="#caddff"/>
      <g id="グループ_3298" data-name="グループ 3298" transform="translate(55.596 14.733)">
        <g id="グループ_3296" data-name="グループ 3296" transform="translate(0 0)">
          <path id="パス_4361" data-name="パス 4361" d="M1128.719,560.321l1.654-.7-.344-1.929a7.436,7.436,0,0,0,.989-.765l1.781.811,1.084-1.429-1.263-1.5a7.532,7.532,0,0,0,.471-1.156l1.951-.189.224-1.78-1.84-.666a7.431,7.431,0,0,0-.172-1.238l1.594-1.138-.7-1.654-1.929.344a7.423,7.423,0,0,0-.765-.988l.81-1.781-1.429-1.084-1.5,1.262a7.541,7.541,0,0,0-1.156-.471l-.189-1.95-1.78-.224-.666,1.84a7.446,7.446,0,0,0-1.238.172l-1.139-1.594-1.653.7.344,1.929a7.414,7.414,0,0,0-.989.765l-1.781-.811-1.084,1.429,1.262,1.5a7.516,7.516,0,0,0-.471,1.156l-1.951.189-.224,1.78,1.84.666a7.425,7.425,0,0,0,.172,1.238l-1.595,1.139.7,1.653,1.929-.344a7.421,7.421,0,0,0,.765.989l-.811,1.781,1.429,1.084,1.5-1.263a7.541,7.541,0,0,0,1.156.471l.189,1.951,1.78.224.666-1.84a7.419,7.419,0,0,0,1.238-.172Zm-7.028-7.111a4.618,4.618,0,1,1,6.047,2.466A4.618,4.618,0,0,1,1121.691,553.21Z" transform="translate(-1116.628 -542.1)" fill="#99b9ff"/>
        </g>
        <g id="グループ_3297" data-name="グループ 3297" transform="translate(11.755 13.663)">
          <path id="パス_4362" data-name="パス 4362" d="M1305.073,769.02l3.127-1.316-.65-3.648a14.035,14.035,0,0,0,1.869-1.446l3.368,1.533,2.05-2.7-2.387-2.834a14.175,14.175,0,0,0,.891-2.186l3.689-.357.424-3.365-3.48-1.259a14.03,14.03,0,0,0-.325-2.341l3.015-2.153-1.315-3.127-3.647.65a14.083,14.083,0,0,0-1.446-1.869l1.532-3.368-2.7-2.05-2.834,2.387a14.244,14.244,0,0,0-2.186-.891l-.357-3.688-3.365-.424-1.259,3.48a14.047,14.047,0,0,0-2.341.326l-2.153-3.015-3.127,1.316.65,3.647a14.1,14.1,0,0,0-1.869,1.446l-3.368-1.533-2.05,2.7,2.387,2.834a14.23,14.23,0,0,0-.891,2.186l-3.688.357-.424,3.366,3.48,1.259a14.026,14.026,0,0,0,.325,2.341L1283,757.43l1.315,3.127,3.647-.65a14.057,14.057,0,0,0,1.446,1.87l-1.533,3.368,2.7,2.05,2.834-2.387a14.232,14.232,0,0,0,2.186.891l.357,3.688,3.365.424,1.259-3.48a14.069,14.069,0,0,0,2.341-.325Zm-13.291-13.446a8.732,8.732,0,1,1,11.435,4.662A8.732,8.732,0,0,1,1291.782,755.574Z" transform="translate(-1282.208 -734.565)" fill="#99b9ff"/>
        </g>
      </g>
      <g id="グループ_3305" data-name="グループ 3305" transform="translate(41.43 35.659)">
        <path id="パス_4363" data-name="パス 4363" d="M946.164,837.193a7.234,7.234,0,0,1,1.56.652c5.49,3.1,2.035,10.287,4.659,14.941,2.25,3.99,1.055,7.142-1.942,10.3-1.734,1.829-3.362,3.349-3.892,5.913-.306,1.478-.377,3-.765,4.459-1.917,7.2-10.283,9.433-16.809,7.871a17.792,17.792,0,0,1-7.851-4.205c-2.55-2.347-5.786-6.371-2.943-9.721a9.6,9.6,0,0,1,3.5-2.374c2.26-1.01,6.138-2.045,6.873-4.8.553-2.075-1.039-4.25.111-6.267.9-1.577,2.924-2.057,3.892-3.6.836-1.328.515-3.038.619-4.6C933.554,840.133,940.74,835.632,946.164,837.193Z" transform="translate(-917.075 -836.88)"/>
        <g id="グループ_3299" data-name="グループ 3299" transform="translate(4.798 30.721)">
          <path id="パス_4364" data-name="パス 4364" d="M990.339,1330.741c-1.885-.279-2.035-9.027-2.335-26.523a257.769,257.769,0,0,1,1.36-31.278,15.184,15.184,0,0,1,7.512,3.448C1011.127,1289.072,994.671,1331.383,990.339,1330.741Z" transform="translate(-987.731 -1272.705)" fill="#fff"/>
          <path id="パス_4365" data-name="パス 4365" d="M987.359,1327.908a.867.867,0,0,1-.13-.01h0c-2.082-.308-2.215-8.049-2.536-26.749a258.84,258.84,0,0,1,1.361-31.309.234.234,0,0,1,.093-.163.238.238,0,0,1,.183-.044,15.322,15.322,0,0,1,7.627,3.5c5.976,5.319,6.254,15.421,5.434,22.959a85.026,85.026,0,0,1-6.947,24.988C991.473,1323.163,989.068,1327.908,987.359,1327.908Zm-.061-.475c.718.1,2.382-1.546,4.721-6.55a84.524,84.524,0,0,0,6.905-24.839c.807-7.428.547-17.371-5.279-22.557a14.752,14.752,0,0,0-7.148-3.346,258.4,258.4,0,0,0-1.333,31c.152,8.885.262,15.3.573,19.706.112,1.589.453,6.424,1.561,6.589Z" transform="translate(-984.656 -1269.63)"/>
        </g>
        <path id="パス_4366" data-name="パス 4366" d="M989.853,1621.983l8.963-40.663,15.97-.654a86.58,86.58,0,0,1,13.261,40.719Z" transform="translate(-984.686 -1527.864)"/>
        <g id="グループ_3301" data-name="グループ 3301" transform="translate(32.299 30.527)">
          <g id="グループ_3300" data-name="グループ 3300">
            <path id="パス_4367" data-name="パス 4367" d="M1383.1,1270.2l-4.483,11.114c6.281,3.276,9.607,9.481,8.423,14.709a12.205,12.205,0,0,1-6.458,8.008,14.894,14.894,0,0,1-5.227,1.065,15.8,15.8,0,0,0,3.242,5.6,18.037,18.037,0,0,1,1.269-2.16,10.043,10.043,0,0,1,5.335-3.452c.989-.357,9.772-3.682,11.989-11.92C1399.477,1284.666,1393.891,1274.238,1383.1,1270.2Z" transform="translate(-1375.12 -1269.967)" fill="#fff"/>
            <path id="パス_4368" data-name="パス 4368" d="M1375.518,1307.854a.235.235,0,0,1-.176-.079,15.96,15.96,0,0,1-3.289-5.681.235.235,0,0,1,.2-.306c.263-.031.548-.054.85-.079a11.1,11.1,0,0,0,10.634-8.813c1.187-5.244-2.3-11.32-8.3-14.449a.235.235,0,0,1-.109-.3l4.483-11.114a.235.235,0,0,1,.3-.132,23.49,23.49,0,0,1,12.07,9.908,17.364,17.364,0,0,1,2.165,13.334c-2.183,8.114-10.493,11.486-12.136,12.08a9.711,9.711,0,0,0-5.227,3.372,10.45,10.45,0,0,0-.937,1.553c-.11.212-.214.413-.319.588a.235.235,0,0,1-.18.113Zm-2.926-5.63a15.472,15.472,0,0,0,2.885,4.988c.046-.086.094-.178.144-.276a10.828,10.828,0,0,1,.978-1.619,10.152,10.152,0,0,1,5.457-3.537c.97-.351,9.66-3.7,11.828-11.756,2.378-8.836-3.646-18.72-13.731-22.6l-4.318,10.7c6.069,3.255,9.576,9.477,8.355,14.87a11.57,11.57,0,0,1-11.055,9.178C1372.947,1302.193,1372.765,1302.208,1372.592,1302.224Z" transform="translate(-1372.041 -1266.89)"/>
          </g>
        </g>
        <path id="パス_4369" data-name="パス 4369" d="M992.3,1219.583s1.643-5.1,17.288-4.8,20.037,3.952,20.037,3.952l-4.206,9.031,2.453,16.4a6.546,6.546,0,0,1-7.565,3.255c-5.3-1.353-14.576-7.119-24.445-1.108l1.538-20.045Z" transform="translate(-986.96 -1187.941)" fill="#5479f7"/>
        <path id="パス_4370" data-name="パス 4370" d="M1369.814,1705a.233.233,0,0,1-.149-.054,16.141,16.141,0,0,1-5.961-10.229,14.37,14.37,0,0,1-.122-2.247.241.241,0,0,1,.241-.23.236.236,0,0,1,.23.241,13.9,13.9,0,0,0,.118,2.174,15.673,15.673,0,0,0,5.793,9.927.235.235,0,0,1-.149.417Z" transform="translate(-1331.88 -1631.513)" fill="#fff"/>
        <g id="グループ_3304" data-name="グループ 3304" transform="translate(16.193 5.634)">
          <g id="グループ_3302" data-name="グループ 3302">
            <path id="パス_4371" data-name="パス 4371" d="M1159,939.525c-.409.219-.246-6.009.122-6.212a8.6,8.6,0,0,0,.8-.682,7.254,7.254,0,0,0,.845-1.027,10.233,10.233,0,0,0,1.414-6.722c-.109-1.011-.21-2.743-1.587-2.7a5.377,5.377,0,0,0-1.311.293c-1.394.406-3,.443-4-.773-.188-.227-1.29-1.918-1.04-2.152a8.586,8.586,0,0,0-2.368,5.2,2.578,2.578,0,0,0-.537,1.827c0,.983.3,1.792.685,1.908a8.505,8.505,0,0,0,1.874,3.944l-.587,6.894a17.238,17.238,0,0,0-4.812,1.669c4.528,1.667,9.331,1.489,14.337-.049Z" transform="translate(-1148.256 -919.318)" fill="#fff"/>
            <path id="パス_4372" data-name="パス 4372" d="M1152.148,939.342a19.527,19.527,0,0,1-6.815-1.2.235.235,0,0,1-.055-.412,16.815,16.815,0,0,1,4.728-1.665l.564-6.626a8.686,8.686,0,0,1-1.836-3.859c-.49-.287-.715-1.242-.715-2.073a2.962,2.962,0,0,1,.55-1.942A8.809,8.809,0,0,1,1151,916.3h0a.235.235,0,0,1,.359.3,7.16,7.16,0,0,0,1.024,1.875c.983,1.193,2.584,1.037,3.755.7l.208-.062a4.515,4.515,0,0,1,1.161-.24h.062c1.464,0,1.642,1.712,1.749,2.741l.018.169a10.416,10.416,0,0,1-1.453,6.879,7.512,7.512,0,0,1-.872,1.06,9.865,9.865,0,0,1-.807.7,23.331,23.331,0,0,0-.17,5.822l3.8,1.414a.235.235,0,0,1-.013.445A26.1,26.1,0,0,1,1152.148,939.342Zm-6.186-1.477a21.419,21.419,0,0,0,13.045-.019l-3.115-1.158a.3.3,0,0,1-.255-.17,14.121,14.121,0,0,1-.174-3.347c.092-2.936.353-3.08.465-3.141a9.118,9.118,0,0,0,.743-.641,7.05,7.05,0,0,0,.817-.993,9.948,9.948,0,0,0,1.375-6.564l-.018-.171c-.129-1.24-.329-2.354-1.328-2.318a4.1,4.1,0,0,0-1.04.221l-.213.063c-1.306.38-3.1.542-4.249-.849a8.511,8.511,0,0,1-1.033-1.787,8.709,8.709,0,0,0-1.96,4.717.236.236,0,0,1-.086.155,2.407,2.407,0,0,0-.45,1.644c0,.984.306,1.619.517,1.682a.235.235,0,0,1,.163.177,8.332,8.332,0,0,0,1.819,3.835.236.236,0,0,1,.059.177l-.587,6.894a.235.235,0,0,1-.177.208A22.869,22.869,0,0,0,1145.962,937.865Zm9.848-1.625h0Z" transform="translate(-1145.179 -916.24)"/>
          </g>
          <g id="グループ_3303" data-name="グループ 3303" transform="translate(5.093 12.491)">
            <path id="パス_4373" data-name="パス 4373" d="M1220.232,1095.5c1.679,2.508,4.186,2.136,6.47.411Z" transform="translate(-1219.997 -1095.263)" fill="#fff"/>
            <path id="パス_4374" data-name="パス 4374" d="M1220.177,1094.448a3.609,3.609,0,0,1-.6-.05,3.933,3.933,0,0,1-2.616-1.847.235.235,0,1,1,.391-.262,3.481,3.481,0,0,0,2.3,1.645,5.148,5.148,0,0,0,3.83-1.291.235.235,0,1,1,.284.375A6.131,6.131,0,0,1,1220.177,1094.448Z" transform="translate(-1216.92 -1092.185)"/>
          </g>
        </g>
      </g>
      <g id="グループ_3317" data-name="グループ 3317" transform="translate(0.788 41.32)">
        <g id="グループ_3310" data-name="グループ 3310" transform="translate(3.622 42.606)">
          <g id="グループ_3306" data-name="グループ 3306" transform="translate(2.313 35.374)">
            <path id="パス_4375" data-name="パス 4375" d="M431.506,2018.744l.368,3.5,2.369.278v-4.155Z" transform="translate(-431.271 -2018.136)" fill="#fff"/>
            <path id="パス_4376" data-name="パス 4376" d="M431.165,2019.685l-.027,0-2.369-.278a.235.235,0,0,1-.206-.209l-.368-3.5a.236.236,0,0,1,.2-.258l2.737-.373a.236.236,0,0,1,.267.233v4.154a.235.235,0,0,1-.235.235Zm-2.155-.724,1.92.225v-3.621l-2.244.306Z" transform="translate(-428.193 -2015.06)"/>
          </g>
          <g id="グループ_3307" data-name="グループ 3307" transform="translate(0 37.638)">
            <path id="パス_4377" data-name="パス 4377" d="M404.341,2058.258a16.535,16.535,0,0,1-4.507,0,1.059,1.059,0,0,1-.886-1.3c.418-1.7,1.14-4.927,2.377-6.423l.307.811.425-.764a.375.375,0,0,1,.281-.19l.93-.118a.376.376,0,0,1,.415.3l.148.7.324-.923,1.082,6.725A1.056,1.056,0,0,1,404.341,2058.258Z" transform="translate(-398.683 -2050.033)" fill="#5479f7"/>
            <path id="パス_4378" data-name="パス 4378" d="M399.029,2055.572a16.757,16.757,0,0,1-2.3-.157,1.295,1.295,0,0,1-1.082-1.59l.09-.367c.429-1.763,1.147-4.714,2.335-6.15a.235.235,0,0,1,.4.066l.128.338.179-.321a.613.613,0,0,1,.457-.309l.93-.118a.616.616,0,0,1,.644.378l.052-.147a.238.238,0,0,1,.243-.156.235.235,0,0,1,.211.2l1.082,6.725a1.3,1.3,0,0,1-1.1,1.456h0A16.371,16.371,0,0,1,399.029,2055.572Zm-.843-7.629a19.835,19.835,0,0,0-1.991,5.626l-.09.368a.81.81,0,0,0,.118.657.829.829,0,0,0,.572.355,16.273,16.273,0,0,0,4.442,0h0a.823.823,0,0,0,.7-.922l-.934-5.8-.017.049a.235.235,0,0,1-.452-.03l-.148-.7a.141.141,0,0,0-.156-.111l-.93.118a.14.14,0,0,0-.105.071l-.425.764a.235.235,0,0,1-.425-.031Z" transform="translate(-395.611 -2046.958)"/>
          </g>
          <path id="パス_4379" data-name="パス 4379" d="M407.845,2141.44a9.121,9.121,0,0,1-2.018-.213.235.235,0,1,1,.1-.459,10.876,10.876,0,0,0,4.727-.157.235.235,0,0,1,.129.452A11.732,11.732,0,0,1,407.845,2141.44Z" transform="translate(-404.932 -2096.315)"/>
          <path id="パス_4380" data-name="パス 4380" d="M425.612,2108.592a.235.235,0,0,1-.008-.47l2.221-.073h.008a.235.235,0,0,1,.008.47l-2.221.073Z" transform="translate(-423.264 -2066.073)"/>
          <g id="グループ_3308" data-name="グループ 3308" transform="translate(13.41 33.881)">
            <path id="パス_4381" data-name="パス 4381" d="M587.815,1997.346l.355,5.113h2.851l.133-5.113Z" transform="translate(-587.579 -1997.111)" fill="#fff"/>
            <path id="パス_4382" data-name="パス 4382" d="M587.942,1999.615h-2.851a.235.235,0,0,1-.235-.219l-.355-5.113a.235.235,0,0,1,.235-.251h3.338a.235.235,0,0,1,.235.241l-.133,5.113A.235.235,0,0,1,587.942,1999.615Zm-2.631-.47h2.4l.121-4.643h-2.845Z" transform="translate(-584.501 -1994.032)"/>
          </g>
          <g id="グループ_3309" data-name="グループ 3309" transform="translate(13.02 36.704)">
            <path id="パス_4383" data-name="パス 4383" d="M582.324,2042.274a1.029,1.029,0,0,0,.794,1.018c1.639.382,5.331,1.231,6.384,1.388a4.663,4.663,0,0,0,3.769-1.015c.722-.8-1.617-2.708-2.727-3.4-1.649-1.032-3.234-3.071-3.9-3.163s-1.9,1.836-1.9,1.836l-2.027-.852A25.09,25.09,0,0,0,582.324,2042.274Z" transform="translate(-582.088 -2036.862)" fill="#5479f7"/>
            <path id="パス_4384" data-name="パス 4384" d="M587.133,2041.9a5.043,5.043,0,0,1-.745-.054c-1.067-.159-4.833-1.026-6.4-1.391a1.272,1.272,0,0,1-.977-1.251,25.623,25.623,0,0,1,.395-4.234.235.235,0,0,1,.322-.17l1.847.776c.4-.6,1.346-1.864,2.026-1.776.389.053.88.5,1.715,1.3a15.538,15.538,0,0,0,2.276,1.9c.719.45,2.808,1.986,2.964,3.106a.783.783,0,0,1-.187.654A4.624,4.624,0,0,1,587.133,2041.9Zm-7.32-6.552a26.51,26.51,0,0,0-.334,3.864h0a.8.8,0,0,0,.613.785c1.564.364,5.315,1.227,6.365,1.384a4.465,4.465,0,0,0,3.559-.94.308.308,0,0,0,.07-.273c-.1-.753-1.663-2.095-2.748-2.773a15.839,15.839,0,0,1-2.35-1.958,5.54,5.54,0,0,0-1.455-1.171l-.022,0c-.323,0-1.106.881-1.653,1.732a.234.234,0,0,1-.289.089Zm-.569,3.86h0Z" transform="translate(-579.009 -2033.798)"/>
          </g>
          <path id="パス_4385" data-name="パス 4385" d="M596.857,2106.461a23.481,23.481,0,0,1-7.21-1.7.235.235,0,1,1,.178-.435c.072.029,7.232,2.923,9.311,1.047a.235.235,0,0,1,.315.349A3.848,3.848,0,0,1,596.857,2106.461Z" transform="translate(-575.737 -2062.594)"/>
          <path id="パス_4386" data-name="パス 4386" d="M645.524,2067.836a.236.236,0,0,1-.158-.41l1.45-1.308a.235.235,0,1,1,.315.349l-1.45,1.308A.235.235,0,0,1,645.524,2067.836Z" transform="translate(-627.564 -2027.063)"/>
          <path id="パス_4387" data-name="パス 4387" d="M401.379,1517.558s-.883,15.984-1.346,21.5,1.081,14.388,1.081,14.388l4.4-.231s.3-10.785.628-13.779a34.425,34.425,0,0,0,2.41-7.681,75.711,75.711,0,0,1,2.427-9.34s1.524,28.546,1.671,30.789c0,0,3.451.154,4.688-.625,0,0,2.192-10.409,1.877-16.072s.031-19.734.031-19.734Z" transform="translate(-399.639 -1516.775)"/>
          <path id="パス_4388" data-name="パス 4388" d="M455.133,1833.149h-1.345a.235.235,0,1,1,0-.47h1.345a.235.235,0,1,1,0,.47Z" transform="translate(-449.44 -1810.252)" fill="#fff"/>
          <path id="パス_4389" data-name="パス 4389" d="M607.7,1851.935h0a.236.236,0,0,1-.231-.24c.049-2.666,2.959-7.419,3.083-7.62a.235.235,0,1,1,.4.247c-.03.048-2.967,4.845-3.013,7.382A.235.235,0,0,1,607.7,1851.935Z" transform="translate(-592.423 -1820.736)" fill="#fff"/>
        </g>
        <g id="グループ_3314" data-name="グループ 3314" transform="translate(0 9.934)">
          <g id="グループ_3311" data-name="グループ 3311" transform="translate(22.543)">
            <path id="パス_4390" data-name="パス 4390" d="M667.289,1067.53c.32-.025,1.893,3.2,6.813,3.06s8.868-5.641,8.868-5.641a19.3,19.3,0,0,1,2.989-3.9c1.289-1.036,1.492-1.173,1.492-1.173a1.051,1.051,0,0,1,0,1.173,18.411,18.411,0,0,1-1.521,1.82,1.634,1.634,0,0,1,.675,2.081,2.5,2.5,0,0,1-2.435,1.488s-3.648,16.152-18.726,8.477Z" transform="translate(-665.21 -1059.64)" fill="#fff"/>
            <path id="パス_4391" data-name="パス 4391" d="M669.843,1074.141a16.921,16.921,0,0,1-7.584-2.1.235.235,0,0,1-.122-.266l1.844-7.383a.235.235,0,0,1,.21-.177c.181-.016.3.122.572.42a7.408,7.408,0,0,0,6.254,2.639c4.666-.128,8.508-5.3,8.678-5.535a19.065,19.065,0,0,1,3.038-3.955c1.283-1.03,1.5-1.178,1.508-1.184a.235.235,0,0,1,.32.054,1.28,1.28,0,0,1,.01,1.44,15.737,15.737,0,0,1-1.362,1.654,1.847,1.847,0,0,1,.537,2.208,2.679,2.679,0,0,1-2.471,1.636c-.3,1.138-2.135,7.267-7.134,9.614A10,10,0,0,1,669.843,1074.141Zm-7.2-2.43c4.363,2.182,8.164,2.543,11.3,1.072,5.285-2.479,6.908-9.406,6.924-9.476a.235.235,0,0,1,.246-.183,2.24,2.24,0,0,0,2.2-1.339,1.4,1.4,0,0,0-.57-1.79.236.236,0,0,1-.057-.367,18.337,18.337,0,0,0,1.493-1.785.818.818,0,0,0,.111-.686c-.2.156-.577.45-1.257,1a19.2,19.2,0,0,0-2.934,3.838l-.011.017c-.164.229-4.073,5.6-9.053,5.739a7.838,7.838,0,0,1-6.617-2.8l-.067-.074Z" transform="translate(-662.131 -1056.562)"/>
          </g>
          <g id="グループ_3312" data-name="グループ 3312" transform="translate(0 1.407)">
            <path id="パス_4392" data-name="パス 4392" d="M347.9,1093.4s1.477-9.531,6.693-11.876,12.275-2.019,14.221-.848,7.019,6.466,7.019,6.466l-4.483,6.258s1.025,16.846.215,21.293c0,0-4.987.582-7.1-.251s-9.069-2-12.393-.473l.6-21.328Z" transform="translate(-347.661 -1079.536)" fill="#5479f7"/>
            <path id="パス_4393" data-name="パス 4393" d="M364.97,1111.974a11.111,11.111,0,0,1-3.673-.467c-2.179-.858-9.051-1.929-12.209-.478a.235.235,0,0,1-.333-.221l.6-21.044-4.494.714a.235.235,0,0,1-.269-.268c.061-.394,1.557-9.684,6.829-12.054,5.169-2.324,12.322-2.108,14.439-.835,1.951,1.174,6.86,6.287,7.068,6.5a.235.235,0,0,1,.021.3l-4.434,6.19c.086,1.432.991,16.955.206,21.266a.235.235,0,0,1-.2.192A34.133,34.133,0,0,1,364.97,1111.974Zm-11.464-2.136a26.244,26.244,0,0,1,7.963,1.232c1.817.715,5.917.347,6.813.255.741-4.619-.237-20.9-.247-21.063a.235.235,0,0,1,.043-.151l4.368-6.1c-.818-.846-5.113-5.251-6.835-6.287-1.815-1.093-8.812-1.473-14,.861-4.507,2.026-6.186,9.709-6.5,11.377l4.448-.707a.233.233,0,0,1,.192.056.235.235,0,0,1,.08.183l-.594,20.963A12.417,12.417,0,0,1,353.506,1109.837Z" transform="translate(-344.584 -1076.38)"/>
          </g>
          <path id="パス_4394" data-name="パス 4394" d="M468.111,1404.723a.235.235,0,0,1-.041-.467c7.868-1.39,10.167-6.83,10.189-6.885a.235.235,0,0,1,.436.177c-.023.057-2.408,5.733-10.544,7.171A.235.235,0,0,1,468.111,1404.723Z" transform="translate(-459.124 -1373.041)"/>
          <path id="パス_4395" data-name="パス 4395" d="M540.062,1217.156H529.911l3.18-11.34h10.152Z" transform="translate(-516.754 -1195.22)"/>
          <g id="グループ_3313" data-name="グループ 3313" transform="translate(0.842 12.778)">
            <path id="パス_4396" data-name="パス 4396" d="M359.724,1242.172l5.138-2.3s-.724,8.705,9.671,4.685a7.408,7.408,0,0,1-.329-2.425c.054-1.307.836-.042.945,1.02s2.55.631,4.016.212,3.392-.145,0,1.726-4.135,1.036-4.135,1.036-4.331,6.061-9.72,4.773C358.682,1249.319,359.724,1242.172,359.724,1242.172Z" transform="translate(-359.435 -1239.64)" fill="#fff"/>
            <path id="パス_4397" data-name="パス 4397" d="M363.855,1248.242a6.841,6.841,0,0,1-1.6-.189c-6.76-1.615-5.775-8.92-5.765-8.994a.235.235,0,0,1,.137-.181l5.138-2.3a.235.235,0,0,1,.33.234c0,.031-.231,3.138,1.794,4.652,1.559,1.164,4.032,1.121,7.354-.127a7.684,7.684,0,0,1-.275-2.294c.008-.19.032-.77.436-.782h.01c.515,0,.9,1.16.968,1.788a.35.35,0,0,0,.166.268c.543.367,2.175.135,3.552-.258.639-.182,1.911-.372,2.154.216.2.48-.411,1.079-1.976,1.942-2.6,1.435-3.743,1.325-4.186,1.141C371.4,1244.267,368.12,1248.242,363.855,1248.242Zm-6.909-8.989a9.957,9.957,0,0,0,.32,3.562,6.533,6.533,0,0,0,5.1,4.781c5.174,1.236,9.432-4.622,9.474-4.681a.236.236,0,0,1,.179-.1.238.238,0,0,1,.188.078h0s.761.616,3.846-1.086c1.786-.985,1.767-1.351,1.767-1.354a2.347,2.347,0,0,0-1.589.06c-.7.2-3.047.8-3.944.195a.82.82,0,0,1-.371-.609,2.957,2.957,0,0,0-.45-1.288,1.669,1.669,0,0,0-.026.254,7.233,7.233,0,0,0,.317,2.339.235.235,0,0,1-.138.3c-3.587,1.387-6.283,1.435-8.011.141a5.889,5.889,0,0,1-1.992-4.677Z" transform="translate(-356.439 -1236.562)"/>
          </g>
        </g>
        <g id="グループ_3316" data-name="グループ 3316" transform="translate(10.356 0)">
          <path id="パス_4398" data-name="パス 4398" d="M494.95,925.612a1.965,1.965,0,0,1-1.99.561,1.761,1.761,0,0,1-.77-1.67,1.013,1.013,0,0,1-.76-.191c-.337-.3-.274-.846-.261-1.207.061-1.663-.905-1.918-.669-3.047a2.683,2.683,0,0,1,1.013-1.514c.658-.5,1.1-.338,2.209-.628,1.861-.487,1.92-1.289,3.146-1.293.071,0,1.739.018,2.306,1.171a2.56,2.56,0,0,1-.634,2.676c-.72.775-1.237.392-1.96,1.042C495.311,922.653,496.269,924.4,494.95,925.612Z" transform="translate(-490.462 -916.623)"/>
          <g id="グループ_3315" data-name="グループ 3315" transform="translate(1.16 2.592)">
            <path id="パス_4399" data-name="パス 4399" d="M516.921,959.632l-.073-.063a2.271,2.271,0,0,1-.849-1.162c-.416-2.024-2.27-2.759-2.355-.9-.022.469-1.735.445-1.531.937.53,1.284.542.938-.206,1.411a.645.645,0,0,0-.248.059.857.857,0,0,0-.3,1.163.993.993,0,0,0,.609.545v2.028a1.872,1.872,0,0,1-1.164,1.733l-.685.28a5.923,5.923,0,0,0,6.434-.2l-.432-.194a2.182,2.182,0,0,1-1.288-1.923l0-.4a1.7,1.7,0,0,0,.624-.052c.907-.264,1.208-1.308,1.053-2.607l.369-.2A.279.279,0,0,0,516.921,959.632Z" transform="translate(-509.879 -956.202)" fill="#fff"/>
            <path id="パス_4400" data-name="パス 4400" d="M510.2,963.686a6.636,6.636,0,0,1-3.288-.9.235.235,0,0,1,.04-.415l.685-.28a1.631,1.631,0,0,0,1.017-1.515v-1.866a1.252,1.252,0,0,1-.587-.608,1.092,1.092,0,0,1,.417-1.476.872.872,0,0,1,.272-.076c.117-.072.214-.124.293-.166.045-.024.1-.051.126-.07a4.087,4.087,0,0,0-.156-.388c-.055-.126-.121-.279-.2-.467a.409.409,0,0,1,.006-.343c.123-.252.474-.351.881-.465a2,2,0,0,0,.627-.241c.056-1.125.706-1.263.9-1.279.7-.052,1.629.753,1.917,2.155a2.086,2.086,0,0,0,.772,1.031l.073.063h0a.514.514,0,0,1-.093.842l-.23.124c.134,1.451-.313,2.431-1.238,2.7a1.8,1.8,0,0,1-.452.069v.152a1.957,1.957,0,0,0,1.149,1.71l.433.194a.235.235,0,0,1,.039.407A5.813,5.813,0,0,1,510.2,963.686Zm-2.615-1.065a5.57,5.57,0,0,0,5.4-.2l-.042-.019a2.432,2.432,0,0,1-1.427-2.13l0-.4a.235.235,0,0,1,.076-.175.229.229,0,0,1,.18-.062,1.464,1.464,0,0,0,.537-.044c1.016-.3.958-1.744.886-2.353a.235.235,0,0,1,.122-.235l.369-.2a.044.044,0,0,0,.008-.072l-.073-.063a2.468,2.468,0,0,1-.926-1.293c-.246-1.2-.993-1.815-1.419-1.78-.392.031-.46.6-.471.843-.018.394-.5.53-.969.661a2.49,2.49,0,0,0-.568.2c.072.172.133.314.184.431.254.586.34.783-.18,1.061-.084.045-.188.1-.314.18a.237.237,0,0,1-.116.036.414.414,0,0,0-.159.037.628.628,0,0,0-.19.851.762.762,0,0,0,.46.419.235.235,0,0,1,.171.226v2.028a2.1,2.1,0,0,1-1.31,1.95Z" transform="translate(-506.801 -953.129)"/>
          </g>
          <path id="パス_4401" data-name="パス 4401" d="M549.528,1029.9l-.036,0a2.885,2.885,0,0,1-1.991-1.29.235.235,0,0,1,.407-.235,2.407,2.407,0,0,0,1.655,1.06.235.235,0,0,1-.035.468Z" transform="translate(-543.423 -1020.333)"/>
        </g>
      </g>
      <g id="グループ_3337" data-name="グループ 3337" transform="translate(95.223 41.661)">
        <g id="グループ_3326" data-name="グループ 3326" transform="translate(0 0)">
          <g id="グループ_3318" data-name="グループ 3318" transform="translate(10.655)">
            <path id="パス_4402" data-name="パス 4402" d="M1826.28,972.653a5.465,5.465,0,0,1,5.382-1.5c2.112.577,3.177,2.4,3.927,3.692,1.328,2.278.686,3.1,1.73,4.425,1.848,2.343,6.331.792,8.513,2.592,5.244,4.324,2.386,11.471-2.263,14.845-3.1,2.25-7.317.949-8.464.595-3.482-1.075-9.251-3.18-9.81-8.207-.376-3.38,3.075-6.09,1.221-8.908a7.91,7.91,0,0,1-1.214-1.81A5.585,5.585,0,0,1,1826.28,972.653Z" transform="translate(-1824.918 -967.45)"/>
            <path id="パス_4403" data-name="パス 4403" d="M1915.458,927.025c-.793-.644-.291-2.542.217-3.566.19-.384,1.042-2.1,2.162-2.034,1.15.068,2.251,2,1.841,3.529C1919.164,926.866,1916.387,927.779,1915.458,927.025Z" transform="translate(-1908.646 -921.424)"/>
          </g>
          <g id="グループ_3319" data-name="グループ 3319" transform="translate(5.939 16.455)">
            <path id="パス_4404" data-name="パス 4404" d="M1775.364,1154.013a16.769,16.769,0,0,0-10.4.047,4.258,4.258,0,0,0-2.926,3.562l-3.551,20.445c-.176,1.486,1.811,2.932,3.21,3.462a19.157,19.157,0,0,0,6.8,1.078c3.355,0,7.407-.019,8.768-.615l.123-.056a4.6,4.6,0,0,0,2.609-4.588l-.723-3.005a39.938,39.938,0,0,1-1.1-10.125l.117-5.951A4.265,4.265,0,0,0,1775.364,1154.013Z" transform="translate(-1758.477 -1153.212)" fill="#5479f7"/>
            <path id="パス_4405" data-name="パス 4405" d="M1760.15,1175.621s2.835-7.851,6.013-8.606l-1.616,11.125Z" transform="translate(-1760.031 -1166.035)" fill="#5479f7"/>
            <path id="パス_4406" data-name="パス 4406" d="M1991.068,1174.23a3.806,3.806,0,0,0,1.292-4.049c-.389-1.337-.88-2.948-1.308-4.113a7.7,7.7,0,0,0-5.676-5.159c-.186-.044-2.287-.323-2.287-.323l1.265,12.195,5.4,2.213Z" transform="translate(-1967.144 -1160.063)" fill="#5479f7"/>
          </g>
          <path id="パス_4407" data-name="パス 4407" d="M1811.246,1424.708a.235.235,0,0,1-.208-.125c-2.4-4.563-9.734-4.745-12.906-4.118a14.015,14.015,0,0,0-4.118,1.753.235.235,0,0,1-.256-.394,14.241,14.241,0,0,1,4.283-1.821,18.855,18.855,0,0,1,6.816.085c3.182.643,5.463,2.122,6.6,4.275a.236.236,0,0,1-.1.318A.233.233,0,0,1,1811.246,1424.708Z" transform="translate(-1785.214 -1384.359)"/>
          <g id="グループ_3323" data-name="グループ 3323" transform="translate(0 20.841)">
            <g id="グループ_3321" data-name="グループ 3321">
              <g id="グループ_3320" data-name="グループ 3320">
                <path id="パス_4408" data-name="パス 4408" d="M1695.189,1229.686l-13.92-.021a.767.767,0,0,1-.744-.584l-2.362-9.822a.767.767,0,0,1,.746-.951l13.92.021a.767.767,0,0,1,.744.584l2.362,9.822A.768.768,0,0,1,1695.189,1229.686Z" transform="translate(-1677.905 -1218.073)" fill="#99b9ff"/>
                <path id="パス_4409" data-name="パス 4409" d="M1692.11,1226.844h0l-13.92-.021a1,1,0,0,1-.972-.763l-2.362-9.823a1,1,0,0,1,.974-1.241h0l13.92.021a1,1,0,0,1,.972.763l2.362,9.823a1,1,0,0,1-.974,1.241Zm-16.282-11.378a.532.532,0,0,0-.517.66l2.362,9.823a.531.531,0,0,0,.516.4l13.92.021h0a.532.532,0,0,0,.517-.66l-2.362-9.823a.531.531,0,0,0-.516-.4l-13.92-.021Z" transform="translate(-1674.825 -1214.996)"/>
              </g>
              <path id="パス_4410" data-name="パス 4410" d="M1786,1283.617a1.029,1.029,0,1,0,.748-1.307A1.066,1.066,0,0,0,1786,1283.617Z" transform="translate(-1778.079 -1277.507)" fill="#fff"/>
            </g>
            <g id="グループ_3322" data-name="グループ 3322" transform="translate(0.149 4.545)">
              <path id="パス_4411" data-name="パス 4411" d="M1680.942,1282.468l.177.706a.487.487,0,0,0,.681.321l2.355-1.117a.577.577,0,0,1,.8.337c.221.671.035,1.862-2.964,3.078-1.831.742-1.9-1.269-1.6-2.5A1.511,1.511,0,0,1,1680.942,1282.468Z" transform="translate(-1680.018 -1282.088)" fill="#fff"/>
              <path id="パス_4412" data-name="パス 4412" d="M1678.183,1283.116a1.094,1.094,0,0,1-.739-.262c-.629-.544-.6-1.786-.379-2.685a1.75,1.75,0,0,1,.65-.969.236.236,0,0,1,.361.137l.177.706a.252.252,0,0,0,.353.166l2.355-1.117a.816.816,0,0,1,.671-.013.807.807,0,0,1,.448.488c.281.851-.03,2.126-3.1,3.369A2.156,2.156,0,0,1,1678.183,1283.116Zm-.462-3.259a1.215,1.215,0,0,0-.2.423c-.2.829-.188,1.857.229,2.217.225.194.579.2,1.052,0,2.132-.864,3.136-1.853,2.829-2.786a.333.333,0,0,0-.187-.2.345.345,0,0,0-.284.005l-2.355,1.117a.723.723,0,0,1-1.01-.477Z" transform="translate(-1676.924 -1279.015)"/>
            </g>
          </g>
          <g id="グループ_3324" data-name="グループ 3324" transform="translate(15.512 21.097)">
            <path id="パス_4413" data-name="パス 4413" d="M1902.286,1223.341s6.252,3.522,7.541,4.627,2.687,1.944.865,4.353c-1.55,2.047-4.279.217-9.09-6.683a1.606,1.606,0,0,0-.979-.61,2.092,2.092,0,0,1-1.505-1.755s-2.281.323-2.482-.788l3.425-.545a1.407,1.407,0,0,1,1.253.4Z" transform="translate(-1896.401 -1221.682)" fill="#fff"/>
            <path id="パス_4414" data-name="パス 4414" d="M1906.191,1230.263h-.039c-1.756-.034-4.24-2.441-7.819-7.574a1.363,1.363,0,0,0-.837-.515,2.257,2.257,0,0,1-1.627-1.729c-.606.053-2.34.108-2.54-1a.235.235,0,0,1,.195-.274l3.425-.545a1.639,1.639,0,0,1,1.459.472l.948.973c.522.295,6.289,3.557,7.549,4.637.1.085.2.168.3.25,1.189.994,2.419,2.022.6,4.423A1.981,1.981,0,0,1,1906.191,1230.263Zm-10.148-10.309a.236.236,0,0,1,.228.177c.287,1.128.881,1.484,1.328,1.584a1.829,1.829,0,0,1,1.12.7c3.437,4.93,5.872,7.342,7.442,7.372a1.508,1.508,0,0,0,1.267-.7c1.547-2.044.677-2.771-.528-3.778-.1-.084-.2-.168-.3-.254-1.257-1.078-7.441-4.566-7.5-4.6a.23.23,0,0,1-.053-.041l-.971-1a1.17,1.17,0,0,0-1.044-.337l-3.134.5c.446.585,2.1.372,2.117.37Z" transform="translate(-1893.325 -1218.599)"/>
          </g>
          <g id="グループ_3325" data-name="グループ 3325" transform="translate(11.88 7.171)">
            <path id="パス_4415" data-name="パス 4415" d="M1848.342,1031.851a.872.872,0,0,1-1.009-.168,5.083,5.083,0,0,1-.739-.946l-.382.008a.225.225,0,0,1-.229-.215l-.066-1.492a2.768,2.768,0,0,1-.439-1.212,2.306,2.306,0,0,1,.948-1.795,1.97,1.97,0,0,1,2.539.451c.274.412.72.708.99.66.254-.045.358-.262.483-.487a.775.775,0,0,1,1.37-.151c.565.671.173,1.288-.177,1.8-.141.208.011.784.069,1.029l.826,3.519a2.8,2.8,0,0,0,1.726,1.978l.884.339s-.976,2.963-4.887,2.879c-2.985-.064-2.756-2.513-2.756-2.513l.392-.173a2.345,2.345,0,0,0,1.34-2.663l-.263-1.161Z" transform="translate(-1845.24 -1025.53)" fill="#fff"/>
            <path id="パス_4416" data-name="パス 4416" d="M1847.334,1035.187l-.165,0a3.112,3.112,0,0,1-2.363-.911,2.641,2.641,0,0,1-.622-1.858.235.235,0,0,1,.139-.193l.392-.173a2.113,2.113,0,0,0,1.206-2.4l-.2-.869-.351.176h0a1.106,1.106,0,0,1-1.281-.213,5.329,5.329,0,0,1-.7-.874l-.249.005h-.009a.463.463,0,0,1-.46-.44l-.063-1.432a2.974,2.974,0,0,1-.441-1.263,2.541,2.541,0,0,1,1.079-2.025,2.182,2.182,0,0,1,2.838.532,1.147,1.147,0,0,0,.752.559c.115-.021.175-.11.294-.326l.024-.044a1.175,1.175,0,0,1,.859-.622,1.029,1.029,0,0,1,.9.434,1.59,1.59,0,0,1-.163,2.087c-.031.054-.042.235.089.784l.014.059.826,3.519a2.567,2.567,0,0,0,1.582,1.812l.884.339a.235.235,0,0,1,.139.293A5.005,5.005,0,0,1,1847.334,1035.187Zm-2.684-2.595a2.162,2.162,0,0,0,.511,1.373,2.673,2.673,0,0,0,2.018.75l.155,0a4.6,4.6,0,0,0,4.417-2.512l-.658-.252a3.036,3.036,0,0,1-1.871-2.143l-.84-3.576a1.638,1.638,0,0,1-.021-1.158c.385-.566.623-1.006.192-1.519a.6.6,0,0,0-.491-.269.716.716,0,0,0-.493.382l-.023.043a.918.918,0,0,1-.624.562c-.417.075-.944-.337-1.226-.762a1.757,1.757,0,0,0-2.24-.37,2.106,2.106,0,0,0-.817,1.564,2.564,2.564,0,0,0,.405,1.108.239.239,0,0,1,.035.113l.066,1.492.371-.018a.233.233,0,0,1,.206.113,4.878,4.878,0,0,0,.705.9.636.636,0,0,0,.737.124l.619-.311a.235.235,0,0,1,.335.158l.263,1.161a2.585,2.585,0,0,1-1.475,2.93Zm.618-3.841h0Z" transform="translate(-1842.165 -1022.43)"/>
          </g>
        </g>
        <g id="グループ_3336" data-name="グループ 3336" transform="translate(6.37 37.721)">
          <g id="グループ_3330" data-name="グループ 3330" transform="translate(4.554 36.872)">
            <g id="グループ_3327" data-name="グループ 3327" transform="translate(0.77)">
              <path id="パス_4417" data-name="パス 4417" d="M1846.109,1975.466l2.073,6.185s-2.258-.193-2.474-.15-2.857-5.64-2.857-5.64Z" transform="translate(-1842.616 -1975.231)" fill="#fff"/>
              <path id="パス_4418" data-name="パス 4418" d="M1845.106,1978.811h-.021c-1.066-.091-2.261-.172-2.413-.153-.225.042-.308.06-1.762-2.934-.68-1.4-1.343-2.825-1.349-2.84a.235.235,0,0,1,.185-.333l3.258-.394a.237.237,0,0,1,.251.159l2.073,6.185a.235.235,0,0,1-.223.31Zm-2.352-.625c.405,0,1.362.073,2.015.126l-1.9-5.664-2.746.332c1.081,2.314,2.284,4.774,2.594,5.206Zm-.152.006-.014,0Z" transform="translate(-1839.54 -1972.156)"/>
            </g>
            <g id="グループ_3329" data-name="グループ 3329" transform="translate(0 3.59)">
              <g id="グループ_3328" data-name="グループ 3328">
                <path id="パス_4419" data-name="パス 4419" d="M1837.636,2027.31s-3.117-1.278-3.694.326c-.733,2.04-1.88,5.153-1.88,5.153a.874.874,0,0,0,.753,1.166,11.589,11.589,0,0,0,3.63-.112c1.25-.438,3.323-4.394,3.323-4.394l-.639-3.365A1.408,1.408,0,0,0,1837.636,2027.31Z" transform="translate(-1831.775 -2025.84)" fill="#99b9ff"/>
                <path id="パス_4420" data-name="パス 4420" d="M1831.568,2031.159c-.623,0-1.281-.037-1.853-.083a1.108,1.108,0,0,1-.955-1.479c.012-.033,1.155-3.137,1.88-5.153a1.328,1.328,0,0,1,.739-.788,4.789,4.789,0,0,1,3.026.235,1.6,1.6,0,0,1,1.676-1.153.235.235,0,0,1,.2.189l.639,3.366a.234.234,0,0,1-.023.153c-.217.413-2.154,4.051-3.454,4.507A6.294,6.294,0,0,1,1831.568,2031.159Zm.77-7.211a1.906,1.906,0,0,0-.768.137.864.864,0,0,0-.487.518c-.725,2.018-1.869,5.123-1.88,5.155a.638.638,0,0,0,.551.85,10.692,10.692,0,0,0,3.533-.1c.933-.327,2.556-3.082,3.155-4.209l-.589-3.1c-.283.02-.839.175-1.07,1.057a.234.234,0,0,1-.317.158A6.773,6.773,0,0,0,1832.338,2023.948Z" transform="translate(-1828.694 -2022.726)"/>
              </g>
              <path id="パス_4421" data-name="パス 4421" d="M1844.113,2115.213h-3.2a.235.235,0,0,1,0-.47h3.2a.235.235,0,0,1,0,.47Z" transform="translate(-1839.826 -2108.21)"/>
            </g>
          </g>
          <g id="グループ_3334" data-name="グループ 3334" transform="translate(8.545 38.23)">
            <g id="グループ_3331" data-name="グループ 3331" transform="translate(2.377)">
              <path id="パス_4422" data-name="パス 4422" d="M1925.242,1994.762l-.7,6.222-2.833-.777.218-5.606Z" transform="translate(-1921.469 -1994.365)" fill="#fff"/>
              <path id="パス_4423" data-name="パス 4423" d="M1921.458,1998.142a.236.236,0,0,1-.062-.008l-2.833-.777a.235.235,0,0,1-.173-.236l.218-5.606a.235.235,0,0,1,.076-.164.242.242,0,0,1,.171-.061l3.319.161a.235.235,0,0,1,.222.261l-.7,6.222a.235.235,0,0,1-.234.208Zm-2.591-1.19,2.389.655.645-5.7-2.832-.138Z" transform="translate(-1918.39 -1991.29)"/>
            </g>
            <g id="グループ_3333" data-name="グループ 3333" transform="translate(0 4.421)">
              <g id="グループ_3332" data-name="グループ 3332">
                <path id="パス_4424" data-name="パス 4424" d="M1893.7,2063.423h-4.483a.993.993,0,0,1-.983-1.138,13.236,13.236,0,0,1,2.1-5,.872.872,0,0,1,.737-.406h1.363a.46.46,0,0,1,.457.412l.1.984.413-.424a.31.31,0,0,1,.517.119,15.72,15.72,0,0,1,.773,4.444A1,1,0,0,1,1893.7,2063.423Z" transform="translate(-1887.987 -2056.642)" fill="#99b9ff"/>
                <path id="パス_4425" data-name="パス 4425" d="M1890.624,2060.58h-4.483a1.228,1.228,0,0,1-1.216-1.408,13.471,13.471,0,0,1,2.133-5.093,1.1,1.1,0,0,1,.936-.515h1.363a.694.694,0,0,1,.691.622l.051.484.063-.064a.545.545,0,0,1,.909.208,15.936,15.936,0,0,1,.785,4.513,1.23,1.23,0,0,1-1.23,1.252Zm-2.631-6.546a.641.641,0,0,0-.538.3,13.007,13.007,0,0,0-2.065,4.91.759.759,0,0,0,.751.869h4.483a.76.76,0,0,0,.76-.773,15.427,15.427,0,0,0-.762-4.375.072.072,0,0,0-.053-.049.074.074,0,0,0-.072.021l-.412.424a.236.236,0,0,1-.4-.139l-.1-.984a.224.224,0,0,0-.223-.2Z" transform="translate(-1884.911 -2053.564)"/>
              </g>
              <path id="パス_4426" data-name="パス 4426" d="M1903.634,2131.143h-4.54a.235.235,0,0,1,0-.471h4.54a.235.235,0,1,1,0,.471Z" transform="translate(-1897.869 -2125.198)"/>
            </g>
          </g>
          <g id="グループ_3335" data-name="グループ 3335">
            <path id="パス_4427" data-name="パス 4427" d="M1768.6,1454.033a1.04,1.04,0,0,1,.651-.6,15.974,15.974,0,0,1,13.238,1.9,1.046,1.046,0,0,1,.479.805,120.176,120.176,0,0,1-3.938,37.126l-3.331-.237-.679-31.642s-4.933,11.6-.922,30.061l-3.464.64a35.263,35.263,0,0,1-5.977-16.852C1763.854,1466.227,1767.7,1456.222,1768.6,1454.033Z" transform="translate(-1764.548 -1452.771)"/>
            <path id="パス_4428" data-name="パス 4428" d="M1953.522,1755.768a.235.235,0,0,1-.01-.47c2.756-.119,3.078-3.994,3.081-4.033a.235.235,0,1,1,.469.035c0,.043-.36,4.331-3.53,4.468Z" transform="translate(-1939.888 -1729.872)" fill="#caddff"/>
            <path id="パス_4429" data-name="パス 4429" d="M1879.277,1541.3h-.007a.235.235,0,0,1-.228-.242l.089-3.006a1.53,1.53,0,0,0-.651-1.3l-1.3-.912a.235.235,0,0,1,.271-.385l1.3.912a2,2,0,0,1,.851,1.7l-.09,3.006A.235.235,0,0,1,1879.277,1541.3Z" transform="translate(-1869.094 -1529.541)" fill="#caddff"/>
          </g>
        </g>
      </g>
      <g id="グループ_3341" data-name="グループ 3341" transform="translate(101.984 26.799)">
        <rect id="長方形_9875" data-name="長方形 9875" width="25.721" height="10.894" rx="5.447" transform="translate(0.235 0.235)" fill="#fff"/>
        <path id="パス_4430" data-name="パス 4430" d="M1794.792,723.431h-23.268a1.463,1.463,0,0,1-1.462-1.462v-8.441a1.463,1.463,0,0,1,1.462-1.462h4.59a.235.235,0,1,1,0,.47h-4.59a.992.992,0,0,0-.991.991v8.441a.992.992,0,0,0,.991.991h23.268a.993.993,0,0,0,.992-.991v-8.441a.992.992,0,0,0-.992-.991h-15.585a.235.235,0,1,1,0-.47h15.585a1.463,1.463,0,0,1,1.462,1.462v8.441A1.463,1.463,0,0,1,1794.792,723.431Z" transform="translate(-1770.062 -712.067)"/>
        <g id="グループ_3338" data-name="グループ 3338" transform="translate(3.833 4.018)">
          <path id="パス_4431" data-name="パス 4431" d="M1827.367,771.975h0Z" transform="translate(-1827.132 -771.74)" fill="#fff"/>
          <path id="パス_4432" data-name="パス 4432" d="M1842.782,769.133h-18.493a.235.235,0,0,1,0-.47h18.493a.235.235,0,0,1,0,.47Z" transform="translate(-1824.054 -768.663)"/>
        </g>
        <g id="グループ_3339" data-name="グループ 3339" transform="translate(18.459 6.489)">
          <path id="パス_4433" data-name="パス 4433" d="M2033.39,806.786h0Z" transform="translate(-2033.155 -806.551)" fill="#fff"/>
          <path id="パス_4434" data-name="パス 4434" d="M2034.179,803.944h-3.867a.235.235,0,1,1,0-.471h3.867a.235.235,0,1,1,0,.471Z" transform="translate(-2030.077 -803.473)"/>
        </g>
        <g id="グループ_3340" data-name="グループ 3340" transform="translate(3.833 6.489)">
          <path id="パス_4435" data-name="パス 4435" d="M1827.367,806.786h0Z" transform="translate(-1827.132 -806.551)" fill="#fff"/>
          <path id="パス_4436" data-name="パス 4436" d="M1836.444,803.944h-12.155a.235.235,0,0,1,0-.471h12.155a.235.235,0,0,1,0,.471Z" transform="translate(-1824.054 -803.473)"/>
        </g>
      </g>
      <g id="グループ_3348" data-name="グループ 3348" transform="translate(68.418 10.226)">
        <g id="グループ_3346" data-name="グループ 3346" transform="translate(4.656 5.807)">
          <g id="グループ_3344" data-name="グループ 3344">
            <g id="グループ_3342" data-name="グループ 3342" transform="translate(5.425 19.775)">
              <path id="パス_4437" data-name="パス 4437" d="M1448.714,844.925a.366.366,0,0,1,0-.418.985.985,0,0,0,.187-.562c0-.917-1.42-1.66-3.172-1.66s-3.172.743-3.172,1.66a.985.985,0,0,0,.186.562.366.366,0,0,1,0,.418.986.986,0,0,0-.186.562,1.4,1.4,0,0,0,.843,1.127.656.656,0,0,0-.018.15c0,.678,1.051,1.228,2.347,1.228s2.347-.55,2.347-1.228a.663.663,0,0,0-.018-.15,1.4,1.4,0,0,0,.843-1.127A.985.985,0,0,0,1448.714,844.925Z" transform="translate(-1442.322 -842.051)" fill="#99b9ff"/>
              <path id="パス_4438" data-name="パス 4438" d="M1442.651,845.149c-1.448,0-2.582-.643-2.582-1.463,0-.009,0-.019,0-.028a1.534,1.534,0,0,1-.825-1.249,1.214,1.214,0,0,1,.228-.695.131.131,0,0,0,0-.151,1.214,1.214,0,0,1-.228-.695c0-1.062,1.5-1.895,3.407-1.895s3.407.832,3.407,1.895a1.214,1.214,0,0,1-.228.695.131.131,0,0,0,0,.151,1.214,1.214,0,0,1,.228.695,1.534,1.534,0,0,1-.825,1.249c0,.01,0,.019,0,.028C1445.233,844.506,1444.1,845.149,1442.651,845.149Zm0-5.706c-1.592,0-2.936.652-2.936,1.424a.753.753,0,0,0,.145.428.6.6,0,0,1,0,.685.752.752,0,0,0-.145.428c0,.33.257.658.723.922l.154.087-.04.172a.424.424,0,0,0-.012.1c0,.47.867.993,2.112.993s2.112-.523,2.112-.993a.435.435,0,0,0-.012-.1l-.04-.171.153-.087c.466-.264.723-.591.723-.922a.751.751,0,0,0-.145-.428h0a.6.6,0,0,1,0-.685.754.754,0,0,0,.145-.428C1445.587,840.095,1444.242,839.442,1442.651,839.442Z" transform="translate(-1439.244 -838.972)"/>
            </g>
            <g id="グループ_3343" data-name="グループ 3343">
              <path id="パス_4439" data-name="パス 4439" d="M1383.341,572.446a8.6,8.6,0,1,0-14.5,6.048,8.856,8.856,0,0,1,2.361,4.059l.019.075a3.4,3.4,0,0,0,3.289,2.543h.634a3.4,3.4,0,0,0,3.289-2.543l.012-.045a8.7,8.7,0,0,1,2.324-4.045A8.484,8.484,0,0,0,1383.341,572.446Z" transform="translate(-1365.901 -563.501)" fill="#fff"/>
              <path id="パス_4440" data-name="パス 4440" d="M1372.07,582.329h-.635a3.634,3.634,0,0,1-3.517-2.72l-.019-.074a8.634,8.634,0,0,0-2.3-3.951,8.979,8.979,0,0,1-2.777-6.335,8.852,8.852,0,0,1,2.617-6.22,8.729,8.729,0,0,1,6.21-2.606,9.016,9.016,0,0,1,8.848,8.945,8.677,8.677,0,0,1-2.639,6.26,8.46,8.46,0,0,0-2.261,3.936l-.012.046A3.634,3.634,0,0,1,1372.07,582.329Zm-.419-21.435a8.407,8.407,0,0,0-8.357,8.359,8.507,8.507,0,0,0,2.638,6,9.1,9.1,0,0,1,2.423,4.167l.019.074a3.164,3.164,0,0,0,3.062,2.368h.635a3.164,3.164,0,0,0,3.062-2.367l.012-.046a8.93,8.93,0,0,1,2.388-4.154,8.211,8.211,0,0,0,2.5-5.923A8.54,8.54,0,0,0,1371.651,560.893Z" transform="translate(-1362.823 -560.423)"/>
            </g>
          </g>
          <g id="グループ_3345" data-name="グループ 3345" transform="translate(1.53 2.268)">
            <path id="パス_4441" data-name="パス 4441" d="M1436.869,666.245h0a.235.235,0,0,1-.234-.236c.019-4.6,2.7-9.781,3.237-10.773a2.3,2.3,0,0,0,.365-1.43,1.258,1.258,0,0,0-.861-1.089,1.823,1.823,0,0,0-1.256.095,2.75,2.75,0,0,1,.712,2.523.977.977,0,0,1-.8.7,1.218,1.218,0,0,1-1.191-.506c-.227-.324-.5-1.058.218-2.326a2.061,2.061,0,0,1,.307-.415,1.7,1.7,0,0,0-1.448-.159,1.56,1.56,0,0,0-.374.2,2.793,2.793,0,0,1,.79,2.336,1.294,1.294,0,0,1-.862,1.049,1.071,1.071,0,0,1-1.066-.271,1.707,1.707,0,0,1-.254-1.742,3.965,3.965,0,0,1,.584-1.216,1.374,1.374,0,0,0-1.642.632,1.682,1.682,0,0,0,.2,1.578c.788,1.126,2.631,4.414,2.721,10.6a.235.235,0,0,1-.232.239.232.232,0,0,1-.238-.232c-.088-6.057-1.873-9.248-2.636-10.338a2.129,2.129,0,0,1-.247-2.025,1.893,1.893,0,0,1,2.43-.845,2.087,2.087,0,0,1,.665-.408,2.178,2.178,0,0,1,1.877.21c.04.025.08.052.119.081a2.233,2.233,0,0,1,1.771-.211,1.717,1.717,0,0,1,1.181,1.458,2.69,2.69,0,0,1-.415,1.733c-.528.975-3.162,6.067-3.18,10.551A.235.235,0,0,1,1436.869,666.245Zm-1.671-13.086a3.373,3.373,0,0,0-.6,1.181,1.269,1.269,0,0,0,.137,1.273.592.592,0,0,0,.6.153.841.841,0,0,0,.536-.691A2.275,2.275,0,0,0,1435.2,653.159Zm2.534-.072a1.6,1.6,0,0,0-.265.349c-.432.762-.52,1.427-.242,1.825a.745.745,0,0,0,.728.312.51.51,0,0,0,.426-.367A2.3,2.3,0,0,0,1437.732,653.087Z" transform="translate(-1429.089 -647.827)"/>
            <path id="パス_4442" data-name="パス 4442" d="M1539.692,701.669a.235.235,0,0,1-.125-.434,6.735,6.735,0,0,0,2.974-4.219.235.235,0,0,1,.459.1,7.209,7.209,0,0,1-3.183,4.516A.233.233,0,0,1,1539.692,701.669Z" transform="translate(-1528.447 -689.416)"/>
            <path id="パス_4443" data-name="パス 4443" d="M1386.355,603.641a.234.234,0,0,1-.176-.079,7.157,7.157,0,0,1,2.169-11.164.235.235,0,1,1,.209.421,6.686,6.686,0,0,0-2.026,10.43.235.235,0,0,1-.176.392Z" transform="translate(-1384.373 -592.374)"/>
            <path id="パス_4444" data-name="パス 4444" d="M1491.79,872.826a.235.235,0,0,1-.039-.467,8.066,8.066,0,0,0,.826-.185.235.235,0,0,1,.128.453,8.53,8.53,0,0,1-.874.2A.234.234,0,0,1,1491.79,872.826Z" transform="translate(-1483.946 -852.302)" fill="#fff"/>
            <path id="パス_4445" data-name="パス 4445" d="M1472.954,891.6a.235.235,0,0,1,0-.47,6.039,6.039,0,0,0,2.435-.49.235.235,0,1,1,.2.426,6.511,6.511,0,0,1-2.63.534Z" transform="translate(-1466.447 -869.443)" fill="#fff"/>
          </g>
        </g>
        <g id="グループ_3347" data-name="グループ 3347" transform="translate(0 0)">
          <path id="パス_4446" data-name="パス 4446" d="M1484.757,482.848h-.005a.236.236,0,0,1-.23-.24l.078-3.759a.235.235,0,0,1,.471.01l-.078,3.759A.236.236,0,0,1,1484.757,482.848Z" transform="translate(-1471.226 -478.619)"/>
          <path id="パス_4447" data-name="パス 4447" d="M1299.875,639.891h0l-2.4,0a.235.235,0,0,1,0-.47h0l2.4,0a.235.235,0,0,1,0,.47Z" transform="translate(-1297.239 -628.004)"/>
          <path id="パス_4448" data-name="パス 4448" d="M1327.06,550.017a.234.234,0,0,1-.112-.028l-2.707-1.467a.235.235,0,0,1,.224-.414l2.707,1.467a.235.235,0,0,1-.112.442Z" transform="translate(-1322.21 -543.149)"/>
          <path id="パス_4449" data-name="パス 4449" d="M1637.024,639.891a.235.235,0,0,1,0-.47l2.4,0h0a.235.235,0,1,1,0,.47l-2.4,0Z" transform="translate(-1612.684 -628.004)"/>
          <path id="パス_4450" data-name="パス 4450" d="M1605.823,550.017a.235.235,0,0,1-.112-.442l2.707-1.467a.235.235,0,0,1,.224.414l-2.707,1.467A.235.235,0,0,1,1605.823,550.017Z" transform="translate(-1583.698 -543.149)"/>
        </g>
      </g>
      <g id="グループ_3355" data-name="グループ 3355" transform="translate(9.427 4.411)">
        <g id="グループ_3349" data-name="グループ 3349" transform="translate(0 6.348)">
          <path id="パス_4451" data-name="パス 4451" d="M466.519,500.286a.235.235,0,0,1-.216-.329c2.644-6.113,7.709-10.76,15.055-13.812a.235.235,0,1,1,.18.434c-7.229,3-12.21,7.568-14.8,13.565A.236.236,0,0,1,466.519,500.286Z" transform="translate(-466.284 -486.127)"/>
          <path id="パス_4452" data-name="パス 4452" d="M480.559,534.66a.235.235,0,0,1-.2-.355c3.491-5.891,8.207-10.415,13.279-12.741a.235.235,0,1,1,.2.427c-4.986,2.286-9.628,6.744-13.07,12.553A.235.235,0,0,1,480.559,534.66Z" transform="translate(-479.328 -519.028)"/>
        </g>
        <g id="グループ_3350" data-name="グループ 3350" transform="translate(14.423 110.717)">
          <path id="パス_4453" data-name="パス 4453" d="M683.993,1964.485a.25.25,0,0,1-.046,0,28.918,28.918,0,0,1-14.432-7.782.235.235,0,0,1,.326-.34,28.452,28.452,0,0,0,14.2,7.661.235.235,0,0,1-.046.466Z" transform="translate(-669.443 -1956.293)"/>
          <path id="パス_4454" data-name="パス 4454" d="M744.409,1964.121a.219.219,0,0,1-.042,0c-6.679-1.189-12.443-3.675-16.23-7a.235.235,0,1,1,.31-.354c3.723,3.267,9.406,5.714,16,6.888a.235.235,0,0,1-.041.467Z" transform="translate(-723.897 -1956.678)"/>
        </g>
        <g id="グループ_3351" data-name="グループ 3351" transform="translate(60.48 0)">
          <path id="パス_4455" data-name="パス 4455" d="M1318.449,398.242a.235.235,0,0,1-.021-.47c.311-.028.629-.053.944-.073a.235.235,0,1,1,.03.469c-.311.02-.625.044-.932.072Z" transform="translate(-1318.215 -397.629)" fill="#fff"/>
          <path id="パス_4456" data-name="パス 4456" d="M1370.843,437.264a.235.235,0,0,1-.062-.462c.61-.168,1.216-.366,1.8-.59a.235.235,0,1,1,.168.439c-.6.229-1.219.432-1.844.6A.237.237,0,0,1,1370.843,437.264Zm3.577-1.371a.235.235,0,0,1-.106-.445,18.8,18.8,0,0,0,1.647-.934.235.235,0,1,1,.252.4,19.354,19.354,0,0,1-1.689.957A.234.234,0,0,1,1374.42,435.893Zm3.233-2.053a.235.235,0,0,1-.146-.42c.495-.388.975-.807,1.429-1.243a.235.235,0,1,1,.326.339c-.465.447-.958.875-1.464,1.273A.234.234,0,0,1,1377.653,433.84Zm2.762-2.652a.235.235,0,0,1-.179-.388c.407-.476.8-.98,1.16-1.5a.235.235,0,0,1,.385.27c-.371.53-.771,1.047-1.188,1.534A.234.234,0,0,1,1380.415,431.187Zm2.2-3.136a.235.235,0,0,1-.2-.351c.31-.546.6-1.114.859-1.688a.235.235,0,1,1,.429.194c-.266.588-.561,1.169-.879,1.727A.235.235,0,0,1,1382.613,428.052Zm1.578-3.489a.238.238,0,0,1-.077-.013.235.235,0,0,1-.145-.3c.206-.6.387-1.208.537-1.819a.235.235,0,0,1,.457.112c-.153.624-.338,1.25-.549,1.86A.235.235,0,0,1,1384.19,424.563Zm.913-3.721-.035,0a.235.235,0,0,1-.2-.267c.093-.629.155-1.264.185-1.885a.235.235,0,0,1,.47.023c-.031.637-.094,1.287-.19,1.932A.235.235,0,0,1,1385.1,420.842Zm.179-3.826a.235.235,0,0,1-.235-.222c-.03-.52-.085-1.037-.162-1.536q-.026-.171-.056-.341a.235.235,0,1,1,.463-.082q.031.176.058.351c.079.514.135,1.045.167,1.581a.235.235,0,0,1-.221.248Zm-.669-3.768a.235.235,0,0,1-.225-.167,16.973,16.973,0,0,0-.65-1.775.235.235,0,0,1,.432-.186,17.473,17.473,0,0,1,.668,1.824.235.235,0,0,1-.225.3Zm-1.508-3.518a.235.235,0,0,1-.205-.12c-.3-.543-.643-1.083-1.006-1.6a.235.235,0,0,1,.386-.269c.372.534.719,1.087,1.031,1.644a.235.235,0,0,1-.2.35Zm-2.185-3.146a.235.235,0,0,1-.18-.084c-.4-.477-.832-.947-1.283-1.4a.235.235,0,0,1,.333-.332c.46.46.9.941,1.31,1.428a.235.235,0,0,1-.18.386Zm-2.706-2.714a.234.234,0,0,1-.152-.056c-.476-.405-.978-.8-1.492-1.175a.235.235,0,1,1,.277-.38c.524.381,1.036.785,1.521,1.2a.235.235,0,0,1-.153.414Zm-3.1-2.258a.235.235,0,0,1-.124-.035c-.532-.331-1.087-.65-1.649-.946a.235.235,0,1,1,.22-.416c.571.3,1.135.626,1.677.963a.235.235,0,0,1-.124.435Zm-3.388-1.793a.233.233,0,0,1-.1-.02c-.574-.255-1.167-.5-1.762-.716a.235.235,0,1,1,.163-.441c.6.223,1.208.468,1.791.727a.235.235,0,0,1-.1.45Zm-3.6-1.327a.234.234,0,0,1-.067-.01c-.6-.18-1.223-.343-1.84-.486a.235.235,0,0,1,.106-.458c.627.145,1.255.311,1.868.493a.235.235,0,0,1-.067.461Zm-3.735-.864a.243.243,0,0,1-.039,0c-.621-.1-1.255-.192-1.886-.259a.235.235,0,0,1,.05-.468c.64.069,1.284.157,1.914.263a.235.235,0,0,1-.039.467Zm-3.812-.41h-.012c-.629-.031-1.267-.044-1.9-.038h0a.235.235,0,0,1,0-.47c.646,0,1.293.008,1.931.039a.235.235,0,0,1-.011.47Z" transform="translate(-1355.578 -396.71)" fill="#fff"/>
          <path id="パス_4457" data-name="パス 4457" d="M1490.442,967.938a.235.235,0,0,1-.03-.468c.305-.04.615-.088.919-.141a.235.235,0,0,1,.082.463c-.312.055-.628.1-.94.145Z" transform="translate(-1477.998 -926.816)" fill="#fff"/>
        </g>
        <g id="グループ_3352" data-name="グループ 3352" transform="translate(6.105 6.388)">
          <path id="パス_4458" data-name="パス 4458" d="M552.521,862.4h-.02a.235.235,0,0,1-.215-.254c.027-.326.057-.634.09-.941a.235.235,0,0,1,.468.05c-.033.3-.062.608-.089.93A.235.235,0,0,1,552.521,862.4Z" transform="translate(-552.286 -834.42)" fill="#fff"/>
          <path id="パス_4459" data-name="パス 4459" d="M557.318,530.6a.23.23,0,0,1-.037,0,.235.235,0,0,1-.2-.269c.1-.625.217-1.257.349-1.876a.235.235,0,1,1,.46.1c-.13.612-.246,1.235-.344,1.853A.235.235,0,0,1,557.318,530.6Zm.787-3.709a.231.231,0,0,1-.061-.008.235.235,0,0,1-.167-.288c.163-.615.344-1.231.538-1.831a.235.235,0,1,1,.448.144c-.191.593-.37,1.2-.531,1.807A.235.235,0,0,1,558.105,526.894Zm1.164-3.607a.235.235,0,0,1-.22-.319c.227-.595.473-1.188.729-1.764a.235.235,0,0,1,.43.191c-.253.568-.5,1.154-.719,1.74A.235.235,0,0,1,559.269,523.287Zm1.544-3.461a.233.233,0,0,1-.107-.026.235.235,0,0,1-.1-.317c.291-.565.6-1.128.921-1.672a.235.235,0,1,1,.405.239c-.316.536-.621,1.091-.908,1.648A.235.235,0,0,1,560.813,519.826Zm1.923-3.265a.235.235,0,0,1-.2-.366c.353-.527.726-1.05,1.109-1.554a.235.235,0,0,1,.375.284c-.377.5-.745,1.012-1.093,1.532A.234.234,0,0,1,562.736,516.561Zm2.29-3.019a.235.235,0,0,1-.179-.388c.262-.306.536-.614.813-.914q.235-.254.471-.5a.235.235,0,1,1,.339.326q-.233.241-.464.492c-.273.3-.543.6-.8.9A.235.235,0,0,1,565.026,513.542Zm2.63-2.728a.235.235,0,0,1-.159-.408c.465-.429.95-.851,1.441-1.253a.235.235,0,0,1,.3.364c-.484.4-.962.812-1.42,1.235A.235.235,0,0,1,567.656,510.814Zm2.931-2.4a.235.235,0,0,1-.138-.425c.511-.372,1.041-.735,1.576-1.078a.235.235,0,0,1,.255.4c-.527.339-1.049.7-1.554,1.063A.233.233,0,0,1,570.587,508.413Z" transform="translate(-556.742 -505.439)" fill="#fff"/>
          <path id="パス_4460" data-name="パス 4460" d="M789.15,487.61a.235.235,0,0,1-.116-.44c.272-.154.551-.307.83-.455a.235.235,0,1,1,.221.416c-.275.146-.551.3-.819.449A.236.236,0,0,1,789.15,487.61Z" transform="translate(-772.116 -486.688)" fill="#fff"/>
        </g>
        <g id="グループ_3353" data-name="グループ 3353" transform="translate(36.692 39.333)">
          <path id="パス_4461" data-name="パス 4461" d="M1011.885,952.445a.235.235,0,0,1-.235-.235v-1.216a.235.235,0,1,1,.47,0v1.216A.235.235,0,0,1,1011.885,952.445Z" transform="translate(-1009.626 -950.758)"/>
          <path id="パス_4462" data-name="パス 4462" d="M1011.885,992.347a.235.235,0,0,1-.235-.235V990.9a.235.235,0,1,1,.47,0v1.216A.235.235,0,0,1,1011.885,992.347Z" transform="translate(-1009.626 -987.828)"/>
          <path id="パス_4463" data-name="パス 4463" d="M984.584,979.745h-1.216a.235.235,0,0,1,0-.47h1.216a.235.235,0,1,1,0,.47Z" transform="translate(-983.133 -977.251)"/>
          <path id="パス_4464" data-name="パス 4464" d="M1024.487,979.745h-1.216a.235.235,0,0,1,0-.47h1.216a.235.235,0,0,1,0,.47Z" transform="translate(-1020.203 -977.251)"/>
        </g>
        <g id="グループ_3354" data-name="グループ 3354" transform="translate(109.651 41.214)">
          <path id="パス_4465" data-name="パス 4465" d="M2039.6,978.952a.235.235,0,0,1-.235-.235V977.5a.235.235,0,1,1,.47,0v1.216A.235.235,0,0,1,2039.6,978.952Z" transform="translate(-2037.345 -977.266)"/>
          <path id="パス_4466" data-name="パス 4466" d="M2039.6,1018.855a.235.235,0,0,1-.235-.235V1017.4a.235.235,0,1,1,.47,0v1.216A.235.235,0,0,1,2039.6,1018.855Z" transform="translate(-2037.345 -1014.336)"/>
          <path id="パス_4467" data-name="パス 4467" d="M2012.305,1006.251h-1.216a.235.235,0,1,1,0-.47h1.216a.235.235,0,1,1,0,.47Z" transform="translate(-2010.854 -1003.757)"/>
          <path id="パス_4468" data-name="パス 4468" d="M2052.206,1006.251h-1.216a.235.235,0,0,1,0-.47h1.216a.235.235,0,1,1,0,.47Z" transform="translate(-2047.922 -1003.757)"/>
        </g>
      </g>
      <g id="グループ_3365" data-name="グループ 3365" transform="translate(27.376 1.019)">
        <g id="グループ_3357" data-name="グループ 3357" transform="translate(26.999 0)">
          <g id="グループ_3356" data-name="グループ 3356">
            <circle id="楕円形_118" data-name="楕円形 118" cx="6.5" cy="6.5" r="6.5" transform="translate(0.235 0.235)" fill="#fff"/>
            <path id="パス_4469" data-name="パス 4469" d="M1106.153,362.405a6.735,6.735,0,1,1,6.735-6.735A6.743,6.743,0,0,1,1106.153,362.405Zm0-13a6.265,6.265,0,1,0,6.265,6.265A6.272,6.272,0,0,0,1106.153,349.405Z" transform="translate(-1099.418 -348.935)"/>
          </g>
          <path id="パス_4470" data-name="パス 4470" d="M1149,405.956a1.126,1.126,0,0,0-.894.445l-2.195-.854c0-.029.009-.057.009-.086a1.123,1.123,0,0,0-.016-.16l2.249-1.041a1.128,1.128,0,0,0,1.982-.749,1.135,1.135,0,1,0-2.253.156l-2.249,1.041a1.128,1.128,0,0,0-1.982.749,1.142,1.142,0,0,0,1.135,1.145,1.124,1.124,0,0,0,.894-.445l2.195.854c0,.029-.009.057-.009.086a1.135,1.135,0,1,0,1.135-1.14Z" transform="translate(-1140.514 -398.572)" fill="#5479f7"/>
        </g>
        <g id="グループ_3359" data-name="グループ 3359" transform="translate(2.941 36.254)">
          <g id="グループ_3358" data-name="グループ 3358">
            <circle id="楕円形_119" data-name="楕円形 119" cx="6.5" cy="6.5" r="6.5" transform="translate(0.235 0.235)" fill="#fff"/>
            <path id="パス_4471" data-name="パス 4471" d="M767.274,873.094a6.735,6.735,0,1,1,6.735-6.735A6.743,6.743,0,0,1,767.274,873.094Zm0-13a6.265,6.265,0,1,0,6.265,6.265A6.272,6.272,0,0,0,767.274,860.093Z" transform="translate(-760.539 -859.623)"/>
          </g>
          <path id="パス_4472" data-name="パス 4472" d="M812.206,925.428a.208.208,0,0,1-.211,0c-.573-.32-3.23-1.921-3.126-4.016.11-2.213,2.512-1.83,3.105-.74a.122.122,0,0,0,.22-.011,1.7,1.7,0,0,1,2.116-.874C815.364,920.187,816.437,922.806,812.206,925.428Z" transform="translate(-805.434 -915.423)" fill="#5479f7"/>
        </g>
        <g id="グループ_3361" data-name="グループ 3361" transform="translate(9.579 5.519)">
          <g id="グループ_3360" data-name="グループ 3360">
            <circle id="楕円形_120" data-name="楕円形 120" cx="6.5" cy="6.5" r="6.5" transform="translate(0.235 0.235)" fill="#fff"/>
            <path id="パス_4473" data-name="パス 4473" d="M860.771,440.142a6.735,6.735,0,1,1,6.735-6.735A6.743,6.743,0,0,1,860.771,440.142Zm0-13a6.265,6.265,0,1,0,6.265,6.265A6.272,6.272,0,0,0,860.771,427.141Z" transform="translate(-854.036 -426.671)"/>
          </g>
          <path id="パス_4474" data-name="パス 4474" d="M915.128,481.585l.152-5.824a.4.4,0,0,1,.588-.345l5.752,3.024a.4.4,0,0,1-.015.717l-5.9,2.8A.4.4,0,0,1,915.128,481.585Z" transform="translate(-910.791 -471.913)" fill="#5479f7"/>
        </g>
        <g id="グループ_3364" data-name="グループ 3364" transform="translate(0 19.025)">
          <g id="グループ_3362" data-name="グループ 3362">
            <circle id="楕円形_121" data-name="楕円形 121" cx="6.5" cy="6.5" r="6.5" transform="translate(0.235 0.235)" fill="#fff"/>
            <path id="パス_4475" data-name="パス 4475" d="M725.846,630.391a6.735,6.735,0,1,1,6.735-6.735A6.743,6.743,0,0,1,725.846,630.391Zm0-13a6.265,6.265,0,1,0,6.265,6.265A6.272,6.272,0,0,0,725.846,617.39Z" transform="translate(-719.111 -616.92)"/>
          </g>
          <g id="グループ_3363" data-name="グループ 3363" transform="translate(3.289 1.983)">
            <path id="パス_4476" data-name="パス 4476" d="M790.91,647.482a.235.235,0,0,1-.233-.2c-.2-1.483-1.043-1.984-1.708-1.953a1.753,1.753,0,0,0-1.541,1.854.235.235,0,0,1-.235.222h-.014a.235.235,0,0,1-.221-.249,2.205,2.205,0,0,1,1.992-2.3c.851-.033,1.948.564,2.193,2.36a.235.235,0,0,1-.2.265Z" transform="translate(-785.43 -644.853)" fill="#99b9ff"/>
            <path id="パス_4477" data-name="パス 4477" d="M786.885,651.178a.235.235,0,0,1-.233-.2c-.18-1.378-.853-1.842-1.426-1.826-.638.023-1.318.643-1.385,1.782a.235.235,0,0,1-.469-.027,2.124,2.124,0,0,1,1.837-2.225h.05c.735,0,1.643.581,1.86,2.236a.235.235,0,0,1-.2.264Z" transform="translate(-782.098 -648.405)" fill="#caddff"/>
            <path id="パス_4478" data-name="パス 4478" d="M772.129,677.135l-1.213,6.542a.317.317,0,0,0,.317.374l6.238-.12a.23.23,0,0,0,.22-.28L776.217,677Z" transform="translate(-770.521 -674.714)" fill="#99b9ff"/>
            <path id="パス_4479" data-name="パス 4479" d="M766.655,677.135l-1.213,6.542a.316.316,0,0,0,.317.374l6.238-.12a.23.23,0,0,0,.22-.28L770.743,677Z" transform="translate(-765.436 -674.714)" fill="#5479f7"/>
          </g>
        </g>
      </g>
    </g>
  </g>
</svg>
