<svg xmlns="http://www.w3.org/2000/svg" width="139.516" height="16.816" viewBox="0 0 139.516 16.816">
  <g id="グループ_6029" data-name="グループ 6029" transform="translate(-33.974 -23.928)">
    <path id="パス_1785" data-name="パス 1785" d="M1.19-15.652a8.6,8.6,0,0,1,1.094-4.339,7.809,7.809,0,0,1,2.987-2.987,8.475,8.475,0,0,1,4.245-1.07,8.351,8.351,0,0,1,4.821,1.411,7.378,7.378,0,0,1,2.893,3.9H13.443A3.924,3.924,0,0,0,11.856-20.5a4.659,4.659,0,0,0-2.364-.588,4.863,4.863,0,0,0-2.552.67A4.574,4.574,0,0,0,5.2-18.521a6.241,6.241,0,0,0-.623,2.869A6.26,6.26,0,0,0,5.2-12.795,4.559,4.559,0,0,0,6.94-10.89a4.863,4.863,0,0,0,2.552.67,4.587,4.587,0,0,0,2.364-.6,4,4,0,0,0,1.588-1.776H17.23a7.339,7.339,0,0,1-2.881,3.916,8.387,8.387,0,0,1-4.833,1.4,8.475,8.475,0,0,1-4.245-1.07,7.833,7.833,0,0,1-2.987-2.975A8.535,8.535,0,0,1,1.19-15.652Zm27.894,8.4A8.506,8.506,0,0,1,24.85-8.338a8.077,8.077,0,0,1-3.057-3,8.389,8.389,0,0,1-1.129-4.339,8.343,8.343,0,0,1,1.129-4.316,8.077,8.077,0,0,1,3.057-3,8.506,8.506,0,0,1,4.233-1.082,8.486,8.486,0,0,1,4.245,1.082,8.016,8.016,0,0,1,3.034,3,8.411,8.411,0,0,1,1.117,4.316,8.457,8.457,0,0,1-1.117,4.339,7.991,7.991,0,0,1-3.046,3A8.506,8.506,0,0,1,29.084-7.256Zm0-2.94a5.016,5.016,0,0,0,2.611-.67,4.6,4.6,0,0,0,1.764-1.917,6.29,6.29,0,0,0,.635-2.893,6.217,6.217,0,0,0-.635-2.881,4.533,4.533,0,0,0-1.764-1.893,5.086,5.086,0,0,0-2.611-.659,5.15,5.15,0,0,0-2.622.659,4.51,4.51,0,0,0-1.776,1.893,6.217,6.217,0,0,0-.635,2.881,6.29,6.29,0,0,0,.635,2.893,4.571,4.571,0,0,0,1.776,1.917A5.079,5.079,0,0,0,29.084-10.2ZM49.8-7.42l-3.622-6.4H44.63v6.4H41.337V-23.837H47.5a7.2,7.2,0,0,1,3.246.67,4.683,4.683,0,0,1,2.011,1.811,4.942,4.942,0,0,1,.67,2.552,4.888,4.888,0,0,1-.941,2.928,4.833,4.833,0,0,1-2.8,1.8L53.614-7.42ZM44.63-16.287h2.752a2.749,2.749,0,0,0,2-.647,2.407,2.407,0,0,0,.659-1.8,2.3,2.3,0,0,0-.659-1.752,2.816,2.816,0,0,0-2-.623H44.63Zm23.26,5.739H61.352L60.27-7.42H56.813l5.9-16.44H66.55l5.9,16.44H68.972ZM67-13.183,64.621-20.05l-2.375,6.868Zm21.05-5.574a5.112,5.112,0,0,1-.623,2.47,4.578,4.578,0,0,1-1.952,1.858,7.1,7.1,0,0,1-3.351.706H79.368v6.3H76.075V-23.837h6.044a7.3,7.3,0,0,1,3.246.659,4.587,4.587,0,0,1,2.011,1.811A5.1,5.1,0,0,1,88.046-18.757Zm-6.068,2.375A2.853,2.853,0,0,0,84-17a2.3,2.3,0,0,0,.659-1.752q0-2.4-2.681-2.4H79.368v4.774Zm13.053-7.456v10.16a3.483,3.483,0,0,0,.87,2.552,3.282,3.282,0,0,0,2.446.882,3.314,3.314,0,0,0,2.47-.882,3.483,3.483,0,0,0,.87-2.552v-10.16H105V-13.7a6.544,6.544,0,0,1-.905,3.54,5.743,5.743,0,0,1-2.422,2.176,7.69,7.69,0,0,1-3.375.729,7.485,7.485,0,0,1-3.328-.729,5.551,5.551,0,0,1-2.364-2.176,6.75,6.75,0,0,1-.87-3.54V-23.837ZM118.057-7.42l-3.622-6.4h-1.552v6.4H109.59V-23.837h6.162a7.2,7.2,0,0,1,3.246.67,4.683,4.683,0,0,1,2.011,1.811,4.942,4.942,0,0,1,.67,2.552,4.888,4.888,0,0,1-.941,2.928,4.833,4.833,0,0,1-2.8,1.8l3.928,6.656Zm-5.174-8.867h2.752a2.749,2.749,0,0,0,2-.647,2.407,2.407,0,0,0,.659-1.8,2.3,2.3,0,0,0-.659-1.752,2.816,2.816,0,0,0-2-.623h-2.752Zm23.26,5.739H129.6L128.523-7.42h-3.457l5.9-16.44H134.8l5.9,16.44h-3.481Zm-.894-2.634-2.375-6.868L130.5-13.183Z" transform="translate(32.784 48)" fill="#333"/>
  </g>
</svg>
