<svg xmlns="http://www.w3.org/2000/svg" width="276.838" height="19.285" viewBox="0 0 276.838 19.285">
  <g id="グループ_671" data-name="グループ 671" transform="translate(-380 -2703)">
    <path id="パス_33211" data-name="パス 33211" d="M-55.278-12.348l.234,2.466c2.088-.45,5.76-.846,7.452-1.026a7.2,7.2,0,0,0-2.682,5.562c0,3.906,3.564,5.922,7.344,6.174l.846-2.466c-3.06-.162-5.832-1.224-5.832-4.194a5.47,5.47,0,0,1,3.816-5.04,18.7,18.7,0,0,1,3.474-.252l-.018-2.3c-1.278.054-3.24.162-5.094.324-3.294.27-6.264.54-7.776.666C-53.856-12.4-54.558-12.366-55.278-12.348ZM-43.2-9.36l-1.332.558a13.888,13.888,0,0,1,1.4,2.5l1.368-.612A22.342,22.342,0,0,0-43.2-9.36Zm2.016-.828-1.314.612a15.835,15.835,0,0,1,1.476,2.43l1.35-.648A26.926,26.926,0,0,0-41.184-10.188Zm4.986-2.16.234,2.466c2.088-.45,5.76-.846,7.452-1.026a7.2,7.2,0,0,0-2.682,5.562c0,3.906,3.564,5.922,7.344,6.174L-23-1.638c-3.06-.162-5.832-1.224-5.832-4.194a5.47,5.47,0,0,1,3.816-5.04,18.7,18.7,0,0,1,3.474-.252l-.018-2.3c-1.278.054-3.24.162-5.094.324-3.294.27-6.264.54-7.776.666C-34.776-12.4-35.478-12.366-36.2-12.348ZM-24.12-9.36l-1.332.558a13.888,13.888,0,0,1,1.4,2.5l1.368-.612A22.342,22.342,0,0,0-24.12-9.36Zm2.016-.828-1.314.612a15.835,15.835,0,0,1,1.476,2.43l1.35-.648A26.925,26.925,0,0,0-22.1-10.188Zm6.372,1.044.126,2.124A66.94,66.94,0,0,0-7.776-7c.288.612.63,1.242,1.008,1.872-.54-.054-1.512-.144-2.268-.216l-.18,1.71c1.314.144,3.258.378,4.266.576l1.1-1.656a5.487,5.487,0,0,1-.81-.918,16.381,16.381,0,0,1-.936-1.6,24.119,24.119,0,0,0,2.88-.558l-.36-2.124a23.238,23.238,0,0,1-3.438.72c-.108-.288-.216-.558-.306-.81-.09-.27-.18-.558-.27-.846A26.241,26.241,0,0,0-3.78-11.52l-.288-2.07a20.688,20.688,0,0,1-3.546.774q-.189-.918-.324-1.89l-2.412.27c.216.63.4,1.206.576,1.782a37.442,37.442,0,0,1-5.634-.27l.126,2.07a42.085,42.085,0,0,0,6.066.162c.108.306.216.648.36,1.062.072.2.144.414.234.63A46.126,46.126,0,0,1-15.732-9.144Zm3.456,4.176L-14.508-5.4a5.977,5.977,0,0,0-.774,2.9c.036,2.574,2.268,3.636,5.868,3.636A27.647,27.647,0,0,0-5.04.792l.126-2.286a23.691,23.691,0,0,1-4.518.4c-2.376,0-3.636-.54-3.636-1.872A3.378,3.378,0,0,1-12.276-4.968ZM7.38-2.124c0-.45.432-.864,1.116-.864.972,0,1.638.756,1.746,1.926A9.4,9.4,0,0,1,9.2-1.008C8.118-1.008,7.38-1.458,7.38-2.124ZM4.32-13.716l.072,2.34c.414-.054.99-.108,1.476-.144.954-.054,3.438-.162,4.356-.18-.882.774-2.754,2.286-3.762,3.114C5.4-7.7,3.222-5.868,1.944-4.842L3.582-3.15C5.508-5.346,7.308-6.8,10.062-6.8c2.124,0,3.744,1.1,3.744,2.718a2.609,2.609,0,0,1-1.494,2.448A3.6,3.6,0,0,0,8.478-4.716,3.016,3.016,0,0,0,5.256-1.908c0,1.8,1.89,2.952,4.392,2.952,4.356,0,6.516-2.25,6.516-5.094,0-2.628-2.322-4.536-5.382-4.536a7.032,7.032,0,0,0-1.71.2c1.134-.9,3.024-2.484,4-3.168.414-.306.846-.558,1.26-.828l-1.17-1.6a7.865,7.865,0,0,1-1.368.2c-1.026.09-4.878.162-5.832.162A12.491,12.491,0,0,1,4.32-13.716Zm19.044.63v2.376c1.458.126,3.024.2,4.914.2,1.71,0,3.942-.108,5.2-.216v-2.394c-1.386.144-3.438.252-5.22.252A47.219,47.219,0,0,1,23.364-13.086Zm1.512,7.632L22.518-5.67a11.644,11.644,0,0,0-.36,2.592c0,2.466,2.07,3.852,6.192,3.852A27.737,27.737,0,0,0,34.6.162l-.018-2.538a24.715,24.715,0,0,1-6.318.72c-2.592,0-3.69-.828-3.69-1.98A6.632,6.632,0,0,1,24.876-5.454ZM44.46-14.346l-2.25.918c.81,1.908,1.674,3.834,2.5,5.364-1.728,1.278-2.988,2.772-2.988,4.752,0,3.1,2.718,4.086,6.3,4.086A33.429,33.429,0,0,0,53.8.324l.036-2.592a27.788,27.788,0,0,1-5.886.666c-2.5,0-3.744-.684-3.744-1.98,0-1.26,1.008-2.286,2.5-3.276a53.28,53.28,0,0,1,5.022-2.664c.666-.342,1.242-.648,1.782-.972l-1.242-2.088a11.248,11.248,0,0,1-1.674,1.1c-.846.486-2.412,1.26-3.888,2.124A42.757,42.757,0,0,1,44.46-14.346Z" transform="translate(603 2721)" fill="#333"/>
    <g id="グループ_668" data-name="グループ 668" transform="translate(345.957 2679.072)">
      <path id="パス_1836" data-name="パス 1836" d="M1.19-14.416a9.862,9.862,0,0,1,1.254-4.976A8.956,8.956,0,0,1,5.87-22.818a9.72,9.72,0,0,1,4.869-1.227,9.577,9.577,0,0,1,5.529,1.618,8.462,8.462,0,0,1,3.318,4.477H15.243a4.5,4.5,0,0,0-1.821-2.023,5.343,5.343,0,0,0-2.711-.674,5.577,5.577,0,0,0-2.926.769,5.246,5.246,0,0,0-2,2.171,7.158,7.158,0,0,0-.715,3.291,7.179,7.179,0,0,0,.715,3.277,5.228,5.228,0,0,0,2,2.185,5.577,5.577,0,0,0,2.926.769,5.26,5.26,0,0,0,2.711-.688,4.582,4.582,0,0,0,1.821-2.036h4.343a8.416,8.416,0,0,1-3.3,4.491,9.618,9.618,0,0,1-5.543,1.6A9.72,9.72,0,0,1,5.87-6.041,8.983,8.983,0,0,1,2.444-9.453,9.788,9.788,0,0,1,1.19-14.416ZM33.179-4.787a9.754,9.754,0,0,1-4.855-1.241,9.263,9.263,0,0,1-3.506-3.439,9.62,9.62,0,0,1-1.295-4.976,9.568,9.568,0,0,1,1.295-4.949,9.263,9.263,0,0,1,3.506-3.439,9.754,9.754,0,0,1,4.855-1.241,9.732,9.732,0,0,1,4.869,1.241,9.192,9.192,0,0,1,3.479,3.439,9.647,9.647,0,0,1,1.281,4.949,9.7,9.7,0,0,1-1.281,4.976,9.165,9.165,0,0,1-3.493,3.439A9.754,9.754,0,0,1,33.179-4.787Zm0-3.372a5.752,5.752,0,0,0,2.994-.769,5.27,5.27,0,0,0,2.023-2.2,7.213,7.213,0,0,0,.728-3.318,7.13,7.13,0,0,0-.728-3.3,5.2,5.2,0,0,0-2.023-2.171,5.832,5.832,0,0,0-2.994-.755,5.906,5.906,0,0,0-3.007.755,5.172,5.172,0,0,0-2.036,2.171,7.13,7.13,0,0,0-.728,3.3,7.213,7.213,0,0,0,.728,3.318,5.242,5.242,0,0,0,2.036,2.2A5.824,5.824,0,0,0,33.179-8.158ZM56.942-4.976l-4.154-7.336h-1.78v7.336H47.232V-23.8H54.3a8.252,8.252,0,0,1,3.722.769,5.37,5.37,0,0,1,2.306,2.077A5.668,5.668,0,0,1,61.1-18.03a5.606,5.606,0,0,1-1.079,3.358,5.543,5.543,0,0,1-3.21,2.063l4.5,7.633ZM51.008-15.144h3.156a3.153,3.153,0,0,0,2.293-.742,2.76,2.76,0,0,0,.755-2.063,2.634,2.634,0,0,0-.755-2.009,3.229,3.229,0,0,0-2.293-.715H51.008ZM77.684-8.563h-7.5L68.945-4.976H64.98l6.77-18.854h4.4l6.77,18.854H78.924Zm-1.025-3.021L73.934-19.46,71.21-11.584Zm24.14-6.392a5.863,5.863,0,0,1-.715,2.832,5.25,5.25,0,0,1-2.239,2.131A8.143,8.143,0,0,1,94-12.2H90.846v7.229H87.07V-23.8H94a8.377,8.377,0,0,1,3.722.755,5.261,5.261,0,0,1,2.306,2.077A5.844,5.844,0,0,1,100.8-17.976ZM93.84-15.252a3.272,3.272,0,0,0,2.32-.715,2.634,2.634,0,0,0,.755-2.009q0-2.751-3.075-2.751H90.846v5.475Zm14.97-8.55V-12.15a4,4,0,0,0,1,2.926,3.763,3.763,0,0,0,2.805,1.011,3.8,3.8,0,0,0,2.832-1.011,4,4,0,0,0,1-2.926V-23.8h3.8v11.625a7.5,7.5,0,0,1-1.038,4.059,6.586,6.586,0,0,1-2.778,2.495,8.819,8.819,0,0,1-3.871.836,8.583,8.583,0,0,1-3.817-.836,6.366,6.366,0,0,1-2.711-2.495,7.742,7.742,0,0,1-1-4.059V-23.8ZM135.216-4.976l-4.154-7.336h-1.78v7.336h-3.776V-23.8h7.067a8.252,8.252,0,0,1,3.722.769,5.37,5.37,0,0,1,2.306,2.077,5.668,5.668,0,0,1,.769,2.927,5.606,5.606,0,0,1-1.079,3.358,5.543,5.543,0,0,1-3.21,2.063l4.5,7.633Zm-5.934-10.169h3.156a3.153,3.153,0,0,0,2.293-.742,2.76,2.76,0,0,0,.755-2.063,2.634,2.634,0,0,0-.755-2.009,3.229,3.229,0,0,0-2.293-.715h-3.156Zm26.676,6.581h-7.5l-1.241,3.587h-3.965l6.77-18.854h4.4l6.77,18.854H157.2Zm-1.025-3.021-2.724-7.876-2.724,7.876Z" transform="translate(32.853 48)" fill="#333"/>
    </g>
  </g>
</svg>
