<svg xmlns="http://www.w3.org/2000/svg" width="130" height="128.829" viewBox="0 0 130 128.829">
  <g id="グループ_5633" data-name="グループ 5633" transform="translate(-2518.636 -3161.189)">
    <g id="Social_network_monitoring" data-name="Social network monitoring" transform="translate(2518.636 3161.189)">
      <path id="パス_5261" data-name="パス 5261" d="M333.892,451.752c3.793,9.224,12.659,13.587,18.325,16.375q1.851.911,3.8,1.708c1.067.436,2.315.606,3.423.989,1.274.441,2.413,1.085,3.735,1.455q2.9.811,5.944,1.388c1.963.372,3.944.3,5.972.519,1.286.139,2.6.615,3.908.69,18.119,1.046,38.021-4.059,53.9-17.1,5.716-4.692,33.89-29.272,27.333-62.556-5.8-29.423-34.962-46.492-59.525-48.76-20.349-1.879-46.925,5.548-56.319,23.5-5.907,11.287,1.189,14.872-3.642,40.447C336.572,432.544,329.252,440.469,333.892,451.752Z" transform="translate(-332.404 -346.179)" fill="#caddff"/>
      <g id="グループ_3906" data-name="グループ 3906" transform="translate(51.305 32.529)">
        <g id="グループ_3904" data-name="グループ 3904" transform="translate(0 0)">
          <path id="パス_5262" data-name="パス 5262" d="M1139.245,900.99h-43.488a3.375,3.375,0,0,1-3.35-3.4l4.24-89.455a3.375,3.375,0,0,1,3.35-3.4h43.488a3.375,3.375,0,0,1,3.35,3.4l-4.24,89.455A3.375,3.375,0,0,1,1139.245,900.99Z" transform="translate(-1089.758 -804.712)"/>
          <g id="グループ_3903" data-name="グループ 3903">
            <path id="パス_5263" data-name="パス 5263" d="M1105.224,903.511h-43.489a3.367,3.367,0,0,1-3.35-3.384l4.24-89.063a3.367,3.367,0,0,1,3.35-3.384h43.488a3.367,3.367,0,0,1,3.35,3.384l-4.24,89.063A3.367,3.367,0,0,1,1105.224,903.511Z" transform="translate(-1058.151 -807.445)" fill="#fff"/>
            <path id="パス_5264" data-name="パス 5264" d="M1102.168,900.688h-43.488a3.6,3.6,0,0,1-3.583-3.618l4.24-89.074a3.6,3.6,0,0,1,3.583-3.607h43.488a3.605,3.605,0,0,1,3.584,3.618l-4.24,89.074A3.6,3.6,0,0,1,1102.168,900.688Zm-39.248-95.832a3.137,3.137,0,0,0-3.116,3.151l-4.24,89.074a3.135,3.135,0,0,0,3.117,3.14h43.488a3.137,3.137,0,0,0,3.116-3.151l4.24-89.074a3.135,3.135,0,0,0-3.117-3.14Z" transform="translate(-1055.096 -804.389)"/>
          </g>
          <path id="パス_5265" data-name="パス 5265" d="M1341.787,805.016l1.049,1.562a3.43,3.43,0,0,0,2.847,1.518h10.59a3.43,3.43,0,0,0,2.808-1.46l1.136-1.619Z" transform="translate(-1321.435 -804.971)"/>
        </g>
        <g id="グループ_3905" data-name="グループ 3905" transform="translate(6.793 68.572)">
          <path id="パス_5266" data-name="パス 5266" d="M1191.117,1772.373h-30.453a1.035,1.035,0,0,1-1.034-1.034h0a1.035,1.035,0,0,1,1.034-1.035h30.453a1.035,1.035,0,0,1,1.034,1.035h0A1.035,1.035,0,0,1,1191.117,1772.373Z" transform="translate(-1159.002 -1770.304)" fill="#caddff"/>
          <rect id="長方形_9888" data-name="長方形 9888" width="39.231" height="2.069" rx="1.034" transform="translate(0.138 5.699)" fill="#caddff"/>
          <rect id="長方形_9889" data-name="長方形 9889" width="22.25" height="2.069" rx="1.034" transform="translate(0 11.904)" fill="#caddff"/>
        </g>
      </g>
      <g id="グループ_3908" data-name="グループ 3908" transform="translate(46.557 28.444)">
        <path id="パス_5267" data-name="パス 5267" d="M994.677,762.3a10.709,10.709,0,1,1,10.709,10.718A10.714,10.714,0,0,1,994.677,762.3Z" transform="translate(-994.219 -751.247)" fill="#fff"/>
        <path id="パス_5268" data-name="パス 5268" d="M1039.334,998.21a10.761,10.761,0,0,0,14.779,0,25.823,25.823,0,0,0-14.779,0Z" transform="translate(-1035.705 -979.362)" fill="#99b9ff"/>
        <g id="グループ_3907" data-name="グループ 3907" transform="translate(6.25 4.314)">
          <path id="パス_5269" data-name="パス 5269" d="M1084.477,808.089a3,3,0,0,0-1.628-.479h-3.4a3.007,3.007,0,0,0-2.046.8l-.186.173a3.006,3.006,0,0,0-.783,3.222l1.117,3.1,7.166-.045,1.011-3.389A3.007,3.007,0,0,0,1084.477,808.089Z" transform="translate(-1076.257 -807.61)"/>
          <path id="パス_5270" data-name="パス 5270" d="M1099.227,833.746l-.007,0-5.241,3.36v1.95a3.619,3.619,0,0,0,1.377,2.843v3.07a2.2,2.2,0,0,0,4.395,0v-2.986a3.622,3.622,0,0,0,1.484-2.926v-2.137A3.507,3.507,0,0,0,1099.227,833.746Z" transform="translate(-1092.721 -831.888)" fill="#fff"/>
          <path id="パス_5271" data-name="パス 5271" d="M1112.517,954.925a2.434,2.434,0,0,1-2.431-2.431v-3.006h.467v3.006a1.964,1.964,0,0,0,3.927,0v-2.911h.467v2.911A2.433,2.433,0,0,1,1112.517,954.925Z" transform="translate(-1107.684 -939.417)"/>
          <path id="パス_5272" data-name="パス 5272" d="M1094.55,835.506a.233.233,0,1,1,0-.467,3.4,3.4,0,0,0,3.394-3.394v-2.137a3.276,3.276,0,0,0-3.273-3.273h-3.515v5.409a3.4,3.4,0,0,0,1.989,3.091.234.234,0,0,1-.194.425,3.872,3.872,0,0,1-2.263-3.516V826a.234.234,0,0,1,.234-.233h3.749a3.744,3.744,0,0,1,3.74,3.74v2.137A3.865,3.865,0,0,1,1094.55,835.506Z" transform="translate(-1089.664 -824.48)"/>
        </g>
        <path id="パス_5273" data-name="パス 5273" d="M999.22,768.854a11,11,0,0,1-8.125-18.426.233.233,0,1,1,.344.315,10.539,10.539,0,1,0,7.28-3.417.234.234,0,0,1-.022-.467,11,11,0,1,1,.523,21.994Z" transform="translate(-988.219 -746.848)"/>
      </g>
      <g id="グループ_3910" data-name="グループ 3910" transform="translate(101.354 41.654)">
        <path id="パス_5274" data-name="パス 5274" d="M1763.389,943.385a7.167,7.167,0,1,1,7.167,7.172,7.169,7.169,0,0,1-7.167-7.172Z" transform="translate(-1763.156 -935.978)" fill="#fff"/>
        <path id="パス_5275" data-name="パス 5275" d="M1767.5,947.734a7.412,7.412,0,0,1-6.953-9.947.234.234,0,0,1,.439.16,6.944,6.944,0,1,0,1.158-2.025.234.234,0,0,1-.361-.3,7.4,7.4,0,1,1,5.718,12.108Z" transform="translate(-1760.1 -932.922)"/>
        <path id="パス_5276" data-name="パス 5276" d="M1795.089,1101.313a7.155,7.155,0,0,0,9.833,0,17.167,17.167,0,0,0-9.833,0Z" transform="translate(-1792.605 -1088.691)" fill="#99b9ff"/>
        <path id="パス_5277" data-name="パス 5277" d="M1850.137,1027.312h0a1.132,1.132,0,0,1-1.131-1.132v-5.773h2.262v5.773a1.132,1.132,0,0,1-1.131,1.132Z" transform="translate(-1842.694 -1014.196)" fill="#fff"/>
        <path id="パス_5278" data-name="パス 5278" d="M1787.073,970.369c-.142-1.793.648-2.912-1.123-4.938-1.834-2.1-3.408-.691-3.408-.691s-1.312-1.09-3.033,1.189c-1.52,2.012.427,3.814-.228,5.066s-2.872,1.935-2.872,1.935A6.622,6.622,0,0,0,1778,974.98h9.356s1.934-2.106,1.934-2.7C1789.291,972.276,1787.215,972.162,1787.073,970.369Z" transform="translate(-1775.25 -962.052)"/>
        <g id="グループ_3909" data-name="グループ 3909" transform="translate(2.033 11.67)">
          <path id="パス_5279" data-name="パス 5279" d="M1795.089,1101.313a7.155,7.155,0,0,0,9.833,0,17.167,17.167,0,0,0-9.833,0Z" transform="translate(-1794.638 -1100.36)" fill="#99b9ff"/>
          <path id="パス_5280" data-name="パス 5280" d="M1794.1,1100.448a7.366,7.366,0,0,1-5.076-2.02l-.291-.274.382-.118a17.4,17.4,0,0,1,9.971,0l.382.118-.291.274A7.365,7.365,0,0,1,1794.1,1100.448Zm-4.447-2.085a6.921,6.921,0,0,0,8.894,0,17.035,17.035,0,0,0-8.894,0Z" transform="translate(-1788.737 -1097.305)"/>
        </g>
        <path id="パス_5281" data-name="パス 5281" d="M1835.337,993.948h-.079l-2.3,2.316v1.27a2.3,2.3,0,0,0,1.139,1.988v2.077a1.131,1.131,0,1,0,2.262,0v-2.038a2.305,2.305,0,0,0,1.205-2.027v-1.358A2.227,2.227,0,0,0,1835.337,993.948Z" transform="translate(-1827.784 -989.616)" fill="#fff"/>
        <path id="パス_5282" data-name="パス 5282" d="M1847.082,1073.685a1.367,1.367,0,0,1-1.365-1.366v-2.013a.234.234,0,0,1,.467,0v2.013a.9.9,0,1,0,1.8,0v-1.979a.234.234,0,0,1,.467,0v1.979A1.367,1.367,0,0,1,1847.082,1073.685Z" transform="translate(-1839.639 -1060.336)"/>
        <path id="パス_5283" data-name="パス 5283" d="M1832.2,997.017a.234.234,0,1,1,0-.467,2.073,2.073,0,0,0,2.07-2.072V993.12a1.989,1.989,0,0,0-1.9-1.993l-2.241,2.217v1.134a2.078,2.078,0,0,0,1.214,1.887.234.234,0,0,1-.194.425,2.546,2.546,0,0,1-1.487-2.312v-1.231a.234.234,0,0,1,.069-.166l2.381-2.355a.233.233,0,0,1,.164-.068l.108,0a2.455,2.455,0,0,1,2.352,2.459v1.358A2.541,2.541,0,0,1,1832.2,997.017Z" transform="translate(-1824.727 -986.559)"/>
      </g>
      <g id="グループ_3912" data-name="グループ 3912" transform="translate(111.667 23.124)">
        <path id="パス_5284" data-name="パス 5284" d="M1911.18,685.2a8.881,8.881,0,1,1,8.881,8.888,8.884,8.884,0,0,1-8.881-8.888Z" transform="translate(-1910.768 -675.997)" fill="#fff"/>
        <path id="パス_5285" data-name="パス 5285" d="M1948.214,880.833a8.924,8.924,0,0,0,12.256,0,21.413,21.413,0,0,0-12.256,0Z" transform="translate(-1945.172 -865.169)" fill="#5479f7"/>
        <g id="グループ_3911" data-name="グループ 3911" transform="translate(5.215 3.611)">
          <path id="パス_5286" data-name="パス 5286" d="M1985.65,723.169a2.493,2.493,0,0,0-1.35-.4h-2.819a2.492,2.492,0,0,0-1.7.666l-.155.143a2.493,2.493,0,0,0-.649,2.672l.927,2.572,5.942-.037.839-2.81A2.494,2.494,0,0,0,1985.65,723.169Z" transform="translate(-1978.834 -722.772)"/>
          <path id="パス_5287" data-name="パス 5287" d="M1997.833,743.94l-.038-.017-4.265,2.77v1.671a3,3,0,0,0,1.142,2.357v2.546a1.822,1.822,0,0,0,3.645,0v-2.48a3,3,0,0,0,1.23-2.423v-1.772A2.909,2.909,0,0,0,1997.833,743.94Z" transform="translate(-1992.487 -742.421)" fill="#fff"/>
          <path id="パス_5288" data-name="パス 5288" d="M1993.483,745.423a.234.234,0,0,1,0-.467,2.778,2.778,0,0,0,2.775-2.775v-1.772a2.677,2.677,0,0,0-2.674-2.674h-2.875v4.446a2.783,2.783,0,0,0,1.626,2.527.234.234,0,1,1-.193.425,3.251,3.251,0,0,1-1.9-2.952V737.5a.234.234,0,0,1,.234-.234h3.109a3.145,3.145,0,0,1,3.141,3.141v1.772A3.245,3.245,0,0,1,1993.483,745.423Z" transform="translate(-1989.431 -736.239)"/>
        </g>
        <path id="パス_5289" data-name="パス 5289" d="M1914.539,690.228a9.165,9.165,0,1,1,6.085-16.018.234.234,0,0,1-.311.349,8.7,8.7,0,1,0,2.908,5.968.233.233,0,1,1,.466-.029,9.16,9.16,0,0,1-9.148,9.73Z" transform="translate(-1905.372 -671.905)"/>
        <path id="パス_5290" data-name="パス 5290" d="M2008.38,841.227a2.058,2.058,0,0,1-2.056-2.056v-2.546a.234.234,0,0,1,.467,0v2.546a1.589,1.589,0,1,0,3.177,0v-2.416a.234.234,0,1,1,.467,0v2.416A2.058,2.058,0,0,1,2008.38,841.227Z" transform="translate(-1999.158 -824.715)"/>
      </g>
      <g id="グループ_3914" data-name="グループ 3914" transform="translate(29.797 13.142)">
        <path id="パス_5291" data-name="パス 5291" d="M757.6,543.462a7.873,7.873,0,1,1,7.873,7.88,7.876,7.876,0,0,1-7.873-7.88Z" transform="translate(-757.216 -535.278)" fill="#fff"/>
        <path id="パス_5292" data-name="パス 5292" d="M790.435,716.9a7.911,7.911,0,0,0,10.865,0,18.985,18.985,0,0,0-10.865,0Z" transform="translate(-787.716 -702.983)" fill="#5479f7"/>
        <g id="グループ_3913" data-name="グループ 3913" transform="translate(4.646 3.228)">
          <path id="パス_5293" data-name="パス 5293" d="M823.623,577.123a2.209,2.209,0,0,0-1.2-.352h-2.5a2.21,2.21,0,0,0-1.5.591l-.137.127a2.21,2.21,0,0,0-.575,2.369l.822,2.28,5.268-.033.743-2.492A2.211,2.211,0,0,0,823.623,577.123Z" transform="translate(-817.58 -576.771)"/>
          <path id="パス_5294" data-name="パス 5294" d="M834.424,595.538l-.034-.015-3.781,2.456v1.481a2.661,2.661,0,0,0,1.012,2.09v2.257a1.615,1.615,0,0,0,3.231,0v-2.2a2.66,2.66,0,0,0,1.091-2.148v-1.571A2.578,2.578,0,0,0,834.424,595.538Z" transform="translate(-829.684 -594.192)" fill="#fff"/>
          <path id="パス_5295" data-name="パス 5295" d="M830.219,596.534a.234.234,0,0,1,0-.467,2.436,2.436,0,0,0,2.433-2.433v-1.571a2.347,2.347,0,0,0-2.344-2.344h-2.523v3.915a2.44,2.44,0,0,0,1.426,2.216.234.234,0,0,1-.194.425,2.908,2.908,0,0,1-1.7-2.641v-4.149a.233.233,0,0,1,.234-.234h2.756a2.814,2.814,0,0,1,2.811,2.811v1.571A2.9,2.9,0,0,1,830.219,596.534Z" transform="translate(-826.628 -588.365)"/>
        </g>
        <path id="パス_5296" data-name="パス 5296" d="M760.283,547.6a8.151,8.151,0,1,1,5.412-14.246.234.234,0,1,1-.31.349,7.686,7.686,0,1,0,2.569,5.273.234.234,0,0,1,.466-.029,8.147,8.147,0,0,1-8.137,8.654Z" transform="translate(-752.134 -531.305)"/>
        <path id="パス_5297" data-name="パス 5297" d="M843.427,681.464a1.851,1.851,0,0,1-1.849-1.849v-2.257a.234.234,0,1,1,.467,0v2.257a1.382,1.382,0,0,0,2.764,0v-2.142a.234.234,0,1,1,.467,0v2.142A1.851,1.851,0,0,1,843.427,681.464Z" transform="translate(-835.228 -666.773)"/>
      </g>
      <g id="グループ_3928" data-name="グループ 3928" transform="translate(5.07 48.496)">
        <g id="グループ_3918" data-name="グループ 3918" transform="translate(65.263 0)">
          <path id="パス_5298" data-name="パス 5298" d="M1334.756,1035.945a13.285,13.285,0,0,0-1.144,22.191l-3.339,4.59a.729.729,0,0,0,1.179.857l3.383-4.65a13.251,13.251,0,0,0,10.672,1.139c6.989-2.235,10.952-10.493,8.607-16.7-1.83-4.846-3.888-6.655-7.7-8.314C1340.593,1032.524,1334.756,1035.945,1334.756,1035.945Z" transform="translate(-1327.813 -1033.781)" fill="#fff"/>
          <g id="グループ_3915" data-name="グループ 3915" transform="translate(3.916 20.13)">
            <path id="パス_5299" data-name="パス 5299" d="M1384.638,1317.412a13.109,13.109,0,0,0,18,.094,31.455,31.455,0,0,0-18-.094Z" transform="translate(-1384.187 -1315.91)" fill="#5479f7"/>
            <path id="パス_5300" data-name="パス 5300" d="M1387.794,1318.215h-.071a13.3,13.3,0,0,1-9.143-3.691l-.289-.276.383-.116a31.689,31.689,0,0,1,18.141.095l.382.12-.292.273A13.3,13.3,0,0,1,1387.794,1318.215Zm-8.592-3.753a12.831,12.831,0,0,0,8.524,3.286h.069a12.83,12.83,0,0,0,8.489-3.2,31.327,31.327,0,0,0-17.081-.09Z" transform="translate(-1378.291 -1312.852)"/>
          </g>
          <g id="グループ_3917" data-name="グループ 3917" transform="translate(5.874 3.852)">
            <g id="グループ_3916" data-name="グループ 3916">
              <path id="パス_5301" data-name="パス 5301" d="M1421.035,1092.448c-1.141-4.111-3.494-9.5-7.906-8.838-4.233.636-6.225,5.28-7.14,8.879a3.486,3.486,0,0,0,3.373,4.328l8.286.044A3.489,3.489,0,0,0,1421.035,1092.448Z" transform="translate(-1405.88 -1083.555)"/>
              <path id="パス_5302" data-name="パス 5302" d="M1467.14,1140.445l-.006-.029-7.523-.057-.005.018a4.719,4.719,0,0,0-.155,1.179l-.012,2.2a4.314,4.314,0,0,0,1.734,3.534l-.03,5.749a2.071,2.071,0,1,0,4.142.022l.03-5.665a4.3,4.3,0,0,0,1.893-3.6l.013-2.484A4.42,4.42,0,0,0,1467.14,1140.445Z" transform="translate(-1455.637 -1136.326)" fill="#fff"/>
              <path id="パス_5303" data-name="パス 5303" d="M1482.458,1245.267h-.013a2.3,2.3,0,0,1-2.293-2.317l.029-5.578a.233.233,0,0,1,.234-.232h0a.234.234,0,0,1,.233.235l-.029,5.578a1.837,1.837,0,0,0,1.828,1.847h.01a1.837,1.837,0,0,0,1.837-1.828l.029-5.6a.234.234,0,0,1,.234-.232h0a.234.234,0,0,1,.232.235l-.029,5.6a2.3,2.3,0,0,1-2.3,2.292Z" transform="translate(-1474.88 -1226.237)"/>
              <path id="パス_5304" data-name="パス 5304" d="M1496.828,1200.759h-.009a1.742,1.742,0,0,1-1.263-.553.234.234,0,1,1,.342-.318,1.256,1.256,0,0,0,.923.4h.006a1.262,1.262,0,0,0,.924-.4.234.234,0,1,1,.339.321A1.725,1.725,0,0,1,1496.828,1200.759Z" transform="translate(-1489.132 -1191.56)"/>
              <path id="パス_5305" data-name="パス 5305" d="M1460.265,1104.075h-.021a.234.234,0,0,1,0-.467h.019a3.481,3.481,0,0,0,2.563-1.146,4.147,4.147,0,0,0,1.091-2.819l.013-2.484a3.7,3.7,0,0,0-3.5-3.862,3.62,3.62,0,0,0-2.673,1.188,4.292,4.292,0,0,0-1.129,2.918l-.012,2.2a4.029,4.029,0,0,0,2.127,3.643.234.234,0,0,1-.209.418,4.5,4.5,0,0,1-2.385-4.063l.012-2.2a4.759,4.759,0,0,1,1.255-3.234,4.075,4.075,0,0,1,3.017-1.336,4.164,4.164,0,0,1,3.965,4.331l-.013,2.484a4.612,4.612,0,0,1-1.216,3.135A3.943,3.943,0,0,1,1460.265,1104.075Z" transform="translate(-1452.581 -1092.171)"/>
            </g>
          </g>
          <path id="パス_5306" data-name="パス 5306" d="M1342.3,1035.914a13.045,13.045,0,0,0-13.045,13.045,13.364,13.364,0,0,0,5.412,10.673l1.338.753a13.045,13.045,0,1,0,6.295-24.471Zm0,24.605a11.56,11.56,0,1,1,11.56-11.56A11.56,11.56,0,0,1,1342.3,1060.519Z" transform="translate(-1328.823 -1035.444)" fill="#fff"/>
          <path id="パス_5307" data-name="パス 5307" d="M1326.249,1059.647a.962.962,0,0,1-.783-1.519l3.148-4.442a13.41,13.41,0,0,1-4.785-6.59,13.523,13.523,0,0,1,5.859-15.866.234.234,0,0,1,.24.4,13.13,13.13,0,0,0-5.656,15.318,12.951,12.951,0,0,0,4.8,6.494.233.233,0,0,1,.055.325l-3.282,4.631a.5.5,0,1,0,.808.573l3.325-4.691a.234.234,0,0,1,.3-.069,13.052,13.052,0,1,0,2.24-23.774.234.234,0,0,1-.148-.443,13.519,13.519,0,1,1-2.136,24.725l-3.2,4.521a.966.966,0,0,1-.787.406Zm10.393-5.054a11.771,11.771,0,1,1,11.487-9.161.234.234,0,0,1-.455-.1,11.309,11.309,0,1,0-1.335,3.315.234.234,0,1,1,.4.24,11.8,11.8,0,0,1-10.1,5.71Z" transform="translate(-1323.136 -1029.299)"/>
        </g>
        <g id="グループ_3927" data-name="グループ 3927" transform="translate(0 1.324)">
          <g id="グループ_3924" data-name="グループ 3924" transform="translate(0 20.61)">
            <g id="グループ_3920" data-name="グループ 3920" transform="translate(0 24.188)">
              <g id="グループ_3919" data-name="グループ 3919">
                <path id="パス_5308" data-name="パス 5308" d="M429.846,1686.161c-.883,0-6.432-.161-9.462-3.841a.1.1,0,0,0-.147-.006c-.671.7-5.714,5.639-13.012,4.976a.1.1,0,0,0-.093.15,14.133,14.133,0,0,0,3.195,3.484,13.736,13.736,0,0,1,3.16,3.374.1.1,0,0,0,.087.044c.738-.042,8.5-.562,13.21-3.949a7.484,7.484,0,0,0,3.158-4.111A.1.1,0,0,0,429.846,1686.161Z" transform="translate(-406.882 -1682.051)" fill="#fff"/>
                <path id="パス_5309" data-name="パス 5309" d="M410.51,1691.52a.327.327,0,0,1-.277-.151,13.431,13.431,0,0,0-3.1-3.312,14.438,14.438,0,0,1-3.254-3.546.331.331,0,0,1,.309-.51c7.232.656,12.272-4.334,12.823-4.905a.328.328,0,0,1,.252-.1.333.333,0,0,1,.244.121c2.934,3.564,8.247,3.754,9.282,3.755h0a.332.332,0,0,1,.322.408,7.706,7.706,0,0,1-3.249,4.248c-4.738,3.409-12.467,3.942-13.332,3.992Zm-6.084-7.031a13.615,13.615,0,0,0,2.979,3.189,13.9,13.9,0,0,1,3.176,3.37c1.159-.073,8.5-.653,13.008-3.9a7.49,7.49,0,0,0,3.024-3.811c-1.381-.025-6.429-.362-9.371-3.809a17.54,17.54,0,0,1-11.745,5Q404.97,1684.528,404.427,1684.489Zm22.361-1.151h0Z" transform="translate(-403.825 -1678.994)"/>
              </g>
              <path id="パス_5310" data-name="パス 5310" d="M556.474,1737.367l-.03,0c-.211-.027-5.2-.7-6.8-3.332a.234.234,0,0,1,.4-.243c1.491,2.446,6.413,3.105,6.463,3.111a.233.233,0,0,1-.029.465Z" transform="translate(-539.259 -1729.797)" fill="#5479f7"/>
              <path id="パス_5311" data-name="パス 5311" d="M536.147,1754.41a.231.231,0,0,1-.061-.008c-.163-.044-4.018-1.1-5.688-3.683a.233.233,0,1,1,.392-.254c1.572,2.428,5.379,3.475,5.417,3.485a.234.234,0,0,1-.06.459Z" transform="translate(-521.378 -1745.292)" fill="#5479f7"/>
              <path id="パス_5312" data-name="パス 5312" d="M457.134,1770.793a.232.232,0,0,1-.122-.035,5.556,5.556,0,0,1-1.417-1.227.233.233,0,0,1,.39-.258,5.03,5.03,0,0,0,1.272,1.087.234.234,0,0,1-.123.432Z" transform="translate(-451.884 -1762.767)" fill="#5479f7"/>
            </g>
            <g id="グループ_3923" data-name="グループ 3923" transform="translate(16.815)">
              <path id="パス_5313" data-name="パス 5313" d="M674.369,1736.776a76.913,76.913,0,0,0,10.053,1.23,78.551,78.551,0,0,0,5.038-15.411,49.8,49.8,0,0,0,.876-13.724s-16.549-4.78-17.358-2.353c-2.43,7.29-7.244,16.6-11.908,26.326a65.69,65.69,0,0,0,7.666,2.624c3.027-3.646,5.385-6.094,6.846-8.435,1.032-1.653,1.894-3.138,2.58-4.522a22.239,22.239,0,0,1-.8,3.451A99.41,99.41,0,0,0,674.369,1736.776Z" transform="translate(-659.623 -1679.737)"/>
              <g id="グループ_3921" data-name="グループ 3921" transform="translate(0 22.775)">
                <path id="パス_5314" data-name="パス 5314" d="M650.683,1664.6s-.416.935-.665,1.589c-.264.693-.09,2.081-.788,2.478-.161.092-.428-.079-.69-.085-.837-.018-3.382,2.082-4.1,1.581-1-.7-.488-1.949,2.3-4.158a12.292,12.292,0,0,0,1.691-2.536Z" transform="translate(-643.739 -1663.162)" fill="#fff"/>
                <path id="パス_5315" data-name="パス 5315" d="M641.673,1666.4a.71.71,0,0,1-.418-.119,1.2,1.2,0,0,1-.571-.969c-.025-.865.883-2,2.858-3.562a11.471,11.471,0,0,0,1.629-2.462l.106-.2,2.655,1.334-.091.2c0,.009-.416.936-.66,1.577a3.949,3.949,0,0,0-.157.84c-.082.675-.174,1.439-.733,1.758a.7.7,0,0,1-.549,0,1.146,1.146,0,0,0-.261-.053h-.007a5.49,5.49,0,0,0-1.589.729A5.756,5.756,0,0,1,641.673,1666.4Zm3.8-6.693a10.684,10.684,0,0,1-1.644,2.409c-1.8,1.427-2.7,2.5-2.681,3.183a.744.744,0,0,0,.373.6c.29.2,1.4-.421,2.131-.833a4.812,4.812,0,0,1,1.835-.79,1.512,1.512,0,0,1,.377.07.8.8,0,0,0,.2.041c.345-.2.423-.839.491-1.4a4.227,4.227,0,0,1,.184-.95c.178-.468.443-1.083.58-1.4Z" transform="translate(-640.683 -1659.082)"/>
              </g>
              <path id="パス_5316" data-name="パス 5316" d="M710.261,1338.948c5.664-1.765,13.056.215,15.253,2.644a13.045,13.045,0,0,1,2.891,6c.4,1.231.671,5.035,1.812,5.365.4.116,4.728-2.323,6.515-4.749.7-.957,2.014-2.18,3.1-1.706l1.761,1.562c2.768-.384-8.122,16.073-10.868,15.928-4.025-.212-6.131-5.978-6.143-5.565-.252,9.238-.443,11.128-.443,11.128l-7.056.218a31.443,31.443,0,0,1-14.561-3.073h0l5.007-13.759a.337.337,0,0,0-.52-.383c-1.392,1.062-4.869,3.615-7.94,10.112-.635,1.343-4.231-1.33-4.174-1.5C697.236,1354.4,703.521,1341.049,710.261,1338.948Z" transform="translate(-691.052 -1338.273)" fill="#5479f7"/>
              <g id="グループ_3922" data-name="グループ 3922" transform="translate(48.718 5.004)">
                <path id="パス_5317" data-name="パス 5317" d="M1331.82,1417.052a2.28,2.28,0,0,1-1.054-.619,2.564,2.564,0,0,1-.647-1.156q.146-.268.3-.552a3.165,3.165,0,0,1,1.975-2.25c1.57-.5,3.234-1.015,2.464,1.549a1.719,1.719,0,0,0-.074.426c-.016.4-.247,1.42-2.082,1.913-.183.049-.495.117-.6.274Z" transform="translate(-1329.892 -1411.832)" fill="#fff"/>
                <path id="パス_5318" data-name="パス 5318" d="M1328.969,1414.248l-.155-.034a2.515,2.515,0,0,1-1.174-.687c-.433-.458-.8-1.219-.682-1.428q.138-.253.279-.521a3.357,3.357,0,0,1,2.125-2.391c1.046-.334,2.127-.679,2.671-.145.36.354.388.984.088,1.983a1.478,1.478,0,0,0-.065.368c-.018.463-.275,1.6-2.254,2.129l-.057.015a1.1,1.1,0,0,0-.41.163Zm-1.559-2a2.51,2.51,0,0,0,.569.961,2.051,2.051,0,0,0,.786.506l.182-.271a1.144,1.144,0,0,1,.68-.355l.054-.014c1.68-.452,1.895-1.337,1.909-1.7a1.961,1.961,0,0,1,.084-.484c.234-.781.245-1.306.032-1.516-.343-.337-1.373-.008-2.2.256a2.937,2.937,0,0,0-1.817,2.074l-.007.032-.015.029Q1327.537,1412.012,1327.41,1412.245Zm-.042.078h0Z" transform="translate(-1326.936 -1408.766)"/>
              </g>
            </g>
          </g>
          <g id="グループ_3926" data-name="グループ 3926" transform="translate(10.466)">
            <g id="グループ_3925" data-name="グループ 3925" transform="translate(29.076 12.332)">
              <path id="パス_5319" data-name="パス 5319" d="M974.973,1225.312c.414.19.523,1.093.544,1.548.072,1.5-.8,4.488-1.885,4.657-1.526.238-1.3-.175-2.081.2-.664.319-.915,1.109-1.35,2.486-.028.087,2.351.718,2.351,1.314,0,.368-1.776,1.362-5.277.552-3.317-.768-3.208-1.939-3.143-2.086.215-.482,2.465-.382,2.52-.47a19.947,19.947,0,0,0,1.428-3.331S970.62,1223.317,974.973,1225.312Z" transform="translate(-963.878 -1224.715)" fill="#fff"/>
              <path id="パス_5320" data-name="パス 5320" d="M966.719,1233.558a11.371,11.371,0,0,1-2.555-.316c-2.214-.512-2.977-1.221-3.228-1.725a.849.849,0,0,1-.075-.684c.194-.434,1.112-.51,2.2-.559.14-.006.294-.013.383-.021a20.55,20.55,0,0,0,1.354-3.2c.063-.171,1.51-4.015,4.148-5.109a3.7,3.7,0,0,1,3.064.1h0c.531.243.654,1.2.68,1.749.073,1.514-.776,4.7-2.082,4.9a4.461,4.461,0,0,1-1.361.052.917.917,0,0,0-.655.128c-.546.262-.783.941-1.169,2.157.076.029.17.064.258.1,1.118.41,2.044.793,2.044,1.337a.581.581,0,0,1-.266.433A4.658,4.658,0,0,1,966.719,1233.558Zm-5.432-2.533a.571.571,0,0,0,.1.341c.193.326.823.943,2.883,1.42,3.183.737,4.815-.048,4.988-.34-.036-.129-.377-.385-1.735-.882-.507-.186-.678-.248-.6-.487.446-1.412.716-2.264,1.472-2.626a1.358,1.358,0,0,1,.911-.171,4,4,0,0,0,1.235-.05c.832-.13,1.763-2.849,1.687-4.415-.034-.7-.2-1.252-.408-1.347h0a3.246,3.246,0,0,0-2.689-.093c-2.449,1.016-3.873,4.794-3.887,4.832a19.831,19.831,0,0,1-1.449,3.372c-.081.131-.177.135-.709.159C961.986,1230.789,961.381,1230.885,961.286,1231.025Zm7.979,1.406Z" transform="translate(-960.82 -1221.659)"/>
            </g>
            <path id="パス_5321" data-name="パス 5321" d="M591.373,1061.371a1.645,1.645,0,0,0,1.343-1.771,5.655,5.655,0,0,0-5.161-5.268,43.278,43.278,0,0,0-4.679.156c-1.734-.049-5.4-4.909-6.684-5.45-1.194-.5-4.978-2.79-9.628,1.317a11.085,11.085,0,0,0-1.3,1.391c-.534.667-2.249,1.846-5.733,2.058-4.024.245-9.983,1.021-7.813,7.23a4.918,4.918,0,0,0,3.85,2.807,4.242,4.242,0,0,1,3.09,1.958c1.236,3.059,5.418,9.7,14.563,1.155a2.664,2.664,0,0,1,2.525-.528c1.073.29,3.255,1.731,6.368,1.222,2.72-.445,5.862-2.709,6.45-4.346.154-.427.171-1.576.487-1.84.25-.209.774.442,1.092.3A7.857,7.857,0,0,1,591.373,1061.371Z" transform="translate(-551.253 -1047.95)"/>
            <path id="パス_5322" data-name="パス 5322" d="M1076.342,1237.559a.239.239,0,0,1-.055-.006,1.728,1.728,0,0,1-1.079-1.77c-.007-.686.244-1.2.64-1.3.711-.188,1.187.624,1.355,1.133a.234.234,0,0,1-.443.147c0-.01-.338-.948-.792-.828-.148.039-.3.366-.292.845.006.553.234,1.2.722,1.321a.234.234,0,0,1-.055.461Z" transform="translate(-1038.012 -1221.213)"/>
          </g>
        </g>
      </g>
      <g id="グループ_3931" data-name="グループ 3931" transform="translate(8.022 3.581)">
        <g id="グループ_3929" data-name="グループ 3929" transform="translate(0 0)">
          <ellipse id="楕円形_158" data-name="楕円形 158" cx="7.89" cy="7.936" rx="7.89" ry="7.936" transform="translate(0.23 0.234)" fill="#fff"/>
          <path id="パス_5323" data-name="パス 5323" d="M453.511,412.961a8.039,8.039,0,0,1-5.34-2.023,8.211,8.211,0,0,1-.762-11.527,8.093,8.093,0,0,1,11.465-.767,8.211,8.211,0,0,1,.762,11.527,8.054,8.054,0,0,1-5.577,2.771Q453.784,412.961,453.511,412.961Zm-5.031-2.374a7.625,7.625,0,0,0,10.8-.723,7.743,7.743,0,0,0-.718-10.87,7.626,7.626,0,0,0-10.8.723,7.742,7.742,0,0,0,.718,10.87Z" transform="translate(-445.402 -396.621)"/>
        </g>
        <g id="グループ_3930" data-name="グループ 3930" transform="translate(3.133 5.509)">
          <path id="パス_5324" data-name="パス 5324" d="M502.116,479.965l-1.65-.223a.861.861,0,0,0-.774.548c-.209.4-.55,1.033-2.377.487s-1.834-1.275-1.726-1.713a.883.883,0,0,0-.351-.884l-1.169-.56a.81.81,0,0,0-1.174.627c-.387,1.568,1.289,3.328,3.949,4.122s5.02.242,5.547-1.283C502.411,481.031,502.7,480.068,502.116,479.965Z" transform="translate(-492.606 -477.285)" fill="#99b9ff"/>
          <path id="パス_5325" data-name="パス 5325" d="M496.116,479.9a8.484,8.484,0,0,1-2.41-.376c-2.8-.838-4.531-2.689-4.109-4.4a1.229,1.229,0,0,1,.581-.813,1.049,1.049,0,0,1,.913.027l1.177.563a1.108,1.108,0,0,1,.476,1.151c-.061.246-.221.9,1.566,1.434,1.65.493,1.923-.027,2.1-.372a1.072,1.072,0,0,1,1.006-.671l1.665.225a.619.619,0,0,1,.439.3,1.617,1.617,0,0,1,.016,1.125C499.138,479.26,497.824,479.9,496.116,479.9Zm-5.539-5.215a.425.425,0,0,0-.191.042.8.8,0,0,0-.335.5c-.356,1.443,1.273,3.1,3.788,3.847s4.776.264,5.26-1.136a1.2,1.2,0,0,0,.022-.738.152.152,0,0,0-.114-.076l-1.645-.222c-.115-.013-.36.089-.536.425-.328.626-.877,1.133-2.651.6-1.49-.445-2.106-1.1-1.886-1.993h0s.06-.461-.236-.624l-1.158-.554A.815.815,0,0,0,490.577,474.69Z" transform="translate(-489.533 -474.222)"/>
        </g>
      </g>
      <g id="グループ_3934" data-name="グループ 3934" transform="translate(82.845 23.313)">
        <g id="グループ_3933" data-name="グループ 3933" transform="translate(0 0)">
          <g id="グループ_3932" data-name="グループ 3932">
            <path id="パス_5326" data-name="パス 5326" d="M1508.89,682.878l-5.676-.008a.541.541,0,0,1-.541-.545l.028-3.92a.548.548,0,0,1,.548-.543l5.676.008a.541.541,0,0,1,.541.545l-.028,3.92A.548.548,0,0,1,1508.89,682.878Z" transform="translate(-1502.439 -677.629)" fill="#fff"/>
            <path id="パス_5327" data-name="パス 5327" d="M1505.835,680.056h0l-5.676-.008a.774.774,0,0,1-.774-.78l.028-3.92a.783.783,0,0,1,.781-.775h0l5.677.008a.774.774,0,0,1,.774.78l-.028,3.92A.783.783,0,0,1,1505.835,680.056Zm0-.467h0a.314.314,0,0,0,.314-.312l.028-3.92a.307.307,0,0,0-.307-.31l-5.676-.008h0a.314.314,0,0,0-.314.312l-.028,3.92a.307.307,0,0,0,.307.31Z" transform="translate(-1499.384 -674.573)"/>
          </g>
          <path id="パス_5328" data-name="パス 5328" d="M1519.507,694.824a.233.233,0,0,1-.129-.039l-2.162-1.427a.234.234,0,1,1,.257-.39l2.162,1.427a.234.234,0,0,1-.129.428Z" transform="translate(-1515.852 -691.627)"/>
          <path id="パス_5329" data-name="パス 5329" d="M1548.016,694.9a.233.233,0,0,1-.127-.429l2.182-1.421a.233.233,0,1,1,.255.391l-2.182,1.421A.233.233,0,0,1,1548.016,694.9Z" transform="translate(-1544.346 -691.704)"/>
        </g>
      </g>
      <g id="グループ_3937" data-name="グループ 3937" transform="translate(93.026 14.934)">
        <g id="グループ_3936" data-name="グループ 3936" transform="translate(0 0)">
          <g id="グループ_3935" data-name="グループ 3935">
            <path id="パス_5330" data-name="パス 5330" d="M1654.885,565.875l-6.821,1.707a.67.67,0,0,1-.814-.491l-1.151-4.717a.678.678,0,0,1,.494-.818l6.821-1.707a.67.67,0,0,1,.814.491l1.151,4.717A.678.678,0,0,1,1654.885,565.875Z" transform="translate(-1645.846 -559.595)" fill="#fff"/>
            <path id="パス_5331" data-name="パス 5331" d="M1644.844,564.777a.9.9,0,0,1-.876-.69l-1.152-4.716a.914.914,0,0,1,.664-1.1l6.821-1.707a.9.9,0,0,1,1.1.662l1.151,4.716a.914.914,0,0,1-.664,1.1l-6.821,1.707A.915.915,0,0,1,1644.844,564.777Zm5.678-7.774a.443.443,0,0,0-.107.013l-6.821,1.707a.446.446,0,0,0-.324.537l1.152,4.716a.436.436,0,0,0,.53.32l6.821-1.707a.445.445,0,0,0,.324-.536l-1.151-4.716a.436.436,0,0,0-.423-.333Z" transform="translate(-1642.791 -556.536)"/>
          </g>
          <path id="パス_5332" data-name="パス 5332" d="M1670.383,601.539a.234.234,0,0,1-.077-.013l-3.029-1.06a.234.234,0,1,1,.154-.441l3.029,1.06a.234.234,0,0,1-.077.454Z" transform="translate(-1665.393 -596.925)"/>
          <path id="パス_5333" data-name="パス 5333" d="M1710.273,584.38a.233.233,0,0,1-.171-.392l2.192-2.367a.234.234,0,0,1,.343.317l-2.192,2.367A.233.233,0,0,1,1710.273,584.38Z" transform="translate(-1705.266 -579.771)"/>
        </g>
      </g>
      <g id="グループ_3940" data-name="グループ 3940" transform="translate(87.963 1.443)">
        <g id="グループ_3939" data-name="グループ 3939" transform="translate(0 0)">
          <g id="グループ_3938" data-name="グループ 3938">
            <path id="パス_5334" data-name="パス 5334" d="M1583.8,379.985l-8.443-2.719a.845.845,0,0,1-.544-1.069l1.911-5.819a.856.856,0,0,1,1.075-.547l8.443,2.719a.845.845,0,0,1,.544,1.069l-1.911,5.82A.856.856,0,0,1,1583.8,379.985Z" transform="translate(-1574.535 -369.556)" fill="#fff"/>
            <path id="パス_5335" data-name="パス 5335" d="M1581,377.207a1.078,1.078,0,0,1-.332-.052l-8.444-2.719a1.078,1.078,0,0,1-.694-1.364l1.911-5.82a1.092,1.092,0,0,1,1.368-.7l8.444,2.719a1.078,1.078,0,0,1,.694,1.364l-1.911,5.819A1.092,1.092,0,0,1,1581,377.207Zm-.189-.5a.623.623,0,0,0,.781-.4l1.911-5.82a.611.611,0,0,0-.394-.774L1574.665,367a.624.624,0,0,0-.781.4l-1.911,5.819a.612.612,0,0,0,.394.774Z" transform="translate(-1571.475 -366.503)"/>
          </g>
          <path id="パス_5336" data-name="パス 5336" d="M1622.458,402.609a.233.233,0,0,1-.182-.087l-2.537-3.155a.234.234,0,1,1,.364-.293l2.537,3.155a.234.234,0,0,1-.182.38Z" transform="translate(-1616.265 -396.681)"/>
          <path id="パス_5337" data-name="パス 5337" d="M1655.975,429.945a.234.234,0,0,1-.061-.459l3.926-1.074a.234.234,0,1,1,.123.451l-3.926,1.074A.23.23,0,0,1,1655.975,429.945Z" transform="translate(-1649.759 -424.01)"/>
        </g>
      </g>
      <g id="グループ_3944" data-name="グループ 3944" transform="translate(16.249 4.034)">
        <g id="グループ_3941" data-name="グループ 3941" transform="translate(14.795 18.029)">
          <path id="パス_5338" data-name="パス 5338" d="M1678.075,678.9a.232.232,0,0,1-.172-.076c-.447-.49-.864-.964-1.241-1.408a.234.234,0,1,1,.356-.3c.373.44.786.909,1.229,1.4a.233.233,0,0,1-.172.391Zm-2.406-2.858a.233.233,0,0,1-.186-.093,17.988,17.988,0,0,1-1.068-1.562.234.234,0,0,1,.4-.24,17.5,17.5,0,0,0,1.04,1.521.234.234,0,0,1-.186.374Zm-1.852-3.228a.234.234,0,0,1-.217-.147c-.255-.637-.47-1.213-.657-1.761a.233.233,0,1,1,.442-.151c.185.54.4,1.109.649,1.739a.234.234,0,0,1-.217.32Zm-1.194-3.538a.233.233,0,0,1-.226-.176,15.571,15.571,0,0,1-.367-1.859.233.233,0,1,1,.463-.061,15.152,15.152,0,0,0,.356,1.8.233.233,0,0,1-.168.284A.237.237,0,0,1,1672.622,669.275Zm-.453-3.7h-.01a.233.233,0,0,1-.224-.243,8.947,8.947,0,0,1,.277-1.894.234.234,0,0,1,.452.118,8.465,8.465,0,0,0-.263,1.8A.234.234,0,0,1,1672.169,665.58Zm.94-3.584a.234.234,0,0,1-.207-.341,10.067,10.067,0,0,1,1.043-1.6.233.233,0,1,1,.366.29,9.6,9.6,0,0,0-.994,1.525A.234.234,0,0,1,1673.109,662Zm17.463-1.9a.234.234,0,0,1-.114-.03c-.289-.162-.583-.319-.873-.467a.234.234,0,0,1,.213-.416c.295.151.594.311.888.475a.234.234,0,0,1-.114.437Zm-15.109-.964a.234.234,0,0,1-.138-.422,8.33,8.33,0,0,1,1.674-.937.234.234,0,0,1,.182.43,7.864,7.864,0,0,0-1.58.884A.232.232,0,0,1,1675.463,659.136Zm12.533-.292a.233.233,0,0,1-.089-.018c-.58-.241-1.163-.454-1.735-.633a.234.234,0,0,1,.14-.446c.584.184,1.181.4,1.774.648a.234.234,0,0,1-.09.449Zm-3.561-1.111a.233.233,0,0,1-.047,0,15.716,15.716,0,0,0-1.82-.265.234.234,0,1,1,.039-.465,16.181,16.181,0,0,1,1.875.273.234.234,0,0,1-.047.462Zm-5.565-.062a.234.234,0,0,1-.049-.462,12.039,12.039,0,0,1,1.888-.245.23.23,0,0,1,.245.221.234.234,0,0,1-.221.245,11.566,11.566,0,0,0-1.814.236A.235.235,0,0,1,1678.871,657.671Z" transform="translate(-1607.884 -656.963)" fill="#99b9ff"/>
          <path id="パス_5339" data-name="パス 5339" d="M1629.991,1201.727h-.012a18.236,18.236,0,0,1-1.881-.193.234.234,0,1,1,.072-.462,17.779,17.779,0,0,0,1.833.189.234.234,0,0,1-.012.467Zm1.867,0a.234.234,0,0,1-.012-.467,18.309,18.309,0,0,0,1.834-.192.234.234,0,1,1,.072.462,18.8,18.8,0,0,1-1.881.2Zm-5.551-.57a.229.229,0,0,1-.06-.008c-.6-.159-1.211-.351-1.8-.572a.233.233,0,1,1,.163-.438c.577.215,1.168.4,1.758.558a.234.234,0,0,1-.059.459Zm9.233-.018a.234.234,0,0,1-.064-.458,13.9,13.9,0,0,0,1.729-.617.233.233,0,1,1,.186.428,14.351,14.351,0,0,1-1.787.638A.233.233,0,0,1,1635.539,1201.136Zm-12.729-1.282a.236.236,0,0,1-.1-.024c-.561-.273-1.119-.577-1.659-.9a.233.233,0,1,1,.242-.4c.528.32,1.073.617,1.621.883a.234.234,0,0,1-.1.444Zm16.146-.2a.233.233,0,0,1-.12-.434,14.482,14.482,0,0,0,1.509-1.045.233.233,0,0,1,.289.367,14.91,14.91,0,0,1-1.558,1.078A.231.231,0,0,1,1638.956,1199.654Zm-19.339-1.734a.232.232,0,0,1-.138-.046c-.506-.372-1-.771-1.47-1.186a.234.234,0,0,1,.309-.35c.459.406.943.8,1.438,1.16a.234.234,0,0,1-.139.422Zm22.264-.572a.233.233,0,0,1-.166-.4,16.478,16.478,0,0,0,1.22-1.378.234.234,0,0,1,.366.29,16.958,16.958,0,0,1-1.255,1.417A.233.233,0,0,1,1641.881,1197.349Zm-25.061-1.9a.233.233,0,0,1-.17-.073c-.44-.467-.854-.951-1.229-1.439a.233.233,0,1,1,.37-.285c.366.475.769.947,1.2,1.4a.233.233,0,0,1-.17.394Zm27.38-1.019a.234.234,0,0,1-.2-.359c.325-.51.632-1.049.915-1.6a.233.233,0,1,1,.416.212c-.289.567-.6,1.119-.937,1.641A.233.233,0,0,1,1644.2,1194.429Zm-26.416-1.711a.234.234,0,0,1-.081-.453,16.039,16.039,0,0,0,1.686-.738.234.234,0,0,1,.211.417,16.456,16.456,0,0,1-1.735.76A.231.231,0,0,1,1617.783,1192.719Zm-3.229-.235a.234.234,0,0,1-.2-.114,11,11,0,0,1-.837-1.714.234.234,0,1,1,.437-.164,10.514,10.514,0,0,0,.8,1.641.234.234,0,0,1-.2.353Zm31.346-1.375a.229.229,0,0,1-.087-.017.233.233,0,0,1-.129-.3c.227-.561.437-1.146.624-1.74a.234.234,0,1,1,.445.14c-.191.606-.405,1.2-.637,1.775A.234.234,0,0,1,1645.9,1191.109Zm-24.922-.244a.234.234,0,0,1-.181-.38,3.355,3.355,0,0,0,.7-1.581.234.234,0,0,1,.461.077,3.816,3.816,0,0,1-.8,1.8A.233.233,0,0,1,1620.979,1190.865Zm-7.639-1.877a.233.233,0,0,1-.233-.221q-.009-.159-.009-.314a5.6,5.6,0,0,1,.235-1.612.233.233,0,1,1,.447.134,5.144,5.144,0,0,0-.215,1.477q0,.143.008.289a.234.234,0,0,1-.221.246Zm33.685-1.439a.24.24,0,0,1-.054-.006.233.233,0,0,1-.174-.281c.139-.592.26-1.2.359-1.816a.234.234,0,1,1,.461.075c-.1.624-.224,1.245-.365,1.848A.234.234,0,0,1,1647.024,1187.549Zm-25.388-.227a.234.234,0,0,1-.226-.176,4.7,4.7,0,0,0-.749-1.6.234.234,0,0,1,.377-.275,5.175,5.175,0,0,1,.824,1.763.234.234,0,0,1-.227.291Zm-7.233-1.834a.233.233,0,0,1-.184-.377,3.749,3.749,0,0,1,1.266-1.073q.143-.07.283-.13a.234.234,0,1,1,.184.43q-.13.055-.262.12a3.328,3.328,0,0,0-1.1.942A.233.233,0,0,1,1614.4,1185.488Zm5.062-1.079a.232.232,0,0,1-.111-.029,3.468,3.468,0,0,0-1.672-.422.237.237,0,0,1-.238-.234.23.23,0,0,1,.229-.234,3.937,3.937,0,0,1,1.9.479.234.234,0,0,1-.112.439Zm28.159-.545h-.023a.234.234,0,0,1-.21-.255c.058-.606.1-1.229.118-1.85a.234.234,0,0,1,.467.015c-.021.63-.061,1.263-.12,1.879A.234.234,0,0,1,1647.624,1183.864Zm.123-3.732a.234.234,0,0,1-.233-.227c-.016-.612-.051-1.235-.1-1.852a.234.234,0,0,1,.465-.039c.052.626.087,1.258.1,1.878a.233.233,0,0,1-.227.24Zm-.31-3.722a.234.234,0,0,1-.231-.2c-.084-.605-.186-1.221-.3-1.831a.234.234,0,0,1,.459-.089c.119.617.223,1.241.308,1.855a.233.233,0,0,1-.2.264Zm-.708-3.667a.234.234,0,0,1-.227-.178c-.148-.6-.313-1.2-.491-1.791a.234.234,0,0,1,.447-.135c.18.6.347,1.208.5,1.813a.234.234,0,0,1-.227.29Zm-1.075-3.577a.234.234,0,0,1-.22-.156c-.206-.58-.428-1.163-.662-1.735a.233.233,0,1,1,.432-.177c.237.578.462,1.169.67,1.755a.233.233,0,0,1-.142.3A.231.231,0,0,1,1645.655,1169.166Zm-1.414-3.457a.233.233,0,0,1-.212-.135c-.259-.557-.535-1.118-.821-1.666a.234.234,0,0,1,.414-.216c.289.555.568,1.122.83,1.685a.234.234,0,0,1-.212.332Zm-1.725-3.313a.233.233,0,0,1-.2-.116c-.307-.53-.632-1.064-.966-1.587a.234.234,0,0,1,.394-.251c.338.529.666,1.069.976,1.6a.233.233,0,0,1-.2.35Zm-2.01-3.148a.233.233,0,0,1-.191-.1c-.353-.5-.722-1.008-1.1-1.5a.234.234,0,1,1,.371-.284c.379.5.752,1.006,1.109,1.515a.234.234,0,0,1-.191.368Zm-2.268-2.968a.232.232,0,0,1-.179-.084c-.392-.472-.8-.945-1.216-1.406a.234.234,0,0,1,.347-.312c.419.465.832.943,1.228,1.42a.233.233,0,0,1-.18.383Z" transform="translate(-1553.224 -1119.086)" fill="#99b9ff"/>
          <path id="パス_5340" data-name="パス 5340" d="M1494.8,1445.9a.239.239,0,0,1-.066-.01c-.237-.07-.474-.149-.7-.235a.234.234,0,0,1,.164-.437c.219.082.445.158.672.225a.234.234,0,0,1-.066.458Zm-2.365-1.042a.23.23,0,0,1-.12-.034,10.7,10.7,0,0,1-1.536-1.129.234.234,0,0,1,.309-.351,10.208,10.208,0,0,0,1.469,1.08.234.234,0,0,1-.121.433Zm-2.794-2.45a.233.233,0,0,1-.181-.086,13.044,13.044,0,0,1-1.089-1.558.234.234,0,1,1,.4-.24,12.534,12.534,0,0,0,1.05,1.5.234.234,0,0,1-.181.381Zm-1.918-3.194a.234.234,0,0,1-.215-.141,15.916,15.916,0,0,1-.645-1.783.233.233,0,1,1,.448-.133,15.524,15.524,0,0,0,.626,1.73.234.234,0,0,1-.122.307A.23.23,0,0,1,1487.725,1439.209Zm-1.065-3.574a.234.234,0,0,1-.23-.193,17.084,17.084,0,0,1-.228-1.88.233.233,0,0,1,.466-.03,16.7,16.7,0,0,0,.221,1.828.234.234,0,0,1-.189.271A.238.238,0,0,1,1486.66,1435.635Zm-.239-3.721h-.012a.234.234,0,0,1-.222-.245,15.087,15.087,0,0,1,.211-1.885.234.234,0,1,1,.46.082,14.633,14.633,0,0,0-.2,1.826A.234.234,0,0,1,1486.42,1431.914Zm.663-3.665a.233.233,0,0,1-.222-.307,10.7,10.7,0,0,1,.757-1.751.234.234,0,0,1,.41.225,10.221,10.221,0,0,0-.724,1.674A.234.234,0,0,1,1487.083,1428.248Z" transform="translate(-1435.322 -1371.469)" fill="#99b9ff"/>
          <path id="パス_5341" data-name="パス 5341" d="M786.018,769.256h-.006c-.49-.013-.994-.038-1.5-.074l-.378-.029a.233.233,0,0,1,.039-.465l.372.029c.5.035,1,.06,1.48.073a.234.234,0,0,1-.006.467Zm-3.719-.326a.23.23,0,0,1-.037,0c-.632-.1-1.254-.225-1.85-.371a.234.234,0,0,1,.111-.454c.583.143,1.193.265,1.812.364a.234.234,0,0,1-.036.464Zm-3.622-.894a.233.233,0,0,1-.077-.013,17.85,17.85,0,0,1-1.753-.712.233.233,0,1,1,.2-.423,17.423,17.423,0,0,0,1.707.693.234.234,0,0,1-.076.454Zm-3.369-1.595a.232.232,0,0,1-.124-.036,14.031,14.031,0,0,1-1.537-1.113.234.234,0,0,1,.3-.358,13.529,13.529,0,0,0,1.486,1.076.234.234,0,0,1-.124.432Zm-2.848-2.4a.232.232,0,0,1-.175-.08,11.191,11.191,0,0,1-1.133-1.531.234.234,0,0,1,.4-.244,10.72,10.72,0,0,0,1.086,1.467.234.234,0,0,1-.175.388Zm-1.935-3.172a.233.233,0,0,1-.218-.151,9.61,9.61,0,0,1-.5-1.844.234.234,0,1,1,.461-.076,9.143,9.143,0,0,0,.476,1.754.234.234,0,0,1-.218.317Zm-.6-3.66h-.01a.234.234,0,0,1-.223-.243,9.284,9.284,0,0,1,.279-1.893.234.234,0,1,1,.453.115,8.835,8.835,0,0,0-.265,1.8A.233.233,0,0,1,769.924,757.214Zm.909-3.6a.234.234,0,0,1-.211-.335,10.321,10.321,0,0,1,.715-1.253.234.234,0,0,1,.389.259,9.8,9.8,0,0,0-.682,1.2A.234.234,0,0,1,770.833,753.617Z" transform="translate(-769.69 -745.184)" fill="#99b9ff"/>
          <path id="パス_5342" data-name="パス 5342" d="M1337.687,889.435a.228.228,0,0,1-.234-.227V889.2a11.3,11.3,0,0,0-.184-1.813.234.234,0,1,1,.46-.081,11.643,11.643,0,0,1,.191,1.894A.239.239,0,0,1,1337.687,889.435Zm-.636-3.676a.233.233,0,0,1-.222-.162,12,12,0,0,0-.691-1.7.234.234,0,0,1,.418-.21,12.434,12.434,0,0,1,.718,1.764.233.233,0,0,1-.222.305Zm-1.682-3.32a.234.234,0,0,1-.187-.094,9.368,9.368,0,0,0-1.223-1.346.234.234,0,0,1,.313-.346,9.876,9.876,0,0,1,1.284,1.413.234.234,0,0,1-.187.373Zm-2.752-2.486a.233.233,0,0,1-.119-.033,9.986,9.986,0,0,0-1.643-.782.233.233,0,1,1,.162-.438,10.427,10.427,0,0,1,1.72.818.234.234,0,0,1-.12.434Zm-15.779-.11a.234.234,0,0,1-.066-.457c.432-.129.833-.24,1.224-.341a.234.234,0,0,1,.117.452c-.386.1-.781.21-1.208.337A.233.233,0,0,1,1316.838,879.843Zm3.037-.748a.234.234,0,0,1-.044-.463c.552-.106,1.14-.205,1.851-.312a.234.234,0,0,1,.069.462c-.7.106-1.286.2-1.832.309A.237.237,0,0,1,1319.875,879.1Zm9.267-.445a.233.233,0,0,1-.046,0,14.358,14.358,0,0,0-1.818-.239.233.233,0,0,1,.032-.466,14.752,14.752,0,0,1,1.877.247.234.234,0,0,1-.046.463Zm-5.577-.123a.233.233,0,0,1-.027-.465c.644-.077,1.277-.128,1.882-.149a.234.234,0,1,1,.016.467c-.592.021-1.212.07-1.842.146Z" transform="translate(-1277.778 -862.227)" fill="#99b9ff"/>
        </g>
        <path id="パス_5343" data-name="パス 5343" d="M968.307,405.705a.234.234,0,0,1-.058-.46,71.9,71.9,0,0,1,23.77-1.976.234.234,0,0,1-.043.465,71.422,71.422,0,0,0-23.611,1.964A.234.234,0,0,1,968.307,405.705Z" transform="translate(-939.196 -403.004)"/>
        <path id="パス_5344" data-name="パス 5344" d="M1392.443,420.889a.235.235,0,0,1-.073-.012,69.436,69.436,0,0,0-8.931-2.3.234.234,0,0,1,.086-.459,69.9,69.9,0,0,1,8.991,2.314.234.234,0,0,1-.073.455Z" transform="translate(-1324.896 -417.043)"/>
        <path id="パス_5345" data-name="パス 5345" d="M1419.735,570.831a1.467,1.467,0,1,1,1.467-1.467A1.469,1.469,0,0,1,1419.735,570.831Zm0-2.468a1,1,0,1,0,1,1A1,1,0,0,0,1419.735,568.363Z" transform="translate(-1357.43 -556.19)"/>
        <path id="パス_5346" data-name="パス 5346" d="M1293.917,537.858a2.006,2.006,0,1,1,2.006-2.006A2.008,2.008,0,0,1,1293.917,537.858Zm0-3.545a1.539,1.539,0,1,0,1.539,1.539A1.541,1.541,0,0,0,1293.917,534.313Z" transform="translate(-1240.043 -524.557)"/>
        <path id="パス_5347" data-name="パス 5347" d="M634.292,782.35a1.469,1.469,0,1,1,.184-.011A1.5,1.5,0,0,1,634.292,782.35Zm0-2.468a1.019,1.019,0,0,0-.124.008,1,1,0,1,0,.124-.008Z" transform="translate(-627.748 -752.693)"/>
        <path id="パス_5348" data-name="パス 5348" d="M563.15,879.591a1.864,1.864,0,1,1,.232-.014A1.865,1.865,0,0,1,563.15,879.591Zm0-3.258a1.4,1.4,0,0,0-.175.011,1.392,1.392,0,1,0,.175-.011Z" transform="translate(-561.288 -842.297)"/>
        <g id="グループ_3942" data-name="グループ 3942" transform="translate(41.421 9.317)">
          <path id="パス_5349" data-name="パス 5349" d="M1145.918,535.648a.233.233,0,0,1-.166-.069l-.924-.929a.234.234,0,0,1,.331-.329l.924.929a.233.233,0,0,1-.165.4Z" transform="translate(-1144.76 -534.252)"/>
          <path id="パス_5350" data-name="パス 5350" d="M1191.472,581.465a.233.233,0,0,1-.166-.069l-.924-.929a.233.233,0,1,1,.331-.329l.924.929a.234.234,0,0,1-.166.4Z" transform="translate(-1187.081 -576.816)"/>
          <path id="パス_5351" data-name="パス 5351" d="M1144.994,581.466a.233.233,0,0,1-.166-.4l.924-.929a.233.233,0,1,1,.331.329l-.924.929A.233.233,0,0,1,1144.994,581.466Z" transform="translate(-1144.76 -576.817)"/>
          <path id="パス_5352" data-name="パス 5352" d="M1190.548,535.649a.234.234,0,0,1-.166-.4l.924-.929a.234.234,0,0,1,.331.329l-.924.929A.232.232,0,0,1,1190.548,535.649Z" transform="translate(-1187.081 -534.252)"/>
        </g>
        <g id="グループ_3943" data-name="グループ 3943" transform="translate(1.775 42.084)">
          <path id="パス_5353" data-name="パス 5353" d="M593.761,1048.184a.233.233,0,0,1-.184-.377l.808-1.032a.234.234,0,1,1,.368.288l-.808,1.032A.233.233,0,0,1,593.761,1048.184Z" transform="translate(-593.013 -1043.074)"/>
          <path id="パス_5354" data-name="パス 5354" d="M633.594,997.314a.233.233,0,0,1-.184-.377l.808-1.032a.234.234,0,0,1,.368.288l-.808,1.032A.233.233,0,0,1,633.594,997.314Z" transform="translate(-630.019 -995.816)"/>
          <path id="パス_5355" data-name="パス 5355" d="M638.654,1043.909a.232.232,0,0,1-.143-.049l-1.036-.8a.233.233,0,0,1,.286-.369l1.036.8a.234.234,0,0,1-.143.418Z" transform="translate(-633.756 -1039.315)"/>
          <path id="パス_5356" data-name="パス 5356" d="M587.556,1004.368a.232.232,0,0,1-.143-.049l-1.036-.8a.234.234,0,0,1,.286-.369l1.036.8a.234.234,0,0,1-.143.418Z" transform="translate(-586.287 -1002.582)"/>
        </g>
      </g>
    </g>
  </g>
</svg>
