<svg xmlns="http://www.w3.org/2000/svg" width="184" height="184" viewBox="0 0 184 184">
  <g id="グループ_6401" data-name="グループ 6401" transform="translate(-270 -7516)">
    <g id="長方形_10350" data-name="長方形 10350" transform="translate(270 7516)" fill="#fff" stroke="gold" stroke-width="4">
      <rect width="184" height="184" stroke="none"/>
      <rect x="2" y="2" width="180" height="180" fill="none"/>
    </g>
    <g id="グループ_1" data-name="グループ 1" transform="translate(252.51 7566.072)">
      <path id="パス_1836" data-name="パス 1836" d="M1.19-14.93a9.336,9.336,0,0,1,1.187-4.711A8.479,8.479,0,0,1,5.62-22.885a9.2,9.2,0,0,1,4.609-1.162,9.066,9.066,0,0,1,5.235,1.532A8.011,8.011,0,0,1,18.6-18.276H14.494a4.261,4.261,0,0,0-1.724-1.915,5.058,5.058,0,0,0-2.566-.638,5.28,5.28,0,0,0-2.771.728,4.966,4.966,0,0,0-1.89,2.056,6.776,6.776,0,0,0-.677,3.115,6.8,6.8,0,0,0,.677,3.1A4.949,4.949,0,0,0,7.433-9.76a5.279,5.279,0,0,0,2.771.728,4.98,4.98,0,0,0,2.566-.651,4.338,4.338,0,0,0,1.724-1.928H18.6a7.968,7.968,0,0,1-3.128,4.252A9.105,9.105,0,0,1,10.229-5.84,9.2,9.2,0,0,1,5.62-7a8.5,8.5,0,0,1-3.243-3.23A9.266,9.266,0,0,1,1.19-14.93ZM31.475-5.814a9.235,9.235,0,0,1-4.6-1.175,8.769,8.769,0,0,1-3.32-3.256,9.108,9.108,0,0,1-1.226-4.711,9.059,9.059,0,0,1,1.226-4.686,8.769,8.769,0,0,1,3.32-3.256,9.235,9.235,0,0,1,4.6-1.175A9.214,9.214,0,0,1,36.084-22.9a8.7,8.7,0,0,1,3.294,3.256,9.133,9.133,0,0,1,1.213,4.686,9.182,9.182,0,0,1-1.213,4.711,8.676,8.676,0,0,1-3.307,3.256A9.235,9.235,0,0,1,31.475-5.814Zm0-3.192a5.446,5.446,0,0,0,2.834-.728,4.989,4.989,0,0,0,1.915-2.081,6.829,6.829,0,0,0,.689-3.141,6.75,6.75,0,0,0-.689-3.128,4.921,4.921,0,0,0-1.915-2.056,5.522,5.522,0,0,0-2.834-.715,5.591,5.591,0,0,0-2.847.715A4.9,4.9,0,0,0,26.7-18.084a6.75,6.75,0,0,0-.689,3.128,6.829,6.829,0,0,0,.689,3.141,4.963,4.963,0,0,0,1.928,2.081A5.514,5.514,0,0,0,31.475-9.006Zm22.5,3.013-3.932-6.946H48.353v6.946H44.778V-23.817h6.69a7.812,7.812,0,0,1,3.524.728,5.084,5.084,0,0,1,2.183,1.966,5.366,5.366,0,0,1,.728,2.771,5.307,5.307,0,0,1-1.021,3.179,5.247,5.247,0,0,1-3.039,1.953l4.264,7.226ZM48.353-15.62h2.988a2.985,2.985,0,0,0,2.17-.7,2.613,2.613,0,0,0,.715-1.953,2.493,2.493,0,0,0-.715-1.9,3.057,3.057,0,0,0-2.17-.677H48.353ZM73.608-9.389h-7.1l-1.175,3.4H61.581L67.99-23.842h4.162L78.561-5.993H74.782Zm-.97-2.86-2.579-7.456-2.579,7.456ZM95.491-18.3a5.551,5.551,0,0,1-.677,2.681A4.97,4.97,0,0,1,92.7-13.6a7.709,7.709,0,0,1-3.639.766H86.069v6.843H82.494V-23.817h6.563a7.93,7.93,0,0,1,3.524.715,4.981,4.981,0,0,1,2.183,1.966A5.533,5.533,0,0,1,95.491-18.3ZM88.9-15.722a3.1,3.1,0,0,0,2.2-.677,2.493,2.493,0,0,0,.715-1.9q0-2.6-2.911-2.6H86.069v5.184Zm14.172-8.095v11.031a3.782,3.782,0,0,0,.945,2.771,3.563,3.563,0,0,0,2.656.958,3.6,3.6,0,0,0,2.681-.958,3.782,3.782,0,0,0,.945-2.771V-23.817h3.6v11.006a7.1,7.1,0,0,1-.983,3.843,6.235,6.235,0,0,1-2.63,2.362,8.349,8.349,0,0,1-3.664.792,8.126,8.126,0,0,1-3.613-.792,6.027,6.027,0,0,1-2.566-2.362,7.329,7.329,0,0,1-.945-3.843V-23.817Zm25,17.824-3.932-6.946h-1.685v6.946h-3.575V-23.817h6.69a7.812,7.812,0,0,1,3.524.728,5.084,5.084,0,0,1,2.183,1.966,5.366,5.366,0,0,1,.728,2.771,5.307,5.307,0,0,1-1.021,3.179,5.247,5.247,0,0,1-3.039,1.953l4.264,7.226Zm-5.618-9.627h2.988a2.985,2.985,0,0,0,2.17-.7,2.613,2.613,0,0,0,.715-1.953,2.493,2.493,0,0,0-.715-1.9,3.057,3.057,0,0,0-2.17-.677h-2.988ZM147.71-9.389h-7.1l-1.175,3.4h-3.754l6.409-17.849h4.162l6.409,17.849h-3.779Zm-.97-2.86-2.579-7.456-2.579,7.456Z" transform="translate(32.826 48)" fill="#333"/>
      <path id="パス_1837" data-name="パス 1837" d="M.49-6.462A3.844,3.844,0,0,1,.979-8.4,3.491,3.491,0,0,1,2.314-9.737a3.789,3.789,0,0,1,1.9-.478,3.733,3.733,0,0,1,2.155.631A3.3,3.3,0,0,1,7.661-7.839H5.968a1.754,1.754,0,0,0-.71-.789A2.083,2.083,0,0,0,4.2-8.89a2.174,2.174,0,0,0-1.141.3,2.045,2.045,0,0,0-.778.846A2.79,2.79,0,0,0,2-6.462a2.8,2.8,0,0,0,.279,1.278,2.038,2.038,0,0,0,.778.852,2.174,2.174,0,0,0,1.141.3A2.051,2.051,0,0,0,5.258-4.3a1.786,1.786,0,0,0,.71-.794H7.661A3.281,3.281,0,0,1,6.373-3.344a3.749,3.749,0,0,1-2.161.626,3.789,3.789,0,0,1-1.9-.478A3.5,3.5,0,0,1,.979-4.527,3.815,3.815,0,0,1,.49-6.462Zm12.628,3.68L11.5-5.641H10.8v2.86H9.333v-7.339h2.755a3.217,3.217,0,0,1,1.451.3,2.093,2.093,0,0,1,.9.81,2.21,2.21,0,0,1,.3,1.141,2.185,2.185,0,0,1-.421,1.309,2.161,2.161,0,0,1-1.251.8l1.756,2.976ZM10.8-6.745h1.23a1.229,1.229,0,0,0,.894-.289,1.076,1.076,0,0,0,.294-.8,1.027,1.027,0,0,0-.294-.783,1.259,1.259,0,0,0-.894-.279H10.8Zm7.15-2.187v1.84h2.471v1.167H17.955V-3.98h2.786v1.2H16.482v-7.35h4.258v1.2ZM26.986-4.18H24.063l-.484,1.4H22.034l2.639-7.35h1.714l2.639,7.35H27.47Zm-.4-1.178-1.062-3.07-1.062,3.07Zm8.832-4.763v1.188H33.463v6.151H31.991V-8.932H30.036v-1.188Zm2.955,1.188v1.84h2.471v1.167H38.374V-3.98H41.16v1.2H36.9v-7.35H41.16v1.2Zm7.1-1.188a4.384,4.384,0,0,1,2.035.452A3.23,3.23,0,0,1,48.862-8.38a3.837,3.837,0,0,1,.478,1.94,3.779,3.779,0,0,1-.478,1.929,3.249,3.249,0,0,1-1.356,1.278,4.384,4.384,0,0,1-2.035.452H42.905v-7.339Zm-.053,6.088a2.418,2.418,0,0,0,1.787-.631,2.4,2.4,0,0,0,.631-1.777,2.458,2.458,0,0,0-.631-1.793,2.383,2.383,0,0,0-1.787-.647H44.377v4.847ZM57.93-6.546a1.649,1.649,0,0,1,1.02.62,1.812,1.812,0,0,1,.4,1.157,1.864,1.864,0,0,1-.289,1.036,1.926,1.926,0,0,1-.836.7,3.063,3.063,0,0,1-1.293.252H53.767v-7.339h3.028a3.14,3.14,0,0,1,1.288.242,1.834,1.834,0,0,1,.82.673,1.762,1.762,0,0,1,.279.978,1.673,1.673,0,0,1-.342,1.072A1.828,1.828,0,0,1,57.93-6.546Zm-2.692-.547h1.346a1.232,1.232,0,0,0,.81-.237.833.833,0,0,0,.284-.678.849.849,0,0,0-.284-.683,1.214,1.214,0,0,0-.81-.242H55.239ZM56.721-3.98a1.26,1.26,0,0,0,.836-.252.883.883,0,0,0,.3-.715.921.921,0,0,0-.315-.741,1.272,1.272,0,0,0-.852-.268H55.239V-3.98Zm10.052-6.14L64.292-5.336v2.555H62.82V-5.336l-2.492-4.784h1.661l1.577,3.354,1.567-3.354Zm8.338,3.575a1.649,1.649,0,0,1,1.02.62,1.812,1.812,0,0,1,.4,1.157,1.864,1.864,0,0,1-.289,1.036,1.926,1.926,0,0,1-.836.7,3.063,3.063,0,0,1-1.293.252H70.947v-7.339h3.028a3.14,3.14,0,0,1,1.288.242,1.834,1.834,0,0,1,.82.673,1.762,1.762,0,0,1,.279.978,1.673,1.673,0,0,1-.342,1.072A1.828,1.828,0,0,1,75.111-6.546Zm-2.692-.547h1.346a1.232,1.232,0,0,0,.81-.237.833.833,0,0,0,.284-.678.849.849,0,0,0-.284-.683,1.214,1.214,0,0,0-.81-.242H72.419ZM73.9-3.98a1.26,1.26,0,0,0,.836-.252.883.883,0,0,0,.3-.715.921.921,0,0,0-.315-.741,1.272,1.272,0,0,0-.852-.268H72.419V-3.98Zm6.8,1.293a3.068,3.068,0,0,1-1.514-.373,2.688,2.688,0,0,1-1.057-1.057,3.166,3.166,0,0,1-.384-1.577,3.1,3.1,0,0,1,.394-1.577,2.74,2.74,0,0,1,1.078-1.057A3.128,3.128,0,0,1,80.747-8.7a3.128,3.128,0,0,1,1.525.373,2.74,2.74,0,0,1,1.078,1.057,3.1,3.1,0,0,1,.394,1.577,3.036,3.036,0,0,1-.4,1.577A2.8,2.8,0,0,1,82.245-3.06,3.18,3.18,0,0,1,80.7-2.687Zm0-1.283a1.531,1.531,0,0,0,.752-.195,1.414,1.414,0,0,0,.563-.584,1.966,1.966,0,0,0,.21-.946,1.753,1.753,0,0,0-.436-1.278,1.434,1.434,0,0,0-1.067-.447,1.4,1.4,0,0,0-1.057.447,1.78,1.78,0,0,0-.426,1.278,1.808,1.808,0,0,0,.415,1.278A1.368,1.368,0,0,0,80.7-3.97Zm6-6.593v7.781H85.237v-7.781ZM89.316-9.3a.9.9,0,0,1-.647-.247.818.818,0,0,1-.258-.615.818.818,0,0,1,.258-.615.9.9,0,0,1,.647-.247.9.9,0,0,1,.647.247.818.818,0,0,1,.258.615.818.818,0,0,1-.258.615A.9.9,0,0,1,89.316-9.3Zm.726.694v5.825H88.57V-8.606Zm1.483,2.891a3.371,3.371,0,0,1,.352-1.567,2.57,2.57,0,0,1,.962-1.051A2.575,2.575,0,0,1,94.195-8.7a2.474,2.474,0,0,1,1.083.247,2.165,2.165,0,0,1,.82.657v-2.765h1.493v7.781H96.1v-.862a2,2,0,0,1-.768.694,2.4,2.4,0,0,1-1.146.263,2.5,2.5,0,0,1-1.346-.379,2.636,2.636,0,0,1-.962-1.067A3.427,3.427,0,0,1,91.524-5.715Zm4.584.021a1.888,1.888,0,0,0-.21-.92A1.483,1.483,0,0,0,95.33-7.2a1.517,1.517,0,0,0-.768-.205,1.491,1.491,0,0,0-.757.2,1.5,1.5,0,0,0-.563.584,1.828,1.828,0,0,0-.216.91,1.888,1.888,0,0,0,.216.92,1.552,1.552,0,0,0,.568.6,1.442,1.442,0,0,0,.752.21,1.517,1.517,0,0,0,.768-.205,1.483,1.483,0,0,0,.568-.589A1.888,1.888,0,0,0,96.108-5.694Zm8.748-.126a3.473,3.473,0,0,1-.042.568h-4.258a1.448,1.448,0,0,0,.442.988,1.362,1.362,0,0,0,.957.357,1.2,1.2,0,0,0,1.167-.7h1.588a2.654,2.654,0,0,1-.967,1.383,2.824,2.824,0,0,1-1.756.541,3.038,3.038,0,0,1-1.509-.373,2.627,2.627,0,0,1-1.041-1.057,3.238,3.238,0,0,1-.373-1.577,3.3,3.3,0,0,1,.368-1.588,2.568,2.568,0,0,1,1.03-1.051,3.087,3.087,0,0,1,1.525-.368,3.062,3.062,0,0,1,1.488.357,2.516,2.516,0,0,1,1.02,1.015A3.07,3.07,0,0,1,104.856-5.82Zm-1.525-.421a1.167,1.167,0,0,0-.41-.91,1.453,1.453,0,0,0-.978-.342,1.336,1.336,0,0,0-.92.331,1.456,1.456,0,0,0-.457.92Zm3.932-4.931-.126,2.229h-1L106-11.172Zm3.764,8.485a3.071,3.071,0,0,1-1.283-.258,2.266,2.266,0,0,1-.9-.7,1.772,1.772,0,0,1-.363-.978h1.483a.807.807,0,0,0,.331.557,1.152,1.152,0,0,0,.72.221,1.118,1.118,0,0,0,.657-.168.509.509,0,0,0,.237-.431.455.455,0,0,0-.289-.426,5.442,5.442,0,0,0-.92-.31,7.8,7.8,0,0,1-1.067-.326,1.853,1.853,0,0,1-.715-.515,1.383,1.383,0,0,1-.3-.936,1.51,1.51,0,0,1,.279-.883,1.871,1.871,0,0,1,.8-.631,3,3,0,0,1,1.225-.231,2.5,2.5,0,0,1,1.661.52,1.928,1.928,0,0,1,.683,1.4h-1.409a.763.763,0,0,0-.289-.552,1.075,1.075,0,0,0-.689-.205,1.085,1.085,0,0,0-.615.147.469.469,0,0,0-.216.41.482.482,0,0,0,.294.447,4.571,4.571,0,0,0,.915.31,7.766,7.766,0,0,1,1.041.326,1.839,1.839,0,0,1,.71.52,1.429,1.429,0,0,1,.31.931,1.543,1.543,0,0,1-.279.9,1.835,1.835,0,0,1-.8.626A3.027,3.027,0,0,1,111.028-2.687Zm11.1-7.434v5.152a2.2,2.2,0,0,1-.62,1.667,2.3,2.3,0,0,1-1.661.594,2.374,2.374,0,0,1-1.7-.61,2.228,2.228,0,0,1-.647-1.7h1.472a1.173,1.173,0,0,0,.226.736.762.762,0,0,0,.626.263.749.749,0,0,0,.61-.252,1.052,1.052,0,0,0,.21-.694v-5.152Zm1.745,4.406a3.371,3.371,0,0,1,.352-1.567,2.582,2.582,0,0,1,.957-1.051,2.547,2.547,0,0,1,1.351-.368,2.373,2.373,0,0,1,1.141.263,2.315,2.315,0,0,1,.783.662v-.831h1.483v5.825h-1.483v-.852a2.189,2.189,0,0,1-.783.678,2.4,2.4,0,0,1-1.151.268,2.475,2.475,0,0,1-1.341-.379,2.649,2.649,0,0,1-.957-1.067A3.427,3.427,0,0,1,123.877-5.715Zm4.584.021a1.888,1.888,0,0,0-.21-.92,1.483,1.483,0,0,0-.568-.589,1.518,1.518,0,0,0-.768-.205,1.491,1.491,0,0,0-.757.2,1.5,1.5,0,0,0-.563.584,1.828,1.828,0,0,0-.216.91,1.888,1.888,0,0,0,.216.92,1.552,1.552,0,0,0,.568.6,1.442,1.442,0,0,0,.752.21,1.518,1.518,0,0,0,.768-.205,1.483,1.483,0,0,0,.568-.589A1.888,1.888,0,0,0,128.461-5.694Zm4.805-2.071a2.235,2.235,0,0,1,.783-.668,2.374,2.374,0,0,1,1.141-.268,2.547,2.547,0,0,1,1.351.368,2.589,2.589,0,0,1,.957,1.046,3.363,3.363,0,0,1,.352,1.572,3.427,3.427,0,0,1-.352,1.582,2.649,2.649,0,0,1-.957,1.067,2.494,2.494,0,0,1-1.351.379,2.35,2.35,0,0,1-1.13-.263,2.425,2.425,0,0,1-.794-.662V-.006h-1.472v-8.6h1.472Zm3.081,2.05a1.828,1.828,0,0,0-.216-.91,1.493,1.493,0,0,0-.568-.584,1.519,1.519,0,0,0-.762-.2,1.47,1.47,0,0,0-.752.205,1.522,1.522,0,0,0-.568.594,1.858,1.858,0,0,0-.216.915,1.858,1.858,0,0,0,.216.915,1.522,1.522,0,0,0,.568.594,1.47,1.47,0,0,0,.752.205,1.461,1.461,0,0,0,.762-.21,1.561,1.561,0,0,0,.568-.6A1.881,1.881,0,0,0,136.347-5.715Zm2.608,0a3.371,3.371,0,0,1,.352-1.567,2.582,2.582,0,0,1,.957-1.051,2.547,2.547,0,0,1,1.351-.368,2.373,2.373,0,0,1,1.141.263,2.315,2.315,0,0,1,.783.662v-.831h1.483v5.825h-1.483v-.852a2.19,2.19,0,0,1-.783.678,2.4,2.4,0,0,1-1.151.268,2.475,2.475,0,0,1-1.341-.379,2.649,2.649,0,0,1-.957-1.067A3.427,3.427,0,0,1,138.955-5.715Zm4.584.021a1.888,1.888,0,0,0-.21-.92,1.483,1.483,0,0,0-.568-.589,1.517,1.517,0,0,0-.768-.205,1.491,1.491,0,0,0-.757.2,1.5,1.5,0,0,0-.563.584,1.828,1.828,0,0,0-.216.91,1.888,1.888,0,0,0,.216.92,1.552,1.552,0,0,0,.568.6,1.442,1.442,0,0,0,.752.21,1.517,1.517,0,0,0,.768-.205,1.483,1.483,0,0,0,.568-.589A1.888,1.888,0,0,0,143.539-5.694Zm6.561-3a2.245,2.245,0,0,1,1.682.657,2.516,2.516,0,0,1,.641,1.835v3.417h-1.472V-6a1.51,1.51,0,0,0-.347-1.067,1.229,1.229,0,0,0-.946-.373,1.259,1.259,0,0,0-.962.373A1.5,1.5,0,0,0,148.344-6v3.217h-1.472V-8.606h1.472v.725a2.033,2.033,0,0,1,.752-.594A2.326,2.326,0,0,1,150.1-8.691Z" transform="translate(33 60.56)" fill="#555"/>
    </g>
  </g>
</svg>
