<svg xmlns="http://www.w3.org/2000/svg" width="251.271" height="21.392" viewBox="0 0 251.271 21.392">
  <g id="グループ_669" data-name="グループ 669" transform="translate(-100.553 -2506)">
    <g id="グループ_667" data-name="グループ 667" transform="translate(66.51 2482.072)">
      <path id="パス_1836" data-name="パス 1836" d="M1.19-13.45a10.848,10.848,0,0,1,1.38-5.474,9.851,9.851,0,0,1,3.768-3.768,10.692,10.692,0,0,1,5.355-1.35,10.535,10.535,0,0,1,6.082,1.78,9.308,9.308,0,0,1,3.649,4.925H16.648a4.95,4.95,0,0,0-2-2.225,5.877,5.877,0,0,0-2.982-.742,6.134,6.134,0,0,0-3.219.846,5.77,5.77,0,0,0-2.2,2.388,7.874,7.874,0,0,0-.786,3.62,7.9,7.9,0,0,0,.786,3.6,5.751,5.751,0,0,0,2.2,2.4,6.134,6.134,0,0,0,3.219.846,5.786,5.786,0,0,0,2.982-.757,5.041,5.041,0,0,0,2-2.24h4.777a9.258,9.258,0,0,1-3.635,4.94,10.58,10.58,0,0,1-6.1,1.765,10.692,10.692,0,0,1-5.355-1.35A9.881,9.881,0,0,1,2.57-7.991,10.767,10.767,0,0,1,1.19-13.45ZM36.378-2.858a10.73,10.73,0,0,1-5.341-1.365,10.189,10.189,0,0,1-3.857-3.783,10.582,10.582,0,0,1-1.424-5.474,10.525,10.525,0,0,1,1.424-5.444,10.189,10.189,0,0,1,3.857-3.783,10.73,10.73,0,0,1,5.341-1.365,10.705,10.705,0,0,1,5.355,1.365,10.112,10.112,0,0,1,3.827,3.783A10.611,10.611,0,0,1,46.97-13.48a10.669,10.669,0,0,1-1.409,5.474,10.081,10.081,0,0,1-3.842,3.783A10.73,10.73,0,0,1,36.378-2.858Zm0-3.709a6.328,6.328,0,0,0,3.293-.846A5.8,5.8,0,0,0,41.9-9.831a7.935,7.935,0,0,0,.8-3.649,7.843,7.843,0,0,0-.8-3.635A5.718,5.718,0,0,0,39.671-19.5a6.416,6.416,0,0,0-3.293-.831,6.5,6.5,0,0,0-3.308.831,5.689,5.689,0,0,0-2.24,2.388,7.843,7.843,0,0,0-.8,3.635,7.934,7.934,0,0,0,.8,3.649,5.766,5.766,0,0,0,2.24,2.418A6.407,6.407,0,0,0,36.378-6.567Zm26.139,3.5-4.569-8.07H55.99v8.07H51.836V-23.775h7.773a9.077,9.077,0,0,1,4.094.846,5.907,5.907,0,0,1,2.537,2.285,6.235,6.235,0,0,1,.846,3.219A6.166,6.166,0,0,1,65.9-13.732a6.1,6.1,0,0,1-3.531,2.27l4.955,8.4ZM55.99-14.251h3.471a3.468,3.468,0,0,0,2.522-.816,3.036,3.036,0,0,0,.831-2.27,2.9,2.9,0,0,0-.831-2.21,3.552,3.552,0,0,0-2.522-.786H55.99ZM85.333-7.012H77.085L75.72-3.066H71.359L78.806-23.8h4.836L91.089-3.066H86.7Zm-1.127-3.323-3-8.664-3,8.664Zm26.554-7.032a6.449,6.449,0,0,1-.786,3.115,5.775,5.775,0,0,1-2.463,2.344,8.957,8.957,0,0,1-4.228.89H99.812v7.951H95.658V-23.775h7.625a9.214,9.214,0,0,1,4.094.831,5.787,5.787,0,0,1,2.537,2.285A6.429,6.429,0,0,1,110.76-17.367Zm-7.655,3a3.6,3.6,0,0,0,2.552-.786,2.9,2.9,0,0,0,.831-2.21q0-3.026-3.382-3.026H99.812v6.023Zm16.467-9.405v12.817a4.394,4.394,0,0,0,1.1,3.219,4.14,4.14,0,0,0,3.086,1.113,4.181,4.181,0,0,0,3.115-1.113,4.394,4.394,0,0,0,1.1-3.219V-23.775h4.183v12.788a8.255,8.255,0,0,1-1.142,4.465,7.245,7.245,0,0,1-3.056,2.744,9.7,9.7,0,0,1-4.258.92,9.442,9.442,0,0,1-4.2-.92,7,7,0,0,1-2.982-2.744,8.516,8.516,0,0,1-1.1-4.465V-23.775ZM148.618-3.066l-4.569-8.07h-1.958v8.07h-4.154V-23.775h7.773a9.077,9.077,0,0,1,4.094.846,5.907,5.907,0,0,1,2.537,2.285,6.235,6.235,0,0,1,.846,3.219A6.166,6.166,0,0,1,152-13.732a6.1,6.1,0,0,1-3.531,2.27l4.955,8.4Zm-6.527-11.185h3.471a3.469,3.469,0,0,0,2.522-.816,3.036,3.036,0,0,0,.831-2.27,2.9,2.9,0,0,0-.831-2.21,3.552,3.552,0,0,0-2.522-.786h-3.471Zm29.343,7.239h-8.248l-1.365,3.946H157.46L164.907-23.8h4.836L177.19-3.066H172.8Zm-1.127-3.323-3-8.664-3,8.664Z" transform="translate(32.853 48)" fill="#333"/>
    </g>
    <path id="パス_33213" data-name="パス 33213" d="M-29.208-19.392-32.856-17.9c1.056,2.5,2.184,4.968,3.288,7.032-2.208,1.656-3.912,3.648-3.912,6.36,0,4.44,3.816,5.76,8.76,5.76a46.125,46.125,0,0,0,7.776-.6l.048-4.2a39.682,39.682,0,0,1-7.92.936c-3.072,0-4.608-.744-4.608-2.328s1.344-2.856,3.192-4.08a68.038,68.038,0,0,1,6.36-3.336c.984-.48,1.848-.96,2.688-1.464l-2.016-3.36a18.031,18.031,0,0,1-2.5,1.632c-1.032.6-2.856,1.536-4.608,2.544A49,49,0,0,1-29.208-19.392ZM-.264-3.264c0-.768.744-1.2,1.872-1.2a6.041,6.041,0,0,1,1.608.216v.168c0,1.32-.456,1.944-1.608,1.944C.576-2.136-.264-2.424-.264-3.264Zm7.08-15.7H2.664A11.718,11.718,0,0,1,2.856-17.3c.024.432.024,1.32.048,2.448-.456.024-.888.024-1.344.024a41.854,41.854,0,0,1-4.3-.216l.024,3.456c1.416.1,2.856.144,4.3.144.432,0,.888,0,1.344-.024.024,1.512.1,2.976.168,4.248-.384-.024-.792-.048-1.2-.048-3.36,0-5.568,1.728-5.568,4.416C-3.672-.144-1.44,1.3,1.944,1.3,5.088,1.3,6.576-.1,6.888-2.352A32.093,32.093,0,0,1,9.456-.168l1.968-3.048a15.214,15.214,0,0,0-4.608-3.1c-.072-1.44-.192-3.144-.24-5.352,1.248-.072,2.424-.216,3.5-.36v-3.624c-1.08.24-2.256.408-3.48.552.024-1.008.048-1.8.072-2.256A16.014,16.014,0,0,1,6.816-18.96Zm-11.64.312-4.008-.336C-8.856-18.1-9-16.992-9.1-16.272a74.383,74.383,0,0,0-.936,9.96,27.948,27.948,0,0,0,.984,7.7l3.288-.24C-5.784.768-5.784.336-5.784.072A7.25,7.25,0,0,1-5.64-1.056c.288-1.392,1.008-3.816,1.728-5.976L-5.664-8.448c-.312.72-.624,1.176-.912,1.872A4.436,4.436,0,0,1-6.6-7.128,68.081,68.081,0,0,1-5.472-16.2,23.363,23.363,0,0,1-4.824-18.648ZM23.328-6.384h3.744c-.216-3.168,4.752-3.408,4.752-6.864,0-3.432-2.76-4.992-6.288-4.992a8.114,8.114,0,0,0-6.288,3.024l2.352,2.16a4.573,4.573,0,0,1,3.432-1.728c1.584,0,2.712.6,2.712,1.92C27.744-10.752,22.944-10.032,23.328-6.384ZM25.2.288A2.371,2.371,0,0,0,27.648-2.16,2.332,2.332,0,0,0,25.2-4.56a2.332,2.332,0,0,0-2.448,2.4A2.357,2.357,0,0,0,25.2.288Z" transform="translate(320 2526)" fill="#333"/>
  </g>
</svg>
