<svg xmlns="http://www.w3.org/2000/svg" width="130" height="130.137" viewBox="0 0 130 130.137">
  <g id="グループ_5631" data-name="グループ 5631" transform="translate(-1950.091 -3160.651)">
    <g id="Experience_design" data-name="Experience design" transform="translate(1950.091 3160.651)">
      <path id="パス_5854" data-name="パス 5854" d="M1464.753,235.051c-5.827-29.559-35.146-46.706-59.839-48.984-20.457-1.888-47.173,5.574-56.615,23.606-5.938,11.339,1.2,14.94-3.662,40.633-4.2,22.238-11.563,30.2-6.9,41.534,3.813,9.266,12.725,13.649,18.421,16.45,22.452,11.042,56.561,9.746,81.116-10.4C1443.022,293.18,1471.344,268.487,1464.753,235.051Z" transform="translate(-1335.741 -185.782)" fill="#caddff"/>
      <g id="グループ_4080" data-name="グループ 4080" transform="translate(0 9.731)">
        <g id="グループ_4078" data-name="グループ 4078" transform="translate(25.401 0)">
          <g id="グループ_4077" data-name="グループ 4077">
            <path id="パス_5855" data-name="パス 5855" d="M1497.579,258.811a7.643,7.643,0,0,0,.252,1.3l-1.664,1.307.848,1.7,2.074-.491a7.863,7.863,0,0,0,.886.99l-.78,1.937,1.612,1.05,1.553-1.431a8.131,8.131,0,0,0,1.283.419l.315,2.047,1.944.118.62-1.99a8.312,8.312,0,0,0,1.334-.26l1.324,1.606,1.755-.845-.482-2.014a8.271,8.271,0,0,0,1.027-.874l1.981.739,1.1-1.581-1.452-1.5a7.787,7.787,0,0,0,.444-1.254l2.105-.329.143-1.894-2.037-.581a7.638,7.638,0,0,0-.252-1.3l1.664-1.307-.848-1.7-2.074.491a7.907,7.907,0,0,0-.886-.99l.78-1.937-1.612-1.05-1.553,1.431a8.14,8.14,0,0,0-1.283-.419l-.315-2.047-1.944-.119-.619,1.99a8.336,8.336,0,0,0-1.335.26l-1.324-1.606-1.755.844.482,2.014a8.249,8.249,0,0,0-1.027.874l-1.981-.739-1.1,1.581,1.452,1.5a7.844,7.844,0,0,0-.445,1.254l-2.105.329-.143,1.894Zm3.087-1.221a5.04,5.04,0,0,1,5.372-4.571,4.868,4.868,0,0,1,4.636,5.181,5.04,5.04,0,0,1-5.372,4.571A4.867,4.867,0,0,1,1500.665,257.591Z" transform="translate(-1495.542 -248.038)" fill="#5479f7"/>
          </g>
        </g>
        <g id="グループ_4079" data-name="グループ 4079" transform="translate(0 13.021)">
          <path id="パス_5856" data-name="パス 5856" d="M1337.156,351.828a11.446,11.446,0,0,0,1.055,1.678l-1.621,2.73,2.108,1.92,2.637-1.811a11.868,11.868,0,0,0,1.777.906l-.042,3.134,2.825.6,1.4-2.844a12.21,12.21,0,0,0,2.023-.108l1.55,2.694,2.785-.887-.211-3.121a12.494,12.494,0,0,0,1.727-1.086l2.723,1.531,2-2.133-1.766-2.558a12.393,12.393,0,0,0,.964-1.779l3.173-.04.677-2.807-2.844-1.308a11.722,11.722,0,0,0-.057-2l2.769-1.6-.826-2.729-3.166.289a11.458,11.458,0,0,0-1.055-1.678l1.621-2.73-2.108-1.92-2.637,1.811a11.861,11.861,0,0,0-1.777-.906l.042-3.135-2.825-.6-1.4,2.844a12.252,12.252,0,0,0-2.023.108l-1.55-2.694-2.785.887.211,3.12a12.5,12.5,0,0,0-1.727,1.086l-2.723-1.531-2,2.133,1.766,2.558a12.4,12.4,0,0,0-.964,1.779l-3.173.04-.677,2.807,2.844,1.308a11.7,11.7,0,0,0,.057,2l-2.769,1.6.826,2.729Zm3.659-3.381a7.564,7.564,0,0,1,5.043-9.308,7.306,7.306,0,0,1,9.3,4.741,7.564,7.564,0,0,1-5.043,9.308A7.305,7.305,0,0,1,1340.815,348.448Z" transform="translate(-1333.032 -331.346)" fill="#5479f7"/>
        </g>
      </g>
      <g id="グループ_4083" data-name="グループ 4083" transform="translate(35.164 0.259)">
        <g id="グループ_4081" data-name="グループ 4081">
          <path id="パス_5857" data-name="パス 5857" d="M1641.972,309.415h-57.756a3.88,3.88,0,0,1-3.938-4.492L1594.5,192.574a5.26,5.26,0,0,1,5.075-4.492l54.857-.641c6.3,0,7.151,2.652,6.837,5.133l-14.222,112.349A5.259,5.259,0,0,1,1641.972,309.415Z" transform="translate(-1576.766 -187.441)" fill="#5479f7"/>
          <path id="パス_5858" data-name="パス 5858" d="M1619.737,310.79h-57.756a3.888,3.888,0,0,1-3.938-4.506l14.222-112.707a5.265,5.265,0,0,1,5.075-4.506H1635.1a3.888,3.888,0,0,1,3.938,4.506l-14.221,112.707A5.266,5.266,0,0,1,1619.737,310.79Z" transform="translate(-1558.006 -188.815)" fill="#fff"/>
          <path id="パス_5859" data-name="パス 5859" d="M1579.25,353.465l13.579-107.616a1.215,1.215,0,0,1,1.172-1.04h58.067a.9.9,0,0,1,.909,1.04L1639.4,353.465a1.215,1.215,0,0,1-1.172,1.04h-58.067A.9.9,0,0,1,1579.25,353.465Z" transform="translate(-1575.922 -235.842)" fill="#caddff"/>
          <ellipse id="楕円形_159" data-name="楕円形 159" cx="1.798" cy="1.585" rx="1.798" ry="1.585" transform="translate(45.305 4.374) rotate(-43.196)" fill="#caddff"/>
          <path id="パス_5860" data-name="パス 5860" d="M1645.123,966.773h-52.083a.234.234,0,0,1,0-.469h52.083a.234.234,0,1,1,0,.469Z" transform="translate(-1587.367 -844.564)"/>
          <path id="パス_5861" data-name="パス 5861" d="M1615.38,232.9l-.03,0a.234.234,0,0,1-.2-.262l5.092-40.355a5.513,5.513,0,0,1,5.308-4.712H1683.3a4.17,4.17,0,0,1,3.185,1.387,4.23,4.23,0,0,1,.986,3.384l-4.231,33.53a.234.234,0,1,1-.465-.059l4.231-33.53a3.769,3.769,0,0,0-.872-3.015,3.708,3.708,0,0,0-2.833-1.228h-57.756a5.031,5.031,0,0,0-4.843,4.3l-5.092,40.355A.235.235,0,0,1,1615.38,232.9Z" transform="translate(-1606.214 -187.55)"/>
          <path id="パス_5862" data-name="パス 5862" d="M1866.509,898.177h-15.778a.234.234,0,1,1,0-.469h15.778a5.032,5.032,0,0,0,4.843-4.3l1.029-8.2a.234.234,0,0,1,.465.058l-1.029,8.2A5.513,5.513,0,0,1,1866.509,898.177Z" transform="translate(-1804.779 -775.968)"/>
        </g>
        <g id="グループ_4082" data-name="グループ 4082" transform="translate(6.706 11.43)">
          <path id="パス_5863" data-name="パス 5863" d="M1733.943,264.1a1.724,1.724,0,0,1-1.709,1.5h-51.993a1.725,1.725,0,0,1-1.709-1.952l.21-1.578a1.724,1.724,0,0,1,1.709-1.5h51.993a1.724,1.724,0,0,1,1.709,1.952Z" transform="translate(-1666.386 -260.567)" fill="#99b9ff"/>
          <path id="パス_5864" data-name="パス 5864" d="M1667.125,778.017a1.724,1.724,0,0,1-1.709,1.5h-51.993a1.724,1.724,0,0,1-1.709-1.952l.648-4.864a1.724,1.724,0,0,1,1.709-1.5h51.993a1.724,1.724,0,0,1,1.709,1.952Z" transform="translate(-1610.013 -691.387)" fill="#99b9ff"/>
          <path id="パス_5865" data-name="パス 5865" d="M1656.339,857.927a1.724,1.724,0,0,1-1.709,1.5h-51.993a1.724,1.724,0,0,1-1.709-1.952l.648-4.864a1.724,1.724,0,0,1,1.709-1.5h51.993a1.724,1.724,0,0,1,1.709,1.952Z" transform="translate(-1600.912 -758.806)" fill="#99b9ff"/>
          <path id="パス_5866" data-name="パス 5866" d="M1696.64,354.734h-55.555l5.276-39.573h55.555Z" transform="translate(-1634.806 -306.628)" fill="#99b9ff"/>
          <path id="パス_5867" data-name="パス 5867" d="M1648.156,615.231h-26l3.106-23.3h26Z" transform="translate(-1618.835 -540.14)" fill="#99b9ff"/>
          <path id="パス_5868" data-name="パス 5868" d="M1638.458,603.9h-25.35a.322.322,0,0,1-.319-.365l3.02-22.652a.322.322,0,0,1,.32-.28h25.35a.322.322,0,0,1,.32.365l-3.02,22.652A.322.322,0,0,1,1638.458,603.9Z" transform="translate(-1610.93 -530.577)" fill="#5479f7"/>
          <path id="パス_5869" data-name="パス 5869" d="M1830.46,615.231h-26l3.106-23.3h26Z" transform="translate(-1772.644 -540.14)" fill="#99b9ff"/>
        </g>
        <path id="パス_5870" data-name="パス 5870" d="M1664.708,596.308h-21.57l.164-2.211h21.57Z" transform="translate(-1629.832 -530.535)" fill="#99b9ff"/>
      </g>
      <g id="グループ_4086" data-name="グループ 4086" transform="translate(33.785 19.838)">
        <path id="パス_5871" data-name="パス 5871" d="M1606.59,354.1h-55.161a.75.75,0,0,1-.743-.849l5.207-39.053h54.944a.94.94,0,0,1,.932,1.064Z" transform="translate(-1550.445 -313.964)" fill="#fff"/>
        <path id="パス_5872" data-name="パス 5872" d="M1593.386,353.069h-43.222a.985.985,0,0,1-.976-1.114L1554.4,312.9a.234.234,0,0,1,.232-.2h54.944a1.174,1.174,0,0,1,1.164,1.329l-2.02,15.152a.234.234,0,0,1-.465-.062l2.02-15.152a.7.7,0,0,0-.7-.8h-54.739l-5.18,38.85a.516.516,0,0,0,.511.583h43.222a.234.234,0,0,1,0,.469Z" transform="translate(-1549.18 -312.698)"/>
        <g id="グループ_4084" data-name="グループ 4084" transform="translate(3.567 3.486)">
          <path id="パス_5873" data-name="パス 5873" d="M1613.995,360.3h-31.933a1.082,1.082,0,0,1-1.073-1.225l2.952-22.137a1.083,1.083,0,0,1,1.073-.939h31.933a1.083,1.083,0,0,1,1.073,1.226l-2.952,22.137A1.082,1.082,0,0,1,1613.995,360.3Z" transform="translate(-1579.575 -335.846)" fill="#caddff"/>
          <path id="パス_5874" data-name="パス 5874" d="M1626.184,508.653H1577.1l.452-2.657h49.079Z" transform="translate(-1576.306 -479.269)" fill="#caddff"/>
          <path id="パス_5875" data-name="パス 5875" d="M1621.078,538.655H1572l.452-2.657h49.08Z" transform="translate(-1571.998 -504.581)" fill="#caddff"/>
          <path id="パス_5876" data-name="パス 5876" d="M1825.106,359.282H1813.88a1.076,1.076,0,0,1-1.069-1.195l2.468-22.131a1.076,1.076,0,0,1,1.069-.957h11.226a1.076,1.076,0,0,1,1.069,1.2l-2.468,22.131A1.075,1.075,0,0,1,1825.106,359.282Z" transform="translate(-1775.165 -334.999)" fill="#caddff"/>
        </g>
        <g id="グループ_4085" data-name="グループ 4085" transform="translate(32.954 26.931)">
          <circle id="楕円形_160" data-name="楕円形 160" cx="3.751" cy="3.751" r="3.751" fill="#99b9ff"/>
          <circle id="楕円形_161" data-name="楕円形 161" cx="2.188" cy="2.188" r="2.188" transform="translate(1.563 1.407)" fill="#5479f7"/>
        </g>
      </g>
      <g id="グループ_4108" data-name="グループ 4108" transform="translate(73.021 27.021)">
        <g id="グループ_4105" data-name="グループ 4105" transform="translate(0 9.992)">
          <path id="パス_5877" data-name="パス 5877" d="M1914.3,620.439s-.8,2.732,11.094,3.4,9.9-2.713,9.9-2.713l-12.484-3.637Z" transform="translate(-1896.455 -587.022)"/>
          <g id="グループ_4094" data-name="グループ 4094" transform="translate(21.515 31.997)">
            <g id="グループ_4089" data-name="グループ 4089" transform="translate(0 43.268)">
              <g id="グループ_4087" data-name="グループ 4087" transform="translate(6.081)">
                <path id="パス_5878" data-name="パス 5878" d="M1981.825,906.149c-.318-.015,1.087,7.064,1.087,7.064l-3.011.358-1.638-7.966Z" transform="translate(-1978.03 -905.372)" fill="#fff"/>
                <path id="パス_5879" data-name="パス 5879" d="M1978.635,912.541a.235.235,0,0,1-.229-.187l-1.638-7.966a.235.235,0,0,1,.265-.279l3.562.543a.235.235,0,0,1,.152.373,63.894,63.894,0,0,0,1.13,6.878.234.234,0,0,1-.2.279l-3.011.358Zm-1.34-7.918,1.526,7.425,2.546-.3c-.1-.535-.36-1.854-.595-3.179a25.952,25.952,0,0,1-.492-3.487Z" transform="translate(-1976.763 -904.106)"/>
              </g>
              <g id="グループ_4088" data-name="グループ 4088" transform="translate(0 4.993)">
                <path id="パス_5880" data-name="パス 5880" d="M1951.428,942.664a16.119,16.119,0,0,0-.98-3.986c-.539-.679-2.006.8-2.006.8s-.669-2.188-2.117-1.9c-1.09.218-4.754,2.877-6.686,4.995a1.082,1.082,0,0,0,.805,1.806h9.531A1.473,1.473,0,0,0,1951.428,942.664Z" transform="translate(-1939.123 -937.318)" fill="#99b9ff"/>
                <path id="パス_5881" data-name="パス 5881" d="M1948.708,943.344h-9.531a1.316,1.316,0,0,1-.978-2.2c1.854-2.033,5.611-4.827,6.813-5.066,1.271-.254,1.989,1.067,2.261,1.717a2.733,2.733,0,0,1,1.572-.8.693.693,0,0,1,.52.265c.107.134.432.543,1.028,4.093h0a1.707,1.707,0,0,1-1.684,1.989Zm-3.4-6.826a1.061,1.061,0,0,0-.208.021c-1.021.2-4.651,2.832-6.558,4.923a.819.819,0,0,0-.146.905.842.842,0,0,0,.778.508h9.531a1.238,1.238,0,0,0,1.221-1.443c-.52-3.1-.825-3.744-.933-3.879a.226.226,0,0,0-.178-.089c-.4-.023-1.117.546-1.477.909a.235.235,0,0,1-.391-.1C1946.945,938.257,1946.4,936.518,1945.312,936.518Z" transform="translate(-1937.855 -936.047)"/>
              </g>
              <path id="パス_5882" data-name="パス 5882" d="M1957.944,969.688h-9.467a.234.234,0,1,1,0-.469h9.467a.234.234,0,1,1,0,.469Z" transform="translate(-1946.619 -959.042)" fill="#fff"/>
            </g>
            <g id="グループ_4092" data-name="グループ 4092" transform="translate(22.21 43.616)">
              <g id="グループ_4090" data-name="グループ 4090">
                <path id="パス_5883" data-name="パス 5883" d="M2081.449,908.523l3.445,6.828,1.927-.2-1.713-7.315Z" transform="translate(-2081.215 -907.604)" fill="#fff"/>
                <path id="パス_5884" data-name="パス 5884" d="M2083.628,914.32a.234.234,0,0,1-.209-.129l-3.445-6.828a.235.235,0,0,1,.166-.336l3.658-.685a.234.234,0,0,1,.272.177l1.713,7.315a.235.235,0,0,1-.2.287l-1.927.2Zm-3.095-6.889,3.232,6.4,1.5-.154-1.6-6.838Z" transform="translate(-2079.949 -906.338)"/>
              </g>
              <g id="グループ_4091" data-name="グループ 4091" transform="translate(0.039 5.252)">
                <path id="パス_5885" data-name="パス 5885" d="M2085.378,942.687a1.733,1.733,0,0,1,2.582-.353,39.687,39.687,0,0,1,2.821,9.323,1.35,1.35,0,0,1-2.114,1.256,17.678,17.678,0,0,1-6.967-9.241,6.929,6.929,0,0,1,2.237-2.234Z" transform="translate(-2081.466 -941.204)" fill="#99b9ff"/>
                <path id="パス_5886" data-name="パス 5886" d="M2088.171,952.128a1.572,1.572,0,0,1-.9-.288,17.762,17.762,0,0,1-7.058-9.367.233.233,0,0,1,.025-.189,7.074,7.074,0,0,1,2.332-2.322.234.234,0,0,1,.257.033l1.258,1.09a2.058,2.058,0,0,1,1.113-.65,2.111,2.111,0,0,1,1.635.442.236.236,0,0,1,.078.1,40.245,40.245,0,0,1,2.84,9.392,1.558,1.558,0,0,1-.759,1.534A1.592,1.592,0,0,1,2088.171,952.128Zm-7.481-9.684a17.33,17.33,0,0,0,6.846,9.012,1.116,1.116,0,0,0,1.747-1.037,39.244,39.244,0,0,0-2.776-9.2,1.631,1.631,0,0,0-1.224-.327,1.66,1.66,0,0,0-.973.654.235.235,0,0,1-.164.1.232.232,0,0,1-.186-.055l-1.321-1.144A6.8,6.8,0,0,0,2080.69,942.444Z" transform="translate(-2080.2 -939.938)"/>
              </g>
              <path id="パス_5887" data-name="パス 5887" d="M2092.9,964.506h-.009c-.159-.006-3.93-.241-7.648-8.1a.234.234,0,1,1,.424-.2c3.578,7.564,7.208,7.83,7.244,7.832a.234.234,0,0,1-.01.469Z" transform="translate(-2084.395 -948.298)" fill="#fff"/>
            </g>
            <g id="グループ_4093" data-name="グループ 4093" transform="translate(0.125)">
              <path id="パス_5888" data-name="パス 5888" d="M1961.615,674.232l5.779-.193-7.882-31.152a48.51,48.51,0,0,0-6.066-14.089l-12.078-.007s-4.456,17.005,3.712,44.991h6.041s-2.352-25.533-2.157-32.869C1948.962,640.912,1954.64,661.885,1961.615,674.232Z" transform="translate(-1939.919 -628.556)" fill="#5479f7"/>
              <path id="パス_5889" data-name="パス 5889" d="M1960.35,673.2a.235.235,0,0,1-.2-.119c-5.789-10.249-10.736-26.606-12.22-31.763.113,8.823,2.141,30.937,2.163,31.176a.235.235,0,0,1-.234.256h-6.041a.235.235,0,0,1-.225-.169,114.218,114.218,0,0,1-4.928-33.058,55.748,55.748,0,0,1,1.215-12.057.234.234,0,0,1,.227-.175l12.078.007a.234.234,0,0,1,.2.109,48.67,48.67,0,0,1,6.1,14.157l7.882,31.152a.234.234,0,0,1-.219.292l-5.779.193ZM1947.7,639.412a.235.235,0,0,1,.226.173c.056.209,5.712,20.945,12.561,33.142l5.345-.178-7.811-30.87a48.2,48.2,0,0,0-5.968-13.912l-11.764-.007a57.806,57.806,0,0,0-1.157,11.791,113.649,113.649,0,0,0,4.861,32.731h5.608c-.245-2.7-2.317-25.768-2.135-32.641a.234.234,0,0,1,.207-.227Z" transform="translate(-1938.655 -627.29)"/>
            </g>
          </g>
          <path id="パス_5890" data-name="パス 5890" d="M1978.026,679.507a.235.235,0,0,1-.226-.171l-.962-3.422-1.51-.461a.234.234,0,1,1,.137-.448l1.632.5a.236.236,0,0,1,.157.161l1,3.546a.234.234,0,0,1-.162.289A.231.231,0,0,1,1978.026,679.507Z" transform="translate(-1947.816 -635.541)" fill="#caddff"/>
          <g id="グループ_4101" data-name="グループ 4101" transform="translate(0 11.897)">
            <g id="グループ_4096" data-name="グループ 4096">
              <g id="グループ_4095" data-name="グループ 4095">
                <path id="パス_5891" data-name="パス 5891" d="M1801.775,500.2l4.463,2.409s2.736,7.135,6.652,7.565,7.79-4.987,7.79-4.987l2.6,5.562s-3.817,5.9-9.87,4.951-7.7-10.044-7.7-10.044a1.957,1.957,0,0,1-1.974-1.256,3.3,3.3,0,0,1-.268-1.89S1801.313,501.358,1801.775,500.2Z" transform="translate(-1801.475 -499.963)" fill="#fff"/>
                <path id="パス_5892" data-name="パス 5892" d="M1813.443,514.768a8.6,8.6,0,0,1-1.339-.105c-5.715-.9-7.57-8.646-7.858-10.034-.067,0-.146-.01-.24-.023a2.134,2.134,0,0,1-1.761-1.39,3.966,3.966,0,0,1-.308-1.852c-.509-.3-2.108-1.362-1.649-2.518a.235.235,0,0,1,.329-.12l4.463,2.409a.234.234,0,0,1,.108.122c.027.07,2.73,7.006,6.458,7.415s7.536-4.837,7.574-4.89a.234.234,0,0,1,.4.037l2.6,5.562a.235.235,0,0,1-.015.227C1822.171,509.663,1818.8,514.768,1813.443,514.768Zm-9.005-10.616a.217.217,0,0,1,.039,0,.234.234,0,0,1,.192.189c.016.089,1.691,8.941,7.509,9.855,5.394.848,9.016-3.961,9.565-4.741l-2.378-5.087c-.873,1.125-3.976,4.792-7.291,4.793a4.358,4.358,0,0,1-.478-.026c-3.828-.42-6.48-6.792-6.813-7.632l-4.106-2.216c.027.862,1.611,1.734,1.629,1.743a.235.235,0,0,1,.116.269,3.161,3.161,0,0,0,.261,1.744,1.721,1.721,0,0,0,1.715,1.109A.239.239,0,0,1,1804.437,504.152Z" transform="translate(-1800.206 -498.697)"/>
              </g>
              <path id="パス_5893" data-name="パス 5893" d="M1817.695,514.514a.237.237,0,0,1-.069-.01,1.588,1.588,0,0,1-1.093-1.144,1.268,1.268,0,0,0-.381-.7,1.3,1.3,0,0,1-.383-.926v-.173a.234.234,0,0,1,.321-.218l1.5.6a.234.234,0,1,1-.174.436l-1.164-.464a.827.827,0,0,0,.226.412,1.733,1.733,0,0,1,.515.972c.074.537.76.758.767.761a.234.234,0,0,1-.069.458Z" transform="translate(-1813.337 -509.35)"/>
            </g>
            <g id="グループ_4097" data-name="グループ 4097" transform="translate(34.242 5.041)">
              <path id="パス_5894" data-name="パス 5894" d="M2020.778,538.283s2.752,6.191,7.24,7.455,7.614-2.557,7.594-6.5l-1.526-.506s-1.565,4.043-5.057,2.991-5.112-9.276-5.112-9.276Z" transform="translate(-2020.543 -532.211)" fill="#fff"/>
              <path id="パス_5895" data-name="パス 5895" d="M2028.476,544.956a6.577,6.577,0,0,1-1.788-.258c-4.542-1.28-7.276-7.329-7.391-7.586a.235.235,0,0,1,.008-.206l3.138-5.837a.234.234,0,0,1,.437.066c.016.081,1.633,8.1,4.95,9.1,3.247.978,4.71-2.694,4.771-2.851a.234.234,0,0,1,.292-.138l1.525.506a.235.235,0,0,1,.161.221,7.357,7.357,0,0,1-2.714,5.835A5.532,5.532,0,0,1,2028.476,544.956Zm-8.7-7.932c.383.807,3.026,6.091,7.042,7.222a5.219,5.219,0,0,0,4.765-.816,6.858,6.858,0,0,0,2.529-5.292l-1.162-.385c-.392.835-2.07,3.885-5.253,2.926-3.048-.918-4.677-6.86-5.138-8.831Z" transform="translate(-2019.277 -530.946)"/>
            </g>
            <g id="グループ_4098" data-name="グループ 4098" transform="translate(17.607 1.89)">
              <path id="パス_5896" data-name="パス 5896" d="M1914.351,515.31s2.76-3.6,10.556-2.929c9.309.8,10.019,2.643,10.019,2.643l-2.43,4.924,2.852,12.428s-1.948,1.614-6.512.708-12.409-2.018-14.483-1.392l2.892-11.859Z" transform="translate(-1914.116 -512.062)" fill="#fff"/>
              <path id="パス_5897" data-name="パス 5897" d="M1930.212,532.325a13.814,13.814,0,0,1-2.689-.282c-4.623-.918-12.386-2-14.369-1.4a.234.234,0,0,1-.3-.28l2.868-11.761-2.838-4.439a.234.234,0,0,1,.011-.269c.116-.151,2.928-3.7,10.762-3.02,9.19.793,10.14,2.59,10.218,2.792a.235.235,0,0,1-.009.188l-2.393,4.849,2.833,12.346a.234.234,0,0,1-.079.233A6.5,6.5,0,0,1,1930.212,532.325Zm-15.225-2.318a79.831,79.831,0,0,1,12.627,1.576c3.8.755,5.735-.273,6.2-.578L1931,518.729a.233.233,0,0,1,.018-.156l2.371-4.8c-.281-.327-1.93-1.749-9.77-2.426-6.743-.582-9.671,2.107-10.243,2.717l2.8,4.375a.234.234,0,0,1,.031.182l-2.8,11.491A9.914,9.914,0,0,1,1914.988,530.007Z" transform="translate(-1912.851 -510.791)"/>
            </g>
            <g id="グループ_4099" data-name="グループ 4099" transform="translate(35.388 2.54)">
              <path id="パス_5898" data-name="パス 5898" d="M2038.2,528.742l-11.111.449a.481.481,0,0,1-.41-.732l7.2-13.148a.757.757,0,0,1,.645-.361l11.232.257Z" transform="translate(-2026.609 -514.949)" fill="#5479f7"/>
              <path id="パス_5899" data-name="パス 5899" d="M2041.157,529.191h-11.994l7.866-14.242h11.994Z" transform="translate(-2028.764 -514.949)"/>
            </g>
            <g id="グループ_4100" data-name="グループ 4100" transform="translate(47.722 10.476)">
              <path id="パス_5900" data-name="パス 5900" d="M2107.121,572.841a5.268,5.268,0,0,1,0-1.969,19.343,19.343,0,0,1,2.022-3.622C2109.543,566.76,2109.882,572,2107.121,572.841Z" transform="translate(-2106.787 -566.984)" fill="#fff"/>
              <path id="パス_5901" data-name="パス 5901" d="M2105.856,571.811a.234.234,0,0,1-.23-.191,5.43,5.43,0,0,1,0-2.077,19.553,19.553,0,0,1,2.066-3.705.29.29,0,0,1,.332-.1c.323.12.367.925.347,1.579-.054,1.822-.727,3.957-2.451,4.484A.231.231,0,0,1,2105.856,571.811Zm2.01-5.41a19.213,19.213,0,0,0-1.784,3.271,4.4,4.4,0,0,0-.038,1.584,2.93,2.93,0,0,0,1.465-1.781A6.955,6.955,0,0,0,2107.866,566.4Z" transform="translate(-2105.521 -565.719)"/>
            </g>
          </g>
          <g id="グループ_4104" data-name="グループ 4104" transform="translate(4.172)">
            <path id="パス_5902" data-name="パス 5902" d="M1828.692,425.546a4.058,4.058,0,0,0-1.768,2.826c-.237,2,1.183,4.06,2.734,4.369,1.327.264,1.785-.949,3.45-.87,1.857.088,2.04,1.632,3.811,2.021,2.611.574,3.675-2.463,6.674-2.251,2.308.163,2.61,2.028,5.125,2.051a5.49,5.49,0,0,0,4.04-1.759,5.368,5.368,0,0,0,.424-6.174c-.115-.182-1.341-2.072-2.966-2.026-1.019.029-1.222.792-2.192.775-1.493-.026-1.792-1.846-3.1-1.923-1.51-.088-1.846,2.3-3.88,2.638-1.535.255-1.969-1-3.617-.711-1.708.3-1.791,1.746-3.24,1.792-1.388.044-1.769-1.267-3.566-1.278A3.707,3.707,0,0,0,1828.692,425.546Z" transform="translate(-1826.898 -422.582)"/>
            <g id="グループ_4102" data-name="グループ 4102" transform="translate(21.987 3.418)">
              <path id="パス_5903" data-name="パス 5903" d="M1976.024,452.406c.1-.164-.388-1.052-.405-1.375s.236-.595.342-.934a2.522,2.522,0,0,0-.012-.944c-.144-4.052-4.558-3.09-4.558-3.09a3.11,3.11,0,0,0-1.806,2.2,6.184,6.184,0,0,0,.319,3.239c-.03.067-.753,4.811-.786,4.873-.458.881,2.615,1.458,3.582.57.327-.3-.091-2.5,0-2.506.362-.01.806.379,1.262.258.672-.178,1.179-1.863,1.275-1.988a.811.811,0,0,1,.365-.131C1975.782,452.537,1975.97,452.493,1976.024,452.406Z" transform="translate(-1968.835 -445.726)" fill="#fff"/>
              <path id="パス_5904" data-name="パス 5904" d="M1969.871,456.349a3.594,3.594,0,0,1-1.985-.511.646.646,0,0,1-.263-.819c.038-.191.241-1.481.4-2.525.244-1.556.325-2.065.359-2.247a6.252,6.252,0,0,1-.3-3.317,3.376,3.376,0,0,1,1.965-2.368l.018,0a4.916,4.916,0,0,1,3.647.635,3.345,3.345,0,0,1,1.195,2.658,2.592,2.592,0,0,1,0,1.04,2.477,2.477,0,0,1-.177.4.963.963,0,0,0-.154.45,3,3,0,0,0,.2.585c.2.5.288.745.172.928a.866.866,0,0,1-.568.275,2.361,2.361,0,0,0-.237.062c-.02.045-.052.126-.081.2-.236.589-.674,1.686-1.315,1.856a1.46,1.46,0,0,1-.919-.137c-.057-.023-.113-.045-.167-.063.009.087.02.188.03.283.133,1.242.151,1.875-.107,2.113A2.593,2.593,0,0,1,1969.871,456.349Zm-1.015-6.057c-.027.123-.206,1.265-.364,2.274-.4,2.576-.409,2.585-.438,2.642-.022.042-.062.119.119.258a3.227,3.227,0,0,0,3.1.032,6.02,6.02,0,0,0-.042-1.717c-.062-.576-.072-.665.019-.769a.247.247,0,0,1,.175-.082,1.532,1.532,0,0,1,.581.145,1.059,1.059,0,0,0,.627.12c.412-.109.839-1.176,1-1.577a1.48,1.48,0,0,1,.15-.327.811.811,0,0,1,.486-.214,2.506,2.506,0,0,0,.259-.069,4.8,4.8,0,0,0-.182-.507,2.836,2.836,0,0,1-.229-.734,1.33,1.33,0,0,1,.206-.69,2.079,2.079,0,0,0,.146-.327,2.231,2.231,0,0,0-.019-.83.228.228,0,0,1,0-.036,2.911,2.911,0,0,0-1.015-2.323,4.484,4.484,0,0,0-3.252-.548,2.907,2.907,0,0,0-1.637,2.034,5.966,5.966,0,0,0,.31,3.094A.234.234,0,0,1,1968.856,450.292Zm5.715.692Z" transform="translate(-1967.564 -444.45)"/>
            </g>
            <g id="グループ_4103" data-name="グループ 4103" transform="translate(22.469 3.289)">
              <path id="パス_5905" data-name="パス 5905" d="M1979.124,444.356c-.444-.449-.9,0-2.658-.248-1.467-.206-1.89-.62-3-.437a3.142,3.142,0,0,0-1.42.546,3.507,3.507,0,0,0-1.28,2.059,6.187,6.187,0,0,0,.256,3.179.3.3,0,0,0,.312.2,7.788,7.788,0,0,0,.99-.143.226.226,0,0,0,.164-.307,1.1,1.1,0,0,1-.038-.112.855.855,0,1,1,1.63-.464c.01.036.018.071.024.107.647-.49.98-1.046,1.579-1.344a2.187,2.187,0,0,1,.867-.2c1.041-.037,1.387.58,1.88.461C1979.289,447.453,1979.922,445.164,1979.124,444.356Z" transform="translate(-1970.648 -443.626)"/>
            </g>
            <path id="パス_5906" data-name="パス 5906" d="M1982.319,491.2a.234.234,0,0,1-.07-.011,2.537,2.537,0,0,1-1.9-1.65.234.234,0,0,1,.458-.1c.01.04.225.878,1.579,1.3a.234.234,0,0,1-.07.458Z" transform="translate(-1956.363 -478.833)"/>
          </g>
        </g>
        <g id="グループ_4107" data-name="グループ 4107" transform="translate(40.835 0)">
          <g id="グループ_4106" data-name="グループ 4106">
            <circle id="楕円形_162" data-name="楕円形 162" cx="5.568" cy="5.568" r="5.568" transform="translate(0 6.682) rotate(-36.869)" fill="#fff"/>
            <path id="パス_5907" data-name="パス 5907" d="M2080.012,383.01a5.8,5.8,0,1,1,5.667-4.56A5.806,5.806,0,0,1,2080.012,383.01Zm0-11.138a5.336,5.336,0,1,0,1.145.124A5.343,5.343,0,0,0,2080.01,371.872Zm5.44,6.528h0Z" transform="translate(-2072.216 -369.411)"/>
          </g>
          <path id="パス_5908" data-name="パス 5908" d="M2098.849,397.945h-.023a.235.235,0,0,1-.2-.174l-1-3.815a.235.235,0,0,1,.454-.119l.839,3.209a11.871,11.871,0,0,1,3.012-4,.234.234,0,1,1,.289.369,12.4,12.4,0,0,0-3.159,4.4A.235.235,0,0,1,2098.849,397.945Z" transform="translate(-2091.966 -387.627)"/>
        </g>
      </g>
      <g id="グループ_4124" data-name="グループ 4124" transform="translate(0.869 66.436)">
        <g id="グループ_4117" data-name="グループ 4117" transform="translate(0 35.675)">
          <g id="グループ_4112" data-name="グループ 4112" transform="translate(0 16.581)">
            <g id="グループ_4109" data-name="グループ 4109" transform="translate(7.694 4.872)">
              <path id="パス_5909" data-name="パス 5909" d="M1393.9,981.049h-4.585l1.651-3.229,3.646.319Z" transform="translate(-1389.08 -977.586)" fill="#fff"/>
              <path id="パス_5910" data-name="パス 5910" d="M1392.634,980.019h-4.585a.235.235,0,0,1-.209-.341l1.651-3.229a.234.234,0,0,1,.229-.127l3.646.319a.235.235,0,0,1,.207.289l-.711,2.91A.234.234,0,0,1,1392.634,980.019Zm-4.2-.469h4.018l.6-2.465-3.216-.282Z" transform="translate(-1387.814 -976.321)"/>
            </g>
            <g id="グループ_4110" data-name="グループ 4110" transform="translate(0.587 0.587)">
              <path id="パス_5911" data-name="パス 5911" d="M1352.238,957.291l2.029-1.537a.593.593,0,0,0,.147-.783c-.447-.719-1.684-3.424-3.135-4.4a.875.875,0,0,0-1.193.173l-6.1,8.154a.771.771,0,0,0,.31,1.144,3.125,3.125,0,0,0,2.589-.081c1.97-.784,4.218-1.939,4.922-2.308a1.1,1.1,0,0,0,.323-.256A.69.69,0,0,1,1352.238,957.291Z" transform="translate(-1343.611 -950.174)" fill="#fff"/>
              <path id="パス_5912" data-name="パス 5912" d="M1344.126,959.242a2.72,2.72,0,0,1-1.2-.26,1.032,1.032,0,0,1-.557-.686.964.964,0,0,1,.161-.81l6.1-8.154a1.108,1.108,0,0,1,1.512-.227,11.6,11.6,0,0,1,2.851,3.847c.142.263.265.49.351.627a.825.825,0,0,1-.2,1.094l-2.029,1.536a.476.476,0,0,0-.07.069,1.323,1.323,0,0,1-.392.311c-.656.344-2.951,1.525-4.944,2.318A4.28,4.28,0,0,1,1344.126,959.242Zm5.372-9.867a.606.606,0,0,0-.49.239l-6.1,8.154a.5.5,0,0,0-.081.418.566.566,0,0,0,.306.375,2.976,2.976,0,0,0,2.4-.088c1.972-.784,4.249-1.957,4.9-2.3a.857.857,0,0,0,.254-.2.927.927,0,0,1,.142-.137l2.029-1.537a.357.357,0,0,0,.089-.473c-.092-.148-.212-.37-.365-.65a11.3,11.3,0,0,0-2.7-3.682A.687.687,0,0,0,1349.5,949.375Z" transform="translate(-1342.345 -948.906)"/>
            </g>
            <g id="グループ_4111" data-name="グループ 4111">
              <path id="パス_5913" data-name="パス 5913" d="M1340.731,956.356a.009.009,0,0,1-.01,0c-.063-.024-.122-.049-.178-.076a.771.771,0,0,1-.31-1.144l6.1-8.154a.874.874,0,0,1,1.193-.173c.074.05.147.1.219.155a.008.008,0,0,1,0,.012Z" transform="translate(-1339.855 -946.418)" fill="#fff"/>
              <path id="パス_5914" data-name="パス 5914" d="M1339.454,955.325a.236.236,0,0,1-.081-.014c-.07-.027-.136-.055-.2-.084a1.032,1.032,0,0,1-.557-.686.964.964,0,0,1,.161-.81l6.1-8.154a1.107,1.107,0,0,1,1.512-.227c.077.052.152.106.226.161a.249.249,0,0,1,.051.34l-7.015,9.378A.251.251,0,0,1,1339.454,955.325Zm6.289-9.707a.605.605,0,0,0-.49.239l-6.1,8.154a.5.5,0,0,0-.081.418.564.564,0,0,0,.306.375l0,0,6.77-9.051-.026-.017A.687.687,0,0,0,1345.743,945.619Z" transform="translate(-1338.59 -945.15)"/>
            </g>
            <path id="パス_5915" data-name="パス 5915" d="M1381.744,983.24a.235.235,0,0,1-.232-.206l-.2-1.641a.235.235,0,0,1,.466-.056l.2,1.641a.235.235,0,0,1-.2.261Z" transform="translate(-1374.634 -975.507)"/>
            <path id="パス_5916" data-name="パス 5916" d="M1374.236,987.019a.235.235,0,0,1-.232-.206l-.2-1.641a.234.234,0,1,1,.465-.057l.2,1.641a.235.235,0,0,1-.2.261Z" transform="translate(-1368.299 -978.695)"/>
          </g>
          <g id="グループ_4115" data-name="グループ 4115" transform="translate(36.132 21.794)">
            <g id="グループ_4113" data-name="グループ 4113">
              <path id="パス_5917" data-name="パス 5917" d="M1576.21,980.051l-3.47-.05a.607.607,0,0,0-.567.387,11.547,11.547,0,0,0-.913,4.366.874.874,0,0,0,.841.864l10.181.146a.771.771,0,0,0,.743-.923,3.125,3.125,0,0,0-1.587-2.048c-1.792-1.134-4.047-2.274-4.759-2.627A1.094,1.094,0,0,0,1576.21,980.051Z" transform="translate(-1571.022 -979.767)" fill="#fff"/>
              <path id="パス_5918" data-name="パス 5918" d="M1581.027,984.733h-.014l-10.181-.146a1.107,1.107,0,0,1-1.072-1.09,11.874,11.874,0,0,1,.93-4.462.839.839,0,0,1,.776-.533h.012l3.47.05a1.318,1.318,0,0,1,.572.139c.663.329,2.968,1.492,4.78,2.639a3.357,3.357,0,0,1,1.692,2.2,1.032,1.032,0,0,1-.228.854A.965.965,0,0,1,1581.027,984.733Zm-9.561-5.763a.373.373,0,0,0-.341.241,11.391,11.391,0,0,0-.9,4.27.639.639,0,0,0,.61.637l10.181.146a.506.506,0,0,0,.386-.18.565.565,0,0,0,.124-.468,2.975,2.975,0,0,0-1.481-1.891c-1.793-1.135-4.08-2.289-4.738-2.616a.855.855,0,0,0-.37-.09l-3.47-.05Z" transform="translate(-1569.757 -978.501)"/>
            </g>
            <g id="グループ_4114" data-name="グループ 4114" transform="translate(0.001 4.477)">
              <path id="パス_5919" data-name="パス 5919" d="M1582.979,1008.809a.009.009,0,0,1,.008.006c.017.065.032.128.043.189a.771.771,0,0,1-.744.923l-10.181-.146a.874.874,0,0,1-.841-.864c0-.089,0-.179,0-.268a.009.009,0,0,1,.009-.008Z" transform="translate(-1571.027 -1008.407)" fill="#fff"/>
              <path id="パス_5920" data-name="パス 5920" d="M1581.031,1008.9h-.014l-10.181-.146a1.107,1.107,0,0,1-1.072-1.09c0-.092,0-.185,0-.278a.25.25,0,0,1,.074-.17.232.232,0,0,1,.171-.072l11.71.168h0a.25.25,0,0,1,.23.181c.019.07.035.14.047.207a1.033,1.033,0,0,1-.228.854A.965.965,0,0,1,1581.031,1008.9Zm-10.8-1.283v.031a.639.639,0,0,0,.61.637l10.181.146a.514.514,0,0,0,.386-.18.565.565,0,0,0,.124-.468v0Z" transform="translate(-1569.761 -1007.141)"/>
            </g>
            <path id="パス_5921" data-name="パス 5921" d="M1601.152,987.606a.234.234,0,0,1-.161-.405l1.018-.956a.234.234,0,1,1,.321.342l-1.018.956A.234.234,0,0,1,1601.152,987.606Z" transform="translate(-1596.047 -984.981)"/>
            <path id="パス_5922" data-name="パス 5922" d="M1608.621,991.264a.234.234,0,0,1-.163-.4l1.02-.992a.234.234,0,1,1,.327.336l-1.02.992A.234.234,0,0,1,1608.621,991.264Z" transform="translate(-1602.348 -988.037)"/>
          </g>
          <g id="グループ_4116" data-name="グループ 4116" transform="translate(11.023)">
            <path id="パス_5923" data-name="パス 5923" d="M1490.684,843.845v0c.1-.073,7.429-5.385,9.8-4.718,4.053,1.14,3.264,13.189,3.18,16.376-.082,3.1-13.344-6.485-13.8-7.3S1490.657,843.921,1490.684,843.845Z" transform="translate(-1477.163 -839.067)" fill="#5479f7"/>
            <path id="パス_5924" data-name="パス 5924" d="M1435.481,876.829l.04.035c2.541,2.269,3.63,4.084,3.448,6.988-.177,2.839-4.258,5.852-17.331,4.374l-1.893-.124-10.632-.166v-7.623a99.52,99.52,0,0,1,11.871-.119.217.217,0,0,0,.053-.43c-3.334-.631-7.625-1.613-8.964-2.736-2.813-2.359-2.515-5.946-1.906-8.5,1.778-7.456,12.877.328,12.954.347h0c.022.013,1.5.872,3.455,2.052Z" transform="translate(-1409.113 -861.197)" fill="#5479f7"/>
            <path id="パス_5925" data-name="パス 5925" d="M1492.349,959.79a.233.233,0,0,1-.121-.034c-.024-.014-2.461-1.438-8.271-1.574a.234.234,0,0,1-.229-.24.232.232,0,0,1,.24-.229c5.955.139,8.4,1.58,8.5,1.641a.234.234,0,0,1-.121.435Z" transform="translate(-1472.066 -939.169)" fill="#caddff"/>
            <path id="パス_5926" data-name="パス 5926" d="M1530.931,907.514a.234.234,0,0,1-.142-.048,50.516,50.516,0,0,0-7.552-4.933.234.234,0,1,1,.211-.419,50.957,50.957,0,0,1,7.626,4.979.235.235,0,0,1-.143.421Z" transform="translate(-1505.29 -892.238)" fill="#caddff"/>
          </g>
        </g>
        <g id="グループ_4121" data-name="グループ 4121" transform="translate(2.274 0.366)">
          <g id="グループ_4118" data-name="グループ 4118" transform="translate(0 18.119)">
            <path id="パス_5927" data-name="パス 5927" d="M1362.465,730.692c-1.413,1.119-6.383,6.239-6.1,16.745a.741.741,0,0,1-.134.449c-.465.659-1.893,2.837-1.538,4.266.41,1.654,1.914,5.282,2.647.261a.119.119,0,0,1,.228-.029c.183.431.481,1.026.7.958.514-.16.466-2.827.406-4.4s-.241-2.205,1.507-5.922c1.077-2.289,4.262-5.139,5.528-6.285C1365.713,736.733,1362.619,730.571,1362.465,730.692Z" transform="translate(-1354.407 -730.439)" fill="#fff"/>
            <path id="パス_5928" data-name="パス 5928" d="M1355.018,753.852c-1.057,0-1.783-2.876-1.814-3-.369-1.487.978-3.613,1.574-4.458a.5.5,0,0,0,.091-.307c-.314-11.453,5.518-16.408,6.184-16.935l.087-.069.117.023c.136.03.34.075,3.4,6.165l.08.159-.222.2c-1.3,1.178-4.351,3.935-5.383,6.129-1.6,3.392-1.562,4.133-1.5,5.479,0,.107.01.219.014.335.149,3.87-.186,4.515-.57,4.635-.275.086-.529-.137-.825-.737-.27,1.614-.646,2.352-1.2,2.379Zm6.154-24.19c-1.145.982-6.123,5.873-5.834,16.412a.968.968,0,0,1-.176.59c-.436.618-1.834,2.739-1.5,4.075.342,1.376,1.007,2.662,1.364,2.643.049,0,.491-.089.823-2.36a.354.354,0,0,1,.675-.087,2.706,2.706,0,0,0,.441.793c.094-.148.34-.857.214-4.137,0-.115-.009-.225-.014-.331-.063-1.374-.1-2.2,1.544-5.7,1.061-2.255,4.105-5.022,5.451-6.239C1363.162,733.344,1361.632,730.376,1361.172,729.663Zm.172-.143h0Z" transform="translate(-1353.141 -729.083)"/>
          </g>
          <g id="グループ_4119" data-name="グループ 4119" transform="translate(33.707)">
            <path id="パス_5929" data-name="パス 5929" d="M1572.417,630.94s4.651,2.491,6.778,2.277c2.992-.3,6.3-9.419,6.531-10.046s.877-4.1,1.8-5.112a11.542,11.542,0,0,0,1.635-3.015.581.581,0,0,1,.707-.354c.252.083.442.322.188.949-.294.725-.646,1.615-.891,2.236a.205.205,0,0,0,.3.253c.388-.28.877-.538,1.2-.358.6.338.923,2.6-.046,4.2s-2.034,1.218-2.357,1.989-3,10.794-4.106,12.528c-1.584,2.493-11.821,2.776-13.483,2.727S1572.417,630.94,1572.417,630.94Z" transform="translate(-1569.993 -614.43)" fill="#fff"/>
            <path id="パス_5930" data-name="パス 5930" d="M1569.906,638.184c-.179,0-.328,0-.444-.005a.606.606,0,0,1-.51-.288c-.828-1.278,1.748-7.591,2.045-8.306l.1-.239.228.122c.046.025,4.611,2.456,6.644,2.251,2.07-.208,4.7-5.443,6.323-9.863l.011-.031c.053-.144.136-.475.241-.894.327-1.306.874-3.492,1.606-4.3a11.443,11.443,0,0,0,1.589-2.943.813.813,0,0,1,1-.491.653.653,0,0,1,.4.344,1.149,1.149,0,0,1-.072.916c-.279.688-.614,1.535-.858,2.152.574-.395,1.033-.5,1.365-.313a1.5,1.5,0,0,1,.557.927,4.95,4.95,0,0,1-.518,3.595,3.394,3.394,0,0,1-1.714,1.481c-.345.155-.53.246-.627.477-.088.21-.387,1.235-.765,2.533-1.018,3.492-2.557,8.769-3.359,10.03C1581.608,637.767,1572.542,638.184,1569.906,638.184Zm1.426-8.183c-1.074,2.638-2.494,6.851-1.987,7.634a.141.141,0,0,0,.13.074c2.514.073,11.852-.375,13.278-2.619.766-1.205,2.355-6.654,3.3-9.91.412-1.414.685-2.347.783-2.582a1.422,1.422,0,0,1,.867-.724,2.942,2.942,0,0,0,1.506-1.3,4.517,4.517,0,0,0,.465-3.232,1.077,1.077,0,0,0-.333-.638c-.165-.093-.518.036-.944.344a.43.43,0,0,1-.519-.008.447.447,0,0,1-.14-.521c.245-.623.6-1.517.891-2.238.135-.333.109-.483.081-.542a.183.183,0,0,0-.124-.1.348.348,0,0,0-.416.217,11.542,11.542,0,0,1-1.679,3.087c-.653.716-1.182,2.831-1.5,4.093-.112.449-.193.774-.255.942l-.011.03c-.849,2.312-3.843,9.879-6.716,10.168C1576.092,632.378,1572.311,630.507,1571.332,630Z" transform="translate(-1568.788 -613.163)"/>
          </g>
          <g id="グループ_4120" data-name="グループ 4120" transform="translate(7.085 12.612)">
            <path id="パス_5931" data-name="パス 5931" d="M1403.289,706.466a5.359,5.359,0,0,1,.514-.337.347.347,0,0,1,.518.3c.022,1.727.017,7.12-.858,8.793a15.347,15.347,0,0,0-2.116,7.434c-.02.283,14.32,6.727,16.107,3.216a.355.355,0,0,0,.026-.263c-.156-.52-.684-2.79.355-7.181a24.758,24.758,0,0,1,4.273-8.74l.017-.027a7.045,7.045,0,0,1,4.717-3.023.348.348,0,0,0,.195-.115,17.41,17.41,0,0,0,3.583-7.907.348.348,0,0,0-.191-.369,27.972,27.972,0,0,0-6.728-2.378c-2.866-.418-1.73.227-3.778-.461a9.658,9.658,0,0,1-1.33-.886c-1.2-.876-3.851.435-6.376-.57a1.417,1.417,0,0,0-.926-.037,12.519,12.519,0,0,1-3.706.54c-1.969-.066-6.291,1.214-9.117,5.4-.112.166,3.421,5.213,4.325,6.535A.348.348,0,0,0,1403.289,706.466Z" transform="translate(-1398.466 -693.854)"/>
            <path id="パス_5932" data-name="パス 5932" d="M1444.176,737.64a.234.234,0,0,1-.2-.356,15.7,15.7,0,0,0,2.359-6.592,20.038,20.038,0,0,1,3.3-8.709.234.234,0,0,1,.377.279,19.538,19.538,0,0,0-3.208,8.482,16.139,16.139,0,0,1-2.425,6.783A.235.235,0,0,1,1444.176,737.64Z" transform="translate(-1436.834 -717.506)" fill="#fff"/>
          </g>
        </g>
        <g id="グループ_4123" data-name="グループ 4123" transform="translate(21.251)">
          <g id="グループ_4122" data-name="グループ 4122" transform="translate(1.511 3.129)">
            <path id="パス_5933" data-name="パス 5933" d="M1490.923,642.567l.046-3.346a.523.523,0,0,1,.372-.487l1.244-.375a.617.617,0,0,0,.439-.6l-.039-1.854a.009.009,0,0,1,0-.008l.544-.435a.255.255,0,0,0,.043-.354l-.861-1.126c-.167-.219-.585-1.552-.853-1.489,0,0-4.859-.759-5.861,1.378a1.813,1.813,0,0,0,.159,1.757l.439.666a3.5,3.5,0,0,1,.577,2.345,3.553,3.553,0,0,1-.221.863l-1.234,2.983a9.429,9.429,0,0,0,4.195.253Z" transform="translate(-1485.485 -632.121)" fill="#fff"/>
            <path id="パス_5934" data-name="パス 5934" d="M1487.111,641.817a9.712,9.712,0,0,1-2.722-.388.234.234,0,0,1-.151-.315l1.234-2.984a3.321,3.321,0,0,0,.205-.8,3.26,3.26,0,0,0-.54-2.187l-.439-.666a2.055,2.055,0,0,1-.175-1.985c1.029-2.2,5.592-1.586,6.075-1.515.318-.024.528.422.831,1.135a4.051,4.051,0,0,0,.208.449l.861,1.126a.492.492,0,0,1-.083.68l-.458.366.037,1.743a.854.854,0,0,1-.606.833l-1.244.375a.288.288,0,0,0-.2.269l-.046,3.343a.234.234,0,0,1-.2.228l-1.009.167A9.616,9.616,0,0,1,1487.111,641.817Zm-2.339-.768a9.254,9.254,0,0,0,3.839.177l.815-.135.043-3.15a.756.756,0,0,1,.538-.708l1.244-.375a.384.384,0,0,0,.272-.374l-.039-1.854a.252.252,0,0,1,.093-.2l.543-.434a.021.021,0,0,0,0-.029l-.861-1.126a3,3,0,0,1-.267-.551,4.442,4.442,0,0,0-.426-.848h-.011c-.047-.007-4.7-.707-5.612,1.246a1.583,1.583,0,0,0,.142,1.528l.439.666a3.729,3.729,0,0,1,.614,2.5,3.787,3.787,0,0,1-.236.92Zm4.885.24h0Z" transform="translate(-1484.22 -630.843)"/>
          </g>
          <path id="パス_5935" data-name="パス 5935" d="M1479.487,617.474a2.551,2.551,0,0,0-.146-.322c-.367-.679-.852-.831-.842-1.209a.712.712,0,0,1,.241-.453c.425-.443,1.107-.343,2.443-.334,1.658.011,1.85.025,2.131-.149a2.349,2.349,0,0,0,.873-2.248,2.231,2.231,0,0,0-1.313-1.8,2.382,2.382,0,0,0-2.416.52,1.128,1.128,0,0,0-.639-.6c-.791-.238-1.721.786-2.047,1.145a4.776,4.776,0,0,0-1.091,2.068,1.677,1.677,0,0,0-1.292.058,1.932,1.932,0,0,0-.839,1.634c-.005,1.208,1.143,2.053,2.009,2.691a4.621,4.621,0,0,0,1.237.7l.539-.438-.323-.357a1.8,1.8,0,0,1-.393-.68.633.633,0,0,1,.027-.571.75.75,0,0,1,.631-.16,1.209,1.209,0,0,1,.862.778Z" transform="translate(-1474.55 -610.824)"/>
        </g>
      </g>
      <g id="グループ_4126" data-name="グループ 4126" transform="translate(14.496 4.314)">
        <path id="パス_5936" data-name="パス 5936" d="M2117.728,647.929a1.632,1.632,0,1,1,1.632-1.632A1.634,1.634,0,0,1,2117.728,647.929Zm0-2.795a1.163,1.163,0,1,0,1.163,1.163A1.164,1.164,0,0,0,2117.728,645.134Z" transform="translate(-2008.196 -577.254)"/>
        <g id="グループ_4125" data-name="グループ 4125" transform="translate(0 53.627)">
          <path id="パス_5937" data-name="パス 5937" d="M1438.926,558.154a.235.235,0,0,1-.235-.234v-1.213a.235.235,0,0,1,.469,0v1.213A.234.234,0,0,1,1438.926,558.154Z" transform="translate(-1436.672 -556.472)"/>
          <path id="パス_5938" data-name="パス 5938" d="M1438.926,576.225a.235.235,0,0,1-.235-.234v-1.212a.235.235,0,0,1,.469,0v1.212A.234.234,0,0,1,1438.926,576.225Z" transform="translate(-1436.672 -571.719)"/>
          <path id="パス_5939" data-name="パス 5939" d="M1427.223,569.856h-1.213a.234.234,0,1,1,0-.469h1.213a.234.234,0,1,1,0,.469Z" transform="translate(-1425.776 -567.368)"/>
          <path id="パス_5940" data-name="パス 5940" d="M1445.295,569.856h-1.212a.234.234,0,0,1,0-.469h1.212a.234.234,0,0,1,0,.469Z" transform="translate(-1441.023 -567.368)"/>
        </g>
        <path id="パス_5941" data-name="パス 5941" d="M1602.591,215.918a1.259,1.259,0,0,1-.668-.193,1.285,1.285,0,0,1-.431-1.743,1.226,1.226,0,0,1,.769-.564,1.253,1.253,0,0,1,.962.158,1.286,1.286,0,0,1,.431,1.744,1.226,1.226,0,0,1-.769.564A1.256,1.256,0,0,1,1602.591,215.918Zm-.036-2.067a.777.777,0,0,0-.183.022.758.758,0,0,0-.477.35.815.815,0,0,0,.276,1.1.788.788,0,0,0,.6.1.759.759,0,0,0,.477-.35.815.815,0,0,0-.276-1.1A.8.8,0,0,0,1602.555,213.851Zm-.861.251h0Z" transform="translate(-1573.877 -213.382)"/>
      </g>
    </g>
  </g>
</svg>
