<svg xmlns="http://www.w3.org/2000/svg" width="130" height="129.379" viewBox="0 0 130 129.379">
  <g id="グループ_5635" data-name="グループ 5635" transform="translate(-2808.546 -3618.815)">
    <g id="Educational_tourism" data-name="Educational tourism" transform="translate(2808.546 3618.815)">
      <path id="パス_4582" data-name="パス 4582" d="M444.584,342.627c17.066,9.615,19.207,27.038,20.874,34.1,5.674,24.035,10.717,58.347-21.222,79.189-24.682,16.106-57.459,7.076-61.183,5.913-6.245-1.95-21.228-6.844-31.544-21.207-16.06-22.359-13.058-56.858,2.988-68.891,7.536-5.652,11.119-1.225,24.494-7.878,17.914-8.909,17.318-19.62,31.689-24.833C426.9,333.136,443.006,341.738,444.584,342.627Z" transform="translate(-340.427 -336.977)" fill="#caddff"/>
      <g id="グループ_3425" data-name="グループ 3425" transform="translate(0 8.453)">
        <g id="グループ_3419" data-name="グループ 3419" transform="translate(0 0)">
          <path id="パス_4583" data-name="パス 4583" d="M435.924,464.267l-32.618-4.918-32.618,4.918-32.618-4.918v94.628l32.618,4.918,32.618-4.918,32.618,4.918,31.677-4.918V459.35Z" transform="translate(-337.836 -459.115)" fill="#fff"/>
          <path id="パス_4584" data-name="パス 4584" d="M797.534,558.9l32.618-4.918V459.35l-32.618,4.918Z" transform="translate(-764.681 -459.115)" fill="#caddff"/>
          <path id="パス_4585" data-name="パス 4585" d="M1713.553,558.9l31.52-4.918V459.35l-31.521,4.918Z" transform="translate(-1615.671 -459.115)" fill="#caddff"/>
          <path id="パス_4586" data-name="パス 4586" d="M349.116,553.27a.218.218,0,0,1-.035,0l-14.114-2.128a.234.234,0,0,1-.2-.232V456.28a.235.235,0,0,1,.27-.232l32.583,4.912,32.583-4.912a.236.236,0,0,1,.07,0l32.583,4.912,31.642-4.912a.235.235,0,0,1,.27.232v94.628a.235.235,0,0,1-.2.232l-10.438,1.62a.235.235,0,1,1-.072-.464l10.24-1.59V456.553l-31.407,4.876a.235.235,0,0,1-.071,0l-32.583-4.912-32.583,4.912a.236.236,0,0,1-.07,0l-32.348-4.877v94.154l13.914,2.1a.235.235,0,0,1-.035.466Z" transform="translate(-334.767 -456.045)" fill="#5479f7"/>
          <path id="パス_4587" data-name="パス 4587" d="M1130.729,1794.386l-.035,0-32.376-4.913-11.856,1.788a.235.235,0,0,1-.07-.464l11.891-1.792a.226.226,0,0,1,.07,0l32.375,4.912,19.563-3.17a.234.234,0,0,1,.075.463l-19.6,3.176A.216.216,0,0,1,1130.729,1794.386Z" transform="translate(-1032.847 -1694.371)" fill="#5479f7"/>
        </g>
        <g id="グループ_3420" data-name="グループ 3420" transform="translate(5.834 5.548)">
          <path id="パス_4588" data-name="パス 4588" d="M648.442,1189.374a1.368,1.368,0,0,0-.872,1.2c-.053,1.642-1.087,5.623-2.576,6.859-4.058,3.368-1.71,9.316,1.074,10.707s3.9,1.543,3.934,3.9-.351,11.424.317,13.83,2.18,6.348,3.069,7.3,3.088,1.61,1.964-1.812-1.853-5.047-.11-6.778,4.745-5.818,5.088-7.46a3.14,3.14,0,0,1,2.247-2.673,8.433,8.433,0,0,0,3.3-1.121c.579-.544-.356-2.284-.561-3.771s-.135-2.365,2.62-3.331,1.738-4.38-1.815-5.535-5.644-3.179-5.072-5-2.32-1.845-3.955-2.854-1.475-2.383-3.321-3.185A6.659,6.659,0,0,0,648.442,1189.374Z" transform="translate(-626.781 -1142.468)" fill="#99b9ff"/>
          <path id="パス_4589" data-name="パス 4589" d="M457,595.354a6.132,6.132,0,0,0,.3-4.008c-.387-.731-1.624-1.966-4.236-.412s-3.231,1.507-3.835.145,1.166-4.646,4.26-4.41,3.8-.762,3.945-1.539-.754-1.724-1.8-1.979-1.272.341-5.829,1.746a12.062,12.062,0,0,1-5.9.32,2.029,2.029,0,0,1-1.471-1.183c-.484-1.114-1.334-2.443-3.447-1.5-2.78,1.242-4.156,3.385-5.186,2.843s-1.183-2.008-1.593-2.767-4.412-3.578-7.525-2.361-8.38,3.392-7.679,4.7,2.829,1.539,6.147,1.132,2.265,1.893,2.6,2.712,1.25,1.154,1.183,2.868-.274,2.624-1.469,3.326a3.614,3.614,0,0,0-1.879,3.427c.276,9.462,6.4,14.905,8.09,15.629s2.153.76,2.942,1.812a.312.312,0,0,0,.064.063,16.253,16.253,0,0,0,2.946,4.1c1.434.987,1.829-1.069,1.96-2.725a14.262,14.262,0,0,0-1.088-5.677c-.733-1.985-.637-3.206-.31-3.97a1.172,1.172,0,0,1,2.054-.106c.645.839,2.29,1.665,3.146,1.237,1.051-.526.846-2.915,1.261-3.672s2.4-1.132,3.327-2.727,3.972-.909,5.726-1.233c2.181-.4,3.576-1.364,3.83-1.894C458.344,597.577,456.447,596.715,457,595.354Z" transform="translate(-416.946 -576.702)" fill="#99b9ff"/>
          <path id="パス_4590" data-name="パス 4590" d="M969.312,534.344a1.619,1.619,0,0,0-1.055,2.153,1.964,1.964,0,0,0,.456.737c.585.508,3.067.971,3.438,1.965s-1.351,5.7.309,6.7c1.058.64,8.027-1.452,11.191-3.923s4.609-4.105,2.919-4.349-5.691.04-8.173-.423-6.51-2.739-7.8-2.972A2.785,2.785,0,0,0,969.312,534.344Z" transform="translate(-929.011 -534.201)" fill="#99b9ff"/>
          <path id="パス_4591" data-name="パス 4591" d="M1037.274,682.312s-5.356,1.118-7.477-.229-.256-3.44-3.5-3.555-9.346-.347-11.2,4.818-1.729,7.5,1.266,9.7,7.725-.263,8.725,1.209.57,2.427.882,4.79c.927,7.023,3.219,14.184,5.638,15.224,1.445.621,4.983-.5,6.473-2.964s3-3.908,3.227-6.151c.179-1.75-1.876-3.313.239-5.284s5.1-2.592,5.1-3.943-1-1.718-2.247-2.084-4.367-2.939-4.122-4.783.9-2.767,1.494-2.182.4,2.345.9,3.126,1.394,3.125,3.077,2.241,2.178-1.471,3.169-1.669,1.481-2.838.686-3.618-1.587-.387-2.084-.973-1.392-1.952.2-1.564.7,1.465,3.473,1.849,5.457,2.236,6.253,4.189,1.5,4.786,2.587,4.882.785-3.814,2.567-5.089,2.869-2.841,4.061-1.769,3.18,3.9,4.47,4.682,4.167,1.75,3.667-.106-2.883-4-1.5-4.786,4.859.966,5.648-.893-.306-4.3-1.5-5.568-.7-3.126.59-2.347,2.98,3.121,3.872,3.022-.9-1.66.091-3.715,1.976-3.133.486-4.693-4.169-2.728-2.981-3.317,2.676-.1,4.064-.107,1.483-2.056,2.178-1.471.5,4.3,2.29,4.785-.105-2.834,1.28-4.108,2.967-3.233,1.876-3.914-4.857.109-5.949-.768-2.977-1.557-6.545-1.158-9.117,1.292-11.6.124-1.293-2.05-4.268-2.825-9.319-.468-10.8.22-1.682,1.666-7.925,2.657-6.448-2.527-8.927-2.814-4.065-.284-7.133,1.873-4.751,3.237-3.363,3.527,1.588.681,3.767.089,2.475-1.667,3.268-1.474,1.588,1.072-.491,2.347-2.478.006-3.766.4-.691,1.468-1.78,2.155-1.191-.682-2.675.69-1.482,2.545-2.075,3.231-1.786-.973-2.577.3-.192,3.031,1.2,2.832,2.672-2.254,4.654-2.454,3.566-1.474,3.668-.008.105,3.128.9,2.93.49-2.836,1.184-2.74,1.491,2.049,2.88,2.633,3.074.286,4.364.968S1040.414,679.974,1037.274,682.312Z" transform="translate(-971.495 -651.873)" fill="#99b9ff"/>
          <path id="パス_4592" data-name="パス 4592" d="M1590.1,1352.084s-1.732-8.414,2.463-9.565,11.48-1.461,13-4.342c2.259-4.286,7.091-4.286,9.253-.212,2.072,3.9,6.409,7.667,5.173,10.333s-10.331,10.616-12.371,10.459-3-5.382-5.363-5.747a51.158,51.158,0,0,0-10.186.143A1.563,1.563,0,0,1,1590.1,1352.084Z" transform="translate(-1506.489 -1278.091)" fill="#99b9ff"/>
        </g>
        <g id="グループ_3421" data-name="グループ 3421" transform="translate(32.618 0)">
          <path id="パス_4593" data-name="パス 4593" d="M1253.929,845.909a.235.235,0,0,1-.234-.235V829.823a.235.235,0,1,1,.469,0v15.851A.235.235,0,0,1,1253.929,845.909Z" transform="translate(-1221.076 -803.07)" fill="#5479f7"/>
          <path id="パス_4594" data-name="パス 4594" d="M1253.929,469.1a.235.235,0,0,1-.234-.234V456.281a.235.235,0,1,1,.469,0v12.588A.235.235,0,0,1,1253.929,469.1Z" transform="translate(-1221.076 -456.046)" fill="#5479f7"/>
          <path id="パス_4595" data-name="パス 4595" d="M1253.929,1249.689a.235.235,0,0,1-.234-.234V1232.7a.235.235,0,1,1,.469,0v16.756A.235.235,0,0,1,1253.929,1249.689Z" transform="translate(-1221.076 -1177.345)" fill="#5479f7"/>
          <path id="パス_4596" data-name="パス 4596" d="M794.464,1266.967a.235.235,0,0,1-.234-.234v-14.442a.235.235,0,1,1,.469,0v14.442A.235.235,0,0,1,794.464,1266.967Z" transform="translate(-794.23 -1195.546)" fill="#5479f7"/>
          <path id="パス_4597" data-name="パス 4597" d="M794.464,962.53a.234.234,0,0,1-.234-.234v-7.2a.235.235,0,0,1,.469,0v7.2A.234.234,0,0,1,794.464,962.53Z" transform="translate(-794.23 -919.451)" fill="#5479f7"/>
          <path id="パス_4598" data-name="パス 4598" d="M794.464,536.9a.235.235,0,0,1-.234-.234V525.552a.235.235,0,1,1,.469,0v11.114A.235.235,0,0,1,794.464,536.9Z" transform="translate(-794.23 -520.399)" fill="#5479f7"/>
          <path id="パス_4599" data-name="パス 4599" d="M1713.392,538.637a.235.235,0,0,1-.235-.234V525.552a.235.235,0,0,1,.469,0V538.4A.235.235,0,0,1,1713.392,538.637Z" transform="translate(-1647.921 -520.399)" fill="#5479f7"/>
        </g>
        <path id="パス_4600" data-name="パス 4600" d="M452.112,823.472a.235.235,0,0,1-.208-.126l-.1-.2a.235.235,0,0,1,.417-.216l.1.2a.235.235,0,0,1-.208.343Zm-.942-1.882a.235.235,0,0,1-.211-.133c-.265-.548-.533-1.122-.8-1.707a.235.235,0,1,1,.427-.195c.265.581.532,1.152.8,1.7a.235.235,0,0,1-.211.337Zm-1.559-3.42a.234.234,0,0,1-.215-.142c-.249-.576-.494-1.161-.729-1.737a.235.235,0,0,1,.434-.177c.234.573.478,1.154.725,1.728a.235.235,0,0,1-.215.328Zm-1.42-3.479a.235.235,0,0,1-.219-.151c-.226-.586-.447-1.18-.658-1.765a.235.235,0,0,1,.441-.159c.21.582.43,1.172.654,1.756a.235.235,0,0,1-.135.3A.232.232,0,0,1,448.191,814.692Zm-1.273-3.534a.235.235,0,0,1-.222-.16c-.2-.6-.4-1.2-.578-1.793a.235.235,0,0,1,.448-.139c.182.589.375,1.189.575,1.782a.235.235,0,0,1-.222.309Zm-1.108-3.589a.235.235,0,0,1-.226-.171c-.172-.613-.335-1.226-.484-1.821a.235.235,0,1,1,.455-.114c.148.591.31,1.2.481,1.809a.234.234,0,0,1-.163.289A.23.23,0,0,1,445.81,807.568Zm-.912-3.643a.235.235,0,0,1-.229-.185c-.136-.625-.261-1.247-.37-1.85a.235.235,0,1,1,.462-.084c.109.6.232,1.214.367,1.834a.235.235,0,0,1-.229.285Zm-.67-3.695a.235.235,0,0,1-.232-.2c-.09-.634-.166-1.264-.226-1.872a.235.235,0,0,1,.467-.046c.059.6.134,1.225.224,1.852a.235.235,0,0,1-.2.265Zm-.363-3.734a.235.235,0,0,1-.234-.223c-.027-.547-.04-1.092-.04-1.619,0-.09,0-.181,0-.271a.235.235,0,0,1,.235-.233h0a.235.235,0,0,1,.233.237q0,.133,0,.267c0,.52.013,1.057.039,1.6a.235.235,0,0,1-.223.246Zm.038-3.751h-.018a.235.235,0,0,1-.216-.251c.048-.643.119-1.276.211-1.881a.235.235,0,1,1,.464.07c-.09.594-.16,1.214-.207,1.846A.235.235,0,0,1,443.9,792.745Zm.571-3.7a.244.244,0,0,1-.056-.007.235.235,0,0,1-.172-.284,18.679,18.679,0,0,1,.542-1.82.235.235,0,1,1,.442.157,18.256,18.256,0,0,0-.528,1.774A.234.234,0,0,1,444.474,789.041Zm1.261-3.525a.235.235,0,0,1-.21-.338,15.037,15.037,0,0,1,.946-1.653.234.234,0,1,1,.391.259,14.6,14.6,0,0,0-.916,1.6A.234.234,0,0,1,445.735,785.516Zm2.047-3.136A.235.235,0,0,1,447.6,782c.4-.485.826-.959,1.272-1.409a.235.235,0,1,1,.333.33c-.436.44-.854.9-1.242,1.377A.234.234,0,0,1,447.781,782.38Zm70.365-.888q-.709,0-1.432-.01a.235.235,0,0,1,0-.469h0q.948.013,1.871.009h0a.234.234,0,0,1,0,.469Zm2.323-.028a.235.235,0,0,1-.006-.469c.632-.015,1.261-.038,1.87-.066a.235.235,0,1,1,.022.469c-.613.029-1.245.051-1.88.067Zm-5.627-.022h-.007c-.61-.018-1.242-.041-1.878-.069a.235.235,0,1,1,.021-.469c.634.028,1.264.051,1.872.069a.235.235,0,0,1-.007.469Zm9.375-.155a.235.235,0,0,1-.017-.469c.63-.045,1.257-.1,1.863-.16a.235.235,0,0,1,.047.467c-.611.061-1.242.116-1.876.162Zm-13.124-.009h-.013c-.611-.035-1.242-.074-1.875-.118a.235.235,0,0,1,.032-.468c.631.043,1.26.083,1.869.117a.235.235,0,0,1-.013.469Zm-3.743-.256h-.019q-.934-.074-1.872-.154a.235.235,0,0,1,.04-.467q.935.08,1.868.153a.235.235,0,0,1-.018.468Zm20.6-.113a.235.235,0,0,1-.031-.467c.626-.083,1.247-.176,1.847-.277a.235.235,0,1,1,.078.463c-.605.1-1.232.2-1.863.28Zm-24.34-.206h-.022q-.938-.086-1.873-.177a.235.235,0,1,1,.045-.467q.934.091,1.871.177a.235.235,0,0,1-.021.468Zm-3.74-.363h-.024q-.938-.1-1.869-.2a.235.235,0,0,1,.05-.466q.929.1,1.867.2a.235.235,0,0,1-.024.468Zm31.779-.056a.235.235,0,0,1-.048-.464c.617-.129,1.228-.271,1.818-.421a.235.235,0,0,1,.116.455c-.6.152-1.214.3-1.838.426A.24.24,0,0,1,531.649,780.284Zm-35.513-.345-.026,0q-.941-.106-1.867-.214a.235.235,0,0,1,.054-.466q.924.108,1.865.213a.235.235,0,0,1-.026.468Zm-45.716-.221a.235.235,0,0,1-.151-.414q.226-.189.465-.378c.34-.268.7-.525,1.055-.764a.235.235,0,1,1,.259.391c-.349.232-.694.481-1.024.741q-.234.184-.454.369A.233.233,0,0,1,450.42,779.718ZM492.4,779.5l-.028,0q-.944-.114-1.865-.229a.235.235,0,0,1,.058-.466q.919.115,1.863.229a.235.235,0,0,1-.028.467Zm42.878-.15a.235.235,0,0,1-.069-.459c.6-.184,1.194-.383,1.767-.593a.235.235,0,1,1,.161.441c-.58.212-1.183.414-1.79.6A.235.235,0,0,1,535.283,779.354Zm-46.606-.316-.03,0q-.95-.122-1.863-.243a.235.235,0,1,1,.062-.465q.912.121,1.861.243a.235.235,0,0,1-.03.467Zm-3.724-.494-.032,0q-.958-.131-1.862-.257a.235.235,0,0,1,.065-.465q.9.126,1.86.257a.235.235,0,0,1-.031.467Zm53.851-.481a.235.235,0,0,1-.093-.45c.572-.247,1.14-.513,1.686-.789a.235.235,0,0,1,.212.418c-.555.281-1.13.55-1.712.8A.233.233,0,0,1,538.8,778.064Zm-57.572-.04-.034,0q-.976-.14-1.86-.27a.235.235,0,1,1,.068-.464q.882.13,1.858.27a.235.235,0,0,1-.033.467Zm-27.692-.375a.235.235,0,0,1-.106-.444,16.962,16.962,0,0,1,1.743-.76.234.234,0,1,1,.163.44,16.542,16.542,0,0,0-1.695.739A.233.233,0,0,1,453.54,777.649Zm23.975-.172-.035,0c-.689-.1-1.311-.2-1.858-.284a.235.235,0,1,1,.072-.464c.547.085,1.168.18,1.856.284a.235.235,0,0,1-.035.466ZM473.8,776.9l-.038,0-.834-.135-1.024-.172a.235.235,0,1,1,.078-.463l1.017.17h.007l.831.135a.235.235,0,0,1-.037.466Zm68.349-.531a.235.235,0,0,1-.119-.437c.533-.315,1.061-.65,1.569-1a.234.234,0,0,1,.265.387c-.516.353-1.053.694-1.6,1.013A.233.233,0,0,1,542.149,776.369Zm-85.1-.027a.235.235,0,0,1-.058-.462c.6-.154,1.222-.284,1.857-.386a.235.235,0,0,1,.075.463c-.621.1-1.232.227-1.815.377A.236.236,0,0,1,457.049,776.341Zm13.043-.05-.036,0c-.67-.1-1.275-.191-1.852-.265a.235.235,0,0,1,.06-.465c.58.075,1.19.162,1.864.267a.235.235,0,0,1-.036.466Zm-3.722-.475h-.022c-.639-.059-1.265-.1-1.861-.13a.235.235,0,0,1,.021-.469c.6.027,1.236.071,1.882.131a.235.235,0,0,1-.021.468Zm-5.622-.079a.235.235,0,0,1-.018-.468c.609-.049,1.245-.078,1.89-.085a.239.239,0,0,1,.237.232.235.235,0,0,1-.232.237c-.635.008-1.26.036-1.858.083Zm84.5-1.483a.235.235,0,0,1-.146-.419c.515-.406.987-.814,1.4-1.212a.235.235,0,0,1,.324.339c-.426.408-.91.825-1.436,1.241A.234.234,0,0,1,545.243,774.254Zm2.685-2.609a.235.235,0,0,1-.184-.379,8.643,8.643,0,0,0,.979-1.538.235.235,0,0,1,.422.206,9.117,9.117,0,0,1-1.031,1.622A.234.234,0,0,1,547.928,771.645Zm1.585-3.357a.235.235,0,0,1-.232-.274c.032-.188.055-.38.068-.572.009-.133.014-.268.014-.4a6.03,6.03,0,0,0-.057-.823.235.235,0,0,1,.465-.064,6.531,6.531,0,0,1,.061.887c0,.144-.005.29-.015.433-.014.207-.039.415-.073.618A.235.235,0,0,1,549.513,768.289Zm-.476-3.668a.235.235,0,0,1-.217-.144,9.58,9.58,0,0,0-.873-1.607.235.235,0,0,1,.39-.26,10.069,10.069,0,0,1,.915,1.686.235.235,0,0,1-.216.325Zm-2.045-3.127a.234.234,0,0,1-.176-.079c-.389-.438-.827-.882-1.3-1.32a.235.235,0,0,1,.318-.345c.487.449.936.9,1.335,1.354a.235.235,0,0,1-.175.39Zm-2.748-2.554a.233.233,0,0,1-.145-.051c-.466-.368-.97-.742-1.5-1.11a.235.235,0,1,1,.268-.385c.536.373,1.047.752,1.521,1.126a.235.235,0,0,1-.146.419Zm-3.076-2.154a.234.234,0,0,1-.125-.036c-.345-.217-.7-.436-1.1-.672q-.244-.145-.5-.285a.235.235,0,0,1,.225-.411q.263.144.514.293c.4.237.762.459,1.111.678a.235.235,0,0,1-.125.433Zm-3.3-1.787a.233.233,0,0,1-.094-.02c-.539-.236-1.121-.467-1.73-.687a.235.235,0,0,1,.16-.441c.619.224,1.21.459,1.759.7a.235.235,0,0,1-.094.449Zm-3.526-1.286a.236.236,0,0,1-.069-.01c-.572-.175-1.177-.347-1.8-.51a.235.235,0,0,1,.119-.454c.626.165,1.237.338,1.815.516a.235.235,0,0,1-.069.459Zm-3.63-.96a.234.234,0,0,1-.052-.006c-.59-.135-1.205-.266-1.83-.39a.235.235,0,1,1,.091-.46c.629.125,1.249.257,1.843.392a.235.235,0,0,1-.052.463Zm-3.682-.733a.237.237,0,0,1-.04,0c-.6-.1-1.225-.2-1.849-.3a.235.235,0,0,1,.069-.464c.627.094,1.253.195,1.859.3a.235.235,0,0,1-.04.466Zm-3.714-.557-.03,0c-.612-.079-1.238-.153-1.86-.221a.235.235,0,0,1,.051-.466c.625.068,1.254.143,1.869.222a.235.235,0,0,1-.03.467Zm-3.733-.406h-.021c-.622-.056-1.25-.106-1.867-.149a.235.235,0,0,1,.033-.468c.62.043,1.251.094,1.876.15a.235.235,0,0,1-.021.468Zm-3.746-.261h-.012c-.641-.031-1.27-.055-1.871-.07a.234.234,0,0,1-.228-.24.23.23,0,0,1,.24-.229c.6.015,1.238.039,1.882.071a.235.235,0,0,1-.011.469Z" transform="translate(-435.865 -729.371)" fill="#5479f7"/>
        <g id="グループ_3422" data-name="グループ 3422" transform="translate(22.494 2.34)">
          <path id="パス_4601" data-name="パス 4601" d="M655.991,489a4.357,4.357,0,0,0-4.371,4.343,6.552,6.552,0,0,0,.683,2.358,44.712,44.712,0,0,0,3.515,6.01.21.21,0,0,0,.346,0c.811-1.185,4.2-6.258,4.2-8.369A4.357,4.357,0,0,0,655.991,489Z" transform="translate(-651.62 -489.001)" fill="#5479f7"/>
          <ellipse id="楕円形_129" data-name="楕円形 129" cx="1.912" cy="1.905" rx="1.912" ry="1.905" transform="translate(2.458 2.427)" fill="#fff"/>
        </g>
        <g id="グループ_3423" data-name="グループ 3423" transform="translate(66.548 32.872)">
          <path id="パス_4602" data-name="パス 4602" d="M1277.947,919.087a5.755,5.755,0,0,0-5.774,5.737,8.656,8.656,0,0,0,.9,3.116,59.01,59.01,0,0,0,4.643,7.94.278.278,0,0,0,.458,0c1.072-1.566,5.546-8.267,5.546-11.056A5.755,5.755,0,0,0,1277.947,919.087Z" transform="translate(-1272.173 -919.087)"/>
          <ellipse id="楕円形_130" data-name="楕円形 130" cx="2.526" cy="2.517" rx="2.526" ry="2.517" transform="translate(3.248 3.206)" fill="#fff"/>
        </g>
        <g id="グループ_3424" data-name="グループ 3424" transform="translate(109.278 12.665)">
          <path id="パス_4603" data-name="パス 4603" d="M1879.855,634.442a5.755,5.755,0,0,0-5.774,5.737,8.658,8.658,0,0,0,.9,3.116,58.973,58.973,0,0,0,4.643,7.94.277.277,0,0,0,.457,0c1.072-1.566,5.545-8.267,5.545-11.056A5.755,5.755,0,0,0,1879.855,634.442Z" transform="translate(-1874.081 -634.442)"/>
          <ellipse id="楕円形_131" data-name="楕円形 131" cx="2.526" cy="2.517" rx="2.526" ry="2.517" transform="translate(3.248 3.206)" fill="#fff"/>
        </g>
      </g>
      <g id="グループ_3433" data-name="グループ 3433" transform="translate(2.66 8.58)">
        <g id="グループ_3426" data-name="グループ 3426" transform="translate(40.284 10.728)">
          <path id="パス_4604" data-name="パス 4604" d="M951.588,612.239l.022,0-3.441.272c-1.6.126-5.267,1.44-5.169,2.686s3.926,1.966,5.526,1.84l3.4-.232c.787-.062,1.345-1.135,1.244-2.395S952.366,612.2,951.588,612.239Z" transform="translate(-942.764 -612.003)" fill="#fff"/>
          <path id="パス_4605" data-name="パス 4605" d="M1047.243,614.6c.1,1.26.8,2.232,1.562,2.172s1.3-1.131,1.2-2.391-.8-2.233-1.562-2.172S1047.143,613.339,1047.243,614.6Z" transform="translate(-1039.597 -611.974)" fill="#5479f7"/>
          <path id="パス_4606" data-name="パス 4606" d="M950.586,645.525l-2.739.216a9.624,9.624,0,0,1-4.574-1.182.93.93,0,0,0-.272.664c.1,1.244,3.926,1.966,5.526,1.84l3.195-.253A1.8,1.8,0,0,1,950.586,645.525Z" transform="translate(-942.764 -642.031)" fill="#caddff"/>
          <path id="パス_4607" data-name="パス 4607" d="M945.058,614.231a12.331,12.331,0,0,1-2.989-.429c-1.045-.286-2.306-.8-2.372-1.642-.119-1.5,3.774-2.811,5.384-2.939l3.3-.261c.033,0,.067-.005.1-.006l.012,0,.028,0v0c.909-.036,1.705,1.006,1.815,2.385.112,1.411-.529,2.573-1.46,2.647l-3.4.232C945.346,614.226,945.207,614.231,945.058,614.231Zm3.458-4.81-3.4.269c-1.778.141-5.029,1.479-4.953,2.434.034.429.792.888,2.028,1.226a10.883,10.883,0,0,0,3.246.4l3.4-.231c.646-.052,1.117-1.032,1.029-2.142-.087-1.094-.695-1.989-1.338-1.954Z" transform="translate(-939.695 -608.95)"/>
        </g>
        <g id="グループ_3427" data-name="グループ 3427" transform="translate(34.988 0)">
          <path id="パス_4608" data-name="パス 4608" d="M880.727,479.85l-10.414-18.715-1.918.334s2.129,13.615,2.184,15.409a26.332,26.332,0,0,1-.609,4.833Z" transform="translate(-868.16 -460.9)" fill="#fff"/>
          <path id="パス_4609" data-name="パス 4609" d="M891.115,479.044l-9.965-17.909-1.09.19c1,3.093,4.033,12.55,4.217,14.036a26.324,26.324,0,0,1-.16,4.869Z" transform="translate(-878.997 -460.9)" fill="#5479f7"/>
          <path id="パス_4610" data-name="パス 4610" d="M866.9,478.875a.235.235,0,0,1-.229-.285,26.271,26.271,0,0,0,.6-4.776c-.054-1.759-2.16-15.244-2.181-15.38a.235.235,0,0,1,.192-.267l1.918-.334a.234.234,0,0,1,.245.117l10.414,18.715a.235.235,0,0,1-.165.345l-10.758,1.861A.234.234,0,0,1,866.9,478.875Zm-1.307-20.285c.288,1.849,2.1,13.529,2.151,15.21a24.134,24.134,0,0,1-.544,4.55l10.092-1.745-10.172-18.28Z" transform="translate(-865.09 -457.83)"/>
        </g>
        <path id="パス_4611" data-name="パス 4611" d="M401.822,659.5a55.342,55.342,0,0,1-6.259-.355l-13.882-1.582-.207-1.755,2.2-.632-10.837-8.862,4.029-.475.02.01,14.646,6.891,44.427-4.279c.035-.006,4.024-.608,6.787,1.858.195.1,2.485,1.249,2.438,2.26-.079,1.649-2.16,2.752-6.361,3.373-3.981.589-21.574,2.315-31.706,3.292C405.362,659.42,403.592,659.5,401.822,659.5Zm-20-2.077,13.759,1.567a55.221,55.221,0,0,0,11.525.1c10.131-.976,27.721-2.7,31.7-3.291,6.116-.9,6.2-2.652,6.228-3.226.044-.932-2.336-2.106-2.36-2.117l-.018-.012c-2.709-2.425-6.632-1.833-6.671-1.826l-44.474,4.284-.019-.009-14.645-6.891-3.619.427,10.783,8.818-2.363.678Z" transform="translate(-372.798 -632.497)" fill="#fff"/>
        <g id="グループ_3428" data-name="グループ 3428" transform="translate(11.068 14.803)">
          <path id="パス_4612" data-name="パス 4612" d="M531.45,677.058l3.437-7.151,1.735-.253.079,6.513Z" transform="translate(-531.215 -669.419)" fill="#fff"/>
          <path id="パス_4613" data-name="パス 4613" d="M528.381,674.223a.235.235,0,0,1-.211-.336l3.437-7.151a.234.234,0,0,1,.177-.13l1.735-.253a.235.235,0,0,1,.268.229l.079,6.513a.234.234,0,0,1-.2.234l-5.251.891A.245.245,0,0,1,528.381,674.223Zm3.594-7.171-3.186,6.629,4.606-.782-.073-6.044Z" transform="translate(-528.147 -666.35)"/>
        </g>
        <g id="グループ_3429" data-name="グループ 3429" transform="translate(28.524 28.889)">
          <path id="パス_4614" data-name="パス 4614" d="M786.127,868.071h.022l-3.452.011c-1.605.005-5.361,1.038-5.357,2.288s3.766,2.258,5.371,2.252c0,0,3.321.027,3.408.026.79,0,1.427-1.03,1.422-2.294S786.906,868.087,786.127,868.071Z" transform="translate(-777.106 -867.835)" fill="#fff"/>
          <path id="パス_4615" data-name="パス 4615" d="M882.021,870.364c0,1.264.628,2.286,1.393,2.284s1.381-1.029,1.377-2.294-.628-2.287-1.393-2.284S882.016,869.1,882.021,870.364Z" transform="translate(-874.355 -867.835)" fill="#5479f7"/>
          <path id="パス_4616" data-name="パス 4616" d="M784.882,892.931l-2.747.009a9.625,9.625,0,0,1-4.472-1.525.93.93,0,0,0-.322.642c0,1.248,3.766,2.258,5.371,2.252l3.205-.01A1.8,1.8,0,0,1,784.882,892.931Z" transform="translate(-777.106 -889.523)" fill="#caddff"/>
          <path id="パス_4617" data-name="パス 4617" d="M783.051,869.813l-3.409-.026a11.454,11.454,0,0,1-3.363-.67c-1.021-.365-2.238-.976-2.241-1.816s1.211-1.461,2.229-1.832a11.384,11.384,0,0,1,3.361-.691l3.309-.011c.032,0,.067,0,.1,0h.041c.91.032,1.624,1.133,1.629,2.516,0,1.415-.722,2.526-1.656,2.529Zm-3.408-.5,3.406.026h0c.648,0,1.192-.945,1.188-2.058,0-1.1-.547-2.035-1.186-2.049h-.015l-3.408.011a10.879,10.879,0,0,0-3.2.663c-1.2.439-1.922.958-1.921,1.39s.723.945,1.93,1.376a10.915,10.915,0,0,0,3.194.643Z" transform="translate(-774.038 -864.766)"/>
        </g>
        <g id="グループ_3430" data-name="グループ 3430" transform="translate(0 13.193)">
          <path id="パス_4618" data-name="パス 4618" d="M394.015,653.606l44.469-4.011a9.129,9.129,0,0,1,6.365,1.537c.262.2,2.678,1.464,2.774,2.5.092.993-.78,2.484-6.294,3.3-4.032.6-22.22,2.377-31.7,3.291a55.193,55.193,0,0,1-11.541-.1l-13.821-1.574-.192-1.627,2.283-.655-10.81-8.84,3.824-.451Z" transform="translate(-375.312 -646.74)" fill="#fff"/>
          <path id="パス_4619" data-name="パス 4619" d="M377.735,649.691l-2.19.258,10.85,8.782,7.223-.541Z" transform="translate(-375.311 -649.264)" fill="#5479f7"/>
          <path id="パス_4620" data-name="パス 4620" d="M558.46,707.206c.093.426-.514,1.068-2.981,1.432-31.725,4.68-52.122,3.9-59.121,3.1l.142,1.2,13.821,1.574a55.184,55.184,0,0,0,11.541.1c9.483-.914,27.671-2.694,31.7-3.291,5.514-.815,6.386-2.307,6.294-3.3-.1-1.036-2.513-2.3-2.774-2.5C557.084,705.526,558.282,706.384,558.46,707.206Z" transform="translate(-487.547 -701.135)" fill="#5479f7"/>
          <path id="パス_4621" data-name="パス 4621" d="M1276.878,685.974a12.118,12.118,0,0,0-1.646-.522c.644.567.927,1.115.688,1.425-.469.608-3.021.721-3.021.721l.469,1.332c2.271-.244,4.176-.707,4.268-1.407A1.735,1.735,0,0,0,1276.878,685.974Z" transform="translate(-1208.96 -682.486)" fill="#5479f7"/>
          <path id="パス_4622" data-name="パス 4622" d="M401.266,657.642a55.513,55.513,0,0,1-6.276-.356l-13.821-1.575a.234.234,0,0,1-.206-.206l-.192-1.627a.234.234,0,0,1,.168-.253l1.852-.531-10.463-8.556a.235.235,0,0,1,.121-.415l3.824-.451a.236.236,0,0,1,.124.019l14.588,6.6,44.4-4a9.263,9.263,0,0,1,6.537,1.584c.035.027.157.1.287.18,1.23.747,2.5,1.626,2.578,2.484.108,1.167-.931,2.731-6.493,3.553-3.984.59-21.58,2.316-31.714,3.293C404.816,657.557,403.041,657.642,401.266,657.642Zm-19.859-2.375,13.636,1.553a55.049,55.049,0,0,0,11.492.1c10.13-.976,27.717-2.7,31.691-3.29,5.474-.809,6.168-2.256,6.1-3.046-.068-.738-1.729-1.747-2.354-2.126-.18-.109-.277-.168-.33-.21a8.937,8.937,0,0,0-6.185-1.491l-.016,0-44.469,4.011a.234.234,0,0,1-.118-.02l-14.585-6.6-3.211.379,10.382,8.49a.235.235,0,0,1-.084.407l-2.091.6Z" transform="translate(-372.243 -643.671)"/>
        </g>
        <g id="グループ_3431" data-name="グループ 3431" transform="translate(1.444 24.179)">
          <path id="パス_4623" data-name="パス 4623" d="M395.885,804.544l2.7.338,9.882-2.823-5.378-.339Z" transform="translate(-395.65 -801.485)" fill="#fff"/>
          <path id="パス_4624" data-name="パス 4624" d="M395.517,802.046l-.029,0-2.7-.338a.234.234,0,0,1-.056-.451l7.206-2.824a.234.234,0,0,1,.1-.016l5.378.339a.235.235,0,0,1,.05.46l-9.882,2.822A.243.243,0,0,1,395.517,802.046Zm-1.757-.691,1.739.217,8.526-2.435-3.967-.25Z" transform="translate(-392.58 -798.416)"/>
        </g>
        <g id="グループ_3432" data-name="グループ 3432" transform="translate(7.411 23.951)">
          <path id="パス_4625" data-name="パス 4625" d="M518.651,798.51l-34.412,14.479-4.943.22s16.315-8.35,18.416-9.583c3.069-1.8,6.764-4.018,6.764-4.018Z" transform="translate(-479.107 -798.275)" fill="#fff"/>
          <path id="パス_4626" data-name="パス 4626" d="M538.714,803.363l-20.534,9.646,2.316-.076,34.279-14.423-8.114.641C545.942,800.459,538.714,803.363,538.714,803.363Z" transform="translate(-515.231 -798.275)" fill="#5479f7"/>
          <path id="パス_4627" data-name="パス 4627" d="M476.868,810.439a.235.235,0,0,1-.113-.44c.107-.059,10.756-5.939,18.381-9.654a75.565,75.565,0,0,0,6.736-4,.233.233,0,0,1,.112-.039l14.176-1.1a.235.235,0,0,1,.109.45l-34.412,14.479a.235.235,0,0,1-.077.018l-4.9.285Zm25.213-13.672a74.835,74.835,0,0,1-6.74,4c-6.313,3.076-14.706,7.64-17.45,9.143l3.821-.222,33.04-13.9Z" transform="translate(-476.634 -795.206)"/>
        </g>
      </g>
      <g id="グループ_3459" data-name="グループ 3459" transform="translate(0.037 59.617)">
        <g id="グループ_3440" data-name="グループ 3440" transform="translate(0 41.807)">
          <g id="グループ_3436" data-name="グループ 3436">
            <g id="グループ_3434" data-name="グループ 3434" transform="translate(1.638 0.991)">
              <path id="パス_4628" data-name="パス 4628" d="M361.673,1792.36a8.643,8.643,0,0,0,0-8.2l1.036-1.242,28.326.931-.976,9-27.419.316Z" transform="translate(-361.438 -1782.681)" fill="#fff"/>
              <path id="パス_4629" data-name="パス 4629" d="M359.569,1790.326a.235.235,0,0,1-.15-.054l-.966-.8a.235.235,0,0,1-.061-.283,8.366,8.366,0,0,0,0-7.992.235.235,0,0,1,.028-.259l1.036-1.242a.239.239,0,0,1,.188-.084l28.326.931a.235.235,0,0,1,.226.26l-.976,9a.234.234,0,0,1-.23.209l-27.419.316Zm-.676-1.1.759.628,27.125-.312.926-8.54-27.958-.919-.863,1.035A8.881,8.881,0,0,1,358.893,1789.227Z" transform="translate(-358.368 -1779.611)"/>
            </g>
            <g id="グループ_3435" data-name="グループ 3435">
              <path id="パス_4630" data-name="パス 4630" d="M392.282,1768.961H339.708a1.113,1.113,0,1,0,0,2.225h24.17a3.2,3.2,0,0,1,3.2,3.2v1.8a3.2,3.2,0,0,1-3.2,3.2h-24.17a1.113,1.113,0,1,0,0,2.225h52.574a5.909,5.909,0,0,0,5.909-5.909v-.844A5.909,5.909,0,0,0,392.282,1768.961Z" transform="translate(-338.361 -1768.727)" fill="#99b9ff"/>
              <path id="パス_4631" data-name="パス 4631" d="M389.213,1778.788H336.639a1.347,1.347,0,1,1,0-2.694h24.17a2.974,2.974,0,0,0,2.97-2.97v-1.8a2.973,2.973,0,0,0-2.97-2.97h-24.17a1.347,1.347,0,0,1,0-2.695h52.574a6.15,6.15,0,0,1,6.143,6.143v.844A6.15,6.15,0,0,1,389.213,1778.788Zm-52.574-2.225a.878.878,0,1,0,0,1.756h52.574a5.681,5.681,0,0,0,5.674-5.674v-.844a5.68,5.68,0,0,0-5.674-5.674H336.639a.878.878,0,1,0,0,1.756h24.17a3.443,3.443,0,0,1,3.439,3.439v1.8a3.443,3.443,0,0,1-3.439,3.439Z" transform="translate(-335.292 -1765.657)"/>
            </g>
            <path id="パス_4632" data-name="パス 4632" d="M556.182,1831.083h-2.07a.234.234,0,1,1,0-.469h2.07a.234.234,0,1,1,0,.469Z" transform="translate(-538.359 -1826.002)" fill="#caddff"/>
            <path id="パス_4633" data-name="パス 4633" d="M392.449,1831.083H381.49a.234.234,0,1,1,0-.469h10.959a.234.234,0,1,1,0,.469Z" transform="translate(-377.992 -1826.002)" fill="#caddff"/>
            <path id="パス_4634" data-name="パス 4634" d="M395.874,1849.966H382.908a.235.235,0,0,1,0-.469h12.966a.235.235,0,0,1,0,.469Z" transform="translate(-379.309 -1843.545)" fill="#caddff"/>
            <path id="パス_4635" data-name="パス 4635" d="M580.658,1883.81H578.3a.235.235,0,1,1,0-.469h2.356a.235.235,0,0,1,0,.469Z" transform="translate(-560.832 -1874.986)" fill="#caddff"/>
            <path id="パス_4636" data-name="パス 4636" d="M394.455,1883.81H381.49a.235.235,0,0,1,0-.469h12.966a.235.235,0,0,1,0,.469Z" transform="translate(-377.992 -1874.986)" fill="#caddff"/>
          </g>
          <g id="グループ_3439" data-name="グループ 3439" transform="translate(1.213 12.703)">
            <g id="グループ_3437" data-name="グループ 3437" transform="translate(1.243 1.259)">
              <path id="パス_4637" data-name="パス 4637" d="M373.193,1977.265h47.488v-11.634H373.193A16.406,16.406,0,0,1,373.193,1977.265Z" transform="translate(-372.958 -1965.397)" fill="#fff"/>
              <path id="パス_4638" data-name="パス 4638" d="M417.612,1974.431H370.124a.234.234,0,0,1-.219-.317,16.251,16.251,0,0,0,0-11.473.235.235,0,0,1,.221-.313h47.488a.235.235,0,0,1,.235.235V1974.2A.235.235,0,0,1,417.612,1974.431Zm-47.152-.469h46.918V1962.8H370.454A16.66,16.66,0,0,1,370.459,1973.962Z" transform="translate(-369.889 -1962.328)"/>
            </g>
            <g id="グループ_3438" data-name="グループ 3438">
              <path id="パス_4639" data-name="パス 4639" d="M398.694,1949.725H356.6a.917.917,0,0,1-.917-.917h0a.917.917,0,0,1,.917-.917h54.629a4.028,4.028,0,0,1,4.028,4.028v6.333a4.028,4.028,0,0,1-4.028,4.028H356.6a.917.917,0,1,1,0-1.833h42.1a2.846,2.846,0,0,0,2.846-2.846v-5.031A2.846,2.846,0,0,0,398.694,1949.725Z" transform="translate(-355.445 -1947.657)" fill="#5479f7"/>
              <path id="パス_4640" data-name="パス 4640" d="M408.156,1959.446H353.527a1.151,1.151,0,0,1,0-2.3h42.1a2.614,2.614,0,0,0,2.611-2.611V1949.5a2.614,2.614,0,0,0-2.611-2.612h-42.1a1.151,1.151,0,0,1,0-2.3h54.629a4.268,4.268,0,0,1,4.263,4.263v6.333A4.268,4.268,0,0,1,408.156,1959.446Zm-54.629-1.833a.682.682,0,0,0,0,1.364h54.629a3.8,3.8,0,0,0,3.794-3.794v-6.333a3.8,3.8,0,0,0-3.794-3.794H353.527a.682.682,0,1,0,0,1.364h42.1a3.084,3.084,0,0,1,3.081,3.081v5.031a3.084,3.084,0,0,1-3.081,3.08Z" transform="translate(-352.376 -1944.588)"/>
            </g>
            <path id="パス_4641" data-name="パス 4641" d="M398.662,2001.713H391.65a.235.235,0,0,1,0-.469h7.012a.235.235,0,0,1,0,.469Z" transform="translate(-388.644 -1997.222)" fill="#caddff"/>
            <path id="パス_4642" data-name="パス 4642" d="M520.1,2001.713H507.357a.235.235,0,1,1,0-.469H520.1a.235.235,0,1,1,0,.469Z" transform="translate(-496.136 -1997.222)" fill="#caddff"/>
            <path id="パス_4643" data-name="パス 4643" d="M411.252,2023.584H393.73a.235.235,0,0,1,0-.469h17.523a.235.235,0,0,1,0,.469Z" transform="translate(-390.576 -2017.54)" fill="#caddff"/>
            <path id="パス_4644" data-name="パス 4644" d="M665.012,2023.584h-3.566a.235.235,0,0,1,0-.469h3.566a.235.235,0,0,1,0,.469Z" transform="translate(-639.286 -2017.54)" fill="#caddff"/>
            <path id="パス_4645" data-name="パス 4645" d="M412.311,2069.239H393.73a.234.234,0,1,1,0-.469h18.582a.234.234,0,1,1,0,.469Z" transform="translate(-390.576 -2059.954)" fill="#caddff"/>
            <path id="パス_4646" data-name="パス 4646" d="M665.784,2069.239h-1.614a.234.234,0,1,1,0-.469h1.614a.234.234,0,1,1,0,.469Z" transform="translate(-641.817 -2059.954)" fill="#caddff"/>
          </g>
        </g>
        <g id="グループ_3458" data-name="グループ 3458" transform="translate(8.692 0)">
          <g id="グループ_3453" data-name="グループ 3453">
            <g id="グループ_3445" data-name="グループ 3445" transform="translate(9.933 32.992)">
              <g id="グループ_3441" data-name="グループ 3441" transform="translate(22.169 24.225)">
                <path id="パス_4647" data-name="パス 4647" d="M913.232,1991.583c.293-.3,1.986-5.563,1.986-5.563l3.346,2.387-3.668,4.93Z" transform="translate(-912.997 -1985.785)" fill="#fff"/>
                <path id="パス_4648" data-name="パス 4648" d="M911.827,1990.5a.234.234,0,0,1-.17-.073l-1.664-1.753a.235.235,0,0,1,0-.321c.2-.266,1.144-3.016,1.935-5.476a.234.234,0,0,1,.359-.119l3.346,2.387a.234.234,0,0,1,.052.331l-3.668,4.93a.234.234,0,0,1-.174.094Zm-1.375-2.024,1.353,1.426,3.359-4.514-2.89-2.062C911.778,1984.862,910.85,1987.672,910.452,1988.477Z" transform="translate(-909.929 -1982.715)"/>
              </g>
              <g id="グループ_3442" data-name="グループ 3442" transform="translate(20.061 27.481)">
                <path id="パス_4649" data-name="パス 4649" d="M888.608,2037.78l-2.225-.013a4.377,4.377,0,0,1-3.644-1.99l-2.2-3.483a1.957,1.957,0,0,1,.737-2.772,9.044,9.044,0,0,1,2.106-.942c.458.044.643,2.209.643,2.209l1.982.076s.979,4.072,1.841,4.535a3.782,3.782,0,0,1,1.361,1.284A.71.71,0,0,1,888.608,2037.78Z" transform="translate(-880.236 -2028.577)"/>
                <path id="パス_4650" data-name="パス 4650" d="M895.482,2063.969l-.035,0-3.044-.458a2.538,2.538,0,0,1-1.8-1.21l-2.69-4.492a.235.235,0,0,1,.4-.241l2.689,4.493a2.072,2.072,0,0,0,1.472.987l3.044.458a.235.235,0,0,1-.035.467Z" transform="translate(-887.334 -2055.401)" fill="#fff"/>
                <path id="パス_4651" data-name="パス 4651" d="M939.024,2089.491a.235.235,0,0,1-.061-.461l1.7-.462a.235.235,0,1,1,.123.453l-1.7.462A.235.235,0,0,1,939.024,2089.491Z" transform="translate(-934.633 -2084.302)" fill="#fff"/>
                <path id="パス_4652" data-name="パス 4652" d="M951.466,2104.161a.235.235,0,0,1-.056-.463l1.137-.278a.235.235,0,0,1,.111.456l-1.137.278A.231.231,0,0,1,951.466,2104.161Z" transform="translate(-946.191 -2098.101)" fill="#fff"/>
              </g>
              <g id="グループ_3443" data-name="グループ 3443" transform="translate(33.585 26.937)">
                <path id="パス_4653" data-name="パス 4653" d="M1074.046,2026.067l3.885,3.9,2.059-.757-3.581-4.993Z" transform="translate(-1073.811 -2023.986)" fill="#fff"/>
                <path id="パス_4654" data-name="パス 4654" d="M1074.861,2027.136a.235.235,0,0,1-.166-.069l-3.885-3.9a.235.235,0,0,1,.022-.35l2.363-1.846a.235.235,0,0,1,.335.048l3.581,4.994a.234.234,0,0,1-.11.357l-2.059.756A.239.239,0,0,1,1074.861,2027.136Zm-3.532-4.115,3.592,3.609,1.629-.6-3.259-4.544Z" transform="translate(-1070.742 -2020.917)"/>
              </g>
              <g id="グループ_3444" data-name="グループ 3444" transform="translate(36.422 31.256)">
                <path id="パス_4655" data-name="パス 4655" d="M1110.756,2082.817a11.183,11.183,0,0,0,.131,3.128,1.708,1.708,0,0,0,1.675,1.332h9.533a.729.729,0,0,0,.468-1.288,18.822,18.822,0,0,0-8.647-4.226l-1.069,1.5Z" transform="translate(-1110.702 -2081.763)"/>
                <path id="パス_4656" data-name="パス 4656" d="M1132.448,2138.128h-9.88a.234.234,0,1,1,0-.469h9.88a.234.234,0,1,1,0,.469Z" transform="translate(-1121.507 -2133.691)" fill="#fff"/>
                <path id="パス_4657" data-name="パス 4657" d="M1184.084,2096.8a.232.232,0,0,1-.089-.018.235.235,0,0,1-.127-.306l.523-1.268a.235.235,0,0,1,.434.178l-.523,1.269A.235.235,0,0,1,1184.084,2096.8Z" transform="translate(-1178.657 -2094.121)" fill="#fff"/>
                <path id="パス_4658" data-name="パス 4658" d="M1208.3,2103.126a.24.24,0,0,1-.073-.012.234.234,0,0,1-.149-.3l.379-1.145a.234.234,0,1,1,.445.147l-.379,1.145A.234.234,0,0,1,1208.3,2103.126Z" transform="translate(-1201.158 -2100.111)" fill="#fff"/>
              </g>
              <path id="パス_4659" data-name="パス 4659" d="M759.106,1659.42s17.753-2.067,23.032,2.5-8.333,24.221-8.333,24.221l-4.3-3.192,4.083-13.889-16.411-4.66Z" transform="translate(-745.847 -1657.713)"/>
              <path id="パス_4660" data-name="パス 4660" d="M601.139,1652.231a43.434,43.434,0,0,0,13.642,1.789,4.813,4.813,0,0,1,4.357,2.62c1.91,3.746,6.045,10.491,12.779,14.863l3.217-1.733-8.21-18.48a6.82,6.82,0,0,0-3.885-3.635l-16.271-5.966s-5.045-1.41-7.518,3.094c-.442.8-1.262-.634-1.457.016C597.123,1647.023,598.924,1651.528,601.139,1652.231Z" transform="translate(-597.651 -1641.48)"/>
              <path id="パス_4661" data-name="パス 4661" d="M857.833,1700.227a.235.235,0,0,1-.215-.139l-3.71-8.351a6.62,6.62,0,0,0-3.751-3.509l-7.792-2.857a.235.235,0,1,1,.162-.44l7.792,2.857a7.092,7.092,0,0,1,4.018,3.759l3.71,8.351a.235.235,0,0,1-.119.31A.24.24,0,0,1,857.833,1700.227Z" transform="translate(-824.851 -1681.832)" fill="#fff"/>
              <path id="パス_4662" data-name="パス 4662" d="M969.7,1963.277a.234.234,0,0,1-.169-.072c-.748-.778-1.484-1.614-2.188-2.484a.234.234,0,1,1,.365-.295c.7.86,1.423,1.685,2.162,2.454a.234.234,0,0,1-.169.4Z" transform="translate(-941.052 -1937.703)" fill="#fff"/>
              <path id="パス_4663" data-name="パス 4663" d="M954.2,1943.644a.233.233,0,0,1-.182-.087c-.346-.427-.69-.871-1.024-1.319a.235.235,0,0,1,.376-.28c.33.443.671.882,1.012,1.3a.235.235,0,0,1-.182.382Z" transform="translate(-927.729 -1920.538)" fill="#fff"/>
            </g>
            <g id="グループ_3450" data-name="グループ 3450" transform="translate(0 10.953)">
              <g id="グループ_3446" data-name="グループ 3446" transform="translate(22.344 9.091)">
                <path id="パス_4664" data-name="パス 4664" d="M780.422,1462.508s1.562,14.178,12.047,15.106l-12.047.171s-4.46-9.039-4.642-12.558S780.422,1462.508,780.422,1462.508Z" transform="translate(-775.541 -1462.193)" fill="#fff"/>
                <path id="パス_4665" data-name="パス 4665" d="M777.353,1474.926a.235.235,0,0,1-.21-.131c-.183-.371-4.484-9.123-4.666-12.65a2.579,2.579,0,0,1,.8-2.17c1.377-1.23,4-.812,4.109-.793a.235.235,0,0,1,.195.206,25.88,25.88,0,0,0,2.076,7.143c2.22,4.77,5.5,7.379,9.758,7.755a.235.235,0,0,1-.017.468l-12.047.171Zm-1.114-15.354a4.091,4.091,0,0,0-2.645.755,2.133,2.133,0,0,0-.648,1.8c.165,3.2,4,11.2,4.553,12.333l9.617-.137c-3.328-1.012-6.026-3.6-7.884-7.6a26.618,26.618,0,0,1-2.088-7.1A8.027,8.027,0,0,0,776.239,1459.572Z" transform="translate(-772.472 -1459.1)"/>
              </g>
              <path id="パス_4666" data-name="パス 4666" d="M563.339,1331.439c2.034-.478,2.883-.485,10.276-.217,1.807.065,3.957,2.334,4.169,4.129-.574,1.723-3.225,10.227,1.4,16.872a14.377,14.377,0,0,0,2.775,2.968,9.307,9.307,0,0,1-3.2,1.708c-2.385.708-3.585-.057-5.508,0-5.085.152-6.95,5.815-10.234,5.1-.877-.19-2.039-.874-3.129-3.169a35.338,35.338,0,0,1-1.473-6.662,36.54,36.54,0,0,1,1.741-16.121C560.523,1334.923,560.941,1332,563.339,1331.439Z" transform="translate(-551.037 -1331.045)" fill="#5479f7"/>
              <path id="パス_4667" data-name="パス 4667" d="M799.9,1349.74s-1.2-9.587-4.642-10.406c1.328,3.034,1.64,7.285,1.459,12.127Z" transform="translate(-771.297 -1338.745)" fill="#5479f7"/>
              <g id="グループ_3449" data-name="グループ 3449" transform="translate(0 8.073)">
                <g id="グループ_3447" data-name="グループ 3447" transform="translate(0 0.032)">
                  <path id="パス_4668" data-name="パス 4668" d="M466.921,1452.519c-.025,1.139-.019,2.18.028,3.026.3,5.449,1.038,11.185,1.489,15.929.1,1-1.5-.341-3.555-.331a2.6,2.6,0,0,0-1.622.588,15.134,15.134,0,0,0-2.123,1.877h7.578a2.242,2.242,0,0,0,2.24-2.135l1.016-21.131Z" transform="translate(-460.883 -1449.978)" fill="#fff"/>
                  <path id="パス_4669" data-name="パス 4669" d="M465.565,1469.078h-7.744l-.068-.163c-.068-.193-.094-.265,2.209-2.131a2.846,2.846,0,0,1,1.768-.64,7.687,7.687,0,0,1,2.487.494,2.944,2.944,0,0,0,.834.208.374.374,0,0,0,0-.114c-.139-1.462-.3-3-.477-4.633-.395-3.7-.8-7.532-1.012-11.306-.045-.815-.055-1.839-.028-3.044l0-.151,5.534-2.385-1.034,21.506A2.474,2.474,0,0,1,465.565,1469.078Zm-7.052-.469h7.052a2.006,2.006,0,0,0,2.005-1.911l1-20.756L464,1447.91c-.022,1.128-.012,2.089.031,2.857.208,3.762.616,7.585,1.01,11.282.174,1.632.338,3.173.478,4.638a.561.561,0,0,1-.17.525c-.26.208-.666.074-1.28-.13a7.372,7.372,0,0,0-2.315-.47h-.022a2.376,2.376,0,0,0-1.475.535C459.31,1467.916,458.794,1468.357,458.513,1468.608Z" transform="translate(-457.733 -1445.213)"/>
                </g>
                <g id="グループ_3448" data-name="グループ 3448" transform="translate(5.795)">
                  <path id="パス_4670" data-name="パス 4670" d="M547.834,1449.863c-1.574.666-3.422,1.452-5.051,2.15,0,.021,0,.04,0,.061l5.05-2.177Z" transform="translate(-542.539 -1449.501)" fill="#fff"/>
                  <path id="パス_4671" data-name="パス 4671" d="M539.364,1447.7l.013-.577.138-.059c1.748-.75,3.712-1.584,5.052-2.151l.344-.146-.027.553Z" transform="translate(-539.364 -1444.769)"/>
                </g>
              </g>
              <path id="パス_4672" data-name="パス 4672" d="M530.359,1346.83a77.359,77.359,0,0,1,.829-7.9c1.035-4.629,6.539-4.624,6.539-4.624-1.393,3.826-.055,8.516-.992,12.071Z" transform="translate(-525.203 -1334.079)" fill="#5479f7"/>
            </g>
            <g id="グループ_3452" data-name="グループ 3452" transform="translate(12.561)">
              <g id="グループ_3451" data-name="グループ 3451" transform="translate(0.587 2.179)">
                <path id="パス_4673" data-name="パス 4673" d="M651.042,1219.477l.2-2.881c.138-.009.233-.016.261-.016.8-.009,1.065-.27,1.134-.93a4.926,4.926,0,0,0-.143-1.793.382.382,0,0,1,.016-.247l.137-.322a.28.28,0,0,0-.093-.289l-.073-.06a2.936,2.936,0,0,1-.655-.772c-.161-.27-.434-.776-.622-.865-.528-.252-2.67-1.373-3.868.585-.934,1.527.592,3.629,1.146,4.318a24.411,24.411,0,0,1-.905,3.43l-1.343.324s1.037,1.841,4.186,1.08c2.242-.542,1.886-1.376,1.886-1.376Z" transform="translate(-646.004 -1210.521)" fill="#fff"/>
                <path id="パス_4674" data-name="パス 4674" d="M645.9,1218.393a3.266,3.266,0,0,1-2.939-1.385.235.235,0,0,1,.149-.343l1.215-.294a28.246,28.246,0,0,0,.865-3.137c-.694-.875-2.089-2.956-1.123-4.536.842-1.377,2.226-1.613,4.113-.7l.056.027a2.187,2.187,0,0,1,.651.836l.071.121a2.7,2.7,0,0,0,.6.711l.073.06a.514.514,0,0,1,.171.531.264.264,0,0,1-.011.031l-.137.322a.147.147,0,0,0-.005.095,5.162,5.162,0,0,1,.149,1.877c-.085.81-.468,1.13-1.365,1.14l-.044,0-.174,2.459,1.054.155a.234.234,0,0,1,.181.14.717.717,0,0,1-.051.586c-.238.474-.91.848-2,1.11A6.414,6.414,0,0,1,645.9,1218.393Zm-2.331-1.357c.411.443,1.5,1.246,3.726.708,1.241-.3,1.589-.671,1.687-.865a.4.4,0,0,0,.03-.08l-1.079-.159a.234.234,0,0,1-.2-.248l.2-2.881a.234.234,0,0,1,.218-.217c.145-.01.245-.016.274-.016.7-.008.849-.2.9-.72a4.691,4.691,0,0,0-.136-1.709.62.62,0,0,1,.028-.4l.128-.3a.046.046,0,0,0-.016-.037l-.073-.06a3.17,3.17,0,0,1-.707-.833l-.073-.125a3.016,3.016,0,0,0-.449-.65l-.056-.027c-.609-.294-2.461-1.189-3.509.524-.83,1.357.513,3.283,1.129,4.048.09.112.213.265-.864,3.649a.233.233,0,0,1-.168.157Z" transform="translate(-642.934 -1207.452)"/>
              </g>
              <path id="パス_4675" data-name="パス 4675" d="M637.249,1177.81c.581-.125,1.248-.036,1.53-.14.455-.167.467-.711,1.1-.864a1.111,1.111,0,0,1,1.376.593,1.261,1.261,0,0,1,.129.256,1.689,1.689,0,0,1-.395,2.113s-1.712.885-2.005,1.138a1.581,1.581,0,0,0-.392,1.6.242.242,0,0,1-.107.265h0a.229.229,0,0,1-.307-.07c-.223-.323-.709-.947-1.055-.8-.435.186-.3,1.489.66,1.64a.626.626,0,0,1,.5.656.637.637,0,0,1-.491.51.654.654,0,0,1-.493-.127c-.626-.4-2.392-2.094-2.611-3.614C634.424,1179.135,636.476,1177.976,637.249,1177.81Z" transform="translate(-634.664 -1176.753)"/>
              <path id="パス_4676" data-name="パス 4676" d="M702.1,1284.471h-.008a2.3,2.3,0,0,1-1.269-.474.218.218,0,0,1,.282-.332,1.88,1.88,0,0,0,1,.37.218.218,0,0,1-.008.436Z" transform="translate(-696.052 -1276.027)"/>
            </g>
          </g>
          <g id="グループ_3457" data-name="グループ 3457" transform="translate(22.172 20.784)">
            <g id="グループ_3456" data-name="グループ 3456">
              <g id="グループ_3454" data-name="グループ 3454" transform="translate(0 14.512)">
                <path id="長方形_9876" data-name="長方形 9876" d="M0,0H25.864a0,0,0,0,1,0,0V0a1.389,1.389,0,0,1-1.389,1.389H1.389A1.389,1.389,0,0,1,0,0V0A0,0,0,0,1,0,0Z" transform="translate(0.235 0.235)" fill="#fff"/>
                <path id="パス_4677" data-name="パス 4677" d="M794.913,1675.789H771.538a1.481,1.481,0,0,1-1.479-1.479v-.144a.235.235,0,0,1,.234-.235h25.864a.235.235,0,0,1,.235.235v.144A1.481,1.481,0,0,1,794.913,1675.789Zm-24.381-1.389a1.012,1.012,0,0,0,1.006.919h23.374a1.012,1.012,0,0,0,1.006-.919Z" transform="translate(-770.059 -1673.931)"/>
              </g>
              <g id="グループ_3455" data-name="グループ 3455" transform="translate(11.065)">
                <path id="パス_4678" data-name="パス 4678" d="M944.024,1487.359h-14.8l4.7-13.841a1.547,1.547,0,0,1,1.3-.7h12.51a.776.776,0,0,1,.748,1.037c-.074.193-.153.385-.218.581Z" transform="translate(-928.99 -1472.587)" fill="#fff"/>
                <path id="パス_4679" data-name="パス 4679" d="M940.955,1484.524h-14.8a.234.234,0,0,1-.222-.31l4.7-13.841a.236.236,0,0,1,.025-.052,1.773,1.773,0,0,1,1.495-.8h12.511a1.02,1.02,0,0,1,.853.443.988.988,0,0,1,.114.912l-.065.167c-.054.139-.105.269-.149.4l-4.242,12.918A.234.234,0,0,1,940.955,1484.524Zm-14.472-.469h14.3l4.189-12.757c.048-.147.1-.29.158-.428l.063-.163a.513.513,0,0,0-.062-.479.557.557,0,0,0-.467-.24H932.156a1.306,1.306,0,0,0-1.086.565Z" transform="translate(-925.921 -1469.518)"/>
              </g>
              <path id="パス_4680" data-name="パス 4680" d="M1059.621,1561.873a.972.972,0,1,0,1.241-.782A1.043,1.043,0,0,0,1059.621,1561.873Z" transform="translate(-1039.015 -1554.557)" fill="#caddff"/>
            </g>
          </g>
        </g>
      </g>
      <g id="グループ_3462" data-name="グループ 3462" transform="translate(10.779 1.425)">
        <g id="グループ_3460" data-name="グループ 3460" transform="translate(76.223 0)">
          <path id="パス_4681" data-name="パス 4681" d="M1599.309,394.9a.232.232,0,0,1-.117-.031c-3.286-1.887-6.3-2.71-11.806-3.842a.235.235,0,1,1,.094-.459c5.56,1.142,8.6,1.975,11.945,3.895a.235.235,0,0,1-.117.438Z" transform="translate(-1585.29 -388.181)"/>
          <path id="パス_4682" data-name="パス 4682" d="M1576.372,363.032a.233.233,0,0,1-.144-.05c-3.472-2.722-10.536-4.807-15.72-5.46a.235.235,0,1,1,.059-.465c5.248.66,12.412,2.781,15.951,5.556a.235.235,0,0,1-.145.419Z" transform="translate(-1560.302 -357.055)"/>
        </g>
        <path id="パス_4683" data-name="パス 4683" d="M1797.96,441.927a1.121,1.121,0,0,1-.639-.2,1.143,1.143,0,0,1-.478-.75,1.172,1.172,0,0,1,.923-1.354h0a1.12,1.12,0,0,1,.853.18,1.143,1.143,0,0,1,.479.75,1.172,1.172,0,0,1-.923,1.354A1.136,1.136,0,0,1,1797.96,441.927Zm-.106-1.843a.7.7,0,0,0-.549.812.679.679,0,0,0,.283.445.656.656,0,0,0,.5.1.7.7,0,0,0,.549-.812.677.677,0,0,0-.283-.445.655.655,0,0,0-.5-.1Z" transform="translate(-1703.81 -433.742)"/>
        <g id="グループ_3461" data-name="グループ 3461" transform="translate(0 50.54)">
          <path id="パス_4684" data-name="パス 4684" d="M493.754,1079.954a.234.234,0,0,1-.2-.106l-6.915-10.51a.235.235,0,1,1,.392-.258l6.915,10.509a.235.235,0,0,1-.067.325A.232.232,0,0,1,493.754,1079.954Z" transform="translate(-486.605 -1068.975)"/>
          <path id="パス_4685" data-name="パス 4685" d="M521.346,1225.128a.234.234,0,0,1-.088-.017l-3.184-1.291a.235.235,0,0,1,.176-.435l3.184,1.292a.235.235,0,0,1-.088.452Z" transform="translate(-515.704 -1212.407)"/>
          <path id="パス_4686" data-name="パス 4686" d="M581.146,1236.047a.232.232,0,0,1-.083-.015l-1.966-.743a.235.235,0,0,1-.073-.395l1.56-1.391a.234.234,0,0,1,.386.132l.406,2.133a.235.235,0,0,1-.23.278Zm-1.521-1.06,1.212.458-.25-1.316Z" transform="translate(-572.39 -1221.768)"/>
        </g>
      </g>
      <g id="グループ_3492" data-name="グループ 3492" transform="translate(68.898 59.372)">
        <g id="グループ_3463" data-name="グループ 3463" transform="translate(28.716 37.169)">
          <path id="パス_4687" data-name="パス 4687" d="M1718.385,1699.165c-9.935,7.114-5.977,31.968,11.988,21.733,8.766-4.993,8.6-15.626,6.928-19.811-2.035-5.1-5.26-4.044-6.727-2.965s-2.586,4.151-3.115,4.021-1.258-2.655-1.945-4.074S1722.865,1695.957,1718.385,1699.165Zm7.917,5.518c.685.491.574,1.868-.247,3.074s-2.042,1.787-2.727,1.3-.573-1.868.248-3.075S1725.617,1704.191,1726.3,1704.683Z" transform="translate(-1712.828 -1696.878)" fill="#fff"/>
          <path id="パス_4688" data-name="パス 4688" d="M1719.477,1725.078a8.565,8.565,0,0,1-7.465-4.113,16.24,16.24,0,0,1-2.075-10.711,14.227,14.227,0,0,1,5.1-9.642.235.235,0,0,1,.281.376,13.759,13.759,0,0,0-4.912,9.327,15.762,15.762,0,0,0,2,10.393,8.13,8.13,0,0,0,7.092,3.89,15.917,15.917,0,0,0,7.711-2.387c8.418-4.8,8.6-15.08,6.827-19.521-.806-2.018-1.864-3.227-3.144-3.593a3.85,3.85,0,0,0-3.225.73,9.279,9.279,0,0,0-1.967,2.6c-.6,1.009-.93,1.564-1.343,1.463-.443-.108-.8-.973-1.389-2.49-.16-.412-.326-.837-.488-1.217a.234.234,0,1,1,.431-.184c.166.387.332.816.494,1.231a8.535,8.535,0,0,0,1.044,2.194,5.864,5.864,0,0,0,.848-1.236,9.572,9.572,0,0,1,2.092-2.735,4.317,4.317,0,0,1,3.633-.8c1.427.408,2.588,1.71,3.451,3.87,1.826,4.573,1.639,15.164-7.03,20.1A16.427,16.427,0,0,1,1719.477,1725.078Z" transform="translate(-1709.78 -1698.394)"/>
          <ellipse id="楕円形_132" data-name="楕円形 132" cx="1.835" cy="1.892" rx="1.835" ry="1.892" transform="translate(16.644 4.361) rotate(-27.956)" fill="#5479f7"/>
          <path id="パス_4689" data-name="パス 4689" d="M1986.233,1821.068a1.893,1.893,0,1,0,2.508.811A1.864,1.864,0,0,0,1986.233,1821.068Z" transform="translate(-1965.715 -1812.057)" fill="#99b9ff"/>
          <ellipse id="楕円形_133" data-name="楕円形 133" cx="1.835" cy="1.892" rx="1.835" ry="1.892" transform="matrix(0.883, -0.469, 0.469, 0.883, 17.41, 15.921)" fill="#caddff"/>
          <path id="パス_4690" data-name="パス 4690" d="M1903.431,1962.3a2.136,2.136,0,0,1-1.878-1.144,2.1,2.1,0,0,1,.831-2.848h0a2.127,2.127,0,0,1,1.994,3.757A2.011,2.011,0,0,1,1903.431,1962.3Zm-.828-3.578a1.658,1.658,0,1,0,2.19.714,1.631,1.631,0,0,0-2.19-.714Z" transform="translate(-1887.702 -1939.528)" fill="#caddff"/>
        </g>
        <g id="グループ_3466" data-name="グループ 3466" transform="translate(34.546 24.46)">
          <path id="パス_4691" data-name="パス 4691" d="M1807.265,1603.713l-1.734-2.084-12.168,11.277-1.459,2.3s2.406-1.046,2.509-1.126Z" transform="translate(-1791.904 -1595.681)" fill="#5479f7"/>
          <g id="グループ_3464" data-name="グループ 3464" transform="translate(10.698 5.713)">
            <path id="パス_4692" data-name="パス 4692" d="M1950.328,1603.713l-1.734-2.083-2.695,2.5,1.557,1.9Z" transform="translate(-1945.665 -1601.394)" fill="#99b9ff"/>
            <path id="パス_4693" data-name="パス 4693" d="M1944.387,1603.194a.235.235,0,0,1-.182-.086l-1.557-1.9a.234.234,0,0,1,.022-.32l2.695-2.5a.234.234,0,0,1,.34.022l1.734,2.084a.235.235,0,0,1-.033.333l-2.872,2.317A.233.233,0,0,1,1944.387,1603.194Zm-1.236-2.115,1.27,1.552,2.5-2.021-1.424-1.71Z" transform="translate(-1942.596 -1598.325)"/>
          </g>
          <g id="グループ_3465" data-name="グループ 3465" transform="translate(13.36)">
            <path id="パス_4694" data-name="パス 4694" d="M1988.792,1527.739c-1.5,1.236-2.714,1.527-3.637,1.236h0l-1.738-2.111v-.006c-.114-.975.406-2.123,1.924-3.372,2.253-1.854,7.145-2.332,7.145-2.332S1991.045,1525.885,1988.792,1527.739Z" transform="translate(-1983.166 -1520.919)" fill="#5479f7"/>
            <path id="パス_4695" data-name="パス 4695" d="M1982.789,1526.246a2.552,2.552,0,0,1-.772-.117.241.241,0,0,1-.111-.075l-1.738-2.111a.236.236,0,0,1-.052-.12c-.137-1.175.538-2.38,2.007-3.588,2.282-1.878,7.069-2.364,7.271-2.384a.235.235,0,0,1,.247.3c-.06.2-1.485,4.82-3.767,6.7h0A5.087,5.087,0,0,1,1982.789,1526.246Zm-.566-.545c.911.258,2.073-.159,3.353-1.213h0c1.824-1.5,3.125-5.014,3.5-6.127-1.162.152-4.835.736-6.659,2.236-1.291,1.063-1.928,2.134-1.846,3.1Zm3.5-1.032h0Z" transform="translate(-1980.099 -1517.85)"/>
          </g>
        </g>
        <g id="グループ_3477" data-name="グループ 3477" transform="translate(28.338)">
          <g id="グループ_3467" data-name="グループ 3467">
            <rect id="長方形_9877" data-name="長方形 9877" width="8.964" height="49.348" transform="matrix(-0.964, -0.266, 0.266, -0.964, 8.929, 50.242)" fill="#fff"/>
            <path id="パス_4696" data-name="パス 4696" d="M1713.555,1223.834l-9.093-2.511,13.264-48.019,9.093,2.511ZM1705.04,1221l8.188,2.262,13.014-47.114-8.188-2.261Z" transform="translate(-1704.463 -1173.304)"/>
          </g>
          <g id="グループ_3476" data-name="グループ 3476" transform="translate(0.3 1.507)">
            <g id="グループ_3468" data-name="グループ 3468" transform="translate(0 40.264)">
              <path id="パス_4697" data-name="パス 4697" d="M1710.816,1836.071a.241.241,0,0,1-.057-.007l-1.889-.475a.235.235,0,1,1,.114-.455l1.889.475a.235.235,0,0,1-.057.462Z" transform="translate(-1708.693 -1829.914)" fill="#5479f7"/>
              <path id="パス_4698" data-name="パス 4698" d="M1713.165,1827.48a.23.23,0,0,1-.06-.008l-1.861-.49a.235.235,0,0,1,.12-.454l1.861.49a.235.235,0,0,1-.06.461Z" transform="translate(-1710.9 -1821.919)" fill="#5479f7"/>
              <path id="パス_4699" data-name="パス 4699" d="M1715.57,1818.858a.222.222,0,0,1-.057-.007l-1.888-.475a.234.234,0,1,1,.114-.455l1.889.475a.234.234,0,0,1-.057.462Z" transform="translate(-1713.109 -1813.924)" fill="#5479f7"/>
              <path id="パス_4700" data-name="パス 4700" d="M1717.919,1810.269a.23.23,0,0,1-.06-.008l-1.861-.49a.234.234,0,1,1,.12-.453l1.861.49a.234.234,0,0,1-.06.461Z" transform="translate(-1715.318 -1805.929)" fill="#5479f7"/>
              <path id="パス_4701" data-name="パス 4701" d="M1721.531,1803.3a.226.226,0,0,1-.058-.007l-2.2-.562a.235.235,0,1,1,.116-.455l2.2.562a.234.234,0,0,1-.058.462Z" transform="translate(-1718.353 -1799.392)" fill="#5479f7"/>
              <path id="パス_4702" data-name="パス 4702" d="M1729.126,1769.7a.249.249,0,0,1-.06-.008l-1.861-.49a.235.235,0,0,1,.12-.454l1.861.49a.235.235,0,0,1-.06.462Z" transform="translate(-1725.729 -1768.239)" fill="#5479f7"/>
              <path id="パス_4703" data-name="パス 4703" d="M1732.955,1762.792a.242.242,0,0,1-.059-.007l-2.423-.623a.235.235,0,1,1,.117-.454l2.423.623a.234.234,0,0,1-.058.461Z" transform="translate(-1728.763 -1761.701)" fill="#5479f7"/>
              <path id="パス_4704" data-name="パス 4704" d="M1723.563,1794.625a.244.244,0,0,1-.06-.008l-1.861-.49a.235.235,0,1,1,.12-.454l1.861.49a.234.234,0,0,1-.06.461Z" transform="translate(-1720.561 -1791.396)" fill="#5479f7"/>
              <path id="パス_4705" data-name="パス 4705" d="M1725.968,1786a.232.232,0,0,1-.057-.007l-1.889-.475a.235.235,0,1,1,.115-.455l1.888.475a.235.235,0,0,1-.057.462Z" transform="translate(-1722.769 -1783.401)" fill="#5479f7"/>
              <path id="パス_4706" data-name="パス 4706" d="M1727.089,1777.075a.24.24,0,0,1-.06-.008l-1.861-.49a.235.235,0,0,1,.12-.454l1.86.491a.235.235,0,0,1-.06.462Z" transform="translate(-1723.837 -1775.092)" fill="#5479f7"/>
            </g>
            <g id="グループ_3469" data-name="グループ 3469" transform="translate(1.591 34.503)">
              <path id="パス_4707" data-name="パス 4707" d="M1733.23,1754.929a.23.23,0,0,1-.057-.007l-1.888-.475a.235.235,0,1,1,.114-.455l1.889.474a.235.235,0,0,1-.057.462Z" transform="translate(-1731.107 -1748.773)" fill="#5479f7"/>
              <path id="パス_4708" data-name="パス 4708" d="M1735.579,1746.339a.221.221,0,0,1-.06-.008l-1.861-.491a.234.234,0,1,1,.12-.453l1.861.49a.235.235,0,0,1-.06.461Z" transform="translate(-1733.314 -1740.777)" fill="#5479f7"/>
              <path id="パス_4709" data-name="パス 4709" d="M1737.983,1737.717a.242.242,0,0,1-.057-.007l-1.888-.475a.235.235,0,1,1,.114-.455l1.888.475a.234.234,0,0,1-.057.462Z" transform="translate(-1735.523 -1732.783)" fill="#5479f7"/>
              <path id="パス_4710" data-name="パス 4710" d="M1740.333,1729.128a.244.244,0,0,1-.06-.008l-1.86-.49a.235.235,0,1,1,.119-.454l1.861.49a.235.235,0,0,1-.06.461Z" transform="translate(-1737.732 -1724.789)" fill="#5479f7"/>
              <path id="パス_4711" data-name="パス 4711" d="M1743.945,1722.164a.237.237,0,0,1-.058-.007l-2.205-.562a.235.235,0,0,1,.116-.455l2.2.562a.235.235,0,0,1-.058.462Z" transform="translate(-1740.767 -1718.252)" fill="#5479f7"/>
              <path id="パス_4712" data-name="パス 4712" d="M1751.54,1688.557a.234.234,0,0,1-.06-.008l-1.861-.49a.235.235,0,0,1,.12-.453l1.861.49a.235.235,0,0,1-.06.462Z" transform="translate(-1748.143 -1687.098)" fill="#5479f7"/>
              <path id="パス_4713" data-name="パス 4713" d="M1755.369,1681.651a.236.236,0,0,1-.058-.007l-2.423-.622a.235.235,0,1,1,.117-.454l2.423.622a.234.234,0,0,1-.058.462Z" transform="translate(-1751.177 -1680.56)" fill="#5479f7"/>
              <path id="パス_4714" data-name="パス 4714" d="M1745.977,1713.485a.231.231,0,0,1-.06-.008l-1.861-.49a.235.235,0,0,1,.12-.454l1.861.49a.235.235,0,0,1-.06.461Z" transform="translate(-1742.975 -1710.256)" fill="#5479f7"/>
              <path id="パス_4715" data-name="パス 4715" d="M1748.382,1704.863a.225.225,0,0,1-.057-.007l-1.888-.475a.235.235,0,1,1,.114-.455l1.889.475a.235.235,0,0,1-.057.462Z" transform="translate(-1745.182 -1702.261)" fill="#5479f7"/>
              <path id="パス_4716" data-name="パス 4716" d="M1749.5,1695.933a.224.224,0,0,1-.06-.008l-1.861-.491a.235.235,0,0,1,.12-.453l1.861.491a.234.234,0,0,1-.06.461Z" transform="translate(-1746.251 -1693.951)" fill="#5479f7"/>
            </g>
            <g id="グループ_3470" data-name="グループ 3470" transform="translate(3.182 28.743)">
              <path id="パス_4717" data-name="パス 4717" d="M1755.643,1673.788a.222.222,0,0,1-.057-.007l-1.889-.475a.235.235,0,1,1,.114-.455l1.889.475a.234.234,0,0,1-.057.462Z" transform="translate(-1753.52 -1667.632)" fill="#5479f7"/>
              <path id="パス_4718" data-name="パス 4718" d="M1757.993,1665.2a.239.239,0,0,1-.06-.008l-1.861-.491a.234.234,0,1,1,.12-.453l1.861.49a.234.234,0,0,1-.06.461Z" transform="translate(-1755.728 -1659.637)" fill="#5479f7"/>
              <path id="パス_4719" data-name="パス 4719" d="M1760.4,1656.576a.234.234,0,0,1-.057-.007l-1.889-.475a.235.235,0,1,1,.114-.455l1.889.475a.234.234,0,0,1-.057.462Z" transform="translate(-1757.937 -1651.641)" fill="#5479f7"/>
              <path id="パス_4720" data-name="パス 4720" d="M1762.747,1647.986a.244.244,0,0,1-.06-.008l-1.861-.491a.235.235,0,1,1,.12-.453l1.861.491a.235.235,0,0,1-.06.461Z" transform="translate(-1760.145 -1643.647)" fill="#5479f7"/>
              <path id="パス_4721" data-name="パス 4721" d="M1766.359,1641.022a.237.237,0,0,1-.058-.007l-2.205-.562a.235.235,0,1,1,.116-.455l2.205.562a.235.235,0,0,1-.058.462Z" transform="translate(-1763.181 -1637.11)" fill="#5479f7"/>
              <path id="パス_4722" data-name="パス 4722" d="M1773.954,1607.417a.248.248,0,0,1-.06-.008l-1.861-.491a.234.234,0,1,1,.12-.453l1.861.49a.235.235,0,0,1-.06.462Z" transform="translate(-1770.556 -1605.957)" fill="#5479f7"/>
              <path id="パス_4723" data-name="パス 4723" d="M1777.783,1600.51a.23.23,0,0,1-.058-.007l-2.423-.623a.234.234,0,1,1,.117-.454l2.423.622a.235.235,0,0,1-.058.462Z" transform="translate(-1773.591 -1599.419)" fill="#5479f7"/>
              <path id="パス_4724" data-name="パス 4724" d="M1768.391,1632.343a.236.236,0,0,1-.06-.008l-1.861-.49a.235.235,0,0,1,.12-.454l1.861.491a.235.235,0,0,1-.06.461Z" transform="translate(-1765.388 -1629.114)" fill="#5479f7"/>
              <path id="パス_4725" data-name="パス 4725" d="M1770.8,1623.722a.242.242,0,0,1-.057-.007l-1.888-.475a.235.235,0,1,1,.114-.455l1.888.475a.235.235,0,0,1-.057.462Z" transform="translate(-1767.597 -1621.12)" fill="#5479f7"/>
              <path id="パス_4726" data-name="パス 4726" d="M1771.917,1614.792a.239.239,0,0,1-.06-.008l-1.86-.491a.235.235,0,1,1,.12-.454l1.86.49a.235.235,0,0,1-.06.462Z" transform="translate(-1768.664 -1612.809)" fill="#5479f7"/>
            </g>
            <g id="グループ_3471" data-name="グループ 3471" transform="translate(4.774 22.983)">
              <path id="パス_4727" data-name="パス 4727" d="M1778.058,1592.646a.227.227,0,0,1-.057-.007l-1.889-.475a.235.235,0,0,1,.114-.455l1.889.475a.235.235,0,0,1-.057.462Z" transform="translate(-1775.934 -1586.49)" fill="#5479f7"/>
              <path id="パス_4728" data-name="パス 4728" d="M1780.407,1584.057a.23.23,0,0,1-.06-.008l-1.861-.49a.235.235,0,0,1,.12-.454l1.861.491a.235.235,0,0,1-.06.461Z" transform="translate(-1778.143 -1578.495)" fill="#5479f7"/>
              <path id="パス_4729" data-name="パス 4729" d="M1782.811,1575.435a.238.238,0,0,1-.057-.007l-1.888-.475a.234.234,0,1,1,.114-.455l1.888.474a.235.235,0,0,1-.057.462Z" transform="translate(-1780.351 -1570.501)" fill="#5479f7"/>
              <path id="パス_4730" data-name="パス 4730" d="M1785.161,1566.845a.237.237,0,0,1-.06-.008l-1.861-.49a.235.235,0,0,1,.12-.454l1.861.491a.235.235,0,0,1-.06.461Z" transform="translate(-1782.56 -1562.506)" fill="#5479f7"/>
              <path id="パス_4731" data-name="パス 4731" d="M1788.773,1559.88a.242.242,0,0,1-.058-.007l-2.2-.562a.235.235,0,0,1,.116-.455l2.2.562a.235.235,0,0,1-.058.462Z" transform="translate(-1785.595 -1555.969)" fill="#5479f7"/>
              <path id="パス_4732" data-name="パス 4732" d="M1796.367,1526.275a.241.241,0,0,1-.06-.008l-1.86-.491a.235.235,0,1,1,.12-.453l1.861.491a.235.235,0,0,1-.06.461Z" transform="translate(-1792.97 -1524.816)" fill="#5479f7"/>
              <path id="パス_4733" data-name="パス 4733" d="M1800.2,1519.37a.237.237,0,0,1-.059-.008l-2.423-.622a.234.234,0,1,1,.117-.454l2.423.622a.235.235,0,0,1-.058.462Z" transform="translate(-1796.005 -1518.278)" fill="#5479f7"/>
              <path id="パス_4734" data-name="パス 4734" d="M1790.805,1551.2a.233.233,0,0,1-.06-.008l-1.861-.49a.235.235,0,0,1,.119-.454l1.861.491a.235.235,0,0,1-.06.461Z" transform="translate(-1787.803 -1547.973)" fill="#5479f7"/>
              <path id="パス_4735" data-name="パス 4735" d="M1793.21,1542.581a.224.224,0,0,1-.057-.007l-1.889-.475a.234.234,0,1,1,.114-.455l1.889.475a.235.235,0,0,1-.057.462Z" transform="translate(-1790.01 -1539.979)" fill="#5479f7"/>
              <path id="パス_4736" data-name="パス 4736" d="M1794.33,1533.651a.244.244,0,0,1-.06-.008l-1.861-.491a.235.235,0,0,1,.12-.454l1.861.49a.235.235,0,0,1-.06.462Z" transform="translate(-1791.077 -1531.668)" fill="#5479f7"/>
            </g>
            <g id="グループ_3472" data-name="グループ 3472" transform="translate(6.365 17.222)">
              <path id="パス_4737" data-name="パス 4737" d="M1800.471,1511.506a.233.233,0,0,1-.057-.007l-1.888-.475a.235.235,0,1,1,.114-.455l1.888.475a.235.235,0,0,1-.057.462Z" transform="translate(-1798.348 -1505.35)" fill="#5479f7"/>
              <path id="パス_4738" data-name="パス 4738" d="M1802.821,1502.916a.233.233,0,0,1-.06-.008l-1.861-.49a.234.234,0,1,1,.12-.453l1.861.49a.235.235,0,0,1-.06.461Z" transform="translate(-1800.557 -1497.355)" fill="#5479f7"/>
              <path id="パス_4739" data-name="パス 4739" d="M1805.225,1494.294a.231.231,0,0,1-.057-.007l-1.888-.475a.235.235,0,1,1,.114-.455l1.888.475a.235.235,0,0,1-.057.462Z" transform="translate(-1802.765 -1489.359)" fill="#5479f7"/>
              <path id="パス_4740" data-name="パス 4740" d="M1807.575,1485.7a.225.225,0,0,1-.06-.008l-1.861-.49a.235.235,0,1,1,.12-.453l1.861.49a.234.234,0,0,1-.06.461Z" transform="translate(-1804.973 -1481.365)" fill="#5479f7"/>
              <path id="パス_4741" data-name="パス 4741" d="M1811.187,1478.739a.241.241,0,0,1-.058-.007l-2.205-.562a.235.235,0,1,1,.116-.455l2.2.562a.235.235,0,0,1-.057.462Z" transform="translate(-1808.008 -1474.828)" fill="#5479f7"/>
              <path id="パス_4742" data-name="パス 4742" d="M1818.781,1445.133a.244.244,0,0,1-.06-.008l-1.861-.491a.234.234,0,1,1,.12-.453l1.861.49a.235.235,0,0,1-.06.461Z" transform="translate(-1815.384 -1443.674)" fill="#5479f7"/>
              <path id="パス_4743" data-name="パス 4743" d="M1822.61,1438.227a.24.24,0,0,1-.058-.007l-2.423-.623a.235.235,0,1,1,.116-.454l2.423.622a.234.234,0,0,1-.058.462Z" transform="translate(-1818.418 -1437.136)" fill="#5479f7"/>
              <path id="パス_4744" data-name="パス 4744" d="M1813.219,1470.061a.231.231,0,0,1-.06-.008l-1.861-.49a.234.234,0,0,1,.12-.453l1.861.49a.235.235,0,0,1-.06.461Z" transform="translate(-1810.217 -1466.832)" fill="#5479f7"/>
              <path id="パス_4745" data-name="パス 4745" d="M1815.623,1461.44a.236.236,0,0,1-.057-.007l-1.889-.475a.235.235,0,0,1,.114-.455l1.889.475a.235.235,0,0,1-.057.462Z" transform="translate(-1812.424 -1458.837)" fill="#5479f7"/>
              <path id="パス_4746" data-name="パス 4746" d="M1816.744,1452.51a.231.231,0,0,1-.06-.008l-1.861-.49a.235.235,0,1,1,.12-.454l1.861.491a.235.235,0,0,1-.06.461Z" transform="translate(-1813.492 -1450.527)" fill="#5479f7"/>
            </g>
            <g id="グループ_3473" data-name="グループ 3473" transform="translate(7.956 11.521)">
              <path id="パス_4747" data-name="パス 4747" d="M1822.885,1430.365a.238.238,0,0,1-.057-.007l-1.888-.475a.235.235,0,0,1,.114-.455l1.888.475a.235.235,0,0,1-.057.462Z" transform="translate(-1820.762 -1424.266)" fill="#5479f7"/>
              <path id="パス_4748" data-name="パス 4748" d="M1825.235,1421.775a.241.241,0,0,1-.06-.008l-1.861-.491a.235.235,0,0,1,.12-.454l1.861.49a.235.235,0,0,1-.06.461Z" transform="translate(-1822.971 -1416.272)" fill="#5479f7"/>
              <path id="パス_4749" data-name="パス 4749" d="M1827.639,1413.153a.242.242,0,0,1-.057-.007l-1.888-.475a.235.235,0,0,1,.114-.455l1.889.474a.235.235,0,0,1-.057.462Z" transform="translate(-1825.179 -1408.277)" fill="#5479f7"/>
              <path id="パス_4750" data-name="パス 4750" d="M1841.745,1398.364a.237.237,0,0,1-.071-.011l-1.583-.5a.235.235,0,1,1,.143-.447l1.583.5a.235.235,0,0,1-.071.458Z" transform="translate(-1838.567 -1394.511)" fill="#5479f7"/>
              <path id="パス_4751" data-name="パス 4751" d="M1853.17,1357.853a.244.244,0,0,1-.07-.01l-1.8-.564a.235.235,0,1,1,.14-.448l1.8.563a.235.235,0,0,1-.07.458Z" transform="translate(-1848.978 -1356.82)" fill="#5479f7"/>
            </g>
            <g id="グループ_3474" data-name="グループ 3474" transform="translate(10.908 5.76)">
              <path id="パス_4752" data-name="パス 4752" d="M1864.159,1317.223a.234.234,0,0,1-.071-.011l-1.583-.5a.235.235,0,1,1,.142-.447l1.583.5a.235.235,0,0,1-.071.458Z" transform="translate(-1862.341 -1313.37)" fill="#5479f7"/>
              <path id="パス_4753" data-name="パス 4753" d="M1875.584,1276.712a.238.238,0,0,1-.07-.011l-1.8-.564a.235.235,0,0,1,.14-.448l1.8.564a.235.235,0,0,1-.07.458Z" transform="translate(-1872.753 -1275.679)" fill="#5479f7"/>
            </g>
            <g id="グループ_3475" data-name="グループ 3475" transform="translate(12.499)">
              <path id="パス_4754" data-name="パス 4754" d="M1886.572,1236.082a.237.237,0,0,1-.071-.011l-1.583-.5a.235.235,0,0,1,.142-.447l1.583.5a.235.235,0,0,1-.071.458Z" transform="translate(-1884.755 -1232.229)" fill="#5479f7"/>
              <path id="パス_4755" data-name="パス 4755" d="M1898,1195.57a.236.236,0,0,1-.07-.01l-1.8-.564a.235.235,0,1,1,.14-.448l1.8.564a.234.234,0,0,1-.07.458Z" transform="translate(-1895.167 -1194.537)" fill="#5479f7"/>
            </g>
          </g>
        </g>
        <g id="グループ_3479" data-name="グループ 3479" transform="translate(28.714 9.902)">
          <path id="パス_4756" data-name="パス 4756" d="M1730.157,1425.977l2.887,2.155-20.279,27.06a.929.929,0,0,1-1.163.1,5.105,5.105,0,0,1-1.491-1.113.925.925,0,0,1-.233-1.142Z" transform="translate(-1709.762 -1417.941)" fill="#5479f7"/>
          <path id="パス_4757" data-name="パス 4757" d="M1743.095,1538.546a.232.232,0,0,1-.141-.047.234.234,0,0,1-.047-.328l14.252-19.017a.235.235,0,0,1,.375.281l-14.252,19.017A.234.234,0,0,1,1743.095,1538.546Z" transform="translate(-1740.511 -1504.416)"/>
          <g id="グループ_3478" data-name="グループ 3478" transform="translate(20.398 3.093)">
            <path id="パス_4758" data-name="パス 4758" d="M2001.84,1356.355l0,0a5.056,5.056,0,0,0,.815.735,2.906,2.906,0,0,0,.723.414l-3.4,5.942a5.7,5.7,0,0,1-2.887-2.155Z" transform="translate(-1997.086 -1356.355)" fill="#caddff"/>
            <path id="パス_4759" data-name="パス 4759" d="M2001.839,1357.032c.2.178.4.336.533.436a4.04,4.04,0,0,0,.349.238l-2.956,5.163a5.23,5.23,0,0,1-2.062-1.539l4.136-4.3Zm0-.678-4.754,4.939a5.7,5.7,0,0,0,2.887,2.155l3.4-5.942a2.907,2.907,0,0,1-.724-.414,5.044,5.044,0,0,1-.815-.735l0,0Z" transform="translate(-1997.086 -1356.355)"/>
          </g>
          <path id="パス_4760" data-name="パス 4760" d="M2064.7,1316.552a3.9,3.9,0,0,1-.7-.671l2.906-3.019c.256-.266.9.213.714.533l-2.081,3.634A3.87,3.87,0,0,1,2064.7,1316.552Z" transform="translate(-2038.855 -1312.785)"/>
        </g>
        <g id="グループ_3483" data-name="グループ 3483" transform="translate(30.049 0.953)">
          <g id="グループ_3482" data-name="グループ 3482" transform="translate(0 0)">
            <rect id="長方形_9878" data-name="長方形 9878" width="0.31" height="1.449" rx="0.155" transform="translate(4.533 1.449) rotate(-180)"/>
            <g id="グループ_3480" data-name="グループ 3480" transform="translate(0.127 4.596)">
              <path id="パス_4761" data-name="パス 4761" d="M1739.24,1278.075a.977.977,0,0,1,.109.441l.024,2.78-5.722-.269.24-2.812a.962.962,0,0,1,.147-.436l.091-.142a.969.969,0,0,0,.052-.945l-.019-.039a.977.977,0,0,1-.095-.51l1.753-20.523a3.167,3.167,0,0,1,.174-.8l.019-.052c1,.094,2.006.1,3.009.174l.058.211a1.947,1.947,0,0,1,.071.5l.162,20.663a.958.958,0,0,1-.155.532.97.97,0,0,0-.046.974Z" transform="translate(-1733.417 -1254.535)" fill="#5479f7"/>
              <path id="パス_4762" data-name="パス 4762" d="M1736.3,1278.46h-.011l-5.722-.269a.235.235,0,0,1-.223-.254l.24-2.812a1.2,1.2,0,0,1,.184-.542l.091-.142a.737.737,0,0,0,.039-.716l-.019-.039a1.215,1.215,0,0,1-.118-.633l1.753-20.523a3.4,3.4,0,0,1,.187-.857l.019-.052a.236.236,0,0,1,.243-.155c.561.053,1.133.078,1.687.1.431.019.877.039,1.317.071a.234.234,0,0,1,.209.171l.058.211a2.179,2.179,0,0,1,.079.565l.161,20.663a1.191,1.191,0,0,1-.193.662.733.733,0,0,0-.034.737l.128.246h0a1.217,1.217,0,0,1,.135.546l.024,2.78a.235.235,0,0,1-.235.237Zm-5.467-.727,5.231.246-.022-2.532a.742.742,0,0,0-.083-.335l-.128-.246a1.2,1.2,0,0,1,.058-1.21.72.72,0,0,0,.117-.4l-.161-20.663a1.721,1.721,0,0,0-.062-.444l-.014-.051c-.38-.025-.765-.042-1.138-.059-.5-.022-1.014-.045-1.526-.088a2.938,2.938,0,0,0-.121.619l-1.753,20.523a.743.743,0,0,0,.072.387l.019.039a1.209,1.209,0,0,1-.066,1.175l-.091.142a.73.73,0,0,0-.111.329Z" transform="translate(-1730.349 -1251.466)"/>
            </g>
            <g id="グループ_3481" data-name="グループ 3481" transform="translate(0 30.813)">
              <path id="パス_4763" data-name="パス 4763" d="M1737.624,1629.219l.112-4.828-5.755-.2-.112,4.828a1.605,1.605,0,0,0,1.524,1.656l2.632.092A1.56,1.56,0,0,0,1737.624,1629.219Z" transform="translate(-1731.634 -1623.946)" fill="#99b9ff"/>
              <path id="パス_4764" data-name="パス 4764" d="M1733.01,1627.824h-.063l-2.632-.093a1.842,1.842,0,0,1-1.75-1.9l.118-5.065,6.224.218-.118,5.06h0a1.824,1.824,0,0,1-.571,1.3A1.75,1.75,0,0,1,1733.01,1627.824Zm-3.87-6.57-.107,4.591a1.372,1.372,0,0,0,1.3,1.417l2.632.093a1.28,1.28,0,0,0,.932-.353,1.357,1.357,0,0,0,.424-.965h0l.107-4.6Z" transform="translate(-1728.564 -1620.769)"/>
            </g>
            <path id="パス_4765" data-name="パス 4765" d="M1755.84,1567.892h-.006l-2.726-.066a.234.234,0,0,1-.229-.24.24.24,0,0,1,.24-.229l2.726.066a.235.235,0,0,1-.006.469Z" transform="translate(-1751.153 -1540.336)" fill="#caddff"/>
            <path id="パス_4766" data-name="パス 4766" d="M1789.585,1644.713h0a.235.235,0,0,1-.23-.238l.06-3.7a.23.23,0,0,1,.239-.231.234.234,0,0,1,.231.238l-.06,3.7A.235.235,0,0,1,1789.585,1644.713Z" transform="translate(-1785.035 -1608.331)" fill="#fff"/>
            <path id="パス_4767" data-name="パス 4767" d="M1768.755,1196.937l1.185,4.28c-1-.074-2.006-.08-3.009-.174l1.474-4.106Z" transform="translate(-1764.207 -1196.213)"/>
          </g>
        </g>
        <g id="グループ_3491" data-name="グループ 3491" transform="translate(0 12.535)">
          <path id="パス_4768" data-name="パス 4768" d="M1547.071,1349.871h7.334a3.1,3.1,0,0,1,3.1,3.1v2.036h-1.8v-1.243a2.31,2.31,0,0,0-2.2-2.4H1548.3a2.31,2.31,0,0,0-2.2,2.4v1.243h-2.131v-2.036A3.1,3.1,0,0,1,1547.071,1349.871Z" transform="translate(-1527.024 -1349.871)" fill="#5479f7"/>
          <path id="パス_4769" data-name="パス 4769" d="M1330.128,1462.4h33.815a2.432,2.432,0,0,0,2.326-2.583l-1.055-42.22a3.982,3.982,0,0,0-4-3.882l-28.736.147a4.2,4.2,0,0,0-4.179,4.081l-1.179,41.1A3.148,3.148,0,0,0,1330.128,1462.4Z" transform="translate(-1325.567 -1409.18)"/>
          <g id="グループ_3484" data-name="グループ 3484" transform="translate(4.046 4.298)">
            <path id="パス_4770" data-name="パス 4770" d="M1368.593,1462.4h33.815a2.432,2.432,0,0,0,2.325-2.583l-1.055-42.22a3.982,3.982,0,0,0-4-3.882l-28.736.147a4.2,4.2,0,0,0-4.179,4.081l-1.179,41.1A3.149,3.149,0,0,0,1368.593,1462.4Z" transform="translate(-1365.348 -1413.477)" fill="#99b9ff"/>
            <path id="パス_4771" data-name="パス 4771" d="M1399.338,1459.562h-33.815a3.114,3.114,0,0,1-2.243-.968,3.634,3.634,0,0,1-1-2.629l1.179-41.1a4.419,4.419,0,0,1,4.412-4.309l28.736-.147h.021a4.239,4.239,0,0,1,4.215,4.111l1.056,42.22a2.86,2.86,0,0,1-.792,2.063A2.459,2.459,0,0,1,1399.338,1459.562Zm-2.71-48.685h-.019l-28.736.147a3.952,3.952,0,0,0-3.945,3.854l-1.179,41.1a3.162,3.162,0,0,0,.868,2.289,2.648,2.648,0,0,0,1.907.826h33.815a1.994,1.994,0,0,0,1.433-.619,2.389,2.389,0,0,0,.658-1.724l-1.055-42.22A3.767,3.767,0,0,0,1396.628,1410.877Z" transform="translate(-1362.278 -1410.408)"/>
          </g>
          <g id="グループ_3485" data-name="グループ 3485" transform="translate(8.247 4.09)">
            <path id="長方形_9879" data-name="長方形 9879" d="M15.824,0h0A14.828,14.828,0,0,1,30.652,14.828v2.254a2.287,2.287,0,0,1-2.287,2.287H2.994A2.994,2.994,0,0,1,0,16.375v-.551A15.824,15.824,0,0,1,15.824,0Z" transform="translate(30.887 19.604) rotate(180)" fill="#5479f7"/>
            <path id="パス_4772" data-name="パス 4772" d="M1447.58,1427.316h-21.421a4.706,4.706,0,0,1-4.7-4.7V1408.4a.924.924,0,0,1,.923-.923h29.062a1.138,1.138,0,0,1,1.136,1.136v13.7A5.006,5.006,0,0,1,1447.58,1427.316Zm-25.2-19.369a.455.455,0,0,0-.454.454v14.215a4.236,4.236,0,0,0,4.231,4.231h21.421a4.536,4.536,0,0,0,4.531-4.531v-13.7a.668.668,0,0,0-.667-.667Z" transform="translate(-1421.459 -1407.478)"/>
          </g>
          <g id="グループ_3486" data-name="グループ 3486" transform="translate(10.685 32.29)">
            <path id="パス_4773" data-name="パス 4773" d="M1455.8,1825.019h25.614v-18.561a1.75,1.75,0,0,0-1.75-1.75h-21.414a2.45,2.45,0,0,0-2.45,2.45Z" transform="translate(-1455.797 -1804.708)" fill="#5479f7"/>
            <path id="パス_4774" data-name="パス 4774" d="M1474.243,1842.1h23.184v-17.3a1.75,1.75,0,0,0-1.75-1.75h-18.983a2.45,2.45,0,0,0-2.45,2.45Z" transform="translate(-1472.933 -1821.75)" fill="#99b9ff"/>
          </g>
          <g id="グループ_3488" data-name="グループ 3488" transform="translate(0 32.265)">
            <path id="パス_4775" data-name="パス 4775" d="M1316.145,1826.955a1.884,1.884,0,0,0,2,1.71l.433-.014a4.58,4.58,0,0,0,4.746-4.392v-12.329a1.928,1.928,0,0,0-2-1.849h-2.939a1.646,1.646,0,0,0-1.673,1.36A83.873,83.873,0,0,0,1316.145,1826.955Z" transform="translate(-1315.26 -1809.674)" fill="#99b9ff"/>
            <g id="グループ_3487" data-name="グループ 3487" transform="translate(0.529 0.171)">
              <path id="パス_4776" data-name="パス 4776" d="M1316.145,1826.955a1.884,1.884,0,0,0,2,1.71l.433-.014a4.58,4.58,0,0,0,4.746-4.392v-12.329a1.928,1.928,0,0,0-2-1.849h-2.939a1.646,1.646,0,0,0-1.673,1.36A83.873,83.873,0,0,0,1316.145,1826.955Z" transform="translate(-1315.789 -1809.846)" fill="#5479f7"/>
              <path id="パス_4777" data-name="パス 4777" d="M1315.028,1825.831a2.12,2.12,0,0,1-2.168-1.934h0a84.491,84.491,0,0,1,.574-15.558,1.883,1.883,0,0,1,1.906-1.563h2.939a2.165,2.165,0,0,1,2.233,2.084v12.329a4.819,4.819,0,0,1-4.981,4.627l-.426.014Zm-1.7-1.958a1.653,1.653,0,0,0,1.76,1.487l.434-.014a4.353,4.353,0,0,0,4.52-4.158V1808.86a1.7,1.7,0,0,0-1.764-1.615h-2.939a1.413,1.413,0,0,0-1.441,1.158,84.045,84.045,0,0,0-.57,15.471Z" transform="translate(-1312.738 -1806.776)"/>
            </g>
            <path id="パス_4778" data-name="パス 4778" d="M1306.3,1809.765h6.841c.548,0,.966-.388.881-.817l-.781-3.905a.978.978,0,0,0-1.017-.68l-4.863.046a1.328,1.328,0,0,0-1.355.926l-.708,3.5C1305.2,1809.322,1305.677,1809.765,1306.3,1809.765Z" transform="translate(-1305.286 -1804.363)"/>
          </g>
          <g id="グループ_3490" data-name="グループ 3490" transform="translate(38.48 32.857)">
            <g id="グループ_3489" data-name="グループ 3489" transform="translate(0.446 0.171)">
              <path id="パス_4779" data-name="パス 4779" d="M1864.093,1835.292a1.883,1.883,0,0,1-2,1.71l-.434-.014a4.58,4.58,0,0,1-4.746-4.392v-12.329a1.928,1.928,0,0,1,2-1.849h2.938a1.646,1.646,0,0,1,1.673,1.361A83.846,83.846,0,0,1,1864.093,1835.292Z" transform="translate(-1856.676 -1818.182)" fill="#5479f7"/>
              <path id="パス_4780" data-name="パス 4780" d="M1859.091,1834.168h-.077l-.434-.014a4.817,4.817,0,0,1-4.973-4.626V1817.2a2.165,2.165,0,0,1,2.233-2.084h2.939a1.883,1.883,0,0,1,1.906,1.564,84.478,84.478,0,0,1,.574,15.557h0A2.12,2.12,0,0,1,1859.091,1834.168Zm-3.251-18.586a1.7,1.7,0,0,0-1.764,1.615v12.329a4.351,4.351,0,0,0,4.512,4.158l.441.014a1.656,1.656,0,0,0,1.76-1.487,84.031,84.031,0,0,0-.57-15.47,1.414,1.414,0,0,0-1.441-1.158Zm5.184,16.64h0Z" transform="translate(-1853.607 -1815.113)"/>
            </g>
            <path id="パス_4781" data-name="パス 4781" d="M1855.06,1818.1h-6.841c-.548,0-.967-.388-.881-.817l.781-3.905a.978.978,0,0,1,1.017-.679l4.863.046a1.328,1.328,0,0,1,1.355.926l.708,3.5C1856.161,1817.66,1855.685,1818.1,1855.06,1818.1Z" transform="translate(-1847.327 -1812.701)"/>
          </g>
        </g>
      </g>
      <g id="グループ_3494" data-name="グループ 3494" transform="translate(45.801 3.457)">
        <g id="グループ_3493" data-name="グループ 3493" transform="translate(74.502 117.343)">
          <path id="パス_4782" data-name="パス 4782" d="M2030.572,2060.583a.23.23,0,0,1-.066-.01l-.943-.275a.234.234,0,1,1,.131-.45l.943.275a.235.235,0,0,1-.065.46Z" transform="translate(-2029.393 -2058.331)"/>
          <path id="パス_4783" data-name="パス 4783" d="M2077.087,2074.133a.237.237,0,0,1-.066-.01l-.943-.275a.234.234,0,1,1,.131-.45l.943.274a.235.235,0,0,1-.065.46Z" transform="translate(-2072.607 -2070.919)"/>
          <path id="パス_4784" data-name="パス 4784" d="M2050.993,2086.6a.243.243,0,0,1-.064-.009.235.235,0,0,1-.161-.29l.27-.945a.234.234,0,1,1,.451.128l-.269.945A.234.234,0,0,1,2050.993,2086.6Z" transform="translate(-2049.241 -2081.882)"/>
          <path id="パス_4785" data-name="パス 4785" d="M2064.275,2040.011a.242.242,0,0,1-.065-.009.234.234,0,0,1-.161-.29l.27-.945a.234.234,0,1,1,.451.129l-.27.945A.235.235,0,0,1,2064.275,2040.011Z" transform="translate(-2061.581 -2038.597)"/>
        </g>
        <ellipse id="楕円形_134" data-name="楕円形 134" cx="1.98" cy="1.98" rx="1.98" ry="1.98" transform="translate(0 3.788) rotate(-73.085)" fill="#caddff"/>
      </g>
    </g>
  </g>
</svg>
