<svg xmlns="http://www.w3.org/2000/svg" width="130" height="130.321" viewBox="0 0 130 130.321">
  <g id="グループ_5638" data-name="グループ 5638" transform="translate(-1952.546 -3618.406)">
    <g id="SEO_optimization" data-name="SEO optimization" transform="translate(1952.546 3618.406)">
      <path id="パス_4786" data-name="パス 4786" d="M384.436,362.108c8.5-4.5,18.569-2.457,25-1.149,25.366,5.155,47.5,23.626,56.963,52.713,2.216,6.807,12.307,41.419-12.268,61.882-21.724,18.089-56.4,13.343-78.7.494-18.476-10.645-36.975-31.773-34.781-50.445,1.38-11.742,9.7-12.58,20.143-34.134C369.837,372.814,374.039,367.617,384.436,362.108Z" transform="translate(-340.334 -357.265)" fill="#caddff"/>
      <g id="グループ_3501" data-name="グループ 3501" transform="translate(16.21 17.533)">
        <g id="グループ_3496" data-name="グループ 3496" transform="translate(9.727 0)">
          <path id="パス_4787" data-name="パス 4787" d="M828.074,686.448H752.1a4.121,4.121,0,0,1-3.9-4.69l16.34-101.272a3.907,3.907,0,0,1,3.678-3.422H844.19a4.074,4.074,0,0,1,3.881,4.653l-16.34,101.272A3.923,3.923,0,0,1,828.074,686.448Z" transform="translate(-744.998 -577.064)" fill="#5479f7"/>
          <g id="グループ_3495" data-name="グループ 3495" transform="translate(0 0.004)">
            <path id="パス_4788" data-name="パス 4788" d="M786.9,689.579H710.925a3.829,3.829,0,0,1-3.78-4.442L723.5,583.654a3.829,3.829,0,0,1,3.78-3.216h75.977a3.829,3.829,0,0,1,3.78,4.442L790.681,686.362A3.829,3.829,0,0,1,786.9,689.579Z" transform="translate(-706.859 -580.201)" fill="#99b9ff"/>
            <path id="パス_4789" data-name="パス 4789" d="M783.826,686.73H707.849a4.065,4.065,0,0,1-4.012-4.715l16.356-101.483a4.049,4.049,0,0,1,4.012-3.415h75.977a4.065,4.065,0,0,1,4.012,4.715L787.838,683.315A4.049,4.049,0,0,1,783.826,686.73ZM724.2,577.588a3.579,3.579,0,0,0-3.547,3.018L704.3,682.09a3.593,3.593,0,0,0,3.547,4.168h75.977a3.579,3.579,0,0,0,3.547-3.018l16.356-101.483a3.593,3.593,0,0,0-3.547-4.169Z" transform="translate(-703.784 -577.117)"/>
          </g>
          <path id="パス_4790" data-name="パス 4790" d="M823.477,728.21H751.95a3.6,3.6,0,0,1-3.558-4.181l15.4-95.539a3.6,3.6,0,0,1,3.558-3.028h71.527a3.6,3.6,0,0,1,3.558,4.182l-15.4,95.539A3.6,3.6,0,0,1,823.477,728.21Z" transform="translate(-745.182 -622.025)" fill="#fff"/>
          <path id="パス_4791" data-name="パス 4791" d="M1134.95,2038.678h-25.614a.236.236,0,1,1,0-.471h25.614a.236.236,0,0,1,0,.471Z" transform="translate(-1080.327 -1934.478)"/>
          <path id="パス_4792" data-name="パス 4792" d="M1389.969,624.841h-12.717a2.846,2.846,0,0,1-2.846-2.845h18.408A2.845,2.845,0,0,1,1389.969,624.841Z" transform="translate(-1326.798 -618.806)" fill="#99b9ff"/>
        </g>
        <g id="グループ_3499" data-name="グループ 3499" transform="translate(0 21.023)">
          <path id="パス_4793" data-name="パス 4793" d="M704.4,889.246H639.08c-1.189,0-1.809-1.279-1.619-2.453l2.059-11.634a2.3,2.3,0,0,1,2.047-1.849h65.325a2.034,2.034,0,0,1,1.762,2.466L706.6,887.41A2.449,2.449,0,0,1,704.4,889.246Z" transform="translate(-632.412 -873.302)" fill="#5479f7"/>
          <g id="グループ_3497" data-name="グループ 3497">
            <path id="パス_4794" data-name="パス 4794" d="M639.922,892.015h-67.9a1.929,1.929,0,0,1-1.9-2.238l2.059-11.634a1.929,1.929,0,0,1,1.9-1.621h67.9a1.929,1.929,0,0,1,1.9,2.238l-2.059,11.634A1.929,1.929,0,0,1,639.922,892.015Z" transform="translate(-569.852 -876.286)" fill="#fff"/>
            <path id="パス_4795" data-name="パス 4795" d="M636.842,889.165h-67.9a2.165,2.165,0,0,1-2.137-2.511l2.06-11.638A2.155,2.155,0,0,1,571,873.2h67.9a2.165,2.165,0,0,1,2.137,2.512l-2.06,11.638A2.155,2.155,0,0,1,636.842,889.165ZM571,873.672a1.687,1.687,0,0,0-1.672,1.423l-2.06,11.637a1.694,1.694,0,0,0,1.672,1.961h67.9a1.687,1.687,0,0,0,1.672-1.423l2.06-11.638a1.694,1.694,0,0,0-1.672-1.961Z" transform="translate(-566.772 -873.201)"/>
          </g>
          <g id="グループ_3498" data-name="グループ 3498" transform="translate(5.975 3.691)">
            <path id="パス_4796" data-name="パス 4796" d="M680.621,926.209a3.481,3.481,0,1,0,0,4.923A3.481,3.481,0,0,0,680.621,926.209Zm-4.31,4.31a2.614,2.614,0,1,1,3.7,0A2.614,2.614,0,0,1,676.311,930.519Z" transform="translate(-672.993 -925.189)" fill="#5479f7"/>
            <path id="長方形_9880" data-name="長方形 9880" d="M0,0H.9a0,0,0,0,1,0,0V3.342a.45.45,0,0,1-.45.45h0A.45.45,0,0,1,0,3.342V0A0,0,0,0,1,0,0Z" transform="translate(2.682 5.321) rotate(45)" fill="#5479f7"/>
          </g>
          <path id="パス_4797" data-name="パス 4797" d="M868.3,947.417H842.79a2.332,2.332,0,0,1-2.332-2.332h0a2.332,2.332,0,0,1,2.332-2.332H868.3a2.332,2.332,0,0,1,2.332,2.332h0A2.332,2.332,0,0,1,868.3,947.417Z" transform="translate(-821.029 -937.816)" fill="#99b9ff"/>
          <path id="パス_4798" data-name="パス 4798" d="M1326.8,946.922h-3.861a2.332,2.332,0,0,1-2.332-2.332h0a2.332,2.332,0,0,1,2.332-2.332h3.861a2.332,2.332,0,0,1,2.332,2.332h0A2.332,2.332,0,0,1,1326.8,946.922Z" transform="translate(-1267.088 -937.357)" fill="#99b9ff"/>
        </g>
        <g id="グループ_3500" data-name="グループ 3500" transform="translate(25.712 42.026)">
          <path id="パス_4799" data-name="パス 4799" d="M1022.407,1173.722H996.9a2.332,2.332,0,0,1-2.332-2.332h0a2.332,2.332,0,0,1,2.332-2.332h25.506a2.332,2.332,0,0,1,2.332,2.332h0A2.332,2.332,0,0,1,1022.407,1173.722Z" transform="translate(-989.912 -1169.058)" fill="#99b9ff"/>
          <path id="パス_4800" data-name="パス 4800" d="M1293.882,1290.007h-10.758a2.332,2.332,0,0,1-2.332-2.332h0a2.332,2.332,0,0,1,2.332-2.332h10.758a2.331,2.331,0,0,1,2.332,2.332h0A2.332,2.332,0,0,1,1293.882,1290.007Z" transform="translate(-1255.815 -1277.088)" fill="#caddff"/>
          <path id="パス_4801" data-name="パス 4801" d="M1553.051,1290.007h-10.758a2.332,2.332,0,0,1-2.332-2.332h0a2.332,2.332,0,0,1,2.332-2.332h10.758a2.332,2.332,0,0,1,2.332,2.332h0A2.332,2.332,0,0,1,1553.051,1290.007Z" transform="translate(-1496.587 -1277.088)" fill="#caddff"/>
          <path id="パス_4802" data-name="パス 4802" d="M1382.9,1539.273h-27.878a2.332,2.332,0,0,1-2.332-2.332h0a2.332,2.332,0,0,1,2.332-2.332H1382.9a2.332,2.332,0,0,1,2.332,2.332h0A2.332,2.332,0,0,1,1382.9,1539.273Z" transform="translate(-1322.61 -1508.659)" fill="#caddff"/>
          <path id="パス_4803" data-name="パス 4803" d="M956.889,1671.409H931.295a2.332,2.332,0,0,1-2.332-2.332h0a2.332,2.332,0,0,1,2.332-2.332h25.594a2.332,2.332,0,0,1,2.332,2.332h0A2.332,2.332,0,0,1,956.889,1671.409Z" transform="translate(-928.963 -1631.414)" fill="#caddff"/>
          <path id="パス_4804" data-name="パス 4804" d="M1418.313,1671.409H1402.5a2.332,2.332,0,0,1-2.332-2.332h0a2.332,2.332,0,0,1,2.332-2.332h15.813a2.332,2.332,0,0,1,2.332,2.332h0A2.331,2.331,0,0,1,1418.313,1671.409Z" transform="translate(-1366.717 -1631.414)" fill="#99b9ff"/>
          <path id="パス_4805" data-name="パス 4805" d="M1272.01,1799.113H1256.2a2.332,2.332,0,0,1-2.332-2.332h0a2.332,2.332,0,0,1,2.332-2.332h15.813a2.332,2.332,0,0,1,2.332,2.332h0A2.332,2.332,0,0,1,1272.01,1799.113Z" transform="translate(-1230.8 -1750.052)" fill="#caddff"/>
          <path id="パス_4806" data-name="パス 4806" d="M1139.085,1539.273h-8.3a2.332,2.332,0,0,1-2.332-2.332h0a2.332,2.332,0,0,1,2.332-2.332h8.3a2.332,2.332,0,0,1,2.332,2.332h0A2.332,2.332,0,0,1,1139.085,1539.273Z" transform="translate(-1114.296 -1508.659)" fill="#caddff"/>
          <path id="パス_4807" data-name="パス 4807" d="M1430.589,1411.989H1418.6a2.332,2.332,0,0,1-2.332-2.332h0a2.332,2.332,0,0,1,2.332-2.332h11.992a2.332,2.332,0,0,1,2.332,2.332h0A2.332,2.332,0,0,1,1430.589,1411.989Z" transform="translate(-1381.672 -1390.41)" fill="#99b9ff"/>
        </g>
      </g>
      <g id="グループ_3502" data-name="グループ 3502" transform="translate(99.772 27.026)">
        <path id="パス_4808" data-name="パス 4808" d="M1763.647,721.266l-.41-1.5-1.694.077a6.391,6.391,0,0,0-.544-.935l.9-1.437-1.1-1.092-1.428.914a6.527,6.527,0,0,0-.938-.535l.058-1.7-1.5-.394-.779,1.5a6.446,6.446,0,0,0-1.082.008l-.8-1.5-1.5.41.077,1.695a6.412,6.412,0,0,0-.934.544l-1.436-.9-1.092,1.1.914,1.429a6.53,6.53,0,0,0-.535.939l-1.694-.058-.394,1.5,1.5.78a6.439,6.439,0,0,0,.008,1.082l-1.5.8.41,1.5,1.693-.077a6.424,6.424,0,0,0,.544.935l-.9,1.437,1.1,1.092,1.428-.914a6.527,6.527,0,0,0,.938.535l-.058,1.7,1.5.394.779-1.5a6.432,6.432,0,0,0,1.081-.008l.8,1.5,1.5-.41-.077-1.695a6.416,6.416,0,0,0,.935-.544l1.436.9,1.091-1.1-.913-1.429a6.549,6.549,0,0,0,.534-.939l1.695.058.394-1.5-1.5-.78a6.426,6.426,0,0,0-.008-1.082Zm-6.894,5.229a4,4,0,1,1,2.8-4.912A4,4,0,0,1,1756.753,726.5Z" transform="translate(-1747.459 -714.394)" fill="#fff"/>
        <path id="パス_4809" data-name="パス 4809" d="M1750.928,727.272l-1.866-.489.06-1.73a6.717,6.717,0,0,1-.7-.4l-1.458.933-1.371-1.357.915-1.466a6.671,6.671,0,0,1-.406-.7l-1.727.079-.509-1.862,1.526-.813a6.75,6.75,0,0,1-.006-.808l-1.533-.8.489-1.867,1.729.06a6.8,6.8,0,0,1,.4-.7l-.932-1.458,1.356-1.372,1.465.916a6.679,6.679,0,0,1,.7-.407l-.079-1.728,1.861-.51.812,1.528a6.62,6.62,0,0,1,.807-.006l.795-1.535,1.866.49-.06,1.73a6.761,6.761,0,0,1,.7.4l1.457-.933,1.371,1.357-.914,1.466a6.714,6.714,0,0,1,.406.7l1.727-.079.509,1.862-1.526.813a6.7,6.7,0,0,1,.006.808l1.534.8-.489,1.867-1.729-.06a6.826,6.826,0,0,1-.4.7l.932,1.458-1.357,1.372-1.465-.915a6.684,6.684,0,0,1-.7.407l.078,1.729-1.86.51-.813-1.527a6.773,6.773,0,0,1-.807.006Zm-1.382-.85,1.137.3.764-1.476.156.012a6.206,6.206,0,0,0,1.042-.008l.156-.014.781,1.469,1.134-.31-.076-1.663.141-.067a6.2,6.2,0,0,0,.9-.525l.128-.09,1.409.88.826-.836-.9-1.4.088-.129a6.326,6.326,0,0,0,.516-.905l.066-.142,1.662.057.3-1.138-1.474-.765.012-.156a6.212,6.212,0,0,0-.007-1.042l-.014-.156,1.468-.782-.31-1.135-1.661.076-.067-.141a6.24,6.24,0,0,0-.524-.9l-.09-.128.879-1.41-.835-.827-1.4.9-.129-.089a6.313,6.313,0,0,0-.9-.516l-.142-.066.057-1.664-1.137-.3-.764,1.476-.156-.012a6.17,6.17,0,0,0-1.042.008l-.156.014-.781-1.469-1.134.311.075,1.663-.141.067a6.227,6.227,0,0,0-.9.524l-.128.09-1.409-.88-.827.836.9,1.4-.088.129a6.322,6.322,0,0,0-.516.905l-.065.142-1.663-.057-.3,1.138,1.475.765-.012.156a6.241,6.241,0,0,0,.008,1.043l.014.156-1.468.782.311,1.134,1.661-.076.067.141a6.234,6.234,0,0,0,.524.9l.09.128-.879,1.41.835.827,1.4-.9.129.088a6.31,6.31,0,0,0,.9.516l.141.066Zm2.538-3.159a4.239,4.239,0,1,1,1.124-.152h0A4.24,4.24,0,0,1,1752.083,723.263Zm.012-8a3.766,3.766,0,0,0-3.632,4.758,3.76,3.76,0,0,0,4.619,2.635h0a3.764,3.764,0,0,0-.987-7.393Z" transform="translate(-1743.851 -710.782)"/>
      </g>
      <g id="グループ_3505" data-name="グループ 3505" transform="translate(4.964 4.088)">
        <path id="パス_4810" data-name="パス 4810" d="M1925.675,471.645a1.506,1.506,0,0,1-.244-.02,1.481,1.481,0,0,1-1.22-1.7h0a1.48,1.48,0,1,1,1.464,1.722Zm0-2.491a1.011,1.011,0,0,0-1,.846h0a1.009,1.009,0,1,0,1-.846Zm-1.228.807h0Z" transform="translate(-1816.58 -462.932)"/>
        <path id="パス_4811" data-name="パス 4811" d="M413.134,712.609a1.521,1.521,0,0,1-.244-.02,1.483,1.483,0,0,1-1.22-1.7h0a1.481,1.481,0,1,1,1.464,1.722Zm-.005-2.491a1.01,1.01,0,0,0-.994.846h0a1.01,1.01,0,1,0,1.16-.832A1.029,1.029,0,0,0,413.128,710.118Zm-1.226.807h0Z" transform="translate(-411.416 -686.789)"/>
        <circle id="楕円形_136" data-name="楕円形 136" cx="1.906" cy="1.906" r="1.906" transform="matrix(0.646, -0.763, 0.763, 0.646, 6.09, 27.938)" fill="#caddff"/>
        <path id="パス_4812" data-name="パス 4812" d="M1804.63,419.228a2.025,2.025,0,0,1-2-2.354h0a2.025,2.025,0,1,1,2,2.354Zm-1.534-2.278a1.554,1.554,0,1,0,.628-1.01,1.555,1.555,0,0,0-.628,1.01Z" transform="translate(-1703.625 -413.226)"/>
        <g id="グループ_3503" data-name="グループ 3503" transform="translate(88.2 0)">
          <path id="パス_4813" data-name="パス 4813" d="M1661.441,389.223a.236.236,0,0,1-.192-.1l-.767-1.077a.236.236,0,1,1,.384-.273l.768,1.077a.236.236,0,0,1-.192.372Z" transform="translate(-1659.751 -387.675)"/>
          <path id="パス_4814" data-name="パス 4814" d="M1699.285,442.326a.236.236,0,0,1-.192-.1l-.767-1.077a.236.236,0,1,1,.384-.273l.768,1.077a.236.236,0,0,1-.192.372Z" transform="translate(-1694.908 -437.008)"/>
          <path id="パス_4815" data-name="パス 4815" d="M1651,436.681a.236.236,0,0,1-.138-.427l1.073-.774a.236.236,0,1,1,.276.382l-1.073.774A.234.234,0,0,1,1651,436.681Z" transform="translate(-1650.769 -432.045)"/>
          <path id="パス_4816" data-name="パス 4816" d="M1703.889,398.531a.236.236,0,0,1-.138-.427l1.073-.774a.236.236,0,0,1,.276.382l-1.073.774A.232.232,0,0,1,1703.889,398.531Z" transform="translate(-1699.899 -396.604)"/>
        </g>
        <g id="グループ_3504" data-name="グループ 3504" transform="translate(0 64.713)">
          <path id="パス_4817" data-name="パス 4817" d="M419.035,1300.785a.235.235,0,0,1-.192-.1l-.768-1.077a.236.236,0,1,1,.384-.273l.768,1.077a.236.236,0,0,1-.192.372Z" transform="translate(-417.345 -1299.236)"/>
          <path id="パス_4818" data-name="パス 4818" d="M456.879,1353.885a.236.236,0,0,1-.192-.1l-.768-1.077a.236.236,0,0,1,.384-.274l.768,1.077a.236.236,0,0,1-.192.372Z" transform="translate(-452.502 -1348.567)"/>
          <path id="パス_4819" data-name="パス 4819" d="M408.6,1348.243a.236.236,0,0,1-.138-.427l1.073-.774a.236.236,0,1,1,.276.382l-1.073.774A.235.235,0,0,1,408.6,1348.243Z" transform="translate(-408.362 -1343.607)"/>
          <path id="パス_4820" data-name="パス 4820" d="M461.483,1310.094a.236.236,0,0,1-.138-.427l1.073-.774a.236.236,0,1,1,.276.383l-1.073.774A.234.234,0,0,1,461.483,1310.094Z" transform="translate(-457.493 -1308.166)"/>
        </g>
      </g>
      <g id="グループ_3507" data-name="グループ 3507" transform="translate(1.288 1.782)">
        <g id="グループ_3506" data-name="グループ 3506" transform="translate(0 0)">
          <ellipse id="楕円形_137" data-name="楕円形 137" cx="8.567" cy="8.518" rx="8.567" ry="8.518" transform="matrix(0.712, -0.702, 0.702, 0.712, 0, 12.022)" fill="#fff"/>
          <path id="パス_4821" data-name="パス 4821" d="M411.822,419.271a8.72,8.72,0,0,1-8.729-8.741,8.847,8.847,0,0,1,8.789-8.815h.04a8.719,8.719,0,0,1,8.729,8.741,8.848,8.848,0,0,1-8.789,8.815Zm.1-17.084h-.038a8.375,8.375,0,0,0-8.319,8.344h0a8.248,8.248,0,0,0,8.257,8.269h.037a8.375,8.375,0,0,0,8.32-8.344,8.248,8.248,0,0,0-8.257-8.269Z" transform="translate(-399.792 -398.413)"/>
        </g>
        <path id="パス_4822" data-name="パス 4822" d="M471.121,469.116l-2.6,1.53a.21.21,0,0,0-.007.357l.385.248a.21.21,0,0,1,.063.29l-1.207,1.882a.21.21,0,0,1-.29.063l-2.239-1.436a.21.21,0,0,0-.29.063l-2.694,4.176a.21.21,0,0,0,.063.29l.819.525a.21.21,0,0,0,.29-.063l1.943-3a.21.21,0,0,1,.29-.063l2.239,1.436a.21.21,0,0,0,.29-.063l1.957-3.051a.21.21,0,0,1,.29-.063l.415.267a.21.21,0,0,0,.322-.157l.28-3.025A.21.21,0,0,0,471.121,469.116Z" transform="translate(-454.707 -461.002)" fill="#5479f7"/>
      </g>
      <g id="グループ_3513" data-name="グループ 3513" transform="translate(32.069 0)">
        <g id="グループ_3510" data-name="グループ 3510" transform="translate(0 9.065)">
          <path id="パス_4823" data-name="パス 4823" d="M810.544,457.823c5.159,0,10.036,2.334,15.164,8.414l-21.236.027a4.063,4.063,0,0,0-4.033,3.435,20.066,20.066,0,0,0,.028,6.89,34.791,34.791,0,0,0,1.578,4.8A3.162,3.162,0,0,1,801,485.176l-.931.682a3.167,3.167,0,0,1-4.27-.484,26.9,26.9,0,0,1-4.414-6.923c-2.99-7.148-.709-18.43,9.227-20.4C802.728,457.63,809.441,457.823,810.544,457.823Z" transform="translate(-790.161 -457.779)" fill="#5479f7"/>
          <g id="グループ_3508" data-name="グループ 3508" transform="translate(15.619 6.679)">
            <path id="パス_4824" data-name="パス 4824" d="M1019.91,556.574a2.4,2.4,0,0,0-3.171-1.17,8.834,8.834,0,0,0-2.482,1.439,3.741,3.741,0,0,0-.53,3.371,1.889,1.889,0,0,0,2.888.656,4.043,4.043,0,0,0,1.353-2.133,2.141,2.141,0,0,1,1.169-1.379,1.831,1.831,0,0,1,.51-.141.382.382,0,0,0,.318-.5C1019.951,556.671,1019.933,556.625,1019.91,556.574Z" transform="translate(-1013.274 -554.956)" fill="#fff"/>
            <path id="パス_4825" data-name="パス 4825" d="M1012.315,558.426a2.169,2.169,0,0,1-.523-.064,2.051,2.051,0,0,1-1.382-1.143,3.936,3.936,0,0,1,.561-3.617,8.1,8.1,0,0,1,2.569-1.506,2.637,2.637,0,0,1,3.482,1.289h0c.026.058.047.112.063.159a.618.618,0,0,1-.513.813,1.591,1.591,0,0,0-.444.123,1.9,1.9,0,0,0-1.037,1.23,4.3,4.3,0,0,1-1.435,2.253A2.193,2.193,0,0,1,1012.315,558.426Zm2.319-6.092a2.214,2.214,0,0,0-.9.193,7.3,7.3,0,0,0-2.394,1.372,3.538,3.538,0,0,0-.5,3.125,1.581,1.581,0,0,0,1.066.881,1.711,1.711,0,0,0,1.464-.314,3.842,3.842,0,0,0,1.271-2.014,2.372,2.372,0,0,1,1.3-1.529,2.072,2.072,0,0,1,.575-.158.146.146,0,0,0,.109-.068.143.143,0,0,0,.014-.126c-.012-.035-.027-.074-.047-.117A2.137,2.137,0,0,0,1014.634,552.335Z" transform="translate(-1010.172 -551.864)"/>
          </g>
          <g id="グループ_3509" data-name="グループ 3509" transform="translate(6.367 23.607)">
            <path id="パス_4826" data-name="パス 4826" d="M889.846,800.321a3.234,3.234,0,0,1,.452,1.139l.474,2.622-1.573,0a1.08,1.08,0,0,0-.708.269l0,0a.781.781,0,0,0-.253.738c.107.554.52,2.164.524,2.418a1.961,1.961,0,0,1-.184,1.216l-.066.079a.537.537,0,0,1-.913-.146l-1.4-3.695a2.192,2.192,0,0,1-.039-1.476l.817-2.5a1.522,1.522,0,0,0-.4-1.584l-3.072-2.556c-1.111-1.033.979-2.948.979-2.948a1.523,1.523,0,0,1,2.106.366Z" transform="translate(-882.934 -793.397)" fill="#fff"/>
            <path id="パス_4827" data-name="パス 4827" d="M885.014,806.147a.793.793,0,0,1-.128-.01.762.762,0,0,1-.593-.48l-1.405-3.7a2.435,2.435,0,0,1-.043-1.633l.817-2.5a1.293,1.293,0,0,0-.341-1.339l-3.061-2.547a1.212,1.212,0,0,1-.41-.928c0-1.1,1.324-2.323,1.381-2.375l.024-.019a1.759,1.759,0,0,1,2.436.426.224.224,0,0,1,.013.021l3.263,6.046a3.467,3.467,0,0,1,.479,1.208l.475,2.628a.235.235,0,0,1-.232.278l-1.573,0a.845.845,0,0,0-.553.211.549.549,0,0,0-.179.518c.041.212.129.587.221.983a12.852,12.852,0,0,1,.307,1.475c0,.051,0,.105,0,.162a1.8,1.8,0,0,1-.242,1.208l-.067.081A.768.768,0,0,1,885.014,806.147ZM881.538,791a3.727,3.727,0,0,0-1.216,2.019.741.741,0,0,0,.25.572l3.062,2.548a1.77,1.77,0,0,1,.476,1.838l-.817,2.5a1.964,1.964,0,0,0,.035,1.318l1.405,3.7a.29.29,0,0,0,.229.184.3.3,0,0,0,.283-.105l.066-.079a1.5,1.5,0,0,0,.134-.892c0-.059,0-.116,0-.17,0-.129-.178-.879-.294-1.375-.094-.4-.183-.78-.225-1a1.02,1.02,0,0,1,.33-.961,1.319,1.319,0,0,1,.865-.329l1.291,0-.424-2.345a3,3,0,0,0-.422-1.058l-.006-.01-3.259-6.039a1.288,1.288,0,0,0-1.757-.305Z" transform="translate(-879.85 -790.307)"/>
          </g>
        </g>
        <g id="グループ_3512" data-name="グループ 3512" transform="translate(14.219 0)">
          <g id="グループ_3511" data-name="グループ 3511" transform="translate(0 4.558)">
            <path id="パス_4828" data-name="パス 4828" d="M997.164,406.235a.994.994,0,0,0,.4-.2l1.8-1.493a.525.525,0,0,1,.613.041l1.287,1.093a.484.484,0,0,0,.584.026l1.629-1.117.794.256a.121.121,0,0,0,.151-.075l.522-1.464c.223-.51.987-1.344.787-1.533,0,0-2.334-5.175-4.9-3.963a1.709,1.709,0,0,0-.824.867l-.345.787a7.188,7.188,0,0,1-3.959,3.069,11.144,11.144,0,0,1-1.382.145.581.581,0,0,0-.52.741,6.954,6.954,0,0,0,.749,1.689,2.415,2.415,0,0,0,2.59,1.139Z" transform="translate(-993.545 -397.382)" fill="#fff"/>
            <path id="パス_4829" data-name="パス 4829" d="M993.54,403.447a2.668,2.668,0,0,1-2.275-1.312,7.194,7.194,0,0,1-.774-1.746.819.819,0,0,1,.12-.7.809.809,0,0,1,.612-.341,10.416,10.416,0,0,0,1.34-.138,7.016,7.016,0,0,0,3.8-2.935l.345-.787a1.942,1.942,0,0,1,.939-.986,2.1,2.1,0,0,1,1.678-.061c1.9.7,3.35,3.733,3.523,4.107.2.256-.059.644-.387,1.129a4.824,4.824,0,0,0-.381.622l-.519,1.456a.355.355,0,0,1-.445.22l-.685-.221-1.533,1.052a.723.723,0,0,1-.868-.039l-1.289-1.095a.287.287,0,0,0-.324-.028l-1.786,1.481a1.232,1.232,0,0,1-.5.252l-.022.005A2.556,2.556,0,0,1,993.54,403.447Zm5-8.681a1.611,1.611,0,0,0-.7.162,1.471,1.471,0,0,0-.708.749l-.345.787a7.347,7.347,0,0,1-4.117,3.2,10.228,10.228,0,0,1-1.425.152.335.335,0,0,0-.257.143.35.35,0,0,0-.051.3,6.756,6.756,0,0,0,.724,1.631A2.172,2.172,0,0,0,994,402.923l.019,0h0a.75.75,0,0,0,.305-.156l1.8-1.493.026-.019a.759.759,0,0,1,.888.061l1.289,1.095a.249.249,0,0,0,.3.011l1.629-1.117a.236.236,0,0,1,.206-.03l.689.222.484-1.359.006-.015a4.983,4.983,0,0,1,.425-.7,3.537,3.537,0,0,0,.371-.623l-.007-.015c-.015-.032-1.476-3.231-3.272-3.892A1.776,1.776,0,0,0,998.544,394.766Zm3.942,4.083h0Z" transform="translate(-990.46 -394.295)"/>
          </g>
          <path id="パス_4830" data-name="パス 4830" d="M1079.423,336.989c-.6-1.137-1.6-.624-2.171-3.853-.347-1.941-1.905.063-2.038-.431-.49-1.824-.472-1.763-1.13-2.4-.436-.421-1.561-.185-2.2.33-.839.68-1.678,2.585-2.664,4.432-.511.956-.08,2.462,1.725,2.171.565-.091.6-.97,1.1-.869,1.287.262.229,1.351.983,1.732a10.666,10.666,0,0,0,2.047.75c1.132.345,1.091,1.678,2.888,1.2A2.175,2.175,0,0,0,1079.423,336.989Z" transform="translate(-1063.446 -330.09)"/>
        </g>
      </g>
      <g id="グループ_3530" data-name="グループ 3530" transform="translate(76.184 41.903)">
        <g id="グループ_3523" data-name="グループ 3523" transform="translate(22.468 37.253)">
          <g id="グループ_3517" data-name="グループ 3517" transform="translate(11.275 34.548)">
            <g id="グループ_3514" data-name="グループ 3514">
              <path id="パス_4831" data-name="パス 4831" d="M1892.171,1935.056c.091.142,3.575,5.124,3.575,5.124s-.487,1.729-1.39,1.976l-4.143-4.483Z" transform="translate(-1889.978 -1934.821)" fill="#fff"/>
              <path id="パス_4832" data-name="パス 4832" d="M1891.271,1939.315a.236.236,0,0,1-.173-.076l-4.143-4.483a.236.236,0,0,1-.016-.3l1.958-2.616a.238.238,0,0,1,.2-.094.236.236,0,0,1,.19.108c.081.126,2.6,3.736,3.57,5.116a.236.236,0,0,1,.034.2c-.054.19-.552,1.865-1.555,2.139A.229.229,0,0,1,1891.271,1939.315Zm-3.837-4.735,3.9,4.222a3.1,3.1,0,0,0,1.066-1.658c-.489-.7-2.661-3.806-3.324-4.761Z" transform="translate(-1886.892 -1931.744)"/>
            </g>
            <g id="グループ_3515" data-name="グループ 3515" transform="translate(0.41 4.326)">
              <path id="パス_4833" data-name="パス 4833" d="M1903.485,1998.121s-1.039,4.026-2.776,6.1-4.623,1.325-4.623,1.325-.211-1.751.15-2.206,2.361-2.888,2.355-5.075l.888-1.349.627.812.841-1.724Z" transform="translate(-1895.787 -1995.763)" fill="#fff"/>
              <path id="パス_4834" data-name="パス 4834" d="M1894.207,2002.828a5.575,5.575,0,0,1-1.293-.143.236.236,0,0,1-.175-.2c-.037-.309-.2-1.875.2-2.381l.039-.049c1.876-2.35,2.267-3.95,2.265-4.88a.233.233,0,0,1,.039-.13l.888-1.349a.235.235,0,0,1,.188-.105.231.231,0,0,1,.2.091l.395.511.675-1.383a.235.235,0,0,1,.363-.077l2.538,2.123a.235.235,0,0,1,.077.24c-.043.167-1.073,4.1-2.823,6.189A4.527,4.527,0,0,1,1894.207,2002.828Zm-1.019-.566a4.525,4.525,0,0,0,4.227-1.281,18.362,18.362,0,0,0,2.689-5.861l-2.191-1.833-.709,1.454a.236.236,0,0,1-.4.041l-.425-.55-.668,1.015c-.017,1.014-.452,2.7-2.367,5.1l-.038.048A4.02,4.02,0,0,0,1893.188,2002.261Z" transform="translate(-1892.673 -1992.677)"/>
            </g>
            <g id="グループ_3516" data-name="グループ 3516" transform="translate(1.167 6.745)">
              <path id="パス_4835" data-name="パス 4835" d="M1911.953,2030.079s-1.094,5.951-5.3,6.394Z" transform="translate(-1906.417 -2029.843)" fill="#fff"/>
              <path id="パス_4836" data-name="パス 4836" d="M1903.568,2033.623a.236.236,0,0,1-.025-.47c3.98-.419,5.082-6.144,5.093-6.2a.236.236,0,1,1,.464.085c-.046.25-1.176,6.13-5.507,6.585Z" transform="translate(-1903.333 -2026.758)"/>
            </g>
          </g>
          <g id="グループ_3521" data-name="グループ 3521" transform="translate(2.903 39.208)">
            <g id="グループ_3518" data-name="グループ 3518" transform="translate(7.048)">
              <path id="パス_4837" data-name="パス 4837" d="M1872.688,2000.788a14.984,14.984,0,0,1-1.126,5.073,2.036,2.036,0,0,0,2.008,1.138,26.392,26.392,0,0,0,1.944-6.284Z" transform="translate(-1871.326 -2000.479)" fill="#fff"/>
              <path id="パス_4838" data-name="パス 4838" d="M1870.183,2004.177a2.316,2.316,0,0,1-1.916-1.3.234.234,0,0,1,0-.21,14.851,14.851,0,0,0,1.1-4.949.242.242,0,0,1,.061-.177.235.235,0,0,1,.167-.079l2.826-.073a.225.225,0,0,1,.18.077.237.237,0,0,1,.06.187,26.265,26.265,0,0,1-1.963,6.354.236.236,0,0,1-.171.134A1.86,1.86,0,0,1,1870.183,2004.177Zm-1.44-1.412a1.75,1.75,0,0,0,1.579.933,26.68,26.68,0,0,0,1.837-5.827l-2.326.06A15.44,15.44,0,0,1,1868.743,2002.766Z" transform="translate(-1868.241 -1997.392)"/>
            </g>
            <g id="グループ_3519" data-name="グループ 3519" transform="translate(0 3.395)">
              <path id="パス_4839" data-name="パス 4839" d="M1782.391,2049.66a24.919,24.919,0,0,1,.005,4.4,1.012,1.012,0,0,1-.7.806,25.823,25.823,0,0,1-8.019,1.367,1.372,1.372,0,0,1-1.271-.829c-.275-.8.106-1.889,1.289-2.96a47.786,47.786,0,0,1,5.7-3.9l1.21,1.453-.312,1.427Z" transform="translate(-1772.08 -2048.302)" fill="#fff"/>
              <path id="パス_4840" data-name="パス 4840" d="M1771.021,2053.389q-.237,0-.473-.007a1.6,1.6,0,0,1-1.486-.989c-.33-.963.163-2.134,1.354-3.211a47.24,47.24,0,0,1,5.742-3.933.236.236,0,0,1,.3.052l1.21,1.453a.237.237,0,0,1,.049.2l-.165.753,1.569-1.314a.236.236,0,0,1,.386.161,24.73,24.73,0,0,1,0,4.454,1.24,1.24,0,0,1-.866,1l-.057.018A26.616,26.616,0,0,1,1771.021,2053.389Zm5.2-7.632a45.377,45.377,0,0,0-5.493,3.774c-1.029.932-1.487,1.944-1.224,2.709a1.138,1.138,0,0,0,1.056.67,25.281,25.281,0,0,0,7.884-1.339l.058-.018a.772.772,0,0,0,.541-.618,21.739,21.739,0,0,0,.026-3.885l-1.745,1.461a.236.236,0,0,1-.381-.231l.288-1.314Z" transform="translate(-1768.962 -2045.216)"/>
            </g>
            <g id="グループ_3520" data-name="グループ 3520" transform="translate(1.574 8.82)">
              <path id="パス_4841" data-name="パス 4841" d="M1801.411,2124.962a19.568,19.568,0,0,1-6.958,1.332Z" transform="translate(-1794.217 -2124.727)" fill="#fff"/>
              <path id="パス_4842" data-name="パス 4842" d="M1791.369,2123.442a.236.236,0,0,1-.006-.471,19.51,19.51,0,0,0,6.867-1.312.236.236,0,0,1,.194.43,19.645,19.645,0,0,1-7.049,1.353Z" transform="translate(-1791.133 -2121.638)"/>
            </g>
          </g>
          <g id="グループ_3522" data-name="グループ 3522">
            <path id="パス_4843" data-name="パス 4843" d="M1733.343,1451.732s-5.25,11.635-5.27,19.579,12.367,18.9,12.367,18.9l2.321-2.014s-5.018-6.588-5.809-12.519,2.495-14.921,2.495-14.921l.9-7.908Z" transform="translate(-1728.073 -1451.26)"/>
            <path id="パス_4844" data-name="パス 4844" d="M1835.724,1445.565s2.833,17.457-3.256,40.47l-4.323-.7s2.4-19.992-2.351-30.628l-1.057-9.613Z" transform="translate(-1817.876 -1445.094)"/>
          </g>
          <path id="パス_4845" data-name="パス 4845" d="M1845.289,1603.828h0a.235.235,0,0,1-.234-.237c.015-2.608-.721-7.584-1.769-9.117a.236.236,0,0,1,.389-.266c1.136,1.661,1.866,6.749,1.851,9.386A.236.236,0,0,1,1845.289,1603.828Z" transform="translate(-1835.067 -1583.527)" fill="#fff"/>
          <path id="パス_4846" data-name="パス 4846" d="M1874.034,1864.076h-.013a.236.236,0,0,1-.222-.249c.136-2.433.063-5.5.062-5.535a.236.236,0,0,1,.23-.241.241.241,0,0,1,.241.23c0,.031.074,3.121-.062,5.573A.236.236,0,0,1,1874.034,1864.076Z" transform="translate(-1863.453 -1828.734)" fill="#99b9ff"/>
        </g>
        <g id="グループ_3525" data-name="グループ 3525" transform="translate(26.684 8.763)">
          <path id="パス_4847" data-name="パス 4847" d="M1845.957,1052.32c.492.988-.207,1.336.135,3.254.25,1.409.757,1.948.42,2.649a2.3,2.3,0,0,1-1.514,1.009c-2.186.682-4.293-.427-5.587-1.108-1.046-.551-2.482-1.306-2.385-2.071s1.575-.651,2.271-1.917c.56-1.019-.083-1.659.505-2.521.762-1.115,2.54-1.069,2.825-1.062A3.885,3.885,0,0,1,1845.957,1052.32Z" transform="translate(-1833.503 -1050.072)"/>
          <g id="グループ_3524" data-name="グループ 3524" transform="translate(0 1.074)">
            <path id="パス_4848" data-name="パス 4848" d="M1790.7,1069.012l5.75,1.44a.213.213,0,0,0,.246-.137,3.559,3.559,0,0,0-.394-2.655.211.211,0,0,0-.131-.1,3.689,3.689,0,0,1-.773-.3.619.619,0,0,1-.272-.8c.21-.476.438-1.118.568-1.381a.2.2,0,0,0-.009-.2c-.1-.145-.251-.256-.232-.474a.2.2,0,0,1,.143-.179c.722-.214,1.281-1.3,1.763-1.627a6.376,6.376,0,0,1,.644-.34.211.211,0,0,1,.143-.024c1.227.266-.654,1.789.954,2.683a.213.213,0,0,1,.11.225,1.73,1.73,0,0,0-.005.476v.005a.21.21,0,0,0,.341.141c.243-.2.493-.255.639-.169.208.122.2.524.121.765a1.35,1.35,0,0,1-.933.791.209.209,0,0,0-.139.258,23.122,23.122,0,0,1,.81,3.663.212.212,0,0,0,.166.2l1.1.24a11.84,11.84,0,0,1,4.877,2.485,17.059,17.059,0,0,1,2.211,1.94c-3.417,3.475-10.127,1.3-12.611.2C1793.373,1075.073,1790.535,1068.977,1790.7,1069.012Z" transform="translate(-1790.462 -1061.999)" fill="#fff"/>
            <path id="パス_4849" data-name="パス 4849" d="M1800.14,1074.983a20.488,20.488,0,0,1-7.448-1.708c-1.3-.577-2.655-2.485-3.56-3.985a15.154,15.154,0,0,1-1.658-3.429.243.243,0,0,1,.28-.16l.007,0,5.724,1.433a3.315,3.315,0,0,0-.38-2.432,3.941,3.941,0,0,1-.814-.318.856.856,0,0,1-.377-1.1c.1-.224.2-.493.3-.731.1-.266.2-.5.267-.644-.016-.022-.034-.043-.051-.065a.716.716,0,0,1-.206-.54.443.443,0,0,1,.311-.385,2.749,2.749,0,0,0,1.057-.933,3.61,3.61,0,0,1,.641-.663,2.657,2.657,0,0,1,.412-.227c.076-.036.156-.073.251-.125a.451.451,0,0,1,.306-.047.78.78,0,0,1,.529.324,1.206,1.206,0,0,1,.016.933c-.125.541-.243,1.052.475,1.451a.45.45,0,0,1,.226.479,1.317,1.317,0,0,0-.005.363.8.8,0,0,1,.869-.161c.339.2.322.729.228,1.037a1.561,1.561,0,0,1-1.064.939,22.849,22.849,0,0,1,.811,3.676l1.079.236a12.094,12.094,0,0,1,4.983,2.539c2.274,1.775,2.287,1.97,2.295,2.087a.272.272,0,0,1-.072.194A7.366,7.366,0,0,1,1800.14,1074.983Zm-12.076-8.719c.575,1.317,2.86,5.711,4.819,6.58.859.381,8.423,3.582,12.214-.018-.3-.3-1.213-1.063-2.055-1.72a11.592,11.592,0,0,0-4.783-2.441l-1.1-.241a.448.448,0,0,1-.351-.417,23.2,23.2,0,0,0-.8-3.609.443.443,0,0,1,.295-.548,1.13,1.13,0,0,0,.778-.635.618.618,0,0,0-.015-.493c-.028-.016-.174-.012-.371.149a.446.446,0,0,1-.725-.3,1.98,1.98,0,0,1,0-.53,1.528,1.528,0,0,1-.694-1.963c.054-.233.109-.474.045-.575a.365.365,0,0,0-.216-.112c-.1.056-.189.1-.271.135a2.2,2.2,0,0,0-.346.189,3.385,3.385,0,0,0-.544.575,3.1,3.1,0,0,1-1.262,1.077c0,.054.031.1.1.184.031.039.063.078.091.119a.437.437,0,0,1,.025.435c-.063.128-.158.369-.259.624s-.2.515-.305.748a.383.383,0,0,0,.167.493,3.491,3.491,0,0,0,.725.281.444.444,0,0,1,.276.215,3.776,3.776,0,0,1,.41,2.847.448.448,0,0,1-.518.288Zm5.446.878h0Z" transform="translate(-1787.467 -1058.917)"/>
          </g>
          <path id="パス_4850" data-name="パス 4850" d="M1867.737,1135.121a2.642,2.642,0,0,1-.933-.168.236.236,0,0,1,.166-.441,2.214,2.214,0,0,0,1.476.022.236.236,0,0,1,.177.437A2.537,2.537,0,0,1,1867.737,1135.121Z" transform="translate(-1861.031 -1128.056)"/>
          <path id="パス_4851" data-name="パス 4851" d="M1949.839,1045.523s.37-2.242,2.148-1.635.053,2.451-1.29,2.593S1949.839,1045.523,1949.839,1045.523Z" transform="translate(-1938.232 -1043.783)"/>
        </g>
        <g id="グループ_3529" data-name="グループ 3529" transform="translate(0 0)">
          <g id="グループ_3526" data-name="グループ 3526">
            <path id="パス_4852" data-name="パス 4852" d="M1422.674,931.8a10.923,10.923,0,0,1-.708-1.9,9.846,9.846,0,0,0-1.911-4.741,2.537,2.537,0,0,0-1.836-.9c-1.28-.125-3.037-1.253-3.282-.07-.212,1.022,1.473.867,2.1,1.606.325.385,1.734,1.961.779,2.756-.682.568-1.5.321-1.7.7a.581.581,0,0,0,.1.653c.53.622,2.138.018,2.138.018.326-.136.717.265.9.565l1.323,2.115Z" transform="translate(-1414.681 -923.416)" fill="#fff"/>
            <path id="パス_4853" data-name="パス 4853" d="M1417.374,929.815l-1.426-2.279c-.192-.308-.479-.528-.614-.472-.188.071-1.789.645-2.408-.082a.815.815,0,0,1-.125-.918c.151-.278.456-.333.78-.39a1.96,1.96,0,0,0,.981-.381.631.631,0,0,0,.239-.448c.058-.675-.74-1.614-1-1.922l-.045-.053a2.316,2.316,0,0,0-.987-.527c-.591-.21-1.326-.471-1.159-1.278a.857.857,0,0,1,.393-.6c.457-.27,1.154-.054,1.893.174a6.794,6.794,0,0,0,1.251.306,2.757,2.757,0,0,1,1.99.983,10.133,10.133,0,0,1,1.966,4.858,10.774,10.774,0,0,0,.688,1.839l.109.23Zm-1.99-3.235c.4,0,.784.418.964.705l1.22,1.951,1.689-.641a9.236,9.236,0,0,1-.622-1.732,9.678,9.678,0,0,0-1.856-4.624,2.3,2.3,0,0,0-1.681-.823,7.132,7.132,0,0,1-1.344-.325c-.608-.188-1.236-.383-1.514-.219a.385.385,0,0,0-.171.287c-.076.369.188.5.855.738a2.677,2.677,0,0,1,1.19.668l.044.051a3.79,3.79,0,0,1,1.113,2.268,1.1,1.1,0,0,1-.407.77,2.407,2.407,0,0,1-1.2.483c-.208.037-.405.072-.448.151a.349.349,0,0,0,.069.388c.345.405,1.5.092,1.876-.05A.572.572,0,0,1,1415.385,926.581Z" transform="translate(-1411.584 -920.341)"/>
          </g>
          <g id="グループ_3527" data-name="グループ 3527" transform="translate(35.602 40.344)">
            <path id="パス_4854" data-name="パス 4854" d="M1921.75,1493.624a14.182,14.182,0,0,0-3.217-1.635,2.935,2.935,0,0,0-1.979.529.355.355,0,0,0,.04.614c.4.2,1,.313,1.3.491.713.428,1.973,3.506,5.542,1.238l-.467-1.7Z" transform="translate(-1916.161 -1491.72)" fill="#fff"/>
            <path id="パス_4855" data-name="パス 4855" d="M1917.969,1492.838a3.746,3.746,0,0,1-2.831-1.636,2.7,2.7,0,0,0-.451-.463,3.222,3.222,0,0,0-.59-.225,5.067,5.067,0,0,1-.691-.257.59.59,0,0,1-.067-1.021,3.109,3.109,0,0,1,2.16-.563,13.36,13.36,0,0,1,3.195,1.6l1.1-.422a.236.236,0,0,1,.312.158l.467,1.7a.237.237,0,0,1-.1.261A4.724,4.724,0,0,1,1917.969,1492.838Zm-2.841-3.732a3.04,3.04,0,0,0-1.525.522.119.119,0,0,0,.013.206,4.79,4.79,0,0,0,.625.23,3.5,3.5,0,0,1,.69.27,2.777,2.777,0,0,1,.565.56c.8.933,2,2.333,4.581.773l-.352-1.281-.975.372a.234.234,0,0,1-.214-.024,14.083,14.083,0,0,0-3.137-1.6A1.277,1.277,0,0,0,1915.127,1489.106Z" transform="translate(-1913.077 -1488.634)"/>
          </g>
          <g id="グループ_3528" data-name="グループ 3528" transform="translate(4.632 6.939)">
            <path id="パス_4856" data-name="パス 4856" d="M1480.828,1023.066l2.924-1.216s6.921,4.773,9.827,6.076a119.184,119.184,0,0,0,12.454,3.948.762.762,0,0,1,.562.711c.043,1.194.447,3.953,3.216,4.789a6.313,6.313,0,0,0,6.857-1.851.762.762,0,0,1,1.007-.122c2.314,1.6,10.582,7.687,11.319,13.4.787,6.973-10.585,10.316-10.585,10.316l-.83-2.965s3.65-2.23,3.226-5.91c-.715-2.719-1.877-3.437-2.711-3.711a.674.674,0,0,0-.916.569,20.412,20.412,0,0,0-.095,5.478,1.112,1.112,0,0,1-.881,1.235,28.6,28.6,0,0,1-17.5-2.422,2.647,2.647,0,0,1-1.442-2.787,76.192,76.192,0,0,1,1.981-8.466,1.1,1.1,0,0,0-.927-1.4,18.62,18.62,0,0,1-4.571-1.13C1483.833,1033.762,1480.828,1023.066,1480.828,1023.066Z" transform="translate(-1480.545 -1021.583)" fill="#fff"/>
            <path id="パス_4857" data-name="パス 4857" d="M1514.538,1055.922l-.943-3.366.152-.093c.035-.022,3.505-2.191,3.116-5.665-.7-2.642-1.791-3.28-2.552-3.531a.474.474,0,0,0-.4.033.468.468,0,0,0-.205.344,20.13,20.13,0,0,0-.095,5.414,1.349,1.349,0,0,1-1.067,1.5,28.82,28.82,0,0,1-17.65-2.441,2.872,2.872,0,0,1-1.571-3.035,76.479,76.479,0,0,1,1.987-8.5.867.867,0,0,0-.728-1.1,18.924,18.924,0,0,1-4.629-1.145,21.7,21.7,0,0,1-10.29-8.81,25.23,25.23,0,0,1-2.769-5.891l-.056-.2,3.235-1.346.106.073c.069.048,6.937,4.776,9.79,6.055a118.581,118.581,0,0,0,12.42,3.936.994.994,0,0,1,.736.93c.039,1.11.415,3.777,3.048,4.571a6.111,6.111,0,0,0,6.612-1.78,1,1,0,0,1,1.318-.161c2.49,1.723,10.674,7.793,11.419,13.568.333,2.952-1.433,5.718-5.107,8a26.1,26.1,0,0,1-5.646,2.569Zm-.394-3.155.718,2.564c1.587-.519,10.885-3.835,10.189-9.992-.719-5.578-8.769-11.542-11.219-13.237a.527.527,0,0,0-.7.084,6.568,6.568,0,0,1-7.1,1.921c-2.924-.882-3.34-3.795-3.383-5.006a.525.525,0,0,0-.388-.492,118.974,118.974,0,0,1-12.489-3.96,96.923,96.923,0,0,1-9.759-6.024l-2.608,1.085c.475,1.475,3.77,10.717,12.714,14.19a18.475,18.475,0,0,0,4.514,1.116,1.337,1.337,0,0,1,1.125,1.7,76.106,76.106,0,0,0-1.974,8.438,2.4,2.4,0,0,0,1.313,2.539,28.321,28.321,0,0,0,17.347,2.4.877.877,0,0,0,.695-.972,20.605,20.605,0,0,1,.095-5.542.91.91,0,0,1,1.223-.761c1.36.447,2.3,1.715,2.865,3.875l.006.033C1517.721,1050.122,1514.853,1052.288,1514.144,1052.767Z" transform="translate(-1476.835 -1018.09)"/>
          </g>
          <path id="パス_4858" data-name="パス 4858" d="M1764.846,1308.8a.235.235,0,0,1-.089-.018c-6.123-2.51-7.02-9.422-7.028-9.491a.236.236,0,0,1,.468-.056c.008.067.876,6.708,6.739,9.111a.236.236,0,0,1-.089.454Z" transform="translate(-1733.154 -1272.148)"/>
        </g>
      </g>
      <g id="グループ_3545" data-name="グループ 3545" transform="translate(0 61.422)">
        <g id="グループ_3538" data-name="グループ 3538" transform="translate(0 38.363)">
          <g id="グループ_3531" data-name="グループ 3531" transform="translate(8.354 23.339)">
            <path id="パス_4859" data-name="パス 4859" d="M464.419,2071.284h-4.984l1.794-3.51,3.963.347Z" transform="translate(-459.2 -2067.538)" fill="#fff"/>
            <path id="パス_4860" data-name="パス 4860" d="M461.335,2068.433h-4.984a.236.236,0,0,1-.21-.343l1.794-3.51a.235.235,0,0,1,.23-.127l3.963.347a.236.236,0,0,1,.208.291l-.773,3.163A.236.236,0,0,1,461.335,2068.433Zm-4.6-.472h4.414l.664-2.716-3.531-.309Z" transform="translate(-456.115 -2064.451)"/>
          </g>
          <g id="グループ_3534" data-name="グループ 3534" transform="translate(0 18.461)">
            <g id="グループ_3532" data-name="グループ 3532" transform="translate(0.61 0.622)">
              <path id="パス_4861" data-name="パス 4861" d="M359.421,2015.3l2.231-1.751a.677.677,0,0,0,.185-.862h0c-.455-.77-1.688-3.687-3.211-4.707a.95.95,0,0,0-1.286.231l-6.829,9.13a.822.822,0,0,0,.293,1.24,3.308,3.308,0,0,0,2.782-.179c2.141-.926,4.594-2.268,5.362-2.7a1.291,1.291,0,0,0,.355-.291A.831.831,0,0,1,359.421,2015.3Z" transform="translate(-350.107 -2007.589)" fill="#fff"/>
              <path id="パス_4862" data-name="パス 4862" d="M348.782,2015.949a2.72,2.72,0,0,1-1.164-.244,1.035,1.035,0,0,1-.566-.689,1.072,1.072,0,0,1,.184-.906l6.829-9.13a1.184,1.184,0,0,1,1.606-.286c1.269.851,2.307,2.891,2.927,4.11.144.282.268.526.355.674a.911.911,0,0,1-.243,1.166l-2.231,1.752a.609.609,0,0,0-.084.084,1.526,1.526,0,0,1-.42.344c-.715.4-3.216,1.769-5.383,2.706A4.569,4.569,0,0,1,348.782,2015.949Zm6.242-10.981a.726.726,0,0,0-.581.294l-6.829,9.131a.6.6,0,0,0-.1.509.565.565,0,0,0,.308.377,3.173,3.173,0,0,0,2.588-.182c2.147-.928,4.631-2.29,5.341-2.685a1.052,1.052,0,0,0,.291-.238,1.079,1.079,0,0,1,.151-.149h0l2.231-1.751a.444.444,0,0,0,.127-.558c-.094-.159-.215-.4-.368-.7-.6-1.178-1.6-3.15-2.77-3.932A.69.69,0,0,0,355.023,2004.968Z" transform="translate(-347.02 -2004.497)"/>
            </g>
            <g id="グループ_3533" data-name="グループ 3533">
              <path id="パス_4863" data-name="パス 4863" d="M342.419,2009.9a.01.01,0,0,1-.011,0c-.066-.023-.129-.049-.188-.077a.822.822,0,0,1-.293-1.24l6.829-9.13a.95.95,0,0,1,1.287-.231c.078.052.154.107.229.162a.009.009,0,0,1,0,.013Z" transform="translate(-341.521 -1998.833)" fill="#fff"/>
              <path id="パス_4864" data-name="パス 4864" d="M339.319,2007.049a.226.226,0,0,1-.078-.013c-.073-.026-.143-.055-.208-.085a1.034,1.034,0,0,1-.566-.689,1.071,1.071,0,0,1,.184-.906l6.829-9.131a1.185,1.185,0,0,1,1.607-.286c.08.054.159.111.237.168a.252.252,0,0,1,.052.342l-7.855,10.5A.254.254,0,0,1,339.319,2007.049Zm7.119-10.836a.726.726,0,0,0-.581.294l-6.829,9.13a.6.6,0,0,0-.1.509.565.565,0,0,0,.308.377l.015.007,7.611-10.176-.035-.023A.688.688,0,0,0,346.437,1996.213Z" transform="translate(-338.434 -1995.742)"/>
            </g>
            <path id="パス_4865" data-name="パス 4865" d="M441.4,2084.776a.236.236,0,0,1-.234-.215l-.156-1.788a.236.236,0,0,1,.47-.041l.156,1.788a.236.236,0,0,1-.214.255Z" transform="translate(-433.725 -2076.357)"/>
            <path id="パス_4866" data-name="パス 4866" d="M423.369,2094.45a.236.236,0,0,1-.234-.215l-.156-1.787a.236.236,0,0,1,.47-.042l.156,1.788a.235.235,0,0,1-.214.255Z" transform="translate(-416.975 -2085.344)"/>
          </g>
          <g id="グループ_3537" data-name="グループ 3537" transform="translate(39.267 23.71)">
            <g id="グループ_3535" data-name="グループ 3535">
              <path id="パス_4867" data-name="パス 4867" d="M900.265,2073.047l-3.772-.054a.66.66,0,0,0-.616.421,12.548,12.548,0,0,0-.992,4.746.95.95,0,0,0,.915.939l11.067.159a.839.839,0,0,0,.808-1,3.4,3.4,0,0,0-1.725-2.226c-1.948-1.232-4.4-2.472-5.173-2.856A1.186,1.186,0,0,0,900.265,2073.047Z" transform="translate(-894.645 -2072.758)" fill="#fff"/>
              <path id="パス_4868" data-name="パス 4868" d="M903.794,2076.41h-.014l-11.067-.159a1.185,1.185,0,0,1-1.147-1.167,12.88,12.88,0,0,1,1.01-4.843.9.9,0,0,1,.838-.568l3.772.054h0a1.414,1.414,0,0,1,.613.149c.721.357,3.225,1.622,5.194,2.868a3.631,3.631,0,0,1,1.831,2.383,1.1,1.1,0,0,1-.243.912A1.031,1.031,0,0,1,903.794,2076.41Zm-10.393-6.264a.424.424,0,0,0-.389.274,12.4,12.4,0,0,0-.975,4.649.714.714,0,0,0,.682.711l11.067.159a.562.562,0,0,0,.434-.2.633.633,0,0,0,.139-.524,3.254,3.254,0,0,0-1.619-2.068c-1.95-1.234-4.436-2.489-5.151-2.844a.945.945,0,0,0-.411-.1l-3.771-.054Z" transform="translate(-891.561 -2069.674)"/>
            </g>
            <g id="グループ_3536" data-name="グループ 3536" transform="translate(0.001 4.865)">
              <path id="パス_4869" data-name="パス 4869" d="M907.631,2141.72a.01.01,0,0,1,.009.007c.019.07.035.139.047.205a.839.839,0,0,1-.808,1l-11.067-.159a.951.951,0,0,1-.914-.939c0-.1,0-.194,0-.292a.01.01,0,0,1,.01-.009Z" transform="translate(-894.658 -2141.301)" fill="#fff"/>
              <path id="パス_4870" data-name="パス 4870" d="M903.805,2140.078h-.014l-11.067-.159a1.185,1.185,0,0,1-1.147-1.167c0-.1,0-.2,0-.3a.254.254,0,0,1,.076-.176.234.234,0,0,1,.177-.067l12.724.182a.254.254,0,0,1,.233.182c.021.077.038.152.051.224a1.1,1.1,0,0,1-.244.912A1.03,1.03,0,0,1,903.805,2140.078Zm-11.758-1.4c0,.018,0,.036,0,.054a.714.714,0,0,0,.682.711l11.067.159a.56.56,0,0,0,.434-.2.633.633,0,0,0,.139-.524l0-.021Z" transform="translate(-891.574 -2138.208)"/>
            </g>
            <path id="パス_4871" data-name="パス 4871" d="M966.377,2089.565a.236.236,0,0,1-.161-.407l1.106-1.039a.236.236,0,0,1,.323.344l-1.106,1.038A.234.234,0,0,1,966.377,2089.565Z" transform="translate(-960.846 -2086.75)"/>
            <path id="パス_4872" data-name="パス 4872" d="M984.251,2098.274a.236.236,0,0,1-.164-.4l1.109-1.078a.236.236,0,1,1,.329.337l-1.109,1.079A.235.235,0,0,1,984.251,2098.274Z" transform="translate(-977.452 -2094.803)"/>
          </g>
          <path id="パス_4873" data-name="パス 4873" d="M700.851,1740.885l0,0c.1-.08,8.076-5.854,10.653-5.129,4.406,1.239,3.548,14.337,3.457,17.8-.089,3.373-14.5-7.049-15-7.937S700.821,1740.968,700.851,1740.885Z" transform="translate(-674.199 -1735.691)" fill="#5479f7"/>
          <path id="パス_4874" data-name="パス 4874" d="M535.483,1811l.043.038c2.762,2.466,3.946,4.439,3.748,7.6-.193,3.086-4.629,6.361-18.839,4.754l-2.058-.135-11.557-.181v-8.286a108.156,108.156,0,0,1,12.9-.129.236.236,0,0,0,.058-.468c-3.624-.686-8.289-1.753-9.744-2.974-3.058-2.565-2.734-6.463-2.072-9.24,1.932-8.1,14,.356,14.081.377h0c.024.014,1.633.948,3.756,2.23Z" transform="translate(-494.866 -1794.012)" fill="#5479f7"/>
          <path id="パス_4875" data-name="パス 4875" d="M695.02,2022.141a.232.232,0,0,1-.121-.034h0c-.026-.016-2.677-1.565-9-1.713a.236.236,0,0,1,.005-.471h.006c6.468.151,9.123,1.715,9.233,1.781a.236.236,0,0,1-.122.438Z" transform="translate(-661.017 -1999.744)" fill="#caddff"/>
          <path id="パス_4876" data-name="パス 4876" d="M788.4,1892.654a.234.234,0,0,1-.143-.049,54.939,54.939,0,0,0-8.212-5.364.236.236,0,0,1,.212-.421,55.4,55.4,0,0,1,8.286,5.411.236.236,0,0,1-.143.423Z" transform="translate(-748.573 -1876.068)" fill="#caddff"/>
        </g>
        <g id="グループ_3544" data-name="グループ 3544" transform="translate(13.276 0)">
          <g id="グループ_3539" data-name="グループ 3539" transform="translate(11.791 10.255)">
            <path id="パス_4877" data-name="パス 4877" d="M694.984,1348.573c1.406-1.365,7.627-6,18.91-4.2a.8.8,0,0,0,.5-.081c.776-.408,3.325-1.639,4.816-1.054,1.724.676,5.422,2.81-.093,2.889a.13.13,0,0,0-.064.241c.438.258,1.038.663.933.89-.246.531-3.113.1-4.8-.186s-2.342-.572-6.6.787c-2.62.837-6.142,3.867-7.556,5.069C701.034,1352.929,694.831,1348.722,694.984,1348.573Z" transform="translate(-694.736 -1342.847)" fill="#fff"/>
            <path id="パス_4878" data-name="パス 4878" d="M697.85,1350.134l-.148-.1c-6.123-4.153-6.143-4.383-6.156-4.521l-.01-.112.083-.087c.662-.643,6.821-6.221,19.111-4.264a.569.569,0,0,0,.356-.057c.993-.522,3.468-1.67,5.012-1.065.129.051,3.165,1.255,2.959,2.389-.106.585-.991.888-2.777.947.635.414.852.722.721,1-.18.39-.917.653-5.055-.052l-.359-.063c-1.444-.257-2.24-.4-6.126.842-2.514.8-5.92,3.7-7.374,4.938Zm-5.74-4.633c.678.581,3.7,2.678,5.708,4.042,1.5-1.272,4.917-4.172,7.5-5,4-1.277,4.883-1.119,6.352-.857l.355.063c3.586.611,4.355.431,4.518.338a2.767,2.767,0,0,0-.808-.607.366.366,0,0,1,.18-.68c2.457-.035,2.662-.479,2.678-.568.073-.4-1.2-1.29-2.667-1.866-1.4-.549-3.891.66-4.62,1.043a1.035,1.035,0,0,1-.649.1C699.279,1339.7,693.3,1344.431,692.11,1345.5Z" transform="translate(-691.536 -1339.756)"/>
          </g>
          <g id="グループ_3540" data-name="グループ 3540" transform="translate(25.825)">
            <path id="パス_4879" data-name="パス 4879" d="M894.785,1216.314s5.056,2.708,7.368,2.475c3.252-.327,6.848-10.238,7.1-10.92s.953-4.456,1.957-5.557a12.556,12.556,0,0,0,1.777-3.277.631.631,0,0,1,.768-.385c.275.09.48.35.2,1.031-.319.788-.7,1.755-.968,2.43a.223.223,0,0,0,.33.275c.422-.3.954-.584,1.3-.389.652.367,1,2.831-.05,4.561s-2.211,1.324-2.563,2.163-3.266,11.734-4.463,13.618c-1.722,2.71-12.849,3.017-14.656,2.965S894.785,1216.314,894.785,1216.314Z" transform="translate(-892.167 -1198.386)" fill="#fff"/>
            <path id="パス_4880" data-name="パス 4880" d="M890.424,1222.461c-.2,0-.358,0-.484-.006a.641.641,0,0,1-.539-.3c-.894-1.381,1.9-8.234,2.224-9.011l.1-.241.229.123c.05.027,5.019,2.668,7.233,2.449,2.259-.227,5.123-5.925,6.889-10.734l.012-.034c.058-.158.148-.518.262-.973.355-1.418.949-3.791,1.742-4.661a12.454,12.454,0,0,0,1.732-3.2.864.864,0,0,1,1.061-.522.689.689,0,0,1,.428.364,1.233,1.233,0,0,1-.078.98c-.312.77-.689,1.723-.955,2.4.642-.454,1.151-.58,1.515-.376a1.618,1.618,0,0,1,.6,1,5.361,5.361,0,0,1-.561,3.892,3.67,3.67,0,0,1-1.855,1.6c-.38.171-.583.271-.691.529-.1.23-.422,1.345-.833,2.756-1.107,3.795-2.779,9.529-3.648,10.9C903.131,1222.009,893.29,1222.461,890.424,1222.461Zm1.538-8.9c-1.17,2.871-2.722,7.476-2.166,8.336a.172.172,0,0,0,.157.089c2.735.078,12.9-.41,14.45-2.855.834-1.312,2.561-7.237,3.594-10.776.448-1.537.744-2.552.851-2.806a1.532,1.532,0,0,1,.933-.777,3.216,3.216,0,0,0,1.646-1.417,4.934,4.934,0,0,0,.508-3.528,1.184,1.184,0,0,0-.372-.7c-.189-.107-.57.03-1.047.375a.448.448,0,0,1-.541-.009.466.466,0,0,1-.146-.544c.267-.677.651-1.648.969-2.432.149-.369.119-.537.088-.6a.216.216,0,0,0-.147-.114.4.4,0,0,0-.476.247,12.539,12.539,0,0,1-1.822,3.35c-.713.782-1.289,3.083-1.633,4.458-.122.488-.21.84-.277,1.022l-.012.033c-.922,2.511-4.172,10.727-7.285,11.04C897.137,1216.152,893,1214.093,891.962,1213.558Z" transform="translate(-889.225 -1195.302)"/>
          </g>
          <g id="グループ_3543" data-name="グループ 3543" transform="translate(9.297 0.418)">
            <g id="グループ_3541" data-name="グループ 3541" transform="translate(2.448 6.998)">
              <path id="パス_4881" data-name="パス 4881" d="M694.209,1310.339l.941-7.262,4.14,2.037.258,5.047a2.124,2.124,0,0,1-.833,1.591,3.1,3.1,0,0,1-3.586.009l-.253-.164A1.473,1.473,0,0,1,694.209,1310.339Z" transform="translate(-693.973 -1302.841)" fill="#fff"/>
              <path id="パス_4882" data-name="パス 4882" d="M693.908,1309.481a3.668,3.668,0,0,1-1.993-.609l-.253-.164a1.7,1.7,0,0,1-.774-1.458.225.225,0,0,1,0-.027l.941-7.261a.236.236,0,0,1,.122-.178.234.234,0,0,1,.215,0l4.141,2.037a.236.236,0,0,1,.131.2l.258,5.047a2.357,2.357,0,0,1-.932,1.794A2.969,2.969,0,0,1,693.908,1309.481Zm-2.548-2.213a1.232,1.232,0,0,0,.56,1.044l.253.164a2.88,2.88,0,0,0,3.311,0,1.905,1.905,0,0,0,.744-1.407l-.25-4.9-3.721-1.83Z" transform="translate(-690.888 -1299.755)"/>
            </g>
            <path id="パス_4883" data-name="パス 4883" d="M664.953,1201.188c-1.22.069.444,1.144-4.187.346-1.844-.318-.707,1.666-1.185,1.585-1.768-.3-1.707-.291-2.518.024-.537.209-.782,1.272-.593,2.023.251.991,1.11,1.157,2.084,3.2.684,1.436.659,2.358,1.282,2.508s.985-.713,1.685-.6c.906.146.9,1.689,1.83,2.223.584.337,1.859.378,3.76-.832a.763.763,0,0,0,.3-.926c-.174-.436-.4-.986-.653-1.493-1.223-2.417-2.185-2.886-1.933-3.577.386-1.059,2.344-.7,2.565-1.56C667.617,1203.217,666.623,1201.094,664.953,1201.188Z" transform="translate(-656.406 -1201.185)"/>
            <g id="グループ_3542" data-name="グループ 3542" transform="translate(4.568 3.031)">
              <path id="パス_4884" data-name="パス 4884" d="M724.065,1248.789l.42.609a7.526,7.526,0,0,1,.532.9c.293.584.806,1.585,1.135,2.123.484.791,3.031-.535,3.031-.535l.1-.534.3-.162a.375.375,0,0,0,.142-.13.362.362,0,0,0-.032-.425,13.032,13.032,0,0,1-2.178-3.4A3.921,3.921,0,0,0,724.065,1248.789Z" transform="translate(-723.829 -1246.984)" fill="#fff"/>
              <path id="パス_4885" data-name="パス 4885" d="M723.682,1249.8a.887.887,0,0,1-.816-.36c-.337-.552-.862-1.578-1.145-2.14a7.342,7.342,0,0,0-.515-.87l-.42-.609a.236.236,0,0,1,.007-.278,4.124,4.124,0,0,1,3.667-1.641.235.235,0,0,1,.188.151,12.941,12.941,0,0,0,2.136,3.325.6.6,0,0,1,.054.7.61.61,0,0,1-.23.215l-.2.109-.081.425a.236.236,0,0,1-.123.165A6.819,6.819,0,0,1,723.682,1249.8Zm-2.407-4.1.32.464a7.844,7.844,0,0,1,.548.926c.279.556.8,1.569,1.126,2.106.232.38,1.636-.075,2.62-.569l.081-.421a.236.236,0,0,1,.118-.162l.3-.162a.147.147,0,0,0,.055-.046.125.125,0,0,0-.01-.149,13.5,13.5,0,0,1-2.165-3.327A3.669,3.669,0,0,0,721.275,1245.7Z" transform="translate(-720.745 -1243.881)"/>
            </g>
            <path id="パス_4886" data-name="パス 4886" d="M712.006,1287.21s-1.007-1.465-1.573-.862a.9.9,0,1,0,1.573.862Z" transform="translate(-706.459 -1280.167)" fill="#fff"/>
          </g>
          <path id="パス_4887" data-name="パス 4887" d="M528.674,1401.818c.146,1.871.019,7.739-.932,9.558a16.679,16.679,0,0,0-2.3,8.081c-.022.307,15.566,7.313,17.509,3.5a.384.384,0,0,0,.028-.286c-.17-.565-.744-3.033.387-7.805a26.921,26.921,0,0,1,4.645-9.5.349.349,0,0,0,.019-.029,7.657,7.657,0,0,1,5.128-3.286.376.376,0,0,0,.211-.125,18.924,18.924,0,0,0,3.895-8.6.378.378,0,0,0-.208-.4,30.4,30.4,0,0,0-7.314-2.584c-3.116-.454-1.881.247-4.106-.5a10.475,10.475,0,0,1-1.445-.963c-1.3-.952-4.186.473-6.931-.62a1.54,1.54,0,0,0-1.006-.04,15.711,15.711,0,0,1-4.029.587C526.9,1388.807,528.524,1399.9,528.674,1401.818Z" transform="translate(-525.441 -1374.459)"/>
          <path id="パス_4888" data-name="パス 4888" d="M590.682,1472.6a.236.236,0,0,1-.2-.358,17.079,17.079,0,0,0,2.568-7.174,21.76,21.76,0,0,1,3.58-9.457.236.236,0,0,1,.379.281,21.257,21.257,0,0,0-3.49,9.23,17.525,17.525,0,0,1-2.633,7.365A.235.235,0,0,1,590.682,1472.6Z" transform="translate(-585.832 -1437.039)" fill="#fff"/>
        </g>
      </g>
    </g>
  </g>
</svg>
