<svg xmlns="http://www.w3.org/2000/svg" width="130" height="130" viewBox="0 0 130 130">
  <g id="グループ_5632" data-name="グループ 5632" transform="translate(-2233.636 -3160.636)">
    <g id="Singing_up_for_a_course" data-name="Singing up for a course" transform="translate(2233.636 3160.636)">
      <path id="パス_10935" data-name="パス 10935" d="M1411.959,187c-4.225-.007-42.775.581-63.84,32.309-11.213,16.889-18.737,44.506-7.745,59.554,3.246,4.444,4.947,3.466,22.3,13.984,23.816,14.438,23.7,18.155,33.563,21.459,12.834,4.3,31.8,4.291,46-6.269,16.118-11.983,18.5-31.895,20.889-51.838,2.343-19.572,4.716-39.4-7.745-54.008C1442.46,187.048,1421.7,187.015,1411.959,187Z" transform="translate(-1335 -187)" fill="#caddff"/>
      <g id="グループ_5595" data-name="グループ 5595" transform="translate(41.831 27.333)">
        <g id="グループ_5577" data-name="グループ 5577" transform="translate(9.649 0)">
          <path id="パス_10936" data-name="パス 10936" d="M1781.5,409.469c-1.473-1.2-3.019-2.325-4.6-3.4-3.214-2.172-6.6-4.113-10.023-5.994-1.8-.99-3.67-1.885-5.516-2.806s-3.718-1.844-5.58-2.762q-2.552-1.257-5.1-2.52c-3.861-13.052-8.054-27.849-7.221-27.849l63.3-1.787a2.21,2.21,0,0,1,2.228,2.7l-7.671,43.74a3.364,3.364,0,0,1-3.176,2.7h-14.087C1783.218,410.8,1782.337,410.156,1781.5,409.469Z" transform="translate(-1730.867 -362.224)" fill="#5479f7"/>
          <g id="グループ_5575" data-name="グループ 5575" transform="translate(0.07 0.285)">
            <path id="パス_10937" data-name="パス 10937" d="M1674.836,363.332h63.8a2.083,2.083,0,0,1,2.1,2.55l-7.671,43.74a3.17,3.17,0,0,1-3,2.55h-63.8a2.083,2.083,0,0,1-2.1-2.55l7.671-43.74A3.17,3.17,0,0,1,1674.836,363.332Z" transform="translate(-1664.129 -363.332)" fill="#99b9ff"/>
          </g>
          <g id="グループ_5576" data-name="グループ 5576">
            <path id="パス_10938" data-name="パス 10938" d="M2023.463,369.539a.238.238,0,0,1-.041,0,.235.235,0,0,1-.191-.272l.822-4.686a1.954,1.954,0,0,0-.39-1.625,1.89,1.89,0,0,0-1.481-.649h-21.611a.235.235,0,0,1,0-.47h21.611a2.349,2.349,0,0,1,1.84.817,2.413,2.413,0,0,1,.493,2.008l-.822,4.686A.235.235,0,0,1,2023.463,369.539Z" transform="translate(-1947.607 -361.782)"/>
            <path id="パス_10939" data-name="パス 10939" d="M1773.727,362.03h0l-7.157-.051a.235.235,0,0,1,0-.47h0l7.156.051a.235.235,0,0,1,0,.47Z" transform="translate(-1750.256 -361.51)"/>
            <path id="パス_10940" data-name="パス 10940" d="M1663.914,546.45a.244.244,0,0,1-.041,0,.235.235,0,0,1-.191-.272l3.48-19.842a.235.235,0,0,1,.463.081l-3.48,19.842A.235.235,0,0,1,1663.914,546.45Z" transform="translate(-1663.679 -500.353)"/>
          </g>
        </g>
        <path id="パス_10941" data-name="パス 10941" d="M1603.865,675.317h74.194a1.869,1.869,0,0,1,0,3.734h-74.194a1.869,1.869,0,0,1,0-3.734Z" transform="translate(-1602.072 -626.166)" fill="#5479f7"/>
        <g id="グループ_5583" data-name="グループ 5583" transform="translate(11.88 1.972)">
          <g id="グループ_5578" data-name="グループ 5578">
            <path id="パス_10942" data-name="パス 10942" d="M1688.043,374.1h60.294a1.948,1.948,0,0,1,1.987,2.374l-7.25,40.72a2.983,2.983,0,0,1-2.832,2.374h-60.294a1.947,1.947,0,0,1-1.987-2.374l7.25-40.72A2.983,2.983,0,0,1,1688.043,374.1Z" transform="translate(-1677.924 -374.1)" fill="#fff"/>
          </g>
          <path id="パス_10943" data-name="パス 10943" d="M1787.552,378.281l.315-1.765a1.945,1.945,0,0,0-1.987-2.37h-60.294a2.98,2.98,0,0,0-2.832,2.37l-.315,1.765Z" transform="translate(-1715.467 -374.139)" fill="#caddff"/>
          <g id="グループ_5582" data-name="グループ 5582" transform="translate(62.137 0.926)">
            <g id="グループ_5579" data-name="グループ 5579">
              <path id="パス_10944" data-name="パス 10944" d="M2076.82,381.1a1.088,1.088,0,1,1-1.088-1.088A1.088,1.088,0,0,1,2076.82,381.1Z" transform="translate(-2074.644 -380.013)" fill="#99b9ff"/>
            </g>
            <g id="グループ_5580" data-name="グループ 5580" transform="translate(3.008 0.064)">
              <path id="パス_10945" data-name="パス 10945" d="M2096.023,381.509a1.088,1.088,0,1,1-1.088-1.088A1.088,1.088,0,0,1,2096.023,381.509Z" transform="translate(-2093.847 -380.421)" fill="#99b9ff"/>
            </g>
            <g id="グループ_5581" data-name="グループ 5581" transform="translate(5.952 0.064)">
              <path id="パス_10946" data-name="パス 10946" d="M2114.818,381.509a1.088,1.088,0,1,1-1.088-1.088A1.088,1.088,0,0,1,2114.818,381.509Z" transform="translate(-2112.642 -380.421)" fill="#99b9ff"/>
            </g>
          </g>
        </g>
        <g id="グループ_5589" data-name="グループ 5589" transform="translate(44.189 35.753)">
          <g id="グループ_5585" data-name="グループ 5585">
            <path id="パス_10947" data-name="パス 10947" d="M1909.739,596.031H1887.33a3.126,3.126,0,1,1,0-6.253h22.409a3.126,3.126,0,0,1,0,6.253Z" transform="translate(-1884.203 -589.778)" fill="#5479f7"/>
            <g id="グループ_5584" data-name="グループ 5584" transform="translate(6.329 1.611)">
              <path id="パス_10948" data-name="パス 10948" d="M1926.26,602.282a.251.251,0,0,0-.052-.264,1.174,1.174,0,0,0-.386-.194,2.342,2.342,0,0,1-.447-.2.614.614,0,0,1-.309-.731.945.945,0,0,1,.247-.426,1.263,1.263,0,0,1,.464-.293,1.675,1.675,0,0,1,.594-.105,1.131,1.131,0,0,1,.533.115.613.613,0,0,1,.3.323.751.751,0,0,1,.012.474h-.608a.329.329,0,0,0-.044-.315.417.417,0,0,0-.329-.112.681.681,0,0,0-.371.094.414.414,0,0,0-.189.248.218.218,0,0,0,.081.241,1.214,1.214,0,0,0,.378.182,1.323,1.323,0,0,1,.653.387.635.635,0,0,1,.085.575.986.986,0,0,1-.448.6,1.544,1.544,0,0,1-.837.218,1.286,1.286,0,0,1-.587-.125.671.671,0,0,1-.336-.341.775.775,0,0,1-.014-.5h.61q-.129.488.454.488a.685.685,0,0,0,.362-.088A.4.4,0,0,0,1926.26,602.282Z" transform="translate(-1924.613 -600.066)" fill="#fff"/>
              <path id="パス_10949" data-name="パス 10949" d="M1941.193,603.273h-.607l.778-2.949h.607Z" transform="translate(-1938.083 -600.284)" fill="#fff"/>
              <path id="パス_10950" data-name="パス 10950" d="M1951.677,602.683a1.489,1.489,0,0,1-.544.3,2.195,2.195,0,0,1-.693.108,1.089,1.089,0,0,1-.627-.167.772.772,0,0,1-.318-.485,1.6,1.6,0,0,1,.036-.747l.053-.2a2.277,2.277,0,0,1,.351-.765,1.617,1.617,0,0,1,.56-.494,1.487,1.487,0,0,1,.7-.171.982.982,0,0,1,.754.25.844.844,0,0,1,.158.728h-.592a.462.462,0,0,0-.081-.371.456.456,0,0,0-.351-.118.714.714,0,0,0-.533.233,1.578,1.578,0,0,0-.347.693l-.05.188a1.054,1.054,0,0,0-.009.7.453.453,0,0,0,.454.237.833.833,0,0,0,.527-.146l.134-.508h-.553l.118-.448h1.161Z" transform="translate(-1945.573 -600.066)" fill="#fff"/>
              <path id="パス_10951" data-name="パス 10951" d="M1968.5,603.273h-.608l-.671-1.94-.512,1.94h-.608l.778-2.949h.608l.672,1.944.513-1.944h.605Z" transform="translate(-1959.6 -600.284)" fill="#fff"/>
              <path id="パス_10952" data-name="パス 10952" d="M1995.426,600.324l-.512,1.942a1.355,1.355,0,0,1-.5.766,1.464,1.464,0,0,1-.9.282.93.93,0,0,1-.748-.273.8.8,0,0,1-.112-.751l.518-1.965h.608l-.513,1.946a.483.483,0,0,0,.027.422.417.417,0,0,0,.349.133.644.644,0,0,0,.663-.539l.518-1.963Z" transform="translate(-1981.957 -600.284)" fill="#fff"/>
              <path id="パス_10953" data-name="パス 10953" d="M2009.7,602.234l-.274,1.039h-.608l.778-2.949h1.15a1.132,1.132,0,0,1,.552.122.614.614,0,0,1,.3.345.87.87,0,0,1,0,.509,1.164,1.164,0,0,1-.477.684,1.527,1.527,0,0,1-.887.25Zm.13-.492h.543a.659.659,0,0,0,.4-.113.564.564,0,0,0,.212-.324.412.412,0,0,0-.035-.35.366.366,0,0,0-.316-.138h-.557Z" transform="translate(-1995.633 -600.284)" fill="#fff"/>
            </g>
          </g>
          <g id="グループ_5588" data-name="グループ 5588" transform="translate(24.576 3.003)">
            <g id="グループ_5586" data-name="グループ 5586">
              <path id="パス_10954" data-name="パス 10954" d="M2041.836,611.424a.233.233,0,0,1-.143-.049l-.494-.38a.235.235,0,0,1,.287-.372l.494.38a.235.235,0,0,1-.143.421Z" transform="translate(-2041.108 -610.319)" fill="#caddff"/>
              <path id="パス_10955" data-name="パス 10955" d="M2052.869,619.924a.234.234,0,0,1-.143-.049l-.494-.38a.235.235,0,1,1,.287-.372l.494.38a.235.235,0,0,1-.144.421Z" transform="translate(-2050.412 -617.487)" fill="#caddff"/>
              <path id="パス_10956" data-name="パス 10956" d="M2042.965,620.939a.235.235,0,0,1-.186-.379l.381-.493a.235.235,0,0,1,.372.287l-.381.493A.234.234,0,0,1,2042.965,620.939Z" transform="translate(-2042.476 -618.248)" fill="#caddff"/>
              <path id="パス_10957" data-name="パス 10957" d="M2051.474,609.912a.235.235,0,0,1-.186-.378l.381-.494a.235.235,0,1,1,.372.287l-.381.494A.236.236,0,0,1,2051.474,609.912Z" transform="translate(-2049.652 -608.949)" fill="#caddff"/>
            </g>
            <g id="グループ_5587" data-name="グループ 5587" transform="translate(1.141 1.124)">
              <path id="パス_10958" data-name="パス 10958" d="M2052.056,621.718a2.091,2.091,0,0,0-1.126.315,2.739,2.739,0,0,0-1.036,1.294v-5.7Z" transform="translate(-2049.659 -617.39)" fill="#caddff"/>
              <path id="パス_10959" data-name="パス 10959" d="M2048.629,622.3a.225.225,0,0,1-.039,0,.235.235,0,0,1-.2-.232v-5.7a.235.235,0,0,1,.443-.11l2.161,4.093a.235.235,0,0,1-.208.345,1.865,1.865,0,0,0-1,.279,2.5,2.5,0,0,0-.938,1.171A.234.234,0,0,1,2048.629,622.3Zm.235-4.989v3.875a2.652,2.652,0,0,1,.677-.614,2.3,2.3,0,0,1,.875-.323Z" transform="translate(-2048.394 -616.124)"/>
            </g>
          </g>
        </g>
        <g id="グループ_5593" data-name="グループ 5593" transform="translate(18.55 7.312)">
          <g id="グループ_5590" data-name="グループ 5590" transform="translate(0 0)">
            <ellipse id="楕円形_248" data-name="楕円形 248" cx="4.24" cy="3.556" rx="4.24" ry="3.556" transform="matrix(0.738, -0.675, 0.675, 0.738, 0, 5.727)" fill="#5479f7"/>
          </g>
          <g id="グループ_5592" data-name="グループ 5592" transform="translate(2.882 3.48)">
            <path id="パス_10960" data-name="パス 10960" d="M1768.023,441.75l-.284,1.612h-.191l.268-1.519Z" transform="translate(-1763.063 -439.974)" fill="#fff"/>
            <g id="グループ_5591" data-name="グループ 5591">
              <path id="パス_10961" data-name="パス 10961" d="M1745.083,443.739a.108.108,0,0,1-.023.007.078.078,0,0,1-.021-.007l-1.67-.79,0,.015-.137.779c-.006.034-.01.064.018.08l1.577.893a.093.093,0,0,0,.063.008.105.105,0,0,0,.066-.008l1.893-.893c.032-.015.04-.046.046-.08l.137-.779,0-.015Z" transform="translate(-1742.549 -440.986)" fill="#fff"/>
              <path id="パス_10962" data-name="パス 10962" d="M1766.569,449.468l-.387.639a.025.025,0,0,0,0,.024l.19.355a.02.02,0,0,0,.018.01.029.029,0,0,0,.021-.01l.315-.355a.026.026,0,0,0,.007-.024Z" transform="translate(-1761.907 -446.484)" fill="#fff"/>
              <path id="パス_10963" data-name="パス 10963" d="M1744.417,431.58l-2.471-1.159a.092.092,0,0,0-.075,0l-2.895,1.159c-.01,0-.029.013-.031.022l-.033.185c0,.01.016.018.024.022l2.48,1.159a.105.105,0,0,0,.08,0l2.878-1.159a.026.026,0,0,0,.014-.022l.033-.185C1744.424,431.593,1744.425,431.584,1744.417,431.58Z" transform="translate(-1738.912 -430.413)" fill="#fff"/>
            </g>
          </g>
        </g>
        <g id="グループ_5594" data-name="グループ 5594" transform="translate(18.67 11.207)">
          <path id="パス_10964" data-name="パス 10964" d="M1844.248,459.7l-31.858-.114a.7.7,0,0,1-.721-.813.962.962,0,0,1,.938-.807l31.858.114a.7.7,0,0,1,.721.813A.962.962,0,0,1,1844.248,459.7Z" transform="translate(-1797.504 -454.065)" fill="#caddff"/>
          <path id="パス_10965" data-name="パス 10965" d="M1824.236,434.8l-31.858-.114a.7.7,0,0,1-.722-.813.962.962,0,0,1,.938-.807l31.858.114a.7.7,0,0,1,.721.813A.963.963,0,0,1,1824.236,434.8Z" transform="translate(-1780.627 -433.063)" fill="#caddff"/>
          <path id="パス_10966" data-name="パス 10966" d="M1753.858,484.6,1722,484.486a.7.7,0,0,1-.721-.813.962.962,0,0,1,.938-.807l31.858.114a.7.7,0,0,1,.721.813A.962.962,0,0,1,1753.858,484.6Z" transform="translate(-1721.272 -475.065)" fill="#caddff"/>
          <path id="パス_10967" data-name="パス 10967" d="M1824.236,510.534l-31.858-.114a.7.7,0,0,1-.722-.813.962.962,0,0,1,.938-.807l31.858.114a.7.7,0,0,1,.721.813A.963.963,0,0,1,1824.236,510.534Z" transform="translate(-1780.627 -496.938)" fill="#caddff"/>
        </g>
      </g>
      <g id="グループ_5617" data-name="グループ 5617" transform="translate(9.472 30.416)">
        <g id="グループ_5596" data-name="グループ 5596" transform="translate(0 20.853)">
          <path id="パス_10968" data-name="パス 10968" d="M1436.313,554.1l-26.495-.263a9.612,9.612,0,0,1-9.729-7.889l-4.536-25.734a4.99,4.99,0,0,1,4.88-5.88h17.288Z" transform="translate(-1395.476 -514.335)" fill="#99b9ff"/>
          <path id="パス_10969" data-name="パス 10969" d="M1531.816,798.029h-4.359V766.254l4.359.166Z" transform="translate(-1506.786 -726.797)" fill="#99b9ff"/>
          <path id="パス_10970" data-name="パス 10970" d="M1472.638,935.184h-21.51a4.588,4.588,0,0,0-4.588,4.588v.951h30.685v-.951A4.588,4.588,0,0,0,1472.638,935.184Z" transform="translate(-1438.542 -869.268)" fill="#99b9ff"/>
          <path id="パス_10971" data-name="パス 10971" d="M1428.632,572.9a.235.235,0,0,1-.231-.194l-2.2-12.492a.235.235,0,1,1,.463-.081l2.2,12.492a.235.235,0,0,1-.191.272A.25.25,0,0,1,1428.632,572.9Z" transform="translate(-1421.387 -552.793)" fill="#caddff"/>
        </g>
        <g id="グループ_5613" data-name="グループ 5613" transform="translate(3.348)">
          <path id="パス_10972" data-name="パス 10972" d="M1445.676,381.307c1.741-.154,2.958,1.433,3.932,3.837.8,1.962.483,3.6-.591,4.672-3.475,3.481-7.245,13.525-12.4,16.58-4.112,2.437-12.722,1.986-16.7-3.067-3.781-4.8-4.356-11.764-.078-14.9,3.846-2.815,7.428,2.009,11.51-.608,4.024-2.58,3.96-4.72,6.341-5.979C1440.247,380.495,1440.742,381.743,1445.676,381.307Z" transform="translate(-1416.853 -381.197)"/>
          <g id="グループ_5601" data-name="グループ 5601" transform="translate(10.463 44.57)">
            <path id="パス_10973" data-name="パス 10973" d="M1740.071,870.146c-.036.151,1.737,8.267,1.737,8.267l-4.077-.682-1.228-6.862Z" transform="translate(-1696.901 -838.133)" fill="#5479f7"/>
            <g id="グループ_5598" data-name="グループ 5598" transform="translate(38.301 36.816)">
              <g id="グループ_5597" data-name="グループ 5597">
                <path id="パス_10974" data-name="パス 10974" d="M1733.9,902.889a1.762,1.762,0,0,1,1.06-.434,1.694,1.694,0,0,1,1.589,1.027,41.577,41.577,0,0,1,3.1,9.526c.186,1.264-.768,2.293-2.254,1.464a18.184,18.184,0,0,1-7.585-9.078,1.667,1.667,0,0,1,.2-1.582,7.949,7.949,0,0,1,1.071-1.208,1.115,1.115,0,0,1,1.452-.023l.383.315A.768.768,0,0,0,1733.9,902.889Z" transform="translate(-1729.463 -902.086)" fill="#fff"/>
                <path id="パス_10975" data-name="パス 10975" d="M1737.13,913.729a2.3,2.3,0,0,1-1.119-.33,18.36,18.36,0,0,1-7.69-9.2,1.894,1.894,0,0,1,.232-1.8,8.073,8.073,0,0,1,1.1-1.244,1.342,1.342,0,0,1,1.758-.03l.383.315a.534.534,0,0,0,.683-.005,2,2,0,0,1,1.2-.489,1.941,1.941,0,0,1,1.814,1.165,41.574,41.574,0,0,1,3.116,9.588,1.8,1.8,0,0,1-.651,1.783A1.448,1.448,0,0,1,1737.13,913.729Zm-6.58-12.449a.865.865,0,0,0-.579.222,7.586,7.586,0,0,0-1.038,1.172,1.426,1.426,0,0,0-.173,1.359,17.871,17.871,0,0,0,7.48,8.957,1.363,1.363,0,0,0,1.455.1,1.339,1.339,0,0,0,.453-1.327,41.079,41.079,0,0,0-3.08-9.464,1.469,1.469,0,0,0-1.365-.889,1.512,1.512,0,0,0-.918.379,1,1,0,0,1-1.284.009l-.383-.315A.89.89,0,0,0,1730.55,901.279Zm2.083.332h0Z" transform="translate(-1728.192 -900.809)"/>
              </g>
              <path id="パス_10976" data-name="パス 10976" d="M1744.284,926.786c-.325,0-3.788-.2-7.968-8.464a.235.235,0,1,1,.419-.212c4.165,8.231,7.521,8.207,7.552,8.206a.235.235,0,0,1,.017.47Z" transform="translate(-1735.022 -915.291)"/>
              <path id="パス_10977" data-name="パス 10977" d="M1769.4,938.607a.235.235,0,0,1-.086-.454l1.932-.763a.235.235,0,0,1,.173.437l-1.933.762A.236.236,0,0,1,1769.4,938.607Z" transform="translate(-1762.744 -931.648)"/>
              <path id="パス_10978" data-name="パス 10978" d="M1765.073,928.511a.235.235,0,0,1-.085-.454l2.267-.882a.235.235,0,1,1,.17.438l-2.267.882A.234.234,0,0,1,1765.073,928.511Z" transform="translate(-1759.098 -923.032)"/>
            </g>
            <path id="パス_10979" data-name="パス 10979" d="M1622.237,870.006a17.852,17.852,0,0,0-.433,2.62c-.294,2.675,2.7,5.152,2.7,5.152l-7.092-.956.271-6.19Z" transform="translate(-1596.463 -838.015)" fill="#5479f7"/>
            <g id="グループ_5600" data-name="グループ 5600" transform="translate(19.897 35.331)">
              <g id="グループ_5599" data-name="グループ 5599">
                <path id="パス_10980" data-name="パス 10980" d="M1614.649,894.288c.416-.137.321-.78.661-1.083a1.5,1.5,0,0,1,1.767-.139,40.89,40.89,0,0,1,8.348,5.432c.933.864.833,2.269-.838,2.57a17.92,17.92,0,0,1-11.555-2.233,1.657,1.657,0,0,1-.829-1.358,20.029,20.029,0,0,1,.094-2.567,1.126,1.126,0,0,1,1.114-.941h.494C1614.275,893.972,1614.3,894.4,1614.649,894.288Z" transform="translate(-1611.96 -892.609)" fill="#fff"/>
                <path id="パス_10981" data-name="パス 10981" d="M1620.84,900.234a18.62,18.62,0,0,1-9.191-2.472,1.881,1.881,0,0,1-.946-1.551,20,20,0,0,1,.1-2.615,1.353,1.353,0,0,1,1.342-1.138h.5a.717.717,0,0,1,.526.254c.093.092.1.092.144.076.111-.037.16-.175.231-.4a1.35,1.35,0,0,1,.347-.638,1.72,1.72,0,0,1,2.029-.174,40.853,40.853,0,0,1,8.4,5.47,1.8,1.8,0,0,1,.608,1.794,1.77,1.77,0,0,1-1.564,1.18A14.37,14.37,0,0,1,1620.84,900.234Zm-8.7-7.306a.885.885,0,0,0-.879.744,19.774,19.774,0,0,0-.092,2.519,1.414,1.414,0,0,0,.712,1.165,17.608,17.608,0,0,0,11.4,2.205,1.374,1.374,0,0,0,1.2-.849,1.341,1.341,0,0,0-.476-1.317,40.4,40.4,0,0,0-8.294-5.4,1.281,1.281,0,0,0-1.5.1.979.979,0,0,0-.213.431.924.924,0,0,1-.531.7.562.562,0,0,1-.621-.188c-.089-.087-.126-.118-.2-.118h-.5Zm1.241.084h0Z" transform="translate(-1610.695 -891.333)"/>
              </g>
              <path id="パス_10982" data-name="パス 10982" d="M1628.815,925.7c-1.795,0-4.506-.488-8.442-2.251a.235.235,0,0,1,.192-.429c8.367,3.748,10.959,1.6,10.985,1.576a.235.235,0,1,1,.31.353A4.737,4.737,0,0,1,1628.815,925.7Z" transform="translate(-1618.74 -918.04)"/>
              <path id="パス_10983" data-name="パス 10983" d="M1661.141,911.63a.235.235,0,0,1-.2-.35l1.026-1.821a.235.235,0,0,1,.409.231l-1.026,1.82A.234.234,0,0,1,1661.141,911.63Z" transform="translate(-1653.042 -906.519)"/>
              <path id="パス_10984" data-name="パス 10984" d="M1651.886,906.625a.235.235,0,0,1-.2-.357l1.155-1.9a.235.235,0,0,1,.4.244l-1.155,1.9A.235.235,0,0,1,1651.886,906.625Z" transform="translate(-1645.237 -902.235)"/>
            </g>
            <path id="パス_10985" data-name="パス 10985" d="M1504.989,669.53s24.825-1.077,27.539,1.443c3.681,3.419,10.005,31.877,10.005,31.877l-6.106,1.712s-9.2-23.356-11.48-23.356-23.773-.767-23.773-.767Z" transform="translate(-1498.431 -668.746)"/>
            <path id="パス_10986" data-name="パス 10986" d="M1485.333,665.756s-3.274,9.612-.669,11.365,21.385,1.6,20.734,1.385-1.68,15.738-1.68,21.874l5.913.228s9.423-24.678,8.407-27.433c-1.817-4.93-15.518-6.594-19.994-7.253C1497.124,665.786,1485.333,665.756,1485.333,665.756Z" transform="translate(-1483.657 -665.756)"/>
            <path id="パス_10987" data-name="パス 10987" d="M1624,693.982a.235.235,0,0,1-.224-.307q.319-1,.631-1.957c1.652-5.105,3.079-9.514,2.492-11.286-1.248-3.765-10.621-5.215-13.7-5.691a.235.235,0,0,1,.072-.464c5.468.846,12.876,2.389,14.075,6.008.635,1.917-.744,6.18-2.491,11.578q-.311.958-.631,1.956A.235.235,0,0,1,1624,693.982Z" transform="translate(-1592.742 -672.939)" fill="#caddff"/>
          </g>
          <g id="グループ_5609" data-name="グループ 5609" transform="translate(8.549 14.352)">
            <g id="グループ_5603" data-name="グループ 5603">
              <g id="グループ_5602" data-name="グループ 5602" transform="translate(5.406)">
                <path id="パス_10988" data-name="パス 10988" d="M1508.343,475.178s.088-1.584-.891,14.935c0,0,.674,12.783.758,14.224s12.584.815,12.584.815c1.479-6.483,1.317-13.922.286-21.868l2.142-.192.149-4.994a5.022,5.022,0,0,0-3.124-2.921C1517.319,473.861,1512.127,474.284,1508.343,475.178Z" transform="translate(-1507.217 -474.105)" fill="#fff"/>
                <path id="パス_10989" data-name="パス 10989" d="M1513.918,504.249l-.651,0c-5.72-.043-6.524-.615-6.556-1.169-.083-1.426-.751-14.1-.758-14.225a.237.237,0,0,1,0-.026c.411-6.931.634-10.675.754-12.686.06-1.006.095-1.578.115-1.9l.02-.316c0-.012,0-.024,0-.036v-.03h0c.026-.159.109-.235.246-.229a.259.259,0,0,1,.069.015c3.629-.839,8.865-1.32,11.907.042,1.01.364,2.825,1.417,3.263,3.079a.239.239,0,0,1,.008.067l-.149,4.994a.235.235,0,0,1-.214.227l-1.9.17c1.118,8.757,1.013,15.86-.321,21.708a.235.235,0,0,1-.217.182C1519.511,504.114,1516.8,504.249,1513.918,504.249Zm-7.5-15.408c.025.474.675,12.806.757,14.209,0,.028.108.682,6.089.727,2.67.019,5.364-.092,6.071-.125,1.3-5.814,1.375-12.886.242-21.611a.235.235,0,0,1,.212-.264l1.935-.173.142-4.751a4.785,4.785,0,0,0-2.967-2.727l-.017-.007c-2.925-1.315-8.026-.842-11.584-.024C1507.258,474.784,1507.086,477.628,1506.422,488.84Z" transform="translate(-1505.952 -472.831)"/>
              </g>
              <path id="パス_10990" data-name="パス 10990" d="M1592.795,511.37l-.543-26.346a3.026,3.026,0,0,0-1.648-2.416,5.237,5.237,0,0,0-1.662-.685s-.291-.165-.356,1.432c-.031.778.959,9.427,1.136,16.839.124,5.188-.65,9.72-.6,10.717,0,.074,3.418.757,3.648.528Z" transform="translate(-1570.237 -480.495)" fill="#5479f7"/>
              <path id="パス_10991" data-name="パス 10991" d="M1559.566,532.369a.235.235,0,0,1-.11-.443c2.951-1.555,3.147-5.938,3.149-5.982a.238.238,0,0,1,.244-.226.235.235,0,0,1,.226.243c-.007.191-.21,4.7-3.4,6.381A.236.236,0,0,1,1559.566,532.369Z" transform="translate(-1545.564 -517.434)"/>
              <path id="パス_10992" data-name="パス 10992" d="M1480.082,478.2a5.689,5.689,0,0,0-4.948,2.3,10.713,10.713,0,0,0-1.8,8.037c.616,4.09,3.187,8.748,3.069,10.018a23.51,23.51,0,0,1-3.187,8.93c-2.039,3.234-1.951,10.366-1.553,10.6,2.684,1.564,7.084,4.737,12.325,5.116a1.666,1.666,0,0,0,1.9-1.215,151.665,151.665,0,0,0,2.285-20.737c.2-7.383-5.062-18.593-5.294-19.556A5.915,5.915,0,0,0,1480.082,478.2Z" transform="translate(-1471.438 -477.348)" fill="#5479f7"/>
            </g>
            <path id="パス_10993" data-name="パス 10993" d="M1523.432,604.334c2.452,5.608,6.836,6.941,14.028,7.9l-.767,2.122c-10.746,1.341-12.768-.784-17.112-6.474Z" transform="translate(-1512.04 -583.737)" fill="#5479f7"/>
            <g id="グループ_5606" data-name="グループ 5606" transform="translate(21.594 10.777)">
              <g id="グループ_5604" data-name="グループ 5604">
                <path id="パス_10994" data-name="パス 10994" d="M1609.491,541.639c.549,4.639,7.8,11.518,11.7,13.032l-2.616,1.973c-3.371.122-7.755-3.763-9.269-5.139Z" transform="translate(-1609.307 -541.639)" fill="#5479f7"/>
              </g>
              <g id="グループ_5605" data-name="グループ 5605" transform="translate(7.089 11.716)">
                <path id="パス_10995" data-name="パス 10995" d="M1656.181,619.6a.856.856,0,0,1,.468-.419,3.3,3.3,0,0,0,.427-.195l1.9-1.008c.356-.174.865.232,1.234.353,1.115.366,3.422,1.228,3.232,2.038-.205.874-2.188.46-2.892.284-.161-.04-1.618.487-2.079.522a1.5,1.5,0,0,1-1.095-.277,1.012,1.012,0,0,0-.471-.109.866.866,0,0,1-.676-.317l0,0a.736.736,0,0,1-.081-.8Z" transform="translate(-1655.829 -617.702)" fill="#fff"/>
                <path id="パス_10996" data-name="パス 10996" d="M1657,620.158a1.484,1.484,0,0,1-.862-.24c-.041-.024-.084-.048-.131-.073a.776.776,0,0,0-.364-.082,1.1,1.1,0,0,1-.858-.4.975.975,0,0,1-.11-1.054l.037-.073a1.086,1.086,0,0,1,.6-.534,3.023,3.023,0,0,0,.4-.181l1.9-1.008a1.238,1.238,0,0,1,1.088.188,2.681,2.681,0,0,0,.329.149c2.422.8,3.561,1.574,3.387,2.315a.8.8,0,0,1-.375.5,4.482,4.482,0,0,1-2.78-.04c-.109.012-.494.126-.778.21a8.135,8.135,0,0,1-1.249.313C1657.143,620.155,1657.067,620.158,1657,620.158Zm-1.869-1.713-.037.073a.5.5,0,0,0,.055.541.634.634,0,0,0,.5.234,1.248,1.248,0,0,1,.579.136c.052.027.1.054.146.081a1.143,1.143,0,0,0,.822.17,8.53,8.53,0,0,0,1.151-.295c.7-.208.876-.253,1-.221a4.23,4.23,0,0,0,2.444.1.326.326,0,0,0,.162-.21c.081-.347-.838-1.026-3.076-1.762a2.98,2.98,0,0,1-.393-.175c-.231-.116-.519-.261-.664-.19l-1.892,1a3.476,3.476,0,0,1-.458.208A.619.619,0,0,0,1655.128,618.445Z" transform="translate(-1654.566 -616.439)"/>
              </g>
            </g>
            <g id="グループ_5607" data-name="グループ 5607" transform="translate(3.38 13.371)">
              <path id="パス_10997" data-name="パス 10997" d="M1495.694,673.215a6.731,6.731,0,0,1-2.532-.526.235.235,0,1,1,.176-.436c4.822,1.947,7.281-2.442,7.383-2.63a.235.235,0,0,1,.413.224C1501.112,669.889,1499.258,673.215,1495.694,673.215Z" transform="translate(-1493.016 -652.069)" fill="#caddff"/>
              <path id="パス_10998" data-name="パス 10998" d="M1611.579,565.859a.235.235,0,0,1-.235-.227l-.258-7.191a.235.235,0,0,1,.47-.017l.258,7.191a.235.235,0,0,1-.226.243Z" transform="translate(-1592.593 -558.199)" fill="#caddff"/>
              <path id="パス_10999" data-name="パス 10999" d="M1523.062,623.83a12.174,12.174,0,0,1-5.727-1.321c-.427-.187-.869-.381-1.369-.581a6.863,6.863,0,0,1-3.4-2.914c-.416-.66-.771-1.363-1.115-2.043-.3-.6-.614-1.216-.964-1.795a.235.235,0,0,1,.4-.243c.359.594.675,1.22.981,1.826.338.67.688,1.363,1.093,2a6.42,6.42,0,0,0,3.178,2.729c.506.2.951.4,1.381.587,2.226.974,3.7,1.617,8.463,1.1.39-.042,1.907-.028,2.3-.012a.235.235,0,0,1-.019.469c-.358-.014-1.87-.029-2.226.009A27.847,27.847,0,0,1,1523.062,623.83Z" transform="translate(-1507.723 -605.951)" fill="#caddff"/>
              <path id="パス_11000" data-name="パス 11000" d="M1553.091,604.541a.233.233,0,0,1-.107-.026l-1.7-.869-.03-.034a17.259,17.259,0,0,1-2.616-5.448.235.235,0,0,1,.445-.152,17.149,17.149,0,0,0,2.495,5.256l1.619.828a.235.235,0,0,1-.107.444Z" transform="translate(-1539.917 -591.643)" fill="#caddff"/>
            </g>
            <g id="グループ_5608" data-name="グループ 5608" transform="translate(23.36 27.586)">
              <path id="パス_11001" data-name="パス 11001" d="M1622.2,652.12a.856.856,0,0,1,.468-.419,3.321,3.321,0,0,0,.427-.195l1.9-1.008c.356-.174.864.232,1.234.353,1.115.366,3.422,1.228,3.232,2.038-.205.874-2.188.46-2.892.284-.161-.04-1.618.488-2.078.522a1.5,1.5,0,0,1-1.095-.277,1.011,1.011,0,0,0-.471-.109.865.865,0,0,1-.676-.317l0,0a.736.736,0,0,1-.081-.8Z" transform="translate(-1621.844 -650.221)" fill="#fff"/>
              <path id="パス_11002" data-name="パス 11002" d="M1623.013,652.676a1.485,1.485,0,0,1-.862-.24c-.041-.024-.084-.048-.131-.073a.776.776,0,0,0-.364-.082,1.1,1.1,0,0,1-.858-.4.975.975,0,0,1-.11-1.054l.037-.073a1.085,1.085,0,0,1,.6-.534,3.039,3.039,0,0,0,.4-.181l1.9-1.008a1.237,1.237,0,0,1,1.088.189,2.674,2.674,0,0,0,.329.149c2.421.8,3.561,1.574,3.387,2.315a.8.8,0,0,1-.375.5,4.483,4.483,0,0,1-2.78-.04c-.109.012-.494.126-.778.21a8.141,8.141,0,0,1-1.249.313C1623.159,652.673,1623.083,652.676,1623.013,652.676Zm-1.869-1.713-.037.073a.5.5,0,0,0,.055.542.633.633,0,0,0,.5.233,1.253,1.253,0,0,1,.579.136c.052.027.1.054.145.081a1.142,1.142,0,0,0,.822.17,8.556,8.556,0,0,0,1.151-.294c.7-.208.876-.253,1-.221a4.229,4.229,0,0,0,2.444.1.327.327,0,0,0,.162-.211c.081-.347-.838-1.026-3.077-1.761a3,3,0,0,1-.393-.175c-.231-.116-.519-.261-.664-.19l-1.893,1a3.494,3.494,0,0,1-.458.208A.619.619,0,0,0,1621.144,650.963Z" transform="translate(-1620.582 -648.957)"/>
            </g>
          </g>
          <g id="グループ_5612" data-name="グループ 5612" transform="translate(19.995 6.61)">
            <g id="グループ_5610" data-name="グループ 5610">
              <path id="パス_11003" data-name="パス 11003" d="M1556.788,430.042a.458.458,0,0,0,.386-.551,28.517,28.517,0,0,1-.275-4.31c-.577.846-1.778-.216-3.488-.283a1.424,1.424,0,0,0-1.562,1.057.2.2,0,0,1-.355.049c-.25-.386-.674-.714-1.307-.081-.7.7-.115,2.335.522,2.87-.155.176-2.585,2.8-4.45,4.766a.9.9,0,0,0,.11,1.339l1.658,1.258a3.1,3.1,0,0,0,3.547.138l.256-.165a.5.5,0,0,0,.094-.77l-.5-.532a1.415,1.415,0,0,1-.072-1.606l1.025-1.737a4.643,4.643,0,0,0,.807.8,1.316,1.316,0,0,0,1.706-.138,4.859,4.859,0,0,0,1.332-2.026Z" transform="translate(-1545.776 -424.661)" fill="#fff"/>
              <path id="パス_11004" data-name="パス 11004" d="M1548.635,435.754a3.33,3.33,0,0,1-2.015-.675l-1.658-1.258a1.137,1.137,0,0,1-.139-1.687c1.638-1.729,3.715-3.965,4.295-4.6a3.248,3.248,0,0,1-.747-1.878,1.507,1.507,0,0,1,.386-1.167,1.158,1.158,0,0,1,.921-.421,1.007,1.007,0,0,1,.707.476,1.654,1.654,0,0,1,1.772-1.15,7.158,7.158,0,0,1,1.869.385c.848.263,1.19.331,1.416,0a.239.239,0,0,1,.266-.094c.178.055.178.093.178.734a20.071,20.071,0,0,0,.255,3.752.689.689,0,0,1-.106.541.7.7,0,0,1-.476.294l-.427.06a5.181,5.181,0,0,1-1.347,1.984,1.553,1.553,0,0,1-2,.16,3.926,3.926,0,0,1-.636-.592l-.858,1.455a1.2,1.2,0,0,0,.049,1.335l.494.523a.739.739,0,0,1-.138,1.129l-.256.164A3.325,3.325,0,0,1,1548.635,435.754Zm.961-11.216a.839.839,0,0,0-.507.287,1.086,1.086,0,0,0-.249.815,2.668,2.668,0,0,0,.755,1.709.235.235,0,0,1,.025.335c-.151.172-2.543,2.752-4.457,4.772a.667.667,0,0,0,.082.99l1.658,1.258a2.871,2.871,0,0,0,3.278.127l.256-.165a.269.269,0,0,0,.05-.411l-.5-.532a1.637,1.637,0,0,1-.111-1.874l1.032-1.75a.235.235,0,0,1,.184-.115.232.232,0,0,1,.2.084,4.277,4.277,0,0,0,.76.758,1.08,1.08,0,0,0,1.409-.115,4.6,4.6,0,0,0,1.269-1.924.235.235,0,0,1,.192-.164l.571-.08a.225.225,0,0,0,.156-.1.214.214,0,0,0,.034-.171,20.408,20.408,0,0,1-.266-3.854V424.4a2.389,2.389,0,0,1-1.529-.171,6.67,6.67,0,0,0-1.748-.364,1.2,1.2,0,0,0-1.328.891.433.433,0,0,1-.777.108.651.651,0,0,0-.4-.328Zm5.929,4.239h0Z" transform="translate(-1544.512 -423.396)"/>
            </g>
            <g id="グループ_5611" data-name="グループ 5611" transform="translate(6.034 6.132)">
              <path id="パス_11005" data-name="パス 11005" d="M1584.537,464.047l.327.457Z" transform="translate(-1584.302 -463.812)" fill="#fff"/>
              <path id="パス_11006" data-name="パス 11006" d="M1583.6,463.473a.235.235,0,0,1-.191-.1l-.327-.457a.235.235,0,0,1,.382-.274l.327.457a.235.235,0,0,1-.191.372Z" transform="translate(-1583.037 -462.547)"/>
            </g>
          </g>
        </g>
        <g id="グループ_5616" data-name="グループ 5616" transform="translate(32.124 26.62)">
          <g id="グループ_5615" data-name="グループ 5615">
            <g id="グループ_5614" data-name="グループ 5614">
              <path id="パス_11007" data-name="パス 11007" d="M1615.648,570.463l5.754-16.958a1.9,1.9,0,0,1,1.592-.854h15.337a.953.953,0,0,1,.917,1.273c-.09.237-.188.472-.267.713l-5.2,15.856h0a1.7,1.7,0,0,1-1.7,1.674h-28.3a1.7,1.7,0,0,1-1.7-1.7Z" transform="translate(-1601.837 -552.417)" fill="#99b9ff"/>
              <path id="パス_11008" data-name="パス 11008" d="M1630.813,571.138h-28.3a1.941,1.941,0,0,1-1.937-1.939.235.235,0,0,1,.235-.235h13.407l5.7-16.8a.229.229,0,0,1,.026-.052,2.12,2.12,0,0,1,1.789-.961h15.338a1.2,1.2,0,0,1,1,.52,1.161,1.161,0,0,1,.134,1.071q-.039.1-.079.2c-.067.171-.13.332-.184.5l-5.192,15.831A1.947,1.947,0,0,1,1630.813,571.138Zm-29.752-1.7a1.471,1.471,0,0,0,1.449,1.235h28.3a1.475,1.475,0,0,0,1.466-1.443.231.231,0,0,1,.023-.1l5.191-15.827c.058-.179.127-.354.193-.523.026-.067.052-.133.078-.2a.691.691,0,0,0-.082-.638.735.735,0,0,0-.615-.317h-15.338a1.653,1.653,0,0,0-1.379.723l-5.744,16.929a.235.235,0,0,1-.222.159Z" transform="translate(-1600.572 -551.152)"/>
            </g>
            <path id="パス_11009" data-name="パス 11009" d="M1761.176,602.742a1.192,1.192,0,1,0,1.521-.959A1.28,1.28,0,0,0,1761.176,602.742Z" transform="translate(-1735.965 -593.815)" fill="#caddff"/>
          </g>
        </g>
        <path id="パス_11010" data-name="パス 11010" d="M1596.5,675.445h-68.1A2.236,2.236,0,0,0,1526.3,678l4.7,44.572h3.4l-2.943-41.832a1.234,1.234,0,0,1,1.173-1.366h58.454a1.846,1.846,0,0,1,1.755,2.044l-2.914,41.416h3.4l4.782-45.461A1.687,1.687,0,0,0,1596.5,675.445Z" transform="translate(-1505.795 -629.358)" fill="#fff"/>
      </g>
      <g id="グループ_5620" data-name="グループ 5620" transform="translate(52.703 18.401)">
        <path id="パス_11011" data-name="パス 11011" d="M1696.647,304.483h-21.875a1.75,1.75,0,0,0-1.653,1.406L1671.512,315a1.147,1.147,0,0,0,1.158,1.406h21.876A1.75,1.75,0,0,0,1696.2,315l1.606-9.109A1.147,1.147,0,0,0,1696.647,304.483Z" transform="translate(-1671.49 -304.483)" fill="#5479f7"/>
        <path id="パス_11012" data-name="パス 11012" d="M1758.244,319.317h-11.591a.5.5,0,0,1-.506-.614l.034-.191a.764.764,0,0,1,.722-.614h11.591a.5.5,0,0,1,.506.614l-.034.191A.764.764,0,0,1,1758.244,319.317Z" transform="translate(-1734.447 -315.798)" fill="#caddff"/>
        <g id="グループ_5618" data-name="グループ 5618" transform="translate(2.382 2.143)">
          <path id="パス_11013" data-name="パス 11013" d="M1688.71,323.5a4.5,4.5,0,0,1,4.248-3.614,2.948,2.948,0,0,1,2.974,3.614,4.5,4.5,0,0,1-4.248,3.614A2.948,2.948,0,0,1,1688.71,323.5Z" transform="translate(-1688.347 -319.614)" fill="#fff"/>
          <path id="パス_11014" data-name="パス 11014" d="M1692.881,353.854a3.029,3.029,0,0,0,2.317.991,4.1,4.1,0,0,0,2.666-.991c-.337.293-.506-1.255-2.615-1.078A3.149,3.149,0,0,0,1692.881,353.854Z" transform="translate(-1691.912 -347.343)" fill="#99b9ff"/>
          <path id="パス_11015" data-name="パス 11015" d="M1689.976,325.9a3.784,3.784,0,0,1-.418-.023,3.192,3.192,0,0,1-2.194-1.187,3.983,3.983,0,0,1,.844-5.281.235.235,0,1,1,.317.346,3.516,3.516,0,0,0-.79,4.645,2.726,2.726,0,0,0,1.875,1.009,3.968,3.968,0,0,0,2.906-.936c1.593-1.305,2.032-3.462.98-4.809a2.819,2.819,0,0,0-2.4-1.025.235.235,0,1,1-.022-.469,3.285,3.285,0,0,1,2.794,1.205c1.208,1.546.736,4-1.052,5.462A4.533,4.533,0,0,1,1689.976,325.9Z" transform="translate(-1686.696 -318.163)"/>
          <ellipse id="楕円形_249" data-name="楕円形 249" cx="1.545" cy="1.295" rx="1.545" ry="1.295" transform="translate(1.916 3.665) rotate(-42.48)" fill="#99b9ff"/>
        </g>
        <g id="グループ_5619" data-name="グループ 5619" transform="translate(10.399 6.488)">
          <path id="パス_11016" data-name="パス 11016" d="M1740.1,346.632l-.592-.088-.175-.551c-.037-.118-.206-.118-.286,0l-.369.551-.624.088c-.134.019-.215.179-.136.272l.364.429-.211.606a.137.137,0,0,0,.2.168l.594-.286.493.286a.188.188,0,0,0,.261-.168l0-.606.516-.429C1740.249,346.812,1740.225,346.651,1740.1,346.632Z" transform="translate(-1737.886 -345.904)" fill="#fff"/>
          <path id="パス_11017" data-name="パス 11017" d="M1758.02,346.632l-.593-.088-.175-.551c-.037-.118-.206-.118-.286,0l-.369.551-.624.088c-.134.019-.214.179-.136.272l.364.429-.21.606a.137.137,0,0,0,.2.168l.594-.286.493.286a.188.188,0,0,0,.261-.168l0-.606.516-.429C1758.171,346.812,1758.147,346.651,1758.02,346.632Z" transform="translate(-1753 -345.904)" fill="#fff"/>
          <path id="パス_11018" data-name="パス 11018" d="M1775.941,346.632l-.592-.088-.175-.551c-.038-.118-.207-.118-.286,0l-.369.551-.623.088c-.134.019-.214.179-.136.272l.364.429-.21.606a.137.137,0,0,0,.2.168l.594-.286.493.286a.188.188,0,0,0,.261-.168l0-.606.516-.429C1776.092,346.812,1776.068,346.651,1775.941,346.632Z" transform="translate(-1768.115 -345.904)" fill="#fff"/>
          <path id="パス_11019" data-name="パス 11019" d="M1793.862,346.632l-.592-.088-.175-.551c-.038-.118-.207-.118-.286,0l-.369.551-.624.088c-.134.019-.214.179-.136.272l.364.429-.21.606a.137.137,0,0,0,.2.168l.594-.286.494.286a.188.188,0,0,0,.261-.168l0-.606.516-.429C1794.013,346.812,1793.99,346.651,1793.862,346.632Z" transform="translate(-1783.229 -345.904)" fill="#fff"/>
          <path id="パス_11020" data-name="パス 11020" d="M1811.783,346.632l-.592-.088-.175-.551c-.038-.118-.206-.118-.286,0l-.369.551-.624.088c-.134.019-.214.179-.136.272l.364.429-.211.606a.137.137,0,0,0,.2.168l.594-.286.493.286a.188.188,0,0,0,.261-.168l0-.606.515-.429C1811.935,346.812,1811.911,346.651,1811.783,346.632Z" transform="translate(-1798.343 -345.904)" fill="#fff"/>
        </g>
      </g>
      <path id="パス_11021" data-name="パス 11021" d="M1733.541,954.6a.236.236,0,0,1-.077-.013c-2.336-.812-5.119-5.837-5.236-6.05a.235.235,0,0,1,.412-.226c.028.051,2.813,5.079,4.979,5.832a.235.235,0,0,1-.077.457Z" transform="translate(-1666.613 -828.965)"/>
      <path id="パス_11022" data-name="パス 11022" d="M1672.62,896.88a.234.234,0,0,1-.167-.07,51.738,51.738,0,0,0-4.888-3.448.235.235,0,0,1,.252-.4,50.511,50.511,0,0,1,4.97,3.513.235.235,0,0,1-.167.4Z" transform="translate(-1615.385 -782.362)"/>
      <path id="パス_11023" data-name="パス 11023" d="M2079.646,780.549a.235.235,0,0,1-.205-.349c0-.006.352-.635.865-1.665a.235.235,0,1,1,.421.209c-.518,1.041-.871,1.678-.875,1.684A.235.235,0,0,1,2079.646,780.549Zm1.685-3.372a.235.235,0,0,1-.213-.334c.264-.57.521-1.147.764-1.713a.235.235,0,0,1,.432.185c-.245.57-.5,1.151-.77,1.725A.235.235,0,0,1,2081.331,777.177Zm1.482-3.459a.233.233,0,0,1-.086-.016.235.235,0,0,1-.133-.3c.233-.593.453-1.183.654-1.755a.235.235,0,1,1,.443.156c-.2.577-.425,1.173-.66,1.771A.235.235,0,0,1,2082.813,773.718Zm1.244-3.551a.24.24,0,0,1-.069-.01.235.235,0,0,1-.156-.293c.187-.615.354-1.221.5-1.8a.235.235,0,1,1,.456.113c-.145.588-.315,1.2-.5,1.825A.235.235,0,0,1,2084.057,770.167Zm.892-3.653a.247.247,0,0,1-.041,0,.235.235,0,0,1-.191-.272c.113-.644.193-1.264.238-1.842a.235.235,0,1,1,.469.036c-.046.594-.128,1.228-.243,1.887A.235.235,0,0,1,2084.949,766.514Z" transform="translate(-1962.816 -673.778)"/>
      <g id="グループ_5621" data-name="グループ 5621" transform="translate(31.223 6.51)">
        <path id="パス_11024" data-name="パス 11024" d="M1562.363,237.13a.235.235,0,0,1-.148-.417c.075-.061,7.7-6.152,20.488-8.148a.235.235,0,1,1,.073.464c-12.661,1.975-20.19,7.988-20.265,8.048A.234.234,0,0,1,1562.363,237.13Z" transform="translate(-1557.776 -228.563)"/>
        <path id="パス_11025" data-name="パス 11025" d="M1535.841,286.968a1.5,1.5,0,1,1,.2-.013A1.527,1.527,0,0,1,1535.841,286.968Zm0-2.531a1.03,1.03,0,1,0,1.022.9A1.028,1.028,0,0,0,1535.846,284.437Z" transform="translate(-1534.343 -275.289)"/>
      </g>
      <g id="グループ_5628" data-name="グループ 5628" transform="translate(88.132 70.319)">
        <g id="グループ_5623" data-name="グループ 5623" transform="translate(7.153 0)">
          <g id="グループ_5622" data-name="グループ 5622">
            <path id="パス_11026" data-name="パス 11026" d="M1949.87,679.763s-8.405-18.423-3.584-42.3c0,0,13.026,10.915,8.33,42.3Z" transform="translate(-1944.569 -637.223)" fill="#caddff"/>
            <path id="パス_11027" data-name="パス 11027" d="M1953.4,678.733h-4.747a.235.235,0,0,1-.214-.137,61.214,61.214,0,0,1-3.617-12.249,77.948,77.948,0,0,1,.017-30.2.235.235,0,0,1,.381-.134c.135.113,3.332,2.843,5.993,9.474,2.446,6.1,4.852,16.779,2.418,33.046A.235.235,0,0,1,1953.4,678.733Zm-4.593-.47h4.391c2.369-16.05,0-26.583-2.419-32.6a26.664,26.664,0,0,0-5.56-9.01,77.524,77.524,0,0,0,.066,29.6A62.349,62.349,0,0,0,1948.81,678.263Z" transform="translate(-1943.355 -635.958)"/>
          </g>
          <path id="パス_11028" data-name="パス 11028" d="M1963.612,693.763h-.013a.235.235,0,0,1-.222-.247c.644-11.78-4.667-36.922-4.721-37.174a.235.235,0,1,1,.459-.1c.054.253,5.378,25.455,4.731,37.3A.235.235,0,0,1,1963.612,693.763Z" transform="translate(-1956.255 -652.909)" fill="#fff"/>
        </g>
        <g id="グループ_5625" data-name="グループ 5625" transform="translate(14.26 12.353)">
          <g id="グループ_5624" data-name="グループ 5624">
            <path id="パス_11029" data-name="パス 11029" d="M1996.724,716.328s-10.829,19.565-4.315,28.031h3.484S2002.856,729.065,1996.724,716.328Z" transform="translate(-1990.075 -716.093)" fill="#fff"/>
            <path id="パス_11030" data-name="パス 11030" d="M1994.553,743.328h-3.484a.235.235,0,0,1-.186-.092c-2.751-3.576-2.86-9.431-.323-17.4a68.089,68.089,0,0,1,4.618-10.883.227.227,0,0,1,.212-.121.234.234,0,0,1,.2.133c3.2,6.636,2.8,13.96,1.9,18.935a43.567,43.567,0,0,1-2.732,9.295A.235.235,0,0,1,1994.553,743.328Zm-3.368-.47h3.214a43.849,43.849,0,0,0,2.64-9.058c.862-4.8,1.254-11.808-1.669-18.214A68.238,68.238,0,0,0,1991,725.981C1989.308,731.316,1987.972,738.555,1991.185,742.858Z" transform="translate(-1988.734 -714.827)"/>
          </g>
          <path id="パス_11031" data-name="パス 11031" d="M2012.635,743.847a.235.235,0,0,1-.235-.226c-.313-8.075,2.66-28.388,2.69-28.592a.235.235,0,0,1,.465.068c-.03.2-3,20.474-2.686,28.506a.235.235,0,0,1-.226.244Z" transform="translate(-2008.674 -714.828)"/>
        </g>
        <g id="グループ_5627" data-name="グループ 5627" transform="translate(0 19.647)">
          <g id="グループ_5626" data-name="グループ 5626">
            <path id="パス_11032" data-name="パス 11032" d="M1899.188,762.9s9.225,3.147,12.565,21.78h-3.629S1900.553,774.442,1899.188,762.9Z" transform="translate(-1898.953 -762.66)" fill="#fff"/>
            <path id="パス_11033" data-name="パス 11033" d="M1910.487,783.645h-3.628a.236.236,0,0,1-.189-.1c-.076-.1-7.625-10.416-8.981-21.893a.235.235,0,0,1,.309-.25,13.51,13.51,0,0,1,5.131,3.97c2.5,2.866,5.854,8.313,7.589,17.991a.235.235,0,0,1-.231.276Zm-3.508-.47h3.227c-1.724-9.373-4.971-14.663-7.4-17.456a14.712,14.712,0,0,0-4.6-3.712C1899.6,772.609,1906.228,782.125,1906.979,783.175Z" transform="translate(-1897.688 -761.395)"/>
          </g>
          <path id="パス_11034" data-name="パス 11034" d="M1925.545,806.894a.235.235,0,0,1-.231-.2c-1.373-8.3-7.316-16.658-7.376-16.742a.235.235,0,0,1,.382-.274c.061.084,6.067,8.531,7.458,16.939a.235.235,0,0,1-.193.27A.232.232,0,0,1,1925.545,806.894Z" transform="translate(-1914.728 -785.169)"/>
        </g>
        <path id="パス_11035" data-name="パス 11035" d="M1921.859,892.512h22.758l.51,10.765a4.628,4.628,0,0,1-4.623,4.848h-13a5.657,5.657,0,0,1-5.657-5.662Z" transform="translate(-1918.066 -852.329)" fill="#99b9ff"/>
      </g>
      <g id="グループ_5630" data-name="グループ 5630" transform="translate(76.233 8.519)">
        <path id="パス_11036" data-name="パス 11036" d="M1859.435,295.435a1.287,1.287,0,1,1,.167-.011A1.311,1.311,0,0,1,1859.435,295.435Zm0-2.094a.8.8,0,0,0-.105.007.814.814,0,0,0-.7.91h0a.813.813,0,1,0,.807-.916Z" transform="translate(-1852.448 -284.808)"/>
        <path id="パス_11037" data-name="パス 11037" d="M1823.218,272.544a1.5,1.5,0,1,1,.2-.013A1.527,1.527,0,0,1,1823.218,272.544Zm.006-2.531a1.058,1.058,0,0,0-.135.009,1.027,1.027,0,1,0,.135-.009Z" transform="translate(-1821.72 -265.133)"/>
        <g id="グループ_5629" data-name="グループ 5629" transform="translate(5.484 0)">
          <path id="パス_11038" data-name="パス 11038" d="M1857.642,244.585a.234.234,0,0,1-.143-.049l-.671-.517a.235.235,0,0,1,.287-.372l.671.517a.235.235,0,0,1-.143.421Z" transform="translate(-1856.736 -243.252)"/>
          <path id="パス_11039" data-name="パス 11039" d="M1872.641,256.14a.235.235,0,0,1-.143-.049l-.671-.517a.235.235,0,1,1,.287-.372l.671.517a.235.235,0,0,1-.143.421Z" transform="translate(-1869.386 -252.997)"/>
          <path id="パス_11040" data-name="パス 11040" d="M1859.177,257.52a.235.235,0,0,1-.186-.378l.518-.671a.235.235,0,0,1,.372.287l-.518.671A.235.235,0,0,1,1859.177,257.52Z" transform="translate(-1858.597 -254.032)"/>
          <path id="パス_11041" data-name="パス 11041" d="M1870.744,242.531a.235.235,0,0,1-.186-.379l.518-.671a.235.235,0,1,1,.372.287l-.517.671A.235.235,0,0,1,1870.744,242.531Z" transform="translate(-1868.352 -241.39)"/>
        </g>
      </g>
      <path id="パス_11042" data-name="パス 11042" d="M2063.539,271.674a.235.235,0,0,1-.229-.186c-1.327-6.184-9.419-12.484-9.5-12.547a.235.235,0,0,1,.287-.372c.338.261,8.31,6.467,9.673,12.82a.235.235,0,0,1-.18.279A.232.232,0,0,1,2063.539,271.674Z" transform="translate(-1941.147 -247.318)"/>
    </g>
  </g>
</svg>
