<svg xmlns="http://www.w3.org/2000/svg" width="130" height="129.878" viewBox="0 0 130 129.878">
  <g id="グループ_5637" data-name="グループ 5637" transform="translate(-2236.091 -3616.146)">
    <g id="Business_coaching" data-name="Business coaching" transform="translate(2236.091 3616.146)">
      <path id="パス_10764" data-name="パス 10764" d="M270.9,193.406c26.239-14.067,61.392.547,79.71,16.749,5.233,4.628,17.921,16.174,20.918,34.679,3.722,22.987-8.461,50.849-36.4,62.767-30.412,12.972-64.416.678-80.331-19.278-14.884-18.664-11.905-40.639-10.841-48.49C245.2,230.622,248.914,205.191,270.9,193.406Z" transform="translate(-242.635 -187.74)" fill="#caddff"/>
      <g id="グループ_5495" data-name="グループ 5495" transform="translate(2.473 33.488)">
        <g id="グループ_5476" data-name="グループ 5476" transform="translate(99.449)">
          <path id="パス_10765" data-name="パス 10765" d="M901.481,495.272h-7.433V403.9l7.358-.519Z" transform="translate(-893.813 -403.15)" fill="#fff"/>
          <g id="グループ_5474" data-name="グループ 5474" transform="translate(7.358 0.004)">
            <path id="パス_10766" data-name="パス 10766" d="M961.106,495.293h-19.93c-.041,0-.075-.046-.075-.1V403.515c0-.059.035-.106.077-.1l19.93,1.052c.04,0,.072.048.072.1v90.623C961.181,495.247,961.148,495.293,961.106,495.293Z" transform="translate(-940.867 -403.176)" fill="#99b9ff"/>
            <path id="パス_10767" data-name="パス 10767" d="M959.842,494.263h-19.93a.321.321,0,0,1-.309-.338V402.249a.353.353,0,0,1,.106-.256.3.3,0,0,1,.219-.082l19.93,1.052a.326.326,0,0,1,.294.338v90.623A.321.321,0,0,1,959.842,494.263Zm-19.77-.469h19.61v-90.37l-19.61-1.035Z" transform="translate(-939.603 -401.911)"/>
          </g>
          <g id="グループ_5475" data-name="グループ 5475" transform="translate(14.516 6.885)">
            <path id="パス_10768" data-name="パス 10768" d="M1025.927,483.482a.235.235,0,0,1-.234-.234v-37.1a.235.235,0,1,1,.469,0v37.1A.234.234,0,0,1,1025.927,483.482Z" transform="translate(-1019.387 -445.91)" fill="#caddff"/>
            <path id="パス_10769" data-name="パス 10769" d="M985.611,540.05a.235.235,0,0,1-.235-.235V528.87a.235.235,0,1,1,.469,0v10.946A.235.235,0,0,1,985.611,540.05Z" transform="translate(-985.376 -515.699)" fill="#caddff"/>
            <path id="パス_10770" data-name="パス 10770" d="M985.611,737.218a.234.234,0,0,1-.235-.234V718.1a.235.235,0,1,1,.469,0v18.888A.234.234,0,0,1,985.611,737.218Z" transform="translate(-985.376 -675.334)" fill="#caddff"/>
          </g>
          <path id="パス_10771" data-name="パス 10771" d="M900.215,644.643h-7.433a.234.234,0,0,1-.234-.234V580.4a.235.235,0,1,1,.469,0v63.773h6.963l-.048-59.811a.234.234,0,0,1,.234-.235h0a.235.235,0,0,1,.235.234l.049,60.045a.235.235,0,0,1-.235.235Z" transform="translate(-892.548 -552.287)"/>
          <path id="パス_10772" data-name="パス 10772" d="M900.167,434.2a.234.234,0,0,1-.234-.234l-.026-31.59-6.889.486v15.361a.235.235,0,1,1-.469,0V402.639a.235.235,0,0,1,.218-.234l7.358-.519a.235.235,0,0,1,.251.234l.026,31.841a.235.235,0,0,1-.234.235Z" transform="translate(-892.548 -401.885)"/>
        </g>
        <g id="グループ_5479" data-name="グループ 5479" transform="translate(74.419 21.596)">
          <g id="グループ_5477" data-name="グループ 5477" transform="translate(0.235)">
            <path id="パス_10773" data-name="パス 10773" d="M741.388,610.523h-7.4V542.312l7.358-2.324Z" transform="translate(-733.989 -539.988)" fill="#fff"/>
            <path id="パス_10774" data-name="パス 10774" d="M801.047,610.54h-19.93a.077.077,0,0,1-.075-.08V540.087a.077.077,0,0,1,.077-.08l19.93.808a.078.078,0,0,1,.072.08V610.46A.077.077,0,0,1,801.047,610.54Z" transform="translate(-773.685 -540.005)" fill="#99b9ff"/>
            <path id="パス_10775" data-name="パス 10775" d="M801.434,653.089h-19.7a.235.235,0,0,1,0-.469h19.538V590.4a.235.235,0,0,1,.469,0v62.374A.312.312,0,0,1,801.434,653.089Z" transform="translate(-774.071 -582.319)"/>
          </g>
          <g id="グループ_5478" data-name="グループ 5478" transform="translate(12.14 5.215)">
            <path id="パス_10776" data-name="パス 10776" d="M844.006,605.05a.234.234,0,0,1-.234-.234V573.572a.234.234,0,1,1,.469,0v31.244A.234.234,0,0,1,844.006,605.05Z" transform="translate(-838.51 -573.337)" fill="#caddff"/>
            <path id="パス_10777" data-name="パス 10777" d="M810.359,610.271a.235.235,0,0,1-.235-.235v-5.326a.235.235,0,1,1,.469,0v5.326A.235.235,0,0,1,810.359,610.271Z" transform="translate(-810.124 -599.607)" fill="#caddff"/>
            <path id="パス_10778" data-name="パス 10778" d="M810.359,721.858a.235.235,0,0,1-.235-.235V695.1a.235.235,0,0,1,.469,0v26.527A.235.235,0,0,1,810.359,721.858Z" transform="translate(-810.124 -675.857)" fill="#caddff"/>
            <path id="パス_10779" data-name="パス 10779" d="M877.654,677.412a.235.235,0,0,1-.235-.234v-5.326a.235.235,0,0,1,.469,0v5.326A.234.234,0,0,1,877.654,677.412Z" transform="translate(-866.896 -656.248)" fill="#caddff"/>
          </g>
          <path id="パス_10780" data-name="パス 10780" d="M740.122,657.027h-7.4a.235.235,0,0,1-.234-.235V600.177a.235.235,0,1,1,.469,0v56.381h6.93l-.035-61.489a.234.234,0,0,1,.234-.235h0a.235.235,0,0,1,.235.234l.035,61.724a.234.234,0,0,1-.235.235Z" transform="translate(-732.489 -586.257)"/>
        </g>
        <g id="グループ_5484" data-name="グループ 5484" transform="translate(49.572 51.08)">
          <g id="グループ_5482" data-name="グループ 5482">
            <g id="グループ_5480" data-name="グループ 5480">
              <path id="パス_10781" data-name="パス 10781" d="M582.454,770.844H575.1v-39.2l7.358-1.614Z" transform="translate(-574.861 -729.792)" fill="#fff"/>
              <path id="パス_10782" data-name="パス 10782" d="M581.188,769.813h-7.358a.235.235,0,0,1-.234-.235v-39.2a.235.235,0,0,1,.184-.229l7.358-1.613a.235.235,0,0,1,.285.229v40.817A.235.235,0,0,1,581.188,769.813Zm-7.124-.469h6.889V729.053l-6.889,1.51Z" transform="translate(-573.595 -728.526)"/>
            </g>
            <g id="グループ_5481" data-name="グループ 5481" transform="translate(7.358 0.003)">
              <path id="パス_10783" data-name="パス 10783" d="M642.229,770.859H622.15V730.128a.083.083,0,0,1,.086-.083l19.993.67Z" transform="translate(-621.915 -729.81)" fill="#99b9ff"/>
              <path id="パス_10784" data-name="パス 10784" d="M641.2,769.827H620.65V728.861a.318.318,0,0,1,.1-.228.313.313,0,0,1,.231-.089l20.22.677Zm-20.079-.469h19.61V729.675l-19.61-.657Z" transform="translate(-620.65 -728.543)"/>
            </g>
          </g>
          <g id="グループ_5483" data-name="グループ 5483" transform="translate(12.696 4.877)">
            <path id="パス_10785" data-name="パス 10785" d="M655.016,784.5a.235.235,0,0,1-.234-.235V759.951a.235.235,0,1,1,.469,0v24.318A.235.235,0,0,1,655.016,784.5Z" transform="translate(-654.781 -759.716)" fill="#caddff"/>
            <path id="パス_10786" data-name="パス 10786" d="M722.31,802.691a.234.234,0,0,1-.234-.235V778.139a.235.235,0,1,1,.469,0v24.318A.235.235,0,0,1,722.31,802.691Z" transform="translate(-711.552 -775.06)" fill="#caddff"/>
            <path id="パス_10787" data-name="パス 10787" d="M688.663,846.1a.235.235,0,0,1-.235-.235v-4.977a.235.235,0,1,1,.469,0v4.977A.234.234,0,0,1,688.663,846.1Z" transform="translate(-683.166 -827.995)" fill="#caddff"/>
          </g>
        </g>
        <g id="グループ_5489" data-name="グループ 5489" transform="translate(24.756 71.003)">
          <g id="グループ_5487" data-name="グループ 5487">
            <g id="グループ_5485" data-name="グループ 5485">
              <path id="パス_10788" data-name="パス 10788" d="M423.835,878.322h-7.428V858.878l7.358-1.451Z" transform="translate(-416.172 -857.192)" fill="#fff"/>
              <path id="パス_10789" data-name="パス 10789" d="M422.57,877.291h-7.428a.235.235,0,0,1-.235-.235V857.613a.235.235,0,0,1,.189-.23l7.358-1.451a.235.235,0,0,1,.28.229l.07,20.895a.234.234,0,0,1-.235.235Zm-7.194-.469h6.958l-.068-20.375-6.89,1.359Z" transform="translate(-414.907 -855.927)"/>
            </g>
            <g id="グループ_5486" data-name="グループ 5486" transform="translate(7.358 0.001)">
              <path id="パス_10790" data-name="パス 10790" d="M483.47,878.327H463.531a.07.07,0,0,1-.07-.07V857.5a.07.07,0,0,1,.071-.07l19.939.325a.07.07,0,0,1,.069.07v20.428A.07.07,0,0,1,483.47,878.327Z" transform="translate(-463.227 -857.199)" fill="#99b9ff"/>
              <path id="パス_10791" data-name="パス 10791" d="M482.2,877.3H462.266a.3.3,0,0,1-.3-.3V856.239a.3.3,0,0,1,.31-.3l19.939.325a.306.306,0,0,1,.3.3v20.428A.3.3,0,0,1,482.2,877.3Zm-19.774-.469h19.61v-20.1l-19.61-.32Z" transform="translate(-461.961 -855.935)"/>
            </g>
          </g>
          <g id="グループ_5488" data-name="グループ 5488" transform="translate(15.064 3.584)">
            <path id="パス_10792" data-name="パス 10792" d="M551.79,891.687a.234.234,0,0,1-.235-.234V879.081a.235.235,0,1,1,.469,0v12.372A.235.235,0,0,1,551.79,891.687Z" transform="translate(-545.25 -878.846)" fill="#caddff"/>
            <path id="パス_10793" data-name="パス 10793" d="M511.473,910.55a.235.235,0,0,1-.234-.235v-3.65a.235.235,0,0,1,.469,0v3.65A.234.234,0,0,1,511.473,910.55Z" transform="translate(-511.238 -902.117)" fill="#caddff"/>
          </g>
        </g>
        <g id="グループ_5494" data-name="グループ 5494" transform="translate(0 80.473)">
          <g id="グループ_5492" data-name="グループ 5492">
            <g id="グループ_5490" data-name="グループ 5490">
              <path id="パス_10794" data-name="パス 10794" d="M265.527,929.411H258.1V919.228l7.358-1.242Z" transform="translate(-257.864 -917.752)" fill="#fff"/>
              <path id="パス_10795" data-name="パス 10795" d="M264.261,928.38h-7.428a.235.235,0,0,1-.235-.235V917.962a.235.235,0,0,1,.2-.231l7.358-1.242a.234.234,0,0,1,.274.23l.07,11.424a.234.234,0,0,1-.235.236Zm-7.194-.469h6.958L263.958,917l-6.891,1.163Z" transform="translate(-256.598 -916.486)"/>
            </g>
            <g id="グループ_5491" data-name="グループ 5491" transform="translate(7.358 0.001)">
              <path id="パス_10796" data-name="パス 10796" d="M325.162,929.415H305.223c-.039,0-.07-.017-.07-.038V918.029c0-.021.032-.039.071-.038l19.939.178c.038,0,.069.017.069.038v11.169C325.232,929.4,325.2,929.415,325.162,929.415Z" transform="translate(-304.918 -917.756)" fill="#99b9ff"/>
              <path id="パス_10797" data-name="パス 10797" d="M323.9,928.384H303.958a.287.287,0,0,1-.3-.273V916.764a.259.259,0,0,1,.078-.185.348.348,0,0,1,.23-.088l19.939.178a.284.284,0,0,1,.3.273v11.169A.287.287,0,0,1,323.9,928.384Zm-19.774-.469h19.61V917.137l-19.61-.175Z" transform="translate(-303.653 -916.491)"/>
            </g>
          </g>
          <g id="グループ_5493" data-name="グループ 5493" transform="translate(15.064 1.96)">
            <path id="パス_10798" data-name="パス 10798" d="M393.481,936.252a.234.234,0,0,1-.235-.235v-6.765a.235.235,0,1,1,.469,0v6.765A.234.234,0,0,1,393.481,936.252Z" transform="translate(-386.941 -929.018)" fill="#caddff"/>
            <path id="パス_10799" data-name="パス 10799" d="M353.165,946.566a.234.234,0,0,1-.235-.235v-2a.235.235,0,1,1,.469,0v2A.235.235,0,0,1,353.165,946.566Z" transform="translate(-352.93 -941.742)" fill="#caddff"/>
          </g>
        </g>
      </g>
      <g id="グループ_5523" data-name="グループ 5523" transform="translate(66.12 33.485)">
        <g id="グループ_5502" data-name="グループ 5502" transform="translate(24.718 47.876)">
          <g id="グループ_5498" data-name="グループ 5498" transform="translate(21.774 38.434)">
            <g id="グループ_5496" data-name="グループ 5496" transform="translate(0.224)">
              <path id="パス_10800" data-name="パス 10800" d="M963.848,955.3l.692,4.857,1.77.007.083-4.776Z" transform="translate(-963.613 -955.062)" fill="#fff"/>
              <path id="パス_10801" data-name="パス 10801" d="M965.044,959.13h0l-1.77-.007a.234.234,0,0,1-.231-.2l-.692-4.857a.234.234,0,0,1,.058-.19.237.237,0,0,1,.182-.078l2.545.087a.235.235,0,0,1,.227.239l-.083,4.776A.235.235,0,0,1,965.044,959.13Zm-1.566-.475,1.336.005.075-4.315-2.035-.069Z" transform="translate(-962.348 -953.797)"/>
            </g>
            <g id="グループ_5497" data-name="グループ 5497" transform="translate(0 3.688)">
              <path id="パス_10802" data-name="パス 10802" d="M963.271,984.682a16.394,16.394,0,0,0,3.111-.018.854.854,0,0,0,.763-.991,11.069,11.069,0,0,0-1.757-4.71l-.466.665-.277-.687c-.044-.074-1.217-.123-1.242.016l-.071.671-.666-.746.037,2.45a3.721,3.721,0,0,1-.076.806l-.175.847a1.611,1.611,0,0,0,.381,1.43A.771.771,0,0,0,963.271,984.682Z" transform="translate(-962.18 -978.637)" fill="#5479f7"/>
              <path id="パス_10803" data-name="パス 10803" d="M963.349,983.729a12.854,12.854,0,0,1-1.369-.066h0a.982.982,0,0,1-.586-.34,1.844,1.844,0,0,1-.44-1.637l.175-.847a3.492,3.492,0,0,0,.072-.755l-.037-2.45a.234.234,0,0,1,.41-.16l.313.351.016-.144c0-.005,0-.011,0-.016.035-.2.248-.238.318-.251.011,0,1.188-.125,1.356.155a.233.233,0,0,1,.016.033l.115.286.219-.311a.233.233,0,0,1,.179-.1.236.236,0,0,1,.189.079c1.224,1.383,1.756,4.479,1.813,4.828a1.1,1.1,0,0,1-.216.849,1.07,1.07,0,0,1-.758.413C964.443,983.706,963.848,983.729,963.349,983.729Zm-1.32-.532a16.036,16.036,0,0,0,3.065-.018.6.6,0,0,0,.429-.234.62.62,0,0,0,.123-.486,11.987,11.987,0,0,0-1.514-4.356l-.286.408a.234.234,0,0,1-.41-.047l-.235-.583a4.407,4.407,0,0,0-.847-.014l-.057.534a.235.235,0,0,1-.408.131l-.247-.277.027,1.821a3.945,3.945,0,0,1-.081.857l-.175.847a1.374,1.374,0,0,0,.322,1.222.576.576,0,0,0,.294.195Z" transform="translate(-960.913 -977.384)"/>
            </g>
            <path id="パス_10804" data-name="パス 10804" d="M967.983,1009.049a7.08,7.08,0,0,1-1.3-.1.235.235,0,0,1,.093-.46,8.708,8.708,0,0,0,2.907-.059.235.235,0,0,1,.081.462A10.348,10.348,0,0,1,967.983,1009.049Z" transform="translate(-965.627 -999.883)"/>
            <path id="パス_10805" data-name="パス 10805" d="M972.7,997.977H971.1a.235.235,0,0,1,0-.469H972.7a.235.235,0,0,1,0,.469Z" transform="translate(-969.308 -990.673)"/>
          </g>
          <g id="グループ_5501" data-name="グループ 5501" transform="translate(0 38.39)">
            <g id="グループ_5499" data-name="グループ 5499" transform="translate(6.291)">
              <path id="パス_10806" data-name="パス 10806" d="M866.408,955.49l-.623,5.66-2.381.5.145-6.637Z" transform="translate(-863.17 -954.777)" fill="#fff"/>
              <path id="パス_10807" data-name="パス 10807" d="M862.139,960.618a.234.234,0,0,1-.234-.24l.145-6.637a.234.234,0,0,1,.273-.226l2.859.478a.235.235,0,0,1,.195.257l-.623,5.66a.235.235,0,0,1-.185.2l-2.381.5A.23.23,0,0,1,862.139,960.618Zm.374-6.6-.133,6.071,1.925-.4.58-5.271Z" transform="translate(-861.905 -953.511)"/>
            </g>
            <g id="グループ_5500" data-name="グループ 5500" transform="translate(0 5.1)">
              <path id="パス_10808" data-name="パス 10808" d="M832.851,991.36c.052-.992.054-2.819-.55-3.7l-1.9.678v-.407a.238.238,0,0,0-.213-.246l-1.062-.061a2.308,2.308,0,0,0-1.154.237c-1.068.525-4.317,1.871-4.767,3.386a.719.719,0,0,0,.682.907c1.069.03,3.64.064,8.253-.094A.742.742,0,0,0,832.851,991.36Z" transform="translate(-822.937 -987.387)" fill="#5479f7"/>
              <path id="パス_10809" data-name="パス 10809" d="M824.75,991.15c-.979,0-1.68-.013-2.139-.026a.979.979,0,0,1-.76-.4.918.918,0,0,1-.14-.806c.426-1.433,3.026-2.653,4.423-3.308.18-.085.338-.159.465-.221a2.557,2.557,0,0,1,1.271-.261l1.062.061a.472.472,0,0,1,.434.48v.074l1.591-.567a.235.235,0,0,1,.272.088c.641.935.646,2.81.591,3.844h0a.97.97,0,0,1-.941.924C828.173,991.123,826.168,991.15,824.75,991.15Zm2.979-4.559a2.093,2.093,0,0,0-.922.217c-.129.063-.29.139-.473.225-1.236.58-3.806,1.786-4.173,3.018a.446.446,0,0,0,.071.4.506.506,0,0,0,.393.208c1.119.032,3.677.062,8.239-.093a.5.5,0,0,0,.489-.48h0a7.237,7.237,0,0,0-.418-3.4l-1.725.614a.235.235,0,0,1-.313-.221v-.407a.024.024,0,0,0,0-.016l-1.049-.056C827.8,986.592,827.766,986.591,827.728,986.591Z" transform="translate(-821.673 -986.121)"/>
            </g>
            <path id="パス_10810" data-name="パス 10810" d="M832.294,1008.169c-1.421,0-2.317-.066-2.335-.067a.235.235,0,0,1,.035-.468,43.781,43.781,0,0,0,7.427-.223.235.235,0,0,1,.054.466A45.6,45.6,0,0,1,832.294,1008.169Z" transform="translate(-828.481 -998.982)"/>
            <path id="パス_10811" data-name="パス 10811" d="M848.569,992.257a.234.234,0,0,1-.137-.425l1.834-1.319a.235.235,0,1,1,.274.381l-1.834,1.319A.234.234,0,0,1,848.569,992.257Z" transform="translate(-844.165 -984.689)"/>
          </g>
          <path id="パス_10812" data-name="パス 10812" d="M863.292,708.02s-3.827,25.788-3.1,41.415l1.065.106a11.5,11.5,0,0,0,1.723.043l1.01-.051c4.537-26.463,5.688-27.713,6.571-30.628,0,0,5.058,24.058,5.271,29.777a11.729,11.729,0,0,0,3.436-.105c.526-5.519.678-11.232.7-14.819.075-10.265-.906-14.928-1.443-17.14-.494-2.031-1.024-3.682-1.411-4.8l-1.292-3.686Z" transform="translate(-854.091 -708.02)"/>
          <path id="パス_10813" data-name="パス 10813" d="M913.489,759.766a.235.235,0,0,1-.23-.19l-.561-2.88a1.294,1.294,0,0,0-.988-.92l-.531-.11a.235.235,0,1,1,.095-.459l.531.11a1.761,1.761,0,0,1,1.348,1.264c0,.006,0,.011,0,.017l.563,2.889a.234.234,0,0,1-.185.275A.228.228,0,0,1,913.489,759.766Z" transform="translate(-897.024 -747.824)" fill="#caddff"/>
          <path id="パス_10814" data-name="パス 10814" d="M949.534,737.765a.236.236,0,0,1-.039,0,4.683,4.683,0,0,1-3.754-2.777.234.234,0,1,1,.434-.178,4.223,4.223,0,0,0,3.4,2.493.235.235,0,0,1-.038.466Z" transform="translate(-926.325 -730.494)" fill="#caddff"/>
          <path id="パス_10815" data-name="パス 10815" d="M879.487,729.395a.235.235,0,0,1-.093-.45,2.973,2.973,0,0,0,1.825-2.175.235.235,0,0,1,.466.055,3.408,3.408,0,0,1-2.1,2.55A.235.235,0,0,1,879.487,729.395Z" transform="translate(-870.248 -723.663)" fill="#caddff"/>
        </g>
        <g id="グループ_5504" data-name="グループ 5504" transform="translate(19.929 26.805)">
          <path id="パス_10816" data-name="パス 10816" d="M821.448,576.056a6.7,6.7,0,0,0-2.993-1.78,43.379,43.379,0,0,0-6.364-.821l-1.206-.128a14.229,14.229,0,0,0-1.752-.021c-.381-.013-.727-.023-1.028-.03a7.12,7.12,0,0,0-3.245.77,12.772,12.772,0,0,0-2.186,1.713c-2.616,2.1-3.94,4.814-5.571,4.975-.665.066-2-3.958-2.509-5.589a1.71,1.71,0,0,0-2.524-.951c-.047.029-.09.058-.13.086-1.211.864-.839,2.81-.839,2.81s.659,10.846,3.692,11.283c3.387.487,8.523-3.634,9.583-3.917l-.792,4.651-1.323,6.509c-.194,1.262,1.438,1.663,2.355,1.654.028,0,.321-2.279.349-2.285,2.937-.6,6.724,1.142,9.687,2.711,3.8,2.011,7.241.661,7.508-.373s-.446-7.326-.446-7.326l3.988-.33a1.447,1.447,0,0,0,1.328-1.443C827.022,583.067,823.408,578.275,821.448,576.056Z" transform="translate(-791.047 -573.275)" fill="#5479f7"/>
          <g id="グループ_5503" data-name="グループ 5503" transform="translate(21.218 7.001)">
            <path id="パス_10817" data-name="パス 10817" d="M933.567,620.516a6.2,6.2,0,0,0,1.213,1.232,77.043,77.043,0,0,1,6.14,5.047c1.126,1.263,1.68,1.752.274,4.413-2.292,4.338-8.477-8.443-8.477-8.443s-2.343.1-2.583-1.972a4.234,4.234,0,0,1-1.689-.222.47.47,0,0,1,.265-.863l3.372-.165a1.4,1.4,0,0,1,1.184.565Z" transform="translate(-927.999 -619.308)" fill="#fff"/>
            <path id="パス_10818" data-name="パス 10818" d="M938.716,631.076h-.027c-2.7-.048-6.794-8.143-7.384-9.34a2.578,2.578,0,0,1-2.637-1.968,3.679,3.679,0,0,1-1.611-.262.7.7,0,0,1-.3-.79.69.69,0,0,1,.682-.508l3.361-.164a1.635,1.635,0,0,1,1.384.66l.3.407a5.97,5.97,0,0,0,1.167,1.185,76.976,76.976,0,0,1,6.172,5.078l.1.111c1.172,1.31,1.592,1.946.207,4.567A1.614,1.614,0,0,1,938.716,631.076Zm-7.266-9.811a.235.235,0,0,1,.212.132c1.234,2.549,4.9,9.172,7.036,9.209h.017c.4,0,.731-.253,1.006-.773,1.288-2.437.9-2.872-.142-4.035l-.1-.112a77.221,77.221,0,0,0-6.107-5.017,6.453,6.453,0,0,1-1.259-1.278h0l-.3-.407a1.171,1.171,0,0,0-.986-.471l-3.37.164a.224.224,0,0,0-.242.165.233.233,0,0,0,.088.263,3.787,3.787,0,0,0,1.556.188.234.234,0,0,1,.245.207c.212,1.828,2.252,1.767,2.34,1.764Z" transform="translate(-926.733 -618.043)"/>
          </g>
          <path id="パス_10819" data-name="パス 10819" d="M865.546,714.407c-2.851-.187-3.332-1.651.349-2.285Z" transform="translate(-851.976 -690.409)" fill="#99b9ff"/>
        </g>
        <g id="グループ_5511" data-name="グループ 5511" transform="translate(18.916 20.207)">
          <g id="グループ_5510" data-name="グループ 5510">
            <g id="グループ_5505" data-name="グループ 5505" transform="translate(0.184)">
              <path id="パス_10820" data-name="パス 10820" d="M791.824,533.139l-2.109,10.141c-.154.743-.651,1.259-1.111,1.154l-.756-.174c-.459-.106-.706-.793-.551-1.536l2.109-10.141Z" transform="translate(-787.016 -532.347)" fill="#5479f7"/>
              <path id="パス_10821" data-name="パス 10821" d="M787.458,543.416a.778.778,0,0,1-.174-.02l-.756-.174c-.591-.136-.911-.932-.728-1.813l2.109-10.141a.235.235,0,0,1,.282-.181l2.418.557a.235.235,0,0,1,.177.276l-2.109,10.141a1.879,1.879,0,0,1-.734,1.2A.9.9,0,0,1,787.458,543.416Zm.861-11.817-2.06,9.906c-.137.66.087,1.194.374,1.26l.756.174a.389.389,0,0,0,.3-.069,1.433,1.433,0,0,0,.528-.9l2.062-9.916Z" transform="translate(-785.748 -531.082)"/>
            </g>
            <g id="グループ_5506" data-name="グループ 5506" transform="translate(0 3.555)">
              <path id="パス_10822" data-name="パス 10822" d="M790.13,562.5a.78.78,0,0,0,.441-.962c-.38-1.163-.647-2.26-.211-2.892a2.514,2.514,0,0,0,.646-1.739l-.126-.972c-.022-.152.024-.71-.395-.611-.317.075-.45.352-.633,1.573a1.429,1.429,0,0,1-.746,1.149,1.418,1.418,0,0,0,.018-.31,1.658,1.658,0,0,0-.747-1.3c-.545-.362-1.46-.848-2-.239a1.911,1.911,0,0,0,.137,2.307c.155.218,1.019,1.163,1.019,1.163a18.563,18.563,0,0,1,.528,2.5C788.278,563.359,789.182,562.892,790.13,562.5Z" transform="translate(-785.823 -555.077)" fill="#fff"/>
              <path id="パス_10823" data-name="パス 10823" d="M787.523,561.9a.9.9,0,0,1-.435-.1,1.116,1.116,0,0,1-.51-.851,18.618,18.618,0,0,0-.486-2.4c-.141-.155-.87-.954-1.022-1.168a2.151,2.151,0,0,1-.121-2.6c.341-.383,1.017-.658,2.307.2a1.906,1.906,0,0,1,.836,1.311,1.309,1.309,0,0,0,.278-.694c.184-1.224.327-1.651.811-1.766a.5.5,0,0,1,.43.073.848.848,0,0,1,.245.659c0,.03,0,.055.005.073l.127.976a2.749,2.749,0,0,1-.685,1.9c-.379.55-.108,1.616.241,2.685a1.018,1.018,0,0,1-.575,1.252l-.18.075A3.6,3.6,0,0,1,787.523,561.9Zm-1.73-7.017a.629.629,0,0,0-.494.211,1.674,1.674,0,0,0,.153,2.015c.12.169.763.88,1,1.14l.015.018a13.349,13.349,0,0,1,.572,2.6.7.7,0,0,0,.271.518c.266.144.789-.076,1.3-.289l.183-.076h0a.547.547,0,0,0,.308-.673c-.36-1.1-.7-2.344-.182-3.1a2.277,2.277,0,0,0,.606-1.573l-.126-.974c0-.025-.006-.065-.009-.112a.656.656,0,0,0-.057-.308s-.015,0-.042.007c-.151.036-.271.156-.455,1.379a1.657,1.657,0,0,1-.856,1.314.235.235,0,0,1-.354-.242,1.194,1.194,0,0,0,.014-.258A1.424,1.424,0,0,0,787,555.37,2.374,2.374,0,0,0,785.793,554.881Z" transform="translate(-784.572 -553.812)"/>
            </g>
            <g id="グループ_5509" data-name="グループ 5509" transform="translate(0.002 0.897)">
              <g id="グループ_5507" data-name="グループ 5507" transform="translate(0.182)">
                <path id="パス_10824" data-name="パス 10824" d="M789.219,538.319l-1.922,9.243c-.154.743.092,1.431.551,1.536l.756.174c.459.106.956-.411,1.111-1.154l1.978-9.5Z" transform="translate(-787.016 -538.084)" fill="#5479f7"/>
                <path id="パス_10825" data-name="パス 10825" d="M787.458,548.256a.768.768,0,0,1-.174-.02l-.756-.174c-.591-.136-.911-.932-.728-1.812l1.922-9.243a.234.234,0,0,1,.258-.185l2.474.3a.235.235,0,0,1,.2.281l-1.978,9.5a1.879,1.879,0,0,1-.734,1.2A.9.9,0,0,1,787.458,548.256Zm.679-10.943-1.878,9.032c-.137.66.087,1.194.374,1.26l.756.174a.39.39,0,0,0,.3-.069,1.434,1.434,0,0,0,.528-.9l1.926-9.251Z" transform="translate(-785.748 -536.819)"/>
              </g>
              <g id="グループ_5508" data-name="グループ 5508" transform="translate(0 3.257)">
                <path id="パス_10826" data-name="パス 10826" d="M788.616,561.932a2.5,2.5,0,0,1-1.612-.48,1.528,1.528,0,0,1-.287-2.016c.539-.606,1.448-.128,1.994.234a1.867,1.867,0,0,1,.849,1.281C789.546,561.571,789.323,561.86,788.616,561.932Z" transform="translate(-786.167 -558.912)" fill="#fff"/>
                <path id="パス_10827" data-name="パス 10827" d="M785.647,561.176a.234.234,0,0,1-.18-.084c-.3-.357-.373-.457-.388-.479a2.158,2.158,0,0,1-.121-2.6c.035-.039.124-.12.124-.12.509-.415,1.238-.307,2.175.315a2.07,2.07,0,0,1,.954,1.483,1.1,1.1,0,0,1-1.155,1.208,2.649,2.649,0,0,1-1.387-.3l.159.191a.235.235,0,0,1-.18.385Zm-.26-2.925s-.056.05-.079.076a1.68,1.68,0,0,0,.154,2.016s.017.024.079.1a.235.235,0,0,1,.333-.265,2.148,2.148,0,0,0,1.134.256c.613-.062.722-.283.734-.753A1.664,1.664,0,0,0,787,558.6C786.485,558.26,785.79,557.924,785.387,558.251Z" transform="translate(-784.583 -557.647)"/>
              </g>
            </g>
          </g>
        </g>
        <g id="グループ_5519" data-name="グループ 5519" transform="translate(0 0)">
          <g id="グループ_5512" data-name="グループ 5512" transform="translate(7.127 1.901)">
            <path id="パス_10828" data-name="パス 10828" d="M723.554,424.181l8.968,3.293,3.753,2.229,1.7,1.713.012.014a2.478,2.478,0,0,1,.215,2.074,2.526,2.526,0,0,1-1.039,1.8l.014,0-2.139.843-4.3.473-9.612-.728-10.366,4.852-.076.023c2.6-1.253,5.288-5.919,6.547-11.825s.709-11.236-1.156-13.43l0,0,7.384,8.556Z" transform="translate(-710.446 -415.281)" fill="#99b9ff"/>
            <path id="パス_10829" data-name="パス 10829" d="M709.415,439.746a.235.235,0,0,1-.1-.446c2.622-1.262,5.2-5.949,6.42-11.662s.772-11.021-1.1-13.23a.235.235,0,0,1,.027-.331.237.237,0,0,1,.331.024l7.384,8.556a.23.23,0,0,1,.036.057l8.929,3.279a.223.223,0,0,1,.039.019l3.753,2.229a.233.233,0,0,1,.047.036l1.7,1.714.011.012,0,0a2.636,2.636,0,0,1,.276,2.286,2.872,2.872,0,0,1-1.11,1.94.218.218,0,0,1-.058.034l-2.139.842a.24.24,0,0,1-.06.015l-4.3.473a.219.219,0,0,1-.043,0l-9.551-.723-10.31,4.826-.031.012-.076.023A.237.237,0,0,1,709.415,439.746Zm6.656-23.67c1.011,2.786,1.09,7.113.121,11.66-.976,4.576-2.83,8.521-4.906,10.654l8.473-3.965a.235.235,0,0,1,.117-.022l9.591.726,4.251-.468,2.045-.805a.216.216,0,0,1,.058-.031,2.366,2.366,0,0,0,.889-1.63,2.326,2.326,0,0,0-.142-1.85l-.02-.021-.007-.008-1.676-1.687-3.709-2.2-8.948-3.285a2.268,2.268,0,0,0-.191-.177Z" transform="translate(-709.18 -414.021)"/>
          </g>
          <g id="グループ_5513" data-name="グループ 5513" transform="translate(0)">
            <ellipse id="楕円形_245" data-name="楕円形 245" cx="13.519" cy="5.669" rx="13.519" ry="5.669" transform="translate(0 26.44) rotate(-77.92)" fill="#fff"/>
            <path id="パス_10830" data-name="パス 10830" d="M679.988,434.623a2.7,2.7,0,0,1-.553-.057,3.321,3.321,0,0,1-2.075-1.574c-1.66-2.549-1.989-7.687-.837-13.088a25.794,25.794,0,0,1,3.655-9.094c1.638-2.36,3.41-3.478,4.99-3.147a3.321,3.321,0,0,1,2.075,1.574c1.66,2.549,1.989,7.687.837,13.088a25.8,25.8,0,0,1-3.655,9.094C682.977,433.507,681.422,434.623,679.988,434.623Zm4.616-26.55c-2.841,0-6.175,5.14-7.622,11.928-1.127,5.286-.824,10.285.771,12.734a2.874,2.874,0,0,0,1.778,1.371,2.275,2.275,0,0,0,.468.048c2.841,0,6.175-5.14,7.622-11.928,1.127-5.286.824-10.285-.771-12.735a2.873,2.873,0,0,0-1.778-1.371A2.277,2.277,0,0,0,684.6,408.073Z" transform="translate(-673.929 -406.707)"/>
          </g>
          <path id="パス_10831" data-name="パス 10831" d="M685.683,444.184a2.3,2.3,0,0,1-.473-.049c-2.483-.52-3.632-5.074-2.732-10.828a.235.235,0,0,1,.464.073c-.847,5.411.17,9.837,2.364,10.3a1.786,1.786,0,0,0,.367.038c2.327,0,5.157-4.367,6.344-9.935.94-4.408.689-8.574-.638-10.612a2.362,2.362,0,0,0-1.459-1.127c-1.567-.328-3.483,1.471-5,4.7a.235.235,0,0,1-.425-.2c1.638-3.484,3.7-5.336,5.519-4.955a2.809,2.809,0,0,1,1.756,1.331c1.392,2.138,1.668,6.442.7,10.966C691.206,439.837,688.3,444.184,685.683,444.184Z" transform="translate(-679.27 -418.456)"/>
          <g id="グループ_5514" data-name="グループ 5514" transform="translate(8.089 11.586)">
            <ellipse id="楕円形_246" data-name="楕円形 246" cx="2.959" cy="1.24" rx="2.959" ry="1.24" transform="matrix(0.209, -0.978, 0.978, 0.209, 0, 5.788)" fill="#99b9ff"/>
            <path id="パス_10832" data-name="パス 10832" d="M717.939,482.322a.777.777,0,0,1-.157-.016.915.915,0,0,1-.57-.423,4.407,4.407,0,0,1-.209-3h0c.379-1.78,1.285-2.994,2.109-2.821a.914.914,0,0,1,.57.424,4.405,4.405,0,0,1,.209,3C719.535,481.152,718.717,482.322,717.939,482.322Zm-.477-3.346a4.027,4.027,0,0,0,.143,2.65.455.455,0,0,0,.273.22c.465.1,1.228-.934,1.554-2.46a4.026,4.026,0,0,0-.143-2.65.454.454,0,0,0-.273-.22c-.465-.1-1.229.934-1.554,2.46Z" transform="translate(-716.615 -476.028)"/>
          </g>
          <path id="パス_10833" data-name="パス 10833" d="M709.415,439.746a.235.235,0,0,1-.1-.446c2.622-1.262,5.2-5.949,6.42-11.662s.772-11.021-1.1-13.23a.235.235,0,0,1,.027-.331.237.237,0,0,1,.331.024l7.439,8.62,8.911,3.272a.223.223,0,0,1,.039.019l3.753,2.229a.233.233,0,0,1,.047.036l1.7,1.714.011.012,0,0a2.636,2.636,0,0,1,.276,2.286,2.872,2.872,0,0,1-1.11,1.94.218.218,0,0,1-.058.034l-2.139.842a.24.24,0,0,1-.06.015l-4.3.473a.219.219,0,0,1-.043,0l-9.551-.723-10.31,4.826-.031.012-.076.023A.237.237,0,0,1,709.415,439.746Zm6.656-23.67c1.011,2.786,1.09,7.113.121,11.66-.976,4.576-2.83,8.521-4.906,10.654l8.473-3.965a.235.235,0,0,1,.117-.022l9.591.726,4.251-.468,2.042-.8a.234.234,0,0,1,.06-.032,2.366,2.366,0,0,0,.889-1.63,2.326,2.326,0,0,0-.142-1.85l-.02-.021-.007-.008-1.676-1.687-3.709-2.2-8.948-3.285a.234.234,0,0,1-.1-.067Z" transform="translate(-702.054 -412.12)"/>
          <g id="グループ_5515" data-name="グループ 5515" transform="translate(7.127 1.901)">
            <path id="パス_10834" data-name="パス 10834" d="M723.531,424.155l-7.457-8.64,0,0c1.864,2.194,2.413,7.532,1.156,13.43s-3.944,10.571-6.547,11.825l.076-.023,10.349-4.844.24-.111c1.2-.569,2.437-2.676,3-5.348.578-2.743.139-5.2-.722-6.186Z" transform="translate(-710.446 -415.281)" fill="#5479f7"/>
            <path id="パス_10835" data-name="パス 10835" d="M709.415,439.746a.235.235,0,0,1-.1-.446c2.622-1.262,5.2-5.949,6.42-11.662s.772-11.021-1.1-13.23a.235.235,0,0,1,.027-.331.237.237,0,0,1,.331.024l7.547,8.742c1.007,1.156,1.326,3.783.776,6.391-.564,2.677-1.822,4.892-3.129,5.511l-.242.112L709.591,439.7l-.031.012-.076.023A.237.237,0,0,1,709.415,439.746Zm6.656-23.67c1.011,2.786,1.09,7.113.121,11.66-.976,4.576-2.83,8.521-4.906,10.654l8.7-4.069c1.161-.55,2.342-2.682,2.869-5.183.581-2.757.1-5.1-.669-5.984l-.091-.1,0,0Z" transform="translate(-709.18 -414.021)"/>
          </g>
          <path id="パス_10836" data-name="パス 10836" d="M865.923,511.612a.234.234,0,0,1-.086-.453l1.958-.771a.214.214,0,0,1,.058-.031,2.366,2.366,0,0,0,.89-1.63,2.326,2.326,0,0,0-.143-1.85l-.02-.021-.007-.008-1.7-1.708a.235.235,0,1,1,.333-.331l1.7,1.713.011.012,0,0a2.635,2.635,0,0,1,.276,2.286,2.872,2.872,0,0,1-1.11,1.94.217.217,0,0,1-.058.034l-2.024.8A.235.235,0,0,1,865.923,511.612Z" transform="translate(-834.087 -488.653)"/>
          <g id="グループ_5516" data-name="グループ 5516" transform="translate(31.463 16.055)">
            <path id="パス_10837" data-name="パス 10837" d="M866.307,512.508c.665-.234,1.348-1.455,1.672-2.971.342-1.606.114-3.108-.474-3.5l1.762,1.746.012.014a2.478,2.478,0,0,1,.215,2.074,2.525,2.525,0,0,1-1.039,1.8l.014,0Z" transform="translate(-866.072 -505.799)" fill="#5479f7"/>
            <path id="パス_10838" data-name="パス 10838" d="M865.041,511.477a.235.235,0,0,1-.085-.454l.043-.017c.493-.21,1.15-1.217,1.484-2.784a4.476,4.476,0,0,0-.207-3.087l-.2-.2a.235.235,0,0,1,.3-.361,1.09,1.09,0,0,1,.258.25l1.539,1.524.012.013,0,0a2.636,2.636,0,0,1,.276,2.286,2.873,2.873,0,0,1-1.11,1.94.221.221,0,0,1-.06.035l-2.115.818-.053.021A.236.236,0,0,1,865.041,511.477Zm2-5.587a6.575,6.575,0,0,1-.1,2.431,6.893,6.893,0,0,1-.882,2.277l.993-.384a.222.222,0,0,1,.057-.03,2.366,2.366,0,0,0,.89-1.63,2.326,2.326,0,0,0-.143-1.85l-.02-.021-.006-.007Z" transform="translate(-864.807 -504.534)"/>
          </g>
          <g id="グループ_5517" data-name="グループ 5517" transform="translate(27.155 13.858)">
            <path id="パス_10839" data-name="パス 10839" d="M838.937,501.12l-.184.013c1-.063,2.107-1.905,2.6-4.234.506-2.376.142-4.509-.791-4.912l.125.074,3.558,2.115c.6.385.828,1.895.484,3.51-.332,1.559-1.065,2.8-1.746,2.986Z" transform="translate(-838.518 -491.752)" fill="#caddff"/>
            <path id="パス_10840" data-name="パス 10840" d="M837.488,500.1a.235.235,0,0,1-.016-.469h.012c.76-.061,1.854-1.586,2.379-4.049.487-2.284.133-4.051-.5-4.552l-.185-.11a.235.235,0,0,1,.213-.417,1.144,1.144,0,0,1,.231.135l3.479,2.069c.7.454.954,2.068.594,3.76-.353,1.655-1.14,2.955-1.915,3.164a.221.221,0,0,1-.035.007l-4.05.448h-.009l-.17.012h-.031Zm2.758-8.546a7.8,7.8,0,0,1,.075,4.126,8.431,8.431,0,0,1-1.748,3.837l3.1-.343c.5-.152,1.215-1.178,1.562-2.8.338-1.586.075-2.968-.382-3.264Z" transform="translate(-837.254 -490.486)"/>
          </g>
          <g id="グループ_5518" data-name="グループ 5518" transform="translate(9.034 11.611)">
            <path id="パス_10841" data-name="パス 10841" d="M724.369,477.614c.67.14.966,1.556.6,3.149-.619,2.67-1.695,2.669-1.824,2.659,0,0,0,0,0,0l2.637,1.145a26.265,26.265,0,0,0,1.478-6.84l-2.887-.117Z" transform="translate(-722.865 -477.38)"/>
            <path id="パス_10842" data-name="パス 10842" d="M724.426,483.622l-3.049-1.324.1-.391.2.019c.033,0,.986.045,1.572-2.479a3.818,3.818,0,0,0-.13-2.63.476.476,0,0,0-.286-.236l.057-.464,3.13.126-.018.242a26.516,26.516,0,0,1-1.491,6.9Zm-2.119-1.432,1.848.8a26.126,26.126,0,0,0,1.361-6.3l-1.97-.079a4.385,4.385,0,0,1,.162,2.94A4.061,4.061,0,0,1,722.307,482.19Z" transform="translate(-721.377 -476.116)"/>
          </g>
        </g>
        <g id="グループ_5522" data-name="グループ 5522" transform="translate(37.35 15.431)">
          <g id="グループ_5520" data-name="グループ 5520" transform="translate(2.332 6.783)">
            <path id="パス_10843" data-name="パス 10843" d="M922.794,550.122l.588-4.7-4.092,1.265-.413,2.754a1.583,1.583,0,0,0,.45,1.259,2.31,2.31,0,0,0,2.643.378l.2-.1A1.1,1.1,0,0,0,922.794,550.122Z" transform="translate(-918.63 -545.185)" fill="#fff"/>
            <path id="パス_10844" data-name="パス 10844" d="M919.6,550.3a2.339,2.339,0,0,1-1.71-.7,1.809,1.809,0,0,1-.513-1.452l.414-2.758a.234.234,0,0,1,.163-.189l4.092-1.265a.235.235,0,0,1,.3.253l-.588,4.7a1.323,1.323,0,0,1-.755,1.042l-.2.1A2.84,2.84,0,0,1,919.6,550.3Zm-1.367-4.7-.391,2.608a1.336,1.336,0,0,0,.379,1.054,2.087,2.087,0,0,0,2.382.336l.2-.1a.857.857,0,0,0,.489-.675h0l.543-4.342Z" transform="translate(-917.364 -543.92)"/>
          </g>
          <path id="パス_10845" data-name="パス 10845" d="M905.848,500.581c1,.22-.52.883,3.4.847,1.563-.015.359,1.468.764,1.465,1.5-.01,1.446-.011,2.072.358.415.244.475,1.153.217,1.747-.339.784-1.07.8-2.147,2.359-.756,1.092-.86,1.856-1.393,1.9s-.716-.72-1.309-.72c-.767,0-.971,1.271-1.806,1.587-.526.2-1.583.062-2.987-1.19a.638.638,0,0,1-.121-.8c.2-.336.459-.76.739-1.143,1.332-1.829,2.188-2.086,2.073-2.689-.176-.925-1.838-.893-1.9-1.63C903.379,501.9,904.483,500.28,905.848,500.581Z" transform="translate(-902.451 -500.544)"/>
          <g id="グループ_5521" data-name="グループ 5521" transform="translate(0.609 2.547)">
            <path id="パス_10846" data-name="パス 10846" d="M912.836,520.072l-.428.445a6.314,6.314,0,0,0-.559.669c-.32.442-.876,1.2-1.22,1.6-.5.587-2.426-.847-2.426-.847l-.013-.454-.222-.173a.314.314,0,0,1-.1-.127.3.3,0,0,1,.084-.346,10.886,10.886,0,0,0,2.25-2.507A3.273,3.273,0,0,1,912.836,520.072Z" transform="translate(-907.612 -518.096)" fill="#fff"/>
            <path id="パス_10847" data-name="パス 10847" d="M909,521.893a4.842,4.842,0,0,1-2.2-1.034.234.234,0,0,1-.094-.181l-.01-.344-.135-.1a.549.549,0,0,1-.173-.223.536.536,0,0,1,.149-.613,10.772,10.772,0,0,0,2.2-2.445.225.225,0,0,1,.209-.118,3.483,3.483,0,0,1,2.834,1.864.235.235,0,0,1-.037.274l-.427.446a6.063,6.063,0,0,0-.538.644c-.309.427-.881,1.2-1.232,1.614A.68.68,0,0,1,909,521.893Zm-1.83-1.343c.812.586,1.812,1.054,2.017.815.341-.4.9-1.161,1.208-1.583a6.569,6.569,0,0,1,.579-.694l.306-.319a3.058,3.058,0,0,0-2.216-1.459,11.373,11.373,0,0,1-2.225,2.44.068.068,0,0,0-.018.078.088.088,0,0,0,.027.03l.222.173a.235.235,0,0,1,.09.178Z" transform="translate(-906.347 -516.83)"/>
          </g>
          <path id="パス_10848" data-name="パス 10848" d="M933.94,536.86s1.026-1.073,1.412-.5a.749.749,0,1,1-1.412.5Z" transform="translate(-929.016 -530.617)" fill="#fff"/>
        </g>
      </g>
      <g id="グループ_5550" data-name="グループ 5550" transform="translate(0 41.592)">
        <g id="グループ_5534" data-name="グループ 5534" transform="translate(10.912 34.889)">
          <g id="グループ_5528" data-name="グループ 5528" transform="translate(0 30.813)">
            <g id="グループ_5524" data-name="グループ 5524" transform="translate(0.617)">
              <path id="パス_10849" data-name="パス 10849" d="M316.524,875.362l-.512,4.543,1.932.8.712-4.953Z" transform="translate(-315.777 -875.128)" fill="#fff"/>
              <path id="パス_10850" data-name="パス 10850" d="M316.678,879.68a.236.236,0,0,1-.09-.018l-1.932-.8a.235.235,0,0,1-.143-.243l.512-4.543a.235.235,0,0,1,.276-.2l2.132.395a.234.234,0,0,1,.19.264l-.712,4.953a.235.235,0,0,1-.232.2ZM315,878.492l1.49.621.637-4.431-1.663-.308Z" transform="translate(-314.511 -873.863)"/>
            </g>
            <g id="グループ_5527" data-name="グループ 5527" transform="translate(0 3.736)">
              <g id="グループ_5525" data-name="グループ 5525">
                <path id="パス_10851" data-name="パス 10851" d="M312.233,899.628a16.357,16.357,0,0,0-.167,1.946.889.889,0,0,0,.779.887,34.986,34.986,0,0,0,6.561.118.629.629,0,0,0,.544-.553c.276-1.4-2.158-1.742-4.826-2.757a.289.289,0,0,0-.3.062l-.288.279a1,1,0,0,1-1.084.2l-.875-.373A.246.246,0,0,0,312.233,899.628Z" transform="translate(-311.831 -899.015)" fill="#5479f7"/>
                <path id="パス_10852" data-name="パス 10852" d="M315.6,901.654a34.84,34.84,0,0,1-4.052-.224,1.122,1.122,0,0,1-.984-1.122,16.66,16.66,0,0,1,.17-1.976h0a.481.481,0,0,1,.664-.375l.875.373a.759.759,0,0,0,.828-.153l.288-.279a.525.525,0,0,1,.55-.112c.62.236,1.217.432,1.794.621,1.916.629,3.43,1.125,3.179,2.4a.864.864,0,0,1-.753.742C317.329,901.624,316.45,901.654,315.6,901.654Zm-4.634-3.289.232.033a16.152,16.152,0,0,0-.165,1.916.653.653,0,0,0,.574.651,34.422,34.422,0,0,0,6.509.117.4.4,0,0,0,.335-.365c.163-.827-.926-1.228-2.865-1.864-.583-.191-1.185-.389-1.815-.628a.055.055,0,0,0-.057.011l-.288.279a1.227,1.227,0,0,1-1.339.248l-.875-.373Z" transform="translate(-310.566 -897.751)"/>
              </g>
              <g id="グループ_5526" data-name="グループ 5526" transform="translate(0 2.217)">
                <path id="パス_10853" data-name="パス 10853" d="M312.068,913.428s0,.073,0,.108a.889.889,0,0,0,.779.887,34.966,34.966,0,0,0,6.561.118.629.629,0,0,0,.544-.553,1.832,1.832,0,0,0,.01-.358l-.173.008a50.5,50.5,0,0,1-7.386-.177Z" transform="translate(-311.831 -913.193)" fill="#fff"/>
                <path id="パス_10854" data-name="パス 10854" d="M315.6,913.614a34.854,34.854,0,0,1-4.052-.224,1.122,1.122,0,0,1-.984-1.122l0-.11a.234.234,0,0,1,.079-.171.237.237,0,0,1,.178-.058l.332.032a50.452,50.452,0,0,0,7.352.176l.173-.008a.232.232,0,0,1,.246.218,1.94,1.94,0,0,1-.014.419.864.864,0,0,1-.753.741C317.329,913.584,316.45,913.614,315.6,913.614Zm-4.55-1.191a.656.656,0,0,0,.558.5,34.427,34.427,0,0,0,6.509.117.4.4,0,0,0,.335-.365.547.547,0,0,0,.008-.067,50.851,50.851,0,0,1-7.349-.181Z" transform="translate(-310.566 -911.929)"/>
              </g>
              <path id="パス_10855" data-name="パス 10855" d="M334.264,902.949a.235.235,0,0,1-.166-.4l.936-.937a.235.235,0,0,1,.332.332l-.936.937A.234.234,0,0,1,334.264,902.949Z" transform="translate(-330.36 -900.95)"/>
              <path id="パス_10856" data-name="パス 10856" d="M340.145,904.43a.235.235,0,0,1-.169-.4l.748-.777a.234.234,0,1,1,.338.325l-.748.777A.233.233,0,0,1,340.145,904.43Z" transform="translate(-335.321 -902.334)"/>
            </g>
          </g>
          <path id="パス_10857" data-name="パス 10857" d="M321.551,677.994s-1.176.683-1.635,4.686-.958,9.947-3.182,13.334c-2.484,3.784-2.329,10.045-2.7,14.179a.349.349,0,0,0,.336.38l2.448.084a.348.348,0,0,0,.344-.241c.438-1.355,2.613-7.891,5.057-11.68,2.583-4.005,8.646-21.156,8.646-21.156s-1.24.549-3.545-.469C325.078,676.119,321.551,677.994,321.551,677.994Z" transform="translate(-313.49 -676.82)"/>
          <g id="グループ_5533" data-name="グループ 5533" transform="translate(20.329 20.518)">
            <g id="グループ_5529" data-name="グループ 5529" transform="translate(0.676)">
              <path id="パス_10858" data-name="パス 10858" d="M447.419,809.53l-1.032,4.454,1.827,1.022,1.278-4.838Z" transform="translate(-446.152 -809.296)" fill="#fff"/>
              <path id="パス_10859" data-name="パス 10859" d="M446.948,813.975a.236.236,0,0,1-.115-.03l-1.827-1.022a.235.235,0,0,1-.114-.258l1.032-4.454a.234.234,0,0,1,.3-.171l2.072.638a.234.234,0,0,1,.158.284l-1.278,4.838a.234.234,0,0,1-.135.156A.238.238,0,0,1,446.948,813.975Zm-1.558-1.375,1.409.788,1.143-4.328-1.616-.5Z" transform="translate(-444.886 -808.03)"/>
            </g>
            <g id="グループ_5532" data-name="グループ 5532" transform="translate(0 3.812)">
              <g id="グループ_5530" data-name="グループ 5530">
                <path id="パス_10860" data-name="パス 10860" d="M442.523,834.287a11.572,11.572,0,0,0-.456,1.964.888.888,0,0,0,.779.886,38.526,38.526,0,0,0,6.849.1.629.629,0,0,0,.544-.553c.276-1.4-2.158-1.742-4.826-2.757a.288.288,0,0,0-.3.062l-.288.279a1,1,0,0,1-1.084.2l-.875-.373A.246.246,0,0,0,442.523,834.287Z" transform="translate(-441.832 -833.674)" fill="#5479f7"/>
                <path id="パス_10861" data-name="パス 10861" d="M445.7,836.315a37.03,37.03,0,0,1-4.148-.21,1.122,1.122,0,0,1-.983-1.122,5.106,5.106,0,0,1,.3-1.419,4.291,4.291,0,0,0,.157-.574h0a.481.481,0,0,1,.665-.375l.875.373a.759.759,0,0,0,.828-.153l.288-.279a.525.525,0,0,1,.55-.112c.62.236,1.217.432,1.794.621,1.916.629,3.43,1.125,3.179,2.4a.864.864,0,0,1-.753.742C447.6,836.284,446.642,836.315,445.7,836.315Zm-4.441-3.292.232.033a4.456,4.456,0,0,1-.175.65,4.687,4.687,0,0,0-.279,1.283.653.653,0,0,0,.574.651,38.471,38.471,0,0,0,6.8.1.4.4,0,0,0,.335-.365c.163-.827-.926-1.228-2.865-1.864-.583-.191-1.185-.389-1.815-.628a.054.054,0,0,0-.056.011l-.288.279a1.228,1.228,0,0,1-1.339.248l-.875-.373Z" transform="translate(-440.567 -832.41)"/>
              </g>
              <g id="グループ_5531" data-name="グループ 5531" transform="translate(0.067 2.204)">
                <path id="パス_10862" data-name="パス 10862" d="M442.495,848.006s0,.073,0,.108a.888.888,0,0,0,.779.886,37.273,37.273,0,0,0,6.783.13.629.629,0,0,0,.544-.553,1.831,1.831,0,0,0,.01-.358l-.173.009a50.478,50.478,0,0,1-7.386-.177Z" transform="translate(-442.258 -847.771)" fill="#fff"/>
                <path id="パス_10863" data-name="パス 10863" d="M446.293,848.2a38.668,38.668,0,0,1-4.315-.233,1.122,1.122,0,0,1-.983-1.122l0-.11a.234.234,0,0,1,.077-.169.232.232,0,0,1,.176-.06l.554.045a50.449,50.449,0,0,0,7.356.176l.173-.009a.234.234,0,0,1,.246.219,1.957,1.957,0,0,1-.014.419.864.864,0,0,1-.753.742C448,848.172,447.134,848.2,446.293,848.2Zm-4.815-1.2a.656.656,0,0,0,.559.506,37.046,37.046,0,0,0,6.731.129.4.4,0,0,0,.335-.365.536.536,0,0,0,.008-.066,50.887,50.887,0,0,1-7.349-.181Z" transform="translate(-440.994 -846.505)"/>
              </g>
              <path id="パス_10864" data-name="パス 10864" d="M466.111,837.607a.235.235,0,0,1-.166-.4l.936-.937a.235.235,0,1,1,.332.332l-.936.937A.235.235,0,0,1,466.111,837.607Z" transform="translate(-461.918 -835.608)"/>
              <path id="パス_10865" data-name="パス 10865" d="M471.993,839.088a.234.234,0,0,1-.169-.4l.748-.777a.235.235,0,1,1,.338.325l-.748.777A.233.233,0,0,1,471.993,839.088Z" transform="translate(-466.88 -836.992)"/>
            </g>
          </g>
          <path id="パス_10866" data-name="パス 10866" d="M380.333,691.048a24.9,24.9,0,0,0,13.489.934c.2-.048.374.11.264.284a15.346,15.346,0,0,0-1.653,2.94c-.567,1.54-1.377,7.521-1.772,10a.376.376,0,0,0,.36.435l2.36.077a.376.376,0,0,0,.352-.213c.852-1.774,6.524-13.7,6.312-16.306-.229-2.811-3.94-2.668-5.279-2.754-1.385-.089-13.181-3.114-13.181-3.114Z" transform="translate(-369.423 -682.315)"/>
        </g>
        <g id="グループ_5547" data-name="グループ 5547" transform="translate(0 0)">
          <g id="グループ_5537" data-name="グループ 5537" transform="translate(32.953)">
            <g id="グループ_5535" data-name="グループ 5535" transform="translate(0 9.249)">
              <path id="パス_10867" data-name="パス 10867" d="M456.626,514.356l-3.617,2.528.311.671,4.268-1.124Z" transform="translate(-452.775 -514.122)" fill="#fff"/>
              <path id="パス_10868" data-name="パス 10868" d="M452.055,516.525a.235.235,0,0,1-.213-.136l-.311-.671a.234.234,0,0,1,.078-.291l3.617-2.528a.234.234,0,0,1,.347.094l.962,2.075a.235.235,0,0,1-.153.326l-4.268,1.124A.239.239,0,0,1,452.055,516.525Zm-.016-.826.146.314,3.807-1-.727-1.567Z" transform="translate(-451.51 -512.857)"/>
            </g>
            <g id="グループ_5536" data-name="グループ 5536" transform="translate(3.316 0.574)">
              <path id="パス_10869" data-name="パス 10869" d="M487.244,458.881l-13.032,8.454,1.223,2.637,14.862-4.55Z" transform="translate(-473.977 -458.646)" fill="#fff"/>
              <path id="パス_10870" data-name="パス 10870" d="M474.169,468.941a.235.235,0,0,1-.213-.136l-1.223-2.637a.235.235,0,0,1,.085-.3l13.032-8.454a.234.234,0,0,1,.34.1l3.052,6.541a.235.235,0,0,1-.144.324l-14.862,4.55A.236.236,0,0,1,474.169,468.941Zm-.924-2.786,1.051,2.267,14.409-4.411-2.824-6.052Z" transform="translate(-472.712 -457.381)"/>
            </g>
            <path id="パス_10871" data-name="パス 10871" d="M552.49,461.77h0a1.167,1.167,0,0,1-1.562-.532l-2.873-5.843a1.167,1.167,0,0,1,.532-1.562h0a1.167,1.167,0,0,1,1.562.532l2.873,5.843A1.167,1.167,0,0,1,552.49,461.77Z" transform="translate(-532.855 -453.712)" fill="#5479f7"/>
          </g>
          <g id="グループ_5538" data-name="グループ 5538" transform="translate(39.45 8.985)">
            <path id="パス_10872" data-name="パス 10872" d="M494.952,517.067s-.3-3.22-.381-3.781.274-.659.448-.6c.226.079.4.551.508.931a.635.635,0,0,0,.647.464l1.265-.09-.824,3.129Z" transform="translate(-494.324 -512.438)" fill="#fff"/>
            <path id="パス_10873" data-name="パス 10873" d="M495.349,516.09h-.008l-1.663-.055a.234.234,0,0,1-.226-.213c0-.032-.3-3.219-.379-3.767a.757.757,0,0,1,.214-.752.573.573,0,0,1,.544-.1c.166.059.415.235.656,1.088a.4.4,0,0,0,.407.294l1.261-.09a.235.235,0,0,1,.243.294l-.824,3.129A.235.235,0,0,1,495.349,516.09Zm-1.448-.517,1.269.042.692-2.631-.937.067a.864.864,0,0,1-.889-.634c-.164-.58-.316-.755-.361-.773a.106.106,0,0,0-.089.021c-.055.045-.073.165-.05.32C493.611,512.469,493.834,514.847,493.9,515.573Z" transform="translate(-493.058 -511.171)"/>
          </g>
          <g id="グループ_5545" data-name="グループ 5545" transform="translate(0 40.447)">
            <g id="グループ_5539" data-name="グループ 5539" transform="translate(0 2.292)">
              <path id="パス_10874" data-name="パス 10874" d="M254.652,739.337h-11.3a1.071,1.071,0,0,1-1.049-1.286l1.714-8.331a1.507,1.507,0,0,1,1.476-1.2h9.689Z" transform="translate(-242.051 -728.282)" fill="#99b9ff"/>
              <path id="パス_10875" data-name="パス 10875" d="M253.387,738.307h-11.3a1.306,1.306,0,0,1-1.279-1.568l1.714-8.331a1.748,1.748,0,0,1,1.706-1.391h9.689a.235.235,0,0,1,.234.246l-.534,10.821A.235.235,0,0,1,253.387,738.307Zm-9.155-10.821a1.277,1.277,0,0,0-1.246,1.016l-1.714,8.331a.836.836,0,0,0,.819,1h11.073l.511-10.352Z" transform="translate(-240.785 -727.017)"/>
            </g>
            <g id="グループ_5540" data-name="グループ 5540" transform="translate(10.55 2.292)">
              <path id="パス_10876" data-name="パス 10876" d="M313.014,739.337h-2.192a1.071,1.071,0,0,1-1.049-1.286l1.888-9.176a.449.449,0,0,1,.44-.358h.564a.449.449,0,0,1,.447.412l.772,9.465A.872.872,0,0,1,313.014,739.337Z" transform="translate(-309.517 -728.282)" fill="#5479f7"/>
              <path id="パス_10877" data-name="パス 10877" d="M311.75,738.307h-2.192a1.305,1.305,0,0,1-1.279-1.568l1.888-9.176a.686.686,0,0,1,.669-.546h.564a.687.687,0,0,1,.681.628l.772,9.465a1.107,1.107,0,0,1-1.1,1.2Zm-.914-10.821a.215.215,0,0,0-.21.171l-1.888,9.176a.836.836,0,0,0,.819,1h2.192a.638.638,0,0,0,.636-.69l-.772-9.465a.215.215,0,0,0-.213-.2Z" transform="translate(-308.252 -727.017)"/>
            </g>
            <path id="パス_10878" data-name="パス 10878" d="M263.3,735.346h-7.954a.235.235,0,1,1,0-.469H263.3a.33.33,0,0,0,.322-.255l.78-3.291a.235.235,0,1,1,.456.108l-.78,3.291A.8.8,0,0,1,263.3,735.346Z" transform="translate(-252.868 -728.212)"/>
            <g id="グループ_5541" data-name="グループ 5541" transform="translate(4.762 6.665)">
              <path id="パス_10879" data-name="パス 10879" d="M275.388,756.482l-.248,1a.375.375,0,0,1-.365.289h-1.752a.288.288,0,0,1-.278-.366l.257-.922Z" transform="translate(-272.501 -756.247)" fill="#fff"/>
              <path id="パス_10880" data-name="パス 10880" d="M273.509,756.738h-1.752a.523.523,0,0,1-.5-.663l.257-.922a.235.235,0,0,1,.226-.172h2.385a.235.235,0,0,1,.228.291l-.248,1A.606.606,0,0,1,273.509,756.738Zm-1.595-1.288-.209.751a.054.054,0,0,0,.052.068h1.752a.14.14,0,0,0,.137-.108l.176-.711Z" transform="translate(-271.234 -754.981)"/>
            </g>
            <g id="グループ_5544" data-name="グループ 5544" transform="translate(4.759)">
              <g id="グループ_5542" data-name="グループ 5542" transform="translate(0 0.173)">
                <path id="パス_10881" data-name="パス 10881" d="M279.089,717.03l.2-1.044c.094-.654-.252-1.019-.75-1.019h-4.569a1.23,1.23,0,0,0-1.053,1.019l-.2,1.044h.734l.178-.888a.634.634,0,0,1,.689-.584h3.847c.388,0,.433.2.368.584l-.177.888Z" transform="translate(-272.482 -714.732)" fill="#fff"/>
                <path id="パス_10882" data-name="パス 10882" d="M277.823,716h-.733a.235.235,0,0,1-.23-.281l.177-.888c.038-.227.012-.277.008-.282h0a.308.308,0,0,0-.146-.022h-3.847a.4.4,0,0,0-.458.388l-.179.895a.235.235,0,0,1-.23.189h-.734a.235.235,0,0,1-.23-.279l.2-1.044a1.468,1.468,0,0,1,1.283-1.209h4.569a.977.977,0,0,1,.755.322,1.158,1.158,0,0,1,.227.965l-.206,1.055A.234.234,0,0,1,277.823,716Zm-.447-.469h.254l.167-.854a.719.719,0,0,0-.119-.58.518.518,0,0,0-.4-.16h-4.569a1,1,0,0,0-.822.824l-.15.77h.256l.14-.7a.867.867,0,0,1,.919-.772H276.9a.621.621,0,0,1,.5.188.8.8,0,0,1,.094.669Z" transform="translate(-271.217 -713.467)"/>
              </g>
              <g id="グループ_5543" data-name="グループ 5543" transform="translate(1.268)">
                <path id="パス_10883" data-name="パス 10883" d="M285.082,713.862h-3.863a.347.347,0,0,0-.329.282l-.057.337a.232.232,0,0,0,.234.282h3.863a.347.347,0,0,0,.329-.282l.057-.337A.232.232,0,0,0,285.082,713.862Z" transform="translate(-280.594 -713.627)" fill="#99b9ff"/>
                <path id="パス_10884" data-name="パス 10884" d="M283.665,713.733H279.8a.473.473,0,0,1-.363-.164.48.48,0,0,1-.1-.391l.057-.337a.583.583,0,0,1,.561-.478h3.863a.473.473,0,0,1,.363.164.479.479,0,0,1,.1.391l-.057.337A.583.583,0,0,1,283.665,713.733Zm-3.712-.9a.115.115,0,0,0-.1.086l-.057.337,3.866.009a.114.114,0,0,0,.1-.086l.057-.337,0-.008Z" transform="translate(-279.328 -712.362)"/>
              </g>
            </g>
            <path id="パス_10885" data-name="パス 10885" d="M315.2,743.583a.235.235,0,0,1-.116-.439l1.4-.8v-7.283a.235.235,0,1,1,.469,0v7.42a.235.235,0,0,1-.118.2l-1.514.863A.234.234,0,0,1,315.2,743.583Z" transform="translate(-303.367 -731.317)" fill="#99b9ff"/>
          </g>
          <g id="グループ_5546" data-name="グループ 5546" transform="translate(5.981 35.935)">
            <path id="パス_10886" data-name="パス 10886" d="M281.3,688.013c.208-.248.477-.538.708-.767a19.928,19.928,0,0,0,1.3-2.237l1.744.494s-.815,1.427-.62,2.137c.155.564.26,1.143.411,1.712-.033-.124-1.847.1-1.952.371a.51.51,0,0,0,.008.339c.125.379.581.416.7.7a1.939,1.939,0,0,1-1.192.292c-.848-.031-1.7-.36-1.848-1.293A2.244,2.244,0,0,1,281.3,688.013Z" transform="translate(-280.296 -684.774)" fill="#fff"/>
            <path id="パス_10887" data-name="パス 10887" d="M281.232,690.024l-.11,0c-1.174-.043-1.929-.586-2.071-1.491a2.469,2.469,0,0,1,.8-1.935h0c.21-.251.481-.543.723-.783a18.028,18.028,0,0,0,1.253-2.177.235.235,0,0,1,.272-.119l1.744.494a.235.235,0,0,1,.14.342,3.721,3.721,0,0,0-.6,1.958c.084.3.154.616.222.917.059.263.12.534.19.8h0a.234.234,0,0,1-.348.261,5.016,5.016,0,0,0-1.62.284.336.336,0,0,0,.019.153c.039.118.136.186.292.285a.888.888,0,0,1,.4.4.235.235,0,0,1-.078.277A2.12,2.12,0,0,1,281.232,690.024ZM280.21,686.9a2.034,2.034,0,0,0-.7,1.56c.142.906,1.079,1.075,1.625,1.095a2.081,2.081,0,0,0,.8-.115l-.051-.032a1.021,1.021,0,0,1-.488-.535.737.737,0,0,1,0-.5c.15-.389,1.37-.518,1.863-.548-.04-.166-.077-.332-.114-.494-.067-.3-.135-.6-.216-.895a3.556,3.556,0,0,1,.5-2.053l-1.28-.362a15.544,15.544,0,0,1-1.252,2.125c-.229.227-.495.514-.693.751Z" transform="translate(-279.031 -683.509)"/>
          </g>
          <path id="パス_10888" data-name="パス 10888" d="M294.546,562.612l1.641.851a.426.426,0,0,0,.574-.178c.835-1.573,4.452-8.1,8.238-10.251.278-.158.7.009.681.329-.051,1-.673,4.72-.863,8.164a.9.9,0,0,0,.736.94l1.656.307a12.5,12.5,0,0,0,6.79-.5.9.9,0,0,0,.6-.867,42.121,42.121,0,0,1,2.906-7.957,2,2,0,0,1,1.765-1.159c2.025-.194,4.931-.063,7.412-1.18a1.6,1.6,0,0,0,.922-1.175,42.889,42.889,0,0,0,.781-10.4.453.453,0,0,0-.429-.41l-2.2-.107a.452.452,0,0,0-.46.339,53.36,53.36,0,0,1-1.969,6.56,1.255,1.255,0,0,1-1.316.587,45.019,45.019,0,0,0-5.464-2.093c-3.089-.8-3.377,0-5.5-.126-2.745-.167-6.7,1.421-9.352,4.078-2.114,2.114-5.72,8.971-7.355,13.734A.427.427,0,0,0,294.546,562.612Z" transform="translate(-285.944 -525.675)" fill="#5479f7"/>
        </g>
        <g id="グループ_5549" data-name="グループ 5549" transform="translate(3.473 7.846)">
          <path id="パス_10889" data-name="パス 10889" d="M289.064,506.773a1.334,1.334,0,0,0-.873-.88l-1.8-.569a3,3,0,0,0-2.933.649l-.018.016a3.069,3.069,0,0,0-.661.874c-.644-.353-2.784-1.465-4.617-2.413a5.03,5.03,0,0,0-5.447.533h0a12.481,12.481,0,0,1-4.356,2.242l-5.305,1.513a.088.088,0,0,0-.033.152l.727.617a7.033,7.033,0,0,0,4.046,1.653l1.7.122a.214.214,0,0,1,.106.39,10.228,10.228,0,0,1-3.441,1.529l-1.512.359a.088.088,0,0,0-.006.17l1.946.615a6.525,6.525,0,0,0,4.918-.4l2.537-1.287h0a7.217,7.217,0,0,1-2.328,2.727h0a.088.088,0,0,0,.064.16l.88-.134a6.606,6.606,0,0,0,4.691-3.17h0a9.215,9.215,0,0,1,3.1-3.157l2.026-1.25a3.068,3.068,0,0,0,.184,1.551l.254.644a2.91,2.91,0,0,0,2.3,1.814l3.686-4.3A.812.812,0,0,0,289.064,506.773Z" transform="translate(-262.993 -503.887)"/>
          <g id="グループ_5548" data-name="グループ 5548" transform="translate(19.016 2.695)">
            <path id="パス_10890" data-name="パス 10890" d="M388.691,524.527a.185.185,0,0,0,.251-.126,2.579,2.579,0,0,1,1.267-1.626c.824-.322,1.843-.2,2.154.412.271.538.14.906.871,1.546.07.061.035.181-.03.247l-.343.386a.69.69,0,0,0-.108.4,3.415,3.415,0,0,1-.022,1.108,3.7,3.7,0,0,1-1.28.3l-.428,3.077a.207.207,0,0,0,.185.235l1.121.112s-.7,1.354-3.306,1.563a5.766,5.766,0,0,1-2.93-.546,5.147,5.147,0,0,0,2.9-5.046.237.237,0,0,0-.125-.2c-.284-.153-1.057-.612-1.021-1.2C387.887,524.54,388.33,524.38,388.691,524.527Z" transform="translate(-385.859 -522.369)" fill="#fff"/>
            <path id="パス_10891" data-name="パス 10891" d="M387.315,531.161a5.919,5.919,0,0,1-2.6-.591.235.235,0,0,1,.023-.424,4.876,4.876,0,0,0,2.755-4.821c-.447-.24-1.188-.743-1.146-1.422a.96.96,0,0,1,.406-.789.816.816,0,0,1,.708-.069,2.79,2.79,0,0,1,1.4-1.735c.878-.342,2.063-.239,2.449.525a2.933,2.933,0,0,1,.189.5,1.748,1.748,0,0,0,.627.973.349.349,0,0,1,.118.254.465.465,0,0,1-.136.335l-.335.376a.571.571,0,0,0-.049.23c0,.049.006.107.01.169.043.713.035.974-.1,1.112a2.565,2.565,0,0,1-1.244.351l-.4,2.866,1.094.109a.235.235,0,0,1,.185.341c-.031.06-.787,1.472-3.5,1.69C387.619,531.155,387.465,531.161,387.315,531.161Zm-1.946-.821a5.683,5.683,0,0,0,2.37.335,4.337,4.337,0,0,0,2.88-1.138l-.7-.07a.442.442,0,0,1-.394-.5l.428-3.077a.235.235,0,0,1,.212-.2,4.23,4.23,0,0,0,1.109-.212,5.341,5.341,0,0,0-.011-.774c0-.064-.008-.124-.01-.174a.9.9,0,0,1,.176-.574l.315-.355a2.152,2.152,0,0,1-.7-1.127,2.479,2.479,0,0,0-.159-.427c-.234-.464-1.085-.6-1.859-.3a2.355,2.355,0,0,0-1.125,1.464.42.42,0,0,1-.567.287h0a.363.363,0,0,0-.332.013.509.509,0,0,0-.188.421c-.019.3.317.667.9.978a.472.472,0,0,1,.249.4A5.458,5.458,0,0,1,385.369,530.34Zm5.9-4.834Z" transform="translate(-384.594 -521.123)"/>
          </g>
        </g>
      </g>
      <g id="グループ_5558" data-name="グループ 5558" transform="translate(99.831 1.669)">
        <g id="グループ_5551" data-name="グループ 5551" transform="translate(13.324 22.2)">
          <rect id="長方形_10074" data-name="長方形 10074" width="3.187" height="8.497" transform="translate(0.235 0.235)" fill="#5479f7"/>
          <path id="パス_10892" data-name="パス 10892" d="M967.8,349.341h-3.187a.235.235,0,0,1-.235-.235v-8.5a.235.235,0,0,1,.235-.235H967.8a.235.235,0,0,1,.235.235v8.5A.235.235,0,0,1,967.8,349.341Zm-2.952-.469h2.717v-8.028h-2.717Z" transform="translate(-964.382 -340.375)"/>
        </g>
        <g id="グループ_5552" data-name="グループ 5552" transform="translate(12.004 28.444)">
          <rect id="長方形_10075" data-name="長方形 10075" width="5.793" height="2.382" rx="1.191" transform="translate(0.235 0.235)" fill="#5479f7"/>
          <path id="パス_10893" data-name="パス 10893" d="M961.013,383.153h-3.879a1.193,1.193,0,0,1-1.192-1.192v-.467a1.193,1.193,0,0,1,1.192-1.192h3.879a1.193,1.193,0,0,1,1.192,1.192v.467A1.193,1.193,0,0,1,961.013,383.153Zm-3.879-2.382a.724.724,0,0,0-.723.723v.467a.723.723,0,0,0,.723.723h3.879a.723.723,0,0,0,.723-.723v-.467a.724.724,0,0,0-.723-.723Z" transform="translate(-955.943 -380.302)"/>
        </g>
        <g id="グループ_5553" data-name="グループ 5553" transform="translate(8.85 30.44)">
          <path id="長方形_10076" data-name="長方形 10076" d="M1.867,0h8.368A1.867,1.867,0,0,1,12.1,1.867v0a0,0,0,0,1,0,0H0a0,0,0,0,1,0,0v0A1.867,1.867,0,0,1,1.867,0Z" transform="translate(0.235 0.235)" fill="#5479f7"/>
          <path id="パス_10894" data-name="パス 10894" d="M948.108,395.4h-12.1a.234.234,0,0,1-.234-.235V394.8a1.737,1.737,0,0,1,1.735-1.735h9.1a1.737,1.737,0,0,1,1.735,1.735v.366A.235.235,0,0,1,948.108,395.4Zm-11.867-.469h11.632V394.8a1.268,1.268,0,0,0-1.266-1.266h-9.1a1.268,1.268,0,0,0-1.266,1.266Z" transform="translate(-935.772 -393.063)"/>
        </g>
        <g id="グループ_5554" data-name="グループ 5554" transform="translate(0 4.322)">
          <path id="パス_10895" data-name="パス 10895" d="M893.127,245.012a33.283,33.283,0,0,1-9.17-7.773c-1.526-1.88-3.959-5.4-3.115-7.837a2.728,2.728,0,0,1,2.432-1.8,11.29,11.29,0,0,1,4.578.641l-.414,1.676a10,10,0,0,0-3.973-.592c-.643.088-1.036.325-1.167.7-.311.9.439,3.117,2.817,6.047a31.629,31.629,0,0,0,8.715,7.386Z" transform="translate(-880.436 -227.315)" fill="#5479f7"/>
          <path id="パス_10896" data-name="パス 10896" d="M891.872,243.983a.234.234,0,0,1-.115-.03,33.532,33.532,0,0,1-9.237-7.83c-1.556-1.918-4.036-5.517-3.155-8.062a2.95,2.95,0,0,1,2.622-1.959,11.507,11.507,0,0,1,4.678.649.234.234,0,0,1,.159.281l-.414,1.676a.234.234,0,0,1-.3.168,9.8,9.8,0,0,0-3.872-.584c-.549.075-.877.26-.977.548-.28.81.469,2.978,2.778,5.823a31.39,31.39,0,0,0,8.647,7.329.235.235,0,0,1,.1.3l-.7,1.552a.234.234,0,0,1-.214.138Zm-9.079-17.463a5.435,5.435,0,0,0-.742.047,2.507,2.507,0,0,0-2.243,1.648c-.807,2.331,1.581,5.77,3.076,7.613a33.124,33.124,0,0,0,8.88,7.59l.508-1.123a31.946,31.946,0,0,1-8.595-7.337c-2.141-2.639-3.262-5.1-2.857-6.272.162-.469.619-.758,1.357-.859a9.8,9.8,0,0,1,3.836.529l.3-1.22A12.841,12.841,0,0,0,882.793,226.519Z" transform="translate(-879.18 -226.05)"/>
        </g>
        <g id="グループ_5555" data-name="グループ 5555" transform="translate(16.753 4.226)">
          <path id="パス_10897" data-name="パス 10897" d="M988.505,244.4a32.89,32.89,0,0,0,9.021-7.773c1.5-1.88,3.9-5.4,3.065-7.838a2.693,2.693,0,0,0-2.393-1.8,10.938,10.938,0,0,0-4.5.641l.407,1.676a9.691,9.691,0,0,1,3.908-.592c.633.088,1.019.325,1.148.7.306.9-.432,3.117-2.771,6.048a31.257,31.257,0,0,1-8.573,7.386Z" transform="translate(-987.579 -226.698)" fill="#5479f7"/>
          <path id="パス_10898" data-name="パス 10898" d="M987.239,243.365a.228.228,0,0,1-.073-.012.234.234,0,0,1-.141-.127l-.692-1.552a.235.235,0,0,1,.1-.3,31.009,31.009,0,0,0,8.506-7.329c2.271-2.846,3.009-5.015,2.733-5.826-.1-.288-.421-.472-.958-.547a9.484,9.484,0,0,0-3.806.584.234.234,0,0,1-.3-.169l-.408-1.676a.235.235,0,0,1,.158-.279,11.158,11.158,0,0,1,4.605-.65,2.914,2.914,0,0,1,2.583,1.96c.866,2.544-1.573,6.141-3.1,8.059a33.134,33.134,0,0,1-9.088,7.83A.235.235,0,0,1,987.239,243.365Zm-.391-1.689.5,1.121a32.741,32.741,0,0,0,8.73-7.586c1.471-1.843,3.82-5.283,3.026-7.615a2.472,2.472,0,0,0-2.2-1.647,10.384,10.384,0,0,0-4.191.569l.3,1.219a9.492,9.492,0,0,1,3.771-.527c.728.1,1.178.391,1.338.86.4,1.171-.7,3.632-2.81,6.27A31.575,31.575,0,0,1,986.848,241.676Z" transform="translate(-986.313 -225.433)"/>
        </g>
        <g id="グループ_5556" data-name="グループ 5556" transform="translate(4.432 1.602)">
          <path id="パス_10899" data-name="パス 10899" d="M919.516,231.848c8.506.095,8.6-11.989,10.428-21.615l-20.92-.077C910.715,220.059,911.023,232.009,919.516,231.848Z" transform="translate(-908.789 -209.921)" fill="#5479f7"/>
          <path id="パス_10900" data-name="パス 10900" d="M918.082,230.819c-7.32,0-8.621-8.9-9.88-17.515-.212-1.448-.43-2.945-.674-4.373a.235.235,0,0,1,.231-.274h0l20.92.077a.235.235,0,0,1,.23.279c-.311,1.638-.577,3.377-.834,5.059-1.262,8.271-2.565,16.828-9.824,16.746Zm-10.046-21.693c.226,1.35.431,2.751.63,4.109.625,4.275,1.271,8.7,2.646,11.922,1.507,3.538,3.66,5.192,6.766,5.192l.168,0h.007c3.1.031,5.247-1.548,6.748-4.981,1.345-3.078,1.989-7.291,2.611-11.367.243-1.592.494-3.235.784-4.8Z" transform="translate(-907.524 -208.656)"/>
        </g>
        <path id="パス_10901" data-name="パス 10901" d="M1022.164,226.694a.235.235,0,0,1-.23-.282c.387-1.884.65-3.943.9-5.935.169-1.326.344-2.7.554-4.008a.235.235,0,1,1,.463.074c-.209,1.3-.384,2.67-.552,3.993-.255,2-.519,4.068-.909,5.97A.235.235,0,0,1,1022.164,226.694Z" transform="translate(-999.606 -213.479)" fill="#caddff"/>
        <path id="パス_10902" data-name="パス 10902" d="M976.019,302.591a.235.235,0,0,1-.048-.464c3.183-.675,5.234-2.879,6.453-6.938a.235.235,0,0,1,.449.135c-1.274,4.24-3.437,6.547-6.805,7.262A.24.24,0,0,1,976.019,302.591Z" transform="translate(-960.677 -279.914)" fill="#caddff"/>
        <g id="グループ_5557" data-name="グループ 5557" transform="translate(3.407 0)">
          <rect id="長方形_10077" data-name="長方形 10077" width="23.172" height="2.752" rx="1.376" transform="translate(0.235 0.235)" fill="#5479f7"/>
          <path id="パス_10903" data-name="パス 10903" d="M923.27,201.631H902.311a1.342,1.342,0,0,1-1.341-1.341v-.54a1.342,1.342,0,0,1,1.341-1.341H923.27a1.342,1.342,0,0,1,1.341,1.341v.54A1.342,1.342,0,0,1,923.27,201.631Zm-20.959-2.752a.872.872,0,0,0-.872.872v.54a.872.872,0,0,0,.872.871H923.27a.872.872,0,0,0,.872-.871v-.54a.872.872,0,0,0-.872-.872Z" transform="translate(-900.97 -198.41)"/>
        </g>
        <path id="パス_10904" data-name="パス 10904" d="M1003.752,205.877a.235.235,0,0,1,0-.469l4.339-.048h0a.235.235,0,0,1,0,.469l-4.339.048Z" transform="translate(-984.074 -204.272)" fill="#caddff"/>
        <path id="パス_10905" data-name="パス 10905" d="M981.027,206.247a.235.235,0,0,1,0-.469l2.417-.027h0a.235.235,0,0,1,0,.469l-2.417.027Z" transform="translate(-964.903 -204.603)" fill="#caddff"/>
      </g>
      <g id="グループ_5563" data-name="グループ 5563" transform="translate(54.503 63.031)">
        <g id="グループ_5561" data-name="グループ 5561" transform="translate(5.563 5.35)">
          <g id="グループ_5559" data-name="グループ 5559">
            <path id="パス_10906" data-name="パス 10906" d="M634.063,630.444a3.79,3.79,0,0,0-3.868-3.926,3.966,3.966,0,0,0-3.806,3.995,3.876,3.876,0,0,0,1.033,2.683,2.832,2.832,0,0,1,.762,1.991l-.008.443a.64.64,0,0,0,.634.662l2.608,0a.671.671,0,0,0,.659-.663l.008-.441a2.875,2.875,0,0,1,.815-1.971A4.026,4.026,0,0,0,634.063,630.444Z" transform="translate(-626.154 -626.281)" fill="#fff"/>
            <path id="パス_10907" data-name="パス 10907" d="M627.544,635.26a.856.856,0,0,1-.615-.258.885.885,0,0,1-.253-.643l.008-.443a2.584,2.584,0,0,0-.7-1.826,4.11,4.11,0,0,1-1.1-2.845,4.184,4.184,0,0,1,4.033-4.228,3.923,3.923,0,0,1,2.9,1.143,4.1,4.1,0,0,1,1.212,3.022,4.251,4.251,0,0,1-1.232,2.931,2.656,2.656,0,0,0-.747,1.81l-.008.441a.907.907,0,0,1-.893.893l-2.608,0Zm1.5-9.775-.1,0a3.717,3.717,0,0,0-3.578,3.761,3.644,3.644,0,0,0,.969,2.522,3.051,3.051,0,0,1,.825,2.156l-.008.443a.421.421,0,0,0,.119.306.39.39,0,0,0,.28.118h0l2.608,0a.436.436,0,0,0,.425-.433l.008-.441a3.127,3.127,0,0,1,.882-2.132,3.784,3.784,0,0,0,1.1-2.609h0a3.634,3.634,0,0,0-1.073-2.68A3.454,3.454,0,0,0,629.04,625.485Z" transform="translate(-624.889 -625.016)"/>
          </g>
          <g id="グループ_5560" data-name="グループ 5560" transform="translate(2.098 9.731)">
            <path id="パス_10908" data-name="パス 10908" d="M641.385,691.468h0a1.594,1.594,0,0,1-1.581-1.65l.02-1.072,3.222,0-.02,1.072A1.67,1.67,0,0,1,641.385,691.468Z" transform="translate(-639.57 -688.509)" fill="#fff"/>
            <path id="パス_10909" data-name="パス 10909" d="M640.119,690.436a1.786,1.786,0,0,1-1.283-.538,1.861,1.861,0,0,1-.531-1.35l.024-1.3,3.692,0L642,688.553a1.908,1.908,0,0,1-1.876,1.883Zm-1.329-2.722-.016.842a1.4,1.4,0,0,0,.4,1.013,1.32,1.32,0,0,0,.948.4h0a1.437,1.437,0,0,0,1.408-1.422l.015-.833Z" transform="translate(-638.305 -687.242)"/>
          </g>
        </g>
        <g id="グループ_5562" data-name="グループ 5562" transform="translate(0 0)">
          <path id="パス_10910" data-name="パス 10910" d="M650.872,593.788h0a.235.235,0,0,1-.231-.239l.043-2.513a.242.242,0,0,1,.239-.231.235.235,0,0,1,.231.239l-.043,2.513A.235.235,0,0,1,650.872,593.788Z" transform="translate(-641.049 -590.805)" fill="#99b9ff"/>
          <path id="パス_10911" data-name="パス 10911" d="M592.293,655.641h0l-2.74-.048a.235.235,0,1,1,.008-.469l2.74.048a.235.235,0,0,1,0,.469Z" transform="translate(-589.318 -645.066)" fill="#99b9ff"/>
          <path id="パス_10912" data-name="パス 10912" d="M692.925,658.1h-.007l-2.549-.073a.235.235,0,0,1,.013-.469l2.548.074a.235.235,0,0,1-.007.469Z" transform="translate(-674.376 -647.12)" fill="#99b9ff"/>
          <path id="パス_10913" data-name="パス 10913" d="M606.95,612.521a.234.234,0,0,1-.17-.073l-1.874-1.978a.235.235,0,1,1,.341-.323l1.874,1.978a.235.235,0,0,1-.17.4Z" transform="translate(-602.413 -607.06)" fill="#99b9ff"/>
          <path id="パス_10914" data-name="パス 10914" d="M682.2,615.728a.235.235,0,0,1-.162-.4l1.972-1.889a.235.235,0,0,1,.324.339l-1.972,1.889A.233.233,0,0,1,682.2,615.728Z" transform="translate(-667.48 -609.841)" fill="#99b9ff"/>
        </g>
      </g>
      <g id="グループ_5565" data-name="グループ 5565" transform="translate(84.7 23.461)">
        <ellipse id="楕円形_247" data-name="楕円形 247" cx="5.838" cy="5.656" rx="5.838" ry="5.656" transform="translate(0 10.055) rotate(-59.447)" fill="#fff"/>
        <path id="パス_10915" data-name="パス 10915" d="M799.36,361.012a5.873,5.873,0,0,1-3.845-1.42,6.01,6.01,0,0,1-2.088-4.233,6.39,6.39,0,0,1,5.714-6.74,5.913,5.913,0,0,1,5.24,2.264.235.235,0,0,1-.371.288,5.446,5.446,0,0,0-4.826-2.084,5.918,5.918,0,0,0-5.289,6.244,5.545,5.545,0,0,0,1.925,3.906,5.426,5.426,0,0,0,4.063,1.283,5.918,5.918,0,0,0,5.289-6.244.235.235,0,1,1,.468-.029,6.39,6.39,0,0,1-5.714,6.74Q799.641,361.012,799.36,361.012Z" transform="translate(-791.695 -346.899)"/>
        <g id="グループ_5564" data-name="グループ 5564" transform="translate(5.848 4.232)">
          <path id="パス_10916" data-name="パス 10916" d="M821.556,372.016l-.032-.519a.167.167,0,0,0-.17-.155,3.586,3.586,0,0,1-1.232-.195.167.167,0,0,1-.107-.187l.138-.739a.164.164,0,0,1,.218-.125,3,3,0,0,0,1.307.184c.5-.046.834-.275.812-.632-.021-.34-.317-.528-.983-.691-.963-.235-1.635-.622-1.689-1.489a1.678,1.678,0,0,1,1.269-1.689.166.166,0,0,0,.115-.167l-.035-.561a.166.166,0,0,1,.15-.175l.534-.049a.166.166,0,0,1,.18.155l.028.456a.167.167,0,0,0,.171.155,3.108,3.108,0,0,1,1,.133.166.166,0,0,1,.112.189l-.132.706a.165.165,0,0,1-.213.127,2.681,2.681,0,0,0-1.111-.127c-.573.053-.743.32-.727.57.019.295.339.454,1.106.671,1.073.278,1.526.731,1.577,1.535a1.744,1.744,0,0,1-1.34,1.76.167.167,0,0,0-.118.168l.039.62a.166.166,0,0,1-.15.175l-.534.049A.165.165,0,0,1,821.556,372.016Z" transform="translate(-819.815 -364.827)" fill="#5479f7"/>
        </g>
      </g>
      <g id="グループ_5570" data-name="グループ 5570" transform="translate(0.105 1.899)">
        <g id="グループ_5567" data-name="グループ 5567" transform="translate(0 19.096)">
          <g id="グループ_5566" data-name="グループ 5566" transform="translate(0.862 0.592)">
            <path id="パス_10917" data-name="パス 10917" d="M262.014,332.014l-.388-1.416-1.6.073a6.1,6.1,0,0,0-.515-.884l.848-1.358-1.044-1.032-1.351.864a6.172,6.172,0,0,0-.887-.506l.055-1.6-1.42-.372-.737,1.421a6.092,6.092,0,0,0-1.023.007l-.753-1.415-1.416.388.073,1.6a6.083,6.083,0,0,0-.884.515l-1.358-.848-1.032,1.044.864,1.351a6.164,6.164,0,0,0-.506.887l-1.6-.055-.372,1.42,1.421.737a6.092,6.092,0,0,0,.007,1.023l-1.415.753.388,1.416,1.6-.073a6.07,6.07,0,0,0,.515.884l-.848,1.358,1.044,1.032,1.351-.864a6.178,6.178,0,0,0,.887.506l-.055,1.6,1.42.372.737-1.421a6.09,6.09,0,0,0,1.022-.007l.753,1.415,1.416-.388-.073-1.6a6.1,6.1,0,0,0,.884-.515l1.358.848,1.032-1.043-.864-1.351a6.156,6.156,0,0,0,.506-.887l1.6.055.372-1.42-1.421-.737a6.1,6.1,0,0,0-.007-1.023Zm-6.519,4.941a3.778,3.778,0,1,1,2.646-4.642A3.778,3.778,0,0,1,255.5,336.956Z" transform="translate(-246.967 -325.781)" fill="#99b9ff"/>
          </g>
          <path id="パス_10918" data-name="パス 10918" d="M248,337.524a.229.229,0,0,1-.059-.008l-1.42-.372a.234.234,0,0,1-.175-.235l.05-1.449a6.414,6.414,0,0,1-.65-.371l-1.222.781a.234.234,0,0,1-.291-.031l-1.043-1.032a.235.235,0,0,1-.034-.291l.767-1.228a6.362,6.362,0,0,1-.377-.648l-1.448.066a.233.233,0,0,1-.237-.172l-.388-1.416a.235.235,0,0,1,.116-.269l1.279-.681a6.359,6.359,0,0,1-.006-.75l-1.285-.666a.234.234,0,0,1-.119-.268l.372-1.42a.234.234,0,0,1,.235-.175l1.449.05a6.436,6.436,0,0,1,.371-.65l-.781-1.222a.235.235,0,0,1,.031-.291l1.032-1.043a.234.234,0,0,1,.291-.034l1.228.767a6.364,6.364,0,0,1,.648-.377l-.066-1.448a.235.235,0,0,1,.172-.237l1.416-.388a.235.235,0,0,1,.269.116l.681,1.279a6.322,6.322,0,0,1,.75-.006l.666-1.285a.235.235,0,0,1,.268-.119l1.42.372a.235.235,0,0,1,.175.235l-.05,1.449a6.42,6.42,0,0,1,.65.371l1.222-.781a.235.235,0,0,1,.291.031l1.044,1.032a.235.235,0,0,1,.034.291l-.767,1.228a6.32,6.32,0,0,1,.377.648l1.448-.066a.235.235,0,0,1,.237.172l.388,1.416a.234.234,0,0,1-.116.269l-1.279.681a6.321,6.321,0,0,1,.006.75l1.285.666a.235.235,0,0,1,.119.268l-.372,1.42a.237.237,0,0,1-.235.175l-1.449-.05a6.439,6.439,0,0,1-.371.65l.781,1.222a.235.235,0,0,1-.031.291l-1.032,1.043a.234.234,0,0,1-.291.034l-1.228-.767a6.3,6.3,0,0,1-.648.377l.066,1.448a.234.234,0,0,1-.172.237l-1.416.388a.234.234,0,0,1-.269-.116l-.681-1.279a6.325,6.325,0,0,1-.75.005l-.666,1.285A.234.234,0,0,1,248,337.524Zm-1.179-.786,1.057.277.651-1.255a.234.234,0,0,1,.227-.126,5.867,5.867,0,0,0,.983-.007.235.235,0,0,1,.228.123l.665,1.249,1.054-.288-.064-1.414a.235.235,0,0,1,.134-.222,5.867,5.867,0,0,0,.849-.495.235.235,0,0,1,.259-.007l1.2.749.768-.777-.763-1.193a.234.234,0,0,1,0-.259,5.937,5.937,0,0,0,.487-.854.234.234,0,0,1,.221-.136l1.415.049.277-1.057-1.255-.651a.234.234,0,0,1-.126-.226,5.851,5.851,0,0,0-.007-.983.235.235,0,0,1,.124-.228l1.249-.665-.289-1.054-1.414.064a.239.239,0,0,1-.222-.134,5.861,5.861,0,0,0-.495-.85.235.235,0,0,1-.007-.259l.749-1.2-.777-.768-1.193.763a.235.235,0,0,1-.259,0,5.936,5.936,0,0,0-.853-.487.234.234,0,0,1-.136-.221l.049-1.415-1.057-.277-.651,1.255a.236.236,0,0,1-.227.126,5.875,5.875,0,0,0-.983.007.235.235,0,0,1-.228-.124l-.665-1.249-1.054.289.064,1.414a.235.235,0,0,1-.133.223,5.844,5.844,0,0,0-.85.495.235.235,0,0,1-.259.007l-1.2-.748-.768.777.763,1.193a.234.234,0,0,1,0,.259,5.937,5.937,0,0,0-.487.853.237.237,0,0,1-.221.135l-1.415-.049-.277,1.057,1.255.651a.235.235,0,0,1,.126.226,5.855,5.855,0,0,0,.007.983.235.235,0,0,1-.124.228l-1.249.665.289,1.054,1.414-.064a.235.235,0,0,1,.223.134,5.86,5.86,0,0,0,.495.85.234.234,0,0,1,.007.259l-.748,1.2.777.768,1.193-.763a.234.234,0,0,1,.259,0,5.94,5.94,0,0,0,.853.486.235.235,0,0,1,.136.221Zm2.4-2.966a4.014,4.014,0,1,1,1.059-.143A4.02,4.02,0,0,1,249.221,333.772Zm0-7.559a3.545,3.545,0,1,0,3.412,2.609,3.549,3.549,0,0,0-3.412-2.609Z" transform="translate(-241.455 -321.994)"/>
        </g>
        <g id="グループ_5569" data-name="グループ 5569" transform="translate(12.768 0)">
          <g id="グループ_5568" data-name="グループ 5568" transform="translate(1.308 0.847)">
            <path id="パス_10919" data-name="パス 10919" d="M357.216,215.961l-.663-2.422-2.74.125a10.4,10.4,0,0,0-.881-1.512l1.451-2.324-1.785-1.766-2.311,1.478a10.548,10.548,0,0,0-1.518-.865l.095-2.742-2.429-.637-1.261,2.432a10.4,10.4,0,0,0-1.75.013l-1.289-2.422-2.422.663.124,2.74a10.407,10.407,0,0,0-1.512.881L336,208.152l-1.766,1.786,1.478,2.311a10.541,10.541,0,0,0-.866,1.518l-2.742-.094-.637,2.429,2.432,1.261a10.4,10.4,0,0,0,.013,1.75l-2.421,1.289.663,2.422,2.74-.124a10.389,10.389,0,0,0,.881,1.512l-1.451,2.324,1.786,1.766,2.311-1.478a10.531,10.531,0,0,0,1.518.866l-.095,2.742,2.43.637,1.261-2.432a10.4,10.4,0,0,0,1.75-.013l1.289,2.421L349,230.38l-.124-2.74a10.415,10.415,0,0,0,1.512-.881l2.324,1.451,1.766-1.786-1.478-2.311a10.562,10.562,0,0,0,.866-1.518l2.742.095.637-2.429L354.807,219a10.41,10.41,0,0,0-.012-1.75Zm-11.155,8.456a6.465,6.465,0,1,1,4.528-7.943A6.465,6.465,0,0,1,346.061,224.417Z" transform="translate(-331.467 -205.295)" fill="#99b9ff"/>
          </g>
          <path id="パス_10920" data-name="パス 10920" d="M334.144,226.123a.236.236,0,0,1-.059-.008l-2.429-.637a.235.235,0,0,1-.175-.235l.089-2.588a10.832,10.832,0,0,1-1.282-.731l-2.182,1.4a.234.234,0,0,1-.291-.031l-1.786-1.766a.234.234,0,0,1-.034-.291l1.369-2.193a10.687,10.687,0,0,1-.744-1.277l-2.586.117a.232.232,0,0,1-.237-.172l-.663-2.422a.235.235,0,0,1,.116-.269l2.285-1.216a10.682,10.682,0,0,1-.011-1.478l-2.3-1.19a.235.235,0,0,1-.119-.268l.637-2.429a.232.232,0,0,1,.235-.175l2.588.089a10.82,10.82,0,0,1,.731-1.282l-1.4-2.182a.235.235,0,0,1,.031-.291l1.766-1.786a.235.235,0,0,1,.291-.034l2.193,1.369a10.7,10.7,0,0,1,1.277-.744l-.117-2.586a.234.234,0,0,1,.172-.237l2.422-.663a.235.235,0,0,1,.269.116l1.216,2.285a10.657,10.657,0,0,1,1.478-.011l1.19-2.3a.234.234,0,0,1,.268-.119l2.429.637a.235.235,0,0,1,.175.235l-.089,2.588a10.835,10.835,0,0,1,1.282.731l2.182-1.4a.235.235,0,0,1,.291.031l1.786,1.766a.235.235,0,0,1,.034.291l-1.369,2.193a10.647,10.647,0,0,1,.744,1.277l2.586-.118a.236.236,0,0,1,.237.172l.663,2.422a.235.235,0,0,1-.116.269l-2.285,1.216a10.682,10.682,0,0,1,.011,1.478l2.3,1.19a.235.235,0,0,1,.119.268l-.637,2.43a.232.232,0,0,1-.235.175l-2.588-.089a10.835,10.835,0,0,1-.731,1.282l1.4,2.181a.234.234,0,0,1-.031.291l-1.766,1.786a.234.234,0,0,1-.291.034l-2.193-1.369a10.669,10.669,0,0,1-1.277.744l.117,2.586a.235.235,0,0,1-.173.237l-2.422.663a.235.235,0,0,1-.269-.116l-1.216-2.285a10.682,10.682,0,0,1-1.478.011l-1.19,2.3A.235.235,0,0,1,334.144,226.123Zm-2.188-1.051,2.066.542,1.174-2.266a.234.234,0,0,1,.227-.126,10.2,10.2,0,0,0,1.71-.012.236.236,0,0,1,.228.124l1.2,2.256,2.061-.564-.116-2.553a.235.235,0,0,1,.133-.223,10.171,10.171,0,0,0,1.478-.861.235.235,0,0,1,.259-.007l2.165,1.351,1.5-1.519-1.377-2.153a.234.234,0,0,1,0-.259,10.341,10.341,0,0,0,.846-1.484.233.233,0,0,1,.221-.136l2.555.088.542-2.067-2.266-1.174a.235.235,0,0,1-.126-.227,10.187,10.187,0,0,0-.012-1.71.235.235,0,0,1,.124-.228l2.256-1.2-.564-2.061-2.553.116a.24.24,0,0,1-.223-.134,10.191,10.191,0,0,0-.861-1.478.235.235,0,0,1-.007-.259l1.351-2.165-1.519-1.5-2.154,1.377a.235.235,0,0,1-.259,0,10.352,10.352,0,0,0-1.484-.846.235.235,0,0,1-.136-.221l.088-2.555-2.067-.542-1.175,2.266a.236.236,0,0,1-.227.126,10.17,10.17,0,0,0-1.71.012.237.237,0,0,1-.228-.123l-1.2-2.256-2.06.564.116,2.553a.235.235,0,0,1-.133.223,10.206,10.206,0,0,0-1.478.861.235.235,0,0,1-.259.007l-2.165-1.351-1.5,1.519,1.377,2.153a.234.234,0,0,1,0,.259,10.348,10.348,0,0,0-.846,1.485.238.238,0,0,1-.221.135l-2.555-.088-.542,2.067,2.266,1.175a.234.234,0,0,1,.126.226,10.209,10.209,0,0,0,.012,1.71.235.235,0,0,1-.124.228l-2.256,1.2.564,2.06,2.553-.116a.238.238,0,0,1,.222.133,10.194,10.194,0,0,0,.861,1.478.234.234,0,0,1,.007.259l-1.351,2.165,1.519,1.5,2.153-1.377a.234.234,0,0,1,.259,0,10.337,10.337,0,0,0,1.484.846.234.234,0,0,1,.136.221Zm4.257-5.367a6.71,6.71,0,1,1,1.78-.241h0A6.736,6.736,0,0,1,336.213,219.7Zm1.656-.693.062.226-.062-.226a6.231,6.231,0,1,0-4.731-.6A6.238,6.238,0,0,0,337.869,219.011Z" transform="translate(-323.103 -199.881)"/>
        </g>
      </g>
      <g id="グループ_5574" data-name="グループ 5574" transform="translate(21.35 1.602)">
        <g id="グループ_5571" data-name="グループ 5571" transform="translate(0 39.362)">
          <path id="パス_10921" data-name="パス 10921" d="M392.858,452.295a.235.235,0,0,1-.152-.413l.758-.646a.235.235,0,1,1,.3.357l-.757.646A.233.233,0,0,1,392.858,452.295Z" transform="translate(-390.23 -450.947)"/>
          <path id="パス_10922" data-name="パス 10922" d="M377.548,465.347a.235.235,0,0,1-.152-.413l.757-.646a.235.235,0,1,1,.3.357l-.758.646A.234.234,0,0,1,377.548,465.347Z" transform="translate(-377.314 -461.959)"/>
          <path id="パス_10923" data-name="パス 10923" d="M379.68,450.921a.234.234,0,0,1-.179-.082l-.646-.758a.235.235,0,0,1,.357-.3l.646.758a.235.235,0,0,1-.178.387Z" transform="translate(-378.567 -449.694)"/>
          <path id="パス_10924" data-name="パス 10924" d="M392.732,466.23a.234.234,0,0,1-.179-.082l-.646-.758a.235.235,0,0,1,.357-.3l.646.758a.234.234,0,0,1-.178.387Z" transform="translate(-389.578 -462.609)"/>
        </g>
        <g id="グループ_5572" data-name="グループ 5572" transform="translate(61.667 9.379)">
          <path id="パス_10925" data-name="パス 10925" d="M787.2,260.563a.235.235,0,0,1-.152-.413l.758-.646a.235.235,0,0,1,.3.357l-.758.646A.234.234,0,0,1,787.2,260.563Z" transform="translate(-784.571 -259.215)"/>
          <path id="パス_10926" data-name="パス 10926" d="M771.89,273.615a.235.235,0,0,1-.152-.413l.758-.646a.235.235,0,1,1,.3.357l-.758.646A.233.233,0,0,1,771.89,273.615Z" transform="translate(-771.656 -270.226)"/>
          <path id="パス_10927" data-name="パス 10927" d="M774.022,259.189a.234.234,0,0,1-.179-.082l-.646-.758a.235.235,0,0,1,.357-.3l.646.758a.235.235,0,0,1-.178.387Z" transform="translate(-772.909 -257.962)"/>
          <path id="パス_10928" data-name="パス 10928" d="M787.074,274.5a.234.234,0,0,1-.179-.082l-.646-.757a.235.235,0,0,1,.357-.3l.646.758a.235.235,0,0,1-.178.387Z" transform="translate(-783.92 -270.877)"/>
        </g>
        <g id="グループ_5573" data-name="グループ 5573" transform="translate(20.395)">
          <path id="パス_10929" data-name="パス 10929" d="M535.893,218.637a.234.234,0,0,1-.094-.02,41.216,41.216,0,0,0-18.986-3.008,42.511,42.511,0,0,0-8.777,1.452.235.235,0,0,1-.139-.448,42.957,42.957,0,0,1,8.871-1.472,41.686,41.686,0,0,1,19.219,3.045.235.235,0,0,1-.094.45Z" transform="translate(-507.732 -212.368)"/>
          <path id="パス_10930" data-name="パス 10930" d="M598.068,203.277a.234.234,0,0,1-.13-.039c-8.28-5.52-21.041-4.751-21.169-4.743a.235.235,0,0,1-.031-.468c.13-.009,13.047-.788,21.46,4.821a.235.235,0,0,1-.13.43Z" transform="translate(-565.763 -197.984)"/>
        </g>
        <path id="パス_10931" data-name="パス 10931" d="M485.888,566.319a.235.235,0,0,1-.136-.426l24.159-17.122a.235.235,0,0,1,.271.383l-24.159,17.122A.233.233,0,0,1,485.888,566.319Z" transform="translate(-468.712 -493.878)" fill="#fff"/>
        <path id="パス_10932" data-name="パス 10932" d="M531.888,538.3a.235.235,0,0,1-.136-.426l11.087-7.858a.235.235,0,0,1,.271.383l-11.087,7.858A.234.234,0,0,1,531.888,538.3Z" transform="translate(-507.518 -478.058)" fill="#fff"/>
        <path id="パス_10933" data-name="パス 10933" d="M612.345,346.334a.235.235,0,0,1-.121-.436l25.363-15.284a.235.235,0,1,1,.242.4L612.466,346.3A.234.234,0,0,1,612.345,346.334Z" transform="translate(-575.393 -309.846)" fill="#fff"/>
        <path id="パス_10934" data-name="パス 10934" d="M664,316.575a.235.235,0,0,1-.121-.435l11.639-7.014a.235.235,0,1,1,.242.4l-11.639,7.014A.233.233,0,0,1,664,316.575Z" transform="translate(-618.973 -291.717)" fill="#fff"/>
      </g>
    </g>
  </g>
</svg>
