<svg xmlns="http://www.w3.org/2000/svg" width="130" height="130.15" viewBox="0 0 130 130.15">
  <g id="グループ_5634" data-name="グループ 5634" transform="translate(-2803.636 -3160.566)">
    <g id="International_business" data-name="International business" transform="translate(2803.636 3160.566)">
      <path id="パス_4081" data-name="パス 4081" d="M363.616,353.306c26.366-14.406,61.688.561,80.093,17.152,5.258,4.74,18.008,16.564,21.018,35.514,3.74,23.54-8.5,52.073-36.576,64.278-30.558,13.284-64.726.694-80.718-19.742-14.956-19.113-11.962-41.618-10.893-49.658C337.8,391.418,341.527,365.375,363.616,353.306Z" transform="translate(-335.384 -346.619)" fill="#caddff"/>
      <g id="グループ_3046" data-name="グループ 3046" transform="translate(21.15 0)">
        <g id="グループ_3040" data-name="グループ 3040" transform="translate(0 0)">
          <g id="グループ_3039" data-name="グループ 3039" transform="translate(0.235 0.235)">
            <ellipse id="楕円形_109" data-name="楕円形 109" cx="48.425" cy="48.753" rx="48.425" ry="48.753" fill="#fff"/>
            <g id="グループ_3038" data-name="グループ 3038" transform="translate(8.946 2.232)">
              <path id="パス_4082" data-name="パス 4082" d="M1135.517,371.49c-.2.294.392,1.283,1.568,1.283s1.764-.2,2.255,1.086-.2,5.625.49,7.2,1.862,2.566,2.744,1.678.784-3.257,1.863-3.849,5-2.961,5.2-4.934-1.176-3.454-4.607-3.849S1136.987,369.318,1135.517,371.49Z" transform="translate(-1108.845 -369.798)" fill="#caddff"/>
              <path id="パス_4083" data-name="パス 4083" d="M908.636,1008.42a1.4,1.4,0,0,0-.71,1.279c.069,1.655-.554,5.78-1.862,7.1-1.666,1.678-1.052,4.7-1.078,5.921-.053,2.478.185,3.581,2.832,4.765s3.683,1.252,3.879,3.62.5,11.518,1.285,13.886,2.451,6.217,3.333,7.106,2.941,1.382,1.666-1.974-2.059-4.934-.588-6.809,3.921-6.217,4.117-7.9,1.078-2.665,1.863-2.862a7.383,7.383,0,0,0,2.941-1.382c.49-.592-.49-2.27-.784-3.75s-.294-2.369,2.157-3.553,1.274-4.54-2.059-5.428-5.391-2.763-5-4.638-2.255-1.678-3.823-2.566-1.521-2.283-3.267-2.948A5.61,5.61,0,0,0,908.636,1008.42Z" transform="translate(-894.631 -962.511)" fill="#99b9ff"/>
              <path id="パス_4084" data-name="パス 4084" d="M1438.773,447.783c-.826-1.247-.723-3.223,1.342-5.925,1.622-2.123-.706-4.246-1.779-5.059a.272.272,0,0,1,.137-.487c1.33-.152,4.415.3,5.772,7.21,1.755,8.94,2.478,5.821,3.407,4.782s-.809-2.981.929-4.99a10.077,10.077,0,0,0,1.935-4.619,48.786,48.786,0,0,0-25.938-32.141c.019,1.557-.354,6.979-6.662,4.743,0,0-3.923-1.871-2.994,5.717s4.13-.52,4.75-.832,2.272-.728,1.549,4.366c0,0-.1,1.767-3.3,1.455s-3.82,1.247-3.82,2.079.31,3.014-1.445,4.574-1.239,5.613,1.135,4.262,4.027-5.613,6.2-6.029,4.13,2.391,6.2,1.663,1.136-4.262,2.168-4.262,3.2,2.079,2.891,3.638-3.511,2.287-2.685,4.158,2.581,1.247,3.1,2.495-2.581,2.7-5.059,1.143-2.891.728-4.13-.312-1.342-3.222-3.1-2.495-2.788,2.183-5.059,3.222-4.13,2.391-4.13,3.846.826,3.015.413,5.3-1.136,8.524,6.3,7.277,6.5,2.6,6.5,3.014-.1,5.821.62,6.757a5.791,5.791,0,0,1,0,7.172c-2.375,3.534-1.446,11.435.723,10.4s4.337-5.093,7.021-7.173,6.4-11.123,4.853-13.929,2.168-5.094,2.685-6.965A4.188,4.188,0,0,0,1438.773,447.783Z" transform="translate(-1364.037 -403.944)" fill="#99b9ff"/>
              <path id="パス_4085" data-name="パス 4085" d="M764.825,436.583a10.268,10.268,0,0,1-1.273,5.382c-3.039,5.329-2.941,7.994-3.235,13.323s6.395,14.723,8.061,15.71,1.923-1.361,1.923-3.236a16.386,16.386,0,0,0-1.692-6.3c-.98-2.171-.98-3.553-.686-4.441a1.284,1.284,0,0,1,2.255-.3c.784.888,2.669,1.676,3.575,1.121,1.113-.682.68-3.353,1.072-4.241s2.549-1.48,3.431-3.355,2.353-2.665,4.117-3.553,3.333-1.283,3.627-1.875-.1-1.974.392-3.553,1.666-3.454,1.176-4.244-1.961-2.072-4.705-.1-3.431,1.974-4.215.493.882-5.329,4.313-5.329,4.117-1.184,4.215-2.072-.98-1.875-2.157-2.073-1.372.493-6.273,2.467a13,13,0,0,1-7.7.657A48.821,48.821,0,0,0,764.825,436.583Z" transform="translate(-760.308 -423.793)" fill="#99b9ff"/>
              <path id="パス_4086" data-name="パス 4086" d="M1800.424,1148.681c-.732-.164-.569,1.637-1.545,1.964s-1.382.818-1.138,2.619-.162,4.174-1.138,5.074-2.358,1.555-2.439,3.764-2.114,4.338-3.333,5.074-3.089,1.882-3.089,3.765a18.67,18.67,0,0,0,.248,3.953,48.769,48.769,0,0,0,13.353-23.483C1801.153,1150.2,1800.842,1148.774,1800.424,1148.681Z" transform="translate(-1714.803 -1093.377)" fill="#99b9ff"/>
            </g>
          </g>
          <path id="パス_4087" data-name="パス 4087" d="M679.638,433.017a48.179,48.179,0,0,1-34.408-14.349,49.222,49.222,0,0,1,0-69.278,48.43,48.43,0,0,1,68.817,0,49.222,49.222,0,0,1,0,69.278A48.179,48.179,0,0,1,679.638,433.017Zm0-97.505a48.518,48.518,0,1,0,48.19,48.517A48.409,48.409,0,0,0,679.638,335.512Z" transform="translate(-630.978 -335.041)"/>
        </g>
        <g id="グループ_3041" data-name="グループ 3041" transform="translate(13.796 8.826)">
          <path id="パス_4088" data-name="パス 4088" d="M830.852,459.37a5.565,5.565,0,0,0-5.546,5.584,8.511,8.511,0,0,0,.867,3.033,57.644,57.644,0,0,0,4.46,7.728.265.265,0,0,0,.44,0c1.029-1.524,5.326-8.047,5.326-10.762A5.565,5.565,0,0,0,830.852,459.37Zm0,8.137a2.553,2.553,0,1,1,2.536-2.553A2.545,2.545,0,0,1,830.852,467.507Z" transform="translate(-825.306 -459.37)" fill="#5479f7"/>
          <path id="パス_4089" data-name="パス 4089" d="M874.425,500.18a2.739,2.739,0,0,1-1.694-.587,2.774,2.774,0,0,1-1.05-1.854.235.235,0,1,1,.467-.059,2.307,2.307,0,0,0,.873,1.542,2.289,2.289,0,0,0,3.227-.41,2.332,2.332,0,0,0-.407-3.253,2.273,2.273,0,0,0-1.332-.485.235.235,0,0,1-.227-.243.232.232,0,0,1,.243-.227,2.739,2.739,0,0,1,1.606.585,2.8,2.8,0,0,1,.49,3.911,2.749,2.749,0,0,1-1.845,1.058A2.816,2.816,0,0,1,874.425,500.18Z" transform="translate(-868.387 -492.102)"/>
        </g>
        <g id="グループ_3042" data-name="グループ 3042" transform="translate(70.65 40.171)">
          <path id="パス_4090" data-name="パス 4090" d="M1632.776,900.9a6.627,6.627,0,0,0-6.6,6.649,10.137,10.137,0,0,0,1.032,3.611,68.653,68.653,0,0,0,5.31,9.2.315.315,0,0,0,.524,0c1.226-1.815,6.343-9.582,6.343-12.815A6.627,6.627,0,0,0,1632.776,900.9Zm0,9.689a3.04,3.04,0,1,1,3.02-3.04A3.03,3.03,0,0,1,1632.776,910.591Z" transform="translate(-1626.172 -900.902)" fill="#5479f7"/>
          <path id="パス_4091" data-name="パス 4091" d="M1685.25,950.045a3.217,3.217,0,0,1-1.99-.689,3.26,3.26,0,0,1-1.233-2.178.235.235,0,1,1,.467-.058,2.792,2.792,0,0,0,1.056,1.865,2.771,2.771,0,0,0,3.906-.5,2.822,2.822,0,0,0-.492-3.937,2.753,2.753,0,0,0-1.612-.587.235.235,0,1,1,.016-.47,3.218,3.218,0,0,1,1.886.687,3.293,3.293,0,0,1,.575,4.595,3.229,3.229,0,0,1-2.167,1.242A3.278,3.278,0,0,1,1685.25,950.045Z" transform="translate(-1678.06 -940.471)"/>
        </g>
        <g id="グループ_3043" data-name="グループ 3043" transform="translate(29.555 42.671)">
          <path id="パス_4092" data-name="パス 4092" d="M1051.079,936.113a3.8,3.8,0,0,0-3.787,3.813,5.814,5.814,0,0,0,.592,2.071,39.366,39.366,0,0,0,3.045,5.277.181.181,0,0,0,.3,0c.7-1.041,3.637-5.495,3.637-7.348A3.8,3.8,0,0,0,1051.079,936.113Zm0,5.556a1.744,1.744,0,1,1,1.732-1.743A1.738,1.738,0,0,1,1051.079,941.669Z" transform="translate(-1047.292 -936.113)" fill="#5479f7"/>
        </g>
        <g id="グループ_3044" data-name="グループ 3044" transform="translate(81.086 67.47)">
          <path id="パス_4093" data-name="パス 4093" d="M1777.029,1285.446a3.862,3.862,0,0,0-3.849,3.875,5.909,5.909,0,0,0,.6,2.1,40,40,0,0,0,3.1,5.364.183.183,0,0,0,.3,0c.715-1.058,3.7-5.585,3.7-7.469A3.862,3.862,0,0,0,1777.029,1285.446Zm0,5.647a1.772,1.772,0,1,1,1.76-1.772A1.766,1.766,0,0,1,1777.029,1291.093Z" transform="translate(-1773.18 -1285.446)" fill="#5479f7"/>
        </g>
        <g id="グループ_3045" data-name="グループ 3045" transform="translate(77.483 3.564)">
          <path id="パス_4094" data-name="パス 4094" d="M1728.684,385.244a6.286,6.286,0,0,0-6.265,6.308,9.617,9.617,0,0,0,.979,3.426,65.153,65.153,0,0,0,5.038,8.73.3.3,0,0,0,.5,0c1.163-1.722,6.017-9.09,6.017-12.157A6.287,6.287,0,0,0,1728.684,385.244Zm0,9.192a2.884,2.884,0,1,1,2.865-2.884A2.874,2.874,0,0,1,1728.684,394.436Z" transform="translate(-1722.419 -385.244)" fill="#5479f7"/>
          <path id="パス_4095" data-name="パス 4095" d="M1778.3,431.711a3.063,3.063,0,0,1-1.9-.656,3.1,3.1,0,0,1-1.174-2.074.235.235,0,0,1,.467-.059,2.636,2.636,0,0,0,1,1.762,2.616,2.616,0,0,0,3.688-.468,2.665,2.665,0,0,0-.465-3.718,2.6,2.6,0,0,0-1.522-.555.235.235,0,0,1-.227-.243.231.231,0,0,1,.243-.227,3.065,3.065,0,0,1,1.8.654,3.136,3.136,0,0,1,.548,4.376,3.076,3.076,0,0,1-2.064,1.183A3.144,3.144,0,0,1,1778.3,431.711Z" transform="translate(-1771.484 -422.617)"/>
        </g>
      </g>
      <g id="グループ_3047" data-name="グループ 3047" transform="translate(113.385 10.423)">
        <path id="パス_4096" data-name="パス 4096" d="M1945.933,490.127a.161.161,0,0,0-.146-.139l-1.085-.089a.161.161,0,0,1-.138-.108,5.021,5.021,0,0,0-.248-.59.162.162,0,0,1,.018-.174l.688-.849a.163.163,0,0,0,0-.2l-.588-.756a.16.16,0,0,0-.2-.047l-.985.47a.159.159,0,0,1-.173-.024,5.066,5.066,0,0,0-.507-.384.161.161,0,0,1-.071-.16l.175-1.084a.163.163,0,0,0-.1-.176l-.884-.359a.16.16,0,0,0-.192.058l-.619.9a.159.159,0,0,1-.161.066,4.976,4.976,0,0,0-.631-.076.161.161,0,0,1-.142-.1l-.386-1.026a.161.161,0,0,0-.173-.1l-.944.135a.162.162,0,0,0-.138.147l-.089,1.094a.161.161,0,0,1-.107.139,4.981,4.981,0,0,0-.585.249.159.159,0,0,1-.174-.018l-.842-.693a.16.16,0,0,0-.2,0l-.751.592a.163.163,0,0,0-.046.2l.466.992a.162.162,0,0,1-.024.174,5.1,5.1,0,0,0-.382.511.159.159,0,0,1-.159.071l-1.075-.176a.161.161,0,0,0-.175.1l-.356.891a.163.163,0,0,0,.058.194l.9.623a.162.162,0,0,1,.066.162,5.071,5.071,0,0,0-.076.636.161.161,0,0,1-.1.143l-1.019.389a.162.162,0,0,0-.1.174l.134.951a.161.161,0,0,0,.146.139l1.085.089a.161.161,0,0,1,.138.108,5.066,5.066,0,0,0,.248.59.161.161,0,0,1-.018.174l-.688.849a.163.163,0,0,0,0,.2l.588.756a.16.16,0,0,0,.2.047l.985-.47a.159.159,0,0,1,.173.024,5.083,5.083,0,0,0,.507.384.162.162,0,0,1,.071.16l-.175,1.084a.162.162,0,0,0,.1.176l.884.359a.16.16,0,0,0,.192-.058l.619-.9a.16.16,0,0,1,.162-.066,5,5,0,0,0,.631.076.16.16,0,0,1,.142.1l.386,1.026a.161.161,0,0,0,.173.1l.944-.135a.162.162,0,0,0,.138-.147l.089-1.094a.161.161,0,0,1,.107-.139,4.964,4.964,0,0,0,.585-.25.159.159,0,0,1,.173.018l.842.693a.16.16,0,0,0,.2,0l.751-.592a.163.163,0,0,0,.046-.2l-.467-.992a.162.162,0,0,1,.024-.174,5.135,5.135,0,0,0,.382-.511.159.159,0,0,1,.159-.071l1.075.176a.161.161,0,0,0,.175-.1l.356-.891a.163.163,0,0,0-.058-.194l-.895-.623a.162.162,0,0,1-.065-.163,5.115,5.115,0,0,0,.076-.636.161.161,0,0,1,.1-.143l1.019-.389a.162.162,0,0,0,.1-.174Zm-6.134,4.57a3.211,3.211,0,1,1,3.189-3.211A3.2,3.2,0,0,1,1939.8,494.7Z" transform="translate(-1933.294 -484.935)" fill="#fff"/>
        <path id="パス_4097" data-name="パス 4097" d="M1937.1,494.959a.394.394,0,0,1-.37-.257l-.369-.98a5.216,5.216,0,0,1-.564-.068l-.591.861a.394.394,0,0,1-.475.143l-.884-.359a.4.4,0,0,1-.243-.432l.168-1.037a5.31,5.31,0,0,1-.455-.344l-.94.448a.4.4,0,0,1-.483-.114l-.588-.757a.4.4,0,0,1,0-.495l.658-.812a5.368,5.368,0,0,1-.223-.531l-1.036-.085a.4.4,0,0,1-.36-.341l-.134-.951a.4.4,0,0,1,.252-.426l.973-.372a5.387,5.387,0,0,1,.068-.573l-.855-.6a.4.4,0,0,1-.142-.474l.356-.891a.4.4,0,0,1,.432-.244l1.026.168a5.4,5.4,0,0,1,.343-.459l-.446-.949a.4.4,0,0,1,.114-.482l.751-.592a.394.394,0,0,1,.5.005l.8.661a5.252,5.252,0,0,1,.524-.224l.085-1.046a.394.394,0,0,1,.339-.361l.944-.135a.394.394,0,0,1,.427.253l.369.98a5.3,5.3,0,0,1,.565.068l.591-.861a.392.392,0,0,1,.475-.143l.884.359a.4.4,0,0,1,.243.432l-.168,1.037a5.313,5.313,0,0,1,.455.344l.94-.448a.392.392,0,0,1,.482.115l.588.756a.4.4,0,0,1-.005.495l-.658.812a5.267,5.267,0,0,1,.223.531l1.036.085a.394.394,0,0,1,.36.34h0l.134.951a.4.4,0,0,1-.251.427l-.973.372a5.266,5.266,0,0,1-.068.573l.855.6a.4.4,0,0,1,.142.474l-.356.891a.393.393,0,0,1-.432.244l-1.026-.168a5.448,5.448,0,0,1-.343.459l.446.949a.4.4,0,0,1-.114.482l-.751.592a.4.4,0,0,1-.5-.005l-.8-.661a5.282,5.282,0,0,1-.524.224l-.085,1.046a.4.4,0,0,1-.34.361l-.943.135A.411.411,0,0,1,1937.1,494.959Zm-1.337-1.784a.4.4,0,0,1,.073.007,4.749,4.749,0,0,0,.6.073.4.4,0,0,1,.348.255l.365.971.825-.118.084-1.036a.4.4,0,0,1,.264-.341,4.8,4.8,0,0,0,.557-.238.4.4,0,0,1,.429.047l.8.655.658-.519-.442-.94a.4.4,0,0,1,.057-.426,4.929,4.929,0,0,0,.364-.488.4.4,0,0,1,.394-.175l1.016.166.313-.782-.847-.59a.4.4,0,0,1-.163-.4,4.856,4.856,0,0,0,.073-.607.4.4,0,0,1,.253-.349l.964-.368-.117-.836-1.026-.084a.4.4,0,0,1-.341-.265,4.888,4.888,0,0,0-.236-.562.4.4,0,0,1,.046-.427l.652-.8-.515-.663-.93.444a.4.4,0,0,1-.428-.058,4.843,4.843,0,0,0-.483-.366.4.4,0,0,1-.173-.394l.166-1.027-.774-.314-.585.852a.393.393,0,0,1-.4.164,4.813,4.813,0,0,0-.6-.073.4.4,0,0,1-.348-.255l-.365-.97-.826.118-.084,1.036a.4.4,0,0,1-.264.342,4.742,4.742,0,0,0-.557.238.4.4,0,0,1-.429-.046l-.8-.655-.658.519.442.94a.4.4,0,0,1-.057.426,4.886,4.886,0,0,0-.364.488.4.4,0,0,1-.394.175l-1.016-.167-.313.782.847.59a.4.4,0,0,1,.163.4,4.847,4.847,0,0,0-.072.606.4.4,0,0,1-.253.349l-.964.368.117.836,1.026.084a.4.4,0,0,1,.341.265,4.835,4.835,0,0,0,.236.563.4.4,0,0,1-.047.427l-.652.8.515.663.93-.444a.394.394,0,0,1,.428.058,4.916,4.916,0,0,0,.484.366.4.4,0,0,1,.173.394l-.166,1.027.773.314.585-.852A.4.4,0,0,1,1935.763,493.175Zm.956-1.322a3.446,3.446,0,1,1,3.425-3.446A3.439,3.439,0,0,1,1936.719,491.853Zm0-6.421a2.975,2.975,0,1,0,2.954,2.975A2.968,2.968,0,0,0,1936.719,485.432Z" transform="translate(-1930.214 -481.856)"/>
      </g>
      <g id="グループ_3049" data-name="グループ 3049" transform="translate(7.956 2.037)">
        <g id="グループ_3048" data-name="グループ 3048" transform="translate(0 0)">
          <ellipse id="楕円形_110" data-name="楕円形 110" cx="8.502" cy="8.56" rx="8.502" ry="8.56" transform="translate(0.236 0.239)" fill="#fff"/>
          <path id="パス_4098" data-name="パス 4098" d="M453.845,381.334a8.751,8.751,0,0,1-8.383-6.36,8.814,8.814,0,0,1,5.971-10.889,8.635,8.635,0,0,1,6.625.738,8.725,8.725,0,0,1,4.194,5.273,8.814,8.814,0,0,1-5.971,10.889A8.724,8.724,0,0,1,453.845,381.334Zm.023-17.127a8.244,8.244,0,0,0-2.3.33,8.343,8.343,0,0,0-5.65,10.308,8.257,8.257,0,0,0,3.969,4.991,8.164,8.164,0,0,0,6.266.7,8.342,8.342,0,0,0,5.65-10.308,8.28,8.28,0,0,0-7.931-6.019Z" transform="translate(-445.118 -363.736)"/>
        </g>
        <path id="パス_4099" data-name="パス 4099" d="M473.364,399.518a7.258,7.258,0,0,1-6.952-5.274,7.309,7.309,0,0,1,4.952-9.03,7.207,7.207,0,0,1,6.66,1.412.235.235,0,1,1-.3.36,6.737,6.737,0,0,0-6.226-1.321,6.838,6.838,0,0,0-4.631,8.449,6.768,6.768,0,0,0,3.253,4.09,6.691,6.691,0,0,0,5.136.572,6.838,6.838,0,0,0,4.631-8.449.235.235,0,0,1,.452-.13,7.309,7.309,0,0,1-4.952,9.03A7.235,7.235,0,0,1,473.364,399.518Z" transform="translate(-464.635 -383.422)" fill="#99b9ff"/>
        <path id="パス_4100" data-name="パス 4100" d="M535.987,438.675l-.262-.912a3.965,3.965,0,0,1-1.739.058l-.036-1.206a3.481,3.481,0,0,0,1.7-.038c.544-.158.855-.477.745-.861-.1-.365-.476-.507-1.25-.541-1.119-.049-1.953-.327-2.22-1.258a1.849,1.849,0,0,1,1.121-2.177l-.262-.912.934-.272.242.845a3.551,3.551,0,0,1,1.474-.085l.035,1.165a3.271,3.271,0,0,0-1.467.073c-.62.18-.743.507-.666.776.091.317.482.421,1.381.493,1.25.073,1.859.468,2.107,1.332a1.918,1.918,0,0,1-1.188,2.269l.281.979Z" transform="translate(-526.631 -425.812)" fill="#5479f7"/>
      </g>
      <g id="グループ_3051" data-name="グループ 3051" transform="translate(101.408 89.054)">
        <g id="グループ_3050" data-name="グループ 3050" transform="translate(0)">
          <ellipse id="楕円形_111" data-name="楕円形 111" cx="7.492" cy="7.543" rx="7.492" ry="7.543" transform="translate(0.234 0.239)" fill="#fff"/>
          <path id="パス_4101" data-name="パス 4101" d="M1769.228,1605.044a7.649,7.649,0,0,1-3.592-.9,7.813,7.813,0,0,1-3.237-10.505,7.7,7.7,0,0,1,10.439-3.258,7.813,7.813,0,0,1,3.237,10.506h0a7.735,7.735,0,0,1-6.847,4.158Zm.018-15.093a7.262,7.262,0,0,0-6.429,3.906,7.341,7.341,0,0,0,3.04,9.871,7.232,7.232,0,0,0,9.8-3.061,7.341,7.341,0,0,0-3.04-9.872A7.183,7.183,0,0,0,1769.246,1589.951Zm6.621,10.825h0Z" transform="translate(-1761.511 -1589.48)"/>
        </g>
        <path id="パス_4102" data-name="パス 4102" d="M1786.423,1621.041a6.349,6.349,0,0,1-2.981-.747,6.484,6.484,0,0,1-2.686-8.719,6.393,6.393,0,0,1,8.664-2.7,6.452,6.452,0,0,1,3.387,5.012.235.235,0,1,1-.468.051,5.983,5.983,0,0,0-3.14-4.647,5.923,5.923,0,0,0-8.026,2.506,6.012,6.012,0,0,0,2.49,8.085,5.922,5.922,0,0,0,8.026-2.507.235.235,0,0,1,.417.218,6.417,6.417,0,0,1-5.683,3.451Z" transform="translate(-1778.705 -1606.801)" fill="#99b9ff"/>
        <path id="パス_4103" data-name="パス 4103" d="M1831.293,1657.885l.387-.74a3.529,3.529,0,0,1-1.141-1.032l.709-.788a3.1,3.1,0,0,0,1.105,1.024c.441.234.833.222,1-.089.155-.3,0-.614-.466-1.113-.681-.719-1.042-1.408-.647-2.164a1.611,1.611,0,0,1,2.033-.693l.387-.74.758.4-.358.686a3.155,3.155,0,0,1,.987.852l-.685.761a2.906,2.906,0,0,0-.976-.856c-.5-.267-.78-.135-.894.083-.135.257.051.564.578,1.162.75.815.9,1.441.53,2.142a1.671,1.671,0,0,1-2.131.711l-.416.795Z" transform="translate(-1825.64 -1647.142)" fill="#5479f7"/>
      </g>
      <g id="グループ_3053" data-name="グループ 3053" transform="translate(8.366 76.468)">
        <g id="グループ_3052" data-name="グループ 3052" transform="translate(0)">
          <ellipse id="楕円形_112" data-name="楕円形 112" cx="5.348" cy="5.384" rx="5.348" ry="5.384" transform="translate(0.233 0.237)" fill="#fff"/>
          <path id="パス_4104" data-name="パス 4104" d="M456.488,1423.434a5.61,5.61,0,0,1-1-.091,5.542,5.542,0,0,1-3.6-2.332,5.649,5.649,0,0,1,1.412-7.818,5.561,5.561,0,0,1,7.77,1.422,5.649,5.649,0,0,1-1.412,7.818A5.519,5.519,0,0,1,456.488,1423.434Zm-.022-10.771a5.05,5.05,0,0,0-2.9.917,5.177,5.177,0,0,0-1.294,7.165,5.09,5.09,0,0,0,7.113,1.3,5.178,5.178,0,0,0,1.294-7.166,5.077,5.077,0,0,0-3.3-2.135A5.14,5.14,0,0,0,456.466,1412.663Z" transform="translate(-450.895 -1412.192)"/>
        </g>
        <path id="パス_4105" data-name="パス 4105" d="M501.578,1456.518l-.426-.619a3.155,3.155,0,0,1-1.293.487l-.33-.9a2.768,2.768,0,0,0,1.272-.462c.369-.257.523-.576.344-.837s-.485-.26-1.076-.089c-.854.248-1.551.252-1.986-.381a1.472,1.472,0,0,1,.3-1.923l-.426-.619.634-.442.394.573a2.828,2.828,0,0,1,1.087-.439l.319.867a2.6,2.6,0,0,0-1.085.428c-.421.293-.431.57-.306.753.148.215.469.194,1.162.019.959-.263,1.516-.122,1.919.465a1.526,1.526,0,0,1-.323,2.009l.457.665Z" transform="translate(-494.511 -1447.999)" fill="#5479f7"/>
      </g>
      <g id="グループ_3092" data-name="グループ 3092" transform="translate(7.377 30.389)">
        <g id="グループ_3090" data-name="グループ 3090" transform="translate(0 0)">
          <g id="グループ_3071" data-name="グループ 3071" transform="translate(40.301 4.426)">
            <g id="グループ_3061" data-name="グループ 3061" transform="translate(14.846 40.351)">
              <g id="グループ_3056" data-name="グループ 3056" transform="translate(20.871 47.228)">
                <g id="グループ_3054" data-name="グループ 3054">
                  <path id="パス_4106" data-name="パス 4106" d="M1520.834,2062.629c.277.559.941,2.158,1.276,3.132a1.28,1.28,0,0,1-.654,1.564c-1.636.8-5.76,1.565-9.162,2.374a.9.9,0,0,1-.988-.507c-1.028-1.821,2.554-3.116,5.776-5.817a3.432,3.432,0,0,0,.594.236,2.224,2.224,0,0,0,1.885-.439l.726-.649A.35.35,0,0,1,1520.834,2062.629Z" transform="translate(-1510.887 -2062.198)" fill="#fff"/>
                  <path id="パス_4107" data-name="パス 4107" d="M1508.99,2066.87a1.165,1.165,0,0,1-1.019-.646c-.815-1.443.819-2.553,2.889-3.958a35.765,35.765,0,0,0,2.941-2.155.236.236,0,0,1,.262-.027,3.3,3.3,0,0,0,.549.218,1.978,1.978,0,0,0,1.661-.39l.726-.648a.585.585,0,0,1,.914.177h0c.289.583.953,2.188,1.288,3.161a1.515,1.515,0,0,1-.773,1.852,38.316,38.316,0,0,1-6.511,1.777c-.9.2-1.83.407-2.7.614A.984.984,0,0,1,1508.99,2066.87Zm5-6.3c-.974.8-1.975,1.484-2.862,2.086-2.136,1.451-3.317,2.321-2.743,3.337a.66.66,0,0,0,.728.393c.874-.208,1.806-.415,2.707-.615a39.146,39.146,0,0,0,6.407-1.74,1.044,1.044,0,0,0,.534-1.276c-.321-.932-.984-2.54-1.265-3.1a.112.112,0,0,0-.081-.062.114.114,0,0,0-.1.027l-.726.649a2.47,2.47,0,0,1-2.109.49A3.965,3.965,0,0,1,1513.986,2060.569Z" transform="translate(-1507.757 -2059.114)"/>
                </g>
                <g id="グループ_3055" data-name="グループ 3055" transform="translate(0.031 3.279)">
                  <path id="パス_4108" data-name="パス 4108" d="M1522.651,2109.1l.013.034c.211.611-.257.956-.778,1.333-1.579,1.143-8.814,2.094-8.814,2.094s-.944.212-1.316-.306a.68.68,0,0,1-.141-.223c-.033-.11-.11-.511-.11-.511a24.6,24.6,0,0,0,9.1-1.927,12.446,12.446,0,0,0,1.845-.977S1522.512,2108.751,1522.651,2109.1Z" transform="translate(-1511.269 -2108.378)" fill="#fff"/>
                  <path id="パス_4109" data-name="パス 4109" d="M1509.562,2109.755a1.285,1.285,0,0,1-1.077-.446c-.012-.017-.024-.031-.036-.045a.673.673,0,0,1-.14-.249c-.035-.117-.107-.491-.115-.534a.235.235,0,0,1,.221-.28,24.275,24.275,0,0,0,9.023-1.91,12.359,12.359,0,0,0,1.787-.944.236.236,0,0,1,.36.088c0,.006.066.147.2.493h0c.009.022.015.038.017.045.269.781-.333,1.216-.863,1.6-1.594,1.154-8.5,2.081-8.912,2.136A2.438,2.438,0,0,1,1509.562,2109.755Zm-.853-1.1c.02.1.04.185.051.222a.233.233,0,0,0,.054.084c.018.021.036.044.053.069.229.319.852.262,1.073.214l.021,0c.072-.009,7.194-.956,8.707-2.051.591-.427.835-.657.694-1.066l-.009-.023q-.051-.126-.088-.216a15.027,15.027,0,0,1-1.652.842A24.528,24.528,0,0,1,1508.709,2108.66Z" transform="translate(-1508.189 -2105.298)"/>
                </g>
                <path id="パス_4110" data-name="パス 4110" d="M1575.577,2088.938a.235.235,0,0,1-.1-.024l-1.19-.591a.235.235,0,0,1,.209-.421l1.19.591a.235.235,0,0,1-.1.446Z" transform="translate(-1569.439 -2085.834)"/>
                <path id="パス_4111" data-name="パス 4111" d="M1559.583,2101.731a.233.233,0,0,1-.1-.024l-1.039-.507a.235.235,0,1,1,.206-.423l1.039.507a.235.235,0,0,1-.1.447Z" transform="translate(-1554.719 -2097.797)"/>
              </g>
              <g id="グループ_3059" data-name="グループ 3059" transform="translate(0 49.075)">
                <g id="グループ_3057" data-name="グループ 3057">
                  <path id="パス_4112" data-name="パス 4112" d="M1228.249,2088.959a24.061,24.061,0,0,1,.313,2.838,1.3,1.3,0,0,1-1.1,1.323,50.36,50.36,0,0,1-9.514.41.915.915,0,0,1-.809-.789c-.46-2.077,3.22-2.647,7.149-4.3l.708.657a1.266,1.266,0,0,0,1.39.223l1.361-.625A.356.356,0,0,1,1228.249,2088.959Z" transform="translate(-1216.865 -2088.202)" fill="#fff"/>
                  <path id="パス_4113" data-name="パス 4113" d="M1217.324,2090.763c-.837,0-1.677-.023-2.487-.076a1.153,1.153,0,0,1-1.024-.973c-.39-1.76,1.749-2.526,4.457-3.5.869-.311,1.853-.664,2.83-1.076a.236.236,0,0,1,.252.044l.708.657a1.028,1.028,0,0,0,1.131.182l1.361-.625a.592.592,0,0,1,.83.442,24.3,24.3,0,0,1,.316,2.868,1.53,1.53,0,0,1-1.3,1.564A51.46,51.46,0,0,1,1217.324,2090.763Zm3.82-5.129c-.943.392-1.881.728-2.714,1.027-2.846,1.02-4.443,1.659-4.157,2.951a.679.679,0,0,0,.6.6,49.733,49.733,0,0,0,9.463-.408,1.059,1.059,0,0,0,.9-1.082,23.864,23.864,0,0,0-.31-2.808h0a.12.12,0,0,0-.063-.088.119.119,0,0,0-.107,0l-1.361.625a1.5,1.5,0,0,1-1.648-.264Z" transform="translate(-1213.767 -2085.124)"/>
                </g>
                <g id="グループ_3058" data-name="グループ 3058" transform="translate(0.011 3.202)">
                  <path id="パス_4114" data-name="パス 4114" d="M1228.683,2133.55s.005.106.007.157a1.3,1.3,0,0,1-1.1,1.323,50.4,50.4,0,0,1-9.514.41.915.915,0,0,1-.809-.789,2.693,2.693,0,0,1-.027-.522l.251.006a72.8,72.8,0,0,0,10.71-.526Z" transform="translate(-1217.003 -2133.314)" fill="#fff"/>
                  <path id="パス_4115" data-name="パス 4115" d="M1217.467,2132.67c-.837,0-1.676-.023-2.487-.076a1.154,1.154,0,0,1-1.024-.973,2.793,2.793,0,0,1-.032-.583.236.236,0,0,1,.241-.225l.251.006a72.762,72.762,0,0,0,10.675-.524l.481-.059a.23.23,0,0,1,.181.054.234.234,0,0,1,.083.169l.007.159a1.53,1.53,0,0,1-1.3,1.564A51.458,51.458,0,0,1,1217.467,2132.67Zm-3.073-1.381a1.405,1.405,0,0,0,.022.23.679.679,0,0,0,.6.6,49.668,49.668,0,0,0,9.463-.408,1.06,1.06,0,0,0,.9-.982l-.223.027a73.4,73.4,0,0,1-10.745.528Z" transform="translate(-1213.921 -2130.232)"/>
                </g>
                <path id="パス_4116" data-name="パス 4116" d="M1285.888,2101.527a.236.236,0,0,1-.166-.068l-1.3-1.285a.235.235,0,1,1,.331-.334l1.3,1.285a.235.235,0,0,1-.165.4Z" transform="translate(-1279.343 -2098.732)"/>
                <path id="パス_4117" data-name="パス 4117" d="M1266.8,2106.65a.235.235,0,0,1-.179-.082l-1.159-1.35a.235.235,0,1,1,.357-.307l1.159,1.35a.235.235,0,0,1-.178.388Z" transform="translate(-1261.74 -2103.431)"/>
              </g>
              <g id="グループ_3060" data-name="グループ 3060" transform="translate(3.81)">
                <path id="パス_4118" data-name="パス 4118" d="M1285.527,1393.846a15.49,15.49,0,0,1,1.872,5.773c.089,1.393,1.053,9,2.044,19.727a88.6,88.6,0,0,0,4.929,21.984h0a3.119,3.119,0,0,1-1.869,1.378,3.662,3.662,0,0,1-2.306-.211l-5.367-11.517a47.838,47.838,0,0,1-3.782-9.977l-2.674-10.445L1276,1419.4a29.532,29.532,0,0,0-1.007,7.013l-.188,17.349-1,.475a2.8,2.8,0,0,1-2.587-.092l-.506-.84-3.192-20.315a16.775,16.775,0,0,1,.116-4.265l3.878-24.873Z" transform="translate(-1267.434 -1393.846)"/>
                <path id="パス_4119" data-name="パス 4119" d="M1385.144,1505.356a.235.235,0,0,1-.233-.2l-.921-6.348a7.913,7.913,0,0,0-1.575-3.522.235.235,0,0,1,.37-.291,8.392,8.392,0,0,1,1.67,3.739l.922,6.355a.235.235,0,0,1-.2.266Z" transform="translate(-1374.205 -1487.729)" fill="#caddff"/>
                <path id="パス_4120" data-name="パス 4120" d="M1477.042,1456.23a.232.232,0,0,1-.061-.008,7.929,7.929,0,0,1-4.783-3.866.235.235,0,0,1,.423-.206,7.589,7.589,0,0,0,4.483,3.619.235.235,0,0,1-.061.462Z" transform="translate(-1457.639 -1447.887)" fill="#caddff"/>
              </g>
            </g>
            <g id="グループ_3067" data-name="グループ 3067" transform="translate(0 12.498)">
              <g id="グループ_3064" data-name="グループ 3064" transform="translate(0 19.548)">
                <g id="グループ_3062" data-name="グループ 3062" transform="translate(0 0.857)">
                  <path id="パス_4121" data-name="パス 4121" d="M1015.6,1292.953c.258.38,1.052,1.385.106,2-.246.16-1.726.359-2.117.548a13.583,13.583,0,0,1-1.9,1.206,2.949,2.949,0,0,1-3.556-.7c-.875-.9,1.574-3.921,3.323-3.771S1015.223,1292.4,1015.6,1292.953Z" transform="translate(-1007.715 -1291.999)" fill="#fff"/>
                  <path id="パス_4122" data-name="パス 4122" d="M1007.173,1294.161a3.076,3.076,0,0,1-2.283-1.066c-.328-.34-.332-.9-.01-1.576.553-1.162,2.162-2.711,3.523-2.593.34.029.691.053,1.037.077,1.806.124,2.93.225,3.278.739h0l.055.08a2.149,2.149,0,0,1,.523,1.509,1.142,1.142,0,0,1-.539.741,4.193,4.193,0,0,1-1.088.3,6.907,6.907,0,0,0-1.054.266,3.6,3.6,0,0,0-.63.432,4.6,4.6,0,0,1-1.288.782A4.366,4.366,0,0,1,1007.173,1294.161Zm1.08-4.77c-1.044,0-2.419,1.22-2.948,2.331-.228.479-.256.861-.077,1.047a2.736,2.736,0,0,0,3.3.641,4.146,4.146,0,0,0,1.162-.711,3.991,3.991,0,0,1,.716-.486,6.505,6.505,0,0,1,1.164-.3,6.32,6.32,0,0,0,.927-.231.683.683,0,0,0,.333-.437,1.8,1.8,0,0,0-.447-1.15l-.058-.084c-.237-.35-1.725-.452-2.921-.534-.349-.024-.7-.048-1.046-.078C1008.326,1289.392,1008.29,1289.391,1008.253,1289.391Z" transform="translate(-1004.641 -1288.92)"/>
                </g>
                <g id="グループ_3063" data-name="グループ 3063" transform="translate(2.752)">
                  <path id="パス_4123" data-name="パス 4123" d="M1050.221,1282.231a.63.63,0,0,0-.121-.715c-.424-.49-1.3-1.413-1.927-1.36a1.775,1.775,0,0,0-1.382,2.273c.182.89.98.454,1.087.1.114-.377.281-.792.473-.62C1048.561,1282.1,1049.74,1283.115,1050.221,1282.231Z" transform="translate(-1046.502 -1279.919)" fill="#fff"/>
                  <path id="パス_4124" data-name="パス 4124" d="M1044.185,1280.116h-.033c-.162-.008-.554-.092-.681-.713a2.2,2.2,0,0,1,.351-1.822,1.791,1.791,0,0,1,1.242-.732c.678-.056,1.53.751,2.125,1.44a.865.865,0,0,1-.464,1.447,2.17,2.17,0,0,1-1.539-.653,2.263,2.263,0,0,0-.171.443A.925.925,0,0,1,1044.185,1280.116Zm.952-2.8h-.034a1.335,1.335,0,0,0-.9.545,1.741,1.741,0,0,0-.266,1.446c.045.218.126.331.242.337a.473.473,0,0,0,.39-.256c.158-.52.307-.756.515-.814a.355.355,0,0,1,.34.087c.372.333.891.669,1.225.61a.383.383,0,0,0,.281-.227h0a.407.407,0,0,0-.093-.449C1046.135,1277.79,1045.506,1277.316,1045.137,1277.316Z" transform="translate(-1043.412 -1276.846)"/>
                </g>
              </g>
              <g id="グループ_3065" data-name="グループ 3065" transform="translate(6.795)">
                <path id="パス_4125" data-name="パス 4125" d="M1143.122,1023.677c-1.268-6.731-3.283-12.183-4.208-13.553-2.491-3.688-10.574-5.317-10.581-5.32a11.712,11.712,0,0,1-5.1.333c-.071.04-6.705,2-8.689,4.7-1.761,2.4-1.316,10.352-3.018,11.829-1.6,1.386-7.86,3.479-7.86,3.479l.456,3.32s9.1-.874,9.738-1,2.931-.641,3.441-2.609c.146-.566.36-1.722.589-3.081l1.48,10.654h0a16.672,16.672,0,0,0,8.367.865l5.646-.865,1.378-15.5s.285.746.7,1.886a73.456,73.456,0,0,1,3.635,14.4l.8,5.425,3.412.04C1143.278,1031.522,1144.043,1028.569,1143.122,1023.677Z" transform="translate(-1103.431 -1004.57)" fill="#fff"/>
                <path id="パス_4126" data-name="パス 4126" d="M1140.228,1035.834h0l-3.412-.04a.235.235,0,0,1-.23-.2l-.8-5.425a73.361,73.361,0,0,0-3.624-14.352c-.125-.343-.238-.652-.336-.915l-1.287,14.466a.235.235,0,0,1-.2.212l-5.646.865a16.946,16.946,0,0,1-8.486-.877.235.235,0,0,1-.15-.188l-1.274-9.169c-.138.751-.25,1.294-.335,1.623-.362,1.4-1.648,2.383-3.623,2.781-.642.129-9.39.97-9.762,1.006a.234.234,0,0,1-.256-.2l-.456-3.32a.235.235,0,0,1,.158-.255c.063-.021,6.237-2.094,7.781-3.433.792-.687,1.11-3.133,1.418-5.5.323-2.486.657-5.057,1.565-6.292,1.62-2.2,6.118-3.911,8.655-4.731l.131-.043a.234.234,0,0,1,.192,0,11.9,11.9,0,0,0,4.868-.315.237.237,0,0,1,.182-.035c.851.177,8.294,1.819,10.726,5.418.974,1.442,2.991,6.984,4.245,13.641h0a34.294,34.294,0,0,1,.348,8.723c-.079,1.768-.169,3.773-.159,6.318a.235.235,0,0,1-.235.236Zm-3.208-.508,2.972.035c0-2.444.083-4.384.16-6.1a33.942,33.942,0,0,0-.341-8.615c-1.242-6.594-3.221-12.057-4.172-13.464-2.271-3.361-9.472-5.013-10.35-5.2a12.739,12.739,0,0,1-5.14.334l-.074.024c-4.226,1.366-7.295,3.029-8.421,4.562-.835,1.138-1.162,3.647-1.478,6.074-.333,2.565-.648,4.988-1.576,5.793-1.477,1.282-6.684,3.1-7.755,3.462l.4,2.9c3.2-.308,9.006-.88,9.49-.977,1.036-.208,2.836-.8,3.26-2.437.13-.5.327-1.531.585-3.061a.235.235,0,0,1,.232-.2h0a.235.235,0,0,1,.229.2l1.461,10.515a16.479,16.479,0,0,0,8.118.8l5.464-.837,1.362-15.313a.235.235,0,0,1,.454-.063c0,.007.291.761.7,1.889a73.825,73.825,0,0,1,3.646,14.444Zm-11.767-33.6h0Z" transform="translate(-1100.351 -1001.493)"/>
              </g>
              <path id="パス_4127" data-name="パス 4127" d="M1285.523,1156.064a.236.236,0,0,1-.234-.215,50.211,50.211,0,0,0-.927-5.755c-.118-.587-.24-1.2-.364-1.845a.235.235,0,0,1,.462-.089c.124.646.246,1.255.364,1.841a50.567,50.567,0,0,1,.934,5.807.235.235,0,0,1-.214.254Z" transform="translate(-1264.162 -1137.571)"/>
              <path id="パス_4128" data-name="パス 4128" d="M1378.53,1150.588a.235.235,0,0,1-.221-.155l-1.541-4.228a.235.235,0,0,1,.442-.161l1.541,4.228a.235.235,0,0,1-.141.3A.231.231,0,0,1,1378.53,1150.588Z" transform="translate(-1350.337 -1135.639)"/>
              <g id="グループ_3066" data-name="グループ 3066" transform="translate(42.735 33.734)">
                <path id="パス_4129" data-name="パス 4129" d="M1610.352,1480a11.876,11.876,0,0,0-.415,2.161,8.257,8.257,0,0,0,.316,2.636c.264.265.808-.071.808-1.238a10.774,10.774,0,0,1,.062-1.3.076.076,0,0,1,.146-.021,5.5,5.5,0,0,1,.459,1.742c0,.76-.193,2.83.667,2.989.779.144,1.468-1.288,1.663-3.435a3.509,3.509,0,0,0-.116-1.238,10.881,10.881,0,0,1-.423-2.208Z" transform="translate(-1609.701 -1479.764)" fill="#fff"/>
                <path id="パス_4130" data-name="パス 4130" d="M1609.424,1484.137a.824.824,0,0,1-.149-.014c-.942-.174-.9-1.787-.867-2.854,0-.14.007-.265.007-.366a3.5,3.5,0,0,0-.188-.959c-.005.156-.009.333-.009.535,0,.785-.238,1.352-.638,1.517a.509.509,0,0,1-.573-.113c-.23-.231-.333-.961-.382-2.691l0-.1a11.821,11.821,0,0,1,.424-2.231.239.239,0,0,1,.234-.172l3.169.091a.235.235,0,0,1,.229.235,10.018,10.018,0,0,0,.415,2.147,3.729,3.729,0,0,1,.123,1.321c-.155,1.7-.615,2.989-1.232,3.457A.924.924,0,0,1,1609.424,1484.137Zm-1.3-5.259a.307.307,0,0,1,.286.193,5.685,5.685,0,0,1,.477,1.832c0,.1,0,.234-.008.38-.019.682-.063,2.277.483,2.379a.422.422,0,0,0,.339-.1,5.035,5.035,0,0,0,1.047-3.124,3.261,3.261,0,0,0-.109-1.155,13.047,13.047,0,0,1-.421-2.041l-2.765-.08a10.05,10.05,0,0,0-.359,1.913l0,.1a6.762,6.762,0,0,0,.248,2.376c.011.011.024.02.057.006.139-.057.346-.393.346-1.082a11.042,11.042,0,0,1,.064-1.325.313.313,0,0,1,.269-.272Z" transform="translate(-1606.622 -1476.685)"/>
              </g>
            </g>
            <g id="グループ_3070" data-name="グループ 3070" transform="translate(23.819)">
              <g id="グループ_3069" data-name="グループ 3069">
                <g id="グループ_3068" data-name="グループ 3068" transform="translate(0 2.029)">
                  <path id="パス_4131" data-name="パス 4131" d="M1348.2,869.6a6.852,6.852,0,0,0,3.807-1.163c-2.25-.8-1.457-4.242-1.457-4.242,1.7-3.768.377-6.168-1.63-6.667-2.85-.709-3.211.958-3.211.958a7.881,7.881,0,0,1-.914,1.611,8.888,8.888,0,0,0-.9.415.571.571,0,0,0,.083.551.778.778,0,0,1,.058.7c-.28.662-.765,1.954-.512,2.433.345.656,2.8,1.2,2.8,1.2s.578,2.648-1.02,3.557a6.773,6.773,0,0,0,1.951.582A6.867,6.867,0,0,0,1348.2,869.6Z" transform="translate(-1343.217 -857.119)" fill="#fff"/>
                  <path id="パス_4132" data-name="パス 4132" d="M1345.144,866.75a7.122,7.122,0,0,1-.978-.069,7.006,7.006,0,0,1-2.019-.6.235.235,0,0,1-.016-.417c1.226-.7,1.018-2.615.932-3.158-.645-.153-2.464-.637-2.808-1.289-.224-.426-.055-1.312.5-2.635a.542.542,0,0,0-.044-.486.769.769,0,0,1-.065-.813,1.3,1.3,0,0,1,.557-.3,2.994,2.994,0,0,0,.41-.176,7.468,7.468,0,0,0,.816-1.492,1.684,1.684,0,0,1,.74-.934,3.556,3.556,0,0,1,2.749-.17,3.265,3.265,0,0,1,2.177,1.78c.653,1.346.518,3.188-.379,5.19-.059.282-.627,3.262,1.311,3.947a.235.235,0,0,1,.053.417,7.081,7.081,0,0,1-3.939,1.2Zm-2.422-.934a6.509,6.509,0,0,0,1.508.4,6.658,6.658,0,0,0,.913.065,6.624,6.624,0,0,0,3.313-.9c-1.91-1.091-1.224-4.188-1.192-4.328a.22.22,0,0,1,.015-.044c.848-1.881.989-3.591.4-4.814a2.8,2.8,0,0,0-1.867-1.529,3.191,3.191,0,0,0-2.375.105,1.188,1.188,0,0,0-.55.676.271.271,0,0,1-.018.05,5.339,5.339,0,0,1-1,1.709,3.151,3.151,0,0,1-.49.215,3.332,3.332,0,0,0-.342.143.564.564,0,0,0,.091.288,1.008,1.008,0,0,1,.071.906c-.557,1.319-.629,2.027-.521,2.232.2.386,1.67.866,2.647,1.084a.235.235,0,0,1,.179.18C1343.52,862.365,1344.008,864.687,1342.722,865.815Zm-1.715-8.231Zm.025-.035Z" transform="translate(-1340.159 -854.03)"/>
                </g>
                <path id="パス_4133" data-name="パス 4133" d="M1371.854,826.857c-.716-.208-1.556-.166-1.9-.319-.555-.246-.485-.908-1.286-1.043a1.763,1.763,0,0,0-1.781.472,1.473,1.473,0,0,0-.18.295,2.014,2.014,0,0,0,.337,2.582s2.073,1.234,2.421,1.567a1.886,1.886,0,0,1,.371,1.966.286.286,0,0,0,.108.325l.005,0a.291.291,0,0,0,.39-.053c.3-.367.955-1.07,1.376-.858a1.045,1.045,0,0,1-.546,1.812.3.3,0,0,0-.236.424.815.815,0,0,0,.951.523s2.47-1.468,2.935-3.645S1372.807,827.133,1371.854,826.857Z" transform="translate(-1364.551 -825.445)"/>
              </g>
            </g>
          </g>
          <g id="グループ_3088" data-name="グループ 3088">
            <g id="グループ_3081" data-name="グループ 3081" transform="translate(1.748 43.497)">
              <g id="グループ_3075" data-name="グループ 3075" transform="translate(20.96 46.617)">
                <g id="グループ_3072" data-name="グループ 3072" transform="translate(1.499)">
                  <path id="パス_4134" data-name="パス 4134" d="M787.657,2036.421s-.7,2.859.109,4.181l.23.548-4.657-1.043.313-.479a6.018,6.018,0,0,0,.973-2.788Z" transform="translate(-782.956 -2036.141)" fill="#fff"/>
                  <path id="パス_4135" data-name="パス 4135" d="M783.38,2037.809l-5.432-1.217.5-.763a5.811,5.811,0,0,0,.935-2.679l.016-.188,3.562-.493-.082.337c-.007.028-.668,2.78.08,4l.016.032Zm-4.667-1.527,3.881.869-.047-.112c-.677-1.129-.36-3.2-.2-4.009l-2.516.348a6.3,6.3,0,0,1-.992,2.709Z" transform="translate(-777.948 -2032.47)"/>
                </g>
                <g id="グループ_3074" data-name="グループ 3074" transform="translate(0 2.272)">
                  <g id="グループ_3073" data-name="グループ 3073">
                    <path id="パス_4136" data-name="パス 4136" d="M766.475,2068.149l.414.6a8.908,8.908,0,0,0,3.192,2.839l.981.516a.32.32,0,0,1,.169.247l.006.054c.068.6-.755,1.832-2.908,2.022a15.008,15.008,0,0,1-7.876-1.947.573.573,0,0,1-.292-.612,9.046,9.046,0,0,1,1.609-4,.25.25,0,0,1,.374.012l.922,1.119a1.165,1.165,0,0,0,1.651.151l1.27-1.068A.332.332,0,0,1,766.475,2068.149Z" transform="translate(-759.915 -2067.556)" fill="#fff"/>
                    <path id="パス_4137" data-name="パス 4137" d="M764.6,2071.61a15.828,15.828,0,0,1-7.337-2,.8.8,0,0,1-.413-.864c.172-.9.678-3.1,1.671-4.121a.5.5,0,0,1,.372-.149.486.486,0,0,1,.352.175l.922,1.119a.93.93,0,0,0,1.318.121l1.27-1.069a.567.567,0,0,1,.833.113h0l.414.6a8.7,8.7,0,0,0,3.108,2.764l.981.516a.556.556,0,0,1,.293.428l.006.054a1.493,1.493,0,0,1-.4,1.053,3.787,3.787,0,0,1-2.726,1.23C765.145,2071.594,764.917,2071.61,764.6,2071.61Zm-5.73-6.661a.016.016,0,0,0-.012.006,8.87,8.87,0,0,0-1.546,3.881.335.335,0,0,0,.172.36,14.522,14.522,0,0,0,7.745,1.92,3.328,3.328,0,0,0,2.4-1.058,1.049,1.049,0,0,0,.292-.7l-.006-.054a.085.085,0,0,0-.045-.065l-.981-.517a9.177,9.177,0,0,1-3.277-2.914l-.414-.6a.1.1,0,0,0-.142-.02l-1.27,1.069a1.4,1.4,0,0,1-1.985-.182l-.922-1.118Z" transform="translate(-756.833 -2064.476)"/>
                  </g>
                  <path id="パス_4138" data-name="パス 4138" d="M767.63,2105.035a.565.565,0,0,1-.061,0,11.272,11.272,0,0,1-4.443-1.468l-.763-.444a.235.235,0,1,1,.237-.406l.763.444a10.788,10.788,0,0,0,4.258,1.407.079.079,0,0,0,.069-.026.083.083,0,0,0,.02-.075l-.092-.428a.508.508,0,0,1,.756-.545l.381.228a4.575,4.575,0,0,0,3.574.473l.24-.067a.235.235,0,1,1,.128.452l-.24.068a5.05,5.05,0,0,1-3.943-.522l-.381-.227a.032.032,0,0,0-.04,0,.037.037,0,0,0-.015.041l.092.428a.554.554,0,0,1-.54.671Z" transform="translate(-761.863 -2099.968)"/>
                </g>
              </g>
              <g id="グループ_3079" data-name="グループ 3079" transform="translate(0 37.307)">
                <g id="グループ_3076" data-name="グループ 3076" transform="translate(3.26)">
                  <path id="パス_4139" data-name="パス 4139" d="M518.984,1906.974s-2.287,2.041-2.476,3.651l-.16.605-3.074-4.211.569-.108a5.953,5.953,0,0,0,2.56-1.359Z" transform="translate(-512.865 -1905.252)" fill="#fff"/>
                  <path id="パス_4140" data-name="パス 4140" d="M511.091,1907.846l-3.585-4.911.91-.172c.233-.1.465-.182.689-.264a3.741,3.741,0,0,0,1.759-1.019l.124-.149,3.041,1.675-.248.221c-.022.02-2.223,2-2.4,3.5l-.006.033Zm-2.766-4.587,2.563,3.511.029-.111c.172-1.37,1.705-2.972,2.31-3.556l-2.133-1.175a4.442,4.442,0,0,1-1.829,1.015c-.226.082-.46.167-.689.264l-.048.015Z" transform="translate(-507.506 -1901.331)"/>
                </g>
                <g id="グループ_3078" data-name="グループ 3078" transform="translate(0 0.469)">
                  <g id="グループ_3077" data-name="グループ 3077">
                    <path id="パス_4141" data-name="パス 4141" d="M472.376,1915.257l-.208.734a9.381,9.381,0,0,0-.158,4.468l.237,1.138a.335.335,0,0,1-.086.3l-.039.041c-.432.45-1.967.6-3.546-1.017a15.863,15.863,0,0,1-3.66-7.673.6.6,0,0,1,.3-.643c.833-.457,2.868-1.472,4.27-1.348a.264.264,0,0,1,.239.311l-.285,1.489a1.227,1.227,0,0,0,.973,1.439l1.7.321A.35.35,0,0,1,472.376,1915.257Z" transform="translate(-464.667 -1911.013)" fill="#fff"/>
                    <path id="パス_4142" data-name="パス 4142" d="M468.1,1919.4a3.94,3.94,0,0,1-2.781-1.391,15.865,15.865,0,0,1-3.723-7.791.829.829,0,0,1,.414-.9c.834-.457,2.933-1.506,4.4-1.376a.5.5,0,0,1,.358.2.5.5,0,0,1,.091.392l-.285,1.488a.991.991,0,0,0,.155.749.978.978,0,0,0,.631.415l1.7.321a.585.585,0,0,1,.453.735l-.208.734a9.181,9.181,0,0,0-.154,4.356l.237,1.138a.571.571,0,0,1-.147.511l-.039.041a1.525,1.525,0,0,1-1.093.375Zm-1.957-10.994a9.9,9.9,0,0,0-3.907,1.329.36.36,0,0,0-.179.39,15.376,15.376,0,0,0,3.6,7.555,3.484,3.484,0,0,0,2.444,1.249h.008a1.081,1.081,0,0,0,.755-.231l.039-.041a.1.1,0,0,0,.025-.089l-.237-1.138a9.654,9.654,0,0,1,.162-4.58l.208-.734a.114.114,0,0,0-.013-.092.111.111,0,0,0-.074-.052l-1.7-.321a1.462,1.462,0,0,1-1.16-1.714l.285-1.488a.024.024,0,0,0,0-.02.032.032,0,0,0-.024-.012Q466.266,1908.409,466.148,1908.409Z" transform="translate(-461.584 -1907.939)"/>
                  </g>
                  <path id="パス_4143" data-name="パス 4143" d="M490.655,1928.222a.235.235,0,0,1-.135-.043l-.213-.149a5.317,5.317,0,0,1-2.19-3.533l-.07-.459a.046.046,0,0,0-.036-.041.044.044,0,0,0-.05.017l-.282.358a.565.565,0,0,1-.919-.042,11.892,11.892,0,0,1-1.766-4.568l-.15-.912a.235.235,0,1,1,.464-.076l.15.912a11.423,11.423,0,0,0,1.7,4.389.093.093,0,0,0,.075.044.088.088,0,0,0,.079-.036l.282-.358a.519.519,0,0,1,.922.244l.07.459a4.842,4.842,0,0,0,1.995,3.219l.213.15a.235.235,0,0,1-.135.428Z" transform="translate(-483.189 -1917.821)"/>
                </g>
              </g>
              <g id="グループ_3080" data-name="グループ 3080" transform="translate(6.22)">
                <path id="パス_4144" data-name="パス 4144" d="M562.315,1376.157l14.422-.345s5.347,18.363.145,33.012a106.36,106.36,0,0,1-6.04,14.488.91.91,0,0,1-.906.47l-2.631-.306a.917.917,0,0,1-.8-1.051c.725-4.809,2.115-18.929,3.348-26.078a.005.005,0,0,0-.011,0,36.205,36.205,0,0,1-17.251,20.435.6.6,0,0,1-.737-.218l-2.524-3.014a.643.643,0,0,1-.017-.74C551.3,1409.855,565.489,1390.1,562.315,1376.157Z" transform="translate(-549.206 -1375.812)"/>
                <path id="パス_4145" data-name="パス 4145" d="M825.89,1583.382a.235.235,0,0,1-.226-.3q.124-.423.244-.836c1.094-3.76,2.039-7.008,4.281-8.5a.235.235,0,0,1,.261.392c-2.1,1.4-2.978,4.418-4.09,8.241q-.12.414-.244.837A.235.235,0,0,1,825.89,1583.382Z" transform="translate(-806.029 -1559.655)" fill="#caddff"/>
              </g>
            </g>
            <g id="グループ_3085" data-name="グループ 3085" transform="translate(16.83 21.52)">
              <g id="グループ_3082" data-name="グループ 3082" transform="translate(19.456 25.996)">
                <path id="パス_4146" data-name="パス 4146" d="M953.246,1435.747l.266,2.074a12.491,12.491,0,0,1,.051,1.962,3.234,3.234,0,0,1-1.386,2.389l-.761-5.346Z" transform="translate(-951.18 -1435.511)" fill="#fff"/>
                <path id="パス_4147" data-name="パス 4147" d="M949.1,1439.326a.234.234,0,0,1-.233-.2l-.761-5.347a.235.235,0,0,1,.114-.236l1.831-1.079a.235.235,0,0,1,.353.173l.266,2.074a12.711,12.711,0,0,1,.052,2.01,3.452,3.452,0,0,1-1.486,2.564A.234.234,0,0,1,949.1,1439.326Zm-.506-5.459.681,4.785a2.964,2.964,0,0,0,.976-1.968,12.3,12.3,0,0,0-.051-1.925l-.219-1.709Z" transform="translate(-948.101 -1432.43)"/>
              </g>
              <g id="グループ_3083" data-name="グループ 3083" transform="translate(19.436 14.638)">
                <path id="パス_4148" data-name="パス 4148" d="M952.593,1275.849c.244-.019,1.937-.107,2.182-.1a5.122,5.122,0,0,1,4.519,2.393,1.538,1.538,0,0,1-1.511,2.435,22.288,22.288,0,0,1-5.837-2.685c-.316-.191-.845-.275-.814-.645C951.184,1276.609,951.3,1275.95,952.593,1275.849Z" transform="translate(-950.895 -1275.516)" fill="#fff"/>
                <path id="パス_4149" data-name="パス 4149" d="M955,1277.771a1.468,1.468,0,0,1-.353-.042,22.3,22.3,0,0,1-5.9-2.712,2.281,2.281,0,0,0-.263-.126c-.3-.128-.7-.3-.664-.739.06-.723.244-1.5,1.678-1.616.237-.019,1.943-.109,2.21-.1a5.355,5.355,0,0,1,4.7,2.49,1.715,1.715,0,0,1,.065,2.031A1.818,1.818,0,0,1,955,1277.771Zm-3.359-4.864c-.344,0-1.852.077-2.109.1h0c-1.155.09-1.2.622-1.246,1.186-.008.093.153.17.381.268a2.675,2.675,0,0,1,.32.155,21.841,21.841,0,0,0,5.772,2.658,1.282,1.282,0,0,0,1.32-.577,1.244,1.244,0,0,0-.056-1.492,4.888,4.888,0,0,0-4.338-2.3Zm-2.127-.137h0Z" transform="translate(-947.812 -1272.436)"/>
              </g>
              <g id="グループ_3084" data-name="グループ 3084">
                <path id="パス_4150" data-name="パス 4150" d="M695.6,1089.32c-.519-1.329-3.132-7.127-3.9-10.973l-1.455-8.427a3.222,3.222,0,0,0-1.814-2.387,20.536,20.536,0,0,0-9.02-1.229s-3.294-.049-4.555,2.684a6.567,6.567,0,0,0-.66,4.666,18.594,18.594,0,0,0,1.991,5.232,8.075,8.075,0,0,1,.944,5.361q-.048.341-.073.683a10.048,10.048,0,0,0,.272,3.053,1.982,1.982,0,0,1-.591,1.926c-.166.151-.316.292-.4.389-.574.63-1.075,1.85.118,3.628,2.742,4.087,11.328-3.83,14.165-4a4.613,4.613,0,0,1,1.6.139,1.909,1.909,0,0,1,1.1.892,34.9,34.9,0,0,1,.769,3.641s1.444.016,1.935-.928S696.212,1090.9,695.6,1089.32Z" transform="translate(-674.035 -1066.248)" fill="#5479f7"/>
                <path id="パス_4151" data-name="パス 4151" d="M724.408,1098.727c.43-.1,1.938-.453,2.2-.565a1.4,1.4,0,0,0,.921-1,4.041,4.041,0,0,0,.255-2,.7.7,0,0,0-.643-.552c-1.452-.091-8.179-.464-8.972-1.262-.91-.916-.91-2.289-2.139-6.226s-2.958-5.036-2.958-5.036-3.431-2.638-3.732,2.289a21.77,21.77,0,0,0,2.367,9.385c1.668,3.424,4.305,6.943,12.7,4.973Z" transform="translate(-706.834 -1080.3)" fill="#5479f7"/>
                <path id="パス_4152" data-name="パス 4152" d="M729.322,1267.753c-6.428,0-9.655-3.191-10.87-4.8a.235.235,0,1,1,.375-.284c1.436,1.9,5.8,6.089,15.266,4.074a.235.235,0,1,1,.1.46A23.393,23.393,0,0,1,729.322,1267.753Z" transform="translate(-715.255 -1248.642)" fill="#99b9ff"/>
                <path id="パス_4153" data-name="パス 4153" d="M741.878,1096.957h-.016l-.256-.018c-3.413-.233-6.3-.464-7-.929-1.56-1.027-2.038-2.128-3.254-6.025-1.19-3.811-2.843-4.9-2.86-4.907l-.017-.012a3.91,3.91,0,0,0-1.134-.57.235.235,0,1,1,.13-.452,4.329,4.329,0,0,1,1.283.643c.156.1,1.84,1.29,3.047,5.158,1.268,4.063,1.7,4.872,3.064,5.772.66.435,4.488.7,6.775.852l.256.018a.235.235,0,0,1-.016.47Z" transform="translate(-723.396 -1082.772)" fill="#99b9ff"/>
                <path id="パス_4154" data-name="パス 4154" d="M818.3,1153.792a.235.235,0,0,1-.17-.4,2.312,2.312,0,0,0,.338-2.74.235.235,0,0,1,.409-.234,2.783,2.783,0,0,1-.407,3.3A.233.233,0,0,1,818.3,1153.792Z" transform="translate(-807.836 -1144.335)" fill="#99b9ff"/>
                <path id="パス_4155" data-name="パス 4155" d="M880.112,1148.017a.235.235,0,0,1-.225-.167c-.47-1.553-.707-2.565-.894-3.427a2.271,2.271,0,0,1,.265-1.674,2.977,2.977,0,0,0,.045-3.019.235.235,0,0,1,.409-.234,3.447,3.447,0,0,1-.052,3.5,1.8,1.8,0,0,0-.207,1.329c.184.853.419,1.853.884,3.39a.235.235,0,0,1-.157.293A.232.232,0,0,1,880.112,1148.017Z" transform="translate(-864.391 -1134.187)" fill="#99b9ff"/>
              </g>
            </g>
            <g id="グループ_3087" data-name="グループ 3087">
              <path id="パス_4156" data-name="パス 4156" d="M468.269,777.12s1.785.036,1.52-3.269c-.339-4.212-4.489-3.06-5.894-3.479a5.313,5.313,0,0,1-2.969-2.987c-1.657-4.566-8.668-5.727-11.35-2.265-.121.157-.194.342-.318.5-.379.47-.889,1.078-4.546-.184-3.219-1.111-8.995.54-7.517,4.9a5.533,5.533,0,0,0,2.517,2.99c.214.123.45.246.708.365A2.165,2.165,0,0,1,441.8,775.5c.028,4.209,2.083,8.384,11.624,3.624a2.336,2.336,0,0,1,2.166.193c.809.466,1.632,2.841,5.748,2.249a6.865,6.865,0,0,0,4.591-3.167A3.213,3.213,0,0,1,468.269,777.12Z" transform="translate(-436.958 -763.106)"/>
              <g id="グループ_3086" data-name="グループ 3086" transform="translate(21.612 10.595)">
                <path id="パス_4157" data-name="パス 4157" d="M748.659,917.937a.687.687,0,0,0,.535.034c1.038-.492,1.026-1.044,1.468-1.529a1.731,1.731,0,0,1,3.094.417c.252.781.008,1.252.846,2.264.08.1.011.252-.088.329l-.527.452a.96.96,0,0,0-.22.516,1.328,1.328,0,0,1-1.989,1.638l-.944,2.955a2,2,0,0,0,.235,1.666.34.34,0,0,1-.227.523,15.062,15.062,0,0,1-3.014-.006,10.335,10.335,0,0,1-3.119-.55s3.783-.425,3.953-5.9a.35.35,0,0,0-.126-.3c-.345-.263-1.273-1.039-1.111-1.826C747.6,917.794,748.211,917.666,748.659,917.937Z" transform="translate(-744.474 -915.427)" fill="#fff"/>
                <path id="パス_4158" data-name="パス 4158" d="M746.588,924.421c-.516,0-1.136-.025-1.855-.074a10.487,10.487,0,0,1-3.2-.57.235.235,0,0,1,.069-.449c.146-.017,3.583-.481,3.744-5.669a.128.128,0,0,0-.033-.1c-.524-.4-1.376-1.2-1.2-2.06a1.187,1.187,0,0,1,.654-.93,1.007,1.007,0,0,1,.932.084h0a.475.475,0,0,0,.313.023,2.059,2.059,0,0,0,1.039-.966,2.931,2.931,0,0,1,.356-.509,2.086,2.086,0,0,1,2.033-.816A2.062,2.062,0,0,1,750.9,913.7a3.98,3.98,0,0,1,.147.7,2.494,2.494,0,0,0,.656,1.484.4.4,0,0,1,.086.3.559.559,0,0,1-.212.365l-.518.445a.819.819,0,0,0-.139.36c-.006.067-.013.145-.02.231-.079.929-.138,1.283-.311,1.424a3.552,3.552,0,0,1-1.722.206L747.978,922a1.764,1.764,0,0,0,.209,1.467.581.581,0,0,1,.041.555.565.565,0,0,1-.431.328A8.3,8.3,0,0,1,746.588,924.421Zm-4.124-.858a19.85,19.85,0,0,0,5.263.323.093.093,0,0,0,.073-.056.111.111,0,0,0-.009-.107,2.227,2.227,0,0,1-.263-1.856l.946-2.963a.233.233,0,0,1,.239-.163,4.9,4.9,0,0,0,1.565-.083,6.256,6.256,0,0,0,.154-1.107c.007-.087.014-.168.021-.236a1.159,1.159,0,0,1,.311-.681l.518-.445a.157.157,0,0,0,.032-.034,2.934,2.934,0,0,1-.731-1.684,3.537,3.537,0,0,0-.129-.624,1.59,1.59,0,0,0-1.111-1,1.678,1.678,0,0,0-1.585.674,2.525,2.525,0,0,0-.3.432,2.512,2.512,0,0,1-1.242,1.151.911.911,0,0,1-.758-.045h0a.542.542,0,0,0-.5-.056.767.767,0,0,0-.381.594c-.13.631.672,1.323,1.023,1.591a.581.581,0,0,1,.218.49C745.693,921.685,743.639,923.088,742.464,923.563Zm7.806-4.891Z" transform="translate(-741.394 -912.344)"/>
              </g>
            </g>
          </g>
          <g id="グループ_3089" data-name="グループ 3089" transform="translate(39.246 38.956)">
            <path id="パス_4159" data-name="パス 4159" d="M993.682,1315.167a.592.592,0,0,0-.53.828c.017.037.036.076.058.117a5.152,5.152,0,0,0,2.649,2.111c.9.151,1.439-1.706,1-2.262C996.254,1315.2,994.446,1315.15,993.682,1315.167Z" transform="translate(-992.866 -1314.929)" fill="#fff"/>
            <path id="パス_4160" data-name="パス 4160" d="M992.887,1315.389a.829.829,0,0,1-.14-.012,5.351,5.351,0,0,1-2.816-2.23c-.025-.047-.048-.091-.067-.134a.815.815,0,0,1,.056-.771.829.829,0,0,1,.683-.388h0c.98-.02,2.719.065,3.366.883a2.041,2.041,0,0,1-.141,2A1.139,1.139,0,0,1,992.887,1315.389Zm-2.273-3.065a.359.359,0,0,0-.3.169.342.342,0,0,0-.025.327c.015.032.031.065.05.1a4.934,4.934,0,0,0,2.481,1.992c.281.049.5-.237.6-.412a1.672,1.672,0,0,0,.177-1.473c-.375-.474-1.493-.736-2.987-.7Z" transform="translate(-989.792 -1311.851)"/>
          </g>
        </g>
        <g id="グループ_3091" data-name="グループ 3091" transform="translate(38.78 27.848)">
          <path id="パス_4161" data-name="パス 4161" d="M985.223,1182.07a.235.235,0,0,1-.176-.079l-1.77-2a.235.235,0,1,1,.352-.312l1.771,2a.235.235,0,0,1-.176.391Z" transform="translate(-983.217 -1177.881)"/>
          <path id="パス_4162" data-name="パス 4162" d="M1071.854,1182.07a.235.235,0,0,1-.176-.391l1.77-2a.235.235,0,1,1,.353.312l-1.771,2A.234.234,0,0,1,1071.854,1182.07Z" transform="translate(-1065.343 -1177.881)"/>
          <path id="パス_4163" data-name="パス 4163" d="M1041.791,1159.13a.235.235,0,0,1-.235-.235v-3.283a.235.235,0,1,1,.47,0v3.283A.235.235,0,0,1,1041.791,1159.13Z" transform="translate(-1037.415 -1155.376)"/>
        </g>
      </g>
      <g id="グループ_3097" data-name="グループ 3097" transform="translate(0 16.844)">
        <path id="パス_4164" data-name="パス 4164" d="M1058.108,1088.748a.57.57,0,1,1,.57.574A.572.572,0,0,1,1058.108,1088.748Z" transform="translate(-1006.635 -1051.552)" fill="#99b9ff"/>
        <g id="グループ_3093" data-name="グループ 3093" transform="translate(0 0)">
          <path id="パス_4165" data-name="パス 4165" d="M1041.452,639.01a.235.235,0,0,1-.06-.463l.429-.115a.235.235,0,0,1,.124.454l-.432.116A.239.239,0,0,1,1041.452,639.01Zm2.239-.637a.235.235,0,0,1-.069-.46c.6-.184,1.2-.378,1.784-.576a.235.235,0,0,1,.152.445c-.585.2-1.191.395-1.8.58A.231.231,0,0,1,1043.691,638.372Zm3.562-1.217a.235.235,0,0,1-.084-.455c.589-.224,1.173-.46,1.738-.7a.235.235,0,1,1,.184.433c-.57.242-1.16.48-1.754.706A.233.233,0,0,1,1047.253,637.155Zm3.463-1.475a.235.235,0,0,1-.1-.448c.571-.272,1.133-.555,1.672-.842a.235.235,0,1,1,.221.415c-.545.29-1.114.577-1.691.852A.237.237,0,0,1,1050.716,635.68Zm3.319-1.773a.235.235,0,0,1-.121-.437c.542-.325,1.072-.663,1.576-1.005a.235.235,0,1,1,.264.389c-.511.347-1.048.69-1.6,1.019A.234.234,0,0,1,1054.035,633.908Zm3.11-2.116a.235.235,0,0,1-.144-.421c.5-.386.981-.787,1.435-1.192a.235.235,0,0,1,.313.351c-.462.412-.953.82-1.46,1.213A.234.234,0,0,1,1057.145,631.791Zm2.8-2.508a.235.235,0,0,1-.17-.4c.435-.454.849-.924,1.229-1.4a.235.235,0,0,1,.367.3c-.389.484-.812.964-1.256,1.428A.234.234,0,0,1,1059.947,629.283Zm2.351-2.932a.235.235,0,0,1-.2-.365,17.945,17.945,0,0,0,.939-1.6.235.235,0,1,1,.418.217,18.425,18.425,0,0,1-.964,1.643A.235.235,0,0,1,1062.3,626.352Zm1.724-3.336a.236.236,0,0,1-.219-.32,16.318,16.318,0,0,0,.567-1.764.235.235,0,0,1,.456.118,16.782,16.782,0,0,1-.583,1.815A.236.236,0,0,1,1064.022,623.015Zm.942-3.635-.033,0a.235.235,0,0,1-.2-.266,16.32,16.32,0,0,0,.151-1.848.236.236,0,0,1,.235-.229h.006a.236.236,0,0,1,.229.241,16.812,16.812,0,0,1-.155,1.9A.235.235,0,0,1,1064.965,619.38Zm.1-3.755a.236.236,0,0,1-.234-.215,18.07,18.07,0,0,0-.253-1.836.235.235,0,1,1,.462-.088,18.63,18.63,0,0,1,.26,1.884.235.235,0,0,1-.214.254Zm-.7-3.686a.235.235,0,0,1-.226-.17c-.169-.582-.369-1.175-.6-1.761a.235.235,0,0,1,.439-.169c.231.6.435,1.2.608,1.8a.235.235,0,0,1-.16.292A.232.232,0,0,1,1064.365,611.939Zm-1.346-3.506a.235.235,0,0,1-.213-.134c-.261-.548-.551-1.1-.861-1.654a.235.235,0,1,1,.41-.231c.316.559.61,1.125.876,1.682a.235.235,0,0,1-.212.337Zm-1.844-3.276a.235.235,0,0,1-.2-.107c-.331-.51-.688-1.028-1.061-1.538a.235.235,0,1,1,.38-.278c.378.517.74,1.042,1.076,1.559a.235.235,0,0,1-.2.363Zm-2.217-3.039a.235.235,0,0,1-.183-.087c-.385-.475-.793-.955-1.212-1.426a.235.235,0,1,1,.352-.312c.424.476.836.962,1.226,1.442a.235.235,0,0,1-.183.384Zm-2.5-2.814a.234.234,0,0,1-.169-.072c-.425-.44-.872-.885-1.327-1.322a.235.235,0,0,1,.326-.34c.459.441.91.89,1.34,1.335a.235.235,0,0,1-.169.4Zm-2.714-2.607a.236.236,0,0,1-.157-.06c-.457-.409-.934-.822-1.417-1.227a.235.235,0,1,1,.3-.361c.487.408.968.824,1.429,1.237a.235.235,0,0,1-.157.411Zm-2.885-2.419a.234.234,0,0,1-.145-.051c-.485-.382-.986-.766-1.49-1.14a.235.235,0,0,1,.281-.378c.507.377,1.012.763,1.5,1.148a.235.235,0,0,1-.146.42Zm-3.021-2.247a.235.235,0,0,1-.135-.043c-.506-.356-1.027-.712-1.549-1.06a.235.235,0,1,1,.261-.392c.525.349,1.049.708,1.558,1.066a.235.235,0,0,1-.135.428Zm-3.133-2.088a.233.233,0,0,1-.125-.037c-.522-.33-1.059-.662-1.6-.986a.235.235,0,1,1,.242-.4c.542.326,1.082.659,1.607.991a.235.235,0,0,1-.126.434ZM1041.481,588a.234.234,0,0,1-.117-.031c-.537-.307-1.088-.616-1.639-.916a.235.235,0,1,1,.225-.413c.554.3,1.108.612,1.648.921a.235.235,0,0,1-.117.44Zm-3.3-1.8a.234.234,0,0,1-.108-.026c-.553-.287-1.116-.574-1.675-.851a.235.235,0,1,1,.209-.422c.561.278,1.127.566,1.682.855a.235.235,0,0,1-.109.444Zm-3.373-1.674a.234.234,0,0,1-.1-.023c-.561-.266-1.135-.531-1.7-.788a.235.235,0,1,1,.194-.429c.573.259,1.149.525,1.713.792a.235.235,0,0,1-.1.448Zm-3.431-1.55a.235.235,0,0,1-.093-.019c-.573-.247-1.156-.492-1.732-.729a.235.235,0,0,1,.179-.435c.578.238,1.163.484,1.739.732a.235.235,0,0,1-.093.451Zm-3.482-1.432a.235.235,0,0,1-.086-.016c-.584-.229-1.175-.455-1.755-.671a.235.235,0,0,1,.165-.441c.583.218,1.175.444,1.762.674a.235.235,0,0,1-.086.454Zm-3.527-1.318a.232.232,0,0,1-.079-.014c-.586-.208-1.184-.416-1.775-.616a.235.235,0,0,1,.151-.446c.594.2,1.193.409,1.782.618a.235.235,0,0,1-.079.457Zm-3.567-1.207a.229.229,0,0,1-.072-.011c-.6-.191-1.2-.38-1.793-.562a.235.235,0,0,1,.137-.45c.6.182,1.2.371,1.8.564a.235.235,0,0,1-.072.459Zm-3.6-1.1a.234.234,0,0,1-.065-.009c-.6-.172-1.2-.343-1.809-.509a.235.235,0,1,1,.124-.454c.607.166,1.218.338,1.816.511a.235.235,0,0,1-.065.461Zm-3.632-.993a.237.237,0,0,1-.059-.008c-.6-.155-1.215-.309-1.823-.456a.235.235,0,0,1,.111-.457c.61.148,1.226.3,1.83.458a.235.235,0,0,1-.059.463Zm-3.659-.888a.245.245,0,0,1-.053-.006c-.6-.138-1.22-.274-1.835-.4a.235.235,0,1,1,.1-.46c.617.131,1.237.268,1.842.406a.235.235,0,0,1-.052.465Zm-3.682-.785a.237.237,0,0,1-.046,0c-.61-.121-1.23-.24-1.845-.353a.235.235,0,0,1,.085-.463c.617.114,1.24.233,1.852.355a.235.235,0,0,1-.046.466Zm-3.7-.682a.233.233,0,0,1-.04,0c-.613-.1-1.236-.205-1.854-.3a.235.235,0,1,1,.072-.465c.62.1,1.246.2,1.861.3a.235.235,0,0,1-.039.467Zm-3.719-.577-.033,0c-.616-.086-1.242-.17-1.862-.248a.235.235,0,1,1,.059-.467c.622.078,1.251.162,1.869.249a.235.235,0,0,1-.032.468Zm-3.734-.469h-.026c-.619-.069-1.247-.133-1.868-.193a.235.235,0,1,1,.045-.468c.623.06,1.254.125,1.875.193a.235.235,0,0,1-.026.469Zm-3.746-.358H991.3c-.627-.05-1.257-.1-1.873-.136a.235.235,0,1,1,.031-.47c.618.04,1.251.086,1.88.137a.235.235,0,0,1-.019.47Zm-3.755-.244h-.012c-.622-.03-1.253-.057-1.876-.077a.235.235,0,0,1-.228-.243.232.232,0,0,1,.243-.227c.625.021,1.259.047,1.883.078a.235.235,0,0,1-.011.47Zm-3.76-.124h0c-.623-.01-1.251-.016-1.867-.016a.24.24,0,0,1-.241-.235.231.231,0,0,1,.23-.235h.011c.618,0,1.249.005,1.874.016a.235.235,0,0,1,0,.471Z" transform="translate(-935.649 -572.311)"/>
          <path id="パス_4166" data-name="パス 4166" d="M357.652,636.91a.234.234,0,0,1-.115-.03c-.551-.309-1.1-.625-1.637-.94a.235.235,0,1,1,.239-.406c.532.313,1.08.628,1.628.935a.235.235,0,0,1-.115.441ZM354.407,635a.234.234,0,0,1-.124-.035c-.536-.332-1.073-.672-1.594-1.011a.235.235,0,1,1,.257-.394c.518.337,1.052.676,1.585,1.006a.235.235,0,0,1-.124.435Zm-3.155-2.054a.233.233,0,0,1-.133-.041c-.521-.358-1.041-.724-1.544-1.088a.235.235,0,0,1,.276-.381c.5.362,1.015.726,1.533,1.082a.235.235,0,0,1-.133.429Zm-3.047-2.21a.233.233,0,0,1-.143-.049c-.5-.386-1-.78-1.482-1.172a.235.235,0,0,1,.3-.365c.477.389.972.78,1.471,1.163a.235.235,0,0,1-.143.422Zm-2.917-2.379a.235.235,0,0,1-.154-.058c-.48-.417-.953-.842-1.406-1.263a.235.235,0,1,1,.32-.345c.449.418.918.839,1.395,1.252a.235.235,0,0,1-.154.413Zm-2.756-2.564a.235.235,0,0,1-.166-.069c-.449-.449-.89-.908-1.311-1.363a.235.235,0,0,1,.346-.319c.416.451.853.9,1.3,1.35a.235.235,0,0,1-.166.4Zm-2.551-2.766a.235.235,0,0,1-.18-.083c-.413-.488-.812-.983-1.188-1.474a.235.235,0,1,1,.373-.286c.372.484.767.974,1.174,1.456a.235.235,0,0,1-.179.387Zm-2.287-2.988a.235.235,0,0,1-.194-.1c-.362-.528-.708-1.064-1.027-1.594a.235.235,0,1,1,.4-.243c.314.521.655,1.05,1.012,1.57a.235.235,0,0,1-.194.368Zm-1.937-3.224a.236.236,0,0,1-.209-.127c-.294-.57-.567-1.148-.81-1.717a.235.235,0,0,1,.433-.185c.238.559.506,1.126.795,1.686a.235.235,0,0,1-.209.343Zm-1.47-3.46a.235.235,0,0,1-.223-.161c-.2-.609-.377-1.224-.52-1.83a.235.235,0,0,1,.458-.107c.139.591.31,1.193.508,1.788a.235.235,0,0,1-.223.31Zm-.854-3.658a.235.235,0,0,1-.233-.2,17.887,17.887,0,0,1-.149-1.9.236.236,0,0,1,.23-.241.24.24,0,0,1,.241.23,17.41,17.41,0,0,0,.145,1.849.235.235,0,0,1-.2.264Zm-.087-3.755h-.021a.235.235,0,0,1-.214-.255,16.755,16.755,0,0,1,.263-1.819l.014-.069a.235.235,0,0,1,.461.094l-.014.068a16.261,16.261,0,0,0-.255,1.768A.235.235,0,0,1,333.345,605.942Zm.757-3.678a.231.231,0,0,1-.074-.012.235.235,0,0,1-.15-.3,17.016,17.016,0,0,1,.7-1.773.235.235,0,1,1,.428.2,16.581,16.581,0,0,0-.677,1.724A.235.235,0,0,1,334.1,602.264Zm1.561-3.412a.233.233,0,0,1-.12-.033.236.236,0,0,1-.082-.323c.319-.536.674-1.069,1.055-1.584a.235.235,0,0,1,.379.28c-.372.5-.718,1.023-1.029,1.545A.235.235,0,0,1,335.663,598.852Zm2.228-3.024a.235.235,0,0,1-.176-.392c.412-.463.856-.923,1.321-1.366a.235.235,0,1,1,.325.34c-.455.434-.89.885-1.294,1.339A.235.235,0,0,1,337.89,595.827Zm2.716-2.6a.235.235,0,0,1-.15-.417c.477-.393.983-.782,1.5-1.156a.235.235,0,1,1,.275.382c-.513.369-1.01.751-1.479,1.138A.235.235,0,0,1,340.606,593.228Zm3.051-2.2a.235.235,0,0,1-.126-.434c.522-.331,1.07-.657,1.627-.97a.235.235,0,1,1,.23.41c-.55.309-1.091.631-1.606.957A.235.235,0,0,1,343.658,591.029Zm3.279-1.845a.235.235,0,0,1-.105-.446c.553-.277,1.129-.549,1.711-.809a.235.235,0,1,1,.192.43c-.576.257-1.145.526-1.692.8A.234.234,0,0,1,346.937,589.184Zm3.435-1.537a.235.235,0,0,1-.087-.454c.577-.231,1.172-.456,1.768-.67a.235.235,0,0,1,.159.443c-.592.212-1.181.435-1.752.664A.234.234,0,0,1,350.372,587.646Zm3.543-1.271a.235.235,0,0,1-.072-.459c.59-.189,1.2-.374,1.808-.548a.235.235,0,0,1,.13.453c-.6.173-1.209.356-1.794.544A.233.233,0,0,1,353.915,586.375Zm3.618-1.038a.235.235,0,0,1-.058-.463c.6-.154,1.219-.3,1.836-.442a.235.235,0,1,1,.1.459c-.613.139-1.227.286-1.824.439A.231.231,0,0,1,357.533,585.337Zm3.672-.832a.235.235,0,0,1-.046-.466c.606-.121,1.23-.237,1.856-.346a.235.235,0,1,1,.081.464c-.622.109-1.243.224-1.845.344A.229.229,0,0,1,361.2,584.506Zm3.709-.646a.235.235,0,0,1-.035-.468c.614-.092,1.243-.18,1.87-.26a.235.235,0,0,1,.06.467c-.624.08-1.249.167-1.859.258Z" transform="translate(-333.05 -582.362)"/>
        </g>
        <path id="パス_4167" data-name="パス 4167" d="M1030.661,1933.446a1.545,1.545,0,1,1,1.537-1.545A1.543,1.543,0,0,1,1030.661,1933.446Zm0-2.619a1.074,1.074,0,1,0,1.066,1.074A1.071,1.071,0,0,0,1030.661,1930.827Z" transform="translate(-979.709 -1833.947)"/>
        <path id="パス_4168" data-name="パス 4168" d="M2049.786,709.366a1.908,1.908,0,1,1,1.9-1.908A1.905,1.905,0,0,1,2049.786,709.366Zm0-3.345a1.437,1.437,0,1,0,1.427,1.437A1.434,1.434,0,0,0,2049.786,706.021Z" transform="translate(-1926.149 -696.091)"/>
        <path id="パス_4169" data-name="パス 4169" d="M1060.062,1746.448a.877.877,0,1,1-.877-.882A.879.879,0,0,1,1060.062,1746.448Z" transform="translate(-1006.821 -1662.275)" fill="#99b9ff"/>
        <path id="パス_4170" data-name="パス 4170" d="M2074.464,814a.877.877,0,1,1-.877-.882A.88.88,0,0,1,2074.464,814Z" transform="translate(-1949.209 -796.024)" fill="#99b9ff"/>
        <g id="グループ_3094" data-name="グループ 3094" transform="translate(61.715 10.055)">
          <path id="パス_4171" data-name="パス 4171" d="M1203.226,715.03a.235.235,0,0,1-.167-.069l-.61-.613a.235.235,0,0,1,.334-.332l.61.613a.235.235,0,0,1-.167.4Z" transform="translate(-1202.38 -713.946)"/>
          <path id="パス_4172" data-name="パス 4172" d="M1233.286,745.267a.235.235,0,0,1-.167-.069l-.61-.613a.235.235,0,0,1,.334-.332l.61.613a.235.235,0,0,1-.167.4Z" transform="translate(-1230.307 -742.037)"/>
          <path id="パス_4173" data-name="パス 4173" d="M1202.616,745.27a.235.235,0,0,1-.167-.4l.61-.613a.235.235,0,0,1,.334.332l-.61.613A.235.235,0,0,1,1202.616,745.27Z" transform="translate(-1202.38 -742.039)"/>
          <path id="パス_4174" data-name="パス 4174" d="M1232.676,715.031a.235.235,0,0,1-.167-.4l.61-.613a.235.235,0,0,1,.334.332l-.61.613A.235.235,0,0,1,1232.676,715.031Z" transform="translate(-1230.307 -713.947)"/>
        </g>
        <g id="グループ_3095" data-name="グループ 3095" transform="translate(115.57 101.206)">
          <path id="パス_4175" data-name="パス 4175" d="M1961.234,2025.895a.235.235,0,0,1,0-.471h.862a.235.235,0,0,1,0,.471h-.862Z" transform="translate(-1960.999 -2023.471)"/>
          <path id="パス_4176" data-name="パス 4176" d="M2003.726,2025.876a.235.235,0,0,1,0-.47h.862a.235.235,0,0,1,0,.47h-.862Z" transform="translate(-2000.475 -2023.454)"/>
          <path id="長方形_9869" data-name="長方形 9869" d="M.235,0h0A.235.235,0,0,1,.471.235V1.1a.235.235,0,0,1-.235.235h0A.235.235,0,0,1,0,1.1V.235A.235.235,0,0,1,.235,0Z" transform="translate(1.939 3.037)"/>
          <path id="長方形_9870" data-name="長方形 9870" d="M.235,0h0A.235.235,0,0,1,.471.235V1.1a.235.235,0,0,1-.235.235h0A.235.235,0,0,1,0,1.1V.235A.235.235,0,0,1,.235,0Z" transform="translate(1.94)"/>
        </g>
        <g id="グループ_3096" data-name="グループ 3096" transform="translate(56.517 91.774)">
          <path id="パス_4177" data-name="パス 4177" d="M1130.011,1866.145a.234.234,0,0,1-.167-.07l-.61-.613a.235.235,0,1,1,.334-.332l.61.613a.235.235,0,0,1-.167.4Z" transform="translate(-1129.166 -1865.061)"/>
          <path id="パス_4178" data-name="パス 4178" d="M1160.07,1896.38a.235.235,0,0,1-.167-.069l-.61-.613a.235.235,0,0,1,.334-.332l.61.613a.235.235,0,0,1-.167.4Z" transform="translate(-1157.092 -1893.15)"/>
          <path id="パス_4179" data-name="パス 4179" d="M1129.4,1896.383a.235.235,0,0,1-.167-.4l.61-.613a.235.235,0,0,1,.334.332l-.61.613A.234.234,0,0,1,1129.4,1896.383Z" transform="translate(-1129.166 -1893.153)"/>
          <path id="パス_4180" data-name="パス 4180" d="M1159.461,1866.146a.235.235,0,0,1-.167-.4l.61-.613a.235.235,0,0,1,.334.332l-.61.613A.234.234,0,0,1,1159.461,1866.146Z" transform="translate(-1157.092 -1865.062)"/>
        </g>
      </g>
    </g>
  </g>
</svg>
