<svg xmlns="http://www.w3.org/2000/svg" width="160" height="160" viewBox="0 0 160 160">
  <g id="グループ_6408" data-name="グループ 6408" transform="translate(-20 -8880.173)">
    <g id="長方形_10522" data-name="長方形 10522" transform="translate(20 8880.173)" fill="#fff" stroke="#f77ee6" stroke-width="4">
      <rect width="160" height="160" stroke="none"/>
      <rect x="2" y="2" width="156" height="156" fill="none"/>
    </g>
    <g id="グループ_6187" data-name="グループ 6187" transform="translate(17.516 8916.508)">
      <path id="パス_1787" data-name="パス 1787" d="M3.008-22.715H10.5a10.755,10.755,0,0,1,4.874,1.065,7.885,7.885,0,0,1,3.306,3.013,8.523,8.523,0,0,1,1.176,4.494,8.523,8.523,0,0,1-1.176,4.494,7.885,7.885,0,0,1-3.306,3.013A10.755,10.755,0,0,1,10.5-5.571H3.008Zm7.348,14.45a7.276,7.276,0,0,0,3.319-.723,5.169,5.169,0,0,0,2.2-2.057,6.08,6.08,0,0,0,.771-3.1,6.08,6.08,0,0,0-.771-3.1,5.169,5.169,0,0,0-2.2-2.057,7.276,7.276,0,0,0-3.319-.723H6.192V-8.265Zm23.9-3.772q0,.318-.049.906H23.949a3.557,3.557,0,0,0,1.408,2.29A4.616,4.616,0,0,0,28.186-8a4.767,4.767,0,0,0,3.551-1.421L33.378-7.53a5.529,5.529,0,0,1-2.229,1.592,8.118,8.118,0,0,1-3.037.539,8.083,8.083,0,0,1-3.8-.857,6.174,6.174,0,0,1-2.535-2.388,6.744,6.744,0,0,1-.894-3.466,6.843,6.843,0,0,1,.869-3.441,6.168,6.168,0,0,1,2.412-2.388,7.039,7.039,0,0,1,3.478-.857,6.862,6.862,0,0,1,3.417.845,5.984,5.984,0,0,1,2.351,2.376A7.2,7.2,0,0,1,34.26-12.037Zm-6.613-4.311a3.693,3.693,0,0,0-2.486.869,3.657,3.657,0,0,0-1.237,2.315h7.421a3.609,3.609,0,0,0-1.2-2.3A3.65,3.65,0,0,0,27.647-16.347Zm8.572-7.4h3.062V-5.571H36.219Zm6.1,0h3.062V-5.571H42.318ZM53.413-18.8a6.377,6.377,0,0,1,4.421,1.384,5.349,5.349,0,0,1,1.531,4.176v7.666h-2.89V-7.163a3.562,3.562,0,0,1-1.6,1.31,6.271,6.271,0,0,1-2.51.453,6.151,6.151,0,0,1-2.572-.5,3.973,3.973,0,0,1-1.7-1.4,3.543,3.543,0,0,1-.6-2.021,3.463,3.463,0,0,1,1.31-2.829,6.507,6.507,0,0,1,4.127-1.065H56.3v-.2a2.681,2.681,0,0,0-.82-2.106,3.55,3.55,0,0,0-2.437-.735,7.034,7.034,0,0,0-2.168.343,5.325,5.325,0,0,0-1.8.955l-1.2-2.229a7.431,7.431,0,0,1,2.474-1.2A11.007,11.007,0,0,1,53.413-18.8ZM53-7.628a3.953,3.953,0,0,0,2.045-.527A2.865,2.865,0,0,0,56.3-9.661V-11.18H53.143q-2.645,0-2.645,1.739a1.561,1.561,0,0,0,.661,1.323A3.032,3.032,0,0,0,53-7.628ZM84.126-5.571,84.1-16.935l-5.633,9.4H77.048l-5.633-9.258V-5.571H68.377V-22.715H71l6.809,11.364,6.686-11.364h2.621l.025,17.144ZM95.49-18.8a6.377,6.377,0,0,1,4.421,1.384,5.349,5.349,0,0,1,1.531,4.176v7.666h-2.89V-7.163a3.562,3.562,0,0,1-1.6,1.31,6.271,6.271,0,0,1-2.51.453,6.151,6.151,0,0,1-2.572-.5,3.974,3.974,0,0,1-1.7-1.4,3.543,3.543,0,0,1-.6-2.021,3.463,3.463,0,0,1,1.31-2.829A6.507,6.507,0,0,1,95-13.212h3.38v-.2a2.681,2.681,0,0,0-.82-2.106,3.55,3.55,0,0,0-2.437-.735,7.034,7.034,0,0,0-2.168.343,5.325,5.325,0,0,0-1.8.955l-1.2-2.229a7.432,7.432,0,0,1,2.474-1.2A11.007,11.007,0,0,1,95.49-18.8ZM95.074-7.628a3.953,3.953,0,0,0,2.045-.527A2.865,2.865,0,0,0,98.38-9.661V-11.18H95.221q-2.645,0-2.645,1.739a1.561,1.561,0,0,0,.661,1.323A3.032,3.032,0,0,0,95.074-7.628Zm9.307-16.116h3.062V-5.571h-3.062Zm6.1,0h3.062V-5.571h-3.062Z" transform="translate(23.877 51)" fill="#333"/>
      <path id="パス_1788" data-name="パス 1788" d="M3.633-1.908A3.319,3.319,0,0,1,2.02-2.3,2.886,2.886,0,0,1,.892-3.382,3,3,0,0,1,.484-4.939,2.978,2.978,0,0,1,.9-6.5,2.916,2.916,0,0,1,2.029-7.579,3.319,3.319,0,0,1,3.641-7.97a3.363,3.363,0,0,1,1.322.253,2.7,2.7,0,0,1,1.01.732l-.707.665a2.062,2.062,0,0,0-1.574-.69,2.207,2.207,0,0,0-1.086.265,1.91,1.91,0,0,0-.749.737,2.116,2.116,0,0,0-.269,1.069A2.116,2.116,0,0,0,1.856-3.87a1.91,1.91,0,0,0,.749.737,2.207,2.207,0,0,0,1.086.265,2.051,2.051,0,0,0,1.574-.7l.707.674a2.689,2.689,0,0,1-1.015.732A3.394,3.394,0,0,1,3.633-1.908Zm6.946-.084-1.2-1.726a2.244,2.244,0,0,1-.227.008H7.817v1.718H6.723V-7.886H9.147a3.263,3.263,0,0,1,1.334.253,1.94,1.94,0,0,1,.871.724,2.026,2.026,0,0,1,.3,1.12,2,2,0,0,1-.324,1.145,1.928,1.928,0,0,1-.93.716l1.355,1.936Zm-.025-3.8a1.056,1.056,0,0,0-.37-.867A1.681,1.681,0,0,0,9.1-6.96H7.817v2.349H9.1a1.665,1.665,0,0,0,1.086-.307A1.069,1.069,0,0,0,10.553-5.789ZM16.994-2.91v.918h-4.42V-7.886h4.3v.918H13.668v1.532h2.846v.9H13.668V-2.91Zm4.74-.446H18.787l-.581,1.364H17.078L19.73-7.886h1.078l2.66,5.893H22.323Zm-.362-.859L20.261-6.791l-1.1,2.576ZM24.815-6.96H22.862v-.926h5v.926H25.91v4.967H24.815Zm7.99,4.05v.918h-4.42V-7.886h4.3v.918H29.48v1.532h2.846v.9H29.48V-2.91Zm.918-4.976H36.3a3.7,3.7,0,0,1,1.675.366,2.711,2.711,0,0,1,1.137,1.036,2.93,2.93,0,0,1,.4,1.545,2.93,2.93,0,0,1-.4,1.545,2.711,2.711,0,0,1-1.137,1.036,3.7,3.7,0,0,1-1.675.366H33.723Zm2.526,4.967a2.5,2.5,0,0,0,1.141-.248,1.777,1.777,0,0,0,.758-.707,2.09,2.09,0,0,0,.265-1.065A2.09,2.09,0,0,0,38.147-6a1.777,1.777,0,0,0-.758-.707,2.5,2.5,0,0,0-1.141-.248H34.817v4.041ZM46.57-5.057a1.555,1.555,0,0,1,.775.535,1.487,1.487,0,0,1,.286.93,1.363,1.363,0,0,1-.589,1.183,2.961,2.961,0,0,1-1.718.417h-2.93V-7.886h2.761a2.712,2.712,0,0,1,1.608.408,1.312,1.312,0,0,1,.564,1.124,1.476,1.476,0,0,1-.2.775A1.383,1.383,0,0,1,46.57-5.057Zm-3.081-1.97V-5.4h1.549a1.574,1.574,0,0,0,.88-.206.679.679,0,0,0,.307-.6.687.687,0,0,0-.307-.61,1.574,1.574,0,0,0-.88-.206Zm1.768,4.176q1.271,0,1.271-.85t-1.271-.85H43.489v1.7Zm5.658-1.221v2.08H49.82V-4.055L47.5-7.886h1.17L50.4-5.015l1.743-2.871h1.078Zm8.916-.985a1.555,1.555,0,0,1,.775.535,1.487,1.487,0,0,1,.286.93A1.363,1.363,0,0,1,60.3-2.409a2.961,2.961,0,0,1-1.718.417h-2.93V-7.886h2.761a2.712,2.712,0,0,1,1.608.408,1.312,1.312,0,0,1,.564,1.124,1.476,1.476,0,0,1-.2.775A1.383,1.383,0,0,1,59.831-5.057Zm-3.081-1.97V-5.4H58.3a1.574,1.574,0,0,0,.88-.206.679.679,0,0,0,.307-.6.687.687,0,0,0-.307-.61,1.574,1.574,0,0,0-.88-.206Zm1.768,4.176q1.271,0,1.271-.85t-1.271-.85H56.749v1.7Zm5.161.918a2.551,2.551,0,0,1-1.229-.295,2.149,2.149,0,0,1-.855-.821,2.318,2.318,0,0,1-.307-1.191,2.3,2.3,0,0,1,.307-1.187,2.157,2.157,0,0,1,.855-.817,2.551,2.551,0,0,1,1.229-.295,2.568,2.568,0,0,1,1.238.295,2.157,2.157,0,0,1,.855.817,2.3,2.3,0,0,1,.307,1.187,2.318,2.318,0,0,1-.307,1.191,2.149,2.149,0,0,1-.855.821A2.568,2.568,0,0,1,63.678-1.933Zm0-.9a1.286,1.286,0,0,0,.96-.387,1.394,1.394,0,0,0,.379-1.019,1.394,1.394,0,0,0-.379-1.019,1.286,1.286,0,0,0-.96-.387,1.272,1.272,0,0,0-.956.387,1.4,1.4,0,0,0-.375,1.019,1.4,1.4,0,0,0,.375,1.019A1.272,1.272,0,0,0,63.678-2.834Zm3.107-5.405h1.052v6.247H66.785Zm2.13,1.751h1.052v4.5H68.915Zm.53-.741a.676.676,0,0,1-.48-.181.591.591,0,0,1-.194-.45.591.591,0,0,1,.194-.45.676.676,0,0,1,.48-.181.7.7,0,0,1,.48.173.556.556,0,0,1,.194.434.635.635,0,0,1-.189.467A.656.656,0,0,1,69.445-7.229Zm6-1.01v6.247h-1.01v-.581a1.628,1.628,0,0,1-.644.48,2.175,2.175,0,0,1-.846.16,2.369,2.369,0,0,1-1.166-.286,2.057,2.057,0,0,1-.812-.812,2.43,2.43,0,0,1-.295-1.208,2.407,2.407,0,0,1,.295-1.2,2.064,2.064,0,0,1,.812-.808,2.369,2.369,0,0,1,1.166-.286,2.137,2.137,0,0,1,.817.152,1.643,1.643,0,0,1,.631.455V-8.239ZM73.074-2.834a1.354,1.354,0,0,0,.682-.173,1.247,1.247,0,0,0,.48-.493,1.507,1.507,0,0,0,.177-.741,1.507,1.507,0,0,0-.177-.741,1.247,1.247,0,0,0-.48-.493,1.354,1.354,0,0,0-.682-.173,1.353,1.353,0,0,0-.682.173,1.247,1.247,0,0,0-.48.493,1.507,1.507,0,0,0-.177.741,1.507,1.507,0,0,0,.177.741,1.247,1.247,0,0,0,.48.493A1.353,1.353,0,0,0,73.074-2.834Zm7.678-1.381q0,.109-.017.312H77.208a1.223,1.223,0,0,0,.484.787,1.587,1.587,0,0,0,.972.29,1.639,1.639,0,0,0,1.221-.488l.564.648a1.9,1.9,0,0,1-.766.547,2.791,2.791,0,0,1-1.044.185,2.778,2.778,0,0,1-1.3-.295,2.122,2.122,0,0,1-.871-.821,2.318,2.318,0,0,1-.307-1.191,2.352,2.352,0,0,1,.3-1.183,2.12,2.12,0,0,1,.829-.821,2.42,2.42,0,0,1,1.2-.295,2.359,2.359,0,0,1,1.174.29,2.057,2.057,0,0,1,.808.817A2.476,2.476,0,0,1,80.752-4.215ZM78.479-5.7a1.269,1.269,0,0,0-.855.3,1.257,1.257,0,0,0-.425.8H79.75a1.241,1.241,0,0,0-.413-.791A1.255,1.255,0,0,0,78.479-5.7Zm2.593-2.189h.909l-.076,2.332h-.766Zm3.157,5.952a4.025,4.025,0,0,1-1.069-.143,2.69,2.69,0,0,1-.833-.362l.4-.8a2.6,2.6,0,0,0,.728.324,3.026,3.026,0,0,0,.838.122q.943,0,.943-.5A.332.332,0,0,0,85-3.617a4.143,4.143,0,0,0-.77-.177,6.25,6.25,0,0,1-.905-.194,1.389,1.389,0,0,1-.606-.383,1.07,1.07,0,0,1-.257-.762A1.2,1.2,0,0,1,83-6.156a2.433,2.433,0,0,1,1.444-.383,4.167,4.167,0,0,1,.926.105,2.6,2.6,0,0,1,.758.282l-.4.8a2.493,2.493,0,0,0-1.288-.337,1.428,1.428,0,0,0-.7.139.414.414,0,0,0-.24.366.366.366,0,0,0,.257.358,4.081,4.081,0,0,0,.8.2,6.139,6.139,0,0,1,.884.194,1.384,1.384,0,0,1,.594.37,1.033,1.033,0,0,1,.248.741,1.172,1.172,0,0,1-.547,1.01A2.58,2.58,0,0,1,84.229-1.933Zm5.683.025a2.418,2.418,0,0,1-1.04-.223,2.037,2.037,0,0,1-.779-.627l.623-.749a1.42,1.42,0,0,0,1.17.674q.918,0,.918-1.086V-6.968h-2.1v-.918H91.9v3.906a2.142,2.142,0,0,1-.505,1.553A1.979,1.979,0,0,1,89.912-1.908Zm4.833-4.631a2.192,2.192,0,0,1,1.52.476,1.839,1.839,0,0,1,.526,1.435v2.635H95.8V-2.54a1.224,1.224,0,0,1-.551.45,2.156,2.156,0,0,1-.863.156,2.114,2.114,0,0,1-.884-.173,1.366,1.366,0,0,1-.585-.48,1.218,1.218,0,0,1-.206-.695,1.19,1.19,0,0,1,.45-.972,2.237,2.237,0,0,1,1.419-.366h1.162v-.067a.921.921,0,0,0-.282-.724,1.22,1.22,0,0,0-.838-.253,2.418,2.418,0,0,0-.745.118,1.83,1.83,0,0,0-.619.328l-.413-.766a2.555,2.555,0,0,1,.85-.413A3.783,3.783,0,0,1,94.745-6.539ZM94.6-2.7a1.359,1.359,0,0,0,.7-.181.985.985,0,0,0,.434-.518V-3.92H94.652q-.909,0-.909.6a.537.537,0,0,0,.227.455A1.042,1.042,0,0,0,94.6-2.7Zm5.725-3.839a2.386,2.386,0,0,1,1.174.286,2.064,2.064,0,0,1,.812.808,2.407,2.407,0,0,1,.295,1.2,2.431,2.431,0,0,1-.295,1.208,2.057,2.057,0,0,1-.812.812,2.386,2.386,0,0,1-1.174.286,1.815,1.815,0,0,1-1.44-.606V-.359H97.835V-6.488h1V-5.9a1.628,1.628,0,0,1,.644-.48A2.175,2.175,0,0,1,100.327-6.539Zm-.118,3.7a1.272,1.272,0,0,0,.956-.387,1.4,1.4,0,0,0,.375-1.019,1.4,1.4,0,0,0-.375-1.019,1.272,1.272,0,0,0-.956-.387,1.353,1.353,0,0,0-.682.173,1.247,1.247,0,0,0-.48.493,1.507,1.507,0,0,0-.177.741,1.507,1.507,0,0,0,.177.741,1.247,1.247,0,0,0,.48.493A1.353,1.353,0,0,0,100.209-2.834Zm4.757-3.7a2.192,2.192,0,0,1,1.52.476,1.839,1.839,0,0,1,.526,1.435v2.635h-.993V-2.54a1.224,1.224,0,0,1-.551.45,2.156,2.156,0,0,1-.863.156,2.114,2.114,0,0,1-.884-.173,1.366,1.366,0,0,1-.585-.48,1.218,1.218,0,0,1-.206-.695,1.19,1.19,0,0,1,.45-.972,2.237,2.237,0,0,1,1.419-.366h1.162v-.067a.921.921,0,0,0-.282-.724,1.22,1.22,0,0,0-.838-.253,2.418,2.418,0,0,0-.745.118,1.831,1.831,0,0,0-.619.328l-.413-.766a2.554,2.554,0,0,1,.85-.413A3.784,3.784,0,0,1,104.966-6.539ZM104.823-2.7a1.359,1.359,0,0,0,.7-.181.985.985,0,0,0,.434-.518V-3.92h-1.086q-.909,0-.909.6a.537.537,0,0,0,.227.455A1.042,1.042,0,0,0,104.823-2.7Zm5.784-3.839a1.879,1.879,0,0,1,1.364.5,1.959,1.959,0,0,1,.514,1.473v2.576h-1.052V-4.434a1.262,1.262,0,0,0-.278-.888,1.027,1.027,0,0,0-.791-.3,1.215,1.215,0,0,0-.918.349,1.393,1.393,0,0,0-.337,1.006v2.273h-1.052v-4.5h1v.581a1.645,1.645,0,0,1,.657-.471A2.363,2.363,0,0,1,110.607-6.539Z" transform="translate(26 60.433)" fill="#333"/>
    </g>
  </g>
</svg>
