<svg xmlns="http://www.w3.org/2000/svg" width="1088" height="800.068" viewBox="0 0 1088 800.068">
  <g id="グループ_6399" data-name="グループ 6399" transform="translate(3064 -4193.269)">
    <g id="グループ_6067" data-name="グループ 6067" transform="translate(-3240 804)">
      <path id="パス_33362" data-name="パス 33362" d="M0,0H288V800.013H0Z" transform="translate(176 3389.324)" fill="#fff"/>
      <path id="パス_33363" data-name="パス 33363" d="M0,0H288V56H0Z" transform="translate(176 3445)" fill="#f5f5f5"/>
      <path id="パス_33364" data-name="パス 33364" d="M0,0H288V56H0Z" transform="translate(176 3557)" fill="#f5f5f5"/>
      <path id="パス_33365" data-name="パス 33365" d="M0,0H288V56H0Z" transform="translate(176 3669.168)" fill="#f5f5f5"/>
      <path id="パス_33366" data-name="パス 33366" d="M0,0H288V56H0Z" transform="translate(176 3989.337)" fill="#f5f5f5"/>
      <path id="パス_33367" data-name="パス 33367" d="M0,0H288V56H0Z" transform="translate(176 4133.337)" fill="#f5f5f5"/>
      <path id="パス_33368" data-name="パス 33368" d="M0,0H288V151.97H0Z" transform="translate(176 3781.337)" fill="#f5f5f5"/>
    </g>
    <g id="グループ_6068" data-name="グループ 6068" transform="translate(-3256 804)">
      <path id="パス_33369" data-name="パス 33369" d="M4.864-12.464l-.912,1.376c.992.56,2.7,1.7,3.52,2.288l.944-1.376C7.664-10.72,5.856-11.9,4.864-12.464ZM2.224-1.056,3.168.592A18.747,18.747,0,0,0,8.48-1.392,19.047,19.047,0,0,0,14.736-7.12l-.976-1.7A16.457,16.457,0,0,1,7.632-2.88,17.571,17.571,0,0,1,2.224-1.056Zm.208-7.776L1.52-7.456a40.043,40.043,0,0,1,3.568,2.24L6.016-6.64C5.264-7.168,3.44-8.3,2.432-8.832ZM19.488-8.9v1.552c.336-.016,1.3-.048,1.792-.048h5.648v2.336H21.44c-.56,0-1.2-.032-1.568-.048v1.52c.352-.032,1.008-.032,1.584-.032h5.472v2.528H20.656a12.889,12.889,0,0,1-1.344-.064V.432c.272-.016.864-.048,1.344-.048h6.272c0,.256,0,.5-.016.64h1.6C28.5.768,28.48.32,28.48.064V-7.92c0-.32,0-.736.016-.928-.224,0-.72.016-1.088.016H21.28C20.784-8.832,19.856-8.848,19.488-8.9Zm20.4-.448-1.5.5a29.262,29.262,0,0,1,1.28,3.52l1.5-.544C40.96-6.576,40.176-8.672,39.888-9.344Zm5.84,1.024-1.76-.56A11.105,11.105,0,0,1,41.84-3.408,10.9,10.9,0,0,1,36.592-.032l1.328,1.36a12.4,12.4,0,0,0,5.264-3.872,12.826,12.826,0,0,0,2.24-4.832C45.488-7.632,45.584-7.92,45.728-8.32ZM36.16-8.512l-1.5.544A32.677,32.677,0,0,1,36.112-4.32l1.52-.56C37.328-5.76,36.528-7.776,36.16-8.512ZM60.88-11.6a1.011,1.011,0,0,1,.992-1.008A1.025,1.025,0,0,1,62.88-11.6a1.011,1.011,0,0,1-1.008.992A1,1,0,0,1,60.88-11.6Zm-.848,0a1.986,1.986,0,0,0,.048.432,5.432,5.432,0,0,1-.688.032h-7.76c-.528,0-1.28-.064-1.728-.112v1.792c.416-.032,1.056-.064,1.728-.064H59.5a11.593,11.593,0,0,1-2,4.912A10.736,10.736,0,0,1,51.248-.8L52.624.7a12.444,12.444,0,0,0,6.352-4.336,16.3,16.3,0,0,0,2.4-5.872c.016-.1.048-.208.064-.3a1.986,1.986,0,0,0,.432.048,1.844,1.844,0,0,0,1.856-1.84,1.854,1.854,0,0,0-1.856-1.84A1.84,1.84,0,0,0,60.032-11.6ZM78.656-5.616a5.922,5.922,0,0,0-6.272-6.032,6.935,6.935,0,0,0-7.152,6.656c0,2.672,1.456,4.432,3.04,4.432s2.912-1.808,3.872-5.072a31.86,31.86,0,0,0,.96-4.5,4.254,4.254,0,0,1,3.872,4.464A4.6,4.6,0,0,1,73.1-1.12,9.889,9.889,0,0,1,71.68-.9l.944,1.5C76.512.048,78.656-2.256,78.656-5.616Zm-11.808.464a5.348,5.348,0,0,1,4.56-4.944,25.472,25.472,0,0,1-.88,4.128c-.736,2.464-1.488,3.5-2.208,3.5C67.632-2.464,66.848-3.312,66.848-5.152ZM90.16-2.5a14.968,14.968,0,0,1-.992,2.032l.5.128h-3.52l.64-.176A7.5,7.5,0,0,0,85.872-2.5ZM84.976-5.488H90.96V-3.7H84.976ZM90.944-2.5H92.48V-6.7H83.536V-2.5h1.792l-.88.24a9.062,9.062,0,0,1,.832,1.92H81.168V.912H94.9V-.336h-4.3c.32-.544.7-1.264,1.056-1.984ZM93.9-11.44a14.9,14.9,0,0,1-2,1.792,11.182,11.182,0,0,1-.944-1.008,26.56,26.56,0,0,0,2.288-1.824l-1.12-.8a16.531,16.531,0,0,1-1.856,1.712,10.591,10.591,0,0,1-1.008-1.808L88-12.992A14.59,14.59,0,0,0,90.464-9.1h-4.8a10.686,10.686,0,0,0,2.016-3.3l-.96-.5-.256.064H82.1V-11.6h3.648A10.2,10.2,0,0,1,84.3-9.68a9.836,9.836,0,0,0-1.984-1.472l-.8.816a11.442,11.442,0,0,1,1.9,1.5,11.338,11.338,0,0,1-2.976,1.888,5.5,5.5,0,0,1,.88,1.072A13.19,13.19,0,0,0,85.072-8.48v.656h5.856v-.784a12.117,12.117,0,0,0,3.584,2.544A5.245,5.245,0,0,1,95.5-7.3,10.242,10.242,0,0,1,92.768-8.88a23.711,23.711,0,0,0,2.24-1.776ZM98.256-9.5a15.725,15.725,0,0,0,1.808-2.528A16.5,16.5,0,0,1,102.176-9.5Zm7.392,6.4c-1.088.72-2.16,1.424-2.96,1.92l-.032-.432-2.08.4V-5.488h2.16v-1.3h-2.16V-8.24h1.76V-9.5h-.128l.96-1.12a18.714,18.714,0,0,0-2.672-2.8H99.232a10.922,10.922,0,0,1-2.9,4,4.267,4.267,0,0,1,.912.944c.176-.16.336-.32.5-.464v.7H99.28v1.456H96.944v1.3H99.28V-.976c-.944.176-1.808.336-2.512.448l.3,1.36c1.6-.32,3.7-.768,5.7-1.2L102.752-.5l.384.672c.928-.64,1.984-1.408,2.96-2.16ZM97.216-4.512A13.787,13.787,0,0,1,97.76-1.6l1.056-.272a14.559,14.559,0,0,0-.624-2.9Zm4.7,2.624c.24-.72.528-1.792.8-2.72L101.6-4.9a19.621,19.621,0,0,1-.624,2.752Zm1.136-3.632a9.291,9.291,0,0,1,1.632,2.144l1.072-.72a9.658,9.658,0,0,0-1.712-2.064Zm6.24,1.936a25.639,25.639,0,0,0,1.984-2.1l-1.168-.736a13.7,13.7,0,0,1-1.68,2.112,12.746,12.746,0,0,1-.8-2.16v-.4H111.3v-1.28h-1.248v-4.688h-6.416v1.248h5.04v1.136h-4.72V-9.28h4.72v1.136h-5.856v1.28h3.44V-.256c0,.176-.048.224-.224.24-.16,0-.672,0-1.2-.016a4.935,4.935,0,0,1,.368,1.3,4.655,4.655,0,0,0,1.9-.224c.432-.224.528-.592.528-1.264V-3.3A8.544,8.544,0,0,0,110.656.352a6.565,6.565,0,0,1,.96-1.216A7.3,7.3,0,0,1,108.544-4.1Z" transform="translate(232 3424)" fill="#333"/>
      <path id="パス_33370" data-name="パス 33370" d="M8.8-12.608l-1.824-.576a7.5,7.5,0,0,1-.608,1.44,14.673,14.673,0,0,1-5.12,5.456l1.36,1.056A18.12,18.12,0,0,0,6.832-9.424h5.056a13.114,13.114,0,0,1-2,4.032C8.816-6.128,7.7-6.848,6.736-7.408l-1.1,1.136C6.56-5.68,7.712-4.9,8.816-4.1A13.6,13.6,0,0,1,2.768-.416L4.224.864A15.241,15.241,0,0,0,10.16-3.088c.656.528,1.264,1.024,1.712,1.44l1.184-1.408c-.5-.4-1.12-.88-1.792-1.36a18.321,18.321,0,0,0,2.448-4.832,8.051,8.051,0,0,1,.432-.992l-1.3-.8a3.725,3.725,0,0,1-1.2.176H7.792c.064-.112.112-.208.176-.32C8.144-11.5,8.48-12.128,8.8-12.608Zm19.536-.32-1.024.432a19.1,19.1,0,0,1,1.264,2.208l1.056-.448A23.186,23.186,0,0,0,28.336-12.928Zm1.808-.688-1.024.432a16.058,16.058,0,0,1,1.312,2.208l1.04-.464A18.914,18.914,0,0,0,30.144-13.616Zm-5.872,1.552-1.856-.608a7.5,7.5,0,0,1-.592,1.44,13.685,13.685,0,0,1-5.024,5.3L18.208-4.9a16.576,16.576,0,0,0,4.048-3.9h5.008a12.015,12.015,0,0,1-2.432,4.72A12.806,12.806,0,0,1,18.416-.1L19.9,1.248a14.546,14.546,0,0,0,6.4-4.432,15.835,15.835,0,0,0,2.816-5.44,5.476,5.476,0,0,1,.448-.976l-1.312-.8a4.272,4.272,0,0,1-1.2.16H23.2c.1-.144.16-.272.24-.416C23.616-10.976,23.952-11.584,24.272-12.064ZM46.656-5.616a5.922,5.922,0,0,0-6.272-6.032,6.935,6.935,0,0,0-7.152,6.656c0,2.672,1.456,4.432,3.04,4.432s2.912-1.808,3.872-5.072a31.86,31.86,0,0,0,.96-4.5,4.254,4.254,0,0,1,3.872,4.464A4.6,4.6,0,0,1,41.1-1.12,9.889,9.889,0,0,1,39.68-.9l.944,1.5C44.512.048,46.656-2.256,46.656-5.616Zm-11.808.464a5.348,5.348,0,0,1,4.56-4.944,25.473,25.473,0,0,1-.88,4.128c-.736,2.464-1.488,3.5-2.208,3.5C35.632-2.464,34.848-3.312,34.848-5.152ZM54.192-8.608h-4.8v1.152h4.8v-.208a5.593,5.593,0,0,1,1.072.944,4.837,4.837,0,0,0,2.016-4.3v-.592h2.3v2.448c0,1.312.336,1.68,1.44,1.68h1.024c.928,0,1.3-.5,1.392-2.4a3.343,3.343,0,0,1-1.216-.544c-.032,1.472-.1,1.68-.336,1.68h-.624c-.224,0-.256-.064-.256-.432v-3.76H55.872v1.9A3.657,3.657,0,0,1,54.192-7.7Zm-4.8,3.3h4.8V-6.48h-4.8ZM54.144-12.9H49.456v1.168h4.688Zm.608,2.112H48.64V-9.6h6.112ZM52.88-3.12v2.3H50.64v-2.3Zm1.3-1.2H49.36V1.056h1.28V.384h3.536ZM61.6-6.64l-.272.048H54.944v1.36h5.728a7.89,7.89,0,0,1-1.84,2.688,8.492,8.492,0,0,1-1.84-2.672L55.664-4.8a11.328,11.328,0,0,0,2.08,3.168A10.942,10.942,0,0,1,54.192-.064a5.347,5.347,0,0,1,.8,1.312A12,12,0,0,0,58.848-.624a10.729,10.729,0,0,0,3.664,1.872,5.825,5.825,0,0,1,.96-1.28,10.607,10.607,0,0,1-3.5-1.568A10.357,10.357,0,0,0,62.56-6.272Zm5.184-3.648H77.168v2.272h1.52V-11.7h-5.92v-1.712H71.184V-11.7H65.328v3.68h1.456ZM72.752-3.44h4.576V-4.832H72.752V-7.184h3.776V-8.608H67.52v1.424h3.7V-.976a4.58,4.58,0,0,1-2.608-2.816,19.566,19.566,0,0,0,.384-2.1l-1.536-.144C67.12-3.232,66.3-.992,64.544.32a8.047,8.047,0,0,1,1.232,1.024,8.145,8.145,0,0,0,2.256-3.328c1.456,2.512,3.76,3.04,6.9,3.04h3.808a4.488,4.488,0,0,1,.56-1.5c-.912.032-3.6.032-4.288.032A16.718,16.718,0,0,1,72.752-.56Z" transform="translate(232 3480)" fill="#333"/>
      <path id="パス_33371" data-name="パス 33371" d="M4.864-12.464l-.912,1.376c.992.56,2.7,1.7,3.52,2.288l.944-1.376C7.664-10.72,5.856-11.9,4.864-12.464ZM2.224-1.056,3.168.592A18.747,18.747,0,0,0,8.48-1.392,19.047,19.047,0,0,0,14.736-7.12l-.976-1.7A16.457,16.457,0,0,1,7.632-2.88,17.571,17.571,0,0,1,2.224-1.056Zm.208-7.776L1.52-7.456a40.043,40.043,0,0,1,3.568,2.24L6.016-6.64C5.264-7.168,3.44-8.3,2.432-8.832ZM19.488-8.9v1.552c.336-.016,1.3-.048,1.792-.048h5.648v2.336H21.44c-.56,0-1.2-.032-1.568-.048v1.52c.352-.032,1.008-.032,1.584-.032h5.472v2.528H20.656a12.889,12.889,0,0,1-1.344-.064V.432c.272-.016.864-.048,1.344-.048h6.272c0,.256,0,.5-.016.64h1.6C28.5.768,28.48.32,28.48.064V-7.92c0-.32,0-.736.016-.928-.224,0-.72.016-1.088.016H21.28C20.784-8.832,19.856-8.848,19.488-8.9Zm20.4-.448-1.5.5a29.262,29.262,0,0,1,1.28,3.52l1.5-.544C40.96-6.576,40.176-8.672,39.888-9.344Zm5.84,1.024-1.76-.56A11.105,11.105,0,0,1,41.84-3.408,10.9,10.9,0,0,1,36.592-.032l1.328,1.36a12.4,12.4,0,0,0,5.264-3.872,12.826,12.826,0,0,0,2.24-4.832C45.488-7.632,45.584-7.92,45.728-8.32ZM36.16-8.512l-1.5.544A32.677,32.677,0,0,1,36.112-4.32l1.52-.56C37.328-5.76,36.528-7.776,36.16-8.512ZM60.88-11.6a1.011,1.011,0,0,1,.992-1.008A1.025,1.025,0,0,1,62.88-11.6a1.011,1.011,0,0,1-1.008.992A1,1,0,0,1,60.88-11.6Zm-.848,0a1.986,1.986,0,0,0,.048.432,5.432,5.432,0,0,1-.688.032h-7.76c-.528,0-1.28-.064-1.728-.112v1.792c.416-.032,1.056-.064,1.728-.064H59.5a11.593,11.593,0,0,1-2,4.912A10.736,10.736,0,0,1,51.248-.8L52.624.7a12.444,12.444,0,0,0,6.352-4.336,16.3,16.3,0,0,0,2.4-5.872c.016-.1.048-.208.064-.3a1.986,1.986,0,0,0,.432.048,1.844,1.844,0,0,0,1.856-1.84,1.854,1.854,0,0,0-1.856-1.84A1.84,1.84,0,0,0,60.032-11.6ZM78.656-5.616a5.922,5.922,0,0,0-6.272-6.032,6.935,6.935,0,0,0-7.152,6.656c0,2.672,1.456,4.432,3.04,4.432s2.912-1.808,3.872-5.072a31.86,31.86,0,0,0,.96-4.5,4.254,4.254,0,0,1,3.872,4.464A4.6,4.6,0,0,1,73.1-1.12,9.889,9.889,0,0,1,71.68-.9l.944,1.5C76.512.048,78.656-2.256,78.656-5.616Zm-11.808.464a5.348,5.348,0,0,1,4.56-4.944,25.472,25.472,0,0,1-.88,4.128c-.736,2.464-1.488,3.5-2.208,3.5C67.632-2.464,66.848-3.312,66.848-5.152ZM89.44-12.384a34.023,34.023,0,0,0,4.576,6.368,7.463,7.463,0,0,1,1.264-1.3,22.883,22.883,0,0,1-4.368-5.7Zm-4.48-.624A14.72,14.72,0,0,1,80.832-7.12a8.23,8.23,0,0,1,1.424,1.1,19.643,19.643,0,0,0,4.384-6.528Zm4.672,8.8c.688.848,1.424,1.856,2.08,2.832-2.16.112-4.352.208-6.3.288a64.052,64.052,0,0,0,2.944-6.144l-1.76-.432a41.944,41.944,0,0,1-2.9,6.64c-.8.032-1.536.064-2.192.08L81.7.624C84.528.48,88.672.272,92.592.032q.432.72.72,1.3l1.52-.816a36.354,36.354,0,0,0-3.776-5.376Zm12.016-1.344h2.8v-1.44H97.5v1.44h2.656v4.288c-1.216.224-2.32.432-3.184.576l.432,1.5c2.048-.448,4.912-1.072,7.568-1.68l-.112-1.344c-1.072.224-2.16.448-3.216.64Zm5.7-6.976a12.532,12.532,0,0,1,2.16,1.952l1.04-.928a12.148,12.148,0,0,0-2.224-1.84ZM111.1-9.12v-1.456h-4.592c-.032-.9-.048-1.84-.032-2.768h-1.6c0,.928.032,1.856.064,2.768H96.928V-9.12h8.112c.4,5.76,1.664,10.416,4.3,10.416,1.328,0,1.856-.784,2.112-3.664a3.769,3.769,0,0,1-1.312-.848c-.1,2.08-.288,2.944-.672,2.944-1.392,0-2.512-3.808-2.864-8.848Zm12.944,7.5V-.352h-6.96V-1.616Zm-1.1-4.288v1.136h-5.856V-5.9Zm-5.856,2.24h7.344V-7.008H115.68V1.28h1.408v-.5h6.96v.464h1.488V-2.736h-8.448Zm10.192-8.608h-5.056a9.355,9.355,0,0,0,.448-.9l-1.44-.352a7.087,7.087,0,0,1-1.456,2.256v-1.008h-3.888c.16-.288.3-.592.432-.88l-1.392-.368a8.8,8.8,0,0,1-2.32,3.264,9.478,9.478,0,0,1,1.216.816,9.953,9.953,0,0,0,1.328-1.616h.5a9.8,9.8,0,0,1,.752,1.584l1.328-.4a8.685,8.685,0,0,0-.576-1.184h2.416a6.757,6.757,0,0,1-.752.624c.144.064.32.16.512.256h-.08v1.168h-5.936v3.056H114.7V-7.84h10.672v1.888h1.456V-9.008h-6.16v-1.168h-.032a8.177,8.177,0,0,0,.768-.88h1.136a7.623,7.623,0,0,1,1.008,1.616l1.392-.416a7.775,7.775,0,0,0-.768-1.2h3.1Zm6.432,8.864c-.544.192-1.12.368-1.664.544V-6.48h1.52V-7.856h-1.52V-11.04h1.776v-1.376h-5.088v1.376h1.888v3.184H128.9V-6.48h1.728v4.064c-.768.24-1.472.432-2.048.592l.352,1.52c1.44-.464,3.3-1.088,5.04-1.7Zm2.16-5.1h2.1v1.744h-2.1Zm0-2.928h2.1v1.728h-2.1Zm5.408,1.728h-2.048V-11.44h2.048Zm0,2.944h-2.048V-8.512h2.048Zm-1.92,6.16v-1.9h3.552V-3.856H139.36V-5.5H142.7v-7.2h-8.192v7.2h3.328v1.648h-3.472v1.344h3.472v1.9H133.2V.752h10.224V-.608Z" transform="translate(232 3536)" fill="#333"/>
      <path id="パス_33372" data-name="パス 33372" d="M6.912-6.32H8.9V-5.2H6.912Zm-3.3-1.168V-9.216H5.488v1.728Zm3.3-4.016H8.9v1.1H6.912ZM8.9-7.488H6.912V-9.216H8.9ZM12.3-9.216v1.728H10.336V-9.216ZM5.936-3.424A11.005,11.005,0,0,1,8.7-1.52L9.728-2.4A10.021,10.021,0,0,0,7.536-3.9h7.536V-5.2H10.336V-6.32H13.76V-10.4H10.336v-1.1h4.512v-1.264H1.2V-11.5H5.488v1.1H2.224v4.08H5.488V-5.2H.944v1.3H6.5ZM1.952.8A5.65,5.65,0,0,0,4.016-2.448L2.688-2.96A4.837,4.837,0,0,1,.688-.1ZM7.184-.32c-.752,0-.9-.064-.9-.464V-2.816H4.816V-.752c0,1.36.432,1.776,2.224,1.776H9.776c1.36,0,1.792-.432,1.968-2.208A3.825,3.825,0,0,1,10.416-1.7C10.352-.5,10.24-.32,9.648-.32ZM11.168-2.4A10.9,10.9,0,0,1,14.016.736l1.3-.848a11.056,11.056,0,0,0-2.96-3.056ZM27.536-9.968v1.856H28.9V-9.968H31.1V-11.1H25.84a3.48,3.48,0,0,0,.016-.4v-.288a26.175,26.175,0,0,0,4.528-.688l-.96-.9a25.841,25.841,0,0,1-3.808.624l-1.072-.256v1.44a2.958,2.958,0,0,1-1.536,2.72A3.42,3.42,0,0,1,23.92-7.84,4.144,4.144,0,0,0,25.6-9.968ZM20.3-3.232H27.84v.96H20.3Zm0-1.84H27.84v.944H20.3Zm0-1.808H27.84v.912H20.3Zm-1.44,5.536H29.328v-6.48H18.864Zm2.048-8.624v1.824h1.312V-9.968h1.712V-11.1H19.328a2.712,2.712,0,0,0,.016-.352v-.336a24.208,24.208,0,0,0,4.224-.7l-.944-.912a21.885,21.885,0,0,1-3.552.656l-1.04-.288V-11.5A4.222,4.222,0,0,1,16.7-8.16a3.977,3.977,0,0,1,.992.944,5.06,5.06,0,0,0,1.488-2.752ZM21.5-1.3a17.494,17.494,0,0,1-4.656,1.5,10.454,10.454,0,0,1,1.12,1.1,21.2,21.2,0,0,0,4.9-1.984Zm3.648.784A32.339,32.339,0,0,1,29.44,1.3l1.712-.7a50.542,50.542,0,0,0-4.784-1.856ZM34.64-11.136V-9.36c.416-.032,1.232-.064,1.856-.064h7.472v7.136H36.3c-.688,0-1.392-.048-1.856-.08V-.56c.464-.032,1.264-.064,1.92-.064h7.584c0,.336-.016.64-.016.864H45.76C45.728-.112,45.7-.9,45.7-1.456V-9.728c0-.416.016-.992.032-1.344-.288.016-.848.032-1.28.032H36.5C35.968-11.04,35.2-11.088,34.64-11.136Zm26.544-.56-1.856-.656a11.263,11.263,0,0,1-.352,1.312,17.7,17.7,0,0,1-2,4.128c-1.28-.976-3.056-2.208-4.4-3.056L51.52-8.688a45.433,45.433,0,0,1,4.416,3.152,17.389,17.389,0,0,1-6.224,4.9L51.12.624a19.975,19.975,0,0,0,6.128-5.072,35.7,35.7,0,0,1,3.68,3.616l1.28-1.408a39.188,39.188,0,0,0-3.9-3.616,22.942,22.942,0,0,0,2.3-4.544A11.8,11.8,0,0,1,61.184-11.7Zm6.544-.224L66.56-10.672a34.7,34.7,0,0,1,4,3.392l1.264-1.3A33.574,33.574,0,0,0,67.728-11.92ZM66.08-1.216,67.152.432A17.641,17.641,0,0,0,73.28-1.952,16.359,16.359,0,0,0,78.9-7.744L77.92-9.488a15.234,15.234,0,0,1-5.552,6.032A16.625,16.625,0,0,1,66.08-1.216Zm19.152-.256A16.751,16.751,0,0,1,85.1.576h1.968a18.746,18.746,0,0,1-.128-2.048V-6.416a41.9,41.9,0,0,1,6.048,2.5l.72-1.744a54.235,54.235,0,0,0-6.768-2.56v-2.5c0-.56.064-1.264.112-1.792H85.088a11.583,11.583,0,0,1,.144,1.792Zm25.424-4.144a5.922,5.922,0,0,0-6.272-6.032,6.935,6.935,0,0,0-7.152,6.656c0,2.672,1.456,4.432,3.04,4.432s2.912-1.808,3.872-5.072a31.86,31.86,0,0,0,.96-4.5,4.254,4.254,0,0,1,3.872,4.464A4.6,4.6,0,0,1,105.1-1.12,9.889,9.889,0,0,1,103.68-.9l.944,1.5C108.512.048,110.656-2.256,110.656-5.616Zm-11.808.464a5.348,5.348,0,0,1,4.56-4.944,25.472,25.472,0,0,1-.88,4.128c-.736,2.464-1.488,3.5-2.208,3.5C99.632-2.464,98.848-3.312,98.848-5.152Zm16.4-4.656a16.344,16.344,0,0,0-1.136-2.992l-1.232.416a15.473,15.473,0,0,1,1.056,3.056Zm-.432,6.1V-5.056H118.7v1.344ZM118.7-7.68v1.36h-3.888V-7.68Zm1.424-1.392h-2.672v-4.352h-1.472v4.352h-2.576V1.136h1.408V-2.448H118.7V-.56c0,.224-.08.288-.3.3-.208,0-.944,0-1.68-.032a5.44,5.44,0,0,1,.416,1.376,5.534,5.534,0,0,0,2.352-.256c.5-.208.64-.64.64-1.36Zm-.656-.3c.432-.8.96-2.08,1.408-3.2l-1.5-.368a18.834,18.834,0,0,1-1.152,3.232Zm3.616-2.144h-1.44V-2.7h1.44Zm2.1-1.6V-.608c0,.288-.128.384-.416.384-.336.016-1.344.016-2.416-.032a7.284,7.284,0,0,1,.528,1.536,8.962,8.962,0,0,0,2.992-.288c.544-.24.784-.672.784-1.6V-13.12Zm7.872.32-.224.048h-3.52V1.264h1.312V-11.408h1.712c-.3,1.088-.72,2.512-1.12,3.584a4.388,4.388,0,0,1,1.3,2.992c0,.464-.064.848-.288,1.008a.861.861,0,0,1-.5.144,4.822,4.822,0,0,1-.816-.016,2.905,2.905,0,0,1,.352,1.28,7.587,7.587,0,0,0,1.056-.016,2.154,2.154,0,0,0,.864-.32,2.215,2.215,0,0,0,.656-1.9,4.844,4.844,0,0,0-1.328-3.328c.512-1.248,1.072-2.912,1.52-4.256Zm2.128,8.992a8.442,8.442,0,0,1-2.064,3.28,9.62,9.62,0,0,1,1.072.848A10.964,10.964,0,0,0,136.48-3.5Zm.272-5.024a14.4,14.4,0,0,0,2.9-3.232,15.474,15.474,0,0,0,3.04,3.232Zm7.232,4.272V-5.84h-3.6V-7.584h2.4V-8.752a14.866,14.866,0,0,0,1.248.88,8.127,8.127,0,0,1,.8-1.264,13.6,13.6,0,0,1-4.576-4.256h-1.328a12.012,12.012,0,0,1-4.352,4.384,4.719,4.719,0,0,1,.752,1.2,10.428,10.428,0,0,0,1.312-.944v1.168h2.336V-5.84h-3.344v1.28h3.344V-.368c0,.192-.064.256-.256.256-.208,0-.848.016-1.52-.016a4.8,4.8,0,0,1,.48,1.392,5.216,5.216,0,0,0,2.112-.256c.464-.24.592-.64.592-1.36V-4.56Zm-2.7,1.232A18.427,18.427,0,0,1,142.032.256l1.232-.624a17.144,17.144,0,0,0-2.16-3.488Z" transform="translate(232 3592)" fill="#333"/>
      <path id="パス_33373" data-name="パス 33373" d="M9.776-3.264V-1.52H6.336V-3.264ZM11.12-.4v-4H5.008V.528H6.336V-.4ZM6.336-9.2a7.837,7.837,0,0,0-.64-1.5H10.24A11.907,11.907,0,0,1,9.5-9.2Zm6.672,2.416A2.835,2.835,0,0,1,11.936-7.2c-.048.864-.112.976-.416.976H10.368c-.368,0-.416-.032-.416-.352V-7.9h3.056ZM3.152-7.9h2.56c-.144,1.328-.64,1.968-2.56,2.352ZM14.9-10.7v-1.36H8.7v-1.36H7.184v1.36H1.12v1.36H4.08a8.923,8.923,0,0,1,.656,1.5H1.728V1.232H3.152V-5.52A2.991,2.991,0,0,1,3.824-4.5C6.192-5.056,6.848-6.048,7.04-7.9H8.656V-6.56c0,1.12.288,1.44,1.536,1.44H11.68c.816,0,1.168-.272,1.328-1.3V-.48c0,.24-.08.32-.368.336-.272,0-1.2.016-2.16-.032a5.7,5.7,0,0,1,.5,1.44,8.422,8.422,0,0,0,2.736-.256c.56-.24.72-.688.72-1.472V-9.2h-3.28c.272-.432.544-.944.848-1.5ZM27.008-8.72h-6v-2.608h6Zm1.52-4.032H19.584V-7.3h8.944ZM21.648-4.32V-.992H18.736V-4.32Zm-4.32,5.584h1.408V.432h2.912v.72H23.12v-6.9H17.328ZM26.112-.992V-4.32H29.28V-.992ZM24.688-5.744V1.264h1.424V.432H29.28v.752h1.488V-5.744ZM34.72-11.232H45.248v2.224H46.8v-3.616H33.248v3.616H34.72Zm12.4,7.6H44.032c.08-.656.144-1.408.224-2.272.032-.192.048-.64.048-.64H37.312c.112-.528.24-1.1.352-1.68h6.624V-9.5H37.936c.1-.544.208-1.056.288-1.552L36.736-11.2c-.32,2.032-.912,4.7-1.36,6.336l1.5.144.128-.512h5.7c-.048.592-.112,1.12-.16,1.6H32.912V-2.24h9.424a3.688,3.688,0,0,1-.7,1.968,1.046,1.046,0,0,1-.768.192,25.775,25.775,0,0,1-2.576-.112,3.183,3.183,0,0,1,.528,1.408,24.086,24.086,0,0,0,2.576.032A2.025,2.025,0,0,0,42.864.656c.416-.4.72-1.248.976-2.9h3.28ZM59.472-8.224h-6.72v-.9h6.72Zm0,1.792h-6.72v-.9h6.72Zm0,1.808h-6.72v-.928h6.72Zm-4.288-5.408H51.328V-3.7h9.648v-6.336H56.752v-.88h5.92v-1.28h-5.92V-13.44H55.184v1.248h-5.76v1.28h5.76Zm7.872,7.12H48.976V-1.68h14.08ZM53.472-1.52A17.253,17.253,0,0,1,48.928.256,10.3,10.3,0,0,1,49.952,1.28a19.473,19.473,0,0,0,4.8-1.952Zm3.84.9a42.106,42.106,0,0,1,4.608,1.9L63.2.272C62-.256,60.032-.992,58.288-1.584Zm12.88-7.984h-4.8v1.152h4.8v-.208a5.593,5.593,0,0,1,1.072.944,4.837,4.837,0,0,0,2.016-4.3v-.592h2.3v2.448c0,1.312.336,1.68,1.44,1.68h1.024c.928,0,1.3-.5,1.392-2.4a3.343,3.343,0,0,1-1.216-.544c-.032,1.472-.1,1.68-.336,1.68h-.624c-.224,0-.256-.064-.256-.432v-3.76H71.872v1.9A3.656,3.656,0,0,1,70.192-7.7Zm-4.8,3.3h4.8V-6.48h-4.8ZM70.144-12.9H65.456v1.168h4.688Zm.608,2.112H64.64V-9.6h6.112ZM68.88-3.12v2.3H66.64v-2.3Zm1.3-1.2H65.36V1.056h1.28V.384h3.536ZM77.6-6.64l-.272.048H70.944v1.36h5.728a7.89,7.89,0,0,1-1.84,2.688,8.492,8.492,0,0,1-1.84-2.672L71.664-4.8a11.328,11.328,0,0,0,2.08,3.168A10.942,10.942,0,0,1,70.192-.064a5.347,5.347,0,0,1,.8,1.312A12,12,0,0,0,74.848-.624a10.729,10.729,0,0,0,3.664,1.872,5.825,5.825,0,0,1,.96-1.28,10.607,10.607,0,0,1-3.5-1.568A10.357,10.357,0,0,0,78.56-6.272Zm5.184-3.648H93.168v2.272h1.52V-11.7h-5.92v-1.712H87.184V-11.7H81.328v3.68h1.456ZM88.752-3.44h4.576V-4.832H88.752V-7.184h3.776V-8.608H83.52v1.424h3.7V-.976a4.58,4.58,0,0,1-2.608-2.816,19.566,19.566,0,0,0,.384-2.1l-1.536-.144C83.12-3.232,82.3-.992,80.544.32a8.047,8.047,0,0,1,1.232,1.024,8.145,8.145,0,0,0,2.256-3.328c1.456,2.512,3.76,3.04,6.9,3.04h3.808a4.488,4.488,0,0,1,.56-1.5c-.912.032-3.6.032-4.288.032A16.718,16.718,0,0,1,88.752-.56Z" transform="translate(232 3648)" fill="#333"/>
      <path id="パス_33374" data-name="パス 33374" d="M1.216-5.968,2-4.384a32.735,32.735,0,0,0,5.9-2.48V-1.3a18.541,18.541,0,0,1-.1,1.888H9.792A12.032,12.032,0,0,1,9.68-1.3v-6.64a26.991,26.991,0,0,0,4.3-3.5L12.64-12.72A19.75,19.75,0,0,1,8.192-8.912,26.421,26.421,0,0,1,1.216-5.968ZM19.728-11.92,18.56-10.672a34.7,34.7,0,0,1,4,3.392l1.264-1.3A33.575,33.575,0,0,0,19.728-11.92ZM18.08-1.216,19.152.432A17.641,17.641,0,0,0,25.28-1.952,16.359,16.359,0,0,0,30.9-7.744L29.92-9.488a15.234,15.234,0,0,1-5.552,6.032A16.625,16.625,0,0,1,18.08-1.216Zm26.64-9.552-1.04-.768a4.853,4.853,0,0,1-1.392.16H36.352a17.119,17.119,0,0,1-1.744-.112V-9.68c.256-.016,1.12-.1,1.744-.1h5.872A13.164,13.164,0,0,1,39.68-5.552,17.978,17.978,0,0,1,33.1-.864L34.4.5a21,21,0,0,0,6.16-4.608A35.908,35.908,0,0,1,44.8.56L46.208-.688a42.528,42.528,0,0,0-4.576-4.688,21.9,21.9,0,0,0,2.624-4.56A5.523,5.523,0,0,1,44.72-10.768Zm11.76-1.84-1.824-.576a7.5,7.5,0,0,1-.608,1.44,14.673,14.673,0,0,1-5.12,5.456l1.36,1.056a18.12,18.12,0,0,0,4.224-4.192h5.056a13.114,13.114,0,0,1-2,4.032c-1.072-.736-2.192-1.456-3.152-2.016l-1.1,1.136C54.24-5.68,55.392-4.9,56.5-4.1a13.6,13.6,0,0,1-6.048,3.68L51.9.864A15.241,15.241,0,0,0,57.84-3.088c.656.528,1.264,1.024,1.712,1.44l1.184-1.408c-.5-.4-1.12-.88-1.792-1.36a18.321,18.321,0,0,0,2.448-4.832,8.05,8.05,0,0,1,.432-.992l-1.3-.8a3.725,3.725,0,0,1-1.2.176H55.472c.064-.112.112-.208.176-.32C55.824-11.5,56.16-12.128,56.48-12.608Zm19.536-.32-1.024.432a19.1,19.1,0,0,1,1.264,2.208l1.056-.448A23.186,23.186,0,0,0,76.016-12.928Zm1.808-.688-1.024.432a16.058,16.058,0,0,1,1.312,2.208l1.04-.464A18.914,18.914,0,0,0,77.824-13.616Zm-5.872,1.552L70.1-12.672a7.5,7.5,0,0,1-.592,1.44,13.685,13.685,0,0,1-5.024,5.3L65.888-4.9a16.576,16.576,0,0,0,4.048-3.9h5.008a12.015,12.015,0,0,1-2.432,4.72A12.806,12.806,0,0,1,66.1-.1l1.488,1.344a14.546,14.546,0,0,0,6.4-4.432A15.835,15.835,0,0,0,76.8-8.624a5.476,5.476,0,0,1,.448-.976l-1.312-.8a4.272,4.272,0,0,1-1.2.16H70.88c.1-.144.16-.272.24-.416C71.3-10.976,71.632-11.584,71.952-12.064Zm11.376,0v1.648c.448-.032,1.024-.048,1.536-.048h6.208c.544,0,1.184.016,1.584.048v-1.648a15.286,15.286,0,0,1-1.568.08H84.864A14.637,14.637,0,0,1,83.328-12.064Zm10.592,4.4-1.136-.7a3.175,3.175,0,0,1-1.024.144H83.568c-.464,0-1.072-.048-1.7-.112v1.664c.608-.048,1.312-.064,1.7-.064h8.144a7.542,7.542,0,0,1-1.776,3.2,10.764,10.764,0,0,1-5.6,2.88L85.584.784a11.823,11.823,0,0,0,5.728-3.408A11.321,11.321,0,0,0,93.664-7.1,2.81,2.81,0,0,1,93.92-7.664Zm9.856-4.32-2-.416a10.1,10.1,0,0,1-.352,1.664c-.448,1.616-1.968,6.4-2.864,8.688-.24.016-.464.016-.656.032-.48.032-1.1.032-1.6.032l.288,1.856C97.072-.192,97.6-.272,98-.32c2.08-.192,7.2-.752,9.744-1.056.336.736.624,1.44.832,2l1.7-.768a46.893,46.893,0,0,0-3.52-6.576l-1.552.672a21.539,21.539,0,0,1,1.824,3.12c-1.712.224-4.416.528-6.592.72.8-2.112,2.256-6.64,2.736-8.16C103.408-11.072,103.6-11.552,103.776-11.984Zm13.616,3.376h-4.8v1.152h4.8v-.208a5.593,5.593,0,0,1,1.072.944,4.837,4.837,0,0,0,2.016-4.3v-.592h2.3v2.448c0,1.312.336,1.68,1.44,1.68h1.024c.928,0,1.3-.5,1.392-2.4a3.343,3.343,0,0,1-1.216-.544c-.032,1.472-.1,1.68-.336,1.68h-.624c-.224,0-.256-.064-.256-.432v-3.76h-5.136v1.9a3.656,3.656,0,0,1-1.68,3.344Zm-4.8,3.3h4.8V-6.48h-4.8Zm4.752-7.584h-4.688v1.168h4.688Zm.608,2.112H111.84V-9.6h6.112ZM116.08-3.12v2.3h-2.24v-2.3Zm1.3-1.2H112.56V1.056h1.28V.384h3.536ZM124.8-6.64l-.272.048h-6.384v1.36h5.728a7.89,7.89,0,0,1-1.84,2.688,8.492,8.492,0,0,1-1.84-2.672l-1.328.416a11.328,11.328,0,0,0,2.08,3.168,10.942,10.942,0,0,1-3.552,1.568,5.347,5.347,0,0,1,.8,1.312,12,12,0,0,0,3.856-1.872,10.729,10.729,0,0,0,3.664,1.872,5.825,5.825,0,0,1,.96-1.28,10.607,10.607,0,0,1-3.5-1.568,10.357,10.357,0,0,0,2.592-4.672Zm9.232-5.1H136.3v1.2h-2.272Zm-1.376,1.2h-2.192v-1.2h2.192Zm5.008-1.2h2.3v1.2h-2.3Zm1.76,6.512h-6v-.736h6Zm0,1.552h-6v-.752h6Zm0,1.568h-6V-2.88h6ZM132.048-6.8v5.52h8.816V-6.8H135.7c.048-.24.1-.512.144-.8H142.1V-8.736h-6.064c.032-.256.064-.512.112-.768h5.328v-3.28H129.04V-9.5h5.584c-.016.256-.048.512-.08.768H128.32V-7.6h6.064c-.032.288-.08.544-.128.8ZM142.48-.512H130.672v-6.08h-1.5V1.264h1.5V.656H142.48Z" transform="translate(232 3704.168)" fill="#333"/>
      <path id="パス_33375" data-name="パス 33375" d="M15.024-10.112l-1.264-1.04a4.108,4.108,0,0,1-1.232.144H3.28a13.865,13.865,0,0,1-1.728-.128v1.792c.336-.032,1.088-.1,1.728-.1h8.992A18.866,18.866,0,0,1,7.7-4.3c-1.072-.944-2.272-1.92-2.88-2.368L3.5-5.6A37.529,37.529,0,0,1,7.1-2.5a41.3,41.3,0,0,1,2.96,3.36L11.536-.32c-.64-.768-1.68-1.888-2.624-2.832a25.577,25.577,0,0,0,5.648-6.4C14.672-9.712,14.848-9.9,15.024-10.112Zm2.192,4.144L18-4.384a32.735,32.735,0,0,0,5.9-2.48V-1.3a18.541,18.541,0,0,1-.1,1.888h1.984A12.032,12.032,0,0,1,25.68-1.3v-6.64a26.991,26.991,0,0,0,4.3-3.5L28.64-12.72a19.75,19.75,0,0,1-4.448,3.808A26.421,26.421,0,0,1,17.216-5.968ZM43.392-9.68a1.1,1.1,0,0,1,1.1-1.1,1.1,1.1,0,0,1,1.1,1.1,1.106,1.106,0,0,1-1.1,1.1A1.106,1.106,0,0,1,43.392-9.68Zm-.88,0A1.974,1.974,0,0,0,44.5-7.7,1.991,1.991,0,0,0,46.512-9.68,2.008,2.008,0,0,0,44.5-11.7,1.991,1.991,0,0,0,42.512-9.68ZM32.72-4.368l1.52,1.552c.256-.368.624-.88.96-1.344.7-.88,1.952-2.56,2.656-3.424.5-.624.816-.672,1.392-.112.64.624,2.1,2.192,3.024,3.264.992,1.152,2.368,2.8,3.488,4.144L47.152-1.76C45.92-3.088,44.3-4.832,43.216-5.984c-.944-1.008-2.256-2.384-3.264-3.328-1.152-1.1-2-.928-2.9.128-1.04,1.248-2.368,2.944-3.12,3.7A15.484,15.484,0,0,1,32.72-4.368ZM49.552-7.136v1.984c.544-.048,1.5-.08,2.384-.08h8.7c.7,0,1.44.064,1.792.08V-7.136c-.4.032-1.024.1-1.792.1h-8.7C51.072-7.04,50.08-7.1,49.552-7.136Zm25.68-4.96-1.088.464a14.252,14.252,0,0,1,1.44,2.512L76.7-9.6A23.309,23.309,0,0,0,75.232-12.1Zm2.144-.768-1.1.464a15.549,15.549,0,0,1,1.5,2.464l1.12-.5A23.435,23.435,0,0,0,77.376-12.864Zm-9.024.5-.912,1.392c.976.56,2.688,1.68,3.5,2.272l.96-1.376C71.136-10.624,69.344-11.808,68.352-12.368ZM65.7-.96,66.64.688A19.174,19.174,0,0,0,71.952-1.28a19.26,19.26,0,0,0,6.256-5.744l-.976-1.7A16.338,16.338,0,0,1,71.1-2.784,17.571,17.571,0,0,1,65.7-.96ZM65.9-8.736l-.9,1.376A39.724,39.724,0,0,1,68.56-5.12l.928-1.424C68.736-7.072,66.912-8.192,65.9-8.736Zm18.16-4.624a17.8,17.8,0,0,1-3.808,6.176,8.964,8.964,0,0,1,.832,1.536A14.461,14.461,0,0,0,82.4-7.216V1.232h1.5v-10.8a25.442,25.442,0,0,0,1.584-3.344ZM95.056-9.376V-10.8H88.624c.3-.672.576-1.376.832-2.064l-1.424-.384a17,17,0,0,1-3.456,6.08A8.958,8.958,0,0,1,85.728-6.16,16.56,16.56,0,0,0,87.9-9.376h.9V1.248h1.52V-2.464H94.9V-3.856H90.32V-5.984h4.352v-1.36H90.32V-9.376Zm13.408,1.04a16.215,16.215,0,0,1-1.824,3.984,31.186,31.186,0,0,1-.784-5.056h5.024v-1.456h-1.632l.768-.816a16.9,16.9,0,0,0-2.768-1.776l-.9.912a17.138,17.138,0,0,1,2.512,1.68h-3.088q-.072-1.248-.048-2.544H104.16c0,.848.032,1.712.08,2.544H97.664v4.528c0,2.064-.112,4.816-1.392,6.736A6.351,6.351,0,0,1,97.52,1.424c1.408-2.064,1.68-5.264,1.7-7.536h2.56c-.048,2.416-.144,3.328-.32,3.552a.57.57,0,0,1-.5.192c-.256,0-.88-.016-1.536-.08a3.572,3.572,0,0,1,.4,1.392,11.4,11.4,0,0,0,1.888-.032,1.417,1.417,0,0,0,1.024-.512c.336-.448.416-1.824.5-5.3v-.576H99.216V-9.408h5.12a30.067,30.067,0,0,0,1.136,6.592,12.628,12.628,0,0,1-3.488,2.8A7.7,7.7,0,0,1,103.072,1.2,14.7,14.7,0,0,0,106.1-1.248c.72,1.5,1.648,2.4,2.816,2.4,1.312,0,1.856-.752,2.1-3.568a3.906,3.906,0,0,1-1.28-.832c-.1,2.064-.288,2.88-.7,2.88-.672,0-1.3-.832-1.84-2.192a18.177,18.177,0,0,0,2.784-5.408Z" transform="translate(232 4024.337)" fill="#333"/>
      <path id="パス_33376" data-name="パス 33376" d="M12.688-10.336l-1.328-.64a4.318,4.318,0,0,1-1.2.176H4.624c-.528,0-1.136-.064-1.632-.112v1.776C3.52-9.168,4.032-9.2,4.64-9.2h5.968c-.048,1.088-.656,4.96-.96,6.7H2.688a9.261,9.261,0,0,1-1.472-.112v1.84C1.728-.816,2.24-.832,2.688-.832H13.44c.336,0,.96.016,1.392.064v-1.84A8.917,8.917,0,0,1,13.44-2.5H11.456c.288-1.76.912-5.744,1.1-7.216A3.937,3.937,0,0,1,12.688-10.336Zm4.864,3.2v1.984c.544-.048,1.5-.08,2.384-.08h8.7c.7,0,1.44.064,1.792.08V-7.136c-.4.032-1.024.1-1.792.1h-8.7C19.072-7.04,18.08-7.1,17.552-7.136ZM44.576-12.3l-.912.288a19.487,19.487,0,0,1,.88,2.224l.928-.32A21.711,21.711,0,0,0,44.576-12.3Zm1.616-.512-.912.288a18.424,18.424,0,0,1,.9,2.224l.928-.3A18.864,18.864,0,0,0,46.192-12.816ZM43.12-6.96V-7.5h1.5c.768,0,1.344.016,1.584.048v-1.7a10.632,10.632,0,0,1-1.6.1H43.12v-1.856c0-.64.064-1.168.08-1.392H41.392a11.048,11.048,0,0,1,.08,1.392v1.856H37.264V-10.9a9.843,9.843,0,0,1,.08-1.3H35.552a11.947,11.947,0,0,1,.08,1.28v1.856H34.064A12.127,12.127,0,0,1,32.4-9.184v1.728c.256-.016.912-.048,1.664-.048h1.568v2.4a14.227,14.227,0,0,1-.08,1.552h1.776c-.016-.224-.064-.912-.064-1.552V-7.5h4.208v.64c0,4.24-1.408,5.616-4.4,6.72l1.36,1.264C42.176-.544,43.12-2.832,43.12-6.96Zm6.112-.176v1.984c.544-.048,1.5-.08,2.384-.08h8.7c.7,0,1.44.064,1.792.08V-7.136c-.4.032-1.024.1-1.792.1h-8.7C50.752-7.04,49.76-7.1,49.232-7.136ZM73.52-5.808v2.656H69.856V-5.808ZM74.9-1.9V-7.056H68.48V-.784h1.376V-1.9Zm.8-7.888h-8v1.264h8ZM78.3-12.64H65.088V1.3h1.44V-11.232h10.32v10.7c0,.272-.1.368-.368.384-.272,0-1.2.016-2.112-.032A5.65,5.65,0,0,1,74.88,1.28a7.043,7.043,0,0,0,2.7-.272c.528-.24.72-.688.72-1.536Zm16.544,5.6V-8.512h-6.4v-4.88H86.864v4.88h-6.3V-7.04h6.3v6.016H81.44V.464H94V-1.024H88.448V-7.04Zm15.488,1.424a5.922,5.922,0,0,0-6.272-6.032,6.935,6.935,0,0,0-7.152,6.656c0,2.672,1.456,4.432,3.04,4.432s2.912-1.808,3.872-5.072a31.859,31.859,0,0,0,.96-4.5,4.254,4.254,0,0,1,3.872,4.464,4.6,4.6,0,0,1-3.872,4.544A9.889,9.889,0,0,1,103.36-.9l.944,1.5C108.192.048,110.336-2.256,110.336-5.616Zm-11.808.464a5.348,5.348,0,0,1,4.56-4.944,25.472,25.472,0,0,1-.88,4.128c-.736,2.464-1.488,3.5-2.208,3.5C99.312-2.464,98.528-3.312,98.528-5.152Zm27.12-5.488-1.232-.8a4.077,4.077,0,0,1-1.024.112h-7.76a14.349,14.349,0,0,1-1.728-.128v1.792c.4-.032,1.04-.064,1.728-.064h7.856a11.048,11.048,0,0,1-2,4.912,10.555,10.555,0,0,1-6.256,3.808L116.608.5a12.33,12.33,0,0,0,6.368-4.336,15.862,15.862,0,0,0,2.384-5.872A4.862,4.862,0,0,1,125.648-10.64Zm12.608.784h-1.664a10.888,10.888,0,0,1,.112,1.184c.016.32.032.7.048,1.168h-4.624a8.515,8.515,0,0,1-1.3-.1v1.584c.416-.032.9-.048,1.328-.048h3.92a16.152,16.152,0,0,1-5.792,4.624l1.1,1.264A18.259,18.259,0,0,0,136.8-4.688c.016,1.5.032,3.008.032,3.92,0,.32-.128.5-.416.5a15.213,15.213,0,0,1-1.9-.16l.1,1.456c.672.048,1.68.1,2.384.1a1.23,1.23,0,0,0,1.36-1.232c-.016-1.568-.064-3.984-.112-5.952h2.144c.336,0,.8.016,1.12.032V-7.6a7.811,7.811,0,0,1-1.168.1h-2.128c0-.464-.016-.864-.016-1.168A7.151,7.151,0,0,1,138.256-9.856Zm7.616-1.28c.032.416.032.976.032,1.392v7.856c0,.64-.032,1.92-.048,2.064H147.6c-.016-.08-.016-.464-.016-.9h8.288c-.016.448-.016.816-.032.9h1.744c0-.128-.032-1.5-.032-2.064V-9.744c0-.448,0-.944.032-1.376-.528.016-1.1.016-1.472.016h-8.688C147.024-11.1,146.512-11.1,145.872-11.136Zm1.7,1.632h8.3V-2.32h-8.3Zm13.664,2.368v1.984c.544-.048,1.5-.08,2.384-.08h8.7c.7,0,1.44.064,1.792.08V-7.136c-.4.032-1.024.1-1.792.1h-8.7C162.752-7.04,161.76-7.1,161.232-7.136Zm19.856-.352.208,1.136c.944-.08,1.984-.192,3.088-.32a3.929,3.929,0,0,1,.112.528l.928-.384a8.347,8.347,0,0,0-.816-2.336l-.864.3c.112.272.24.576.336.88l-1.232.08c.784-1.056,1.648-2.416,2.336-3.568l-1.056-.5c-.24.512-.56,1.1-.912,1.712-.16-.176-.352-.384-.56-.576.4-.64.864-1.536,1.3-2.32l-1.136-.448a23.084,23.084,0,0,1-.9,2.16c-.112-.1-.208-.176-.32-.256l-.592.816a11.068,11.068,0,0,1,1.648,1.568c-.352.544-.688,1.056-1.024,1.488Zm5.6-.208.224,1.1,1.44-.16-.672.624a8.347,8.347,0,0,1,1.072.784h-1.808a42.805,42.805,0,0,1-.416-5.168,11.627,11.627,0,0,1,1.552,1.5c-.3.464-.608.912-.9,1.28Zm2.08,3.664a7.613,7.613,0,0,1-1.12,1.76,14.559,14.559,0,0,1-.5-1.888h3.776V-5.344h-1.28l.336-.32A7.622,7.622,0,0,0,188.5-6.752c.512-.064,1.056-.112,1.616-.176a6.223,6.223,0,0,1,.16.64l.912-.416a8.34,8.34,0,0,0-.912-2.336l-.864.352c.128.24.24.512.352.784l-1.36.1c.736-.992,1.552-2.272,2.208-3.36l-1.056-.5c-.24.512-.56,1.1-.912,1.712a6.227,6.227,0,0,0-.56-.592c.384-.64.864-1.536,1.312-2.32L188.24-13.3a17.026,17.026,0,0,1-.9,2.144c-.112-.08-.208-.16-.32-.24l-.512.7c-.016-.88-.032-1.792-.016-2.72h-1.312a60.893,60.893,0,0,0,.48,8.064h-4.256c-.32-.56-1.248-2.08-1.648-2.656v-.688h1.584v-1.36H179.76v-3.376h-1.344v3.376h-1.888v1.36h1.76a18.767,18.767,0,0,1-2.1,5.728,8.4,8.4,0,0,1,.688,1.248,16.031,16.031,0,0,0,1.536-3.776V1.248h1.344V-6.3c.384.752.784,1.616.976,2.112l.544-.768v.8h1.072c-.16,1.76-.576,3.424-2,4.416a3.417,3.417,0,0,1,.88.976,5.607,5.607,0,0,0,2.1-3.328,14.483,14.483,0,0,1,1.52,1.248l.784-1.024a15.163,15.163,0,0,0-2.048-1.5c.032-.256.064-.512.1-.784h2.176a14.488,14.488,0,0,0,.8,2.848,9.757,9.757,0,0,1-2.864,1.6,6.208,6.208,0,0,1,.8.96A11.779,11.779,0,0,0,187.2-.208a2.675,2.675,0,0,0,2.256,1.488c1.12,0,1.536-.512,1.76-2.3a3.444,3.444,0,0,1-.992-.656c-.08,1.344-.24,1.7-.672,1.7-.512,0-.976-.368-1.376-1.056a8.7,8.7,0,0,0,1.84-2.528ZM205.04-6.4c1.36,0,1.792-.528,1.952-2.528a3.835,3.835,0,0,1-1.344-.544c-.064,1.488-.16,1.744-.736,1.744h-2.176c-.672,0-.784-.1-.784-.624V-9.68a35.27,35.27,0,0,0,4.288-1.552l-.96-1.072a26.377,26.377,0,0,1-3.328,1.408v-2.5h-1.488v5.056c0,1.52.416,1.936,2.1,1.936ZM194.672-3.024V-4.24h2.944v1.216Zm2.944-3.488v1.136h-2.944V-6.512Zm1.472-1.248H193.28V1.232h1.392v-3.12h2.944v1.52c0,.192-.048.256-.256.256-.224.016-.88.016-1.552-.016a5.716,5.716,0,0,1,.5,1.344,5.718,5.718,0,0,0,2.176-.24c.464-.24.608-.624.608-1.328Zm-2.16-4.1a16.421,16.421,0,0,1,.912,1.472l-2.736.128c.448-.88.928-1.9,1.328-2.864l-1.552-.352a21.36,21.36,0,0,1-1.328,3.28c-.448.016-.848.032-1.216.048l.128,1.424c1.632-.1,3.84-.24,6.032-.368.144.336.272.64.352.9l1.328-.544a14.632,14.632,0,0,0-2-3.6Zm5.84,11.68c-.7,0-.832-.1-.832-.64V-2.4A22.558,22.558,0,0,0,206.4-4.144l-.96-1.088a18.049,18.049,0,0,1-3.5,1.6V-6h-1.472V-.8c0,1.488.432,1.92,2.112,1.92h2.576c1.408,0,1.824-.576,2-2.752a4.875,4.875,0,0,1-1.328-.56c-.064,1.712-.176,2.016-.8,2.016Z" transform="translate(232 4168.337)" fill="#333"/>
      <path id="パス_33377" data-name="パス 33377" d="M9.44-12.384a34.023,34.023,0,0,0,4.576,6.368,7.463,7.463,0,0,1,1.264-1.3,22.883,22.883,0,0,1-4.368-5.7Zm-4.48-.624A14.72,14.72,0,0,1,.832-7.12a8.23,8.23,0,0,1,1.424,1.1A19.643,19.643,0,0,0,6.64-12.544Zm4.672,8.8c.688.848,1.424,1.856,2.08,2.832-2.16.112-4.352.208-6.3.288A64.055,64.055,0,0,0,8.352-7.232l-1.76-.432a41.943,41.943,0,0,1-2.9,6.64C2.9-.992,2.16-.96,1.5-.944L1.7.624C4.528.48,8.672.272,12.592.032q.432.72.72,1.3l1.52-.816a36.354,36.354,0,0,0-3.776-5.376ZM21.648-5.552h2.8v-1.44H17.5v1.44H20.16v4.288c-1.216.224-2.32.432-3.184.576l.432,1.5C19.456.368,22.32-.256,24.976-.864l-.112-1.344c-1.072.224-2.16.448-3.216.64Zm5.7-6.976a12.532,12.532,0,0,1,2.16,1.952l1.04-.928a12.148,12.148,0,0,0-2.224-1.84ZM31.1-9.12v-1.456H26.512c-.032-.9-.048-1.84-.032-2.768h-1.6c0,.928.032,1.856.064,2.768H16.928V-9.12H25.04C25.44-3.36,26.7,1.3,29.344,1.3c1.328,0,1.856-.784,2.112-3.664a3.769,3.769,0,0,1-1.312-.848c-.1,2.08-.288,2.944-.672,2.944-1.392,0-2.512-3.808-2.864-8.848ZM36.912.208c2.576,0,4.144-1.536,4.144-3.424a3.288,3.288,0,0,0-2.4-3.184L37.04-7.088c-.96-.384-1.9-.768-1.9-1.792,0-.928.784-1.5,1.984-1.5a3.751,3.751,0,0,1,2.592,1.056l.976-1.184A5.044,5.044,0,0,0,37.12-12c-2.24,0-3.872,1.392-3.872,3.248a3.387,3.387,0,0,0,2.4,3.088l1.632.7c1.088.48,1.888.816,1.888,1.888,0,.992-.8,1.664-2.224,1.664A4.566,4.566,0,0,1,33.808-2.8L32.72-1.52A5.875,5.875,0,0,0,36.912.208ZM43.28,0h1.76V-5.552c0-1.28-.144-2.64-.24-3.856h.08l1.232,2.464L50.016,0h1.9V-11.792H50.16v5.5c0,1.28.144,2.7.24,3.92h-.08l-1.232-2.5-3.9-6.928h-1.9Zm15.1.208c2.576,0,4.144-1.536,4.144-3.424a3.288,3.288,0,0,0-2.4-3.184l-1.616-.688c-.96-.384-1.9-.768-1.9-1.792,0-.928.784-1.5,1.984-1.5a3.751,3.751,0,0,1,2.592,1.056l.976-1.184A5.044,5.044,0,0,0,58.592-12c-2.24,0-3.872,1.392-3.872,3.248a3.387,3.387,0,0,0,2.4,3.088l1.632.7c1.088.48,1.888.816,1.888,1.888,0,.992-.8,1.664-2.224,1.664A4.566,4.566,0,0,1,55.28-2.8L54.192-1.52A5.875,5.875,0,0,0,58.384.208ZM77.856-5.616a5.922,5.922,0,0,0-6.272-6.032,6.935,6.935,0,0,0-7.152,6.656c0,2.672,1.456,4.432,3.04,4.432s2.912-1.808,3.872-5.072a31.86,31.86,0,0,0,.96-4.5,4.254,4.254,0,0,1,3.872,4.464A4.6,4.6,0,0,1,72.3-1.12,9.889,9.889,0,0,1,70.88-.9l.944,1.5C75.712.048,77.856-2.256,77.856-5.616Zm-11.808.464a5.348,5.348,0,0,1,4.56-4.944,25.474,25.474,0,0,1-.88,4.128c-.736,2.464-1.488,3.5-2.208,3.5C66.832-2.464,66.048-3.312,66.048-5.152ZM85.392-8.608h-4.8v1.152h4.8v-.208a5.593,5.593,0,0,1,1.072.944,4.837,4.837,0,0,0,2.016-4.3v-.592h2.3v2.448c0,1.312.336,1.68,1.44,1.68h1.024c.928,0,1.3-.5,1.392-2.4a3.343,3.343,0,0,1-1.216-.544c-.032,1.472-.1,1.68-.336,1.68h-.624c-.224,0-.256-.064-.256-.432v-3.76H87.072v1.9A3.656,3.656,0,0,1,85.392-7.7Zm-4.8,3.3h4.8V-6.48h-4.8ZM85.344-12.9H80.656v1.168h4.688Zm.608,2.112H79.84V-9.6h6.112ZM84.08-3.12v2.3H81.84v-2.3Zm1.3-1.2H80.56V1.056h1.28V.384h3.536ZM92.8-6.64l-.272.048H86.144v1.36h5.728a7.89,7.89,0,0,1-1.84,2.688,8.492,8.492,0,0,1-1.84-2.672L86.864-4.8a11.328,11.328,0,0,0,2.08,3.168A10.942,10.942,0,0,1,85.392-.064a5.347,5.347,0,0,1,.8,1.312A12,12,0,0,0,90.048-.624a10.729,10.729,0,0,0,3.664,1.872,5.825,5.825,0,0,1,.96-1.28,10.607,10.607,0,0,1-3.5-1.568A10.357,10.357,0,0,0,93.76-6.272Zm9.232-5.1H104.3v1.2h-2.272Zm-1.376,1.2H98.464v-1.2h2.192Zm5.008-1.2h2.3v1.2h-2.3Zm1.76,6.512h-6v-.736h6Zm0,1.552h-6v-.752h6Zm0,1.568h-6V-2.88h6ZM100.048-6.8v5.52h8.816V-6.8H103.7c.048-.24.1-.512.144-.8H110.1V-8.736h-6.064c.032-.256.064-.512.112-.768h5.328v-3.28H97.04V-9.5h5.584c-.016.256-.048.512-.08.768H96.32V-7.6h6.064c-.032.288-.08.544-.128.8ZM110.48-.512H98.672v-6.08h-1.5V1.264h1.5V.656H110.48Z" transform="translate(232 3760.168)" fill="#333"/>
      <path id="パス_33378" data-name="パス 33378" d="M4.864-12.464l-.912,1.376c.992.56,2.7,1.7,3.52,2.288l.944-1.376C7.664-10.72,5.856-11.9,4.864-12.464ZM2.224-1.056,3.168.592A18.747,18.747,0,0,0,8.48-1.392,19.047,19.047,0,0,0,14.736-7.12l-.976-1.7A16.457,16.457,0,0,1,7.632-2.88,17.571,17.571,0,0,1,2.224-1.056Zm.208-7.776L1.52-7.456a40.043,40.043,0,0,1,3.568,2.24L6.016-6.64C5.264-7.168,3.44-8.3,2.432-8.832ZM19.488-8.9v1.552c.336-.016,1.3-.048,1.792-.048h5.648v2.336H21.44c-.56,0-1.2-.032-1.568-.048v1.52c.352-.032,1.008-.032,1.584-.032h5.472v2.528H20.656a12.889,12.889,0,0,1-1.344-.064V.432c.272-.016.864-.048,1.344-.048h6.272c0,.256,0,.5-.016.64h1.6C28.5.768,28.48.32,28.48.064V-7.92c0-.32,0-.736.016-.928-.224,0-.72.016-1.088.016H21.28C20.784-8.832,19.856-8.848,19.488-8.9Zm20.4-.448-1.5.5a29.262,29.262,0,0,1,1.28,3.52l1.5-.544C40.96-6.576,40.176-8.672,39.888-9.344Zm5.84,1.024-1.76-.56A11.105,11.105,0,0,1,41.84-3.408,10.9,10.9,0,0,1,36.592-.032l1.328,1.36a12.4,12.4,0,0,0,5.264-3.872,12.826,12.826,0,0,0,2.24-4.832C45.488-7.632,45.584-7.92,45.728-8.32ZM36.16-8.512l-1.5.544A32.677,32.677,0,0,1,36.112-4.32l1.52-.56C37.328-5.76,36.528-7.776,36.16-8.512ZM60.88-11.6a1.011,1.011,0,0,1,.992-1.008A1.025,1.025,0,0,1,62.88-11.6a1.011,1.011,0,0,1-1.008.992A1,1,0,0,1,60.88-11.6Zm-.848,0a1.986,1.986,0,0,0,.048.432,5.432,5.432,0,0,1-.688.032h-7.76c-.528,0-1.28-.064-1.728-.112v1.792c.416-.032,1.056-.064,1.728-.064H59.5a11.593,11.593,0,0,1-2,4.912A10.736,10.736,0,0,1,51.248-.8L52.624.7a12.444,12.444,0,0,0,6.352-4.336,16.3,16.3,0,0,0,2.4-5.872c.016-.1.048-.208.064-.3a1.986,1.986,0,0,0,.432.048,1.844,1.844,0,0,0,1.856-1.84,1.854,1.854,0,0,0-1.856-1.84A1.84,1.84,0,0,0,60.032-11.6Zm5.552,5.744a21.816,21.816,0,0,0,.64-4.336l-1.072-.128a22.06,22.06,0,0,1-.688,4.112Zm4.048-3.056a19.321,19.321,0,0,0-.9-2.256l-.928.368v-2.608h-1.36V1.248h1.36v-11.92a20.945,20.945,0,0,1,.816,2.24ZM71.424-2.24v-.992h5.3v.992Zm5.3-3.088v.992h-5.3v-.992Zm1.408-1.12h-8.08v7.7h1.376V-1.168h5.3V-.3c0,.192-.064.256-.288.272-.208,0-.976.016-1.712-.032a5.489,5.489,0,0,1,.432,1.28A6.84,6.84,0,0,0,77.5.992c.48-.208.624-.592.624-1.264ZM74.784-8.336v-.928h3.632V-10.3H74.784v-.832h4.048v-1.1H74.784v-1.184H73.312v1.184h-3.9v1.1h3.9v.832h-3.52v1.04h3.52v.928H68.928v1.1H79.3v-1.1ZM85.568-5.92H83.024l.528-.144a7.616,7.616,0,0,0-.624-1.92H85.7a19.445,19.445,0,0,1-.672,1.92Zm-.576-4.72H87.2v-1.248H84.992v-1.5H83.6v1.5H81.248v1.248H83.6v1.392H80.672v1.264h1.712l-.656.176a7.178,7.178,0,0,1,.608,1.888H80.944v1.28H83.6v1.5H81.088v1.264H83.6V1.216h1.392V-1.872h2.4V-3.136h-2.4v-1.5H87.6V-5.92H86.176c.256-.512.544-1.216.816-1.888L86.3-7.984h1.488V-9.248h-2.8ZM89.568-6.1a16.542,16.542,0,0,0,1.9,4.32,8.039,8.039,0,0,1-1.9,1.92Zm3.808,0A12.871,12.871,0,0,1,92.24-3.024,13.784,13.784,0,0,1,90.816-6.1Zm.672-1.28-.24.064h-4.24v-4.1H93.2v1.7c0,.176-.064.224-.3.24s-1.088.016-2-.016a4.691,4.691,0,0,1,.448,1.28,8.035,8.035,0,0,0,2.544-.208c.56-.208.7-.592.7-1.28V-12.72H88.224V1.264h1.344V.416a4.567,4.567,0,0,1,.816.864,9.17,9.17,0,0,0,1.952-1.9,8.771,8.771,0,0,0,2.208,1.888A5.906,5.906,0,0,1,95.536.08a7.739,7.739,0,0,1-2.384-1.9A15.626,15.626,0,0,0,94.96-7.04ZM8.848,19.552l-1.856-.608a7.093,7.093,0,0,1-.592,1.44,13.578,13.578,0,0,1-5.024,5.3l1.408,1.056a16.709,16.709,0,0,0,4.064-3.92H11.84a12.015,12.015,0,0,1-2.432,4.72,12.82,12.82,0,0,1-6.416,4L4.48,32.864a14.418,14.418,0,0,0,6.4-4.432,15.835,15.835,0,0,0,2.816-5.44,5.476,5.476,0,0,1,.448-.976l-1.312-.8a3.758,3.758,0,0,1-1.2.16H7.792c.08-.128.16-.272.224-.4C8.192,20.656,8.528,20.032,8.848,19.552Zm8.7,5.312v1.984c.544-.048,1.5-.08,2.384-.08h8.7c.7,0,1.44.064,1.792.08V24.864c-.4.032-1.024.1-1.792.1h-8.7C19.072,24.96,18.08,24.9,17.552,24.864ZM44.224,20.1a.949.949,0,0,1,.944-.96.96.96,0,0,1,0,1.92A.949.949,0,0,1,44.224,20.1Zm-.848,0A1.8,1.8,0,1,0,45.168,18.3,1.789,1.789,0,0,0,43.376,20.1Zm-2.464-.56H39.024a6.817,6.817,0,0,1,.128,1.248v1.488H34.864a13.285,13.285,0,0,1-1.424-.1v1.68c.432-.032.944-.048,1.44-.048h4.272v6.864c-.016.432-.192.592-.608.592a10.922,10.922,0,0,1-1.824-.176l.144,1.584a23.969,23.969,0,0,0,2.416.112c1.056,0,1.5-.5,1.5-1.36V23.808h4.032c.4,0,.944,0,1.408.032V22.176a10.645,10.645,0,0,1-1.424.1H40.784V20.8A8.6,8.6,0,0,1,40.912,19.536ZM37.28,26.192,35.856,25.5a16.609,16.609,0,0,1-3.024,4.16l1.376.944A23.906,23.906,0,0,0,37.28,26.192Zm6.768-.7-1.376.752a27.706,27.706,0,0,1,2.656,4.272L46.8,29.68A34.382,34.382,0,0,0,44.048,25.488Zm7.68-5.408L50.56,21.328a34.7,34.7,0,0,1,4,3.392l1.264-1.3A33.575,33.575,0,0,0,51.728,20.08Zm-1.648,10.7,1.072,1.648a17.641,17.641,0,0,0,6.128-2.384A16.359,16.359,0,0,0,62.9,24.256l-.976-1.744a15.234,15.234,0,0,1-5.552,6.032A16.625,16.625,0,0,1,50.08,30.784ZM10.72,51.344H8.9A12.313,12.313,0,0,1,9.04,52.8c.016.384.032.864.048,1.392H3.5a12.557,12.557,0,0,1-1.6-.112v1.7q.792-.048,1.632-.048h4.88A19.51,19.51,0,0,1,1.2,61.616l1.152,1.312a22.165,22.165,0,0,0,6.8-5.728c.032,1.952.048,3.952.048,5.152,0,.432-.16.64-.592.64a16.274,16.274,0,0,1-2.192-.176l.128,1.648c.848.048,1.776.1,2.656.1,1.072,0,1.616-.512,1.616-1.44-.016-2.064-.08-5.024-.128-7.392h2.336c.4,0,.976.016,1.408.032V54.08a12.876,12.876,0,0,1-1.488.112H10.656c0-.544-.016-1.008-.016-1.392A8.888,8.888,0,0,1,10.72,51.344Zm9.008.736L18.56,53.328a34.7,34.7,0,0,1,4,3.392l1.264-1.3A33.575,33.575,0,0,0,19.728,52.08Zm-1.648,10.7,1.072,1.648a17.641,17.641,0,0,0,6.128-2.384A16.359,16.359,0,0,0,30.9,56.256l-.976-1.744a15.234,15.234,0,0,1-5.552,6.032A16.625,16.625,0,0,1,18.08,62.784ZM35.648,51.936v1.648c.448-.032,1.024-.048,1.536-.048h6.208c.544,0,1.184.016,1.584.048V51.936a15.285,15.285,0,0,1-1.568.08H37.184A14.636,14.636,0,0,1,35.648,51.936Zm10.592,4.4-1.136-.7a3.175,3.175,0,0,1-1.024.144H35.888c-.464,0-1.072-.048-1.7-.112v1.664c.608-.048,1.312-.064,1.7-.064h8.144a7.542,7.542,0,0,1-1.776,3.2,10.764,10.764,0,0,1-5.6,2.88l1.248,1.44a11.823,11.823,0,0,0,5.728-3.408,11.321,11.321,0,0,0,2.352-4.48A2.81,2.81,0,0,1,46.24,56.336Zm2.976,1.7L50,59.616a32.736,32.736,0,0,0,5.9-2.48V62.7a18.541,18.541,0,0,1-.1,1.888h1.984A12.032,12.032,0,0,1,57.68,62.7v-6.64a26.991,26.991,0,0,0,4.3-3.5L60.64,51.28a19.75,19.75,0,0,1-4.448,3.808A26.421,26.421,0,0,1,49.216,58.032ZM67.728,52.08,66.56,53.328a34.7,34.7,0,0,1,4,3.392l1.264-1.3A33.574,33.574,0,0,0,67.728,52.08Zm-1.648,10.7,1.072,1.648a17.641,17.641,0,0,0,6.128-2.384A16.359,16.359,0,0,0,78.9,56.256l-.976-1.744a15.234,15.234,0,0,1-5.552,6.032A16.625,16.625,0,0,1,66.08,62.784Zm25.632-6.016v-.544h1.52c.768,0,1.328.016,1.584.048v-1.7a10.632,10.632,0,0,1-1.6.1h-1.5V52.816a10.433,10.433,0,0,1,.1-1.392H90a11.048,11.048,0,0,1,.08,1.392v1.856H85.856v-1.84a8.622,8.622,0,0,1,.1-1.28H84.144a8.78,8.78,0,0,1,.1,1.28v1.84H82.672a9.946,9.946,0,0,1-1.664-.128v1.744c.256-.032.912-.064,1.664-.064H84.24v2.4c0,.672-.064,1.328-.08,1.552h1.776a14.227,14.227,0,0,1-.08-1.552v-2.4H90.08v.64c0,4.24-1.408,5.616-4.4,6.72l1.36,1.28C90.784,63.184,91.712,60.9,91.712,56.768Zm6.48-3.9c.032.416.032.976.032,1.392v7.856c0,.64-.032,1.92-.048,2.064H99.92c-.016-.08-.016-.464-.016-.9h8.288c-.016.448-.016.816-.032.9H109.9c0-.128-.032-1.5-.032-2.064V54.256c0-.448,0-.944.032-1.376-.528.016-1.1.016-1.472.016H99.744C99.344,52.9,98.832,52.9,98.192,52.864Zm1.7,1.632h8.3V61.68h-8.3Zm15.84-2.416-1.168,1.248a34.7,34.7,0,0,1,4,3.392l1.264-1.3A33.574,33.574,0,0,0,115.728,52.08Zm-1.648,10.7,1.072,1.648a17.641,17.641,0,0,0,6.128-2.384,16.359,16.359,0,0,0,5.616-5.792l-.976-1.744a15.234,15.234,0,0,1-5.552,6.032A16.625,16.625,0,0,1,114.08,62.784ZM6.752,83.12H4.992a10.4,10.4,0,0,1,.1,1.264c0,.288-.016.864-.016,1.584q-.6.048-1.1.048a16.165,16.165,0,0,1-2.128-.128l.048,1.536c.528.048,1.136.08,2.112.08q.456,0,1.056-.048c-.016.608-.016,1.216-.016,1.776v.992c-1.888.816-3.536,2.24-3.536,3.6,0,1.536,2.128,2.816,3.52,2.816.944,0,1.568-.5,1.568-2.192,0-.64-.048-1.984-.064-3.312a10.825,10.825,0,0,1,3.28-.528c1.456,0,2.56.688,2.56,1.92,0,1.344-1.168,2.048-2.512,2.3a8.439,8.439,0,0,1-1.92.112l.576,1.632a12.435,12.435,0,0,0,2.032-.24C12.9,95.776,14,94.448,14,92.544c0-2.048-1.792-3.328-4.176-3.328a12.5,12.5,0,0,0-3.328.512v-.56c0-.576.016-1.216.032-1.856,1.1-.128,2.288-.32,3.216-.528l-.032-1.568a20.054,20.054,0,0,1-3.152.608c.032-.576.048-1.088.064-1.472C6.656,83.968,6.7,83.424,6.752,83.12Zm4.784,1.76-.7,1.216a23.176,23.176,0,0,1,3.7,2.368l.784-1.28A28.654,28.654,0,0,0,11.536,84.88ZM3.072,93.744c0-.64.832-1.456,2-2.032.016,1.04.048,1.968.048,2.48,0,.528-.224.736-.544.736C4.032,94.928,3.072,94.384,3.072,93.744ZM24.208,90.32V88.912H21.376V86.048H23.76V84.656H19.392c.16-.576.3-1.184.432-1.792L18.4,82.592A12.238,12.238,0,0,1,16.5,87.5a8.692,8.692,0,0,1,1.216.864,11.629,11.629,0,0,0,1.184-2.32h.976v2.864H16.736V90.32h3.04A7.8,7.8,0,0,1,16.544,96.1,5.936,5.936,0,0,1,17.6,97.232a8.613,8.613,0,0,0,3.168-4.48A36.553,36.553,0,0,1,23.216,95.9l1.024-1.28c-.464-.528-2.3-2.608-3.1-3.392.064-.3.1-.608.144-.912Zm1.9,3.888V85.36h2.912v8.848Zm-1.44-10.256V96.8h1.44V95.6h2.912v1.024h1.5V83.952Zm12.672-.64-.4,1.52c1.232.32,4.752,1.056,6.32,1.264l.368-1.552A46.889,46.889,0,0,1,37.344,83.312Zm-.144,3.04-1.7-.224a60.011,60.011,0,0,1-.816,6.576l1.472.352a3.256,3.256,0,0,1,.544-.848,6.006,6.006,0,0,1,4.72-2.032c1.536,0,2.64.848,2.64,2.032,0,2.112-2.5,3.44-7.44,2.816l.48,1.648c6.256.528,8.688-1.552,8.688-4.432,0-1.9-1.632-3.488-4.24-3.488a7.7,7.7,0,0,0-4.992,1.776C36.7,89.552,36.976,87.36,37.2,86.352Zm22.5-2.784H57.984A10.57,10.57,0,0,1,58.1,84.88v2.08c-1.6.144-3.344.3-4.816.448.016-.768.016-1.44.016-1.888a12.64,12.64,0,0,1,.08-1.456H51.6a9.505,9.505,0,0,1,.112,1.536v1.952c-.672.064-1.2.112-1.552.144-.672.064-1.328.1-1.808.1l.176,1.632c.416-.064,1.248-.176,1.744-.24.352-.048.848-.1,1.44-.16,0,1.536,0,3.184.016,3.872.064,2.64.48,3.5,4.368,3.5a45.038,45.038,0,0,0,4.624-.272l.048-1.712a29.867,29.867,0,0,1-4.768.4c-2.608,0-2.672-.512-2.72-2.16-.032-.656-.016-2.24,0-3.808,1.488-.16,3.232-.32,4.784-.448a22.8,22.8,0,0,1-.16,2.32c-.032.352-.192.416-.56.416a9.321,9.321,0,0,1-1.536-.208l-.032,1.392a18.846,18.846,0,0,0,2.24.24c.768,0,1.136-.208,1.3-.976a24.371,24.371,0,0,0,.24-3.3c.592-.032,1.12-.064,1.536-.064.416-.016,1.12-.032,1.392-.016V86.64c-.416.032-.96.08-1.376.1-.448.032-.976.064-1.52.112.016-.64.016-1.328.032-2.016A9.509,9.509,0,0,1,59.7,83.568Z" transform="translate(232 3816.168)" fill="#333"/>
      <path id="パス_33379" data-name="パス 33379" d="M4.864-12.464l-.912,1.376c.992.56,2.7,1.7,3.52,2.288l.944-1.376C7.664-10.72,5.856-11.9,4.864-12.464ZM2.224-1.056,3.168.592A18.747,18.747,0,0,0,8.48-1.392,19.047,19.047,0,0,0,14.736-7.12l-.976-1.7A16.457,16.457,0,0,1,7.632-2.88,17.571,17.571,0,0,1,2.224-1.056Zm.208-7.776L1.52-7.456a40.043,40.043,0,0,1,3.568,2.24L6.016-6.64C5.264-7.168,3.44-8.3,2.432-8.832ZM19.488-8.9v1.552c.336-.016,1.3-.048,1.792-.048h5.648v2.336H21.44c-.56,0-1.2-.032-1.568-.048v1.52c.352-.032,1.008-.032,1.584-.032h5.472v2.528H20.656a12.889,12.889,0,0,1-1.344-.064V.432c.272-.016.864-.048,1.344-.048h6.272c0,.256,0,.5-.016.64h1.6C28.5.768,28.48.32,28.48.064V-7.92c0-.32,0-.736.016-.928-.224,0-.72.016-1.088.016H21.28C20.784-8.832,19.856-8.848,19.488-8.9Zm20.4-.448-1.5.5a29.262,29.262,0,0,1,1.28,3.52l1.5-.544C40.96-6.576,40.176-8.672,39.888-9.344Zm5.84,1.024-1.76-.56A11.105,11.105,0,0,1,41.84-3.408,10.9,10.9,0,0,1,36.592-.032l1.328,1.36a12.4,12.4,0,0,0,5.264-3.872,12.826,12.826,0,0,0,2.24-4.832C45.488-7.632,45.584-7.92,45.728-8.32ZM36.16-8.512l-1.5.544A32.677,32.677,0,0,1,36.112-4.32l1.52-.56C37.328-5.76,36.528-7.776,36.16-8.512ZM60.88-11.6a1.011,1.011,0,0,1,.992-1.008A1.025,1.025,0,0,1,62.88-11.6a1.011,1.011,0,0,1-1.008.992A1,1,0,0,1,60.88-11.6Zm-.848,0a1.986,1.986,0,0,0,.048.432,5.432,5.432,0,0,1-.688.032h-7.76c-.528,0-1.28-.064-1.728-.112v1.792c.416-.032,1.056-.064,1.728-.064H59.5a11.593,11.593,0,0,1-2,4.912A10.736,10.736,0,0,1,51.248-.8L52.624.7a12.444,12.444,0,0,0,6.352-4.336,16.3,16.3,0,0,0,2.4-5.872c.016-.1.048-.208.064-.3a1.986,1.986,0,0,0,.432.048,1.844,1.844,0,0,0,1.856-1.84,1.854,1.854,0,0,0-1.856-1.84A1.84,1.84,0,0,0,60.032-11.6Zm11.76,7.44V-6.048H73.84v1.184a5.185,5.185,0,0,1-.032.7Zm5.52-1.888V-4.16H75.168c.016-.224.016-.448.016-.672V-6.048Zm-5.056-3.68a10.866,10.866,0,0,0,2.272-2.384,11.589,11.589,0,0,0,2.384,2.384Zm6.4,6.736V-7.216H75.184V-8.48h2.352v-.8a13.3,13.3,0,0,0,1.328.8,7.3,7.3,0,0,1,.784-1.312,11,11,0,0,1-4.5-3.616H73.808a10.542,10.542,0,0,1-3.84,3.52v-.192h-1.6v-3.344H66.976v3.344H64.864V-8.7h2A17.619,17.619,0,0,1,64.528-2.96a7.744,7.744,0,0,1,.72,1.3,15.032,15.032,0,0,0,1.728-3.824V1.248h1.392V-5.92c.416.752.848,1.6,1.056,2.1l.8-1.168c-.24-.4-1.424-2.144-1.856-2.7V-8.7h1.6v-.384a5.952,5.952,0,0,1,.32.64,10.284,10.284,0,0,0,1.312-.8v.768h2.24v1.264H70.5v4.224h3.088c-.432,1.232-1.52,2.384-4.16,3.216a5.016,5.016,0,0,1,.816,1.12C72.784.512,74.048-.72,74.672-2.064a6.763,6.763,0,0,0,4,3.392A3.571,3.571,0,0,1,79.536.08,5.724,5.724,0,0,1,75.68-2.992Zm5.856.752A12.261,12.261,0,0,1,80.736.08,7.962,7.962,0,0,1,81.888,1.1a15.712,15.712,0,0,0,4.048-2.816Zm8.512-.512a9.27,9.27,0,0,1,.88.8l1.056-.88A28.649,28.649,0,0,0,91.04-5.68l-.992.784c.5.3,1.024.656,1.536,1.04-1.568.016-3.152.048-4.64.064a48.916,48.916,0,0,0,4.528-3.12l-1.36-.736a32.464,32.464,0,0,1-3.264,2.512c-.352-.272-.784-.56-1.248-.848a25.46,25.46,0,0,0,2.464-2.032l-.512-.24h5.84V-6.4h1.472V-9.52H88.688V-10.8h6v-1.312h-6V-13.44H87.216v1.328H81.28V-10.8h5.936v1.28H81.2V-6.4h1.408V-8.256h3.728a20.3,20.3,0,0,1-1.824,1.664q-.408-.216-.768-.384l-.96.832a21.066,21.066,0,0,1,2.848,1.808c-.32.192-.624.384-.928.56-1.36.016-2.592.016-3.6.016l.08,1.36c1.632-.032,3.744-.08,6.032-.16V1.28H88.7V-2.608ZM89.952-1.5a21.355,21.355,0,0,1,3.872,2.56L95.056.208A25.405,25.405,0,0,0,91.1-2.256Z" transform="translate(232 3968.114)" fill="#333"/>
      <path id="パス_33380" data-name="パス 33380" d="M4.864-12.464l-.912,1.376c.992.56,2.7,1.7,3.52,2.288l.944-1.376C7.664-10.72,5.856-11.9,4.864-12.464ZM2.224-1.056,3.168.592A18.747,18.747,0,0,0,8.48-1.392,19.047,19.047,0,0,0,14.736-7.12l-.976-1.7A16.457,16.457,0,0,1,7.632-2.88,17.571,17.571,0,0,1,2.224-1.056Zm.208-7.776L1.52-7.456a40.043,40.043,0,0,1,3.568,2.24L6.016-6.64C5.264-7.168,3.44-8.3,2.432-8.832ZM19.488-8.9v1.552c.336-.016,1.3-.048,1.792-.048h5.648v2.336H21.44c-.56,0-1.2-.032-1.568-.048v1.52c.352-.032,1.008-.032,1.584-.032h5.472v2.528H20.656a12.889,12.889,0,0,1-1.344-.064V.432c.272-.016.864-.048,1.344-.048h6.272c0,.256,0,.5-.016.64h1.6C28.5.768,28.48.32,28.48.064V-7.92c0-.32,0-.736.016-.928-.224,0-.72.016-1.088.016H21.28C20.784-8.832,19.856-8.848,19.488-8.9Zm20.4-.448-1.5.5a29.262,29.262,0,0,1,1.28,3.52l1.5-.544C40.96-6.576,40.176-8.672,39.888-9.344Zm5.84,1.024-1.76-.56A11.105,11.105,0,0,1,41.84-3.408,10.9,10.9,0,0,1,36.592-.032l1.328,1.36a12.4,12.4,0,0,0,5.264-3.872,12.826,12.826,0,0,0,2.24-4.832C45.488-7.632,45.584-7.92,45.728-8.32ZM36.16-8.512l-1.5.544A32.677,32.677,0,0,1,36.112-4.32l1.52-.56C37.328-5.76,36.528-7.776,36.16-8.512ZM60.88-11.6a1.011,1.011,0,0,1,.992-1.008A1.025,1.025,0,0,1,62.88-11.6a1.011,1.011,0,0,1-1.008.992A1,1,0,0,1,60.88-11.6Zm-.848,0a1.986,1.986,0,0,0,.048.432,5.432,5.432,0,0,1-.688.032h-7.76c-.528,0-1.28-.064-1.728-.112v1.792c.416-.032,1.056-.064,1.728-.064H59.5a11.593,11.593,0,0,1-2,4.912A10.736,10.736,0,0,1,51.248-.8L52.624.7a12.444,12.444,0,0,0,6.352-4.336,16.3,16.3,0,0,0,2.4-5.872c.016-.1.048-.208.064-.3a1.986,1.986,0,0,0,.432.048,1.844,1.844,0,0,0,1.856-1.84,1.854,1.854,0,0,0-1.856-1.84A1.84,1.84,0,0,0,60.032-11.6ZM78.656-5.616a5.922,5.922,0,0,0-6.272-6.032,6.935,6.935,0,0,0-7.152,6.656c0,2.672,1.456,4.432,3.04,4.432s2.912-1.808,3.872-5.072a31.86,31.86,0,0,0,.96-4.5,4.254,4.254,0,0,1,3.872,4.464A4.6,4.6,0,0,1,73.1-1.12,9.889,9.889,0,0,1,71.68-.9l.944,1.5C76.512.048,78.656-2.256,78.656-5.616Zm-11.808.464a5.348,5.348,0,0,1,4.56-4.944,25.472,25.472,0,0,1-.88,4.128c-.736,2.464-1.488,3.5-2.208,3.5C67.632-2.464,66.848-3.312,66.848-5.152ZM84.32-13.376a17.1,17.1,0,0,1-3.9,6.128,8.806,8.806,0,0,1,.832,1.5A17.086,17.086,0,0,0,82.736-7.52V1.232h1.408V-9.68a28.829,28.829,0,0,0,1.568-3.248Zm3.216,2h5.392V-8.8H87.536Zm7.712,6.992V-5.728h-4.32V-7.472h3.488v-5.216H86.144v5.216h3.3v1.744H85.024v1.344h3.632A11.731,11.731,0,0,1,84.512-.576,6.561,6.561,0,0,1,85.536.608a13.019,13.019,0,0,0,3.9-3.872V1.28h1.488V-3.344A13.734,13.734,0,0,0,94.64.64,6.65,6.65,0,0,1,95.68-.544a11.893,11.893,0,0,1-3.952-3.84ZM110.992-9.92v-1.44h-7.936c.208-.56.4-1.136.576-1.7l-1.568-.384a17.45,17.45,0,0,1-.672,2.08H97.024v1.44h3.744a13.221,13.221,0,0,1-4.24,5.232,10.955,10.955,0,0,1,.752,1.424,12.437,12.437,0,0,0,1.648-1.392V1.232h1.52V-6.416a19.518,19.518,0,0,0,2.016-3.5Zm.272,5.568h-4.016v-.624a17.643,17.643,0,0,0,3.088-2.752l-.944-.736-.3.08h-6.3V-7.04h5.024a12.783,12.783,0,0,1-1.52,1.3h-.528v1.392h-4.288v1.408h4.288V-.432c0,.208-.08.272-.352.288-.272,0-1.2.016-2.16-.032a6.282,6.282,0,0,1,.432,1.424A9.72,9.72,0,0,0,106.5,1.04c.592-.24.752-.656.752-1.44V-2.944h4.016ZM12.336,19.072l-1.024.432a19.1,19.1,0,0,1,1.264,2.208l1.056-.448A23.186,23.186,0,0,0,12.336,19.072Zm1.808-.688-1.024.432a16.058,16.058,0,0,1,1.312,2.208l1.04-.464A18.914,18.914,0,0,0,14.144,18.384ZM8.272,19.936l-1.856-.608a7.5,7.5,0,0,1-.592,1.44A13.685,13.685,0,0,1,.8,26.064L2.208,27.1a16.576,16.576,0,0,0,4.048-3.9h5.008a12.015,12.015,0,0,1-2.432,4.72A12.806,12.806,0,0,1,2.416,31.9L3.9,33.248a14.546,14.546,0,0,0,6.4-4.432,15.835,15.835,0,0,0,2.816-5.44,5.476,5.476,0,0,1,.448-.976l-1.312-.8a4.272,4.272,0,0,1-1.2.16H7.2c.1-.144.16-.272.24-.416C7.616,21.024,7.952,20.416,8.272,19.936ZM24.24,31.648l1.056.88a4.973,4.973,0,0,1,.608-.4,16.835,16.835,0,0,0,5.456-4.416l-.976-1.376a11.256,11.256,0,0,1-4.352,3.68V21.168a9.637,9.637,0,0,1,.08-1.28H24.256a11.727,11.727,0,0,1,.1,1.28V30.64A4.615,4.615,0,0,1,24.24,31.648ZM16.864,31.5,18.4,32.528a8.989,8.989,0,0,0,2.848-4.48,35.052,35.052,0,0,0,.5-6.832,11.976,11.976,0,0,1,.08-1.28H19.968a4.986,4.986,0,0,1,.128,1.3,27.743,27.743,0,0,1-.464,6.384A7.406,7.406,0,0,1,16.864,31.5Zm16.688-6.64v1.984c.544-.048,1.5-.08,2.384-.08h8.7c.7,0,1.44.064,1.792.08V24.864c-.4.032-1.024.1-1.792.1h-8.7C35.072,24.96,34.08,24.9,33.552,24.864ZM60.24,20.752a1,1,0,1,1,2,0,1,1,0,0,1-2,0Zm-.848,0a1.867,1.867,0,0,0,.528,1.3,8.472,8.472,0,0,1-1.52.768,43.936,43.936,0,0,1-5.84,1.872V21.344a14.52,14.52,0,0,1,.1-1.472H50.784a9.55,9.55,0,0,1,.112,1.472V30.1c0,1.344.736,1.984,2.032,2.224a17.435,17.435,0,0,0,2.624.16,46.857,46.857,0,0,0,5.616-.32V30.32a26.721,26.721,0,0,1-5.52.528,13.8,13.8,0,0,1-2-.112c-.752-.16-1.088-.352-1.088-1.12V26.352a61.847,61.847,0,0,0,6.416-2.016c.512-.192,1.152-.48,1.68-.688L59.984,22.1a1.863,1.863,0,0,0,1.264.5,1.848,1.848,0,1,0-1.856-1.84Zm8.336-.672L66.56,21.328a34.7,34.7,0,0,1,4,3.392l1.264-1.3A33.574,33.574,0,0,0,67.728,20.08Zm-1.648,10.7,1.072,1.648a17.641,17.641,0,0,0,6.128-2.384A16.359,16.359,0,0,0,78.9,24.256l-.976-1.744a15.234,15.234,0,0,1-5.552,6.032A16.625,16.625,0,0,1,66.08,30.784ZM92.336,19.072l-1.024.432a19.1,19.1,0,0,1,1.264,2.208l1.056-.448A23.188,23.188,0,0,0,92.336,19.072Zm1.808-.688-1.024.432a16.058,16.058,0,0,1,1.312,2.208l1.04-.464A18.913,18.913,0,0,0,94.144,18.384Zm-5.872,1.552-1.856-.608a7.5,7.5,0,0,1-.592,1.44,13.685,13.685,0,0,1-5.024,5.3l1.408,1.04a16.576,16.576,0,0,0,4.048-3.9h5.008a12.015,12.015,0,0,1-2.432,4.72A12.806,12.806,0,0,1,82.416,31.9L83.9,33.248a14.546,14.546,0,0,0,6.4-4.432,15.835,15.835,0,0,0,2.816-5.44,5.476,5.476,0,0,1,.448-.976l-1.312-.8a4.272,4.272,0,0,1-1.2.16H87.2c.1-.144.16-.272.24-.416C87.616,21.024,87.952,20.416,88.272,19.936Zm13.136,4.576.208,1.136c.944-.08,1.984-.192,3.088-.32a3.931,3.931,0,0,1,.112.528l.928-.384a8.347,8.347,0,0,0-.816-2.336l-.864.3c.112.272.24.576.336.88l-1.232.08c.784-1.056,1.648-2.416,2.336-3.568l-1.056-.5c-.24.512-.56,1.1-.912,1.712-.16-.176-.352-.384-.56-.576.4-.64.864-1.536,1.3-2.32l-1.136-.448a23.082,23.082,0,0,1-.9,2.16c-.112-.1-.208-.176-.32-.256l-.592.816a11.068,11.068,0,0,1,1.648,1.568c-.352.544-.688,1.056-1.024,1.488Zm5.6-.208.224,1.1,1.44-.16-.672.624a8.347,8.347,0,0,1,1.072.784h-1.808a42.808,42.808,0,0,1-.416-5.168,11.628,11.628,0,0,1,1.552,1.5c-.3.464-.608.912-.9,1.28Zm2.08,3.664a7.613,7.613,0,0,1-1.12,1.76,14.559,14.559,0,0,1-.5-1.888h3.776V26.656h-1.28l.336-.32a7.622,7.622,0,0,0-1.488-1.088c.512-.064,1.056-.112,1.616-.176a6.224,6.224,0,0,1,.16.64l.912-.416a8.34,8.34,0,0,0-.912-2.336l-.864.352c.128.24.24.512.352.784l-1.36.1c.736-.992,1.552-2.272,2.208-3.36l-1.056-.5c-.24.512-.56,1.1-.912,1.712a6.225,6.225,0,0,0-.56-.592c.384-.64.864-1.536,1.312-2.32L108.56,18.7a17.027,17.027,0,0,1-.9,2.144c-.112-.08-.208-.16-.32-.24l-.512.7c-.016-.88-.032-1.792-.016-2.72H105.5a60.893,60.893,0,0,0,.48,8.064h-4.256c-.32-.56-1.248-2.08-1.648-2.656v-.688h1.584v-1.36H100.08V18.576H98.736v3.376H96.848v1.36h1.76a18.767,18.767,0,0,1-2.1,5.728,8.4,8.4,0,0,1,.688,1.248,16.032,16.032,0,0,0,1.536-3.776v6.736h1.344V25.7c.384.752.784,1.616.976,2.112l.544-.768v.8h1.072c-.16,1.76-.576,3.424-2,4.416a3.417,3.417,0,0,1,.88.976,5.607,5.607,0,0,0,2.1-3.328,14.484,14.484,0,0,1,1.52,1.248l.784-1.024a15.164,15.164,0,0,0-2.048-1.5c.032-.256.064-.512.1-.784h2.176a14.488,14.488,0,0,0,.8,2.848,9.757,9.757,0,0,1-2.864,1.6,6.208,6.208,0,0,1,.8.96,11.779,11.779,0,0,0,2.608-1.456,2.675,2.675,0,0,0,2.256,1.488c1.12,0,1.536-.512,1.76-2.3a3.444,3.444,0,0,1-.992-.656c-.08,1.344-.24,1.7-.672,1.7-.512,0-.976-.368-1.376-1.056a8.7,8.7,0,0,0,1.84-2.528ZM125.36,25.6c1.36,0,1.792-.528,1.952-2.528a3.835,3.835,0,0,1-1.344-.544c-.064,1.488-.16,1.744-.736,1.744h-2.176c-.672,0-.784-.1-.784-.624V22.32a35.27,35.27,0,0,0,4.288-1.552L125.6,19.7a26.377,26.377,0,0,1-3.328,1.408v-2.5h-1.488v5.056c0,1.52.416,1.936,2.1,1.936Zm-10.368,3.376V27.76h2.944v1.216Zm2.944-3.488v1.136h-2.944V25.488Zm1.472-1.248H113.6v8.992h1.392v-3.12h2.944v1.52c0,.192-.048.256-.256.256-.224.016-.88.016-1.552-.016a5.717,5.717,0,0,1,.5,1.344,5.718,5.718,0,0,0,2.176-.24c.464-.24.608-.624.608-1.328Zm-2.16-4.1a16.418,16.418,0,0,1,.912,1.472l-2.736.128c.448-.88.928-1.9,1.328-2.864l-1.552-.352a21.361,21.361,0,0,1-1.328,3.28c-.448.016-.848.032-1.216.048l.128,1.424c1.632-.1,3.84-.24,6.032-.368.144.336.272.64.352.9l1.328-.544a14.632,14.632,0,0,0-2-3.6Zm5.84,11.68c-.7,0-.832-.1-.832-.64V29.6a22.558,22.558,0,0,0,4.464-1.744l-.96-1.088a18.049,18.049,0,0,1-3.5,1.6V26h-1.472v5.2c0,1.488.432,1.92,2.112,1.92h2.576c1.408,0,1.824-.576,2-2.752a4.875,4.875,0,0,1-1.328-.56c-.064,1.712-.176,2.016-.8,2.016Z" transform="translate(232 4080.337)" fill="#333"/>
    </g>
    <g id="グループ_6069" data-name="グループ 6069" transform="translate(-3272 804)">
      <path id="パス_33381" data-name="パス 33381" d="M0,0H512V800.013H0Z" transform="translate(512 3389.324)" fill="#fff"/>
      <path id="パス_33382" data-name="パス 33382" d="M0,0H512V151.97H0Z" transform="translate(512 3781.337)" fill="#f5f5f5"/>
      <path id="パス_33383" data-name="パス 33383" d="M0,0H512V56H0Z" transform="translate(512 3989.337)" fill="#f5f5f5"/>
      <path id="パス_33384" data-name="パス 33384" d="M0,0H512V56H0Z" transform="translate(512 4133.337)" fill="#f5f5f5"/>
      <path id="パス_33385" data-name="パス 33385" d="M0,0H512V56H0Z" transform="translate(512 3669.168)" fill="#f5f5f5"/>
      <path id="パス_33386" data-name="パス 33386" d="M0,0H512V56H0Z" transform="translate(512 3557)" fill="#f5f5f5"/>
      <path id="パス_33387" data-name="パス 33387" d="M0,0H512V56H0Z" transform="translate(512 3445)" fill="#f5f5f5"/>
    </g>
    <path id="パス_33388" data-name="パス 33388" d="M7-8.26A1.058,1.058,0,0,0,8.05-9.31,1.058,1.058,0,0,0,7-10.36,1.058,1.058,0,0,0,5.95-9.31,1.058,1.058,0,0,0,7-8.26ZM7-5.726l-4.62-4.62-.406.406,4.62,4.62L1.96-.686l.406.406L7-4.914l4.62,4.62L12.026-.7,7.406-5.32l4.62-4.62-.406-.406ZM4.06-5.32A1.058,1.058,0,0,0,3.01-6.37,1.058,1.058,0,0,0,1.96-5.32,1.058,1.058,0,0,0,3.01-4.27,1.058,1.058,0,0,0,4.06-5.32Zm5.88,0a1.058,1.058,0,0,0,1.05,1.05,1.058,1.058,0,0,0,1.05-1.05,1.058,1.058,0,0,0-1.05-1.05A1.058,1.058,0,0,0,9.94-5.32ZM7-2.38A1.058,1.058,0,0,0,5.95-1.33,1.058,1.058,0,0,0,7-.28,1.058,1.058,0,0,0,8.05-1.33,1.058,1.058,0,0,0,7-2.38ZM24.122-6.958H22.736v-2.1h1.386Zm0,3.276H22.736v-2.1h1.386Zm-6.244-2.1h1.3v2.1h-1.3Zm3.752,0v2.1H20.272v-2.1ZM20.272-6.958v-2.1H21.63v2.1Zm-2.394-2.1h1.3v2.1h-1.3ZM16.7-6.958H14.8v1.176h1.9v2.1H15.008v1.176H27.034V-3.682H25.34v-2.1h1.89V-6.958H25.34v-2.1h1.372v-1.148H18.1a9.794,9.794,0,0,0,.672-1.176L17.5-11.746a9.411,9.411,0,0,1-2.94,3.5,8.515,8.515,0,0,1,1.078.854A11.743,11.743,0,0,0,16.7-8.4ZM15.9,1.12a7.362,7.362,0,0,0,1.68-2.856l-1.26-.308A6.245,6.245,0,0,1,14.672.6Zm2.87-2.758a15.47,15.47,0,0,1,.28,2.6L20.328.784a15.536,15.536,0,0,0-.35-2.548Zm2.8.014a13.715,13.715,0,0,1,.784,2.6L23.646.728a12.965,12.965,0,0,0-.854-2.548Zm2.786-.084A17.512,17.512,0,0,1,26.124,1.12L27.44.658A17.556,17.556,0,0,0,25.592-2.1ZM29.694-7.35a7.2,7.2,0,0,0,.616-1.274h1.638V-7.35ZM33.18-8.624h2.674V-9.8H33.18v-1.862H31.948V-9.8H30.73c.126-.448.252-.924.364-1.386l-1.218-.252A10.763,10.763,0,0,1,28.532-7.8a8.483,8.483,0,0,1,1.092.448h-.966v1.19h3.29v1.246H29.26v4.9h1.162V-3.752h1.526V1.106H33.18V-3.752H34.8V-1.26c0,.14-.042.182-.182.182s-.56.014-1.064,0a3.282,3.282,0,0,1,.35,1.106,3.5,3.5,0,0,0,1.624-.2c.364-.2.448-.532.448-1.064V-4.914h-2.8V-6.16H36.4V-7.35H33.18Zm5.278-1.89h-1.2v7.742h1.2Zm1.26-1.036v11c0,.224-.07.294-.294.294s-.994.014-1.778-.014a5.818,5.818,0,0,1,.42,1.33A5.93,5.93,0,0,0,40.348.812c.462-.224.63-.588.63-1.372V-11.55Zm7,.35-.182.042H43.162V1.106h1.232V-9.982H46.06c-.28.966-.686,2.24-1.064,3.192a3.75,3.75,0,0,1,1.232,2.632.977.977,0,0,1-.28.868.814.814,0,0,1-.462.126c-.21,0-.476,0-.784-.028A2.945,2.945,0,0,1,45.01-2a5.937,5.937,0,0,0,1.008-.028,1.75,1.75,0,0,0,.784-.28A1.892,1.892,0,0,0,47.418-4,4.044,4.044,0,0,0,46.172-6.93c.476-1.092,1.022-2.562,1.428-3.752Zm2.73,3.738h3.808v1.5H49.448Zm3.808-2.548v1.456H49.448V-10.01Zm.882,5.4a15.453,15.453,0,0,1-1.6,1.554,11.844,11.844,0,0,1-.672-1.792h2.66V-11.13H48.188V-.63c-.56.1-1.078.2-1.512.266L47.11.9C48.454.6,50.232.21,51.926-.182l-.1-1.134-2.38.448V-4.844h1.3C51.394-2.128,52.57,0,54.628,1.05A5.333,5.333,0,0,1,55.5-.028,5.824,5.824,0,0,1,53.06-2.142c.672-.5,1.442-1.148,2.1-1.75Z" transform="translate(-2486 4283)" fill="#333"/>
    <g id="グループ_6070" data-name="グループ 6070" transform="translate(-3147 804)">
      <g id="グループ_5884" data-name="グループ 5884" transform="translate(0 112)">
        <g id="パス_33389" data-name="パス 33389" transform="translate(631 3405)" fill="none">
          <path d="M12,0A12,12,0,1,1,0,12,12,12,0,0,1,12,0Z" stroke="none"/>
          <path d="M 12 3 C 7.037380218505859 3 3 7.037380218505859 3 12 C 3 16.96261978149414 7.037380218505859 21 12 21 C 16.96261978149414 21 21 16.96261978149414 21 12 C 21 7.037380218505859 16.96261978149414 3 12 3 M 12 0 C 18.62742042541504 0 24 5.372579574584961 24 12 C 24 18.62742042541504 18.62742042541504 24 12 24 C 5.372579574584961 24 0 18.62742042541504 0 12 C 0 5.372579574584961 5.372579574584961 0 12 0 Z" stroke="none" fill="#555"/>
        </g>
        <path id="パス_29183" data-name="パス 29183" d="M636.986,3416.355l2.979,2.81,7.021-6" transform="translate(1.014 0.834)" fill="none" stroke="#555" stroke-width="3"/>
      </g>
      <g id="グループ_5885" data-name="グループ 5885" transform="translate(0 168)">
        <g id="パス_33390" data-name="パス 33390" transform="translate(631 3405)" fill="none">
          <path d="M12,0A12,12,0,1,1,0,12,12,12,0,0,1,12,0Z" stroke="none"/>
          <path d="M 12 3 C 7.037380218505859 3 3 7.037380218505859 3 12 C 3 16.96261978149414 7.037380218505859 21 12 21 C 16.96261978149414 21 21 16.96261978149414 21 12 C 21 7.037380218505859 16.96261978149414 3 12 3 M 12 0 C 18.62742042541504 0 24 5.372579574584961 24 12 C 24 18.62742042541504 18.62742042541504 24 12 24 C 5.372579574584961 24 0 18.62742042541504 0 12 C 0 5.372579574584961 5.372579574584961 0 12 0 Z" stroke="none" fill="#555"/>
        </g>
        <path id="パス_29183-2" data-name="パス 29183" d="M636.986,3416.355l2.979,2.81,7.021-6" transform="translate(1.014 0.834)" fill="none" stroke="#555" stroke-width="3"/>
      </g>
      <g id="グループ_5886" data-name="グループ 5886" transform="translate(0 224)">
        <g id="パス_33391" data-name="パス 33391" transform="translate(631 3405)" fill="none">
          <path d="M12,0A12,12,0,1,1,0,12,12,12,0,0,1,12,0Z" stroke="none"/>
          <path d="M 12 3 C 7.037380218505859 3 3 7.037380218505859 3 12 C 3 16.96261978149414 7.037380218505859 21 12 21 C 16.96261978149414 21 21 16.96261978149414 21 12 C 21 7.037380218505859 16.96261978149414 3 12 3 M 12 0 C 18.62742042541504 0 24 5.372579574584961 24 12 C 24 18.62742042541504 18.62742042541504 24 12 24 C 5.372579574584961 24 0 18.62742042541504 0 12 C 0 5.372579574584961 5.372579574584961 0 12 0 Z" stroke="none" fill="#555"/>
        </g>
        <path id="パス_29183-3" data-name="パス 29183" d="M636.986,3416.355l2.979,2.81,7.021-6" transform="translate(1.014 0.834)" fill="none" stroke="#555" stroke-width="3"/>
      </g>
      <g id="グループ_5887" data-name="グループ 5887" transform="translate(0 280)">
        <g id="パス_33392" data-name="パス 33392" transform="translate(631 3405)" fill="none">
          <path d="M12,0A12,12,0,1,1,0,12,12,12,0,0,1,12,0Z" stroke="none"/>
          <path d="M 12 3 C 7.037380218505859 3 3 7.037380218505859 3 12 C 3 16.96261978149414 7.037380218505859 21 12 21 C 16.96261978149414 21 21 16.96261978149414 21 12 C 21 7.037380218505859 16.96261978149414 3 12 3 M 12 0 C 18.62742042541504 0 24 5.372579574584961 24 12 C 24 18.62742042541504 18.62742042541504 24 12 24 C 5.372579574584961 24 0 18.62742042541504 0 12 C 0 5.372579574584961 5.372579574584961 0 12 0 Z" stroke="none" fill="#555"/>
        </g>
        <path id="パス_29183-4" data-name="パス 29183" d="M636.986,3416.355l2.979,2.81,7.021-6" transform="translate(1.014 0.834)" fill="none" stroke="#555" stroke-width="3"/>
      </g>
      <g id="グループ_5888" data-name="グループ 5888" transform="translate(0 336)">
        <g id="パス_33393" data-name="パス 33393" transform="translate(631 3405)" fill="none">
          <path d="M12,0A12,12,0,1,1,0,12,12,12,0,0,1,12,0Z" stroke="none"/>
          <path d="M 12 3 C 7.037380218505859 3 3 7.037380218505859 3 12 C 3 16.96261978149414 7.037380218505859 21 12 21 C 16.96261978149414 21 21 16.96261978149414 21 12 C 21 7.037380218505859 16.96261978149414 3 12 3 M 12 0 C 18.62742042541504 0 24 5.372579574584961 24 12 C 24 18.62742042541504 18.62742042541504 24 12 24 C 5.372579574584961 24 0 18.62742042541504 0 12 C 0 5.372579574584961 5.372579574584961 0 12 0 Z" stroke="none" fill="#555"/>
        </g>
        <path id="パス_29183-5" data-name="パス 29183" d="M636.986,3416.355l2.979,2.81,7.021-6" transform="translate(1.014 0.834)" fill="none" stroke="#555" stroke-width="3"/>
      </g>
      <g id="グループ_5889" data-name="グループ 5889" transform="translate(0 440)">
        <g id="パス_33394" data-name="パス 33394" transform="translate(631 3405)" fill="none">
          <path d="M12,0A12,12,0,1,1,0,12,12,12,0,0,1,12,0Z" stroke="none"/>
          <path d="M 12 3 C 7.037380218505859 3 3 7.037380218505859 3 12 C 3 16.96261978149414 7.037380218505859 21 12 21 C 16.96261978149414 21 21 16.96261978149414 21 12 C 21 7.037380218505859 16.96261978149414 3 12 3 M 12 0 C 18.62742042541504 0 24 5.372579574584961 24 12 C 24 18.62742042541504 18.62742042541504 24 12 24 C 5.372579574584961 24 0 18.62742042541504 0 12 C 0 5.372579574584961 5.372579574584961 0 12 0 Z" stroke="none" fill="#555"/>
        </g>
        <path id="パス_29183-6" data-name="パス 29183" d="M636.986,3416.355l2.979,2.81,7.021-6" transform="translate(1.014 0.834)" fill="none" stroke="#555" stroke-width="3"/>
      </g>
      <g id="グループ_5890" data-name="グループ 5890" transform="translate(0 544)">
        <g id="パス_33395" data-name="パス 33395" transform="translate(631 3405)" fill="none">
          <path d="M12,0A12,12,0,1,1,0,12,12,12,0,0,1,12,0Z" stroke="none"/>
          <path d="M 12 3 C 7.037380218505859 3 3 7.037380218505859 3 12 C 3 16.96261978149414 7.037380218505859 21 12 21 C 16.96261978149414 21 21 16.96261978149414 21 12 C 21 7.037380218505859 16.96261978149414 3 12 3 M 12 0 C 18.62742042541504 0 24 5.372579574584961 24 12 C 24 18.62742042541504 18.62742042541504 24 12 24 C 5.372579574584961 24 0 18.62742042541504 0 12 C 0 5.372579574584961 5.372579574584961 0 12 0 Z" stroke="none" fill="#555"/>
        </g>
        <path id="パス_29183-7" data-name="パス 29183" d="M636.986,3416.355l2.979,2.81,7.021-6" transform="translate(1.014 0.834)" fill="none" stroke="#555" stroke-width="3"/>
      </g>
      <g id="グループ_5891" data-name="グループ 5891" transform="translate(0 600)">
        <g id="パス_33396" data-name="パス 33396" transform="translate(631 3405)" fill="none">
          <path d="M12,0A12,12,0,1,1,0,12,12,12,0,0,1,12,0Z" stroke="none"/>
          <path d="M 12 3 C 7.037380218505859 3 3 7.037380218505859 3 12 C 3 16.96261978149414 7.037380218505859 21 12 21 C 16.96261978149414 21 21 16.96261978149414 21 12 C 21 7.037380218505859 16.96261978149414 3 12 3 M 12 0 C 18.62742042541504 0 24 5.372579574584961 24 12 C 24 18.62742042541504 18.62742042541504 24 12 24 C 5.372579574584961 24 0 18.62742042541504 0 12 C 0 5.372579574584961 5.372579574584961 0 12 0 Z" stroke="none" fill="#555"/>
        </g>
        <path id="パス_29183-8" data-name="パス 29183" d="M636.986,3416.355l2.979,2.81,7.021-6" transform="translate(1.014 0.834)" fill="none" stroke="#555" stroke-width="3"/>
      </g>
      <g id="グループ_5892" data-name="グループ 5892" transform="translate(0 672)">
        <g id="パス_33397" data-name="パス 33397" transform="translate(631 3405)" fill="none">
          <path d="M12,0A12,12,0,1,1,0,12,12,12,0,0,1,12,0Z" stroke="none"/>
          <path d="M 12 3 C 7.037380218505859 3 3 7.037380218505859 3 12 C 3 16.96261978149414 7.037380218505859 21 12 21 C 16.96261978149414 21 21 16.96261978149414 21 12 C 21 7.037380218505859 16.96261978149414 3 12 3 M 12 0 C 18.62742042541504 0 24 5.372579574584961 24 12 C 24 18.62742042541504 18.62742042541504 24 12 24 C 5.372579574584961 24 0 18.62742042541504 0 12 C 0 5.372579574584961 5.372579574584961 0 12 0 Z" stroke="none" fill="#555"/>
        </g>
        <path id="パス_29183-9" data-name="パス 29183" d="M636.986,3416.355l2.979,2.81,7.021-6" transform="translate(1.014 0.834)" fill="none" stroke="#555" stroke-width="3"/>
      </g>
      <g id="グループ_5893" data-name="グループ 5893" transform="translate(0 744)">
        <g id="パス_33398" data-name="パス 33398" transform="translate(631 3405)" fill="none">
          <path d="M12,0A12,12,0,1,1,0,12,12,12,0,0,1,12,0Z" stroke="none"/>
          <path d="M 12 3 C 7.037380218505859 3 3 7.037380218505859 3 12 C 3 16.96261978149414 7.037380218505859 21 12 21 C 16.96261978149414 21 21 16.96261978149414 21 12 C 21 7.037380218505859 16.96261978149414 3 12 3 M 12 0 C 18.62742042541504 0 24 5.372579574584961 24 12 C 24 18.62742042541504 18.62742042541504 24 12 24 C 5.372579574584961 24 0 18.62742042541504 0 12 C 0 5.372579574584961 5.372579574584961 0 12 0 Z" stroke="none" fill="#555"/>
        </g>
        <path id="パス_29183-10" data-name="パス 29183" d="M636.986,3416.355l2.979,2.81,7.021-6" transform="translate(1.014 0.834)" fill="none" stroke="#555" stroke-width="3"/>
      </g>
      <g id="グループ_5883" data-name="グループ 5883" transform="translate(0 56)">
        <g id="パス_33399" data-name="パス 33399" transform="translate(631 3405)" fill="none">
          <path d="M12,0A12,12,0,1,1,0,12,12,12,0,0,1,12,0Z" stroke="none"/>
          <path d="M 12 3 C 7.037380218505859 3 3 7.037380218505859 3 12 C 3 16.96261978149414 7.037380218505859 21 12 21 C 16.96261978149414 21 21 16.96261978149414 21 12 C 21 7.037380218505859 16.96261978149414 3 12 3 M 12 0 C 18.62742042541504 0 24 5.372579574584961 24 12 C 24 18.62742042541504 18.62742042541504 24 12 24 C 5.372579574584961 24 0 18.62742042541504 0 12 C 0 5.372579574584961 5.372579574584961 0 12 0 Z" stroke="none" fill="#555"/>
        </g>
        <path id="パス_29183-11" data-name="パス 29183" d="M636.986,3416.355l2.979,2.81,7.021-6" transform="translate(1.014 0.834)" fill="none" stroke="#555" stroke-width="3"/>
      </g>
      <g id="グループ_5882" data-name="グループ 5882">
        <g id="パス_33400" data-name="パス 33400" transform="translate(631 3405)" fill="none">
          <path d="M12,0A12,12,0,1,1,0,12,12,12,0,0,1,12,0Z" stroke="none"/>
          <path d="M 12 3 C 7.037380218505859 3 3 7.037380218505859 3 12 C 3 16.96261978149414 7.037380218505859 21 12 21 C 16.96261978149414 21 21 16.96261978149414 21 12 C 21 7.037380218505859 16.96261978149414 3 12 3 M 12 0 C 18.62742042541504 0 24 5.372579574584961 24 12 C 24 18.62742042541504 18.62742042541504 24 12 24 C 5.372579574584961 24 0 18.62742042541504 0 12 C 0 5.372579574584961 5.372579574584961 0 12 0 Z" stroke="none" fill="#555"/>
        </g>
        <path id="パス_29183-12" data-name="パス 29183" d="M636.986,3416.355l2.979,2.81,7.021-6" transform="translate(1.014 0.834)" fill="none" stroke="#555" stroke-width="3"/>
      </g>
    </g>
    <g id="グループ_6071" data-name="グループ 6071" transform="translate(-3216 804)">
      <path id="パス_33401" data-name="パス 33401" d="M0,0H255.694V800.068H0Z" transform="translate(984 3389.269)" fill="#fff"/>
      <path id="パス_33402" data-name="パス 33402" d="M0,0H255.694V152H0Z" transform="translate(984 3781.254)" fill="#f5f5f5"/>
      <path id="パス_33403" data-name="パス 33403" d="M0,0H255.694V56.011H0Z" transform="translate(984 3989.296)" fill="#f5f5f5"/>
      <path id="パス_33404" data-name="パス 33404" d="M0,0H255.694V56.011H0Z" transform="translate(984 4133.326)" fill="#f5f5f5"/>
      <path id="パス_33405" data-name="パス 33405" d="M0,0H255.694V56.011H0Z" transform="translate(984 3669.063)" fill="#f5f5f5"/>
      <path id="パス_33406" data-name="パス 33406" d="M0,0H256V57H0Z" transform="translate(984 3556)" fill="#f5f5f5"/>
      <path id="パス_33407" data-name="パス 33407" d="M0,0H256V56H0Z" transform="translate(984 3445)" fill="#f5f5f5"/>
    </g>
    <path id="パス_33408" data-name="パス 33408" d="M7-8.26A1.058,1.058,0,0,0,8.05-9.31,1.058,1.058,0,0,0,7-10.36,1.058,1.058,0,0,0,5.95-9.31,1.058,1.058,0,0,0,7-8.26ZM7-5.726l-4.62-4.62-.406.406,4.62,4.62L1.96-.686l.406.406L7-4.914l4.62,4.62L12.026-.7,7.406-5.32l4.62-4.62-.406-.406ZM4.06-5.32A1.058,1.058,0,0,0,3.01-6.37,1.058,1.058,0,0,0,1.96-5.32,1.058,1.058,0,0,0,3.01-4.27,1.058,1.058,0,0,0,4.06-5.32Zm5.88,0a1.058,1.058,0,0,0,1.05,1.05,1.058,1.058,0,0,0,1.05-1.05,1.058,1.058,0,0,0-1.05-1.05A1.058,1.058,0,0,0,9.94-5.32ZM7-2.38A1.058,1.058,0,0,0,5.95-1.33,1.058,1.058,0,0,0,7-.28,1.058,1.058,0,0,0,8.05-1.33,1.058,1.058,0,0,0,7-2.38ZM17.752.182C19.642.182,21.2-.91,21.2-2.772a2.609,2.609,0,0,0-2.128-2.576v-.07A2.491,2.491,0,0,0,20.846-7.84c0-1.694-1.3-2.66-3.15-2.66a4.343,4.343,0,0,0-2.954,1.246l.84,1.008a3,3,0,0,1,2.058-.966,1.432,1.432,0,0,1,1.582,1.484c0,1.036-.672,1.806-2.7,1.806v1.19c2.324,0,3.052.742,3.052,1.876a1.733,1.733,0,0,1-1.96,1.722,3.33,3.33,0,0,1-2.436-1.134l-.784,1.036A4.277,4.277,0,0,0,17.752.182ZM25.214-11.69A15.684,15.684,0,0,1,22.26-6.272,9.261,9.261,0,0,1,22.9-4.9a13.82,13.82,0,0,0,1.162-1.54V1.12h1.246V-8.652a21.278,21.278,0,0,0,1.106-2.688Zm6.636,8.9H29.9V-4.634H31.85Zm1.47-4.186v-.966H31.374V-9.45H30.338v1.512H28.462v.966h1.876v1.4h-1.4v3.724h3.92V-5.572H31.374v-1.4ZM27.958-.882V-9.828h5.768V-.882Zm-1.19-10.08V1.092h1.19V.266h5.768v.7h1.232V-10.962ZM39.732-1.526c0-.56.644-1.022,1.834-1.022a6.342,6.342,0,0,1,1.274.126c.014.308.014.588.014.784,0,.9-.6,1.134-1.386,1.134C40.264-.5,39.732-.924,39.732-1.526Zm4.41-9.674h-1.5a4.594,4.594,0,0,1,.07.882v.854h-.6A25.366,25.366,0,0,1,38.6-9.772L38.612-8.5c.91.112,2.59.252,3.514.252H42.7v1.722h-.714a27.37,27.37,0,0,1-3.458-.252l.014,1.316c.966.112,2.52.182,3.416.182h.77c.014.518.042,1.092.056,1.638-.336-.028-.672-.056-1.036-.056-2.086,0-3.332.91-3.332,2.254,0,1.4,1.134,2.184,3.234,2.184,1.834,0,2.6-.966,2.6-2.03,0-.2-.014-.434-.028-.728A10.764,10.764,0,0,1,47.362.028l.812-1.246A11.241,11.241,0,0,0,44.156-3.36c-.028-.63-.07-1.3-.1-1.946,1.344-.056,2.506-.154,3.794-.308l.014-1.3c-1.218.168-2.45.294-3.836.35V-8.3c1.358-.056,2.66-.182,3.7-.308V-9.9a30.761,30.761,0,0,1-3.682.392c.014-.308.014-.574.028-.742C44.086-10.64,44.114-10.948,44.142-11.2ZM51.03-9.38l.14,1.526c1.568-.336,4.83-.672,6.244-.812a5.616,5.616,0,0,0-2.38,4.55c0,3.08,2.87,4.55,5.614,4.69l.5-1.5c-2.31-.1-4.69-.952-4.69-3.5a4.642,4.642,0,0,1,3.094-4.214,13.491,13.491,0,0,1,2.73-.2v-1.414c-.966.028-2.366.112-3.864.238-2.576.224-5.068.462-6.09.56C52.052-9.422,51.562-9.394,51.03-9.38Zm9.24,2.1-.84.364a13.239,13.239,0,0,1,1.12,1.96l.868-.392A19.545,19.545,0,0,0,60.27-7.28Zm1.554-.6-.84.378A13.139,13.139,0,0,1,62.16-5.572l.854-.406A20.221,20.221,0,0,0,61.824-7.882Z" transform="translate(-2086 4283)" fill="#333"/>
    <g id="グループ_6074" data-name="グループ 6074" transform="translate(-3228 804)">
      <g id="グループ_5894" data-name="グループ 5894" transform="translate(481)">
        <g id="パス_33409" data-name="パス 33409" transform="translate(631 3405)" fill="none">
          <path d="M12,0A12,12,0,1,1,0,12,12,12,0,0,1,12,0Z" stroke="none"/>
          <path d="M 12 3 C 7.037380218505859 3 3 7.037380218505859 3 12 C 3 16.96261978149414 7.037380218505859 21 12 21 C 16.96261978149414 21 21 16.96261978149414 21 12 C 21 7.037380218505859 16.96261978149414 3 12 3 M 12 0 C 18.62742042541504 0 24 5.372579574584961 24 12 C 24 18.62742042541504 18.62742042541504 24 12 24 C 5.372579574584961 24 0 18.62742042541504 0 12 C 0 5.372579574584961 5.372579574584961 0 12 0 Z" stroke="none" fill="#333"/>
        </g>
        <path id="パス_29183-13" data-name="パス 29183" d="M636.986,3416.355l2.979,2.81,7.021-6" transform="translate(1.014 0.834)" fill="none" stroke="#333" stroke-width="3"/>
      </g>
      <g id="グループ_5899" data-name="グループ 5899" transform="translate(481 112)">
        <g id="パス_33410" data-name="パス 33410" transform="translate(631 3405)" fill="none">
          <path d="M12,0A12,12,0,1,1,0,12,12,12,0,0,1,12,0Z" stroke="none"/>
          <path d="M 12 3 C 7.037380218505859 3 3 7.037380218505859 3 12 C 3 16.96261978149414 7.037380218505859 21 12 21 C 16.96261978149414 21 21 16.96261978149414 21 12 C 21 7.037380218505859 16.96261978149414 3 12 3 M 12 0 C 18.62742042541504 0 24 5.372579574584961 24 12 C 24 18.62742042541504 18.62742042541504 24 12 24 C 5.372579574584961 24 0 18.62742042541504 0 12 C 0 5.372579574584961 5.372579574584961 0 12 0 Z" stroke="none" fill="#bbb"/>
        </g>
        <g id="グループ_5900" data-name="グループ 5900" transform="translate(1629.385 1857.83) rotate(45)">
          <path id="パス_33411" data-name="パス 33411" d="M0,0H11" transform="translate(399.5 1800)" fill="none" stroke="#bbb" stroke-width="3"/>
          <path id="パス_33412" data-name="パス 33412" d="M0,0H11" transform="translate(405 1794.5) rotate(90)" fill="none" stroke="#bbb" stroke-width="3"/>
        </g>
      </g>
      <g id="グループ_5895" data-name="グループ 5895" transform="translate(481 544)">
        <g id="パス_33413" data-name="パス 33413" transform="translate(631 3405)" fill="none">
          <path d="M12,0A12,12,0,1,1,0,12,12,12,0,0,1,12,0Z" stroke="none"/>
          <path d="M 12 3 C 7.037380218505859 3 3 7.037380218505859 3 12 C 3 16.96261978149414 7.037380218505859 21 12 21 C 16.96261978149414 21 21 16.96261978149414 21 12 C 21 7.037380218505859 16.96261978149414 3 12 3 M 12 0 C 18.62742042541504 0 24 5.372579574584961 24 12 C 24 18.62742042541504 18.62742042541504 24 12 24 C 5.372579574584961 24 0 18.62742042541504 0 12 C 0 5.372579574584961 5.372579574584961 0 12 0 Z" stroke="none" fill="#333"/>
        </g>
        <path id="パス_29183-14" data-name="パス 29183" d="M636.986,3416.355l2.979,2.81,7.021-6" transform="translate(1.014 0.834)" fill="none" stroke="#333" stroke-width="3"/>
      </g>
      <g id="グループ_5896" data-name="グループ 5896" transform="translate(481 600)">
        <g id="パス_33414" data-name="パス 33414" transform="translate(631 3405)" fill="none">
          <path d="M12,0A12,12,0,1,1,0,12,12,12,0,0,1,12,0Z" stroke="none"/>
          <path d="M 12 3 C 7.037380218505859 3 3 7.037380218505859 3 12 C 3 16.96261978149414 7.037380218505859 21 12 21 C 16.96261978149414 21 21 16.96261978149414 21 12 C 21 7.037380218505859 16.96261978149414 3 12 3 M 12 0 C 18.62742042541504 0 24 5.372579574584961 24 12 C 24 18.62742042541504 18.62742042541504 24 12 24 C 5.372579574584961 24 0 18.62742042541504 0 12 C 0 5.372579574584961 5.372579574584961 0 12 0 Z" stroke="none" fill="#333"/>
        </g>
        <path id="パス_29183-15" data-name="パス 29183" d="M636.986,3416.355l2.979,2.81,7.021-6" transform="translate(1.014 0.834)" fill="none" stroke="#333" stroke-width="3"/>
      </g>
      <g id="グループ_5897" data-name="グループ 5897" transform="translate(481 672)">
        <g id="パス_33415" data-name="パス 33415" transform="translate(631 3405)" fill="none">
          <path d="M12,0A12,12,0,1,1,0,12,12,12,0,0,1,12,0Z" stroke="none"/>
          <path d="M 12 3 C 7.037380218505859 3 3 7.037380218505859 3 12 C 3 16.96261978149414 7.037380218505859 21 12 21 C 16.96261978149414 21 21 16.96261978149414 21 12 C 21 7.037380218505859 16.96261978149414 3 12 3 M 12 0 C 18.62742042541504 0 24 5.372579574584961 24 12 C 24 18.62742042541504 18.62742042541504 24 12 24 C 5.372579574584961 24 0 18.62742042541504 0 12 C 0 5.372579574584961 5.372579574584961 0 12 0 Z" stroke="none" fill="#333"/>
        </g>
        <path id="パス_29183-16" data-name="パス 29183" d="M636.986,3416.355l2.979,2.81,7.021-6" transform="translate(1.014 0.834)" fill="none" stroke="#333" stroke-width="3"/>
      </g>
      <g id="グループ_5898" data-name="グループ 5898" transform="translate(481 744)">
        <g id="パス_33416" data-name="パス 33416" transform="translate(631 3405)" fill="none">
          <path d="M12,0A12,12,0,1,1,0,12,12,12,0,0,1,12,0Z" stroke="none"/>
          <path d="M 12 3 C 7.037380218505859 3 3 7.037380218505859 3 12 C 3 16.96261978149414 7.037380218505859 21 12 21 C 16.96261978149414 21 21 16.96261978149414 21 12 C 21 7.037380218505859 16.96261978149414 3 12 3 M 12 0 C 18.62742042541504 0 24 5.372579574584961 24 12 C 24 18.62742042541504 18.62742042541504 24 12 24 C 5.372579574584961 24 0 18.62742042541504 0 12 C 0 5.372579574584961 5.372579574584961 0 12 0 Z" stroke="none" fill="#333"/>
        </g>
        <path id="パス_29183-17" data-name="パス 29183" d="M636.986,3416.355l2.979,2.81,7.021-6" transform="translate(1.014 0.834)" fill="none" stroke="#333" stroke-width="3"/>
      </g>
      <g id="パス_33417" data-name="パス 33417" transform="translate(1117 3466)" fill="none">
        <path d="M7,0l7,11H0Z" stroke="none"/>
        <path d="M 7 5.587884426116943 L 5.465017318725586 8 L 8.534982681274414 8 L 7 5.587884426116943 M 7 0 L 14 11 L 0 11 L 7 0 Z" stroke="none" fill="#888"/>
      </g>
      <g id="グループ_5901" data-name="グループ 5901" transform="translate(481 168)">
        <g id="パス_33418" data-name="パス 33418" transform="translate(631 3405)" fill="none">
          <path d="M12,0A12,12,0,1,1,0,12,12,12,0,0,1,12,0Z" stroke="none"/>
          <path d="M 12 3 C 7.037380218505859 3 3 7.037380218505859 3 12 C 3 16.96261978149414 7.037380218505859 21 12 21 C 16.96261978149414 21 21 16.96261978149414 21 12 C 21 7.037380218505859 16.96261978149414 3 12 3 M 12 0 C 18.62742042541504 0 24 5.372579574584961 24 12 C 24 18.62742042541504 18.62742042541504 24 12 24 C 5.372579574584961 24 0 18.62742042541504 0 12 C 0 5.372579574584961 5.372579574584961 0 12 0 Z" stroke="none" fill="#bbb"/>
        </g>
        <g id="グループ_5900-2" data-name="グループ 5900" transform="translate(1629.385 1857.83) rotate(45)">
          <path id="パス_33419" data-name="パス 33419" d="M0,0H11" transform="translate(399.5 1800)" fill="none" stroke="#bbb" stroke-width="3"/>
          <path id="パス_33420" data-name="パス 33420" d="M0,0H11" transform="translate(405 1794.5) rotate(90)" fill="none" stroke="#bbb" stroke-width="3"/>
        </g>
      </g>
      <g id="グループ_5902" data-name="グループ 5902" transform="translate(481 224)">
        <g id="パス_33421" data-name="パス 33421" transform="translate(631 3405)" fill="none">
          <path d="M12,0A12,12,0,1,1,0,12,12,12,0,0,1,12,0Z" stroke="none"/>
          <path d="M 12 3 C 7.037380218505859 3 3 7.037380218505859 3 12 C 3 16.96261978149414 7.037380218505859 21 12 21 C 16.96261978149414 21 21 16.96261978149414 21 12 C 21 7.037380218505859 16.96261978149414 3 12 3 M 12 0 C 18.62742042541504 0 24 5.372579574584961 24 12 C 24 18.62742042541504 18.62742042541504 24 12 24 C 5.372579574584961 24 0 18.62742042541504 0 12 C 0 5.372579574584961 5.372579574584961 0 12 0 Z" stroke="none" fill="#bbb"/>
        </g>
        <g id="グループ_5900-3" data-name="グループ 5900" transform="translate(1629.385 1857.83) rotate(45)">
          <path id="パス_33422" data-name="パス 33422" d="M0,0H11" transform="translate(399.5 1800)" fill="none" stroke="#bbb" stroke-width="3"/>
          <path id="パス_33423" data-name="パス 33423" d="M0,0H11" transform="translate(405 1794.5) rotate(90)" fill="none" stroke="#bbb" stroke-width="3"/>
        </g>
      </g>
      <g id="グループ_5903" data-name="グループ 5903" transform="translate(481 280)">
        <g id="パス_33424" data-name="パス 33424" transform="translate(631 3405)" fill="none">
          <path d="M12,0A12,12,0,1,1,0,12,12,12,0,0,1,12,0Z" stroke="none"/>
          <path d="M 12 3 C 7.037380218505859 3 3 7.037380218505859 3 12 C 3 16.96261978149414 7.037380218505859 21 12 21 C 16.96261978149414 21 21 16.96261978149414 21 12 C 21 7.037380218505859 16.96261978149414 3 12 3 M 12 0 C 18.62742042541504 0 24 5.372579574584961 24 12 C 24 18.62742042541504 18.62742042541504 24 12 24 C 5.372579574584961 24 0 18.62742042541504 0 12 C 0 5.372579574584961 5.372579574584961 0 12 0 Z" stroke="none" fill="#bbb"/>
        </g>
        <g id="グループ_5900-4" data-name="グループ 5900" transform="translate(1629.385 1857.83) rotate(45)">
          <path id="パス_33425" data-name="パス 33425" d="M0,0H11" transform="translate(399.5 1800)" fill="none" stroke="#bbb" stroke-width="3"/>
          <path id="パス_33426" data-name="パス 33426" d="M0,0H11" transform="translate(405 1794.5) rotate(90)" fill="none" stroke="#bbb" stroke-width="3"/>
        </g>
      </g>
      <g id="グループ_5904" data-name="グループ 5904" transform="translate(481 336)">
        <g id="パス_33427" data-name="パス 33427" transform="translate(631 3405)" fill="none">
          <path d="M12,0A12,12,0,1,1,0,12,12,12,0,0,1,12,0Z" stroke="none"/>
          <path d="M 12 3 C 7.037380218505859 3 3 7.037380218505859 3 12 C 3 16.96261978149414 7.037380218505859 21 12 21 C 16.96261978149414 21 21 16.96261978149414 21 12 C 21 7.037380218505859 16.96261978149414 3 12 3 M 12 0 C 18.62742042541504 0 24 5.372579574584961 24 12 C 24 18.62742042541504 18.62742042541504 24 12 24 C 5.372579574584961 24 0 18.62742042541504 0 12 C 0 5.372579574584961 5.372579574584961 0 12 0 Z" stroke="none" fill="#bbb"/>
        </g>
        <g id="グループ_5900-5" data-name="グループ 5900" transform="translate(1629.385 1857.83) rotate(45)">
          <path id="パス_33428" data-name="パス 33428" d="M0,0H11" transform="translate(399.5 1800)" fill="none" stroke="#bbb" stroke-width="3"/>
          <path id="パス_33429" data-name="パス 33429" d="M0,0H11" transform="translate(405 1794.5) rotate(90)" fill="none" stroke="#bbb" stroke-width="3"/>
        </g>
      </g>
      <g id="グループ_5905" data-name="グループ 5905" transform="translate(481 440)">
        <g id="パス_33430" data-name="パス 33430" transform="translate(631 3405)" fill="none">
          <path d="M12,0A12,12,0,1,1,0,12,12,12,0,0,1,12,0Z" stroke="none"/>
          <path d="M 12 3 C 7.037380218505859 3 3 7.037380218505859 3 12 C 3 16.96261978149414 7.037380218505859 21 12 21 C 16.96261978149414 21 21 16.96261978149414 21 12 C 21 7.037380218505859 16.96261978149414 3 12 3 M 12 0 C 18.62742042541504 0 24 5.372579574584961 24 12 C 24 18.62742042541504 18.62742042541504 24 12 24 C 5.372579574584961 24 0 18.62742042541504 0 12 C 0 5.372579574584961 5.372579574584961 0 12 0 Z" stroke="none" fill="#bbb"/>
        </g>
        <g id="グループ_5900-6" data-name="グループ 5900" transform="translate(1629.385 1857.83) rotate(45)">
          <path id="パス_33431" data-name="パス 33431" d="M0,0H11" transform="translate(399.5 1800)" fill="none" stroke="#bbb" stroke-width="3"/>
          <path id="パス_33432" data-name="パス 33432" d="M0,0H11" transform="translate(405 1794.5) rotate(90)" fill="none" stroke="#bbb" stroke-width="3"/>
        </g>
      </g>
      <g id="グループ_5906" data-name="グループ 5906" transform="translate(481 56)">
        <g id="パス_33433" data-name="パス 33433" transform="translate(631 3405)" fill="none">
          <path d="M12,0A12,12,0,1,1,0,12,12,12,0,0,1,12,0Z" stroke="none"/>
          <path d="M 12 3 C 7.037380218505859 3 3 7.037380218505859 3 12 C 3 16.96261978149414 7.037380218505859 21 12 21 C 16.96261978149414 21 21 16.96261978149414 21 12 C 21 7.037380218505859 16.96261978149414 3 12 3 M 12 0 C 18.62742042541504 0 24 5.372579574584961 24 12 C 24 18.62742042541504 18.62742042541504 24 12 24 C 5.372579574584961 24 0 18.62742042541504 0 12 C 0 5.372579574584961 5.372579574584961 0 12 0 Z" stroke="none" fill="#888"/>
        </g>
      </g>
    </g>
  </g>
</svg>
