<svg xmlns="http://www.w3.org/2000/svg" width="215.271" height="23.235" viewBox="0 0 215.271 23.235">
  <g id="グループ_669" data-name="グループ 669" transform="translate(-100.553 -2504.724)">
    <path id="パス_33215" data-name="パス 33215" d="M-29.208-19.392-32.856-17.9c1.056,2.5,2.184,4.968,3.288,7.032-2.208,1.656-3.912,3.648-3.912,6.36,0,4.44,3.816,5.76,8.76,5.76a46.125,46.125,0,0,0,7.776-.6l.048-4.2a39.682,39.682,0,0,1-7.92.936c-3.072,0-4.608-.744-4.608-2.328s1.344-2.856,3.192-4.08a68.038,68.038,0,0,1,6.36-3.336c.984-.48,1.848-.96,2.688-1.464l-2.016-3.36a18.031,18.031,0,0,1-2.5,1.632c-1.032.6-2.856,1.536-4.608,2.544A49,49,0,0,1-29.208-19.392ZM-.264-3.264c0-.768.744-1.2,1.872-1.2a6.041,6.041,0,0,1,1.608.216v.168c0,1.32-.456,1.944-1.608,1.944C.576-2.136-.264-2.424-.264-3.264Zm7.08-15.7H2.664A11.718,11.718,0,0,1,2.856-17.3c.024.432.024,1.32.048,2.448-.456.024-.888.024-1.344.024a41.854,41.854,0,0,1-4.3-.216l.024,3.456c1.416.1,2.856.144,4.3.144.432,0,.888,0,1.344-.024.024,1.512.1,2.976.168,4.248-.384-.024-.792-.048-1.2-.048-3.36,0-5.568,1.728-5.568,4.416C-3.672-.144-1.44,1.3,1.944,1.3,5.088,1.3,6.576-.1,6.888-2.352A32.093,32.093,0,0,1,9.456-.168l1.968-3.048a15.214,15.214,0,0,0-4.608-3.1c-.072-1.44-.192-3.144-.24-5.352,1.248-.072,2.424-.216,3.5-.36v-3.624c-1.08.24-2.256.408-3.48.552.024-1.008.048-1.8.072-2.256A16.014,16.014,0,0,1,6.816-18.96Zm-11.64.312-4.008-.336C-8.856-18.1-9-16.992-9.1-16.272a74.383,74.383,0,0,0-.936,9.96,27.948,27.948,0,0,0,.984,7.7l3.288-.24C-5.784.768-5.784.336-5.784.072A7.25,7.25,0,0,1-5.64-1.056c.288-1.392,1.008-3.816,1.728-5.976L-5.664-8.448c-.312.72-.624,1.176-.912,1.872A4.436,4.436,0,0,1-6.6-7.128,68.081,68.081,0,0,1-5.472-16.2,23.363,23.363,0,0,1-4.824-18.648ZM23.328-6.384h3.744c-.216-3.168,4.752-3.408,4.752-6.864,0-3.432-2.76-4.992-6.288-4.992a8.114,8.114,0,0,0-6.288,3.024l2.352,2.16a4.573,4.573,0,0,1,3.432-1.728c1.584,0,2.712.6,2.712,1.92C27.744-10.752,22.944-10.032,23.328-6.384ZM25.2.288A2.371,2.371,0,0,0,27.648-2.16,2.332,2.332,0,0,0,25.2-4.56a2.332,2.332,0,0,0-2.448,2.4A2.357,2.357,0,0,0,25.2.288Z" transform="translate(284 2526)" fill="#333"/>
    <g id="グループ_6194" data-name="グループ 6194" transform="translate(73.711 2477.468)">
      <path id="パス_1787" data-name="パス 1787" d="M3.008-22.441H12.5a13.622,13.622,0,0,1,6.173,1.349,9.987,9.987,0,0,1,4.188,3.816,10.8,10.8,0,0,1,1.489,5.692,10.8,10.8,0,0,1-1.489,5.692,9.987,9.987,0,0,1-4.188,3.816A13.622,13.622,0,0,1,12.5-.726H3.008Zm9.306,18.3a9.216,9.216,0,0,0,4.2-.915A6.547,6.547,0,0,0,19.31-7.659a7.7,7.7,0,0,0,.977-3.924,7.7,7.7,0,0,0-.977-3.924,6.547,6.547,0,0,0-2.792-2.606,9.216,9.216,0,0,0-4.2-.915H7.041v14.89ZM42.591-8.916q0,.4-.062,1.148h-13a4.505,4.505,0,0,0,1.784,2.9A5.847,5.847,0,0,0,34.9-3.8a6.038,6.038,0,0,0,4.5-1.8l2.078,2.389a7,7,0,0,1-2.823,2.016,10.282,10.282,0,0,1-3.847.682A10.237,10.237,0,0,1,30-1.595a7.819,7.819,0,0,1-3.211-3.025,8.542,8.542,0,0,1-1.132-4.39,8.668,8.668,0,0,1,1.1-4.359,7.812,7.812,0,0,1,3.056-3.025,8.915,8.915,0,0,1,4.405-1.086,8.692,8.692,0,0,1,4.328,1.07A7.58,7.58,0,0,1,41.521-13.4,9.125,9.125,0,0,1,42.591-8.916Zm-8.376-5.46a4.678,4.678,0,0,0-3.149,1.1A4.632,4.632,0,0,0,29.5-10.343h9.4a4.571,4.571,0,0,0-1.52-2.916A4.623,4.623,0,0,0,34.216-14.376Zm10.858-9.368h3.878V-.726H45.073Zm7.724,0h3.878V-.726H52.8ZM66.85-17.478a8.077,8.077,0,0,1,5.6,1.753,6.775,6.775,0,0,1,1.939,5.289v9.71H70.728V-2.742A4.512,4.512,0,0,1,68.7-1.083a7.943,7.943,0,0,1-3.18.574,7.79,7.79,0,0,1-3.257-.636A5.033,5.033,0,0,1,60.1-2.913a4.487,4.487,0,0,1-.76-2.559A4.386,4.386,0,0,1,61-9.055Q62.662-10.4,66.23-10.4h4.281v-.248a3.4,3.4,0,0,0-1.039-2.668,4.5,4.5,0,0,0-3.087-.931,8.91,8.91,0,0,0-2.745.434,6.744,6.744,0,0,0-2.28,1.21l-1.52-2.823a9.412,9.412,0,0,1,3.133-1.52A13.941,13.941,0,0,1,66.85-17.478ZM66.323-3.332A5.007,5.007,0,0,0,68.913-4a3.629,3.629,0,0,0,1.6-1.908V-7.83h-4q-3.35,0-3.35,2.2A1.977,1.977,0,0,0,64-3.952,3.84,3.84,0,0,0,66.323-3.332ZM105.751-.726,105.72-15.12,98.585-3.208h-1.8L89.651-14.934V-.726H85.8V-22.441h3.319L97.748-8.047l8.469-14.394h3.319l.031,21.715Zm14.394-16.752a8.077,8.077,0,0,1,5.6,1.753,6.775,6.775,0,0,1,1.939,5.289v9.71h-3.661V-2.742a4.512,4.512,0,0,1-2.032,1.66,7.943,7.943,0,0,1-3.18.574,7.79,7.79,0,0,1-3.257-.636A5.033,5.033,0,0,1,113.4-2.913a4.487,4.487,0,0,1-.76-2.559,4.386,4.386,0,0,1,1.66-3.583q1.66-1.349,5.227-1.349h4.281v-.248a3.4,3.4,0,0,0-1.039-2.668,4.5,4.5,0,0,0-3.087-.931,8.91,8.91,0,0,0-2.745.434,6.744,6.744,0,0,0-2.28,1.21l-1.52-2.823a9.412,9.412,0,0,1,3.133-1.52A13.941,13.941,0,0,1,120.145-17.478Zm-.527,14.146A5.007,5.007,0,0,0,122.208-4a3.629,3.629,0,0,0,1.6-1.908V-7.83h-4q-3.35,0-3.35,2.2a1.977,1.977,0,0,0,.838,1.675A3.84,3.84,0,0,0,119.618-3.332Zm11.788-20.412h3.878V-.726h-3.878Zm7.724,0h3.878V-.726H139.13Z" transform="translate(23.834 51)" fill="#333"/>
    </g>
  </g>
</svg>
