<svg id="グループ_6371" data-name="グループ 6371" xmlns="http://www.w3.org/2000/svg" xmlns:xlink="http://www.w3.org/1999/xlink" width="130" height="129.971" viewBox="0 0 130 129.971">
  <defs>
    <clipPath id="clip-path">
      <rect id="長方形_10583" data-name="長方形 10583" width="130" height="129.971" fill="none"/>
    </clipPath>
  </defs>
  <g id="グループ_6370" data-name="グループ 6370" clip-path="url(#clip-path)">
    <path id="パス_31031" data-name="パス 31031" d="M10.932,68.976c9.949-10.1-6.758-28.471-2.1-42.06C15.108,8.621,64.114-7.5,98.47,12.419c28.772,16.679,38.762,54.222,26.193,69.4-3.762,4.542-8.443,5.75-14.592,10.5-5.719,4.418-6.364,5.546-6.776,6.314-4.068,7.587,4.488,14.246,2.766,20.754-2.72,10.282-29.925,15.768-52.675,12.288-6.135-.938-37.223-6.4-48.658-29.068-.885-1.755-9.257-18.7-1.378-28.125,2.731-3.269,4.93-2.811,7.582-5.5" transform="translate(0 -2.746)" fill="#caddff"/>
    <path id="パス_31032" data-name="パス 31032" d="M61.415,192.059a.3.3,0,0,0-.176-.333l-1.844-.765a.3.3,0,0,1-.178-.273,9.844,9.844,0,0,0-.092-1.206.316.316,0,0,1,.132-.306l1.692-1.155a.319.319,0,0,0,.12-.365l-.59-1.7a.287.287,0,0,0-.315-.193l-1.99.3a.283.283,0,0,1-.288-.14,9.344,9.344,0,0,0-.664-.978.312.312,0,0,1-.031-.33l.931-1.866a.311.311,0,0,0-.071-.374l-1.337-1.142a.288.288,0,0,0-.37,0l-1.6,1.289a.287.287,0,0,1-.32.03,8.819,8.819,0,0,0-1.057-.489.3.3,0,0,1-.188-.266l-.082-2.073a.294.294,0,0,0-.243-.283l-1.726-.281a.3.3,0,0,0-.326.19l-.786,1.932a.3.3,0,0,1-.268.191,8.959,8.959,0,0,0-1.165.127.283.283,0,0,1-.292-.13l-1.071-1.724a.285.285,0,0,0-.35-.116l-1.652.655a.317.317,0,0,0-.194.331l.242,2.057a.316.316,0,0,1-.142.3,9.74,9.74,0,0,0-.961.713.288.288,0,0,1-.319.041l-1.776-.917a.293.293,0,0,0-.363.083l-1.136,1.416a.315.315,0,0,0-.011.383l1.2,1.626a.313.313,0,0,1,.021.331,10.008,10.008,0,0,0-.5,1.109.306.306,0,0,1-.261.2l-2,.139a.31.31,0,0,0-.279.259l-.316,1.8a.3.3,0,0,0,.175.333l1.844.765a.3.3,0,0,1,.178.273,9.811,9.811,0,0,0,.092,1.206.317.317,0,0,1-.132.306L38.891,194.2a.319.319,0,0,0-.12.365l.59,1.7a.287.287,0,0,0,.315.193l1.99-.3a.283.283,0,0,1,.288.14,9.364,9.364,0,0,0,.664.978.312.312,0,0,1,.031.33l-.931,1.866a.31.31,0,0,0,.071.374l1.337,1.142a.288.288,0,0,0,.37,0l1.6-1.289a.288.288,0,0,1,.32-.03,8.786,8.786,0,0,0,1.057.489.3.3,0,0,1,.187.266l.082,2.073a.294.294,0,0,0,.243.283l1.725.281a.3.3,0,0,0,.326-.19l.786-1.932a.3.3,0,0,1,.268-.191,8.964,8.964,0,0,0,1.165-.127.283.283,0,0,1,.292.13l1.071,1.724a.286.286,0,0,0,.35.116l1.652-.655a.317.317,0,0,0,.194-.331l-.242-2.057a.317.317,0,0,1,.142-.3,9.713,9.713,0,0,0,.961-.713.288.288,0,0,1,.319-.041l1.776.917a.293.293,0,0,0,.363-.083L59.27,197.9a.315.315,0,0,0,.011-.383l-1.2-1.626a.312.312,0,0,1-.021-.331,10.008,10.008,0,0,0,.5-1.109.306.306,0,0,1,.261-.2l2-.139a.31.31,0,0,0,.279-.259Zm-13.347,4.868a6.109,6.109,0,1,1,7.42-4.043,5.978,5.978,0,0,1-7.42,4.043" transform="translate(-32.394 -151.059)" fill="#5479f7"/>
    <path id="パス_31033" data-name="パス 31033" d="M199.451,19.639a.458.458,0,0,0-.267-.507l-2.808-1.165a.451.451,0,0,1-.271-.416,14.98,14.98,0,0,0-.141-1.836.482.482,0,0,1,.2-.466l2.576-1.759a.486.486,0,0,0,.183-.556l-.9-2.584a.437.437,0,0,0-.479-.294l-3.031.462a.431.431,0,0,1-.438-.213,14.262,14.262,0,0,0-1.011-1.489.475.475,0,0,1-.047-.5l1.417-2.842a.472.472,0,0,0-.108-.57l-2.035-1.739a.438.438,0,0,0-.563,0l-2.437,1.963a.437.437,0,0,1-.487.046,13.417,13.417,0,0,0-1.61-.744.449.449,0,0,1-.286-.4L186.786.865a.447.447,0,0,0-.37-.431L183.788.006a.461.461,0,0,0-.5.289l-1.2,2.942a.464.464,0,0,1-.408.292,13.672,13.672,0,0,0-1.775.193.431.431,0,0,1-.445-.2L177.838.9a.434.434,0,0,0-.533-.176l-2.516,1a.483.483,0,0,0-.3.5l.368,3.132a.483.483,0,0,1-.216.459A14.793,14.793,0,0,0,173.182,6.9a.439.439,0,0,1-.486.062l-2.7-1.4a.446.446,0,0,0-.553.126l-1.73,2.156a.481.481,0,0,0-.017.583l1.832,2.477a.475.475,0,0,1,.032.5,15.251,15.251,0,0,0-.76,1.69.466.466,0,0,1-.4.306l-3.05.211a.472.472,0,0,0-.425.394l-.481,2.737a.458.458,0,0,0,.267.507l2.808,1.165a.451.451,0,0,1,.271.415,14.979,14.979,0,0,0,.141,1.836.482.482,0,0,1-.2.465L165.15,22.9a.486.486,0,0,0-.183.556l.9,2.584a.437.437,0,0,0,.479.294l3.031-.462a.431.431,0,0,1,.438.213,14.238,14.238,0,0,0,1.011,1.489.475.475,0,0,1,.048.5l-1.417,2.841a.473.473,0,0,0,.107.57l2.036,1.739a.438.438,0,0,0,.563,0l2.437-1.963a.438.438,0,0,1,.487-.046,13.4,13.4,0,0,0,1.61.744.449.449,0,0,1,.286.4l.125,3.157a.447.447,0,0,0,.37.431l2.628.428a.461.461,0,0,0,.5-.29l1.2-2.942a.464.464,0,0,1,.408-.291,13.7,13.7,0,0,0,1.775-.193.43.43,0,0,1,.445.2l1.631,2.625a.434.434,0,0,0,.533.176l2.516-1a.483.483,0,0,0,.3-.5l-.368-3.132a.482.482,0,0,1,.216-.459,14.8,14.8,0,0,0,1.463-1.087.439.439,0,0,1,.486-.062l2.7,1.4a.446.446,0,0,0,.553-.126l1.73-2.156a.481.481,0,0,0,.017-.583l-1.832-2.477a.475.475,0,0,1-.032-.5,15.248,15.248,0,0,0,.76-1.69.465.465,0,0,1,.4-.306l3.05-.211a.472.472,0,0,0,.425-.394Zm-20.325,7.414A9.1,9.1,0,0,1,173.466,15.5a8.907,8.907,0,1,1,16.959,5.4,9.1,9.1,0,0,1-11.3,6.157" transform="translate(-138.64 -0.001)" fill="#5479f7"/>
    <path id="パス_31034" data-name="パス 31034" d="M415.306,482.19l-20.784.13c-.135,0-.179.125-.179.245v17.683c0,1.693-11.809,6.092-11.924,5.868l-.014,1.872a.683.683,0,0,0,.7.658h17.691a6.091,6.091,0,0,0,2.339-.487l9.581-4.034a4.392,4.392,0,0,0,2.813-3.987v-17.7a.234.234,0,0,0-.219-.245" transform="translate(-322.42 -406.552)" fill="#99b9ff"/>
    <path id="パス_31035" data-name="パス 31035" d="M393.5,475.749v17.686a4.517,4.517,0,0,1-2.885,4.085l-6.463,2.759a.388.388,0,0,0,.19.746H402.1a5.964,5.964,0,0,0,2.309-.462l7.161-3.015a4.521,4.521,0,0,0,2.909-4.1v-17.7a.14.14,0,0,0-.147-.131H393.647a.14.14,0,0,0-.147.131" transform="translate(-323.681 -401.011)" fill="#fff"/>
    <path id="パス_31036" data-name="パス 31036" d="M400.834,500H383.076a.657.657,0,0,1-.663-.511.609.609,0,0,1,.381-.687l6.463-2.759A4.306,4.306,0,0,0,392,492.172V474.485a.375.375,0,0,1,.382-.366h20.685a.375.375,0,0,1,.382.366v17.7A4.775,4.775,0,0,1,410.4,496.5l-7.161,3.015a6.24,6.24,0,0,1-2.4.48M392.47,474.59v17.582a4.774,4.774,0,0,1-3.028,4.3l-6.463,2.759c-.11.047-.113.12-.1.16a.186.186,0,0,0,.2.135h17.758a5.763,5.763,0,0,0,2.218-.443l7.161-3.015a4.306,4.306,0,0,0,2.765-3.878v-17.6Z" transform="translate(-322.416 -399.747)"/>
    <path id="パス_31037" data-name="パス 31037" d="M198.2,218.876l89.583.2a1.688,1.688,0,0,0,1.665-1.368L296.6,161.9a2.346,2.346,0,0,0-2.229-2.675l-88.544.468Z" transform="translate(-167.11 -134.247)" fill="#5479f7"/>
    <path id="パス_31038" data-name="パス 31038" d="M275.53,160.476a2.889,2.889,0,0,1,2.736,3.095l-7.067,55.18a1.81,1.81,0,0,1-1.718,1.439l-88-.143a1.453,1.453,0,0,1-1.448-1.715l7.319-56.2c.1-.779.616-1.653,1.4-1.653Z" transform="translate(-151.783 -135.303)" fill="#99b9ff"/>
    <path id="パス_31039" data-name="パス 31039" d="M181.085,219.687a1.8,1.8,0,0,1-1.78-2.028l1.79-13.788a.235.235,0,0,1,.467.061l-1.79,13.788a1.326,1.326,0,0,0,1.312,1.5l87.938-.159a1.464,1.464,0,0,0,1.381-1.242l7.1-55.17a2.325,2.325,0,0,0-2.3-2.625H259.758a.235.235,0,1,1,0-.471H275.2a2.8,2.8,0,0,1,2.768,3.155l-7.1,55.17a1.929,1.929,0,0,1-1.847,1.652Z" transform="translate(-151.167 -134.522)"/>
    <path id="パス_31040" data-name="パス 31040" d="M252.051,223.316a.826.826,0,0,1,.818-.721h72.444a1.355,1.355,0,0,1,1.342,1.53l-5.747,43.08a.826.826,0,0,1-.818.721H246.949a.746.746,0,0,1-.739-.844Z" transform="translate(-207.583 -187.678)" fill="#fff"/>
    <path id="パス_31041" data-name="パス 31041" d="M387.379,235.854H333.606a1.287,1.287,0,0,1-1.276-1.457l1.54-10.925h56.37l-1.585,11.264a1.287,1.287,0,0,1-1.276,1.118" transform="translate(-280.19 -188.417)" fill="#caddff"/>
    <path id="パス_31042" data-name="パス 31042" d="M352.988,222.6a1.355,1.355,0,0,1,1.341,1.53l-.622,3.617-74.681-.012.7-4.413a.826.826,0,0,1,.818-.721Z" transform="translate(-235.258 -187.679)" fill="#5479f7"/>
    <path id="パス_31043" data-name="パス 31043" d="M259.509,248.861l-.031,0a.235.235,0,0,1-.2-.264l3.562-26.716a1.063,1.063,0,0,1,1.051-.925l59.06-.026a.235.235,0,1,1,0,.471l-59.061.026a.592.592,0,0,0-.585.516l-3.562,26.717a.235.235,0,0,1-.233.2" transform="translate(-218.603 -186.272)"/>
    <path id="パス_31044" data-name="パス 31044" d="M432.781,510.55H404.948a.235.235,0,1,1,0-.471h27.833a.235.235,0,1,1,0,.471" transform="translate(-341.228 -430.066)"/>
    <path id="パス_31045" data-name="パス 31045" d="M725.022,440.879l-.032,0a.235.235,0,0,1-.2-.265l.92-6.682a.235.235,0,0,1,.466.064l-.919,6.682a.235.235,0,0,1-.233.2" transform="translate(-611.094 -365.691)"/>
    <path id="パス_31046" data-name="パス 31046" d="M713.439,235.9l-.032,0a.235.235,0,0,1-.2-.264l1.722-12.8a1.119,1.119,0,0,0-1.108-1.263h-6.594a.235.235,0,0,1,0-.471h6.594a1.59,1.59,0,0,1,1.575,1.8l-1.722,12.8a.236.236,0,0,1-.233.2" transform="translate(-596.089 -186.414)"/>
    <path id="パス_31047" data-name="パス 31047" d="M364.643,235.246a.861.861,0,0,0-.854-.97h-26.78a.861.861,0,0,0,0,1.723h26.78a.861.861,0,0,0,.854-.752" transform="translate(-283.418 -197.527)" fill="#caddff"/>
    <path id="パス_31048" data-name="パス 31048" d="M669.873,235.246a.861.861,0,0,0-.854-.97h-2.445a.861.861,0,0,0,0,1.723h2.445a.861.861,0,0,0,.854-.752" transform="translate(-561.286 -197.527)" fill="#caddff"/>
    <path id="パス_31049" data-name="パス 31049" d="M373.724,400.634a.6.6,0,0,0-.59-.67H354.629a.6.6,0,1,0,0,1.19h18.505a.6.6,0,0,0,.59-.52" transform="translate(-298.499 -337.224)" fill="#caddff"/>
    <path id="パス_31050" data-name="パス 31050" d="M368.3,443.991a.6.6,0,0,0-.59-.67H349.209a.6.6,0,1,0,0,1.19h18.505a.6.6,0,0,0,.59-.52" transform="translate(-293.929 -373.78)" fill="#caddff"/>
    <path id="パス_31051" data-name="パス 31051" d="M375.087,421.642H351.92a.6.6,0,0,0,0,1.19h23.167a.6.6,0,0,0,0-1.19" transform="translate(-296.215 -355.502)" fill="#caddff"/>
    <path id="パス_31052" data-name="パス 31052" d="M380.558,378.285H357.339a.6.6,0,0,0,0,1.19h23.219a.6.6,0,0,0,0-1.19" transform="translate(-300.784 -318.946)" fill="#caddff"/>
    <path id="パス_31053" data-name="パス 31053" d="M542.364,341.147h-1.5a.29.29,0,0,1-.288-.33l2.454-17.81a.291.291,0,0,1,.288-.251s4.8.007,9.61.019c2.4.006,4.808.013,6.613.02.9,0,1.656.008,2.184.012.936.007.936.007,1.011.093l.07.081-.195,1.414a.235.235,0,1,1-.466-.064l.144-1.047c-1.793-.023-12.742-.046-18.814-.055l-2.4,17.449h1.293a.235.235,0,1,1,0,.471" transform="translate(-455.777 -272.127)"/>
    <path id="パス_31054" data-name="パス 31054" d="M574.876,356.58h-19.3l2.469-17.92h19.3Z" transform="translate(-468.429 -285.537)" fill="#99b9ff"/>
    <path id="パス_31055" data-name="パス 31055" d="M637.6,471.029h-5.674l.726-5.27h5.674Z" transform="translate(-532.801 -392.699)" fill="#99b9ff"/>
    <path id="パス_31056" data-name="パス 31056" d="M594.39,471.029h-5.674l.726-5.27h5.674Z" transform="translate(-496.368 -392.699)" fill="#5479f7"/>
    <path id="パス_31057" data-name="パス 31057" d="M551.179,471.029H545.5l.726-5.27H551.9Z" transform="translate(-459.935 -392.699)" fill="#caddff"/>
    <path id="パス_31058" data-name="パス 31058" d="M364.764,282.392H354.44a1.669,1.669,0,0,1-1.655-1.889l1.371-10.353a1.67,1.67,0,0,1,1.655-1.45h10.324a1.67,1.67,0,0,1,1.655,1.889l-1.371,10.353a1.67,1.67,0,0,1-1.655,1.45" transform="translate(-297.434 -226.551)" fill="#99b9ff"/>
    <path id="パス_31059" data-name="パス 31059" d="M374.242,286.671h-6.831a.235.235,0,0,1-.234-.211l-.641-6.131h-1.114a.235.235,0,0,1,0-.471h1.326a.235.235,0,0,1,.234.211l.641,6.131h6.492l1.9-2.9h-7.629a.235.235,0,1,1,0-.471h8.064a.235.235,0,0,1,.2.364l-2.209,3.369a.235.235,0,0,1-.2.106" transform="translate(-307.903 -235.959)"/>
    <path id="パス_31060" data-name="パス 31060" d="M376.476,335.707a.843.843,0,1,1,.843-.843.844.844,0,0,1-.843.843m0-1.215a.372.372,0,1,0,.372.372.373.373,0,0,0-.372-.372" transform="translate(-316.71 -281.625)"/>
    <path id="パス_31061" data-name="パス 31061" d="M408.9,335.707a.843.843,0,1,1,.843-.843.844.844,0,0,1-.843.843m0-1.215a.372.372,0,1,0,.372.372.373.373,0,0,0-.372-.372" transform="translate(-344.049 -281.625)"/>
    <path id="パス_31062" data-name="パス 31062" d="M384.455,326.517a.236.236,0,0,1-.223-.161l-.086-.259a.6.6,0,0,0-.567-.409H380.4a.6.6,0,0,0-.6.555.235.235,0,1,1-.469-.034,1.072,1.072,0,0,1,1.065-.992h3.182a1.067,1.067,0,0,1,1.013.73l.086.259a.235.235,0,0,1-.223.31" transform="translate(-319.828 -274.203)"/>
    <path id="パス_31063" data-name="パス 31063" d="M586.316,635.7c-.665-4.291-5.079-7.606-10.425-7.606s-9.76,3.315-10.425,7.606Z" transform="translate(-476.764 -529.571)" fill="#fff"/>
    <path id="パス_31064" data-name="パス 31064" d="M585.051,634.671H564.2a.235.235,0,0,1-.232-.271c.69-4.45,5.272-7.805,10.658-7.805s9.968,3.355,10.658,7.805a.235.235,0,0,1-.233.271m-20.571-.471h20.291c-.8-4.087-5.1-7.135-10.146-7.135s-9.349,3.048-10.145,7.135" transform="translate(-475.5 -528.305)"/>
    <path id="パス_31065" data-name="パス 31065" d="M35.477,627.2a10.561,10.561,0,0,1,5.518.922c1.507.8,6.78.305,5.123,3.275a3.924,3.924,0,0,1-1.3,1.6,7.924,7.924,0,0,1-2.022.969c-2.735.626-5.108.656-7.533-1.689a2.841,2.841,0,0,0-1.726-.79c-.417-.037-24.135,3.94-28.406.108-4.856-4.356,4.111-17.511,4.111-17.511l11.119,5.377s-3.46,5.228-3.512,5.835c-.04.465,18.629,1.906,18.629,1.906" transform="translate(-3.11 -517.755)" fill="#fff"/>
    <path id="パス_31066" data-name="パス 31066" d="M38.77,632.945A6.781,6.781,0,0,1,33.8,630.83a2.616,2.616,0,0,0-1.583-.725c-.06,0-.546.07-1.16.157-15.644,2.194-24.857,2.158-27.383-.108-4.952-4.442,3.7-17.275,4.074-17.819l.114-.168,11.544,5.582-.149.224a63.768,63.768,0,0,0-3.429,5.584c1.4.382,11.556,1.266,18.344,1.79a10.66,10.66,0,0,1,5.633.95,7.556,7.556,0,0,0,1.955.465c1.418.228,3.026.487,3.485,1.435a1.817,1.817,0,0,1-.221,1.7l-.07.127a3.939,3.939,0,0,1-1.3,1.548,8.039,8.039,0,0,1-2.107,1.007,12.53,12.53,0,0,1-2.781.365m-6.534-3.309h.024a3.087,3.087,0,0,1,1.869.855c2.3,2.224,4.506,2.272,7.317,1.629a7.708,7.708,0,0,0,1.938-.931,3.471,3.471,0,0,0,1.161-1.394l.071-.128a1.376,1.376,0,0,0,.208-1.263c-.352-.728-1.831-.966-3.136-1.175a7.73,7.73,0,0,1-2.1-.514,10.376,10.376,0,0,0-5.379-.9l-.024,0-.024,0c-.046,0-4.607-.356-9.16-.763-9.3-.832-9.5-1.067-9.623-1.207a.258.258,0,0,1-.062-.19c.051-.592,2.587-4.482,3.4-5.72l-10.692-5.17C7.015,614.308-.366,625.9,3.991,629.8c1.662,1.491,7.7,2.7,27-.008.914-.128,1.151-.16,1.242-.16" transform="translate(-1.813 -516.141)"/>
    <path id="パス_31067" data-name="パス 31067" d="M389.053,593.419c.429-.22,1.361.156,1.729.075,1.339-.295,3.111-2.429,4.251-3.989a5.23,5.23,0,0,1,3.863-2.132c.363-.025.76-.032,1.187-.038a1.775,1.775,0,0,0,1.713-.8,1.357,1.357,0,0,0-1.194-1.946c-2.152-.093-6.607-.188-8.13.511a11.889,11.889,0,0,0-3.289,3.074,7.261,7.261,0,0,1-4.1,2.078c-2.532.648-12.3-.506-12.3-.506a119.884,119.884,0,0,0-9.539-12.061l-9.063,10.562s10.659,11.2,15.468,12.4c3.271.818,10.766-2.794,19.4-7.231" transform="translate(-298.622 -487.069)" fill="#fff"/>
    <path id="パス_31068" data-name="パス 31068" d="M369.447,599.737a4.626,4.626,0,0,1-1.121-.124c-4.819-1.2-15.144-12.008-15.581-12.467a.235.235,0,0,1-.008-.316l9.063-10.562a.235.235,0,0,1,.175-.082.238.238,0,0,1,.177.076,121.235,121.235,0,0,1,9.5,12c1.065.122,9.785,1.094,12.106.5,1.625-.416,3.045-.853,3.978-2a11.457,11.457,0,0,1,3.373-3.139c1.538-.706,5.822-.636,8.238-.532a1.641,1.641,0,0,1,1.363.832,1.481,1.481,0,0,1,.028,1.46,2.013,2.013,0,0,1-1.917.923c-.412.006-.812.013-1.175.037a4.975,4.975,0,0,0-3.689,2.036c-1.237,1.693-3,3.774-4.39,4.079a2.154,2.154,0,0,1-.761-.057,1.908,1.908,0,0,0-.911-.038c-7.841,4.028-14.689,7.374-18.449,7.374m-16.214-12.762c1.3,1.346,10.823,11.086,15.207,12.182,3.231.808,10.944-2.951,19.24-7.212a2.063,2.063,0,0,1,1.209-.007,2.191,2.191,0,0,0,.577.061c.97-.213,2.43-1.6,4.111-3.9a5.444,5.444,0,0,1,4.038-2.228c.374-.025.781-.032,1.2-.038a1.589,1.589,0,0,0,1.509-.674,1.021,1.021,0,0,0-.022-1,1.174,1.174,0,0,0-.974-.6c-1.911-.082-6.52-.2-8.022.49a11.26,11.26,0,0,0-3.2,3.008c-1.023,1.257-2.519,1.721-4.226,2.158-2.545.651-11.984-.453-12.384-.5a.235.235,0,0,1-.167-.1,121.123,121.123,0,0,0-9.339-11.838Zm34.555,5.179h0Z" transform="translate(-297.358 -485.804)"/>
    <path id="パス_31069" data-name="パス 31069" d="M45.2,461.691c9.527-3.062,25.827-1.519,30.772,2.137,6.423,4.749,12.768,13.409,15.147,16.589a2.143,2.143,0,0,1,.068,2.589c-2.138,4.247-8.951,12.062-11.652,10.085s-4.121-3.515-3.928-1.572c.512,5.154,1.638,25.466,1.638,25.466s-30.754,1.99-38.426-2.21A2.46,2.46,0,0,1,37.58,512.2c.9-5.231,6.1-16.282,4-22.934-.238-.752-1.429,2.789-3.371,4.935l-10.656-8.3c-.8-.641-.459-1.266-.076-2.224C29.36,478.954,34.916,465,45.2,461.691" transform="translate(-22.817 -387.891)" fill="#fff"/>
    <path id="パス_31070" data-name="パス 31070" d="M60.279,516.423c-8.826,0-18.84-.534-22.837-2.722a2.7,2.7,0,0,1-1.357-2.824,52.143,52.143,0,0,1,1.631-5.922c1.683-5.389,3.771-12.077,2.44-16.689-.155.233-.385.66-.593,1.048a19.2,19.2,0,0,1-2.444,3.761.235.235,0,0,1-.319.028l-10.656-8.3c-.881-.7-.583-1.434-.238-2.28l.088-.217.014-.034c1.853-4.638,7.494-18.752,17.856-22.082,4.462-1.434,10.729-1.967,17.195-1.461,6.214.486,11.369,1.844,13.789,3.633,6.188,4.575,12.282,12.735,14.884,16.22l.312.417a2.367,2.367,0,0,1,.09,2.836c-1.845,3.665-6.92,9.664-10.15,10.441A2.157,2.157,0,0,1,78.132,492c-.532-.389-1.016-.764-1.444-1.094-.828-.639-1.857-1.435-2.062-1.322,0,0-.1.074-.049.631.507,5.1,1.628,25.273,1.639,25.476a.235.235,0,0,1-.22.248c-.6.039-7.664.484-15.717.484m-20.06-28.779.034,0a.334.334,0,0,1,.288.266c1.506,4.758-.646,11.648-2.375,17.183a51.951,51.951,0,0,0-1.616,5.861,2.226,2.226,0,0,0,1.119,2.331c7.176,3.928,35.21,2.367,38.065,2.2-.127-2.276-1.148-20.43-1.625-25.222-.041-.41-.045-.9.29-1.089.474-.263,1.221.314,2.577,1.361.425.328.907.7,1.434,1.087a1.711,1.711,0,0,0,1.463.195c3.056-.736,8.076-6.692,9.84-10.2a1.906,1.906,0,0,0-.046-2.343l-.312-.418c-2.59-3.468-8.654-11.589-14.787-16.123-2.352-1.739-7.416-3.063-13.546-3.542-6.407-.5-12.608.024-17.014,1.44l-.072-.224.072.224c-10.151,3.262-15.73,17.222-17.563,21.809l-.014.034c-.03.075-.06.149-.089.22-.363.891-.487,1.27.093,1.733L36.914,492.6a19.823,19.823,0,0,0,2.234-3.5c.592-1.1.791-1.448,1.071-1.448" transform="translate(-21.554 -386.611)"/>
    <path id="パス_31071" data-name="パス 31071" d="M216.143,350.681c.808.277,1.183,1.954,1.31,2.805.421,2.8-1.029,9.377-3.043,9.807-1.984.423-1.816-.48-3.327.367-1.207.676-1.366,1.914-1.914,4.588-.035.17,3.436,1.157,3.5,1.32.139.369-2.007,4.905-8.687,4.056-6.33-.8-7.21-5.131-7.234-5.435-.014-.182,4.777-.517,4.862-.692a34.318,34.318,0,0,0,1.932-6.283s4.111-13.446,12.6-10.534" transform="translate(-165.883 -295.324)" fill="#fff"/>
    <path id="パス_31072" data-name="パス 31072" d="M204.306,372.7a12.876,12.876,0,0,1-1.624-.106c-6.757-.859-7.435-5.6-7.439-5.65-.023-.285.271-.323.98-.417.47-.062,1.1-.129,1.715-.194.826-.088,1.936-.206,2.226-.279a34.8,34.8,0,0,0,1.876-6.151l.005-.021c.1-.319,2.447-7.849,7.322-10.337a6.925,6.925,0,0,1,5.584-.351c.968.332,1.348,2.2,1.467,2.993.418,2.783-.988,9.594-3.227,10.072a4.11,4.11,0,0,1-1.823.045,1.712,1.712,0,0,0-1.438.3c-1.018.57-1.224,1.59-1.675,3.824q-.045.221-.093.457c.293.133,1.113.4,1.681.592,1.612.533,1.715.585,1.776.747.115.305-.3,1.079-.757,1.652a8.041,8.041,0,0,1-6.556,2.827m-8.558-5.625c.2.816,1.413,4.342,6.993,5.051,3.622.46,5.8-.695,6.99-1.744a4.8,4.8,0,0,0,1.424-1.952c-.255-.111-.94-.337-1.459-.509-1.968-.651-2.081-.706-2.024-.984q.065-.316.123-.6c.467-2.307.7-3.465,1.907-4.141a2.161,2.161,0,0,1,1.752-.349,3.655,3.655,0,0,0,1.641-.042c1.829-.39,3.278-6.754,2.859-9.542-.162-1.081-.562-2.415-1.154-2.618a6.471,6.471,0,0,0-5.217.324c-4.619,2.357-6.984,9.731-7.083,10.046a33.891,33.891,0,0,1-1.948,6.327c-.083.172-.1.2-2.563.465-.795.084-1.841.2-2.239.274" transform="translate(-164.616 -294.063)"/>
    <path id="パス_31073" data-name="パス 31073" d="M284.01,359.588l-.033,0c-1.259-.173-2.1-1.89-2.184-3.45-.069-1.268.368-2.146,1.171-2.347,1.357-.339,2.456,1.731,2.5,1.819a.235.235,0,0,1-.417.218c-.267-.51-1.143-1.789-1.971-1.581s-.836,1.48-.815,1.865c.073,1.345.806,2.875,1.779,3.009a.235.235,0,0,1-.032.468" transform="translate(-237.584 -298.261)"/>
    <path id="パス_31074" data-name="パス 31074" d="M86.45,284.819c.358,1.966-1.615,2.415-3.181,3.641a10.6,10.6,0,0,1-2.282,1.6c-.483.25-.671-1.628-1.984-1.89-.979-.2-1.226.633-1.438.871-.857.961,7.9,20.208,3.454,31.972-2.838,7.5-10.125,10.835-26.325,9.341-13.558-1.25-17.146-14.985-14.743-20.024,6.233-13.075,19.256-1.072,22.322-20.566C64.423,276.1,77.2,270.009,85,281.1a9.419,9.419,0,0,1,1.445,3.718" transform="translate(-33.099 -232.16)"/>
    <path id="パス_31075" data-name="パス 31075" d="M470.158,28.132a.234.234,0,0,1-.168-.071c-10.593-10.818-24.547-16.846-38.3-16.536a.235.235,0,1,1-.01-.47,48.738,48.738,0,0,1,20.727,4.187,56.981,56.981,0,0,1,17.917,12.491.235.235,0,0,1-.168.4" transform="translate(-363.773 -9.31)"/>
    <path id="パス_31076" data-name="パス 31076" d="M415.225,42.248a.235.235,0,0,1-.156-.059c-12.076-10.667-27.227-14.807-41.57-11.358a.235.235,0,1,1-.11-.458c14.493-3.486,29.8.692,41.991,11.462a.235.235,0,0,1-.156.412" transform="translate(-314.666 -24.596)"/>
    <path id="パス_31077" data-name="パス 31077" d="M645.3,119.367a1.229,1.229,0,1,1,1.07-.621,1.222,1.222,0,0,1-1.07.621m-.373-.57a.759.759,0,1,0-.356-.459.76.76,0,0,0,.356.459" transform="translate(-543.038 -98.57)"/>
    <path id="パス_31078" data-name="パス 31078" d="M660.134,133.157a.235.235,0,0,1-.156-.059l-1.485-1.312a.235.235,0,0,1,.1-.4l1.95-.5a.235.235,0,0,1,.289.276c-.193.917-.467,1.823-.469,1.832a.235.235,0,0,1-.161.158.232.232,0,0,1-.064.009m-1-1.43.874.772c.074-.264.178-.651.275-1.066Z" transform="translate(-555.133 -110.345)"/>
    <path id="パス_31079" data-name="パス 31079" d="M436.615,769.431H436.6c-1.2-.081-2.419-.214-3.612-.4a.235.235,0,1,1,.071-.465c1.18.18,2.382.312,3.573.392a.235.235,0,0,1-.016.47" transform="translate(-364.898 -648.007)"/>
    <path id="パス_31080" data-name="パス 31080" d="M458.806,752.212q-1.45,0-2.9-.1a.235.235,0,0,1,.032-.47,43.384,43.384,0,0,0,20.347-3.6.235.235,0,1,1,.19.43,43.92,43.92,0,0,1-17.67,3.733" transform="translate(-384.208 -630.691)"/>
    <path id="パス_31081" data-name="パス 31081" d="M418.155,792.276l-.033,0c-.622-.088-1.251-.191-1.87-.3a.235.235,0,1,1,.085-.463c.612.113,1.235.214,1.85.3a.235.235,0,0,1-.033.468" transform="translate(-350.795 -667.345)"/>
    <path id="パス_31082" data-name="パス 31082" d="M434.53,773.094a45.651,45.651,0,0,1-6.411-.453.235.235,0,1,1,.066-.466,45.485,45.485,0,0,0,25.8-3.936.235.235,0,1,1,.2.425,46.074,46.074,0,0,1-19.657,4.43" transform="translate(-360.793 -647.711)"/>
    <path id="パス_31083" data-name="パス 31083" d="M531.033,720.3a1.433,1.433,0,1,1,.545-.109,1.435,1.435,0,0,1-.545.109m0-2.4a.962.962,0,1,0,.891.595.956.956,0,0,0-.891-.595" transform="translate(-446.523 -604.897)"/>
    <path id="パス_31084" data-name="パス 31084" d="M413.791,807.863a.232.232,0,0,1-.038,0l-3.511-.57a.235.235,0,0,1-.141-.385l2.208-2.583a.235.235,0,0,1,.4.063l1.3,3.154a.235.235,0,0,1-.218.325m-3.06-.971,2.682.436-1-2.409Z" transform="translate(-345.724 -678.083)"/>
  </g>
</svg>
