<svg id="グループ_6386" data-name="グループ 6386" xmlns="http://www.w3.org/2000/svg" xmlns:xlink="http://www.w3.org/1999/xlink" width="130" height="129.862" viewBox="0 0 130 129.862">
  <defs>
    <clipPath id="clip-path">
      <rect id="長方形_10606" data-name="長方形 10606" width="130" height="129.862" fill="none"/>
    </clipPath>
  </defs>
  <g id="グループ_6385" data-name="グループ 6385" clip-path="url(#clip-path)">
    <path id="パス_32712" data-name="パス 32712" d="M127.787,83.851q-.666,2.418-1.537,4.8v0a62.827,62.827,0,0,1-3.24,7.374q-.529,1.019-1.1,2.023-.753,1.331-1.574,2.63c-.009.016-.019.03-.028.044q-.838,1.321-1.747,2.608a61.884,61.884,0,0,1-25.806,20.992,64.936,64.936,0,0,1-11.344,3.794l-.039.009a68.737,68.737,0,0,1-35.446-1.287l-.022-.006,0,0A72.536,72.536,0,0,1,29.9,119.825c-.038-.021-.074-.043-.11-.065-.02-.011-.039-.024-.06-.036q-.819-.484-1.618-.993c-.271-.17-.54-.342-.808-.518q-.92-.6-1.814-1.223-.4-.281-.8-.564c-.455-.329-.9-.66-1.349-1q-.4-.3-.794-.61c-.166-.129-.333-.26-.5-.392l0,0a60.236,60.236,0,0,1-9.074-8.9q-.487-.591-.949-1.191a55.389,55.389,0,0,1-7.8-13.8C-1.733,75.294.1,60.619.922,54.371c.231-1.755.552-4.091,1.06-6.81.044-.236.089-.474.136-.717.5-2.6,1.179-5.51,2.1-8.583.618-2.061,1.349-4.194,2.213-6.352q.442-1.106.935-2.215a61.821,61.821,0,0,1,2.842-5.639q.637-1.115,1.336-2.215.682-1.078,1.427-2.133a49.223,49.223,0,0,1,3.98-4.946q1.042-1.135,2.177-2.217a44.16,44.16,0,0,1,9.082-6.665q1.139-.629,2.3-1.185,1.484-.714,3-1.311a46.951,46.951,0,0,1,7.134-2.168q.412-.09.826-.173c.458-.093.919-.18,1.38-.258A59.617,59.617,0,0,1,62.282.814q1.5.236,3,.537,1.679.336,3.35.749,1.106.272,2.207.577a94.653,94.653,0,0,1,22.888,9.866l.328.194q.8.48,1.587.972.718.447,1.418.9l.226.146c.188.123.376.247.563.372a88.148,88.148,0,0,1,8.879,6.708q.816.7,1.592,1.41c.273.249.566.517.877.805,1.526,1.413,3.481,3.293,5.58,5.639.624.7,1.261,1.436,1.9,2.215q.938,1.139,1.885,2.4a59.827,59.827,0,0,1,6.771,11.432q.242.546.478,1.1c.154.367.306.737.453,1.112s.286.733.422,1.1q.593,1.6,1.1,3.29a52.3,52.3,0,0,1,1.556,6.867,58.772,58.772,0,0,1-1.556,24.633" transform="translate(0 0)" fill="#caddff"/>
    <path id="パス_32713" data-name="パス 32713" d="M171.608,17.779H60A1.442,1.442,0,0,1,58.71,16.22,1.442,1.442,0,0,1,60,14.662H171.608a1.442,1.442,0,0,1,1.286,1.558,1.442,1.442,0,0,1-1.286,1.558" transform="translate(-49.505 -12.363)" fill="#99b9ff"/>
    <path id="パス_32714" data-name="パス 32714" d="M170.343,16.749H58.731a1.676,1.676,0,0,1-1.521-1.794,1.676,1.676,0,0,1,1.521-1.794H170.343a1.676,1.676,0,0,1,1.521,1.794,1.676,1.676,0,0,1-1.521,1.794M58.731,13.632a1.212,1.212,0,0,0-1.051,1.323,1.212,1.212,0,0,0,1.051,1.323H170.343a1.212,1.212,0,0,0,1.051-1.323,1.212,1.212,0,0,0-1.051-1.323Z" transform="translate(-48.24 -11.098)"/>
    <path id="パス_32715" data-name="パス 32715" d="M113.127,103.542h-6.458S101.4,76.5,101.255,77a22.238,22.238,0,0,0-.141,11.976c.65,2.092,2.838,11.939,4.07,17.543.512,2.333.858,3.932.858,3.932H74.676s.2-.968.514-2.5c.456-2.213,1.162-5.6,1.872-8.922,0-.012,0-.021.007-.032.189-.885.38-1.768.565-2.623.742-3.4,1.418-6.357,1.741-7.4A21.668,21.668,0,0,0,79.235,77c-.2-.658-1.021,3.422-1.93,8.561-.011.06-.021.118-.032.181,0,.007,0,.016,0,.026-1.358,7.7-2.9,17.633-2.9,17.633H68.024L70.6,83.488l1.174-9.056L73.23,63.178l.291-2.231.014-.114.242-.111,2.267-1.033,1-.456h0l.071-.035,4.655-2.125.15-.067.643-.294a3.949,3.949,0,0,0,2.379-2.877l.743-2.766.094-.355h8.928l.078.292.759,2.829a3.973,3.973,0,0,0,2.2,2.8q.09.042.18.076l2.333,1.066,6.7,3.056,4.6,31.863v0Z" transform="translate(-57.358 -42.763)" fill="#99b9ff"/>
    <path id="パス_32716" data-name="パス 32716" d="M194.213,18.963a.235.235,0,0,1-.235-.235V14.832a2.678,2.678,0,0,1-2.321-2.77,2.724,2.724,0,0,1,2.631-2.8.235.235,0,0,1,0,.47,2.254,2.254,0,0,0-2.161,2.333,2.244,2.244,0,0,0,2.1,2.332.236.236,0,0,1,.219.235v4.1a.235.235,0,0,1-.235.235" transform="translate(-161.607 -7.808)"/>
    <path id="パス_32717" data-name="パス 32717" d="M134.212,71.093,131.1,69.807l-.03-.014a6.9,6.9,0,0,1-3.38-2.931,9.118,9.118,0,0,1-.715-1.545c-.016-.042-.032-.083-.046-.123H120.9c-.048.118-.1.246-.161.382-.085.19-.184.4-.3.612v0a7.473,7.473,0,0,1-3.71,3.617l-.134.056-4.715,1.946-.081.035-.095.037v0l-.881.361-2.539,1.05v2.085h31.252V73.294Zm-20.588,2.064.113-.042,4.775-1.8,2.815-1.059,1.174-.443,1.416-.533.893.336,2.015.758,2.168.816,5.22,1.965Z" transform="translate(-91.311 -54.972)" fill="#fff"/>
    <path id="パス_32718" data-name="パス 32718" d="M138.278,74.349H107.025a.235.235,0,0,1-.235-.235V72.029a.235.235,0,0,1,.145-.217l3.392-1.4a.208.208,0,0,1,.032-.015l.168-.069,4.852-2a7.265,7.265,0,0,0,3.583-3.492l.009-.019c.1-.2.2-.4.291-.6.058-.133.111-.259.158-.375a.235.235,0,0,1,.218-.146h6.027a.235.235,0,0,1,.222.157c.013.037.029.077.044.116a8.929,8.929,0,0,0,.7,1.51,6.706,6.706,0,0,0,3.269,2.834l.015.007.015.007,3.109,1.285h0l5.331,2.2a.235.235,0,0,1,.146.217v2.085a.235.235,0,0,1-.235.235m-31.017-.47h30.782V72.186l-5.186-2.141h0l-3.11-1.286-.017-.008-.015-.007a7.166,7.166,0,0,1-3.492-3.028,9.3,9.3,0,0,1-.722-1.552h-5.707c-.032.077-.066.158-.1.242-.093.206-.192.41-.3.609l-.009.02a7.731,7.731,0,0,1-3.833,3.726l-.129.053-4.866,2.009-.025.012-3.273,1.351Zm25.686-1.752H112.358a.235.235,0,0,1-.081-.456l.113-.042L122.569,67.8a.235.235,0,0,1,.166,0l10.3,3.874a.235.235,0,0,1-.083.455m-19.294-.47h18l-9-3.387Z" transform="translate(-90.046 -53.707)"/>
    <path id="パス_32719" data-name="パス 32719" d="M113.127,103.542h-6.458S101.4,76.5,101.255,77a22.238,22.238,0,0,0-.141,11.976c.65,2.092,2.838,11.939,4.07,17.543.512,2.333.858,3.932.858,3.932H74.676s.2-.968.514-2.5c.456-2.213,1.162-5.6,1.872-8.922,0-.012,0-.021.007-.032.189-.885.38-1.768.565-2.623.742-3.4,1.418-6.357,1.741-7.4A21.668,21.668,0,0,0,79.235,77c-.2-.658-1.021,3.422-1.93,8.561-.011.06-.021.118-.032.181,0,.007,0,.016,0,.026-1.358,7.7-2.9,17.633-2.9,17.633H68.024L70.6,83.488l1.174-9.056L73.23,63.178l.291-2.231.014-.114.242-.111,2.267-1.033,1-.456h0l.071-.035,4.655-2.125.15-.067.643-.294a3.949,3.949,0,0,0,2.379-2.877l.743-2.766.094-.355.208.955.5,2.31v0l.883,4.068.63,2.9.484,2.222,0,.026,1.471,6.772,1.093-4.435.583-2.363.546-2.222.685-2.78.867-3.515.927-3.763.044-.176.078.292.759,2.829a3.973,3.973,0,0,0,2.2,2.8q.09.042.18.076l2.333,1.066,6.7,3.056,4.6,31.863v0Z" transform="translate(-57.358 -42.763)" fill="#fff"/>
    <path id="パス_32720" data-name="パス 32720" d="M204.492,356.23a1.158,1.158,0,1,0,1.155-1.238,1.2,1.2,0,0,0-1.155,1.238" transform="translate(-172.43 -299.333)" fill="#99b9ff"/>
    <path id="パス_32721" data-name="パス 32721" d="M73.413,143.618a.235.235,0,0,1-.23-.282c.154-.756,3.791-18.558,4.706-21.5a21.34,21.34,0,0,0,0-11.365c-.8,2.693-3.1,16.521-4.554,25.894a.235.235,0,0,1-.232.2H66.76a.235.235,0,0,1-.233-.265l5.511-42.565a.235.235,0,0,1,.136-.184l8.235-3.76a.235.235,0,0,1,.2.428l-8.117,3.705-5.46,42.17H72.9c.18-1.154,1.116-7.118,2.112-13.019.648-3.84,1.194-6.9,1.624-9.1.842-4.316,1.02-4.329,1.265-4.347a.288.288,0,0,1,.3.235,21.829,21.829,0,0,1,.141,12.116c-.844,2.715-4.151,18.8-4.635,21.163l9.632-.179a6.041,6.041,0,0,0,4.55-1.8c3.895-3.888,3.77-12.768,3.768-12.857,0-.049-.218-5.447-.611-9.125a.235.235,0,1,1,.468-.05c.395,3.693.612,9.107.614,9.161.007.377.129,9.175-3.906,13.2a6.475,6.475,0,0,1-4.883,1.942l-9.916.184h0" transform="translate(-56.095 -75.697)" fill="#5479f7"/>
    <path id="パス_32722" data-name="パス 32722" d="M231.632,141.676h0l-8.946-.183c-2.945,0-5.14-2.808-5.708-5.449a.235.235,0,1,1,.46-.1c.529,2.462,2.55,5.078,5.253,5.078l8.654.177c-.122-.562-.412-1.9-.795-3.64-1.52-6.919-3.459-15.576-4.065-17.524a22.326,22.326,0,0,1,.14-12.112.248.248,0,0,1,.242-.175c.244.011.264.012,1.164,4.34.459,2.2,1.081,5.275,1.849,9.128,1.184,5.939,2.357,11.948,2.579,13.082h5.993l-1.529-10.574s0-.008,0-.012l-4.585-31.726-8.913-4.068a.235.235,0,0,1,.2-.428l9.029,4.122a.235.235,0,0,1,.135.18l4.6,31.863s0,.008,0,.012L238.95,134.5a.235.235,0,0,1-.233.269h-6.459a.235.235,0,0,1-.231-.19c-1.779-9.131-4.408-22.389-5.178-25.716a21.733,21.733,0,0,0,.079,11.033c.61,1.963,2.553,10.634,4.075,17.563.512,2.333.858,3.932.858,3.932a.235.235,0,0,1-.23.285" transform="translate(-182.949 -73.755)" fill="#5479f7"/>
    <path id="パス_32723" data-name="パス 32723" d="M197.382,70.722l5.822-9.373-1.63-2.33,2.99-2.011c.109-3.6-3.317-6.467-3.317-6.467A66.974,66.974,0,0,0,194.8,64.515c-.739,2.249,2.584,6.207,2.584,6.207" transform="translate(-164.165 -42.617)" fill="#99b9ff"/>
    <path id="パス_32724" data-name="パス 32724" d="M196.123,69.691a.235.235,0,0,1-.18-.084c-.139-.166-3.4-4.085-2.627-6.432a67.888,67.888,0,0,1,6.473-14.027.235.235,0,0,1,.348-.053c.143.12,3.513,2.979,3.4,6.655a.235.235,0,0,1-.1.188l-2.791,1.877,1.493,2.133a.235.235,0,0,1,.007.259l-5.821,9.373a.235.235,0,0,1-.183.111h-.017m3.914-20.053a68.39,68.39,0,0,0-6.274,13.684c-.587,1.786,1.636,4.83,2.336,5.727l5.564-8.958-1.541-2.2a.235.235,0,0,1,.061-.33l2.888-1.942c.022-2.891-2.323-5.311-3.034-5.978" transform="translate(-162.907 -41.351)" fill="#5479f7"/>
    <path id="パス_32725" data-name="パス 32725" d="M167.349,87.81c-2.2-20.861-9.595-25.616-9.595-25.616l1.75-2.227-2.879-2.188c.081-3.6,3.653-6.256,3.653-6.256a70.875,70.875,0,0,1,6.834,21.638c1.534,11.753.237,14.65.237,14.65" transform="translate(-132.069 -43.444)" fill="#99b9ff"/>
    <path id="パス_32726" data-name="パス 32726" d="M166.085,86.781l-.037,0a.235.235,0,0,1-.2-.208c-2.162-20.512-9.415-25.4-9.488-25.443a.235.235,0,0,1-.058-.343l1.6-2.04L155.219,56.7a.235.235,0,0,1-.093-.193c.082-3.678,3.6-6.329,3.748-6.44a.235.235,0,0,1,.347.078,71.741,71.741,0,0,1,6.86,21.719c1.525,11.684.272,14.656.218,14.776a.235.235,0,0,1-.215.139m-9.259-25.9a16.189,16.189,0,0,1,3.842,4.917c1.862,3.329,4.285,9.341,5.491,19.308.25-1.8.434-5.69-.544-13.182a71.4,71.4,0,0,0-6.677-21.305c-.752.63-3.208,2.9-3.337,5.779l2.782,2.115a.235.235,0,0,1,.043.333Z" transform="translate(-130.804 -42.179)" fill="#5479f7"/>
    <path id="パス_32727" data-name="パス 32727" d="M301.456,18.585a.235.235,0,0,1-.235-.235V14.44a2.71,2.71,0,0,1-2.379-2.781,2.757,2.757,0,0,1,2.691-2.813.235.235,0,0,1,0,.47,2.287,2.287,0,0,0-2.221,2.343A2.283,2.283,0,0,0,301.471,14a.236.236,0,0,1,.22.235V18.35a.235.235,0,0,1-.235.235" transform="translate(-251.986 -7.459)"/>
    <path id="パス_32728" data-name="パス 32728" d="M246.974,72.985l-1.326-.551-.009,0h0l-.867-.361-.833-.345-5.075-2.106a7.17,7.17,0,0,1-2.045-1.277,6.532,6.532,0,0,1-.7-.737c-.039-.044-.076-.09-.111-.137a8.584,8.584,0,0,1-1.31-2.481h-6.023c-.025.063-.051.127-.081.195a10.152,10.152,0,0,1-1.4,2.379c-.078.1-.159.2-.245.292-.064.074-.131.148-.2.22a6.243,6.243,0,0,1-2.243,1.545l-7.224,3,0,0-1.213.5v.259a1.807,1.807,0,0,0,1.286,1.777s.009,0,.012,0a1.661,1.661,0,0,0,.4.051h27.948a1.245,1.245,0,0,0,.161-.009,1.671,1.671,0,0,0,1.427-1.7.551.551,0,0,0-.328-.517m-25.892,0,7.937-2.912,2.045-.751.362-.132.256-.1.865.317,1.791.658,7.332,2.69.611.225Z" transform="translate(-182.186 -54.798)" fill="#fff"/>
    <path id="パス_32729" data-name="パス 32729" d="M244.447,74.184H216.5a1.892,1.892,0,0,1-.461-.058l-.029-.009a2.04,2.04,0,0,1-1.447-2v-.259a.235.235,0,0,1,.145-.217l1.195-.5.021-.01,7.224-3a6.011,6.011,0,0,0,2.163-1.49c.068-.07.132-.141.194-.212.085-.095.163-.191.239-.285a9.933,9.933,0,0,0,1.366-2.323c.025-.056.045-.1.064-.153l.016-.039a.235.235,0,0,1,.218-.147h6.023a.235.235,0,0,1,.221.156,8.384,8.384,0,0,0,1.273,2.415c.034.046.067.087.1.126a6.41,6.41,0,0,0,.685.718,6.974,6.974,0,0,0,1.979,1.234l6.756,2.8.03.01,1.325.551a.782.782,0,0,1,.473.734,1.9,1.9,0,0,1-1.637,1.937,1.45,1.45,0,0,1-.187.011m-28.28-.511a1.422,1.422,0,0,0,.331.04h27.948a1.033,1.033,0,0,0,.131-.007,1.431,1.431,0,0,0,1.222-1.47.318.318,0,0,0-.181-.3h0l-1.307-.544-.031-.01-1.7-.706-5.075-2.106a7.443,7.443,0,0,1-2.112-1.319,6.807,6.807,0,0,1-.729-.763c-.037-.041-.078-.093-.117-.145a8.621,8.621,0,0,1-1.286-2.387h-5.7l-.024.056a10.4,10.4,0,0,1-1.431,2.431c-.083.1-.165.2-.253.3-.065.074-.134.151-.206.226a6.469,6.469,0,0,1-2.327,1.6l-7.2,2.989-.021.01-1.068.443v.1a1.569,1.569,0,0,0,1.112,1.55l.023.008m24.849-1.721h-21.2a.235.235,0,0,1-.081-.456l10.6-3.89a.235.235,0,0,1,.163,0l10.6,3.89a.235.235,0,0,1-.081.456m-19.876-.47h18.553l-9.277-3.4-2.583.948Z" transform="translate(-180.921 -53.533)"/>
    <path id="パス_32730" data-name="パス 32730" d="M232.86,80.893l-9.22,4.241,1.59,48.149,25.965.028.848-48.4-9.22-4.122Z" transform="translate(-188.575 -68.122)" fill="#99b9ff"/>
    <path id="パス_32731" data-name="パス 32731" d="M205.745,108.444l-1.582.82a6.634,6.634,0,0,0-1.54,4.336l.54,34.429,3.921-.222-1.16-39.153c0-.08-.124-.264-.179-.208" transform="translate(-170.854 -91.433)" fill="#99b9ff"/>
    <path id="パス_32732" data-name="パス 32732" d="M400.8,107.082l1.312,1.14a5.964,5.964,0,0,1,1.55,4.073l-.1,34.426-3.5-.167Z" transform="translate(-337.334 -90.293)" fill="#99b9ff"/>
    <path id="パス_32733" data-name="パス 32733" d="M283.414,64.871l3.3,3.128-1.471,3-3.895-3.42Z" transform="translate(-237.235 -54.7)" fill="#99b9ff"/>
    <path id="パス_32734" data-name="パス 32734" d="M283.978,69.973a.236.236,0,0,1-.155-.058l-3.895-3.42a.235.235,0,0,1-.032-.319l2.067-2.711a.235.235,0,0,1,.349-.028l3.3,3.128a.235.235,0,0,1,.049.274l-1.47,3a.235.235,0,0,1-.165.127.23.23,0,0,1-.046,0M280.4,66.286l3.5,3.073,1.259-2.572-2.983-2.829Z" transform="translate(-235.97 -53.435)" fill="#5479f7"/>
    <path id="パス_32735" data-name="パス 32735" d="M319.7,64.339l-2.861,3.045,1.351,2.92,4.252-2.962Z" transform="translate(-267.158 -54.251)" fill="#99b9ff"/>
    <path id="パス_32736" data-name="パス 32736" d="M316.921,69.272a.235.235,0,0,1-.214-.136l-1.351-2.92a.235.235,0,0,1,.042-.26l2.862-3.045a.218.218,0,0,1,.173-.074.236.236,0,0,1,.172.077l2.742,3a.235.235,0,0,1-.039.352l-4.252,2.961a.235.235,0,0,1-.134.042m-1.071-3.11,1.167,2.521,3.8-2.648-2.39-2.617Z" transform="translate(-265.893 -52.984)" fill="#5479f7"/>
    <path id="パス_32737" data-name="パス 32737" d="M208.616,342.378H204.8a.235.235,0,1,1,0-.47h3.815a.235.235,0,1,1,0,.47" transform="translate(-172.491 -288.3)" fill="#5479f7"/>
    <path id="パス_32738" data-name="パス 32738" d="M403.041,340.894h-.008l-3.232-.111a.235.235,0,1,1,.016-.47l3.233.111a.235.235,0,0,1-.008.47" transform="translate(-336.924 -286.955)" fill="#5479f7"/>
    <path id="パス_32739" data-name="パス 32739" d="M312.781,140.034a.235.235,0,0,1-.235-.235V89.411a.235.235,0,1,1,.47,0V139.8a.235.235,0,0,1-.235.235" transform="translate(-263.542 -75.194)" fill="#5479f7"/>
    <path id="パス_32740" data-name="パス 32740" d="M317.933,104.333a.338.338,0,1,1-.338-.355.346.346,0,0,1,.338.355" transform="translate(-267.514 -87.675)" fill="#caddff"/>
    <path id="パス_32741" data-name="パス 32741" d="M318.018,143.522a.338.338,0,1,1-.338-.354.346.346,0,0,1,.338.354" transform="translate(-267.586 -120.721)" fill="#caddff"/>
    <path id="パス_32742" data-name="パス 32742" d="M317.891,183.738a.338.338,0,1,1-.338-.354.346.346,0,0,1,.338.354" transform="translate(-267.479 -154.631)" fill="#caddff"/>
    <path id="パス_32743" data-name="パス 32743" d="M317.976,223.993a.338.338,0,1,1-.338-.355.346.346,0,0,1,.338.355" transform="translate(-267.55 -188.574)" fill="#caddff"/>
    <path id="パス_32744" data-name="パス 32744" d="M318.144,263.009a.338.338,0,1,1-.338-.354.347.347,0,0,1,.338.354" transform="translate(-267.692 -221.473)" fill="#caddff"/>
    <path id="パス_32745" data-name="パス 32745" d="M318.017,303.225a.338.338,0,1,1-.338-.354.346.346,0,0,1,.338.354" transform="translate(-267.585 -255.384)" fill="#caddff"/>
    <path id="パス_32746" data-name="パス 32746" d="M318.1,343.48a.338.338,0,1,1-.338-.354.347.347,0,0,1,.338.354" transform="translate(-267.657 -289.327)" fill="#caddff"/>
    <path id="パス_32747" data-name="パス 32747" d="M223.573,147.953a.235.235,0,0,1-.235-.228l-1.16-39.153a.235.235,0,0,1,.47-.014l1.16,39.154a.235.235,0,0,1-.228.242h-.007" transform="translate(-187.343 -91.344)" fill="#5479f7"/>
    <path id="パス_32748" data-name="パス 32748" d="M398.795,148.739h0a.235.235,0,0,1-.231-.24l.742-38.875a.235.235,0,1,1,.47.009l-.742,38.875a.235.235,0,0,1-.235.231" transform="translate(-336.069 -92.241)" fill="#5479f7"/>
    <path id="パス_32749" data-name="パス 32749" d="M236.064,141.875h0l-34.5-.5a.235.235,0,0,1-.232-.234l-.224-53.8a5.276,5.276,0,0,1,3.153-4.928l9.336-3.97a.235.235,0,0,1,.155-.01c4.063,1.135,7.481,1,10.447-.4a.236.236,0,0,1,.2,0l9.3,4.559a5.307,5.307,0,0,1,2.9,4.8l-.3,54.254a.235.235,0,0,1-.235.234m-34.263-.968,34.029.494.3-54.017a4.834,4.834,0,0,0-2.634-4.376L224.3,78.5c-3.03,1.4-6.5,1.535-10.593.4l-9.26,3.938a4.807,4.807,0,0,0-2.867,4.493Z" transform="translate(-169.576 -65.773)" fill="#5479f7"/>
    <path id="パス_32750" data-name="パス 32750" d="M331.215,87.027c-1.152,1.345-3.131,1.372-5.418,1.372s-4.146-.32-5.3-1.653l-.32.093c-4.033,1.144-14.4,7.359-14.4,7.359l5.6,9.381,1.268-.992v25.5h25.906V102.664l1.722.843,5.407-8.82c-6.334-4.246-10.931-6.527-14.462-7.66" transform="translate(-257.833 -73.145)" fill="#99b9ff"/>
    <path id="パス_32751" data-name="パス 32751" d="M417.749,18.84a.235.235,0,0,1-.235-.235V14.248a2.952,2.952,0,0,1-2.567-3.06A3,3,0,0,1,417.833,8.1a.235.235,0,0,1,0,.47,2.528,2.528,0,0,0-2.416,2.622,2.5,2.5,0,0,0,2.347,2.622.235.235,0,0,1,.22.235V18.6a.235.235,0,0,1-.235.235" transform="translate(-349.887 -6.826)"/>
    <path id="パス_32752" data-name="パス 32752" d="M351.566,74.98l-.048-.218c-.039-.164-.076-.324-.113-.482-.018-.079-.037-.155-.055-.232s-.037-.153-.056-.227c-.025-.1-.048-.2-.074-.292s-.051-.2-.078-.3c-.012-.042-.021-.079-.03-.118-.039-.148-.076-.29-.115-.426l-.166.067-.1.042-.007,0-3.182,1.29,3.452,1.522.007,0,.1.046h0l.669.294c-.069-.333-.136-.656-.205-.968m0,0-.048-.218c-.039-.164-.076-.324-.113-.482-.018-.079-.037-.155-.055-.232s-.037-.153-.056-.227c-.025-.1-.048-.2-.074-.292s-.051-.2-.078-.3c-.012-.042-.021-.079-.03-.118-.039-.148-.076-.29-.115-.426l-.166.067-.1.042-.007,0-3.182,1.29,3.452,1.522.007,0,.1.046h0l.669.294c-.069-.333-.136-.656-.205-.968m0,0-.048-.218c-.039-.164-.076-.324-.113-.482-.018-.079-.037-.155-.055-.232s-.037-.153-.056-.227c-.025-.1-.048-.2-.074-.292s-.051-.2-.078-.3c-.012-.042-.021-.079-.03-.118-.039-.148-.076-.29-.115-.426l-.166.067-.1.042-.007,0-3.182,1.29,3.452,1.522.007,0,.1.046h0l.669.294c-.069-.333-.136-.656-.205-.968m0,0-.048-.218c-.039-.164-.076-.324-.113-.482-.018-.079-.037-.155-.055-.232s-.037-.153-.056-.227c-.025-.1-.048-.2-.074-.292s-.051-.2-.078-.3c-.012-.042-.021-.079-.03-.118-.039-.148-.076-.29-.115-.426l-.166.067-.1.042-.007,0-3.182,1.29,3.452,1.522.007,0,.1.046h0l.669.294c-.069-.333-.136-.656-.205-.968m6.237.484h0l-1.164-.484-.56-.234,0,0h0l-.77-.32-.134-.056-.016-.007-1.215-.505-1.838-.765h0l-1.042-.433-.069-.028-.166-.072-.118-.046-.007,0-1.8-.746c-.217-.09-.424-.188-.622-.29a7.761,7.761,0,0,1-.916-.551,7.17,7.17,0,0,1-1-.839s0,0,0,0a8.913,8.913,0,0,1-2.068-3.45h-6.666a11.064,11.064,0,0,1-1.965,3.239c-.12.134-.244.266-.376.4a7.419,7.419,0,0,1-1.086.883,6.239,6.239,0,0,1-.828.461c-.118.056-.238.107-.36.155L329.7,73.136l-5.9,2.451-.016.007-.12.051v2.319h34.573V75.645Zm-28.437.649.33-.141,4.658-1.983.632-.269,1.393-.593,3.991-1.7.581-.248.57.25h.016l3.724,1.65,1.233.542.773.343h0l.27.118,3.452,1.522.007,0,.1.046h0l.669.294.371.165Zm22.2-1.133-.048-.218c-.039-.164-.076-.324-.113-.482-.018-.079-.037-.155-.055-.232s-.037-.153-.056-.227c-.025-.1-.048-.2-.074-.292s-.051-.2-.078-.3c-.012-.042-.021-.079-.03-.118-.039-.148-.076-.29-.115-.426l-.166.067-.1.042-.007,0-3.182,1.29,3.452,1.522.007,0,.1.046h0l.669.294c-.069-.333-.136-.656-.205-.968m0,0-.048-.218c-.039-.164-.076-.324-.113-.482-.018-.079-.037-.155-.055-.232s-.037-.153-.056-.227c-.025-.1-.048-.2-.074-.292s-.051-.2-.078-.3c-.012-.042-.021-.079-.03-.118-.039-.148-.076-.29-.115-.426l-.166.067-.1.042-.007,0-3.182,1.29,3.452,1.522.007,0,.1.046h0l.669.294c-.069-.333-.136-.656-.205-.968m0,0-.048-.218c-.039-.164-.076-.324-.113-.482-.018-.079-.037-.155-.055-.232s-.037-.153-.056-.227c-.025-.1-.048-.2-.074-.292s-.051-.2-.078-.3c-.012-.042-.021-.079-.03-.118-.039-.148-.076-.29-.115-.426l-.166.067-.1.042-.007,0-3.182,1.29,3.452,1.522.007,0,.1.046h0l.669.294c-.069-.333-.136-.656-.205-.968m0,0-.048-.218c-.039-.164-.076-.324-.113-.482-.018-.079-.037-.155-.055-.232s-.037-.153-.056-.227c-.025-.1-.048-.2-.074-.292s-.051-.2-.078-.3c-.012-.042-.021-.079-.03-.118-.039-.148-.076-.29-.115-.426l-.166.067-.1.042-.007,0-3.182,1.29,3.452,1.522.007,0,.1.046h0l.669.294c-.069-.333-.136-.656-.205-.968" transform="translate(-272.917 -56.181)" fill="#fff"/>
    <path id="パス_32753" data-name="パス 32753" d="M356.972,76.935H322.4a.235.235,0,0,1-.235-.235V74.38a.235.235,0,0,1,.143-.216l.12-.051a.218.218,0,0,1,.032-.013l9.188-3.82c.132-.053.245-.1.349-.151a5.981,5.981,0,0,0,.8-.445,7.184,7.184,0,0,0,1.051-.855c.122-.12.241-.246.365-.384a10.788,10.788,0,0,0,1.922-3.169.235.235,0,0,1,.218-.148h6.666a.235.235,0,0,1,.222.156,8.662,8.662,0,0,0,2.013,3.362l0,0,0,0a6.985,6.985,0,0,0,.97.811,7.613,7.613,0,0,0,.889.536c.2.1.4.2.605.281l1.8.746.022.011.335.139,1.029.428.018.007,3.957,1.646a.213.213,0,0,1,.033.013l1.7.707.018.007.434.181a.236.236,0,0,1,.145.217V76.7a.235.235,0,0,1-.235.235m-34.338-.47h34.1V74.537l-.272-.114-.019-.007-1.717-.715-.014-.005-3.957-1.646-.018-.006-.669-.278,0,.017c.01.042.019.077.029.116.028.1.054.2.08.31.015.058.031.122.047.186l.172.716c.025.109.051.219.078.331l.049.221h0c.061.277.121.56.181.853l.261.116a.235.235,0,0,1-.1.45H328.1a.235.235,0,0,1-.093-.451l.33-.141L339.593,69.7a.235.235,0,0,1,.187,0l.533.234a.228.228,0,0,1,.053.016l5.714,2.527.018.007.179.078,2.892-1.173-1.628-.676c-.214-.089-.429-.189-.64-.3a8.024,8.024,0,0,1-.943-.568,7.428,7.428,0,0,1-1.027-.857.215.215,0,0,1-.019-.019,8.966,8.966,0,0,1-2.06-3.373H336.51a11.184,11.184,0,0,1-1.948,3.161c-.13.145-.256.278-.386.406a7.7,7.7,0,0,1-1.121.911,6.412,6.412,0,0,1-.86.479c-.111.053-.233.105-.371.16l-9.19,3.82Zm6.618-1.851H349.76l-.02-.008-.1-.043-.014-.005-3.7-1.633-.02-.007L340.213,70.4a.238.238,0,0,1-.052-.016l-.476-.209Zm20.663-.446.018.007.251.11q-.055-.264-.111-.518l-.048-.217c-.026-.11-.052-.221-.078-.33l-.171-.709c-.015-.062-.031-.123-.047-.183-.026-.107-.051-.2-.078-.3-.012-.045-.022-.085-.032-.127l-.012-.045-.031-.118-.025.01-.02.007-2.653,1.077,2.936,1.294.015.006Z" transform="translate(-271.652 -54.917)"/>
    <path id="パス_32754" data-name="パス 32754" d="M325.166,96.459c-6.854,0-6.461-6.668-6.866-6.513-4.55,1.742-13.235,6.753-13.235,6.753l5.708,9.669,1.4-.981v25.137H337.9V105.462l1.679.834L345,96.715a66.754,66.754,0,0,0-13.042-7.076c-.5-.188-.227,6.82-6.79,6.82" transform="translate(-257.234 -75.581)" fill="#fff"/>
    <path id="パス_32755" data-name="パス 32755" d="M336.641,129.494H310.906a.235.235,0,0,1-.235-.235V104.574l-1.027.721a.235.235,0,0,1-.338-.073L303.6,95.553a.235.235,0,0,1,.085-.323c.087-.05,8.753-5.04,13.268-6.769a.272.272,0,0,1,.229.016c.16.088.2.278.3.785.341,1.7,1.141,5.7,6.422,5.7,4.906,0,5.851-4.093,6.254-5.84.139-.6.2-.85.379-.948a.287.287,0,0,1,.239-.016,67.214,67.214,0,0,1,13.09,7.1.235.235,0,0,1,.075.312l-5.415,9.581a.235.235,0,0,1-.309.1l-1.339-.665v24.682a.235.235,0,0,1-.235.235m-25.5-.47h25.264V104.2a.235.235,0,0,1,.34-.211l1.479.735,5.2-9.2a66.852,66.852,0,0,0-12.662-6.874c-.043.134-.1.364-.145.574-.428,1.857-1.432,6.2-6.713,6.2-5.666,0-6.55-4.413-6.883-6.075-.027-.134-.056-.279-.081-.383a133.113,133.113,0,0,0-12.813,6.548l5.457,9.245,1.189-.835a.235.235,0,0,1,.37.192Z" transform="translate(-255.97 -74.316)" fill="#5479f7"/>
    <path id="パス_32756" data-name="パス 32756" d="M397.476,86.757a5.567,5.567,0,1,1-11.132-.01l-.236.068a16.236,16.236,0,0,0-1.834.668,7.648,7.648,0,0,0,15.269.027q-1.092-.439-2.067-.753" transform="translate(-324.023 -73.146)" fill="#5479f7"/>
    <path id="パス_32757" data-name="パス 32757" d="M679.522,18.787a.235.235,0,0,1-.235-.235v-4.2a2.882,2.882,0,0,1-2.537-2.96A2.929,2.929,0,0,1,679.6,8.4a.235.235,0,0,1,0,.47A2.459,2.459,0,0,0,677.22,11.4a2.444,2.444,0,0,0,2.317,2.521.235.235,0,0,1,.22.235v4.4a.235.235,0,0,1-.235.235" transform="translate(-570.642 -7.086)"/>
    <path id="パス_32758" data-name="パス 32758" d="M595.907,73.908c.067.292.136.579.21.86.042.164.083.324.127.484s.088.315.131.47c.053.192.111.382.168.57h12.592c.034-.09.069-.181.1-.273a.025.025,0,0,0,.007-.016c.009-.026.018-.051.025-.077.037-.1.069-.2.1-.3.092-.285.177-.582.251-.887.018-.072.037-.146.053-.22.051-.2.095-.4.131-.609ZM592.58,72.02c0,.1,0,.2.007.313s0,.2.007.31c0,.03,0,.06,0,.09s0,.09,0,.139c0,.185.009.38.014.588l1.805-.677Zm3.327,1.888c.067.292.136.579.21.86.042.164.083.324.127.484s.088.315.131.47c.053.192.111.382.168.57h12.592c.034-.09.069-.181.1-.273a.025.025,0,0,0,.007-.016c.009-.026.018-.051.025-.077.037-.1.069-.2.1-.3.092-.285.177-.582.251-.887.018-.072.037-.146.053-.22.051-.2.095-.4.131-.609ZM592.58,72.02c0,.1,0,.2.007.313s0,.2.007.31c0,.03,0,.06,0,.09s0,.09,0,.139c0,.185.009.38.014.588l1.805-.677Zm3.327,1.888c.067.292.136.579.21.86.042.164.083.324.127.484s.088.315.131.47c.053.192.111.382.168.57h12.592c.034-.09.069-.181.1-.273a.025.025,0,0,0,.007-.016c.009-.026.018-.051.025-.077.037-.1.069-.2.1-.3.092-.285.177-.582.251-.887.018-.072.037-.146.053-.22.051-.2.095-.4.131-.609ZM592.58,72.02c0,.1,0,.2.007.313s0,.2.007.31c0,.03,0,.06,0,.09s0,.09,0,.139c0,.185.009.38.014.588l1.805-.677Zm3.327,1.888c.067.292.136.579.21.86.042.164.083.324.127.484s.088.315.131.47c.053.192.111.382.168.57h12.592c.034-.09.069-.181.1-.273a.025.025,0,0,0,.007-.016c.009-.026.018-.051.025-.077.037-.1.069-.2.1-.3.092-.285.177-.582.251-.887.018-.072.037-.146.053-.22.051-.2.095-.4.131-.609Zm-3.32-1.575c0,.1,0,.2.007.31,0,.03,0,.06,0,.09s0,.09,0,.139c0,.185.009.38.014.588l1.805-.677-1.838-.765c0,.1,0,.2.007.313m22.292-.206-.085-.035-.157-.063-.191-.079-1.049-.424-3-1.219c-.053-.021-.106-.044-.157-.067a.284.284,0,0,1-.046-.019s0,0,0,0a7.881,7.881,0,0,1-4.356-4.863h-6.59a9.074,9.074,0,0,1-4.033,4.722h0c-.168.083-.344.16-.523.229l-2.1.85-.035.014-.3.123h0l-.722.292-.055.023-.166.067-.1.042-.007,0-3.182,1.29-.466.19h0l-1.28.521h0l-.816.331v2.238h34.174V74.054Zm-23.464,1.782,0,0,.1-.035.484-.181.611-.229,1.805-.677.371-.139h0l.337-.125.364-.137.009,0,.078-.03,6.961-2.6,4.759,1.708,2.723.978,0,0,.074.026,3.223,1.156.586.211.226.081Zm1.164-1.888c0,.1,0,.2.007.313s0,.2.007.31c0,.03,0,.06,0,.09s0,.09,0,.139c0,.185.009.38.014.588l1.805-.677Zm3.327,1.888c.067.292.136.579.21.86.042.164.083.324.127.484s.088.315.131.47c.053.192.111.382.168.57h12.592c.034-.09.069-.181.1-.273a.025.025,0,0,0,.007-.016c.009-.026.018-.051.025-.077.037-.1.069-.2.1-.3.092-.285.177-.582.251-.887.018-.072.037-.146.053-.22.051-.2.095-.4.131-.609ZM592.58,72.02c0,.1,0,.2.007.313s0,.2.007.31c0,.03,0,.06,0,.09s0,.09,0,.139c0,.185.009.38.014.588l1.805-.677Zm3.327,1.888c.067.292.136.579.21.86.042.164.083.324.127.484s.088.315.131.47c.053.192.111.382.168.57h12.592c.034-.09.069-.181.1-.273a.025.025,0,0,0,.007-.016c.009-.026.018-.051.025-.077.037-.1.069-.2.1-.3.092-.285.177-.582.251-.887.018-.072.037-.146.053-.22.051-.2.095-.4.131-.609ZM592.58,72.02c0,.1,0,.2.007.313s0,.2.007.31c0,.03,0,.06,0,.09s0,.09,0,.139c0,.185.009.38.014.588l1.805-.677Zm3.327,1.888c.067.292.136.579.21.86.042.164.083.324.127.484s.088.315.131.47c.053.192.111.382.168.57h12.592c.034-.09.069-.181.1-.273a.025.025,0,0,0,.007-.016c.009-.026.018-.051.025-.077.037-.1.069-.2.1-.3.092-.285.177-.582.251-.887.018-.072.037-.146.053-.22.051-.2.095-.4.131-.609ZM592.58,72.02c0,.1,0,.2.007.313s0,.2.007.31c0,.03,0,.06,0,.09s0,.09,0,.139c0,.185.009.38.014.588l1.805-.677Zm3.327,1.888c.067.292.136.579.21.86.042.164.083.324.127.484s.088.315.131.47c.053.192.111.382.168.57h12.592c.034-.09.069-.181.1-.273a.025.025,0,0,0,.007-.016c.009-.026.018-.051.025-.077.037-.1.069-.2.1-.3.092-.285.177-.582.251-.887.018-.072.037-.146.053-.22.051-.2.095-.4.131-.609Z" transform="translate(-493.661 -55.11)" fill="#fff"/>
    <path id="パス_32759" data-name="パス 32759" d="M618.364,75.263H584.19a.235.235,0,0,1-.235-.235V72.79a.235.235,0,0,1,.147-.218l.816-.331.019-.007,1.263-.514.019-.007,3.632-1.474.019-.007,1.034-.419.018-.006.317-.131,2.1-.85q.27-.1.507-.222l.021-.009a8.819,8.819,0,0,0,3.9-4.591.235.235,0,0,1,.218-.146h6.59a.235.235,0,0,1,.221.154,7.585,7.585,0,0,0,4.229,4.728l.019.009.033.013c.047.021.1.043.145.062l9.235,3.747a.235.235,0,0,1,.147.218v2.238a.235.235,0,0,1-.235.235m-10.155-.47h9.92V72.948l-4.6-1.868h0l-4.482-1.819c-.05-.02-.1-.042-.153-.065a.544.544,0,0,1-.068-.029l-.008,0a8.085,8.085,0,0,1-4.409-4.836h-6.269a9.182,9.182,0,0,1-4.086,4.7l-.02.009c-.166.082-.342.158-.524.229l-2.423.985-.021.007-1.031.417-.019.007-3.635,1.476-.019.007-1.263.514-.019.007-.653.265v1.844h10.536q-.04-.135-.078-.272c-.043-.154-.087-.31-.132-.47s-.086-.323-.128-.489c-.055-.207-.109-.427-.169-.682h-4.3a.235.235,0,0,1-.108-.444l0,0,.029-.012,1.032-.385c0-.147-.007-.286-.01-.421,0-.045,0-.092,0-.137s0-.066,0-.1l-.01-.424c0-.069,0-.136,0-.2a.235.235,0,0,1,.326-.217l1.752.729.284-.106.02-.006.684-.255.021-.007.065-.025,6.963-2.6a.235.235,0,0,1,.162,0l7.482,2.685.013.005.063.022,4.038,1.449a.235.235,0,0,1-.079.457h-4.136c-.029.146-.062.29-.1.432-.015.069-.034.146-.053.221-.07.289-.156.594-.255.9-.032.1-.064.2-.1.3-.005.019-.012.039-.019.058m-12.756,0h12.255c.014-.038.028-.077.042-.116,0-.008.006-.015.009-.022s.013-.036.018-.054a.154.154,0,0,1,.007-.02c.035-.1.066-.192.1-.291.1-.3.179-.59.247-.871.019-.073.036-.144.052-.215q.041-.162.075-.324H594.939c.049.206.095.39.141.564s.083.324.126.482.087.314.131.468c.037.135.076.267.116.4m12.354-.205h0m0,0h0m.735-2.178h2.98l-2.836-1.016-.018-.007-7.391-2.652-6.957,2.6-.023.007-.69.258-.018.006-.354.133h0l-1.784.668Zm-16.975-.932c0,.038,0,.078,0,.12,0,.087,0,.174.006.263l.938-.351-.955-.4.006.262c0,.029,0,.053,0,.077,0,.006,0,.012,0,.018Z" transform="translate(-492.396 -53.845)"/>
    <path id="パス_32760" data-name="パス 32760" d="M597.9,93.473l-3.191-1.9s-.006,1.4-.2,3.024c-1.315,11.247-12.134,12.119-14.3,1.159-.224-1.134-.407-2.623-.537-3.9l-2.624,1.327s.5,18.214-.071,21.752-9.912,55.417-9.912,55.417,8.967,3.823,14.427,2.158A3.919,3.919,0,0,0,583,168.71c-.355-2.6,3.691-1.831,3.691-.582,0,1.191-.29,5.177,6.947,3.915a1.806,1.806,0,0,0,1.188-1.81l.126-2.313,2.446.312s-.638,5.412,4.68,4.475,3.333-9.055,3.333-9.055-7.233-43.713-7.729-47.564.213-22.615.213-22.615" transform="translate(-478.157 -77.218)" fill="#99b9ff"/>
    <path id="パス_32761" data-name="パス 32761" d="M599.395,93.643l-4.687-1.605s.889,9.035-7.432,16.884c0,0-5.906-3.622-7.6-16.59l-4.043,1.214s1.916,18.735,1.349,22.347-9.912,54.735-9.912,54.735,8.1,4.2,13.561,2.5a3.218,3.218,0,0,0,2.107-3.485c-.354-2.656,3.959-.727,3.959.548,0,1.216-.29,5.285,6.947,4a1.843,1.843,0,0,0,1.188-1.848l.126-2.361,2.446.319s-.638,5.525,4.68,4.569,3.333-9.244,3.333-9.244-7.233-44.626-7.729-48.558,1.709-23.419,1.709-23.419" transform="translate(-478.157 -77.607)" fill="#fff"/>
    <path id="パス_32762" data-name="パス 32762" d="M758.26,118.56a19.585,19.585,0,0,1-.369-7.583,46.862,46.862,0,0,1,2.077-9.428c-.08,1.57-2.148,15.1-1.708,17.011" transform="translate(-638.891 -85.627)" fill="#99b9ff"/>
    <path id="パス_32763" data-name="パス 32763" d="M623.6,117.29a19.367,19.367,0,0,0,.627-7.522,47.4,47.4,0,0,0-1.759-9.538c.027,1.572,1.637,15.165,1.132,17.06" transform="translate(-524.871 -84.515)" fill="#99b9ff"/>
    <path id="パス_32764" data-name="パス 32764" d="M699.424,244.328l.481,57.848,1.248.047-.466-58.052Z" transform="translate(-589.761 -205.887)" fill="#caddff"/>
    <path id="パス_32765" data-name="パス 32765" d="M714.585,247.83l1.457,57.848,1.248.047-1.441-58.052Z" transform="translate(-602.545 -208.84)" fill="#caddff"/>
    <path id="パス_32766" data-name="パス 32766" d="M730.4,244.948l2.94,53.163,1.248.047-2.925-53.35Z" transform="translate(-615.88 -206.424)" fill="#caddff"/>
    <path id="パス_32767" data-name="パス 32767" d="M745.334,247.83l4.578,57.848,1.248.047L746.6,247.673Z" transform="translate(-628.473 -208.84)" fill="#caddff"/>
    <path id="パス_32768" data-name="パス 32768" d="M757.607,244.612l6.138,57.848,1.248.047-6.549-58Z" transform="translate(-638.822 -206.171)" fill="#caddff"/>
    <path id="パス_32769" data-name="パス 32769" d="M651.251,244.617,648.244,301.7l1.244.122,3.03-57.281Z" transform="translate(-546.606 -206.198)" fill="#caddff"/>
    <path id="パス_32770" data-name="パス 32770" d="M601.838,245.778l-6.5,55.709,1.23.259,6.658-55.9Z" transform="translate(-501.996 -207.242)" fill="#caddff"/>
    <path id="パス_32771" data-name="パス 32771" d="M576.389,390.463l-2.441,20.928,1.23.259,4.144-34.788Z" transform="translate(-483.958 -317.774)" fill="#caddff"/>
    <path id="パス_32772" data-name="パス 32772" d="M626.345,245.571l-4.88,56.6,1.238.2,4.912-56.8Z" transform="translate(-524.024 -207.067)" fill="#caddff"/>
    <path id="パス_32773" data-name="パス 32773" d="M676.578,245.638l-1.125,51.93,1.248.047,1.14-52.112Z" transform="translate(-569.549 -207.01)" fill="#caddff"/>
    <rect id="長方形_10600" data-name="長方形 10600" width="20.59" height="2.35" transform="translate(98.823 37.083)" fill="#5479f7"/>
    <path id="パス_32774" data-name="パス 32774" d="M691.391,457.414h-.015a.235.235,0,0,1-.22-.249c.127-2.02.156-5.989.08-10.618-.178-10.8,0-14,0-14.035a.235.235,0,1,1,.469.027c0,.031-.177,3.23,0,14,.029,1.739.108,7.646-.081,10.656a.235.235,0,0,1-.235.22" transform="translate(-582.789 -364.51)" fill="#5479f7"/>
    <path id="パス_32775" data-name="パス 32775" d="M737.541,442.885a.235.235,0,0,1-.235-.233c0-.085-.08-8.595-.85-17.46a73.018,73.018,0,0,1-.229-9.471.235.235,0,1,1,.469.028,72.591,72.591,0,0,0,.228,9.4c.772,8.885.851,17.412.852,17.5a.235.235,0,0,1-.233.237Z" transform="translate(-620.742 -350.353)" fill="#5479f7"/>
    <path id="パス_32776" data-name="パス 32776" d="M758.876,485.584h-.016a.235.235,0,0,1-.219-.251,187.572,187.572,0,0,0-.074-19.324.235.235,0,1,1,.469-.027,188,188,0,0,1,.074,19.383.235.235,0,0,1-.234.219" transform="translate(-639.63 -392.733)" fill="#5479f7"/>
    <path id="パス_32777" data-name="パス 32777" d="M661,472.191a.235.235,0,0,1-.231-.19c-1.477-7.59-.939-20.883-.933-21.017a.235.235,0,0,1,.47.02c-.006.133-.542,13.372.925,20.907a.235.235,0,0,1-.186.276.232.232,0,0,1-.045,0" transform="translate(-556.296 -380.084)" fill="#5479f7"/>
    <path id="パス_32778" data-name="パス 32778" d="M599.655,173.923a3.563,3.563,0,0,1-2.536-.9,5.07,5.07,0,0,1-1.234-3.815l-1.973-.257-.113,2.108a2.047,2.047,0,0,1-1.382,2.067c-2.814.5-4.838.252-6.015-.742a4.106,4.106,0,0,1-1.209-3.352V168.9c0-.353-.514-.876-1.222-1.244a2.078,2.078,0,0,0-1.882-.25c-.226.159-.31.473-.249.933a3.042,3.042,0,0,1-1.876,3.538c-5.481,1.707-13.9-2.088-14.26-2.251a.235.235,0,0,1-.134-.256c.093-.512,9.351-51.233,9.911-54.8.556-3.541-1.331-22.1-1.35-22.287a.235.235,0,0,1,.166-.249l4.043-1.214a.235.235,0,0,1,.3.2c.113,1.131.3,2.735.534,3.956.934,4.826,3.686,7.861,7,7.733,2.908-.112,6.149-2.907,6.836-8.9.186-1.623.194-2.967.194-2.981a.235.235,0,0,1,.306-.223l4.836,1.524a.235.235,0,0,1,.161.263c-.027.161-2.68,16.227-1.857,23.353.447,3.871,7.592,47.713,7.726,48.538.07.3,1.125,4.932-.666,7.672a4.149,4.149,0,0,1-2.856,1.85,6.817,6.817,0,0,1-1.2.115m-5.965-5.469.03,0,2.446.319a.235.235,0,0,1,.2.26c0,.024-.257,2.405,1.072,3.651a4.285,4.285,0,0,0,5.877-.984c1.7-2.6.612-7.267.6-7.314a.155.155,0,0,1,0-.017c-.073-.446-7.28-44.669-7.731-48.569-.781-6.754,1.521-21.391,1.827-23.283l-4.342-1.368c-.013.5-.056,1.535-.191,2.714-.718,6.268-4.176,9.2-7.285,9.315-.074,0-.148,0-.221,0-3.463,0-6.3-3.157-7.258-8.118-.22-1.139-.4-2.6-.511-3.715l-3.585,1.077c.213,2.1,1.868,18.768,1.327,22.214-.544,3.466-9.266,51.267-9.88,54.631,1.224.529,8.862,3.68,13.76,2.155a2.549,2.549,0,0,0,1.548-3.026,1.325,1.325,0,0,1,.445-1.38,2.5,2.5,0,0,1,2.37.217c.681.354,1.475,1,1.475,1.661v.138a3.645,3.645,0,0,0,1.042,2.989c1.065.9,2.958,1.113,5.629.638.522-.093.95-.793.994-1.629l.126-2.361a.235.235,0,0,1,.235-.223" transform="translate(-476.892 -76.392)" fill="#5479f7"/>
    <path id="パス_32779" data-name="パス 32779" d="M514.476,669a.235.235,0,0,1-.067-.461c14.019-4.159,25.624-12.137,32.677-22.466a.235.235,0,0,1,.388.265,52.843,52.843,0,0,1-13.955,13.77,67.566,67.566,0,0,1-18.976,8.882.237.237,0,0,1-.067.01" transform="translate(-433.612 -544.689)"/>
    <path id="パス_32780" data-name="パス 32780" d="M567.79,722.594a1.924,1.924,0,0,1-1.859-2.424,1.9,1.9,0,0,1,.9-1.161,1.923,1.923,0,0,1,2.8,2.173,1.908,1.908,0,0,1-1.84,1.412m.828-.456h0Zm-.846-2.911a1.443,1.443,0,0,0-1.244,2.165,1.449,1.449,0,0,0,1.974.542,1.446,1.446,0,0,0,.532-1.975,1.454,1.454,0,0,0-1.262-.731" transform="translate(-477.142 -606.063)"/>
    <path id="パス_32781" data-name="パス 32781" d="M539.925,741.346a.235.235,0,0,1-.226-.3l.633-2.2a.235.235,0,0,1,.385-.108c.788.722,1.518,1.515,1.525,1.523a.235.235,0,0,1-.1.383l-2.144.694a.234.234,0,0,1-.072.011m.753-2-.405,1.409,1.37-.443c-.224-.235-.577-.6-.965-.966" transform="translate(-455.071 -622.856)"/>
    <path id="パス_32782" data-name="パス 32782" d="M618.79,667.879a4.471,4.471,0,0,1-.587-.042.235.235,0,1,1,.062-.466c.72.1,1.215.006,1.429-.258s.134-.7.056-1.119c-.09-.481-.183-.978.16-1.305s.855-.2,1.3-.088c.388.1.754.192.958.019.239-.2.186-.7.135-1.177-.059-.551-.119-1.12.288-1.381a.978.978,0,0,1,.95.077.938.938,0,0,0,.738.125c.209-.1.276-.322.377-.715a3.089,3.089,0,0,1,.472-1.127,3.439,3.439,0,0,1,2.7-1.136.235.235,0,0,1,.029.469,3.014,3.014,0,0,0-2.349.946,2.625,2.625,0,0,0-.4.965,1.1,1.1,0,0,1-1.758.905c-.253-.11-.414-.173-.509-.112-.162.1-.115.545-.074.935.061.573.13,1.222-.3,1.586a1.492,1.492,0,0,1-1.378.078c-.362-.092-.7-.179-.863-.027s-.092.5-.022.879a1.771,1.771,0,0,1-.152,1.5,1.536,1.536,0,0,1-1.269.471" transform="translate(-521.102 -555.914)"/>
    <path id="パス_32783" data-name="パス 32783" d="M91.652,768.98s-4.418,1.538-7,.855c0,0-3.207,2.79-3.165,4.265l11.22-.217Z" transform="translate(-68.713 -648.411)" fill="#fff"/>
    <path id="パス_32784" data-name="パス 32784" d="M80,772.675l-.007-.233c-.044-1.542,2.909-4.156,3.246-4.449l.094-.082.12.032c2.479.657,6.815-.834,6.858-.849l.251-.088,1.176,5.441Zm3.456-4.247c-.862.766-2.744,2.641-2.971,3.767l10.673-.207-.944-4.367c-.97.313-4.464,1.346-6.758.807" transform="translate(-67.449 -646.747)"/>
    <path id="パス_32785" data-name="パス 32785" d="M28.893,753.093s-2.768-3.309-3.994-3.366c-1.033-.048-9.259,7.533-11.878,10.062a.832.832,0,0,0,.355,1.4c1.539.392,5.065.383,12.976-2.351a1.171,1.171,0,0,0,.775-.945l.34-2.427-1.661-.209Z" transform="translate(-10.765 -632.177)" fill="#fff"/>
    <path id="パス_32786" data-name="パス 32786" d="M13.867,760.347a7.389,7.389,0,0,1-1.812-.192,1.034,1.034,0,0,1-.75-.749,1.077,1.077,0,0,1,.29-1.05c.105-.1,10.6-10.128,12.038-10.128h.013c1.291.06,3.873,3.1,4.163,3.45a.235.235,0,0,1-.045.343l-2.588,1.817,1.057.133a.235.235,0,0,1,.2.266l-.34,2.427a1.4,1.4,0,0,1-.931,1.134c-5.725,1.978-9.2,2.548-11.3,2.548M23.624,748.7c-.845.006-8.058,6.476-11.7,10a.6.6,0,0,0-.162.592.57.57,0,0,0,.412.414c1.59.4,5.108.327,12.841-2.346a.931.931,0,0,0,.619-.755l.307-2.19-1.424-.179a.235.235,0,0,1-.106-.426l2.876-2.018c-.864-1-2.8-3.047-3.659-3.087" transform="translate(-9.501 -630.913)"/>
    <path id="パス_32787" data-name="パス 32787" d="M58.861,805.515a.235.235,0,0,1-.224-.165l-.7-2.237a.235.235,0,0,1,.449-.141l.7,2.237a.236.236,0,0,1-.224.306" transform="translate(-48.84 -676.934)"/>
    <path id="パス_32788" data-name="パス 32788" d="M67.689,801.687a.235.235,0,0,1-.224-.165l-.7-2.237a.235.235,0,1,1,.449-.141l.7,2.237a.235.235,0,0,1-.154.295.232.232,0,0,1-.071.011" transform="translate(-56.284 -673.707)"/>
    <path id="パス_32789" data-name="パス 32789" d="M24.067,765.688a.235.235,0,0,1-.153-.414l10.512-8.987a.235.235,0,0,1,.306.357l-10.512,8.987a.234.234,0,0,1-.153.056" transform="translate(-20.095 -637.661)"/>
    <path id="パス_32790" data-name="パス 32790" d="M379.978,776.016c.01-1.051.027-2.717.058-4.854l3.132.446,2.592-2.381s7.438,2.721,11.04,6.161a1.118,1.118,0,0,1-.581,1.919,65.4,65.4,0,0,1-14.989.143,1.424,1.424,0,0,1-1.253-1.435" transform="translate(-320.401 -648.62)" fill="#fff"/>
    <path id="パス_32791" data-name="パス 32791" d="M386.815,776.784a61.388,61.388,0,0,1-6.876-.365,1.655,1.655,0,0,1-1.462-1.671c.009-1.027.027-2.7.059-4.855a.235.235,0,0,1,.268-.229l3.022.43,2.51-2.306a.235.235,0,0,1,.24-.048c.306.112,7.525,2.777,11.122,6.212a1.362,1.362,0,0,1,.361,1.4,1.325,1.325,0,0,1-1.069.919,59.279,59.279,0,0,1-8.175.509M379,770.167c-.029,2.023-.045,3.6-.055,4.585a1.186,1.186,0,0,0,1.045,1.2,64.643,64.643,0,0,0,14.926-.142.846.846,0,0,0,.691-.6.894.894,0,0,0-.237-.921c-3.262-3.115-9.808-5.675-10.825-6.061l-2.486,2.283a.234.234,0,0,1-.192.06Zm-.29,4.583h0Z" transform="translate(-319.136 -647.354)"/>
    <path id="パス_32792" data-name="パス 32792" d="M403.3,810.961c-3.334,0-5.861-.224-5.9-.228a.235.235,0,0,1,.043-.468,69.267,69.267,0,0,0,12.623-.146.235.235,0,0,1,.058.467,56.794,56.794,0,0,1-6.822.375" transform="translate(-334.91 -683.099)"/>
    <path id="パス_32793" data-name="パス 32793" d="M444.314,785.362a.245.245,0,0,1-.049-.005.235.235,0,0,1-.182-.279l.592-2.829a.235.235,0,1,1,.46.1l-.592,2.829a.235.235,0,0,1-.23.187" transform="translate(-374.451 -659.443)"/>
    <path id="パス_32794" data-name="パス 32794" d="M435.486,781.533a.245.245,0,0,1-.049-.005.235.235,0,0,1-.182-.278l.592-2.829a.235.235,0,1,1,.46.1l-.592,2.829a.235.235,0,0,1-.23.187" transform="translate(-367.008 -656.215)"/>
    <path id="パス_32795" data-name="パス 32795" d="M226.724,546.473c.151-.128,14.253-10.323,18.1-9.229,6.58,1.872,5.3,21.663,5.162,26.9-.133,5.1-24.054-10.2-24.791-11.544s-1.176-3.833,1.527-6.125" transform="translate(-189.419 -452.94)"/>
    <path id="パス_32796" data-name="パス 32796" d="M159.7,598.971l.064.058c4.125,3.726,5.823,7.433,5.528,12.2-.288,4.663-6.844,7.994-28.066,5.566-4.463-.645-13.411-1.161-17.283-1.284a1.479,1.479,0,0,1-1.424-1.508l.054-3.693a1.492,1.492,0,0,1,.725-1.261,31.6,31.6,0,0,1,18.34-4.576c.33.013.275-.336-.047-.408-5.463-1.215-13.9-1.781-16.257-3.783-4.567-3.875-3.72-10.753-2.731-14.948,2.886-12.246,20.9.539,21.03.569h0c.036.021,2.439,1.432,5.61,3.37Z" transform="translate(-99.353 -489.087)"/>
    <path id="パス_32797" data-name="パス 32797" d="M247.432,735.418a.235.235,0,0,1-.122-.034c-.039-.024-4.015-2.382-13.5-2.606a.235.235,0,0,1-.23-.241.232.232,0,0,1,.241-.229c9.63.228,13.569,2.575,13.732,2.675a.235.235,0,0,1-.123.436" transform="translate(-196.959 -617.489)" fill="#fff"/>
    <path id="パス_32798" data-name="パス 32798" d="M270.924,635.015a.233.233,0,0,1-.144-.049c-.114-.088-11.531-8.872-19.475-10.855a.235.235,0,0,1,.114-.457c8.038,2.007,19.533,10.85,19.649,10.939a.235.235,0,0,1-.144.421" transform="translate(-211.753 -525.865)" fill="#caddff"/>
    <path id="パス_32799" data-name="パス 32799" d="M49.172,242.275s2.4-.7.7-4.791c-1.708-4.119-6.269-2.355-8.053-2.394s-5.541-2.589-6.856-3.167-5.689-3.341-11.011,2.357c0,0-.795,1.443-5.556,1.695-4.142.219-11.041,3.553-7.87,8.681a6.8,6.8,0,0,0,3.936,2.975c.291.082.608.157.95.219a2.95,2.95,0,0,1,2.212,1.859c1.245,3.214,5.076,9.23,14.971,1.346a2.885,2.885,0,0,1,2.6-.529c1.1.314,2.477,1.915,7.371.51,3.144-.9,3.662-4.546,4.282-6.255a4.04,4.04,0,0,1,2.322-2.506" transform="translate(-8.195 -194.567)"/>
    <path id="パス_32800" data-name="パス 32800" d="M200.945,305.735s.253.748.369,1.076a5.743,5.743,0,0,0,1.294,2.381.269.269,0,0,1,.006.354l-.664.793a.253.253,0,0,0-.057.2c.058.439.267,2.048.257,2.355a1.213,1.213,0,0,1-.372.8,6.234,6.234,0,0,1-1.932.27s-.415.1-.925,2.465c-.358,1.665,2.126,3.394,2.126,3.394s-5.581,2.252-10.278.294a.427.427,0,0,1-.055-.728,11.964,11.964,0,0,0,4-4.954.543.543,0,0,1,.3-.317c.568-.242,2.12-.683,1.844-3.3a.391.391,0,0,0-.071-.186c-.329-.457-1.833-2.709.749-2.393a2.024,2.024,0,0,0,2.372-1.612.754.754,0,0,1,.336-.45Z" transform="translate(-160.663 -257.799)" fill="#fff"/>
    <path id="パス_32801" data-name="パス 32801" d="M193.857,319.889a11.533,11.533,0,0,1-4.443-.825.612.612,0,0,1-.371-.5.688.688,0,0,1,.266-.635,11.829,11.829,0,0,0,3.924-4.846.78.78,0,0,1,.425-.453l.124-.051c.635-.257,1.818-.734,1.578-3.009a.155.155,0,0,0-.028-.074c-.334-.464-1.066-1.618-.655-2.314.238-.4.784-.553,1.623-.45a1.785,1.785,0,0,0,2.115-1.438.984.984,0,0,1,.44-.591l.7-.435a.235.235,0,0,1,.347.125s.252.746.368,1.072c.015.043.032.1.053.164a5.277,5.277,0,0,0,1.192,2.136.5.5,0,0,1,.013.665l-.664.793c.1.779.265,2.108.255,2.409a1.442,1.442,0,0,1-.467.978,5.18,5.18,0,0,1-1.995.315,5.646,5.646,0,0,0-.773,2.281c-.322,1.494,2.006,3.135,2.03,3.152a.235.235,0,0,1-.046.411,17.68,17.68,0,0,1-6.013,1.118m1.965-12.716c-.386,0-.643.086-.741.251-.207.35.168,1.156.631,1.8a.623.623,0,0,1,.114.3c.278,2.627-1.227,3.235-1.87,3.494l-.116.047a.31.31,0,0,0-.167.18,12.3,12.3,0,0,1-4.083,5.062.22.22,0,0,0-.082.2.144.144,0,0,0,.086.122c3.841,1.6,8.356.3,9.7-.152-.7-.57-2.174-1.96-1.87-3.369.349-1.619.739-2.558,1.1-2.644a.24.24,0,0,1,.052-.007,5.63,5.63,0,0,0,1.795-.223.994.994,0,0,0,.278-.617c.006-.189-.091-1.077-.255-2.317a.49.49,0,0,1,.11-.378l.664-.793a.035.035,0,0,0,0-.044,5.712,5.712,0,0,1-1.3-2.316c-.018-.059-.034-.108-.047-.146-.071-.2-.191-.551-.275-.8l-.45.278a.517.517,0,0,0-.232.309,2.278,2.278,0,0,1-2.628,1.787,3.506,3.506,0,0,0-.421-.028" transform="translate(-159.397 -256.534)"/>
    <path id="パス_32802" data-name="パス 32802" d="M228.67,334.522a1.165,1.165,0,0,1-1-.625.235.235,0,1,1,.4-.251.731.731,0,0,0,.59.406.718.718,0,0,0,.491-.2.235.235,0,0,1,.446.147.977.977,0,0,1-.759.507,1.08,1.08,0,0,1-.164.013" transform="translate(-191.941 -281.241)"/>
    <path id="パス_32803" data-name="パス 32803" d="M239.32,310.015a.235.235,0,0,1-.034-.468.824.824,0,0,0,.643-.4,2.883,2.883,0,0,0-.074-1.987l-5.367,1.621a.235.235,0,1,1-.136-.45l5.581-1.686a.235.235,0,0,1,.286.138,3.652,3.652,0,0,1,.117,2.6,1.282,1.282,0,0,1-.983.627l-.034,0" transform="translate(-197.468 -258.561)"/>
    <path id="パス_32804" data-name="パス 32804" d="M235.284,341.988a.427.427,0,0,0-.509-.328.432.432,0,0,0-.325.515.427.427,0,0,0,.509.329.432.432,0,0,0,.325-.515" transform="translate(-197.682 -288.082)" fill="#5479f7"/>
    <path id="パス_32805" data-name="パス 32805" d="M204.425,285.852s6.224,2.065,8.784,1.8c3.6-.367,7.585-11.473,7.863-12.237s1.234-4.851,2.168-6.228a20.379,20.379,0,0,0,1.86-3.51c.213-.511.613-.708.959-.594a.988.988,0,0,1,.529,1.347c-.354.883-.685,1.776-.98,2.533-.093.238-.23.455-.03.308.467-.341,1.056-.655,1.441-.436.722.411,1.112,3.173-.056,5.111s-2.449,1.483-2.838,2.423-3.617,13.149-4.943,15.26c-1.907,3.037-15.235,3.364-17.236,3.306s2.48-9.089,2.48-9.089" transform="translate(-169.848 -223.499)" fill="#fff"/>
    <path id="パス_32806" data-name="パス 32806" d="M200.83,293.909h-.1a.675.675,0,0,1-.586-.336c-.877-1.462,2.477-8.315,2.862-9.092l.091-.183.194.064c.062.021,6.206,2.046,8.686,1.794,3.241-.33,6.943-10.092,7.652-12.046l.014-.038c.068-.186.182-.6.328-1.115a23.241,23.241,0,0,1,1.866-5.164,20.1,20.1,0,0,0,1.838-3.468,1.041,1.041,0,0,1,1.25-.727,1.211,1.211,0,0,1,.673.626,1.265,1.265,0,0,1,0,1.032c-.222.554-.433,1.105-.636,1.638-.08.209-.157.412-.233.608a1.229,1.229,0,0,1,1.2-.134,1.779,1.779,0,0,1,.645,1.088,6.027,6.027,0,0,1-.615,4.349,4.053,4.053,0,0,1-2.043,1.784c-.392.178-.65.3-.78.608-.107.259-.468,1.509-.924,3.092-1.151,3.992-3.077,10.674-4.038,12.2-2.072,3.3-16.019,3.416-17.342,3.416m2.508-9.037c-1.406,2.865-3.339,7.543-2.79,8.459a.209.209,0,0,0,.2.108c3.124.092,15.321-.474,17.03-3.2.926-1.474,2.84-8.115,3.984-12.084.478-1.659.824-2.858.941-3.142a1.682,1.682,0,0,1,1.02-.856,3.6,3.6,0,0,0,1.834-1.6,5.61,5.61,0,0,0,.563-3.988,1.345,1.345,0,0,0-.422-.8c-.217-.124-.65.03-1.186.422a.307.307,0,0,1-.384.038c-.16-.129-.079-.311-.008-.472.02-.046.043-.1.064-.15.109-.28.223-.579.342-.889.2-.535.416-1.088.639-1.645a.806.806,0,0,0,.009-.659.752.752,0,0,0-.394-.377c-.25-.083-.519.1-.668.461a20.6,20.6,0,0,1-1.883,3.552,23.126,23.126,0,0,0-1.8,5.027c-.148.529-.265.946-.339,1.149l-.014.037c-1.02,2.81-4.614,12-8.047,12.353a5.092,5.092,0,0,1-.515.024c-2.528,0-7.151-1.446-8.172-1.776" transform="translate(-168.641 -222.231)"/>
    <rect id="長方形_10601" data-name="長方形 10601" width="10.283" height="8.265" transform="matrix(0.984, -0.179, 0.179, 0.984, 70.382, 42.82)" fill="#5479f7"/>
    <path id="パス_32807" data-name="パス 32807" d="M449.115,270.292a.235.235,0,0,1-.231-.193l-1.479-8.132a.235.235,0,0,1,.189-.274l10.116-1.843a.235.235,0,0,1,.273.189l1.479,8.132a.235.235,0,0,1-.189.274l-10.116,1.843a.223.223,0,0,1-.042,0m-1.206-8.178,1.395,7.669,9.654-1.759-1.4-7.669Z" transform="translate(-377.252 -219.105)"/>
    <rect id="長方形_10602" data-name="長方形 10602" width="10.283" height="9.279" transform="translate(76.411 41.168) rotate(-10.326)" fill="#5479f7"/>
    <path id="パス_32808" data-name="パス 32808" d="M487.747,260.749a.235.235,0,0,1-.231-.193l-1.661-9.129a.235.235,0,0,1,.189-.274l10.116-1.843a.235.235,0,0,1,.273.189l1.661,9.129a.235.235,0,0,1-.189.273l-10.116,1.843a.238.238,0,0,1-.042,0m-1.387-9.175,1.576,8.666,9.653-1.759-1.576-8.666Z" transform="translate(-409.675 -210.218)"/>
    <rect id="長方形_10603" data-name="長方形 10603" width="7.162" height="10.567" transform="translate(84.184 39.1) rotate(-10.325)" fill="#99b9ff"/>
    <path id="パス_32809" data-name="パス 32809" d="M537.16,251.674l-1.975-10.859,7.508-1.368,1.975,10.859Zm-1.428-10.48,1.807,9.933,6.583-1.2-1.807-9.933Z" transform="translate(-451.273 -201.904)"/>
    <path id="パス_32810" data-name="パス 32810" d="M546.536,296.826a.235.235,0,0,1-.042-.467l6.826-1.244a.235.235,0,1,1,.084.463l-6.826,1.244a.23.23,0,0,1-.042,0" transform="translate(-460.647 -248.841)"/>
    <path id="パス_32811" data-name="パス 32811" d="M544.521,285.74a.235.235,0,0,1-.042-.467l6.826-1.244a.235.235,0,1,1,.084.463l-6.826,1.244a.231.231,0,0,1-.042,0" transform="translate(-458.947 -239.493)"/>
    <path id="パス_32812" data-name="パス 32812" d="M542.5,274.652a.235.235,0,0,1-.042-.467l6.826-1.244a.235.235,0,1,1,.084.463l-6.826,1.244a.229.229,0,0,1-.042,0" transform="translate(-457.246 -230.144)"/>
    <path id="パス_32813" data-name="パス 32813" d="M540.487,263.565a.235.235,0,0,1-.042-.467l6.826-1.244a.235.235,0,1,1,.084.463l-6.826,1.244a.226.226,0,0,1-.042,0" transform="translate(-455.545 -220.795)"/>
    <path id="パス_32814" data-name="パス 32814" d="M538.469,252.478a.235.235,0,0,1-.042-.467l6.826-1.244a.235.235,0,0,1,.084.463l-6.826,1.243a.229.229,0,0,1-.042,0" transform="translate(-453.845 -211.446)"/>
    <path id="パス_32815" data-name="パス 32815" d="M370.593,267.35l-12.8,2.333A1.536,1.536,0,0,1,356,268.447l-2.036-11.192a1.536,1.536,0,0,1,1.236-1.786l12.8-2.333a1.536,1.536,0,0,1,1.786,1.236l2.036,11.192a1.536,1.536,0,0,1-1.236,1.786" transform="translate(-298.447 -213.426)"/>
    <path id="パス_32816" data-name="パス 32816" d="M430.288,270.681a.235.235,0,0,1-.231-.193l-2.474-13.546a.235.235,0,0,1,.463-.085L430.52,270.4a.235.235,0,0,1-.189.274.227.227,0,0,1-.042,0" transform="translate(-360.538 -216.422)" fill="#5479f7"/>
    <path id="パス_32817" data-name="パス 32817" d="M369.231,246.176l-3.234.589a.849.849,0,0,1-.988-.683l-.6-3.307a.849.849,0,0,1,.683-.987l3.234-.589a.849.849,0,0,1,.988.683l.6,3.307a.849.849,0,0,1-.683.987" transform="translate(-307.26 -203.369)"/>
    <path id="パス_32818" data-name="パス 32818" d="M374.41,251.633l-1.9.347a.213.213,0,0,1-.248-.171l-.391-2.151a.213.213,0,0,1,.171-.248l1.9-.347a.213.213,0,0,1,.248.171l.391,2.151a.212.212,0,0,1-.171.247" transform="translate(-313.56 -210.01)" fill="#5479f7"/>
    <path id="パス_32819" data-name="パス 32819" d="M374.995,245.047l-1.439.262Z" transform="translate(-314.986 -206.626)"/>
    <path id="パス_32820" data-name="パス 32820" d="M375.746,284.76l-6.988,1.273a.7.7,0,0,1-.813-.563l-1.42-7.806a.7.7,0,0,1,.563-.813l6.988-1.273a.7.7,0,0,1,.813.563l1.42,7.806a.7.7,0,0,1-.563.813" transform="translate(-309.047 -232.361)" fill="#5479f7"/>
    <rect id="長方形_10604" data-name="長方形 10604" width="0.977" height="1.11" transform="translate(64.195 44.084) rotate(-10.329)" fill="#99b9ff"/>
    <rect id="長方形_10605" data-name="長方形 10605" width="0.977" height="1.11" transform="translate(62.307 44.428) rotate(-10.329)" fill="#99b9ff"/>
    <path id="パス_32821" data-name="パス 32821" d="M335.731,312.407s6.224,2.065,8.784,1.8c3.6-.367,7.585-11.473,7.863-12.237s1.234-4.851,2.168-6.228a20.379,20.379,0,0,0,1.86-3.51c.213-.511.613-.708.959-.594a.988.988,0,0,1,.53,1.347c-.354.883-.685,1.776-.98,2.532-.093.238-.23.455-.03.308.467-.341,4.163-4.958,4.548-4.739.722.411-.365,7.861-1.532,9.8s-4.08,1.1-4.469,2.038-3.617,13.149-4.943,15.26c-1.907,3.037-15.235,3.364-17.236,3.306s2.48-9.089,2.48-9.089" transform="translate(-280.567 -245.446)" fill="#fff"/>
    <path id="パス_32822" data-name="パス 32822" d="M332.136,320.45h-.1a.675.675,0,0,1-.586-.336c-.877-1.462,2.477-8.315,2.862-9.092l.091-.183.194.064c.062.021,6.206,2.047,8.686,1.794,3.241-.33,6.943-10.092,7.652-12.046l.014-.038c.068-.186.182-.6.328-1.115a23.234,23.234,0,0,1,1.866-5.164,20.131,20.131,0,0,0,1.838-3.468,1.041,1.041,0,0,1,1.249-.727,1.21,1.21,0,0,1,.673.625,1.265,1.265,0,0,1,0,1.032c-.223.558-.435,1.112-.64,1.649l-.092.239c.225-.254.483-.552.738-.845,2.659-3.061,3.1-3.422,3.43-3.232a.629.629,0,0,1,.263.417c.4,1.524-.608,7.877-1.71,9.708a3.981,3.981,0,0,1-3.16,1.574c-.608.086-1.183.167-1.293.432s-.468,1.509-.924,3.092c-1.151,3.992-3.077,10.674-4.038,12.2-2.072,3.3-16.02,3.416-17.343,3.416m2.508-9.037c-1.406,2.865-3.339,7.543-2.79,8.459a.209.209,0,0,0,.2.108c3.124.092,15.321-.474,17.03-3.2.926-1.474,2.84-8.116,3.984-12.084.478-1.659.824-2.858.941-3.141.212-.513.884-.608,1.662-.718a3.56,3.56,0,0,0,2.823-1.351c1.147-1.9,2.012-8.506,1.646-9.411a31.632,31.632,0,0,0-2.871,3.069,18.494,18.494,0,0,1-1.451,1.592.307.307,0,0,1-.384.038c-.16-.129-.079-.311-.008-.472.021-.046.043-.1.064-.15.108-.277.221-.572.338-.879.206-.538.418-1.094.643-1.655a.807.807,0,0,0,.009-.659.753.753,0,0,0-.394-.377c-.25-.083-.519.1-.668.461a20.6,20.6,0,0,1-1.883,3.552,23.138,23.138,0,0,0-1.8,5.027c-.148.529-.264.946-.339,1.149l-.013.037c-1.02,2.81-4.614,12-8.047,12.353a5.13,5.13,0,0,1-.515.024c-2.528,0-7.151-1.446-8.172-1.776" transform="translate(-279.359 -244.164)"/>
    <path id="パス_32823" data-name="パス 32823" d="M124.947,414.8c1.251-2.419,1.284-9.612,1.252-12.106-.569-14.787,4.874-17.508,6.707-18a29.09,29.09,0,0,1,9.259-.147c6.217.8,19.031,6.089,19.031,6.089s-4.747,10.488-4.855,10.511c-4.793,1.025-5.042,1.213-5.343,2.285-.426,1.519-.438,2.493-1.505,3.514-1.841,1.76-3.131,1.41-3.762,2.543a32.04,32.04,0,0,0-3.722,9.954c-1.363,5.823-11.693,3.665-16.906,1.636-.569-.221-1.963-.621-2.136-1.058s-.1-.84.568-2.47c.384-.939.885-1.727,1.412-2.746" transform="translate(-103.621 -324.001)" fill="#5479f7"/>
  </g>
</svg>
