<svg xmlns="http://www.w3.org/2000/svg" width="117.338" height="19.474" viewBox="0 0 117.338 19.474">
  <g id="グループ_1529" data-name="グループ 1529" transform="translate(-26.444 -25.708)">
    <path id="パス_33184" data-name="パス 33184" d="M2.444-18.2H10.4a11.417,11.417,0,0,1,5.174,1.131,8.371,8.371,0,0,1,3.51,3.2A9.048,9.048,0,0,1,20.332-9.1a9.048,9.048,0,0,1-1.248,4.771,8.371,8.371,0,0,1-3.51,3.2A11.417,11.417,0,0,1,10.4,0H2.444Zm7.8,15.34a7.724,7.724,0,0,0,3.523-.767,5.487,5.487,0,0,0,2.34-2.184A6.455,6.455,0,0,0,16.926-9.1a6.455,6.455,0,0,0-.819-3.289,5.487,5.487,0,0,0-2.34-2.184,7.724,7.724,0,0,0-3.523-.767H5.824V-2.86Zm25.376-4q0,.338-.052.962H24.674a3.776,3.776,0,0,0,1.5,2.431,4.9,4.9,0,0,0,3,.9,5.061,5.061,0,0,0,3.77-1.508l1.742,2A5.869,5.869,0,0,1,32.318-.39a8.618,8.618,0,0,1-3.224.572,8.58,8.58,0,0,1-4.03-.91,6.554,6.554,0,0,1-2.691-2.535,7.159,7.159,0,0,1-.949-3.679,7.265,7.265,0,0,1,.923-3.653,6.547,6.547,0,0,1,2.561-2.535,7.472,7.472,0,0,1,3.692-.91,7.285,7.285,0,0,1,3.627.9,6.353,6.353,0,0,1,2.5,2.522A7.647,7.647,0,0,1,35.62-6.864ZM28.6-11.44a3.92,3.92,0,0,0-2.639.923A3.883,3.883,0,0,0,24.648-8.06h7.878A3.831,3.831,0,0,0,31.252-10.5,3.874,3.874,0,0,0,28.6-11.44Zm9.1-7.852h3.25V0H37.7Zm6.474,0h3.25V0h-3.25ZM55.952-14.04a6.77,6.77,0,0,1,4.693,1.469A5.678,5.678,0,0,1,62.27-8.138V0H59.2V-1.69A3.781,3.781,0,0,1,57.5-.3a6.657,6.657,0,0,1-2.665.481A6.529,6.529,0,0,1,52.1-.351,4.218,4.218,0,0,1,50.3-1.833a3.761,3.761,0,0,1-.637-2.145,3.676,3.676,0,0,1,1.391-3,6.908,6.908,0,0,1,4.381-1.131H59.02V-8.32a2.846,2.846,0,0,0-.871-2.236,3.768,3.768,0,0,0-2.587-.78,7.467,7.467,0,0,0-2.3.364A5.653,5.653,0,0,0,51.35-9.958l-1.274-2.366A7.889,7.889,0,0,1,52.7-13.6,11.684,11.684,0,0,1,55.952-14.04ZM55.51-2.184a4.2,4.2,0,0,0,2.171-.559,3.042,3.042,0,0,0,1.339-1.6V-5.954H55.666q-2.808,0-2.808,1.846a1.657,1.657,0,0,0,.7,1.4A3.218,3.218,0,0,0,55.51-2.184ZM88.556,0,88.53-12.064,82.55-2.08H81.042l-5.98-9.828V0H71.838V-18.2H74.62L81.848-6.136l7.1-12.064h2.782L91.754,0ZM100.62-14.04a6.77,6.77,0,0,1,4.693,1.469,5.678,5.678,0,0,1,1.625,4.433V0H103.87V-1.69a3.781,3.781,0,0,1-1.7,1.391A6.657,6.657,0,0,1,99.5.182a6.529,6.529,0,0,1-2.73-.533,4.218,4.218,0,0,1-1.807-1.482,3.761,3.761,0,0,1-.637-2.145,3.676,3.676,0,0,1,1.391-3A6.908,6.908,0,0,1,100.1-8.112h3.588V-8.32a2.846,2.846,0,0,0-.871-2.236,3.768,3.768,0,0,0-2.587-.78,7.467,7.467,0,0,0-2.3.364,5.653,5.653,0,0,0-1.911,1.014l-1.274-2.366A7.889,7.889,0,0,1,97.37-13.6,11.684,11.684,0,0,1,100.62-14.04Zm-.442,11.856a4.2,4.2,0,0,0,2.171-.559,3.042,3.042,0,0,0,1.339-1.6V-5.954h-3.354q-2.808,0-2.808,1.846a1.657,1.657,0,0,0,.7,1.4A3.218,3.218,0,0,0,100.178-2.184Zm9.88-17.108h3.25V0h-3.25Zm6.474,0h3.25V0h-3.25Z" transform="translate(24 45)" fill="#333"/>
  </g>
</svg>
