<svg id="グループ_6392" data-name="グループ 6392" xmlns="http://www.w3.org/2000/svg" xmlns:xlink="http://www.w3.org/1999/xlink" width="130" height="130.127" viewBox="0 0 130 130.127">
  <defs>
    <clipPath id="clip-path">
      <rect id="長方形_10610" data-name="長方形 10610" width="130" height="130.127" fill="none"/>
    </clipPath>
  </defs>
  <g id="グループ_6391" data-name="グループ 6391" clip-path="url(#clip-path)">
    <path id="パス_33051" data-name="パス 33051" d="M98.688,33.729c-13.567-13.685-9.683-22.261-18.966-28.6C65.438-4.618,38.778,3.77,23.05,17.18,3.787,33.6-6.152,63.592,5.17,90.722c12.057,28.892,43.782,43.89,72.09,39.37,25.279-4.036,50.129-24,52.619-47.951.27-2.6,1.461-16.627-6.895-28.724-6.907-10-13.541-8.84-24.3-19.688" transform="translate(-0.331 -0.759)" fill="#caddff"/>
    <path id="パス_33052" data-name="パス 33052" d="M46.794,429.415l-.858,7.954,62.973-4.778-.754-8.7Z" transform="translate(-38.735 -357.444)" fill="#fff"/>
    <path id="パス_33053" data-name="パス 33053" d="M44.67,436.338a.235.235,0,0,1-.234-.26l.858-7.954a.235.235,0,0,1,.213-.209l61.361-5.525a.235.235,0,0,1,.255.214l.754,8.7a.234.234,0,0,1-.216.255l-62.973,4.778H44.67m1.071-7.972-.807,7.481,62.454-4.738-.713-8.23Z" transform="translate(-37.47 -356.179)"/>
    <path id="パス_33054" data-name="パス 33054" d="M47.68,452.218a.235.235,0,0,1-.019-.469l61.957-5.19a.235.235,0,0,1,.039.469L47.7,452.217h-.02" transform="translate(-40.008 -376.559)"/>
    <path id="パス_33055" data-name="パス 33055" d="M47.375,463.911a.235.235,0,0,1-.019-.469l62.215-5.248a.235.235,0,0,1,.04.469L47.395,463.91h-.02" transform="translate(-39.75 -386.371)"/>
    <path id="パス_33056" data-name="パス 33056" d="M242.954,448.651l-.287,5.94Z" transform="translate(-204.629 -378.324)" fill="#fff"/>
    <path id="パス_33057" data-name="パス 33057" d="M241.4,453.56h-.011a.235.235,0,0,1-.224-.246l.287-5.94a.235.235,0,1,1,.47.023l-.287,5.94a.235.235,0,0,1-.235.224" transform="translate(-203.364 -377.058)"/>
    <path id="パス_33058" data-name="パス 33058" d="M172.52,452.957l-.2,6.9Z" transform="translate(-145.312 -381.955)" fill="#fff"/>
    <path id="パス_33059" data-name="パス 33059" d="M171.06,458.821h-.007a.235.235,0,0,1-.228-.242l.2-6.9a.231.231,0,0,1,.242-.228.235.235,0,0,1,.228.242l-.2,6.9a.235.235,0,0,1-.235.228" transform="translate(-144.047 -380.688)"/>
    <path id="パス_33060" data-name="パス 33060" d="M103.979,460.881l-.322,5.252Z" transform="translate(-87.409 -388.637)" fill="#fff"/>
    <path id="パス_33061" data-name="パス 33061" d="M102.392,465.1h-.015a.235.235,0,0,1-.22-.249l.322-5.252a.235.235,0,0,1,.469.029l-.322,5.252a.235.235,0,0,1-.234.221" transform="translate(-86.144 -387.373)"/>
    <path id="パス_33062" data-name="パス 33062" d="M311.14,443.32l.026,4.859Z" transform="translate(-262.368 -373.829)" fill="#fff"/>
    <path id="パス_33063" data-name="パス 33063" d="M309.9,447.15a.235.235,0,0,1-.235-.234l-.026-4.859a.235.235,0,0,1,.234-.236h0a.235.235,0,0,1,.235.234l.026,4.859a.235.235,0,0,1-.234.236Z" transform="translate(-261.103 -372.565)"/>
    <path id="パス_33064" data-name="パス 33064" d="M373.377,439.1l.026,4.859Z" transform="translate(-314.85 -370.274)" fill="#fff"/>
    <path id="パス_33065" data-name="パス 33065" d="M372.138,442.932a.235.235,0,0,1-.235-.234l-.026-4.859a.235.235,0,0,1,.234-.236.238.238,0,0,1,.236.234l.026,4.859a.235.235,0,0,1-.234.236Z" transform="translate(-313.585 -369.009)"/>
    <path id="パス_33066" data-name="パス 33066" d="M25.357,391.761l69.078-5.175-7.371-9.174L30.2,381.795Z" transform="translate(-21.382 -318.251)" fill="#5479f7"/>
    <path id="パス_33067" data-name="パス 33067" d="M24.091,390.728a.235.235,0,0,1-.211-.338l4.844-9.965a.234.234,0,0,1,.193-.132l56.863-4.384a.231.231,0,0,1,.2.087l7.371,9.174a.235.235,0,0,1-.166.382l-69.079,5.175h-.018m5-9.977-4.607,9.477,68.225-5.111-7.013-8.729Z" transform="translate(-20.116 -316.984)"/>
    <path id="パス_33068" data-name="パス 33068" d="M136.8,472.112h0a64.163,64.163,0,0,0,.073-8.065c-14.736-.639-58.836-1.994-93.611,2.7A272.5,272.5,0,0,1,8.6,469.393q.077.37.158.74.066.3.135.6t.143.607q.085.355.175.709.076.3.155.6.089.338.182.676t.191.677q.072.249.146.5.127.427.261.854c.037.117.073.235.111.352q.159.5.328.995.051.151.1.3.179.52.368,1.038c.029.079.058.158.087.237q.2.547.414,1.093l.06.152q.229.581.47,1.161l0,.011v0c12.058,28.891,43.781,43.888,72.089,39.368,25.279-4.036,50.129-24,52.619-47.951" transform="translate(-7.25 -390.73)" fill="#99b9ff"/>
    <path id="パス_33069" data-name="パス 33069" d="M581.386,76.725s1.931-10.226-1.3-9.746-3.956.967-5.518-1.946-8.01,5.44-8.01,5.44Z" transform="translate(-477.753 -54.318)" fill="#fff"/>
    <path id="パス_33070" data-name="パス 33070" d="M580.121,75.7a.234.234,0,0,1-.091-.018l-14.823-6.253a.235.235,0,0,1-.095-.36c.2-.259,4.932-6.337,7.341-6.143a1.284,1.284,0,0,1,1.063.735c1.319,2.461,1.9,2.367,4.342,1.972.287-.047.6-.1.935-.147a1.364,1.364,0,0,1,1.249.412c1.757,1.827.372,9.294.312,9.611a.235.235,0,0,1-.231.192m-14.449-6.585,14.27,6.019c.4-2.287,1.022-7.6-.241-8.911a.908.908,0,0,0-.841-.273c-.335.05-.644.1-.929.146-2.508.407-3.353.544-4.831-2.213a.83.83,0,0,0-.687-.489c-1.715-.147-5.278,3.874-6.741,5.721" transform="translate(-476.489 -53.056)"/>
    <path id="パス_33071" data-name="パス 33071" d="M504.649,104.279c-1.088,3.448-11.869,3.07-24.08-.844s-21.228-9.883-20.14-13.331,11.869-3.07,24.08.844,21.228,9.883,20.14,13.331" transform="translate(-388.181 -73.992)" fill="#fff"/>
    <path id="パス_33072" data-name="パス 33072" d="M496.6,105.653a60.914,60.914,0,0,1-17.362-3.2c-12.523-4.014-21.437-10-20.293-13.625a2.759,2.759,0,0,1,1.479-1.571c3.568-1.846,12.983-.916,22.9,2.261,12.523,4.014,21.437,10,20.293,13.625a2.758,2.758,0,0,1-1.479,1.571,12.71,12.71,0,0,1-5.535.941M465.96,86.77a12.225,12.225,0,0,0-5.32.9,2.313,2.313,0,0,0-1.247,1.295c-.485,1.536,1.333,3.8,4.989,6.224a63.069,63.069,0,0,0,15,6.812c9.8,3.143,19.071,4.085,22.537,2.292A2.314,2.314,0,0,0,503.164,103c.484-1.536-1.334-3.8-4.988-6.224a63.072,63.072,0,0,0-15-6.812A60.564,60.564,0,0,0,465.96,86.77" transform="translate(-386.921 -72.783)"/>
    <path id="パス_33073" data-name="パス 33073" d="M528.084,587.26s-.408,31.523-.815,35.2c9.785-2.451,24.768-9.356,34.246-20.08.268-.587-2.65-16.141-2.65-16.141Z" transform="translate(-444.619 -494.345)"/>
    <path id="パス_33074" data-name="パス 33074" d="M739.647,415.3a1.014,1.014,0,0,0,.919-.072c.374-.194.5-.93.458-1.681-.149-2.641-.534-4.858-.292-4.9l10.984-4.352c.609-.117.519.332.577.949.416,4.446.466,21.947-4.967,23.831Z" transform="translate(-623.706 -340.897)" fill="#fff"/>
    <path id="パス_33075" data-name="パス 33075" d="M746.883,428.023l-.154-.444c5.167-1.793,5.247-18.905,4.81-23.587-.009-.1-.015-.2-.02-.288a1.1,1.1,0,0,0-.074-.453.3.3,0,0,0-.183,0l-10.886,4.314a15.138,15.138,0,0,0,.125,1.821c.08.808.179,1.813.239,2.882.026.468.022,1.589-.585,1.9a1.243,1.243,0,0,1-1.123.078l.193-.429a.789.789,0,0,0,.714-.066c.237-.122.373-.722.331-1.459-.06-1.059-.158-2.059-.238-2.862-.173-1.748-.217-2.2.11-2.281l10.988-4.354.022,0a.694.694,0,0,1,.581.09c.219.17.235.461.255.8.005.085.01.176.019.271a71.522,71.522,0,0,1-.291,12.926c-.78,6.556-2.406,10.308-4.833,11.15" transform="translate(-623.188 -339.633)"/>
    <path id="パス_33076" data-name="パス 33076" d="M350.351,134.709l.236-.1s6.861-1.86,8.6-2.592c.177-.074-.283-1.381-.283-1.381s-2.013-.03-2.782-.093c-.711-.059-.893-.4-.444-1.008l.3-.4,4.446-1.291a.946.946,0,0,0,.583-1.3.847.847,0,0,0-.462-.418l-1.778-.664c-.224-.626-4.818-1.165-6.234-.622s-5.844,6.026-5.844,6.026-15.034,12.971-17.786,16.8c-1.817,2.529-3.211,8.273,3.109,8.732,1.881.137,22.882.613,22.882.613l3.958-13.141c-11.466.766-15.543,1.4-16.308,1.7,0,0,6.011-8.812,7.8-10.866" transform="translate(-276.058 -105.084)" fill="#fff"/>
    <path id="パス_33077" data-name="パス 33077" d="M353.626,155.986h-.005c-.858-.019-21.028-.478-22.894-.613-2.265-.165-3.764-1-4.455-2.474-1.039-2.221.132-5.182,1.173-6.63,2.716-3.781,16.993-16.126,17.807-16.828.319-.394,4.5-5.533,5.929-6.081,1.325-.506,5.01-.121,6.1.381a.942.942,0,0,1,.377.271l1.7.635a1.084,1.084,0,0,1,.59.533,1.13,1.13,0,0,1,.018.953,1.188,1.188,0,0,1-.742.672l-4.373,1.27-.251.339c-.184.248-.218.405-.189.469s.165.139.463.164c.752.062,2.746.092,2.766.092a.235.235,0,0,1,.218.157c.533,1.516.313,1.608.152,1.676-1.714.719-8.174,2.478-8.618,2.6l-.171.071c-1.547,1.793-6.081,8.367-7.393,10.279,1.345-.287,5.134-.837,15.739-1.545a.239.239,0,0,1,.2.088.236.236,0,0,1,.041.214l-3.958,13.141a.236.236,0,0,1-.225.167m-.527-32.4a5.415,5.415,0,0,0-1.75.215c-1.114.426-4.524,4.442-5.745,5.954a.244.244,0,0,1-.029.03c-.15.129-15.044,13-17.749,16.76-.976,1.358-2.082,4.119-1.128,6.157.613,1.311,1.98,2.053,4.063,2.2,1.761.128,20.64.561,22.691.608l3.809-12.645c-13.437.906-15.6,1.544-15.9,1.663a.235.235,0,0,1-.282-.351c.246-.36,6.04-8.848,7.822-10.888a.236.236,0,0,1,.087-.063l.236-.1.029-.01c.067-.018,6.6-1.794,8.469-2.539a6,6,0,0,0-.255-.975c-.5-.009-1.985-.038-2.632-.091-.451-.037-.738-.185-.853-.439a.947.947,0,0,1,.239-.943l.3-.4a.236.236,0,0,1,.123-.086l4.446-1.291a.717.717,0,0,0,.444-.407.661.661,0,0,0-.007-.557.613.613,0,0,0-.334-.3l-1.778-.664a.236.236,0,0,1-.139-.141c-.216-.322-2.425-.7-4.179-.7" transform="translate(-274.787 -103.822)"/>
    <path id="パス_33078" data-name="パス 33078" d="M493.153,137.361a.235.235,0,0,1-.157-.41l1.7-1.526a.236.236,0,0,1,.109-.055l5.619-1.166a.235.235,0,1,1,.1.461l-5.557,1.153L493.31,137.3a.233.233,0,0,1-.157.06" transform="translate(-415.652 -113.162)"/>
    <path id="パス_33079" data-name="パス 33079" d="M488.337,130.887a.235.235,0,0,1-.163-.4l1.33-1.285a.236.236,0,0,1,.132-.064l4.636-.619a.235.235,0,0,1,.062.466l-4.56.608-1.274,1.231a.234.234,0,0,1-.163.066" transform="translate(-411.591 -108.369)"/>
    <path id="パス_33080" data-name="パス 33080" d="M384.288,264.368s2.922-.34,6.251-6.06Z" transform="translate(-324.05 -217.818)" fill="#fff"/>
    <path id="パス_33081" data-name="パス 33081" d="M383.023,263.338a.235.235,0,0,1-.028-.468c.038-.005,2.869-.434,6.077-5.945a.235.235,0,0,1,.406.237c-3.35,5.755-6.3,6.16-6.427,6.175h-.028" transform="translate(-322.785 -216.553)"/>
    <path id="パス_33082" data-name="パス 33082" d="M514.8,291.6c.2-.8-.473-8.054-.515-15.936-.031-5.859.585-13.031.585-13.031.264.812.707,2.772,1.2,3.053,1.967,1.12,12.536-.828,12.861-2.518a13.176,13.176,0,0,0-.442-4.122c-2.274-13.5-3.508-20.66-21.948-24.692a97.76,97.76,0,0,0-10.787-2.145c-5.914-.57-14.628.2-19.6.983-2.056.326-1.4,6.938-1.928,10.416-.324,2.15-.045,3.371-.6,5.035-1.62,4.894,7.56-1.127,7.56,6.313,0,4.7-.007,13.036-.231,19.37-.154,4.366-1.121,14.878,1.159,16.918,0,0,31.813,3.826,32.677.356" transform="translate(-399.234 -195.647)" fill="#5479f7"/>
    <path id="パス_33083" data-name="パス 33083" d="M505.6,292.037c-2.4,0-5.328-.111-8.737-.332-7.975-.517-15.948-1.471-16.028-1.48a.236.236,0,0,1-.129-.058c-2.024-1.811-1.616-9.622-1.347-14.791.046-.891.087-1.661.11-2.311.231-6.52.231-15.194.231-19.362,0-3.873-2.549-3.877-4.8-3.88-1.212,0-2.258,0-2.726-.652a2.039,2.039,0,0,1-.025-1.854,9.283,9.283,0,0,0,.392-2.7,20.621,20.621,0,0,1,.2-2.292,36.544,36.544,0,0,0,.259-3.764c.126-3.39.246-6.592,1.865-6.849,4.54-.72,13.521-1.577,19.654-.985a61.9,61.9,0,0,1,7.886,1.485c.942.217,1.916.443,2.928.664,18.625,4.073,19.87,11.465,22.13,24.883.06.354.125.7.189,1.033a8.829,8.829,0,0,1,.251,3.173c-.076.4-.521.78-1.358,1.165-2.975,1.37-10.2,2.454-11.851,1.513-.368-.21-.65-.96-.949-1.964-.173,2.325-.507,7.416-.484,11.737.023,4.348.237,8.479.393,11.494a32.313,32.313,0,0,1,.115,4.5c-.146.586-.894,1.387-5.689,1.587q-1.127.047-2.48.047m-24.633-2.27c.838.1,8.382.98,15.927,1.469,14.374.932,16.27-.351,16.418-.946a40.112,40.112,0,0,0-.129-4.362c-.156-3.02-.371-7.157-.394-11.516-.031-5.8.579-12.981.585-13.053a.235.235,0,0,1,.458-.053c.059.182.124.411.2.676a6.567,6.567,0,0,0,.893,2.245c1.422.81,8.359-.121,11.421-1.531.925-.426,1.072-.72,1.093-.827a8.549,8.549,0,0,0-.252-3c-.064-.336-.13-.684-.191-1.043-1.115-6.619-2-11.848-4.87-15.8-3-4.12-8.21-6.8-16.9-8.7-1.015-.222-1.99-.447-2.933-.665a61.571,61.571,0,0,0-7.826-1.476c-6.09-.588-15.019.266-19.536.982-1.238.2-1.36,3.493-1.469,6.4a36.8,36.8,0,0,1-.264,3.817,20.211,20.211,0,0,0-.191,2.242,9.653,9.653,0,0,1-.415,2.832c-.224.676-.237,1.158-.04,1.431.327.453,1.307.455,2.345.457,2.223,0,5.267.008,5.267,4.35,0,4.171,0,12.85-.231,19.379-.023.653-.063,1.425-.11,2.319-.246,4.725-.657,12.6,1.138,14.366m32.573.58h0Z" transform="translate(-397.974 -194.389)"/>
    <path id="パス_33084" data-name="パス 33084" d="M734.946,327.373a13.543,13.543,0,0,0-.917,5.822c.153,3.523.567,9.853.567,9.853Z" transform="translate(-618.956 -276.057)" fill="#5479f7"/>
    <path id="パス_33085" data-name="パス 33085" d="M733.33,342.017a.235.235,0,0,1-.234-.22c0-.063-.416-6.372-.567-9.858a13.659,13.659,0,0,1,.939-5.931.235.235,0,0,1,.426.2,13.459,13.459,0,0,0-.9,5.712c.151,3.481.563,9.784.567,9.848a.235.235,0,0,1-.219.25h-.016" transform="translate(-617.69 -274.791)"/>
    <path id="パス_33086" data-name="パス 33086" d="M447.576,269.71s15.594,4.6,13.454,35.542c0,0-15.9-1.225-26.3-.306,0,0,7.491-24.512-6.88-28.342,0,0,7.185-4.136,19.722-6.894" transform="translate(-360.787 -227.433)" fill="#fff"/>
    <path id="パス_33087" data-name="パス 33087" d="M459.764,304.223h-.018c-.159-.012-16-1.213-26.257-.307a.235.235,0,0,1-.246-.3c.045-.146,4.418-14.729-.148-22.952a10.268,10.268,0,0,0-6.567-5.094.235.235,0,0,1-.057-.431c.072-.042,7.361-4.186,19.789-6.92a.236.236,0,0,1,.117,0c.162.048,4.017,1.229,7.654,6.254a30.767,30.767,0,0,1,4.763,10.849A61.888,61.888,0,0,1,460,304a.235.235,0,0,1-.235.219m-17.037-1.116c7.75,0,15.39.525,16.819.629,1.047-15.738-2.61-24.428-5.872-28.952-3.311-4.593-6.892-5.93-7.375-6.094a79.53,79.53,0,0,0-19.094,6.585,10.669,10.669,0,0,1,6.3,5.159c2.442,4.4,2.36,10.508,1.862,14.861a54.431,54.431,0,0,1-1.579,8.124c2.738-.227,5.847-.311,8.938-.311" transform="translate(-359.522 -226.169)"/>
    <path id="パス_33088" data-name="パス 33088" d="M614.487,369.026a3.134,3.134,0,0,0-1.532-1.694c-.245-.155-.5-.3-.75-.441-.562-.313-1.179-.451-1.731-.791-2.085-1.286-8.19-5.376-8.19-5.376a.762.762,0,0,1-.31-.34l-4.584-9.926,0,0-3.634-3.409s-2.85-.431-2.85-.431a.761.761,0,0,0-.3,1.491,5.4,5.4,0,0,0,.826.115,3.876,3.876,0,0,1,2.248,1.37c.519.486.379.9-.331.868a11.987,11.987,0,0,0-3.325.753c-1.671.819-2.04,1.569-2.051,2.617-.017,1.566,3.08,2.654,4.646,2.651l1.277,0a.761.761,0,0,1,.76.826c-.113,1.333-.237,3.293.731,4.417a6.346,6.346,0,0,0,2.7,1.634c.057.1,12.18,19.763,21.194,17.3Z" transform="translate(-495.805 -292.273)" fill="#fff"/>
    <path id="パス_33089" data-name="パス 33089" d="M616.409,379.831c-8.583,0-18.919-16.218-19.741-17.546a6.423,6.423,0,0,1-2.725-1.679c-1.07-1.242-.886-3.42-.788-4.59a.526.526,0,0,0-.524-.571h0l-1.277,0h-.008a7.015,7.015,0,0,1-4.288-1.625,1.768,1.768,0,0,1-.587-1.264c.012-1.09.381-1.943,2.183-2.826a12.046,12.046,0,0,1,3.409-.776h.032c.264.012.38-.05.393-.083s-.021-.179-.235-.379l-.188-.179a3.243,3.243,0,0,0-1.915-1.128,5.7,5.7,0,0,1-.862-.12.959.959,0,0,1-.744-1.143.977.977,0,0,1,1.129-.81,17.464,17.464,0,0,1,2.975.492l3.634,3.409a.268.268,0,0,1,.052.07l4.587,9.932a.524.524,0,0,0,.215.235c.074.049,6.139,4.111,8.2,5.38a5.509,5.509,0,0,0,.89.413,6.887,6.887,0,0,1,.832.373c.3.166.54.308.761.448a3.332,3.332,0,0,1,1.634,1.831.235.235,0,0,1-.454.123,2.936,2.936,0,0,0-1.431-1.556c-.213-.135-.448-.273-.738-.435a6.408,6.408,0,0,0-.775-.346,5.957,5.957,0,0,1-.965-.451c-2.065-1.273-8.136-5.34-8.2-5.381a.977.977,0,0,1-.393-.437l-4.566-9.886L592.38,346l-2.777-.42a.506.506,0,0,0-.6.432.485.485,0,0,0,.386.6,5.213,5.213,0,0,0,.79.11,3.655,3.655,0,0,1,2.209,1.258l.184.175c.455.426.412.751.346.906s-.254.395-.833.369a11.672,11.672,0,0,0-3.227.729c-1.6.784-1.909,1.452-1.92,2.409a1.32,1.32,0,0,0,.451.928,6.579,6.579,0,0,0,3.953,1.486h.007l1.277,0h0a1,1,0,0,1,.993,1.081c-.093,1.1-.266,3.152.675,4.244a6.152,6.152,0,0,0,2.587,1.562.235.235,0,0,1,.141.112,73.5,73.5,0,0,0,7.249,9.615c3.738,4.137,9.145,8.809,13.677,7.57a.235.235,0,0,1,.124.454,6.315,6.315,0,0,1-1.669.22" transform="translate(-494.54 -291.007)"/>
    <path id="パス_33090" data-name="パス 33090" d="M593.115,385.687l-4.332.2Z" transform="translate(-496.49 -325.23)" fill="#fff"/>
    <path id="パス_33091" data-name="パス 33091" d="M587.519,384.861a.235.235,0,0,1-.011-.47l4.331-.2a.235.235,0,1,1,.022.47l-4.332.2h-.011" transform="translate(-495.227 -323.964)"/>
    <path id="パス_33092" data-name="パス 33092" d="M595.433,397.9l-4.536.128Z" transform="translate(-498.273 -335.532)" fill="#fff"/>
    <path id="パス_33093" data-name="パス 33093" d="M589.632,397a.235.235,0,0,1-.006-.47l4.535-.128h.007a.235.235,0,0,1,.006.47l-4.535.127h-.007" transform="translate(-497.008 -334.267)"/>
    <path id="パス_33094" data-name="パス 33094" d="M526.607,114.991a7.456,7.456,0,0,0-2.348,2.575c-.731,1.286-1.892,3.325-1.087,5.464a5.284,5.284,0,0,0,4.058,3.207c1.52.212,2.048-.569,3.068-.1,2.562,1.177,5.6,3.554,8.565,3.16,3.619-.482,6.581-3.977,5.919-7.471-6.855-4.616-14.881-6.306-18.175-6.836" transform="translate(-440.934 -96.966)"/>
    <path id="パス_33095" data-name="パス 33095" d="M590.448,179.063l.973,2.114s-2.969,1.1-2.66,1.851c.611,1.483,6.558,4.776,15.718,2.182,1.38-.391,4.638-2.605,2.041-3.363-1.425-.416-5.354-1.245-5.354-1.245l-6.9-11.626Z" transform="translate(-496.453 -142.489)" fill="#fff"/>
    <path id="パス_33096" data-name="パス 33096" d="M596.613,185.146a18.437,18.437,0,0,1-4.52-.535c-2.694-.681-4.46-1.9-4.813-2.758a.565.565,0,0,1,.014-.451c.293-.67,1.869-1.353,2.544-1.619l-.868-1.886a.235.235,0,0,1,.427-.2l.973,2.114a.235.235,0,0,1-.132.319c-.866.321-2.314,1-2.514,1.457-.023.053-.014.074-.01.084.24.581,1.671,1.768,4.493,2.481a21.076,21.076,0,0,0,10.943-.436c1.068-.3,2.842-1.513,2.845-2.268,0-.271-.27-.487-.806-.644-1.4-.409-5.3-1.232-5.336-1.241a.236.236,0,0,1-.154-.11l-6.9-11.626a.235.235,0,1,1,.4-.24l6.85,11.537c.637.135,3.963.846,5.27,1.228.948.277,1.146.749,1.144,1.1,0,1.181-2.264,2.457-3.187,2.718a24.434,24.434,0,0,1-6.667.975" transform="translate(-495.19 -141.224)"/>
    <path id="パス_33097" data-name="パス 33097" d="M569.891,153.619s.8,5.958-4.143,7.991c-1.8.743-3.337-.8-4.545-3.007a39.352,39.352,0,0,1-3.12-9.171,22.206,22.206,0,0,0,6.17-2.942c3.168-2.158,4.676,3.314,4.676,3.314s1.831-2.269,2.686.012c.934,2.5-1.724,3.8-1.724,3.8" transform="translate(-470.603 -123.102)" fill="#fff"/>
    <path id="パス_33098" data-name="パス 33098" d="M563.559,160.771c-1.335,0-2.618-1.112-3.826-3.322a39.886,39.886,0,0,1-3.144-9.237.235.235,0,0,1,.171-.274,22.188,22.188,0,0,0,6.1-2.909,2.453,2.453,0,0,1,2.3-.413c1.469.54,2.314,2.592,2.613,3.465a2.206,2.206,0,0,1,1.683-.77c.486.079.863.467,1.12,1.155.864,2.307-1.127,3.68-1.695,4.016.082.985.285,6.191-4.3,8.078a2.652,2.652,0,0,1-1.014.21m-6.464-12.44a38.463,38.463,0,0,0,3.051,8.893c1.378,2.519,2.807,3.5,4.249,2.9,4.719-1.942,4.007-7.685,4-7.742a.235.235,0,0,1,.129-.242c.1-.052,2.454-1.249,1.607-3.51-.194-.519-.448-.807-.755-.856-.573-.091-1.3.624-1.527.909a.235.235,0,0,1-.41-.085c-.008-.03-.832-2.95-2.446-3.542a2.01,2.01,0,0,0-1.871.36,23.148,23.148,0,0,1-6.026,2.913" transform="translate(-469.338 -121.835)"/>
    <path id="パス_33099" data-name="パス 33099" d="M574.8,157.994c-.106,3.829.388,6.658-.93,8.087-3.72,4.031-6.935,2.772-8.344-2.116l2.071,8.375a1.6,1.6,0,0,0,1,1.122c2.106.77,3.932.269,5.787-.427a5.1,5.1,0,0,0,2.793-5.638c-.723-2.439-2.374-9.4-2.374-9.4" transform="translate(-476.88 -133.228)"/>
    <path id="パス_33100" data-name="パス 33100" d="M.039,244.239A3.933,3.933,0,0,0,5.734,247.2a5.072,5.072,0,0,0,9.172.258,5.477,5.477,0,0,0,6.125-1.255c.008.1.019.205.033.308a5.166,5.166,0,0,0,9.364,2.246,4.222,4.222,0,0,0,2.321.327,4.265,4.265,0,0,0,3.651-4.521,4.437,4.437,0,0,0,7.523-3.78c-.021-.15-.05-.3-.085-.441a3.213,3.213,0,1,0-4.44-3.637,3.786,3.786,0,0,0-4.427.131,5.813,5.813,0,0,0-11.151-3.065,5.344,5.344,0,0,0-7.311,3.139c-.07.007-.141.014-.211.024a5.463,5.463,0,0,0-3.417,1.887,5.25,5.25,0,0,0-.047-.888,5.172,5.172,0,1,0-10.132,2,3.949,3.949,0,0,0-2.663,4.3" transform="translate(0 -194.005)" fill="#fff"/>
    <path id="パス_33101" data-name="パス 33101" d="M39.481,455.307s.68-16.482.857-18.4c.135-1.458,12.02-1.195,12.222,0s1.747,18.157,1.747,18.157Z" transform="translate(-33.292 -367.584)" fill="#caddff"/>
    <path id="パス_33102" data-name="パス 33102" d="M38.216,454.318a.235.235,0,0,1-.235-.245c.028-.673.683-16.51.858-18.408.023-.252.094-1.02,4.462-1.185,1.583-.06,8.021-.04,8.225,1.167.2,1.19,1.687,17.482,1.75,18.175a.235.235,0,0,1-.23.256l-14.827.239Zm6.5-19.394a25.213,25.213,0,0,0-4.063.274c-1.085.193-1.34.434-1.348.51-.162,1.758-.76,16.063-.846,18.135l14.324-.231c-.193-2.116-1.537-16.794-1.722-17.887-.095-.2-1.293-.579-4.095-.738-.75-.042-1.513-.063-2.251-.063" transform="translate(-32.027 -366.359)"/>
    <path id="パス_33103" data-name="パス 33103" d="M97.066,444.979a12.915,12.915,0,0,0-3.842-.405l.809,11.413,4,.072Z" transform="translate(-78.611 -374.886)"/>
    <path id="パス_33104" data-name="パス 33104" d="M56.412,445.054a17.666,17.666,0,0,1,4.313-.45l.9,11.48-5.661.09Z" transform="translate(-47.191 -374.912)"/>
    <rect id="長方形_10609" data-name="長方形 10609" width="10.513" height="3.77" transform="translate(10.839 90.707)" fill="#caddff"/>
    <path id="パス_33105" data-name="パス 33105" d="M78.4,581.406H67.882a.235.235,0,0,1-.235-.235V577.4a.235.235,0,0,1,.235-.235H78.4a.235.235,0,0,1,.235.235v3.77a.235.235,0,0,1-.235.235m-10.279-.47H78.16v-3.3H68.117Z" transform="translate(-57.043 -486.694)"/>
    <path id="パス_33106" data-name="パス 33106" d="M146.694,548.576c0,3.677-.93,6.106-1.4,6.514-.865.758-3.649.409-3.786.072-.414-1.011-.234-12.216.173-13.245.141-.357,2.853-.5,3.5,0,.862.668,1.507,2.981,1.507,6.658" transform="translate(-119.132 -456.698)"/>
    <path id="パス_33107" data-name="パス 33107" d="M142.223,554.526a6.985,6.985,0,0,1-1.478-.152c-.514-.121-.633-.257-.681-.375-.415-1.014-.27-12.3.172-13.42.057-.144.206-.242.484-.318.763-.209,2.76-.261,3.38.219,1,.776,1.6,3.334,1.6,6.844,0,3.815-.961,6.24-1.475,6.691a3.2,3.2,0,0,1-2,.512m-1.734-.733c.315.218,2.685.516,3.424-.132.387-.339,1.315-2.644,1.315-6.337,0-3.963-.732-5.942-1.416-6.473a5.4,5.4,0,0,0-3.149-.071c-.395,1.175-.538,11.921-.174,13.013" transform="translate(-117.901 -455.445)"/>
    <path id="パス_33108" data-name="パス 33108" d="M153.942,549.615a.235.235,0,0,1-.18-.084,9.015,9.015,0,0,0-2.821-2.184.235.235,0,0,1,.193-.429,9.319,9.319,0,0,1,2.988,2.31.235.235,0,0,1-.18.387" transform="translate(-127.164 -461.171)" fill="#caddff"/>
    <path id="パス_33109" data-name="パス 33109" d="M153.707,609.352a.234.234,0,0,1-.169-.071,10.283,10.283,0,0,0-2.6-1.935.235.235,0,0,1,.2-.425,10.551,10.551,0,0,1,2.738,2.031.235.235,0,0,1-.169.4" transform="translate(-127.163 -511.766)" fill="#caddff"/>
    <path id="パス_33110" data-name="パス 33110" d="M148.229,626.086a.234.234,0,0,1-.135-.043,8.86,8.86,0,0,0-1.151-.7.235.235,0,0,1,.2-.425,9.145,9.145,0,0,1,1.22.74.235.235,0,0,1-.136.427" transform="translate(-123.797 -526.942)" fill="#caddff"/>
    <path id="パス_33111" data-name="パス 33111" d="M156.935,569.615a.235.235,0,0,1-.18-.084,9.01,9.01,0,0,0-2.821-2.184.235.235,0,0,1,.193-.429,9.319,9.319,0,0,1,2.989,2.31.235.235,0,0,1-.18.387" transform="translate(-129.688 -478.035)" fill="#caddff"/>
    <path id="パス_33112" data-name="パス 33112" d="M156.935,589.614a.235.235,0,0,1-.18-.084,8.983,8.983,0,0,0-2.821-2.184.235.235,0,0,1,.193-.429,9.32,9.32,0,0,1,2.989,2.31.235.235,0,0,1-.18.387" transform="translate(-129.687 -494.9)" fill="#caddff"/>
    <path id="パス_33113" data-name="パス 33113" d="M138.584,550.322c0,3.677-.516,6.659-1.153,6.659s-1.153-2.981-1.153-6.659.516-6.659,1.153-6.659,1.153,2.981,1.153,6.659" transform="translate(-114.916 -458.443)" fill="#caddff"/>
    <path id="パス_33114" data-name="パス 33114" d="M136.167,555.951c-1.373,0-1.389-6.612-1.389-6.894s.016-6.893,1.389-6.893,1.388,6.612,1.388,6.893-.016,6.894-1.388,6.894m-.007-13.318c-.318.111-.911,2.352-.911,6.424s.593,6.314.925,6.424c.318-.111.911-2.352.911-6.424s-.593-6.313-.925-6.424" transform="translate(-113.651 -457.179)"/>
    <path id="パス_33115" data-name="パス 33115" d="M80.442,504.767s4,2.074,4.426,3.076-.071,13.3-.071,13.3H77.23s.143-4.363-2.5-4.578c0,0-.071-9.155-.143-10.586s3.6-2.432,5.853-1.216" transform="translate(-62.896 -425.184)" fill="#caddff"/>
    <path id="パス_33116" data-name="パス 33116" d="M83.531,520.09H75.964a.235.235,0,0,1-.235-.243c0-.041.1-4.142-2.282-4.336a.235.235,0,0,1-.216-.232c0-.092-.072-9.167-.142-10.576a1.491,1.491,0,0,1,.846-1.291,5.865,5.865,0,0,1,5.352-.145c.426.221,4.084,2.144,4.532,3.191.437,1.021,0,12.141-.053,13.406a.235.235,0,0,1-.235.226m-7.33-.47h7.1c.2-4.927.375-12.288.081-12.977s-2.741-2.141-4.318-2.959l0,0a5.427,5.427,0,0,0-4.879.128c-.243.153-.647.469-.627.869.066,1.317.13,8.991.141,10.39,2.284.375,2.49,3.62,2.5,4.551" transform="translate(-61.631 -423.893)"/>
    <path id="パス_33117" data-name="パス 33117" d="M15.18,499.982c0,5.145-1.218,8.543-1.829,9.113-1.134,1.06-4.782.572-4.963.1-.543-1.414-.307-17.091.227-18.53.185-.5,3.74-.7,4.59,0,1.129.934,1.976,4.171,1.976,9.315" transform="translate(-6.813 -413.371)"/>
    <path id="パス_33118" data-name="パス 33118" d="M9.679,508.716a8.686,8.686,0,0,1-1.826-.188c-.733-.169-.885-.363-.936-.5-.542-1.412-.352-17.138.226-18.7.067-.182.267-.308.646-.41,1.017-.273,3.539-.33,4.313.311,1.291,1.067,2.061,4.617,2.061,9.5,0,5.239-1.26,8.684-1.9,9.285a3.95,3.95,0,0,1-2.582.7m-2.328-.868a4.355,4.355,0,0,0,1.867.386,4.044,4.044,0,0,0,2.722-.559c.516-.483,1.754-3.741,1.754-8.942,0-5.582-.977-8.378-1.89-9.134-.776-.642-3.91-.4-4.224-.085-.529,1.522-.72,16.931-.228,18.334" transform="translate(-5.562 -412.123)"/>
    <path id="パス_33119" data-name="パス 33119" d="M25.211,528.617a.235.235,0,0,1-.18-.084,9.008,9.008,0,0,0-2.821-2.184.235.235,0,0,1,.193-.429,9.319,9.319,0,0,1,2.988,2.31.235.235,0,0,1-.18.387" transform="translate(-18.612 -443.464)" fill="#caddff"/>
    <path id="パス_33120" data-name="パス 33120" d="M24.975,588.351a.234.234,0,0,1-.169-.071,10.282,10.282,0,0,0-2.6-1.935.235.235,0,0,1,.2-.425,10.551,10.551,0,0,1,2.738,2.031.235.235,0,0,1-.169.4" transform="translate(-18.61 -494.058)" fill="#caddff"/>
    <path id="パス_33121" data-name="パス 33121" d="M19.5,605.088a.234.234,0,0,1-.135-.043,8.861,8.861,0,0,0-1.151-.7.235.235,0,0,1,.2-.425,9.132,9.132,0,0,1,1.22.74.235.235,0,0,1-.136.427" transform="translate(-15.244 -509.236)" fill="#caddff"/>
    <path id="パス_33122" data-name="パス 33122" d="M28.205,548.615a.235.235,0,0,1-.18-.084,9.013,9.013,0,0,0-2.821-2.184.235.235,0,0,1,.193-.429,9.319,9.319,0,0,1,2.988,2.31.235.235,0,0,1-.18.386" transform="translate(-21.136 -460.328)" fill="#caddff"/>
    <path id="パス_33123" data-name="パス 33123" d="M28.205,568.615a.235.235,0,0,1-.18-.084,9.013,9.013,0,0,0-2.821-2.184.235.235,0,0,1,.193-.429,9.319,9.319,0,0,1,2.988,2.31.235.235,0,0,1-.18.387" transform="translate(-21.136 -477.192)" fill="#caddff"/>
    <path id="パス_33124" data-name="パス 33124" d="M4.55,502.424c0,5.145-.677,9.315-1.512,9.315s-1.512-4.171-1.512-9.315.677-9.315,1.512-9.315,1.512,4.171,1.512,9.315" transform="translate(-1.288 -415.813)" fill="#caddff"/>
    <path id="パス_33125" data-name="パス 33125" d="M1.774,510.71c-1.382,0-1.747-6.247-1.747-9.551s.365-9.551,1.747-9.551,1.747,6.247,1.747,9.551-.365,9.551-1.747,9.551m0-18.631s-.444.109-.837,2.531a49,49,0,0,0,0,13.1c.393,2.422.833,2.531.837,2.531s.444-.109.837-2.531a43.074,43.074,0,0,0,.44-6.549,43.074,43.074,0,0,0-.44-6.549c-.393-2.422-.833-2.531-.837-2.531" transform="translate(-0.023 -414.549)"/>
    <path id="パス_33126" data-name="パス 33126" d="M18.369,486.995a29.914,29.914,0,0,1,.127,3.851h4.491a27.753,27.753,0,0,0-.1-4.25c-.485-4.98-1.632-8.03-2.845-8.824-.912-.6-4.43-.055-4.568.447l0,.007c.823.072,2.419,3.885,2.894,8.769" transform="translate(-13.049 -402.659)" fill="#caddff"/>
    <path id="パス_33127" data-name="パス 33127" d="M21.722,489.808H17.231a.235.235,0,0,1-.235-.243,29.565,29.565,0,0,0-.126-3.821c-.5-5.136-2.128-8.508-2.681-8.557a.235.235,0,0,1-.207-.295c.051-.189.23-.328.581-.461.985-.373,3.5-.684,4.345-.129,1.387.908,2.489,4.272,2.95,9a27.988,27.988,0,0,1,.1,4.286.235.235,0,0,1-.235.222m-4.249-.47H21.5a27.657,27.657,0,0,0-.11-3.992c-.526-5.4-1.76-8.009-2.739-8.65-.737-.483-3.275-.11-4.027.213,1.073.9,2.331,4.853,2.714,8.79a30.129,30.129,0,0,1,.135,3.639" transform="translate(-11.784 -401.386)"/>
    <path id="パス_33128" data-name="パス 33128" d="M49.037,548.576c0,3.677-.93,6.106-1.4,6.514-.865.758-3.649.409-3.786.072-.414-1.011-.234-12.216.173-13.245.141-.357,2.853-.5,3.5,0,.862.668,1.507,2.981,1.507,6.658" transform="translate(-36.783 -456.698)"/>
    <path id="パス_33129" data-name="パス 33129" d="M44.565,554.527a6.974,6.974,0,0,1-1.477-.152c-.515-.121-.633-.257-.681-.375-.415-1.014-.271-12.3.172-13.42.057-.144.206-.242.484-.318.763-.209,2.76-.261,3.38.219,1,.776,1.6,3.334,1.6,6.844,0,3.815-.961,6.24-1.475,6.691a3.2,3.2,0,0,1-2,.512m-1.734-.733c.315.218,2.685.516,3.424-.132.387-.339,1.315-2.644,1.315-6.337,0-3.963-.732-5.942-1.416-6.473a5.4,5.4,0,0,0-3.149-.071c-.394,1.175-.538,11.921-.174,13.013" transform="translate(-35.552 -455.446)"/>
    <path id="パス_33130" data-name="パス 33130" d="M56.146,547.616a.235.235,0,0,1-.18-.084,9.009,9.009,0,0,0-2.821-2.184.235.235,0,0,1,.193-.429,9.322,9.322,0,0,1,2.988,2.31.235.235,0,0,1-.18.387" transform="translate(-44.697 -459.485)" fill="#caddff"/>
    <path id="パス_33131" data-name="パス 33131" d="M55.911,607.35a.235.235,0,0,1-.169-.071,10.279,10.279,0,0,0-2.6-1.935.235.235,0,0,1,.2-.425,10.551,10.551,0,0,1,2.738,2.031.235.235,0,0,1-.169.4" transform="translate(-44.697 -510.078)" fill="#caddff"/>
    <path id="パス_33132" data-name="パス 33132" d="M50.433,624.087a.234.234,0,0,1-.135-.043,8.87,8.87,0,0,0-1.151-.7.235.235,0,0,1,.2-.425,9.132,9.132,0,0,1,1.22.74.235.235,0,0,1-.136.427" transform="translate(-41.33 -525.256)" fill="#caddff"/>
    <path id="パス_33133" data-name="パス 33133" d="M59.14,567.615a.235.235,0,0,1-.18-.084,9.011,9.011,0,0,0-2.821-2.184.235.235,0,0,1,.193-.429,9.319,9.319,0,0,1,2.989,2.31.235.235,0,0,1-.18.387" transform="translate(-47.222 -476.349)" fill="#caddff"/>
    <path id="パス_33134" data-name="パス 33134" d="M59.14,587.614a.235.235,0,0,1-.18-.084,9.012,9.012,0,0,0-2.821-2.184.235.235,0,0,1,.193-.429,9.319,9.319,0,0,1,2.989,2.31.235.235,0,0,1-.18.387" transform="translate(-47.222 -493.214)" fill="#caddff"/>
    <path id="パス_33135" data-name="パス 33135" d="M40.928,550.322c0,3.677-.516,6.659-1.153,6.659s-1.153-2.981-1.153-6.659.516-6.659,1.153-6.659,1.153,2.981,1.153,6.659" transform="translate(-32.568 -458.443)" fill="#caddff"/>
    <path id="パス_33136" data-name="パス 33136" d="M38.51,555.951c-1.373,0-1.388-6.612-1.388-6.894s.016-6.893,1.388-6.893,1.388,6.612,1.388,6.893-.016,6.894-1.388,6.894M38.5,542.633c-.318.111-.911,2.352-.911,6.424s.593,6.314.925,6.424c.318-.111.911-2.352.911-6.424s-.593-6.313-.925-6.424" transform="translate(-31.303 -457.179)"/>
    <path id="パス_33137" data-name="パス 33137" d="M83.612,512.982H78a.235.235,0,0,1-.2-.106,12.3,12.3,0,0,0-3.17-3,.235.235,0,0,1,.263-.39,12.964,12.964,0,0,1,3.227,3.021h5.493a.235.235,0,1,1,0,.47" transform="translate(-62.844 -429.593)"/>
    <path id="パス_33138" data-name="パス 33138" d="M88.342,548.811c-1.025,0-1.856-.008-2.027-.032-.516-.074-1.649-1.3-1.984-1.674a.234.234,0,0,1-.06-.157v-4.232a.235.235,0,0,1,.356-.2c.013.008,1.346.809,1.871,1.072a48.115,48.115,0,0,0,6.487.067.329.329,0,0,1,.056,0h0a.238.238,0,0,1,.235.238s0,0,0,.007c0,.2-.022,4.609-.022,4.654a.235.235,0,0,1-.232.234c-.408,0-2.852.03-4.681.03m-3.6-1.954a6.711,6.711,0,0,0,1.64,1.456c.323.046,3.921.026,6.4,0l.02-4.185c-1.423.039-5.991.143-6.518-.122-.372-.187-1.106-.616-1.547-.877Zm8.3-2.971h0Zm-.235,0h0Z" transform="translate(-71.061 -457.446)"/>
    <path id="パス_33139" data-name="パス 33139" d="M333.344,572.262a8.32,8.32,0,0,0-.673,4.108,18.675,18.675,0,0,1-1.2,7.151,2.431,2.431,0,0,0-.6,1.443c.077.228,1.631.4,1.821,0,.1-.2-.107-.835-.084-1.213.064-1.074,1.66-3.882,1.81-4.795s.448-2.967,1.812-4.035Z" transform="translate(-279 -482.559)" fill="#fff"/>
    <path id="パス_33140" data-name="パス 33140" d="M330.648,584.171c-.078,0-.151,0-.216-.007-.421-.026-.942-.114-1.035-.391a2.518,2.518,0,0,1,.64-1.667,19.31,19.31,0,0,0,1.146-6.965,8.466,8.466,0,0,1,.692-4.242.235.235,0,0,1,.427.2,8.135,8.135,0,0,0-.654,3.973,18.629,18.629,0,0,1-1.249,7.337,2.7,2.7,0,0,0-.557,1.179,2.209,2.209,0,0,0,1.389,0,2.324,2.324,0,0,0-.049-.474,3.226,3.226,0,0,1-.06-.648,11.22,11.22,0,0,1,1.043-2.874,11.613,11.613,0,0,0,.77-1.945l.013-.081c.159-.976.489-3.006,1.886-4.1a.235.235,0,0,1,.29.37c-1.252.98-1.562,2.888-1.711,3.805l-.013.082a11.287,11.287,0,0,1-.8,2.062,11.482,11.482,0,0,0-1,2.709,2.951,2.951,0,0,0,.055.547,1.38,1.38,0,0,1,.007.753c-.148.311-.63.376-1.006.376m-.8-.543h0Z" transform="translate(-277.745 -481.294)"/>
    <path id="パス_33141" data-name="パス 33141" d="M398.762,571.347s-3.552,2.067-2.9,3.958c.8,2.319-.19,3.384-1.675,6.493-.256.536-.952,1.011-.934,1.251s1.454.315,1.737-.026c.142-.171.131-.365.246-.726.326-1.025,2.562-3.354,2.932-4.2s1.163-2.765,2.747-3.464Z" transform="translate(-331.607 -481.787)" fill="#fff"/>
    <path id="パス_33142" data-name="パス 33142" d="M392.817,582.223a2.655,2.655,0,0,1-.728-.089c-.213-.068-.327-.18-.338-.333-.017-.223.168-.419.424-.69a3,3,0,0,0,.532-.68c.273-.572.532-1.081.761-1.529,1.014-1.989,1.522-2.987.9-4.787-.7-2.05,2.855-4.149,3.007-4.238a.235.235,0,0,1,.237.406c-.034.02-3.378,1.992-2.8,3.679.683,1.989.11,3.113-.93,5.153-.227.446-.485.951-.756,1.518a3.387,3.387,0,0,1-.615.8c-.08.085-.18.191-.242.27a2.069,2.069,0,0,0,1.267-.1.69.69,0,0,0,.111-.3c.022-.093.049-.208.092-.345a11.213,11.213,0,0,1,1.717-2.528,11.6,11.6,0,0,0,1.224-1.7l.033-.077c.394-.906,1.212-2.793,2.834-3.508a.235.235,0,0,1,.19.43c-1.453.641-2.223,2.414-2.593,3.265l-.034.077a11.266,11.266,0,0,1-1.286,1.8,11.464,11.464,0,0,0-1.637,2.378c-.038.119-.061.22-.082.309a1.087,1.087,0,0,1-.207.5,1.509,1.509,0,0,1-1.086.315" transform="translate(-330.343 -480.522)"/>
    <path id="パス_33143" data-name="パス 33143" d="M351.357,532a4.647,4.647,0,0,0,.3-1.733c-.01-.492-.489-.037-.489-.037.322-.539.035-1.864-.273-1.042a4.721,4.721,0,0,1-1.587,1.6c-2.211-.221-4.958.845-6.22.843-1.3,0-2-.888-4.177-.9-1.594-.006-3.043-2.5-3.043-2.5L333.78,530.3a23.915,23.915,0,0,1,.683,3.726c-.058.769.016,3.626,1.389,4.6,1.2.851,7.429,2.416,11.926.892a6.9,6.9,0,0,0,1.842,1.9s-.229,4.41-.379,4.616a11.294,11.294,0,0,0-.835,1.43c-.189.431,1.784.556,1.9.228a6.511,6.511,0,0,0,.041-1.354s1.558-4.618,1.51-5.014c-.355-2.947.28-3.961.289-6.244a4.164,4.164,0,0,0-.786-3.078" transform="translate(-281.459 -445.432)" fill="#fff"/>
    <path id="パス_33144" data-name="パス 33144" d="M348.305,546.85a1.946,1.946,0,0,1-1.331-.361.366.366,0,0,1-.049-.381,11.424,11.424,0,0,1,.846-1.454c.089-.3.24-2.437.342-4.383a7.487,7.487,0,0,1-1.707-1.736c-4.633,1.473-10.812-.172-11.955-.983-1.434-1.017-1.557-3.886-1.488-4.811a22.254,22.254,0,0,0-.677-3.651.235.235,0,0,1,.063-.224l2.086-2.065a.235.235,0,0,1,.369.049c.014.024,1.4,2.38,2.841,2.386a7.045,7.045,0,0,1,2.727.55,4,4,0,0,0,1.45.347h0a10.808,10.808,0,0,0,1.958-.335,14.554,14.554,0,0,1,4.194-.515,4.111,4.111,0,0,0,1.431-1.438c.062-.167.17-.39.387-.413a.34.34,0,0,1,.327.177,1.61,1.61,0,0,1,.145.934.352.352,0,0,1,.121.027.423.423,0,0,1,.237.431,5.45,5.45,0,0,1-.262,1.71,4.4,4.4,0,0,1,.75,3.122,15.958,15.958,0,0,1-.2,2.293,13.119,13.119,0,0,0-.089,3.906,42.292,42.292,0,0,1-1.506,5.075,5.731,5.731,0,0,1-.056,1.4c-.084.241-.407.295-.513.312a2.831,2.831,0,0,1-.442.03m-.919-.619a2.642,2.642,0,0,0,1.44.086,6.822,6.822,0,0,0,.018-1.228.232.232,0,0,1,.012-.088,51.115,51.115,0,0,0,1.5-4.919,13.662,13.662,0,0,1,.091-4.021,15.519,15.519,0,0,0,.2-2.245.221.221,0,0,1,0-.032,3.92,3.92,0,0,0-.741-2.9.236.236,0,0,1-.018-.257,4.45,4.45,0,0,0,.269-1.559.832.832,0,0,0-.093.074.235.235,0,0,1-.363-.291,1.29,1.29,0,0,0,.1-.717,5.214,5.214,0,0,1-1.62,1.586.238.238,0,0,1-.158.041,13.951,13.951,0,0,0-4.132.5,10.994,10.994,0,0,1-2.061.346h0a4.423,4.423,0,0,1-1.614-.377,6.646,6.646,0,0,0-2.564-.52c-1.406-.005-2.653-1.7-3.086-2.364l-1.782,1.764a21.407,21.407,0,0,1,.658,3.67c-.053.7.012,3.484,1.291,4.391,1.111.788,7.206,2.388,11.714.861a.235.235,0,0,1,.283.112,6.774,6.774,0,0,0,1.771,1.824.235.235,0,0,1,.1.2c-.232,4.48-.377,4.677-.424,4.742a11.576,11.576,0,0,0-.78,1.32" transform="translate(-280.194 -444.168)"/>
    <path id="パス_33145" data-name="パス 33145" d="M363.223,574.723a8.322,8.322,0,0,1,.382,4.145,18.68,18.68,0,0,0,.69,7.218,2.431,2.431,0,0,1,.5,1.482c-.092.222-1.84.309-1.816-.133a9.819,9.819,0,0,0,.169-1.2c.06-1.074-1.382-3.99-1.467-4.911s-.238-2.991-1.523-4.153Z" transform="translate(-303.698 -484.634)" fill="#fff"/>
    <path id="パス_33146" data-name="パス 33146" d="M362.652,586.718a3.257,3.257,0,0,1-.643-.055c-.483-.11-.543-.364-.535-.505a1.8,1.8,0,0,1,.037-.223,6.663,6.663,0,0,0,.132-.982,10.352,10.352,0,0,0-.82-2.832,10.637,10.637,0,0,1-.647-2.044l-.008-.083c-.084-.925-.259-2.851-1.439-3.917a.235.235,0,0,1,.315-.349c1.316,1.19,1.5,3.239,1.592,4.223l.008.082a10.926,10.926,0,0,0,.619,1.922,10.113,10.113,0,0,1,.849,3.023,7.072,7.072,0,0,1-.141,1.048c-.008.043-.018.091-.023.123a2.553,2.553,0,0,0,1.364.022,2.726,2.726,0,0,0-.474-1.213,18.63,18.63,0,0,1-.728-7.407,8.119,8.119,0,0,0-.373-4.01.235.235,0,0,1,.44-.166,8.47,8.47,0,0,1,.391,4.281,19.309,19.309,0,0,0,.652,7.029,2.519,2.519,0,0,1,.521,1.709c-.1.249-.628.324-1.09.324" transform="translate(-302.434 -483.37)"/>
    <path id="パス_33147" data-name="パス 33147" d="M417.779,573.738a.235.235,0,0,1-.2-.105c-1.138-1.712-.718-4.765-.7-4.894a.235.235,0,0,1,.466.066c0,.03-.413,3.006.626,4.568a.235.235,0,0,1-.2.365" transform="translate(-351.459 -479.417)"/>
    <path id="パス_33148" data-name="パス 33148" d="M308.908,523.423c-.763-.158-2.906.015-3.1.331s.647.222,1.256.618c.534.347,1.239.016,1.838-.336s.156-.581.007-.612" transform="translate(-257.848 -441.326)" fill="#fff"/>
    <path id="パス_33149" data-name="パス 33149" d="M306.314,523.516a1.157,1.157,0,0,1-.644-.186,2.534,2.534,0,0,0-.778-.288c-.284-.07-.509-.125-.589-.32a.352.352,0,0,1,.039-.33c.3-.482,2.665-.579,3.349-.437a.607.607,0,0,1,.48.433c.037.223-.1.429-.416.613a3.054,3.054,0,0,1-1.441.517m-1.385-.95.074.018a2.948,2.948,0,0,1,.923.351c.423.274,1.041-.019,1.591-.342a.676.676,0,0,0,.175-.133.3.3,0,0,0-.1-.046,7.982,7.982,0,0,0-2.665.152" transform="translate(-256.582 -440.087)"/>
    <path id="パス_33150" data-name="パス 33150" d="M331,517.838a7.245,7.245,0,0,0-3.572.015,1.489,1.489,0,0,0-.254-.367,2.847,2.847,0,0,0-2.966.314c-.467.774-.1,2.138-.214,3.293-.1,1.051,1.793,1.408,2.219.46.308-.685,1.549-.43,1.734-1.265a3.945,3.945,0,0,0-.3-1.944,1.317,1.317,0,0,1,.491.232,1.607,1.607,0,0,0,1.756-.093c.445-.3,1.449-.531,1.105-.646" transform="translate(-273.179 -436.13)" fill="#fff"/>
    <path id="パス_33151" data-name="パス 33151" d="M323.943,521.071a1.819,1.819,0,0,1-.465-.06,1.166,1.166,0,0,1-.986-1.207,8.874,8.874,0,0,0-.005-1.287,3.8,3.8,0,0,1,.252-2.1c.278-.461,1.116-.623,1.463-.671a2.517,2.517,0,0,1,1.865.306,1.348,1.348,0,0,1,.211.271,7.239,7.239,0,0,1,3.529.029.3.3,0,0,1,.231.27c.007.229-.216.319-.619.481a3.876,3.876,0,0,0-.659.311,1.848,1.848,0,0,1-1.986.117,3.484,3.484,0,0,1,.134,1.545c-.127.577-.642.749-1.055.887-.319.107-.593.2-.694.423a1.272,1.272,0,0,1-1.217.688m.853-4.9a3.9,3.9,0,0,0-.53.037,1.747,1.747,0,0,0-1.125.448,3.536,3.536,0,0,0-.185,1.837,9.228,9.228,0,0,1,0,1.357c-.038.386.305.618.639.707a.947.947,0,0,0,1.132-.366,1.433,1.433,0,0,1,.974-.676c.418-.14.678-.241.745-.543a3.673,3.673,0,0,0-.288-1.81.235.235,0,0,1,.262-.315,1.538,1.538,0,0,1,.582.27,1.41,1.41,0,0,0,1.489-.094,3.966,3.966,0,0,1,.717-.346,7.613,7.613,0,0,0-3,.139.234.234,0,0,1-.261-.118,1.21,1.21,0,0,0-.208-.306,1.554,1.554,0,0,0-.949-.22m4.863.624,0,0,.07-.225Z" transform="translate(-271.914 -434.863)"/>
    <path id="パス_33152" data-name="パス 33152" d="M256.562,770.636l-.141,3.174Z" transform="translate(-216.227 -649.838)" fill="#fff"/>
    <path id="パス_33153" data-name="パス 33153" d="M255.158,772.776h-.011a.235.235,0,0,1-.224-.245l.141-3.174a.231.231,0,0,1,.245-.224.235.235,0,0,1,.224.245l-.141,3.174a.235.235,0,0,1-.235.225" transform="translate(-214.963 -648.569)"/>
    <path id="パス_33154" data-name="パス 33154" d="M243.868,616.5s1.207-.541.985-1.464-1.08-2.356-1.652-1.751-1.239-.764-1.716-.127.1,2.738.1,2.738Z" transform="translate(-203.472 -516.894)" fill="#fff"/>
    <path id="パス_33155" data-name="パス 33155" d="M242.614,615.47a.237.237,0,0,1-.06-.008l-2.287-.6a.235.235,0,0,1-.167-.166c-.062-.226-.587-2.232-.057-2.941.366-.489.843-.19,1.129-.01.369.232.476.253.6.117a.633.633,0,0,1,.644-.2c.636.17,1.226,1.3,1.407,2.052.265,1.1-1.061,1.709-1.117,1.734a.236.236,0,0,1-.1.021m-2.095-1.032,2.069.547c.229-.122.929-.551.782-1.159-.182-.753-.722-1.615-1.071-1.708a.164.164,0,0,0-.182.064c-.42.445-.887.152-1.2-.042-.377-.237-.421-.214-.5-.106a4.2,4.2,0,0,0,.1,2.4" transform="translate(-202.218 -515.633)"/>
    <path id="パス_33156" data-name="パス 33156" d="M250.823,638.014s2.192,2.818-.6,2.833-.334-2.9-.334-2.9Z" transform="translate(-209.871 -537.95)" fill="#fff"/>
    <path id="パス_33157" data-name="パス 33157" d="M248.937,639.818c-.766,0-1.255-.216-1.455-.642-.44-.94.819-2.471.964-2.642a.236.236,0,0,1,.2-.083l.937.064a.235.235,0,0,1,.17.09c.125.161,1.209,1.6.758,2.527-.219.451-.739.682-1.545.686Zm-.207-2.89c-.463.578-1.046,1.57-.822,2.048.145.311.654.374,1.049.371.612,0,.991-.145,1.125-.421.258-.529-.329-1.518-.643-1.95Z" transform="translate(-208.611 -536.686)"/>
    <path id="パス_33158" data-name="パス 33158" d="M217.463,636.07a8.111,8.111,0,0,1,2.478,1.146s2.669-6.686,4-6.59,1.144,3.629,1.334,4.393,1.525.573,1.716,2.579,1.716,2.579.667,5.349S225.374,646,225.374,646a7.038,7.038,0,0,1-1.62,3.056c-1.144,1.051-5.147,2.483-6.1,2.292s-5.719-3.247-5.814-4.489-4.194-3.056-3.05-8.214,3.223-10.949,5.052-11.461c2.16-.6,2.7,1.066,2.7,1.066s1.112.509,1.3,1.273.032,0-1.493.143a6.552,6.552,0,0,0,.349,2.579,15.68,15.68,0,0,1,.763,3.82" transform="translate(-175.891 -528.763)" fill="#fff"/>
    <path id="パス_33159" data-name="パス 33159" d="M216.581,650.335a1.307,1.307,0,0,1-.253-.021c-1.044-.209-5.894-3.29-6-4.7-.022-.287-.4-.7-.838-1.186-1.21-1.333-3.039-3.348-2.208-7.1.894-4.03,3-11.015,5.218-11.637a2.256,2.256,0,0,1,2.948,1.121,2.622,2.622,0,0,1,1.347,1.388l.011.045c.066.263.1.408-.029.526a.354.354,0,0,1-.391.013,2.564,2.564,0,0,0-1.088-.163,6.3,6.3,0,0,0,.346,2.276,10.493,10.493,0,0,1,.659,3c.025.265.047.5.086.716a8.865,8.865,0,0,1,2.174.958c.229-.552.766-1.817,1.392-3.062,1.558-3.1,2.307-3.42,2.729-3.388,1.212.087,1.357,2.229,1.453,3.646a7.329,7.329,0,0,0,.093.925c.046.185.2.295.464.474a2.513,2.513,0,0,1,1.258,2.139,5.145,5.145,0,0,0,.517,1.692,4.183,4.183,0,0,1,.136,3.762c-.886,2.341-1.932,2.987-2.311,3.151a6.99,6.99,0,0,1-1.658,3.051,13.965,13.965,0,0,1-6.052,2.371m-3.143-24.311a3.021,3.021,0,0,0-.813.122c-1.668.467-3.72,6.031-4.885,11.286-.779,3.511.951,5.417,2.1,6.679.536.591.924,1.018.958,1.466.081,1.058,4.645,4.08,5.626,4.277.878.176,4.79-1.22,5.895-2.235a6.842,6.842,0,0,0,1.551-2.938.235.235,0,0,1,.176-.175c.008,0,1.143-.328,2.121-2.911a3.706,3.706,0,0,0-.125-3.4,5.532,5.532,0,0,1-.556-1.839,2.061,2.061,0,0,0-1.053-1.794,1.328,1.328,0,0,1-.657-.75,7.141,7.141,0,0,1-.106-1.007c-.074-1.1-.213-3.151-1.017-3.209h-.017c-.738,0-2.48,3.26-3.751,6.443a.235.235,0,0,1-.374.09,7.928,7.928,0,0,0-2.386-1.1.235.235,0,0,1-.166-.176,7.432,7.432,0,0,1-.122-.908,10.062,10.062,0,0,0-.632-2.881,6.734,6.734,0,0,1-.363-2.683.235.235,0,0,1,.212-.212,3.275,3.275,0,0,1,1.273.1,2.364,2.364,0,0,0-1.159-1.068.236.236,0,0,1-.126-.141,1.628,1.628,0,0,0-1.6-1.034" transform="translate(-174.612 -527.496)"/>
    <path id="パス_33160" data-name="パス 33160" d="M269.534,774.236l1.521,3.724Z" transform="translate(-227.284 -652.873)" fill="#fff"/>
    <path id="パス_33161" data-name="パス 33161" d="M269.789,776.93a.235.235,0,0,1-.218-.146l-1.52-3.724a.235.235,0,0,1,.435-.178l1.52,3.724a.235.235,0,0,1-.129.307.232.232,0,0,1-.089.017" transform="translate(-226.019 -651.608)"/>
    <path id="パス_33162" data-name="パス 33162" d="M278.987,700.2s-.89,1.592-.063,2.611-.508,2.229.445,3.438Z" transform="translate(-234.906 -590.443)" fill="#fff"/>
    <path id="パス_33163" data-name="パス 33163" d="M278.1,705.222a.235.235,0,0,1-.185-.09,2.272,2.272,0,0,1-.3-2.046,1.557,1.557,0,0,0-.139-1.39c-.916-1.129,0-2.8.041-2.873a.235.235,0,0,1,.411.229c-.008.014-.8,1.467-.086,2.348a1.959,1.959,0,0,1,.235,1.775,1.843,1.843,0,0,0,.212,1.666.235.235,0,0,1-.185.381" transform="translate(-233.633 -589.18)"/>
    <path id="パス_33164" data-name="パス 33164" d="M302.2,673.391s1.144,2.165,0,3.629,1.207,1.337.381,3.12.508,1.974-.191,3.184Z" transform="translate(-254.557 -567.836)" fill="#fff"/>
    <path id="パス_33165" data-name="パス 33165" d="M301.119,682.294a.235.235,0,0,1-.2-.353,1.088,1.088,0,0,0,.056-1.1,2.373,2.373,0,0,1,.124-2.062,1.071,1.071,0,0,0-.267-1.419,1.132,1.132,0,0,1-.086-1.747c1.038-1.329-.012-3.354-.023-3.375a.235.235,0,1,1,.416-.22c.05.094,1.2,2.317-.022,3.884-.451.578-.269.778.062,1.14a1.523,1.523,0,0,1,.347,1.934,1.925,1.925,0,0,0-.107,1.711,1.542,1.542,0,0,1-.094,1.491.235.235,0,0,1-.2.118" transform="translate(-253.288 -566.571)"/>
    <path id="パス_33166" data-name="パス 33166" d="M219.6,729.041a4.03,4.03,0,0,0,3.813,1.719c2.542-.318.953,1.4,3.813,1.146Z" transform="translate(-185.179 -614.763)" fill="#fff"/>
    <path id="パス_33167" data-name="パス 33167" d="M225.42,730.9a1.778,1.778,0,0,1-1.689-.739c-.248-.321-.445-.574-1.553-.435a4.229,4.229,0,0,1-4.041-1.828.235.235,0,0,1,.4-.249,3.756,3.756,0,0,0,3.584,1.61c1.273-.16,1.639.168,1.983.614.259.335.5.65,1.838.531a.235.235,0,1,1,.042.468c-.208.018-.395.027-.563.027" transform="translate(-183.914 -613.498)"/>
    <path id="パス_33168" data-name="パス 33168" d="M194.827,32.691l-6.461-8.135a11.611,11.611,0,0,0,3.249-7.8c0-8.424-10.34-15.253-23.1-15.253s-23.1,6.829-23.1,15.253,10.34,15.253,23.1,15.253A31.872,31.872,0,0,0,181.5,29.369Z" transform="translate(-122.629 -1.265)" fill="#fff"/>
    <path id="パス_33169" data-name="パス 33169" d="M351.958,37.328a.231.231,0,0,1-.052-.006l-10.615-2.389a.235.235,0,1,1,.1-.459l9.943,2.238-5.394-6.507a.235.235,0,0,1,.007-.308,11.4,11.4,0,0,0,3.188-7.646c0-5.971-5.388-11.375-13.727-13.769a.235.235,0,1,1,.13-.452c8.545,2.453,14.067,8.035,14.067,14.221a11.8,11.8,0,0,1-3.174,7.809l5.705,6.882a.235.235,0,0,1-.181.385" transform="translate(-282.691 -6.765)"/>
    <path id="パス_33170" data-name="パス 33170" d="M152.555,30.976c-12.864,0-23.33-6.948-23.33-15.488S139.691,0,152.555,0a.235.235,0,1,1,0,.47C139.95.47,129.7,7.207,129.7,15.488s10.255,15.018,22.86,15.018a34.305,34.305,0,0,0,5.7-.471.235.235,0,0,1,.078.464,34.792,34.792,0,0,1-5.775.477" transform="translate(-108.969)"/>
    <path id="パス_33171" data-name="パス 33171" d="M214.928,20.031A8.032,8.032,0,1,1,206.9,12a8.032,8.032,0,0,1,8.032,8.032" transform="translate(-167.692 -10.118)" fill="#99b9ff"/>
    <path id="パス_33172" data-name="パス 33172" d="M205.63,27.033a8.267,8.267,0,1,1,8.267-8.267,8.277,8.277,0,0,1-8.267,8.267m0-16.064a7.8,7.8,0,1,0,7.8,7.8,7.806,7.806,0,0,0-7.8-7.8" transform="translate(-166.426 -8.853)"/>
    <path id="パス_33173" data-name="パス 33173" d="M220.585,26.979a6.741,6.741,0,1,1-6.741-6.741,6.741,6.741,0,0,1,6.741,6.741" transform="translate(-174.64 -17.066)" fill="#fff"/>
    <path id="パス_33174" data-name="パス 33174" d="M284.993,76.115a.235.235,0,0,1-.2-.363,6.463,6.463,0,0,0,.772-1.684.235.235,0,0,1,.451.133,6.946,6.946,0,0,1-.828,1.807.235.235,0,0,1-.2.108" transform="translate(-240.121 -62.316)"/>
    <path id="パス_33175" data-name="パス 33175" d="M225.645,23.009a.235.235,0,0,1-.212-.132,6.464,6.464,0,0,0-5.856-3.668,6.533,6.533,0,0,0-5.25,2.663.235.235,0,0,1-.379-.278,6.978,6.978,0,0,1,11.908,1.078.235.235,0,0,1-.211.338" transform="translate(-180.373 -15.801)"/>
    <path id="パス_33176" data-name="パス 33176" d="M212.579,51.227a6.978,6.978,0,0,1-6.087-10.385.235.235,0,0,1,.41.23,6.508,6.508,0,0,0,5.677,9.685.235.235,0,0,1,0,.47" transform="translate(-173.374 -34.339)"/>
    <path id="パス_33177" data-name="パス 33177" d="M235.494,42.4V41.289a4.694,4.694,0,0,1-1.983-.5l.35-1.365a4.118,4.118,0,0,0,1.936.513c.665,0,1.12-.257,1.12-.723,0-.443-.373-.723-1.236-1.015-1.248-.42-2.1-1-2.1-2.135a2.156,2.156,0,0,1,1.971-2.076V32.879H236.7v1.027a4.2,4.2,0,0,1,1.691.385l-.338,1.318a3.868,3.868,0,0,0-1.68-.4c-.758,0-1,.327-1,.653,0,.385.408.63,1.4,1,1.388.49,1.948,1.131,1.948,2.181a2.235,2.235,0,0,1-2.076,2.158V42.4Z" transform="translate(-196.908 -27.725)" fill="#5479f7"/>
    <path id="パス_33178" data-name="パス 33178" d="M283.881,54.485a8.258,8.258,0,1,1-8.258-8.275,8.266,8.266,0,0,1,8.258,8.275" transform="translate(-225.455 -38.967)" fill="#99b9ff"/>
    <path id="パス_33179" data-name="パス 33179" d="M292.8,111.361a.235.235,0,0,1-.209-.343,4.814,4.814,0,0,1,8.013-.838.235.235,0,0,1-.364.3,4.344,4.344,0,0,0-7.23.756.235.235,0,0,1-.209.127" transform="translate(-246.705 -91.414)"/>
    <path id="パス_33180" data-name="パス 33180" d="M303.813,77.5a.235.235,0,0,1-.235-.235V74.154a.235.235,0,1,1,.47,0v3.115a.235.235,0,0,1-.235.235" transform="translate(-255.992 -62.332)"/>
    <path id="パス_33181" data-name="パス 33181" d="M331.485,77.5a.235.235,0,0,1-.235-.235V74.154a.235.235,0,1,1,.47,0v3.115a.235.235,0,0,1-.235.235" transform="translate(-279.326 -62.332)"/>
    <path id="パス_33182" data-name="パス 33182" d="M200.838,83.462c-10.937,0-17.2-4.422-20.527-8.132a21.328,21.328,0,0,1-4.653-8.155.235.235,0,0,1,.457-.112,20.849,20.849,0,0,0,4.562,7.971c3.264,3.631,9.411,7.959,20.162,7.959a.235.235,0,0,1,0,.47" transform="translate(-148.117 -56.399)"/>
    <path id="パス_33183" data-name="パス 33183" d="M311.579,164.035a.235.235,0,0,1-.07-.46l3.61-1.12-3.506-1.169a.235.235,0,0,1,.149-.446l4.2,1.4a.235.235,0,0,1,0,.448l-4.308,1.336a.233.233,0,0,1-.07.01" transform="translate(-262.54 -135.619)"/>
  </g>
</svg>
