<svg id="グループ_6390" data-name="グループ 6390" xmlns="http://www.w3.org/2000/svg" xmlns:xlink="http://www.w3.org/1999/xlink" width="130" height="130" viewBox="0 0 130 130">
  <defs>
    <clipPath id="clip-path">
      <rect id="長方形_10608" data-name="長方形 10608" width="130" height="130" fill="none"/>
    </clipPath>
  </defs>
  <g id="グループ_6389" data-name="グループ 6389" clip-path="url(#clip-path)">
    <path id="パス_32961" data-name="パス 32961" d="M98.523,32.832c-13.6-13.686-9.705-22.264-19.01-28.6C65.2-5.519,38.474,2.87,22.71,16.281,3.4,32.707-6.56,62.7,4.788,89.831c12.085,28.9,43.883,43.895,72.257,39.374,25.337-4.037,50.245-24.006,52.741-47.956.27-2.6,1.465-16.629-6.911-28.727-6.923-10-13.572-8.841-24.352-19.69" transform="translate(0 0)" fill="#caddff"/>
    <path id="パス_32962" data-name="パス 32962" d="M720.316,490.247s-4.3-16,2.278-29.262c.22-.443,1.932.468,2.177.031.313-.558-.834-2.461-.478-3.006a27.417,27.417,0,0,1,4.938-5.678,35.292,35.292,0,0,1,2.113,11.847c.008.526-2.154,1.523-2.17,2.071-.015.518,2.117.585,2.078,1.121a34.784,34.784,0,0,1-10.936,22.877" transform="translate(-606.331 -381.485)" fill="#fff"/>
    <path id="パス_32963" data-name="パス 32963" d="M633.791,486.956c-.218-.485-2.289.657-2.516.192s1.213-3.124.981-3.563a46.775,46.775,0,0,0-10.312-13.338,36.563,36.563,0,0,0-2.3,10.873c-.032.568,2.257,2.014,2.25,2.577-.008.617-2.194.923-2.173,1.534.309,9.015,3.543,16.7,7.046,22.923a49.246,49.246,0,0,0,10.834-2.637,42.349,42.349,0,0,0-3.813-18.56" transform="translate(-522.594 -396.594)" fill="#99b9ff"/>
    <path id="パス_32964" data-name="パス 32964" d="M680.483,639.245c-1.116-2.776-2.174-5.619-3.144-8.449a.235.235,0,0,1,.445-.152c.968,2.823,2.023,5.658,3.136,8.426Z" transform="translate(-571.239 -531.734)" fill="#caddff"/>
    <path id="パス_32965" data-name="パス 32965" d="M645.205,513.991a.235.235,0,0,1-.224-.164c-1.518-4.813-2.842-9.752-3.933-14.68l-.5-2.253a.235.235,0,0,1,.459-.1l.5,2.253c1.088,4.915,2.408,9.84,3.922,14.64a.235.235,0,0,1-.224.306" transform="translate(-540.217 -418.825)" fill="#caddff"/>
    <path id="パス_32966" data-name="パス 32966" d="M723.987,601.133s.369-16.04,16.6-18.171a22.918,22.918,0,0,1-16.6,18.171" transform="translate(-610.591 -491.655)" fill="#99b9ff"/>
    <path id="パス_32967" data-name="パス 32967" d="M745.8,614.78a.235.235,0,0,1-.2-.357c2.787-4.576,9.806-11.084,9.876-11.15a.235.235,0,0,1,.319.345c-.07.065-7.042,6.529-9.794,11.049a.234.234,0,0,1-.2.113" transform="translate(-628.79 -508.732)" fill="#caddff"/>
    <path id="パス_32968" data-name="パス 32968" d="M4.271,256.234l76.666-10.662a3.855,3.855,0,0,0,3.367-3.824l1.052-53.475a26.431,26.431,0,0,0-2.738-1.743,2.976,2.976,0,0,0-1.688-.276L4.492,196a3.855,3.855,0,0,0-3.367,3.824v52.523a2.985,2.985,0,0,0,1.094,2.314c.612.5,2.053,1.571,2.053,1.571" transform="translate(-0.949 -157.061)" fill="#5479f7"/>
    <path id="パス_32969" data-name="パス 32969" d="M17.987,264.981l76.584-9.767a3.862,3.862,0,0,0,3.374-3.831V198.76a3,3,0,0,0-3.381-2.977L17.98,205.549a3.862,3.862,0,0,0-3.374,3.831V262a3,3,0,0,0,3.381,2.977" transform="translate(-12.318 -165.097)" fill="#99b9ff"/>
    <path id="パス_32970" data-name="パス 32970" d="M62.47,616.574l78.613-10.138a1.084,1.084,0,0,0,.954-1.109c-.005-.355-.034-2.858-.034-2.858l-41.567-23.763a11.888,11.888,0,0,0-7.156-1.344L15.66,587.375a1.33,1.33,0,0,0-1.053.8l-.125.292s.067,2.087.04,2.575a1.067,1.067,0,0,0,.55,1l40.523,23.17a11.037,11.037,0,0,0,6.875,1.363" transform="translate(-12.214 -486.855)" fill="#99b9ff"/>
    <path id="パス_32971" data-name="パス 32971" d="M63.845,613.221,142.177,603.1a1.092,1.092,0,0,0,.4-2.032l-40.306-23.02a11.037,11.037,0,0,0-6.875-1.363L17.067,586.8a1.092,1.092,0,0,0-.4,2.032L56.97,611.857a11.036,11.036,0,0,0,6.875,1.363" transform="translate(-13.589 -486.286)" fill="#fff"/>
    <path id="パス_32972" data-name="パス 32972" d="M61.193,612.286a11.346,11.346,0,0,1-5.607-1.482L15.28,587.784a1.327,1.327,0,0,1,.49-2.469L94.1,575.2a11.339,11.339,0,0,1,7.022,1.393l40.306,23.02a1.327,1.327,0,0,1-.49,2.469L62.608,612.2h0a11.125,11.125,0,0,1-1.414.09m1.384-.323h0Zm32.939-36.388a10.672,10.672,0,0,0-1.355.086L15.829,585.781a.857.857,0,0,0-.317,1.6L55.819,610.4a10.867,10.867,0,0,0,6.729,1.334l78.332-10.119a.857.857,0,0,0,.317-1.6L100.89,577a10.876,10.876,0,0,0-5.374-1.421" transform="translate(-12.321 -485.029)"/>
    <path id="パス_32973" data-name="パス 32973" d="M100.832,615.683l67.924-8.839a.987.987,0,0,0,.364-1.835L153.15,595.98a9.969,9.969,0,0,0-6.21-1.232l-67.924,8.839a.987.987,0,0,0-.364,1.836l15.971,9.029a9.966,9.966,0,0,0,6.209,1.232" transform="translate(-65.913 -501.527)" fill="#99b9ff"/>
    <path id="パス_32974" data-name="パス 32974" d="M417.09,723.028l16.394-2.1a.444.444,0,0,0,.164-.825l-7.177-4.058a4.48,4.48,0,0,0-2.79-.553l-16.394,2.1a.444.444,0,0,0-.164.825l7.177,4.058a4.478,4.478,0,0,0,2.79.553" transform="translate(-343.168 -603.397)" fill="#99b9ff"/>
    <path id="パス_32975" data-name="パス 32975" d="M74.778,288.964a.627.627,0,0,1-.078-1.248l29.228-3.727a.626.626,0,1,1,.159,1.243l-29.228,3.727a.629.629,0,0,1-.08.005" transform="translate(-62.538 -239.504)" fill="#caddff"/>
    <path id="パス_32976" data-name="パス 32976" d="M74.778,334.322a.627.627,0,0,1-.078-1.248l12.154-1.55a.627.627,0,0,1,.158,1.243l-12.154,1.55a.629.629,0,0,1-.08.005" transform="translate(-62.538 -279.594)" fill="#caddff"/>
    <path id="パス_32977" data-name="パス 32977" d="M74.778,356.231a.627.627,0,0,1-.078-1.248l29.227-3.727a.627.627,0,0,1,.158,1.243l-29.227,3.727a.629.629,0,0,1-.08.005" transform="translate(-62.538 -296.235)" fill="#caddff"/>
    <path id="パス_32978" data-name="パス 32978" d="M74.778,394.457a.627.627,0,0,1-.078-1.248l22.541-2.875a.626.626,0,1,1,.159,1.243l-22.541,2.875a.629.629,0,0,1-.08.005" transform="translate(-62.538 -329.193)" fill="#caddff"/>
    <path id="パス_32979" data-name="パス 32979" d="M74.778,457.132a.627.627,0,0,1-.078-1.248l29.228-3.727a.626.626,0,1,1,.159,1.243l-29.228,3.727a.629.629,0,0,1-.08.005" transform="translate(-62.538 -381.333)" fill="#caddff"/>
    <path id="パス_32980" data-name="パス 32980" d="M128.112,490.487a.627.627,0,0,1-.078-1.248l20.874-2.662a.627.627,0,0,1,.159,1.243l-20.874,2.662a.629.629,0,0,1-.08.005" transform="translate(-107.519 -410.362)" fill="#caddff"/>
    <path id="パス_32981" data-name="パス 32981" d="M74.778,525.186a.627.627,0,0,1-.078-1.248l29.228-3.727a.626.626,0,1,1,.159,1.243l-29.228,3.727a.624.624,0,0,1-.08.005" transform="translate(-62.538 -438.727)" fill="#caddff"/>
    <path id="パス_32982" data-name="パス 32982" d="M74.778,558.82a.627.627,0,0,1-.078-1.248l29.228-3.727a.626.626,0,1,1,.159,1.243l-29.228,3.727a.624.624,0,0,1-.08.005" transform="translate(-62.538 -467.094)" fill="#caddff"/>
    <path id="パス_32983" data-name="パス 32983" d="M303.721,434.2a.627.627,0,0,1-.078-1.248l19.745-2.518a.627.627,0,0,1,.158,1.243L303.8,434.2a.629.629,0,0,1-.08.005" transform="translate(-255.623 -363.013)" fill="#caddff"/>
    <path id="パス_32984" data-name="パス 32984" d="M336.284,461.772a.627.627,0,0,1-.078-1.248l23.671-3.019a.627.627,0,1,1,.158,1.243l-23.671,3.019a.635.635,0,0,1-.08.005" transform="translate(-283.086 -385.844)" fill="#caddff"/>
    <path id="パス_32985" data-name="パス 32985" d="M303.724,504.215a.627.627,0,0,1-.078-1.248l16.89-2.154a.626.626,0,1,1,.159,1.243L303.8,504.21a.63.63,0,0,1-.08.005" transform="translate(-255.625 -422.368)" fill="#caddff"/>
    <path id="パス_32986" data-name="パス 32986" d="M303.721,534.136a.627.627,0,0,1-.078-1.248l22.3-2.844a.626.626,0,1,1,.159,1.243l-22.3,2.844a.624.624,0,0,1-.08.005" transform="translate(-255.623 -447.021)" fill="#caddff"/>
    <path id="パス_32987" data-name="パス 32987" d="M295.168,45.786V42.718h1.5v1.4Z" transform="translate(-248.936 -36.027)" fill="#fff"/>
    <path id="パス_32988" data-name="パス 32988" d="M297.324,77.942l49.168-6.29a2.525,2.525,0,0,0,2.156-2.432V8.406a1.856,1.856,0,0,0-2.156-1.88l-49.168,6.29a2.525,2.525,0,0,0-2.156,2.432V76.062a1.856,1.856,0,0,0,2.156,1.88" transform="translate(-248.937 -5.489)" fill="#fff"/>
    <path id="パス_32989" data-name="パス 32989" d="M362.412,135.9l31.867-4.077a1.636,1.636,0,0,0,1.4-1.576V90.833a1.2,1.2,0,0,0-1.4-1.218l-31.867,4.077a1.636,1.636,0,0,0-1.4,1.576v39.415a1.2,1.2,0,0,0,1.4,1.219" transform="translate(-304.47 -75.569)" fill="#99b9ff"/>
    <path id="パス_32990" data-name="パス 32990" d="M491.367,47.765a.235.235,0,0,1-.235-.235V7.14a1.649,1.649,0,0,0-.545-1.262,1.68,1.68,0,0,0-1.346-.385L464.657,8.638a.235.235,0,1,1-.06-.466l24.584-3.145a2.143,2.143,0,0,1,1.716.5,2.113,2.113,0,0,1,.7,1.615V47.53a.235.235,0,0,1-.235.235" transform="translate(-391.656 -4.223)"/>
    <path id="パス_32991" data-name="パス 32991" d="M308.545,45.274l-5.84.74L295.168,39l5.479-.69Z" transform="translate(-248.937 -32.314)" fill="#5479f7"/>
    <path id="パス_32992" data-name="パス 32992" d="M346.337,87.423l-.488.062c-1.472.187-2.66-.6-2.652-1.76l.015-2.239,5.84-.74-.026,2.239a2.885,2.885,0,0,1-2.689,2.437" transform="translate(-289.443 -69.786)" fill="#5479f7"/>
    <path id="パス_32993" data-name="パス 32993" d="M343.878,40.549l-5.833.739-7.9-6.959,5.881-.74Z" transform="translate(-278.437 -28.328)" fill="#caddff"/>
    <path id="パス_32994" data-name="パス 32994" d="M383.537,82.7l-.487.062c-1.471.187-2.653-.6-2.639-1.76l.026-2.239,5.833-.739-.037,2.239a2.9,2.9,0,0,1-2.7,2.437" transform="translate(-320.828 -65.807)" fill="#caddff"/>
    <path id="パス_32995" data-name="パス 32995" d="M381.372,35.83l-5.826.738-7.85-6.96,5.874-.739Z" transform="translate(-310.104 -24.346)" fill="#5479f7"/>
    <path id="パス_32996" data-name="パス 32996" d="M420.7,77.993l-.487.062c-1.469.187-2.645-.6-2.626-1.761l.036-2.239,5.826-.738-.047,2.239a2.914,2.914,0,0,1-2.7,2.437" transform="translate(-352.178 -61.834)" fill="#5479f7"/>
    <path id="パス_32997" data-name="パス 32997" d="M418.82,31.116,413,31.853l-7.8-6.962,5.867-.738Z" transform="translate(-341.733 -20.37)" fill="#caddff"/>
    <path id="パス_32998" data-name="パス 32998" d="M457.81,73.286l-.486.062c-1.467.187-2.637-.6-2.613-1.761l.047-2.239,5.819-.737-.058,2.239a2.928,2.928,0,0,1-2.71,2.436" transform="translate(-383.491 -57.864)" fill="#caddff"/>
    <path id="パス_32999" data-name="パス 32999" d="M456.225,26.407l-5.813.736-7.755-6.963,5.86-.738Z" transform="translate(-373.326 -16.397)" fill="#5479f7"/>
    <path id="パス_33000" data-name="パス 33000" d="M494.881,68.586l-.485.062c-1.466.186-2.63-.6-2.6-1.762l.058-2.239,5.813-.736-.069,2.239a2.944,2.944,0,0,1-2.717,2.436" transform="translate(-414.767 -53.9)" fill="#5479f7"/>
    <path id="パス_33001" data-name="パス 33001" d="M493.587,21.7l-5.806.735-7.707-6.965,5.854-.737Z" transform="translate(-404.881 -12.43)" fill="#caddff"/>
    <path id="パス_33002" data-name="パス 33002" d="M531.908,63.889l-.485.062c-1.464.186-2.622-.6-2.586-1.762l.069-2.239,5.806-.736-.08,2.24a2.958,2.958,0,0,1-2.724,2.436" transform="translate(-446.006 -49.94)" fill="#caddff"/>
    <path id="パス_33003" data-name="パス 33003" d="M530.905,17.007l-5.8.735-7.66-6.966,5.847-.736Z" transform="translate(-436.4 -8.467)" fill="#5479f7"/>
    <path id="パス_33004" data-name="パス 33004" d="M568.893,59.2l-.484.062c-1.462.186-2.615-.6-2.573-1.763l.08-2.24,5.8-.735-.091,2.24a2.973,2.973,0,0,1-2.731,2.436" transform="translate(-477.21 -45.984)" fill="#5479f7"/>
    <path id="パス_33005" data-name="パス 33005" d="M605.41,7.629l-5.786.733-7.565-6.969,5.833-.734Z" transform="translate(-499.327 -0.556)" fill="#5479f7"/>
    <path id="パス_33006" data-name="パス 33006" d="M642.734,49.836l-.483.061c-1.459.186-2.6-.6-2.547-1.763l.1-2.24,5.786-.733-.112,2.24a3,3,0,0,1-2.745,2.435" transform="translate(-539.508 -38.088)" fill="#5479f7"/>
    <path id="パス_33007" data-name="パス 33007" d="M568.179,12.316l-5.793.734-7.612-6.968,5.84-.735Z" transform="translate(-467.882 -4.509)" fill="#caddff"/>
    <path id="パス_33008" data-name="パス 33008" d="M605.835,54.515l-.484.062c-1.461.186-2.607-.6-2.56-1.763l.09-2.24,5.792-.734-.1,2.24a2.988,2.988,0,0,1-2.738,2.435" transform="translate(-508.377 -42.034)" fill="#caddff"/>
    <path id="パス_33009" data-name="パス 33009" d="M342.026,50.757a.235.235,0,0,1-.029-.468l52.315-6.627a.235.235,0,1,1,.059.466l-52.315,6.627-.03,0" transform="translate(-288.257 -36.822)" fill="#fff"/>
    <path id="パス_33010" data-name="パス 33010" d="M157.977,350.645a2.6,2.6,0,0,0-2.224,2.508v15.3a1.915,1.915,0,0,0,2.224,1.939l54.99-7.035a2.6,2.6,0,0,0,2.224-2.508v-15.3a1.915,1.915,0,0,0-2.224-1.939Z" transform="translate(-131.358 -289.776)" fill="#fff"/>
    <path id="パス_33011" data-name="パス 33011" d="M309.336,363.2a.235.235,0,0,1-.03-.468l6.826-.873a2.366,2.366,0,0,0,2.018-2.275v-15.3a1.709,1.709,0,0,0-.565-1.307,1.74,1.74,0,0,0-1.394-.4l-37.814,4.838a.235.235,0,1,1-.06-.466l37.814-4.838a2.2,2.2,0,0,1,1.764.512,2.171,2.171,0,0,1,.725,1.66v15.3a2.848,2.848,0,0,1-2.429,2.741l-6.826.873-.03,0" transform="translate(-234.553 -288.51)"/>
    <path id="パス_33012" data-name="パス 33012" d="M156.424,402.6a2.138,2.138,0,0,1-2.171-2.193V385.1a2.849,2.849,0,0,1,2.429-2.741l6.915-.885a.235.235,0,1,1,.06.466l-6.915.885a2.366,2.366,0,0,0-2.018,2.275v15.3a1.708,1.708,0,0,0,.565,1.307,1.74,1.74,0,0,0,1.394.4l44.7-5.719a.235.235,0,1,1,.06.466l-44.7,5.719a2.485,2.485,0,0,1-.318.021" transform="translate(-130.093 -321.726)"/>
    <path id="パス_33013" data-name="パス 33013" d="M199.179,387.716l39.967-5.113a1.219,1.219,0,0,0,1.041-1.174.9.9,0,0,0-1.041-.908l-39.967,5.113a1.219,1.219,0,0,0-1.041,1.174.9.9,0,0,0,1.041.908" transform="translate(-167.104 -320.915)" fill="#99b9ff"/>
    <path id="パス_33014" data-name="パス 33014" d="M199.179,416.339l39.967-5.113a1.219,1.219,0,0,0,1.041-1.174.9.9,0,0,0-1.041-.908l-39.967,5.113a1.218,1.218,0,0,0-1.041,1.174.9.9,0,0,0,1.041.908" transform="translate(-167.104 -345.054)" fill="#caddff"/>
    <path id="パス_33015" data-name="パス 33015" d="M199.179,444.96l39.967-5.113a1.219,1.219,0,0,0,1.041-1.174.9.9,0,0,0-1.041-.908l-39.967,5.113a1.219,1.219,0,0,0-1.041,1.174.9.9,0,0,0,1.041.908" transform="translate(-167.104 -369.193)" fill="#caddff"/>
    <path id="パス_33016" data-name="パス 33016" d="M649.41,393.411c0-.208-11.6-2.041-12.353-4.162-1.117-3.164-2.51-6.969-2.51-6.969l-2.9,1.83,1.866,9.1Z" transform="translate(-532.717 -322.405)" fill="#fff"/>
    <path id="パス_33017" data-name="パス 33017" d="M648.145,392.381h0l-15.894-.2a.235.235,0,0,1-.227-.188l-1.866-9.1a.235.235,0,0,1,.1-.246l2.9-1.83a.235.235,0,0,1,.346.118c.014.038,1.406,3.842,2.511,6.972.521,1.475,7.452,2.952,10.412,3.582,1.955.417,1.955.417,1.954.659a.235.235,0,0,1-.235.234m-15.7-.663,13.591.167c-5.159-1.106-9.937-2.336-10.462-3.822-.932-2.641-2.07-5.764-2.409-6.693l-2.514,1.588Z" transform="translate(-531.451 -321.14)"/>
    <path id="パス_33018" data-name="パス 33018" d="M513.949,314.832a19.388,19.388,0,0,1,12.023.055A4.923,4.923,0,0,1,529.355,319l4.105,23.638c.2,1.719-2.093,3.389-3.712,4a22.145,22.145,0,0,1-7.864,1.246c-3.879,0-6.7.225-8.271-.464-1.306-.572-3.271-1.955-3.337-3.379l.285-24.3a4.931,4.931,0,0,1,3.387-4.919" transform="translate(-430.354 -264.74)" fill="#5479f7"/>
    <path id="パス_33019" data-name="パス 33019" d="M620.064,331.089s-3.277-9.077-6.952-9.95L614.981,334Z" transform="translate(-517.082 -270.84)" fill="#5479f7"/>
    <path id="パス_33020" data-name="パス 33020" d="M484.928,337.234a82.484,82.484,0,0,1,.884-8.421,7.455,7.455,0,0,1,5.813-5.684l.571,13.26Z" transform="translate(-408.975 -272.519)" fill="#5479f7"/>
    <path id="パス_33021" data-name="パス 33021" d="M534.107,325.17a25.068,25.068,0,0,1-4.078-.33.235.235,0,0,1,.084-.462c.054.01,5.427.956,9.315-.485a.235.235,0,1,1,.163.44,16.189,16.189,0,0,1-5.484.836" transform="translate(-446.849 -273.151)"/>
    <path id="パス_33022" data-name="パス 33022" d="M490.64,409.295s-.354,4.632,1.481,7.742c2.192,3.713,13.247-1.288,13.247-1.288l1.286-.728a3.573,3.573,0,0,1,2.857-.291l2.077.67a14.437,14.437,0,0,0-3.174-2.843,2.428,2.428,0,0,0-2.319.454,7.659,7.659,0,0,1-4.329,1.153l-4.4-.131a1.457,1.457,0,0,1-1.408-1.329l-.334-3.832Z" transform="translate(-413.77 -344.833)" fill="#fff"/>
    <path id="パス_33023" data-name="パス 33023" d="M494.195,417.374c-1.584,0-2.91-.394-3.554-1.484-1.851-3.137-1.528-7.687-1.513-7.879a.235.235,0,0,1,.214-.216l4.986-.422a.235.235,0,0,1,.254.214l.334,3.832a1.222,1.222,0,0,0,1.181,1.115l4.4.131a7.389,7.389,0,0,0,4.2-1.117,2.545,2.545,0,0,1,2.557-.463,14.467,14.467,0,0,1,3.243,2.9.235.235,0,0,1-.253.374l-2.077-.67a3.346,3.346,0,0,0-2.669.272l-1.286.728-.019.01c-.329.149-5.982,2.677-9.992,2.677m-4.609-9.128c-.04.912-.1,4.757,1.46,7.405.546.926,1.707,1.267,3.119,1.267,3.842,0,9.546-2.523,9.82-2.646l1.276-.723a3.817,3.817,0,0,1,3.045-.31l1.252.4a11.663,11.663,0,0,0-2.533-2.146c-.615-.332-1.472.06-2.082.446a7.858,7.858,0,0,1-4.461,1.19l-4.4-.131a1.692,1.692,0,0,1-1.635-1.544l-.314-3.6Z" transform="translate(-412.492 -343.566)"/>
    <path id="パス_33024" data-name="パス 33024" d="M586.2,736.8l-2.4,7.151s2.611-.223,2.86-.174,3.3-6.521,3.3-6.521Z" transform="translate(-492.363 -621.402)" fill="#fff"/>
    <path id="パス_33025" data-name="パス 33025" d="M582.538,742.926a.235.235,0,0,1-.223-.31l2.4-7.151a.234.234,0,0,1,.251-.159l3.767.455a.235.235,0,0,1,.185.332c-.008.016-.773,1.663-1.56,3.283-1.669,3.436-1.773,3.415-2,3.37-.166-.024-1.553.072-2.795.177h-.02m2.558-7.13-2.222,6.631c.731-.06,2-.157,2.442-.15.378-.5,1.984-3.835,3.035-6.087Zm.346,6.49Zm-.01,0,.01,0-.01,0" transform="translate(-491.099 -620.137)"/>
    <path id="パス_33026" data-name="パス 33026" d="M574.03,764.752s3.6-1.477,4.271.377c.848,2.359,2.173,5.957,2.173,5.957a1.01,1.01,0,0,1-.87,1.348,13.4,13.4,0,0,1-4.2-.129c-1.445-.507-3.842-5.08-3.842-5.08l.739-3.891a1.627,1.627,0,0,1,1.727,1.419" transform="translate(-482.042 -643.77)" fill="#99b9ff"/>
    <path id="パス_33027" data-name="パス 33027" d="M576.217,771.51a7.239,7.239,0,0,1-2.153-.239c-1.489-.523-3.723-4.716-3.973-5.193a.234.234,0,0,1-.023-.153l.739-3.891a.235.235,0,0,1,.2-.189,1.834,1.834,0,0,1,1.911,1.343c.641-.23,2.4-.776,3.506-.285a1.5,1.5,0,0,1,.835.891c.838,2.331,2.159,5.92,2.172,5.956a1.244,1.244,0,0,1-1.072,1.663c-.661.053-1.421.1-2.141.1m-5.672-5.578c.689,1.3,2.581,4.512,3.674,4.9a12.389,12.389,0,0,0,4.1.117.775.775,0,0,0,.668-1.034c-.013-.034-1.335-3.625-2.173-5.957a1.034,1.034,0,0,0-.583-.62c-1.159-.516-3.356.372-3.378.381a.235.235,0,0,1-.316-.158c-.281-1.075-.983-1.235-1.3-1.25Z" transform="translate(-480.777 -642.515)"/>
    <path id="パス_33028" data-name="パス 33028" d="M601.357,810.5h-3.7a.235.235,0,0,1,0-.47h3.7a.235.235,0,1,1,0,.47" transform="translate(-503.848 -683.156)"/>
    <path id="パス_33029" data-name="パス 33029" d="M555.716,747.019l.814,7.193,3.276-.9-.252-6.481Z" transform="translate(-468.676 -629.859)" fill="#fff"/>
    <path id="パス_33030" data-name="パス 33030" d="M555.266,753.182a.235.235,0,0,1-.233-.209l-.814-7.193a.235.235,0,0,1,.222-.261l3.838-.186a.235.235,0,0,1,.246.226l.252,6.481a.235.235,0,0,1-.173.236l-3.276.9a.235.235,0,0,1-.062.008m-.553-7.206.755,6.672,2.831-.777-.236-6.058Z" transform="translate(-467.411 -628.594)"/>
    <path id="パス_33031" data-name="パス 33031" d="M552.749,787.035h5.183a1.148,1.148,0,0,0,1.137-1.315,15.3,15.3,0,0,0-2.427-5.783,1.009,1.009,0,0,0-.852-.469h-1.576a.531.531,0,0,0-.528.476l-.119,1.137-.686-.906a15.45,15.45,0,0,0-1.282,5.691,1.15,1.15,0,0,0,1.15,1.17" transform="translate(-465.204 -657.382)" fill="#99b9ff"/>
    <path id="パス_33032" data-name="パス 33032" d="M556.666,786h-5.183a1.386,1.386,0,0,1-1.385-1.41,15.534,15.534,0,0,1,1.3-5.787.235.235,0,0,1,.4-.041l.327.432.057-.546a.764.764,0,0,1,.762-.686h1.576a1.237,1.237,0,0,1,1.05.578,15.539,15.539,0,0,1,2.461,5.875,1.383,1.383,0,0,1-1.37,1.585m-4.994-6.632a15.426,15.426,0,0,0-1.1,5.231.915.915,0,0,0,.915.931h5.183a.913.913,0,0,0,.9-1.046,15.084,15.084,0,0,0-2.393-5.692.779.779,0,0,0-.653-.359h-1.576a.3.3,0,0,0-.294.265l-.119,1.137a.235.235,0,0,1-.421.117Z" transform="translate(-463.938 -656.117)"/>
    <path id="パス_33033" data-name="パス 33033" d="M561.42,818.845h-6.2a.235.235,0,1,1,0-.47h6.2a.235.235,0,0,1,0,.47" transform="translate(-468.055 -690.196)"/>
    <path id="パス_33034" data-name="パス 33034" d="M543.713,464.352a1.2,1.2,0,0,0-.753-.693,18.468,18.468,0,0,0-15.306,2.2,1.209,1.209,0,0,0-.554.931,138.942,138.942,0,0,0,4.554,42.924l3.851-.274.785-36.584s5.7,13.412,1.066,34.756l4.005.74a40.769,40.769,0,0,0,6.911-19.484c.928-10.418-3.521-21.986-4.56-24.517" transform="translate(-444.37 -390.392)"/>
    <path id="パス_33035" data-name="パス 33035" d="M541.7,624.823h-.01c-3.632-.157-4.042-5.081-4.046-5.131a.235.235,0,0,1,.469-.035c0,.045.383,4.558,3.6,4.7a.235.235,0,0,1-.01.47" transform="translate(-453.435 -522.418)" fill="#fff"/>
    <path id="パス_33036" data-name="パス 33036" d="M587.022,513.167a.235.235,0,0,1-.235-.228l-.136-4.576a.234.234,0,0,1,.1-.2l2.4-1.688a.235.235,0,1,1,.27.384l-2.3,1.615.132,4.45a.235.235,0,0,1-.228.242h-.007" transform="translate(-494.766 -427.113)" fill="#fff"/>
    <path id="パス_33037" data-name="パス 33037" d="M539.721,224.356c-1.464-1.259-1.8-1.431-2.225-2.153a3.845,3.845,0,0,1-.6-3.292,3.283,3.283,0,0,1,2.862-1.989,3.582,3.582,0,0,1,2.192.693,4.731,4.731,0,0,1,2.02,2.821c.083.456.021.665.229.951.468.643,1.315.315,1.9.849.737.671.4,2.1.367,2.21a3.338,3.338,0,0,1-3.372,2.392c-.775-.081-.691-.173-3.377-2.482" transform="translate(-452.656 -182.943)"/>
    <path id="パス_33038" data-name="パス 33038" d="M541.228,256.134a2.473,2.473,0,0,1-1.1-2.119l.081-3.522.071-.067s1.411.094,1.616-.624-.792-.856-.792-.856.942-1.983-1.495-1.96c-.655.006-.889-1.079-1.962-1.322,0,0-.531-.045-1.069,1.347l-1.179,1.745.589.323a6.606,6.606,0,0,0-.118,2.171.573.573,0,0,0,.393.48,3.641,3.641,0,0,0,.7.151l-.19,2.357A3.479,3.479,0,0,1,535.3,256.8a17.434,17.434,0,0,1-1.574.98,29.03,29.03,0,0,0,9.341-.546s-.965-.528-1.836-1.1" transform="translate(-450.128 -207.186)" fill="#fff"/>
    <path id="パス_33039" data-name="パス 33039" d="M535.358,256.906a24.353,24.353,0,0,1-2.931-.154.235.235,0,0,1-.079-.44,17.385,17.385,0,0,0,1.55-.965,3.233,3.233,0,0,0,1.372-2.392l.172-2.138a3.829,3.829,0,0,1-.517-.128.811.811,0,0,1-.555-.677,6.815,6.815,0,0,1,.087-2.076l-.437-.24a.235.235,0,0,1-.082-.337l1.164-1.723c.57-1.457,1.182-1.481,1.3-1.472l.032,0a2.469,2.469,0,0,1,1.313.883c.244.268.4.433.593.433h.047a1.845,1.845,0,0,1,1.671.669,1.663,1.663,0,0,1,.094,1.36,1.167,1.167,0,0,1,.623.429.779.779,0,0,1,.083.657c-.209.731-1.241.8-1.683.8l-.076,3.354a2.224,2.224,0,0,0,1,1.918c.853.565,1.81,1.089,1.819,1.095a.235.235,0,0,1-.06.435,29.577,29.577,0,0,1-6.494.7m-2.15-.549a29.808,29.808,0,0,0,7.939-.484c-.361-.209-.852-.5-1.314-.809a2.692,2.692,0,0,1-1.206-2.321l.08-3.522a.236.236,0,0,1,.076-.167l.07-.065a.239.239,0,0,1,.176-.063c.316.02,1.25-.019,1.375-.455a.3.3,0,0,0-.025-.272.945.945,0,0,0-.574-.287.235.235,0,0,1-.18-.333,1.424,1.424,0,0,0,.033-1.173c-.2-.305-.633-.458-1.313-.451a1.342,1.342,0,0,1-.948-.587,2.056,2.056,0,0,0-1.032-.732c-.076.02-.437.168-.834,1.195a.244.244,0,0,1-.024.047l-1.035,1.531.363.2a.235.235,0,0,1,.117.256,6.383,6.383,0,0,0-.114,2.094.339.339,0,0,0,.232.283,3.4,3.4,0,0,0,.652.141.235.235,0,0,1,.207.252l-.19,2.357a3.7,3.7,0,0,1-1.571,2.739c-.35.246-.686.459-.959.625" transform="translate(-448.864 -205.921)"/>
    <path id="パス_33040" data-name="パス 33040" d="M554.38,281.126s1.546.054,2.16-.787Z" transform="translate(-467.549 -236.43)" fill="#fff"/>
    <path id="パス_33041" data-name="パス 33041" d="M553.179,280.1h-.071a.235.235,0,0,1,.016-.47c.016,0,1.43.039,1.963-.691a.235.235,0,1,1,.379.277,3.014,3.014,0,0,1-2.287.884" transform="translate(-466.285 -235.165)"/>
    <path id="パス_33042" data-name="パス 33042" d="M681.825,352.106H667.031L678,335.239a1.884,1.884,0,0,1,1.582-.847h12.006a.94.94,0,0,1,.819,1.443Z" transform="translate(-562.556 -282.017)"/>
    <path id="パス_33043" data-name="パス 33043" d="M764.833,364.947a3.127,3.127,0,0,1-2.309,1.339c-.795,0-1.049-.6-.568-1.339a3.127,3.127,0,0,1,2.309-1.339c.795,0,1.049.6.568,1.339" transform="translate(-642.408 -306.657)" fill="#caddff"/>
    <path id="パス_33044" data-name="パス 33044" d="M611.206,448.247h-24.63a1.529,1.529,0,0,1-1.529-1.529h27.688a1.529,1.529,0,0,1-1.529,1.529" transform="translate(-493.413 -376.75)"/>
    <path id="パス_33045" data-name="パス 33045" d="M686.9,446.558H674.191a.235.235,0,0,1,0-.47H686.9a.235.235,0,0,1,0,.47" transform="translate(-568.397 -376.219)" fill="#fff"/>
    <path id="パス_33046" data-name="パス 33046" d="M693.7,222.457a1.262,1.262,0,1,1,1.262-1.262,1.264,1.264,0,0,1-1.262,1.262m0-2.054a.792.792,0,1,0,.792.792.793.793,0,0,0-.792-.792" transform="translate(-583.981 -185.486)" fill="#99b9ff"/>
    <path id="パス_33047" data-name="パス 33047" d="M711.5,194.744a1.792,1.792,0,1,1,1.792-1.792,1.794,1.794,0,0,1-1.792,1.792m0-3.113a1.322,1.322,0,1,0,1.322,1.322,1.323,1.323,0,0,0-1.322-1.322" transform="translate(-598.546 -161.22)" fill="#99b9ff"/>
    <path id="パス_33048" data-name="パス 33048" d="M716.966,153.433a.235.235,0,0,1-.234-.251l.308-4.471a.235.235,0,0,1,.366-.179l3.718,2.5a.235.235,0,0,1-.028.406l-4.026,1.969a.235.235,0,0,1-.1.024m.514-4.284-.252,3.659,3.295-1.611Z" transform="translate(-604.472 -125.234)" fill="#99b9ff"/>
    <path id="パス_33049" data-name="パス 33049" d="M104.186,94.831a.235.235,0,0,1-.2-.357,48.756,48.756,0,0,1,18.9-17.925.235.235,0,0,1,.2.427,48.265,48.265,0,0,0-18.692,17.742.235.235,0,0,1-.2.113" transform="translate(-87.67 -64.542)"/>
    <path id="パス_33050" data-name="パス 33050" d="M154.767,89.463a.235.235,0,0,1-.187-.377c4.982-6.55,15.044-12.467,15.145-12.526a.235.235,0,0,1,.237.406c-.1.058-10.083,5.929-15.008,12.4a.234.234,0,0,1-.187.093" transform="translate(-130.329 -64.542)"/>
  </g>
</svg>
