<svg xmlns="http://www.w3.org/2000/svg" width="184" height="184" viewBox="0 0 184 184">
  <g id="グループ_6403" data-name="グループ 6403" transform="translate(-747 -7516)">
    <g id="長方形_10352" data-name="長方形 10352" transform="translate(747 7516)" fill="#fff" stroke="#f77ee6" stroke-width="4">
      <rect width="184" height="184" stroke="none"/>
      <rect x="2" y="2" width="180" height="180" fill="none"/>
    </g>
    <g id="グループ_106" data-name="グループ 106" transform="translate(750.516 7562.744)">
      <path id="パス_1787" data-name="パス 1787" d="M3.008-22.605h8.3a11.907,11.907,0,0,1,5.4,1.18,8.73,8.73,0,0,1,3.661,3.335,9.437,9.437,0,0,1,1.3,4.976,9.437,9.437,0,0,1-1.3,4.976A8.73,8.73,0,0,1,16.7-4.8a11.907,11.907,0,0,1-5.4,1.18h-8.3Zm8.135,16a8.056,8.056,0,0,0,3.674-.8,5.723,5.723,0,0,0,2.44-2.278,6.732,6.732,0,0,0,.854-3.43,6.732,6.732,0,0,0-.854-3.43,5.723,5.723,0,0,0-2.44-2.278,8.056,8.056,0,0,0-3.674-.8H6.533V-6.607Zm26.465-4.176q0,.353-.054,1H26.192a3.938,3.938,0,0,0,1.559,2.535,5.111,5.111,0,0,0,3.132.936,5.278,5.278,0,0,0,3.932-1.573l1.817,2.088A6.121,6.121,0,0,1,34.165-4.03a8.988,8.988,0,0,1-3.362.6,8.949,8.949,0,0,1-4.2-.949,6.835,6.835,0,0,1-2.807-2.644,7.466,7.466,0,0,1-.99-3.837,7.577,7.577,0,0,1,.963-3.81,6.828,6.828,0,0,1,2.671-2.644,7.793,7.793,0,0,1,3.851-.949,7.6,7.6,0,0,1,3.783.936,6.625,6.625,0,0,1,2.6,2.63A7.976,7.976,0,0,1,37.608-10.782Zm-7.321-4.772a4.089,4.089,0,0,0-2.752.963,4.049,4.049,0,0,0-1.369,2.562h8.216a4,4,0,0,0-1.329-2.549A4.041,4.041,0,0,0,30.287-15.555Zm9.491-8.189h3.39v20.12h-3.39Zm6.752,0h3.39v20.12H46.53Zm12.284,5.477a7.06,7.06,0,0,1,4.894,1.532A5.922,5.922,0,0,1,65.4-12.111v8.487H62.2V-5.386a3.944,3.944,0,0,1-1.776,1.451,6.943,6.943,0,0,1-2.779.5A6.81,6.81,0,0,1,54.8-3.99a4.4,4.4,0,0,1-1.885-1.546,3.922,3.922,0,0,1-.664-2.237A3.834,3.834,0,0,1,53.7-10.9a7.2,7.2,0,0,1,4.569-1.18h3.742V-12.3a2.968,2.968,0,0,0-.908-2.332,3.93,3.93,0,0,0-2.7-.813,7.788,7.788,0,0,0-2.4.38,5.9,5.9,0,0,0-1.993,1.058l-1.329-2.468a8.228,8.228,0,0,1,2.739-1.329A12.186,12.186,0,0,1,58.813-18.267ZM58.352-5.9a4.377,4.377,0,0,0,2.264-.583,3.172,3.172,0,0,0,1.4-1.668V-9.833h-3.5q-2.929,0-2.929,1.925a1.728,1.728,0,0,0,.732,1.464A3.356,3.356,0,0,0,58.352-5.9ZM92.817-3.624,92.79-16.206,86.553-5.793H84.98l-6.237-10.25V-3.624H75.381V-22.605h2.9l7.538,12.582,7.4-12.582h2.9l.027,18.981ZM105.4-18.267a7.06,7.06,0,0,1,4.894,1.532,5.922,5.922,0,0,1,1.695,4.623v8.487h-3.2V-5.386a3.944,3.944,0,0,1-1.776,1.451,6.943,6.943,0,0,1-2.779.5,6.81,6.81,0,0,1-2.847-.556A4.4,4.4,0,0,1,99.5-5.535a3.922,3.922,0,0,1-.664-2.237,3.834,3.834,0,0,1,1.451-3.132,7.2,7.2,0,0,1,4.569-1.18H108.6V-12.3a2.968,2.968,0,0,0-.908-2.332,3.93,3.93,0,0,0-2.7-.813,7.788,7.788,0,0,0-2.4.38,5.9,5.9,0,0,0-1.993,1.058l-1.329-2.468a8.228,8.228,0,0,1,2.739-1.329A12.186,12.186,0,0,1,105.4-18.267ZM104.938-5.9a4.377,4.377,0,0,0,2.264-.583,3.172,3.172,0,0,0,1.4-1.668V-9.833h-3.5q-2.929,0-2.929,1.925a1.728,1.728,0,0,0,.732,1.464A3.356,3.356,0,0,0,104.938-5.9Zm10.3-17.842h3.39v20.12h-3.39Zm6.752,0h3.39v20.12h-3.39Z" transform="translate(23.92 51)" fill="#333"/>
      <path id="パス_1788" data-name="パス 1788" d="M3.97-1.2a3.675,3.675,0,0,1-1.785-.433,3.2,3.2,0,0,1-1.249-1.2A3.323,3.323,0,0,1,.484-4.558,3.3,3.3,0,0,1,.941-6.283a3.229,3.229,0,0,1,1.254-1.2,3.675,3.675,0,0,1,1.785-.433,3.723,3.723,0,0,1,1.463.28,2.985,2.985,0,0,1,1.119.811l-.783.736a2.283,2.283,0,0,0-1.743-.764,2.444,2.444,0,0,0-1.2.294A2.115,2.115,0,0,0,2-5.742a2.343,2.343,0,0,0-.3,1.184A2.343,2.343,0,0,0,2-3.375a2.115,2.115,0,0,0,.83.816,2.444,2.444,0,0,0,1.2.294,2.271,2.271,0,0,0,1.743-.774l.783.746a2.977,2.977,0,0,1-1.123.811A3.757,3.757,0,0,1,3.97-1.2ZM11.66-1.3,10.327-3.207a2.485,2.485,0,0,1-.252.009H8.6v1.9H7.391V-7.821h2.685a3.612,3.612,0,0,1,1.477.28,2.148,2.148,0,0,1,.965.8,2.243,2.243,0,0,1,.336,1.24,2.211,2.211,0,0,1-.359,1.268,2.135,2.135,0,0,1-1.03.792l1.5,2.144Zm-.028-4.2a1.17,1.17,0,0,0-.41-.96,1.861,1.861,0,0,0-1.2-.336H8.6v2.6H10.02a1.843,1.843,0,0,0,1.2-.34A1.183,1.183,0,0,0,11.632-5.5Zm7.131,3.188V-1.3H13.869V-7.821h4.763V-6.8H15.081v1.7h3.151v1H15.081v1.8Zm5.248-.494H20.748L20.105-1.3H18.856l2.936-6.525h1.193L25.931-1.3H24.663Zm-.4-.951L22.38-6.609,21.158-3.757ZM27.422-6.8H25.26V-7.821H30.8V-6.8H28.634v5.5H27.422Zm8.846,4.483V-1.3H31.374V-7.821h4.763V-6.8H32.586v1.7h3.151v1H32.586v1.8Zm1.016-5.509h2.852a4.093,4.093,0,0,1,1.855.405A3,3,0,0,1,43.25-6.269a3.244,3.244,0,0,1,.447,1.71,3.244,3.244,0,0,1-.447,1.71A3,3,0,0,1,41.991-1.7a4.093,4.093,0,0,1-1.855.405H37.284Zm2.8,5.5A2.769,2.769,0,0,0,41.344-2.6a1.967,1.967,0,0,0,.839-.783,2.314,2.314,0,0,0,.294-1.179,2.314,2.314,0,0,0-.294-1.179,1.967,1.967,0,0,0-.839-.783A2.769,2.769,0,0,0,40.08-6.8H38.5v4.474ZM51.508-4.689a1.722,1.722,0,0,1,.858.592,1.647,1.647,0,0,1,.317,1.03,1.509,1.509,0,0,1-.652,1.31,3.279,3.279,0,0,1-1.9.461H46.885V-7.821h3.057a3,3,0,0,1,1.78.452,1.452,1.452,0,0,1,.625,1.244,1.634,1.634,0,0,1-.224.858A1.532,1.532,0,0,1,51.508-4.689ZM48.1-6.87v1.8h1.715a1.743,1.743,0,0,0,.974-.228.752.752,0,0,0,.34-.666.761.761,0,0,0-.34-.676,1.743,1.743,0,0,0-.974-.228Zm1.957,4.623q1.408,0,1.408-.941T50.054-4.13H48.1v1.883ZM56.318-3.6v2.3H55.106V-3.58L52.543-7.821h1.3l1.911,3.179,1.929-3.179h1.193Zm9.871-1.091a1.722,1.722,0,0,1,.858.592,1.647,1.647,0,0,1,.317,1.03,1.509,1.509,0,0,1-.652,1.31,3.279,3.279,0,0,1-1.9.461H61.566V-7.821h3.057a3,3,0,0,1,1.78.452,1.452,1.452,0,0,1,.625,1.244,1.634,1.634,0,0,1-.224.858A1.532,1.532,0,0,1,66.189-4.689ZM62.778-6.87v1.8h1.715a1.743,1.743,0,0,0,.974-.228.752.752,0,0,0,.34-.666.761.761,0,0,0-.34-.676,1.743,1.743,0,0,0-.974-.228Zm1.957,4.623q1.407,0,1.408-.941T64.735-4.13H62.778v1.883Zm5.714,1.016a2.824,2.824,0,0,1-1.361-.326,2.379,2.379,0,0,1-.946-.909,2.567,2.567,0,0,1-.34-1.319,2.542,2.542,0,0,1,.34-1.314,2.388,2.388,0,0,1,.946-.9,2.824,2.824,0,0,1,1.361-.326A2.844,2.844,0,0,1,71.819-6a2.388,2.388,0,0,1,.946.9,2.541,2.541,0,0,1,.34,1.314,2.566,2.566,0,0,1-.34,1.319,2.379,2.379,0,0,1-.946.909A2.844,2.844,0,0,1,70.449-1.231Zm0-1a1.424,1.424,0,0,0,1.063-.429,1.544,1.544,0,0,0,.419-1.128,1.544,1.544,0,0,0-.419-1.128,1.424,1.424,0,0,0-1.063-.429,1.408,1.408,0,0,0-1.058.429,1.554,1.554,0,0,0-.415,1.128,1.554,1.554,0,0,0,.415,1.128A1.408,1.408,0,0,0,70.449-2.228Zm3.44-5.984h1.165V-1.3H73.888Zm2.358,1.939h1.165V-1.3H76.247Zm.587-.82a.748.748,0,0,1-.531-.2.655.655,0,0,1-.214-.5.655.655,0,0,1,.214-.5.748.748,0,0,1,.531-.2.769.769,0,0,1,.531.191.616.616,0,0,1,.214.48.7.7,0,0,1-.21.517A.726.726,0,0,1,76.834-7.094ZM83.48-8.212V-1.3H82.361v-.643a1.8,1.8,0,0,1-.713.531,2.408,2.408,0,0,1-.937.177,2.623,2.623,0,0,1-1.291-.317,2.277,2.277,0,0,1-.9-.9,2.691,2.691,0,0,1-.326-1.338,2.665,2.665,0,0,1,.326-1.333,2.285,2.285,0,0,1,.9-.895,2.623,2.623,0,0,1,1.291-.317,2.366,2.366,0,0,1,.9.168,1.819,1.819,0,0,1,.7.5V-8.212ZM80.851-2.228a1.5,1.5,0,0,0,.755-.191,1.381,1.381,0,0,0,.531-.545,1.668,1.668,0,0,0,.2-.82,1.668,1.668,0,0,0-.2-.82,1.381,1.381,0,0,0-.531-.545,1.5,1.5,0,0,0-.755-.191,1.5,1.5,0,0,0-.755.191,1.381,1.381,0,0,0-.531.545,1.668,1.668,0,0,0-.2.82,1.668,1.668,0,0,0,.2.82,1.381,1.381,0,0,0,.531.545A1.5,1.5,0,0,0,80.851-2.228Zm8.5-1.529q0,.121-.019.345H85.428a1.354,1.354,0,0,0,.536.872,1.757,1.757,0,0,0,1.077.322,1.814,1.814,0,0,0,1.352-.541l.625.718a2.1,2.1,0,0,1-.848.606,3.09,3.09,0,0,1-1.156.205,3.076,3.076,0,0,1-1.445-.326,2.35,2.35,0,0,1-.965-.909,2.567,2.567,0,0,1-.34-1.319,2.6,2.6,0,0,1,.331-1.31A2.347,2.347,0,0,1,85.512-6a2.679,2.679,0,0,1,1.324-.326,2.612,2.612,0,0,1,1.3.322,2.277,2.277,0,0,1,.895.9A2.742,2.742,0,0,1,89.352-3.757ZM86.836-5.4a1.405,1.405,0,0,0-.946.331,1.392,1.392,0,0,0-.471.881h2.824a1.374,1.374,0,0,0-.457-.876A1.389,1.389,0,0,0,86.836-5.4Zm2.871-2.424h1.007l-.084,2.582h-.848Zm3.5,6.59a4.456,4.456,0,0,1-1.184-.158,2.978,2.978,0,0,1-.923-.4l.447-.886a2.876,2.876,0,0,0,.806.359,3.35,3.35,0,0,0,.927.135q1.044,0,1.044-.55a.367.367,0,0,0-.266-.364,4.587,4.587,0,0,0-.853-.2,6.919,6.919,0,0,1-1-.214,1.538,1.538,0,0,1-.671-.424,1.184,1.184,0,0,1-.284-.844,1.326,1.326,0,0,1,.592-1.133,2.694,2.694,0,0,1,1.6-.424,4.614,4.614,0,0,1,1.025.117A2.875,2.875,0,0,1,95.3-5.9l-.447.886a2.76,2.76,0,0,0-1.426-.373,1.581,1.581,0,0,0-.778.154.459.459,0,0,0-.266.405.4.4,0,0,0,.284.4,4.518,4.518,0,0,0,.881.219A6.8,6.8,0,0,1,94.526-4a1.532,1.532,0,0,1,.657.41,1.143,1.143,0,0,1,.275.82,1.3,1.3,0,0,1-.606,1.119A2.857,2.857,0,0,1,93.2-1.231Zm6.292.028a2.677,2.677,0,0,1-1.151-.247,2.255,2.255,0,0,1-.862-.694l.69-.83a1.573,1.573,0,0,0,1.3.746q1.016,0,1.016-1.2V-6.8H98.161V-7.821h3.533V-3.5a2.372,2.372,0,0,1-.559,1.72A2.191,2.191,0,0,1,99.494-1.2Zm5.35-5.127a2.427,2.427,0,0,1,1.682.527,2.036,2.036,0,0,1,.583,1.589V-1.3h-1.1V-1.9a1.356,1.356,0,0,1-.611.5,2.387,2.387,0,0,1-.955.172,2.341,2.341,0,0,1-.979-.191,1.512,1.512,0,0,1-.648-.531,1.348,1.348,0,0,1-.228-.769,1.318,1.318,0,0,1,.5-1.077,2.477,2.477,0,0,1,1.571-.405h1.286v-.075a1.02,1.02,0,0,0-.312-.8,1.351,1.351,0,0,0-.927-.28,2.677,2.677,0,0,0-.825.13,2.026,2.026,0,0,0-.685.364l-.457-.848a2.828,2.828,0,0,1,.941-.457A4.189,4.189,0,0,1,104.844-6.329Zm-.158,4.25a1.5,1.5,0,0,0,.778-.2,1.09,1.09,0,0,0,.48-.573v-.578h-1.2q-1.007,0-1.007.662a.594.594,0,0,0,.252.5A1.154,1.154,0,0,0,104.686-2.079Zm6.338-4.25a2.642,2.642,0,0,1,1.3.317,2.286,2.286,0,0,1,.9.895,2.665,2.665,0,0,1,.326,1.333,2.691,2.691,0,0,1-.326,1.338,2.277,2.277,0,0,1-.9.9,2.642,2.642,0,0,1-1.3.317A2.009,2.009,0,0,1,109.43-1.9V.512h-1.165V-6.274h1.109v.652a1.8,1.8,0,0,1,.713-.531A2.408,2.408,0,0,1,111.024-6.329Zm-.13,4.1a1.408,1.408,0,0,0,1.058-.429,1.554,1.554,0,0,0,.415-1.128,1.554,1.554,0,0,0-.415-1.128,1.408,1.408,0,0,0-1.058-.429,1.5,1.5,0,0,0-.755.191,1.381,1.381,0,0,0-.531.545,1.668,1.668,0,0,0-.2.82,1.668,1.668,0,0,0,.2.82,1.381,1.381,0,0,0,.531.545A1.5,1.5,0,0,0,110.894-2.228Zm5.266-4.1a2.427,2.427,0,0,1,1.682.527,2.036,2.036,0,0,1,.583,1.589V-1.3h-1.1V-1.9a1.356,1.356,0,0,1-.611.5,2.387,2.387,0,0,1-.955.172,2.341,2.341,0,0,1-.979-.191,1.512,1.512,0,0,1-.648-.531,1.348,1.348,0,0,1-.228-.769,1.318,1.318,0,0,1,.5-1.077,2.477,2.477,0,0,1,1.571-.405h1.286v-.075a1.02,1.02,0,0,0-.312-.8,1.351,1.351,0,0,0-.927-.28,2.677,2.677,0,0,0-.825.13,2.027,2.027,0,0,0-.685.364l-.457-.848a2.828,2.828,0,0,1,.941-.457A4.189,4.189,0,0,1,116.16-6.329ZM116-2.079a1.5,1.5,0,0,0,.778-.2,1.09,1.09,0,0,0,.48-.573v-.578h-1.2q-1.007,0-1.007.662a.594.594,0,0,0,.252.5A1.154,1.154,0,0,0,116-2.079Zm6.4-4.25a2.08,2.08,0,0,1,1.51.55,2.169,2.169,0,0,1,.569,1.631V-1.3h-1.165V-4a1.4,1.4,0,0,0-.308-.983,1.137,1.137,0,0,0-.876-.331,1.345,1.345,0,0,0-1.016.387,1.542,1.542,0,0,0-.373,1.114V-1.3h-1.165V-6.274h1.109v.643a1.822,1.822,0,0,1,.727-.522A2.616,2.616,0,0,1,122.405-6.329Z" transform="translate(26 63.078)" fill="#333"/>
    </g>
  </g>
</svg>
