<svg xmlns="http://www.w3.org/2000/svg" xmlns:xlink="http://www.w3.org/1999/xlink" width="130" height="130.191" viewBox="0 0 130 130.191">
  <defs>
    <clipPath id="clip-path">
      <rect id="長方形_10607" data-name="長方形 10607" width="130" height="130.191" fill="none"/>
    </clipPath>
  </defs>
  <g id="グループ_6297" data-name="グループ 6297" transform="translate(-1952.546 -3618.471)">
    <g id="グループ_6388" data-name="グループ 6388" transform="translate(1952.546 3618.471)">
      <g id="グループ_6387" data-name="グループ 6387" clip-path="url(#clip-path)">
        <path id="パス_32824" data-name="パス 32824" d="M127.795,24.561c-4.353-8.783-13.051-13.53-18.445-16.473C86.033-4.634,54.269-1.247,33.157,10.615c-20.839,11.71-39,39.434-31.388,69.557,7.643,30.239,37.387,45.787,59.885,49.084,35.723,5.234,65.738-18.58,67.381-26.845a21.243,21.243,0,0,0,.375-4.808c-.634-5.967-5.542-9.512-6.685-23.11-2.1-25.021,12.7-34.528,5.07-49.933" transform="translate(0 0)" fill="#caddff"/>
        <path id="パス_32825" data-name="パス 32825" d="M42.633,104.637s-2.707-19.9-16.281-31.626c-.454-.392-1.94,1.429-2.418,1.056-.611-.477-.224-3.142-.877-3.583a33.233,33.233,0,0,0-8.183-4.027,42.772,42.772,0,0,0,3.2,14.229c.238.591,3.122.69,3.4,1.295.26.571-2.091,1.648-1.8,2.228,3.816,7.505,10.666,15.609,22.958,20.427" transform="translate(-12.544 -56.049)" fill="#caddff"/>
        <path id="パス_32826" data-name="パス 32826" d="M55.081,125.314a.235.235,0,0,1-.195-.1c-2.352-3.471-11.164-14.127-11.252-14.234a.235.235,0,1,1,.362-.3c.089.107,8.915,10.781,11.279,14.27a.235.235,0,0,1-.194.367" transform="translate(-36.754 -93.27)" fill="#fff"/>
        <path id="パス_32827" data-name="パス 32827" d="M156.758,40.127c.015-.645,2.866-.341,2.9-.967s-2.821-2.921-2.769-3.52A56.688,56.688,0,0,1,162.15,15.9a44.319,44.319,0,0,1,7.671,11.071c.3.619-1.576,3.31-1.3,3.935.3.686,2.885,0,3.148.693,3.887,10.218,3.883,20.328,2.888,28.92a59.681,59.681,0,0,1-13.343,2.139,51.326,51.326,0,0,1-4.452-22.528" transform="translate(-132.191 -13.406)" fill="#99b9ff"/>
        <path id="パス_32828" data-name="パス 32828" d="M216.42,227.147c-.056-3.617-.208-7.281-.452-10.89a.235.235,0,0,1,.469-.032c.245,3.617.4,7.289.453,10.914Z" transform="translate(-182.141 -182.174)" fill="#caddff"/>
        <path id="パス_32829" data-name="パス 32829" d="M197.448,70.6a.235.235,0,0,1-.234-.213c-.561-6.075-1.4-12.2-2.491-18.2l-.5-2.752a.235.235,0,0,1,.462-.084l.5,2.752c1.094,6.018,1.934,12.156,2.5,18.244a.235.235,0,0,1-.212.256h-.022" transform="translate(-163.8 -41.455)" fill="#caddff"/>
        <path id="パス_32830" data-name="パス 32830" d="M52.628,240.994s-7.943-17.749-27.083-12.509a27.775,27.775,0,0,0,27.083,12.509" transform="translate(-21.544 -191.882)" fill="#99b9ff"/>
        <path id="パス_32831" data-name="パス 32831" d="M73.192,255.3a.234.234,0,0,1-.138-.044c-5.2-3.762-16.033-7.715-16.142-7.754a.235.235,0,1,1,.16-.442c.109.04,11,4.014,16.257,7.815a.235.235,0,0,1-.138.425" transform="translate(-47.868 -208.349)" fill="#caddff"/>
        <path id="パス_32832" data-name="パス 32832" d="M613.109,74.956H581.784l2.3-13.024a3.193,3.193,0,0,1,3.145-2.639h24.84a3.193,3.193,0,0,1,3.145,3.748Z" transform="translate(-490.661 -50.006)" fill="#99b9ff"/>
        <path id="パス_32833" data-name="パス 32833" d="M673.5,103.6h-2.012l.147-.855h2.015Z" transform="translate(-566.314 -86.65)" fill="#fff"/>
        <path id="パス_32834" data-name="パス 32834" d="M694.68,91.246h-1.035l.7-4.067-1.3.393.161-.907,2.232-.771.136,0Z" transform="translate(-584.5 -72.438)" fill="#fff"/>
        <path id="パス_32835" data-name="パス 32835" d="M716.5,88.662l.72-2.7h2.922l-.14.885h-2.052L717.6,88a1.417,1.417,0,0,1,.771-.205,1.266,1.266,0,0,1,1.063.486,1.812,1.812,0,0,1,.317,1.283,2.079,2.079,0,0,1-.31.951,1.807,1.807,0,0,1-.7.65,1.93,1.93,0,0,1-.954.217,1.7,1.7,0,0,1-.82-.207,1.465,1.465,0,0,1-.575-.562,1.6,1.6,0,0,1-.209-.8H717.2a.8.8,0,0,0,.18.512.591.591,0,0,0,.448.193.725.725,0,0,0,.6-.268,1.336,1.336,0,0,0,.285-.749.95.95,0,0,0-.127-.661.609.609,0,0,0-.519-.249,1.03,1.03,0,0,0-.72.286Z" transform="translate(-604.01 -72.496)" fill="#fff"/>
        <path id="パス_32836" data-name="パス 32836" d="M747.121,85.444a1.043,1.043,0,0,1,.776.327,1.016,1.016,0,0,1,.255.782l-.022.283a1.2,1.2,0,0,1-.4.808,1.159,1.159,0,0,1-.833.29,1,1,0,0,1-1.032-1.1l.018-.246a1.225,1.225,0,0,1,.38-.837,1.178,1.178,0,0,1,.853-.308m-.51,5.018-.51-.312,3.223-4.126.5.3Zm-.048-3.612a.519.519,0,0,0,.068.338.319.319,0,0,0,.273.14.448.448,0,0,0,.332-.127.644.644,0,0,0,.189-.365l.037-.286a.507.507,0,0,0-.064-.351.324.324,0,0,0-.273-.141.45.45,0,0,0-.347.136.623.623,0,0,0-.178.36Zm1.285,2.709a1.171,1.171,0,0,1,.389-.806,1.2,1.2,0,0,1,.844-.3,1.052,1.052,0,0,1,.775.323,1.006,1.006,0,0,1,.257.782l-.018.246a1.21,1.21,0,0,1-.387.844,1.165,1.165,0,0,1-.846.3,1.04,1.04,0,0,1-.765-.314.994.994,0,0,1-.266-.788Zm.664.294a.5.5,0,0,0,.077.34.329.329,0,0,0,.272.145.455.455,0,0,0,.349-.125.65.65,0,0,0,.176-.367l.037-.294a.487.487,0,0,0-.066-.347.329.329,0,0,0-.272-.138.463.463,0,0,0-.343.127.645.645,0,0,0-.189.365Z" transform="translate(-629.045 -72.061)" fill="#fff"/>
        <path id="パス_32837" data-name="パス 32837" d="M482.453,74.956H451.128l2.3-13.024a3.193,3.193,0,0,1,3.145-2.639h24.84a3.193,3.193,0,0,1,3.145,3.748Z" transform="translate(-380.469 -50.006)" fill="#fff"/>
        <path id="パス_32838" data-name="パス 32838" d="M490.586,86.085q.1-.546-.537-.835l-.886-.353q-1.542-.688-1.464-1.9a1.742,1.742,0,0,1,.367-.991,2.209,2.209,0,0,1,.941-.677,3.333,3.333,0,0,1,1.308-.236,2.265,2.265,0,0,1,1.565.576,1.919,1.919,0,0,1,.587,1.493h-1.34a.956.956,0,0,0-.2-.707.9.9,0,0,0-.691-.261,1.393,1.393,0,0,0-.8.209.857.857,0,0,0-.4.6q-.087.5.67.794l.606.229.349.161a1.9,1.9,0,0,1,1.266,1.882,1.816,1.816,0,0,1-.379,1.021,2.135,2.135,0,0,1-.918.658,3.272,3.272,0,0,1-1.278.216,2.863,2.863,0,0,1-1.267-.3,1.965,1.965,0,0,1-.844-.8,2.077,2.077,0,0,1-.252-1.1l1.344,0q-.064,1.088,1.069,1.106a1.406,1.406,0,0,0,.808-.216.841.841,0,0,0,.376-.574" transform="translate(-410.712 -68.395)" fill="#5479f7"/>
        <path id="パス_32839" data-name="パス 32839" d="M523.4,86.989h-2.331l-.688,1.377H518.9l3.57-6.681h1.243l1.271,6.681h-1.372Zm-1.78-1.115h1.611l-.376-2.487Z" transform="translate(-437.626 -68.891)" fill="#5479f7"/>
        <path id="パス_32840" data-name="パス 32840" d="M563.562,87.26H566.4l-.193,1.106h-4.18l1.161-6.681h1.344Z" transform="translate(-473.997 -68.89)" fill="#5479f7"/>
        <path id="パス_32841" data-name="パス 32841" d="M598.251,85.47H595.69l-.312,1.79h3.01l-.193,1.106h-4.354L595,81.685h4.345l-.2,1.115h-3l-.28,1.592h2.57Z" transform="translate(-500.83 -68.891)" fill="#5479f7"/>
        <path id="パス_32842" data-name="パス 32842" d="M288.93,207.46c-2.008-1.641-4.116-3.17-6.275-4.629-4.382-2.961-9-5.608-13.668-8.173-2.455-1.349-5-2.57-7.521-3.826q-3.8-1.895-7.609-3.766-3.481-1.715-6.957-3.436c-5.264-17.8-10.982-37.975-9.846-37.975l86.319-2.436a3.013,3.013,0,0,1,3.039,3.685l-10.46,59.644a4.587,4.587,0,0,1-4.331,3.685H292.411c-1.132-.954-2.334-1.836-3.48-2.772" transform="translate(-199.802 -120.787)" fill="#5479f7"/>
        <path id="パス_32843" data-name="パス 32843" d="M143.489,144.548h86.993a2.84,2.84,0,0,1,2.867,3.477l-10.46,59.644a4.322,4.322,0,0,1-4.086,3.477H131.809a2.84,2.84,0,0,1-2.867-3.477l10.46-59.644a4.322,4.322,0,0,1,4.086-3.477" transform="translate(-108.701 -121.908)" fill="#99b9ff"/>
        <path id="パス_32844" data-name="パス 32844" d="M144.331,192.024a.228.228,0,0,1-.041,0,.235.235,0,0,1-.191-.272L152,146.72a4.572,4.572,0,0,1,4.318-3.671h86.994a3.12,3.12,0,0,1,2.444,1.083,3.209,3.209,0,0,1,.654,2.669l-3.914,22.316a.235.235,0,0,1-.463-.081l3.914-22.316a2.746,2.746,0,0,0-.551-2.285,2.658,2.658,0,0,0-2.084-.916H156.315a4.084,4.084,0,0,0-3.855,3.282l-7.9,45.029a.235.235,0,0,1-.231.194" transform="translate(-121.527 -120.644)"/>
        <path id="パス_32845" data-name="パス 32845" d="M46.713,569.968h101.17a2.548,2.548,0,0,1,0,5.092H46.713a2.548,2.548,0,0,1,0-5.092" transform="translate(-37.334 -480.696)" fill="#5479f7"/>
        <path id="パス_32846" data-name="パス 32846" d="M161.5,159.23h82.216a2.656,2.656,0,0,1,2.709,3.237l-9.886,55.525a4.068,4.068,0,0,1-3.862,3.237H150.459a2.656,2.656,0,0,1-2.709-3.237l9.886-55.525a4.068,4.068,0,0,1,3.862-3.237" transform="translate(-124.566 -134.29)" fill="#fff"/>
        <path id="パス_32847" data-name="パス 32847" d="M297.188,164.932l.429-2.407a2.652,2.652,0,0,0-2.71-3.232H212.691a4.063,4.063,0,0,0-3.862,3.232l-.429,2.407Z" transform="translate(-175.759 -134.343)" fill="#5479f7"/>
        <path id="パス_32848" data-name="パス 32848" d="M691.631,168.777a1.483,1.483,0,1,1-1.483-1.483,1.483,1.483,0,0,1,1.483,1.483" transform="translate(-580.801 -141.091)" fill="#caddff"/>
        <path id="パス_32849" data-name="パス 32849" d="M717.816,169.334a1.483,1.483,0,1,1-1.483-1.483,1.483,1.483,0,0,1,1.483,1.483" transform="translate(-602.885 -141.561)" fill="#caddff"/>
        <path id="パス_32850" data-name="パス 32850" d="M743.444,169.333a1.483,1.483,0,1,1-1.483-1.483,1.483,1.483,0,0,1,1.483,1.483" transform="translate(-624.499 -141.56)" fill="#caddff"/>
        <path id="パス_32851" data-name="パス 32851" d="M288.075,293.7H263.257l6.508-37.226h24.817Z" transform="translate(-222.024 -216.303)" fill="#caddff"/>
        <path id="パス_32852" data-name="パス 32852" d="M357.682,291.155h-5.216l.022-.25a1.851,1.851,0,0,1,1.808-1.662h1.892A1.5,1.5,0,0,1,357.7,290.9Z" transform="translate(-297.26 -243.939)" fill="#5479f7"/>
        <path id="パス_32853" data-name="パス 32853" d="M356.418,290.125H351.2a.235.235,0,0,1-.234-.255l.022-.25a2.092,2.092,0,0,1,2.041-1.877h1.892a1.734,1.734,0,0,1,1.751,1.918l-.022.251a.235.235,0,0,1-.234.214m-4.96-.47H356.2l0-.036a1.264,1.264,0,0,0-1.283-1.407H353.03a1.614,1.614,0,0,0-1.573,1.443" transform="translate(-295.996 -242.674)"/>
        <path id="パス_32854" data-name="パス 32854" d="M359.261,290.239,359.107,292Z" transform="translate(-302.861 -244.78)" fill="#fff"/>
        <path id="パス_32855" data-name="パス 32855" d="M357.842,290.966h-.021a.235.235,0,0,1-.213-.255l.154-1.756a.235.235,0,1,1,.468.041l-.154,1.757a.235.235,0,0,1-.234.214" transform="translate(-301.596 -243.515)"/>
        <path id="パス_32856" data-name="パス 32856" d="M369.285,289.242l-.167,1.913Z" transform="translate(-311.304 -243.939)" fill="#fff"/>
        <path id="パス_32857" data-name="パス 32857" d="M367.853,290.125h-.021a.235.235,0,0,1-.214-.255l.167-1.913a.235.235,0,1,1,.468.041l-.167,1.913a.235.235,0,0,1-.234.214" transform="translate(-310.039 -242.674)"/>
        <path id="パス_32858" data-name="パス 32858" d="M379.28,290.475l-.151,1.72Z" transform="translate(-319.747 -244.979)" fill="#fff"/>
        <path id="パス_32859" data-name="パス 32859" d="M377.864,291.164h-.021a.235.235,0,0,1-.214-.255l.15-1.719a.235.235,0,1,1,.468.041l-.151,1.72a.235.235,0,0,1-.234.214" transform="translate(-318.482 -243.714)"/>
        <path id="パス_32860" data-name="パス 32860" d="M312.869,298.73a24.443,24.443,0,0,1,4.754-1.7l.737-.114a13.066,13.066,0,0,1,3.773.043,8.114,8.114,0,0,1,3.084,1.211c1.158.939,1.869,3.241,1.429,7.334s-2.121,12.968-3.542,14.287c-1.015.941-2.549-.141-5.585-.026-1.822.069-4.738,1.516-5.956.476-3.249-2.772,1.308-21.512,1.308-21.512" transform="translate(-261.777 -250.306)" fill="#5479f7"/>
        <path id="パス_32861" data-name="パス 32861" d="M311.6,319.579a2.108,2.108,0,0,1-1.413-.431c-3.321-2.833,1.044-20.975,1.232-21.746a.236.236,0,0,1,.127-.157,24.345,24.345,0,0,1,4.813-1.718l.744-.115a13.136,13.136,0,0,1,3.847.043,8.246,8.246,0,0,1,3.193,1.26c1.379,1.118,1.917,3.8,1.515,7.542-.449,4.177-2.132,13.058-3.616,14.434-.666.618-1.493.48-2.637.291a14.51,14.51,0,0,0-3.1-.254,11.451,11.451,0,0,0-2.139.4,11.394,11.394,0,0,1-2.565.447m.249-21.957c-.365,1.537-4.335,18.628-1.357,21.169.7.6,2.154.236,3.559-.114a11.764,11.764,0,0,1,2.235-.418,14.923,14.923,0,0,1,3.193.26c1.087.18,1.744.289,2.241-.172,1.321-1.226,3.021-9.974,3.469-14.14.519-4.832-.619-6.539-1.344-7.126a7.915,7.915,0,0,0-2.975-1.162,12.913,12.913,0,0,0-3.691-.043l-.743.115a23.6,23.6,0,0,0-4.588,1.631" transform="translate(-260.557 -249.034)"/>
        <path id="パス_32862" data-name="パス 32862" d="M304.529,298.32s-3.9.915-5.524,2.069c-3.674,2.613-4.186,15.21-4.134,17.089s.883,2.4.883,2.4l-.237,2.139,2.483-.307a2.708,2.708,0,0,1-.325-1.588s.936-.725,1.5-3.386-.7-9.825.422-13.714a6.979,6.979,0,0,1,4.935-4.708" transform="translate(-248.683 -251.595)" fill="#5479f7"/>
        <path id="パス_32863" data-name="パス 32863" d="M294.247,320.992a.235.235,0,0,1-.234-.261l.223-2.013a3.4,3.4,0,0,1-.871-2.5c-.059-2.174.469-14.6,4.233-17.286,1.641-1.172,5.446-2.069,5.608-2.107a.235.235,0,1,1,.107.458c-.039.009-3.876.914-5.441,2.032-3.6,2.57-4.094,14.756-4.036,16.891.046,1.7.77,2.21.777,2.215a.239.239,0,0,1,.1.222l-.2,1.844,1.861-.23a3.526,3.526,0,0,1-.2-1.4.235.235,0,0,1,.091-.177c.007-.006.881-.732,1.41-3.248a25.768,25.768,0,0,0,.05-5.105,37.674,37.674,0,0,1,.157-7.675.235.235,0,0,1,.463.084,37.347,37.347,0,0,0-.151,7.571,25.4,25.4,0,0,1-.06,5.223,6.8,6.8,0,0,1-1.494,3.443,2.489,2.489,0,0,0,.285,1.348.236.236,0,0,1-.164.368l-2.483.307-.029,0" transform="translate(-247.413 -250.33)"/>
        <path id="パス_32864" data-name="パス 32864" d="M300.14,435.175a1.624,1.624,0,0,1-1.029-.27.235.235,0,0,1,.3-.363,1.677,1.677,0,0,0,1.195.125.235.235,0,0,1,.072.464,3.5,3.5,0,0,1-.536.044" transform="translate(-252.191 -366.437)"/>
        <path id="パス_32865" data-name="パス 32865" d="M388.563,298.18s3.559.621,4.626,3.077c1.485,3.418.834,12.7.424,15.274s-.129,4.636-1.878,4.974l-.172,1.259s-.032.46-1.654,0-.185-.841-.055-2.094c0,0-.992-.363-.7-2.327s2.535-10.633,2.311-13.391c-.182-2.253-1.874-4.847-2.427-5.846-.124-.224-.478-.926-.478-.926" transform="translate(-327.704 -251.477)" fill="#5479f7"/>
        <path id="パス_32866" data-name="パス 32866" d="M377.5,320.8a4.663,4.663,0,0,1-1.212-.214c-.557-.158-.82-.321-.908-.563-.1-.273.07-.523.25-.788a2.333,2.333,0,0,0,.41-.844c-.315-.216-.918-.852-.673-2.487.086-.575.33-1.686.639-3.093.727-3.312,1.827-8.318,1.671-10.244a6.6,6.6,0,0,0-.3-1.412.235.235,0,0,1,.448-.14,7.055,7.055,0,0,1,.316,1.514c.162,2-.9,6.844-1.68,10.383-.307,1.4-.549,2.5-.633,3.062-.259,1.724.517,2.06.55,2.073a.24.24,0,0,1,.149.243,2.58,2.58,0,0,1-.512,1.208c-.075.111-.214.316-.2.364,0,.012.057.12.595.272,1.008.286,1.3.185,1.363.152l.165-1.216a.235.235,0,0,1,.188-.2c1.134-.219,1.289-1.223,1.487-3.128.054-.525.111-1.069.2-1.652.382-2.4.842-11.6-.413-15.159-1.049-2.974-6.637-3.13-6.693-3.131a.235.235,0,0,1,.01-.47c.243.005,5.969.165,7.126,3.445,1.281,3.632.821,12.959.434,15.389-.091.571-.146,1.108-.2,1.627-.181,1.745-.326,3.138-1.7,3.5l-.15,1.1a.391.391,0,0,1-.179.272.968.968,0,0,1-.56.136m.275-.482a.2.2,0,0,0,0,.026Z" transform="translate(-314.142 -249.076)"/>
        <path id="パス_32867" data-name="パス 32867" d="M399.317,444.115a2.3,2.3,0,0,1-1.313-.447.235.235,0,0,1,.291-.369,1.777,1.777,0,0,0,1.283.322.235.235,0,0,1,.087.462,1.875,1.875,0,0,1-.348.032" transform="translate(-335.59 -373.824)"/>
        <path id="パス_32868" data-name="パス 32868" d="M486.623,293.7H461.806l6.508-37.226h24.817Z" transform="translate(-389.475 -216.303)" fill="#caddff"/>
        <path id="パス_32869" data-name="パス 32869" d="M529.652,339.519s-1.971-1.429-4.362.769l2.5,1.98,2.242-1.923Z" transform="translate(-443.016 -285.956)" fill="#fff"/>
        <path id="パス_32870" data-name="パス 32870" d="M526.527,341.276a.235.235,0,0,1-.146-.051l-2.5-1.98a.235.235,0,0,1-.013-.357c2.5-2.3,4.637-.8,4.659-.787a.235.235,0,0,1,.075.092l.382.826a.235.235,0,0,1-.06.277l-2.242,1.923a.234.234,0,0,1-.153.057m-2.135-2.225,2.13,1.685,1.96-1.681-.28-.605c-.3-.187-1.866-1.03-3.81.6" transform="translate(-441.751 -284.729)"/>
        <path id="パス_32871" data-name="パス 32871" d="M505.855,346.888s-.424.113-.889,1.2-2.721,5.282-2.721,5.282Z" transform="translate(-423.581 -292.556)" fill="#fff"/>
        <path id="パス_32872" data-name="パス 32872" d="M500.981,352.34a.235.235,0,0,1-.207-.346c.022-.042,2.256-4.2,2.711-5.262.485-1.136.955-1.312,1.044-1.336a.235.235,0,0,1,.132.451c-.023.01-.359.17-.744,1.069-.464,1.085-2.637,5.129-2.73,5.3a.235.235,0,0,1-.207.124" transform="translate(-422.316 -291.291)"/>
        <path id="パス_32873" data-name="パス 32873" d="M550.695,343.333a.238.238,0,0,1-.047,0,.235.235,0,0,1-.184-.277c.587-2.9-.7-3.257-.717-3.26a.236.236,0,0,1-.173-.282.233.233,0,0,1,.277-.176c.072.016,1.759.428,1.074,3.811a.235.235,0,0,1-.23.188" transform="translate(-463.491 -286.18)"/>
        <path id="パス_32874" data-name="パス 32874" d="M509.214,359.843s.491.727.423,1.108c-.046.255-.138,1.414-.195,2.15a.967.967,0,0,1-.559.781.627.627,0,0,0-.409.463,3.4,3.4,0,0,1-3.107,3.048c-2.625.312-4.489.069-4.569-.9a11.3,11.3,0,0,1,.215-2.459l4.535-4.5Z" transform="translate(-422.348 -303.219)" fill="#fff"/>
        <path id="パス_32875" data-name="パス 32875" d="M502.161,366.49a4.209,4.209,0,0,1-2.481-.549.981.981,0,0,1-.382-.695,11.341,11.341,0,0,1,.219-2.524.234.234,0,0,1,.065-.121l4.535-4.5a.235.235,0,0,1,.185-.067l3.666.312a.235.235,0,0,1,.175.1,2.308,2.308,0,0,1,.459,1.281c-.032.182-.1.957-.191,2.127a1.2,1.2,0,0,1-.691.975c-.121.058-.267.152-.277.272a3.658,3.658,0,0,1-3.313,3.261,17.1,17.1,0,0,1-1.969.13m-2.2-3.607a10.709,10.709,0,0,0-.2,2.324.522.522,0,0,0,.211.37c.546.446,2.039.561,4.1.317a3.187,3.187,0,0,0,2.9-2.835.818.818,0,0,1,.542-.654.73.73,0,0,0,.427-.587c.065-.85.152-1.918.2-2.174a1.819,1.819,0,0,0-.326-.843l-3.443-.293Z" transform="translate(-421.083 -301.954)"/>
        <path id="パス_32876" data-name="パス 32876" d="M504.816,343.181a2.932,2.932,0,0,1,2.519-1.87s.988-.208,1.83,1.247c0,0,.888.138.719-1.489,0,0,1.213.381.7,3.879a4.29,4.29,0,0,0-1.438,2.182c-.131,1.108-.252,2.978-3.566,3.152-3.336.174-4.375-.658-2.776-3.5s2.012-3.6,2.012-3.6" transform="translate(-423.43 -287.648)"/>
        <path id="パス_32877" data-name="パス 32877" d="M577.189,337.884a3.29,3.29,0,0,1,4.227.769l-2.849,1.98-1.906-1.923Z" transform="translate(-486.341 -284.578)" fill="#fff"/>
        <path id="パス_32878" data-name="パス 32878" d="M577.3,339.636a.235.235,0,0,1-.167-.07l-1.906-1.923a.235.235,0,0,1-.031-.292l.527-.827a.236.236,0,0,1,.071-.071,3.547,3.547,0,0,1,4.528.809.235.235,0,0,1-.039.351l-2.848,1.98a.234.234,0,0,1-.134.042m-1.607-2.19,1.635,1.649,2.46-1.71a3,3,0,0,0-3.7-.562Z" transform="translate(-485.076 -283.345)"/>
        <path id="パス_32879" data-name="パス 32879" d="M607.015,345.254s.4.113.678,1.2,1.8,5.281,1.8,5.281Z" transform="translate(-511.94 -291.178)" fill="#fff"/>
        <path id="パス_32880" data-name="パス 32880" d="M609.067,350.753a.235.235,0,0,1-.221-.155c-.062-.172-1.529-4.217-1.8-5.3-.226-.894-.526-1.036-.529-1.037l.015.005.127-.452c.089.025.55.209.843,1.37.269,1.064,1.775,5.217,1.79,5.259a.235.235,0,0,1-.141.3.231.231,0,0,1-.08.014" transform="translate(-511.517 -289.959)"/>
        <path id="パス_32881" data-name="パス 32881" d="M571.368,341.7a.235.235,0,0,1-.235-.229c-.092-3.353,1.626-3.756,1.7-3.772a.235.235,0,0,1,.1.459c-.063.015-1.409.375-1.329,3.3a.235.235,0,0,1-.228.241h-.007" transform="translate(-481.675 -284.801)"/>
        <path id="パス_32882" data-name="パス 32882" d="M570.818,358.209s-.618.727-.617,1.108c0,.255-.109,1.414-.182,2.15a.783.783,0,0,0,.422.781.5.5,0,0,1,.328.463,2.759,2.759,0,0,0,2.573,3.048c2.57.312,4.477.069,4.727-.9a11.229,11.229,0,0,0,.215-2.459l-3.747-4.5Z" transform="translate(-480.736 -301.841)" fill="#fff"/>
        <path id="パス_32883" data-name="パス 32883" d="M573.987,364.855a16.453,16.453,0,0,1-1.937-.128,3.007,3.007,0,0,1-2.779-3.3c.007-.081-.061-.16-.2-.234a1.012,1.012,0,0,1-.547-1.012c.115-1.169.181-1.944.181-2.126a2.757,2.757,0,0,1,.672-1.261.234.234,0,0,1,.159-.082l3.721-.312a.236.236,0,0,1,.2.084l3.747,4.5a.235.235,0,0,1,.054.145,11.32,11.32,0,0,1-.223,2.523c-.246.951-1.64,1.2-3.046,1.2m-4.316-7.685a2.264,2.264,0,0,0-.5.882c0,.256-.1,1.324-.183,2.174a.55.55,0,0,0,.3.55.7.7,0,0,1,.453.692,2.511,2.511,0,0,0,2.367,2.794c2.562.311,4.275.033,4.471-.726a10.619,10.619,0,0,0,.209-2.314l-3.616-4.344Z" transform="translate(-479.471 -300.576)"/>
        <path id="パス_32884" data-name="パス 32884" d="M578.627,341.547a2.334,2.334,0,0,0-2.191-1.87s-.951-.208-2.049,1.247c0,0-.912.138-.458-1.489,0,0-1.28.381-1.378,3.879a3.427,3.427,0,0,1,1.056,2.182c-.062,1.108-.269,2.978,3.014,3.152,3.306.174,4.49-.658,3.388-3.5s-1.382-3.6-1.382-3.6" transform="translate(-482.873 -286.27)"/>
        <path id="パス_32885" data-name="パス 32885" d="M367.777,272.3H336.452l8.214-46.988h31.325Z" transform="translate(-283.755 -190.022)" fill="#99b9ff"/>
        <path id="パス_32886" data-name="パス 32886" d="M436.207,304.541l-1.9,10.436-8.794-.111s-4.463-7.562-.029-10.111c1.707-1.175,3.131-2,4.766-1.94,2.257.078,4.594.6,5.954,1.726" transform="translate(-357.188 -255.384)" fill="#fff"/>
        <path id="パス_32887" data-name="パス 32887" d="M433.038,313.948h0l-8.794-.111a.235.235,0,0,1-.2-.116c-.111-.189-2.717-4.657-1.849-7.944a3.935,3.935,0,0,1,1.9-2.485c1.566-1.077,3.117-2.039,4.9-1.976a10.491,10.491,0,0,1,6.1,1.78.234.234,0,0,1,.081.223l-1.9,10.436a.235.235,0,0,1-.231.193m-8.656-.579,8.461.107,1.837-10.1a10.289,10.289,0,0,0-5.706-1.587c-1.485-.05-2.82.658-4.624,1.9l-.016.01a3.481,3.481,0,0,0-1.686,2.2c-.744,2.819,1.337,6.756,1.735,7.473" transform="translate(-355.917 -254.119)"/>
        <path id="パス_32888" data-name="パス 32888" d="M449.786,310.247l-2.072,7.52,3.383-.014-.434-7.477.956-1.554-.808-1.071-.666-.026-.918,1.112Z" transform="translate(-377.59 -259.443)"/>
        <path id="パス_32889" data-name="パス 32889" d="M470.033,299.712c.747-1.116,1.411-2.561.8-3.485l-.857-1.051a3.786,3.786,0,0,1-1.991,1.963Z" transform="translate(-394.687 -248.943)" fill="#fff"/>
        <path id="パス_32890" data-name="パス 32890" d="M468.769,298.682a.235.235,0,0,1-.184-.089l-2.047-2.574a.235.235,0,0,1,.116-.371,3.558,3.558,0,0,0,1.842-1.831.235.235,0,0,1,.4-.055l.857,1.051.014.019c.7,1.059-.049,2.622-.8,3.745a.235.235,0,0,1-.186.1h-.01m-1.663-2.7,1.643,2.066c.529-.85,1.147-2.145.631-2.944l-.622-.763a3.936,3.936,0,0,1-1.651,1.641" transform="translate(-393.423 -247.678)"/>
        <path id="パス_32891" data-name="パス 32891" d="M449.379,297.519c-.824-.461-.835-1.862-.835-1.862a4.221,4.221,0,0,0-1.564,1.909,3.214,3.214,0,0,0,.219,2.639Z" transform="translate(-376.827 -249.349)" fill="#fff"/>
        <path id="パス_32892" data-name="パス 32892" d="M445.928,299.176h-.009a.235.235,0,0,1-.184-.1,3.43,3.43,0,0,1-.25-2.84,4.416,4.416,0,0,1,1.661-2.038.235.235,0,0,1,.364.194c0,.013.022,1.271.715,1.659a.235.235,0,0,1,.068.353l-2.181,2.687a.235.235,0,0,1-.182.087m1.151-4.341a3.531,3.531,0,0,0-1.144,1.534,3.211,3.211,0,0,0,.039,2.143l1.8-2.212a2.442,2.442,0,0,1-.69-1.466" transform="translate(-375.557 -248.084)"/>
        <path id="パス_32893" data-name="パス 32893" d="M508.434,329.082a24,24,0,0,1-.619-3.732,12.543,12.543,0,0,0-1.19-5.607s.216-3.5-.652-4.933c-.744-1.229-3.013-1.494-3.013-1.494s-.913,6.722-.139,8.4a6.8,6.8,0,0,1,.919,3.361,10.3,10.3,0,0,0,1.343,4.716Z" transform="translate(-423.803 -264.242)" fill="#fff"/>
        <path id="パス_32894" data-name="パス 32894" d="M503.826,328.765a.235.235,0,0,1-.2-.116,10.411,10.411,0,0,1-1.375-4.843,6.52,6.52,0,0,0-.9-3.254c-.794-1.723.082-8.255.12-8.532a.235.235,0,0,1,.26-.2c.1.011,2.392.293,3.187,1.605.84,1.386.716,4.5.69,5a12.839,12.839,0,0,1,1.187,5.661,23.925,23.925,0,0,0,.613,3.674.235.235,0,0,1-.18.284l-3.351.713a.237.237,0,0,1-.049.005m-1.921-16.444c-.151,1.2-.785,6.608-.128,8.034a7.055,7.055,0,0,1,.94,3.468,9.834,9.834,0,0,0,1.23,4.441l2.947-.627a21.363,21.363,0,0,1-.571-3.554,12.4,12.4,0,0,0-1.162-5.494.234.234,0,0,1-.028-.126c0-.034.2-3.443-.619-4.8a4.1,4.1,0,0,0-2.61-1.346" transform="translate(-422.546 -262.978)"/>
        <path id="パス_32895" data-name="パス 32895" d="M391.7,319.256s-1.806-.145-2.451.614a8.425,8.425,0,0,0-1.64,4.7,18.014,18.014,0,0,0-1.489,5.457c-.588,3.831-.932,5.421-.932,5.421l3.464.47s1.471-3.831,1.325-5.348,2.523-6,2.523-6Z" transform="translate(-324.856 -269.243)" fill="#fff"/>
        <path id="パス_32896" data-name="パス 32896" d="M387.385,334.883l-.032,0-3.464-.47a.235.235,0,0,1-.2-.282c0-.016.35-1.63.93-5.407a18.838,18.838,0,0,1,1.492-5.491,8.593,8.593,0,0,1,1.69-4.78c.714-.841,2.57-.7,2.649-.7a.235.235,0,0,1,.214.2l.8,5.312a.236.236,0,0,1-.031.155c-.731,1.228-2.6,4.674-2.491,5.856.15,1.555-1.278,5.3-1.339,5.455a.235.235,0,0,1-.219.151m-3.184-.9,3.029.411c.281-.759,1.367-3.8,1.245-5.068-.143-1.485,2.154-5.46,2.512-6.069l-.759-5.04a3,3,0,0,0-2.068.542,8.183,8.183,0,0,0-1.585,4.57.237.237,0,0,1-.028.09,18.106,18.106,0,0,0-1.463,5.379c-.455,2.961-.767,4.6-.884,5.186" transform="translate(-323.59 -267.975)"/>
        <path id="パス_32897" data-name="パス 32897" d="M381.626,413.169s.282-1.156,2.29-.976,2.458,1.229,2.458,1.229l-.778,1.662a1.75,1.75,0,0,0-1.864-.8c-1.422.145-1.282.614-1.282.614Z" transform="translate(-321.853 -347.616)" fill="#fff"/>
        <path id="パス_32898" data-name="パス 32898" d="M384.331,414.054a.235.235,0,0,1-.213-.135,1.525,1.525,0,0,0-1.627-.661c-.916.093-1.058.315-1.074.347a.235.235,0,0,1-.445.135L380.149,412a.234.234,0,0,1-.016-.156c.013-.055.356-1.35,2.539-1.154,2.123.191,2.632,1.322,2.653,1.37a.235.235,0,0,1,0,.192l-.778,1.662a.235.235,0,0,1-.213.135Zm-2.921-.482Zm0,0h0Zm0,0h0m1.352-.8a2.035,2.035,0,0,1,1.523.59l.561-1.2a2.779,2.779,0,0,0-2.215-1c-1.5-.135-1.918.512-2.015.729l.6,1.256a2.573,2.573,0,0,1,1.232-.357,3.152,3.152,0,0,1,.318-.017" transform="translate(-320.588 -346.351)"/>
        <path id="パス_32899" data-name="パス 32899" d="M513.321,407.118s0-.831,2.16-1.554a3.867,3.867,0,0,1,2.294-.009l-.165,1.888a5.366,5.366,0,0,0-2.51,0c-1.007.361-.832.831-.832.831Z" transform="translate(-432.921 -341.891)" fill="#fff"/>
        <path id="パス_32900" data-name="パス 32900" d="M513.028,407.257a.276.276,0,0,1-.207-.1L511.874,406a.234.234,0,0,1-.053-.149c0-.1.066-1.022,2.32-1.776a4.072,4.072,0,0,1,2.432-.012.235.235,0,0,1,.17.247l-.165,1.888a.235.235,0,0,1-.289.208,5.16,5.16,0,0,0-2.376-.007c-.612.22-.7.465-.687.541a.213.213,0,0,1-.086.285.2.2,0,0,1-.113.033m-.718-1.466.589.72a1.756,1.756,0,0,1,.856-.555,5.1,5.1,0,0,1,2.378-.062l.125-1.428a3.54,3.54,0,0,0-1.968.054c-1.557.521-1.906,1.087-1.98,1.27" transform="translate(-431.656 -340.625)"/>
        <path id="パス_32901" data-name="パス 32901" d="M464.16,300.511a8.174,8.174,0,0,0,3.751,1.735,23.435,23.435,0,0,1-.086,6.559c-.6,2.493-.282,3.849-1.163,7.1a16.641,16.641,0,0,1,.484,5.005l-5.4,2.259a15.4,15.4,0,0,1-1.719-6.993,68.024,68.024,0,0,1,.277-6.884,28.215,28.215,0,0,0,3.858-8.781" transform="translate(-387.972 -253.443)"/>
        <path id="パス_32902" data-name="パス 32902" d="M416.282,307.945s3.238-1.138,3.684-1.9c0,0,.809,5.97,2.008,7.484s1.473,10.3-1,13.765l-6.2-1.716,1.478-5.059-.462-4.011a6.368,6.368,0,0,0,.052-3.144c-.641-2.247.431-5.421.431-5.421" transform="translate(-349.816 -258.113)"/>
        <path id="パス_32903" data-name="パス 32903" d="M458.641,371.111a.235.235,0,0,1-.227-.174,15.854,15.854,0,0,1-.549-4.01c-.013-2.28.146-4.152.252-5.39.02-.238.038-.45.053-.635a.235.235,0,0,1,.468.036c-.014.186-.033.4-.053.639-.1,1.23-.263,3.089-.25,5.347a15.384,15.384,0,0,0,.533,3.891.235.235,0,0,1-.227.3" transform="translate(-386.15 -304.192)" fill="#5479f7"/>
        <path id="パス_32904" data-name="パス 32904" d="M466.465,370.369a.441.441,0,0,1-.431.4.358.358,0,0,1-.362-.4.441.441,0,0,1,.431-.4.358.358,0,0,1,.362.4" transform="translate(-392.734 -312.025)" fill="#99b9ff"/>
        <path id="パス_32905" data-name="パス 32905" d="M466.092,386.985a.441.441,0,0,1-.431.4.358.358,0,0,1-.362-.4.441.441,0,0,1,.431-.4.357.357,0,0,1,.362.4" transform="translate(-392.419 -326.039)" fill="#99b9ff"/>
        <path id="パス_32906" data-name="パス 32906" d="M466.089,403.6a.441.441,0,0,1-.431.4.358.358,0,0,1-.362-.4.441.441,0,0,1,.431-.4.357.357,0,0,1,.362.4" transform="translate(-392.417 -340.052)" fill="#99b9ff"/>
        <path id="パス_32907" data-name="パス 32907" d="M202.336,359.3a.235.235,0,0,1-.115-.03l-3.6-2.021a.235.235,0,0,1,0-.41l3.6-2.021a.235.235,0,0,1,.35.2v.791h5.512a.235.235,0,0,1,.235.235v2.23a.235.235,0,0,1-.235.235h-5.512v.551a.235.235,0,0,1-.235.235m-3.117-2.256,2.882,1.62v-.385a.235.235,0,0,1,.235-.235h5.512v-1.76h-5.512a.235.235,0,0,1-.235-.235v-.624Z" transform="translate(-167.414 -299.219)" fill="#99b9ff"/>
        <path id="パス_32908" data-name="パス 32908" d="M207.2,351.767l3.6-2.021v1.026h5.747V353H210.8v.786Z" transform="translate(-174.748 -294.966)" fill="#99b9ff"/>
        <path id="パス_32909" data-name="パス 32909" d="M670.058,362.574a.235.235,0,0,1-.235-.235v-.551h-5.512a.235.235,0,0,1-.235-.235v-2.23a.235.235,0,0,1,.235-.235h5.512V358.3a.235.235,0,0,1,.35-.2l3.6,2.021a.235.235,0,0,1,0,.41l-3.6,2.021a.235.235,0,0,1-.115.03m-5.512-1.256h5.512a.235.235,0,0,1,.235.235v.385l2.882-1.62-2.882-1.62v.624a.235.235,0,0,1-.235.235h-5.512Z" transform="translate(-560.064 -301.98)" fill="#99b9ff"/>
        <path id="パス_32910" data-name="パス 32910" d="M668.376,355.039l-3.6-2.021v1.026h-5.747v2.23h5.747v.786Z" transform="translate(-555.811 -297.726)" fill="#99b9ff"/>
        <path id="パス_32911" data-name="パス 32911" d="M612.047,715.248a28.016,28.016,0,0,1,10.24-10.466c.408-.252,1.5,1.558,1.932,1.316.557-.311.992-3.034,1.591-3.322a35,35,0,0,1,19.744-2.944,29.571,29.571,0,0,1-4.012,5.154c-.313.329-2.512-.044-2.862.3-.333.324,1.184,1.363.817,1.693a33.217,33.217,0,0,1-27.45,8.272" transform="translate(-516.184 -589.96)" fill="#caddff"/>
        <path id="パス_32912" data-name="パス 32912" d="M696.052,726.08a.235.235,0,0,1-.112-.441,131.162,131.162,0,0,1,12.72-6.058.235.235,0,0,1,.164.44,130.62,130.62,0,0,0-12.66,6.03.235.235,0,0,1-.112.028" transform="translate(-586.833 -606.863)" fill="#fff"/>
        <path id="パス_32913" data-name="パス 32913" d="M562.748,639.761s.517-17.447,18.469-27.8c.444-.256,1.779,1.583,2.244,1.337s1.124-3.55,1.61-3.786a49,49,0,0,1,7.719-2.943s-2.928,25.666-30.042,33.189" transform="translate(-474.607 -511.567)" fill="#99b9ff"/>
        <path id="パス_32914" data-name="パス 32914" d="M586.756,750.754a.235.235,0,0,1-.17-.4c2.55-2.662,4.9-5.058,6.975-7.122a.235.235,0,0,1,.331.333c-2.076,2.061-4.419,4.454-6.967,7.114a.234.234,0,0,1-.17.072" transform="translate(-494.656 -626.767)" fill="#caddff"/>
        <path id="パス_32915" data-name="パス 32915" d="M658.664,657.84a.235.235,0,0,1-.16-.407c.072-.067,7.26-6.789,9.333-10.958a.235.235,0,1,1,.421.209c-2.11,4.244-9.361,11.026-9.434,11.093a.234.234,0,0,1-.16.063" transform="translate(-555.302 -545.11)" fill="#caddff"/>
        <path id="パス_32916" data-name="パス 32916" d="M331.253,597.047l-3.038,31.112-2.168-.091,1.077-32.707Z" transform="translate(-274.978 -502.111)" fill="#99b9ff"/>
        <path id="パス_32917" data-name="パス 32917" d="M99.079,589.573l2.965,32.309,2.241-.169-1.077-33.887Z" transform="translate(-83.561 -495.757)" fill="#99b9ff"/>
        <path id="パス_32918" data-name="パス 32918" d="M33.18,541.752l.872,33.927,1.75-.379,1.605-35.161Z" transform="translate(-27.983 -455.538)" fill="#99b9ff"/>
        <path id="パス_32919" data-name="パス 32919" d="M251.55,536.908l.872,33.927,1.819.01,1.537-35.55Z" transform="translate(-212.151 -451.453)" fill="#99b9ff"/>
        <path id="パス_32920" data-name="パス 32920" d="M31.577,327.759v7.894a13.794,13.794,0,0,0,13.6,13.979,13.794,13.794,0,0,1,13.6,13.979,1.245,1.245,0,0,1-1.243,1.246h-36c-11.26,0-20.389-9.383-20.389-20.956V327.057a8.225,8.225,0,0,1,8.109-8.335h13.53a8.918,8.918,0,0,1,8.793,9.038" transform="translate(-0.966 -268.802)" fill="#99b9ff"/>
        <path id="パス_32921" data-name="パス 32921" d="M198.234,394.605s1.849,16.806,14.263,17.906l-14.263.2s-5.281-10.714-5.5-14.885,5.5-3.224,5.5-3.224" transform="translate(-162.545 -332.722)" fill="#fff"/>
        <path id="パス_32922" data-name="パス 32922" d="M196.969,411.671a.235.235,0,0,1-.211-.131c-.216-.439-5.3-10.805-5.519-14.977a3.018,3.018,0,0,1,.94-2.539c1.615-1.442,4.7-.95,4.828-.928a.235.235,0,0,1,.2.206,30.745,30.745,0,0,0,2.461,8.478c2.635,5.67,6.534,8.772,11.589,9.219a.235.235,0,0,1-.017.469l-14.263.2h0m-1.317-18.2a4.887,4.887,0,0,0-3.161.9,2.572,2.572,0,0,0-.783,2.164c.2,3.827,4.8,13.416,5.407,14.661l11.7-.167c-4.055-1.136-7.338-4.228-9.583-9.066a31.529,31.529,0,0,1-2.473-8.431,9.457,9.457,0,0,0-1.107-.065" transform="translate(-161.28 -331.443)"/>
        <path id="パス_32923" data-name="パス 32923" d="M82.079,324.392c2.408-.567,3.413-.574,12.167-.257,2.14.078,4.685,2.766,4.936,4.895-.68,2.042-3.819,12.123,1.66,20a17.027,17.027,0,0,0,3.285,3.518,11.013,11.013,0,0,1-3.783,2.025c-2.824.84-4.245-.068-6.521,0-6.021.18-8.228,6.893-12.117,6.05-1.038-.225-2.415-1.036-3.7-3.756a41.933,41.933,0,0,1-1.745-7.9,43.359,43.359,0,0,1,2.061-19.109c.426-1.338.921-4.8,3.761-5.468" transform="translate(-64.059 -273.19)"/>
        <path id="パス_32924" data-name="パス 32924" d="M208.683,340.713s-1.416-11.364-5.5-12.334l.937,14.949Z" transform="translate(-171.363 -276.946)"/>
        <path id="パス_32925" data-name="パス 32925" d="M73.68,387.761c-1.864.79-4.052,1.72-5.98,2.549,0,.024,0,.048,0,.072l5.979-2.58Z" transform="translate(-57.096 -327.027)" fill="#fff"/>
        <path id="パス_32926" data-name="パス 32926" d="M66.148,388.791l.013-.589.139-.06c1.654-.711,3.667-1.569,5.981-2.549l.345-.146-.028.56Z" transform="translate(-55.787 -325.076)"/>
        <path id="パス_32927" data-name="パス 32927" d="M61.032,340.175a91.787,91.787,0,0,1,.981-9.359c1.226-5.487,8.329-5.545,8.329-5.545L69.1,339.237Z" transform="translate(-51.473 -274.325)"/>
        <path id="パス_32928" data-name="パス 32928" d="M128.9,269.636l.241-3.414c.163-.011.276-.018.309-.019.952-.011,1.261-.32,1.343-1.1a5.844,5.844,0,0,0-.169-2.125.454.454,0,0,1,.019-.293l.163-.382a.332.332,0,0,0-.11-.342l-.087-.071a3.479,3.479,0,0,1-.775-.915c-.19-.32-.514-.92-.736-1.026-.625-.3-3.162-1.627-4.579.694-1.105,1.81.7,4.3,1.357,5.118a28.949,28.949,0,0,1-1.072,4.066l-1.591.385s1.227,2.182,4.956,1.28c2.655-.643,2.233-1.632,2.233-1.632Z" transform="translate(-103.918 -218.685)" fill="#fff"/>
        <path id="パス_32929" data-name="パス 32929" d="M125.189,270.688a3.82,3.82,0,0,1-3.442-1.621.235.235,0,0,1,.15-.344l1.462-.354a32.376,32.376,0,0,0,1.035-3.769c-.812-1.022-2.472-3.483-1.337-5.34.984-1.611,2.6-1.885,4.815-.816l.066.032a2.578,2.578,0,0,1,.752.973l.084.144a3.243,3.243,0,0,0,.722.854l.087.071a.567.567,0,0,1,.187.585.252.252,0,0,1-.011.031l-.163.382a.219.219,0,0,0-.008.141,6.075,6.075,0,0,1,.175,2.21c-.1.933-.539,1.3-1.573,1.313l-.091,0-.211,2.993,1.287.19a.235.235,0,0,1,.182.14.808.808,0,0,1-.06.659c-.276.55-1.061.985-2.335,1.293a7.541,7.541,0,0,1-1.774.228m-2.839-1.591c.453.52,1.754,1.571,4.5.906,1.455-.352,1.886-.794,2.014-1.026a.509.509,0,0,0,.06-.172l-1.322-.2a.235.235,0,0,1-.2-.249l.241-3.414a.235.235,0,0,1,.218-.218c.17-.012.288-.019.322-.019.878-.01,1.047-.271,1.112-.892a5.61,5.61,0,0,0-.163-2.041.691.691,0,0,1,.031-.444l.154-.362a.1.1,0,0,0-.034-.088l-.087-.071a3.707,3.707,0,0,1-.828-.977l-.087-.148a3.418,3.418,0,0,0-.549-.786l-.068-.033c-.729-.353-2.949-1.426-4.209.637-1,1.632.605,3.934,1.34,4.848.089.111.238.3-1.031,4.285a.235.235,0,0,1-.169.157Z" transform="translate(-102.653 -217.427)"/>
        <path id="パス_32930" data-name="パス 32930" d="M120.066,242.283c.687-.148,1.478-.043,1.811-.165.538-.2.553-.843,1.3-1.025a1.316,1.316,0,0,1,1.63.7,1.51,1.51,0,0,1,.153.3,2,2,0,0,1-.467,2.5s-2.027,1.049-2.374,1.348a1.876,1.876,0,0,0-.464,1.9.287.287,0,0,1-.127.314.27.27,0,0,1-.363-.083c-.263-.383-.84-1.123-1.249-.948-.515.22-.354,1.765.781,1.943a.743.743,0,0,1,.6.778.755.755,0,0,1-.581.6.778.778,0,0,1-.584-.15c-.741-.474-2.832-2.483-3.091-4.284-.313-2.169,2.117-3.544,3.032-3.741" transform="translate(-98.68 -203.279)"/>
        <path id="パス_32931" data-name="パス 32931" d="M154.284,299.634h-.008a2.676,2.676,0,0,1-1.478-.552.218.218,0,0,1,.283-.333,2.245,2.245,0,0,0,1.211.448.218.218,0,0,1-.008.436" transform="translate(-128.801 -251.914)"/>
        <path id="パス_32932" data-name="パス 32932" d="M214.871,417.3l5.557-16.377a1.831,1.831,0,0,1,1.537-.825h14.812a.92.92,0,0,1,.885,1.229c-.087.229-.181.456-.258.689l-5.022,15.313h0a1.644,1.644,0,0,1-1.643,1.616H203.4a1.645,1.645,0,0,1-1.644-1.646Z" transform="translate(-170.159 -337.43)" fill="#99b9ff"/>
        <path id="パス_32933" data-name="パス 32933" d="M229.473,417.913H202.139a1.882,1.882,0,0,1-1.879-1.881.235.235,0,0,1,.235-.235h12.942l5.5-16.217a.229.229,0,0,1,.026-.052,2.055,2.055,0,0,1,1.734-.932h14.812a1.165,1.165,0,0,1,.974.506,1.129,1.129,0,0,1,.131,1.042c-.025.066-.05.131-.076.2-.064.165-.125.321-.178.482l-5.014,15.287a1.889,1.889,0,0,1-1.876,1.8m-28.723-1.646a1.412,1.412,0,0,0,1.39,1.176h27.334a1.417,1.417,0,0,0,1.408-1.385.239.239,0,0,1,.023-.1l5.013-15.285c.057-.173.123-.343.187-.507.025-.064.05-.128.075-.193a.659.659,0,0,0-.078-.608.7.7,0,0,0-.587-.3H220.7a1.589,1.589,0,0,0-1.325.694l-5.547,16.348a.235.235,0,0,1-.222.159Z" transform="translate(-168.894 -336.165)"/>
        <path id="パス_32934" data-name="パス 32934" d="M355.413,448.47a1.151,1.151,0,1,0,1.469-.926,1.236,1.236,0,0,0-1.469.926" transform="translate(-299.692 -377.41)" fill="#caddff"/>
        <path id="パス_32935" data-name="パス 32935" d="M71.492,407.681c2.049,7.467,8.138,12.231,16.967,14.739l-1.347,2.517c-12.269-.432-18.7-5.764-21.276-16Z" transform="translate(-55.524 -343.827)" fill="#fff"/>
        <path id="パス_32936" data-name="パス 32936" d="M85.705,423.681l-.146-.005c-12-.422-18.828-5.562-21.5-16.175L64,407.266l6.11-1.359.059.216c1.936,7.054,7.589,11.958,16.8,14.576l.281.08ZM64.579,407.62c2.639,10.178,9.273,15.134,20.85,15.581l1.14-2.131c-9.126-2.659-14.772-7.571-16.788-14.607Z" transform="translate(-53.98 -342.331)"/>
        <path id="パス_32937" data-name="パス 32937" d="M196.087,489.128a1.083,1.083,0,0,1,.592-.531,4.152,4.152,0,0,0,.54-.246l2.4-1.275c.45-.221,1.093.293,1.561.447,1.41.463,4.329,1.554,4.088,2.579-.26,1.105-2.768.582-3.659.359-.2-.051-2.047.617-2.63.661a1.9,1.9,0,0,1-1.385-.351,1.28,1.28,0,0,0-.6-.138,1.1,1.1,0,0,1-.855-.4l0-.006a.932.932,0,0,1-.1-1.006Z" transform="translate(-165.249 -410.741)" fill="#fff"/>
        <path id="パス_32938" data-name="パス 32938" d="M197.457,490.105a1.828,1.828,0,0,1-1.062-.3c-.053-.03-.108-.062-.167-.093a1.04,1.04,0,0,0-.489-.111,1.328,1.328,0,0,1-1.037-.489,1.171,1.171,0,0,1-.133-1.266l.047-.092h0a1.312,1.312,0,0,1,.722-.645,3.886,3.886,0,0,0,.51-.233l2.4-1.275a1.523,1.523,0,0,1,1.32.239,3.444,3.444,0,0,0,.424.192c3.027.994,4.455,1.955,4.244,2.855a.937.937,0,0,1-.447.6c-.814.5-2.521.177-3.479-.061a9.8,9.8,0,0,0-1.006.269,10.279,10.279,0,0,1-1.567.393c-.1.008-.2.011-.283.011m-2.422-2.133-.047.092a.7.7,0,0,0,.076.752.864.864,0,0,0,.678.319,1.519,1.519,0,0,1,.7.165c.065.034.125.068.182.1a1.513,1.513,0,0,0,1.076.223,10.805,10.805,0,0,0,1.469-.375c.858-.255,1.091-.316,1.235-.279a5.064,5.064,0,0,0,3.139.12.471.471,0,0,0,.234-.305c.134-.57-1.41-1.473-3.933-2.3a3.738,3.738,0,0,1-.489-.218c-.321-.161-.685-.344-.9-.241l-2.4,1.271a4.331,4.331,0,0,1-.571.26.844.844,0,0,0-.463.416" transform="translate(-163.987 -409.479)"/>
        <path id="パス_32939" data-name="パス 32939" d="M266.5,718.584c.347-.351,2.352-6.595,2.352-6.595l3.961,2.83-4.343,5.843Z" transform="translate(-224.757 -600.473)" fill="#fff"/>
        <path id="パス_32940" data-name="パス 32940" d="M267.2,719.632a.235.235,0,0,1-.171-.073l-1.97-2.078a.235.235,0,0,1,0-.323c.258-.326,1.546-4.161,2.3-6.5a.235.235,0,0,1,.36-.119l3.961,2.83a.235.235,0,0,1,.052.331l-4.343,5.843a.235.235,0,0,1-.175.094H267.2m-1.679-2.348,1.657,1.748,4.033-5.427-3.5-2.5c-.51,1.58-1.712,5.246-2.186,6.182" transform="translate(-223.492 -599.207)"/>
        <path id="パス_32941" data-name="パス 32941" d="M258.7,745.761l-2.634-.016a5.183,5.183,0,0,1-4.315-2.36l-2.6-4.129a2.32,2.32,0,0,1,.873-3.286,10.716,10.716,0,0,1,2.493-1.117c.542.052.761,2.619.761,2.619l2.347.091s1.16,4.827,2.18,5.376a4.482,4.482,0,0,1,1.611,1.523.842.842,0,0,1-.711,1.3" transform="translate(-209.822 -619.755)"/>
        <path id="パス_32942" data-name="パス 32942" d="M262.126,758.281l-.035,0-3.6-.543a2.961,2.961,0,0,1-2.106-1.413L253.2,751a.235.235,0,1,1,.4-.241l3.184,5.325a2.492,2.492,0,0,0,1.773,1.19l3.6.543a.235.235,0,0,1-.035.467" transform="translate(-213.511 -633.07)" fill="#fff"/>
        <path id="パス_32943" data-name="パス 32943" d="M280.721,768.373a.235.235,0,0,1-.062-.462l2.008-.547a.235.235,0,1,1,.124.453l-2.007.547a.234.234,0,0,1-.062.008" transform="translate(-236.554 -647.168)" fill="#fff"/>
        <path id="パス_32944" data-name="パス 32944" d="M287.4,776.135a.235.235,0,0,1-.056-.463l1.346-.33a.235.235,0,0,1,.112.456l-1.346.33a.24.24,0,0,1-.056.007" transform="translate(-242.184 -653.897)" fill="#fff"/>
        <path id="パス_32945" data-name="パス 32945" d="M352.8,734.7l4.6,4.626,2.438-.9-4.24-5.919Z" transform="translate(-297.538 -617.782)" fill="#fff"/>
        <path id="パス_32946" data-name="パス 32946" d="M356.129,738.3a.235.235,0,0,1-.167-.069l-4.6-4.626a.235.235,0,0,1,.022-.351l2.8-2.189a.235.235,0,0,1,.336.048l4.24,5.919a.235.235,0,0,1-.11.357l-2.438.9a.235.235,0,0,1-.081.014m-4.246-4.839,4.306,4.332,2.007-.738-3.917-5.469Z" transform="translate(-296.273 -616.517)"/>
        <path id="パス_32947" data-name="パス 32947" d="M185.038,525.3s21.019-2.58,27.269,3.125-9.867,30.233-9.867,30.233l-5.1-3.985,4.835-17.336-19.43-5.817Z" transform="translate(-154.126 -442.533)" fill="#5479f7"/>
        <path id="パス_32948" data-name="パス 32948" d="M101.273,528.251a48.984,48.984,0,0,0,16.152,2.233,5.667,5.667,0,0,1,5.158,3.27c2.262,4.676,7.157,13.1,15.13,18.552l3.808-2.163-9.72-23.067a8.266,8.266,0,0,0-4.6-4.536l-19.264-7.447s-5.973-1.76-8.9,3.862c-.523,1-1.494-.791-1.726.019-.793,2.777,1.339,8.4,3.962,9.278" transform="translate(-81.928 -434.195)" fill="#5479f7"/>
        <path id="パス_32949" data-name="パス 32949" d="M247.109,568.556a.235.235,0,0,1-.215-.14l-4.392-9.9a7.886,7.886,0,0,0-4.466-4.183l-9.225-3.387a.235.235,0,1,1,.162-.441l9.225,3.387a8.358,8.358,0,0,1,4.733,4.433l4.392,9.9a.235.235,0,0,1-.215.33" transform="translate(-192.843 -464.271)" fill="#fff"/>
        <path id="パス_32950" data-name="パス 32950" d="M298.591,701.864a.234.234,0,0,1-.169-.072c-.885-.921-1.756-1.911-2.588-2.942a.235.235,0,1,1,.365-.3c.824,1.02,1.686,2,2.562,2.912a.235.235,0,0,1-.169.4" transform="translate(-249.454 -589.069)" fill="#fff"/>
        <path id="パス_32951" data-name="パス 32951" d="M289.525,690.565a.234.234,0,0,1-.183-.087c-.408-.5-.816-1.03-1.211-1.562a.235.235,0,1,1,.377-.281c.392.527.8,1.048,1.2,1.547a.235.235,0,0,1-.183.383" transform="translate(-242.963 -580.696)" fill="#fff"/>
        <path id="パス_32952" data-name="パス 32952" d="M372.532,764.676a13.267,13.267,0,0,0,.155,3.708,2.022,2.022,0,0,0,1.982,1.579h11.287a.864.864,0,0,0,.554-1.527,22.28,22.28,0,0,0-10.238-5.008l-1.266,1.774Z" transform="translate(-314.129 -643.854)"/>
        <path id="パス_32953" data-name="パス 32953" d="M390.914,794.2h-11.7a.235.235,0,1,1,0-.47h11.7a.235.235,0,0,1,0,.47" transform="translate(-319.623 -669.414)" fill="#fff"/>
        <path id="パス_32954" data-name="パス 32954" d="M412.229,772.823a.235.235,0,0,1-.217-.325l.619-1.5a.235.235,0,1,1,.434.179l-.619,1.5a.235.235,0,0,1-.217.146" transform="translate(-347.465 -650.114)" fill="#fff"/>
        <path id="パス_32955" data-name="パス 32955" d="M425.227,776.141a.238.238,0,0,1-.074-.012.235.235,0,0,1-.149-.3l.448-1.357a.235.235,0,1,1,.446.147l-.448,1.357a.235.235,0,0,1-.223.161" transform="translate(-358.427 -653.036)" fill="#fff"/>
        <path id="パス_32956" data-name="パス 32956" d="M75.909,518.14H5.781a2.3,2.3,0,0,0-2.174,2.629l4.843,45.9h3.5L8.915,523.591a1.271,1.271,0,0,1,1.208-1.407h60.2a1.9,1.9,0,0,1,1.807,2.1l-3,42.653h3.5l4.925-46.819a1.737,1.737,0,0,0-1.64-1.983" transform="translate(-3.03 -436.986)" fill="#fff"/>
        <path id="パス_32957" data-name="パス 32957" d="M71.57,565.912H67.61l.018-.251,3-42.652a1.809,1.809,0,0,0-.468-1.36,1.5,1.5,0,0,0-1.105-.494H8.857a.928.928,0,0,0-.682.305,1.131,1.131,0,0,0-.292.85l3.049,43.332H6.972L2.108,519.529a2.707,2.707,0,0,1,.664-2.1,2.327,2.327,0,0,1,1.743-.793H74.643a1.812,1.812,0,0,1,1.358.617,2.1,2.1,0,0,1,.516,1.625Zm-3.456-.47h3.033l4.9-46.608a1.629,1.629,0,0,0-.4-1.262,1.348,1.348,0,0,0-1.009-.462H4.515a1.863,1.863,0,0,0-1.394.638,2.236,2.236,0,0,0-.546,1.732L7.4,565.172h3.033L7.415,522.343a1.6,1.6,0,0,1,.417-1.2,1.392,1.392,0,0,1,1.025-.455h60.2a1.968,1.968,0,0,1,1.449.643,2.281,2.281,0,0,1,.593,1.713Z" transform="translate(-1.764 -435.72)"/>
        <path id="パス_32958" data-name="パス 32958" d="M325.036,45.337c1.83-3.086,4.378-4.482,5.852-3.841,1.689.734,1.636,3.993,1.62,4.483-.137,4.414-4.121,7.254-4.946,7.817-.6-.123-7.663-1.667-8.865-6.556-.361-1.469-.378-3.995.961-4.713,1.261-.676,3.6.316,5.377,2.809" transform="translate(-268.605 -34.868)" fill="#5479f7"/>
        <path id="パス_32959" data-name="パス 32959" d="M402.072,39.308h-.007a.235.235,0,0,1-.228-.241c.094-3.469-1.966-4.334-1.987-4.342a.235.235,0,0,1,.174-.436c.1.039,2.385,1,2.282,4.791a.235.235,0,0,1-.235.229" transform="translate(-337.098 -28.904)" fill="#5479f7"/>
        <path id="パス_32960" data-name="パス 32960" d="M310.15,48.191a.235.235,0,0,1-.221-.155,7.406,7.406,0,0,1,.777-6.563.235.235,0,0,1,.381.275,7.06,7.06,0,0,0-.716,6.129.235.235,0,0,1-.221.315" transform="translate(-261.013 -34.895)" fill="#5479f7"/>
      </g>
    </g>
  </g>
</svg>
