<svg xmlns="http://www.w3.org/2000/svg" width="235.116" height="19.916" viewBox="0 0 235.116 19.916">
  <g id="グループ_6302" data-name="グループ 6302" transform="translate(-380 -2702.369)">
    <path id="パス_33216" data-name="パス 33216" d="M-55.278-12.348l.234,2.466c2.088-.45,5.76-.846,7.452-1.026a7.2,7.2,0,0,0-2.682,5.562c0,3.906,3.564,5.922,7.344,6.174l.846-2.466c-3.06-.162-5.832-1.224-5.832-4.194a5.47,5.47,0,0,1,3.816-5.04,18.7,18.7,0,0,1,3.474-.252l-.018-2.3c-1.278.054-3.24.162-5.094.324-3.294.27-6.264.54-7.776.666C-53.856-12.4-54.558-12.366-55.278-12.348ZM-43.2-9.36l-1.332.558a13.888,13.888,0,0,1,1.4,2.5l1.368-.612A22.342,22.342,0,0,0-43.2-9.36Zm2.016-.828-1.314.612a15.835,15.835,0,0,1,1.476,2.43l1.35-.648A26.926,26.926,0,0,0-41.184-10.188Zm4.986-2.16.234,2.466c2.088-.45,5.76-.846,7.452-1.026a7.2,7.2,0,0,0-2.682,5.562c0,3.906,3.564,5.922,7.344,6.174L-23-1.638c-3.06-.162-5.832-1.224-5.832-4.194a5.47,5.47,0,0,1,3.816-5.04,18.7,18.7,0,0,1,3.474-.252l-.018-2.3c-1.278.054-3.24.162-5.094.324-3.294.27-6.264.54-7.776.666C-34.776-12.4-35.478-12.366-36.2-12.348ZM-24.12-9.36l-1.332.558a13.888,13.888,0,0,1,1.4,2.5l1.368-.612A22.342,22.342,0,0,0-24.12-9.36Zm2.016-.828-1.314.612a15.835,15.835,0,0,1,1.476,2.43l1.35-.648A26.925,26.925,0,0,0-22.1-10.188Zm6.372,1.044.126,2.124A66.94,66.94,0,0,0-7.776-7c.288.612.63,1.242,1.008,1.872-.54-.054-1.512-.144-2.268-.216l-.18,1.71c1.314.144,3.258.378,4.266.576l1.1-1.656a5.487,5.487,0,0,1-.81-.918,16.381,16.381,0,0,1-.936-1.6,24.119,24.119,0,0,0,2.88-.558l-.36-2.124a23.238,23.238,0,0,1-3.438.72c-.108-.288-.216-.558-.306-.81-.09-.27-.18-.558-.27-.846A26.241,26.241,0,0,0-3.78-11.52l-.288-2.07a20.688,20.688,0,0,1-3.546.774q-.189-.918-.324-1.89l-2.412.27c.216.63.4,1.206.576,1.782a37.442,37.442,0,0,1-5.634-.27l.126,2.07a42.085,42.085,0,0,0,6.066.162c.108.306.216.648.36,1.062.072.2.144.414.234.63A46.126,46.126,0,0,1-15.732-9.144Zm3.456,4.176L-14.508-5.4a5.977,5.977,0,0,0-.774,2.9c.036,2.574,2.268,3.636,5.868,3.636A27.647,27.647,0,0,0-5.04.792l.126-2.286a23.691,23.691,0,0,1-4.518.4c-2.376,0-3.636-.54-3.636-1.872A3.378,3.378,0,0,1-12.276-4.968ZM7.38-2.124c0-.45.432-.864,1.116-.864.972,0,1.638.756,1.746,1.926A9.4,9.4,0,0,1,9.2-1.008C8.118-1.008,7.38-1.458,7.38-2.124ZM4.32-13.716l.072,2.34c.414-.054.99-.108,1.476-.144.954-.054,3.438-.162,4.356-.18-.882.774-2.754,2.286-3.762,3.114C5.4-7.7,3.222-5.868,1.944-4.842L3.582-3.15C5.508-5.346,7.308-6.8,10.062-6.8c2.124,0,3.744,1.1,3.744,2.718a2.609,2.609,0,0,1-1.494,2.448A3.6,3.6,0,0,0,8.478-4.716,3.016,3.016,0,0,0,5.256-1.908c0,1.8,1.89,2.952,4.392,2.952,4.356,0,6.516-2.25,6.516-5.094,0-2.628-2.322-4.536-5.382-4.536a7.032,7.032,0,0,0-1.71.2c1.134-.9,3.024-2.484,4-3.168.414-.306.846-.558,1.26-.828l-1.17-1.6a7.865,7.865,0,0,1-1.368.2c-1.026.09-4.878.162-5.832.162A12.491,12.491,0,0,1,4.32-13.716Zm19.044.63v2.376c1.458.126,3.024.2,4.914.2,1.71,0,3.942-.108,5.2-.216v-2.394c-1.386.144-3.438.252-5.22.252A47.219,47.219,0,0,1,23.364-13.086Zm1.512,7.632L22.518-5.67a11.644,11.644,0,0,0-.36,2.592c0,2.466,2.07,3.852,6.192,3.852A27.737,27.737,0,0,0,34.6.162l-.018-2.538a24.715,24.715,0,0,1-6.318.72c-2.592,0-3.69-.828-3.69-1.98A6.632,6.632,0,0,1,24.876-5.454ZM44.46-14.346l-2.25.918c.81,1.908,1.674,3.834,2.5,5.364-1.728,1.278-2.988,2.772-2.988,4.752,0,3.1,2.718,4.086,6.3,4.086A33.429,33.429,0,0,0,53.8.324l.036-2.592a27.788,27.788,0,0,1-5.886.666c-2.5,0-3.744-.684-3.744-1.98,0-1.26,1.008-2.286,2.5-3.276a53.28,53.28,0,0,1,5.022-2.664c.666-.342,1.242-.648,1.782-.972l-1.242-2.088a11.248,11.248,0,0,1-1.674,1.1c-.846.486-2.412,1.26-3.888,2.124A42.757,42.757,0,0,1,44.46-14.346Z" transform="translate(561.278 2721)" fill="#333"/>
    <g id="グループ_6305" data-name="グループ 6305" transform="translate(353.158 2675.113)">
      <path id="パス_1787" data-name="パス 1787" d="M3.008-22.627h8.136a11.676,11.676,0,0,1,5.291,1.157,8.561,8.561,0,0,1,3.59,3.271A9.254,9.254,0,0,1,21.3-13.321a9.254,9.254,0,0,1-1.276,4.879,8.561,8.561,0,0,1-3.59,3.271,11.676,11.676,0,0,1-5.291,1.157H3.008ZM10.985-6.939a7.9,7.9,0,0,0,3.6-.784,5.612,5.612,0,0,0,2.393-2.234,6.6,6.6,0,0,0,.838-3.364,6.6,6.6,0,0,0-.838-3.364,5.612,5.612,0,0,0-2.393-2.234,7.9,7.9,0,0,0-3.6-.784H6.465V-6.939Zm25.952-4.095q0,.346-.053.984H25.742a3.862,3.862,0,0,0,1.529,2.486,5.012,5.012,0,0,0,3.071.917A5.175,5.175,0,0,0,34.2-8.189l1.782,2.047a6,6,0,0,1-2.42,1.728,8.813,8.813,0,0,1-3.3.585,8.775,8.775,0,0,1-4.121-.931,6.7,6.7,0,0,1-2.752-2.593,7.321,7.321,0,0,1-.971-3.762,7.43,7.43,0,0,1,.944-3.736,6.7,6.7,0,0,1,2.619-2.593,7.642,7.642,0,0,1,3.776-.931,7.45,7.45,0,0,1,3.709.917,6.5,6.5,0,0,1,2.553,2.579A7.821,7.821,0,0,1,36.937-11.034Zm-7.179-4.68a4.009,4.009,0,0,0-2.7.944,3.971,3.971,0,0,0-1.343,2.513h8.057a3.918,3.918,0,0,0-1.3-2.5A3.962,3.962,0,0,0,29.757-15.714Zm9.306-8.03h3.324v19.73H39.064Zm6.621,0h3.324v19.73H45.685ZM57.73-18.373a6.923,6.923,0,0,1,4.8,1.5,5.807,5.807,0,0,1,1.662,4.534v8.323H61.054V-5.743A3.867,3.867,0,0,1,59.312-4.32a6.808,6.808,0,0,1-2.725.492,6.677,6.677,0,0,1-2.792-.545,4.314,4.314,0,0,1-1.848-1.516A3.846,3.846,0,0,1,51.3-8.083a3.76,3.76,0,0,1,1.423-3.071A7.065,7.065,0,0,1,57.2-12.31h3.669v-.213a2.91,2.91,0,0,0-.891-2.287,3.854,3.854,0,0,0-2.646-.8,7.637,7.637,0,0,0-2.353.372A5.781,5.781,0,0,0,53.024-14.2l-1.3-2.42a8.068,8.068,0,0,1,2.686-1.3A11.949,11.949,0,0,1,57.73-18.373ZM57.278-6.248A4.292,4.292,0,0,0,59.5-6.82a3.111,3.111,0,0,0,1.369-1.635V-10.1h-3.43q-2.872,0-2.872,1.888a1.7,1.7,0,0,0,.718,1.436A3.291,3.291,0,0,0,57.278-6.248Zm33.8,2.234-.027-12.338L84.931-6.142H83.389L77.273-16.192V-4.014h-3.3V-22.627h2.845L84.213-10.29l7.259-12.338h2.845l.027,18.613Zm12.338-14.359a6.923,6.923,0,0,1,4.8,1.5,5.807,5.807,0,0,1,1.662,4.534v8.323h-3.138V-5.743a3.867,3.867,0,0,1-1.742,1.423,6.808,6.808,0,0,1-2.725.492,6.677,6.677,0,0,1-2.792-.545,4.314,4.314,0,0,1-1.848-1.516,3.846,3.846,0,0,1-.651-2.194A3.76,3.76,0,0,1,98.4-11.154a7.065,7.065,0,0,1,4.48-1.157h3.669v-.213a2.91,2.91,0,0,0-.891-2.287,3.854,3.854,0,0,0-2.646-.8,7.637,7.637,0,0,0-2.353.372A5.781,5.781,0,0,0,98.7-14.2l-1.3-2.42a8.068,8.068,0,0,1,2.686-1.3A11.949,11.949,0,0,1,103.411-18.373Zm-.452,12.125a4.292,4.292,0,0,0,2.22-.572,3.111,3.111,0,0,0,1.369-1.635V-10.1h-3.43q-2.872,0-2.872,1.888a1.7,1.7,0,0,0,.718,1.436A3.291,3.291,0,0,0,102.959-6.248Zm10.1-17.5h3.324v19.73h-3.324Zm6.621,0h3.324v19.73h-3.324Z" transform="translate(23.834 51)" fill="#333"/>
    </g>
  </g>
</svg>
