<svg id="グループ_6384" data-name="グループ 6384" xmlns="http://www.w3.org/2000/svg" xmlns:xlink="http://www.w3.org/1999/xlink" width="130" height="130.027" viewBox="0 0 130 130.027">
  <defs>
    <clipPath id="clip-path">
      <rect id="長方形_10599" data-name="長方形 10599" width="130" height="130.027" fill="none"/>
    </clipPath>
    <clipPath id="clip-path-3">
      <rect id="長方形_10597" data-name="長方形 10597" width="14.095" height="6.576" fill="none"/>
    </clipPath>
  </defs>
  <g id="グループ_6383" data-name="グループ 6383" clip-path="url(#clip-path)">
    <g id="グループ_6382" data-name="グループ 6382">
      <g id="グループ_6381" data-name="グループ 6381" clip-path="url(#clip-path)">
        <path id="パス_32613" data-name="パス 32613" d="M127.826,112.125a9.227,9.227,0,0,1-.831,4.765c-6.63,14.774-40.762,15.3-63.271,10.265-3.649-.818-8.517-1.906-13.948-3.609-15-4.7-34.3-14.071-44.082-35.274A61.819,61.819,0,0,1,.667,71.129C-2.115,51.766,3.917,31.4,16.76,18.022,50.522-17.162,121.6,5.788,129.292,30.744c3.048,9.889-4.46,18.161-8.847,30.5a47.476,47.476,0,0,0-2.37,23.489c.024.16.047.318.07.473q.04.265.085.526a52.867,52.867,0,0,0,5.229,15.648c2.121,4.272,4.066,7.5,4.368,10.748" transform="translate(0 0)" fill="#caddff"/>
        <path id="パス_32614" data-name="パス 32614" d="M252.684,347.285c-23.672-6.942-93.7-22.707-98.068-31.606-4.6-9.377,3.463-23.2,8.786-24.029,3.916-.609,63.064,10.759,86.268,15.5a47.477,47.477,0,0,0-2.37,23.489c.024.16.047.318.07.473.028.179.055.354.085.526a52.868,52.868,0,0,0,5.229,15.648" transform="translate(-129.226 -245.909)" fill="#99b9ff"/>
        <path id="パス_32615" data-name="パス 32615" d="M296.2,386.249l-42.32-11.8,0-1.953,14.286-6.856,42.165,9.418a.174.174,0,0,1,.086.3Z" transform="translate(-214.077 -308.317)" fill="#5479f7"/>
        <path id="パス_32616" data-name="パス 32616" d="M296.114,373.593l-42.208-11.772,14.178-8.841,42.533,9.5Z" transform="translate(-214.103 -297.645)" fill="#caddff"/>
        <path id="パス_32617" data-name="パス 32617" d="M523.253,426.677l-.108-1.984,14.5-11.112.073,1.334a1.191,1.191,0,0,1-.452,1.023Z" transform="translate(-441.133 -348.745)" fill="#5479f7"/>
        <path id="パス_32618" data-name="パス 32618" d="M487.548,422.963a.235.235,0,0,1-.137-.427l10.756-7.633a.235.235,0,0,1,.272.384l-10.756,7.633a.234.234,0,0,1-.136.043" transform="translate(-410.918 -349.824)" fill="#99b9ff"/>
        <path id="パス_32619" data-name="パス 32619" d="M462.83,416.675a.235.235,0,0,1-.135-.428l10.5-7.365a.235.235,0,1,1,.27.385l-10.5,7.365a.235.235,0,0,1-.135.042" transform="translate(-390.075 -344.747)" fill="#99b9ff"/>
        <path id="パス_32620" data-name="パス 32620" d="M440.19,410.844a.235.235,0,0,1-.137-.426l10.249-7.353a.235.235,0,0,1,.274.382L440.327,410.8a.234.234,0,0,1-.137.044" transform="translate(-370.984 -339.841)" fill="#99b9ff"/>
        <path id="パス_32621" data-name="パス 32621" d="M394.91,399.533a.235.235,0,0,1-.135-.428l9.851-6.916a.235.235,0,1,1,.27.385l-9.851,6.916a.234.234,0,0,1-.135.043" transform="translate(-332.803 -330.671)" fill="#99b9ff"/>
        <path id="パス_32622" data-name="パス 32622" d="M417.087,404.784a.235.235,0,0,1-.136-.427l10.068-7.114a.235.235,0,1,1,.271.384l-10.068,7.114a.234.234,0,0,1-.135.043" transform="translate(-351.504 -334.932)" fill="#99b9ff"/>
        <path id="パス_32623" data-name="パス 32623" d="M369.73,392.66a.235.235,0,0,1-.134-.428l10-6.939a.235.235,0,1,1,.268.386l-10,6.939a.234.234,0,0,1-.134.042" transform="translate(-311.57 -324.856)" fill="#99b9ff"/>
        <path id="パス_32624" data-name="パス 32624" d="M347.632,387.465a.235.235,0,0,1-.134-.428l9.74-6.761a.235.235,0,0,1,.268.386l-9.74,6.761a.234.234,0,0,1-.134.042" transform="translate(-292.936 -320.626)" fill="#99b9ff"/>
        <path id="パス_32625" data-name="パス 32625" d="M325.754,382.622a.235.235,0,0,1-.134-.428l9.393-6.52a.235.235,0,0,1,.268.386l-9.393,6.52a.234.234,0,0,1-.134.042" transform="translate(-274.488 -316.745)" fill="#99b9ff"/>
        <path id="パス_32626" data-name="パス 32626" d="M305.546,376.593a.235.235,0,0,1-.134-.428l9.415-6.535a.235.235,0,0,1,.268.386l-9.415,6.535a.234.234,0,0,1-.134.042" transform="translate(-257.448 -311.648)" fill="#99b9ff"/>
        <path id="パス_32627" data-name="パス 32627" d="M320.167,415.943a.235.235,0,0,1-.065-.009l-35.885-10.3a.235.235,0,1,1,.13-.452L320.12,415.45l10.337-7.7a.235.235,0,0,1,.281.377l-10.43,7.774a.236.236,0,0,1-.14.047" transform="translate(-239.518 -341.651)" fill="#99b9ff"/>
        <path id="パス_32628" data-name="パス 32628" d="M342.669,406.846a.234.234,0,0,1-.064-.009l-34.622-9.675a.235.235,0,1,1,.127-.453l34.622,9.675a.235.235,0,0,1-.063.462" transform="translate(-259.557 -334.511)" fill="#99b9ff"/>
        <path id="パス_32629" data-name="パス 32629" d="M356.53,396.28a.235.235,0,0,1-.063-.009L321.844,386.6a.235.235,0,1,1,.127-.453l34.622,9.675a.235.235,0,0,1-.063.462" transform="translate(-271.245 -325.602)" fill="#99b9ff"/>
        <path id="パス_32630" data-name="パス 32630" d="M372.78,384.934a.236.236,0,0,1-.057-.007l-35.639-8.833a.235.235,0,0,1,.113-.457l35.639,8.833a.235.235,0,0,1-.056.463" transform="translate(-284.09 -316.743)" fill="#99b9ff"/>
        <path id="パス_32631" data-name="パス 32631" d="M380.759,373.278a.235.235,0,0,1-.054-.006l-36.99-8.671a.235.235,0,1,1,.107-.458l36.99,8.67a.235.235,0,0,1-.053.464" transform="translate(-289.679 -307.052)" fill="#99b9ff"/>
        <path id="パス_32632" data-name="パス 32632" d="M491.271,251.34l-15.3-2.286c-.1,0-.132.092-.132.181v13.017c0,1.246-8.7,4.484-8.78,4.32l-.011,1.378a.5.5,0,0,0,.513.484h.2l12.832,2.382a4.485,4.485,0,0,0,1.723-.359l7.055-2.97a3.233,3.233,0,0,0,2.071-2.935V251.521a.172.172,0,0,0-.161-.181" transform="translate(-393.827 -210.011)" fill="#5479f7"/>
        <path id="パス_32633" data-name="パス 32633" d="M475.215,243.7v13.02a3.326,3.326,0,0,1-2.125,3.007l-4.759,2.031a.285.285,0,0,0,.14.549l13.077,2.382a4.392,4.392,0,0,0,1.7-.34l5.273-2.22a3.328,3.328,0,0,0,2.142-3.014V246.08a.1.1,0,0,0-.108-.1L475.323,243.6a.1.1,0,0,0-.108.1" transform="translate(-394.757 -205.413)" fill="#fff"/>
        <path id="パス_32634" data-name="パス 32634" d="M423.653,53.118c-.521.433-1.885,1.578-1.885,1.578l-59.05-11.035a4.447,4.447,0,0,1-3.688-4.455l.615-37.164,2.048-1.1a1.9,1.9,0,0,1,1.228-.193l60.088,10.837a1.894,1.894,0,0,1,1.558,1.864l-.161,38.419a1.68,1.68,0,0,1-.753,1.246" transform="translate(-302.745 -0.609)" fill="#5479f7"/>
        <path id="パス_32635" data-name="パス 32635" d="M422.015,60.153a1.582,1.582,0,0,1-1.864,1.557l-60.6-11.447a1.582,1.582,0,0,1-1.3-1.557V10.619a1.582,1.582,0,0,1,1.863-1.557L420.713,20a1.582,1.582,0,0,1,1.3,1.557Z" transform="translate(-302.089 -7.62)" fill="#99b9ff"/>
        <path id="パス_32636" data-name="パス 32636" d="M472.947,205.468a1.8,1.8,0,0,1-.319-.029l-51.942-9.851a.235.235,0,0,1,.088-.462l51.94,9.851a1.319,1.319,0,0,0,1.552-1.3v-24.2a.235.235,0,1,1,.47,0v24.2a1.79,1.79,0,0,1-1.788,1.79" transform="translate(-354.575 -151.145)"/>
        <path id="パス_32637" data-name="パス 32637" d="M356.985,25.022a.235.235,0,0,1-.235-.235V9.356a1.818,1.818,0,0,1,2.14-1.788l59,10.65a.235.235,0,0,1-.084.463l-59-10.65a1.347,1.347,0,0,0-1.587,1.325V24.787a.235.235,0,0,1-.235.235" transform="translate(-300.823 -6.357)"/>
        <path id="パス_32638" data-name="パス 32638" d="M443.716,60.888V90.755a1.614,1.614,0,0,1-1.9,1.588l-49.195-8.981a1.614,1.614,0,0,1-1.324-1.588V52.31a1.153,1.153,0,0,1,1.365-1.134Z" transform="translate(-329.952 -43.137)" fill="#caddff"/>
        <path id="パス_32639" data-name="パス 32639" d="M389.345,41.609l55.044,10.669a1.21,1.21,0,0,0,1.44-1.188V44.447a1.21,1.21,0,0,0-.986-1.189L389.686,32.873a1.21,1.21,0,0,0-1.434,1.194l.025,6.253a1.319,1.319,0,0,0,1.068,1.29" transform="translate(-327.387 -27.701)" fill="#fff"/>
        <path id="パス_32640" data-name="パス 32640" d="M443.357,51.272a1.449,1.449,0,0,1-.277-.027L388.036,40.576a1.558,1.558,0,0,1-1.258-1.52l-.025-6.253a1.445,1.445,0,0,1,1.712-1.426l55.157,10.385a1.446,1.446,0,0,1,1.178,1.42v6.644a1.446,1.446,0,0,1-1.443,1.446M388.125,40.114,443.17,50.783a.975.975,0,0,0,1.16-.957V43.182a.976.976,0,0,0-.794-.958L388.378,31.839a.975.975,0,0,0-1.155.962l.025,6.253a1.087,1.087,0,0,0,.878,1.06" transform="translate(-326.123 -26.437)"/>
        <path id="パス_32641" data-name="パス 32641" d="M461.948,69.97l17.235,3.16a1.356,1.356,0,0,0,1.495-.809v0a1.356,1.356,0,0,0-1.006-1.859L462.438,67.3a1.356,1.356,0,0,0-1.495.809v0a1.356,1.356,0,0,0,1.006,1.859" transform="translate(-388.592 -56.731)" fill="#99b9ff"/>
        <path id="パス_32642" data-name="パス 32642" d="M603.115,95.783l6.8,1.232a1.356,1.356,0,0,0,1.495-.809v0a1.356,1.356,0,0,0-1.006-1.859l-6.8-1.232a1.356,1.356,0,0,0-1.495.809v0a1.356,1.356,0,0,0,1.006,1.859" transform="translate(-507.628 -78.497)" fill="#99b9ff"/>
        <path id="パス_32643" data-name="パス 32643" d="M687.243,104.143a2.542,2.542,0,0,0,3.351.213l1.53,1.531a.329.329,0,0,0,.465-.465l-1.531-1.532a2.542,2.542,0,1,0-3.815.253m.448-3.149a1.91,1.91,0,1,1,0,2.7,1.909,1.909,0,0,1,0-2.7" transform="translate(-578.878 -84.156)"/>
        <path id="パス_32644" data-name="パス 32644" d="M408.281,55.571l-.589-.131,1.807-4.607.589.131Z" transform="translate(-343.78 -42.865)" fill="#99b9ff"/>
        <path id="パス_32645" data-name="パス 32645" d="M408.618,58.766l.2-.543,3.814.848-.2.543Z" transform="translate(-344.56 -49.096)" fill="#99b9ff"/>
        <path id="パス_32646" data-name="パス 32646" d="M405.654,66.63l.2-.543,3.814.848-.2.543Z" transform="translate(-342.061 -55.727)" fill="#99b9ff"/>
        <path id="パス_32647" data-name="パス 32647" d="M417.273,57.569l-.589-.131,1.807-4.607.589.131Z" transform="translate(-351.362 -44.549)" fill="#99b9ff"/>
        <path id="パス_32648" data-name="パス 32648" d="M428.481,124.014l-9.276-1.742a3.022,3.022,0,0,1-2.41-2.826,1.928,1.928,0,0,1,2.41-1.921l9.276,1.742a3.022,3.022,0,0,1,2.41,2.826,1.928,1.928,0,0,1-2.41,1.921" transform="translate(-351.455 -99.064)" fill="#fff"/>
        <path id="パス_32649" data-name="パス 32649" d="M427.676,123.025a2.725,2.725,0,0,1-.5-.048l-9.276-1.742a3.27,3.27,0,0,1-2.6-3.058,2.164,2.164,0,0,1,.763-1.7,2.294,2.294,0,0,1,1.925-.448l9.276,1.743a3.27,3.27,0,0,1,2.6,3.057,2.164,2.164,0,0,1-.763,1.7,2.2,2.2,0,0,1-1.423.5m-.416-.51a1.83,1.83,0,0,0,1.538-.347,1.7,1.7,0,0,0,.593-1.342,2.781,2.781,0,0,0-2.218-2.6l-9.276-1.743a1.829,1.829,0,0,0-1.538.347,1.7,1.7,0,0,0-.593,1.342,2.781,2.781,0,0,0,2.218,2.6Z" transform="translate(-350.191 -97.796)" fill="#5479f7"/>
        <path id="パス_32650" data-name="パス 32650" d="M435.626,137.288a.242.242,0,0,1-.044,0l-7.133-1.34a.235.235,0,0,1,.087-.462l7.133,1.34a.235.235,0,0,1-.043.466" transform="translate(-361.12 -114.239)" fill="#5479f7"/>
        <path id="パス_32651" data-name="パス 32651" d="M485.065,138.96a.235.235,0,0,1-.179-.082l-1.43-1.677a.235.235,0,0,1,.358-.305l1.43,1.677a.235.235,0,0,1-.179.388" transform="translate(-407.619 -115.365)"/>
        <path id="パス_32652" data-name="パス 32652" d="M483.635,140.135a.235.235,0,0,1-.147-.419l1.43-1.14a.235.235,0,0,1,.293.368l-1.43,1.14a.234.234,0,0,1-.146.051" transform="translate(-407.619 -116.809)"/>
        <path id="パス_32653" data-name="パス 32653" d="M536.936,144.388l-8.017-1.506a3.022,3.022,0,0,1-2.41-2.826,1.928,1.928,0,0,1,2.41-1.921l8.017,1.506a3.022,3.022,0,0,1,2.41,2.826,1.928,1.928,0,0,1-2.41,1.921" transform="translate(-443.97 -116.443)" fill="#fff"/>
        <path id="パス_32654" data-name="パス 32654" d="M536.129,143.4a2.726,2.726,0,0,1-.5-.048l-8.017-1.506a3.27,3.27,0,0,1-2.6-3.058,2.163,2.163,0,0,1,.763-1.7,2.293,2.293,0,0,1,1.925-.448l8.017,1.506a3.27,3.27,0,0,1,2.6,3.057,2.164,2.164,0,0,1-.763,1.7,2.2,2.2,0,0,1-1.423.5m-.416-.51a1.832,1.832,0,0,0,1.538-.347,1.7,1.7,0,0,0,.593-1.342,2.781,2.781,0,0,0-2.218-2.6L527.61,137.1a1.83,1.83,0,0,0-1.538.347,1.7,1.7,0,0,0-.593,1.343,2.781,2.781,0,0,0,2.218,2.6Z" transform="translate(-442.704 -115.175)" fill="#5479f7"/>
        <path id="パス_32655" data-name="パス 32655" d="M544.386,157.72a.241.241,0,0,1-.044,0l-5.985-1.124a.235.235,0,0,1,.087-.462l5.985,1.124a.235.235,0,0,1-.043.466" transform="translate(-453.799 -131.651)" fill="#5479f7"/>
        <path id="パス_32656" data-name="パス 32656" d="M587.2,158.147a.235.235,0,0,1-.179-.082l-1.43-1.677a.235.235,0,0,1,.358-.305l1.43,1.677a.235.235,0,0,1-.179.388" transform="translate(-493.742 -131.544)"/>
        <path id="パス_32657" data-name="パス 32657" d="M585.769,159.323a.235.235,0,0,1-.147-.419l1.43-1.14a.235.235,0,1,1,.293.368l-1.43,1.14a.234.234,0,0,1-.146.051" transform="translate(-493.742 -132.988)"/>
        <path id="パス_32658" data-name="パス 32658" d="M512.032,187.669,501.7,185.728a3.022,3.022,0,0,1-2.41-2.826,1.928,1.928,0,0,1,2.41-1.921l10.332,1.941a3.022,3.022,0,0,1,2.41,2.826,1.928,1.928,0,0,1-2.41,1.921" transform="translate(-421.019 -152.572)" fill="#fff"/>
        <path id="パス_32659" data-name="パス 32659" d="M511.226,186.679a2.726,2.726,0,0,1-.5-.048l-10.332-1.941a3.27,3.27,0,0,1-2.6-3.057,2.164,2.164,0,0,1,.763-1.7,2.293,2.293,0,0,1,1.925-.448l10.332,1.941a3.271,3.271,0,0,1,2.6,3.058,2.164,2.164,0,0,1-.763,1.7,2.2,2.2,0,0,1-1.423.5m-.416-.51a1.83,1.83,0,0,0,1.538-.347,1.7,1.7,0,0,0,.593-1.342,2.782,2.782,0,0,0-2.218-2.6l-10.332-1.941a1.83,1.83,0,0,0-1.538.347,1.7,1.7,0,0,0-.593,1.342,2.781,2.781,0,0,0,2.218,2.6Z" transform="translate(-419.753 -151.304)" fill="#5479f7"/>
        <path id="パス_32660" data-name="パス 32660" d="M518.984,200.659a.243.243,0,0,1-.044,0l-8.425-1.583a.235.235,0,0,1,.087-.462l8.425,1.583a.235.235,0,0,1-.043.466" transform="translate(-430.322 -167.471)" fill="#5479f7"/>
        <path id="パス_32661" data-name="パス 32661" d="M574.922,203.3a.235.235,0,0,1-.179-.082l-1.43-1.677a.235.235,0,0,1,.358-.305l1.43,1.677a.235.235,0,0,1-.179.388" transform="translate(-483.389 -169.621)"/>
        <path id="パス_32662" data-name="パス 32662" d="M573.491,204.477a.235.235,0,0,1-.147-.419l1.43-1.14a.235.235,0,0,1,.293.368l-1.43,1.14a.234.234,0,0,1-.146.051" transform="translate(-483.389 -171.064)"/>
        <path id="パス_32663" data-name="パス 32663" d="M424.215,171.171l-5.009-.941a3.022,3.022,0,0,1-2.41-2.826,1.928,1.928,0,0,1,2.41-1.921l5.009.941a3.022,3.022,0,0,1,2.41,2.826,1.928,1.928,0,0,1-2.41,1.921" transform="translate(-351.456 -139.504)" fill="#fff"/>
        <path id="パス_32664" data-name="パス 32664" d="M423.409,170.183a2.726,2.726,0,0,1-.5-.048l-5.009-.941a3.27,3.27,0,0,1-2.6-3.057,2.164,2.164,0,0,1,.763-1.7,2.3,2.3,0,0,1,1.925-.448l5.009.941a3.27,3.27,0,0,1,2.6,3.058,2.163,2.163,0,0,1-.763,1.7,2.2,2.2,0,0,1-1.423.5m-.416-.51a1.831,1.831,0,0,0,1.538-.347,1.7,1.7,0,0,0,.593-1.342,2.781,2.781,0,0,0-2.218-2.6l-5.009-.941a1.83,1.83,0,0,0-1.538.347,1.7,1.7,0,0,0-.593,1.343,2.781,2.781,0,0,0,2.218,2.6Z" transform="translate(-350.191 -138.237)" fill="#5479f7"/>
        <path id="パス_32665" data-name="パス 32665" d="M431.365,184.2a.241.241,0,0,1-.044,0l-2.972-.558a.235.235,0,1,1,.087-.462l2.972.558a.235.235,0,0,1-.043.466" transform="translate(-361.037 -154.457)" fill="#5479f7"/>
        <path id="パス_32666" data-name="パス 32666" d="M457.466,181.236a.235.235,0,0,1-.179-.082l-1.43-1.677a.235.235,0,0,1,.358-.305l1.43,1.677a.235.235,0,0,1-.179.388" transform="translate(-384.346 -151.014)"/>
        <path id="パス_32667" data-name="パス 32667" d="M456.036,182.412a.235.235,0,0,1-.147-.419l1.43-1.14a.235.235,0,1,1,.293.368l-1.43,1.14a.233.233,0,0,1-.146.051" transform="translate(-384.347 -152.459)"/>
        <g id="グループ_6380" data-name="グループ 6380" transform="translate(65.34 32.781)" opacity="0.25">
          <g id="グループ_6379" data-name="グループ 6379">
            <g id="グループ_6378" data-name="グループ 6378" clip-path="url(#clip-path-3)">
              <path id="パス_32668" data-name="パス 32668" d="M428.481,215.641,419.2,213.9a3.022,3.022,0,0,1-2.41-2.826,1.928,1.928,0,0,1,2.41-1.921l9.276,1.742a3.022,3.022,0,0,1,2.41,2.826,1.928,1.928,0,0,1-2.41,1.921" transform="translate(-416.795 -209.108)" fill="#e6d0be"/>
            </g>
          </g>
        </g>
        <path id="パス_32669" data-name="パス 32669" d="M428.481,215.641,419.2,213.9a3.022,3.022,0,0,1-2.41-2.826,1.928,1.928,0,0,1,2.41-1.921l9.276,1.742a3.022,3.022,0,0,1,2.41,2.826,1.928,1.928,0,0,1-2.41,1.921" transform="translate(-351.455 -176.327)" fill="#fff"/>
        <path id="パス_32670" data-name="パス 32670" d="M427.676,214.653a2.727,2.727,0,0,1-.5-.048l-9.276-1.742a3.27,3.27,0,0,1-2.6-3.057,2.164,2.164,0,0,1,.763-1.7,2.294,2.294,0,0,1,1.925-.448l9.276,1.742a3.271,3.271,0,0,1,2.6,3.058,2.163,2.163,0,0,1-.763,1.7,2.2,2.2,0,0,1-1.422.5m-10.192-6.577a1.734,1.734,0,0,0-1.125.387,1.7,1.7,0,0,0-.593,1.342,2.781,2.781,0,0,0,2.218,2.6l9.276,1.742a1.83,1.83,0,0,0,1.538-.347,1.7,1.7,0,0,0,.593-1.342,2.781,2.781,0,0,0-2.218-2.6l-9.276-1.742a2.232,2.232,0,0,0-.413-.04" transform="translate(-350.191 -175.06)" fill="#5479f7"/>
        <path id="パス_32671" data-name="パス 32671" d="M435.51,228.892a.242.242,0,0,1-.044,0l-7.277-1.367a.235.235,0,1,1,.087-.462l7.277,1.367a.235.235,0,0,1-.043.466" transform="translate(-360.902 -191.46)" fill="#5479f7"/>
        <path id="パス_32672" data-name="パス 32672" d="M485.065,231.693a.235.235,0,0,1-.179-.082l-1.43-1.677a.235.235,0,0,1,.358-.305l1.43,1.677a.235.235,0,0,1-.179.388" transform="translate(-407.619 -193.561)"/>
        <path id="パス_32673" data-name="パス 32673" d="M483.635,232.869a.235.235,0,0,1-.147-.419l1.43-1.14a.235.235,0,0,1,.293.368l-1.43,1.14a.234.234,0,0,1-.146.051" transform="translate(-407.619 -195.005)"/>
        <path id="パス_32674" data-name="パス 32674" d="M624.648,208.824l-6.5-1.221a3.022,3.022,0,0,1-2.41-2.826,1.928,1.928,0,0,1,2.41-1.921l6.5,1.221a3.022,3.022,0,0,1,2.41,2.826,1.928,1.928,0,0,1-2.41,1.921" transform="translate(-519.211 -171.018)" fill="#fff"/>
        <path id="パス_32675" data-name="パス 32675" d="M623.843,207.836a2.726,2.726,0,0,1-.5-.048l-6.5-1.221a3.271,3.271,0,0,1-2.6-3.058,2.164,2.164,0,0,1,.763-1.7,2.294,2.294,0,0,1,1.925-.448l6.5,1.221a3.27,3.27,0,0,1,2.6,3.057,2.164,2.164,0,0,1-.763,1.7,2.2,2.2,0,0,1-1.423.5m-.416-.51a1.831,1.831,0,0,0,1.538-.347,1.7,1.7,0,0,0,.593-1.342,2.781,2.781,0,0,0-2.218-2.6l-6.5-1.221a1.83,1.83,0,0,0-1.538.347,1.7,1.7,0,0,0-.593,1.342,2.781,2.781,0,0,0,2.218,2.6Z" transform="translate(-517.947 -169.751)" fill="#5479f7"/>
        <path id="パス_32676" data-name="パス 32676" d="M631.7,221.541a.242.242,0,0,1-.044,0l-4.55-.855a.235.235,0,0,1,.087-.462l4.55.855a.235.235,0,0,1-.043.466" transform="translate(-528.631 -185.694)" fill="#5479f7"/>
        <path id="パス_32677" data-name="パス 32677" d="M666.79,220.56a.235.235,0,0,1-.179-.082l-1.43-1.677a.235.235,0,0,1,.358-.305l1.43,1.677a.235.235,0,0,1-.179.388" transform="translate(-560.855 -184.173)"/>
        <path id="パス_32678" data-name="パス 32678" d="M665.359,221.735a.235.235,0,0,1-.147-.419l1.43-1.14a.235.235,0,1,1,.293.368l-1.43,1.14a.234.234,0,0,1-.146.051" transform="translate(-560.855 -185.617)"/>
        <path id="パス_32679" data-name="パス 32679" d="M203.245,366.576a6.3,6.3,0,0,0,2.221-.76l7.456-4.283a1.305,1.305,0,1,0-1.25-2.291c-.471.221-3.061,1.8-3.393,1.889a.639.639,0,0,1-.865-.716c.019-.279.027-.534.029-.753a1.485,1.485,0,0,1,.762-1.272c.939-.531,3.8-1.93,4.174-2.238.557-.457,1.41-1.03,1.545-1.764l.033-.191a1.014,1.014,0,0,0-1.345-1.122l-7.129,2.559a4.237,4.237,0,0,0-2.2,1.767l-2.626,4.247a2.954,2.954,0,0,1-2.809,1.381l-9.706,2.25c-2.885-.308-3.083,5.035-3.083,5.035a2.876,2.876,0,0,0,3.148,2.551Z" transform="translate(-156.046 -297.673)" fill="#fff"/>
        <path id="パス_32680" data-name="パス 32680" d="M186.644,371.85a3.129,3.129,0,0,1-1.963-.705,3.033,3.033,0,0,1-1.123-2.075.229.229,0,0,1,0-.031c.005-.139.143-3.423,1.66-4.736a2.126,2.126,0,0,1,1.643-.528l9.668-2.242a.244.244,0,0,1,.077,0,2.734,2.734,0,0,0,2.586-1.27l2.627-4.247a4.484,4.484,0,0,1,2.324-1.865l7.127-2.559a1.252,1.252,0,0,1,1.236.225,1.228,1.228,0,0,1,.42,1.158l-.033.191a3.283,3.283,0,0,1-1.384,1.71c-.085.067-.167.132-.244.2a26.216,26.216,0,0,1-2.49,1.358c-.7.358-1.353.7-1.717.9a1.254,1.254,0,0,0-.643,1.07c0,.253-.013.511-.03.766a.409.409,0,0,0,.571.473c.173-.048,1.253-.677,1.968-1.092.633-.369,1.181-.687,1.385-.782a1.54,1.54,0,0,1,2.214,1.756,1.542,1.542,0,0,1-.75.954l-7.452,4.282a6.544,6.544,0,0,1-2.273.784l-15.016,6.278a.232.232,0,0,1-.065.017,2.94,2.94,0,0,1-.322.018m.3-.251h0Zm-2.912-2.557a2.566,2.566,0,0,0,.95,1.739,2.645,2.645,0,0,0,1.9.588l15.009-6.275a.224.224,0,0,1,.052-.015,6.058,6.058,0,0,0,2.147-.734l7.452-4.281a1.079,1.079,0,0,0,.527-.667,1.07,1.07,0,0,0-1.56-1.207c-.186.087-.75.415-1.348.763a18.775,18.775,0,0,1-2.085,1.141.871.871,0,0,1-1.159-.959c.016-.246.026-.5.029-.74a1.725,1.725,0,0,1,.881-1.474c.372-.211,1.034-.551,1.734-.912.979-.5,2.2-1.132,2.407-1.3.079-.064.163-.131.251-.2.5-.392,1.112-.88,1.212-1.424l.033-.189a.762.762,0,0,0-.261-.719.786.786,0,0,0-.775-.141l-7.127,2.559a4.013,4.013,0,0,0-2.081,1.669l-2.627,4.247A3.205,3.205,0,0,1,196.6,362l-9.669,2.242a.222.222,0,0,1-.078,0,1.655,1.655,0,0,0-1.326.412c-1.315,1.139-1.486,4.143-1.5,4.383" transform="translate(-154.781 -296.408)"/>
        <path id="パス_32681" data-name="パス 32681" d="M348.161,478.535c-.249,5.367-.932,18.413-1.532,18.3-.77-.146-14.514-9.554-14.514-9.554l-5.657,16.553s20.211,11.563,26.459,5.971c4.48-4.009,2.862-26.359,2.633-30.531Z" transform="translate(-275.28 -403.517)" fill="#fff"/>
        <path id="パス_32682" data-name="パス 32682" d="M346.659,510.31A31.921,31.921,0,0,1,336,507.869a85.942,85.942,0,0,1-10.921-5.1.235.235,0,0,1-.106-.28l5.657-16.553a.235.235,0,0,1,.355-.118c5.222,3.574,13.091,8.873,14.307,9.467.375-1.038.906-7.991,1.371-18.029a.235.235,0,1,1,.47.022c-.088,1.89-.323,6.739-.615,10.941-.5,7.151-.8,7.391-.964,7.519a.282.282,0,0,1-.231.059c-.753-.143-11.557-7.508-14.347-9.417l-5.494,16.075c1.959,1.091,20.263,11.054,26.017,5.905,2.743-2.455,3.62-12.358,2.608-29.434-.021-.36-.04-.666-.053-.909a.235.235,0,1,1,.47-.026c.013.243.031.548.053.907.166,2.806.556,9.377.369,15.6-.235,7.784-1.288,12.567-3.132,14.217a7.488,7.488,0,0,1-5.15,1.6" transform="translate(-274.016 -402.25)"/>
        <path id="パス_32683" data-name="パス 32683" d="M447.635,388.809c2.442-3.983,2.374-9.129,1.961-11.781-.3-1.94-4.726-5.709-5.446-5.861-.7-.147-1.6.822-1.219,1.513.162.291.548.351.884.69.163.164-.066.848-.132,1.512-.194,1.94-.468,3.94-.718,3.1a26.14,26.14,0,0,1-.508-3.049c-.128-1.008-1.809-2.2-2.308-2.227a1.286,1.286,0,0,0-.594.094.951.951,0,0,0-.429,1.316,13.6,13.6,0,0,0,1.156,1.286.8.8,0,0,1,.063.3l.132,6.748a5.8,5.8,0,0,1-2.3-2.729,1.972,1.972,0,0,0-2.528-1.339s1.878,4.554,2.721,7.1,1.841,2.674,1.841,2.674Z" transform="translate(-367.353 -312.968)" fill="#fff"/>
        <path id="パス_32684" data-name="パス 32684" d="M446.371,387.774a.232.232,0,0,1-.123-.035.235.235,0,0,1-.078-.323c2.837-4.627,2.105-10.493,1.929-11.621-.286-1.838-4.6-5.528-5.262-5.666a.939.939,0,0,0-.843.433.687.687,0,0,0-.122.735.857.857,0,0,0,.33.262,2.347,2.347,0,0,1,.516.377c.193.194.131.531.037,1.041-.038.206-.08.438-.1.66-.347,3.464-.559,3.485-.8,3.508s-.345-.267-.374-.363a24.313,24.313,0,0,1-.516-3.086c-.114-.9-1.718-2-2.087-2.022a1.052,1.052,0,0,0-.486.073.727.727,0,0,0-.382.457.628.628,0,0,0,.055.517,12.751,12.751,0,0,0,1.124,1.246.234.234,0,0,1,.05.074,1.028,1.028,0,0,1,.082.384l.132,6.749a.235.235,0,0,1-.343.214,6,6,0,0,1-2.407-2.842c-.606-1.36-1.56-1.362-2-1.28.4.982,1.9,4.684,2.626,6.871.769,2.322,1.646,2.514,1.655,2.516a.239.239,0,0,1,.192.269.232.232,0,0,1-.259.2c-.117-.015-1.17-.222-2.034-2.834-.831-2.509-2.7-7.039-2.715-7.084a.235.235,0,0,1,.129-.308,2.214,2.214,0,0,1,2.831,1.461,6.052,6.052,0,0,0,1.842,2.382l-.124-6.3a.556.556,0,0,0-.03-.17,12.618,12.618,0,0,1-1.153-1.29,1.1,1.1,0,0,1-.109-.9,1.2,1.2,0,0,1,.639-.752,1.492,1.492,0,0,1,.7-.114,3.9,3.9,0,0,1,2.53,2.432c.15,1.181.288,2.074.405,2.626.087-.42.207-1.2.354-2.672.024-.241.069-.484.108-.7a2.778,2.778,0,0,0,.077-.64,2.006,2.006,0,0,0-.405-.288,1.226,1.226,0,0,1-.5-.439,1.14,1.14,0,0,1,.154-1.243,1.392,1.392,0,0,1,1.319-.614c.883.185,5.319,4.053,5.63,6.054.18,1.157.929,7.173-1.993,11.94a.235.235,0,0,1-.2.112" transform="translate(-366.089 -311.699)"/>
        <path id="パス_32685" data-name="パス 32685" d="M494.667,380.582l-.029,0a.235.235,0,0,1-.2-.262c.172-1.379.356-3.307.374-3.5l-.082-2.3a.71.71,0,0,0-.256-.521l-.887-.735a.235.235,0,1,1,.3-.362l.887.735a1.181,1.181,0,0,1,.427.866l.083,2.317a.25.25,0,0,1,0,.031c0,.02-.2,2.075-.377,3.527a.235.235,0,0,1-.233.206" transform="translate(-416.133 -314.396)"/>
        <path id="パス_32686" data-name="パス 32686" d="M507.8,391.807l-.027,0a.235.235,0,0,1-.207-.26,28.786,28.786,0,0,0,.19-3.3l0-.23a13.127,13.127,0,0,0-.054-1.931,2.677,2.677,0,0,0-1.022-1.517.235.235,0,0,1,.273-.383,3.126,3.126,0,0,1,1.215,1.835,13.419,13.419,0,0,1,.058,2l0,.229a29.216,29.216,0,0,1-.193,3.347.235.235,0,0,1-.233.209" transform="translate(-427.169 -323.919)"/>
        <path id="パス_32687" data-name="パス 32687" d="M61.856,446.194c-1.337.7-5.808-2.593-7.332-1.805-1.107.573-1.395,10.985-1.162,19.164-15-4.7-34.3-14.071-44.083-35.274a61.826,61.826,0,0,1-5.027-17.142c2.7-3.317,7.723-6.5,11.257-6.97,3.411-.446,7.225-1.256,10.676-.825,6.417.8,19.529,5.285,22.471,6.622s14.723,13.306,16.06,14.508.066,20.192-2.86,21.722" transform="translate(-3.586 -340.008)"/>
        <path id="パス_32688" data-name="パス 32688" d="M133.576,265.09l-1.539,1.359a.491.491,0,0,0-.168.362c0,.864-.032,4.057-.137,4.651a2.369,2.369,0,0,1-.959,1.447,7.832,7.832,0,0,1-2.84.22s-.8-.388-2.177,3.044c-1.085,2.7-1.426,3.046-.583,4.074.256.313-1.327,2.5-6.268,2.332-7.5-.253-10.151-3.831-9.636-4.339a20.46,20.46,0,0,0,5.519-11.931c.011-.778,2.774-5.1,5.309-6.381,1.727-.875,3.823.391,5.229-.932l4.3-4.99a16.065,16.065,0,0,1,1.815,3.787,6.883,6.883,0,0,1,.3,1.622c0,.074.011.165.023.275a10.2,10.2,0,0,0,1.89,4.7.518.518,0,0,1-.082.694" transform="translate(-92.088 -214.187)" fill="#fff"/>
        <path id="パス_32689" data-name="パス 32689" d="M118.154,281.559c-.169,0-.342,0-.519-.009-6.332-.214-9.371-2.822-9.851-4.052-.155-.4-.03-.6.058-.689a20.289,20.289,0,0,0,5.449-11.767c.013-.939,2.915-5.309,5.437-6.588a4.972,4.972,0,0,1,2.6-.335,3.259,3.259,0,0,0,2.567-.55l4.293-4.981a.235.235,0,0,1,.373.022,16.109,16.109,0,0,1,1.845,3.851,7.1,7.1,0,0,1,.312,1.678c0,.069.01.156.022.26a9.955,9.955,0,0,0,1.848,4.595A.754.754,0,0,1,132.47,264l-1.538,1.358a.257.257,0,0,0-.089.188c0,.409-.022,4.023-.14,4.69a2.6,2.6,0,0,1-1.079,1.614,7.619,7.619,0,0,1-2.97.247.239.239,0,0,1-.058-.012c-.051,0-.744.081-1.882,2.91-.145.362-.278.681-.4.966-.75,1.812-.865,2.09-.224,2.871.062.076.144.248-.006.551-.444.9-2.381,2.174-5.933,2.174m-9.972-4.424a.937.937,0,0,0,.225.526c.814,1.181,3.676,3.231,9.244,3.419,3.707.125,5.289-1.107,5.685-1.487a1.253,1.253,0,0,0,.362-.5c-.783-.974-.572-1.483.184-3.311.117-.283.249-.6.394-.962.746-1.852,1.441-2.914,2.068-3.155a.6.6,0,0,1,.374-.034,7.2,7.2,0,0,0,2.683-.2,2.134,2.134,0,0,0,.838-1.281c.091-.512.127-3.24.133-4.611a.728.728,0,0,1,.248-.538l1.539-1.358h0a.282.282,0,0,0,.046-.381,10.442,10.442,0,0,1-1.933-4.817c-.013-.113-.02-.209-.024-.286a6.644,6.644,0,0,0-.293-1.568,15.576,15.576,0,0,0-1.618-3.463l-4.1,4.751-.017.018a3.642,3.642,0,0,1-2.922.685,4.619,4.619,0,0,0-2.362.285c-2.5,1.267-5.171,5.57-5.18,6.175a20.854,20.854,0,0,1-5.58,12.086m18.39-5.058h0m0,0h0m0,0h0m0,0h0m0,0h0" transform="translate(-90.826 -212.922)"/>
        <path id="パス_32690" data-name="パス 32690" d="M204.448,347.558a8.931,8.931,0,0,0,.267,2.808c.356.713,2.005,1.07,2.005,1.07Z" transform="translate(-172.389 -293.073)" fill="#fff"/>
        <path id="パス_32691" data-name="パス 32691" d="M205.447,350.405a.235.235,0,0,1-.05-.005c-.18-.039-1.77-.4-2.166-1.194a8.651,8.651,0,0,1-.292-2.923.235.235,0,0,1,.47.02,8.312,8.312,0,0,0,.243,2.693c.25.5,1.416.852,1.845.945a.235.235,0,0,1-.05.465" transform="translate(-171.116 -291.807)"/>
        <path id="パス_32692" data-name="パス 32692" d="M185.615,298.427a3.273,3.273,0,0,1-3.156-2.247,2.266,2.266,0,0,1,.414-2.785,2.443,2.443,0,0,1,2.923.163,5.054,5.054,0,0,1,.863,1.069.235.235,0,0,1-.4.25,4.671,4.671,0,0,0-.744-.941,2,2,0,0,0-2.354-.169c-.572.444-.669,1.259-.268,2.235a2.843,2.843,0,0,0,3.437,1.875.235.235,0,0,1,.133.451,3.372,3.372,0,0,1-.849.1" transform="translate(-153.623 -247.053)"/>
        <path id="パス_32693" data-name="パス 32693" d="M117.418,211.114c-.068.075-.142.152-.222.231-.9.894-2.582,2.084-6.636,2.98-.155.034-.313.068-.476.1a.191.191,0,0,1-.064-.018c-.075-.025-.212-.078-.387-.137h0a3.124,3.124,0,0,0-2.258-.1.007.007,0,0,0-.006,0,1.3,1.3,0,0,0-.6.684,2.264,2.264,0,0,0,.029,1.71l.368.9s-1.684,5.444-2.7,5.793a9.6,9.6,0,0,1-4.453.415.351.351,0,0,1-.192.011l-.413-.094a11.962,11.962,0,0,1-7.061-9.931c-.389-4.869,3.009-4.345,3.043-4.536.546-3.055,3.261-8.2,8.721-7.185,1.993.372,1.843-2.206,2.008-2.357,1.913-1.744,2.221.511,4.409.306,3.649-.34,7.109.254,8.11,1.961,1.74,2.969,1.895,5.88-1.216,9.258" transform="translate(-77.841 -167.738)"/>
        <path id="パス_32694" data-name="パス 32694" d="M569.307,623l-1.661-.654-1.095,1.612a7.4,7.4,0,0,0-1.235-.143l-.706-1.815-1.765.264-.142,1.944a7.478,7.478,0,0,0-1.138.5l-1.52-1.221-1.4,1.111.848,1.753a7.379,7.379,0,0,0-.737,1l-1.926-.3-.653,1.66,1.613,1.1a7.386,7.386,0,0,0-.142,1.235l-1.814.7.265,1.765,1.944.143a7.5,7.5,0,0,0,.5,1.139l-1.22,1.52,1.112,1.4,1.752-.847a7.384,7.384,0,0,0,1,.738l-.3,1.926,1.661.654,1.095-1.612a7.371,7.371,0,0,0,1.235.143l.706,1.815,1.765-.264.142-1.944a7.483,7.483,0,0,0,1.138-.5l1.52,1.221,1.4-1.111-.848-1.753a7.383,7.383,0,0,0,.737-1l1.926.3.653-1.66-1.612-1.1a7.394,7.394,0,0,0,.142-1.235l1.814-.7-.265-1.765-1.944-.143a7.515,7.515,0,0,0-.5-1.139l1.22-1.52-1.112-1.4-1.752.847a7.4,7.4,0,0,0-1-.738Zm.068,9.945a4.595,4.595,0,1,1-2.595-5.957,4.591,4.591,0,0,1,2.595,5.957" transform="translate(-468.701 -524.495)" fill="#fff"/>
        <path id="パス_32695" data-name="パス 32695" d="M559.32,513.2l-.916-.361-.6.89a4.068,4.068,0,0,0-.681-.079l-.389-1-.974.146-.078,1.073a4.136,4.136,0,0,0-.628.273l-.839-.674-.77.613.468.967a4.071,4.071,0,0,0-.407.552l-1.063-.164-.36.916.89.6a4.065,4.065,0,0,0-.078.681l-1,.389.146.974,1.073.079a4.128,4.128,0,0,0,.274.628l-.673.839.613.771.967-.467a4.083,4.083,0,0,0,.552.407l-.164,1.063.916.361.6-.889a4.058,4.058,0,0,0,.682.079l.389,1,.974-.146.078-1.073a4.127,4.127,0,0,0,.628-.273l.839.674.77-.613-.468-.967a4.079,4.079,0,0,0,.407-.552l1.063.164.36-.916-.89-.6a4.082,4.082,0,0,0,.078-.681l1-.389-.146-.974-1.073-.079a4.149,4.149,0,0,0-.274-.628l.673-.839-.614-.771-.967.467a4.074,4.074,0,0,0-.552-.407Zm.038,5.488a2.535,2.535,0,1,1-1.432-3.287,2.533,2.533,0,0,1,1.432,3.287" transform="translate(-465.371 -432.279)" fill="#fff"/>
        <path id="パス_32696" data-name="パス 32696" d="M120.516,54.128a.235.235,0,0,1-.178-.388,56.658,56.658,0,0,1,27.479-17.2.235.235,0,1,1,.127.453,56.184,56.184,0,0,0-27.249,17.056.235.235,0,0,1-.179.082" transform="translate(-101.425 -30.802)"/>
        <path id="パス_32697" data-name="パス 32697" d="M100.012,119.165a1.3,1.3,0,0,1-.928-.374,1.28,1.28,0,0,1-.071-1.841,1.37,1.37,0,0,1,1.911-.035,1.275,1.275,0,0,1,.434.918,1.259,1.259,0,0,1-.369.932,1.378,1.378,0,0,1-.971.4h-.005m-.036-2.149a.878.878,0,0,0-.629.264.82.82,0,0,0,.069,1.177.835.835,0,0,0,.6.237h0a.9.9,0,0,0,.638-.261.794.794,0,0,0,.234-.587.81.81,0,0,0-.277-.582h0a.951.951,0,0,0-.634-.249" transform="translate(-83.19 -98.273)"/>
        <path id="パス_32698" data-name="パス 32698" d="M116.592,93.89a.235.235,0,0,1-.23-.186l-.649-3.032a.235.235,0,0,1,.305-.272l3.075,1.036a.235.235,0,0,1,.077.4c-.014.012-1.465,1.24-2.432,2a.236.236,0,0,1-.145.05m-.332-2.912.483,2.257c.638-.512,1.388-1.137,1.8-1.487Z" transform="translate(-97.569 -76.219)"/>
        <path id="パス_32699" data-name="パス 32699" d="M424.306,772.318a82.456,82.456,0,0,1-23.757-3.583.235.235,0,1,1,.135-.45,78.433,78.433,0,0,0,34.477,2.75,50.377,50.377,0,0,0,13.171-3.655.235.235,0,0,1,.208.422,50.8,50.8,0,0,1-13.285,3.695,71.6,71.6,0,0,1-10.949.822" transform="translate(-337.615 -647.059)"/>
        <path id="パス_32700" data-name="パス 32700" d="M514.428,766.816a50.643,50.643,0,0,1-6.41-.4.235.235,0,0,1,.06-.467,56.576,56.576,0,0,0,18.448-.877.235.235,0,1,1,.094.461,61.058,61.058,0,0,1-12.191,1.282" transform="translate(-428.205 -645.132)"/>
        <path id="パス_32701" data-name="パス 32701" d="M751.391,732.739a1.7,1.7,0,1,1,.489-.072,1.709,1.709,0,0,1-.489.072m0-2.922a1.226,1.226,0,1,0,.579.147,1.229,1.229,0,0,0-.579-.147" transform="translate(-632.171 -615.009)"/>
        <path id="パス_32702" data-name="パス 32702" d="M703.73,405.308a59.09,59.09,0,0,1-2.828-33.389s10.279,8.615,6.573,33.389Z" transform="translate(-590.031 -313.615)" fill="#fff"/>
        <path id="パス_32703" data-name="パス 32703" d="M706.251,404.278h-3.745a.235.235,0,0,1-.214-.138,48.389,48.389,0,0,1-2.857-9.678,61.583,61.583,0,0,1,.013-23.855.235.235,0,0,1,.382-.134c.107.09,2.639,2.252,4.743,7.5,1.933,4.817,3.833,13.257,1.911,26.107a.235.235,0,0,1-.232.2m-3.592-.47h3.389c1.853-12.609-.005-20.89-1.9-25.625a21.3,21.3,0,0,0-4.325-7.064,61.154,61.154,0,0,0,.067,23.237,49.431,49.431,0,0,0,2.767,9.452" transform="translate(-588.807 -312.35)" fill="#5479f7"/>
        <path id="パス_32704" data-name="パス 32704" d="M714.295,416.128h-.013a.235.235,0,0,1-.222-.248c.507-9.29-3.682-29.127-3.724-29.326a.235.235,0,1,1,.46-.1c.042.2,4.245,20.1,3.734,29.449a.235.235,0,0,1-.235.222" transform="translate(-598.974 -325.715)" fill="#5479f7"/>
        <path id="パス_32705" data-name="パス 32705" d="M740.669,434.112s-8.545,15.441-3.4,22.123h2.749s5.495-12.07.655-22.123" transform="translate(-620.298 -366.058)" fill="#caddff"/>
        <path id="パス_32706" data-name="パス 32706" d="M738.691,455.2h-2.749a.235.235,0,0,1-.186-.092c-2.181-2.836-2.27-7.473-.263-13.782a53.8,53.8,0,0,1,3.648-8.6.23.23,0,0,1,.212-.121.235.235,0,0,1,.205.133c2.527,5.25,2.214,11.041,1.507,14.975a34.426,34.426,0,0,1-2.16,7.347.235.235,0,0,1-.214.138m-2.632-.47h2.478c.571-1.343,4.921-12.184.8-21.36-1.29,2.48-7.662,15.436-3.274,21.36" transform="translate(-618.975 -364.792)" fill="#5479f7"/>
        <path id="パス_32707" data-name="パス 32707" d="M752.941,455.615a.235.235,0,0,1-.235-.226c-.247-6.378,2.1-22.414,2.123-22.575a.235.235,0,1,1,.465.069c-.024.161-2.365,16.154-2.119,22.488a.235.235,0,0,1-.226.244h-.009" transform="translate(-634.692 -364.793)" fill="#5479f7"/>
        <path id="パス_32708" data-name="パス 32708" d="M663.77,470.831s7.279,2.484,9.915,17.19h-2.863s-5.975-8.076-7.052-17.19" transform="translate(-559.713 -397.02)" fill="#caddff"/>
        <path id="パス_32709" data-name="パス 32709" d="M672.419,486.992h-2.863a.236.236,0,0,1-.189-.1c-.06-.081-6.024-8.232-7.1-17.3a.235.235,0,0,1,.309-.25,10.714,10.714,0,0,1,4.07,3.148c1.98,2.266,4.629,6.573,6,14.223a.235.235,0,0,1-.232.277m-2.743-.47h2.461c-1.36-7.345-3.906-11.494-5.813-13.688a11.757,11.757,0,0,0-3.534-2.885c1.113,8.254,6.231,15.653,6.887,16.573" transform="translate(-558.448 -395.756)" fill="#5479f7"/>
        <path id="パス_32710" data-name="パス 32710" d="M684.287,505.32a.235.235,0,0,1-.232-.2c-1.081-6.537-5.764-13.127-5.812-13.192a.235.235,0,1,1,.382-.274c.048.066,4.794,6.743,5.893,13.39a.235.235,0,0,1-.194.27.23.23,0,0,1-.039,0" transform="translate(-571.88 -414.499)" fill="#5479f7"/>
        <path id="パス_32711" data-name="パス 32711" d="M681.643,573.038H699.6l.4,8.5a3.652,3.652,0,0,1-3.648,3.826H686.1a4.464,4.464,0,0,1-4.464-4.469Z" transform="translate(-574.778 -483.205)" fill="#5479f7"/>
      </g>
    </g>
  </g>
</svg>
