<svg id="グループ_5915" data-name="グループ 5915" xmlns="http://www.w3.org/2000/svg" xmlns:xlink="http://www.w3.org/1999/xlink" width="85.032" height="144" viewBox="0 0 85.032 144">
  <defs>
    <clipPath id="clip-path">
      <rect id="長方形_10379" data-name="長方形 10379" width="85.032" height="144" fill="none"/>
    </clipPath>
  </defs>
  <g id="グループ_5914" data-name="グループ 5914" clip-path="url(#clip-path)">
    <path id="パス_29233" data-name="パス 29233" d="M169.146,292.586a4.625,4.625,0,0,0-3.011-1.106c-.518-.065-1.037-.121-1.556-.178a1.088,1.088,0,0,0,0-.355c0-.023-.009-.051-.014-.082a3.409,3.409,0,0,0,1.7-1.832l.362-.09a1.006,1.006,0,0,0,.053-1.911,6.976,6.976,0,0,0-.091-1.4,1.2,1.2,0,0,0-.173-.783,8.259,8.259,0,0,0-1.142-2.449,1.051,1.051,0,0,0-1.142-.465,2.5,2.5,0,0,0-.272.083l1.344-2.288a1,1,0,0,0-1.332-1.379l.051-.075c.647-.95-.808-2.058-1.587-1.224l-.444.475c.365-.417.735-.83,1.1-1.248a1.036,1.036,0,0,0-.206-1.556c.358-.433.722-.86,1.077-1.3A1.009,1.009,0,0,0,162.431,272l-.3.267a1.029,1.029,0,0,0-1.325-1,.822.822,0,0,0-1.156.178l-8.376,9.985a1.024,1.024,0,0,0-.149,1.129c-.331.45-.665.9-.993,1.35-.6.827.566,1.907,1.382,1.382.031-.02.06-.042.091-.062a1.081,1.081,0,0,0,.288.3q-1.515,1.605-3.053,3.19c-.444-.213-.885-.435-1.32-.672a.989.989,0,0,0-.96-1.091l-1.244-.044a1.008,1.008,0,0,0-.5,1.864,30.3,30.3,0,0,0,4.217,2.235c-1.626.063-3.252.172-4.876.338a1,1,0,0,0-.319,1.939.989.989,0,0,0,.675.267q2.017.063,4.031.16,2.911.236,5.822.466c1.213.171,2.426.351,3.641.516a51.737,51.737,0,0,0,5.91.528c1.748.034,3.569.031,5.026-1.057a1.025,1.025,0,0,0,.2-1.584" transform="translate(-95.36 -180.55)" fill="#f9ebdb"/>
    <path id="パス_29234" data-name="パス 29234" d="M107.781,156.229c.555-4.516.523-9.008-1.281-13.423-.359-.88-1.856-.965-1.98.017-.138-.862-.282-1.724-.438-2.584a.991.991,0,0,0-1.465-.6c-.356-2.148-.687-4.3-1.014-6.453-.169-1.113-2.117-.864-1.983.268l.32,2.723q-.456-2.675-.882-5.353c-.156-.985-1.705-.9-1.955-.081q-.291-2.4-.582-4.8c-.152-1.253-2.077-1.33-2.02,0q.221,5.054.935,10.052c-.874-4.974-1.511-10-2.1-15.015a1.064,1.064,0,0,0-.857-.927l-.37-3.964a1.044,1.044,0,0,0-1.794-.645c0-.032-.006-.065-.009-.1a1.006,1.006,0,0,0-.615-.865,17.13,17.13,0,0,0-.652-1.659c-.358-.779-1.263-.569-1.672-.012-.621-.262-1.475.029-1.4.854a.831.831,0,0,0-1.122.682c-2.034,12.392.769,25.005,3.618,37.045a289.941,289.941,0,0,0,11.147,36.315,1.078,1.078,0,0,0,.752.661,1.01,1.01,0,0,0,1.956-.326q0-1.274,0-2.548a1.12,1.12,0,0,0,0-.222c0-.323,0-.646,0-.969a.887.887,0,0,0,.459-.841,22.745,22.745,0,0,0-.315-3c.623.212,1.486-.14,1.395-.922-.02-.171-.04-.342-.06-.513a1.046,1.046,0,0,0,.582-.914l-.041-1.811a.864.864,0,0,0,.419-.826q-.022-.44-.044-.88a.95.95,0,0,0,.541-.859,42.759,42.759,0,0,1,.438-5.028.991.991,0,0,0,.073-.272c.024-.216.043-.431.062-.647.34-2.207.779-4.419,1.182-6.629a.927.927,0,0,0,1.155-.962q-.188-1.984-.375-3.967M98.72,178.977c.037.221.074.443.115.663q-.118-.338-.235-.676a1.2,1.2,0,0,0,.12.013" transform="translate(-56.04 -74.797)" fill="#f9ebdb"/>
    <path id="パス_29235" data-name="パス 29235" d="M53.507,79.99c-1.771-1.575-8.624,3.736-10.177,4.741.2-1.509.316-3.036.467-4.548.413-4.123,1-12.891,1.027-12.954.648-1.35-1.367-2.538-2.019-1.18-.248.516-8.7,23.071-7.3,28.078a3.663,3.663,0,0,0,4.967,2.68c2.426-.707,4.791-2.634,6.84-4.073a30.217,30.217,0,0,0,6.3-5.632c1.328-1.651,1.895-5.33-.107-7.111" transform="translate(-23.542 -43.588)" fill="#f5bc8e"/>
    <path id="パス_29236" data-name="パス 29236" d="M213.438,349.057c-.832,5.52-1.463,11.382-2.19,16.919a1.065,1.065,0,0,1,0,.317q-.064.393-.13.785c-.154.929-3.184,1.789-3.227.983-.426-7.932-.228-16.7-.783-23.721-.454-5.742,7.171-.849,6.332,4.716" transform="translate(-137.914 -227.61)" fill="#f5bc8e"/>
    <path id="パス_29237" data-name="パス 29237" d="M202.871,417.359c0-.33.008-.559-.314-.579a8.29,8.29,0,0,0-3.111.21c-1.078.352-1.881.73-3.03,1.114-.851.284-2.114.787-2.438,1.714a1.232,1.232,0,0,0,.325,1.326c.621.631,2.055.312,2.8.274,1.333-.069,2.714-.041,4.037-.22,2.3-.31,1.734-2.131,1.73-3.838" transform="translate(-129.134 -277.532)" fill="#2d304d"/>
    <path id="パス_29238" data-name="パス 29238" d="M116.761,351.324c-2.583,4.95-5.086,10.287-7.574,15.286a1.073,1.073,0,0,1-.1.3q-.188.35-.378.7c-.448.829-3.592.656-3.371-.12,2.177-7.64,5.216-15.866,6.975-22.685,1.439-5.577,7.057,1.53,4.454,6.519" transform="translate(-70.141 -228.274)" fill="#f5bc8e"/>
    <path id="パス_29239" data-name="パス 29239" d="M99.7,413.84c0-.33.008-.559-.314-.579a8.29,8.29,0,0,0-3.111.21c-1.078.352-1.881.731-3.03,1.114-.851.284-2.114.787-2.438,1.714a1.232,1.232,0,0,0,.325,1.326c.621.631,2.055.312,2.8.274,1.333-.069,2.714-.041,4.037-.22,2.3-.31,1.734-2.131,1.73-3.838" transform="translate(-60.428 -275.188)" fill="#2d304d"/>
    <path id="パス_29240" data-name="パス 29240" d="M151.611,181.751c-1.019-4.817-3.284-9.924-7.6-12.624-.945-.591-1.871.381-1.718,1.32.025.151.045.3.07.453a1.147,1.147,0,0,0-1.146.286q-3.369,3.414-7.032,6.5a.969.969,0,0,0-.88.177l-5.942,4.346a1.152,1.152,0,0,0-1.285-.149c-.58-.649-1.791-.681-1.962.387a274.113,274.113,0,0,1-7.507,32.258c-1.512,5.264-2.584,11.393-4.177,16.633-1.544,5.079-3.312,12.027-3.855,14.908-.093.494,4.661,1.975,5.136,2.041.769.107,21.022-40.946,24.384-49.349.188,5.385,2.248,48.457,3.117,48.935,1.112.611,5.339.508,5.388-.06l4.2-34.714c.468-5.523,1-11.044,1.384-16.573a53.351,53.351,0,0,0-.579-14.771" transform="translate(-72.311 -112.513)" fill="#b8b8b8"/>
    <path id="パス_29241" data-name="パス 29241" d="M123.632,109.695c-2.266-4.164-9.065-16.781-11.848-19.084a18.686,18.686,0,0,0-8.45-3.869c-1.886-.314-7.238-1.188-7.453-.96-.37.164-2.49.421-3.218.983l-.159.126c.235-.737-3.8-.752-4.831-.627-3.76.454-10.866,3.458-14.318,7.076-1.468,1.54,2.9,10.5,2.839,11.357-.1,1.544,4.159-2.414,5.7-2.542.014,1.458,9.6,17.484,14.365,25.506a1.167,1.167,0,0,0,.967.6,8.662,8.662,0,0,0,2.9,2.5c3.767,1.963,8.36.431,12.082-.9q.654-.234,1.305-.5c4.29-.944,8.628-2.948,10.914-6.881,2.392-4.115,1.376-8.807-.787-12.78" transform="translate(-48.651 -57.103)" fill="#2d304d"/>
    <path id="パス_29242" data-name="パス 29242" d="M72.995,129.186c-.9-3.317-1.614-6.666-2.18-10.037-.019-.118-.038-.235-.057-.353-1.671-10.137-2.049-20.469-2.4-30.742a1.04,1.04,0,0,0-1.846-.588.812.812,0,0,0-.178.034,39.034,39.034,0,0,0-11.915,6.745A21.4,21.4,0,0,0,50.9,97.059a.921.921,0,0,0-.289.863.958.958,0,0,0-.2.6,24.132,24.132,0,0,1-3.651,12.568,1.015,1.015,0,0,0,1.378,1.378l8.031-4.226,4.016-2.113c.633-.333,1.5-.658,2.223-1.092.028.683.075,1.366.138,2.049a11.74,11.74,0,0,0,.892,6.033.955.955,0,0,0,1.733-.1c.317,1.433.652,2.862.988,4.285.269,1.136,1.73.825,1.935-.124.219,1.122.466,2.237.757,3.338a.986.986,0,0,0,.23.426,82.263,82.263,0,0,0,1.972,8.779,1.009,1.009,0,0,0,1.944-.536" transform="translate(-31.04 -57.997)" fill="#f9ebdb"/>
    <path id="パス_29243" data-name="パス 29243" d="M116.074,15.132c-1.6-3.447-5.157-5.187-8.785-3.664a8.719,8.719,0,0,0-4.765,5.627c-.589-.684-1.887-.68-2,.434-.459,4.332-.88,8.9,1.2,12.909a10.433,10.433,0,0,0,4.3,4.393l.2,1.2a14.813,14.813,0,0,0,.7,3.574c.843,1.859,3.41,1.355,5.071,1.347,5.141-.026,3.272-5.406,2.217-8.813a17.585,17.585,0,0,0,2.663-5.816,17.2,17.2,0,0,0-.784-11.188" transform="translate(-66.693 -7.268)" fill="#f5bc8e"/>
    <path id="パス_29244" data-name="パス 29244" d="M81.734,83.343c-.1-3.071-.247-6.158-.558-9.216a42.524,42.524,0,0,0-.622-4.233c-.147-.715-.142-1.961-.855-2.372a.511.511,0,0,0-.69.181l-.052.1a.512.512,0,0,0,.181.69l.071.038a.575.575,0,0,0,.092.038,13.43,13.43,0,0,1,.34,1.907c.174.895.312,1.8.421,2.7.153,1.269.253,2.544.337,3.82.181,2.745.336,5.5.37,8.25.058,4.638.477,12.873-4.846,14.952-3.166,1.236-5.448-1.443-6.914-3.9A20.433,20.433,0,0,1,66.5,88.039a77.817,77.817,0,0,1,.181-16.831c.068-.64-.932-.634-1,0a77.605,77.605,0,0,0-.19,16.831c.5,4.436,1.953,9.58,5.7,12.415,3.124,2.366,7.1.457,8.783-2.693,2.237-4.184,1.916-9.836,1.765-14.418" transform="translate(-43.365 -44.924)" fill="#20223b"/>
    <path id="パス_29245" data-name="パス 29245" d="M76.356,58.059a6.893,6.893,0,0,0-3.015-.491,40.059,40.059,0,0,0-4.942.091,25.452,25.452,0,0,0-2.834.246,2.977,2.977,0,0,0-2.021.484.863.863,0,0,0-.276.433.962.962,0,0,0-.279.471,1.8,1.8,0,0,0-.187.855c0,.039.009.075.012.114-.332,2-.73,5.014.754,6.285.948.812,2.561.715,3.721.786a43.686,43.686,0,0,0,4.6.037c1.4-.062,3.3.051,4.6-.517.879-.384,1.046-1.265,1.162-2.152.248-1.874.752-5.506-1.3-6.642" transform="translate(-41.627 -38.314)" fill="#2d304d"/>
    <path id="パス_29246" data-name="パス 29246" d="M58.472,61.746a2.623,2.623,0,0,0-1.189-.812,6.954,6.954,0,0,0-6.025,3.027c-1,1.516-1.925,4.789-.814,6.43a.66.66,0,0,0,.968.175.662.662,0,0,0,.862-.257l.445-.857a.591.591,0,0,0,.768.081,12.961,12.961,0,0,0,3.767-3.243c.673-.971,1.891-3.328,1.219-4.545" transform="translate(-33.257 -40.58)" fill="#f5bc8e"/>
    <path id="パス_29247" data-name="パス 29247" d="M133.333,29.7a.909.909,0,0,0-1.344.4,2.756,2.756,0,0,0-.983-.4,1.077,1.077,0,0,0-.252-.105l-1.379-.368a1,1,0,0,0-1.229.775,5.1,5.1,0,0,0-1.826-1.043c-1.226-.411-1.751,1.524-.533,1.933,2.76.925.852,4.651,3.379,5.8,1.1.5,2.728-.817,2.925,1.045.051.491-.415,1.2-.562,1.645a7.8,7.8,0,0,0-.4,1.941c-.085,1.081,1.349,1.239,1.868.506,2.126-3.01,3.943-9.48.338-12.126" transform="translate(-83.31 -19.249)" fill="#2d304d"/>
    <path id="パス_29248" data-name="パス 29248" d="M117.838,9.291a1.27,1.27,0,0,0-.787-.974,8.232,8.232,0,0,0-1.644-5.47A8,8,0,0,0,109.6.01a9.334,9.334,0,0,0-9.1,5.926,2.907,2.907,0,0,0-1.87,2.476c-.119.988-.369,2.284.54,2.972,1.025.775,2.973.671,4.189.839q5.085.7,10.187,1.267c1.092.121,2.8.664,3.756-.168,1.011-.88.681-2.9.536-4.031" transform="translate(-65.602 0)" fill="#b85d3f"/>
    <path id="パス_29249" data-name="パス 29249" d="M81.023,63.263a3.186,3.186,0,0,0-3.466-.78,2.855,2.855,0,0,0-1.382,3.259,2.206,2.206,0,0,0,1.036,1.309,2.794,2.794,0,0,0,.522.313,2.636,2.636,0,0,0,3.457-.628,2.919,2.919,0,0,0-.168-3.474" transform="translate(-50.664 -41.465)" fill="#434873"/>
    <path id="パス_29250" data-name="パス 29250" d="M29.473,356a2.837,2.837,0,0,0-2.057-2.273,37.325,37.325,0,0,0-5.994-.678q-6.007-.55-12.043-.665a53.3,53.3,0,0,0-6.648.019,2.387,2.387,0,0,0-2.265,2.266A20.071,20.071,0,0,0,.32,358.4a53.543,53.543,0,0,0-.277,7.766c.116,2.48.82,5.21,3.337,6.243a15.413,15.413,0,0,0,4.6.71q3.075.241,6.161.29c3.525.057,7.426.261,10.888-.514,3.008-.673,4.072-2.977,4.235-5.846.106-1.866.126-3.74.187-5.608.057-1.74.4-3.729.019-5.446" transform="translate(0 -234.609)" fill="#2d304d"/>
    <path id="パス_29251" data-name="パス 29251" d="M30.667,361.942q-.094,2.546-.188,5.093c-.057,1.49.018,3.376-1.068,4.556-1.248,1.355-3.674,1.108-5.348,1.178q-2.64.111-5.283.136t-5.285-.037c-1.5-.035-3.872.247-5.234-.436-1.962-.983-1.2-3.991-1.138-5.758q.089-2.383.176-4.766a.433.433,0,0,0,.079-.309c0-.02,0-.041-.006-.061a.509.509,0,0,0-.631-.481l-.061.011a.5.5,0,0,0-.366.481c-.095,2.349-.178,4.7-.267,7.046-.053,1.411-.356,3.239.886,4.261,1.185.975,3.186.895,4.619.957,2.406.1,4.82.118,7.228.1s4.847-.076,7.263-.231c1.459-.094,3.018-.251,4.079-1.377a5.754,5.754,0,0,0,1.267-3.478c.221-2.277.2-4.6.283-6.882.024-.647-.982-.646-1.005,0" transform="translate(-3.98 -240.447)" fill="#20223b"/>
    <path id="パス_29252" data-name="パス 29252" d="M188.6,121.517c.088,2.281-1.929,4.419-3.707,5.579-.535.349-.041,1.208.5.861,2.078-1.323,4.323-3.809,4.207-6.44-.029-.643-1.029-.647-1,0" transform="translate(-122.979 -80.605)" fill="#20223b"/>
    <path id="パス_29253" data-name="パス 29253" d="M181.478,140.036c-.6-9.446-5.715-28.12-11.646-37.7-1.824-2.948-4.24-7.165-6.594-9.651-4.567-4.825-6.977-7.182-18.129-7.506-.492-.014,3.639,27.334,6.768,39.267,3.078,11.739,6.469,23.454,12.811,33.884,3.776,6.21,7.6,12.391,11.4,18.586a1.02,1.02,0,0,0,1.843-.241c2.237-12.056,4.326-24.327,3.547-36.635" transform="translate(-96.613 -56.724)" fill="#f9ebdb"/>
    <path id="パス_29254" data-name="パス 29254" d="M113.955,83.057c-.144.067-.288.132-.431.2A136.25,136.25,0,0,0,102.7,71.073c-.257-1.813-2.139-3.867-3.5-4.685a6.954,6.954,0,0,0-6.741-.135,2.624,2.624,0,0,0-.723,1.245c-.082,1.387,2.034,2.989,3.059,3.575a11.169,11.169,0,0,0,3.977,1.186c1.362,2.381,3,5.229,4.091,7.023.718,1.183,6.489,11.8,9.4,13.378a7.65,7.65,0,0,0,3.067.087,24.1,24.1,0,0,0-1.366-9.692" transform="translate(-61.087 -43.588)" fill="#f5bc8e"/>
    <path id="パス_29255" data-name="パス 29255" d="M176.826,129.725a9.881,9.881,0,0,1-5.04,3.869A20.988,20.988,0,0,1,166,135.228c-.632.056-.642,1.046,0,1a21.577,21.577,0,0,0,6.706-1.928,10.359,10.359,0,0,0,4.989-4.063.5.5,0,0,0-.866-.506" transform="translate(-110.232 -86.234)" fill="#e0d4c5"/>
    <path id="パス_29256" data-name="パス 29256" d="M162.288,98.652a5.787,5.787,0,0,1-2.143,3.206c-1,.823-2.012,1.63-3.026,2.435-.5.4.205,1.089.7.7,1.227-.956,2.475-1.907,3.645-2.934a6.01,6.01,0,0,0,1.789-3.143.5.5,0,0,0-.968-.267" transform="translate(-104.523 -65.464)" fill="#e0d4c5"/>
    <path id="パス_29257" data-name="パス 29257" d="M119.392,210.62c-2.147-5.872-2.584-12.09-2.845-18.286-.274-6.519-.362-13.043-.466-19.567a.5.5,0,0,0-1,0c.089,6.74.192,13.483.489,20.219.267,6.059.741,12.164,2.856,17.9.22.6,1.184.34.963-.266" transform="translate(-76.643 -114.737)" fill="#e0d4c5"/>
    <path id="パス_29258" data-name="パス 29258" d="M95.959,45.856A2.589,2.589,0,0,0,98.9,47.288a2.2,2.2,0,0,0,1.749-1.9.331.331,0,0,0,.217-.06c.327-.233.765-.016,1.067.153a.337.337,0,0,0,.079.025,2.205,2.205,0,0,0,1.443,2.13,2.589,2.589,0,0,0,3.123-.972,2.87,2.87,0,0,0,.3-.617.331.331,0,0,0,.09-.014q1.554-.577,3.151-1.015c.412-.113.287-.77-.128-.656-1.005.276-2,.6-2.976.952a1.813,1.813,0,0,0-.018-.325c-.109-.679-.5-.673-1.122-.731-1.05-.1-2.347-.428-3.3.1a.969.969,0,0,0-.4.506,1.664,1.664,0,0,0-1.606-.126.962.962,0,0,0-.315-.556c-.86-.663-2.191-.534-3.244-.594-.619-.036-1.009-.1-1.22.553a2.5,2.5,0,0,0,.161,1.718m6.813-.7a1.11,1.11,0,0,1,.423-.35,5.181,5.181,0,0,1,1.8.042,3.172,3.172,0,0,1,1,.094c.559.328.313.863.074,1.271a1.889,1.889,0,0,1-2.148.876,1.493,1.493,0,0,1-1.144-1.933M96.8,44.241a3.167,3.167,0,0,1,1,.057,5.183,5.183,0,0,1,1.785.23,1.11,1.11,0,0,1,.365.41,1.493,1.493,0,0,1-1.423,1.739,1.89,1.89,0,0,1-1.992-1.19c-.175-.44-.337-1,.265-1.245" transform="translate(-63.74 -29.012)" fill="#2d304d"/>
  </g>
</svg>
