<svg id="グループ_5910" data-name="グループ 5910" xmlns="http://www.w3.org/2000/svg" xmlns:xlink="http://www.w3.org/1999/xlink" width="87.801" height="144" viewBox="0 0 87.801 144">
  <defs>
    <clipPath id="clip-path">
      <rect id="長方形_10377" data-name="長方形 10377" width="87.801" height="144" fill="none"/>
    </clipPath>
  </defs>
  <path id="パス_29202" data-name="パス 29202" d="M174.267,363.735l3.62-.347-4.012-29.229-7.935.313Z" transform="translate(-110.893 -223.308)" fill="#f5bc8e"/>
  <g id="グループ_5911" data-name="グループ 5911">
    <g id="グループ_5910-2" data-name="グループ 5910" clip-path="url(#clip-path)">
      <path id="パス_29203" data-name="パス 29203" d="M190.778,421.221c-.076-.332-.138-.56.181-.655a8.549,8.549,0,0,1,3.178-.511c1.166.1,2.061.3,3.306.417.923.088,2.309.3,2.85,1.158a1.271,1.271,0,0,1-.018,1.409c-.479.779-1.994.791-2.755.926-1.356.24-2.739.589-4.111.716-2.382.222-2.239-1.741-2.631-3.459" transform="translate(-127.45 -280.697)" fill="#2d304d"/>
      <path id="パス_29204" data-name="パス 29204" d="M57.124,329.925l2.146,2.936L82.362,314.5l-4.317-6.665Z" transform="translate(-38.174 -205.715)" fill="#f5bc8e"/>
      <path id="パス_29205" data-name="パス 29205" d="M52.468,373.883c.247-.235.411-.4.656-.178a8.55,8.55,0,0,1,2.061,2.472c.506,1.056.8,1.925,1.329,3.056.4.838.919,2.139.458,3.042a1.27,1.27,0,0,1-1.221.7c-.914-.014-1.7-1.312-2.2-1.9-.9-1.044-1.9-2.055-2.714-3.17-1.406-1.936.355-2.813,1.632-4.028" transform="translate(-33.625 -249.665)" fill="#2d304d"/>
      <path id="パス_29206" data-name="パス 29206" d="M237.283,86.553c-.285-1.065-.626-2.107-1.01-3.135a15.94,15.94,0,0,0-2.308-5.476,3.572,3.572,0,0,0-2.16-1.282c-.748-.282-1.67.014-1.515,1.016a7.372,7.372,0,0,0,.534,1.435,11.094,11.094,0,0,1,.414,1.526,4.218,4.218,0,0,0,.2.655c-.522.924-1.118-.2-1.367-.488a.336.336,0,0,0-.558.147,2.138,2.138,0,0,0,1.537,2.427,7.584,7.584,0,0,0,2.414,1.716c.269.626.6,1.234.866,1.823a.317.317,0,0,0,.474.1.368.368,0,0,0,.394-.284.347.347,0,0,0,.508-.088.329.329,0,0,0,.586-.229.334.334,0,0,0,.266.062c.024.086.051.17.074.256a.336.336,0,0,0,.647-.179" transform="translate(-153.354 -51.162)" fill="#f5bc8e"/>
      <path id="パス_29207" data-name="パス 29207" d="M28.716,208.236a7.365,7.365,0,0,0-2.071-3.085c-.861-.863-1.749-1.7-2.638-2.54a7.486,7.486,0,0,0-.532-5.649c-1.531-2.682-4.349-2.511-6.628-1.227-1.085-1.04-2.174-2.075-3.28-3.089-.943-.865-1.828-1.49-2.91-.453-.076.073-.149.152-.224.228a1.073,1.073,0,0,0-.242.145,44.145,44.145,0,0,0-6.7,6.733c-1.6,2.012-3.926,4.519-3.417,7.3.506,2.768,3.057,5.218,4.748,7.351a69.684,69.684,0,0,0,7.024,7.909c2.176,2.017,4.329,1.454,6.574-.255,2.509-1.909,4.577-4.484,6.744-6.759,1.755-1.842,4.36-3.737,3.554-6.613M17.6,196.455c2-.989,4.361-.929,5.3,1.68a7.307,7.307,0,0,1,.272,3.682q-.344-.325-.687-.651c-1.633-1.561-3.252-3.141-4.881-4.711" transform="translate(0 -128.075)" fill="#2d304d"/>
      <path id="パス_29208" data-name="パス 29208" d="M67.062,175.887l-.053.074a.455.455,0,0,0-.525-.037.493.493,0,0,0-.622-.3.516.516,0,0,0-.812-.279.487.487,0,0,0-.7,0,13.09,13.09,0,0,0-1.737,2.488,5.642,5.642,0,0,0-1.268,2.638.524.524,0,0,0,0,.2,6.784,6.784,0,0,0-2.731,5.232c-.323.423,1.918,2.623,2,2.567,1.064-.33,3.5-2.985,3.724-3.678a5.4,5.4,0,0,0,.083-1.626,7.506,7.506,0,0,1,.915-3.3.544.544,0,0,0,.04-.125q1.328-1.642,2.548-3.365c.369-.522-.5-1.01-.866-.49" transform="translate(-39.151 -117.079)" fill="#f5bc8e"/>
      <path id="パス_29209" data-name="パス 29209" d="M159.974.406c-1.5-.216-4.736-.907-6,.232-1.1,1-.6,2.217.238,3.1-.675.386-1.632.534-2.045,1.3-.259.482-.09,1.074-.4,1.432-.495.565-1.353.815-1.871,1.447a3.574,3.574,0,0,0-.639,3.572,3.114,3.114,0,0,0,1.163,1.416c.368.256.466.193.519.571.031.223-.288.741-.312,1-.254,2.832,4.182,4.757,6.447,3.75,1.929-.858,2.426-3.364,2.211-5.66,0-.009.009-.018.012-.027L160.33,9.7l.008-.006a5.578,5.578,0,0,1,3.706-1.5A16.668,16.668,0,0,0,166.2,8.4a1.006,1.006,0,0,0,1.895-.427c0-4.473-4.127-6.993-8.117-7.568" transform="translate(-99.59 0)" fill="#2d304d"/>
      <path id="パス_29210" data-name="パス 29210" d="M112.517,254.008c-1.135-5.269-1.891-15.589-2.714-20.912a96.162,96.162,0,0,0-3.394-15.424c-.057-.172-.118-.342-.176-.514a13.149,13.149,0,0,0,1.079-3.239,39.781,39.781,0,0,0,.224-8.1q-.061-3.372-.127-6.743c.311-4.405.131-8.9.173-13.081a2.3,2.3,0,0,0-3.6-1.854,3.478,3.478,0,0,0-2.745-.893,3.81,3.81,0,0,0-2.84,1.8q-4.393-1.278-8.724-2.76a1.993,1.993,0,0,0-2.715,1.5,2.217,2.217,0,0,0-2.742,1.539c-3.5,11.627-.824,22.227,3.665,32.531a56.7,56.7,0,0,0-9.893,8.491c-3.725,4.171-7.148,8.631-10.676,12.968a1.708,1.708,0,0,0-.26,2.016c1.117,1.543,1.465,1.721,2.581,3.264a1.683,1.683,0,0,0,2.278.6c7.069-5.46,14.244-12.206,21.314-17.665,4.477,8.7,9.66,20.041,11.506,29.184.154.763,8.284-.42,7.792-2.7" transform="translate(-44.65 -121.719)" fill="#2d304d"/>
      <path id="パス_29211" data-name="パス 29211" d="M132.355,93.923c-.314-3.085-.587-6.2-2.168-8.925l-.073-.54a1.673,1.673,0,0,0-2.045-1.161l-2.843.9a1.69,1.69,0,0,0-1.069.972,2.033,2.033,0,0,0-.269,1.074,5.873,5.873,0,0,0,.366,1.6,4.594,4.594,0,0,1-.732,1.065,10.809,10.809,0,0,0-.884,1.332,5.949,5.949,0,0,0-.518-.486,13.61,13.61,0,0,0-2.953-2.294,7.572,7.572,0,0,1-1.2-2.726,10.024,10.024,0,0,0-1.346-3.3,13.116,13.116,0,0,0-4.76-5.042A19.182,19.182,0,0,0,106.42,73.9c-1.968-.605-11.233-1.275-15.3.218-5.476,2.012-10.116,7.416-13.432,12.249a10.532,10.532,0,0,0-3.771,4.47c-.524,1.239-.869,2.557-1.293,3.841-.065.107-.124.2-.175.276a25.852,25.852,0,0,0-2.716,4.874c-.539.682-1.079,1.363-1.549,2.094a4.761,4.761,0,0,0-1.048,1.486,3.616,3.616,0,0,0-.214,2.355c.192.686.983,1.364,1.2,2.04-.238.441-.475.882-.7,1.328a2.345,2.345,0,0,0-.408,1.59c.248,1.032,1.9,1.78,2.8,2.081,1.243.414,1.93-.266,2.453-1.286.215-.171.418-.351.616-.535a12.509,12.509,0,0,0,2.91-.926,5.583,5.583,0,0,0,1.884-2.422c.562-1.248.807-2.6,1.471-3.8.856-.348,5.868-5.935,5.833-5.815-.808,2.8-3.317,3.886-2.585,10,.153,1.276.906,2.4,1.228,3.65.414,1.6.287-.036.141,1.594-.218,2.44.756,3.846,3.21,4.13,3.288.38,6.584.7,9.875,1.051,2.424.258,7.251,1.158,9.03.237.9-.468,1.057-1.082,1.506-3.262.574-2.786,3.52-15.146,3.885-19.27a37.041,37.041,0,0,0,13.674,9.011,4.779,4.779,0,0,0,3.97-.15,5.354,5.354,0,0,0,2.187-3.125c1.079-3.04,1.565-4.847,1.248-7.965" transform="translate(-44.65 -48.927)" fill="#f9ebdb"/>
      <path id="パス_29212" data-name="パス 29212" d="M173.693,14.431c-4.5,1.04-6.582,6.6-4.956,10.684a42.954,42.954,0,0,1-2.083,6.029c-.8,2.006-.752,3.117,1.276,4.162,1.915.986,3.508,1.7,4.9-.326a15.576,15.576,0,0,0,1.906-4.167c2.452.02,4.138-2.029,4.842-4.264,1.325-4.207.783-13.656-5.88-12.118" transform="translate(-111.048 -9.532)" fill="#f5bc8e"/>
      <path id="パス_29213" data-name="パス 29213" d="M120.63,98.38c-2,6.988-3.954,13.991-5.905,20.994q.519.045,1.023.069c1.935-6.936,3.862-13.875,5.845-20.8,1.889-6.6,4.346-13.143,6.064-19.829-.268-.255-.549-.5-.839-.745-1.728,6.851-4.252,13.552-6.188,20.308M144.17,86.9q-2.811,9.372-6.1,18.588l.119.048a5.059,5.059,0,0,0,.848.248q3.057-8.543,5.679-17.233a14.519,14.519,0,0,0-.548-1.651m-14.23,14.273q.424.294.877.589c1.235-4.128,2.525-8.241,3.69-12.386-.278-.255-.552-.5-.831-.734-1.173,4.2-2.481,8.356-3.735,12.53M118.319,74.01Q111.963,96.353,104,118.188l1.027.109q7.953-21.781,14.276-44.11c-.267-.061-.6-.121-.988-.178m-11.507-.093q-5.152,18.152-10.668,36.2c.2.5.424.991.594,1.5q5.788-18.851,11.142-37.832c-.367.038-.724.084-1.069.136M95.173,81.3q-4.08,15.01-8.545,29.91c.375-.1.76-.168,1.14-.261q4.655-15.521,8.856-31.173-.745.741-1.45,1.525" transform="translate(-57.891 -49.306)" fill="#b6bef0"/>
      <path id="パス_29214" data-name="パス 29214" d="M136.708,81.063c-.567-.562-1.887-.506-2.606-.422a.638.638,0,0,0-.362.18.463.463,0,0,0-.5.6l.528,1.636a6.331,6.331,0,0,0,.27.813c-1.228,2.206-3.9,3.437-6.08,4.494-2.221,1.078-4.518,2-6.688,3.184-3.648,1.987-7.774,5.234-7.416,9.853.023.291.306.608.632.481,1.979-.766,3.305-2.4,4.85-3.781A46.2,46.2,0,0,1,126.1,93.1c3.581-2.191,7.506-4.427,8.823-8.645.488-.039.9-.545,1.128-.978.245-.474.509-.946.732-1.431a.817.817,0,0,0-.078-.982" transform="translate(-76.074 -53.855)" fill="#f07a58"/>
      <path id="パス_29215" data-name="パス 29215" d="M177.276,11.82a8.686,8.686,0,0,0-2.488-.343,1.052,1.052,0,0,0-1.5-1.111,12.467,12.467,0,0,0-3.71,2.9,8.153,8.153,0,0,0-.693.6c-.564.556-.97,1.234-1.5,1.819a8.159,8.159,0,0,0-1.415,1.748,5.314,5.314,0,0,0-.206,4.261,1.092,1.092,0,0,0,1.087.709c-.223.394-.455.652-.565.427-.555-1.144-2.242-.144-1.7,1a2.022,2.022,0,0,0,3.081.715,4.385,4.385,0,0,0,1.668-4.1c-.121-1.177-.49-1.731.677-2.55a5.445,5.445,0,0,0,1.617-1.631,5.035,5.035,0,0,1,5.114-2.521,1,1,0,0,0,.531-1.926" transform="translate(-109.919 -6.846)" fill="#2d304d"/>
      <path id="パス_29216" data-name="パス 29216" d="M171.468,73.766a31.868,31.868,0,0,0-1.06-3.488,1.308,1.308,0,0,0-1.153-.785c-.838.011-1.69.949-2.308,1.384l-.81.571a8.77,8.77,0,0,0-2.957-3.151.5.5,0,0,0-.6.078c-.509.647-.986,1.3-1.433,2a.486.486,0,0,0,.53.72,2.38,2.38,0,0,0,1.742,2.627,2.3,2.3,0,0,1-.033.276c-.07.376.354.861.739.568.5-.38,1.608-.927,1.921-1.648.047-.035.094-.07.14-.105.711.746,1.7,2.078,2.694,2.075a.5.5,0,0,0,.434-.249,4.238,4.238,0,0,0,.188-.46,5.1,5.1,0,0,0,1.485.229.506.506,0,0,0,.485-.637m-1.721-.862a.45.45,0,0,0,.167-.375c0-.077,0-.152,0-.229q.144.518.322,1.023a5.314,5.314,0,0,1-.518-.127c.012-.1.024-.194.03-.292" transform="translate(-107.633 -45.595)" fill="#f9ebdb"/>
    </g>
  </g>
</svg>
