<svg id="グループ_5917" data-name="グループ 5917" xmlns="http://www.w3.org/2000/svg" xmlns:xlink="http://www.w3.org/1999/xlink" width="46.138" height="144" viewBox="0 0 46.138 144">
  <defs>
    <clipPath id="clip-path">
      <rect id="長方形_10380" data-name="長方形 10380" width="46.138" height="144" fill="none"/>
    </clipPath>
  </defs>
  <g id="グループ_5916" data-name="グループ 5916" clip-path="url(#clip-path)">
    <path id="パス_29259" data-name="パス 29259" d="M15.471,153.269a4.114,4.114,0,0,0-3.128-3.866,3.453,3.453,0,0,0-1.56-.85,4.017,4.017,0,0,0-4.826,2.74A161.251,161.251,0,0,0,.565,170.984c-.741,3.661-1.021,7.451.875,10.833,1.58,2.817,4.337,4.69,7.014,6.355a3.948,3.948,0,0,0,5.877-3.062,4.489,4.489,0,0,0,1.127-2.687c.873-9.7.452-19.441.012-29.152" transform="translate(0 -102.769)" fill="#f9b364"/>
    <path id="パス_29260" data-name="パス 29260" d="M59.7.389A22.13,22.13,0,0,0,44.738,2.921a15.966,15.966,0,0,0-8.221,13.543,4.685,4.685,0,0,0,4.591,4.591,4.769,4.769,0,0,0,3-.848,6.178,6.178,0,0,0,3.565.334,4.512,4.512,0,0,0,3.234-3.346q.921-.541,1.854-1.06c.036.239.072.479.118.715A7.565,7.565,0,0,0,57.9,22.8C64.236,24.588,68,16.83,68.53,11.743,69.109,6.237,64.96,1.478,59.7.389" transform="translate(-25.282 0)" fill="#2d304d"/>
    <path id="パス_29261" data-name="パス 29261" d="M66.649,365.921c-.319-1-5.36,2.051-5.4,2.562-.1,1.368,4.02,19.916,4.392,21.222.3,1.038.685,2.65,2.087,2.54,1.351-.106,1.2-1.466,1.305-2.555.142-1.4-1.417-20.728-2.389-23.77" transform="translate(-42.407 -253.202)" fill="#f5bc8e"/>
    <path id="パス_29262" data-name="パス 29262" d="M107.475,377.6c-.149,1.27-.205,14.27-.257,15.548q-.089.9-.109,1.8a1.179,1.179,0,0,0,.237.769c.1.25,2.709.7,2.746.4,1.537-12.232,2.774-18.919,2.98-20.31.146-.985-5.523,1.164-5.6,1.789" transform="translate(-74.155 -260.012)" fill="#f5bc8e"/>
    <path id="パス_29263" data-name="パス 29263" d="M75.869,441.661c.022-.8.063-2.589-.6-3.125-.3-.238-3.994.427-4.19.949-.546,1.457-1.942,4.753-1.431,6.316.619,1.894,2.3,2.325,3.418,1.053,1.194-1.353,2.753-3.356,2.8-5.193" transform="translate(-48.144 -303.579)" fill="#2d304d"/>
    <path id="パス_29264" data-name="パス 29264" d="M109.843,434.231a1.4,1.4,0,0,0-1.335-1.017c-1.2.077-2.639-.971-3.014-.162a7.648,7.648,0,0,0-.519,3.079c-.028.533,2.473,5.735,3.4,5.9,1.681.292,2.608-.569,2.647-1.405a18,18,0,0,0-1.182-6.393" transform="translate(-72.665 -299.604)" fill="#2d304d"/>
    <path id="パス_29265" data-name="パス 29265" d="M68.287,168.692a1.859,1.859,0,0,0-.364-.033,1.7,1.7,0,0,0-2.95.592c-.06.159-.116.32-.174.479a1.911,1.911,0,0,0-2.68.769,1.813,1.813,0,0,0-1.87.229,1.863,1.863,0,0,0-1.579-.236,1.884,1.884,0,0,0-2.105-.293,1.692,1.692,0,0,0-2.723.877l-.117.644a1.848,1.848,0,0,0-2.108.409,1.644,1.644,0,0,0-2.268,1.577q.178,4.975.386,9.95a1.826,1.826,0,0,0,.377,1.092,1.786,1.786,0,0,0,1.723,1.568,47.409,47.409,0,0,0,7.969.059q1.994-.131,3.985-.321c1.079-.1,3.442.23,3.754-.83.809-2.745,1.385-12.7,1.558-15.463.069-1.1.13-1.1-.812-1.069" transform="translate(-34.164 -116.332)" fill="#f5bc8e"/>
    <path id="パス_29266" data-name="パス 29266" d="M62.145,40.221c-.3-1.758-1.622-2.936-1.261-4.815.347-1.807,1.168-3.485,1.145-5.363a5.724,5.724,0,0,0-.291-1.753,8.63,8.63,0,0,0-.541-5.1c-.939-1.892-2.879-2.947-4.747-3.73a10.831,10.831,0,0,0-6.406-.451,9.969,9.969,0,0,0-6.45,5.216,13.156,13.156,0,0,0-.729,4.792,9.866,9.866,0,0,1-.128,1.368c-.847,1.189-2.525,1.817-3.741,2.9a6.383,6.383,0,0,0-2.12,6.982,7.127,7.127,0,0,0,5.1,4.2,3.77,3.77,0,0,0,1.312.352,3.975,3.975,0,0,0,.973-.048,8.379,8.379,0,0,0,2.18-.246c1.093.616,2.672-.244,3.879-.62a3.4,3.4,0,0,1,2.291-.062c.877.309,1.685.786,2.58,1.058a5.932,5.932,0,0,0,5.031-.484,4.184,4.184,0,0,0,1.926-4.187m-5.305-8.032c-.206.795-.43,1.584-.668,2.369a2.07,2.07,0,0,0-.653.178,2.408,2.408,0,0,0-1.269,1.648,1.289,1.289,0,0,0-.41.751,24.632,24.632,0,0,0-.29,3.419,5.646,5.646,0,0,0-1.992-.376,6.428,6.428,0,0,0-1.8.3,4.316,4.316,0,0,0-.128-1.351,1.689,1.689,0,0,0-.221-.521,20.247,20.247,0,0,0,.559-2.049c.422-1.946.709-3.932-.666-5.556a1.293,1.293,0,0,0-.383-.3q.107-.619.214-1.238a1.777,1.777,0,0,0-2.588-1.924,2.161,2.161,0,0,0-.136-.282A4.573,4.573,0,0,1,47.475,24.5a9.037,9.037,0,0,1,2.1-1.727,1.891,1.891,0,0,0,1.309.2c1.427-.3,2.655.974,3.526,1.917,1.036,1.124,2.111,2.161,3.193,3.233a17.7,17.7,0,0,1-.763,4.07" transform="translate(-25.282 -12.964)" fill="#566688"/>
    <path id="パス_29267" data-name="パス 29267" d="M76.374,26.391a6.514,6.514,0,0,0-6.869-.555,2.476,2.476,0,0,0-1.019.721c-2.721,3.132-2.3,8.533-1.077,12.2.577,1.729,1.449,5.746,5.8,5.606,3.122-.106,4.426-3.786,4.763-4.553a15.008,15.008,0,0,0,1.106-6.62c-.1-2.482-.76-5.108-2.7-6.8" transform="translate(-46.011 -17.385)" fill="#f5bc8e"/>
    <path id="パス_29268" data-name="パス 29268" d="M80.96,69.063c-.177-1.354-1.939-1.656-2.872-.873a1.876,1.876,0,0,0-1.586-.773,1.769,1.769,0,0,0-1.6,1.853c-.03,1.225-.044,2.45-.051,3.675a58.041,58.041,0,0,0,.082,7.419,1.627,1.627,0,0,0,2.334,1.418,2.124,2.124,0,0,0,.476.041q.076.335.152.669a1.715,1.715,0,0,0,1.984,1.1,1.751,1.751,0,0,0,1.373-1.805q.071-5.837.141-11.672a1.394,1.394,0,0,0-.432-1.05" transform="translate(-51.748 -46.673)" fill="#f5bc8e"/>
    <path id="パス_29269" data-name="パス 29269" d="M76.164,30.666c-.236-1.843-1.191-3.47-1.685-5.242a.935.935,0,0,0-1.543-.407,1.455,1.455,0,0,0-.181.192,1.464,1.464,0,0,0-1.626-1.233,6.775,6.775,0,0,0-.7.087,1.719,1.719,0,0,0-1.643-1.194,10.449,10.449,0,0,0-2.953.832,1.4,1.4,0,0,0-.53.07,4.843,4.843,0,0,0-.837.062,2.761,2.761,0,0,0-2.317,2.612,1.33,1.33,0,0,0,0,.164,10.374,10.374,0,0,0-2.706,4.744,1.746,1.746,0,0,0,2.893,1.684c.689-.652,1.268-1.327,2.207-.886a2.761,2.761,0,0,0,3.243-.541c1.162-1.173.961-3.292,2.462-3.968.879-.107,1.5,1.091,1.648,1.822.184.915.033,1.869.259,2.782.3,1.217,1.369,2.409,2.744,1.918s1.415-2.3,1.261-3.5" transform="translate(-41.135 -15.826)" fill="#566688"/>
    <path id="パス_29270" data-name="パス 29270" d="M62.005,215.111c-.363-1.732-2.389-5.4-2.65-6.563-.048-.214-4.009,1.6-9.2,1.6a67.232,67.232,0,0,1-9.561-.838c-1.236.453-4.986,9.685-4.28,13.454.083.446,7.9,49.432,8.037,49.777.489,1.222,3.422.272,4.677.058,1.24-.211,2.838-.583,2.679-1.961-.043-.374-3-39.313-1.026-40.642,1.552,2.877,7.269,18.456,7.46,20.151.223,3.738-.934,19.44-.682,20.1.6,1.584,5.526,1.909,7.11.677.388-.3,2.008-13.954,1.5-23.62a239.981,239.981,0,0,0-4.073-32.2" transform="translate(-25.084 -144.373)" fill="#b85d3f"/>
    <path id="パス_29271" data-name="パス 29271" d="M37.3,225.143c-.12-.986-1.528-2.151-1.991-3.022-.085-.676.008-.211-.724-.412a1.745,1.745,0,0,0-2.129,1.209,7.325,7.325,0,0,0,.081,3.2c.3,1.121,1.2,3.1,2.323,2.353,2.2-1.464,2.595-2.052,2.44-3.324" transform="translate(-22.372 -153.459)" fill="#f5bc8e"/>
    <path id="パス_29272" data-name="パス 29272" d="M113.957,217.02a1.388,1.388,0,0,0-1.67-.551c-.784.215-2.919,3.318-2.807,3.923.169.911,1.4,2.616,2.384,2.616,1.413,0,1.982-1.047,2.443-2.231a3.721,3.721,0,0,0-.351-3.758" transform="translate(-75.794 -149.809)" fill="#f5bc8e"/>
    <path id="パス_29273" data-name="パス 29273" d="M49.216,101.424a12.624,12.624,0,0,0-7.329-4.551,26.563,26.563,0,0,0-11.1-.086,16.606,16.606,0,0,0-8.171,4.925c-3.484,3.763-6.93,14.823-7.943,18.771-.965,3.757,3.692,13.326,4.457,15.772.5,1.6,4.246.347,4.346-.463.061-.518-3.178-10.566-3.16-14.073,0-.009,0-.018,0-.027.113-.369,3.1-4.965,3.1-4.965-.059,2.836-.887,12.7.222,14.061,1.5,1.844,4.037-.525,5.537-1.43a6.581,6.581,0,0,1,4.67-1.152c1.695.374,3.074,1.416,4.839,1.7,2.86.455,6.469,1,7.3-.343,3.039-4.885,1.876-15.006,1.941-14.841.392,1.147,2.914,6.029,2.8,6.7-.137.773-4.256,8.565-4.507,11.607-.077.933,2.738,3.053,3.231,2.539,1.846-1.923,7.432-9.71,6.693-16.386-.619-5.589-5.583-16.112-6.924-17.752" transform="translate(-10.068 -66.632)" fill="#2d304d"/>
    <path id="パス_29274" data-name="パス 29274" d="M78.441,95.743a19.176,19.176,0,0,0-5.5-1.132,19.4,19.4,0,0,0-5.6,1.046c1.283,1.425,3.854,2,5.511,2.126a6.256,6.256,0,0,0,5.588-2.04" transform="translate(-46.623 -65.502)" fill="#f5bc8e"/>
    <path id="パス_29275" data-name="パス 29275" d="M42,103.282c1.352,8.017-2.311,16-3.238,23.889-.208,1.767.952,5.2,1.3,3.47,1.7-8.524,6.339-20.239,4.431-29.03-.017-.077-2.555,1.283-2.49,1.671" transform="translate(-26.822 -70.347)" fill="#f9b364"/>
    <path id="パス_29276" data-name="パス 29276" d="M80.818,50.964a.9.9,0,0,0-1-.321,2.134,2.134,0,0,0-.38-.184,2.042,2.042,0,0,0-.6-.119,2.165,2.165,0,0,0-.358-.03,2.515,2.515,0,0,0-2.136,1.168,3.524,3.524,0,0,0-2.477-.224,2.521,2.521,0,0,0-2.4-1.1,2.161,2.161,0,0,0-.352.072,2.029,2.029,0,0,0-.557.178c-.026-.01-.05-.022-.077-.029a.983.983,0,0,0-1.121.421.924.924,0,0,0,.053,1,2.06,2.06,0,0,0-.038.927,2.212,2.212,0,0,0,1.321,1.608,3.653,3.653,0,0,0,1.424.24,2.538,2.538,0,0,0,1.578-.684,1.993,1.993,0,0,0,.523-1.789A2.619,2.619,0,0,1,76,52.343a2.023,2.023,0,0,0,.707,1.941,2.534,2.534,0,0,0,1.648.492,3.659,3.659,0,0,0,1.386-.407,2.214,2.214,0,0,0,1.121-1.753,2.041,2.041,0,0,0-.089-.748.751.751,0,0,0,.049-.9" transform="translate(-47.931 -34.714)" fill="#2d304d"/>
  </g>
</svg>
