<svg id="グループ_5920" data-name="グループ 5920" xmlns="http://www.w3.org/2000/svg" xmlns:xlink="http://www.w3.org/1999/xlink" width="61.591" height="144" viewBox="0 0 61.591 144">
  <defs>
    <clipPath id="clip-path">
      <rect id="長方形_10382" data-name="長方形 10382" width="61.591" height="144" fill="none"/>
    </clipPath>
  </defs>
  <rect id="長方形_10381" data-name="長方形 10381" width="12.1" height="6.773" transform="translate(19.15 26.264) rotate(-77.059)" fill="#f5bc8e"/>
  <g id="グループ_5919" data-name="グループ 5919">
    <g id="グループ_5918" data-name="グループ 5918" clip-path="url(#clip-path)">
      <path id="パス_29277" data-name="パス 29277" d="M99.12,9.008c-.037-.011-.077-.02-.115-.03C99,8.986,99,9,99,9a.22.22,0,0,1,.117.005" transform="translate(-68.866 -6.245)" fill="#f5bc8e"/>
      <path id="パス_29278" data-name="パス 29278" d="M79.029,9.523c.294.133.547.331.247.475-1.4.675-1.512,2.26-3.237,2.568a7.806,7.806,0,0,1-1.584.081c-1.846.505-2.576,1.9-2.958,3.716a3.217,3.217,0,0,1-.565,1.4c-.491.626-1.155.97-1.338,1.821-.356,1.655,1.3,2.207,1.367,3.669a1.882,1.882,0,0,1-.272,1.056,5.666,5.666,0,0,0,.9,1.031,1.065,1.065,0,0,0,.229.36A7.985,7.985,0,0,0,78.406,28.3c2.427-.387,3.424-3.636,4.031-5.6,1.257-4.076,1.556-11.337-3.408-13.18" transform="translate(-48.374 -6.624)" fill="#f5bc8e"/>
      <path id="パス_29279" data-name="パス 29279" d="M76.393,6.119a4.683,4.683,0,0,0-2.54-3.578,1.829,1.829,0,0,0-.879-1.387C71.19-.205,68.425-.2,66.359.341c-1.877.494-4.308,1.247-5.151,3.208a2.938,2.938,0,0,0,.525,3.076c-1.127,3.511-.205,7.911,1.044,11.2v0s.177.928.886.928c1.029,0,1.348-2.038,1.344-2.127-.065-1.462-1.723-2.014-1.367-3.669.183-.851.847-1.2,1.338-1.821a3.221,3.221,0,0,0,.565-1.4c.382-1.817,1.112-3.211,2.958-3.716a7.85,7.85,0,0,0,1.584-.081c1.6-.286,1.812-1.671,2.955-2.408a1.534,1.534,0,0,0,.588-.4,5.879,5.879,0,0,1,2.764,2.98" transform="translate(-42.421 0)" fill="#b85d3f"/>
      <path id="パス_29280" data-name="パス 29280" d="M84.852,34.236c-.017-.059-.19-.4-.374-.394l-2.888.174c-.454.027-.953-.042-1.265.334a1.446,1.446,0,0,0-.271.629,2.574,2.574,0,0,0-1.62-.062,1.393,1.393,0,0,0-.256-.567c-.312-.376-.811-.307-1.265-.334l-2.888-.174c-.094-.006-.344.163-.4.174a13.452,13.452,0,0,1-2.206.105c-.391.013-.393.623,0,.61a18.439,18.439,0,0,0,2.124-.086c-.205.952-.2,2.116.762,2.589A3.853,3.853,0,0,0,76,37.465a3.424,3.424,0,0,0,1.821-.19,2.18,2.18,0,0,0,.678-1.744,1.983,1.983,0,0,1,1.475.07c.009,0,.018,0,.027.007a2.134,2.134,0,0,0,.677,1.667,3.423,3.423,0,0,0,1.821.19,3.853,3.853,0,0,0,1.692-.231c1.111-.543.947-2,.659-3m-7.124,2.173c-.371.7-1.8.495-2.5.43-1.332-.125-1.281-1.363-1.013-2.373l2.375.143c.332.02.9-.075,1.135.2a2.348,2.348,0,0,1,0,1.6m5.544.43c-.7.065-2.124.271-2.5-.43a2.352,2.352,0,0,1,0-1.6c.233-.277.8-.183,1.135-.2l2.375-.143c.267,1.011.319,2.249-1.014,2.373" transform="translate(-49.478 -23.54)" fill="#2d304d"/>
      <path id="パス_29281" data-name="パス 29281" d="M183.534,80.069c-.931-.661-2.927,1.786-3.137,2.95a16.516,16.516,0,0,1-.184,1.651,1.579,1.579,0,0,1-.2.426c-.019-.879-.328-2.375-1.168-2.394a.626.626,0,0,0-.61.61,8.712,8.712,0,0,0,.121,2.775,19.537,19.537,0,0,0-1.4,2.735c-.354.695,2.427,2.3,2.756,1.952,1.077-1.141,2.172-2.267,3.232-3.424a5.4,5.4,0,0,0,1.57-2.65c.255-1.354.306-3.719-.98-4.632" transform="translate(-123.068 -55.618)" fill="#f5bc8e"/>
      <path id="パス_29282" data-name="パス 29282" d="M173.739,109.781c-.647-.482-1.571-1.3-2.425-.825-.808.45-1.414,1.707-1.919,2.443-.446.65.608,1.255,1.053.616q.3-.438.614-.872a1.343,1.343,0,0,0,.114.156.641.641,0,0,0,.232.328c.2.149.492.419.815.656a2.29,2.29,0,0,1,.716,1.321c0,.006,0,.01,0,.016-.021.061-.041.121-.058.177a.618.618,0,0,0,1.026.6,4.549,4.549,0,0,0,1.323-2.515c.127-1.016-.761-1.55-1.495-2.1" transform="translate(-117.755 -75.689)" fill="#f9ebdb"/>
      <path id="パス_29283" data-name="パス 29283" d="M54.912,443.082l3.434.25.833-6.67-4.733.115Z" transform="translate(-37.872 -303.739)" fill="#f5bc8e"/>
      <path id="パス_29284" data-name="パス 29284" d="M55.458,457.42c-.008-.353-.024-.6.32-.627a8.854,8.854,0,0,1,3.328.139c1.161.347,2.028.729,3.266,1.107.917.28,2.278.783,2.65,1.764a1.317,1.317,0,0,1-.31,1.425c-.647.691-2.186.389-2.985.368-1.425-.037-2.9.03-4.317-.125-2.461-.268-1.91-2.228-1.952-4.052" transform="translate(-38.559 -317.681)" fill="#2d304d"/>
      <path id="パス_29285" data-name="パス 29285" d="M134.145,428.42l3.337-.846-2.11-6.361-3.658,1.371Z" transform="translate(-91.619 -292.993)" fill="#f5bc8e"/>
      <path id="パス_29286" data-name="パス 29286" d="M138.883,442.424c-.033-.351-.066-.594.275-.648a8.854,8.854,0,0,1,3.33-.095c1.182.264,2.075.585,3.336.875.935.215,2.328.621,2.767,1.573a1.316,1.316,0,0,1-.21,1.443c-.6.734-2.153.542-2.952.577-1.424.063-2.89.233-4.315.179-2.474-.1-2.061-2.089-2.232-3.9" transform="translate(-96.593 -307.144)" fill="#2d304d"/>
      <path id="パス_29287" data-name="パス 29287" d="M67.6,283.864c-3.092-24.38-5.5-45.551-11.778-64.135-.684-2.026-3.907-1.16-3.222.889l.01.031c-.292-.252-.591-.5-.91-.74a1.693,1.693,0,0,0-2.039.263,5.7,5.7,0,0,1-2.672,1.447,6.959,6.959,0,0,0-3.982-2.1c-1.544-.31-3.66-.709-4.734.662-.877-.527-5.524.069-5.789,1.346-1.691,8.172,5.118,65.56,5.294,67.552.076.862,5.606.609,5.809-.482.741-3.983,4.877-42.548,5.214-46.522,1.77,5.786,13.432,41.621,13.7,42.967.174.872,5.241-.059,5.1-1.18" transform="translate(-22.411 -152.04)" fill="#b85d3f"/>
      <path id="パス_29288" data-name="パス 29288" d="M38.007,240.56c-.472-.864-2.367-4.656-3.674-3-.334.423-1.368,2.44-1.212,2.746.909,1.789,1.95,4.533,4.368,4.563,2.106.026,1.107-3.227.518-4.306" transform="translate(-23.027 -164.956)" fill="#f5bc8e"/>
      <path id="パス_29289" data-name="パス 29289" d="M19.306,92.732l-2.274-3.91c-.276-.475-.562-.947-.822-1.429.625-.361,1.26-.716,1.859-1.042l0,0c-1.925,1.046-8.916,4.208-9.885,5.123-1.807,1.7-3.546,6-7.5,16.013-1,2.526-1.525,10.466,2.914,17.079,2.146,3.2,4.565,8.506,6.316,11.246.718,1.124,1.928-2.994,1.928-2.994S16.69,136,18.9,135.047c1.22-.528,2.567-3.052,2.756-4.307.983-6.557.973-22.061.357-33.359l-2.7-4.648" transform="translate(0 -60.063)" fill="#2d304d"/>
      <path id="パス_29290" data-name="パス 29290" d="M117.282,98.616c-.348-1.413-2.555-2.966-4.212-3.158-1.091-.127-3.752,4.107-4.947,5.835-.439.636-2.078,2.613-2.562,3.281-.949-1.664-4.077-8.359-5.074-9.851-1.627-2.436-1.014-2.964-9.827-7.9l.051.035A42.283,42.283,0,0,1,90.465,92a18.716,18.716,0,0,1-2.923,9.122,1.878,1.878,0,0,1-.368.4l1.28,25.011s-.472,7.648,3.744,8.522c2,.414,5.923-.211,5.981-1.064.14-2.038-.247-18.065-.491-25.087,1.43,1.612,2.952,3.152,4.506,4.652a1.7,1.7,0,0,0,.5.337l1.761,1.377c5.327,3.805,12.965-16.083,12.824-16.653" transform="translate(-60.638 -60.392)" fill="#2d304d"/>
      <path id="パス_29291" data-name="パス 29291" d="M50.022,93.241c-.067-.339-.132-.678-.2-1.016l-1.729-2.973c-.276-.475-.562-.947-.822-1.429.509-.294,1.02-.58,1.517-.853v0c-1.436.789-3.027,1.721-4.133,2.458.525,4.132,1.562,8.357,4.2,11.5a1.384,1.384,0,0,0,2.3-.607,7.279,7.279,0,0,0-.323-2.98l-.805-4.1" transform="translate(-31.063 -60.493)" fill="#24263d"/>
      <path id="パス_29292" data-name="パス 29292" d="M93.427,86.818l.05.035A42.345,42.345,0,0,1,93.231,92a20.054,20.054,0,0,1-2.091,7.744,1.369,1.369,0,0,0,2.537.577A26.48,26.48,0,0,0,96.944,89.1a30.775,30.775,0,0,0-3.517-2.284" transform="translate(-63.396 -60.39)" fill="#24263d"/>
      <path id="パス_29293" data-name="パス 29293" d="M67.113,79.867l-.058-.04a9.157,9.157,0,0,0-1.778-.893,3.266,3.266,0,0,0-1.649-2.057c-.426-.176-.7.036-1.058.271-.59.384-1.166.79-1.738,1.2l-.23.016a7.407,7.407,0,0,0-3-1.521c-.444-.109-.587-.117-.9.2-.691.709-.959,1.825-1.6,2.629-.6.325-1.234.681-1.859,1.042.26.483.546.954.822,1.429a7.34,7.34,0,0,1,.37,1.989c0,.036.165.479.17.516.821,7.02,2.149,27.173,3.377,35.62.01.067-.066.253-.057.319a14.892,14.892,0,0,0,.76,3.491c.32.55,6.425,1.826,6.473-.823.016-.883.063-2.125.106-3.276,0-.029-.076-.357-.075-.386.363-9.757,1.471-27.406,1.966-34.063,0-.029.167-.333.169-.362.1-1.328.151-2,.174-2.256.138-1.585.025-1.116-.391-3.046" transform="translate(-37.04 -53.403)" fill="#517aa0"/>
      <path id="パス_29294" data-name="パス 29294" d="M75.364,101.019c.017-.023-.016-3.692,0-3.715a36.081,36.081,0,0,0-.495-5.022c-.077-.425-.167-.847-.267-1.267-.086-.4-.185-.8-.311-1.195a.3.3,0,0,0-.023-.041c-.053-.174-.105-.349-.164-.522-.261-.773-.661-1.523-.918-2.3a11.384,11.384,0,0,0,.967-.934c.227-.25.66-.624.746-.956.151-.581-1.84-2.8-2.042-2.58s-1.623,1.769-1.937,2.172a.294.294,0,0,0-.009.308c.488.681,1.006,1.334,1.554,1.966a14.1,14.1,0,0,0-1.1,5.279c.018,1.374-.371,6.853-.093,8.2.18.332,3.359,1.6,4.086.609" transform="translate(-49.298 -57.367)" fill="#446787"/>
      <path id="パス_29295" data-name="パス 29295" d="M64.171,130.031a17.182,17.182,0,0,0,3.767,6.683c.376-9.968,1.618-28.394,2.078-34.838a57.637,57.637,0,0,0-6.536,11.6,19.268,19.268,0,0,0-1.139-3.368,105.982,105.982,0,0,0-5.232-9.245c-.008-.013-.017-.025-.025-.038.795,6.585,2.255,27.891,3.516,36.493a24.238,24.238,0,0,0,3.572-7.292" transform="translate(-39.707 -70.137)" fill="#1e2033"/>
      <path id="パス_29296" data-name="パス 29296" d="M30.357,150.553c-.964-3.017-1.544-5.865-.492-8.95,1.493-4.378,5.7-8.971,2.821-13.667-.305-.5-1.089-.043-.784.459,1.86,3.058.288,6.055-1.121,8.914a21.619,21.619,0,0,0-2.351,6.285,15.968,15.968,0,0,0,1.047,7.2c.9,2.83,1.894,5.632,2.938,8.414.2.546,1.088.309.881-.243-1.043-2.782-2.033-5.584-2.938-8.414" transform="translate(-19.703 -88.842)" fill="#24263d"/>
    </g>
  </g>
</svg>
