<svg id="グループ_5913" data-name="グループ 5913" xmlns="http://www.w3.org/2000/svg" xmlns:xlink="http://www.w3.org/1999/xlink" width="81.543" height="144" viewBox="0 0 81.543 144">
  <defs>
    <clipPath id="clip-path">
      <rect id="長方形_10378" data-name="長方形 10378" width="81.543" height="144" fill="none"/>
    </clipPath>
  </defs>
  <g id="グループ_5912" data-name="グループ 5912" clip-path="url(#clip-path)">
    <path id="パス_29217" data-name="パス 29217" d="M53.987,407.654a11.96,11.96,0,0,0-1.21-3.987.984.984,0,0,0-1.678,0,4.3,4.3,0,0,0-.475.857.976.976,0,0,0-1.884-.068c-.317,1.3-1.676,2.03-2.685,2.755a30.02,30.02,0,0,0-3.218,2.368c-1.855,1.757-.714,4.1,1.9,3.227,1.37-.457,2.7-1.046,4.07-1.516q1.137-.39,2.286-.745a10.875,10.875,0,0,0,1.9-.623c1.158-.616,1.164-1.146.994-2.268" transform="translate(-28.691 -275.932)" fill="#2d304d"/>
    <path id="パス_29218" data-name="パス 29218" d="M94.336,405.649a.767.767,0,0,0-.627-.662,1.492,1.492,0,0,0-1.214-1.007c-.036-.005-.072-.008-.107-.011a.98.98,0,0,0-1.785-.726c-.591,1.011-4.475,2.112-4.872,2.275a1.769,1.769,0,0,0-1.016,1.6c-.154,1.573.841,1.673,2.368,1.881,1,.137,2.013.216,3.018.321a7.7,7.7,0,0,0,2.821.115c1.873-.548,1.632-2.275,1.414-3.79" transform="translate(-57.964 -275.644)" fill="#2d304d"/>
    <path id="パス_29219" data-name="パス 29219" d="M78.362,204.8a1.519,1.519,0,0,0-2.108-1.312,1.379,1.379,0,0,0-2.385.1c-.041.091-.079.183-.119.275l.122-.958c.12-.945-.854-1.516-1.7-1.425.051-.344.1-.687.153-1.031a1.507,1.507,0,0,0-1.018-1.793,1.47,1.47,0,0,0-1.793,1.018q-.263,1.36-.514,2.723a1.544,1.544,0,0,0-1.457-.374,1.582,1.582,0,0,0-1.644-.746,1.551,1.551,0,0,0-2.228-.213q-.759.7-1.477,1.426a1.286,1.286,0,0,0-1.283.013q.3-.546.611-1.091a1.577,1.577,0,0,0-1.122-2.223,1.432,1.432,0,0,0-2.237.289c-4.03,6.731-11.127,25.5-11.617,27.976-1.018,5.15,4.839,37.739,4.928,38.143.235,1.072,4.934-.569,4.923-.746.329-.827-1.307-27.068-2.62-36.833,1.018-1.316,8.689-10.886,11.377-14.456q.5-.567,1-1.144c-.15,4.765-1.025,22.357-1.044,26.186q-.033,1.916-.024,3.833c-.142,2.794-.915,20.688-.893,22.161.011.726,3.714,2.171,4.216.455.153-.524,6.818-33.5,8.71-47.973.529-4.046,1.36-8.186,1.241-12.278" transform="translate(-31.776 -135.915)" fill="#2d304d"/>
    <path id="パス_29220" data-name="パス 29220" d="M117.681,40.41c0-.006-.808.495-.81.489l-.032-.791a1.184,1.184,0,0,0-1.827-.946,1.2,1.2,0,0,0-.711.311,1.254,1.254,0,0,0-1.006.793c-.011.029-.019.058-.029.088a1.494,1.494,0,0,0-.287.156.907.907,0,0,0-.51.429.961.961,0,0,0-.629.567,1.1,1.1,0,0,0-.542.944c-.049,1.283.143,7.279.255,7.9.1.583,6.539-.027,6.536-.395-.024-2.918-.239-5.647-.409-9.546" transform="translate(-76.164 -26.678)" fill="#f5bc8e"/>
    <path id="パス_29221" data-name="パス 29221" d="M103.329,9.565a4.579,4.579,0,0,1,5.257-.1,2.086,2.086,0,0,1,.8.686c2.028,2.844,1.24,7.337-.08,10.312a8.226,8.226,0,0,1-2.919,3.846,3.015,3.015,0,0,1-1.865.414,2.618,2.618,0,0,1-1.84-.885,3.919,3.919,0,0,1-.691-.87,10.06,10.06,0,0,1-1.074-2.283,12.632,12.632,0,0,1-.393-5.637,7.8,7.8,0,0,1,2.81-5.481" transform="translate(-68.693 -5.941)" fill="#f5bc8e"/>
    <path id="パス_29222" data-name="パス 29222" d="M32.4,300.936c-.42-5.374-1.71-10.859-4.993-15.241-2.653-3.54-6.083-7.68-10.427-8.495a12.334,12.334,0,0,0-1.648-.266c-4.263-.465-8.138,2.173-10.446,5.68-2.573,3.909-3.817,8.835-4.454,13.422a45.913,45.913,0,0,0,4.492,26.98,39.871,39.871,0,0,0,3.655,5.916A10.786,10.786,0,0,0,13.834,333c4.4,1.427,9.092-.432,12.184-3.645,3.422-3.556,5.141-8.424,5.894-13.219a65.894,65.894,0,0,0,.49-15.2m-1.874,10.833c-.314,4.54-1.174,9.179-3.5,13.152-2.08,3.552-5.553,6.61-9.859,6.684a7.817,7.817,0,0,1-5.661-2.126,24.13,24.13,0,0,1-3.82-5.3,43.8,43.8,0,0,1-5.778-24.012,38.631,38.631,0,0,1,3.119-13.9c1.688-3.739,5.021-7.641,9.366-7.542.09,0,.386.069,1.25.152,3.931.375,7.1,4.1,9.6,7.071a24.024,24.024,0,0,1,4.941,11.918,62.767,62.767,0,0,1,.343,13.9" transform="translate(0 -189.487)" fill="#2d304d"/>
    <path id="パス_29223" data-name="パス 29223" d="M209.867,284.012c-.616-4.75-1.636-9.86-4.3-13.932a10.2,10.2,0,0,0-4.816-4.257,10.045,10.045,0,0,0-4.246-.147,8.031,8.031,0,0,0-3.62,1.579,13.316,13.316,0,0,0-2.969,4.807c-1.423,4.031-1.6,8.636-1.652,12.868a98.211,98.211,0,0,0,.947,14.159c.55,4.16.943,8.665,2.844,12.473a11.839,11.839,0,0,0,8.917,6.516,6.283,6.283,0,0,0,5.164-1.532,9.489,9.489,0,0,0,2.532-5.313,110.368,110.368,0,0,0,1.543-13.5,72.452,72.452,0,0,0-.346-13.719m-2.392,22.538c-.391,3.026-.457,8.258-3.979,9.485-3.314,1.155-7.278-1.415-9.056-4.08-1.964-2.942-2.433-6.626-2.954-10.045a116.121,116.121,0,0,1-1.272-12.253,64.835,64.835,0,0,1,.605-13.414,17.076,17.076,0,0,1,1.608-5.3c.455-.852,1.584-2.624,2.8-3.041a7.658,7.658,0,0,1,5.889.157A10.438,10.438,0,0,1,204.548,272a32.443,32.443,0,0,1,3.284,10.868c1.224,7.834.654,15.856-.357,23.679" transform="translate(-128.838 -181.714)" fill="#2d304d"/>
    <path id="パス_29224" data-name="パス 29224" d="M48.722,350.621a7.4,7.4,0,0,0-1.405-3.249,1.4,1.4,0,0,0-2.069-.335c-1.838.212-2,3.947-2.023,5.308a3.976,3.976,0,0,0,.866,3.026,2.721,2.721,0,0,0,2.686.619c2.137-.685,2.276-3.556,1.946-5.369m-2.512,3.771c-1.382.417-1.324-1.531-1.3-2.353a10.894,10.894,0,0,1,.178-1.754,4.432,4.432,0,0,1,.524-1.65l.044-.017a.764.764,0,0,0,.438-.07c.084.123.164.25.237.38a6.14,6.14,0,0,1,.441.933,6.536,6.536,0,0,1,.377,1.6c.085.858.117,2.608-.943,2.928" transform="translate(-29.579 -237.273)" fill="#2d304d"/>
    <path id="パス_29225" data-name="パス 29225" d="M223.585,335.674a1.814,1.814,0,0,0-2.222-.543,2.615,2.615,0,0,0-1.329,2.095,4.1,4.1,0,0,0-.069.712c.074,1.425.1,3.865,1.477,5.137a1.74,1.74,0,0,0,2.121.265,3.309,3.309,0,0,0,1.244-2.331,6.715,6.715,0,0,0-1.222-5.336m-.458,5.183c-.055.253-.176,1.066-.588.946-.3-.086-.434-1.05-.5-1.306a14.514,14.514,0,0,1-.306-3.225c.09-.347.254-.685.583-.486.312.188.538.955.639,1.259a5.361,5.361,0,0,1,.168,2.812" transform="translate(-150.536 -229.229)" fill="#2d304d"/>
    <path id="パス_29226" data-name="パス 29226" d="M103.224,189.477a49.749,49.749,0,0,1-11.593,3.009,9.91,9.91,0,0,0-1.069.161c-4.582.663-9.184,1.2-13.776,1.787-1.177.151-1.192,2.022,0,1.869,4.569-.586,9.146-1.129,13.708-1.775q.706,8.344,1.907,16.634a422.54,422.54,0,0,0-43.308-6.013c.251-1.681.518-3.361.7-5.048a5.287,5.287,0,0,0,.768.592,10.577,10.577,0,0,0,2.4,1.027c1.544.474,3.226,0,3.455-1.806a5.473,5.473,0,0,0-1.964-4.207,3.967,3.967,0,0,0-2.133-.758,10.7,10.7,0,0,1-2.964-.913c-1.648-.721-3.392-1.423-5.222-.981a3.394,3.394,0,0,0-2.085,1.325,1.275,1.275,0,0,0-.188.712,1.459,1.459,0,0,0,.089,1.312c.408.65,1.258.764,1.943.924a14.289,14.289,0,0,1,4.17,1.3c-.178,2.262-.555,4.5-.883,6.754-.015.1-.028.2-.043.307a1.083,1.083,0,0,0-.022.157c-.392,2.805-.643,5.623-.773,8.454-.281,6.139-.077,12.285-.183,18.426-.04,2.3-.128,4.595-.3,6.886l-.043-.008c-1.175-.227-1.585.887-.4,1.115.128.025.163.735.29.759-.056.6.853,1.261.784,1.858-.138,1.192.763,1.118.9-.065.056-.488.107-.976.154-1.464,2.9.492,5.82.857,8.753,1.078q2.88.217,5.769.254c.7.009,1.432-.027,2.163-.042a6.174,6.174,0,0,0-1.179,3.4,6.638,6.638,0,0,0,2.157,4.791,23.111,23.111,0,0,1-6.924-1.044q-6.405-1.622-12.808-3.258c-1.166-.3-2.329,1.1-1.162,1.4,4.327,1.1,9.317,2.615,13.646,3.707,3.661.923,8.012,1.9,11.489-.138q.239-.14.468-.3l.009.023a19.957,19.957,0,0,1,.559,4.514,4.075,4.075,0,0,0,2.075,3.426,11.1,11.1,0,0,0,1.715.7,4.631,4.631,0,0,0,2.784.675l.423.079c.836.151,1.674-.889.909-1.562a4.9,4.9,0,0,0-4.239-1.174,5.381,5.381,0,0,1-.9-.471c-1.226-.818-.922-2.64-1-3.911a10.843,10.843,0,0,0-.892-3.682,4.629,4.629,0,0,0,.851-1.855,6.252,6.252,0,0,0-1.331-4.746,5.413,5.413,0,0,0-1.2-1.182,1.017,1.017,0,0,0-.084-.331c-5.194-11.882-11.009-23.945-20.711-32.85a.969.969,0,0,0-.3-.193q.109-1.061.249-2.119a417.875,417.875,0,0,1,43.707,6.09,1.039,1.039,0,0,0,.149.017C93.949,221.4,96,231.585,98,239.735c.286,1.168,1.662-1.277,1.376-2.447a278.53,278.53,0,0,1-5.468-28.771c1.33.547,1.979-.719,2.17-2.166.436-1.895-.11-4.887-2.475-4.111-.034.011-.065.026-.1.038a1.983,1.983,0,0,0-.361.143q-.464-4.076-.806-8.166a49.348,49.348,0,0,0,11.381-2.976c1.094-.456.614-2.265-.5-1.8M70.285,246.6a2.958,2.958,0,0,1-.018,1.738,10.726,10.726,0,0,0-1.623-1.808c-.9-.795-2.224.522-1.322,1.322a9.508,9.508,0,0,1,1.775,2.087,5.015,5.015,0,0,1-.474.331c-.177.109-.359.208-.542.3a.888.888,0,0,0-.583-.209c-1.45-.02-2.52-2.363-2.574-3.579-.048-1.083.665-3.314,2-3.511.1.021.2.044.306.069a4.412,4.412,0,0,1,3.055,3.262m-3.042-5.185c-.075,0-.148,0-.222.006-2.119-.4-4.518-.122-6.576-.185a91.637,91.637,0,0,1-12.738-1.288c.713-9.495-.045-19.064.673-28.554,8.647,8.288,14.067,19.172,18.862,30.02m26.98-36.676a1.055,1.055,0,0,0,.024-.2,3.225,3.225,0,0,1,.075.378c.007.057.011.116.015.175q-.012.258-.049.514c-.037-.075-.062-.128-.063-.132a1.514,1.514,0,0,1,0-.738" transform="translate(-28.572 -129.62)" fill="#2d304d"/>
    <path id="パス_29227" data-name="パス 29227" d="M39.547,199.269a.841.841,0,0,0-1.328-.609c-1.164.835-2.957.673-3.624,2.143a3.22,3.22,0,0,0,1.507,3.835,1.11,1.11,0,0,0,1.506-.5,1.411,1.411,0,0,0,.06-1.016c-.042-.143-.489-.814-.463-.871-.051.109,1.036-.032,1.1-.04a3.158,3.158,0,0,0,1.025-.279,1.988,1.988,0,0,0,1.148-1.763.835.835,0,0,0-.929-.9" transform="translate(-23.543 -135.837)" fill="#f5bc8e"/>
    <path id="パス_29228" data-name="パス 29228" d="M113.683,8.185a10.569,10.569,0,0,0-4.319-.363,4.169,4.169,0,0,0-3.438,3.022,5.244,5.244,0,0,0,1.149,4.227c.835,1.049,2.035,1.849,2.711,3.018.846,1.466-.21,3.464.847,4.771,1.12,1.383,2.989.246,3.975-.688,1.078-1.022,1.785-2.369,2.921-3.337,1.313-1.121,2.376-2.077,2.459-3.922.157-3.459-3.324-5.915-6.3-6.727" transform="translate(-72.447 -5.289)" fill="#b85d3f"/>
    <path id="パス_29229" data-name="パス 29229" d="M172.73,195.286a2.264,2.264,0,0,0-.343-.033,2.765,2.765,0,0,0-.3-.263c-.356-.27-.782.059-.864.419a.575.575,0,0,0-.986.19c-.033-.054-.063-.109-.1-.162-.229-.356-.9-.388-1.044.053l-.006-.007a.6.6,0,0,0-.935.141.555.555,0,0,0-.817.347c-.273,1.059.884,2.34,1.5,3.121s1.814.607,2.68.3a2.389,2.389,0,0,0,1.276-1.035.59.59,0,0,0,.131-.032,1.559,1.559,0,0,0-.2-3.039" transform="translate(-114.495 -133.377)" fill="#f5bc8e"/>
    <path id="パス_29230" data-name="パス 29230" d="M86.935,106.562l-1.714-3.653c-1.485-3.166-.957-3.079-2.442-6.245a29.279,29.279,0,0,0-.233-8.259,34.681,34.681,0,0,0-3.185-9.348,14.471,14.471,0,0,0-5.9-6.628c-2.252-1.167-6.116-1.231-9.991,1.025-7.777,4.529-9.222,14.152-10.219,19.1-4.358,11.558-8.932,17.755-9.608,19.725a1.448,1.448,0,0,0,.375,1.418c3.158,3.2,6.727-1.329,8.725-3.512,1.109-1.212,2.2-2.452,3.222-3.737-.292,1.555-.6,3.11-.836,4.672-.269,1.75-.5,3.764,1.269,4.759,2.5,1.405,5.6,1.651,8.5,1.716l1.044.158a24.839,24.839,0,0,1,4.435.991,15.8,15.8,0,0,0,4.247,1.244c3.055.176,4.6-2.48,4.989-5.143a44.233,44.233,0,0,0,.428-5.419,11.616,11.616,0,0,0,1.569,2.534,1.49,1.49,0,0,0,2.289.3c1.291-1.11,4.441.2,4.377-2.438-.027-1.086-.889-2.289-1.34-3.251" transform="translate(-29.827 -49.022)" fill="#f7a354"/>
    <path id="パス_29231" data-name="パス 29231" d="M103.521,3.788a3.874,3.874,0,0,0-3.068-2.62C98.909.834,93.7-1.257,91.468,1.123c-.51.544-2.4,3.094-2.4,3.952-2.424-.589-3.8-.972-6.225-1.561a.7.7,0,0,0-.837.475l-.029.087a.685.685,0,0,0,.312.768c.027.014,4.078.946,6.583,1.554.027.032,5.362,1.419,6.938,1.879a73.334,73.334,0,0,0,7.045,2.049c.485.059,1.468-4.081.667-6.538" transform="translate(-56.084 0)" fill="#2d304d"/>
    <path id="パス_29232" data-name="パス 29232" d="M110.875,105.449c-.145-3.614-.37-7.226-.554-10.839q-.139-2.71-.277-5.419c-.081-1.592.155-4.266-.752-5.885-1.477-2.637-4.658-3.522-7.515-3.445a20.77,20.77,0,0,0-9.119,2,19.751,19.751,0,0,0-.885-2.744c-.05-.123-.156-.367-.156-.367l-1.6,1.2s.091.227.134.341a22.9,22.9,0,0,1,1.228,5.274,49.421,49.421,0,0,1,.463,8.25,15.831,15.831,0,0,1-2.157,7.753,28.812,28.812,0,0,1-3.409,4.3l-.244.265-.313,3.191.188-.205c1.425-1.55,2.924-3.086,4.212-4.768-.09,1.393-.212,3.246.488,4.435.735,1.249,2.56,1.429,3.846,1.655a37.117,37.117,0,0,0,5.1.508c1.408.051,9.338.123,10.641-2.123a4.748,4.748,0,0,0,.555-1.558,6.6,6.6,0,0,0,.134-1.812" transform="translate(-58.66 -53.892)" fill="#517aa0"/>
  </g>
</svg>
