<svg id="グループ_5909" data-name="グループ 5909" xmlns="http://www.w3.org/2000/svg" xmlns:xlink="http://www.w3.org/1999/xlink" width="85.191" height="144" viewBox="0 0 85.191 144">
  <defs>
    <clipPath id="clip-path">
      <rect id="長方形_10376" data-name="長方形 10376" width="85.191" height="144" fill="none"/>
    </clipPath>
  </defs>
  <g id="グループ_5908" data-name="グループ 5908" clip-path="url(#clip-path)">
    <path id="パス_29187" data-name="パス 29187" d="M72.7,247.417a1.93,1.93,0,0,0-.173-.3,2.133,2.133,0,0,0-.255-.3.444.444,0,0,0-.107-.268,7.089,7.089,0,0,0-2.255-1.951.461.461,0,0,0-.823-.148c-.556.836-1.775,2.274-1.319,3.363a5.625,5.625,0,0,0,2.768,2.243c1.185.547,1.719.623,2.409-.548a1.75,1.75,0,0,0-.245-2.094" transform="translate(-47.867 -172.79)" fill="#f9ebdb"/>
    <path id="パス_29188" data-name="パス 29188" d="M50.8,419.842l-3.127-.713,6.813-25.113,6.906,1.17Z" transform="translate(-33.723 -278.736)" fill="#f5bc8e"/>
    <path id="パス_29189" data-name="パス 29189" d="M37.588,479.172c.1-.282.184-.475-.085-.594a7.539,7.539,0,0,0-2.722-.807c-1.032-.041-1.837.028-2.939-.009-.817-.028-2.053,0-2.624.691a1.121,1.121,0,0,0-.143,1.235c.33.735,1.655.917,2.3,1.121,1.159.364,2.329.824,3.515,1.091,2.059.463,2.155-1.269,2.692-2.728" transform="translate(-20.484 -337.976)" fill="#2d304d"/>
    <path id="パス_29190" data-name="パス 29190" d="M237.569,403.183l-2.27,2.266L217.679,386.3l4.67-5.22Z" transform="translate(-153.992 -269.586)" fill="#f5bc8e"/>
    <path id="パス_29191" data-name="パス 29191" d="M273.555,455.95c-.183-.238-.3-.408-.547-.245a7.543,7.543,0,0,0-2.133,1.873c-.585.851-.956,1.569-1.574,2.482-.458.676-1.093,1.739-.814,2.588a1.121,1.121,0,0,0,.969.779c.8.112,1.658-.911,2.177-1.353.925-.788,1.939-1.532,2.8-2.393,1.489-1.5.074-2.5-.874-3.732" transform="translate(-189.886 -322.331)" fill="#2d304d"/>
    <path id="パス_29192" data-name="パス 29192" d="M111.167,28.891c-.863-3.545-1.546-7.645-4-10.482a1.254,1.254,0,0,0-.188-.175,15.594,15.594,0,0,0-2.864-7.042,3.583,3.583,0,0,0-1.433-1.168,1.233,1.233,0,0,0-1.432-.994c-3.817.693-5,5.355-5.439,8.61a22.5,22.5,0,0,0,.1,6.7c.288,1.753.926,3.456,2.755,4.069a5.338,5.338,0,0,0,3.858-.3l1.637,5.639a1.452,1.452,0,0,0,.088.226,1.072,1.072,0,0,0,1.425,1.021c1.574-.52,3.674-.852,5.041-1.812,1.5-1.055.822-2.809.461-4.29" transform="translate(-67.631 -6.372)" fill="#f5bc8e"/>
    <path id="パス_29193" data-name="パス 29193" d="M127.467,78.915a2.221,2.221,0,0,0-1.518-2.321c-1.453-.317-3.057,1.131-4.144,1.85a14.716,14.716,0,0,0-3.477,2.72,3.694,3.694,0,0,0-.78,1.609,11.971,11.971,0,0,1-.224,2.3c-.57,1.408,1.819,2.016,2.384.622a4.371,4.371,0,0,0,.235-1.649q3.475-1.549,6.818-3.334a1.027,1.027,0,0,0,.556-1.24.988.988,0,0,0,.149-.555" transform="translate(-82.937 -54.153)" fill="#f9ebdb"/>
    <path id="パス_29194" data-name="パス 29194" d="M110.4,4.52C108.159,2.25,104.484.836,101.414.2A7.277,7.277,0,0,0,99.082.038,2.244,2.244,0,0,0,97.6.28a15.7,15.7,0,0,0-1.817,1.3,8.627,8.627,0,0,0-1.913,1.629c-1.871,2.5.939,4.846,3.43,4.539a1.757,1.757,0,0,1,.1.212c.322.866-.029,2.037.145,2.949.008.041.019.081.028.122q-2.423-.1-4.844-.26.017-.276.033-.553a.485.485,0,0,0,0-.055q.049-.336.1-.672c.08-.552-.765-.791-.846-.233l-.524,3.593c-.08.544.734.8.846.233q.143-.72.25-1.443,2.664.178,5.332.284a2.111,2.111,0,0,0,.932.866c.722.336,1.718-.012,2.366.367,1.48.865,1,3.778,1.649,5.174a3.58,3.58,0,0,0,3.621,2.253c1.684-.281,2.595-1.671,3.018-3.342a5.806,5.806,0,0,0,.358-.509,8.659,8.659,0,0,0,.84-2.079,11.942,11.942,0,0,1,1.162-2.305A6.649,6.649,0,0,0,110.4,4.52" transform="translate(-64.715 0)" fill="#2d304d"/>
    <path id="パス_29195" data-name="パス 29195" d="M132.97,127.793c-1.532-5.881-5.926-10.317-9.306-15.168-3.725-5.345-5.7-11.5-7.759-17.616-1.032-3.07-2.111-6.127-3.442-9.083-.5-1.119-1.027-2.286-2.365-2.514-1.273-.216-6.553,3.515-7.73,4.692-1.879,1.878-5.319,9.174-6.749,15.756-1.537,7.073-1,14.559-.823,21.741q.069,2.729.166,5.458a21.622,21.622,0,0,0,.425,5.205,6.227,6.227,0,0,0,5.861,4.215c3.316.223,6.536-1.56,9.7-2.289a98.575,98.575,0,0,1,10.521-1.541c1.557-.185,3.114-.382,4.662-.637a16.4,16.4,0,0,0,4.605-1.134c2.756-1.362,2.921-4.429,2.229-7.086" transform="translate(-66.893 -59.002)" fill="#2d304d"/>
    <path id="パス_29196" data-name="パス 29196" d="M113.4,285.3a116.619,116.619,0,0,1-17.138-35.647A118.129,118.129,0,0,1,93.07,234.9a.979.979,0,0,0-1.44-.747c-1.162-4.261-7.063-4.542-10.642-3.218a14.342,14.342,0,0,0-6.017,4.2c-.294.352-.669.819-1.044,1.349a1.085,1.085,0,0,0-1.389.478A192.559,192.559,0,0,0,49.7,297.4a1.194,1.194,0,0,0,.817,1.439l5.45,1.394a1.186,1.186,0,0,0,1.439-.817c4.158-17.356,14.709-32.08,25.747-45.779,1.663,3.883,3.389,7.74,5.3,11.508a86.3,86.3,0,0,0,9.488,15.045A80.041,80.041,0,0,0,110,295.013c.392.374,1.8.159,2.056-.059,1.335-1.127,3.185-2.761,3.708-4.505.588-1.957-1.34-3.7-2.366-5.145" transform="translate(-35.143 -162.87)" fill="#2d304d"/>
    <path id="パス_29197" data-name="パス 29197" d="M93.748,114.8c-.323-1.164-1.355-2.289-2.552-1.759a1.1,1.1,0,0,0-1.7.3c-2.026,3.61-2.594,8.014-3.756,11.954a72.314,72.314,0,0,1-4.555,12.665c-1.893,3.681-4.715,6.725-7.132,10.052-.88,1.211-2.028,2.606-1.7,4.212a5.338,5.338,0,0,0,3.175,3.42c1.688.661,2.487-.723,3.414-1.9q2.171-2.764,4.264-5.587c2.435-3.289,4.87-6.613,6.986-10.119A31.378,31.378,0,0,0,94.6,127.14a29.655,29.655,0,0,0-.848-12.343" transform="translate(-51.144 -79.775)" fill="#2d304d"/>
    <path id="パス_29198" data-name="パス 29198" d="M114.223,126.611c-.358-2.788-2.113-6.975-5.683-5.759a.437.437,0,0,0-.226.167c-3.595,3.416-3.469,8.738-5.353,13.043a83.523,83.523,0,0,1-7.9,13.565c-.321.466.439.906.758.443a89.083,89.083,0,0,0,7.69-13.105c1.969-4.287,1.841-9.9,5.409-13.311,2.3-.665,3.66,1.7,4.16,3.614a13.855,13.855,0,0,1,.062,6.156,33.834,33.834,0,0,1-4.126,9.831,71.149,71.149,0,0,1-12.33,15.952c-.405.395.216,1.015.621.621a70.831,70.831,0,0,0,14.38-19.764c1.716-3.546,3.05-7.461,2.537-11.453" transform="translate(-67.196 -85.34)" fill="#20223b"/>
    <path id="パス_29199" data-name="パス 29199" d="M141.7,261.271c-3.432,1.843-7.389,1.48-11.133,1.993-3.818.524-7.549,2.87-11.469,2.033-.551-.117-.786.729-.233.847,4.212.9,8.083-1.561,12.187-2.065,3.768-.463,7.644-.2,11.091-2.05.5-.267.055-1.025-.443-.758" transform="translate(-83.864 -184.79)" fill="#20223b"/>
    <path id="パス_29200" data-name="パス 29200" d="M25.434,272.571q-1.171-.474-2.347-.939c-.086-2.566-1.014-5.142-3.713-5.991a5.6,5.6,0,0,0-5.972,1.988c-.7-.315-1.393-.635-2.083-.967-1.133-.546-2.642-1.57-3.747-1.1a1.122,1.122,0,0,0-.762.6A68.135,68.135,0,0,0,.76,279.032c-.595,1.927-1.481,4.011.265,5.54a22.981,22.981,0,0,0,5.792,3.2q3.542,1.607,7.184,2.978a40.8,40.8,0,0,0,7.207,2.424c2.17.365,2.925-2.308,3.734-3.839q1.813-3.427,3.456-6.943.757-1.618,1.475-3.253c.424-.964,1.1-2.071.9-3.164-.38-2.082-3.69-2.734-5.342-3.4m-9.952,2.357c.007-.091.012-.182.014-.273l.18.07c-.066.067-.13.135-.194.2M14.23,268a4.648,4.648,0,0,1,5.282-1.374c1.92.833,2.586,2.726,2.7,4.66-2.674-1.061-5.349-2.125-7.98-3.286" transform="translate(0 -187.754)" fill="#6c3636"/>
    <path id="パス_29201" data-name="パス 29201" d="M64.171,259.82a6.87,6.87,0,0,1-2.488-1.769,6.96,6.96,0,0,1-.834,1.2c-.458.5-1.1.669-1.6,1.11a1.9,1.9,0,0,0-.295,2.384c.738,1.379,3.08,2.8,3.964.945.442-.926,1.853-2.215,2.36-3.489a3.721,3.721,0,0,1-1.11-.376" transform="translate(-41.506 -182.552)" fill="#f5bc8e"/>
  </g>
</svg>
