<svg xmlns="http://www.w3.org/2000/svg" width="256" height="238" viewBox="0 0 256 238">
  <g id="グループ_6544" data-name="グループ 6544" transform="translate(-1008 -4122)">
    <path id="パス_33276" data-name="パス 33276" d="M0,0H256V204.887H0Z" transform="translate(1008 4122)" fill="#fff"/>
    <path id="パス_33284" data-name="パス 33284" d="M128,0,256,33.113H0Z" transform="translate(1264 4360) rotate(180)" fill="#fff"/>
    <path id="パス_33279" data-name="パス 33279" d="M15.7-14.86a8.016,8.016,0,0,1-1.84.18H5.04c-.66,0-1.98-.1-2.6-.18v3.42c.52-.04,1.62-.1,2.6-.1h8.8a11.235,11.235,0,0,1-2.2,5.16A13.088,13.088,0,0,1,3.78-1.76l2.64,2.9a16.4,16.4,0,0,0,8.14-5.62,21.073,21.073,0,0,0,3.02-7.24,9.936,9.936,0,0,1,.52-1.6Zm7.9-.68a15.449,15.449,0,0,1,.08,1.58v6.78c0,.62-.08,1.48-.1,1.88h3.6c-.04-.52-.08-1.36-.08-1.86v-6.8c0-.72.04-1.08.08-1.58Zm9.18-.18a15.82,15.82,0,0,1,.14,2.16v4.14c0,2.76-.28,4.18-1.62,5.6a9.4,9.4,0,0,1-4.92,2.44L28.92,1.3a12.494,12.494,0,0,0,4.9-2.88c1.52-1.6,2.46-3.6,2.46-7.62v-4.36c0-.88.04-1.56.08-2.16Zm8.94,9.94c.82-.06,2.32-.12,3.46-.12H55.8c.82,0,1.94.1,2.46.12V-9.6c-.58.04-1.56.14-2.46.14H45.18c-.98,0-2.66-.08-3.46-.14Zm34.18-8a1.067,1.067,0,0,1-1.06-1.06A1.067,1.067,0,0,1,75.9-15.9a1.067,1.067,0,0,1,1.06,1.06A1.067,1.067,0,0,1,75.9-13.78Zm-12.72-.7c-.66,0-1.98-.1-2.6-.18v3.42c.52-.04,1.62-.1,2.6-.1h8.8a11.235,11.235,0,0,1-2.2,5.16,13.088,13.088,0,0,1-7.86,4.62l2.64,2.9A16.4,16.4,0,0,0,72.7-4.28a21.073,21.073,0,0,0,3.02-7.24c.06-.24.14-.54.24-.84a2.508,2.508,0,0,0,2.42-2.48,2.492,2.492,0,0,0-2.48-2.48,2.492,2.492,0,0,0-2.48,2.48,1.14,1.14,0,0,0,.02.26,10.424,10.424,0,0,1-1.44.1Zm31.86,3.66a4.659,4.659,0,0,1-1.68.24H83.84c-.68,0-1.62-.06-2.54-.14V-7.6c.9-.08,2.04-.1,2.54-.1h9.1a7.852,7.852,0,0,1-1.86,2.9A13.71,13.71,0,0,1,84.2-1.38l2.42,2.74a15.316,15.316,0,0,0,7.14-4.42,15.428,15.428,0,0,0,2.98-5.46,7.767,7.767,0,0,1,.44-.96ZM83.18-12.48c.6-.06,1.56-.08,2.24-.08h7.54c.76,0,1.84.04,2.4.08V-15.6a22.449,22.449,0,0,1-2.36.12H85.42a19.174,19.174,0,0,1-2.24-.12Zm20.6-3.04-2.3,2.46a41.685,41.685,0,0,1,5.02,4.38l2.48-2.54A40.353,40.353,0,0,0,103.78-15.52ZM100.82-2.24l2.06,3.2a21.342,21.342,0,0,0,7.16-2.64,21.628,21.628,0,0,0,7.78-7.58l-1.88-3.42a19.326,19.326,0,0,1-7.64,8A20.581,20.581,0,0,1,100.82-2.24Z" transform="translate(1077 4192)" fill="#333"/>
    <path id="パス_33277" data-name="パス 33277" d="M-108.878-10.738v1.806c.406-.028,1.008-.042,1.456-.042h5.362c.5,0,1.162.014,1.54.042v-1.806a13.2,13.2,0,0,1-1.512.07h-5.39A11.8,11.8,0,0,1-108.878-10.738Zm9.534,4.06-1.246-.77a2.953,2.953,0,0,1-1.022.14h-6.93c-.434,0-1.036-.042-1.624-.084v1.82c.588-.056,1.288-.07,1.624-.07h6.762a6.074,6.074,0,0,1-1.442,2.422,9.443,9.443,0,0,1-4.844,2.45L-106.68.812a10.483,10.483,0,0,0,5-3.024A10.061,10.061,0,0,0-99.61-6.09,5.187,5.187,0,0,1-99.344-6.678Zm2.212,1.232.882,1.764A28.053,28.053,0,0,0-91.308-5.7v4.48a15.679,15.679,0,0,1-.1,1.834h2.212a9.625,9.625,0,0,1-.126-1.834V-6.874a25.679,25.679,0,0,0,3.766-3.038l-1.512-1.442a17.948,17.948,0,0,1-3.948,3.4A22.512,22.512,0,0,1-97.132-5.446Zm17.528,4.1a15.377,15.377,0,0,1-.14,1.96h2.184c-.056-.574-.126-1.554-.126-1.96V-5.306A40.437,40.437,0,0,1-72.632-3.22l.8-1.932a45.725,45.725,0,0,0-5.852-2.17V-9.394a15.221,15.221,0,0,1,.126-1.68h-2.184a9.718,9.718,0,0,1,.14,1.68Zm15.876-8.442v1.792a37.575,37.575,0,0,0,6.02,0V-9.8A28.788,28.788,0,0,1-63.728-9.786Zm1.12,5.978-1.61-.154a8.553,8.553,0,0,0-.238,1.82c0,1.442,1.162,2.3,3.57,2.3a19.827,19.827,0,0,0,3.612-.266L-57.3-2a16.549,16.549,0,0,1-3.514.364c-1.428,0-1.96-.378-1.96-.994A4.752,4.752,0,0,1-62.608-3.808Zm-3.276-6.916-1.96-.168c-.014.448-.1.98-.14,1.372a39.038,39.038,0,0,0-.588,5.544A17.9,17.9,0,0,0-68.026.6L-66.4.49c-.014-.2-.028-.42-.028-.574a4.225,4.225,0,0,1,.07-.658c.154-.742.616-2.268,1.008-3.43l-.868-.686c-.2.462-.42.952-.63,1.428a6.754,6.754,0,0,1-.056-.91,37.132,37.132,0,0,1,.672-5.138C-66.178-9.73-66-10.43-65.884-10.724ZM-49.546-5.25V-6.636h1.722V-5.25Zm5.11-1.386V-5.25h-1.736V-6.636Zm1.6,2.73V-7.994h-3.332v-.98h3.71v-1.512h-3.71V-11.76h-1.652v1.274H-51.24c.126-.308.252-.6.378-.9l-1.54-.5A14.861,14.861,0,0,1-55.79-6.664a11.017,11.017,0,0,1,.882,1.708A15.461,15.461,0,0,0-53.76-6.272V1.246h1.582v-9.9c.308-.532.588-1.064.84-1.61v1.288h3.514v.98h-3.22v4.088h3.122a4.55,4.55,0,0,1-.518,1.6,5.772,5.772,0,0,1-1.3-1.442l-1.358.42a8.064,8.064,0,0,0,1.722,2.086A6.457,6.457,0,0,1-51.926-.168,9.145,9.145,0,0,1-50.89,1.218a7.179,7.179,0,0,0,2.87-1.5,12.853,12.853,0,0,0,4.788,1.47,6.877,6.877,0,0,1,.994-1.484A14.038,14.038,0,0,1-47.026-1.47a6.622,6.622,0,0,0,.77-2.436Zm8.82-.532V-6.16h2.954v1.722Zm-4.354,0c.028-.518.042-1.022.042-1.47V-6.16H-35.7v1.722Zm2.674-4.9v1.624h-2.632V-9.338Zm4.634,1.624H-34.02V-9.338h2.954Zm1.652-3.206h-10.57v5c0,1.96-.126,4.452-1.652,6.132A6.149,6.149,0,0,1-40.32,1.288,8.017,8.017,0,0,0-38.556-2.87H-35.7V1.036h1.68V-2.87h2.954v2.1c0,.252-.1.336-.364.336s-1.176.014-1.96-.028a6.294,6.294,0,0,1,.532,1.6A6.5,6.5,0,0,0-30.17.84c.56-.252.756-.7.756-1.6Zm6.608-.182-2.254-.028a8.929,8.929,0,0,1,.182,1.89c0,1.2-.14,4.886-.14,6.762,0,2.394,1.484,3.4,3.78,3.4A7.247,7.247,0,0,0-15.162-2.3l-1.274-1.54A5.6,5.6,0,0,1-21.224-.98a1.692,1.692,0,0,1-1.932-1.876c0-1.736.112-4.872.168-6.384C-22.96-9.8-22.89-10.514-22.806-11.1ZM-5.782-3.416l-1.666-.168A9.79,9.79,0,0,0-7.7-1.708C-7.7-.294-6.426.518-4.074.518a22.474,22.474,0,0,0,2.856-.2l.07-1.792a16.43,16.43,0,0,1-2.912.294c-1.5,0-1.918-.462-1.918-1.078A4.8,4.8,0,0,1-5.782-3.416Zm-1.582-7.756-2.142-.168a7.177,7.177,0,0,1-.042,1.414q-.042.336-.126.8-.651.042-1.26.042A13.854,13.854,0,0,1-12.7-9.2l.042,1.75c.49.028,1.022.056,1.694.056.294,0,.6-.014.924-.028-.084.406-.2.8-.294,1.176a30.312,30.312,0,0,1-2.422,6.3l1.946.658A43.5,43.5,0,0,0-8.582-5.768c.154-.574.294-1.19.42-1.792a25.773,25.773,0,0,0,2.73-.462v-1.75c-.77.182-1.554.336-2.338.448.042-.2.084-.378.112-.532C-7.6-10.164-7.476-10.794-7.364-11.172Zm.826,4.228v1.638a24.054,24.054,0,0,1,2.7-.14,20.524,20.524,0,0,1,2.408.168l.042-1.68A24.619,24.619,0,0,0-3.85-7.084C-4.746-7.084-5.754-7.014-6.538-6.944ZM3.64-10.01l-2.156-.028A8.51,8.51,0,0,1,1.6-8.61c0,.854.014,2.492.154,3.78C2.142-1.078,3.472.308,5.012.308c1.12,0,2-.854,2.926-3.29L6.538-4.69c-.266,1.12-.826,2.758-1.484,2.758-.882,0-1.3-1.386-1.5-3.4-.084-1.008-.1-2.058-.084-2.968A11.327,11.327,0,0,1,3.64-10.01Zm7,.322-1.778.574c1.526,1.736,2.268,5.138,2.492,7.392l1.834-.714A15.556,15.556,0,0,0,10.64-9.688ZM27.314-8.036v-1.6h-5.53v-2.282H20.062v2.282H14.7v1.6h4c-.154,3-.476,6.188-4.256,7.938a5.322,5.322,0,0,1,1.176,1.414,8.218,8.218,0,0,0,4.494-5.964h3.85c-.2,2.548-.448,3.766-.812,4.074a.9.9,0,0,1-.672.182c-.406,0-1.386,0-2.352-.1a3.874,3.874,0,0,1,.588,1.638,19.175,19.175,0,0,0,2.394,0A2.067,2.067,0,0,0,24.626.5c.56-.616.854-2.184,1.106-5.992a6.811,6.811,0,0,0,.056-.728h-5.4c.07-.6.112-1.218.154-1.82Zm6.958-1.75v1.792a37.575,37.575,0,0,0,6.02,0V-9.8A28.788,28.788,0,0,1,34.272-9.786Zm1.12,5.978-1.61-.154a8.553,8.553,0,0,0-.238,1.82c0,1.442,1.162,2.3,3.57,2.3a19.827,19.827,0,0,0,3.612-.266L40.7-2a16.549,16.549,0,0,1-3.514.364c-1.428,0-1.96-.378-1.96-.994A4.752,4.752,0,0,1,35.392-3.808Zm-3.276-6.916-1.96-.168c-.014.448-.1.98-.14,1.372a39.038,39.038,0,0,0-.588,5.544A17.9,17.9,0,0,0,29.974.6L31.6.49c-.014-.2-.028-.42-.028-.574a4.225,4.225,0,0,1,.07-.658c.154-.742.616-2.268,1.008-3.43l-.868-.686c-.2.462-.42.952-.63,1.428a6.754,6.754,0,0,1-.056-.91,37.132,37.132,0,0,1,.672-5.138C31.822-9.73,32-10.43,32.116-10.724ZM48.1-11.368H46.172a11.267,11.267,0,0,1,.1,1.232c0,.238,0,.644-.014,1.134-.28.014-.56.028-.812.028a15.524,15.524,0,0,1-1.932-.112l.028,1.694a17.164,17.164,0,0,0,1.96.07c.224,0,.476-.014.742-.028v1.176c0,.322,0,.658.014.994-1.722.742-3.122,2.016-3.122,3.234,0,1.484,1.918,2.66,3.276,2.66.924,0,1.54-.462,1.54-2.2,0-.476-.028-1.568-.056-2.674a9.439,9.439,0,0,1,2.632-.392c1.218,0,2.058.56,2.058,1.512,0,1.022-.9,1.582-2.03,1.792a10.78,10.78,0,0,1-1.722.1L49.476.658A12.818,12.818,0,0,0,51.31.434C53.536-.126,54.4-1.372,54.4-3.024c0-1.932-1.694-3.052-3.85-3.052a11.6,11.6,0,0,0-2.688.364V-6.23c0-.406,0-.84.014-1.26.91-.112,1.876-.252,2.674-.434L50.512-9.66a17.146,17.146,0,0,1-2.576.5c.014-.35.028-.686.042-.994C48.006-10.514,48.062-11.116,48.1-11.368Zm3.99,1.512L51.324-8.5A22.275,22.275,0,0,1,54.7-6.454l.84-1.428A29.255,29.255,0,0,0,52.094-9.856Zm-7.238,7.84c0-.49.574-1.064,1.428-1.526.028.756.042,1.4.042,1.75,0,.476-.2.588-.448.588C45.514-1.2,44.856-1.582,44.856-2.016Zm20.286-9.268h-2.03a10.159,10.159,0,0,1,.14,1.218c.014.112.014.252.028.434-1.9.028-4.452.084-6.048.084l.042,1.694c1.722-.1,3.906-.182,6.02-.21.014.308.014.63.014.938a3.633,3.633,0,0,0-.56-.042,2.641,2.641,0,0,0-2.8,2.618,2.47,2.47,0,0,0,2.408,2.576,2.993,2.993,0,0,0,.63-.07,6.291,6.291,0,0,1-3.416,1.6l1.5,1.484c3.416-.952,4.48-3.276,4.48-5.1a3.563,3.563,0,0,0-.5-1.918c0-.616-.014-1.386-.014-2.1,1.9,0,3.206.028,4.046.07L69.09-9.66c-.728-.014-2.646.014-4.06.014.014-.168.014-.322.014-.434C65.058-10.3,65.114-11.06,65.142-11.284ZM61.628-4.578A1.054,1.054,0,0,1,62.706-5.7a1.032,1.032,0,0,1,.91.49c.2,1.232-.322,1.68-.91,1.68A1.045,1.045,0,0,1,61.628-4.578Zm17.514-6.706h-2.03a10.159,10.159,0,0,1,.14,1.218c.014.112.014.252.028.434-1.9.028-4.452.084-6.048.084l.042,1.694c1.722-.1,3.906-.182,6.02-.21.014.308.014.63.014.938a3.633,3.633,0,0,0-.56-.042,2.641,2.641,0,0,0-2.8,2.618,2.47,2.47,0,0,0,2.408,2.576,2.993,2.993,0,0,0,.63-.07,6.291,6.291,0,0,1-3.416,1.6l1.5,1.484c3.416-.952,4.48-3.276,4.48-5.1a3.563,3.563,0,0,0-.5-1.918c0-.616-.014-1.386-.014-2.1,1.9,0,3.206.028,4.046.07L83.09-9.66c-.728-.014-2.646.014-4.06.014.014-.168.014-.322.014-.434C79.058-10.3,79.114-11.06,79.142-11.284ZM75.628-4.578A1.054,1.054,0,0,1,76.706-5.7a1.032,1.032,0,0,1,.91.49c.2,1.232-.322,1.68-.91,1.68A1.045,1.045,0,0,1,75.628-4.578Zm18.158-6.4-1.932-.182a9.459,9.459,0,0,1-.112,1.33q-.042.315-.126.672a7.631,7.631,0,0,0-3.178.84c-.1-.294-.182-.588-.252-.854-.112-.42-.224-.882-.308-1.344l-1.834.574a8.884,8.884,0,0,1,.56,1.456c.126.378.238.756.378,1.134A6.121,6.121,0,0,0,84.91-2.926c0,1.806,1.064,2.786,2.226,2.786a3.6,3.6,0,0,0,2.758-1.484c.14.182.308.364.476.546L91.784-2.2a11.188,11.188,0,0,1-.77-.84,17.7,17.7,0,0,0,1.9-4.452A3.03,3.03,0,0,1,95.186-4.4c0,1.75-1.218,3.332-4.284,3.584L91.966.812C94.878.364,96.992-1.33,96.992-4.3A4.615,4.615,0,0,0,93.338-9.03c.042-.182.084-.35.126-.532C93.548-9.912,93.674-10.6,93.786-10.976Zm-7.238,7.91A4.23,4.23,0,0,1,87.584-5.7a15.08,15.08,0,0,0,1.3,2.688c-.518.63-1.036,1.064-1.54,1.064S86.548-2.38,86.548-3.066ZM88.942-6.79A5.61,5.61,0,0,1,91.2-7.574,16.128,16.128,0,0,1,89.95-4.55,14.377,14.377,0,0,1,88.942-6.79Zm16.212-4.97h-.35V-1.666a2.057,2.057,0,0,0-.882-.182c-1.148,0-2.422.938-2.422,1.932,0,.686.658,1.036,1.3,1.036a2.437,2.437,0,0,0,2.562-2.38V-8.288a3.275,3.275,0,0,1,2.562,3.234,7.3,7.3,0,0,1-.882,2.94h.364a6.641,6.641,0,0,0,1.176-3.416,4.473,4.473,0,0,0-1.806-3.15A4.091,4.091,0,0,1,105.154-11.76Z" transform="translate(1136 4155)" fill="#5096ff"/>
    <path id="パス_33278" data-name="パス 33278" d="M0,0H224" transform="translate(1024.5 4206.5)" fill="none" stroke="#f5f5f5" stroke-width="2"/>
    <path id="パス_33280" data-name="パス 33280" d="M-62.751-5.9v1.677h11.96V-5.9ZM-47.684-7.4A5.431,5.431,0,0,1-47.1-5.759l.975-.39a5.047,5.047,0,0,0-.663-1.612Zm-.13-.663h1.846v2.509c-.637.065-1.261.13-1.846.182Zm3.679,3.5-.039-1.183-.546.065V-9.256h-1.7c.182-.442.39-.975.585-1.508l-1.651-.26a13.269,13.269,0,0,1-.351,1.768h-1.183v4l-.91.078.156,1.235.754-.078a9.192,9.192,0,0,1-.91,4.459,4.772,4.772,0,0,1,1.04.676A11,11,0,0,0-47.814-4.16l1.846-.195V-.273c0,.156-.039.208-.2.208-.13,0-.559,0-.975-.013a4.611,4.611,0,0,1,.364,1.209A3.252,3.252,0,0,0-45.188.9c.377-.221.468-.559.468-1.144V-4.5Zm-2.366.572h-.884v2.964h.884Zm6.448-.182a6.217,6.217,0,0,1-1.144,1.9,6.625,6.625,0,0,1-1.066-1.9Zm.871-1.4-.247.052h-3.9a4,4,0,0,0,1.274-3.289V-9.2h1.378v1.547c0,.806.091,1.092.3,1.3a1.229,1.229,0,0,0,.871.325h.676a1.548,1.548,0,0,0,.7-.156.892.892,0,0,0,.442-.52,6.478,6.478,0,0,0,.182-1.339,3.69,3.69,0,0,1-1.1-.572c-.013.494-.026.9-.052,1.079s-.052.247-.1.273a.24.24,0,0,1-.169.052h-.208a.132.132,0,0,1-.13-.065,1.4,1.4,0,0,1-.013-.39v-2.873H-43.42v1.7a2.818,2.818,0,0,1-1.014,2.457,7.626,7.626,0,0,1,1.079.858H-43.9v1.352h1.586l-1.2.273a9.259,9.259,0,0,0,1.326,2.548,7.2,7.2,0,0,1-2.4,1.2,5.831,5.831,0,0,1,.819,1.287,9.16,9.16,0,0,0,2.613-1.4,7.079,7.079,0,0,0,2.717,1.391,5.6,5.6,0,0,1,.923-1.274,7.005,7.005,0,0,1-2.587-1.118,9.094,9.094,0,0,0,1.9-3.978Zm12.376-2.86-1.352-.676a4.673,4.673,0,0,1-1.209.169h-4.108a13.23,13.23,0,0,1-1.456-.1v1.833c.468-.039.949-.052,1.469-.052h4.485c-.026.845-.481,3.6-.728,5.018h-5.369a8.729,8.729,0,0,1-1.287-.1V-.468c.442-.039.9-.065,1.287-.065H-26.4a10.08,10.08,0,0,1,1.209.065V-2.353a10,10,0,0,1-1.209.1h-1.4c.247-1.456.715-4.42.871-5.6A5.6,5.6,0,0,1-26.806-8.437Zm3.718,2.418v2.041c.481-.039,1.352-.065,2.093-.065h6.981c.546,0,1.209.052,1.521.065V-6.019c-.338.026-.91.078-1.521.078H-21C-21.671-5.941-22.62-5.98-23.088-6.019ZM-.923-10.114l-.871.286a17.214,17.214,0,0,1,.663,1.781l.9-.286A13.181,13.181,0,0,0-.923-10.114ZM.416-10.53l-.884.286a11.643,11.643,0,0,1,.7,1.768l.9-.286C.962-9.256.663-10.01.416-10.53ZM-2.041-5.551V-5.98h.975c.676,0,1.131.013,1.417.039V-7.67a7.7,7.7,0,0,1-1.43.091h-.962V-8.944a8.35,8.35,0,0,1,.091-1.209H-3.809a8.579,8.579,0,0,1,.078,1.209v1.365H-6.812V-8.853a10.367,10.367,0,0,1,.078-1.183H-8.58c.039.4.078.793.078,1.17v1.287h-1.1a8.6,8.6,0,0,1-1.4-.117v1.768c.286-.013.754-.052,1.4-.052h1.1v1.768A10.514,10.514,0,0,1-8.58-2.847h1.82c-.013-.26-.052-.78-.052-1.365V-5.98h3.081v.494c0,3.2-1.105,4.316-3.614,5.2l1.391,1.313C-2.808-.364-2.041-2.327-2.041-5.551Zm4.693-.468v2.041C3.133-4.017,4-4.043,4.745-4.043h6.981c.546,0,1.209.052,1.521.065V-6.019c-.338.026-.91.078-1.521.078H4.745C4.069-5.941,3.12-5.98,2.652-6.019ZM17.5,2.626l1.2-.507a12.508,12.508,0,0,1-1.586-6.227,12.529,12.529,0,0,1,1.586-6.214l-1.2-.507a12.448,12.448,0,0,0-1.937,6.721A12.46,12.46,0,0,0,17.5,2.626ZM30.927-8.658l-1.274-.819a4.358,4.358,0,0,1-1.027.1H22.62c-.429,0-1.17-.065-1.56-.1v1.833c.338-.026.962-.052,1.547-.052h6.058A8.229,8.229,0,0,1,27.144-4.03a8.648,8.648,0,0,1-5.1,3.055L23.465.572a10.4,10.4,0,0,0,5.226-3.588,13.36,13.36,0,0,0,1.95-4.732A5.679,5.679,0,0,1,30.927-8.658Zm11.882-1.43H40.846a9.17,9.17,0,0,1,.078,1.3v2.47c0,2.028-.169,3-1.066,3.978A5.881,5.881,0,0,1,36.738-.7L38.09.728a7.654,7.654,0,0,0,3.159-1.872c.962-1.066,1.508-2.275,1.508-5.07V-8.788C42.757-9.308,42.783-9.724,42.809-10.088Zm-6.032.1H34.905a9.23,9.23,0,0,1,.052,1V-4.6c0,.39-.052.9-.065,1.144h1.885c-.026-.3-.039-.806-.039-1.131V-8.983C36.738-9.4,36.751-9.685,36.777-9.984Zm9.789,3.965v2.041c.481-.039,1.352-.065,2.093-.065H55.64c.546,0,1.209.052,1.521.065V-6.019c-.338.026-.91.078-1.521.078H48.659C47.983-5.941,47.034-5.98,46.566-6.019ZM60.229,2.626a12.359,12.359,0,0,0,1.95-6.734,12.347,12.347,0,0,0-1.95-6.721l-1.183.507a12.529,12.529,0,0,1,1.586,6.214,12.508,12.508,0,0,1-1.586,6.227Z" transform="translate(1136 4248)" fill="#adadad"/>
    <path id="パス_33283" data-name="パス 33283" d="M-11.36,2.912h1.568L-5.824-12.9H-7.376ZM.464-5.232C.528-5.9.56-6.576.576-7.184H6.992v1.952Zm6.528-5.712v1.952H.576v-1.952ZM9.008-12.8h-10.4v5.264c0,2.432-.224,5.488-2.64,7.552A7.515,7.515,0,0,1-2.56,1.392a8.607,8.607,0,0,0,2.7-4.784H6.992v2.32c0,.336-.128.464-.512.464-.352,0-1.7.016-2.816-.048a8.168,8.168,0,0,1,.8,2A9.679,9.679,0,0,0,8,.976C8.736.656,9.008.112,9.008-1.04Z" transform="translate(1159 4307)" fill="#333"/>
    <path id="パス_33281" data-name="パス 33281" d="M-8.992-12q0-5.5,2.128-8.672T0-23.84q4.736,0,6.864,3.168T8.992-12q0,5.568-2.128,8.736T0-.1q-4.736,0-6.864-3.168T-8.992-12ZM3.616-12a13.8,13.8,0,0,0-.7-4.976A2.816,2.816,0,0,0,0-18.72a2.816,2.816,0,0,0-2.912,1.744A13.8,13.8,0,0,0-3.616-12,20.92,20.92,0,0,0-3.36-8.4,4.606,4.606,0,0,0-2.32-6.1,2.946,2.946,0,0,0,0-5.216,2.946,2.946,0,0,0,2.32-6.1,4.606,4.606,0,0,0,3.36-8.4,20.92,20.92,0,0,0,3.616-12Z" transform="translate(1135 4308)" fill="#333"/>
    <path id="パス_33282" data-name="パス 33282" d="M3.176-10.594,1.8-8.133h4.8v1.242H1.547V.047h-3.27V-6.891H-6.668V-8.133h4.676l-1.336-2.461h-3.34v-1.242h2.637l-3.691-6.738h3.6l3.7,6.926q.129.234.574,1.125.3-.633.6-1.148l3.586-6.9h3.3L3.879-11.836h2.73v1.242Z" transform="translate(1113 4308)" fill="#333"/>
  </g>
</svg>
