<svg xmlns="http://www.w3.org/2000/svg" width="216.838" height="16.975" viewBox="0 0 216.838 16.975">
  <g id="グループ_6523" data-name="グループ 6523" transform="translate(2869.176 -1146.315)">
    <g id="グループ_6522" data-name="グループ 6522" transform="translate(-79.176 -12)">
      <path id="パス_33244" data-name="パス 33244" d="M-55.278-12.348l.234,2.466c2.088-.45,5.76-.846,7.452-1.026a7.2,7.2,0,0,0-2.682,5.562c0,3.906,3.564,5.922,7.344,6.174l.846-2.466c-3.06-.162-5.832-1.224-5.832-4.194a5.47,5.47,0,0,1,3.816-5.04,18.7,18.7,0,0,1,3.474-.252l-.018-2.3c-1.278.054-3.24.162-5.094.324-3.294.27-6.264.54-7.776.666C-53.856-12.4-54.558-12.366-55.278-12.348ZM-43.2-9.36l-1.332.558a13.888,13.888,0,0,1,1.4,2.5l1.368-.612A22.342,22.342,0,0,0-43.2-9.36Zm2.016-.828-1.314.612a15.835,15.835,0,0,1,1.476,2.43l1.35-.648A26.926,26.926,0,0,0-41.184-10.188Zm4.986-2.16.234,2.466c2.088-.45,5.76-.846,7.452-1.026a7.2,7.2,0,0,0-2.682,5.562c0,3.906,3.564,5.922,7.344,6.174L-23-1.638c-3.06-.162-5.832-1.224-5.832-4.194a5.47,5.47,0,0,1,3.816-5.04,18.7,18.7,0,0,1,3.474-.252l-.018-2.3c-1.278.054-3.24.162-5.094.324-3.294.27-6.264.54-7.776.666C-34.776-12.4-35.478-12.366-36.2-12.348ZM-24.12-9.36l-1.332.558a13.888,13.888,0,0,1,1.4,2.5l1.368-.612A22.342,22.342,0,0,0-24.12-9.36Zm2.016-.828-1.314.612a15.835,15.835,0,0,1,1.476,2.43l1.35-.648A26.925,26.925,0,0,0-22.1-10.188Zm6.372,1.044.126,2.124A66.94,66.94,0,0,0-7.776-7c.288.612.63,1.242,1.008,1.872-.54-.054-1.512-.144-2.268-.216l-.18,1.71c1.314.144,3.258.378,4.266.576l1.1-1.656a5.487,5.487,0,0,1-.81-.918,16.381,16.381,0,0,1-.936-1.6,24.119,24.119,0,0,0,2.88-.558l-.36-2.124a23.238,23.238,0,0,1-3.438.72c-.108-.288-.216-.558-.306-.81-.09-.27-.18-.558-.27-.846A26.241,26.241,0,0,0-3.78-11.52l-.288-2.07a20.688,20.688,0,0,1-3.546.774q-.189-.918-.324-1.89l-2.412.27c.216.63.4,1.206.576,1.782a37.442,37.442,0,0,1-5.634-.27l.126,2.07a42.085,42.085,0,0,0,6.066.162c.108.306.216.648.36,1.062.072.2.144.414.234.63A46.126,46.126,0,0,1-15.732-9.144Zm3.456,4.176L-14.508-5.4a5.977,5.977,0,0,0-.774,2.9c.036,2.574,2.268,3.636,5.868,3.636A27.647,27.647,0,0,0-5.04.792l.126-2.286a23.691,23.691,0,0,1-4.518.4c-2.376,0-3.636-.54-3.636-1.872A3.378,3.378,0,0,1-12.276-4.968ZM7.38-2.124c0-.45.432-.864,1.116-.864.972,0,1.638.756,1.746,1.926A9.4,9.4,0,0,1,9.2-1.008C8.118-1.008,7.38-1.458,7.38-2.124ZM4.32-13.716l.072,2.34c.414-.054.99-.108,1.476-.144.954-.054,3.438-.162,4.356-.18-.882.774-2.754,2.286-3.762,3.114C5.4-7.7,3.222-5.868,1.944-4.842L3.582-3.15C5.508-5.346,7.308-6.8,10.062-6.8c2.124,0,3.744,1.1,3.744,2.718a2.609,2.609,0,0,1-1.494,2.448A3.6,3.6,0,0,0,8.478-4.716,3.016,3.016,0,0,0,5.256-1.908c0,1.8,1.89,2.952,4.392,2.952,4.356,0,6.516-2.25,6.516-5.094,0-2.628-2.322-4.536-5.382-4.536a7.032,7.032,0,0,0-1.71.2c1.134-.9,3.024-2.484,4-3.168.414-.306.846-.558,1.26-.828l-1.17-1.6a7.865,7.865,0,0,1-1.368.2c-1.026.09-4.878.162-5.832.162A12.491,12.491,0,0,1,4.32-13.716Zm19.044.63v2.376c1.458.126,3.024.2,4.914.2,1.71,0,3.942-.108,5.2-.216v-2.394c-1.386.144-3.438.252-5.22.252A47.219,47.219,0,0,1,23.364-13.086Zm1.512,7.632L22.518-5.67a11.644,11.644,0,0,0-.36,2.592c0,2.466,2.07,3.852,6.192,3.852A27.737,27.737,0,0,0,34.6.162l-.018-2.538a24.715,24.715,0,0,1-6.318.72c-2.592,0-3.69-.828-3.69-1.98A6.632,6.632,0,0,1,24.876-5.454ZM44.46-14.346l-2.25.918c.81,1.908,1.674,3.834,2.5,5.364-1.728,1.278-2.988,2.772-2.988,4.752,0,3.1,2.718,4.086,6.3,4.086A33.429,33.429,0,0,0,53.8.324l.036-2.592a27.788,27.788,0,0,1-5.886.666c-2.5,0-3.744-.684-3.744-1.98,0-1.26,1.008-2.286,2.5-3.276a53.28,53.28,0,0,1,5.022-2.664c.666-.342,1.242-.648,1.782-.972l-1.242-2.088a11.248,11.248,0,0,1-1.674,1.1c-.846.486-2.412,1.26-3.888,2.124A42.757,42.757,0,0,1,44.46-14.346Z" transform="translate(-2627 1173.5)" fill="#333"/>
      <g id="グループ_2240" data-name="グループ 2240" transform="translate(-3359.828 757.115)">
        <path id="パス_1885" data-name="パス 1885" d="M13.171-36.986a13.214,13.214,0,0,1-5.436,1.27H7.312V-51.533H5.04v16.217h7.752l.423-1.671Zm1.894,1.671h2.272V-51.533H15.065Zm12.987.267a8.2,8.2,0,0,0,8.577-8.532c0-5.124-3.653-8.22-8.287-8.22a8.2,8.2,0,0,0-8.577,8.532C19.765-38.144,23.418-35.048,28.052-35.048ZM28.3-35.4c-3.564,0-6.037-3.252-6.037-8.109,0-4.767,2.317-7.93,5.9-7.93,3.5,0,5.97,3.252,5.97,8.109C34.133-38.545,31.817-35.4,28.3-35.4ZM49.281-51.533a41.757,41.757,0,0,1,.446,7.084v5.48L40.816-51.533h-2.7v.067l1.092,1.515V-42.4a44.235,44.235,0,0,1-.446,7.084H40.1a41.757,41.757,0,0,1-.446-7.084v-6.928L49.972-35.048h.2v-9.4a44.235,44.235,0,0,1,.446-7.084Zm14.524,0H58.125v16.217h5.3c5.5,0,8.978-3.052,8.978-8.287C72.4-48.748,68.952-51.533,63.806-51.533Zm0,15.861a17.778,17.778,0,0,1-3.408-.2v-15.3h3.208c3.832,0,6.3,3.1,6.3,7.685C69.91-38.5,67.682-35.672,63.806-35.672Zm18.579.624a8.2,8.2,0,0,0,8.577-8.532c0-5.124-3.653-8.22-8.287-8.22A8.2,8.2,0,0,0,74.1-43.268C74.1-38.144,77.751-35.048,82.385-35.048Zm.245-.356c-3.564,0-6.037-3.252-6.037-8.109,0-4.767,2.317-7.93,5.9-7.93,3.5,0,5.97,3.252,5.97,8.109C88.466-38.545,86.149-35.4,82.63-35.4Zm17.42-7.8c2.116-.735,3.9-1.938,3.9-4.233,0-2.762-2.294-4.1-6.572-4.1H93.389v16.217h2.272v-7.329h1.493a1.238,1.238,0,0,1,1.158.468l6.594,7.351h.134v-2.829Zm-2.339.2a16.629,16.629,0,0,1-2.049-.134v-8.042h1.626c2.941,0,4.366,1.537,4.366,3.9A3.991,3.991,0,0,1,97.711-43Z" transform="translate(564.788 453)"/>
      </g>
    </g>
  </g>
</svg>
