<svg xmlns="http://www.w3.org/2000/svg" width="160" height="160" viewBox="0 0 160 160">
  <g id="グループ_6523" data-name="グループ 6523" transform="translate(-218 -8486)">
    <g id="長方形_10521" data-name="長方形 10521" transform="translate(218 8486)" fill="#fff" stroke="#ff8e6f" stroke-width="4">
      <rect width="160" height="160" stroke="none"/>
      <rect x="2" y="2" width="156" height="156" fill="none"/>
    </g>
    <g id="グループ_6522" data-name="グループ 6522" transform="translate(-303 742.775)">
      <path id="パス_1885" data-name="パス 1885" d="M16.413-31.079A18.484,18.484,0,0,1,8.81-29.3H8.218V-51.426H5.04v22.684H15.884l.592-2.337Zm2.649,2.337H22.24V-51.426H19.062Zm18.166.374c6.762,0,12-4.643,12-11.934,0-7.167-5.11-11.5-11.591-11.5-6.762,0-12,4.643-12,11.934C25.636-32.7,30.747-28.368,37.228-28.368Zm.343-.5c-4.986,0-8.444-4.549-8.444-11.342,0-6.668,3.241-11.093,8.257-11.093,4.892,0,8.351,4.549,8.351,11.342C45.734-33.26,42.494-28.867,37.571-28.867Zm29.352-22.56a58.406,58.406,0,0,1,.623,9.909v7.665L55.082-51.426h-3.77v.093l1.527,2.119v10.563a61.875,61.875,0,0,1-.623,9.909h1.87a58.407,58.407,0,0,1-.623-9.909v-9.691L67.889-28.368h.28V-41.517a61.872,61.872,0,0,1,.623-9.909Zm20.316,0H79.293v22.684h7.416c7.7,0,12.557-4.269,12.557-11.591C99.267-47.531,94.437-51.426,87.239-51.426Zm0,22.186a24.866,24.866,0,0,1-4.767-.28V-50.928h4.487c5.359,0,8.818,4.331,8.818,10.75C95.777-33.2,92.661-29.24,87.239-29.24Zm25.987.872c6.762,0,12-4.643,12-11.934,0-7.167-5.11-11.5-11.591-11.5-6.762,0-12,4.643-12,11.934C101.635-32.7,106.745-28.368,113.226-28.368Zm.343-.5c-4.986,0-8.444-4.549-8.444-11.342,0-6.668,3.241-11.093,8.257-11.093,4.892,0,8.351,4.549,8.351,11.342C121.733-33.26,118.492-28.867,113.569-28.867Zm24.367-10.906c2.96-1.028,5.453-2.711,5.453-5.92,0-3.864-3.209-5.733-9.192-5.733h-5.578v22.684H131.8V-38.993h2.088a1.732,1.732,0,0,1,1.62.654l9.223,10.283h.187v-3.957Zm-3.272.28a23.26,23.26,0,0,1-2.867-.187V-50.928h2.275c4.113,0,6.107,2.15,6.107,5.453C140.179-42.234,138.06-39.492,134.664-39.492Z" transform="translate(526.084 7856.024)"/>
      <path id="パス_1886" data-name="パス 1886" d="M3.867-8.882a3.065,3.065,0,0,0,2.706-1.549l-.107-.062a2.564,2.564,0,0,1-2.2,1.22c-1.433,0-2.511-1.157-2.511-3.125,0-1.736.89-3.036,2.252-3.036a2.417,2.417,0,0,1,2.03,1.3l.445-.4a3.248,3.248,0,0,0-2.43-1.042,3.2,3.2,0,0,0-3.294,3.4A3.058,3.058,0,0,0,3.867-8.882Zm7.576-3.258c.846-.294,1.558-.775,1.558-1.692,0-1.1-.917-1.638-2.626-1.638H8.781v6.481h.908v-2.929h.6a.5.5,0,0,1,.463.187l2.635,2.938h.053V-9.924Zm-.935.08a6.646,6.646,0,0,1-.819-.053v-3.214h.65c1.175,0,1.745.614,1.745,1.558A1.6,1.6,0,0,1,10.509-12.06Zm9.214,2.475a7.534,7.534,0,0,1-2.564.436h-.516v-3.134h.41a5.729,5.729,0,0,1,1.87.214h.018v-.552h-.018a6.094,6.094,0,0,1-1.87.178h-.41V-15.31h.49a7.621,7.621,0,0,1,2.422.4h.018l-.107-.561h-3.73v6.481h3.837l.169-.6Zm6.125.6h.988l-2.7-6.624H24.1l-1.549,3.784c-.463,1.122-.8,1.95-1.229,2.84h.614a6.708,6.708,0,0,1,.525-2.128h2.528Zm-3.321-2.288.2-.49,1.006-2.484,1.2,2.974Zm9.722-4.193H27.637l-.125.632h.018a3.9,3.9,0,0,1,1.745-.472h.214v6.321H30.4V-15.31h.2a3.9,3.9,0,0,1,1.745.472h.018Zm6.294,5.885a7.535,7.535,0,0,1-2.564.436h-.516v-3.134h.41a5.729,5.729,0,0,1,1.87.214h.018v-.552h-.018a6.094,6.094,0,0,1-1.87.178h-.41V-15.31h.49a7.621,7.621,0,0,1,2.422.4h.018l-.107-.561h-3.73v6.481h3.837l.169-.6Zm4.549-5.885h-2.27v6.481h2.119c2.2,0,3.588-1.22,3.588-3.312C46.529-14.357,45.149-15.47,43.093-15.47Zm0,6.339a7.1,7.1,0,0,1-1.362-.08v-6.116h1.282c1.531,0,2.519,1.237,2.519,3.071C45.532-10.262,44.642-9.131,43.093-9.131ZM55.138-12.4v-.018a1.7,1.7,0,0,0,1.567-1.54c0-.935-.757-1.513-2.243-1.513H52.316v6.481h2.092c1.718,0,2.689-.686,2.689-1.781C57.1-11.758,56.233-12.327,55.138-12.4Zm.605-1.46a1.342,1.342,0,0,1-1.371,1.46H53.224v-2.929h1.015A1.374,1.374,0,0,1,55.743-13.859Zm-1.6,4.727a5.939,5.939,0,0,1-.917-.062v-3.063h1.3A1.491,1.491,0,0,1,56.1-10.645C56.1-9.692,55.5-9.131,54.141-9.131Zm9.535-6.339h-.561a10.428,10.428,0,0,1-1.131,2.564l-.463.819L59.616-15.47H58.574l2.119,3.7v2.778H61.6v-2.884l.543-.953C62.705-13.832,63.142-14.589,63.676-15.47ZM71.8-12.4v-.018a1.7,1.7,0,0,0,1.567-1.54c0-.935-.757-1.513-2.243-1.513H68.982v6.481h2.092c1.718,0,2.689-.686,2.689-1.781C73.762-11.758,72.9-12.327,71.8-12.4Zm.605-1.46a1.342,1.342,0,0,1-1.371,1.46H69.89v-2.929H70.9A1.374,1.374,0,0,1,72.409-13.859Zm-1.6,4.727a5.939,5.939,0,0,1-.917-.062v-3.063h1.3a1.491,1.491,0,0,1,1.576,1.611C72.765-9.692,72.169-9.131,70.807-9.131Zm7.309.249a2.359,2.359,0,0,0,2.43-2.493,2.275,2.275,0,0,0-2.35-2.448,2.366,2.366,0,0,0-2.43,2.5A2.267,2.267,0,0,0,78.116-8.882Zm.053-.125c-.881,0-1.5-.944-1.5-2.368,0-1.407.579-2.324,1.469-2.324s1.5.953,1.5,2.377C79.638-9.924,79.06-9.007,78.169-9.007Zm4.647.018h.846V-16.2h-.036l-.81.267Zm3.8-5.573.605-.605-.605-.605-.605.605ZM86.2-8.989h.837v-4.825H87l-.8.24Zm7.763-.169-.2-.641v-6.4h-.036l-.81.267v2.6a1.918,1.918,0,0,0-1.309-.49,2.382,2.382,0,0,0-2.3,2.555,2.158,2.158,0,0,0,2.03,2.386,2.143,2.143,0,0,0,1.594-.757l.231.73Zm-2.341-.018c-.81,0-1.4-.73-1.4-2.181,0-1.433.6-2.315,1.469-2.315a1.339,1.339,0,0,1,1.229.9v2.929A1.762,1.762,0,0,1,91.621-9.176Zm8.725-2.511a1.864,1.864,0,0,0-1.923-2.137,2.366,2.366,0,0,0-2.395,2.546,2.211,2.211,0,0,0,2.217,2.395,2.378,2.378,0,0,0,2.048-1.175l-.107-.062a1.959,1.959,0,0,1-1.576.855c-.962,0-1.683-.783-1.683-2.261v-.16Zm-1.994-2c.757,0,1.237.739,1.184,1.861h-2.6C97.025-12.915,97.577-13.689,98.352-13.689Zm4.184.677h.089l.329-2.564h-.748Zm4.024,4.131c1.14,0,1.816-.6,1.816-1.407,0-.881-.81-1.22-1.371-1.451l-.356-.151c-.5-.214-1.113-.436-1.113-1,0-.436.356-.81,1.006-.81a2.261,2.261,0,0,1,1.5.668l.125-.418a3.361,3.361,0,0,0-1.54-.374c-1.015,0-1.656.552-1.656,1.3,0,.846.792,1.175,1.371,1.424l.365.151c.561.231,1.1.463,1.1,1.033,0,.534-.454.908-1.157.908a2.143,2.143,0,0,1-1.638-.757l-.134.454A3.412,3.412,0,0,0,106.56-8.882ZM112.8-7.653a3.086,3.086,0,0,0,2.172-3.365V-15.47h-.908v4.523c0,1.638-.142,2.457-1.327,3.187Zm8.5-1.531c-.436,0-.436-.249-.436-.677V-12.14a1.469,1.469,0,0,0-1.656-1.683,2.386,2.386,0,0,0-1.745.73l.08.1a2,2,0,0,1,1.335-.534c.881,0,1.14.588,1.14,1.469v.507c-.267.027-.552.045-.872.08-1.22.134-2.012.65-2.012,1.478a1.112,1.112,0,0,0,1.246,1.1,2.489,2.489,0,0,0,1.647-.686.651.651,0,0,0,.7.659,1.451,1.451,0,0,0,.739-.223V-9.2A.986.986,0,0,1,121.3-9.185Zm-2.457-.036a.83.83,0,0,1-.872-.917c0-.864.837-1.157,2.048-1.282v1.665A1.728,1.728,0,0,1,118.846-9.22Zm7.1-4.6a2.143,2.143,0,0,0-1.576.748v-.739h-.036l-.81.24v6.615h.846V-9.372a1.918,1.918,0,0,0,1.309.49,2.374,2.374,0,0,0,2.3-2.546A2.161,2.161,0,0,0,125.941-13.823Zm-.347,4.8a1.335,1.335,0,0,1-1.229-.908v-2.92a1.778,1.778,0,0,1,1.318-.677c.8,0,1.38.73,1.38,2.181C127.063-9.915,126.467-9.024,125.594-9.024Zm8.369-.16c-.436,0-.436-.249-.436-.677V-12.14a1.469,1.469,0,0,0-1.656-1.683,2.386,2.386,0,0,0-1.745.73l.08.1a2,2,0,0,1,1.335-.534c.881,0,1.14.588,1.14,1.469v.507c-.267.027-.552.045-.872.08-1.22.134-2.012.65-2.012,1.478a1.112,1.112,0,0,0,1.246,1.1,2.489,2.489,0,0,0,1.647-.686.651.651,0,0,0,.7.659,1.451,1.451,0,0,0,.739-.223V-9.2A.986.986,0,0,1,133.963-9.185Zm-2.457-.036a.83.83,0,0,1-.872-.917c0-.864.837-1.157,2.048-1.282v1.665A1.728,1.728,0,0,1,131.506-9.22Zm7.247-4.6a2.369,2.369,0,0,0-1.727.775v-.766h-.036l-.81.24v4.585h.846V-12.87a1.907,1.907,0,0,1,1.362-.632c1.042,0,1.042.979,1.042,1.344v3.169h.846V-12.14C140.275-13.289,139.741-13.823,138.753-13.823Z" transform="translate(530.24 7848.734)" fill="#333"/>
    </g>
  </g>
</svg>
