<svg id="グループ_6365" data-name="グループ 6365" xmlns="http://www.w3.org/2000/svg" xmlns:xlink="http://www.w3.org/1999/xlink" width="200" height="199.973" viewBox="0 0 200 199.973">
  <defs>
    <clipPath id="clip-path">
      <rect id="長方形_10561" data-name="長方形 10561" width="200" height="199.973" fill="none"/>
    </clipPath>
  </defs>
  <g id="グループ_6364" data-name="グループ 6364" clip-path="url(#clip-path)">
    <path id="パス_30653" data-name="パス 30653" d="M193.174,136.865q-.264.659-.54,1.319-1.746,4.17-3.836,8.086-.575,1.083-1.181,2.145-1.33,2.355-2.786,4.613a96.842,96.842,0,0,1-6.887,9.407C154.492,190.73,116.3,204.3,81.47,198.751c-24.477-3.9-48.692-17.459-64.273-36.133a84.863,84.863,0,0,1-5.349-7.122A67.427,67.427,0,0,1,.33,124.983c-.417-3.992-2.253-25.579,10.631-44.19.294-.423.586-.833.879-1.232a43.823,43.823,0,0,1,4.605-5.355c8.867-8.731,18.246-9.88,31.981-23.7C69.347,29.452,63.356,16.258,77.672,6.51,98.048-7.365,134.754,2.637,159.34,20.542l0,0q.752.547,1.487,1.106h0q2.19,1.655,4.231,3.393a92.363,92.363,0,0,1,7.316,6.951q2.9,3.069,5.552,6.412A101.544,101.544,0,0,1,188.8,55.352a103.553,103.553,0,0,1,4.518,10.173c8.374,21.956,9.484,47.329-.142,71.341" transform="translate(0 0)" fill="#caddff"/>
    <path id="パス_30654" data-name="パス 30654" d="M526.362,232.067,519,230.129c-.645-.17-.9-1.095-.517-1.86l36.141-71.754a1.092,1.092,0,0,1,1.186-.685l7.366,1.938c.645.17.9,1.095.517,1.86l-36.141,71.754a1.092,1.092,0,0,1-1.186.685" transform="translate(-393.276 -118.221)" fill="#fff"/>
    <path id="パス_30655" data-name="パス 30655" d="M498.128,193.933l-3.443-.906c-.645-.17-.9-1.095-.517-1.86l36.141-71.754a1.092,1.092,0,0,1,1.186-.685l3.443.906c.645.17.9,1.095.517,1.86l-36.141,71.754a1.092,1.092,0,0,1-1.186.685" transform="translate(-374.829 -90.069)" fill="#fff"/>
    <path id="パス_30656" data-name="パス 30656" d="M107.811,295.24l-1.563-.246a1.01,1.01,0,0,1-.763-1.412L127.8,244.023a1.01,1.01,0,0,1,1.077-.583l1.562.246a1.01,1.01,0,0,1,.763,1.413l-22.318,49.558a1.009,1.009,0,0,1-1.077.583" transform="translate(-79.972 -184.709)" fill="#fff"/>
    <path id="パス_30657" data-name="パス 30657" d="M53.755,342.777v44.3l-4.545.012h-.12V313.629a43.8,43.8,0,0,1,4.6-5.348c0,4.892,0,9.61.007,13.913,0,1.645,0,3.23.007,4.735.014,9.419.031,15.848.046,15.848" transform="translate(-37.249 -233.919)" fill="#99b9ff"/>
    <path id="パス_30658" data-name="パス 30658" d="M224.866,615.541q-1.33,2.352-2.786,4.607a96.739,96.739,0,0,1-6.887,9.4c-8.8,0-17.986,0-26.913,0-8.945-.007-17.624,0-25.4.022-2.448.014-4.807.014-7.046.022-14.014.046-23.581.1-23.581.14H54.446a84.772,84.772,0,0,1-5.349-7.113l0-2.376,0-4.33v-.367Z" transform="translate(-37.249 -467.063)" fill="#99b9ff"/>
    <path id="パス_30659" data-name="パス 30659" d="M782.693,230.211v90.806q2.089-3.911,3.836-8.076.275-.659.54-1.317l.142-71.253Z" transform="translate(-593.895 -174.68)" fill="#99b9ff"/>
    <rect id="長方形_10560" data-name="長方形 10560" width="172.292" height="15.789" transform="translate(16.506 121.295)" fill="#5479f7"/>
    <path id="パス_30660" data-name="パス 30660" d="M95.582,524.282a.871.871,0,0,0-.339-.738,4.438,4.438,0,0,0-1.22-.543,8.607,8.607,0,0,1-1.395-.562,2.281,2.281,0,0,1-1.4-2.041,1.989,1.989,0,0,1,.376-1.19,2.452,2.452,0,0,1,1.078-.817,4.06,4.06,0,0,1,1.579-.294,3.691,3.691,0,0,1,1.57.32,2.5,2.5,0,0,1,1.07.9,2.36,2.36,0,0,1,.381,1.323H95.588a1.11,1.11,0,0,0-.356-.879,1.461,1.461,0,0,0-1-.314,1.56,1.56,0,0,0-.966.263.83.83,0,0,0-.345.693.794.794,0,0,0,.4.673,4.554,4.554,0,0,0,1.189.509,5.138,5.138,0,0,1,2.107,1.08,2.152,2.152,0,0,1,.661,1.606,1.981,1.981,0,0,1-.808,1.676,3.532,3.532,0,0,1-2.174.608,4.194,4.194,0,0,1-1.728-.348,2.735,2.735,0,0,1-1.189-.953,2.442,2.442,0,0,1-.409-1.4h1.7q0,1.362,1.627,1.362a1.582,1.582,0,0,0,.943-.246.8.8,0,0,0,.339-.687" transform="translate(-69.03 -393.124)" fill="#fff"/>
    <path id="パス_30661" data-name="パス 30661" d="M124.337,525.1h-2.971l-.565,1.7H119l3.061-8.232h1.57l3.078,8.232h-1.8Zm-2.513-1.374h2.056l-1.033-3.081Z" transform="translate(-90.295 -393.48)" fill="#fff"/>
    <path id="パス_30662" data-name="パス 30662" d="M155.837,525.435h3.6V526.8h-5.292v-8.232h1.694Z" transform="translate(-116.961 -393.479)" fill="#fff"/>
    <path id="パス_30663" data-name="パス 30663" d="M185.055,523.23H181.8v2.2h3.818V526.8h-5.512v-8.232h5.5v1.374H181.8V521.9h3.253Z" transform="translate(-136.663 -393.48)" fill="#fff"/>
    <path id="パス_30664" data-name="パス 30664" d="M235.714,524.282a.871.871,0,0,0-.339-.738,4.438,4.438,0,0,0-1.22-.543,8.607,8.607,0,0,1-1.395-.562,2.281,2.281,0,0,1-1.4-2.041,1.988,1.988,0,0,1,.376-1.19,2.452,2.452,0,0,1,1.078-.817,4.06,4.06,0,0,1,1.579-.294,3.691,3.691,0,0,1,1.57.32,2.5,2.5,0,0,1,1.07.9,2.36,2.36,0,0,1,.381,1.323H235.72a1.11,1.11,0,0,0-.356-.879,1.461,1.461,0,0,0-1-.314,1.56,1.56,0,0,0-.966.263.83.83,0,0,0-.345.693.794.794,0,0,0,.4.673,4.556,4.556,0,0,0,1.189.509,5.138,5.138,0,0,1,2.107,1.08,2.151,2.151,0,0,1,.661,1.606,1.982,1.982,0,0,1-.808,1.676,3.532,3.532,0,0,1-2.174.608,4.194,4.194,0,0,1-1.728-.348,2.735,2.735,0,0,1-1.189-.953,2.442,2.442,0,0,1-.409-1.4h1.7q0,1.362,1.627,1.362a1.582,1.582,0,0,0,.943-.246.8.8,0,0,0,.339-.687" transform="translate(-175.36 -393.124)" fill="#fff"/>
    <path id="パス_30665" data-name="パス 30665" d="M264.469,525.1H261.5l-.565,1.7h-1.8l3.061-8.232h1.57l3.078,8.232h-1.8Zm-2.513-1.374h2.056l-1.033-3.081Z" transform="translate(-196.625 -393.48)" fill="#fff"/>
    <path id="パス_30666" data-name="パス 30666" d="M295.968,525.435h3.6V526.8h-5.292v-8.232h1.694Z" transform="translate(-223.29 -393.479)" fill="#fff"/>
    <path id="パス_30667" data-name="パス 30667" d="M325.186,523.23h-3.253v2.2h3.818V526.8h-5.512v-8.232h5.5v1.374h-3.806V521.9h3.253Z" transform="translate(-242.992 -393.48)" fill="#fff"/>
    <path id="パス_30668" data-name="パス 30668" d="M375.845,524.282a.871.871,0,0,0-.339-.738,4.438,4.438,0,0,0-1.22-.543,8.608,8.608,0,0,1-1.395-.562,2.281,2.281,0,0,1-1.4-2.041,1.989,1.989,0,0,1,.376-1.19,2.45,2.45,0,0,1,1.079-.817,4.057,4.057,0,0,1,1.578-.294,3.691,3.691,0,0,1,1.57.32,2.5,2.5,0,0,1,1.07.9,2.36,2.36,0,0,1,.381,1.323h-1.694a1.11,1.11,0,0,0-.356-.879,1.461,1.461,0,0,0-1-.314,1.56,1.56,0,0,0-.966.263.829.829,0,0,0-.344.693.794.794,0,0,0,.4.673,4.561,4.561,0,0,0,1.189.509,5.137,5.137,0,0,1,2.107,1.08,2.151,2.151,0,0,1,.661,1.606,1.982,1.982,0,0,1-.808,1.676,3.532,3.532,0,0,1-2.174.608,4.2,4.2,0,0,1-1.728-.348,2.734,2.734,0,0,1-1.189-.953,2.442,2.442,0,0,1-.409-1.4h1.7q0,1.362,1.627,1.362a1.582,1.582,0,0,0,.943-.246.8.8,0,0,0,.339-.687" transform="translate(-281.689 -393.124)" fill="#fff"/>
    <path id="パス_30669" data-name="パス 30669" d="M404.6,525.1h-2.971l-.565,1.7h-1.8l3.061-8.232h1.57l3.078,8.232h-1.8Zm-2.513-1.374h2.056l-1.033-3.081Z" transform="translate(-302.954 -393.48)" fill="#fff"/>
    <path id="パス_30670" data-name="パス 30670" d="M436.1,525.435h3.6V526.8h-5.292v-8.232H436.1Z" transform="translate(-329.62 -393.479)" fill="#fff"/>
    <path id="パス_30671" data-name="パス 30671" d="M465.318,523.23h-3.253v2.2h3.818V526.8H460.37v-8.232h5.5v1.374h-3.806V521.9h3.253Z" transform="translate(-349.322 -393.48)" fill="#fff"/>
    <path id="パス_30672" data-name="パス 30672" d="M515.977,524.282a.871.871,0,0,0-.339-.738,4.438,4.438,0,0,0-1.22-.543,8.608,8.608,0,0,1-1.395-.562,2.281,2.281,0,0,1-1.4-2.041,1.989,1.989,0,0,1,.376-1.19,2.452,2.452,0,0,1,1.078-.817,4.06,4.06,0,0,1,1.579-.294,3.691,3.691,0,0,1,1.57.32,2.5,2.5,0,0,1,1.07.9,2.36,2.36,0,0,1,.381,1.323h-1.694a1.11,1.11,0,0,0-.356-.879,1.462,1.462,0,0,0-1-.314,1.56,1.56,0,0,0-.966.263.829.829,0,0,0-.344.693.794.794,0,0,0,.4.673,4.555,4.555,0,0,0,1.189.509,5.138,5.138,0,0,1,2.107,1.08,2.152,2.152,0,0,1,.661,1.606,1.981,1.981,0,0,1-.808,1.676,3.532,3.532,0,0,1-2.174.608,4.194,4.194,0,0,1-1.728-.348,2.735,2.735,0,0,1-1.189-.953,2.443,2.443,0,0,1-.409-1.4h1.7q0,1.362,1.627,1.362a1.582,1.582,0,0,0,.943-.246.8.8,0,0,0,.339-.687" transform="translate(-388.019 -393.124)" fill="#fff"/>
    <path id="パス_30673" data-name="パス 30673" d="M544.732,525.1h-2.971l-.565,1.7h-1.8l3.061-8.232h1.57L547.1,526.8h-1.8Zm-2.513-1.374h2.056l-1.033-3.081Z" transform="translate(-409.284 -393.48)" fill="#fff"/>
    <path id="パス_30674" data-name="パス 30674" d="M576.231,525.435h3.6V526.8h-5.292v-8.232h1.694Z" transform="translate(-435.949 -393.479)" fill="#fff"/>
    <path id="パス_30675" data-name="パス 30675" d="M605.449,523.23H602.2v2.2h3.818V526.8H600.5v-8.232H606v1.374H602.2V521.9h3.253Z" transform="translate(-455.651 -393.48)" fill="#fff"/>
    <path id="パス_30676" data-name="パス 30676" d="M656.108,524.282a.871.871,0,0,0-.339-.738,4.438,4.438,0,0,0-1.22-.543,8.607,8.607,0,0,1-1.395-.562,2.281,2.281,0,0,1-1.4-2.041,1.991,1.991,0,0,1,.375-1.19,2.454,2.454,0,0,1,1.079-.817,4.06,4.06,0,0,1,1.578-.294,3.692,3.692,0,0,1,1.57.32,2.5,2.5,0,0,1,1.07.9,2.36,2.36,0,0,1,.381,1.323h-1.694a1.11,1.11,0,0,0-.356-.879,1.461,1.461,0,0,0-1-.314,1.56,1.56,0,0,0-.966.263.829.829,0,0,0-.345.693.8.8,0,0,0,.4.673,4.56,4.56,0,0,0,1.189.509,5.137,5.137,0,0,1,2.107,1.08,2.151,2.151,0,0,1,.661,1.606,1.981,1.981,0,0,1-.808,1.676,3.532,3.532,0,0,1-2.174.608,4.2,4.2,0,0,1-1.728-.348,2.734,2.734,0,0,1-1.189-.953,2.442,2.442,0,0,1-.409-1.4h1.7q0,1.362,1.627,1.362a1.582,1.582,0,0,0,.943-.246.8.8,0,0,0,.339-.687" transform="translate(-494.348 -393.124)" fill="#fff"/>
    <path id="パス_30677" data-name="パス 30677" d="M684.863,525.1h-2.971l-.565,1.7h-1.8l3.061-8.232h1.57l3.078,8.232h-1.8Zm-2.513-1.374h2.056l-1.033-3.081Z" transform="translate(-515.613 -393.48)" fill="#fff"/>
    <path id="パス_30678" data-name="パス 30678" d="M716.363,525.435h3.6V526.8h-5.292v-8.232h1.694Z" transform="translate(-542.279 -393.479)" fill="#fff"/>
    <path id="パス_30679" data-name="パス 30679" d="M745.581,523.23h-3.253v2.2h3.818V526.8h-5.512v-8.232h5.5v1.374h-3.806V521.9h3.253Z" transform="translate(-561.981 -393.48)" fill="#fff"/>
    <path id="パス_30680" data-name="パス 30680" d="M272.307,639.99l-8.719,6.069,3.35,3.962,7.733-5.929Z" transform="translate(-200.006 -485.614)" fill="#fff"/>
    <path id="パス_30681" data-name="パス 30681" d="M265.8,649.244a.361.361,0,0,1-.277-.128l-3.35-3.962a.362.362,0,0,1,.07-.531l8.719-6.069a.362.362,0,0,1,.52.116l2.364,4.1a.362.362,0,0,1-.093.468l-7.733,5.929a.36.36,0,0,1-.22.075m-2.818-4.254,2.871,3.4,7.207-5.526-2.009-3.485Z" transform="translate(-198.868 -484.475)"/>
    <path id="パス_30682" data-name="パス 30682" d="M241.157,642.214l-1.422,5.174,2.347,1.192s-9.919,12.882-10.8,13.762-3.636.042-4.019-2.189,3.4-12.579,3.734-13.958,1.586-6.48,5.069-6.024a9.217,9.217,0,0,1,5.087,2.043" transform="translate(-172.426 -485.729)" fill="#fff"/>
    <path id="パス_30683" data-name="パス 30683" d="M229.147,661.9a3.155,3.155,0,0,1-.946-.155,3.48,3.48,0,0,1-2.424-2.679c-.281-1.636,1.4-6.926,2.991-11.755.374-1.132.669-2.026.748-2.35,1.1-4.509,2.941-6.627,5.468-6.3a9.516,9.516,0,0,1,5.294,2.145.363.363,0,0,1,.094.353l-1.344,4.889,2.083,1.058a.362.362,0,0,1,.123.543c-.405.527-9.943,12.911-10.826,13.8a1.752,1.752,0,0,1-1.262.45m5.358-22.543c-1.906,0-3.347,1.94-4.285,5.776-.086.352-.37,1.213-.764,2.405-1.132,3.428-3.239,9.81-2.965,11.405a2.758,2.758,0,0,0,1.929,2.112,1.556,1.556,0,0,0,1.477-.116c.663-.666,7.006-8.848,10.5-13.381l-1.957-.994a.362.362,0,0,1-.185-.419l1.361-4.954a9.535,9.535,0,0,0-4.724-1.809,2.956,2.956,0,0,0-.385-.026" transform="translate(-171.293 -484.586)"/>
    <path id="パス_30684" data-name="パス 30684" d="M235.4,665.77a.362.362,0,0,1-.321-.193,5.718,5.718,0,0,1-.445-5.338l5.385-14.045a.362.362,0,1,1,.676.259l-5.388,14.052a5.019,5.019,0,0,0,.413,4.735.362.362,0,0,1-.32.53" transform="translate(-177.682 -490.145)"/>
    <path id="パス_30685" data-name="パス 30685" d="M329.347,340.124c.346.657,5.921,32.7-1.644,56.776-1.226,3.9-5.032,9.856-5.032,9.856l-27.685,12.495-4.092-7.663s18.4-14.152,21.645-22.059a17.015,17.015,0,0,0,.686-4.642c3.326-32.711-3.606-44.44-3.606-44.44Z" transform="translate(-220.726 -258.081)"/>
    <path id="パス_30686" data-name="パス 30686" d="M288.944,627.144l-1.842,1.669a1.646,1.646,0,0,0-.275,2.115l3.671,5.653a1.642,1.642,0,0,0,1.769.7l1.309-.322a1.02,1.02,0,0,0,.682-1.416l-3.705-8.069a1.018,1.018,0,0,0-1.609-.33" transform="translate(-217.439 -475.666)" fill="#5479f7"/>
    <path id="パス_30687" data-name="パス 30687" d="M446.9,718.363l6.43,10.965,3.824-2.269-4.291-11.767Z" transform="translate(-339.104 -542.752)" fill="#fff"/>
    <path id="パス_30688" data-name="パス 30688" d="M452.2,728.553a.362.362,0,0,1-.312-.179l-6.43-10.965a.362.362,0,0,1,.147-.5l5.962-3.07a.362.362,0,0,1,.506.2L456.36,725.8a.362.362,0,0,1-.155.435l-3.824,2.27a.363.363,0,0,1-.185.051m-5.924-11.181,6.052,10.322,3.253-1.931-4.047-11.1Z" transform="translate(-337.966 -541.615)"/>
    <path id="パス_30689" data-name="パス 30689" d="M447.694,767.678a3.287,3.287,0,0,1-1.694-4.4,39.038,39.038,0,0,1,3.925-6.4c.655-.49,4.032,2.43,4.032,2.43l2.285-1.954s1.4,2.268,3.356,6.317c1.615,3.336,8.458,6.057,6.312,8.213-2.592,2.6-7.529.616-11.762-1.991-2.073-1.276-4.634-1.438-6.453-2.213" transform="translate(-338.187 -574.263)" fill="#fff"/>
    <path id="パス_30690" data-name="パス 30690" d="M461.542,772.362c-2.272,0-5.216-1.09-8.728-3.252a13.822,13.822,0,0,0-3.94-1.436,17.043,17.043,0,0,1-2.466-.752,3.649,3.649,0,0,1-1.881-4.887,37.866,37.866,0,0,1,4.037-6.538c.7-.523,2.647.882,4.249,2.243l2.049-1.752a.362.362,0,0,1,.543.085c.014.023,1.428,2.33,3.374,6.349.642,1.326,2.237,2.615,3.644,3.753,1.637,1.324,3.051,2.467,3.115,3.644a1.587,1.587,0,0,1-.516,1.23,4.705,4.705,0,0,1-3.48,1.314m-14.85-6.106a16.573,16.573,0,0,0,2.36.716,14.588,14.588,0,0,1,4.142,1.522c3.776,2.326,8.8,4.567,11.316,2.044a.873.873,0,0,0,.306-.68c-.046-.855-1.47-2.006-2.847-3.12-1.466-1.185-3.128-2.528-3.84-4-1.488-3.072-2.657-5.129-3.122-5.921l-1.958,1.675a.363.363,0,0,1-.472,0c-1.562-1.351-3.2-2.434-3.595-2.4a41.793,41.793,0,0,0-3.8,6.246,2.925,2.925,0,0,0,1.507,3.918" transform="translate(-337.043 -573.174)"/>
    <path id="パス_30691" data-name="パス 30691" d="M466.088,793.056c-1.939,0-4.891-.747-9.038-3.65a8.754,8.754,0,0,0-2.39-.712,14.014,14.014,0,0,1-2.056-.538,3.464,3.464,0,0,1-2.211-2.018.362.362,0,0,1,.7-.194,2.808,2.808,0,0,0,1.782,1.541,13.93,13.93,0,0,0,1.94.5,8.5,8.5,0,0,1,2.654.826c5.726,4.009,8.963,3.751,10.384,3.241a.362.362,0,1,1,.245.681,5.913,5.913,0,0,1-2.006.32" transform="translate(-341.741 -596.163)"/>
    <path id="パス_30692" data-name="パス 30692" d="M327.635,333.277s-4.991,12.088-3.151,23.2c1.673,10.1,30.371,75.175,30.371,75.175l6.566-3.95-18.474-87.56-4.543-7.717Z" transform="translate(-245.904 -252.238)"/>
    <path id="パス_30693" data-name="パス 30693" d="M441.9,717.712l1.33,2.068a1.877,1.877,0,0,0,2.568.582l5.027-3.113a1.881,1.881,0,0,0,.835-2.052l-.56-2.259a1.311,1.311,0,0,0-1.9-.835l-6.824,3.747a1.314,1.314,0,0,0-.472,1.862" transform="translate(-335.151 -540.208)" fill="#5479f7"/>
    <path id="パス_30694" data-name="パス 30694" d="M410.134,454.588a.361.361,0,0,1-.347-.26l-8.943-30.642a.362.362,0,0,1,.695-.2l8.943,30.642a.362.362,0,0,1-.347.463" transform="translate(-304.143 -321.134)" fill="#caddff"/>
    <path id="パス_30695" data-name="パス 30695" d="M433.745,226.351a33.747,33.747,0,0,0,7.967-3.65c2.946-1.816,6.208-4.974,6.972-5.138a12.47,12.47,0,0,1,2.207-.246,10.467,10.467,0,0,0,9.527-6.224c1.5-3.538-.412-3.43-2.235-1.359a5.822,5.822,0,0,1-3.226,2.042,6.552,6.552,0,0,1,1.519-2.669c.553-.5-.287-1.192-1.723-.017-2.28,1.865-1.622,2.281-3.8,3.513a49.636,49.636,0,0,1-12.8,4.349c-.863.147-2.145.3-3.092.4a1.718,1.718,0,0,1-1.749-1c-.571-1.247-1.451-3.085-1.679-3.071-2.888.17-6.239,3.953-6.239,3.953s2.879,11.086,8.355,9.113" transform="translate(-322.779 -158.042)" fill="#fff"/>
    <path id="パス_30696" data-name="パス 30696" d="M431.317,225.805a4,4,0,0,1-1.884-.486c-3.618-1.909-5.454-8.84-5.53-9.134a.362.362,0,0,1,.079-.331c.141-.159,3.484-3.9,6.488-4.075.285-.017.514-.03,2.03,3.282a1.355,1.355,0,0,0,1.38.786c.927-.1,2.213-.252,3.071-.4a49.153,49.153,0,0,0,12.686-4.307,5.173,5.173,0,0,0,1.875-1.578,10.831,10.831,0,0,1,1.874-1.9c1.094-.895,1.973-.86,2.327-.45a.708.708,0,0,1-.131,1.015,5.283,5.283,0,0,0-1.186,1.856,6.28,6.28,0,0,0,2.378-1.735c1.15-1.306,2.28-1.856,2.951-1.435.646.406.608,1.474-.111,3.174-2.436,5.756-8.154,6.388-9.848,6.445a12.108,12.108,0,0,0-2.142.238,14.977,14.977,0,0,0-2.3,1.7,46.11,46.11,0,0,1-4.562,3.394,33.615,33.615,0,0,1-7.6,3.536c-.182.059-.329.107-.439.147a4.152,4.152,0,0,1-1.413.257m1.291-.6h0Zm-7.953-9.016c.319,1.119,2.093,6.894,5.116,8.488a3.207,3.207,0,0,0,2.714.188c.116-.042.27-.092.46-.154a32.915,32.915,0,0,0,7.44-3.464,45.615,45.615,0,0,0,4.486-3.339,10.263,10.263,0,0,1,2.6-1.844,12.839,12.839,0,0,1,2.271-.254c1.586-.053,6.937-.642,9.206-6,.693-1.637.518-2.2.392-2.279-.2-.124-.993.131-2.023,1.3a6.149,6.149,0,0,1-3.449,2.161.362.362,0,0,1-.4-.456,6.857,6.857,0,0,1,1.624-2.84l.026-.026c-.159-.042-.618.017-1.276.556a10.078,10.078,0,0,0-1.765,1.788,5.825,5.825,0,0,1-2.087,1.759,50.072,50.072,0,0,1-12.921,4.391c-.875.149-2.177.3-3.114.4a2.08,2.08,0,0,1-2.117-1.2,18.923,18.923,0,0,0-1.461-2.85c-2.368.235-5.1,3.012-5.725,3.679" transform="translate(-321.642 -156.899)"/>
    <path id="パス_30697" data-name="パス 30697" d="M307.58,185.244a12.335,12.335,0,0,1,7.387-10.617,26.124,26.124,0,0,1,12.75-1.935c12.633,1.129,16.186,14.5,16.186,14.5l-3.224,2.37,3.49,23.456s-2.891,5.836-25.3,3.056c0,0-7.037-1.716-8.027,8.287,0,0-4.1-.048-4.638-4.94-.4-3.625.751-23.906,1.374-34.174" transform="translate(-232.281 -130.949)" fill="#5479f7"/>
    <path id="パス_30698" data-name="パス 30698" d="M321.1,191.588s-8.84-.367-8.5-.535,2.706-15.534,14.392-17.182Z" transform="translate(-237.186 -131.931)" fill="#5479f7"/>
    <path id="パス_30699" data-name="パス 30699" d="M243,223.688s-15.633,29.339-18,32.68l-.3.5c-.929,1.575-4.007,6.776-4.479,7.348-1.2,1.449-3.092,2.831-3.436,2.24s3.372-4.315,1.947-4.327c-2.391-.02-2.843,4.5-3.906,5.622-1.167,1.233-3.371,1.78-3.817.755-.375-.864,1.335-7.234,2.823-8.285a11,11,0,0,1,3.655-1.622,6.214,6.214,0,0,0,3.108-2.768,2.717,2.717,0,0,0,.237-.37c3.944-10.593,5.867-18.484,7.683-23.295.551-1.459,5.844-14.23,8.079-18.2Z" transform="translate(-160.064 -162.352)" fill="#fff"/>
    <path id="パス_30700" data-name="パス 30700" d="M210.935,267.222a2.185,2.185,0,0,1-.379-.032,1.253,1.253,0,0,1-1-.723c-.463-1.067,1.355-7.6,2.946-8.725a9.937,9.937,0,0,1,3.212-1.5c.178-.055.357-.109.54-.169a5.624,5.624,0,0,0,2.911-2.612l.018-.027a2.6,2.6,0,0,0,.191-.287c2.314-6.216,3.938-11.523,5.243-15.787.905-2.958,1.687-5.512,2.438-7.5.57-1.511,5.86-14.266,8.1-18.254l.291-.517,6.855,10.4-.1.19c-.638,1.2-15.636,29.333-18.02,32.708l-.292.489c-1.2,2.03-4.036,6.817-4.51,7.393-.871,1.056-2.587,2.583-3.5,2.509a.645.645,0,0,1-.523-.317c-.252-.433.167-1.053,1.063-2.3a9.791,9.791,0,0,0,1.15-1.843c-1.294.028-1.958,1.8-2.545,3.368a6.86,6.86,0,0,1-1.051,2.141,4.592,4.592,0,0,1-3.035,1.4m8.842-13.372a6.3,6.3,0,0,1-3.3,2.909c-.187.061-.37.117-.552.172a9.213,9.213,0,0,0-3.006,1.4c-1.365.964-2.986,7.125-2.7,7.846.025.058.1.236.458.3a3.645,3.645,0,0,0,2.763-1.158,6.765,6.765,0,0,0,.9-1.9c.643-1.717,1.44-3.861,3.272-3.838a.644.644,0,0,1,.618.333c.266.524-.266,1.31-1.229,2.655a11.8,11.8,0,0,0-.96,1.471,7.48,7.48,0,0,0,2.778-2.24c.361-.438,2.534-4.059,4.447-7.3l.316-.527c2.231-3.144,16.527-29.919,17.878-32.452l-5.96-9.043c-2.36,4.448-7.225,16.187-7.77,17.63-.744,1.97-1.522,4.514-2.423,7.459-1.308,4.274-2.935,9.592-5.259,15.834a2.394,2.394,0,0,1-.276.447" transform="translate(-158.954 -160.166)"/>
    <path id="パス_30701" data-name="パス 30701" d="M301.236,191.412a34.094,34.094,0,0,0-7.833,9.059,23.307,23.307,0,0,0-1.9,4.185l13.71,3.692,3.48-10.155Z" transform="translate(-221.191 -145.24)" fill="#5479f7"/>
    <path id="パス_30702" data-name="パス 30702" d="M304.238,240.773a.36.36,0,0,1-.089-.011l-13.962-3.515a.362.362,0,0,1,.177-.7l13.626,3.43,1.791-6.049a.362.362,0,0,1,.694.206l-1.889,6.382a.362.362,0,0,1-.347.259" transform="translate(-219.982 -177.302)"/>
    <path id="パス_30703" data-name="パス 30703" d="M185.709,419.682a.362.362,0,0,1-.346-.469c.1-.307,2.4-7.538,7.717-9.436a.362.362,0,0,1,.243.682c-4.98,1.777-7.248,8.9-7.27,8.969a.362.362,0,0,1-.345.255" transform="translate(-140.638 -310.916)"/>
    <path id="パス_30704" data-name="パス 30704" d="M194.434,427.556l-.035,0a.362.362,0,0,1-.326-.394,24.913,24.913,0,0,1,1.4-6.237c.67-1.527,2.627-4.642,3.827-4.9a.362.362,0,0,1,.155.707c-.721.158-2.565,2.769-3.319,4.488a24.642,24.642,0,0,0-1.343,6.014.362.362,0,0,1-.36.328" transform="translate(-147.258 -315.661)"/>
    <path id="パス_30705" data-name="パス 30705" d="M231.34,431.717a.362.362,0,0,1-.338-.491c.014-.036,1.38-3.612,1.765-4.8.554-1.7,1.05-3.506.5-5.174a3.586,3.586,0,0,0-1.225-1.713.362.362,0,1,1,.424-.586,4.346,4.346,0,0,1,1.489,2.074c.614,1.875.088,3.806-.5,5.623-.391,1.2-1.721,4.683-1.777,4.831a.362.362,0,0,1-.338.233" transform="translate(-175.262 -317.846)"/>
    <path id="パス_30706" data-name="パス 30706" d="M108.352,475.58l-7.788-6.074a.158.158,0,0,1-.044-.2l14.22-26.907,2.716.745c.052-.02-9.089,32.447-9.1,32.435" transform="translate(-76.259 -335.686)" fill="#5479f7"/>
    <path id="パス_30707" data-name="パス 30707" d="M107.21,474.8a.361.361,0,0,1-.222-.076L99.2,468.653a.516.516,0,0,1-.142-.653l14.22-26.908a.361.361,0,0,1,.416-.18l2.716.744a.362.362,0,0,1,.213.159c.089.144.089.144-.34,1.694-.246.89-.6,2.159-1.025,3.68-.85,3.042-1.987,7.092-3.125,11.143-4.578,16.286-4.578,16.286-4.678,16.377a.362.362,0,0,1-.243.094m-7.432-6.617,7.232,5.64c1.085-3.828,8.014-28.418,8.865-31.566l-2.093-.574Zm-.137-.107,0,0,0,0" transform="translate(-75.118 -334.548)"/>
    <path id="パス_30708" data-name="パス 30708" d="M165.8,452.926l-22.843-7.1-9,32.161,31.01,8.929Z" transform="translate(-101.648 -338.289)" fill="#fff"/>
    <path id="パス_30709" data-name="パス 30709" d="M132.9,477.937a.157.157,0,0,1-.014-.12l9-32.161a.157.157,0,0,1,.2-.108l22.576,7.067a.488.488,0,0,1,.342.481L163.969,486.6l-30.977-8.592h0a.156.156,0,0,1-.092-.074" transform="translate(-100.825 -338.069)" fill="#fff"/>
    <path id="パス_30710" data-name="パス 30710" d="M162.832,485.827a.367.367,0,0,1-.1-.013l-30.977-8.593a.519.519,0,0,1-.361-.64l9-32.161a.518.518,0,0,1,.657-.355l22.573,7.066a.853.853,0,0,1,.6.837l-1.026,33.507a.362.362,0,0,1-.362.351m-30.683-9.248,30.336,8.414,1.012-33.046a.127.127,0,0,0-.089-.124l-22.374-7Zm-.074.042h0Zm8.758-31.866h0Z" transform="translate(-99.687 -336.931)"/>
    <path id="パス_30711" data-name="パス 30711" d="M242.33,475.034a1.073,1.073,0,1,1,.725,1.334,1.074,1.074,0,0,1-.725-1.334" transform="translate(-183.842 -359.864)" fill="#99b9ff"/>
    <path id="パス_30712" data-name="パス 30712" d="M191.216,459.927a1.073,1.073,0,1,1,.725,1.334,1.074,1.074,0,0,1-.725-1.334" transform="translate(-145.058 -348.401)" fill="#99b9ff"/>
    <path id="パス_30713" data-name="パス 30713" d="M239.074,431.468h-.03a.362.362,0,0,1-.331-.39l.672-8.3c.113-1.478.094-5.032-2.524-6.065a.362.362,0,1,1,.265-.673c2.159.852,3.246,3.329,2.98,6.795l-.672,8.3a.362.362,0,0,1-.36.333" transform="translate(-179.552 -315.662)"/>
    <path id="パス_30714" data-name="パス 30714" d="M105.911,477.627a.362.362,0,0,1-.086-.713l4.576-1.126,8.069-22.54a.362.362,0,0,1,.681.244l-8.108,22.647a.522.522,0,0,1-.364.326L106,477.616a.355.355,0,0,1-.087.011" transform="translate(-80.089 -343.734)"/>
    <path id="パス_30715" data-name="パス 30715" d="M196.395,473.966a.637.637,0,1,1,.279.857.636.636,0,0,1-.279-.857" transform="translate(-148.969 -359.373)" fill="#fff"/>
    <path id="パス_30716" data-name="パス 30716" d="M164.4,488.1a.369.369,0,0,1-.056,0,1.983,1.983,0,0,1-.494-.145l-4.51-1.993a1.971,1.971,0,0,1-1-2.595l3.832-8.69a2.115,2.115,0,0,1,1-1.044l1.524-.748a.362.362,0,0,1,.319.65l-1.524.748a1.389,1.389,0,0,0-.658.686L159,483.654a1.246,1.246,0,0,0,.635,1.641l4.51,1.993a1.255,1.255,0,0,0,.313.092.362.362,0,0,1-.055.719" transform="translate(-120.019 -358.786)"/>
    <path id="パス_30717" data-name="パス 30717" d="M184.6,483.515a1.6,1.6,0,0,1-.594-1.076L182.95,473a1.754,1.754,0,0,1,.282-1.166l2.521-3.791a.953.953,0,0,1,1.45-.163l3.3,3.135a1.752,1.752,0,0,1,.534,1.074l1.061,9.44a1.607,1.607,0,0,1-1.415,1.775l-4.9.551a1.591,1.591,0,0,1-1.18-.34" transform="translate(-138.811 -354.82)" fill="#99b9ff"/>
    <path id="パス_30718" data-name="パス 30718" d="M184.464,483.089a1.967,1.967,0,0,1-1.95-1.748l-1.061-9.44a2.116,2.116,0,0,1,.34-1.406l2.521-3.791a1.315,1.315,0,0,1,2-.225l3.3,3.135a2.116,2.116,0,0,1,.644,1.3l1.061,9.44a1.97,1.97,0,0,1-1.734,2.175l-4.9.552a2.036,2.036,0,0,1-.223.013m.946-16.248a.612.612,0,0,0-.066,0,.591.591,0,0,0-.427.26L182.4,470.9a1.39,1.39,0,0,0-.224.925l1.061,9.44a1.239,1.239,0,0,0,1.373,1.1l4.9-.552a1.245,1.245,0,0,0,1.1-1.375l-1.061-9.44a1.392,1.392,0,0,0-.424-.852l-3.3-3.135a.589.589,0,0,0-.407-.163" transform="translate(-137.673 -353.682)"/>
    <path id="パス_30719" data-name="パス 30719" d="M196.106,474.843a.673.673,0,1,0-.529-.583.669.669,0,0,0,.529.583" transform="translate(-148.397 -359.293)" fill="#fff"/>
    <path id="パス_30720" data-name="パス 30720" d="M195.106,474.081a1.038,1.038,0,1,1,.116-.007.981.981,0,0,1-.116.007m-.063-.73a.308.308,0,0,0,.1,0,.312.312,0,0,0,.274-.344.312.312,0,0,0-.343-.274.311.311,0,0,0-.274.344.311.311,0,0,0,.245.27" transform="translate(-147.259 -358.154)"/>
    <path id="パス_30721" data-name="パス 30721" d="M189.238,492.684a2.9,2.9,0,1,0,2.561-3.214,2.9,2.9,0,0,0-2.561,3.214" transform="translate(-143.577 -371.388)" fill="#fff"/>
    <path id="パス_30722" data-name="パス 30722" d="M190.979,494.489a3.268,3.268,0,0,1-3.239-2.9,3.266,3.266,0,1,1,3.611,2.883,3.322,3.322,0,0,1-.371.021m.011-5.815a2.589,2.589,0,0,0-.289.016,2.534,2.534,0,1,0,.289-.016" transform="translate(-142.438 -370.249)"/>
    <path id="パス_30723" data-name="パス 30723" d="M196.266,502.342c-.05-.442.144-.815.442-.848s.569.287.619.729-.144.815-.442.848-.569-.287-.619-.729m.267-.03c.028.251.172.449.315.433s.24-.242.212-.493-.172-.449-.315-.433-.24.242-.211.493" transform="translate(-148.917 -380.523)" fill="#5479f7"/>
    <path id="パス_30724" data-name="パス 30724" d="M201.959,496.336c-.05-.442.144-.815.442-.848s.569.287.619.729-.145.815-.442.848-.569-.287-.619-.729m.267-.03c.028.251.172.449.315.433s.24-.242.212-.493-.172-.449-.315-.433-.24.242-.211.493" transform="translate(-153.237 -375.966)" fill="#5479f7"/>
    <path id="パス_30725" data-name="パス 30725" d="M198.731,498.824l-1.868-2.382a.135.135,0,0,1,.091-.217.136.136,0,0,1,.121.051l1.867,2.382a.135.135,0,1,1-.212.166" transform="translate(-149.355 -376.527)" fill="#5479f7"/>
    <path id="パス_30726" data-name="パス 30726" d="M192.669,518.259l4.523-.509a.416.416,0,0,0-.093-.827l-4.523.509a.416.416,0,0,0,.093.827" transform="translate(-145.843 -392.231)" fill="#fff"/>
    <path id="パス_30727" data-name="パス 30727" d="M187,455.443a.362.362,0,0,1-.342-.244l-.317-.917a3.19,3.19,0,0,1,.437-2.921l.925-1.268a1.554,1.554,0,0,1,.595-.5.362.362,0,0,1,.31.654.843.843,0,0,0-.321.268l-.925,1.268a2.468,2.468,0,0,0-.338,2.259l.317.917a.362.362,0,0,1-.342.48" transform="translate(-141.259 -341.121)"/>
    <path id="パス_30728" data-name="パス 30728" d="M197.894,455.786a.362.362,0,0,1-.2-.665,2.465,2.465,0,0,0,.931-3.013l-.728-1.75a.84.84,0,0,0-.684-.518.362.362,0,1,1,.085-.719,1.554,1.554,0,0,1,1.267.959l.728,1.75a3.188,3.188,0,0,1-1.205,3.9.361.361,0,0,1-.2.059" transform="translate(-149.402 -340.784)"/>
    <path id="パス_30729" data-name="パス 30729" d="M651.777,267.633l-3.127,7.416-14.941-14.53-12.972-18.271,3.445.13Z" transform="translate(-471.005 -183.814)" fill="#5479f7"/>
    <path id="パス_30730" data-name="パス 30730" d="M647.511,274.272a.363.363,0,0,1-.252-.1l-14.941-14.53a.341.341,0,0,1-.043-.05L619.3,241.318a.362.362,0,0,1,.309-.571l3.445.13a.361.361,0,0,1,.231.095l27.6,25.255a.362.362,0,0,1,.089.407l-3.127,7.416a.362.362,0,0,1-.333.221m-14.665-15.128,14.538,14.138,2.822-6.693L622.9,241.6l-2.579-.1Z" transform="translate(-469.866 -182.675)"/>
    <path id="パス_30731" data-name="パス 30731" d="M549.065,298.731l-15.744-42.672,21.086-13.812,27.913,32.8Z" transform="translate(-404.675 -183.813)" fill="#99b9ff"/>
    <path id="パス_30732" data-name="パス 30732" d="M547.927,297.955a.366.366,0,0,1-.107-.016.362.362,0,0,1-.233-.22l-15.744-42.672a.362.362,0,0,1,.141-.428l21.086-13.812a.362.362,0,0,1,.474.068l27.914,32.8a.362.362,0,0,1-.066.529l-33.255,23.682a.361.361,0,0,1-.21.067m-15.305-42.889L548.1,297.024l32.548-23.179L553.2,241.587Z" transform="translate(-403.537 -182.676)"/>
    <path id="パス_30733" data-name="パス 30733" d="M579.29,229.737a.361.361,0,0,1-.3-.153l-8.718-12.306a.362.362,0,1,1,.59-.418l8.718,12.306a.362.362,0,0,1-.3.571" transform="translate(-432.666 -164.434)"/>
    <path id="パス_30734" data-name="パス 30734" d="M558.763,230.612a.362.362,0,0,1-.356-.3c-.137-.774-1.694-18.992-.12-20.657a.362.362,0,1,1,.526.5c-1.165,1.233.051,18.587.307,20.034a.362.362,0,0,1-.293.419.376.376,0,0,1-.063.006" transform="translate(-423.089 -158.998)"/>
    <path id="パス_30735" data-name="パス 30735" d="M624.489,308.943l-3.5,8.948-8.479-12.067-8.763-17.266,2.025.394Z" transform="translate(-458.117 -218.953)" fill="#99b9ff"/>
    <path id="パス_30736" data-name="パス 30736" d="M619.854,317.114a.362.362,0,0,1-.3-.154l-8.479-12.067a.362.362,0,0,1-.027-.044l-8.763-17.266a.362.362,0,0,1,.392-.519l2.025.394a.36.36,0,0,1,.195.108l18.713,19.992a.361.361,0,0,1,.073.379l-3.5,8.948a.362.362,0,0,1-.294.227.33.33,0,0,1-.043,0M611.686,304.5l8.076,11.494,3.167-8.108-18.476-19.739-1.183-.23Z" transform="translate(-456.978 -217.815)"/>
    <path id="パス_30737" data-name="パス 30737" d="M525.981,296.084l18.759-7.526,17.242,29.333-30.8,8.869s-.891-20.127-5.2-30.676" transform="translate(-399.106 -218.953)" fill="#5479f7"/>
    <path id="パス_30738" data-name="パス 30738" d="M530.04,325.983a.362.362,0,0,1-.362-.346c-.009-.2-.938-20.186-5.171-30.555a.362.362,0,0,1,.2-.473l18.76-7.526a.361.361,0,0,1,.447.152l17.242,29.333a.362.362,0,0,1-.212.531l-30.8,8.869a.365.365,0,0,1-.1.014m-4.727-30.837c3.81,9.672,4.9,26.971,5.065,30l29.917-8.614L543.448,287.87Z" transform="translate(-397.968 -217.814)"/>
    <path id="パス_30739" data-name="パス 30739" d="M568.752,235.214a.362.362,0,0,1-.347-.261l-6.259-21.59a.362.362,0,0,1,.695-.2l6.259,21.59a.361.361,0,0,1-.247.448.356.356,0,0,1-.1.014" transform="translate(-426.536 -161.546)"/>
    <path id="パス_30740" data-name="パス 30740" d="M545.166,236.713h-.03a.362.362,0,0,1-.331-.39c.015-.185,1.5-18.543,1.715-20.867.243-2.679.773-4.362,1.575-5a1.322,1.322,0,0,1,1.016-.294.362.362,0,0,1-.1.717.59.59,0,0,0-.468.143c-.361.288-1.011,1.257-1.306,4.5-.211,2.321-1.7,20.675-1.715,20.86a.362.362,0,0,1-.36.333" transform="translate(-413.389 -159.456)"/>
    <path id="パス_30741" data-name="パス 30741" d="M223.34,46.409s3.307.066,2.815-6.062c-.627-7.811-8.315-5.674-10.918-6.453s-4.813-3.646-5.5-5.54c-3.07-8.466-16.058-10.62-21.026-4.2-.225.291-.359.634-.589.92-.7.872-1.647,2-8.422-.342-5.963-2.06-16.663,1-13.926,9.088a10.258,10.258,0,0,0,4.663,5.545c.4.228.833.456,1.311.677a4.014,4.014,0,0,1,2.551,3.364c.052,7.806,3.859,15.546,21.533,6.721a4.322,4.322,0,0,1,4.013.358c1.5.865,3.023,5.268,10.649,4.171,4.671-.672,6.959-3.862,8.505-5.874a5.95,5.95,0,0,1,4.34-2.374" transform="translate(-125.455 -15.494)"/>
    <path id="パス_30742" data-name="パス 30742" d="M353.62,116.1l-1.128,7.089-6.218,2.531a16.652,16.652,0,0,0,15.992-1.11l-4.5-2.147.181-3.759a6.54,6.54,0,0,0,2.35.063c1.127-.213.946-4.173.946-4.173l.607-.236a.222.222,0,0,0,.107-.325,9.056,9.056,0,0,1-.959-2.056c-.536-1.724-.362-3.261-1.034-3.518-1.176-.45-7.258-.91-6.281,4.373,0,0-1.44-.241-1.514,1.061s1.453,2.208,1.453,2.208" transform="translate(-262.747 -82.105)" fill="#fff"/>
    <path id="パス_30743" data-name="パス 30743" d="M352.046,126.443a16.162,16.162,0,0,1-7.083-1.55.362.362,0,0,1,.038-.652l6.029-2.454,1.059-6.658a3.017,3.017,0,0,1-1.42-2.4,1.421,1.421,0,0,1,.512-1.08,1.685,1.685,0,0,1,.94-.336,3.715,3.715,0,0,1,1.181-3.532c1.715-1.428,4.739-1.154,5.653-.8.6.231.719.974.864,1.915a12.415,12.415,0,0,0,.386,1.834,8.663,8.663,0,0,0,.919,1.971.584.584,0,0,1-.282.856l-.367.143c.035,1.216-.017,4.052-1.25,4.285a6.558,6.558,0,0,1-2.076.01L357,121.1l4.284,2.044a.362.362,0,0,1,.031.636,17.7,17.7,0,0,1-9.27,2.667m-5.993-1.849a16.57,16.57,0,0,0,14.3-1.1l-3.884-1.853a.362.362,0,0,1-.206-.344l.181-3.759a.362.362,0,0,1,.443-.335,6.219,6.219,0,0,0,2.2.061c.482-.091.73-2.076.652-3.8a.362.362,0,0,1,.23-.354l.451-.175a9.347,9.347,0,0,1-.91-2A13.207,13.207,0,0,1,359.1,109c-.1-.624-.2-1.269-.407-1.35-.679-.26-3.453-.547-4.932.684a3.222,3.222,0,0,0-.865,3.285.362.362,0,0,1-.416.423,1.24,1.24,0,0,0-.854.171.719.719,0,0,0-.24.554c-.061,1.064,1.263,1.868,1.276,1.876a.363.363,0,0,1,.172.368l-1.128,7.089a.361.361,0,0,1-.221.278Z" transform="translate(-261.61 -80.959)"/>
    <path id="パス_30744" data-name="パス 30744" d="M144.295,209.539a.37.37,0,0,1-.091-.012.362.362,0,0,1-.26-.441l.469-1.81a.362.362,0,0,1,.7.182l-.469,1.81a.362.362,0,0,1-.35.271" transform="translate(-109.214 -157.073)"/>
    <path id="パス_30745" data-name="パス 30745" d="M139.765,227.015a.373.373,0,0,1-.091-.012.362.362,0,0,1-.259-.441l.469-1.81a.362.362,0,0,1,.7.182l-.469,1.81a.362.362,0,0,1-.35.271" transform="translate(-105.776 -170.333)"/>
    <path id="パス_30746" data-name="パス 30746" d="M132.337,217.436a.362.362,0,0,1-.091-.012l-1.807-.471a.362.362,0,1,1,.183-.7l1.807.471a.362.362,0,0,1-.091.712" transform="translate(-98.769 -164.08)"/>
    <path id="パス_30747" data-name="パス 30747" d="M149.79,221.988a.362.362,0,0,1-.091-.012l-1.807-.471a.362.362,0,1,1,.183-.7l1.807.471a.362.362,0,0,1-.091.712" transform="translate(-112.012 -167.534)"/>
    <path id="パス_30748" data-name="パス 30748" d="M97.915,247.384a1.968,1.968,0,1,1-1.331-2.448,1.968,1.968,0,0,1,1.331,2.448" transform="translate(-71.37 -185.792)" fill="#99b9ff"/>
    <path id="パス_30749" data-name="パス 30749" d="M180.965,173.286a2.771,2.771,0,1,1-3.913-.1,2.776,2.776,0,0,1,3.913.1" transform="translate(-133.692 -130.834)" fill="#caddff"/>
  </g>
</svg>
