<svg xmlns="http://www.w3.org/2000/svg" width="117.822" height="20" viewBox="0 0 117.822 20">
  <path id="パス_1885" data-name="パス 1885" d="M14.62-34.346a15.569,15.569,0,0,1-6.4,1.5h-.5V-51.485H5.04v19.108h9.134l.5-1.969Zm2.231,1.969h2.677V-51.485H16.851Zm15.3.315c5.7,0,10.1-3.911,10.1-10.052,0-6.037-4.3-9.685-9.764-9.685-5.7,0-10.1,3.911-10.1,10.052C22.389-35.711,26.694-32.062,32.153-32.062Zm.289-.42c-4.2,0-7.113-3.832-7.113-9.554,0-5.617,2.73-9.344,6.955-9.344,4.121,0,7.034,3.832,7.034,9.554C39.318-36.183,36.589-32.482,32.442-32.482Zm24.724-19a49.2,49.2,0,0,1,.525,8.346v6.457l-10.5-14.8H44.016v.079L45.3-49.622v8.9a52.118,52.118,0,0,1-.525,8.346h1.575a49.2,49.2,0,0,1-.525-8.346v-8.163L57.98-32.062h.236V-43.139a52.119,52.119,0,0,1,.525-8.346Zm17.113,0H67.586v19.108h6.247c6.483,0,10.577-3.6,10.577-9.764C84.41-48.2,80.342-51.485,74.279-51.485Zm0,18.688a20.945,20.945,0,0,1-4.016-.236V-51.065h3.78c4.514,0,7.428,3.648,7.428,9.055C81.47-36.131,78.846-32.8,74.279-32.8Zm21.89.735c5.7,0,10.1-3.911,10.1-10.052,0-6.037-4.3-9.685-9.764-9.685-5.7,0-10.1,3.911-10.1,10.052C86.4-35.711,90.709-32.062,96.169-32.062Zm.289-.42c-4.2,0-7.113-3.832-7.113-9.554,0-5.617,2.73-9.344,6.955-9.344,4.121,0,7.034,3.832,7.034,9.554C103.334-36.183,100.6-32.482,96.457-32.482Zm20.525-9.186c2.493-.866,4.593-2.283,4.593-4.987,0-3.255-2.7-4.829-7.743-4.829h-4.7v19.108h2.677v-8.635h1.759a1.459,1.459,0,0,1,1.365.551L122.7-31.8h.157v-3.333Zm-2.756.236a19.594,19.594,0,0,1-2.415-.157v-9.475h1.916c3.465,0,5.144,1.811,5.144,4.593C118.872-43.742,117.087-41.433,114.226-41.433Z" transform="translate(-5.04 51.8)" fill="#333"/>
</svg>
