<svg xmlns="http://www.w3.org/2000/svg" width="215.116" height="24.856" viewBox="0 0 215.116 24.856">
  <g id="グループ_6220" data-name="グループ 6220" transform="translate(-420 -2698)">
    <path id="パス_33212" data-name="パス 33212" d="M-55.278-12.348l.234,2.466c2.088-.45,5.76-.846,7.452-1.026a7.2,7.2,0,0,0-2.682,5.562c0,3.906,3.564,5.922,7.344,6.174l.846-2.466c-3.06-.162-5.832-1.224-5.832-4.194a5.47,5.47,0,0,1,3.816-5.04,18.7,18.7,0,0,1,3.474-.252l-.018-2.3c-1.278.054-3.24.162-5.094.324-3.294.27-6.264.54-7.776.666C-53.856-12.4-54.558-12.366-55.278-12.348ZM-43.2-9.36l-1.332.558a13.888,13.888,0,0,1,1.4,2.5l1.368-.612A22.342,22.342,0,0,0-43.2-9.36Zm2.016-.828-1.314.612a15.835,15.835,0,0,1,1.476,2.43l1.35-.648A26.926,26.926,0,0,0-41.184-10.188Zm4.986-2.16.234,2.466c2.088-.45,5.76-.846,7.452-1.026a7.2,7.2,0,0,0-2.682,5.562c0,3.906,3.564,5.922,7.344,6.174L-23-1.638c-3.06-.162-5.832-1.224-5.832-4.194a5.47,5.47,0,0,1,3.816-5.04,18.7,18.7,0,0,1,3.474-.252l-.018-2.3c-1.278.054-3.24.162-5.094.324-3.294.27-6.264.54-7.776.666C-34.776-12.4-35.478-12.366-36.2-12.348ZM-24.12-9.36l-1.332.558a13.888,13.888,0,0,1,1.4,2.5l1.368-.612A22.342,22.342,0,0,0-24.12-9.36Zm2.016-.828-1.314.612a15.835,15.835,0,0,1,1.476,2.43l1.35-.648A26.925,26.925,0,0,0-22.1-10.188Zm6.372,1.044.126,2.124A66.94,66.94,0,0,0-7.776-7c.288.612.63,1.242,1.008,1.872-.54-.054-1.512-.144-2.268-.216l-.18,1.71c1.314.144,3.258.378,4.266.576l1.1-1.656a5.487,5.487,0,0,1-.81-.918,16.381,16.381,0,0,1-.936-1.6,24.119,24.119,0,0,0,2.88-.558l-.36-2.124a23.238,23.238,0,0,1-3.438.72c-.108-.288-.216-.558-.306-.81-.09-.27-.18-.558-.27-.846A26.241,26.241,0,0,0-3.78-11.52l-.288-2.07a20.688,20.688,0,0,1-3.546.774q-.189-.918-.324-1.89l-2.412.27c.216.63.4,1.206.576,1.782a37.442,37.442,0,0,1-5.634-.27l.126,2.07a42.085,42.085,0,0,0,6.066.162c.108.306.216.648.36,1.062.072.2.144.414.234.63A46.126,46.126,0,0,1-15.732-9.144Zm3.456,4.176L-14.508-5.4a5.977,5.977,0,0,0-.774,2.9c.036,2.574,2.268,3.636,5.868,3.636A27.647,27.647,0,0,0-5.04.792l.126-2.286a23.691,23.691,0,0,1-4.518.4c-2.376,0-3.636-.54-3.636-1.872A3.378,3.378,0,0,1-12.276-4.968ZM7.38-2.124c0-.45.432-.864,1.116-.864.972,0,1.638.756,1.746,1.926A9.4,9.4,0,0,1,9.2-1.008C8.118-1.008,7.38-1.458,7.38-2.124ZM4.32-13.716l.072,2.34c.414-.054.99-.108,1.476-.144.954-.054,3.438-.162,4.356-.18-.882.774-2.754,2.286-3.762,3.114C5.4-7.7,3.222-5.868,1.944-4.842L3.582-3.15C5.508-5.346,7.308-6.8,10.062-6.8c2.124,0,3.744,1.1,3.744,2.718a2.609,2.609,0,0,1-1.494,2.448A3.6,3.6,0,0,0,8.478-4.716,3.016,3.016,0,0,0,5.256-1.908c0,1.8,1.89,2.952,4.392,2.952,4.356,0,6.516-2.25,6.516-5.094,0-2.628-2.322-4.536-5.382-4.536a7.032,7.032,0,0,0-1.71.2c1.134-.9,3.024-2.484,4-3.168.414-.306.846-.558,1.26-.828l-1.17-1.6a7.865,7.865,0,0,1-1.368.2c-1.026.09-4.878.162-5.832.162A12.491,12.491,0,0,1,4.32-13.716Zm19.044.63v2.376c1.458.126,3.024.2,4.914.2,1.71,0,3.942-.108,5.2-.216v-2.394c-1.386.144-3.438.252-5.22.252A47.219,47.219,0,0,1,23.364-13.086Zm1.512,7.632L22.518-5.67a11.644,11.644,0,0,0-.36,2.592c0,2.466,2.07,3.852,6.192,3.852A27.737,27.737,0,0,0,34.6.162l-.018-2.538a24.715,24.715,0,0,1-6.318.72c-2.592,0-3.69-.828-3.69-1.98A6.632,6.632,0,0,1,24.876-5.454ZM44.46-14.346l-2.25.918c.81,1.908,1.674,3.834,2.5,5.364-1.728,1.278-2.988,2.772-2.988,4.752,0,3.1,2.718,4.086,6.3,4.086A33.429,33.429,0,0,0,53.8.324l.036-2.592a27.788,27.788,0,0,1-5.886.666c-2.5,0-3.744-.684-3.744-1.98,0-1.26,1.008-2.286,2.5-3.276a53.28,53.28,0,0,1,5.022-2.664c.666-.342,1.242-.648,1.782-.972l-1.242-2.088a11.248,11.248,0,0,1-1.674,1.1c-.846.486-2.412,1.26-3.888,2.124A42.757,42.757,0,0,1,44.46-14.346Z" transform="translate(581.278 2721)" fill="#333"/>
    <g id="グループ_6284" data-name="グループ 6284" transform="translate(378.159 2675.4)">
      <path id="パス_52" data-name="パス 52" d="M13.917-10.174A17.937,17.937,0,0,1,6.539-8.451H5.964V-29.92H2.88V-7.907H13.4l.575-2.268Zm3.629-16.662L19.6-28.892l-2.056-2.056L15.49-28.892ZM16.125-7.907h2.842V-24.3h-.121l-2.721.816ZM29.7-7.544c4.717,0,8.255-3.357,8.255-8.467,0-5.141-3.387-8.316-7.983-8.316-4.717,0-8.255,3.387-8.255,8.5C21.719-10.688,25.106-7.544,29.7-7.544Zm.181-.423c-2.994,0-5.08-3.205-5.08-8.044,0-4.778,1.966-7.892,4.989-7.892,2.994,0,5.08,3.236,5.08,8.074C34.873-11.082,32.907-7.967,29.883-7.967ZM49.327-24.326A8.046,8.046,0,0,0,43.461-21.7v-2.6H43.34l-2.752.816V-7.907h2.873V-21.091a6.478,6.478,0,0,1,4.627-2.147c3.538,0,3.538,3.326,3.538,4.566V-7.907H54.5v-10.7C54.5-22.512,52.683-24.326,49.327-24.326Zm23.5,15.845-.665-2.177V-32.4h-.121l-2.752.907v8.83a6.515,6.515,0,0,0-4.445-1.663c-4.233,0-7.8,3.508-7.8,8.679,0,4.748,2.963,8.1,6.894,8.1a7.279,7.279,0,0,0,5.413-2.57l.786,2.48Zm-7.953-.06c-2.752,0-4.748-2.48-4.748-7.409,0-4.868,2.026-7.862,4.989-7.862a4.548,4.548,0,0,1,4.173,3.054v9.949A5.985,5.985,0,0,1,64.87-8.542Zm17.962,1c4.717,0,8.255-3.357,8.255-8.467,0-5.141-3.387-8.316-7.983-8.316-4.717,0-8.255,3.387-8.255,8.5C74.849-10.688,78.235-7.544,82.832-7.544Zm.181-.423c-2.994,0-5.08-3.205-5.08-8.044,0-4.778,1.966-7.892,4.989-7.892,2.994,0,5.08,3.236,5.08,8.074C88-11.082,86.037-7.967,83.013-7.967Zm18.446-16.3c-2.117,0-3.81,1.512-4.929,3.961V-24.3h-.121l-2.691.816V-7.907H96.59V-19.428a4.39,4.39,0,0,1,3.78-2.782,4.354,4.354,0,0,1,1.663.363l.847-2.238A6.032,6.032,0,0,0,101.459-24.266Z" transform="translate(38.961 55)" fill="#333"/>
    </g>
  </g>
</svg>
