<svg id="グループ_6369" data-name="グループ 6369" xmlns="http://www.w3.org/2000/svg" xmlns:xlink="http://www.w3.org/1999/xlink" width="200" height="200.125" viewBox="0 0 200 200.125">
  <defs>
    <clipPath id="clip-path">
      <rect id="長方形_10582" data-name="長方形 10582" width="200" height="200.125" fill="none"/>
    </clipPath>
  </defs>
  <g id="グループ_6368" data-name="グループ 6368" clip-path="url(#clip-path)">
    <path id="パス_30908" data-name="パス 30908" d="M195.754,139.563c-.087.244-.171.485-.258.724-.079.22-.159.437-.241.657-.135.362-.275.722-.419,1.082a70.622,70.622,0,0,1-9.27,16.343c-.022.031-.046.063-.072.1-14.72,19.572-40.055,34.77-67.9,39.837-.048.01-.094.017-.137.024q-2.642.482-5.313.833c-.234.032-.47.06-.706.089q-4.522.572-9.1.773A98.741,98.741,0,0,1,54.748,190.5a93.981,93.981,0,0,1-36.13-30.964,101.161,101.161,0,0,1-6.836-11.276c-.065-.118-.125-.239-.188-.357A104.665,104.665,0,0,1,.407,109.7l-.058-.671v-.015c-.055-.628-.1-1.253-.142-1.879A84.242,84.242,0,0,1,4.684,72.887C12.759,50.83,31.655,34.424,36.329,30.364A127.588,127.588,0,0,1,62.438,12.87q.665-.337,1.315-.652A109.632,109.632,0,0,1,79.31,5.936q2.581-.8,5.222-1.5c29.706-7.805,63.845-5.026,67.513,6.019,1.639,4.934-4.267,7.1-4.723,14.93-.761,13.056,14.848,20.9,28.429,32.377a75.383,75.383,0,0,1,9.356,9.24l.369.449a59.424,59.424,0,0,1,8.4,13.933,76.541,76.541,0,0,1,5.885,24.767,85.584,85.584,0,0,1-4,33.408" transform="translate(0 0)" fill="#caddff"/>
    <path id="パス_30909" data-name="パス 30909" d="M196.843,221.426c-.087.244-.171.485-.258.724-.079.22-.159.437-.241.657-.135.362-.275.722-.419,1.082a70.622,70.622,0,0,1-9.27,16.343c-.022.031-.046.063-.072.1-14.72,19.572-40.055,34.77-67.9,39.837-.048.01-.094.017-.137.024q-2.642.482-5.313.833c-.234.032-.47.06-.706.089a3.083,3.083,0,0,1-.342-.152L13.85,230.832a3.951,3.951,0,0,1-.978-.71,3.748,3.748,0,0,1-.723-1A104.565,104.565,0,0,1,1.5,191.565c-.017-.169-.031-.341-.046-.51,0-.053-.007-.109-.012-.162v-.015a3.922,3.922,0,0,1,.848-2.581s40.166-54.709,56.872-69.719c10.417-9.361,22.113-14.061,33.988-7.878l100.608,52.393a3.9,3.9,0,0,1,1.807,1.983,77.082,77.082,0,0,1,5.284,22.941,85.584,85.584,0,0,1-4,33.408" transform="translate(-1.089 -81.863)" fill="#99b9ff"/>
    <path id="パス_30910" data-name="パス 30910" d="M246.21,123.05s2.754-3.694,9.822-5.434c8.225-2.025,21.035-2.432,21.035-2.432s-5.84.408-8.2,10.589a1.1,1.1,0,0,1-.8.834,1.547,1.547,0,0,1-1.5-.157c-9.324-8.938-20.356-3.4-20.356-3.4" transform="translate(-186.792 -87.388)" fill="#caddff"/>
    <path id="パス_30911" data-name="パス 30911" d="M278.235,110.061a28.532,28.532,0,0,0-21.48.884,25.467,25.467,0,0,0-8.694,6.44s9.985-6.454,18.5.134a2.9,2.9,0,0,0,4.627-.853c2.347-7.431,7.051-6.6,7.051-6.6" transform="translate(-188.197 -82.229)" fill="#5479f7"/>
    <path id="パス_30912" data-name="パス 30912" d="M430.727,517.617a3.906,3.906,0,0,1-1.682-.389c-.442-.21-44.555-21.205-58.934-28.924-1.144-.614-1.782-1.271-1.895-1.952a1.476,1.476,0,0,1,.444-1.277c4.48-4.815,18.092-19.236,18.229-19.381a4.193,4.193,0,0,1,4.189-.641l.034.014,57.117,27.843a2.39,2.39,0,0,1,1.351,1.583,1.866,1.866,0,0,1-.39,1.586l-16.311,20.63a2.724,2.724,0,0,1-2.152.909M389.48,465.5a2.953,2.953,0,0,0-2.066.689c-.135.143-13.745,14.562-18.223,19.375a.78.78,0,0,0-.26.665c.072.436.613.945,1.523,1.434,14.363,7.711,58.46,28.7,58.9,28.909a2.528,2.528,0,0,0,2.956-.318l16.312-20.631a1.154,1.154,0,0,0,.248-.98,1.683,1.683,0,0,0-.965-1.087l-57.1-27.832a3.959,3.959,0,0,0-1.332-.223" transform="translate(-279.342 -352.611)"/>
    <path id="パス_30913" data-name="パス 30913" d="M392.19,499.319l-2.237-.042,8.532-9.038.957,1.269a1.541,1.541,0,0,1-.149,2.092l-4.509,4.724a3.845,3.845,0,0,1-2.6.995m-.587-.735.58.011a3.149,3.149,0,0,0,2.079-.771l4.509-4.724a.826.826,0,0,0,.094-1.156l-.441-.585Z" transform="translate(-295.846 -371.93)"/>
    <path id="パス_30914" data-name="パス 30914" d="M549.437,585.184l-2.661-1.073a1.376,1.376,0,0,1-.72-.657l-4.131-9.382c-.281-.642.3-1.31,1.3-1.494l6.568-1.209c.947-.174,1.513-.793,1.294-1.411l-.1-.294c-.227-.638.385-1.269,1.369-1.416l13.506-2.021a1.408,1.408,0,0,1,.5.02,1.248,1.248,0,0,1,1.008.779,2.072,2.072,0,0,1-.39,2l-13.091,15.469a4.1,4.1,0,0,1-4.448.691" transform="translate(-411.089 -429.57)" fill="#5479f7"/>
    <path id="パス_30915" data-name="パス 30915" d="M566.97,544.754c1.346.489,1.837,1.576,1.1,2.43a3.716,3.716,0,0,1-3.8.668c-1.358-.49-1.849-1.584-1.1-2.441a3.727,3.727,0,0,1,3.8-.657" transform="translate(-426.995 -413.109)" fill="#caddff"/>
    <path id="パス_30916" data-name="パス 30916" d="M518.306,559.274a5.137,5.137,0,0,1-2.157-.453l-15.67-7.615a2.651,2.651,0,0,1-1.605-1.771,1.989,1.989,0,0,1,.518-1.739l13.6-15.376c1.107-1.251,3.66-1.59,5.464-.724l2.317,1.111a.362.362,0,1,1-.313.653l-2.316-1.111c-1.514-.726-3.711-.464-4.608.551l-13.6,15.376a1.266,1.266,0,0,0-.352,1.112,1.992,1.992,0,0,0,1.208,1.265l15.67,7.615c1.548.723,3.787.392,4.693-.7l13.06-15.674a1.179,1.179,0,0,0,.29-1.025,1.973,1.973,0,0,0-1.166-1.232l-6.178-2.964a.362.362,0,0,1,.313-.653l6.178,2.964a2.642,2.642,0,0,1,1.56,1.731,1.9,1.9,0,0,1-.441,1.643l-13.06,15.674a4.5,4.5,0,0,1-3.4,1.339" transform="translate(-378.452 -402.942)"/>
    <path id="パス_30917" data-name="パス 30917" d="M623.175,612.468l-9.4,11.521a1.04,1.04,0,0,1-1.079.222c-.387-.135-.529-.453-.319-.71l9.43-11.521a1,1,0,0,1,1.048-.2c.376.135.518.444.316.691" transform="translate(-464.522 -464.09)" fill="#fff"/>
    <path id="パス_30918" data-name="パス 30918" d="M605.16,635.43l-3.7,4.494a1.048,1.048,0,0,1-1.085.221c-.388-.135-.53-.453-.318-.71l3.71-4.494a1.035,1.035,0,0,1,1.072-.213c.383.135.525.45.317.7" transform="translate(-455.174 -481.503)" fill="#99b9ff"/>
    <path id="パス_30919" data-name="パス 30919" d="M502.693,518.828l-10.005,11.131a1.116,1.116,0,0,1-1.119.2c-.4-.141-.534-.456-.309-.7L501.3,518.32a1.077,1.077,0,0,1,1.086-.178c.384.14.522.447.307.686" transform="translate(-372.622 -393.046)" fill="#fff"/>
    <path id="パス_30920" data-name="パス 30920" d="M484.09,540.652l-3.936,4.341a1.125,1.125,0,0,1-1.124.194c-.4-.141-.534-.457-.309-.7l3.95-4.341a1.11,1.11,0,0,1,1.111-.187c.391.141.529.453.308.7" transform="translate(-363.11 -409.596)" fill="#fff"/>
    <path id="パス_30921" data-name="パス 30921" d="M419.684,506.39l-4.975,5.259a1.264,1.264,0,0,1-1.241.2c-.434-.155-.581-.5-.328-.763l4.994-5.259a1.243,1.243,0,0,1,1.223-.192c.428.155.574.491.327.752" transform="translate(-313.343 -383.554)" fill="#caddff"/>
    <path id="パス_30922" data-name="パス 30922" d="M482.338,492.163h-.032a7.367,7.367,0,0,0-.756-.027h-.006a.362.362,0,0,1-.006-.724,8.085,8.085,0,0,1,.831.03.362.362,0,0,1-.031.723" transform="translate(-365.059 -372.818)" fill="#5479f7"/>
    <path id="パス_30923" data-name="パス 30923" d="M488.691,506.391a5.121,5.121,0,0,0,2.824-1.3,2.032,2.032,0,0,0,.583-2.152,8.9,8.9,0,0,0-2.108,1.559,5.887,5.887,0,0,0-1.3,1.889" transform="translate(-370.756 -381.568)" fill="#5479f7"/>
    <path id="パス_30924" data-name="パス 30924" d="M472.039,497.87a1.3,1.3,0,0,0-.562.307l-.794.792a.573.573,0,0,0-.171.6l.022.069a1.227,1.227,0,0,0,1.05.662l1.445.2,1.646-1.678-1.055-.737a1.978,1.978,0,0,0-1.581-.212" transform="translate(-356.943 -377.662)" fill="#5479f7"/>
    <path id="パス_30925" data-name="パス 30925" d="M477.295,500.15l-.019.008.076,1.7.769.3a2.511,2.511,0,0,0,1.4.1l1.169.454a1.353,1.353,0,0,0,1.342-.188c.279-.283.133-.658-.328-.837l-1.136-.442a1.09,1.09,0,0,0-.767-.778l-.813-.317a2.4,2.4,0,0,0-1.7.006" transform="translate(-362.095 -379.33)" fill="#99b9ff"/>
    <path id="パス_30926" data-name="パス 30926" d="M474.592,501.535a2.794,2.794,0,0,1-1-.182l-1.535-.6a.855.855,0,0,1-.566-.593.675.675,0,0,1,.2-.622l.5-.5a2.532,2.532,0,0,1,2.539-.377l.813.316a1.474,1.474,0,0,1,.984,1,1.055,1.055,0,0,1-.319.978.557.557,0,0,0-.591.383,2.713,2.713,0,0,1-1.019.192m-2.37-1.5a.382.382,0,0,0,.094.05l1.534.6a2.11,2.11,0,0,0,1.485-.005.365.365,0,0,1,.249-.01.36.36,0,0,1,.1-.213.346.346,0,0,0,.124-.317.814.814,0,0,0-.539-.472l-.813-.317a1.851,1.851,0,0,0-1.764.215Z" transform="translate(-357.694 -378.193)" fill="#5479f7"/>
    <path id="パス_30927" data-name="パス 30927" d="M467.128,498.488c-2.375,0-4.494-1.037-5.078-2.591a2.256,2.256,0,0,1,.169-1.968,4.739,4.739,0,0,1,3.4-2,.362.362,0,0,1,.125.713,4.1,4.1,0,0,0-2.9,1.651,1.531,1.531,0,0,0-.119,1.353c.542,1.442,3.021,2.381,5.416,2.053a4.257,4.257,0,0,0,3.131-1.663,1.534,1.534,0,0,0,.132-1.388,3.416,3.416,0,0,0-2.2-1.756.362.362,0,0,1,.233-.685,4.113,4.113,0,0,1,2.645,2.183,2.257,2.257,0,0,1-.186,2.016,4.962,4.962,0,0,1-3.656,2.012,8.25,8.25,0,0,1-1.115.076" transform="translate(-350.43 -373.205)" fill="#5479f7"/>
    <path id="パス_30928" data-name="パス 30928" d="M487.152,505.978a1.826,1.826,0,0,1-.658-.12l-1.168-.454a.362.362,0,0,1,.262-.675l1.169.454a1.014,1.014,0,0,0,.954-.105c.007-.007.041-.043.036-.063-.008-.039-.079-.12-.238-.182L486.4,504.4a.362.362,0,1,1,.263-.674l1.106.431a1.029,1.029,0,0,1,.683.706.786.786,0,0,1-.229.723,1.522,1.522,0,0,1-1.073.392" transform="translate(-368.027 -382.144)" fill="#5479f7"/>
    <path id="パス_30929" data-name="パス 30929" d="M429.966,547.883l-.039,0a7.669,7.669,0,0,0-.883-.043.358.358,0,0,1-.366-.358.362.362,0,0,1,.358-.366,8.458,8.458,0,0,1,.968.047.362.362,0,0,1-.038.722" transform="translate(-325.225 -415.079)" fill="#5479f7"/>
    <path id="パス_30930" data-name="パス 30930" d="M435.509,562.4a5.447,5.447,0,0,0,2.943-1.38,2.144,2.144,0,0,0,.631-2.24,9.544,9.544,0,0,0-2.2,1.644,6.323,6.323,0,0,0-1.369,1.977" transform="translate(-330.408 -423.928)" fill="#5479f7"/>
    <path id="パス_30931" data-name="パス 30931" d="M418.428,553.816a1.385,1.385,0,0,0-.586.326l-.833.832a.606.606,0,0,0-.185.622l.023.072a1.233,1.233,0,0,0,1.08.673l1.5.188,1.726-1.761-1.084-.752a2.031,2.031,0,0,0-1.636-.2" transform="translate(-316.213 -420.1)" fill="#5479f7"/>
    <path id="パス_30932" data-name="パス 30932" d="M423.9,556.165l-.02.008.058,1.759.794.3a2.587,2.587,0,0,0,1.454.085l1.205.457a1.415,1.415,0,0,0,1.393-.213c.293-.3.146-.684-.329-.864l-1.171-.445a1.1,1.1,0,0,0-.786-.8l-.838-.318a2.491,2.491,0,0,0-1.76.028" transform="translate(-321.587 -421.814)" fill="#99b9ff"/>
    <path id="パス_30933" data-name="パス 30933" d="M421.043,557.609a2.836,2.836,0,0,1-1-.175l-1.584-.6a.86.86,0,0,1-.576-.6.692.692,0,0,1,.205-.64l.52-.52a2.633,2.633,0,0,1,2.618-.417l.838.318a1.486,1.486,0,0,1,1,1A1.091,1.091,0,0,1,422.74,557a.535.535,0,0,0-.608.4,2.835,2.835,0,0,1-1.088.21m-2.429-1.509a.371.371,0,0,0,.1.057l1.584.6a2.195,2.195,0,0,0,1.548-.025.245.245,0,0,0,.375-.241.386.386,0,0,0,.138-.354.814.814,0,0,0-.553-.48l-.838-.318a1.922,1.922,0,0,0-1.849.251Z" transform="translate(-317.028 -420.676)" fill="#5479f7"/>
    <path id="パス_30934" data-name="パス 30934" d="M413.215,554.483c-2.417,0-4.546-1.042-5.124-2.624a2.338,2.338,0,0,1,.188-2.014,5.089,5.089,0,0,1,3.544-2.127.362.362,0,0,1,.132.712,4.383,4.383,0,0,0-3.048,1.774,1.615,1.615,0,0,0-.136,1.407c.544,1.49,3.105,2.434,5.594,2.063a4.545,4.545,0,0,0,3.289-1.79,1.617,1.617,0,0,0,.15-1.443,3.429,3.429,0,0,0-2.261-1.795.362.362,0,1,1,.227-.688,4.123,4.123,0,0,1,2.713,2.231,2.341,2.341,0,0,1-.2,2.064,5.251,5.251,0,0,1-3.806,2.137,8.492,8.492,0,0,1-1.258.094" transform="translate(-309.496 -415.533)" fill="#5479f7"/>
    <path id="パス_30935" data-name="パス 30935" d="M434.028,562.1a1.857,1.857,0,0,1-.654-.116l-1.205-.456a.362.362,0,0,1,.256-.677l1.205.456a1.073,1.073,0,0,0,1.007-.128c.016-.016.051-.056.045-.084s-.069-.12-.245-.187l-1.141-.433a.362.362,0,0,1,.257-.677l1.141.433a1.039,1.039,0,0,1,.7.71.811.811,0,0,1-.237.747,1.6,1.6,0,0,1-1.125.413" transform="translate(-327.696 -424.681)" fill="#5479f7"/>
    <path id="パス_30936" data-name="パス 30936" d="M436.139,527.859a.376.376,0,0,1-.089-.011.362.362,0,0,1-.263-.439,2.517,2.517,0,0,1,.276-.663.362.362,0,1,1,.624.368,1.78,1.78,0,0,0-.2.472.362.362,0,0,1-.351.274" transform="translate(-330.611 -399.492)" fill="#99b9ff"/>
    <path id="パス_30937" data-name="パス 30937" d="M462.367,533.559a5.279,5.279,0,0,0,2.882-1.337,2.086,2.086,0,0,0,.606-2.2,9.213,9.213,0,0,0-2.155,1.6,6.1,6.1,0,0,0-1.333,1.932" transform="translate(-350.784 -402.116)" fill="#5479f7"/>
    <path id="パス_30938" data-name="パス 30938" d="M445.224,525.116a1.386,1.386,0,0,0-.3.217l-.8.8a.59.59,0,0,0-.178.609l.023.07a.939.939,0,0,0,.542.524,11.262,11.262,0,0,1,1.5.78l.454.294a.72.72,0,0,0,.82-.061l2.137-2.307c.165-.178.016-.407-.3-.465l-.3-.055c-.747-.137-1.462-.331-2.177-.526a2.077,2.077,0,0,0-1.414.118" transform="translate(-336.785 -398.246)" fill="#5479f7"/>
    <path id="パス_30939" data-name="パス 30939" d="M450.867,527.321l-.019.008.067,1.726.781.3a2.549,2.549,0,0,0,1.428.092l1.187.455a1.383,1.383,0,0,0,1.367-.2c.286-.29.139-.67-.328-.85l-1.153-.444a1.093,1.093,0,0,0-.776-.787l-.825-.317a2.446,2.446,0,0,0-1.728.016" transform="translate(-342.045 -399.937)" fill="#99b9ff"/>
    <path id="パス_30940" data-name="パス 30940" d="M448.088,528.734a2.816,2.816,0,0,1-1-.179l-1.559-.6a.857.857,0,0,1-.57-.594.683.683,0,0,1,.2-.631l.508-.507a2.58,2.58,0,0,1,2.578-.4l.825.317a1.48,1.48,0,0,1,.993,1,1.073,1.073,0,0,1-.325,1,.546.546,0,0,0-.6.39,2.774,2.774,0,0,1-1.052.2m-2.4-1.506a.384.384,0,0,0,.1.053l1.559.6a2.151,2.151,0,0,0,1.516-.015.638.638,0,0,0,.494-.567.819.819,0,0,0-.545-.476l-.825-.317a1.87,1.87,0,0,0-1.806.232Z" transform="translate(-337.566 -398.8)" fill="#5479f7"/>
    <path id="パス_30941" data-name="パス 30941" d="M440.517,525.28c-2.764,0-5.014-1.324-5.254-3.1a.362.362,0,1,1,.717-.1c.188,1.395,2.274,2.5,4.634,2.477a5.544,5.544,0,0,0,3.84-1.37,1.847,1.847,0,0,0,.571-1.338c-.055-1.455-2.093-2.628-4.553-2.628h-.052a6.037,6.037,0,0,0-3.448.993.362.362,0,1,1-.427-.585,6.774,6.774,0,0,1,3.87-1.132h.058c2.893,0,5.205,1.453,5.276,3.325a2.553,2.553,0,0,1-.77,1.865,6.189,6.189,0,0,1-4.356,1.6h-.105" transform="translate(-330.218 -393.367)" fill="#5479f7"/>
    <path id="パス_30942" data-name="パス 30942" d="M460.856,533.2a1.842,1.842,0,0,1-.657-.119l-1.186-.455a.362.362,0,0,1,.259-.676l1.186.455a1.04,1.04,0,0,0,.98-.116c.011-.011.046-.049.041-.073-.009-.041-.08-.123-.242-.185l-1.123-.432a.362.362,0,1,1,.26-.676l1.123.432a1.036,1.036,0,0,1,.69.708.8.8,0,0,1-.234.734,1.559,1.559,0,0,1-1.1.4" transform="translate(-348.064 -402.779)" fill="#5479f7"/>
    <path id="パス_30943" data-name="パス 30943" d="M477.407,581.368a5.312,5.312,0,0,0,2.89-1.391,2.154,2.154,0,0,0,.6-2.242,9.357,9.357,0,0,0-2.159,1.652,6.274,6.274,0,0,0-1.332,1.981" transform="translate(-362.195 -438.311)" fill="#5479f7"/>
    <path id="パス_30944" data-name="パス 30944" d="M460.142,572.991a1.415,1.415,0,0,0-.3.225l-.8.824a.609.609,0,0,0-.177.623l.023.071a.94.94,0,0,0,.546.528,11.131,11.131,0,0,1,1.511.778l.457.3a.716.716,0,0,0,.824-.07l2.139-2.372c.165-.183.015-.414-.306-.471l-.3-.053c-.751-.131-1.469-.322-2.188-.513a2.064,2.064,0,0,0-1.419.134" transform="translate(-348.102 -434.559)" fill="#5479f7"/>
    <path id="パス_30945" data-name="パス 30945" d="M465.8,575.22l-.019.008.073,1.757.786.3a2.523,2.523,0,0,0,1.435.079l1.193.451a1.378,1.378,0,0,0,1.372-.218c.286-.3.137-.684-.333-.862l-1.159-.439a1.1,1.1,0,0,0-.782-.794l-.83-.315a2.426,2.426,0,0,0-1.736.035" transform="translate(-353.375 -436.268)" fill="#99b9ff"/>
    <path id="パス_30946" data-name="パス 30946" d="M463.007,576.656a2.779,2.779,0,0,1-.976-.172l-1.567-.592a.86.86,0,0,1-.573-.591.7.7,0,0,1,.2-.64l.508-.522a2.574,2.574,0,0,1,2.588-.429l.83.315a1.487,1.487,0,0,1,1,1,1.094,1.094,0,0,1-.319,1.016.541.541,0,0,0-.6.4,2.763,2.763,0,0,1-1.088.216m-2.392-1.5a.361.361,0,0,0,.1.058l1.568.592a2.125,2.125,0,0,0,1.52-.031.242.242,0,0,0,.365-.241.387.387,0,0,0,.133-.355.814.814,0,0,0-.549-.479l-.83-.314a1.862,1.862,0,0,0-1.812.257Z" transform="translate(-348.894 -435.13)" fill="#5479f7"/>
    <path id="パス_30947" data-name="パス 30947" d="M455.354,573.122c-2.736,0-4.955-1.314-5.2-3.1a.362.362,0,1,1,.717-.1c.194,1.42,2.28,2.541,4.661,2.477a5.506,5.506,0,0,0,3.839-1.422,1.926,1.926,0,0,0,.585-1.392c-.061-1.494-2.137-2.672-4.633-2.631a6.038,6.038,0,0,0-3.46,1.048.362.362,0,0,1-.435-.578,6.773,6.773,0,0,1,3.883-1.193h.146c2.865,0,5.146,1.444,5.222,3.327a2.63,2.63,0,0,1-.78,1.916,6.23,6.23,0,0,1-4.351,1.651l-.2,0" transform="translate(-341.517 -429.578)" fill="#5479f7"/>
    <path id="パス_30948" data-name="パス 30948" d="M475.853,581.1a1.82,1.82,0,0,1-.641-.114l-1.193-.451a.362.362,0,1,1,.256-.677l1.193.451a1.038,1.038,0,0,0,.983-.13c.019-.02.05-.057.043-.086s-.069-.122-.243-.187l-1.13-.428a.362.362,0,0,1,.256-.677l1.13.428a1.039,1.039,0,0,1,.693.705.812.812,0,0,1-.228.746,1.569,1.569,0,0,1-1.12.42" transform="translate(-359.447 -439.1)" fill="#5479f7"/>
    <path id="パス_30949" data-name="パス 30949" d="M316.959,277.286a.677.677,0,0,0-.264-1.128,1.42,1.42,0,0,0-1.559.243.677.677,0,0,0,.264,1.128,1.42,1.42,0,0,0,1.559-.243" transform="translate(-238.927 -209.414)" fill="#caddff"/>
    <path id="パス_30950" data-name="パス 30950" d="M324.6,278.836a4.277,4.277,0,0,1-1.876-.435l-60.438-29.477a2.456,2.456,0,0,1-1.428-1.709,2.142,2.142,0,0,1,.618-1.876l22.154-23.455a4.123,4.123,0,0,1,4.584-.726L349.4,250.963a2.02,2.02,0,0,1,.576,3.211l-22.292,23.339a4.259,4.259,0,0,1-3.083,1.323m-38.145-57.343a3.2,3.2,0,0,0-2.3.888L262,245.836a1.439,1.439,0,0,0-.433,1.249,1.749,1.749,0,0,0,1.033,1.188l60.438,29.477a3.532,3.532,0,0,0,4.118-.738l22.293-23.339a1.3,1.3,0,0,0-.369-2.06L287.9,221.809a3.322,3.322,0,0,0-1.442-.315" transform="translate(-197.881 -167.491)"/>
    <path id="パス_30951" data-name="パス 30951" d="M301.236,268.174a.36.36,0,0,1-.158-.036l-10.417-5.066a.362.362,0,0,1-.1-.574l20.412-21.611a.362.362,0,0,1,.422-.077l10.417,5.066a.362.362,0,0,1,.1.574L301.5,268.061a.363.363,0,0,1-.263.113m-9.815-5.538,9.734,4.734,19.891-21.059-9.734-4.734Z" transform="translate(-220.362 -182.667)" fill="#fff"/>
    <path id="パス_30952" data-name="パス 30952" d="M396.34,314.974a.36.36,0,0,1-.158-.036l-10.417-5.066a.362.362,0,0,1-.1-.574l20.412-21.611a.362.362,0,0,1,.422-.077l10.417,5.066a.362.362,0,0,1,.1.574L396.6,314.861a.363.363,0,0,1-.263.113m-9.815-5.538,9.735,4.734,19.891-21.059-9.735-4.735Z" transform="translate(-292.514 -218.173)" fill="#fff"/>
    <path id="パス_30953" data-name="パス 30953" d="M452.7,342.2a.36.36,0,0,1-.158-.036l-18.982-9.232a.362.362,0,0,1-.1-.574l20.412-21.611a.362.362,0,0,1,.422-.077l18.982,9.232a.362.362,0,0,1,.1.574L452.964,342.09a.363.363,0,0,1-.263.113m-18.38-9.7,18.3,8.9,19.891-21.059-18.3-8.9Z" transform="translate(-328.775 -235.671)" fill="#fff"/>
    <path id="パス_30954" data-name="パス 30954" d="M348.676,327.249a.36.36,0,0,1-.158-.036L338.1,322.146a.362.362,0,0,1-.1-.574l9.922-10.505a.362.362,0,0,1,.422-.077l10.417,5.066a.362.362,0,0,1,.1.574l-9.922,10.505a.363.363,0,0,1-.263.113m-9.815-5.538,9.735,4.734,9.4-9.953-9.735-4.734Z" transform="translate(-256.352 -235.911)" fill="#fff"/>
    <path id="パス_30955" data-name="パス 30955" d="M393.688,280.022a.362.362,0,0,1-.158-.036l-10.417-5.066a.362.362,0,0,1-.1-.574l9.639-10.205a.362.362,0,0,1,.422-.077l10.417,5.067a.362.362,0,0,1,.105.574l-9.639,10.205a.363.363,0,0,1-.263.113m-9.815-5.538,9.734,4.734,9.118-9.653-9.734-4.734Z" transform="translate(-290.502 -200.309)" fill="#fff"/>
    <path id="パス_30956" data-name="パス 30956" d="M411.652,366.185a3.286,3.286,0,1,1,3.825-3.241,3.574,3.574,0,0,1-3.825,3.241m0-5.759a2.572,2.572,0,1,0,3.1,2.518,2.859,2.859,0,0,0-3.1-2.518" transform="translate(-309.406 -272.895)" fill="#5479f7"/>
    <path id="パス_30957" data-name="パス 30957" d="M318.889,320.679a3.286,3.286,0,1,1,3.825-3.241,3.574,3.574,0,0,1-3.825,3.241m0-5.759a2.572,2.572,0,1,0,3.1,2.518,2.859,2.859,0,0,0-3.1-2.518" transform="translate(-239.03 -238.371)" fill="#5479f7"/>
    <path id="パス_30958" data-name="パス 30958" d="M474.048,393.711c-2.357,0-4.275-1.622-4.275-3.615s1.917-3.615,4.275-3.615,4.274,1.622,4.274,3.615-1.917,3.615-4.274,3.615m0-6.506c-1.958,0-3.551,1.3-3.551,2.891s1.593,2.891,3.551,2.891,3.55-1.3,3.55-2.891-1.593-2.891-3.55-2.891" transform="translate(-356.403 -293.212)" fill="#5479f7"/>
    <path id="パス_30959" data-name="パス 30959" d="M480.129,385.937a.366.366,0,0,1-.083-.01,10.218,10.218,0,0,0-3.425-.1.362.362,0,1,1-.115-.715,11.345,11.345,0,0,1,2.957-.029,25.143,25.143,0,0,1-2.213-5.224.362.362,0,0,1,.719-.081c.119,1.054,1.83,4.415,2.479,5.622a.362.362,0,0,1-.319.534" transform="translate(-361.28 -287.886)" fill="#fff"/>
    <path id="パス_30960" data-name="パス 30960" d="M499.567,343.12a.362.362,0,0,1-.264-.61l8.147-8.662a.362.362,0,0,1,.528.5l-8.147,8.661a.36.36,0,0,1-.264.114" transform="translate(-378.732 -253.195)"/>
    <path id="パス_30961" data-name="パス 30961" d="M519.538,355.055a.362.362,0,0,1-.264-.61l8.746-9.3a.362.362,0,0,1,.528.5l-8.746,9.3a.36.36,0,0,1-.264.114" transform="translate(-393.884 -261.766)"/>
    <path id="パス_30962" data-name="パス 30962" d="M538.19,345.058a5.285,5.285,0,0,1-.418-1.086l.169-.193a6.373,6.373,0,0,0,.523.965Zm.5-.459a5.337,5.337,0,0,1-.421-1.082l.169-.193a6.383,6.383,0,0,0,.523.964Z" transform="translate(-407.992 -260.47)"/>
    <path id="パス_30963" data-name="パス 30963" d="M516.893,366.9a5.3,5.3,0,0,1-.418-1.085l.169-.193a6.374,6.374,0,0,0,.523.965Zm.5-.459a5.338,5.338,0,0,1-.421-1.082l.169-.193a6.383,6.383,0,0,0,.523.964Z" transform="translate(-391.835 -277.039)"/>
    <path id="パス_30964" data-name="パス 30964" d="M349.681,279.935a.362.362,0,0,1-.264-.61l8.746-9.3a.362.362,0,0,1,.528.5l-8.746,9.3a.36.36,0,0,1-.264.114" transform="translate(-265.018 -204.775)"/>
    <path id="パス_30965" data-name="パス 30965" d="M368.333,269.937a5.283,5.283,0,0,1-.418-1.086l.169-.193a6.379,6.379,0,0,0,.523.965Zm.5-.459a5.339,5.339,0,0,1-.421-1.082l.169-.193a6.386,6.386,0,0,0,.523.964Z" transform="translate(-279.126 -203.478)"/>
    <path id="パス_30966" data-name="パス 30966" d="M347.036,291.778a5.3,5.3,0,0,1-.418-1.086l.169-.193a6.384,6.384,0,0,0,.523.965Zm.5-.459a5.339,5.339,0,0,1-.421-1.082l.169-.193a6.389,6.389,0,0,0,.523.964Z" transform="translate(-262.969 -220.048)"/>
    <path id="パス_30967" data-name="パス 30967" d="M129.983,544.6a1.819,1.819,0,0,1-.811-.188,1.235,1.235,0,0,1-.7-.845.955.955,0,0,1,.241-.829,1.686,1.686,0,0,1,1.936-.261,1.235,1.235,0,0,1,.7.846.954.954,0,0,1-.241.828,1.51,1.51,0,0,1-1.125.449m-.143-1.588a.811.811,0,0,0-.587.209.237.237,0,0,0-.069.21.538.538,0,0,0,.311.333.977.977,0,0,0,1.073-.1.238.238,0,0,0,.069-.21.539.539,0,0,0-.312-.333,1.088,1.088,0,0,0-.485-.112" transform="translate(-97.456 -411.417)"/>
    <path id="パス_30968" data-name="パス 30968" d="M146.455,549.709a4.28,4.28,0,0,1-1.907-.445L82.642,518.227A2.7,2.7,0,0,1,81.1,516.4a1.955,1.955,0,0,1,.5-1.7l19.735-22.02a3.872,3.872,0,0,1,4.447-.559l61.906,31.038a2.7,2.7,0,0,1,1.541,1.829,1.954,1.954,0,0,1-.5,1.7l-19.735,22.02a3.4,3.4,0,0,1-2.54,1m-42.57-57.3a2.72,2.72,0,0,0-2.012.754l-19.735,22.02a1.23,1.23,0,0,0-.327,1.077,2,2,0,0,0,1.154,1.317l61.906,31.037a3.214,3.214,0,0,0,3.583-.395L168.19,526.2a1.231,1.231,0,0,0,.326-1.077,2,2,0,0,0-1.154-1.317l-61.906-31.038a3.542,3.542,0,0,0-1.572-.359" transform="translate(-61.502 -373.023)"/>
    <path id="パス_30969" data-name="パス 30969" d="M114.109,534.028a1.684,1.684,0,0,1-.744-.175l-.87-.43a1.408,1.408,0,0,1-.735-.814,1.06,1.06,0,0,1,.221-1.035l17.765-19.822a1.508,1.508,0,0,1,1.772-.25l.87.43a1.406,1.406,0,0,1,.735.814,1.06,1.06,0,0,1-.221,1.035L115.136,533.6a1.369,1.369,0,0,1-1.027.425m16.663-21.978a.649.649,0,0,0-.486.184L112.52,532.057a.331.331,0,0,0-.07.335.7.7,0,0,0,.365.382l.87.43a.8.8,0,0,0,.911-.084L132.362,513.3a.33.33,0,0,0,.07-.335.694.694,0,0,0-.365-.382l-.87-.43a.97.97,0,0,0-.426-.1" transform="translate(-84.75 -387.928)"/>
    <path id="パス_30970" data-name="パス 30970" d="M297.488,626.1a1.683,1.683,0,0,1-.744-.175L294.06,624.6a1.407,1.407,0,0,1-.734-.814,1.059,1.059,0,0,1,.221-1.035l17.765-19.822a1.508,1.508,0,0,1,1.771-.251l2.683,1.326a1.406,1.406,0,0,1,.734.814,1.059,1.059,0,0,1-.221,1.035L298.515,625.68a1.368,1.368,0,0,1-1.027.425m-.423-.824a.8.8,0,0,0,.911-.085l17.766-19.822a.33.33,0,0,0,.07-.335.694.694,0,0,0-.365-.383l-2.683-1.326a.8.8,0,0,0-.911.084l-17.765,19.823a.33.33,0,0,0-.07.335.7.7,0,0,0,.365.382Z" transform="translate(-222.499 -457.104)"/>
    <path id="パス_30971" data-name="パス 30971" d="M326.072,640.185a1.682,1.682,0,0,1-.744-.175l-2.684-1.326a1.407,1.407,0,0,1-.734-.814,1.06,1.06,0,0,1,.221-1.035L339.9,617.012a1.508,1.508,0,0,1,1.771-.25l2.683,1.326a1.406,1.406,0,0,1,.734.814,1.059,1.059,0,0,1-.221,1.035L327.1,639.759a1.368,1.368,0,0,1-1.027.425m-.423-.824a.8.8,0,0,0,.911-.085l17.766-19.822a.33.33,0,0,0,.07-.335.694.694,0,0,0-.365-.383l-2.683-1.326a.8.8,0,0,0-.911.085L322.67,637.318a.33.33,0,0,0-.07.335.7.7,0,0,0,.365.382Z" transform="translate(-244.185 -467.786)"/>
    <path id="パス_30972" data-name="パス 30972" d="M151.054,552.759a.361.361,0,0,1-.16-.038l-21.833-10.79a.362.362,0,0,1-.109-.566l18.983-21.181a.362.362,0,0,1,.43-.083l21.833,10.79a.362.362,0,0,1,.109.566l-18.983,21.18a.362.362,0,0,1-.27.12m-21.245-11.265,21.159,10.457,18.481-20.621L148.29,520.873Z" transform="translate(-97.762 -394.558)" fill="#fff"/>
    <path id="パス_30973" data-name="パス 30973" d="M210.73,552.76a.362.362,0,0,1-.36-.33l-2.85-31.971a.362.362,0,1,1,.721-.064l2.85,31.97a.362.362,0,0,1-.328.393h-.033" transform="translate(-157.438 -394.559)" fill="#fff"/>
    <path id="パス_30974" data-name="パス 30974" d="M129.221,575.89a.362.362,0,0,1-.089-.713l40.816-10.391a.362.362,0,0,1,.179.7l-40.815,10.391a.371.371,0,0,1-.09.011" transform="translate(-97.762 -428.479)" fill="#fff"/>
    <path id="パス_30975" data-name="パス 30975" d="M282.138,586.693a.364.364,0,0,1-.16-.037L269.124,580.3a.362.362,0,0,1-.109-.566l8.884-9.913a.361.361,0,0,1,.43-.083l12.853,6.352a.362.362,0,0,1,.109.566l-8.884,9.913a.363.363,0,0,1-.27.12m-12.265-6.827,12.179,6.019,8.382-9.353-12.179-6.019Z" transform="translate(-204.024 -432.218)" fill="#fff"/>
    <path id="パス_30976" data-name="パス 30976" d="M310.066,586.692a.362.362,0,0,1-.351-.276l-3.969-16.265a.362.362,0,1,1,.7-.172l3.969,16.265a.362.362,0,0,1-.266.437.366.366,0,0,1-.086.01" transform="translate(-231.953 -432.217)" fill="#fff"/>
    <path id="パス_30977" data-name="パス 30977" d="M269.283,600.311a.362.362,0,0,1-.058-.719l21.737-3.561a.362.362,0,1,1,.117.715l-21.737,3.56a.344.344,0,0,1-.059,0" transform="translate(-204.023 -452.188)" fill="#fff"/>
    <path id="パス_30978" data-name="パス 30978" d="M240.906,632.7a.364.364,0,0,1-.16-.037l-12.853-6.352a.362.362,0,0,1-.109-.566l8.884-9.913a.362.362,0,0,1,.43-.083l12.853,6.352a.362.362,0,0,1,.109.566l-8.884,9.913a.362.362,0,0,1-.27.12m-12.265-6.827,12.179,6.019,8.382-9.353-12.179-6.019Z" transform="translate(-172.742 -467.121)" fill="#fff"/>
    <path id="パス_30979" data-name="パス 30979" d="M268.834,632.7a.362.362,0,0,1-.351-.276l-3.969-16.265a.362.362,0,1,1,.7-.172l3.969,16.265a.362.362,0,0,1-.266.437.366.366,0,0,1-.086.01" transform="translate(-200.671 -467.119)" fill="#fff"/>
    <path id="パス_30980" data-name="パス 30980" d="M228.053,646.315a.362.362,0,0,1-.058-.719l21.737-3.561a.362.362,0,1,1,.117.715l-21.737,3.56a.344.344,0,0,1-.059,0" transform="translate(-172.743 -487.089)" fill="#fff"/>
    <path id="パス_30981" data-name="パス 30981" d="M131.85,363.507a3.982,3.982,0,0,1-1.81-.433L69.637,332a2.586,2.586,0,0,1-1.446-1.747,1.859,1.859,0,0,1,.463-1.6l19.194-21.67a3.57,3.57,0,0,1,4.156-.5l60.4,31.071a2.586,2.586,0,0,1,1.446,1.747,1.86,1.86,0,0,1-.463,1.6L134.2,362.57a3.121,3.121,0,0,1-2.346.937M90.2,306.78a2.431,2.431,0,0,0-1.812.684L69.2,329.134a1.136,1.136,0,0,0-.293.988,1.877,1.877,0,0,0,1.066,1.237l60.4,31.071a2.906,2.906,0,0,0,3.283-.339l19.194-21.67a1.136,1.136,0,0,0,.293-.988,1.877,1.877,0,0,0-1.066-1.237l-60.4-31.071a3.245,3.245,0,0,0-1.47-.345m-2.083.445h0Z" transform="translate(-51.71 -232.19)"/>
    <path id="パス_30982" data-name="パス 30982" d="M89.956,342.657a4.265,4.265,0,0,1-1.94-.465l-1.289-.663a.362.362,0,0,1-.105-.562L97.756,328.4a.362.362,0,0,1,.437-.082l1.289.663a2.762,2.762,0,0,1,1.545,1.865,1.978,1.978,0,0,1-.493,1.7l-8.069,9.109a3.338,3.338,0,0,1-2.509,1M87.473,341.1l.875.45a3.165,3.165,0,0,0,3.576-.373l8.069-9.109a1.252,1.252,0,0,0,.323-1.09,2.053,2.053,0,0,0-1.165-1.354l-1.039-.535Z" transform="translate(-65.648 -249.052)"/>
    <path id="パス_30983" data-name="パス 30983" d="M104.347,349.54a.358.358,0,0,1-.166-.04l-2.656-1.366a.362.362,0,0,1-.105-.562l18.111-20.446a.361.361,0,0,1,.437-.082l2.656,1.366a.362.362,0,0,1,.105.562l-18.111,20.446a.361.361,0,0,1-.271.122m-2.076-1.837,1.991,1.024,17.615-19.887-1.991-1.024Z" transform="translate(-76.876 -248.088)" fill="#fff"/>
    <path id="パス_30984" data-name="パス 30984" d="M138.411,367.064a.36.36,0,0,1-.165-.04l-17.672-9.09a.362.362,0,0,1-.105-.562l18.111-20.446a.362.362,0,0,1,.437-.082l17.672,9.09a.362.362,0,0,1,.105.562l-18.111,20.446a.362.362,0,0,1-.271.122M121.32,357.5l17.007,8.748,17.615-19.887-17.007-8.748Z" transform="translate(-91.327 -255.523)" fill="#fff"/>
    <path id="パス_30985" data-name="パス 30985" d="M210.024,403.9a.36.36,0,0,1-.165-.04l-11.017-5.667a.362.362,0,0,1-.105-.562l18.111-20.446a.362.362,0,0,1,.437-.082L228.3,382.77a.362.362,0,0,1,.105.562l-18.111,20.446a.362.362,0,0,1-.271.122m-10.437-6.138,10.353,5.325L227.554,383.2,217.2,377.876Z" transform="translate(-150.706 -286.067)" fill="#fff"/>
    <path id="パス_30986" data-name="パス 30986" d="M262.343,430.812a.361.361,0,0,1-.165-.04l-11.017-5.667a.362.362,0,0,1-.105-.562L269.165,404.1a.361.361,0,0,1,.437-.082l11.017,5.667a.362.362,0,0,1,.105.562L262.614,430.69a.362.362,0,0,1-.271.122m-10.437-6.138L262.258,430l17.615-19.887-10.353-5.325Z" transform="translate(-190.399 -306.484)" fill="#fff"/>
    <path id="パス_30987" data-name="パス 30987" d="M310.933,455.806a.359.359,0,0,1-.166-.04l-7.288-3.749a.362.362,0,0,1-.105-.562l18.111-20.446a.362.362,0,0,1,.437-.082l7.288,3.749a.362.362,0,0,1,.105.562L311.2,455.684a.361.361,0,0,1-.271.122m-6.707-4.22,6.623,3.407,17.615-19.887-6.623-3.407Z" transform="translate(-230.092 -326.901)" fill="#fff"/>
    <path id="パス_30988" data-name="パス 30988" d="M181.262,388.64c-2.357,0-4.275-1.622-4.275-3.615s1.918-3.615,4.275-3.615,4.275,1.622,4.275,3.615-1.918,3.615-4.275,3.615m0-6.506c-1.958,0-3.551,1.3-3.551,2.891s1.593,2.891,3.551,2.891,3.551-1.3,3.551-2.891-1.593-2.891-3.551-2.891" transform="translate(-134.275 -289.365)" fill="#5479f7"/>
    <path id="パス_30989" data-name="パス 30989" d="M187.344,380.865a.364.364,0,0,1-.083-.01,10.21,10.21,0,0,0-3.425-.1.362.362,0,1,1-.115-.715,11.334,11.334,0,0,1,2.957-.029,25.14,25.14,0,0,1-2.213-5.224.362.362,0,0,1,.719-.081c.119,1.054,1.83,4.416,2.479,5.622a.362.362,0,0,1-.319.534" transform="translate(-139.152 -284.038)" fill="#5479f7"/>
    <path id="パス_30990" data-name="パス 30990" d="M248.889,421.9c-2.357,0-4.275-1.622-4.275-3.615s1.918-3.615,4.275-3.615,4.275,1.622,4.275,3.615-1.918,3.615-4.275,3.615m0-6.506c-1.958,0-3.551,1.3-3.551,2.891s1.593,2.891,3.551,2.891,3.551-1.3,3.551-2.891-1.593-2.891-3.551-2.891" transform="translate(-185.582 -314.595)" fill="#5479f7"/>
    <path id="パス_30991" data-name="パス 30991" d="M256.57,425.172a.362.362,0,0,1-.284-.586l2.229-2.829a.362.362,0,0,1,.569.448l-2.229,2.829a.362.362,0,0,1-.285.138" transform="translate(-194.378 -319.87)" fill="#5479f7"/>
    <path id="パス_30992" data-name="パス 30992" d="M257.695,426.821a.36.36,0,0,1-.154-.035l-3.26-1.53a.362.362,0,1,1,.308-.655l3.26,1.53a.362.362,0,0,1-.154.689" transform="translate(-192.758 -322.106)" fill="#5479f7"/>
    <path id="パス_30993" data-name="パス 30993" d="M299.375,451.828c-2.357,0-4.275-1.622-4.275-3.615s1.918-3.615,4.275-3.615,4.275,1.622,4.275,3.615-1.918,3.615-4.275,3.615m0-6.506c-1.958,0-3.551,1.3-3.551,2.891s1.593,2.891,3.551,2.891,3.551-1.3,3.551-2.891-1.593-2.891-3.551-2.891" transform="translate(-223.884 -337.304)" fill="#5479f7"/>
    <path id="パス_30994" data-name="パス 30994" d="M306.721,455.571a.361.361,0,0,1-.174-.045l-2.785-1.531a.362.362,0,0,1-.041-.608l1.468-1.088-.228-.025a.362.362,0,0,1,.079-.72l1.146.126a.362.362,0,0,1,.176.651l-1.756,1.3,2.291,1.26a.362.362,0,0,1-.175.679" transform="translate(-230.313 -342.578)" fill="#5479f7"/>
    <path id="パス_30995" data-name="パス 30995" d="M312.92,453.73H312.9a.361.361,0,0,1-.346-.377l.042-.936a.358.358,0,0,1,.377-.346.362.362,0,0,1,.346.378l-.042.936a.362.362,0,0,1-.361.346" transform="translate(-237.128 -342.971)" fill="#5479f7"/>
    <path id="パス_30996" data-name="パス 30996" d="M581.475,456.454c-2.357,0-4.275-1.622-4.275-3.615s1.918-3.615,4.275-3.615,4.275,1.622,4.275,3.615-1.918,3.615-4.275,3.615m0-6.506c-1.958,0-3.551,1.3-3.551,2.891s1.593,2.891,3.551,2.891,3.551-1.3,3.551-2.891-1.593-2.891-3.551-2.891" transform="translate(-437.905 -340.813)" fill="#5479f7"/>
    <path id="パス_30997" data-name="パス 30997" d="M629.755,478.762c-2.357,0-4.275-1.622-4.275-3.615s1.918-3.615,4.275-3.615,4.275,1.622,4.275,3.615-1.918,3.615-4.275,3.615m0-6.506c-1.958,0-3.551,1.3-3.551,2.891s1.593,2.891,3.551,2.891,3.551-1.3,3.551-2.891-1.593-2.891-3.551-2.891" transform="translate(-474.534 -357.738)" fill="#5479f7"/>
    <path id="パス_30998" data-name="パス 30998" d="M675.481,503.758c-2.357,0-4.275-1.622-4.275-3.615s1.918-3.615,4.275-3.615,4.275,1.622,4.275,3.615-1.918,3.615-4.275,3.615m0-6.506c-1.958,0-3.551,1.3-3.551,2.891s1.593,2.891,3.551,2.891,3.551-1.3,3.551-2.891-1.593-2.891-3.551-2.891" transform="translate(-509.224 -376.701)" fill="#5479f7"/>
    <path id="パス_30999" data-name="パス 30999" d="M587.556,448.68a.363.363,0,0,1-.083-.01,10.217,10.217,0,0,0-3.425-.1.362.362,0,0,1-.115-.715,11.346,11.346,0,0,1,2.956-.029,25.144,25.144,0,0,1-2.213-5.224.362.362,0,0,1,.719-.081c.119,1.054,1.83,4.415,2.479,5.622a.362.362,0,0,1-.319.534" transform="translate(-442.782 -335.487)" fill="#5479f7"/>
    <path id="パス_31000" data-name="パス 31000" d="M637.436,482.039a.362.362,0,0,1-.284-.586l2.229-2.829a.362.362,0,1,1,.569.448L637.72,481.9a.362.362,0,0,1-.285.138" transform="translate(-483.329 -363.013)" fill="#5479f7"/>
    <path id="パス_31001" data-name="パス 31001" d="M638.56,483.687a.36.36,0,0,1-.154-.035l-3.26-1.53a.362.362,0,0,1,.308-.655l3.26,1.53a.362.362,0,0,1-.154.689" transform="translate(-481.71 -365.249)" fill="#5479f7"/>
    <path id="パス_31002" data-name="パス 31002" d="M682.828,507.5a.361.361,0,0,1-.174-.045l-2.785-1.532a.362.362,0,0,1-.041-.608l1.467-1.088-.228-.025a.362.362,0,0,1,.079-.72l1.146.125a.362.362,0,0,1,.176.651l-1.756,1.3,2.291,1.26a.362.362,0,0,1-.175.679" transform="translate(-515.655 -381.976)" fill="#5479f7"/>
    <path id="パス_31003" data-name="パス 31003" d="M689.026,505.66h-.016a.362.362,0,0,1-.346-.377l.042-.936a.356.356,0,0,1,.377-.346.362.362,0,0,1,.346.377l-.042.936a.362.362,0,0,1-.361.346" transform="translate(-522.469 -382.369)" fill="#5479f7"/>
    <path id="パス_31004" data-name="パス 31004" d="M477.119,205.491a5.791,5.791,0,0,0-3.446-.1c-4.537,1.22-15.161,3.812-18.466,2.318-3.723-1.683.942-14.49,14.485-20.249,3.646-1.551,7.844-2.213,11.22-1.169.877.271.571.251,1.769.565a53.806,53.806,0,0,1,18.073,8.161c2.692,1.918,9.624,3.58,11.673,5.587,7.528,7.371,4.545,20.366-13.216,11.849-2.7-1.3-10.923-4.586-13.814-5.046a52.463,52.463,0,0,1-8.278-1.915" transform="translate(-344.416 -140.949)" fill="#fff"/>
    <path id="パス_31005" data-name="パス 31005" d="M508.068,214.479c-2.455,0-5.751-.728-10.152-2.838-2.55-1.223-10.784-4.549-13.715-5.015a51.746,51.746,0,0,1-8.342-1.932,5.4,5.4,0,0,0-3.23-.092c-5.572,1.5-15.412,3.788-18.71,2.3a2.92,2.92,0,0,1-1.447-2.941c.051-4.536,5.152-13.384,15.939-17.971,4.091-1.74,8.271-2.171,11.468-1.182.362.112.53.177.679.233a8.489,8.489,0,0,0,1.075.327,54.617,54.617,0,0,1,18.191,8.216,28.765,28.765,0,0,0,5.427,2.5c2.637,1.023,5.128,1.99,6.289,3.127,3.913,3.832,5.124,9.206,2.816,12.5-.745,1.064-2.53,2.772-6.289,2.772m-33.939-10.8a5.863,5.863,0,0,1,1.973.336,52.972,52.972,0,0,0,8.213,1.9c2.993.476,11.336,3.841,13.914,5.077,7.492,3.593,13.155,3.7,15.536.3,2.107-3.008.933-7.981-2.729-11.568-1.055-1.033-3.592-2.018-6.044-2.97a29.088,29.088,0,0,1-5.586-2.581,53.913,53.913,0,0,0-17.955-8.106,9.2,9.2,0,0,1-1.151-.351c-.138-.053-.294-.113-.634-.218-3.035-.939-7.034-.518-10.971,1.156-10.033,4.266-15.448,12.8-15.5,17.313a2.313,2.313,0,0,0,1.021,2.273c3.207,1.451,13.813-1.152,18.223-2.338a6.5,6.5,0,0,1,1.689-.227" transform="translate(-343.278 -139.812)"/>
    <path id="パス_31006" data-name="パス 31006" d="M442.366,102.452l9.93,15.926-7.982,4.378a3.194,3.194,0,0,1-1.434.392l-.909.029a3.173,3.173,0,0,0-2.709,1.689,3.14,3.14,0,0,1-1.273,1.3l-59.3,32.593a6.378,6.378,0,0,1-1.554.605l-16.641,4.077,10.748-12.365a10.324,10.324,0,0,1,2-1.772l55.836-37.842a3.193,3.193,0,0,1,1.608-.544l.144-.008a3.172,3.172,0,0,0,2.616-1.662l.26-.487a3.13,3.13,0,0,1,1.008-1.118Z" transform="translate(-273.497 -77.727)" fill="#fff"/>
    <path id="パス_31007" data-name="パス 31007" d="M359.357,162.66a.362.362,0,0,1-.273-.6L369.832,149.7a10.683,10.683,0,0,1,2.07-1.834l55.836-37.842a3.556,3.556,0,0,1,1.791-.606l.144-.008a2.819,2.819,0,0,0,2.318-1.471l.259-.487a3.509,3.509,0,0,1,1.124-1.247l7.649-5.184a.362.362,0,0,1,.51.108l9.929,15.926a.362.362,0,0,1-.133.509l-7.981,4.378a3.58,3.58,0,0,1-1.6.437l-.909.029a2.8,2.8,0,0,0-2.4,1.495,3.488,3.488,0,0,1-1.419,1.445l-59.3,32.593a6.715,6.715,0,0,1-1.642.64l-16.641,4.077a.366.366,0,0,1-.086.01m81.763-60.836-7.338,4.973a2.782,2.782,0,0,0-.892.988l-.26.488a3.547,3.547,0,0,1-2.915,1.853l-.144.008a2.834,2.834,0,0,0-1.426.483L372.309,148.46a9.96,9.96,0,0,0-1.93,1.71l-10,11.5,15.534-3.806a5.99,5.99,0,0,0,1.466-.571l59.3-32.593a2.766,2.766,0,0,0,1.126-1.145,3.531,3.531,0,0,1,3.018-1.883l.909-.029A2.848,2.848,0,0,0,443,121.3l7.646-4.194Z" transform="translate(-272.359 -76.59)"/>
    <path id="パス_31008" data-name="パス 31008" d="M418.364,316.5a.362.362,0,0,1-.3-.158l-4.2-6.142a.362.362,0,1,1,.6-.409l4.2,6.142a.362.362,0,0,1-.3.566" transform="translate(-313.938 -234.911)"/>
    <path id="パス_31009" data-name="パス 31009" d="M723.882,82.762,711.16,90.279a1.135,1.135,0,0,1-1.548-.389l-8.664-14.273a1.136,1.136,0,0,1,.393-1.568l12.7-7.5a5.287,5.287,0,0,1,7.211,1.717l4.5,7.416a5.138,5.138,0,0,1-1.87,7.083" transform="translate(-531.664 -49.915)" fill="#99b9ff"/>
    <path id="パス_31010" data-name="パス 31010" d="M709.448,89.667a1.5,1.5,0,0,1-1.285-.719L699.5,74.676a1.5,1.5,0,0,1,.518-2.067l12.7-7.5a5.656,5.656,0,0,1,7.7,1.841l4.5,7.415a5.355,5.355,0,0,1,.616,4.111,5.6,5.6,0,0,1-2.611,3.471L710.2,89.461a1.481,1.481,0,0,1-.756.207m6.2-24.641a5.029,5.029,0,0,0-2.563.7l-12.7,7.5a.775.775,0,0,0-.268,1.069l8.663,14.273a.776.776,0,0,0,1.054.265l12.722-7.517a4.878,4.878,0,0,0,2.277-3.024,4.637,4.637,0,0,0-.533-3.559l-4.5-7.416a4.834,4.834,0,0,0-4.154-2.3m7.1,16.606h0Z" transform="translate(-530.525 -48.785)"/>
    <path id="パス_31011" data-name="パス 31011" d="M699.139,133.458a.361.361,0,0,1-.312-.178l-5.577-9.463a.362.362,0,0,1,.624-.368l5.577,9.463a.362.362,0,0,1-.312.546" transform="translate(-525.91 -93.522)"/>
    <path id="パス_31012" data-name="パス 31012" d="M668.422,153.7a.362.362,0,0,1-.312-.177l-4.552-7.688a.362.362,0,0,1,.623-.369l4.552,7.688a.362.362,0,0,1-.311.547" transform="translate(-503.384 -110.227)"/>
    <path id="パス_31013" data-name="パス 31013" d="M586.9,201.459a.362.362,0,0,1-.179-.677l17.4-9.887a.362.362,0,1,1,.358.629l-17.4,9.887a.357.357,0,0,1-.179.047" transform="translate(-444.989 -144.791)"/>
    <path id="パス_31014" data-name="パス 31014" d="M437.572,299.6a.362.362,0,0,1-.18-.676l10.468-6a.362.362,0,1,1,.36.628l-10.468,6a.36.36,0,0,1-.18.048" transform="translate(-331.698 -222.198)"/>
    <path id="パス_31015" data-name="パス 31015" d="M724.966,89.932a.362.362,0,0,1-.182-.675l10.463-6.083a.362.362,0,0,1,.364.626l-10.463,6.083a.36.36,0,0,1-.182.049" transform="translate(-549.736 -63.065)" fill="#fff"/>
    <path id="パス_31016" data-name="パス 31016" d="M524.649,239.494a11.678,11.678,0,0,1-3.969-1.245,14.033,14.033,0,0,0-7.167-.925c-1.96.253-4.029.665-4.713.8-3.74.755-5.671,1.849-7.072,3.539s-4.887,4.612-1.02,5.685c0,0,.84,1.011,5.6-1.235,0,0,.687-.56,6.158,1.452a30.784,30.784,0,0,0,7.976,1.638,7.314,7.314,0,0,0,3.238-1.14c3.93-2.075,1.639-8.845,1.72-8.889Z" transform="translate(-378.534 -179.96)" fill="#fff"/>
    <path id="パス_31017" data-name="パス 31017" d="M515.939,250.529h-.046a27.742,27.742,0,0,1-8.326-1.852c-5.03-1.85-6.219-1.1-6.23-1.094a.214.214,0,0,1-.064.04,12.471,12.471,0,0,1-5.143,1.456h-.041a3.582,3.582,0,0,1-2.147-.7,1.5,1.5,0,0,1-.618-1.169c-.073-1.809,2.751-4.333,2.871-4.439,2.171-1.923,3.714-2.619,7.507-3.385,1.763-.355,3.4-.634,4.738-.807a14.411,14.411,0,0,1,7.352.95c1.251.519,1.994.54,4.2-.336a.362.362,0,1,1,.267.673c-2.25.893-3.225.96-4.744.332a13.7,13.7,0,0,0-6.982-.9c-1.321.171-2.942.447-4.688.8-3.641.735-5.116,1.4-7.17,3.217-.748.662-2.678,2.649-2.628,3.868a.766.766,0,0,0,.33.619,2.836,2.836,0,0,0,1.746.549,11.724,11.724,0,0,0,4.8-1.369c.332-.234,1.807-.858,6.891,1.011A27,27,0,0,0,515.9,249.8h.039a14.71,14.71,0,0,0,4.386-1.249.362.362,0,1,1,.3.661,15.161,15.161,0,0,1-4.686,1.312" transform="translate(-374.269 -180.913)"/>
    <path id="パス_31018" data-name="パス 31018" d="M688.218,231.1c-10.057-5.531-25.252-6.559-25.252-6.559l-8.391,21.429s19.458,14.566,37.335,21.266c2.944,1.1,4.211-.1,4.487-3.237.913-10.353-1.513-29.233-8.179-32.9" transform="translate(-496.607 -170.355)" fill="#5479f7"/>
    <path id="パス_31019" data-name="パス 31019" d="M452.538,732.255a92.666,92.666,0,0,1-18.795-1.921.362.362,0,0,1,.147-.709c17.087,3.55,35.277,2.1,49.908-3.981a.362.362,0,1,1,.278.668,82.942,82.942,0,0,1-31.538,5.943" transform="translate(-328.849 -550.504)" fill="#fff"/>
    <path id="パス_31020" data-name="パス 31020" d="M514.1,767.866c-.923,0-1.851-.028-2.78-.09a.362.362,0,0,1,.048-.723,62.925,62.925,0,0,0,17.037-1.693.362.362,0,1,1,.152.708,69.782,69.782,0,0,1-14.457,1.8" transform="translate(-387.67 -580.651)" fill="#fff"/>
    <path id="パス_31021" data-name="パス 31021" d="M115.165,198.3a.362.362,0,0,1-.284-.587l1.023-1.29a.362.362,0,1,1,.568.45l-1.023,1.29a.362.362,0,0,1-.284.137" transform="translate(-87.098 -148.914)" fill="#fff"/>
    <path id="パス_31022" data-name="パス 31022" d="M130,179.594a.362.362,0,0,1-.283-.587l1.023-1.289a.362.362,0,1,1,.567.45l-1.023,1.29a.361.361,0,0,1-.284.137" transform="translate(-98.353 -134.725)" fill="#fff"/>
    <path id="パス_31023" data-name="パス 31023" d="M132.455,196.674a.359.359,0,0,1-.229-.082l-1.255-1.027a.362.362,0,1,1,.459-.56l1.255,1.027a.362.362,0,0,1-.23.642" transform="translate(-99.264 -147.882)" fill="#fff"/>
    <path id="パス_31024" data-name="パス 31024" d="M114.257,181.779a.361.361,0,0,1-.229-.082l-1.255-1.027a.362.362,0,0,1,.459-.56l1.255,1.027a.362.362,0,0,1-.23.642" transform="translate(-85.457 -136.582)" fill="#fff"/>
    <path id="パス_31025" data-name="パス 31025" d="M74.653,237.851a2.55,2.55,0,0,1-.7-.1,2.578,2.578,0,0,1-1.563-1.259,2.648,2.648,0,0,1,.994-3.562,2.517,2.517,0,0,1,1.945-.232,2.579,2.579,0,0,1,1.563,1.259,2.649,2.649,0,0,1-.994,3.563,2.521,2.521,0,0,1-1.245.33m-.023-4.526a1.8,1.8,0,0,0-.889.236,1.921,1.921,0,0,0-.715,2.586,1.858,1.858,0,0,0,1.126.909,1.8,1.8,0,0,0,1.389-.166,1.921,1.921,0,0,0,.715-2.586,1.859,1.859,0,0,0-1.127-.909,1.819,1.819,0,0,0-.5-.07" transform="translate(-54.674 -176.468)" fill="#fff"/>
    <path id="パス_31026" data-name="パス 31026" d="M501.978,83.3a1.9,1.9,0,1,1,.725-2.583,1.9,1.9,0,0,1-.725,2.583" transform="translate(-378.692 -60.504)" fill="#99b9ff"/>
    <path id="パス_31027" data-name="パス 31027" d="M438.666,79.893a.351.351,0,0,1-.1-.014.362.362,0,0,1-.251-.446l.4-1.431a.362.362,0,1,1,.7.2l-.4,1.431a.362.362,0,0,1-.348.264" transform="translate(-332.528 -58.978)"/>
    <path id="パス_31028" data-name="パス 31028" d="M444.489,59.135a.362.362,0,0,1-.349-.46l.4-1.431a.362.362,0,1,1,.7.2l-.4,1.431a.362.362,0,0,1-.348.264" transform="translate(-336.946 -43.229)"/>
    <path id="パス_31029" data-name="パス 31029" d="M451.252,73.518a.36.36,0,0,1-.1-.013l-1.431-.4a.362.362,0,0,1,.2-.7l1.431.4a.362.362,0,0,1-.1.71" transform="translate(-340.991 -54.923)"/>
    <path id="パス_31030" data-name="パス 31030" d="M430.5,67.716a.36.36,0,0,1-.1-.014l-1.431-.4a.362.362,0,0,1,.2-.7l1.431.4a.362.362,0,0,1-.1.71" transform="translate(-325.247 -50.521)"/>
  </g>
</svg>
