<svg xmlns="http://www.w3.org/2000/svg" width="160" height="160" viewBox="0 0 160 160">
  <g id="グループ_6407" data-name="グループ 6407" transform="translate(-218 -8654)">
    <g id="長方形_10521" data-name="長方形 10521" transform="translate(218 8654)" fill="#fff" stroke="#ff8e6f" stroke-width="4">
      <rect width="160" height="160" stroke="none"/>
      <rect x="2" y="2" width="156" height="156" fill="none"/>
    </g>
    <g id="グループ_6188" data-name="グループ 6188" transform="translate(205.582 8691.4)">
      <path id="パス_52" data-name="パス 52" d="M14.149-9.708a18.314,18.314,0,0,1-7.533,1.76H6.029v-21.92H2.88V-7.392H13.624l.587-2.316Zm3.7-17.011,2.1-2.1-2.1-2.1-2.1,2.1ZM16.4-7.392h2.9V-24.126h-.123l-2.779.834Zm13.862.37c4.816,0,8.429-3.427,8.429-8.645,0-5.249-3.458-8.49-8.151-8.49-4.816,0-8.429,3.458-8.429,8.676C22.114-10.233,25.572-7.022,30.265-7.022Zm.185-.432c-3.057,0-5.187-3.273-5.187-8.212,0-4.878,2.007-8.058,5.094-8.058,3.057,0,5.187,3.3,5.187,8.243C35.545-10.634,33.538-7.454,30.45-7.454ZM50.3-24.157a8.215,8.215,0,0,0-5.99,2.686v-2.655h-.123l-2.81.834v15.9h2.933V-20.853a6.614,6.614,0,0,1,4.724-2.192c3.612,0,3.612,3.4,3.612,4.662V-7.392h2.933V-18.322C55.582-22.3,53.729-24.157,50.3-24.157ZM74.291-7.979,73.612-10.2V-32.4h-.124l-2.81.926v9.015a6.652,6.652,0,0,0-4.538-1.7c-4.322,0-7.965,3.581-7.965,8.861,0,4.847,3.026,8.274,7.039,8.274a7.432,7.432,0,0,0,5.526-2.624l.8,2.532Zm-8.12-.062c-2.81,0-4.847-2.532-4.847-7.564,0-4.971,2.069-8.027,5.094-8.027a4.643,4.643,0,0,1,4.261,3.118v10.157A6.111,6.111,0,0,1,66.171-8.041ZM84.51-7.022c4.816,0,8.429-3.427,8.429-8.645,0-5.249-3.458-8.49-8.151-8.49-4.816,0-8.429,3.458-8.429,8.676C76.36-10.233,79.818-7.022,84.51-7.022Zm.185-.432c-3.057,0-5.187-3.273-5.187-8.212,0-4.878,2.007-8.058,5.094-8.058,3.057,0,5.187,3.3,5.187,8.243C89.79-10.634,87.783-7.454,84.7-7.454Zm18.833-16.641c-2.161,0-3.89,1.544-5.032,4.044v-4.075h-.124l-2.748.834v15.9h2.933V-19.155A4.482,4.482,0,0,1,102.417-22a4.446,4.446,0,0,1,1.7.37l.864-2.285A6.158,6.158,0,0,0,103.529-24.095Z" transform="translate(39.438 55)"/>
      <path id="パス_53" data-name="パス 53" d="M3.381-1.931A2.923,2.923,0,0,0,5.962-3.408l-.1-.059A2.445,2.445,0,0,1,3.763-2.3c-1.367,0-2.394-1.1-2.394-2.98,0-1.656.849-2.9,2.148-2.9A2.3,2.3,0,0,1,5.453-6.94l.425-.382a3.1,3.1,0,0,0-2.318-.993A3.05,3.05,0,0,0,.418-5.072,2.916,2.916,0,0,0,3.381-1.931Zm6-3.107c.807-.28,1.486-.739,1.486-1.613,0-1.053-.875-1.562-2.5-1.562H6.845v6.181h.866V-4.826H8.28a.472.472,0,0,1,.441.178l2.513,2.8h.051V-2.924Zm-.891.076a6.338,6.338,0,0,1-.781-.051V-8.078h.62C9.452-8.078,10-7.492,10-6.592A1.521,1.521,0,0,1,8.492-4.962ZM16.057-2.6a7.185,7.185,0,0,1-2.445.416h-.492V-5.174h.391a5.464,5.464,0,0,1,1.783.2h.017V-5.5h-.017a5.812,5.812,0,0,1-1.783.17h-.391V-8.061h.467a7.268,7.268,0,0,1,2.309.382h.017l-.1-.535H12.253v6.181h3.659l.161-.569Zm4.619.569h.942L19.046-8.35h-.034L17.534-4.741c-.441,1.07-.764,1.859-1.172,2.708h.586a6.4,6.4,0,0,1,.5-2.029h2.411ZM17.509-4.215l.187-.467.959-2.369L19.8-4.215Zm8.049-4h-4.4l-.119.6h.017a3.716,3.716,0,0,1,1.664-.45h.2v6.028h.866V-8.061h.2a3.716,3.716,0,0,1,1.664.45h.017ZM30.338-2.6a7.185,7.185,0,0,1-2.445.416H27.4V-5.174h.391a5.464,5.464,0,0,1,1.783.2h.017V-5.5h-.017a5.812,5.812,0,0,1-1.783.17H27.4V-8.061h.467a7.268,7.268,0,0,1,2.309.382h.017l-.1-.535H26.534v6.181h3.659l.161-.569Zm3.116-5.612H31.289v6.181h2.021c2.1,0,3.422-1.163,3.422-3.158C36.731-7.153,35.415-8.214,33.454-8.214Zm0,6.045a6.775,6.775,0,0,1-1.3-.076V-8.078h1.223c1.46,0,2.4,1.18,2.4,2.929C35.78-3.247,34.931-2.169,33.454-2.169ZM42.5-5.285V-5.3A1.625,1.625,0,0,0,43.99-6.77c0-.891-.722-1.443-2.14-1.443H39.8v6.181h2c1.639,0,2.564-.654,2.564-1.7C44.364-4.673,43.54-5.217,42.5-5.285Zm.577-1.392a1.28,1.28,0,0,1-1.308,1.392h-1.1V-8.078h.968A1.31,1.31,0,0,1,43.073-6.677ZM41.545-2.169a5.664,5.664,0,0,1-.875-.059V-5.149h1.24a1.422,1.422,0,0,1,1.5,1.537C43.413-2.7,42.844-2.169,41.545-2.169Zm7.871-6.045h-.535A9.943,9.943,0,0,1,47.8-5.769l-.441.781L45.544-8.214h-.993l2.021,3.532v2.649h.866V-4.784l.518-.908C48.49-6.652,48.906-7.373,49.416-8.214Zm5.306,2.929V-5.3A1.625,1.625,0,0,0,56.216-6.77c0-.891-.722-1.443-2.14-1.443H52.031v6.181h2c1.639,0,2.564-.654,2.564-1.7C56.59-4.673,55.766-5.217,54.722-5.285ZM55.3-6.677a1.28,1.28,0,0,1-1.308,1.392H52.9V-8.078h.968A1.31,1.31,0,0,1,55.3-6.677ZM53.771-2.169a5.664,5.664,0,0,1-.874-.059V-5.149h1.24a1.422,1.422,0,0,1,1.5,1.537C55.639-2.7,55.07-2.169,53.771-2.169Zm5.748.238a2.249,2.249,0,0,0,2.318-2.377A2.169,2.169,0,0,0,59.6-6.643a2.256,2.256,0,0,0-2.318,2.386A2.162,2.162,0,0,0,59.519-1.931Zm.051-.119c-.841,0-1.426-.9-1.426-2.258,0-1.341.552-2.216,1.4-2.216s1.426.908,1.426,2.267C60.971-2.924,60.419-2.05,59.57-2.05Zm3.209.017h.807V-8.91h-.034l-.773.255Zm2.4-5.315.577-.577L65.182-8.5l-.577.577Zm-.4,5.315h.8v-4.6h-.034l-.764.229Zm6.181-.161-.187-.611v-6.1h-.034l-.773.255v2.479a1.829,1.829,0,0,0-1.248-.467,2.272,2.272,0,0,0-2.19,2.437,2.058,2.058,0,0,0,1.936,2.275,2.044,2.044,0,0,0,1.52-.722l.221.7Zm-2.233-.017c-.773,0-1.333-.7-1.333-2.08,0-1.367.569-2.207,1.4-2.207a1.277,1.277,0,0,1,1.172.858v2.793A1.681,1.681,0,0,1,68.731-2.211Zm7.1-2.394a1.777,1.777,0,0,0-1.834-2.038,2.256,2.256,0,0,0-2.284,2.428,2.109,2.109,0,0,0,2.114,2.284,2.268,2.268,0,0,0,1.953-1.121l-.1-.059a1.869,1.869,0,0,1-1.5.815c-.917,0-1.6-.747-1.6-2.157v-.153Zm-1.9-1.91c.722,0,1.18.7,1.129,1.774H72.577C72.662-5.777,73.188-6.516,73.927-6.516Zm2.768.645h.085l.314-2.445h-.713Zm2.615,3.94c1.087,0,1.732-.569,1.732-1.341,0-.841-.773-1.163-1.308-1.384l-.34-.144c-.475-.2-1.061-.416-1.061-.951,0-.416.34-.773.959-.773a2.156,2.156,0,0,1,1.426.637l.119-.4a3.205,3.205,0,0,0-1.469-.357c-.968,0-1.579.526-1.579,1.24,0,.807.756,1.121,1.307,1.358l.348.144c.535.221,1.053.441,1.053.985,0,.509-.433.866-1.1.866a2.043,2.043,0,0,1-1.562-.722l-.127.433A3.254,3.254,0,0,0,79.31-1.931ZM82.816-.759a2.943,2.943,0,0,0,2.072-3.209V-8.214h-.866V-3.9c0,1.562-.136,2.343-1.265,3.04ZM89.7-2.22c-.416,0-.416-.238-.416-.645V-5.038a1.4,1.4,0,0,0-1.579-1.6,2.275,2.275,0,0,0-1.664.7l.076.093a1.91,1.91,0,0,1,1.274-.509c.841,0,1.087.56,1.087,1.4v.484c-.255.025-.526.042-.832.076-1.163.127-1.919.62-1.919,1.409a1.06,1.06,0,0,0,1.189,1.044A2.374,2.374,0,0,0,88.488-2.6a.62.62,0,0,0,.671.628,1.384,1.384,0,0,0,.7-.212v-.051A.94.94,0,0,1,89.7-2.22Zm-2.343-.034a.792.792,0,0,1-.832-.875c0-.824.8-1.1,1.953-1.223v1.588A1.648,1.648,0,0,1,87.359-2.254ZM92.9-6.643a2.043,2.043,0,0,0-1.5.713v-.7h-.034l-.773.229V-.1H91.4V-2.4a1.829,1.829,0,0,0,1.248.467,2.264,2.264,0,0,0,2.19-2.428A2.061,2.061,0,0,0,92.9-6.643Zm-.331,4.576A1.273,1.273,0,0,1,91.4-2.933V-5.718a1.7,1.7,0,0,1,1.257-.645c.764,0,1.316.7,1.316,2.08C93.973-2.916,93.4-2.067,92.572-2.067ZM99.33-2.22c-.416,0-.416-.238-.416-.645V-5.038a1.4,1.4,0,0,0-1.579-1.6,2.275,2.275,0,0,0-1.664.7l.076.093a1.91,1.91,0,0,1,1.274-.509c.841,0,1.087.56,1.087,1.4v.484c-.255.025-.526.042-.832.076-1.163.127-1.919.62-1.919,1.409a1.06,1.06,0,0,0,1.189,1.044A2.374,2.374,0,0,0,98.116-2.6a.62.62,0,0,0,.671.628,1.384,1.384,0,0,0,.7-.212v-.051A.941.941,0,0,1,99.33-2.22Zm-2.343-.034a.792.792,0,0,1-.832-.875c0-.824.8-1.1,1.953-1.223v1.588A1.648,1.648,0,0,1,96.987-2.254Zm5.689-4.389a2.259,2.259,0,0,0-1.647.739v-.73h-.034l-.773.229v4.373h.807v-3.7a1.819,1.819,0,0,1,1.3-.6c.993,0,.993.934.993,1.282v3.023h.807V-5.038C104.127-6.134,103.618-6.643,102.675-6.643Z" transform="translate(40 62.762)" fill="#333"/>
    </g>
  </g>
</svg>
