<svg xmlns="http://www.w3.org/2000/svg" width="195.824" height="21.198" viewBox="0 0 195.824 21.198">
  <g id="グループ_6522" data-name="グループ 6522" transform="translate(3078 -966.18)">
    <path id="パス_33243" data-name="パス 33243" d="M-19.728-17.136A17,17,0,0,1-22.2-15.528c-1.032.6-2.832,1.536-4.584,2.544A49.883,49.883,0,0,1-29.64-19.32l-3.624,1.464c1.056,2.5,2.16,4.92,3.264,6.96-2.184,1.656-3.864,3.6-3.864,6.312,0,4.392,3.768,5.712,8.664,5.712a45.2,45.2,0,0,0,7.7-.6l.048-4.152a40.758,40.758,0,0,1-7.848.912c-3.048,0-4.56-.744-4.56-2.3s1.32-2.832,3.168-4.032A64.184,64.184,0,0,1-20.4-12.36c.96-.48,1.824-.936,2.664-1.44Zm10.992-1.776c-.024.888-.168,1.968-.264,2.688A72.665,72.665,0,0,0-9.936-6.36a27.3,27.3,0,0,0,.984,7.608l3.24-.216c-.024-.384-.024-.816-.024-1.08a7.25,7.25,0,0,1,.144-1.128c.288-1.368,1.008-3.768,1.728-5.9L-5.616-8.472c-.312.7-.6,1.152-.888,1.848a4.436,4.436,0,0,1-.024-.552,66.822,66.822,0,0,1,1.1-8.976,23.012,23.012,0,0,1,.648-2.424ZM3.192-4.152c0,1.3-.456,1.92-1.608,1.92C.576-2.232-.264-2.52-.264-3.36c0-.744.744-1.176,1.848-1.176a6.041,6.041,0,0,1,1.608.216Zm8.112.84a15.034,15.034,0,0,0-4.56-3.072c-.072-1.392-.192-3.1-.24-5.256,1.248-.1,2.424-.24,3.48-.384V-15.6c-1.08.216-2.256.408-3.456.528.024-.984.048-1.776.072-2.232a15.519,15.519,0,0,1,.144-1.584H2.64a11.422,11.422,0,0,1,.192,1.632c.024.432.024,1.32.048,2.424-.456.024-.888.024-1.344.024a41.261,41.261,0,0,1-4.248-.216l.024,3.432q2.124.144,4.248.144c.432,0,.888,0,1.344-.024.024,1.488.1,2.952.168,4.2-.384-.024-.792-.048-1.2-.048-3.312,0-5.5,1.7-5.5,4.368,0,2.688,2.208,4.128,5.544,4.128,3.12,0,4.584-1.392,4.9-3.624A27.193,27.193,0,0,1,9.36-.288ZM23.328-6.384h3.744c-.216-3.168,4.752-3.408,4.752-6.864,0-3.432-2.76-4.992-6.288-4.992a8.114,8.114,0,0,0-6.288,3.024l2.352,2.16a4.425,4.425,0,0,1,3.432-1.728c1.584,0,2.712.6,2.712,1.92C27.744-10.752,22.944-10.032,23.328-6.384Zm-.96,4.008A2.657,2.657,0,0,0,25.2.288a2.657,2.657,0,0,0,2.832-2.664A2.621,2.621,0,0,0,25.2-4.992,2.621,2.621,0,0,0,22.368-2.376Z" transform="translate(-2914 985.5)" fill="#333"/>
    <g id="グループ_2240" data-name="グループ 2240" transform="translate(-3647.828 565.808)">
      <path id="パス_1885" data-name="パス 1885" d="M14.8-34.023A15.857,15.857,0,0,1,8.275-32.5H7.767v-18.98H5.04v19.461h9.3l.508-2Zm2.272,2H19.8V-51.479H17.069Zm15.585.321c5.8,0,10.292-3.983,10.292-10.238,0-6.148-4.384-9.864-9.944-9.864-5.8,0-10.292,3.983-10.292,10.238C22.71-35.413,27.094-31.7,32.654-31.7Zm.294-.428c-4.277,0-7.244-3.9-7.244-9.73,0-5.721,2.78-9.517,7.084-9.517,4.2,0,7.164,3.9,7.164,9.73C39.952-35.894,37.172-32.125,32.948-32.125ZM58.13-51.479a50.108,50.108,0,0,1,.535,8.5V-36.4L47.972-51.479H44.737v.08l1.31,1.818v9.062a53.082,53.082,0,0,1-.535,8.5h1.6a50.108,50.108,0,0,1-.535-8.5v-8.314L58.958-31.7H59.2V-42.978a53.082,53.082,0,0,1,.535-8.5Zm17.429,0H68.742v19.461H75.1c6.6,0,10.773-3.662,10.773-9.944C85.878-48.138,81.734-51.479,75.559-51.479Zm0,19.033a21.333,21.333,0,0,1-4.09-.241V-51.052h3.849c4.6,0,7.565,3.716,7.565,9.223C82.884-35.841,80.21-32.446,75.559-32.446Zm22.294.748c5.8,0,10.292-3.983,10.292-10.238,0-6.148-4.384-9.864-9.944-9.864-5.8,0-10.292,3.983-10.292,10.238C87.909-35.413,92.293-31.7,97.854-31.7Zm.294-.428c-4.277,0-7.244-3.9-7.244-9.73,0-5.721,2.78-9.517,7.084-9.517,4.2,0,7.164,3.9,7.164,9.73C105.151-35.894,102.371-32.125,98.148-32.125Zm20.9-9.356c2.54-.882,4.678-2.326,4.678-5.079,0-3.315-2.753-4.919-7.886-4.919h-4.785v19.461h2.727v-8.795h1.791a1.486,1.486,0,0,1,1.39.561l7.913,8.822h.16v-3.395Zm-2.807.241a19.956,19.956,0,0,1-2.459-.16v-9.65h1.951c3.529,0,5.239,1.845,5.239,4.678C120.977-43.593,119.159-41.241,116.245-41.241Z" transform="translate(564.788 453)"/>
    </g>
  </g>
</svg>
