<svg xmlns="http://www.w3.org/2000/svg" width="1088" height="816.011" viewBox="0 0 1088 816.011">
  <g id="グループ_6395" data-name="グループ 6395" transform="translate(3064 -5119)">
    <path id="パス_33186" data-name="パス 33186" d="M0,0H512V816H0Z" transform="translate(-2760 5119)" fill="#fff"/>
    <path id="パス_33203" data-name="パス 33203" d="M0,0H512V56H0Z" transform="translate(-2760 5655)" fill="#f5f5f5"/>
    <path id="パス_33213" data-name="パス 33213" d="M0,0H512V56H0Z" transform="translate(-2760 5767)" fill="#f5f5f5"/>
    <path id="パス_33220" data-name="パス 33220" d="M0,0H512V56H0Z" transform="translate(-2760 5879)" fill="#f5f5f5"/>
    <path id="パス_33199" data-name="パス 33199" d="M0,0H512V56H0Z" transform="translate(-2760 5511)" fill="#f5f5f5"/>
    <path id="パス_33195" data-name="パス 33195" d="M0,0H512V56H0Z" transform="translate(-2760 5399.17)" fill="#f5f5f5"/>
    <path id="パス_33191" data-name="パス 33191" d="M0,0H512V56H0Z" transform="translate(-2760 5287)" fill="#f5f5f5"/>
    <g id="グループ_5884" data-name="グループ 5884" transform="translate(-3147 1898)">
      <g id="楕円形_83" data-name="楕円形 83" transform="translate(631 3405)" fill="none" stroke="#555" stroke-width="3">
        <circle cx="12" cy="12" r="12" stroke="none"/>
        <circle cx="12" cy="12" r="10.5" fill="none"/>
      </g>
      <path id="パス_29183" data-name="パス 29183" d="M636.986,3416.355l2.979,2.81,7.021-6" transform="translate(1.014 0.834)" fill="none" stroke="#555" stroke-width="3"/>
    </g>
    <g id="グループ_5885" data-name="グループ 5885" transform="translate(-3147 1954)">
      <g id="楕円形_83-2" data-name="楕円形 83" transform="translate(631 3405)" fill="none" stroke="#555" stroke-width="3">
        <circle cx="12" cy="12" r="12" stroke="none"/>
        <circle cx="12" cy="12" r="10.5" fill="none"/>
      </g>
      <path id="パス_29183-2" data-name="パス 29183" d="M636.986,3416.355l2.979,2.81,7.021-6" transform="translate(1.014 0.834)" fill="none" stroke="#555" stroke-width="3"/>
    </g>
    <g id="グループ_5886" data-name="グループ 5886" transform="translate(-3147 2010)">
      <g id="楕円形_83-3" data-name="楕円形 83" transform="translate(631 3405)" fill="none" stroke="#555" stroke-width="3">
        <circle cx="12" cy="12" r="12" stroke="none"/>
        <circle cx="12" cy="12" r="10.5" fill="none"/>
      </g>
      <path id="パス_29183-3" data-name="パス 29183" d="M636.986,3416.355l2.979,2.81,7.021-6" transform="translate(1.014 0.834)" fill="none" stroke="#555" stroke-width="3"/>
    </g>
    <g id="グループ_5887" data-name="グループ 5887" transform="translate(-3147 2066)">
      <g id="楕円形_83-4" data-name="楕円形 83" transform="translate(631 3405)" fill="none" stroke="#555" stroke-width="3">
        <circle cx="12" cy="12" r="12" stroke="none"/>
        <circle cx="12" cy="12" r="10.5" fill="none"/>
      </g>
      <path id="パス_29183-4" data-name="パス 29183" d="M636.986,3416.355l2.979,2.81,7.021-6" transform="translate(1.014 0.834)" fill="none" stroke="#555" stroke-width="3"/>
    </g>
    <g id="グループ_5888" data-name="グループ 5888" transform="translate(-3147 2122)">
      <g id="楕円形_83-5" data-name="楕円形 83" transform="translate(631 3405)" fill="none" stroke="#555" stroke-width="3">
        <circle cx="12" cy="12" r="12" stroke="none"/>
        <circle cx="12" cy="12" r="10.5" fill="none"/>
      </g>
      <path id="パス_29183-5" data-name="パス 29183" d="M636.986,3416.355l2.979,2.81,7.021-6" transform="translate(1.014 0.834)" fill="none" stroke="#555" stroke-width="3"/>
    </g>
    <g id="グループ_5889" data-name="グループ 5889" transform="translate(-3147 2194)">
      <g id="楕円形_83-6" data-name="楕円形 83" transform="translate(631 3405)" fill="none" stroke="#555" stroke-width="3">
        <circle cx="12" cy="12" r="12" stroke="none"/>
        <circle cx="12" cy="12" r="10.5" fill="none"/>
      </g>
      <path id="パス_29183-6" data-name="パス 29183" d="M636.986,3416.355l2.979,2.81,7.021-6" transform="translate(1.014 0.834)" fill="none" stroke="#555" stroke-width="3"/>
    </g>
    <g id="グループ_6330" data-name="グループ 6330" transform="translate(-3147 2266)">
      <g id="楕円形_83-7" data-name="楕円形 83" transform="translate(631 3405)" fill="none" stroke="#555" stroke-width="3">
        <circle cx="12" cy="12" r="12" stroke="none"/>
        <circle cx="12" cy="12" r="10.5" fill="none"/>
      </g>
      <path id="パス_29183-7" data-name="パス 29183" d="M636.986,3416.355l2.979,2.81,7.021-6" transform="translate(1.014 0.834)" fill="none" stroke="#555" stroke-width="3"/>
    </g>
    <g id="グループ_5891" data-name="グループ 5891" transform="translate(-3147 2378)">
      <g id="楕円形_83-8" data-name="楕円形 83" transform="translate(631 3405)" fill="none" stroke="#555" stroke-width="3">
        <circle cx="12" cy="12" r="12" stroke="none"/>
        <circle cx="12" cy="12" r="10.5" fill="none"/>
      </g>
      <path id="パス_29183-8" data-name="パス 29183" d="M636.986,3416.355l2.979,2.81,7.021-6" transform="translate(1.014 0.834)" fill="none" stroke="#555" stroke-width="3"/>
    </g>
    <g id="グループ_5892" data-name="グループ 5892" transform="translate(-3147 2434)">
      <g id="楕円形_83-9" data-name="楕円形 83" transform="translate(631 3405)" fill="none" stroke="#555" stroke-width="3">
        <circle cx="12" cy="12" r="12" stroke="none"/>
        <circle cx="12" cy="12" r="10.5" fill="none"/>
      </g>
      <path id="パス_29183-9" data-name="パス 29183" d="M636.986,3416.355l2.979,2.81,7.021-6" transform="translate(1.014 0.834)" fill="none" stroke="#555" stroke-width="3"/>
    </g>
    <g id="グループ_5893" data-name="グループ 5893" transform="translate(-3147 2490)">
      <g id="楕円形_83-10" data-name="楕円形 83" transform="translate(631 3405)" fill="none" stroke="#555" stroke-width="3">
        <circle cx="12" cy="12" r="12" stroke="none"/>
        <circle cx="12" cy="12" r="10.5" fill="none"/>
      </g>
      <path id="パス_29183-10" data-name="パス 29183" d="M636.986,3416.355l2.979,2.81,7.021-6" transform="translate(1.014 0.834)" fill="none" stroke="#555" stroke-width="3"/>
    </g>
    <g id="グループ_5883" data-name="グループ 5883" transform="translate(-3147 1842)">
      <g id="楕円形_83-11" data-name="楕円形 83" transform="translate(631 3405)" fill="none" stroke="#555" stroke-width="3">
        <circle cx="12" cy="12" r="12" stroke="none"/>
        <circle cx="12" cy="12" r="10.5" fill="none"/>
      </g>
      <path id="パス_29183-11" data-name="パス 29183" d="M636.986,3416.355l2.979,2.81,7.021-6" transform="translate(1.014 0.834)" fill="none" stroke="#555" stroke-width="3"/>
    </g>
    <path id="パス_33206" data-name="パス 33206" d="M0,0H255.694V816H0Z" transform="translate(-2232 5119)" fill="#fff"/>
    <path id="パス_33207" data-name="パス 33207" d="M0,0H255.694V56H0Z" transform="translate(-2232 5655)" fill="#f5f5f5"/>
    <path id="パス_33214" data-name="パス 33214" d="M0,0H255.694V56.011H0Z" transform="translate(-2232 5767)" fill="#f5f5f5"/>
    <path id="パス_33221" data-name="パス 33221" d="M0,0H255.694V56.011H0Z" transform="translate(-2232 5879)" fill="#f5f5f5"/>
    <path id="パス_33208" data-name="パス 33208" d="M0,0H255.694V56.011H0Z" transform="translate(-2232 5511)" fill="#f5f5f5"/>
    <path id="パス_33209" data-name="パス 33209" d="M0,0H256V57H0Z" transform="translate(-2232 5399.17)" fill="#f5f5f5"/>
    <path id="パス_33210" data-name="パス 33210" d="M0,0H256V56H0Z" transform="translate(-2232 5287)" fill="#f5f5f5"/>
    <path id="パス_33216" data-name="パス 33216" d="M7-8.26A1.058,1.058,0,0,0,8.05-9.31,1.058,1.058,0,0,0,7-10.36,1.058,1.058,0,0,0,5.95-9.31,1.058,1.058,0,0,0,7-8.26ZM7-5.726l-4.62-4.62-.406.406,4.62,4.62L1.96-.686l.406.406L7-4.914l4.62,4.62L12.026-.7,7.406-5.32l4.62-4.62-.406-.406ZM4.06-5.32A1.058,1.058,0,0,0,3.01-6.37,1.058,1.058,0,0,0,1.96-5.32,1.058,1.058,0,0,0,3.01-4.27,1.058,1.058,0,0,0,4.06-5.32Zm5.88,0a1.058,1.058,0,0,0,1.05,1.05,1.058,1.058,0,0,0,1.05-1.05,1.058,1.058,0,0,0-1.05-1.05A1.058,1.058,0,0,0,9.94-5.32ZM7-2.38A1.058,1.058,0,0,0,5.95-1.33,1.058,1.058,0,0,0,7-.28,1.058,1.058,0,0,0,8.05-1.33,1.058,1.058,0,0,0,7-2.38Zm9.52-7.574h3.136V-7.6H16.52ZM17.948-5.11c.056-.448.084-.9.112-1.344h2.856V-11.1H15.33v4.648h1.456C16.66-4.018,16.352-1.3,14.476.21a3.26,3.26,0,0,1,.9.91,8.022,8.022,0,0,0,2.436-5.068h1.96c-.112,2.52-.252,3.514-.49,3.766-.1.14-.238.154-.462.154a14.1,14.1,0,0,1-1.5-.07,2.69,2.69,0,0,1,.364,1.148,10.561,10.561,0,0,0,1.694-.028,1.2,1.2,0,0,0,.952-.448c.378-.434.518-1.736.672-5.152.014-.168.014-.532.014-.532Zm5.474-4.956h-1.26v7.728h1.26Zm2.086-1.4V-.546c0,.252-.1.336-.364.35s-1.162.014-2.114-.028a6.029,6.029,0,0,1,.462,1.33A8.194,8.194,0,0,0,26.124.882c.49-.238.686-.616.686-1.428v-10.92Zm8.708,3.192a11.3,11.3,0,0,0,2.422-2.3,11.882,11.882,0,0,0,2.52,2.3Zm-.07,1.064h1.918v1.05h-3.5v1.078h3.5v2.828c0,.168-.042.21-.21.21s-.714.014-1.246-.014a5.433,5.433,0,0,1,.336,1.092,5.443,5.443,0,0,0,1.862-.168c.42-.2.532-.49.532-1.092V-5.082h3.71V-6.16h-3.71V-7.21h1.946v-.98a13.58,13.58,0,0,0,1.442.868,5.9,5.9,0,0,1,.756-1.19,11.361,11.361,0,0,1-4.27-3.206h-1.26a10.507,10.507,0,0,1-4.046,3.332,6.57,6.57,0,0,1,.686,1.106,12.729,12.729,0,0,0,1.554-.938Zm6.9,5.1a13.347,13.347,0,0,0-1.862-2.52l-1.036.476a13.255,13.255,0,0,1,1.806,2.59ZM33.894-4.578a6.762,6.762,0,0,1-1.82,2.38,6.441,6.441,0,0,1,.994.658,8.672,8.672,0,0,0,1.96-2.772ZM32.046-9.24a10.7,10.7,0,0,0-2.282-2.184l-.966.77A10.161,10.161,0,0,1,31.01-8.386Zm-.378,2.926h-2.94v1.2h1.666v3.3A18.55,18.55,0,0,1,28.476-.364l.672,1.33c.7-.6,1.344-1.162,1.946-1.736A4.9,4.9,0,0,0,35.028.84c1.6.07,4.438.042,6.034-.028A5.93,5.93,0,0,1,41.5-.518c-1.75.112-4.886.154-6.454.1S32.3-.91,31.668-1.89ZM45.08-8.736h1.764a2.127,2.127,0,0,1-.14.658H44.856Zm2.954-1.5h1.9v.686h-1.9Zm4.984,0v.686H51.17v-.686Zm-3.08,2.156H47.95a3.383,3.383,0,0,0,.07-.658h1.918Zm3.864.8a1.053,1.053,0,0,1-.168.546.346.346,0,0,1-.294.1c-.154,0-.5-.014-.9-.056a3.111,3.111,0,0,1,.182.434H51.17V-7.28ZM52.346-4.746H45.808V-5.46h6.538Zm0,1.484H45.808V-3.99h6.538Zm0,1.484H45.808v-.728h6.538Zm-2.408-5.5v1.022H46.816a2.807,2.807,0,0,0,.868-1.022Zm-5.4,6.286h9.128V-5.852c.112,0,.21-.014.28-.014a1.086,1.086,0,0,0,.742-.28A2.931,2.931,0,0,0,55.076-7.7c0-.14.014-.378.014-.378H51.17v-.658h3.038v-2.31H51.17v-.7H49.938v.7h-1.9v-.7H46.858v.7h-3.3v.812h3.3v.686h-2.73a19.438,19.438,0,0,1-.84,2.366l1.2.07.07-.168h1.61a6.56,6.56,0,0,1-3.4,1.246,4.144,4.144,0,0,1,.616,1.008,10.862,10.862,0,0,0,1.148-.252Zm2.31.014A16.728,16.728,0,0,1,42.756.2a6.8,6.8,0,0,1,.952.952,19.087,19.087,0,0,0,4.3-1.6Zm3.136.672A32.043,32.043,0,0,1,53.816,1.12L55.244.462C54.236.042,52.528-.532,51.016-.98ZM63.756-4.284V-6.356h3.388v2.072Zm-4.4,0c.042-.518.056-1.036.056-1.512v-.56h3.038v2.072Zm3.094-5.264v1.974H59.416V-9.548Zm4.69,1.974H63.756V-9.548h3.388Zm1.3-3.22H58.128V-5.81c0,1.974-.14,4.452-1.666,6.146a4.309,4.309,0,0,1,1.022.854,8.031,8.031,0,0,0,1.75-4.242h3.22v4h1.3v-4h3.388V-.546c0,.266-.1.35-.35.35s-1.19.014-2.086-.028a5.379,5.379,0,0,1,.434,1.26A7.664,7.664,0,0,0,67.76.812c.5-.2.686-.588.686-1.344Z" transform="translate(-2486 5801)" fill="#333"/>
    <path id="パス_33218" data-name="パス 33218" d="M7-8.26A1.058,1.058,0,0,0,8.05-9.31,1.058,1.058,0,0,0,7-10.36,1.058,1.058,0,0,0,5.95-9.31,1.058,1.058,0,0,0,7-8.26ZM7-5.726l-4.62-4.62-.406.406,4.62,4.62L1.96-.686l.406.406L7-4.914l4.62,4.62L12.026-.7,7.406-5.32l4.62-4.62-.406-.406ZM4.06-5.32A1.058,1.058,0,0,0,3.01-6.37,1.058,1.058,0,0,0,1.96-5.32,1.058,1.058,0,0,0,3.01-4.27,1.058,1.058,0,0,0,4.06-5.32Zm5.88,0a1.058,1.058,0,0,0,1.05,1.05,1.058,1.058,0,0,0,1.05-1.05,1.058,1.058,0,0,0-1.05-1.05A1.058,1.058,0,0,0,9.94-5.32ZM7-2.38A1.058,1.058,0,0,0,5.95-1.33,1.058,1.058,0,0,0,7-.28,1.058,1.058,0,0,0,8.05-1.33,1.058,1.058,0,0,0,7-2.38Zm9.52-7.574h3.136V-7.6H16.52ZM17.948-5.11c.056-.448.084-.9.112-1.344h2.856V-11.1H15.33v4.648h1.456C16.66-4.018,16.352-1.3,14.476.21a3.26,3.26,0,0,1,.9.91,8.022,8.022,0,0,0,2.436-5.068h1.96c-.112,2.52-.252,3.514-.49,3.766-.1.14-.238.154-.462.154a14.1,14.1,0,0,1-1.5-.07,2.69,2.69,0,0,1,.364,1.148,10.561,10.561,0,0,0,1.694-.028,1.2,1.2,0,0,0,.952-.448c.378-.434.518-1.736.672-5.152.014-.168.014-.532.014-.532Zm5.474-4.956h-1.26v7.728h1.26Zm2.086-1.4V-.546c0,.252-.1.336-.364.35s-1.162.014-2.114-.028a6.029,6.029,0,0,1,.462,1.33A8.194,8.194,0,0,0,26.124.882c.49-.238.686-.616.686-1.428v-10.92Zm8.708,3.192a11.3,11.3,0,0,0,2.422-2.3,11.882,11.882,0,0,0,2.52,2.3Zm-.07,1.064h1.918v1.05h-3.5v1.078h3.5v2.828c0,.168-.042.21-.21.21s-.714.014-1.246-.014a5.433,5.433,0,0,1,.336,1.092,5.443,5.443,0,0,0,1.862-.168c.42-.2.532-.49.532-1.092V-5.082h3.71V-6.16h-3.71V-7.21h1.946v-.98a13.58,13.58,0,0,0,1.442.868,5.9,5.9,0,0,1,.756-1.19,11.361,11.361,0,0,1-4.27-3.206h-1.26a10.507,10.507,0,0,1-4.046,3.332,6.57,6.57,0,0,1,.686,1.106,12.729,12.729,0,0,0,1.554-.938Zm6.9,5.1a13.347,13.347,0,0,0-1.862-2.52l-1.036.476a13.255,13.255,0,0,1,1.806,2.59ZM33.894-4.578a6.762,6.762,0,0,1-1.82,2.38,6.441,6.441,0,0,1,.994.658,8.672,8.672,0,0,0,1.96-2.772ZM32.046-9.24a10.7,10.7,0,0,0-2.282-2.184l-.966.77A10.161,10.161,0,0,1,31.01-8.386Zm-.378,2.926h-2.94v1.2h1.666v3.3A18.55,18.55,0,0,1,28.476-.364l.672,1.33c.7-.6,1.344-1.162,1.946-1.736A4.9,4.9,0,0,0,35.028.84c1.6.07,4.438.042,6.034-.028A5.93,5.93,0,0,1,41.5-.518c-1.75.112-4.886.154-6.454.1S32.3-.91,31.668-1.89ZM45.08-8.736h1.764a2.127,2.127,0,0,1-.14.658H44.856Zm2.954-1.5h1.9v.686h-1.9Zm4.984,0v.686H51.17v-.686Zm-3.08,2.156H47.95a3.383,3.383,0,0,0,.07-.658h1.918Zm3.864.8a1.053,1.053,0,0,1-.168.546.346.346,0,0,1-.294.1c-.154,0-.5-.014-.9-.056a3.111,3.111,0,0,1,.182.434H51.17V-7.28ZM52.346-4.746H45.808V-5.46h6.538Zm0,1.484H45.808V-3.99h6.538Zm0,1.484H45.808v-.728h6.538Zm-2.408-5.5v1.022H46.816a2.807,2.807,0,0,0,.868-1.022Zm-5.4,6.286h9.128V-5.852c.112,0,.21-.014.28-.014a1.086,1.086,0,0,0,.742-.28A2.931,2.931,0,0,0,55.076-7.7c0-.14.014-.378.014-.378H51.17v-.658h3.038v-2.31H51.17v-.7H49.938v.7h-1.9v-.7H46.858v.7h-3.3v.812h3.3v.686h-2.73a19.438,19.438,0,0,1-.84,2.366l1.2.07.07-.168h1.61a6.56,6.56,0,0,1-3.4,1.246,4.144,4.144,0,0,1,.616,1.008,10.862,10.862,0,0,0,1.148-.252Zm2.31.014A16.728,16.728,0,0,1,42.756.2a6.8,6.8,0,0,1,.952.952,19.087,19.087,0,0,0,4.3-1.6Zm3.136.672A32.043,32.043,0,0,1,53.816,1.12L55.244.462C54.236.042,52.528-.532,51.016-.98ZM63.756-4.284V-6.356h3.388v2.072Zm-4.4,0c.042-.518.056-1.036.056-1.512v-.56h3.038v2.072Zm3.094-5.264v1.974H59.416V-9.548Zm4.69,1.974H63.756V-9.548h3.388Zm1.3-3.22H58.128V-5.81c0,1.974-.14,4.452-1.666,6.146a4.309,4.309,0,0,1,1.022.854,8.031,8.031,0,0,0,1.75-4.242h3.22v4h1.3v-4h3.388V-.546c0,.266-.1.35-.35.35s-1.19.014-2.086-.028a5.379,5.379,0,0,1,.434,1.26A7.664,7.664,0,0,0,67.76.812c.5-.2.686-.588.686-1.344Z" transform="translate(-2486 5857)" fill="#333"/>
    <g id="グループ_6329" data-name="グループ 6329" transform="translate(-3147 2322)">
      <g id="楕円形_83-12" data-name="楕円形 83" transform="translate(631 3405)" fill="none" stroke="#bbb" stroke-width="3">
        <circle cx="12" cy="12" r="12" stroke="none"/>
        <circle cx="12" cy="12" r="10.5" fill="none"/>
      </g>
      <g id="グループ_5900" data-name="グループ 5900" transform="translate(1629.385 1857.83) rotate(45)">
        <line id="線_106" data-name="線 106" x2="11" transform="translate(399.5 1800)" fill="none" stroke="#bbb" stroke-width="3"/>
        <line id="線_107" data-name="線 107" x2="11" transform="translate(405 1794.5) rotate(90)" fill="none" stroke="#bbb" stroke-width="3"/>
      </g>
    </g>
    <g id="グループ_6341" data-name="グループ 6341" transform="translate(-2747 2378)">
      <g id="楕円形_83-13" data-name="楕円形 83" transform="translate(631 3405)" fill="none" stroke="#bbb" stroke-width="3">
        <circle cx="12" cy="12" r="12" stroke="none"/>
        <circle cx="12" cy="12" r="10.5" fill="none"/>
      </g>
      <g id="グループ_5900-2" data-name="グループ 5900" transform="translate(1629.385 1857.83) rotate(45)">
        <line id="線_106-2" data-name="線 106" x2="11" transform="translate(399.5 1800)" fill="none" stroke="#bbb" stroke-width="3"/>
        <line id="線_107-2" data-name="線 107" x2="11" transform="translate(405 1794.5) rotate(90)" fill="none" stroke="#bbb" stroke-width="3"/>
      </g>
    </g>
    <g id="グループ_6342" data-name="グループ 6342" transform="translate(-2747 2434)">
      <g id="楕円形_83-14" data-name="楕円形 83" transform="translate(631 3405)" fill="none" stroke="#bbb" stroke-width="3">
        <circle cx="12" cy="12" r="12" stroke="none"/>
        <circle cx="12" cy="12" r="10.5" fill="none"/>
      </g>
      <g id="グループ_5900-3" data-name="グループ 5900" transform="translate(1629.385 1857.83) rotate(45)">
        <line id="線_106-3" data-name="線 106" x2="11" transform="translate(399.5 1800)" fill="none" stroke="#bbb" stroke-width="3"/>
        <line id="線_107-3" data-name="線 107" x2="11" transform="translate(405 1794.5) rotate(90)" fill="none" stroke="#bbb" stroke-width="3"/>
      </g>
    </g>
    <g id="グループ_6343" data-name="グループ 6343" transform="translate(-2747 2490)">
      <g id="楕円形_83-15" data-name="楕円形 83" transform="translate(631 3405)" fill="none" stroke="#bbb" stroke-width="3">
        <circle cx="12" cy="12" r="12" stroke="none"/>
        <circle cx="12" cy="12" r="10.5" fill="none"/>
      </g>
      <g id="グループ_5900-4" data-name="グループ 5900" transform="translate(1629.385 1857.83) rotate(45)">
        <line id="線_106-4" data-name="線 106" x2="11" transform="translate(399.5 1800)" fill="none" stroke="#bbb" stroke-width="3"/>
        <line id="線_107-4" data-name="線 107" x2="11" transform="translate(405 1794.5) rotate(90)" fill="none" stroke="#bbb" stroke-width="3"/>
      </g>
    </g>
    <g id="グループ_6333" data-name="グループ 6333" transform="translate(-2747 1898)">
      <g id="楕円形_83-16" data-name="楕円形 83" transform="translate(631 3405)" fill="none" stroke="#555" stroke-width="3">
        <circle cx="12" cy="12" r="12" stroke="none"/>
        <circle cx="12" cy="12" r="10.5" fill="none"/>
      </g>
      <path id="パス_29183-12" data-name="パス 29183" d="M636.986,3416.355l2.979,2.81,7.021-6" transform="translate(1.014 0.834)" fill="none" stroke="#555" stroke-width="3"/>
    </g>
    <g id="グループ_6334" data-name="グループ 6334" transform="translate(-2747 1954)">
      <g id="楕円形_83-17" data-name="楕円形 83" transform="translate(631 3405)" fill="none" stroke="#555" stroke-width="3">
        <circle cx="12" cy="12" r="12" stroke="none"/>
        <circle cx="12" cy="12" r="10.5" fill="none"/>
      </g>
      <path id="パス_29183-13" data-name="パス 29183" d="M636.986,3416.355l2.979,2.81,7.021-6" transform="translate(1.014 0.834)" fill="none" stroke="#555" stroke-width="3"/>
    </g>
    <g id="グループ_6335" data-name="グループ 6335" transform="translate(-2747 2010)">
      <g id="楕円形_83-18" data-name="楕円形 83" transform="translate(631 3405)" fill="none" stroke="#555" stroke-width="3">
        <circle cx="12" cy="12" r="12" stroke="none"/>
        <circle cx="12" cy="12" r="10.5" fill="none"/>
      </g>
      <path id="パス_29183-14" data-name="パス 29183" d="M636.986,3416.355l2.979,2.81,7.021-6" transform="translate(1.014 0.834)" fill="none" stroke="#555" stroke-width="3"/>
    </g>
    <g id="グループ_6336" data-name="グループ 6336" transform="translate(-2747 2066)">
      <g id="楕円形_83-19" data-name="楕円形 83" transform="translate(631 3405)" fill="none" stroke="#555" stroke-width="3">
        <circle cx="12" cy="12" r="12" stroke="none"/>
        <circle cx="12" cy="12" r="10.5" fill="none"/>
      </g>
      <path id="パス_29183-15" data-name="パス 29183" d="M636.986,3416.355l2.979,2.81,7.021-6" transform="translate(1.014 0.834)" fill="none" stroke="#555" stroke-width="3"/>
    </g>
    <g id="グループ_6337" data-name="グループ 6337" transform="translate(-2747 2122)">
      <g id="楕円形_83-20" data-name="楕円形 83" transform="translate(631 3405)" fill="none" stroke="#555" stroke-width="3">
        <circle cx="12" cy="12" r="12" stroke="none"/>
        <circle cx="12" cy="12" r="10.5" fill="none"/>
      </g>
      <path id="パス_29183-16" data-name="パス 29183" d="M636.986,3416.355l2.979,2.81,7.021-6" transform="translate(1.014 0.834)" fill="none" stroke="#555" stroke-width="3"/>
    </g>
    <g id="グループ_6338" data-name="グループ 6338" transform="translate(-2747 2194)">
      <g id="楕円形_83-21" data-name="楕円形 83" transform="translate(631 3405)" fill="none" stroke="#555" stroke-width="3">
        <circle cx="12" cy="12" r="12" stroke="none"/>
        <circle cx="12" cy="12" r="10.5" fill="none"/>
      </g>
      <path id="パス_29183-17" data-name="パス 29183" d="M636.986,3416.355l2.979,2.81,7.021-6" transform="translate(1.014 0.834)" fill="none" stroke="#555" stroke-width="3"/>
    </g>
    <g id="グループ_6339" data-name="グループ 6339" transform="translate(-2747 2266)">
      <g id="楕円形_83-22" data-name="楕円形 83" transform="translate(631 3405)" fill="none" stroke="#555" stroke-width="3">
        <circle cx="12" cy="12" r="12" stroke="none"/>
        <circle cx="12" cy="12" r="10.5" fill="none"/>
      </g>
      <path id="パス_29183-18" data-name="パス 29183" d="M636.986,3416.355l2.979,2.81,7.021-6" transform="translate(1.014 0.834)" fill="none" stroke="#555" stroke-width="3"/>
    </g>
    <g id="グループ_6340" data-name="グループ 6340" transform="translate(-2747 2322)">
      <g id="楕円形_83-23" data-name="楕円形 83" transform="translate(631 3405)" fill="none" stroke="#555" stroke-width="3">
        <circle cx="12" cy="12" r="12" stroke="none"/>
        <circle cx="12" cy="12" r="10.5" fill="none"/>
      </g>
      <path id="パス_29183-19" data-name="パス 29183" d="M636.986,3416.355l2.979,2.81,7.021-6" transform="translate(1.014 0.834)" fill="none" stroke="#555" stroke-width="3"/>
    </g>
    <g id="グループ_6332" data-name="グループ 6332" transform="translate(-2747 1842)">
      <g id="楕円形_83-24" data-name="楕円形 83" transform="translate(631 3405)" fill="none" stroke="#555" stroke-width="3">
        <circle cx="12" cy="12" r="12" stroke="none"/>
        <circle cx="12" cy="12" r="10.5" fill="none"/>
      </g>
      <path id="パス_29183-20" data-name="パス 29183" d="M636.986,3416.355l2.979,2.81,7.021-6" transform="translate(1.014 0.834)" fill="none" stroke="#555" stroke-width="3"/>
    </g>
    <path id="パス_33184" data-name="パス 33184" d="M0,0H288V816H0Z" transform="translate(-3064 5119)" fill="#fff"/>
    <path id="パス_33222" data-name="パス 33222" d="M0,0H288V56H0Z" transform="translate(-3064 5879)" fill="#f5f5f5"/>
    <path id="パス_33223" data-name="パス 33223" d="M12.88-11.6a1.011,1.011,0,0,1,.992-1.008A1.025,1.025,0,0,1,14.88-11.6a1.011,1.011,0,0,1-1.008.992A1,1,0,0,1,12.88-11.6Zm-.848,0a1.986,1.986,0,0,0,.048.432,5.432,5.432,0,0,1-.688.032H3.632c-.528,0-1.28-.064-1.728-.112v1.792C2.32-9.488,2.96-9.52,3.632-9.52H11.5a11.593,11.593,0,0,1-2,4.912A10.736,10.736,0,0,1,3.248-.8L4.624.7a12.444,12.444,0,0,0,6.352-4.336,16.3,16.3,0,0,0,2.4-5.872c.016-.1.048-.208.064-.3a1.986,1.986,0,0,0,.432.048,1.844,1.844,0,0,0,1.856-1.84,1.854,1.854,0,0,0-1.856-1.84A1.84,1.84,0,0,0,12.032-11.6ZM19.36-.56,20.544.448a3.318,3.318,0,0,1,.8-.336,19.2,19.2,0,0,0,9.328-5.744L29.76-7.04a17.766,17.766,0,0,1-8.512,5.376v-8.752a10.45,10.45,0,0,1,.128-1.6H19.392a9.469,9.469,0,0,1,.144,1.616v8.944A1.766,1.766,0,0,1,19.36-.56ZM44.272-12.88l-1.024.432a19.1,19.1,0,0,1,1.264,2.208l1.056-.448A23.186,23.186,0,0,0,44.272-12.88Zm1.824-.688-1.04.432a16.058,16.058,0,0,1,1.312,2.208l1.04-.464A21.24,21.24,0,0,0,46.1-13.568ZM36.512-1.792c0,1.712.528,2.528,3.808,2.528A36.955,36.955,0,0,0,45.312.4l.064-1.728a25.235,25.235,0,0,1-5.024.5c-1.84,0-2.192-.352-2.192-1.408V-6.768c2.592-.528,5.184-1.04,5.568-1.12A14.778,14.778,0,0,1,40.992-4.32L42.4-3.5A24.321,24.321,0,0,0,45.7-8.16a5.635,5.635,0,0,1,.448-.736l-1.2-.928a4.646,4.646,0,0,1-.976.32c-.7.16-3.248.688-5.808,1.168V-10.56a11.042,11.042,0,0,1,.128-1.632h-1.9a11.042,11.042,0,0,1,.128,1.632v2.544c-1.648.3-3.12.56-3.856.656l.3,1.664c.656-.144,2.016-.432,3.552-.736ZM51.728-11.92,50.56-10.672a34.7,34.7,0,0,1,4,3.392l1.264-1.3A33.575,33.575,0,0,0,51.728-11.92ZM50.08-1.216,51.152.432A17.641,17.641,0,0,0,57.28-1.952,16.359,16.359,0,0,0,62.9-7.744L61.92-9.488a15.234,15.234,0,0,1-5.552,6.032A16.625,16.625,0,0,1,50.08-1.216Zm19.152-.256A16.751,16.751,0,0,1,69.1.576h1.968a18.746,18.746,0,0,1-.128-2.048V-6.416a41.9,41.9,0,0,1,6.048,2.5l.72-1.744a54.235,54.235,0,0,0-6.768-2.56v-2.5c0-.56.064-1.264.112-1.792H69.088a11.583,11.583,0,0,1,.144,1.792ZM87.088-13.488A18.171,18.171,0,0,1,80.512-7.28a6.473,6.473,0,0,1,.944,1.2A20.5,20.5,0,0,0,87.92-12a22.106,22.106,0,0,0,6.624,5.856,7.177,7.177,0,0,1,.992-1.328,18.55,18.55,0,0,1-6.928-6.016ZM88.88-4.16h4.432V-5.5H88.88V-9.088H87.312v8.56h-2.7V-6.272H83.152V-.528H81.264V.816h13.5V-.528H88.88Zm20.256,3.04H98.9V-9.68H97.44V1.248H98.9V.288h10.24v.928h1.456V-9.68h-1.456ZM106.48-6.5h-1.888V-8.24h1.888Zm0,2.944h-1.888v-1.76h1.888Zm-5.056-1.76H103.3v1.76h-1.872Zm0-2.928H103.3V-6.5h-1.872Zm-4.48-4.176v1.376H103.2v1.568h-3.024V-2.32h7.6V-9.472h-3.088V-11.04h6.368v-1.376Zm29.712,6.8a5.922,5.922,0,0,0-6.272-6.032,6.935,6.935,0,0,0-7.152,6.656c0,2.672,1.456,4.432,3.04,4.432s2.912-1.808,3.872-5.072a31.86,31.86,0,0,0,.96-4.5,4.254,4.254,0,0,1,3.872,4.464A4.6,4.6,0,0,1,121.1-1.12,9.889,9.889,0,0,1,119.68-.9l.944,1.5C124.512.048,126.656-2.256,126.656-5.616Zm-11.808.464a5.348,5.348,0,0,1,4.56-4.944,25.472,25.472,0,0,1-.88,4.128c-.736,2.464-1.488,3.5-2.208,3.5C115.632-2.464,114.848-3.312,114.848-5.152Zm25.936-5.616H135.92v-1.04h4.864Zm0,2.064H135.92V-9.76h4.864Zm1.424-4.208H134.56V-7.6h7.648Zm-8.576,7.7-.208-1.344-1.536.448V-8.928h1.7V-10.3h-1.7v-3.088h-1.36V-10.3h-1.856v1.376h1.856v3.216c-.752.208-1.456.4-2.016.544l.336,1.44,1.68-.512V-.528c0,.224-.08.288-.272.288-.176,0-.768,0-1.408-.016a4.75,4.75,0,0,1,.4,1.376,4.533,4.533,0,0,0,2.08-.288c.416-.224.56-.624.56-1.36V-4.672ZM139.04-2.56h3.2V-3.744h-3.2V-5.408h4.016V-6.624h-9.248v1.216h3.84V-.736a3.623,3.623,0,0,1-1.792-2.208,16.577,16.577,0,0,0,.3-1.68l-1.344-.16c-.256,2.256-.944,4.048-2.32,5.152a6.908,6.908,0,0,1,1.1.9,6.944,6.944,0,0,0,1.808-2.736c1.04,2.112,2.7,2.512,4.928,2.512h2.752A4.651,4.651,0,0,1,143.5-.272c-.608.016-2.672.016-3.12.016a9.2,9.2,0,0,1-1.344-.08Zm9.136-10.832a17.635,17.635,0,0,1-3.792,6.16,10.782,10.782,0,0,1,.816,1.52,17.475,17.475,0,0,0,1.328-1.616V1.248h1.456V-9.616a24.324,24.324,0,0,0,1.584-3.328Zm3.536,10.48a10.343,10.343,0,0,1-2.88,3.184,9.885,9.885,0,0,1,1.184.944,14.084,14.084,0,0,0,3.1-3.68Zm3.536.688a18.249,18.249,0,0,1,2.7,3.488l1.248-.8a19.531,19.531,0,0,0-2.752-3.344ZM152.8-8.736h2.752v3.6H152.8Zm4.208,3.6v-3.6h2.176V-10.16h-2.176V-13.3h-1.456v3.136H152.8v-3.1h-1.456v3.1h-1.92v1.424h1.92v3.6h-2.3V-3.68h10.3V-5.136Z" transform="translate(-3024 5914)" fill="#333"/>
    <path id="パス_33219" data-name="パス 33219" d="M3.52-9.888H15.184v-1.424H9.232v-2.112H7.7v2.112H2.032V-7.2C2.032-4.96,1.9-1.792.512.416a6.4,6.4,0,0,1,1.264.832C3.28-1.088,3.52-4.736,3.52-7.2ZM15.456.608a26.26,26.26,0,0,0-3.52-5.824l-1.36.608a32.087,32.087,0,0,1,2.08,3.184c-1.984.1-3.984.176-5.744.256A75.559,75.559,0,0,0,9.328-8.624l-1.68-.368A54.438,54.438,0,0,1,5.328-1.1c-.7.016-1.344.048-1.9.064L3.568.5C6.1.352,9.808.128,13.344-.112a12.2,12.2,0,0,1,.608,1.424ZM27.728-3.5v2.64h-7.28V-3.5ZM18.944,1.36h1.5V.512h7.28v.816H29.28V-4.88H18.944Zm6.224-9.024V-9.872H29.9v-1.36H25.168v-2.176H23.6v2.176H20.624c.256-.56.5-1.152.7-1.728l-1.488-.352A11.736,11.736,0,0,1,17.1-8.688c.368.192,1.04.592,1.36.8a13.831,13.831,0,0,0,1.424-1.984H23.6v2.208H17.04v1.392H31.008V-7.664ZM46.656-5.616a5.922,5.922,0,0,0-6.272-6.032,6.935,6.935,0,0,0-7.152,6.656c0,2.672,1.456,4.432,3.04,4.432s2.912-1.808,3.872-5.072a31.86,31.86,0,0,0,.96-4.5,4.254,4.254,0,0,1,3.872,4.464A4.6,4.6,0,0,1,41.1-1.12,9.889,9.889,0,0,1,39.68-.9l.944,1.5C44.512.048,46.656-2.256,46.656-5.616Zm-11.808.464a5.348,5.348,0,0,1,4.56-4.944,25.473,25.473,0,0,1-.88,4.128c-.736,2.464-1.488,3.5-2.208,3.5C35.632-2.464,34.848-3.312,34.848-5.152Zm25.9-.224v4.208h-4.08V-6.336h4.992v-5.6H60.1v4.16H56.672v-5.536h-1.52v5.536H51.888V-11.92H50.4v5.584h4.752v5.168H51.3V-5.376h-1.5v6.64h1.5V.288h9.456v.944h1.536V-5.376Zm7.664-2.24h1.872V-9.008H68.416v-2.464a14.049,14.049,0,0,0,1.952-.608L69.3-13.168a21.124,21.124,0,0,1-4.608,1.12,4.9,4.9,0,0,1,.448,1.152c.592-.08,1.216-.176,1.84-.288v2.176H64.752v1.392h2.064a16.952,16.952,0,0,1-2.288,4.7,8.715,8.715,0,0,1,.7,1.392,15.416,15.416,0,0,0,1.744-3.456v6.24h1.44V-5.584a15.838,15.838,0,0,1,1.04,1.76l.88-1.152c-.288-.368-1.488-1.776-1.92-2.24Zm7.232,4.768V-1.44H73.776V-2.848ZM76.72-.512v-3.28h-4V.256h1.056V-.512Zm2.32-5.28H70.432v7.04H71.76v-5.84h5.92v4.48c0,.16-.048.192-.208.208-.16,0-.656,0-1.184-.016a4.96,4.96,0,0,1,.368,1.168,4.784,4.784,0,0,0,1.872-.208c.4-.208.512-.544.512-1.152ZM76.656-7.568H72.848V-8.88h3.808ZM77.968-9.92H71.584v3.376h6.384ZM75.44-11.856v-1.568H73.984v1.568H70.32v1.184h8.72v-1.184Z" transform="translate(-3024 5858)" fill="#333"/>
    <path id="パス_33215" data-name="パス 33215" d="M0,0H288V56H0Z" transform="translate(-3064 5767)" fill="#f5f5f5"/>
    <path id="パス_33217" data-name="パス 33217" d="M3.52-7.632A19.388,19.388,0,0,0,7.936-12a20.941,20.941,0,0,0,4.608,4.368ZM8.736-2.816h4.656v-1.3H8.736V-6.32h4V-7.5a20.039,20.039,0,0,0,1.76,1.12A8.724,8.724,0,0,1,15.472-7.7a18.933,18.933,0,0,1-6.848-5.776H7.1A18.215,18.215,0,0,1,.56-7.52,5.863,5.863,0,0,1,1.5-6.32,18.88,18.88,0,0,0,3.344-7.5V-6.32H7.168v2.208H2.592v1.3H7.168V-.5H1.3V.848H14.8V-.5H8.736Zm15.552-9.872H22.416a10.177,10.177,0,0,1,.112,1.376q0,.816-.048,1.536H19.9c-.624,0-1.344-.048-1.952-.1v1.664c.608-.048,1.36-.064,1.952-.064h2.432a9.945,9.945,0,0,1-2.928,6.288A8.538,8.538,0,0,1,17.568-.64L19.04.56c2.752-1.936,4.336-4.384,4.928-8.832h4.1c0,1.728-.208,5.344-.752,6.464a.846.846,0,0,1-.912.544,18.318,18.318,0,0,1-2.32-.192l.192,1.68c.816.064,1.744.112,2.608.112A1.784,1.784,0,0,0,28.736-.752c.7-1.568.912-6.144.96-7.76.016-.192.064-.544.112-.816l-1.12-.544a7.275,7.275,0,0,1-1.1.1H24.128c.032-.5.064-1.024.08-1.568C24.224-11.728,24.256-12.32,24.288-12.688Zm11.056.656v1.648c.448-.032,1.04-.048,1.568-.048H43.36c.5,0,1.088.016,1.6.048v-1.648a13.681,13.681,0,0,1-1.6.112H36.9A12.213,12.213,0,0,1,35.344-12.032ZM33.456-7.968V-6.32c.432-.032.976-.048,1.456-.048h4.624a7.456,7.456,0,0,1-.96,3.792,6.864,6.864,0,0,1-2.96,2.384L37.088.88A7.691,7.691,0,0,0,40.272-2.1a9.952,9.952,0,0,0,.992-4.272h4.112c.416,0,.976.016,1.344.048V-7.968c-.4.048-1.008.08-1.344.08H34.912A14.02,14.02,0,0,1,33.456-7.968ZM59.84-13.28l-1.072.448a16.96,16.96,0,0,1,1.264,2.16l1.088-.464C60.8-11.728,60.224-12.72,59.84-13.28Zm2.08-.48-1.072.448a17.731,17.731,0,0,1,1.3,2.144l1.072-.464A22.2,22.2,0,0,0,61.92-13.76ZM50.3-10.64v1.76c.416-.016,1.232-.048,1.856-.048h7.472v7.136H51.968c-.688,0-1.392-.048-1.856-.08V-.064c.464-.032,1.264-.08,1.9-.08h7.6c0,.352-.016.656-.016.864h1.824c-.032-.336-.08-1.12-.08-1.68V-9.248c0-.416.032-.976.048-1.328-.3.016-.848.032-1.28.032H52.16C51.616-10.544,50.864-10.592,50.3-10.64Zm26.3-1.616H74.7a12.372,12.372,0,0,1,.1,1.472v2.752c0,2.8-.208,4.048-1.328,5.328a7.463,7.463,0,0,1-3.84,2.08L70.96.768a8.738,8.738,0,0,0,3.824-2.336c1.184-1.344,1.76-2.7,1.76-6.368v-2.848C76.544-11.36,76.576-11.84,76.608-12.256Zm-7.424.128h-1.84a10.335,10.335,0,0,1,.064,1.184v5.36c0,.464-.048,1.024-.064,1.3h1.84c-.032-.32-.064-.88-.064-1.3v-5.36C69.12-11.392,69.152-11.792,69.184-12.128ZM81.552-7.136v1.984c.544-.048,1.5-.08,2.384-.08h8.7c.7,0,1.44.064,1.792.08V-7.136c-.4.032-1.024.1-1.792.1h-8.7C83.072-7.04,82.08-7.1,81.552-7.136Zm29.1,1.52a5.922,5.922,0,0,0-6.272-6.032,6.935,6.935,0,0,0-7.152,6.656c0,2.672,1.456,4.432,3.04,4.432s2.912-1.808,3.872-5.072a31.86,31.86,0,0,0,.96-4.5,4.254,4.254,0,0,1,3.872,4.464A4.6,4.6,0,0,1,105.1-1.12,9.889,9.889,0,0,1,103.68-.9l.944,1.5C108.512.048,110.656-2.256,110.656-5.616Zm-11.808.464a5.348,5.348,0,0,1,4.56-4.944,25.472,25.472,0,0,1-.88,4.128c-.736,2.464-1.488,3.5-2.208,3.5C99.632-2.464,98.848-3.312,98.848-5.152ZM118.464-12.9h-4.976v1.168h4.976ZM117.04-3.12v2.3h-2.368v-2.3Zm1.328-1.2H113.36V1.056h1.312V.384h3.7Zm-4.976-.992h5.024V-6.48h-5.024Zm0-2.144h5.024V-8.608h-5.024ZM112.64-9.6h6.384v-1.184H112.64ZM122.3-.3c-.816,0-.976-.128-.976-.768V-6.016h3.744v.832h1.488v-7.392h-6.848v1.424h5.36V-7.44h-5.248v6.368c0,1.728.56,2.176,2.32,2.176h2.944c1.68,0,2.112-.736,2.32-3.312a4.339,4.339,0,0,1-1.392-.608C125.9-.7,125.792-.3,124.992-.3ZM140.1-2.224h-3.408v-.992H140.1ZM136.688-5.3H140.1v.912h-3.408Zm-4.512-2.992v-.96h3.008v.96Zm7.664-.96v.96h-3.152v-.96Zm3.424,4.864H141.6V-6.352h-4.912V-7.3h4.656V-10.24h-4.656v-.816h6.24v-1.2h-6.24v-1.168h-1.5v1.168H129.12v1.2h6.064v.816h-4.432V-7.3h4.432v.944h-4.848V-5.3h4.848v.912h-6.4v1.168h6.4v.992h-4.992V-1.1h4.992v.848c0,.272-.1.352-.384.368-.256.016-1.216.016-2.1-.016a4.6,4.6,0,0,1,.512,1.2,9.423,9.423,0,0,0,2.72-.208c.544-.208.752-.544.752-1.36V-1.1H140.1v.688h1.5v-2.8h1.664ZM149.6-6.512l-1.376.384V-8.944H149.7V-10.32h-1.472v-3.088H146.8v3.088h-2.032v1.376H146.8v3.2c-.88.24-1.68.448-2.32.592L144.8-3.7l2-.576V-.48c0,.224-.08.3-.288.3s-.864,0-1.536-.016a5.869,5.869,0,0,1,.432,1.44A5.133,5.133,0,0,0,147.616.96c.448-.24.608-.656.608-1.44V-4.7c.512-.16,1.04-.32,1.552-.48Zm2.352-3.152h4.9V-8.5h-4.9Zm0-2.144h4.9v1.12h-4.9Zm.816,5.472a9.6,9.6,0,0,0,.512-1.088h4.992V-12.9h-7.664v5.472h1.152a9.021,9.021,0,0,1-2.976,3.632,8.114,8.114,0,0,1,1.072,1.008,8.562,8.562,0,0,0,.912-.816v1.792c0,1.248.3,1.6,1.744,1.6h2.112c1.024,0,1.392-.352,1.552-1.744a3.535,3.535,0,0,1-1.152-.448c-.064.9-.144,1.024-.544,1.024h-1.808c-.56,0-.64-.064-.64-.448V-2.5a19.914,19.914,0,0,0,3.536-1.088l-.88-.928a14.718,14.718,0,0,1-2.656.96V-4.608h-.384c.112-.16.24-.32.352-.48h5.584c-.208,3.264-.448,4.592-.768,4.928a.651.651,0,0,1-.576.208c-.3,0-1.008-.016-1.776-.08a2.768,2.768,0,0,1,.384,1.248,13.91,13.91,0,0,0,2.016,0A1.545,1.545,0,0,0,158,.672c.512-.56.752-2.144,1.008-6.4.016-.192.032-.608.032-.608ZM174.832-11.1A13.475,13.475,0,0,0,172.7-13.28l-1.088.736a12.658,12.658,0,0,1,2.08,2.256ZM168.8-1.344h-3.1v-.768h2.784V-6h-2.768v-.768h3.056V-7.84h-3.056v-.9h3.744a31.844,31.844,0,0,0,.9,6.272,11.3,11.3,0,0,1-1.552,1.6ZM162.752-3.68h1.712v.768h-1.712Zm0-1.536h1.712v.768h-1.712Zm2.848.768v-.768h1.76v.768Zm0,1.536V-3.68h1.76v.768Zm7.632-5.04a17.262,17.262,0,0,1-1.744,3.9,34.4,34.4,0,0,1-.576-4.688h4.256V-9.984h-4.32c-.048-1.088-.064-2.24-.048-3.424h-1.488c0,1.168.032,2.32.08,3.424h-3.616v-1.088h2.7V-12.24h-2.7v-1.184h-1.424v1.184H161.6v1.168h2.752v1.088H160.88v1.248h3.488v.9h-3.04v1.072h3.04V-6h-2.72v3.888h2.736v.768h-3.3v1.1h3.3v1.5H165.7V-.24h2.288c-.192.144-.4.272-.608.4a4.137,4.137,0,0,1,1.008,1.12,12.636,12.636,0,0,0,2.528-2.192c.608,1.36,1.424,2.16,2.512,2.16,1.248,0,1.76-.72,1.968-3.328a3.694,3.694,0,0,1-1.2-.784c-.08,1.9-.256,2.672-.64,2.672-.624,0-1.152-.752-1.584-2.032a18.752,18.752,0,0,0,2.592-5.328Zm18.16.192h-5.6l-1.76-5.376h-.064l-1.76,5.376h-5.6v.08L181.12-4.4,179.344.992l.064.032L184-2.32l4.592,3.344.064-.032L186.88-4.4l4.512-3.28Z" transform="translate(-3024 5802)" fill="#333"/>
    <path id="パス_33212" data-name="パス 33212" d="M12.88-11.6a1.011,1.011,0,0,1,.992-1.008A1.025,1.025,0,0,1,14.88-11.6a1.011,1.011,0,0,1-1.008.992A1,1,0,0,1,12.88-11.6Zm-.848,0a1.986,1.986,0,0,0,.048.432,5.432,5.432,0,0,1-.688.032H3.632c-.528,0-1.28-.064-1.728-.112v1.792C2.32-9.488,2.96-9.52,3.632-9.52H11.5a11.593,11.593,0,0,1-2,4.912A10.736,10.736,0,0,1,3.248-.8L4.624.7a12.444,12.444,0,0,0,6.352-4.336,16.3,16.3,0,0,0,2.4-5.872c.016-.1.048-.208.064-.3a1.986,1.986,0,0,0,.432.048,1.844,1.844,0,0,0,1.856-1.84,1.854,1.854,0,0,0-1.856-1.84A1.84,1.84,0,0,0,12.032-11.6ZM19.36-.56,20.544.448a3.318,3.318,0,0,1,.8-.336,19.2,19.2,0,0,0,9.328-5.744L29.76-7.04a17.766,17.766,0,0,1-8.512,5.376v-8.752a10.45,10.45,0,0,1,.128-1.6H19.392a9.469,9.469,0,0,1,.144,1.616v8.944A1.766,1.766,0,0,1,19.36-.56ZM44.272-12.88l-1.024.432a19.1,19.1,0,0,1,1.264,2.208l1.056-.448A23.186,23.186,0,0,0,44.272-12.88Zm1.824-.688-1.04.432a16.058,16.058,0,0,1,1.312,2.208l1.04-.464A21.24,21.24,0,0,0,46.1-13.568ZM36.512-1.792c0,1.712.528,2.528,3.808,2.528A36.955,36.955,0,0,0,45.312.4l.064-1.728a25.235,25.235,0,0,1-5.024.5c-1.84,0-2.192-.352-2.192-1.408V-6.768c2.592-.528,5.184-1.04,5.568-1.12A14.778,14.778,0,0,1,40.992-4.32L42.4-3.5A24.321,24.321,0,0,0,45.7-8.16a5.635,5.635,0,0,1,.448-.736l-1.2-.928a4.646,4.646,0,0,1-.976.32c-.7.16-3.248.688-5.808,1.168V-10.56a11.042,11.042,0,0,1,.128-1.632h-1.9a11.042,11.042,0,0,1,.128,1.632v2.544c-1.648.3-3.12.56-3.856.656l.3,1.664c.656-.144,2.016-.432,3.552-.736ZM51.728-11.92,50.56-10.672a34.7,34.7,0,0,1,4,3.392l1.264-1.3A33.575,33.575,0,0,0,51.728-11.92ZM50.08-1.216,51.152.432A17.641,17.641,0,0,0,57.28-1.952,16.359,16.359,0,0,0,62.9-7.744L61.92-9.488a15.234,15.234,0,0,1-5.552,6.032A16.625,16.625,0,0,1,50.08-1.216Zm19.152-.256A16.751,16.751,0,0,1,69.1.576h1.968a18.746,18.746,0,0,1-.128-2.048V-6.416a41.9,41.9,0,0,1,6.048,2.5l.72-1.744a54.235,54.235,0,0,0-6.768-2.56v-2.5c0-.56.064-1.264.112-1.792H69.088a11.583,11.583,0,0,1,.144,1.792ZM94.656-5.616a5.922,5.922,0,0,0-6.272-6.032,6.935,6.935,0,0,0-7.152,6.656c0,2.672,1.456,4.432,3.04,4.432s2.912-1.808,3.872-5.072a31.86,31.86,0,0,0,.96-4.5,4.254,4.254,0,0,1,3.872,4.464A4.6,4.6,0,0,1,89.1-1.12,9.889,9.889,0,0,1,87.68-.9l.944,1.5C92.512.048,94.656-2.256,94.656-5.616Zm-11.808.464a5.348,5.348,0,0,1,4.56-4.944,25.472,25.472,0,0,1-.88,4.128c-.736,2.464-1.488,3.5-2.208,3.5C83.632-2.464,82.848-3.312,82.848-5.152Zm16.576-4.88h11.76v-1.44h-5.936v-1.952H103.7v1.952h-5.76v4.064c0,2.288-.112,5.536-1.408,7.808a7.584,7.584,0,0,1,1.264.848c1.392-2.448,1.632-6.16,1.632-8.656Zm8.336,2.64A19.913,19.913,0,0,0,104-9.728l-1.008.976a19.729,19.729,0,0,1,3.7,2.464Zm-7.136,7.2a13.853,13.853,0,0,0,1.328-5.12l-1.36-.3A12.089,12.089,0,0,1,99.3-.784Zm4.3-.192c-.544,0-.656-.1-.656-.656V-6.912h-1.456V-1.04c0,1.52.384,2,1.888,2h2.08c1.408,0,1.792-.736,1.936-3.392a4.681,4.681,0,0,1-1.312-.608c-.08,2.256-.16,2.656-.736,2.656Zm3.024-5.088a17.64,17.64,0,0,1,2.112,5.28L111.52-.8A17.1,17.1,0,0,0,109.264-6Zm8.656-5.088h1.44v-.7h3.84v.7h1.472v-.7h3.488v-1.184H123.36v-.976h-1.472v.976h-3.84v-.976h-1.44v.976h-3.456v1.184h3.456ZM120.16-2.7a9.383,9.383,0,0,0,.192-1.008h-1.44a6.616,6.616,0,0,1-.224,1.008h-2.48a9.588,9.588,0,0,0,1.552-1.28h4.448a8.391,8.391,0,0,0,1.408,1.28ZM116.176-7.7h7.68v.864h-7.68Zm0-1.712h7.68v.848h-7.68Zm10.9,5.424V-5.152h-8.336a7.386,7.386,0,0,0,.448-.768h6.16v-4.416H114.752V-5.92H117.6a4.581,4.581,0,0,1-.512.768h-4.144v1.168h2.88a11.19,11.19,0,0,1-3.28,1.6,3.912,3.912,0,0,1,.848,1.056,14.85,14.85,0,0,0,1.888-.832v.56h2.9c-.64.848-1.776,1.424-3.936,1.792a4.155,4.155,0,0,1,.736,1.152c2.8-.576,4.128-1.52,4.816-2.944h3.184a2.937,2.937,0,0,1-.384,1.52.757.757,0,0,1-.512.128c-.272,0-.96-.016-1.648-.08a3.265,3.265,0,0,1,.368,1.2,18.071,18.071,0,0,0,1.888,0,1.6,1.6,0,0,0,1.072-.4c.336-.352.528-1.152.688-2.912a10.184,10.184,0,0,0,2.128.976,5.761,5.761,0,0,1,.96-1.184,10.5,10.5,0,0,1-3.584-1.632Z" transform="translate(-3024 5746)" fill="#333"/>
    <path id="パス_33204" data-name="パス 33204" d="M0,0H288V56H0Z" transform="translate(-3064 5655)" fill="#f5f5f5"/>
    <path id="パス_33205" data-name="パス 33205" d="M6.464-12.9H1.488v1.168H6.464ZM5.04-3.12v2.3H2.672v-2.3Zm1.328-1.2H1.36V1.056H2.672V.384h3.7ZM1.392-5.312H6.416V-6.48H1.392Zm0-2.144H6.416V-8.608H1.392ZM.64-9.6H7.024v-1.184H.64ZM10.3-.3c-.816,0-.976-.128-.976-.768V-6.016h3.744v.832H14.56v-7.392H7.712v1.424h5.36V-7.44H7.824v6.368c0,1.728.56,2.176,2.32,2.176h2.944c1.68,0,2.112-.736,2.32-3.312a4.339,4.339,0,0,1-1.392-.608C13.9-.7,13.792-.3,12.992-.3ZM28.1-2.224H24.688v-.992H28.1ZM24.688-5.3H28.1v.912H24.688ZM20.176-8.288v-.96h3.008v.96Zm7.664-.96v.96H24.688v-.96Zm3.424,4.864H29.6V-6.352H24.688V-7.3h4.656V-10.24H24.688v-.816h6.24v-1.2h-6.24v-1.168h-1.5v1.168H17.12v1.2h6.064v.816H18.752V-7.3h4.432v.944H18.336V-5.3h4.848v.912h-6.4v1.168h6.4v.992H18.192V-1.1h4.992v.848c0,.272-.1.352-.384.368C22.544.128,21.584.128,20.7.1a4.6,4.6,0,0,1,.512,1.2,9.423,9.423,0,0,0,2.72-.208c.544-.208.752-.544.752-1.36V-1.1H28.1v.688h1.5v-2.8h1.664ZM46.656-5.616a5.922,5.922,0,0,0-6.272-6.032,6.935,6.935,0,0,0-7.152,6.656c0,2.672,1.456,4.432,3.04,4.432s2.912-1.808,3.872-5.072a31.86,31.86,0,0,0,.96-4.5,4.254,4.254,0,0,1,3.872,4.464A4.6,4.6,0,0,1,41.1-1.12,9.889,9.889,0,0,1,39.68-.9l.944,1.5C44.512.048,46.656-2.256,46.656-5.616Zm-11.808.464a5.348,5.348,0,0,1,4.56-4.944,25.473,25.473,0,0,1-.88,4.128c-.736,2.464-1.488,3.5-2.208,3.5C35.632-2.464,34.848-3.312,34.848-5.152Zm25.264-8.224-1.072.432c.336.512.752,1.184,1.056,1.776a5.793,5.793,0,0,1-.72.032H51.632c-.528,0-1.28-.064-1.744-.112v1.792c.416-.032,1.056-.064,1.728-.064h7.872a11.2,11.2,0,0,1-2,4.912A10.683,10.683,0,0,1,51.232-.8L52.608.7A12.444,12.444,0,0,0,58.96-3.632,16.019,16.019,0,0,0,61.36-9.5a4.861,4.861,0,0,1,.288-.928l-.88-.576.608-.256A23.751,23.751,0,0,0,60.112-13.376Zm2.144-.416-1.088.448a15.894,15.894,0,0,1,1.3,2.144l1.088-.48C63.232-12.272,62.64-13.232,62.256-13.792Zm9.632,4.448-1.5.5a29.263,29.263,0,0,1,1.28,3.52l1.5-.544C72.96-6.576,72.176-8.672,71.888-9.344Zm5.84,1.024-1.76-.56A11.105,11.105,0,0,1,73.84-3.408,10.9,10.9,0,0,1,68.592-.032l1.328,1.36a12.4,12.4,0,0,0,5.264-3.872,12.826,12.826,0,0,0,2.24-4.832C77.488-7.632,77.584-7.92,77.728-8.32ZM68.16-8.512l-1.5.544A32.677,32.677,0,0,1,68.112-4.32l1.52-.56C69.328-5.76,68.528-7.776,68.16-8.512Zm20.688-3.936-1.856-.608a7.093,7.093,0,0,1-.592,1.44,13.578,13.578,0,0,1-5.024,5.3l1.408,1.056a16.709,16.709,0,0,0,4.064-3.92H91.84a12.014,12.014,0,0,1-2.432,4.72,12.82,12.82,0,0,1-6.416,4L84.48.864a14.418,14.418,0,0,0,6.4-4.432A15.835,15.835,0,0,0,93.7-9.008a5.476,5.476,0,0,1,.448-.976l-1.312-.8a3.758,3.758,0,0,1-1.2.16h-3.84c.08-.128.16-.272.224-.4C88.192-11.344,88.528-11.968,88.848-12.448Zm22.176,2.336-1.264-1.04a4.108,4.108,0,0,1-1.232.144H99.28a13.865,13.865,0,0,1-1.728-.128v1.792c.336-.032,1.088-.1,1.728-.1h8.992A18.866,18.866,0,0,1,103.7-4.3c-1.072-.944-2.272-1.92-2.88-2.368L99.5-5.6a37.529,37.529,0,0,1,3.6,3.1,41.3,41.3,0,0,1,2.96,3.36L107.536-.32c-.64-.768-1.68-1.888-2.624-2.832a25.577,25.577,0,0,0,5.648-6.4C110.672-9.712,110.848-9.9,111.024-10.112Zm2.528,2.976v1.984c.544-.048,1.5-.08,2.384-.08h8.7c.7,0,1.44.064,1.792.08V-7.136c-.4.032-1.024.1-1.792.1h-8.7C115.072-7.04,114.08-7.1,113.552-7.136Zm23.3-5.312-1.856-.608a7.094,7.094,0,0,1-.592,1.44,13.578,13.578,0,0,1-5.024,5.3l1.408,1.056a16.709,16.709,0,0,0,4.064-3.92h4.992a12.015,12.015,0,0,1-2.432,4.72,12.82,12.82,0,0,1-6.416,4L132.48.864a14.418,14.418,0,0,0,6.4-4.432,15.835,15.835,0,0,0,2.816-5.44,5.476,5.476,0,0,1,.448-.976l-1.312-.8a3.758,3.758,0,0,1-1.2.16h-3.84c.08-.128.16-.272.224-.4C136.192-11.344,136.528-11.968,136.848-12.448Z" transform="translate(-3024 5690)" fill="#333"/>
    <path id="パス_33202" data-name="パス 33202" d="M1.552,0H3.408V-4.464H5.184c2.56,0,4.432-1.184,4.432-3.76,0-2.656-1.872-3.568-4.5-3.568H1.552ZM3.408-5.952v-4.336H4.944c1.872,0,2.848.512,2.848,2.064S6.9-5.952,5.008-5.952ZM11.744,0h1.84V-8.8h-1.84Zm.912-10.448a1.071,1.071,0,0,0,1.152-1.1,1.068,1.068,0,0,0-1.152-1.088,1.055,1.055,0,0,0-1.136,1.088A1.058,1.058,0,0,0,12.656-10.448ZM19.92.208A4.358,4.358,0,0,0,22.784-.88L22.016-2.1a3.014,3.014,0,0,1-1.92.8c-1.456,0-2.48-1.232-2.48-3.1,0-1.856,1.056-3.1,2.544-3.1a2.3,2.3,0,0,1,1.568.688l.912-1.2a3.778,3.778,0,0,0-2.576-1.008A4.319,4.319,0,0,0,15.712-4.4C15.712-1.472,17.536.208,19.92.208ZM24.608,0h1.808V-2.288l1.472-1.7L30.272,0h2L28.96-5.216,31.936-8.8H29.888L26.48-4.544h-.064v-8.208H24.608Zm17.28.208c2.608,0,4.368-1.424,4.368-5.264v-6.736H44.464v6.864c0,2.656-1.088,3.52-2.576,3.52-1.472,0-2.528-.864-2.528-3.52v-6.864H37.5v6.736C37.5-1.216,39.28.208,41.888.208Zm7.248,3.36h1.84V.72l-.064-1.5a3.629,3.629,0,0,0,2.32.992c1.984,0,3.792-1.728,3.792-4.752,0-2.7-1.248-4.48-3.472-4.48a4.464,4.464,0,0,0-2.72,1.184h-.048L50.64-8.8h-1.5Zm3.744-4.88a2.946,2.946,0,0,1-1.9-.8v-4.3a3.03,3.03,0,0,1,2.08-1.072c1.472,0,2.064,1.136,2.064,2.976C55.12-2.448,54.16-1.312,52.88-1.312ZM62.976,0h1.856V-11.792H62.976ZM67.76,0H69.6V-6.24a2.948,2.948,0,0,1,2.144-1.2c1.04,0,1.488.608,1.488,2.128V0h1.84V-5.536c0-2.24-.832-3.488-2.7-3.488a4.193,4.193,0,0,0-2.912,1.44h-.048L69.264-8.8h-1.5ZM78.048,0h1.84V-7.328h1.776V-8.8H79.888V-9.92c0-1.072.384-1.584,1.168-1.584a2.394,2.394,0,0,1,.96.224l.368-1.392a4.33,4.33,0,0,0-1.552-.288c-1.968,0-2.784,1.248-2.784,3.056v1.1l-1.2.1v1.376h1.2Zm8.56.208c2.176,0,4.144-1.68,4.144-4.608s-1.968-4.624-4.144-4.624-4.144,1.7-4.144,4.624S84.432.208,86.608.208Zm0-1.5c-1.376,0-2.24-1.232-2.24-3.1,0-1.856.864-3.1,2.24-3.1,1.392,0,2.256,1.248,2.256,3.1C88.864-2.528,88-1.3,86.608-1.3Zm6.3,1.3h1.84V-5.488C95.3-6.88,96.16-7.376,96.88-7.376a2.6,2.6,0,0,1,.88.144l.336-1.6a2.189,2.189,0,0,0-.992-.192,3.042,3.042,0,0,0-2.5,1.808H94.56L94.416-8.8h-1.5Zm6.544,0h1.84V-6.24a2.911,2.911,0,0,1,1.968-1.2c1.008,0,1.472.608,1.472,2.128V0h1.84V-6.24a2.938,2.938,0,0,1,1.984-1.2c.992,0,1.472.608,1.472,2.128V0h1.84V-5.536c0-2.24-.864-3.488-2.7-3.488A4.054,4.054,0,0,0,106.3-7.408a2.349,2.349,0,0,0-2.432-1.616,3.833,3.833,0,0,0-2.72,1.456H101.1L100.96-8.8h-1.5Zm17.152.208a4.375,4.375,0,0,0,2.8-1.216h.064L119.616,0h1.5V-5.3c0-2.336-1.008-3.728-3.2-3.728a6.74,6.74,0,0,0-3.552,1.152l.688,1.248a4.839,4.839,0,0,1,2.544-.9c1.3,0,1.664.9,1.68,1.92-3.664.4-5.264,1.376-5.264,3.264A2.431,2.431,0,0,0,116.608.208Zm.56-1.456c-.784,0-1.376-.352-1.376-1.216,0-.992.88-1.664,3.488-1.968v2.16A3.1,3.1,0,0,1,117.168-1.248ZM126.416.208a5.63,5.63,0,0,0,1.728-.32l-.336-1.36a2.624,2.624,0,0,1-.944.208c-.912,0-1.28-.544-1.28-1.6V-7.328h2.288V-8.8h-2.288v-2.432h-1.536L123.84-8.8l-1.376.1v1.376h1.28V-2.88C123.744-1.024,124.432.208,126.416.208ZM129.792,0h1.84V-8.8h-1.84Zm.912-10.448a1.071,1.071,0,0,0,1.152-1.1A1.068,1.068,0,0,0,130.7-12.64a1.055,1.055,0,0,0-1.136,1.088A1.058,1.058,0,0,0,130.7-10.448ZM137.9.208c2.176,0,4.144-1.68,4.144-4.608S140.08-9.024,137.9-9.024s-4.144,1.7-4.144,4.624S135.728.208,137.9.208Zm0-1.5c-1.376,0-2.24-1.232-2.24-3.1,0-1.856.864-3.1,2.24-3.1,1.392,0,2.256,1.248,2.256,3.1C140.16-2.528,139.3-1.3,137.9-1.3Zm6.3,1.3h1.84V-6.24a2.949,2.949,0,0,1,2.144-1.2c1.04,0,1.488.608,1.488,2.128V0h1.84V-5.536c0-2.24-.832-3.488-2.7-3.488a4.193,4.193,0,0,0-2.912,1.44h-.048L145.712-8.8h-1.5ZM6.464,19.1H1.488v1.168H6.464ZM5.04,28.88v2.3H2.672v-2.3Zm1.328-1.2H1.36v5.376H2.672v-.672h3.7Zm-4.976-.992H6.416V25.52H1.392Zm0-2.144H6.416V23.392H1.392ZM.64,22.4H7.024V21.216H.64ZM10.3,31.7c-.816,0-.976-.128-.976-.768V25.984h3.744v.832H14.56V19.424H7.712v1.424h5.36V24.56H7.824v6.368c0,1.728.56,2.176,2.32,2.176h2.944c1.68,0,2.112-.736,2.32-3.312a4.339,4.339,0,0,1-1.392-.608C13.9,31.3,13.792,31.7,12.992,31.7ZM28.1,29.776H24.688v-.992H28.1ZM24.688,26.7H28.1v.912H24.688Zm-4.512-2.992v-.96h3.008v.96Zm7.664-.96v.96H24.688v-.96Zm3.424,4.864H29.6V25.648H24.688V24.7h4.656V21.76H24.688v-.816h6.24v-1.2h-6.24V18.576h-1.5v1.168H17.12v1.2h6.064v.816H18.752V24.7h4.432v.944H18.336V26.7h4.848v.912h-6.4v1.168h6.4v.992H18.192V30.9h4.992v.848c0,.272-.1.352-.384.368-.256.016-1.216.016-2.1-.016a4.6,4.6,0,0,1,.512,1.2,9.423,9.423,0,0,0,2.72-.208c.544-.208.752-.544.752-1.36V30.9H28.1v.688h1.5v-2.8h1.664Zm15.392-1.232a5.922,5.922,0,0,0-6.272-6.032,6.935,6.935,0,0,0-7.152,6.656c0,2.672,1.456,4.432,3.04,4.432s2.912-1.808,3.872-5.072a31.86,31.86,0,0,0,.96-4.5,4.254,4.254,0,0,1,3.872,4.464A4.6,4.6,0,0,1,41.1,30.88a9.889,9.889,0,0,1-1.424.224l.944,1.5C44.512,32.048,46.656,29.744,46.656,26.384Zm-11.808.464a5.348,5.348,0,0,1,4.56-4.944,25.473,25.473,0,0,1-.88,4.128c-.736,2.464-1.488,3.5-2.208,3.5C35.632,29.536,34.848,28.688,34.848,26.848Zm19.12-6.528v1.024H50.9V20.32ZM50.9,23.456v-1.12h3.072v1.12Zm4.464,1.072V19.216H49.424V33.264H50.9V24.528Zm2.464,7.1c-.24,0-.288-.048-.288-.352V29.648h1.808V26.192H58.016c.24-.368.512-.8.768-1.232l-1.232-.4h3.632v6.9c0,.224-.08.288-.288.3h-1.04a5.947,5.947,0,0,0,.128-.912,3.584,3.584,0,0,1-1.072-.432c-.032,1.072-.112,1.216-.336,1.216Zm-4-4.416h4.208v1.392H53.824Zm7.36-6.9v1.024H58.016V20.32Zm-3.168,2.016h3.168v1.152H58.016Zm4.64-3.12H56.592V24.56H57.5a12.941,12.941,0,0,1-.816,1.632h-1.52a5.159,5.159,0,0,0-.9-1.584l-1.152.4a5.449,5.449,0,0,1,.688,1.184H52.576v3.456h1.44c-.192,1.12-.784,1.792-2.4,2.192a3.778,3.778,0,0,1,.736,1.024,3.572,3.572,0,0,0,2.9-3.216H56.3V31.3c0,1.072.224,1.424,1.312,1.424h1.12a1.012,1.012,0,0,0,.832-.3,7.488,7.488,0,0,1,.176.8,5.263,5.263,0,0,0,2.272-.272c.5-.256.64-.688.64-1.472Zm16.528,2.1V20.144H74.656a12.128,12.128,0,0,0,.448-1.28l-1.328-.3a9.7,9.7,0,0,1-1.984,3.76,8.666,8.666,0,0,1,1.168.768,8.988,8.988,0,0,0,1.168-1.776Zm-.432,2.9V23.04H73.5v1.168Zm-11.92-1.136h1.424v.736H66.832ZM68.256,20v.656H66.832V20Zm2.112,2.224H66.832V21.5h3.536Zm1.824,1.584H69.456v-.736h2.208V20.656H69.456V20h2.512v-.88h-6.5V24.7h6.72ZM68.48,28.976h6.992v.688H68.48Zm0-1.472h6.992v.672H68.48Zm0-1.472h6.992V26.7H68.48ZM75.1,31.92c-.688,0-.8-.048-.8-.432v-.976h2.624v-5.3H67.072v5.3h2.176c-.448.976-1.52,1.408-4.544,1.632a3.507,3.507,0,0,1,.64,1.136c3.6-.368,4.9-1.152,5.408-2.768h2.1V31.5c0,1.248.416,1.584,2.1,1.584h2.512c1.28,0,1.7-.4,1.84-2.1a4.923,4.923,0,0,1-1.264-.464c-.064,1.216-.16,1.392-.72,1.392Z" transform="translate(-3024 5602.168)" fill="#333"/>
    <path id="パス_33200" data-name="パス 33200" d="M0,0H288V56H0Z" transform="translate(-3064 5511)" fill="#f5f5f5"/>
    <path id="パス_33201" data-name="パス 33201" d="M3.664,0H5.856l3.68-11.792H7.648L5.9-5.68c-.384,1.344-.656,2.5-1.072,3.856h-.08c-.4-1.36-.672-2.512-1.072-3.856L1.936-11.792H-.032ZM10.9,0h1.84V-8.8H10.9Zm.912-10.448a1.071,1.071,0,0,0,1.152-1.1,1.068,1.068,0,0,0-1.152-1.088,1.055,1.055,0,0,0-1.136,1.088A1.058,1.058,0,0,0,11.808-10.448ZM18.528.208a3.688,3.688,0,0,0,2.56-1.2h.064L21.3,0h1.5V-12.752H20.96v3.264l.08,1.456a3.4,3.4,0,0,0-2.368-.992C16.7-9.024,14.9-7.248,14.9-4.4,14.9-1.472,16.32.208,18.528.208Zm.432-1.52c-1.376,0-2.16-1.1-2.16-3.1,0-1.9.992-3.072,2.224-3.072a2.76,2.76,0,0,1,1.936.8v4.3A2.586,2.586,0,0,1,18.96-1.312ZM29.232.208A5.339,5.339,0,0,0,32.208-.72l-.64-1.168a3.736,3.736,0,0,1-2.1.656,2.657,2.657,0,0,1-2.72-2.688h5.712a4.77,4.77,0,0,0,.1-.944c0-2.48-1.264-4.16-3.6-4.16-2.048,0-4.016,1.776-4.016,4.624C24.944-1.488,26.848.208,29.232.208ZM26.736-5.2a2.382,2.382,0,0,1,2.256-2.384c1.28,0,1.968.88,1.968,2.384ZM38.128.208c2.176,0,4.144-1.68,4.144-4.608S40.3-9.024,38.128-9.024s-4.144,1.7-4.144,4.624S35.952.208,38.128.208Zm0-1.5c-1.376,0-2.24-1.232-2.24-3.1,0-1.856.864-3.1,2.24-3.1,1.392,0,2.256,1.248,2.256,3.1C40.384-2.528,39.52-1.3,38.128-1.3ZM53.1-12.9H48.128v1.168H53.1ZM51.68-3.12v2.3H49.312v-2.3Zm1.328-1.2H48V1.056h1.312V.384h3.7Zm-4.976-.992h5.024V-6.48H48.032Zm0-2.144h5.024V-8.608H48.032ZM47.28-9.6h6.384v-1.184H47.28ZM56.944-.3c-.816,0-.976-.128-.976-.768V-6.016h3.744v.832H61.2v-7.392H54.352v1.424h5.36V-7.44H54.464v6.368c0,1.728.56,2.176,2.32,2.176h2.944c1.68,0,2.112-.736,2.32-3.312a4.339,4.339,0,0,1-1.392-.608C60.544-.7,60.432-.3,59.632-.3Zm17.792-1.92H71.328v-.992h3.408ZM71.328-5.3h3.408v.912H71.328ZM66.816-8.288v-.96h3.008v.96Zm7.664-.96v.96H71.328v-.96ZM77.9-4.384H76.24V-6.352H71.328V-7.3h4.656V-10.24H71.328v-.816h6.24v-1.2h-6.24v-1.168h-1.5v1.168H63.76v1.2h6.064v.816H65.392V-7.3h4.432v.944H64.976V-5.3h4.848v.912h-6.4v1.168h6.4v.992H64.832V-1.1h4.992v.848c0,.272-.1.352-.384.368-.256.016-1.216.016-2.1-.016a4.6,4.6,0,0,1,.512,1.2,9.423,9.423,0,0,0,2.72-.208c.544-.208.752-.544.752-1.36V-1.1h3.408v.688h1.5v-2.8H77.9ZM93.3-5.616a5.922,5.922,0,0,0-6.272-6.032,6.935,6.935,0,0,0-7.152,6.656c0,2.672,1.456,4.432,3.04,4.432s2.912-1.808,3.872-5.072a31.86,31.86,0,0,0,.96-4.5,4.254,4.254,0,0,1,3.872,4.464A4.6,4.6,0,0,1,87.744-1.12,9.889,9.889,0,0,1,86.32-.9l.944,1.5C91.152.048,93.3-2.256,93.3-5.616Zm-11.808.464a5.348,5.348,0,0,1,4.56-4.944,25.472,25.472,0,0,1-.88,4.128c-.736,2.464-1.488,3.5-2.208,3.5C82.272-2.464,81.488-3.312,81.488-5.152Zm19.12-6.528v1.024H97.536V-11.68ZM97.536-8.544v-1.12h3.072v1.12ZM102-7.472v-5.312H96.064V1.264h1.472V-7.472Zm2.464,7.1c-.24,0-.288-.048-.288-.352V-2.352h1.808V-5.808h-1.328c.24-.368.512-.8.768-1.232l-1.232-.4h3.632v6.9c0,.224-.08.288-.288.3H106.5a5.947,5.947,0,0,0,.128-.912,3.584,3.584,0,0,1-1.072-.432c-.032,1.072-.112,1.216-.336,1.216Zm-4-4.416h4.208v1.392h-4.208Zm7.36-6.9v1.024h-3.168V-11.68Zm-3.168,2.016h3.168v1.152h-3.168Zm4.64-3.12h-6.064V-7.44h.912a12.941,12.941,0,0,1-.816,1.632h-1.52a5.16,5.16,0,0,0-.9-1.584l-1.152.4a5.449,5.449,0,0,1,.688,1.184H99.216v3.456h1.44c-.192,1.12-.784,1.792-2.4,2.192A3.777,3.777,0,0,1,98.992.864a3.572,3.572,0,0,0,2.9-3.216h1.056V-.7c0,1.072.224,1.424,1.312,1.424h1.12a1.012,1.012,0,0,0,.832-.3,7.49,7.49,0,0,1,.176.8,5.263,5.263,0,0,0,2.272-.272c.5-.256.64-.688.64-1.472Zm16.528,2.1v-1.168H121.3a12.128,12.128,0,0,0,.448-1.28l-1.328-.3a9.7,9.7,0,0,1-1.984,3.76,8.666,8.666,0,0,1,1.168.768,8.988,8.988,0,0,0,1.168-1.776Zm-.432,2.9V-8.96h-5.248v1.168Zm-11.92-1.136H114.9v.736h-1.424ZM114.9-12v.656h-1.424V-12Zm2.112,2.224h-3.536v-.72h3.536Zm1.824,1.584H116.1v-.736H118.3v-2.416H116.1V-12h2.512v-.88h-6.5V-7.3h6.72ZM115.12-3.024h6.992v.688H115.12Zm0-1.472h6.992v.672H115.12Zm0-1.472h6.992V-5.3H115.12ZM121.744-.08c-.688,0-.8-.048-.8-.432v-.976h2.624v-5.3h-9.856v5.3h2.176c-.448.976-1.52,1.408-4.544,1.632a3.507,3.507,0,0,1,.64,1.136c3.6-.368,4.9-1.152,5.408-2.768h2.1V-.5c0,1.248.416,1.584,2.1,1.584H124.1c1.28,0,1.7-.4,1.84-2.1a4.923,4.923,0,0,1-1.264-.464c-.064,1.216-.16,1.392-.72,1.392Z" transform="translate(-3024 5545.832)" fill="#333"/>
    <path id="パス_33198" data-name="パス 33198" d="M1.552,0H3.408V-5.072H7.76V-6.624H3.408v-3.6h5.12v-1.568H1.552ZM13.7.208c2.176,0,4.144-1.68,4.144-4.608S15.872-9.024,13.7-9.024,9.552-7.328,9.552-4.4,11.52.208,13.7.208Zm0-1.5c-1.376,0-2.24-1.232-2.24-3.1,0-1.856.864-3.1,2.24-3.1,1.392,0,2.256,1.248,2.256,3.1C15.952-2.528,15.088-1.3,13.7-1.3ZM20,0h1.84V-5.488c.544-1.392,1.408-1.888,2.128-1.888a2.6,2.6,0,0,1,.88.144l.336-1.6a2.189,2.189,0,0,0-.992-.192,3.042,3.042,0,0,0-2.5,1.808h-.048L21.5-8.8H20Zm9.5.208a5.63,5.63,0,0,0,1.728-.32L30.9-1.472a2.624,2.624,0,0,1-.944.208c-.912,0-1.28-.544-1.28-1.6V-7.328H30.96V-8.8H28.672v-2.432H27.136L26.928-8.8l-1.376.1v1.376h1.28V-2.88C26.832-1.024,27.52.208,29.5.208Zm5.968,0a3.684,3.684,0,0,0,2.864-1.536h.048L38.528,0h1.5V-8.8h-1.84v6.112c-.736.928-1.3,1.312-2.112,1.312-1.04,0-1.472-.608-1.472-2.112V-8.8h-1.84v5.536C32.768-1.024,33.584.208,35.472.208ZM42.8,0h1.84V-6.24a2.948,2.948,0,0,1,2.144-1.2c1.04,0,1.488.608,1.488,2.128V0h1.84V-5.536c0-2.24-.832-3.488-2.7-3.488A4.193,4.193,0,0,0,44.5-7.584h-.048L44.3-8.8H42.8ZM56.448.208A5.339,5.339,0,0,0,59.424-.72l-.64-1.168a3.736,3.736,0,0,1-2.1.656,2.657,2.657,0,0,1-2.72-2.688H59.68a4.77,4.77,0,0,0,.1-.944c0-2.48-1.264-4.16-3.6-4.16-2.048,0-4.016,1.776-4.016,4.624C52.16-1.488,54.064.208,56.448.208ZM53.952-5.2a2.382,2.382,0,0,1,2.256-2.384c1.28,0,1.968.88,1.968,2.384ZM70.5-12.9H65.52v1.168H70.5ZM69.072-3.12v2.3H66.7v-2.3ZM70.4-4.32H65.392V1.056H66.7V.384h3.7Zm-4.976-.992h5.024V-6.48H65.424Zm0-2.144h5.024V-8.608H65.424ZM64.672-9.6h6.384v-1.184H64.672ZM74.336-.3c-.816,0-.976-.128-.976-.768V-6.016H77.1v.832h1.488v-7.392H71.744v1.424H77.1V-7.44H71.856v6.368c0,1.728.56,2.176,2.32,2.176H77.12c1.68,0,2.112-.736,2.32-3.312a4.339,4.339,0,0,1-1.392-.608C77.936-.7,77.824-.3,77.024-.3Zm17.792-1.92H88.72v-.992h3.408ZM88.72-5.3h3.408v.912H88.72ZM84.208-8.288v-.96h3.008v.96Zm7.664-.96v.96H88.72v-.96ZM95.3-4.384H93.632V-6.352H88.72V-7.3h4.656V-10.24H88.72v-.816h6.24v-1.2H88.72v-1.168h-1.5v1.168H81.152v1.2h6.064v.816H82.784V-7.3h4.432v.944H82.368V-5.3h4.848v.912h-6.4v1.168h6.4v.992H82.224V-1.1h4.992v.848c0,.272-.1.352-.384.368-.256.016-1.216.016-2.1-.016a4.6,4.6,0,0,1,.512,1.2,9.423,9.423,0,0,0,2.72-.208c.544-.208.752-.544.752-1.36V-1.1h3.408v.688h1.5v-2.8H95.3Zm15.392-1.232a5.922,5.922,0,0,0-6.272-6.032,6.935,6.935,0,0,0-7.152,6.656c0,2.672,1.456,4.432,3.04,4.432s2.912-1.808,3.872-5.072a31.859,31.859,0,0,0,.96-4.5,4.254,4.254,0,0,1,3.872,4.464,4.6,4.6,0,0,1-3.872,4.544,9.889,9.889,0,0,1-1.424.224l.944,1.5C108.544.048,110.688-2.256,110.688-5.616ZM98.88-5.152a5.348,5.348,0,0,1,4.56-4.944,25.472,25.472,0,0,1-.88,4.128c-.736,2.464-1.488,3.5-2.208,3.5C99.664-2.464,98.88-3.312,98.88-5.152ZM118-11.68v1.024h-3.072V-11.68Zm-3.072,3.136v-1.12H118v1.12Zm4.464,1.072v-5.312h-5.936V1.264h1.472V-7.472Zm2.464,7.1c-.24,0-.288-.048-.288-.352V-2.352h1.808V-5.808h-1.328c.24-.368.512-.8.768-1.232l-1.232-.4h3.632v6.9c0,.224-.08.288-.288.3h-1.04a5.947,5.947,0,0,0,.128-.912,3.584,3.584,0,0,1-1.072-.432c-.032,1.072-.112,1.216-.336,1.216Zm-4-4.416h4.208v1.392h-4.208Zm7.36-6.9v1.024h-3.168V-11.68Zm-3.168,2.016h3.168v1.152h-3.168Zm4.64-3.12h-6.064V-7.44h.912a12.94,12.94,0,0,1-.816,1.632H119.2a5.16,5.16,0,0,0-.9-1.584l-1.152.4a5.449,5.449,0,0,1,.688,1.184h-1.232v3.456h1.44c-.192,1.12-.784,1.792-2.4,2.192a3.777,3.777,0,0,1,.736,1.024,3.572,3.572,0,0,0,2.9-3.216h1.056V-.7c0,1.072.224,1.424,1.312,1.424h1.12a1.012,1.012,0,0,0,.832-.3,7.49,7.49,0,0,1,.176.8,5.263,5.263,0,0,0,2.272-.272c.5-.256.64-.688.64-1.472Zm16.528,2.1v-1.168h-4.528a12.129,12.129,0,0,0,.448-1.28l-1.328-.3a9.7,9.7,0,0,1-1.984,3.76,8.666,8.666,0,0,1,1.168.768,8.988,8.988,0,0,0,1.168-1.776Zm-.432,2.9V-8.96h-5.248v1.168Zm-11.92-1.136h1.424v.736h-1.424ZM132.288-12v.656h-1.424V-12ZM134.4-9.776h-3.536v-.72H134.4Zm1.824,1.584h-2.736v-.736H135.7v-2.416h-2.208V-12H136v-.88h-6.5V-7.3h6.72Zm-3.712,5.168H139.5v.688h-6.992Zm0-1.472H139.5v.672h-6.992Zm0-1.472H139.5V-5.3h-6.992ZM139.136-.08c-.688,0-.8-.048-.8-.432v-.976h2.624v-5.3H131.1v5.3h2.176c-.448.976-1.52,1.408-4.544,1.632a3.506,3.506,0,0,1,.64,1.136c3.6-.368,4.9-1.152,5.408-2.768h2.1V-.5c0,1.248.416,1.584,2.1,1.584h2.512c1.28,0,1.7-.4,1.84-2.1a4.923,4.923,0,0,1-1.264-.464C142-.256,141.9-.08,141.344-.08Z" transform="translate(-3024 5490.168)" fill="#333"/>
    <path id="パス_33196" data-name="パス 33196" d="M0,0H288V56H0Z" transform="translate(-3064 5399.168)" fill="#f5f5f5"/>
    <path id="パス_33197" data-name="パス 33197" d="M3.952,0H5.808V-10.224H9.28v-1.568H.5v1.568H3.952Zm9.472.208c2.176,0,4.144-1.68,4.144-4.608S15.6-9.024,13.424-9.024,9.28-7.328,9.28-4.4,11.248.208,13.424.208Zm0-1.5c-1.376,0-2.24-1.232-2.24-3.1,0-1.856.864-3.1,2.24-3.1,1.392,0,2.256,1.248,2.256,3.1C15.68-2.528,14.816-1.3,13.424-1.3Zm6.3,4.864h1.84V.72L21.5-.784a3.629,3.629,0,0,0,2.32.992c1.984,0,3.792-1.728,3.792-4.752,0-2.7-1.248-4.48-3.472-4.48a4.464,4.464,0,0,0-2.72,1.184h-.048l-.144-.96h-1.5Zm3.744-4.88a2.946,2.946,0,0,1-1.9-.8v-4.3a3.03,3.03,0,0,1,2.08-1.072c1.472,0,2.064,1.136,2.064,2.976C25.712-2.448,24.752-1.312,23.472-1.312ZM33.568,0h6.848V-1.568H35.424V-11.792H33.568ZM45.776.208A5.339,5.339,0,0,0,48.752-.72l-.64-1.168a3.736,3.736,0,0,1-2.1.656A2.657,2.657,0,0,1,43.3-3.92h5.712a4.77,4.77,0,0,0,.1-.944c0-2.48-1.264-4.16-3.6-4.16-2.048,0-4.016,1.776-4.016,4.624C41.488-1.488,43.392.208,45.776.208ZM43.28-5.2a2.382,2.382,0,0,1,2.256-2.384c1.28,0,1.968.88,1.968,2.384ZM52.992.208a4.375,4.375,0,0,0,2.8-1.216h.064L56,0h1.5V-5.3c0-2.336-1.008-3.728-3.2-3.728a6.74,6.74,0,0,0-3.552,1.152l.688,1.248a4.839,4.839,0,0,1,2.544-.9c1.3,0,1.664.9,1.68,1.92C52-5.2,50.4-4.224,50.4-2.336A2.431,2.431,0,0,0,52.992.208Zm.56-1.456c-.784,0-1.376-.352-1.376-1.216,0-.992.88-1.664,3.488-1.968v2.16A3.1,3.1,0,0,1,53.552-1.248Zm9.6,1.456a3.688,3.688,0,0,0,2.56-1.2h.064L65.92,0h1.5V-12.752h-1.84v3.264l.08,1.456A3.4,3.4,0,0,0,63.3-9.024c-1.968,0-3.776,1.776-3.776,4.624C59.52-1.472,60.944.208,63.152.208Zm.432-1.52c-1.376,0-2.16-1.1-2.16-3.1,0-1.9.992-3.072,2.224-3.072a2.76,2.76,0,0,1,1.936.8v4.3A2.586,2.586,0,0,1,63.584-1.312ZM73.856.208A5.339,5.339,0,0,0,76.832-.72l-.64-1.168a3.736,3.736,0,0,1-2.1.656,2.657,2.657,0,0,1-2.72-2.688h5.712a4.77,4.77,0,0,0,.1-.944c0-2.48-1.264-4.16-3.6-4.16-2.048,0-4.016,1.776-4.016,4.624C69.568-1.488,71.472.208,73.856.208ZM71.36-5.2a2.382,2.382,0,0,1,2.256-2.384c1.28,0,1.968.88,1.968,2.384ZM79.232,0h1.84V-5.488C81.616-6.88,82.48-7.376,83.2-7.376a2.6,2.6,0,0,1,.88.144l.336-1.6a2.189,2.189,0,0,0-.992-.192,3.042,3.042,0,0,0-2.5,1.808H80.88L80.736-8.8h-1.5ZM94.448-12.9H89.472v1.168h4.976ZM93.024-3.12v2.3H90.656v-2.3Zm1.328-1.2H89.344V1.056h1.312V.384h3.7Zm-4.976-.992H94.4V-6.48H89.376Zm0-2.144H94.4V-8.608H89.376ZM88.624-9.6h6.384v-1.184H88.624ZM98.288-.3c-.816,0-.976-.128-.976-.768V-6.016h3.744v.832h1.488v-7.392H95.7v1.424h5.36V-7.44H95.808v6.368c0,1.728.56,2.176,2.32,2.176h2.944c1.68,0,2.112-.736,2.32-3.312A4.339,4.339,0,0,1,102-2.816C101.888-.7,101.776-.3,100.976-.3Zm17.792-1.92h-3.408v-.992h3.408ZM112.672-5.3h3.408v.912h-3.408ZM108.16-8.288v-.96h3.008v.96Zm7.664-.96v.96h-3.152v-.96Zm3.424,4.864h-1.664V-6.352h-4.912V-7.3h4.656V-10.24h-4.656v-.816h6.24v-1.2h-6.24v-1.168h-1.5v1.168H105.1v1.2h6.064v.816h-4.432V-7.3h4.432v.944H106.32V-5.3h4.848v.912h-6.4v1.168h6.4v.992h-4.992V-1.1h4.992v.848c0,.272-.1.352-.384.368-.256.016-1.216.016-2.1-.016a4.6,4.6,0,0,1,.512,1.2,9.423,9.423,0,0,0,2.72-.208c.544-.208.752-.544.752-1.36V-1.1h3.408v.688h1.5v-2.8h1.664ZM134.64-5.616a5.922,5.922,0,0,0-6.272-6.032,6.935,6.935,0,0,0-7.152,6.656c0,2.672,1.456,4.432,3.04,4.432s2.912-1.808,3.872-5.072a31.861,31.861,0,0,0,.96-4.5,4.254,4.254,0,0,1,3.872,4.464,4.6,4.6,0,0,1-3.872,4.544,9.888,9.888,0,0,1-1.424.224l.944,1.5C132.5.048,134.64-2.256,134.64-5.616Zm-11.808.464a5.348,5.348,0,0,1,4.56-4.944,25.472,25.472,0,0,1-.88,4.128c-.736,2.464-1.488,3.5-2.208,3.5C123.616-2.464,122.832-3.312,122.832-5.152Zm19.12-6.528v1.024H138.88V-11.68ZM138.88-8.544v-1.12h3.072v1.12Zm4.464,1.072v-5.312h-5.936V1.264h1.472V-7.472Zm2.464,7.1c-.24,0-.288-.048-.288-.352V-2.352h1.808V-5.808H146c.24-.368.512-.8.768-1.232l-1.232-.4h3.632v6.9c0,.224-.08.288-.288.3h-1.04a5.947,5.947,0,0,0,.128-.912,3.584,3.584,0,0,1-1.072-.432c-.032,1.072-.112,1.216-.336,1.216Zm-4-4.416h4.208v1.392h-4.208Zm7.36-6.9v1.024H146V-11.68ZM146-9.664h3.168v1.152H146Zm4.64-3.12h-6.064V-7.44h.912a12.94,12.94,0,0,1-.816,1.632h-1.52a5.16,5.16,0,0,0-.9-1.584l-1.152.4a5.449,5.449,0,0,1,.688,1.184H140.56v3.456H142c-.192,1.12-.784,1.792-2.4,2.192a3.777,3.777,0,0,1,.736,1.024,3.572,3.572,0,0,0,2.9-3.216h1.056V-.7c0,1.072.224,1.424,1.312,1.424h1.12a1.012,1.012,0,0,0,.832-.3,7.489,7.489,0,0,1,.176.8A5.263,5.263,0,0,0,150,.944c.5-.256.64-.688.64-1.472Zm16.528,2.1v-1.168H162.64a12.129,12.129,0,0,0,.448-1.28l-1.328-.3a9.7,9.7,0,0,1-1.984,3.76,8.666,8.666,0,0,1,1.168.768,8.988,8.988,0,0,0,1.168-1.776Zm-.432,2.9V-8.96h-5.248v1.168Zm-11.92-1.136h1.424v.736h-1.424ZM156.24-12v.656h-1.424V-12Zm2.112,2.224h-3.536v-.72h3.536Zm1.824,1.584H157.44v-.736h2.208v-2.416H157.44V-12h2.512v-.88h-6.5V-7.3h6.72Zm-3.712,5.168h6.992v.688h-6.992Zm0-1.472h6.992v.672h-6.992Zm0-1.472h6.992V-5.3h-6.992ZM163.088-.08c-.688,0-.8-.048-.8-.432v-.976h2.624v-5.3h-9.856v5.3h2.176c-.448.976-1.52,1.408-4.544,1.632a3.506,3.506,0,0,1,.64,1.136c3.6-.368,4.9-1.152,5.408-2.768h2.1V-.5c0,1.248.416,1.584,2.1,1.584h2.512c1.28,0,1.7-.4,1.84-2.1a4.923,4.923,0,0,1-1.264-.464c-.064,1.216-.16,1.392-.72,1.392Z" transform="translate(-3024 5434.168)" fill="#333"/>
    <path id="パス_33194" data-name="パス 33194" d="M2.768,0h2.24L6.56-6.544c.192-.928.384-1.808.56-2.7h.064c.16.9.336,1.776.544,2.7L9.312,0H11.6l2.32-11.792H12.144l-1.12,6.144c-.192,1.232-.4,2.5-.592,3.776h-.08c-.272-1.28-.528-2.544-.8-3.776l-1.52-6.144H6.384L4.864-5.648c-.272,1.248-.544,2.512-.8,3.776H4C3.792-3.136,3.584-4.4,3.376-5.648l-1.1-6.144H.368ZM19.36.208A5.339,5.339,0,0,0,22.336-.72L21.7-1.888a3.736,3.736,0,0,1-2.1.656A2.657,2.657,0,0,1,16.88-3.92h5.712a4.77,4.77,0,0,0,.1-.944c0-2.48-1.264-4.16-3.6-4.16-2.048,0-4.016,1.776-4.016,4.624C15.072-1.488,16.976.208,19.36.208ZM16.864-5.2A2.382,2.382,0,0,1,19.12-7.584c1.28,0,1.968.88,1.968,2.384ZM27.776.208a3.688,3.688,0,0,0,2.56-1.2H30.4L30.544,0h1.5V-12.752h-1.84v3.264l.08,1.456a3.4,3.4,0,0,0-2.368-.992c-1.968,0-3.776,1.776-3.776,4.624C24.144-1.472,25.568.208,27.776.208Zm.432-1.52c-1.376,0-2.16-1.1-2.16-3.1,0-1.9.992-3.072,2.224-3.072a2.76,2.76,0,0,1,1.936.8v4.3A2.586,2.586,0,0,1,28.208-1.312ZM37.856.208a3.688,3.688,0,0,0,2.56-1.2h.064L40.624,0h1.5V-12.752h-1.84v3.264l.08,1.456A3.4,3.4,0,0,0,38-9.024c-1.968,0-3.776,1.776-3.776,4.624C34.224-1.472,35.648.208,37.856.208Zm.432-1.52c-1.376,0-2.16-1.1-2.16-3.1,0-1.9.992-3.072,2.224-3.072a2.76,2.76,0,0,1,1.936.8v4.3A2.586,2.586,0,0,1,38.288-1.312ZM44.9,0h1.84V-8.8H44.9Zm.912-10.448a1.071,1.071,0,0,0,1.152-1.1,1.068,1.068,0,0,0-1.152-1.088,1.055,1.055,0,0,0-1.136,1.088A1.058,1.058,0,0,0,45.808-10.448ZM49.488,0h1.84V-6.24a2.948,2.948,0,0,1,2.144-1.2c1.04,0,1.488.608,1.488,2.128V0H56.8V-5.536c0-2.24-.832-3.488-2.7-3.488a4.193,4.193,0,0,0-2.912,1.44h-.048L50.992-8.8h-1.5ZM62.48,3.952c2.816,0,4.608-1.376,4.608-3.072,0-1.5-1.088-2.144-3.168-2.144H62.3c-1.12,0-1.472-.336-1.472-.864a1.144,1.144,0,0,1,.48-.928,3.059,3.059,0,0,0,1.232.272,3.007,3.007,0,0,0,3.3-3.024,2.379,2.379,0,0,0-.576-1.616h1.68V-8.8h-3.12a3.67,3.67,0,0,0-1.28-.224,3.171,3.171,0,0,0-3.408,3.152A2.983,2.983,0,0,0,60.3-3.52v.064a2.144,2.144,0,0,0-.992,1.632,1.618,1.618,0,0,0,.8,1.456v.08a2.325,2.325,0,0,0-1.28,1.92C58.832,3.168,60.368,3.952,62.48,3.952Zm.064-7.92a1.721,1.721,0,0,1-1.664-1.9,1.67,1.67,0,0,1,1.664-1.856,1.679,1.679,0,0,1,1.664,1.856A1.721,1.721,0,0,1,62.544-3.968Zm.208,6.7C61.3,2.736,60.4,2.224,60.4,1.36A1.583,1.583,0,0,1,61.152.08a5.594,5.594,0,0,0,1.184.128h1.328c1.072,0,1.648.224,1.648.96C65.312,1.984,64.288,2.736,62.752,2.736ZM77.392-12.9H72.416v1.168h4.976ZM75.968-3.12v2.3H73.6v-2.3ZM77.3-4.32H72.288V1.056H73.6V.384h3.7ZM72.32-5.312h5.024V-6.48H72.32Zm0-2.144h5.024V-8.608H72.32ZM71.568-9.6h6.384v-1.184H71.568ZM81.232-.3c-.816,0-.976-.128-.976-.768V-6.016H84v.832h1.488v-7.392H78.64v1.424H84V-7.44H78.752v6.368c0,1.728.56,2.176,2.32,2.176h2.944c1.68,0,2.112-.736,2.32-3.312a4.339,4.339,0,0,1-1.392-.608C84.832-.7,84.72-.3,83.92-.3Zm17.792-1.92H95.616v-.992h3.408ZM95.616-5.3h3.408v.912H95.616ZM91.1-8.288v-.96h3.008v.96Zm7.664-.96v.96H95.616v-.96Zm3.424,4.864h-1.664V-6.352H95.616V-7.3h4.656V-10.24H95.616v-.816h6.24v-1.2h-6.24v-1.168h-1.5v1.168H88.048v1.2h6.064v.816H89.68V-7.3h4.432v.944H89.264V-5.3h4.848v.912h-6.4v1.168h6.4v.992H89.12V-1.1h4.992v.848c0,.272-.1.352-.384.368-.256.016-1.216.016-2.1-.016a4.6,4.6,0,0,1,.512,1.2,9.423,9.423,0,0,0,2.72-.208c.544-.208.752-.544.752-1.36V-1.1h3.408v.688h1.5v-2.8h1.664Zm15.392-1.232a5.922,5.922,0,0,0-6.272-6.032,6.935,6.935,0,0,0-7.152,6.656c0,2.672,1.456,4.432,3.04,4.432s2.912-1.808,3.872-5.072a31.859,31.859,0,0,0,.96-4.5A4.254,4.254,0,0,1,115.9-5.664a4.6,4.6,0,0,1-3.872,4.544,9.889,9.889,0,0,1-1.424.224l.944,1.5C115.44.048,117.584-2.256,117.584-5.616Zm-11.808.464a5.348,5.348,0,0,1,4.56-4.944,25.472,25.472,0,0,1-.88,4.128c-.736,2.464-1.488,3.5-2.208,3.5C106.56-2.464,105.776-3.312,105.776-5.152ZM124.9-11.68v1.024h-3.072V-11.68Zm-3.072,3.136v-1.12H124.9v1.12Zm4.464,1.072v-5.312h-5.936V1.264h1.472V-7.472Zm2.464,7.1c-.24,0-.288-.048-.288-.352V-2.352h1.808V-5.808h-1.328c.24-.368.512-.8.768-1.232l-1.232-.4h3.632v6.9c0,.224-.08.288-.288.3h-1.04a5.945,5.945,0,0,0,.128-.912,3.584,3.584,0,0,1-1.072-.432c-.032,1.072-.112,1.216-.336,1.216Zm-4-4.416h4.208v1.392h-4.208Zm7.36-6.9v1.024h-3.168V-11.68Zm-3.168,2.016h3.168v1.152h-3.168Zm4.64-3.12H127.52V-7.44h.912a12.941,12.941,0,0,1-.816,1.632H126.1a5.16,5.16,0,0,0-.9-1.584l-1.152.4a5.449,5.449,0,0,1,.688,1.184H123.5v3.456h1.44c-.192,1.12-.784,1.792-2.4,2.192A3.777,3.777,0,0,1,123.28.864a3.572,3.572,0,0,0,2.9-3.216h1.056V-.7c0,1.072.224,1.424,1.312,1.424h1.12a1.012,1.012,0,0,0,.832-.3,7.488,7.488,0,0,1,.176.8,5.263,5.263,0,0,0,2.272-.272c.5-.256.64-.688.64-1.472Zm16.528,2.1v-1.168h-4.528a12.129,12.129,0,0,0,.448-1.28l-1.328-.3a9.7,9.7,0,0,1-1.984,3.76,8.666,8.666,0,0,1,1.168.768,8.988,8.988,0,0,0,1.168-1.776Zm-.432,2.9V-8.96h-5.248v1.168ZM137.76-8.928h1.424v.736H137.76ZM139.184-12v.656H137.76V-12ZM141.3-9.776H137.76v-.72H141.3Zm1.824,1.584h-2.736v-.736h2.208v-2.416h-2.208V-12H142.9v-.88h-6.5V-7.3h6.72Zm-3.712,5.168H146.4v.688h-6.992Zm0-1.472H146.4v.672h-6.992Zm0-1.472H146.4V-5.3h-6.992ZM146.032-.08c-.688,0-.8-.048-.8-.432v-.976h2.624v-5.3H138v5.3h2.176c-.448.976-1.52,1.408-4.544,1.632a3.506,3.506,0,0,1,.64,1.136c3.6-.368,4.9-1.152,5.408-2.768h2.1V-.5c0,1.248.416,1.584,2.1,1.584h2.512c1.28,0,1.7-.4,1.84-2.1a4.923,4.923,0,0,1-1.264-.464C148.9-.256,148.8-.08,148.24-.08Z" transform="translate(-3024 5378)" fill="#333"/>
    <path id="パス_33192" data-name="パス 33192" d="M0,0H288V56H0Z" transform="translate(-3064 5287)" fill="#f5f5f5"/>
    <path id="パス_33193" data-name="パス 33193" d="M1.552,0H8.4V-1.568H3.408V-11.792H1.552ZM10.32,0h1.84V-8.8H10.32Zm.912-10.448a1.071,1.071,0,0,0,1.152-1.1,1.068,1.068,0,0,0-1.152-1.088A1.055,1.055,0,0,0,10.1-11.552,1.058,1.058,0,0,0,11.232-10.448ZM15.216,0h1.84V-7.328h1.776V-8.8H17.056V-9.92c0-1.072.384-1.584,1.168-1.584a2.394,2.394,0,0,1,.96.224l.368-1.392A4.33,4.33,0,0,0,18-12.96c-1.968,0-2.784,1.248-2.784,3.056v1.1l-1.2.1v1.376h1.2Zm8.7.208A5.339,5.339,0,0,0,26.9-.72l-.64-1.168a3.736,3.736,0,0,1-2.1.656A2.657,2.657,0,0,1,21.44-3.92h5.712a4.77,4.77,0,0,0,.1-.944c0-2.48-1.264-4.16-3.6-4.16-2.048,0-4.016,1.776-4.016,4.624C19.632-1.488,21.536.208,23.92.208ZM21.424-5.2A2.382,2.382,0,0,1,23.68-7.584c1.28,0,1.968.88,1.968,2.384ZM36.416.208c2.576,0,4.144-1.536,4.144-3.424A3.288,3.288,0,0,0,38.16-6.4l-1.616-.688c-.96-.384-1.9-.768-1.9-1.792,0-.928.784-1.5,1.984-1.5a3.751,3.751,0,0,1,2.592,1.056l.976-1.184A5.044,5.044,0,0,0,36.624-12c-2.24,0-3.872,1.392-3.872,3.248a3.387,3.387,0,0,0,2.4,3.088l1.632.7c1.088.48,1.888.816,1.888,1.888,0,.992-.8,1.664-2.224,1.664A4.566,4.566,0,0,1,33.312-2.8L32.224-1.52A5.875,5.875,0,0,0,36.416.208Zm8.72,0a5.63,5.63,0,0,0,1.728-.32l-.336-1.36a2.624,2.624,0,0,1-.944.208c-.912,0-1.28-.544-1.28-1.6V-7.328h2.288V-8.8H44.3v-2.432H42.768L42.56-8.8l-1.376.1v1.376h1.28V-2.88C42.464-1.024,43.152.208,45.136.208ZM48.912,3.68c1.856,0,2.784-1.264,3.472-3.152L55.616-8.8H53.824L52.416-4.272c-.224.8-.464,1.68-.688,2.48h-.08c-.272-.816-.544-1.7-.8-2.48L49.216-8.8H47.328L50.816-.064,50.64.544c-.32.944-.88,1.648-1.84,1.648a2.384,2.384,0,0,1-.64-.128L47.808,3.5A3.129,3.129,0,0,0,48.912,3.68ZM59.04.208a2.885,2.885,0,0,0,.992-.144l-.24-1.392a1.278,1.278,0,0,1-.3.032c-.224,0-.432-.176-.432-.672V-12.752h-1.84V-2.064C57.216-.64,57.712.208,59.04.208Zm6.608,0A5.339,5.339,0,0,0,68.624-.72l-.64-1.168a3.736,3.736,0,0,1-2.1.656,2.657,2.657,0,0,1-2.72-2.688H68.88a4.77,4.77,0,0,0,.1-.944c0-2.48-1.264-4.16-3.6-4.16-2.048,0-4.016,1.776-4.016,4.624C61.36-1.488,63.264.208,65.648.208ZM63.152-5.2a2.382,2.382,0,0,1,2.256-2.384c1.28,0,1.968.88,1.968,2.384ZM79.7-12.9H74.72v1.168H79.7ZM78.272-3.12v2.3H75.9v-2.3ZM79.6-4.32H74.592V1.056H75.9V.384h3.7Zm-4.976-.992h5.024V-6.48H74.624Zm0-2.144h5.024V-8.608H74.624ZM73.872-9.6h6.384v-1.184H73.872ZM83.536-.3c-.816,0-.976-.128-.976-.768V-6.016H86.3v.832h1.488v-7.392H80.944v1.424H86.3V-7.44H81.056v6.368c0,1.728.56,2.176,2.32,2.176H86.32c1.68,0,2.112-.736,2.32-3.312a4.339,4.339,0,0,1-1.392-.608C87.136-.7,87.024-.3,86.224-.3Zm17.792-1.92H97.92v-.992h3.408ZM97.92-5.3h3.408v.912H97.92ZM93.408-8.288v-.96h3.008v.96Zm7.664-.96v.96H97.92v-.96ZM104.5-4.384h-1.664V-6.352H97.92V-7.3h4.656V-10.24H97.92v-.816h6.24v-1.2H97.92v-1.168h-1.5v1.168H90.352v1.2h6.064v.816H91.984V-7.3h4.432v.944H91.568V-5.3h4.848v.912h-6.4v1.168h6.4v.992H91.424V-1.1h4.992v.848c0,.272-.1.352-.384.368-.256.016-1.216.016-2.1-.016a4.6,4.6,0,0,1,.512,1.2,9.423,9.423,0,0,0,2.72-.208c.544-.208.752-.544.752-1.36V-1.1h3.408v.688h1.5v-2.8H104.5Zm15.392-1.232a5.922,5.922,0,0,0-6.272-6.032,6.935,6.935,0,0,0-7.152,6.656c0,2.672,1.456,4.432,3.04,4.432s2.912-1.808,3.872-5.072a31.859,31.859,0,0,0,.96-4.5,4.254,4.254,0,0,1,3.872,4.464,4.6,4.6,0,0,1-3.872,4.544,9.889,9.889,0,0,1-1.424.224l.944,1.5C117.744.048,119.888-2.256,119.888-5.616Zm-11.808.464a5.348,5.348,0,0,1,4.56-4.944,25.472,25.472,0,0,1-.88,4.128c-.736,2.464-1.488,3.5-2.208,3.5C108.864-2.464,108.08-3.312,108.08-5.152ZM127.2-11.68v1.024h-3.072V-11.68Zm-3.072,3.136v-1.12H127.2v1.12Zm4.464,1.072v-5.312h-5.936V1.264h1.472V-7.472Zm2.464,7.1c-.24,0-.288-.048-.288-.352V-2.352h1.808V-5.808h-1.328c.24-.368.512-.8.768-1.232l-1.232-.4h3.632v6.9c0,.224-.08.288-.288.3h-1.04a5.945,5.945,0,0,0,.128-.912,3.584,3.584,0,0,1-1.072-.432c-.032,1.072-.112,1.216-.336,1.216Zm-4-4.416h4.208v1.392h-4.208Zm7.36-6.9v1.024h-3.168V-11.68Zm-3.168,2.016h3.168v1.152h-3.168Zm4.64-3.12h-6.064V-7.44h.912a12.94,12.94,0,0,1-.816,1.632H128.4a5.16,5.16,0,0,0-.9-1.584l-1.152.4a5.449,5.449,0,0,1,.688,1.184h-1.232v3.456h1.44c-.192,1.12-.784,1.792-2.4,2.192a3.777,3.777,0,0,1,.736,1.024,3.572,3.572,0,0,0,2.9-3.216h1.056V-.7c0,1.072.224,1.424,1.312,1.424h1.12a1.012,1.012,0,0,0,.832-.3,7.488,7.488,0,0,1,.176.8,5.263,5.263,0,0,0,2.272-.272c.5-.256.64-.688.64-1.472Zm16.528,2.1v-1.168h-4.528a12.129,12.129,0,0,0,.448-1.28l-1.328-.3a9.7,9.7,0,0,1-1.984,3.76,8.666,8.666,0,0,1,1.168.768,8.988,8.988,0,0,0,1.168-1.776Zm-.432,2.9V-8.96h-5.248v1.168Zm-11.92-1.136h1.424v.736h-1.424ZM141.488-12v.656h-1.424V-12ZM143.6-9.776h-3.536v-.72H143.6Zm1.824,1.584h-2.736v-.736H144.9v-2.416h-2.208V-12H145.2v-.88h-6.5V-7.3h6.72Zm-3.712,5.168H148.7v.688h-6.992Zm0-1.472H148.7v.672h-6.992Zm0-1.472H148.7V-5.3h-6.992ZM148.336-.08c-.688,0-.8-.048-.8-.432v-.976h2.624v-5.3H140.3v5.3h2.176c-.448.976-1.52,1.408-4.544,1.632a3.506,3.506,0,0,1,.64,1.136c3.6-.368,4.9-1.152,5.408-2.768h2.1V-.5c0,1.248.416,1.584,2.1,1.584h2.512c1.28,0,1.7-.4,1.84-2.1a4.923,4.923,0,0,1-1.264-.464c-.064,1.216-.16,1.392-.72,1.392Z" transform="translate(-3024 5322)" fill="#333"/>
    <path id="パス_33190" data-name="パス 33190" d="M3.952,0H5.808V-10.224H9.28v-1.568H.5v1.568H3.952Zm6.384,0h1.84V-5.488C12.72-6.88,13.584-7.376,14.3-7.376a2.6,2.6,0,0,1,.88.144l.336-1.6a2.189,2.189,0,0,0-.992-.192,3.042,3.042,0,0,0-2.5,1.808h-.048L11.84-8.8h-1.5ZM20.368.208A5.339,5.339,0,0,0,23.344-.72L22.7-1.888a3.736,3.736,0,0,1-2.1.656,2.657,2.657,0,0,1-2.72-2.688H23.6a4.77,4.77,0,0,0,.1-.944c0-2.48-1.264-4.16-3.6-4.16-2.048,0-4.016,1.776-4.016,4.624C16.08-1.488,17.984.208,20.368.208ZM17.872-5.2a2.382,2.382,0,0,1,2.256-2.384c1.28,0,1.968.88,1.968,2.384ZM25.744,0h1.84V-6.24a2.948,2.948,0,0,1,2.144-1.2c1.04,0,1.488.608,1.488,2.128V0h1.84V-5.536c0-2.24-.832-3.488-2.7-3.488a4.193,4.193,0,0,0-2.912,1.44h-.048L27.248-8.8h-1.5ZM38.768.208a3.688,3.688,0,0,0,2.56-1.2h.064L41.536,0h1.5V-12.752H41.2v3.264l.08,1.456a3.4,3.4,0,0,0-2.368-.992c-1.968,0-3.776,1.776-3.776,4.624C35.136-1.472,36.56.208,38.768.208Zm.432-1.52c-1.376,0-2.16-1.1-2.16-3.1,0-1.9.992-3.072,2.224-3.072a2.76,2.76,0,0,1,1.936.8v4.3A2.586,2.586,0,0,1,39.2-1.312ZM54.48-12.9H49.5v1.168H54.48ZM53.056-3.12v2.3H50.688v-2.3Zm1.328-1.2H49.376V1.056h1.312V.384h3.7Zm-4.976-.992h5.024V-6.48H49.408Zm0-2.144h5.024V-8.608H49.408ZM48.656-9.6H55.04v-1.184H48.656ZM58.32-.3c-.816,0-.976-.128-.976-.768V-6.016h3.744v.832h1.488v-7.392H55.728v1.424h5.36V-7.44H55.84v6.368c0,1.728.56,2.176,2.32,2.176H61.1c1.68,0,2.112-.736,2.32-3.312a4.339,4.339,0,0,1-1.392-.608C61.92-.7,61.808-.3,61.008-.3Zm17.792-1.92H72.7v-.992h3.408ZM72.7-5.3h3.408v.912H72.7ZM68.192-8.288v-.96H71.2v.96Zm7.664-.96v.96H72.7v-.96ZM79.28-4.384H77.616V-6.352H72.7V-7.3H77.36V-10.24H72.7v-.816h6.24v-1.2H72.7v-1.168H71.2v1.168H65.136v1.2H71.2v.816H66.768V-7.3H71.2v.944H66.352V-5.3H71.2v.912H64.8v1.168h6.4v.992H66.208V-1.1H71.2v.848c0,.272-.1.352-.384.368C70.56.128,69.6.128,68.72.1a4.6,4.6,0,0,1,.512,1.2,9.423,9.423,0,0,0,2.72-.208C72.5.88,72.7.544,72.7-.272V-1.1h3.408v.688h1.5v-2.8H79.28ZM94.672-5.616A5.922,5.922,0,0,0,88.4-11.648a6.935,6.935,0,0,0-7.152,6.656c0,2.672,1.456,4.432,3.04,4.432S87.2-2.368,88.16-5.632a31.86,31.86,0,0,0,.96-4.5,4.254,4.254,0,0,1,3.872,4.464A4.6,4.6,0,0,1,89.12-1.12,9.889,9.889,0,0,1,87.7-.9l.944,1.5C92.528.048,94.672-2.256,94.672-5.616Zm-11.808.464a5.348,5.348,0,0,1,4.56-4.944,25.472,25.472,0,0,1-.88,4.128c-.736,2.464-1.488,3.5-2.208,3.5C83.648-2.464,82.864-3.312,82.864-5.152Zm19.12-6.528v1.024H98.912V-11.68ZM98.912-8.544v-1.12h3.072v1.12Zm4.464,1.072v-5.312H97.44V1.264h1.472V-7.472Zm2.464,7.1c-.24,0-.288-.048-.288-.352V-2.352h1.808V-5.808h-1.328c.24-.368.512-.8.768-1.232l-1.232-.4H109.2v6.9c0,.224-.08.288-.288.3h-1.04A5.947,5.947,0,0,0,108-1.152a3.584,3.584,0,0,1-1.072-.432c-.032,1.072-.112,1.216-.336,1.216Zm-4-4.416h4.208v1.392H101.84Zm7.36-6.9v1.024h-3.168V-11.68Zm-3.168,2.016H109.2v1.152h-3.168Zm4.64-3.12h-6.064V-7.44h.912a12.941,12.941,0,0,1-.816,1.632h-1.52a5.16,5.16,0,0,0-.9-1.584l-1.152.4a5.449,5.449,0,0,1,.688,1.184h-1.232v3.456h1.44c-.192,1.12-.784,1.792-2.4,2.192a3.777,3.777,0,0,1,.736,1.024,3.572,3.572,0,0,0,2.9-3.216h1.056V-.7c0,1.072.224,1.424,1.312,1.424h1.12a1.012,1.012,0,0,0,.832-.3,7.49,7.49,0,0,1,.176.8,5.263,5.263,0,0,0,2.272-.272c.5-.256.64-.688.64-1.472Zm16.528,2.1v-1.168h-4.528a12.128,12.128,0,0,0,.448-1.28l-1.328-.3a9.7,9.7,0,0,1-1.984,3.76,8.666,8.666,0,0,1,1.168.768,8.988,8.988,0,0,0,1.168-1.776Zm-.432,2.9V-8.96H121.52v1.168Zm-11.92-1.136h1.424v.736h-1.424ZM116.272-12v.656h-1.424V-12Zm2.112,2.224h-3.536v-.72h3.536Zm1.824,1.584h-2.736v-.736h2.208v-2.416h-2.208V-12h2.512v-.88h-6.5V-7.3h6.72ZM116.5-3.024h6.992v.688H116.5Zm0-1.472h6.992v.672H116.5Zm0-1.472h6.992V-5.3H116.5ZM123.12-.08c-.688,0-.8-.048-.8-.432v-.976h2.624v-5.3h-9.856v5.3h2.176c-.448.976-1.52,1.408-4.544,1.632a3.507,3.507,0,0,1,.64,1.136c3.6-.368,4.9-1.152,5.408-2.768h2.1V-.5c0,1.248.416,1.584,2.1,1.584h2.512c1.28,0,1.7-.4,1.84-2.1a4.923,4.923,0,0,1-1.264-.464c-.064,1.216-.16,1.392-.72,1.392Z" transform="translate(-3024 5266)" fill="#333"/>
    <path id="パス_33187" data-name="パス 33187" d="M0,0H288V56H0Z" transform="translate(-3064 5175)" fill="#f5f5f5"/>
    <path id="パス_33188" data-name="パス 33188" d="M1.552,0H5.488C8.1,0,10-1.12,10-3.456a2.7,2.7,0,0,0-2.32-2.8v-.08A2.619,2.619,0,0,0,9.36-8.88c0-2.128-1.744-2.912-4.16-2.912H1.552ZM3.408-6.864v-3.472H5.04c1.664,0,2.5.464,2.5,1.7,0,1.1-.752,1.776-2.544,1.776Zm0,5.408V-5.472H5.28c1.872,0,2.9.592,2.9,1.92,0,1.44-1.056,2.1-2.9,2.1ZM15.728.208A5.339,5.339,0,0,0,18.7-.72l-.64-1.168a3.736,3.736,0,0,1-2.1.656,2.657,2.657,0,0,1-2.72-2.688H18.96a4.77,4.77,0,0,0,.1-.944c0-2.48-1.264-4.16-3.6-4.16-2.048,0-4.016,1.776-4.016,4.624C11.44-1.488,13.344.208,15.728.208ZM13.232-5.2a2.382,2.382,0,0,1,2.256-2.384c1.28,0,1.968.88,1.968,2.384ZM22.944.208a4.375,4.375,0,0,0,2.8-1.216h.064L25.952,0h1.5V-5.3c0-2.336-1.008-3.728-3.2-3.728A6.74,6.74,0,0,0,20.7-7.872l.688,1.248a4.839,4.839,0,0,1,2.544-.9c1.3,0,1.664.9,1.68,1.92-3.664.4-5.264,1.376-5.264,3.264A2.431,2.431,0,0,0,22.944.208Zm.56-1.456c-.784,0-1.376-.352-1.376-1.216,0-.992.88-1.664,3.488-1.968v2.16A3.1,3.1,0,0,1,23.5-1.248ZM32.656.208A3.684,3.684,0,0,0,35.52-1.328h.048L35.712,0h1.5V-8.8h-1.84v6.112c-.736.928-1.3,1.312-2.112,1.312-1.04,0-1.472-.608-1.472-2.112V-8.8h-1.84v5.536C29.952-1.024,30.768.208,32.656.208Zm10.288,0a5.63,5.63,0,0,0,1.728-.32l-.336-1.36a2.624,2.624,0,0,1-.944.208c-.912,0-1.28-.544-1.28-1.6V-7.328H44.4V-8.8H42.112v-2.432H40.576L40.368-8.8l-1.376.1v1.376h1.28V-2.88C40.272-1.024,40.96.208,42.944.208ZM46.72,3.68c1.856,0,2.784-1.264,3.472-3.152L53.424-8.8H51.632L50.224-4.272c-.224.8-.464,1.68-.688,2.48h-.08c-.272-.816-.544-1.7-.8-2.48L47.024-8.8H45.136L48.624-.064l-.176.608c-.32.944-.88,1.648-1.84,1.648a2.384,2.384,0,0,1-.64-.128L45.616,3.5A3.129,3.129,0,0,0,46.72,3.68ZM63.7-12.9H58.72v1.168H63.7ZM62.272-3.12v2.3H59.9v-2.3ZM63.6-4.32H58.592V1.056H59.9V.384h3.7Zm-4.976-.992h5.024V-6.48H58.624Zm0-2.144h5.024V-8.608H58.624ZM57.872-9.6h6.384v-1.184H57.872ZM67.536-.3c-.816,0-.976-.128-.976-.768V-6.016H70.3v.832h1.488v-7.392H64.944v1.424H70.3V-7.44H65.056v6.368c0,1.728.56,2.176,2.32,2.176H70.32c1.68,0,2.112-.736,2.32-3.312a4.339,4.339,0,0,1-1.392-.608C71.136-.7,71.024-.3,70.224-.3Zm17.792-1.92H81.92v-.992h3.408ZM81.92-5.3h3.408v.912H81.92ZM77.408-8.288v-.96h3.008v.96Zm7.664-.96v.96H81.92v-.96ZM88.5-4.384H86.832V-6.352H81.92V-7.3h4.656V-10.24H81.92v-.816h6.24v-1.2H81.92v-1.168h-1.5v1.168H74.352v1.2h6.064v.816H75.984V-7.3h4.432v.944H75.568V-5.3h4.848v.912h-6.4v1.168h6.4v.992H75.424V-1.1h4.992v.848c0,.272-.1.352-.384.368-.256.016-1.216.016-2.1-.016a4.6,4.6,0,0,1,.512,1.2,9.423,9.423,0,0,0,2.72-.208c.544-.208.752-.544.752-1.36V-1.1h3.408v.688h1.5v-2.8H88.5Zm15.392-1.232a5.922,5.922,0,0,0-6.272-6.032,6.935,6.935,0,0,0-7.152,6.656C90.464-2.32,91.92-.56,93.5-.56s2.912-1.808,3.872-5.072a31.859,31.859,0,0,0,.96-4.5,4.254,4.254,0,0,1,3.872,4.464A4.6,4.6,0,0,1,98.336-1.12,9.889,9.889,0,0,1,96.912-.9l.944,1.5C101.744.048,103.888-2.256,103.888-5.616ZM92.08-5.152A5.348,5.348,0,0,1,96.64-10.1a25.472,25.472,0,0,1-.88,4.128c-.736,2.464-1.488,3.5-2.208,3.5C92.864-2.464,92.08-3.312,92.08-5.152ZM111.2-11.68v1.024h-3.072V-11.68Zm-3.072,3.136v-1.12H111.2v1.12Zm4.464,1.072v-5.312h-5.936V1.264h1.472V-7.472Zm2.464,7.1c-.24,0-.288-.048-.288-.352V-2.352h1.808V-5.808h-1.328c.24-.368.512-.8.768-1.232l-1.232-.4h3.632v6.9c0,.224-.08.288-.288.3h-1.04a5.947,5.947,0,0,0,.128-.912,3.584,3.584,0,0,1-1.072-.432c-.032,1.072-.112,1.216-.336,1.216Zm-4-4.416h4.208v1.392h-4.208Zm7.36-6.9v1.024h-3.168V-11.68Zm-3.168,2.016h3.168v1.152h-3.168Zm4.64-3.12h-6.064V-7.44h.912a12.94,12.94,0,0,1-.816,1.632H112.4a5.16,5.16,0,0,0-.9-1.584l-1.152.4a5.449,5.449,0,0,1,.688,1.184h-1.232v3.456h1.44c-.192,1.12-.784,1.792-2.4,2.192a3.777,3.777,0,0,1,.736,1.024,3.572,3.572,0,0,0,2.9-3.216h1.056V-.7c0,1.072.224,1.424,1.312,1.424h1.12a1.012,1.012,0,0,0,.832-.3,7.49,7.49,0,0,1,.176.8,5.263,5.263,0,0,0,2.272-.272c.5-.256.64-.688.64-1.472Zm16.528,2.1v-1.168h-4.528a12.126,12.126,0,0,0,.448-1.28l-1.328-.3a9.7,9.7,0,0,1-1.984,3.76,8.666,8.666,0,0,1,1.168.768,8.988,8.988,0,0,0,1.168-1.776Zm-.432,2.9V-8.96h-5.248v1.168Zm-11.92-1.136h1.424v.736h-1.424ZM125.488-12v.656h-1.424V-12ZM127.6-9.776h-3.536v-.72H127.6Zm1.824,1.584h-2.736v-.736H128.9v-2.416h-2.208V-12H129.2v-.88h-6.5V-7.3h6.72Zm-3.712,5.168H132.7v.688h-6.992Zm0-1.472H132.7v.672h-6.992Zm0-1.472H132.7V-5.3h-6.992ZM132.336-.08c-.688,0-.8-.048-.8-.432v-.976h2.624v-5.3H124.3v5.3h2.176c-.448.976-1.52,1.408-4.544,1.632a3.507,3.507,0,0,1,.64,1.136c3.6-.368,4.9-1.152,5.408-2.768h2.1V-.5c0,1.248.416,1.584,2.1,1.584h2.512c1.28,0,1.7-.4,1.84-2.1a4.923,4.923,0,0,1-1.264-.464c-.064,1.216-.16,1.392-.72,1.392Z" transform="translate(-3024 5210)" fill="#333"/>
    <path id="パス_33185" data-name="パス 33185" d="M1.552,0H3.408V-5.072H7.76V-6.624H3.408v-3.6h5.12v-1.568H1.552ZM11.9.208a4.375,4.375,0,0,0,2.8-1.216h.064L14.912,0h1.5V-5.3c0-2.336-1.008-3.728-3.2-3.728A6.74,6.74,0,0,0,9.664-7.872l.688,1.248a4.839,4.839,0,0,1,2.544-.9c1.3,0,1.664.9,1.68,1.92-3.664.4-5.264,1.376-5.264,3.264A2.431,2.431,0,0,0,11.9.208Zm.56-1.456c-.784,0-1.376-.352-1.376-1.216,0-.992.88-1.664,3.488-1.968v2.16A3.1,3.1,0,0,1,12.464-1.248ZM21.408.208c2.176,0,3.344-1.2,3.344-2.672,0-1.664-1.36-2.208-2.592-2.672-.96-.352-1.824-.64-1.824-1.392,0-.608.448-1.088,1.424-1.088a3.288,3.288,0,0,1,1.952.768l.864-1.136a4.585,4.585,0,0,0-2.848-1.04c-1.952,0-3.136,1.1-3.136,2.576,0,1.488,1.3,2.112,2.48,2.56.944.368,1.936.72,1.936,1.52,0,.672-.5,1.184-1.552,1.184a3.988,3.988,0,0,1-2.5-1.008L18.1-1.008A5.45,5.45,0,0,0,21.408.208ZM26.7,0h1.84V-6.24a2.948,2.948,0,0,1,2.144-1.2c1.04,0,1.488.608,1.488,2.128V0h1.84V-5.536c0-2.24-.832-3.488-2.7-3.488a4.1,4.1,0,0,0-2.848,1.392l.08-1.744v-3.376H26.7ZM36.64,0h1.84V-8.8H36.64Zm.912-10.448a1.071,1.071,0,0,0,1.152-1.1,1.068,1.068,0,0,0-1.152-1.088,1.055,1.055,0,0,0-1.136,1.088A1.058,1.058,0,0,0,37.552-10.448ZM44.752.208C46.928.208,48.9-1.472,48.9-4.4s-1.968-4.624-4.144-4.624-4.144,1.7-4.144,4.624S42.576.208,44.752.208Zm0-1.5c-1.376,0-2.24-1.232-2.24-3.1,0-1.856.864-3.1,2.24-3.1,1.392,0,2.256,1.248,2.256,3.1C47.008-2.528,46.144-1.3,44.752-1.3Zm6.3,1.3H52.9V-6.24a2.948,2.948,0,0,1,2.144-1.2c1.04,0,1.488.608,1.488,2.128V0h1.84V-5.536c0-2.24-.832-3.488-2.7-3.488a4.193,4.193,0,0,0-2.912,1.44H52.7L52.56-8.8h-1.5ZM69.712-12.9H64.736v1.168h4.976ZM68.288-3.12v2.3H65.92v-2.3Zm1.328-1.2H64.608V1.056H65.92V.384h3.7ZM64.64-5.312h5.024V-6.48H64.64Zm0-2.144h5.024V-8.608H64.64ZM63.888-9.6h6.384v-1.184H63.888ZM73.552-.3c-.816,0-.976-.128-.976-.768V-6.016H76.32v.832h1.488v-7.392H70.96v1.424h5.36V-7.44H71.072v6.368c0,1.728.56,2.176,2.32,2.176h2.944c1.68,0,2.112-.736,2.32-3.312a4.339,4.339,0,0,1-1.392-.608C77.152-.7,77.04-.3,76.24-.3Zm17.792-1.92H87.936v-.992h3.408ZM87.936-5.3h3.408v.912H87.936ZM83.424-8.288v-.96h3.008v.96Zm7.664-.96v.96H87.936v-.96Zm3.424,4.864H92.848V-6.352H87.936V-7.3h4.656V-10.24H87.936v-.816h6.24v-1.2h-6.24v-1.168h-1.5v1.168H80.368v1.2h6.064v.816H82V-7.3h4.432v.944H81.584V-5.3h4.848v.912h-6.4v1.168h6.4v.992H81.44V-1.1h4.992v.848c0,.272-.1.352-.384.368-.256.016-1.216.016-2.1-.016a4.6,4.6,0,0,1,.512,1.2,9.423,9.423,0,0,0,2.72-.208c.544-.208.752-.544.752-1.36V-1.1h3.408v.688h1.5v-2.8h1.664ZM109.9-5.616a5.922,5.922,0,0,0-6.272-6.032A6.935,6.935,0,0,0,96.48-4.992c0,2.672,1.456,4.432,3.04,4.432s2.912-1.808,3.872-5.072a31.86,31.86,0,0,0,.96-4.5,4.254,4.254,0,0,1,3.872,4.464,4.6,4.6,0,0,1-3.872,4.544,9.889,9.889,0,0,1-1.424.224l.944,1.5C107.76.048,109.9-2.256,109.9-5.616ZM98.1-5.152a5.348,5.348,0,0,1,4.56-4.944,25.472,25.472,0,0,1-.88,4.128c-.736,2.464-1.488,3.5-2.208,3.5C98.88-2.464,98.1-3.312,98.1-5.152Zm19.12-6.528v1.024h-3.072V-11.68Zm-3.072,3.136v-1.12h3.072v1.12Zm4.464,1.072v-5.312h-5.936V1.264h1.472V-7.472Zm2.464,7.1c-.24,0-.288-.048-.288-.352V-2.352h1.808V-5.808h-1.328c.24-.368.512-.8.768-1.232l-1.232-.4h3.632v6.9c0,.224-.08.288-.288.3H123.1a5.947,5.947,0,0,0,.128-.912,3.584,3.584,0,0,1-1.072-.432c-.032,1.072-.112,1.216-.336,1.216Zm-4-4.416h4.208v1.392h-4.208Zm7.36-6.9v1.024h-3.168V-11.68Zm-3.168,2.016h3.168v1.152h-3.168Zm4.64-3.12H119.84V-7.44h.912a12.941,12.941,0,0,1-.816,1.632h-1.52a5.16,5.16,0,0,0-.9-1.584l-1.152.4a5.449,5.449,0,0,1,.688,1.184h-1.232v3.456h1.44c-.192,1.12-.784,1.792-2.4,2.192A3.777,3.777,0,0,1,115.6.864a3.572,3.572,0,0,0,2.9-3.216h1.056V-.7c0,1.072.224,1.424,1.312,1.424h1.12a1.012,1.012,0,0,0,.832-.3,7.49,7.49,0,0,1,.176.8,5.263,5.263,0,0,0,2.272-.272c.5-.256.64-.688.64-1.472Zm16.528,2.1v-1.168H137.9a12.129,12.129,0,0,0,.448-1.28l-1.328-.3a9.7,9.7,0,0,1-1.984,3.76,8.666,8.666,0,0,1,1.168.768,8.988,8.988,0,0,0,1.168-1.776ZM142-7.792V-8.96h-5.248v1.168ZM130.08-8.928H131.5v.736H130.08ZM131.5-12v.656H130.08V-12Zm2.112,2.224H130.08v-.72h3.536Zm1.824,1.584H132.7v-.736h2.208v-2.416H132.7V-12h2.512v-.88h-6.5V-7.3h6.72Zm-3.712,5.168h6.992v.688h-6.992Zm0-1.472h6.992v.672h-6.992Zm0-1.472h6.992V-5.3h-6.992ZM138.352-.08c-.688,0-.8-.048-.8-.432v-.976h2.624v-5.3H130.32v5.3H132.5c-.448.976-1.52,1.408-4.544,1.632a3.506,3.506,0,0,1,.64,1.136c3.6-.368,4.9-1.152,5.408-2.768h2.1V-.5c0,1.248.416,1.584,2.1,1.584H140.7c1.28,0,1.7-.4,1.84-2.1a4.923,4.923,0,0,1-1.264-.464c-.064,1.216-.16,1.392-.72,1.392Z" transform="translate(-3024 5154)" fill="#333"/>
    <path id="パス_33189" data-name="パス 33189" d="M0,0H512V56H0Z" transform="translate(-2760 5175)" fill="#f5f5f5"/>
    <path id="パス_33211" data-name="パス 33211" d="M0,0H256V56H0Z" transform="translate(-2232 5175)" fill="#f5f5f5"/>
    <g id="グループ_6331" data-name="グループ 6331" transform="translate(-2747 1786)">
      <g id="楕円形_83-25" data-name="楕円形 83" transform="translate(631 3405)" fill="none" stroke="#555" stroke-width="3">
        <circle cx="12" cy="12" r="12" stroke="none"/>
        <circle cx="12" cy="12" r="10.5" fill="none"/>
      </g>
      <path id="パス_29183-21" data-name="パス 29183" d="M636.986,3416.355l2.979,2.81,7.021-6" transform="translate(1.014 0.834)" fill="none" stroke="#555" stroke-width="3"/>
    </g>
    <g id="グループ_5882" data-name="グループ 5882" transform="translate(-3147 1786)">
      <g id="楕円形_83-26" data-name="楕円形 83" transform="translate(631 3405)" fill="none" stroke="#555" stroke-width="3">
        <circle cx="12" cy="12" r="12" stroke="none"/>
        <circle cx="12" cy="12" r="10.5" fill="none"/>
      </g>
      <path id="パス_29183-22" data-name="パス 29183" d="M636.986,3416.355l2.979,2.81,7.021-6" transform="translate(1.014 0.834)" fill="none" stroke="#555" stroke-width="3"/>
    </g>
    <g id="グループ_6393" data-name="グループ 6393" transform="translate(-3147 1730)">
      <g id="楕円形_83-27" data-name="楕円形 83" transform="translate(631 3405)" fill="none" stroke="#555" stroke-width="3">
        <circle cx="12" cy="12" r="12" stroke="none"/>
        <circle cx="12" cy="12" r="10.5" fill="none"/>
      </g>
      <path id="パス_29183-23" data-name="パス 29183" d="M636.986,3416.355l2.979,2.81,7.021-6" transform="translate(1.014 0.834)" fill="none" stroke="#555" stroke-width="3"/>
    </g>
    <g id="グループ_6394" data-name="グループ 6394" transform="translate(-2747 1730)">
      <g id="楕円形_83-28" data-name="楕円形 83" transform="translate(631 3405)" fill="none" stroke="#555" stroke-width="3">
        <circle cx="12" cy="12" r="12" stroke="none"/>
        <circle cx="12" cy="12" r="10.5" fill="none"/>
      </g>
      <path id="パス_29183-24" data-name="パス 29183" d="M636.986,3416.355l2.979,2.81,7.021-6" transform="translate(1.014 0.834)" fill="none" stroke="#555" stroke-width="3"/>
    </g>
  </g>
</svg>
