<svg xmlns="http://www.w3.org/2000/svg" width="184" height="184" viewBox="0 0 184 184">
  <g id="グループ_6402" data-name="グループ 6402" transform="translate(-509 -7516)">
    <g id="長方形_10351" data-name="長方形 10351" transform="translate(509 7516)" fill="#fff" stroke="#ff8e6f" stroke-width="4">
      <rect width="184" height="184" stroke="none"/>
      <rect x="2" y="2" width="180" height="180" fill="none"/>
    </g>
    <g id="グループ_107" data-name="グループ 107" transform="translate(500.582 7562.4)">
      <path id="パス_52" data-name="パス 52" d="M15.883-6.217A21.132,21.132,0,0,1,7.19-4.186H6.514V-29.479H2.88V-3.545h12.4l.677-2.672Zm4.275-19.629,2.422-2.422L20.157-30.69l-2.422,2.422Zm-1.674,22.3h3.349V-22.853h-.142l-3.206.962Zm16,.427c5.557,0,9.725-3.954,9.725-9.975,0-6.056-3.99-9.8-9.4-9.8-5.557,0-9.725,3.99-9.725,10.01C25.074-6.822,29.063-3.117,34.478-3.117Zm.214-.5c-3.527,0-5.985-3.776-5.985-9.476,0-5.629,2.316-9.3,5.878-9.3,3.527,0,5.985,3.812,5.985,9.512C40.57-7.285,38.254-3.616,34.692-3.616ZM57.6-22.888a9.479,9.479,0,0,0-6.911,3.1v-3.064h-.142l-3.242.962V-3.545h3.384V-19.077a7.632,7.632,0,0,1,5.45-2.529c4.168,0,4.168,3.919,4.168,5.379V-3.545H63.69V-16.156C63.69-20.751,61.552-22.888,57.6-22.888ZM85.277-4.222l-.784-2.565V-32.4h-.142L81.11-31.331v10.4a7.676,7.676,0,0,0-5.237-1.959c-4.987,0-9.191,4.132-9.191,10.224,0,5.593,3.491,9.547,8.122,9.547a8.575,8.575,0,0,0,6.377-3.028l.926,2.921Zm-9.369-.071c-3.242,0-5.593-2.921-5.593-8.728,0-5.735,2.387-9.262,5.878-9.262a5.358,5.358,0,0,1,4.916,3.6v11.72A7.051,7.051,0,0,1,75.908-4.293Zm21.16,1.176c5.557,0,9.725-3.954,9.725-9.975,0-6.056-3.99-9.8-9.4-9.8-5.557,0-9.725,3.99-9.725,10.01C87.664-6.822,91.654-3.117,97.069-3.117Zm.214-.5c-3.527,0-5.985-3.776-5.985-9.476,0-5.629,2.316-9.3,5.878-9.3,3.527,0,5.985,3.812,5.985,9.512C103.161-7.285,100.845-3.616,97.283-3.616Zm21.73-19.2c-2.494,0-4.489,1.781-5.807,4.667v-4.7h-.142l-3.171.962V-3.545h3.384V-17.117a5.171,5.171,0,0,1,4.453-3.277,5.13,5.13,0,0,1,1.959.427l1-2.636A7.106,7.106,0,0,0,119.013-22.817Z" transform="translate(39.731 55)"/>
      <path id="パス_53" data-name="パス 53" d="M3.837-.857a3.373,3.373,0,0,0,2.978-1.7L6.7-2.63a2.821,2.821,0,0,1-2.42,1.342c-1.577,0-2.763-1.274-2.763-3.439,0-1.91.98-3.341,2.479-3.341a2.66,2.66,0,0,1,2.234,1.43l.49-.441A3.574,3.574,0,0,0,4.043-8.224,3.519,3.519,0,0,0,.418-4.482,3.365,3.365,0,0,0,3.837-.857Zm6.926-3.586c.931-.323,1.714-.852,1.714-1.861,0-1.215-1.009-1.8-2.89-1.8H7.834V-.975h1V-4.2H9.49A.545.545,0,0,1,10-3.992L12.9-.759h.059V-2Zm-1.029.088a7.313,7.313,0,0,1-.9-.059V-7.95h.715c1.293,0,1.92.676,1.92,1.714A1.755,1.755,0,0,1,9.734-4.355Zm8.729,2.723a8.291,8.291,0,0,1-2.821.48h-.568V-4.6h.451a6.3,6.3,0,0,1,2.057.235h.02v-.607h-.02a6.706,6.706,0,0,1-2.057.2h-.451V-7.93h.539a8.387,8.387,0,0,1,2.665.441h.02l-.118-.617h-4.1V-.975H18.3l.186-.656Zm5.329.656H24.88L21.912-8.263h-.039L20.168-4.1c-.509,1.234-.882,2.145-1.352,3.125h.676a7.381,7.381,0,0,1,.578-2.341h2.782ZM20.138-3.493l.216-.539,1.107-2.733,1.323,3.272Zm9.287-4.614H24.351l-.137.7h.02a4.288,4.288,0,0,1,1.92-.519h.235V-.975h1V-7.93h.225a4.288,4.288,0,0,1,1.92.519h.02Zm5.515,6.475a8.291,8.291,0,0,1-2.821.48h-.568V-4.6H32a6.3,6.3,0,0,1,2.057.235h.02v-.607h-.02a6.706,6.706,0,0,1-2.057.2h-.451V-7.93h.539a8.387,8.387,0,0,1,2.665.441h.02l-.118-.617h-4.1V-.975h4.222l.186-.656Zm3.6-6.475h-2.5V-.975H38.37c2.42,0,3.948-1.342,3.948-3.644C42.318-6.882,40.8-8.107,38.536-8.107Zm0,6.975a7.818,7.818,0,0,1-1.5-.088V-7.95h1.411c1.685,0,2.772,1.362,2.772,3.38C41.22-2.376,40.241-1.132,38.536-1.132Zm10.433-3.6v-.02a1.875,1.875,0,0,0,1.724-1.695c0-1.029-.833-1.665-2.469-1.665H45.864V-.975h2.3c1.891,0,2.959-.754,2.959-1.959C51.125-4.022,50.174-4.649,48.969-4.727Zm.666-1.607a1.476,1.476,0,0,1-1.509,1.607H46.863V-7.95H47.98A1.512,1.512,0,0,1,49.636-6.334Zm-1.763,5.2A6.535,6.535,0,0,1,46.863-1.2V-4.57h1.43A1.641,1.641,0,0,1,50.027-2.8C50.027-1.749,49.371-1.132,47.872-1.132Zm9.081-6.975h-.617a11.475,11.475,0,0,1-1.244,2.821l-.509.9-2.1-3.723H51.34l2.332,4.075V-.975h1V-4.149l.6-1.048C55.886-6.3,56.366-7.137,56.954-8.107Zm6.123,3.38v-.02A1.875,1.875,0,0,0,64.8-6.441c0-1.029-.833-1.665-2.469-1.665H59.971V-.975h2.3c1.891,0,2.959-.754,2.959-1.959C65.232-4.022,64.281-4.649,63.076-4.727Zm.666-1.607a1.476,1.476,0,0,1-1.509,1.607H60.97V-7.95h1.117A1.512,1.512,0,0,1,63.743-6.334Zm-1.763,5.2A6.535,6.535,0,0,1,60.97-1.2V-4.57H62.4A1.641,1.641,0,0,1,64.134-2.8C64.134-1.749,63.478-1.132,61.979-1.132Zm6.632.274A2.6,2.6,0,0,0,71.286-3.6,2.5,2.5,0,0,0,68.7-6.294a2.6,2.6,0,0,0-2.674,2.753A2.5,2.5,0,0,0,68.611-.857Zm.059-.137c-.97,0-1.646-1.038-1.646-2.606,0-1.548.637-2.557,1.616-2.557s1.646,1.048,1.646,2.616C70.287-2,69.65-.994,68.67-.994Zm3.7.02H73.3V-8.91h-.039l-.891.294Zm2.772-6.133.666-.666-.666-.666-.666.666Zm-.46,6.133h.921v-5.31h-.039l-.882.265Zm7.132-.186L81.6-1.866V-8.91h-.039l-.891.294v2.861a2.111,2.111,0,0,0-1.44-.539A2.621,2.621,0,0,0,76.7-3.483,2.375,2.375,0,0,0,78.937-.857a2.358,2.358,0,0,0,1.754-.833l.255.8Zm-2.576-.02c-.891,0-1.538-.8-1.538-2.4,0-1.577.656-2.547,1.616-2.547a1.473,1.473,0,0,1,1.352.989v3.223A1.939,1.939,0,0,1,79.241-1.181Zm8.19-2.763a2.051,2.051,0,0,0-2.116-2.351,2.6,2.6,0,0,0-2.635,2.8A2.433,2.433,0,0,0,85.119-.857,2.617,2.617,0,0,0,87.372-2.15l-.118-.069a2.156,2.156,0,0,1-1.734.94c-1.058,0-1.852-.862-1.852-2.488v-.176Zm-2.194-2.2c.833,0,1.362.813,1.3,2.047H83.678C83.776-5.3,84.384-6.147,85.236-6.147ZM88.43-5.4h.1l.362-2.821h-.823ZM91.447-.857c1.254,0,2-.656,2-1.548,0-.97-.891-1.342-1.509-1.6l-.392-.167C91-4.4,90.32-4.649,90.32-5.266c0-.48.392-.891,1.107-.891a2.488,2.488,0,0,1,1.646.735l.137-.46a3.7,3.7,0,0,0-1.695-.411c-1.117,0-1.822.607-1.822,1.43,0,.931.872,1.293,1.509,1.567l.4.167c.617.255,1.215.509,1.215,1.136,0,.588-.5,1-1.274,1a2.358,2.358,0,0,1-1.8-.833l-.147.5A3.755,3.755,0,0,0,91.447-.857ZM95.493.495c1.45-.686,2.39-1.313,2.39-3.7v-4.9h-1V-3.13c0,1.8-.157,2.7-1.46,3.507Zm7.945-1.685c-.48,0-.48-.274-.48-.745V-4.443a1.616,1.616,0,0,0-1.822-1.852,2.625,2.625,0,0,0-1.92.8l.088.108a2.2,2.2,0,0,1,1.469-.588c.97,0,1.254.647,1.254,1.616V-3.8c-.294.029-.607.049-.96.088-1.342.147-2.214.715-2.214,1.626a1.223,1.223,0,0,0,1.372,1.2,2.739,2.739,0,0,0,1.812-.754.716.716,0,0,0,.774.725,1.6,1.6,0,0,0,.813-.245V-1.21A1.085,1.085,0,0,1,103.438-1.19Zm-2.7-.039a.913.913,0,0,1-.96-1.009c0-.95.921-1.274,2.253-1.411v1.832A1.9,1.9,0,0,1,100.734-1.23Zm6.4-5.065a2.358,2.358,0,0,0-1.734.823v-.813h-.039l-.891.265V1.259h.931V-1.4a2.111,2.111,0,0,0,1.44.539,2.612,2.612,0,0,0,2.527-2.8A2.378,2.378,0,0,0,107.131-6.294Zm-.382,5.28a1.469,1.469,0,0,1-1.352-1V-5.227a1.956,1.956,0,0,1,1.45-.745c.882,0,1.518.8,1.518,2.4C108.366-1.994,107.709-1.014,106.749-1.014Zm7.8-.176c-.48,0-.48-.274-.48-.745V-4.443a1.616,1.616,0,0,0-1.822-1.852,2.625,2.625,0,0,0-1.92.8l.088.108a2.2,2.2,0,0,1,1.469-.588c.97,0,1.254.647,1.254,1.616V-3.8c-.294.029-.607.049-.96.088-1.342.147-2.214.715-2.214,1.626a1.223,1.223,0,0,0,1.371,1.2,2.739,2.739,0,0,0,1.812-.754.716.716,0,0,0,.774.725,1.6,1.6,0,0,0,.813-.245V-1.21A1.086,1.086,0,0,1,114.547-1.19Zm-2.7-.039a.913.913,0,0,1-.96-1.009c0-.95.921-1.274,2.253-1.411v1.832A1.9,1.9,0,0,1,111.843-1.23Zm6.564-5.065a2.607,2.607,0,0,0-1.9.852v-.842h-.039l-.891.265V-.975h.931V-5.246a2.1,2.1,0,0,1,1.5-.7c1.146,0,1.146,1.078,1.146,1.479V-.975h.931V-4.443C120.082-5.707,119.494-6.294,118.407-6.294Z" transform="translate(40 67.57)" fill="#333"/>
    </g>
  </g>
</svg>
