<svg xmlns="http://www.w3.org/2000/svg" width="98.173" height="24.402" viewBox="0 0 98.173 24.402">
  <path id="パス_52" data-name="パス 52" d="M13.716-10.581A17.61,17.61,0,0,1,6.472-8.888H5.908V-29.966H2.88V-8.354H13.211l.564-2.226Zm3.562-16.357L19.3-28.956l-2.019-2.019-2.019,2.019Zm-1.4,18.584h2.791v-16.09h-.119l-2.672.8ZM29.212-8c4.631,0,8.1-3.3,8.1-8.312,0-5.047-3.325-8.164-7.837-8.164-4.631,0-8.1,3.325-8.1,8.342C21.375-11.085,24.7-8,29.212-8Zm.178-.416c-2.939,0-4.987-3.147-4.987-7.9,0-4.69,1.93-7.748,4.9-7.748,2.939,0,4.987,3.176,4.987,7.926C34.288-11.471,32.359-8.413,29.39-8.413Zm19.088-16.06a7.9,7.9,0,0,0-5.759,2.583v-2.553H42.6l-2.7.8V-8.354h2.82V-21.3a6.36,6.36,0,0,1,4.542-2.108c3.473,0,3.473,3.266,3.473,4.483V-8.354h2.82V-18.863C53.555-22.693,51.773-24.474,48.478-24.474ZM71.545-8.918l-.653-2.137V-32.4h-.119l-2.7.891v8.668a6.4,6.4,0,0,0-4.364-1.633c-4.156,0-7.659,3.444-7.659,8.52C56.048-11.293,58.958-8,62.817-8a7.146,7.146,0,0,0,5.314-2.523L68.9-8.087Zm-7.808-.059c-2.7,0-4.661-2.434-4.661-7.273,0-4.78,1.989-7.718,4.9-7.718a4.465,4.465,0,0,1,4.1,3V-11.2A5.876,5.876,0,0,1,63.737-8.977ZM81.371-8c4.631,0,8.1-3.3,8.1-8.312,0-5.047-3.325-8.164-7.837-8.164-4.631,0-8.1,3.325-8.1,8.342C73.534-11.085,76.858-8,81.371-8Zm.178-.416c-2.939,0-4.987-3.147-4.987-7.9,0-4.69,1.93-7.748,4.9-7.748,2.939,0,4.987,3.176,4.987,7.926C86.447-11.471,84.518-8.413,81.549-8.413Zm18.109-16c-2.078,0-3.74,1.484-4.839,3.889v-3.919H94.7l-2.642.8V-8.354h2.82V-19.665A4.309,4.309,0,0,1,98.589-22.4a4.275,4.275,0,0,1,1.633.356l.831-2.2A5.922,5.922,0,0,0,99.658-24.414Z" transform="translate(-2.88 32.4)" fill="#333"/>
</svg>
