<svg xmlns="http://www.w3.org/2000/svg" width="195.271" height="29.828" viewBox="0 0 195.271 29.828">
  <g id="グループ_669" data-name="グループ 669" transform="translate(-100.553 -2498)">
    <path id="パス_33214" data-name="パス 33214" d="M-29.208-19.392-32.856-17.9c1.056,2.5,2.184,4.968,3.288,7.032-2.208,1.656-3.912,3.648-3.912,6.36,0,4.44,3.816,5.76,8.76,5.76a46.125,46.125,0,0,0,7.776-.6l.048-4.2a39.682,39.682,0,0,1-7.92.936c-3.072,0-4.608-.744-4.608-2.328s1.344-2.856,3.192-4.08a68.038,68.038,0,0,1,6.36-3.336c.984-.48,1.848-.96,2.688-1.464l-2.016-3.36a18.031,18.031,0,0,1-2.5,1.632c-1.032.6-2.856,1.536-4.608,2.544A49,49,0,0,1-29.208-19.392ZM-.264-3.264c0-.768.744-1.2,1.872-1.2a6.041,6.041,0,0,1,1.608.216v.168c0,1.32-.456,1.944-1.608,1.944C.576-2.136-.264-2.424-.264-3.264Zm7.08-15.7H2.664A11.718,11.718,0,0,1,2.856-17.3c.024.432.024,1.32.048,2.448-.456.024-.888.024-1.344.024a41.854,41.854,0,0,1-4.3-.216l.024,3.456c1.416.1,2.856.144,4.3.144.432,0,.888,0,1.344-.024.024,1.512.1,2.976.168,4.248-.384-.024-.792-.048-1.2-.048-3.36,0-5.568,1.728-5.568,4.416C-3.672-.144-1.44,1.3,1.944,1.3,5.088,1.3,6.576-.1,6.888-2.352A32.093,32.093,0,0,1,9.456-.168l1.968-3.048a15.214,15.214,0,0,0-4.608-3.1c-.072-1.44-.192-3.144-.24-5.352,1.248-.072,2.424-.216,3.5-.36v-3.624c-1.08.24-2.256.408-3.48.552.024-1.008.048-1.8.072-2.256A16.014,16.014,0,0,1,6.816-18.96Zm-11.64.312-4.008-.336C-8.856-18.1-9-16.992-9.1-16.272a74.383,74.383,0,0,0-.936,9.96,27.948,27.948,0,0,0,.984,7.7l3.288-.24C-5.784.768-5.784.336-5.784.072A7.25,7.25,0,0,1-5.64-1.056c.288-1.392,1.008-3.816,1.728-5.976L-5.664-8.448c-.312.72-.624,1.176-.912,1.872A4.436,4.436,0,0,1-6.6-7.128,68.081,68.081,0,0,1-5.472-16.2,23.363,23.363,0,0,1-4.824-18.648ZM23.328-6.384h3.744c-.216-3.168,4.752-3.408,4.752-6.864,0-3.432-2.76-4.992-6.288-4.992a8.114,8.114,0,0,0-6.288,3.024l2.352,2.16a4.573,4.573,0,0,1,3.432-1.728c1.584,0,2.712.6,2.712,1.92C27.744-10.752,22.944-10.032,23.328-6.384ZM25.2.288A2.371,2.371,0,0,0,27.648-2.16,2.332,2.332,0,0,0,25.2-4.56a2.332,2.332,0,0,0-2.448,2.4A2.357,2.357,0,0,0,25.2.288Z" transform="translate(264 2526)" fill="#333"/>
    <g id="グループ_6192" data-name="グループ 6192" transform="translate(58.713 2475.4)">
      <path id="パス_52" data-name="パス 52" d="M16.125-5.729A21.525,21.525,0,0,1,7.271-3.661H6.581V-29.425H2.88V-3.008H15.508L16.2-5.729Zm4.354-19.994,2.467-2.467-2.467-2.467-2.467,2.467ZM18.774-3.008h3.411V-22.675h-.145l-3.266.98Zm16.293.435c5.661,0,9.906-4.028,9.906-10.16,0-6.169-4.064-9.979-9.58-9.979-5.661,0-9.906,4.064-9.906,10.2C25.487-6.346,29.551-2.572,35.066-2.572Zm.218-.508c-3.592,0-6.1-3.846-6.1-9.652,0-5.733,2.359-9.471,5.987-9.471,3.592,0,6.1,3.883,6.1,9.689C41.271-6.818,38.913-3.08,35.284-3.08ZM58.616-22.711a9.655,9.655,0,0,0-7.04,3.157v-3.121h-.145l-3.3.98V-3.008h3.447V-18.829a7.774,7.774,0,0,1,5.552-2.576c4.246,0,4.246,3.992,4.246,5.479V-3.008h3.447V-15.853C64.821-20.534,62.644-22.711,58.616-22.711ZM86.811-3.7l-.8-2.613V-32.4h-.145l-3.3,1.089v10.6a7.818,7.818,0,0,0-5.334-2c-5.08,0-9.362,4.209-9.362,10.414,0,5.7,3.556,9.725,8.273,9.725a8.735,8.735,0,0,0,6.5-3.084l.943,2.976ZM77.268-3.77c-3.3,0-5.7-2.976-5.7-8.89,0-5.842,2.431-9.435,5.987-9.435a5.457,5.457,0,0,1,5.008,3.665V-6.491A7.183,7.183,0,0,1,77.268-3.77Zm21.554,1.2c5.661,0,9.906-4.028,9.906-10.16,0-6.169-4.064-9.979-9.58-9.979-5.661,0-9.906,4.064-9.906,10.2C89.242-6.346,93.306-2.572,98.822-2.572Zm.218-.508c-3.592,0-6.1-3.846-6.1-9.652,0-5.733,2.359-9.471,5.987-9.471,3.592,0,6.1,3.883,6.1,9.689C105.027-6.818,102.668-3.08,99.04-3.08Zm22.135-19.559c-2.54,0-4.572,1.814-5.915,4.754v-4.79h-.145l-3.23.98V-3.008h3.447V-16.833a5.267,5.267,0,0,1,4.536-3.338,5.225,5.225,0,0,1,2,.435l1.016-2.685A7.238,7.238,0,0,0,121.175-22.639Z" transform="translate(38.961 55)" fill="#333"/>
    </g>
  </g>
</svg>
