<svg id="グループ_6367" data-name="グループ 6367" xmlns="http://www.w3.org/2000/svg" xmlns:xlink="http://www.w3.org/1999/xlink" width="200" height="200.328" viewBox="0 0 200 200.328">
  <defs>
    <clipPath id="clip-path">
      <rect id="長方形_10581" data-name="長方形 10581" width="200" height="200.328" fill="none"/>
    </clipPath>
  </defs>
  <g id="グループ_6366" data-name="グループ 6366" clip-path="url(#clip-path)">
    <path id="パス_30750" data-name="パス 30750" d="M197.691,163.836c-5.889,14.314-19.653,21.085-28.45,25.412-34.675,17.057-87.354,15.055-125.278-16.06C35.088,165.908-8.654,127.762,1.526,76.11c9-45.662,54.281-72.15,92.417-75.67,31.594-2.916,72.855,8.61,87.438,36.467,9.171,17.517-1.846,23.079,5.655,62.77,6.493,34.353,17.858,46.652,10.655,64.161" transform="translate(0 0)" fill="#caddff"/>
    <path id="パス_30751" data-name="パス 30751" d="M344.263,157.823c-3.592-2.566-7.31-4.958-11.088-7.24-7.668-4.631-15.619-8.771-23.625-12.782-4.211-2.11-8.535-4.019-12.816-5.983q-6.46-2.963-12.938-5.89-5.915-2.682-11.827-5.374c-13.119-27.834-27.6-59.39-25.824-59.39l134.376-3.81a5.77,5.77,0,0,1,5.765,5.763V156.4a5.771,5.771,0,0,1-5.765,5.763H350.469c-2.034-1.492-4.155-2.871-6.206-4.336" transform="translate(-186.651 -43.518)" fill="#99b9ff"/>
    <path id="パス_30752" data-name="パス 30752" d="M379.383,161.383H349.212l-.1-.07c-1.14-.837-2.33-1.652-3.48-2.441-.9-.614-1.822-1.25-2.721-1.892-3.3-2.361-6.924-4.724-11.065-7.225-8.085-4.883-16.467-9.195-23.6-12.769-3.256-1.631-6.635-3.168-9.9-4.654q-1.452-.66-2.9-1.324c-4.277-1.961-8.56-3.9-12.937-5.889l-.052-.024c-3.861-1.75-7.853-3.56-11.775-5.35l-.121-.055-.056-.12c-27.181-57.668-26.254-59.13-25.9-59.68a.475.475,0,0,1,.408-.226l134.366-3.81a6.135,6.135,0,0,1,6.137,6.125v93.279a6.133,6.133,0,0,1-6.127,6.125m-29.934-.724h29.934a5.408,5.408,0,0,0,5.4-5.4V61.98a5.408,5.408,0,0,0-5.4-5.4l-134.171,3.8c.006,1.517,3.624,11.515,25.89,58.76,3.883,1.772,7.832,3.562,11.653,5.294l.052.024c4.378,1.984,8.662,3.928,12.939,5.89q1.447.664,2.9,1.322c3.274,1.489,6.66,3.029,9.927,4.666,7.146,3.58,15.544,7.9,23.651,12.8,4.157,2.51,7.791,4.884,11.111,7.255.893.638,1.817,1.272,2.71,1.884,1.123.77,2.283,1.565,3.4,2.384M245.029,60.388h0" transform="translate(-185.512 -42.38)"/>
    <path id="パス_30753" data-name="パス 30753" d="M210.993,58.705h136.1a5.438,5.438,0,0,1,5.439,5.437v93.279a5.438,5.438,0,0,1-5.439,5.437h-136.1a5.438,5.438,0,0,1-5.439-5.437V64.142a5.438,5.438,0,0,1,5.439-5.437" transform="translate(-155.965 -44.543)" fill="#fff"/>
    <path id="パス_30754" data-name="パス 30754" d="M252.973,492.157H84.885a4.061,4.061,0,1,0,0,8.122H252.973a4.061,4.061,0,1,0,0-8.122" transform="translate(-61.325 -373.426)" fill="#99b9ff"/>
    <path id="パス_30755" data-name="パス 30755" d="M555.994,525.047H530.526a.362.362,0,0,1,0-.724h25.468a.362.362,0,0,1,0,.724" transform="translate(-402.264 -397.832)"/>
    <path id="パス_30756" data-name="パス 30756" d="M240.327,499.5a.362.362,0,0,1,0-.724l12.3-.085a3.7,3.7,0,0,0-.791-7.313H83.747a3.7,3.7,0,1,0,0,7.4h79.669a.362.362,0,0,1,0,.724H83.747a4.423,4.423,0,1,1,0-8.846H251.835a4.423,4.423,0,0,1,.9,8.752.372.372,0,0,1-.071.008l-12.339.085Z" transform="translate(-60.187 -372.288)"/>
    <path id="パス_30757" data-name="パス 30757" d="M228.514,74.116h128.2a5.087,5.087,0,0,1,5.123,5.049v86.619a5.087,5.087,0,0,1-5.123,5.049h-128.2a5.086,5.086,0,0,1-5.123-5.049V79.165a5.086,5.086,0,0,1,5.123-5.049" transform="translate(-169.499 -56.236)" fill="#caddff"/>
    <path id="パス_30758" data-name="パス 30758" d="M345.954,162.082h-136.1a5.807,5.807,0,0,1-5.8-5.8V63a5.807,5.807,0,0,1,5.8-5.8l59.36.057a.362.362,0,0,1,0,.724l-59.36-.057A5.082,5.082,0,0,0,204.778,63v93.279a5.082,5.082,0,0,0,5.077,5.075h136.1a5.082,5.082,0,0,0,5.077-5.075V63a5.082,5.082,0,0,0-5.077-5.075H306.481a.362.362,0,0,1,0-.724h39.474a5.807,5.807,0,0,1,5.8,5.8v93.279a5.807,5.807,0,0,1-5.8,5.8" transform="translate(-154.827 -43.405)"/>
    <path id="パス_30759" data-name="パス 30759" d="M361.953,82.033V78.858a5.493,5.493,0,0,0-5.244-5.4l-128.031.363a5.085,5.085,0,0,0-5.14,5.04l-.147,3.909Z" transform="translate(-169.499 -55.734)" fill="#99b9ff"/>
    <path id="パス_30760" data-name="パス 30760" d="M250.3,91.336a1.641,1.641,0,1,1-1.641-1.64,1.641,1.641,0,0,1,1.641,1.64" transform="translate(-187.424 -68.057)" fill="#caddff"/>
    <path id="パス_30761" data-name="パス 30761" d="M272.064,90.883a1.641,1.641,0,1,1-1.641-1.64,1.641,1.641,0,0,1,1.641,1.64" transform="translate(-203.939 -67.713)" fill="#caddff"/>
    <path id="パス_30762" data-name="パス 30762" d="M295.643,91.79A1.641,1.641,0,1,1,294,90.15a1.641,1.641,0,0,1,1.641,1.64" transform="translate(-221.83 -68.402)" fill="#caddff"/>
    <path id="パス_30763" data-name="パス 30763" d="M583.061,90.554H524.49a.844.844,0,0,1,0-1.689h58.571a.844.844,0,0,1,0,1.689" transform="translate(-397.318 -67.427)" fill="#caddff"/>
    <path id="パス_30764" data-name="パス 30764" d="M277.207,187.628a4.565,4.565,0,0,1-4.4,4.717H246.467a4.565,4.565,0,0,1-4.4-4.717V139.365a4.565,4.565,0,0,1,4.4-4.717h26.344a4.565,4.565,0,0,1,4.4,4.717Z" transform="translate(-183.672 -102.165)" fill="#fff"/>
    <path id="パス_30765" data-name="パス 30765" d="M271.673,191.568H245.329a4.931,4.931,0,0,1-4.758-5.078V138.226a4.931,4.931,0,0,1,4.758-5.078h26.344a4.931,4.931,0,0,1,4.758,5.078v26.288a.362.362,0,0,1-.724,0V138.226a4.208,4.208,0,0,0-4.034-4.355H245.329a4.208,4.208,0,0,0-4.034,4.355v48.263a4.208,4.208,0,0,0,4.034,4.355h26.344a4.208,4.208,0,0,0,4.034-4.355V170.537a.362.362,0,0,1,.724,0v15.953a4.931,4.931,0,0,1-4.758,5.078" transform="translate(-182.534 -101.027)"/>
    <path id="パス_30766" data-name="パス 30766" d="M303.39,254.991h-7.178a.9.9,0,0,1-.9-.9v-.065a.9.9,0,0,1,.9-.9h7.178a.9.9,0,0,1,.9.9v.065a.9.9,0,0,1-.9.9" transform="translate(-224.068 -192.057)" fill="#99b9ff"/>
    <path id="パス_30767" data-name="パス 30767" d="M284.754,277.739H260.2a.9.9,0,0,1-.9-.9v-.065a.9.9,0,0,1,.9-.9h24.552a.9.9,0,0,1,.9.9v.065a.9.9,0,0,1-.9.9" transform="translate(-196.744 -209.317)" fill="#caddff"/>
    <path id="パス_30768" data-name="パス 30768" d="M284.754,294.639H260.2a.9.9,0,0,1-.9-.9v-.065a.9.9,0,0,1,.9-.9h24.552a.9.9,0,0,1,.9.9v.065a.9.9,0,0,1-.9.9" transform="translate(-196.744 -222.14)" fill="#caddff"/>
    <path id="パス_30769" data-name="パス 30769" d="M276.616,311.539H260.2a.9.9,0,0,1-.9-.9v-.065a.9.9,0,0,1,.9-.9h16.414a.9.9,0,0,1,.9.9v.065a.9.9,0,0,1-.9.9" transform="translate(-196.744 -234.963)" fill="#caddff"/>
    <path id="パス_30770" data-name="パス 30770" d="M284.754,328.44H260.2a.9.9,0,0,1-.9-.9v-.065a.9.9,0,0,1,.9-.9h24.552a.9.9,0,0,1,.9.9v.065a.9.9,0,0,1-.9.9" transform="translate(-196.744 -247.786)" fill="#caddff"/>
    <path id="パス_30771" data-name="パス 30771" d="M292.546,178.966a2.763,2.763,0,0,1-2.692-3.415c.71-2.855,2.27-6.544,5.623-7.065,3.5-.543,5.383,3.718,6.3,6.97a2.765,2.765,0,0,1-2.667,3.511Z" transform="translate(-219.866 -127.803)"/>
    <path id="パス_30772" data-name="パス 30772" d="M294.419,225.757a8.283,8.283,0,0,0,6.179-2.377,16,16,0,0,0-5.779-.7,18.775,18.775,0,0,0-6.269.8,8.934,8.934,0,0,0,5.869,2.278" transform="translate(-218.938 -168.962)" fill="#5479f7"/>
    <path id="パス_30773" data-name="パス 30773" d="M287.217,222.713a.362.362,0,0,1-.093-.711,25.56,25.56,0,0,1,12.221-.151.362.362,0,0,1-.168.7,24.838,24.838,0,0,0-11.866.146.368.368,0,0,1-.094.012" transform="translate(-217.653 -167.823)"/>
    <path id="パス_30774" data-name="パス 30774" d="M309.626,194.124a1.642,1.642,0,0,1-1.642-1.641v-9.825h3.284v9.825a1.641,1.641,0,0,1-1.642,1.641" transform="translate(-233.684 -138.592)" fill="#fff"/>
    <path id="パス_30775" data-name="パス 30775" d="M308.488,193.348a2.006,2.006,0,0,1-2-2v-9.825a.362.362,0,0,1,.362-.362h3.284a.362.362,0,0,1,.362.362v9.825a2.005,2.005,0,0,1-2,2m-1.28-11.466v9.463a1.28,1.28,0,0,0,2.56,0v-9.463Z" transform="translate(-232.546 -137.455)"/>
    <path id="パス_30776" data-name="パス 30776" d="M304.031,179.613a3.368,3.368,0,0,1-1.8-3.044v-1.745a3.327,3.327,0,0,1,3.182-3.454,3.111,3.111,0,0,1,2.976,3.231v1.969a3.219,3.219,0,0,1-3.079,3.342Z" transform="translate(-229.315 -130.028)" fill="#fff"/>
    <path id="パス_30777" data-name="パス 30777" d="M304.167,179.136a.362.362,0,1,1,0-.724,2.861,2.861,0,0,0,2.717-2.98v-1.969a2.753,2.753,0,0,0-2.614-2.868,2.969,2.969,0,0,0-2.82,3.092v1.745a3.015,3.015,0,0,0,1.6,2.719.362.362,0,1,1-.321.649,3.743,3.743,0,0,1-2.006-3.368v-1.745a3.692,3.692,0,0,1,3.544-3.816,3.476,3.476,0,0,1,3.338,3.592v1.969a3.584,3.584,0,0,1-3.441,3.7" transform="translate(-228.177 -128.89)"/>
    <path id="パス_30778" data-name="パス 30778" d="M302.129,173.253h6.4a3.261,3.261,0,0,0-1.273-2.108,3.368,3.368,0,0,0-3.378-.291,2.6,2.6,0,0,0-1.665,2.019Z" transform="translate(-229.242 -129.394)"/>
    <path id="パス_30779" data-name="パス 30779" d="M311.157,195.941a1.552,1.552,0,0,1-1.128-.488.362.362,0,1,1,.528-.5.816.816,0,0,0,.6.26h0a.816.816,0,0,0,.6-.26.362.362,0,0,1,.528.5,1.553,1.553,0,0,1-1.128.488" transform="translate(-235.162 -147.838)"/>
    <path id="パス_30780" data-name="パス 30780" d="M283.18,177.068a9.5,9.5,0,1,1,9.428-10.637.362.362,0,0,1-.719.086,8.783,8.783,0,1,0-.108,2.774.362.362,0,0,1,.71.142,9.5,9.5,0,0,1-9.311,7.635" transform="translate(-207.643 -119.938)"/>
    <path id="パス_30781" data-name="パス 30781" d="M511.747,159.713h0l-5.846-.034a.362.362,0,0,1,0-.724h0l5.846.034a.362.362,0,0,1,0,.724" transform="translate(-383.58 -120.608)"/>
    <path id="パス_30782" data-name="パス 30782" d="M530.683,158.633a.362.362,0,0,1-.362-.362v-1.23a.362.362,0,0,1,.619-.255l.624.629a.362.362,0,0,1-.006.516l-.623.6a.362.362,0,0,1-.251.1" transform="translate(-402.382 -118.881)"/>
    <path id="パス_30783" data-name="パス 30783" d="M643.08,159.713h0l-5.846-.034a.362.362,0,0,1,0-.724h0l5.846.034a.362.362,0,0,1,0,.724" transform="translate(-483.229 -120.608)"/>
    <path id="パス_30784" data-name="パス 30784" d="M662.016,158.633a.362.362,0,0,1-.362-.362v-1.23a.362.362,0,0,1,.619-.255l.624.629a.362.362,0,0,1-.005.516l-.623.6a.362.362,0,0,1-.251.1" transform="translate(-502.032 -118.881)"/>
    <path id="パス_30785" data-name="パス 30785" d="M430.632,136.924a1.034,1.034,0,0,0-1.027-1.009H407.859a1.01,1.01,0,0,0-1.008,1.009l.069,9.364a1.008,1.008,0,0,0,1,1.021h21.895a1.024,1.024,0,0,0,1-1.048Z" transform="translate(-308.7 -103.126)" fill="#fff"/>
    <path id="パス_30786" data-name="パス 30786" d="M429.766,135.754H408.019a1.01,1.01,0,0,0-1.007,1.009l.043,9.337a1.052,1.052,0,0,0,1.023,1.047h21.811a.95.95,0,0,0,.959-1l-.054-9.372a1.048,1.048,0,0,0-1.029-1.024" transform="translate(-308.822 -103.004)" fill="#fff"/>
    <path id="パス_30787" data-name="パス 30787" d="M428.752,146.372H406.941a1.419,1.419,0,0,1-1.385-1.408l-.043-9.337a1.372,1.372,0,0,1,1.369-1.373h21.746a1.4,1.4,0,0,1,1.391,1.38l.054,9.375a1.353,1.353,0,0,1-.382.977,1.306,1.306,0,0,1-.939.385m-21.87-11.394a.648.648,0,0,0-.646.646l.043,9.337a.694.694,0,0,0,.661.687h21.811a.579.579,0,0,0,.423-.169.635.635,0,0,0,.174-.462l-.054-9.375a.683.683,0,0,0-.667-.664Z" transform="translate(-307.685 -101.866)" fill="#5479f7"/>
    <path id="パス_30788" data-name="パス 30788" d="M427.317,146.337a.388.388,0,0,1-.392.391H416.066a.4.4,0,0,1-.4-.391.391.391,0,0,1,.394-.39h10.855a.4.4,0,0,1,.4.39" transform="translate(-315.39 -110.738)" fill="#5479f7"/>
    <path id="パス_30789" data-name="パス 30789" d="M469.728,146.558a.364.364,0,0,1-.395.357h-2.589a.359.359,0,1,1,0-.714h2.588a.368.368,0,0,1,.4.357" transform="translate(-353.843 -110.931)" fill="#5479f7"/>
    <path id="パス_30790" data-name="パス 30790" d="M486.121,146.558a.363.363,0,0,1-.394.357h-2.589a.368.368,0,0,1-.4-.357.364.364,0,0,1,.394-.357h2.588a.369.369,0,0,1,.4.357" transform="translate(-366.282 -110.931)" fill="#5479f7"/>
    <path id="パス_30791" data-name="パス 30791" d="M448.522,158.17a.4.4,0,0,0,.4.392h10.87a.387.387,0,0,0,.39-.392.4.4,0,0,0-.4-.391H448.914a.39.39,0,0,0-.392.391" transform="translate(-340.318 -119.715)" fill="#5479f7"/>
    <path id="パス_30792" data-name="パス 30792" d="M435.493,158.163a.4.4,0,0,0-.4-.392h-2.59a.392.392,0,1,0,0,.785H435.1a.393.393,0,0,0,.4-.393" transform="translate(-327.865 -119.709)" fill="#5479f7"/>
    <path id="パス_30793" data-name="パス 30793" d="M419.084,158.163a.4.4,0,0,0-.4-.392H416.1a.392.392,0,1,0,0,.785h2.592a.394.394,0,0,0,.4-.393" transform="translate(-315.415 -119.709)" fill="#5479f7"/>
    <path id="パス_30794" data-name="パス 30794" d="M427.5,169.991a.391.391,0,0,1-.393.394h-10.9a.4.4,0,0,1-.4-.394.393.393,0,0,1,.4-.394h10.9a.4.4,0,0,1,.4.394" transform="translate(-315.495 -128.682)" fill="#5479f7"/>
    <path id="パス_30795" data-name="パス 30795" d="M430.632,196.24a1.034,1.034,0,0,0-1.027-1.009H407.859a1.01,1.01,0,0,0-1.008,1.009l.069,26.225a1.008,1.008,0,0,0,1,1.021h21.895a1.024,1.024,0,0,0,1-1.048Z" transform="translate(-308.7 -148.132)" fill="#fff"/>
    <path id="パス_30796" data-name="パス 30796" d="M429.766,195.07H408.019a1.01,1.01,0,0,0-1.007,1.009l.043,26.2a1.052,1.052,0,0,0,1.023,1.047h21.811a.95.95,0,0,0,.959-1l-.054-26.234a1.048,1.048,0,0,0-1.029-1.024" transform="translate(-308.822 -148.01)" fill="#fff"/>
    <path id="パス_30797" data-name="パス 30797" d="M428.752,222.55H406.941a1.419,1.419,0,0,1-1.385-1.408l-.043-26.2a1.371,1.371,0,0,1,1.369-1.372h21.746a1.4,1.4,0,0,1,1.391,1.38l.054,26.238a1.35,1.35,0,0,1-.382.976,1.305,1.305,0,0,1-.939.385m-21.87-28.255a.648.648,0,0,0-.646.646l.043,26.2a.694.694,0,0,0,.661.686h21.811a.579.579,0,0,0,.423-.169.635.635,0,0,0,.174-.462l-.054-26.238a.683.683,0,0,0-.667-.662Z" transform="translate(-307.685 -146.873)" fill="#5479f7"/>
    <path id="パス_30798" data-name="パス 30798" d="M435.122,203.234a.454.454,0,0,0-.408-.467H415.507a.2.2,0,0,0-.192.22l-.044,13.367a.25.25,0,0,0,.225.258h19.392a.2.2,0,0,0,.192-.22Z" transform="translate(-315.088 -153.85)" fill="#fff"/>
    <path id="パス_30799" data-name="パス 30799" d="M433.749,215.836H414.357a.567.567,0,0,1-.4-.172.637.637,0,0,1-.185-.449l.044-13.367a.6.6,0,0,1,.144-.394.544.544,0,0,1,.41-.187h19.207a.812.812,0,0,1,.77.829h0l-.043,13.158a.562.562,0,0,1-.554.581m-.17-.583h0Zm-19.085-.141H433.58l.042-13.017a.129.129,0,0,0-.056-.106H414.538Zm.044-13.264h0Z" transform="translate(-313.95 -152.712)" fill="#99b9ff"/>
    <path id="パス_30800" data-name="パス 30800" d="M415.308,228.979l3.037-3.2a1.545,1.545,0,0,1,2.071-.045l2.672,2.1,2.237-1.284a1.1,1.1,0,0,1,.862.047l8.93,4.183v2.976H415.548a.192.192,0,0,1-.192-.19Z" transform="translate(-315.117 -170.993)" fill="#99b9ff"/>
    <path id="パス_30801" data-name="パス 30801" d="M474.269,212.851a1.351,1.351,0,1,1-1.424-1.273,1.35,1.35,0,0,1,1.424,1.273" transform="translate(-357.806 -160.534)" fill="#caddff"/>
    <path id="パス_30802" data-name="パス 30802" d="M421.676,272.019h-5.843a.526.526,0,0,1,0-1.052h5.843a.526.526,0,0,1,0,1.052" transform="translate(-315.117 -205.597)" fill="#caddff"/>
    <path id="パス_30803" data-name="パス 30803" d="M420.7,281.216h-4.865a.526.526,0,0,1,0-1.052H420.7a.526.526,0,0,1,0,1.052" transform="translate(-315.117 -212.576)" fill="#caddff"/>
    <path id="パス_30804" data-name="パス 30804" d="M419,290.414h-3.164a.526.526,0,0,1,0-1.052H419a.526.526,0,0,1,0,1.052" transform="translate(-315.117 -219.555)" fill="#caddff"/>
    <path id="パス_30805" data-name="パス 30805" d="M421.676,299.611h-5.843a.526.526,0,0,1,0-1.052h5.843a.526.526,0,0,1,0,1.052" transform="translate(-315.117 -226.533)" fill="#caddff"/>
    <path id="パス_30806" data-name="パス 30806" d="M473.263,272.019H467.42a.526.526,0,0,1,0-1.052h5.843a.526.526,0,0,1,0,1.052" transform="translate(-354.258 -205.597)" fill="#caddff"/>
    <path id="パス_30807" data-name="パス 30807" d="M470.839,281.216h-3.419a.526.526,0,0,1,0-1.052h3.419a.526.526,0,0,1,0,1.052" transform="translate(-354.258 -212.576)" fill="#caddff"/>
    <path id="パス_30808" data-name="パス 30808" d="M473.234,290.414h-5.815a.526.526,0,0,1,0-1.052h5.815a.526.526,0,0,1,0,1.052" transform="translate(-354.258 -219.555)" fill="#caddff"/>
    <path id="パス_30809" data-name="パス 30809" d="M470.612,299.611h-3.192a.526.526,0,0,1,0-1.052h3.192a.526.526,0,0,1,0,1.052" transform="translate(-354.258 -226.533)" fill="#caddff"/>
    <path id="パス_30810" data-name="パス 30810" d="M561.106,137.109a1.037,1.037,0,0,0-1.034-1.009h-21.9a1.014,1.014,0,0,0-1.015,1.009l.069,9.364a1.011,1.011,0,0,0,1,1.021H560.28a1.027,1.027,0,0,0,1.005-1.047Z" transform="translate(-407.571 -103.266)" fill="#fff"/>
    <path id="パス_30811" data-name="パス 30811" d="M559.141,146.718H537.093a1.379,1.379,0,0,1-1.366-1.382l-.069-9.363a1.355,1.355,0,0,1,.4-.967,1.37,1.37,0,0,1,.977-.406h21.9a1.4,1.4,0,0,1,1.4,1.364l.179,9.337a1.417,1.417,0,0,1-.406,1.009,1.341,1.341,0,0,1-.961.407m-22.107-11.394a.652.652,0,0,0-.465.193.636.636,0,0,0-.188.453l.069,9.362a.647.647,0,0,0,.642.662h22.048a.622.622,0,0,0,.445-.191.686.686,0,0,0,.2-.489l-.179-9.336h0a.679.679,0,0,0-.673-.653Z" transform="translate(-406.433 -102.128)" fill="#5479f7"/>
    <path id="パス_30812" data-name="パス 30812" d="M557.768,146.522a.39.39,0,0,1-.394.391H546.438a.4.4,0,0,1-.4-.391.392.392,0,0,1,.4-.39h10.931a.4.4,0,0,1,.4.39" transform="translate(-414.309 -110.878)" fill="#5479f7"/>
    <path id="パス_30813" data-name="パス 30813" d="M600.475,146.743a.365.365,0,0,1-.4.357h-2.607a.359.359,0,1,1,0-.714h2.606a.37.37,0,0,1,.4.357" transform="translate(-453.031 -111.071)" fill="#5479f7"/>
    <path id="パス_30814" data-name="パス 30814" d="M616.983,146.743a.365.365,0,0,1-.4.357h-2.607a.37.37,0,0,1-.4-.357.365.365,0,0,1,.4-.357h2.606a.371.371,0,0,1,.4.357" transform="translate(-465.556 -111.071)" fill="#5479f7"/>
    <path id="パス_30815" data-name="パス 30815" d="M557.955,159.193a.392.392,0,0,1-.4.394H546.579a.4.4,0,0,1-.4-.394.4.4,0,0,1,.4-.394h10.976a.4.4,0,0,1,.4.394" transform="translate(-414.414 -120.489)" fill="#5479f7"/>
    <path id="パス_30816" data-name="パス 30816" d="M561.106,196.164a1.037,1.037,0,0,0-1.034-1.009h-21.9a1.014,1.014,0,0,0-1.015,1.009l.069,25.984a1.011,1.011,0,0,0,1,1.021H560.28a1.028,1.028,0,0,0,1.005-1.047Z" transform="translate(-407.571 -148.075)" fill="#fff"/>
    <path id="パス_30817" data-name="パス 30817" d="M560.233,194.994h-21.9A1.014,1.014,0,0,0,537.32,196l.044,25.958a1.056,1.056,0,0,0,1.03,1.048h21.964a.953.953,0,0,0,.966-1l-.054-25.993a1.052,1.052,0,0,0-1.036-1.024" transform="translate(-407.694 -147.952)" fill="#fff"/>
    <path id="パス_30818" data-name="パス 30818" d="M559.219,222.232H537.256a1.422,1.422,0,0,1-1.392-1.408l-.044-25.958a1.353,1.353,0,0,1,.4-.965,1.369,1.369,0,0,1,.977-.406h21.9a1.406,1.406,0,0,1,1.4,1.38l.054,26a1.347,1.347,0,0,1-.381.973,1.314,1.314,0,0,1-.946.388M537.2,194.218a.651.651,0,0,0-.464.193.636.636,0,0,0-.189.453l.044,25.958a.7.7,0,0,0,.668.686h21.964a.588.588,0,0,0,.43-.172.631.631,0,0,0,.173-.459l-.054-26a.686.686,0,0,0-.674-.662Z" transform="translate(-406.555 -146.814)" fill="#5479f7"/>
    <path id="パス_30819" data-name="パス 30819" d="M557.768,274.471a.39.39,0,0,1-.394.391H546.438a.4.4,0,0,1-.4-.391.392.392,0,0,1,.4-.391h10.931a.4.4,0,0,1,.4.391" transform="translate(-414.309 -207.959)" fill="#99b9ff"/>
    <path id="パス_30820" data-name="パス 30820" d="M600.475,274.692a.365.365,0,0,1-.4.357h-2.607a.359.359,0,1,1,0-.713h2.606a.37.37,0,0,1,.4.357" transform="translate(-453.031 -208.153)" fill="#99b9ff"/>
    <path id="パス_30821" data-name="パス 30821" d="M616.983,274.692a.365.365,0,0,1-.4.357h-2.607a.37.37,0,0,1-.4-.357.365.365,0,0,1,.4-.357h2.606a.371.371,0,0,1,.4.357" transform="translate(-465.556 -208.153)" fill="#99b9ff"/>
    <path id="パス_30822" data-name="パス 30822" d="M557.955,289.139a.392.392,0,0,1-.4.394H546.579a.4.4,0,0,1-.4-.394.4.4,0,0,1,.4-.394h10.976a.4.4,0,0,1,.4.394" transform="translate(-414.414 -219.086)" fill="#99b9ff"/>
    <path id="パス_30823" data-name="パス 30823" d="M569.607,223.778a4.633,4.633,0,0,1-.431-6.513,4.574,4.574,0,0,1,6.478-.433,4.633,4.633,0,0,1,.431,6.513,4.574,4.574,0,0,1-6.478.433" transform="translate(-431.002 -163.655)" fill="#5479f7"/>
    <path id="パス_30824" data-name="パス 30824" d="M581.5,231.217V228.33a.2.2,0,0,1,.287-.178l2.888,1.426a.2.2,0,0,1,0,.355l-2.888,1.461a.2.2,0,0,1-.289-.177" transform="translate(-441.215 -173.095)" fill="#fff"/>
    <path id="パス_30825" data-name="パス 30825" d="M695.53,137.029a1.132,1.132,0,0,0-1.2-1.009H669.02a1.1,1.1,0,0,0-1.173,1.009l.08,12.254a1.1,1.1,0,0,0,1.161,1.021h25.487a1.109,1.109,0,0,0,1.162-1.048Z" transform="translate(-506.731 -103.206)" fill="#fff"/>
    <path id="パス_30826" data-name="パス 30826" d="M694.522,135.859H669.208a1.1,1.1,0,0,0-1.173,1.009l.05,12.228a1.144,1.144,0,0,0,1.191,1.048h25.39a1.03,1.03,0,0,0,1.116-1l-.062-12.263a1.145,1.145,0,0,0-1.2-1.024" transform="translate(-506.874 -103.084)" fill="#fff"/>
    <path id="パス_30827" data-name="パス 30827" d="M693.528,149.367H668.138a1.51,1.51,0,0,1-1.553-1.408l-.05-12.228a1.282,1.282,0,0,1,.387-.912,1.623,1.623,0,0,1,1.148-.461h25.315a1.5,1.5,0,0,1,1.559,1.379l.062,12.267a1.278,1.278,0,0,1-.371.923,1.531,1.531,0,0,1-1.107.439M668.07,135.083a.9.9,0,0,0-.635.248.565.565,0,0,0-.176.4l.05,12.228a.791.791,0,0,0,.829.687h25.389a.816.816,0,0,0,.591-.222.556.556,0,0,0,.164-.408l-.062-12.267a.8.8,0,0,0-.836-.664Z" transform="translate(-505.736 -101.945)" fill="#5479f7"/>
    <path id="パス_30828" data-name="パス 30828" d="M701.66,146.442a.424.424,0,0,1-.456.391H688.563a.432.432,0,0,1-.462-.391.427.427,0,0,1,.458-.391H701.2a.436.436,0,0,1,.465.391" transform="translate(-522.099 -110.817)" fill="#5479f7"/>
    <path id="パス_30829" data-name="パス 30829" d="M751.028,146.662c0,.216-.205.357-.459.357h-3.014c-.254,0-.458-.141-.461-.357s.206-.357.46-.357h3.013c.254,0,.458.141.461.357" transform="translate(-566.86 -111.009)" fill="#5479f7"/>
    <path id="パス_30830" data-name="パス 30830" d="M691.671,170.108a.424.424,0,0,1-.456.391H678.574a.432.432,0,0,1-.462-.391.427.427,0,0,1,.458-.391h12.636a.436.436,0,0,1,.465.391" transform="translate(-514.52 -128.773)" fill="#5479f7"/>
    <path id="パス_30831" data-name="パス 30831" d="M741.04,170.328c0,.216-.205.357-.46.357h-3.014c-.254,0-.458-.141-.461-.357s.206-.357.46-.357h3.013c.254,0,.458.141.461.357" transform="translate(-559.282 -128.966)" fill="#5479f7"/>
    <path id="パス_30832" data-name="パス 30832" d="M760.123,170.328c0,.216-.2.357-.459.357H756.65c-.254,0-.458-.141-.461-.357s.205-.357.459-.357h3.013c.254,0,.458.141.462.357" transform="translate(-573.761 -128.966)" fill="#5479f7"/>
    <path id="パス_30833" data-name="パス 30833" d="M697.378,158.276a.436.436,0,0,0,.465.392H710.5a.422.422,0,0,0,.454-.392.439.439,0,0,0-.467-.391H697.835a.425.425,0,0,0-.457.391" transform="translate(-529.138 -119.796)" fill="#5479f7"/>
    <path id="パス_30834" data-name="パス 30834" d="M686.318,181.931a.426.426,0,0,1-.458.394h-7.123a.435.435,0,0,1-.464-.394.43.43,0,0,1,.46-.394h7.117a.438.438,0,0,1,.467.394" transform="translate(-514.642 -137.742)" fill="#5479f7"/>
    <path id="パス_30835" data-name="パス 30835" d="M720.779,181.931a.426.426,0,0,1-.458.394H714.87a.435.435,0,0,1-.464-.394.43.43,0,0,1,.46-.394h5.446a.438.438,0,0,1,.467.394" transform="translate(-542.058 -137.742)" fill="#5479f7"/>
    <path id="パス_30836" data-name="パス 30836" d="M695.423,206.815a1.132,1.132,0,0,0-1.2-1.009H668.913a1.1,1.1,0,0,0-1.173,1.009l.08,40.677a1.1,1.1,0,0,0,1.161,1.021h25.487a1.109,1.109,0,0,0,1.162-1.047Z" transform="translate(-506.65 -156.156)" fill="#99b9ff"/>
    <path id="パス_30837" data-name="パス 30837" d="M693.33,247.738H667.842a1.463,1.463,0,0,1-1.523-1.381l-.08-40.679a1.282,1.282,0,0,1,.387-.911,1.625,1.625,0,0,1,1.148-.461H693.09a1.489,1.489,0,0,1,1.557,1.365v0l.206,40.651a1.32,1.32,0,0,1-.393.947,1.59,1.59,0,0,1-1.13.464M667.775,205.03a.9.9,0,0,0-.635.248.565.565,0,0,0-.176.4l.08,40.678a.743.743,0,0,0,.8.66H693.33a.864.864,0,0,0,.614-.247.605.605,0,0,0,.186-.432l-.207-40.653a.78.78,0,0,0-.834-.652Z" transform="translate(-505.512 -155.018)" fill="#5479f7"/>
    <rect id="長方形_10562" data-name="長方形 10562" width="5.317" height="5.315" transform="translate(163.46 70.052)" fill="#fff"/>
    <rect id="長方形_10563" data-name="長方形 10563" width="5.317" height="5.315" transform="translate(169.383 70.052)" fill="#fff"/>
    <rect id="長方形_10564" data-name="長方形 10564" width="5.317" height="5.315" transform="translate(175.306 70.052)" fill="#fff"/>
    <rect id="長方形_10565" data-name="長方形 10565" width="5.317" height="5.315" transform="translate(181.229 70.052)" fill="#fff"/>
    <rect id="長方形_10566" data-name="長方形 10566" width="5.317" height="5.315" transform="translate(163.46 76.046)" fill="#fff"/>
    <rect id="長方形_10567" data-name="長方形 10567" width="5.317" height="5.315" transform="translate(169.383 76.046)" fill="#fff"/>
    <rect id="長方形_10568" data-name="長方形 10568" width="5.317" height="5.315" transform="translate(175.306 76.046)" fill="#fff"/>
    <rect id="長方形_10569" data-name="長方形 10569" width="5.317" height="5.315" transform="translate(181.229 76.046)" fill="#fff"/>
    <rect id="長方形_10570" data-name="長方形 10570" width="5.317" height="5.315" transform="translate(163.46 81.912)" fill="#fff"/>
    <rect id="長方形_10571" data-name="長方形 10571" width="5.317" height="5.315" transform="translate(169.383 81.912)" fill="#fff"/>
    <rect id="長方形_10572" data-name="長方形 10572" width="5.317" height="5.315" transform="translate(175.306 81.912)" fill="#fff"/>
    <rect id="長方形_10573" data-name="長方形 10573" width="5.317" height="5.315" transform="translate(181.229 81.912)" fill="#fff"/>
    <rect id="長方形_10574" data-name="長方形 10574" width="18.17" height="1.956" transform="translate(165.463 52.253)" fill="#fff"/>
    <rect id="長方形_10575" data-name="長方形 10575" width="22.747" height="1.356" transform="translate(163.635 56.569)" fill="#caddff"/>
    <rect id="長方形_10576" data-name="長方形 10576" width="14.836" height="1.356" transform="translate(163.635 59.457)" fill="#caddff"/>
    <rect id="長方形_10577" data-name="長方形 10577" width="14.836" height="1.356" transform="translate(163.692 65.511)" fill="#caddff"/>
    <rect id="長方形_10578" data-name="長方形 10578" width="22.747" height="1.356" transform="translate(163.635 62.346)" fill="#caddff"/>
    <path id="パス_30838" data-name="パス 30838" d="M91.079,270.822v13.406c0,13.111,10.356,23.74,23.132,23.74s23.132,10.629,23.132,23.74a2.115,2.115,0,0,1-2.115,2.115H74c-19.152,0-34.677-15.934-34.677-35.589V269.629a13.977,13.977,0,0,1,13.793-14.155H76.124a15.155,15.155,0,0,1,14.955,15.348" transform="translate(-29.833 -193.842)" fill="#5479f7"/>
    <rect id="長方形_10579" data-name="長方形 10579" width="5.549" height="64.583" transform="translate(54.182 133.135)" fill="#5479f7"/>
    <path id="パス_30839" data-name="パス 30839" d="M180.729,813.1l-24.556-2.155h-2.252l-25.07,2.155v1.71h51.878Z" transform="translate(-97.766 -615.311)" fill="#5479f7"/>
    <path id="パス_30840" data-name="パス 30840" d="M361.863,465.206h-47a1.827,1.827,0,0,1-1.827-1.827v-.891h50.65v.891a1.827,1.827,0,0,1-1.827,1.827" transform="translate(-237.52 -350.915)"/>
    <path id="パス_30841" data-name="パス 30841" d="M431.842,373.189H402.86l9.208-27.1a3.029,3.029,0,0,1,2.543-1.362h24.5a1.52,1.52,0,0,1,1.465,2.03c-.144.379-.3.752-.426,1.137Z" transform="translate(-305.672 -261.567)"/>
    <path id="パス_30842" data-name="パス 30842" d="M478.079,397.161a1.9,1.9,0,1,0,2.429-1.53,2.041,2.041,0,0,0-2.429,1.53" transform="translate(-362.664 -300.133)" fill="#fff"/>
    <path id="パス_30843" data-name="パス 30843" d="M515.516,460.922h-2.323a.362.362,0,1,1,0-.724h2.323a.362.362,0,1,1,0,.724" transform="translate(-389.113 -349.177)" fill="#99b9ff"/>
    <path id="パス_30844" data-name="パス 30844" d="M152.05,570.572l-5.751,5.423,3.934,3.324,6.85-4.9Z" transform="translate(-111.005 -432.923)" fill="#fff"/>
    <path id="パス_30845" data-name="パス 30845" d="M149.1,578.542a.361.361,0,0,1-.234-.086l-3.934-3.325a.362.362,0,0,1-.015-.54l5.751-5.423a.361.361,0,0,1,.468-.024L156.165,573a.362.362,0,0,1-.009.582l-6.85,4.9a.362.362,0,0,1-.21.068m-3.391-3.7,3.41,2.881,6.223-4.448-4.4-3.368Z" transform="translate(-109.867 -431.785)"/>
    <path id="パス_30846" data-name="パス 30846" d="M135.929,583.667a43.634,43.634,0,0,0-3.743,3.64,2.374,2.374,0,0,0,.022,3.154,93.413,93.413,0,0,0,13.042,11.718,1.679,1.679,0,0,0,2.067-.166c3.068-2.393-1.5-7.508-5.155-14.448l-1.77.1a2.341,2.341,0,0,1-2.234-1.312l-1.207-2.477a.657.657,0,0,0-1.021-.209" transform="translate(-99.85 -442.737)" fill="#5479f7"/>
    <path id="パス_30847" data-name="パス 30847" d="M145,601.678a1.9,1.9,0,0,1-1.1-.344,93.1,93.1,0,0,1-13.1-11.771,2.734,2.734,0,0,1-.023-3.635,44.161,44.161,0,0,1,3.776-3.673,1.018,1.018,0,0,1,1.584.323l1.208,2.476a1.97,1.97,0,0,0,1.888,1.109l2-.111.108.206c.91,1.728,1.9,3.379,2.772,4.836,2.7,4.511,4.838,8.074,2.285,10.065a2.26,2.26,0,0,1-1.4.519m-9.78-18.949a.292.292,0,0,0-.192.072,43.442,43.442,0,0,0-3.71,3.607,2.01,2.01,0,0,0,.021,2.673,92.292,92.292,0,0,0,12.983,11.666,1.314,1.314,0,0,0,1.633-.157c2.048-1.6.157-4.754-2.461-9.123-.843-1.407-1.794-2.995-2.683-4.665l-1.538.085a2.7,2.7,0,0,1-2.579-1.515l-1.207-2.476a.3.3,0,0,0-.207-.161.31.31,0,0,0-.059-.006m-.429-.2h0Z" transform="translate(-98.71 -441.598)"/>
    <path id="パス_30848" data-name="パス 30848" d="M132.378,598.374l-.192.214a2.375,2.375,0,0,0,.022,3.154A93.414,93.414,0,0,0,145.25,613.46a1.679,1.679,0,0,0,2.067-.166,4.883,4.883,0,0,0,.646-.706l-.364-.285a134.914,134.914,0,0,1-14.606-13.282Z" transform="translate(-99.85 -454.019)" fill="#fff"/>
    <path id="パス_30849" data-name="パス 30849" d="M145,612.959a1.9,1.9,0,0,1-1.1-.345,93.112,93.112,0,0,1-13.1-11.771,2.734,2.734,0,0,1-.023-3.635l.194-.217a.362.362,0,0,1,.531-.007l.614.647a134.992,134.992,0,0,0,14.566,13.246l.364.285a.362.362,0,0,1,.065.5,5.029,5.029,0,0,1-.712.774,2.261,2.261,0,0,1-1.4.518m-13.751-15.188a2.013,2.013,0,0,0,.09,2.591,92.289,92.289,0,0,0,12.983,11.666,1.314,1.314,0,0,0,1.633-.157,2.9,2.9,0,0,0,.356-.363l-.075-.059a135.757,135.757,0,0,1-14.645-13.318Z" transform="translate(-98.711 -452.88)"/>
    <path id="パス_30850" data-name="パス 30850" d="M168.232,616.513a.362.362,0,0,1-.031-.722l3.338-.294a.362.362,0,1,1,.064.721l-3.338.294h-.032" transform="translate(-127.373 -467.01)"/>
    <path id="パス_30851" data-name="パス 30851" d="M174.934,625.4a.362.362,0,0,1-.06-.719l3.216-.549a.362.362,0,0,1,.122.713l-3.216.55a.38.38,0,0,1-.061.005" transform="translate(-132.458 -473.555)"/>
    <path id="パス_30852" data-name="パス 30852" d="M195.972,446.2a8.368,8.368,0,0,1,6.829,3.465,7.046,7.046,0,0,1,.947,6.4c-1.239,4.059-2.8,6.895-26.061,11.42a145.9,145.9,0,0,0-39,13.528,2.117,2.117,0,0,1-1.622.161c-1.712-.524-5.323-1.984-5.776-5.075a1.89,1.89,0,0,1,.776-1.794l4.211-3.051-3.994-2.129a20.27,20.27,0,0,1-9.8-11.332c-1.464-4.384-2.189-11.886-2.189-11.886Z" transform="translate(-91.274 -338.336)"/>
    <path id="パス_30853" data-name="パス 30853" d="M438,577.9l-17.3-71.763L403.4,577.9h-4.147l19.009-79.43,4.876-.007,19.01,79.437Z" transform="translate(-302.934 -378.207)" fill="#fff"/>
    <path id="パス_30854" data-name="パス 30854" d="M441.162,577.118h-4.891l-.067-.277-16.949-70.3-17.015,70.58H397.35l19.182-80.154,5.447-.008.067.278Zm-4.32-.724h3.4l-18.837-78.713-4.305.006-18.836,78.707h3.4l17.585-72.945Z" transform="translate(-301.491 -377.068)"/>
    <path id="パス_30855" data-name="パス 30855" d="M378.026,760.509a19.294,19.294,0,0,1-.673,7.5l9.956-.107a8.255,8.255,0,0,1-4.136-6.1l-.262-1.962Z" transform="translate(-286.318 -576.528)" fill="#fff"/>
    <path id="パス_30856" data-name="パス 30856" d="M376.215,767.228a.361.361,0,0,1-.347-.464,18.841,18.841,0,0,0,.661-7.355.362.362,0,0,1,.31-.4l4.884-.674a.362.362,0,0,1,.408.31l.262,1.962a7.931,7.931,0,0,0,3.955,5.833.362.362,0,0,1-.173.677l-9.956.107Zm1.067-7.547a19.542,19.542,0,0,1-.588,6.818l8.293-.09a8.666,8.666,0,0,1-3.311-5.7l-.214-1.6Z" transform="translate(-285.18 -575.389)"/>
    <path id="パス_30857" data-name="パス 30857" d="M373.038,781.187c-.317,1.22-.967,4.654-1.226,6.717a2.575,2.575,0,0,0,1.952,2.81c3.58.882,12.091.666,19.184.83a1.823,1.823,0,0,0,1.749-1.416c1.281-4.024-6.372-5.075-13.9-9.047a7.081,7.081,0,0,1-1.08.715,4.534,4.534,0,0,1-3.927-.075l-1.713-.974a.712.712,0,0,0-1.042.439" transform="translate(-282.099 -592.324)" fill="#5479f7"/>
    <path id="パス_30858" data-name="パス 30858" d="M391.843,790.767H391.8c-1.814-.042-3.748-.06-5.618-.076-5.626-.051-10.94-.1-13.644-.764a2.935,2.935,0,0,1-2.224-3.207c.258-2.056.906-5.495,1.235-6.763a1.074,1.074,0,0,1,1.571-.662l1.713.974a4.166,4.166,0,0,0,3.576.071,6.774,6.774,0,0,0,1.02-.674l.186-.156.215.113a72.531,72.531,0,0,0,6.75,3.02c4.641,1.88,8.308,3.365,7.323,6.458a2.2,2.2,0,0,1-2.062,1.668M372.59,779.876a.354.354,0,0,0-.137.028.347.347,0,0,0-.2.234c-.321,1.237-.969,4.694-1.218,6.671a2.212,2.212,0,0,0,1.679,2.414c2.622.646,8.141.7,13.478.743,1.873.017,3.809.034,5.628.076a1.454,1.454,0,0,0,1.4-1.164c.745-2.34-2-3.579-6.9-5.567-2.029-.822-4.321-1.75-6.608-2.941a7.926,7.926,0,0,1-.946.6,4.908,4.908,0,0,1-4.278-.078l-1.713-.974a.351.351,0,0,0-.174-.046m-.689.171h0Z" transform="translate(-280.961 -591.185)"/>
    <path id="パス_30859" data-name="パス 30859" d="M370.983,810.041c-.006.036-.011.061-.012.072-.163,1.294,1.09,2.062,2.284,2.588,3.611,1.591,18.252.284,18.252.284s1.963.02,2.484-1.157a2.183,2.183,0,0,0,.13-.644,2.138,2.138,0,0,0-.059-.686l-.13-.527c-1.993.792-10.961,1.395-17.469.589a13.4,13.4,0,0,1-5.223-1.965s-.127.705-.257,1.445" transform="translate(-281.465 -613.525)" fill="#fff"/>
    <path id="パス_30860" data-name="パス 30860" d="M379.612,812.715c-3.195,0-6.218-.194-7.643-.821-1.167-.514-2.7-1.381-2.5-2.964,0-.014.007-.045.014-.089h0c.131-.74.258-1.446.258-1.446a.362.362,0,0,1,.516-.261c.183.09.382.2.614.334a11.427,11.427,0,0,0,4.493,1.6c6.444.8,15.335.211,17.291-.566a.362.362,0,0,1,.485.249l.131.527a2.5,2.5,0,0,1,.068.8,2.436,2.436,0,0,1-.16.761c-.587,1.325-2.567,1.371-2.8,1.372-.488.043-5.835.507-10.771.507m-9.412-3.751-.009.056c-.107.851.532,1.532,2.071,2.21,3.486,1.536,17.929.268,18.074.255h.036c.482.015,1.8-.159,2.15-.941a1.864,1.864,0,0,0,.1-.526,1.784,1.784,0,0,0-.049-.57l-.037-.149c-2.612.737-11.071,1.248-17.256.482a12.068,12.068,0,0,1-4.761-1.685l-.149-.084c-.047.263-.108.6-.169.952" transform="translate(-280.325 -612.387)"/>
    <path id="パス_30861" data-name="パス 30861" d="M411.379,790.141a.362.362,0,0,1-.224-.646l2.116-1.666a.362.362,0,0,1,.448.569l-2.116,1.667a.361.361,0,0,1-.224.077" transform="translate(-311.861 -597.709)"/>
    <path id="パス_30862" data-name="パス 30862" d="M423.314,795.425a.362.362,0,0,1-.222-.648l1.852-1.437a.362.362,0,0,1,.444.572l-1.852,1.437a.361.361,0,0,1-.222.076" transform="translate(-320.916 -601.893)"/>
    <path id="パス_30863" data-name="パス 30863" d="M186.262,501.9s8.149,1.73,12.464,7.165c4.222,5.319,5.744,12.817,7.7,49.563a2.994,2.994,0,0,1-2.306,3.113c-2,.432-4.759.744-6.447-.271-2.876-1.729-4.217-33.381-10.688-38.817s-38.349-13.342-43.622-20.26,7.67-6.918,7.67-6.918Z" transform="translate(-107.816 -375.941)"/>
    <path id="パス_30864" data-name="パス 30864" d="M214.225,549.372a.362.362,0,0,1-.161-.686c1.536-.761,3.019-1.544,4.453-2.3,6.322-3.34,12.294-6.5,23.364-8.425a.362.362,0,0,1,.124.713c-10.957,1.91-16.88,5.039-23.15,8.352-1.439.76-2.926,1.546-4.47,2.311a.36.36,0,0,1-.16.038" transform="translate(-162.269 -408.174)" fill="#caddff"/>
    <path id="パス_30865" data-name="パス 30865" d="M351.236,334.822H356L353.644,351h-4.628l-2.36-16.178Z" transform="translate(-263.026 -254.048)" fill="#5479f7"/>
    <path id="パス_30866" data-name="パス 30866" d="M71.175,290.6c1.265-2.784,4.633-4.583,7.251-5.606a17.452,17.452,0,0,1,5.67-1.167l6.864-.269a36.773,36.773,0,0,1,8.982.526,18.681,18.681,0,0,1,11.23,6.7c1.278,1.582,2.4,2.953,2.5,2.981,3.712,5.209,4.455,7.813,7.137,9.756,4.479,3.246,12.319.6,12.319.6,2.612-.391,3.56,1.558,4.036,2.642a4.893,4.893,0,0,1-.486,3.908,2.975,2.975,0,0,1-1.548,1.436c-3.362,1.369-14.795,5.638-20.038,2.668-4.37-2.475-7.305-7.642-9.646-10.18a.364.364,0,0,0-.63.281c.5,5.7,5.2,12.471,6.627,14.415a1.549,1.549,0,0,0,1.073.621l10.346,1.178a1.182,1.182,0,0,1,.45.151,2.407,2.407,0,0,1,1.221,1.815,10.567,10.567,0,0,1-.314,4.237l-.355.7a1.7,1.7,0,0,1-1.491.932c-5.5.09-28.729.214-35.325-.181-6.143-.368-10.313-2.827-13.6-11.406-1.305-3.409-5.651-19.3-2.274-26.736" transform="translate(-53.05 -215.088)" fill="#fff"/>
    <path id="パス_30867" data-name="パス 30867" d="M105.137,328.239c-7.661,0-15.766-.063-19.287-.274-5.81-.348-10.4-2.46-13.914-11.638-1.034-2.7-5.841-19.146-2.266-27.015l.33.15-.33-.15c1.317-2.9,4.777-4.75,7.449-5.793a17.775,17.775,0,0,1,5.787-1.192l6.864-.269a37.469,37.469,0,0,1,9.059.531,19.029,19.029,0,0,1,11.448,6.832c1.771,2.193,2.258,2.748,2.391,2.883l.047.014.072.1c1.371,1.924,2.355,3.521,3.146,4.8,1.367,2.218,2.27,3.683,3.909,4.87,4.275,3.1,11.915.575,11.992.549l.062-.015c2.97-.445,4.024,1.952,4.421,2.854a5.193,5.193,0,0,1-.493,4.214,3.337,3.337,0,0,1-1.736,1.61c-3.415,1.391-14.976,5.694-20.352,2.648-3.176-1.8-5.61-4.991-7.566-7.557-.774-1.015-1.506-1.975-2.168-2.693.484,5.607,5.14,12.314,6.555,14.235a1.191,1.191,0,0,0,.823.476l10.346,1.178a1.493,1.493,0,0,1,.58.192,2.77,2.77,0,0,1,1.41,2.086,10.793,10.793,0,0,1-.35,4.449l-.355.7a2.063,2.063,0,0,1-1.808,1.129c-2.4.039-9.049.092-16.065.092M92.066,282.7c-.769,0-1.523.026-2.256.079l-6.876.27a17.052,17.052,0,0,0-5.552,1.143c-2.546.994-5.837,2.742-7.053,5.418-3.238,7.127.84,22.689,2.282,26.457C76,324.915,80.2,326.9,85.894,327.243c6.726.4,30.274.262,35.3.18a1.339,1.339,0,0,0,1.174-.734l.355-.7a10.435,10.435,0,0,0,.278-4.024,2.046,2.046,0,0,0-1.033-1.544.822.822,0,0,0-.306-.109L111.3,319.135a1.919,1.919,0,0,1-1.324-.766c-1.444-1.961-6.193-8.807-6.7-14.6a.726.726,0,0,1,1.256-.558c.686.744,1.427,1.716,2.212,2.745,1.915,2.513,4.3,5.64,7.347,7.366,5.094,2.885,16.384-1.328,19.723-2.688a2.612,2.612,0,0,0,1.36-1.261,4.528,4.528,0,0,0,.479-3.6c-.6-1.374-1.507-2.735-3.621-2.434-.63.208-8.137,2.586-12.616-.659-1.755-1.272-2.688-2.785-4.1-5.076-.781-1.266-1.751-2.841-3.1-4.73-.219-.2-.755-.828-2.507-3A18.306,18.306,0,0,0,98.7,283.3a38.319,38.319,0,0,0-6.637-.6" transform="translate(-51.875 -213.953)"/>
    <path id="パス_30868" data-name="パス 30868" d="M306.134,459.213h12.009v0a3.69,3.69,0,0,0-3.69-3.69h-4.63a3.689,3.689,0,0,0-3.69,3.69Z" transform="translate(-232.28 -345.628)" fill="#5479f7"/>
    <path id="パス_30869" data-name="パス 30869" d="M283.784,438.286a1.841,1.841,0,0,1,1.008-.9,7.139,7.139,0,0,0,.919-.418L289.8,434.8c.765-.374,1.86.5,2.654.759,2.4.786,7.363,2.639,6.954,4.379-.441,1.877-4.708.989-6.223.61-.346-.087-3.481,1.047-4.472,1.122a3.237,3.237,0,0,1-2.356-.6,2.18,2.18,0,0,0-1.014-.235,1.864,1.864,0,0,1-1.454-.681l-.008-.01a1.58,1.58,0,0,1-.174-1.709Z" transform="translate(-215.13 -329.838)" fill="#fff"/>
    <path id="パス_30870" data-name="パス 30870" d="M287.126,440.917a3.081,3.081,0,0,1-1.788-.5c-.09-.052-.184-.105-.286-.159a1.815,1.815,0,0,0-.849-.193,2.222,2.222,0,0,1-1.734-.816,1.949,1.949,0,0,1-.222-2.11l.08-.157a2.191,2.191,0,0,1,1.208-1.077,6.682,6.682,0,0,0,.872-.4l4.086-2.165a2.567,2.567,0,0,1,2.21.406,5.844,5.844,0,0,0,.727.328c3.525,1.156,7.635,2.928,7.193,4.806a1.555,1.555,0,0,1-.742.994c-1.374.838-4.272.3-5.9-.109a15.689,15.689,0,0,0-1.725.459,17.589,17.589,0,0,1-2.658.667c-.173.013-.331.019-.477.019m-4.154-3.6-.08.157a1.22,1.22,0,0,0,.134,1.317,1.506,1.506,0,0,0,1.183.555,2.554,2.554,0,0,1,1.18.276c.11.058.211.115.309.171a2.6,2.6,0,0,0,1.851.383,18.366,18.366,0,0,0,2.507-.638c1.453-.431,1.849-.531,2.081-.474,2.53.633,4.537.707,5.37.2a.844.844,0,0,0,.413-.541c.232-.987-2.4-2.538-6.714-3.952a6.378,6.378,0,0,1-.826-.369c-.554-.278-1.181-.593-1.557-.409l-4.076,2.159a7.466,7.466,0,0,1-.966.439,1.471,1.471,0,0,0-.808.725" transform="translate(-213.995 -328.703)"/>
    <path id="パス_30871" data-name="パス 30871" d="M341.858,355.066c-1.806.019-2.438-1.2-3.586-.734-1,.406-3.884,3.588-6.946,4.228a2.213,2.213,0,0,0-1.737,1.89,3.6,3.6,0,0,0,.088,1.579c.429,1.238.559,2.956,5.694.049a32.786,32.786,0,0,1,3.437-2.16s.316,7.8,5.357.9c.911-1.246,1.212-5.792-2.307-5.755" transform="translate(-250.043 -268.77)" fill="#fff"/>
    <path id="パス_30872" data-name="パス 30872" d="M330.11,362.9a1.938,1.938,0,0,1-.711-.122,2.108,2.108,0,0,1-1.123-1.527c-.026-.081-.052-.161-.079-.24a3.9,3.9,0,0,1-.105-1.744,2.576,2.576,0,0,1,2.022-2.2c2-.418,4-2.029,5.321-3.1A8.2,8.2,0,0,1,337,352.862a2.195,2.195,0,0,1,1.9.234,3.857,3.857,0,0,0,1.823.473,2.9,2.9,0,0,1,2.807,1.6,5.27,5.27,0,0,1-.2,4.729c-1.689,2.31-3.052,3.268-4.168,2.929-1.29-.392-1.68-2.408-1.8-3.446a30.1,30.1,0,0,0-2.9,1.845.369.369,0,0,1-.045.03,10.018,10.018,0,0,1-4.3,1.642m7.544-9.448a1,1,0,0,0-.384.08,8.655,8.655,0,0,0-1.381,1.006c-1.376,1.109-3.455,2.786-5.628,3.24a1.851,1.851,0,0,0-1.452,1.581,3.2,3.2,0,0,0,.071,1.415c.029.083.056.169.084.255.185.572.323.929.7,1.075.7.273,2.17-.22,4.371-1.463a34.42,34.42,0,0,1,3.457-2.172.362.362,0,0,1,.541.3c.032.779.346,3.069,1.33,3.369.435.132,1.452-.038,3.373-2.664a4.578,4.578,0,0,0,.144-3.971,2.19,2.19,0,0,0-2.155-1.209h-.045a4.633,4.633,0,0,1-2.09-.54,2.344,2.344,0,0,0-.935-.3" transform="translate(-248.905 -267.635)"/>
    <path id="パス_30873" data-name="パス 30873" d="M142.2,381.337a.336.336,0,0,1-.049,0c-.612-.082-1.322-.153-2.144-.235-7.165-.718-20.5-2.054-25.135-16.172a.362.362,0,0,1,.688-.226c4.487,13.671,17.519,14.977,24.52,15.678.829.083,1.544.155,2.169.239a.362.362,0,0,1-.048.72" transform="translate(-87.147 -276.528)"/>
    <path id="パス_30874" data-name="パス 30874" d="M335.954,301.467a.362.362,0,0,1-.348-.262l-2.288-7.973-4.027-2.065a.362.362,0,0,1,.33-.644l4.166,2.136a.363.363,0,0,1,.183.222L336.3,301a.362.362,0,0,1-.248.448.35.35,0,0,1-.1.014" transform="translate(-249.702 -220.404)" fill="#99b9ff"/>
    <path id="パス_30875" data-name="パス 30875" d="M356,334.822l-1.065,7.3c-.007.018-.016.034-.022.053-.144.47-.7.839-1.036,1.171-.448.438-.9.888-1.316,1.353a4.727,4.727,0,0,0-1.03,1.53,1.368,1.368,0,0,0-.017,1.126,1.333,1.333,0,0,0,.283.638,2.567,2.567,0,0,0,2.065,1.492l-.22,1.512h-4.628l-2.36-16.178Z" transform="translate(-263.027 -254.048)" fill="#5479f7"/>
    <path id="パス_30876" data-name="パス 30876" d="M336,358.793s3.367-.861,4.256-2.975c1.054-2.506,3.36-1.224,3.091.523a3.691,3.691,0,0,1-1.986,3.021c-1.058.739-1.492.7-1.492.7Z" transform="translate(-254.94 -268.915)" fill="#fff"/>
    <path id="パス_30877" data-name="パス 30877" d="M338.324,359.548a.362.362,0,0,1-.092-.712,6.4,6.4,0,0,0,1.781-.906,3.337,3.337,0,0,0,1.836-2.779,1.3,1.3,0,0,0-.852-1.472c-.6-.169-1.176.259-1.548,1.144-.948,2.254-4.356,3.148-4.5,3.185a.362.362,0,0,1-.179-.7c.032-.008,3.2-.843,4.012-2.764.621-1.478,1.653-1.774,2.412-1.56a2.012,2.012,0,0,1,1.37,2.278,4.017,4.017,0,0,1-2.136,3.263,6.959,6.959,0,0,1-2.012,1.013.369.369,0,0,1-.092.012" transform="translate(-253.801 -267.78)"/>
    <path id="パス_30878" data-name="パス 30878" d="M367.134,371.756a.362.362,0,0,1-.355-.293c-.39-2.009,2.18-3.515,2.289-3.578a.362.362,0,0,1,.361.627c-.022.013-2.232,1.311-1.94,2.813a.362.362,0,0,1-.286.424.377.377,0,0,1-.069.007" transform="translate(-278.265 -279.098)"/>
    <path id="パス_30879" data-name="パス 30879" d="M126.652,263.483l-.949-9.206,7.941,2.643.691,5.395a3.088,3.088,0,0,1-.932,2.439,4.515,4.515,0,0,1-5.179.626l-.393-.194a2.142,2.142,0,0,1-1.178-1.7" transform="translate(-95.378 -192.934)" fill="#fff"/>
    <path id="パス_30880" data-name="パス 30880" d="M129.336,265.142a5.451,5.451,0,0,1-2.41-.576l-.393-.195a2.491,2.491,0,0,1-1.378-1.989l-.949-9.206a.362.362,0,0,1,.474-.38l7.941,2.643a.362.362,0,0,1,.245.3l.691,5.4a3.442,3.442,0,0,1-1.049,2.754,4.434,4.434,0,0,1-3.172,1.257m-4.353-11.483.892,8.649a1.77,1.77,0,0,0,.979,1.415l.393.194a4.171,4.171,0,0,0,4.762-.557,2.753,2.753,0,0,0,.829-2.144l-.662-5.164Z" transform="translate(-94.24 -191.795)"/>
    <path id="パス_30881" data-name="パス 30881" d="M118.519,199.327c-1.986.186.794,1.837-6.806.82-3.026-.405-1.051,2.759-1.836,2.656-2.9-.38-2.8-.37-4.1.193-.863.373-1.2,2.12-.843,3.333.469,1.6,1.88,1.818,3.593,5.091,1.2,2.3,1.219,3.8,2.243,4.01s1.563-1.222,2.712-1.08c1.487.183,1.576,2.7,3.119,3.512.972.513,3.055.5,6.081-1.586a1.245,1.245,0,0,0,.43-1.528c-.31-.7-.707-1.583-1.157-2.394-2.142-3.866-3.739-4.57-3.37-5.712.565-1.75,3.779-1.286,4.087-2.7.32-1.468-1.43-4.869-4.149-4.614" transform="translate(-79.51 -151.23)"/>
    <path id="パス_30882" data-name="パス 30882" d="M137.62,224.317l.722.967a12.385,12.385,0,0,1,.922,1.431c.514.934,1.41,2.534,1.98,3.392.837,1.26,4.91-1.056,4.91-1.056l.134-.877.472-.282a.614.614,0,0,0,.224-.221.59.59,0,0,0-.079-.69,21.253,21.253,0,0,1-3.758-5.4,6.4,6.4,0,0,0-5.527,2.739" transform="translate(-104.42 -168.115)" fill="#fff"/>
    <path id="パス_30883" data-name="パス 30883" d="M141.025,229.7a1.369,1.369,0,0,1-1.221-.531c-.582-.875-1.5-2.517-2-3.417a11.99,11.99,0,0,0-.9-1.389l-.721-.967a.361.361,0,0,1,0-.427,6.71,6.71,0,0,1,5.858-2.889.362.362,0,0,1,.3.221,21.139,21.139,0,0,0,3.69,5.3.952.952,0,0,1,.128,1.112.971.971,0,0,1-.354.355l-.326.195-.108.709a.363.363,0,0,1-.179.26,10.741,10.741,0,0,1-4.169,1.473m-4.093-6.521.561.751a12.722,12.722,0,0,1,.949,1.473c.49.891,1.4,2.512,1.965,3.366.428.645,2.747-.243,4.278-1.085l.107-.7a.363.363,0,0,1,.172-.256l.472-.282a.258.258,0,0,0,.094-.087.227.227,0,0,0-.029-.269,21.95,21.95,0,0,1-3.735-5.3,6.015,6.015,0,0,0-4.833,2.389" transform="translate(-103.281 -166.973)"/>
    <path id="パス_30884" data-name="パス 30884" d="M134.285,242.768s-1.732-2.327-2.617-1.309a1.464,1.464,0,1,0,2.617,1.309" transform="translate(-99.737 -183.013)" fill="#fff"/>
    <path id="パス_30885" data-name="パス 30885" d="M52.1,575.87,34.8,504.1,17.5,575.87H13.356l19.009-79.439,4.876-.007,19.01,79.446Z" transform="translate(-10.134 -376.664)" fill="#fff"/>
    <path id="パス_30886" data-name="パス 30886" d="M55.267,575.092H50.376L33.36,504.5,16.345,575.092H11.454L30.636,494.93l5.447-.008Zm-4.321-.724h3.4L35.512,495.647l-4.305.006L12.371,574.369h3.4L33.36,501.415Z" transform="translate(-8.691 -375.524)"/>
    <rect id="長方形_10580" data-name="長方形 10580" width="136.461" height="6.49" transform="translate(3.132 114.287)" fill="#fff"/>
    <path id="パス_30887" data-name="パス 30887" d="M148.666,479.451H11.481v-7.213H148.666ZM12.2,478.728H147.942v-5.766H12.2Z" transform="translate(-8.711 -358.312)"/>
    <path id="パス_30888" data-name="パス 30888" d="M675.919,432.694a1.941,1.941,0,1,1,1.753-1.1,1.934,1.934,0,0,1-1.753,1.1m.006-3.156a1.221,1.221,0,0,0-1.1.689,1.215,1.215,0,0,0,.569,1.623,1.22,1.22,0,0,0,1.625-.57,1.216,1.216,0,0,0-1.095-1.743" transform="translate(-511.385 -325.364)"/>
    <path id="パス_30889" data-name="パス 30889" d="M651.461,394.578a.362.362,0,0,1-.122-.7,1.2,1.2,0,1,0-1.536-.724.362.362,0,1,1-.681.245,1.926,1.926,0,1,1,2.462,1.161.361.361,0,0,1-.122.021" transform="translate(-492.437 -296.538)"/>
    <path id="パス_30890" data-name="パス 30890" d="M603.1,414.738a.362.362,0,0,1-.254-.62l.784-.771a.362.362,0,0,1,.508.516l-.784.771a.361.361,0,0,1-.254.1" transform="translate(-457.326 -313.55)"/>
    <path id="パス_30891" data-name="パス 30891" d="M587.521,430.044a.362.362,0,0,1-.254-.62l.785-.771a.362.362,0,0,1,.508.516l-.784.771a.361.361,0,0,1-.254.1" transform="translate(-445.509 -325.163)"/>
    <path id="パス_30892" data-name="パス 30892" d="M588.459,414.519a.36.36,0,0,1-.259-.109l-.771-.791a.362.362,0,1,1,.518-.5l.771.791a.362.362,0,0,1-.259.614" transform="translate(-445.636 -313.368)"/>
    <path id="パス_30893" data-name="パス 30893" d="M603.756,430.219a.36.36,0,0,1-.259-.109l-.771-.791a.362.362,0,0,1,.518-.5l.77.791a.362.362,0,0,1-.259.614" transform="translate(-457.243 -325.281)"/>
    <path id="パス_30894" data-name="パス 30894" d="M82.826,83.026a2.063,2.063,0,1,1,1.194-.381h0a2.054,2.054,0,0,1-1.194.381m.985-.676h0Zm-.989-2.729a1.341,1.341,0,1,0,1.1.563,1.335,1.335,0,0,0-1.1-.563" transform="translate(-61.275 -59.864)"/>
    <path id="パス_30895" data-name="パス 30895" d="M15.474,119.034a.362.362,0,0,1-.33-.51A53.315,53.315,0,0,1,29.3,99.62a.362.362,0,1,1,.47.551A52.594,52.594,0,0,0,15.8,118.82a.362.362,0,0,1-.331.214" transform="translate(-11.466 -75.522)"/>
    <path id="パス_30896" data-name="パス 30896" d="M35.593,87.109a.362.362,0,0,1-.327-.517c8.045-16.9,28.194-28.835,28.4-28.953a.362.362,0,0,1,.365.625c-.2.117-20.161,11.944-28.109,28.64a.361.361,0,0,1-.327.207" transform="translate(-26.732 -43.696)"/>
    <path id="パス_30897" data-name="パス 30897" d="M117.264,35.236a.362.362,0,0,1-.254-.62l.784-.771a.362.362,0,0,1,.507.517l-.785.771a.362.362,0,0,1-.254.1" transform="translate(-88.7 -25.602)"/>
    <path id="パス_30898" data-name="パス 30898" d="M101.69,50.543a.362.362,0,0,1-.254-.62l.785-.771a.362.362,0,0,1,.507.516l-.784.771a.36.36,0,0,1-.254.1" transform="translate(-76.883 -37.215)"/>
    <path id="パス_30899" data-name="パス 30899" d="M102.628,35.018a.36.36,0,0,1-.259-.109l-.771-.791a.362.362,0,0,1,.518-.505l.771.791a.362.362,0,0,1-.259.614" transform="translate(-77.01 -25.421)"/>
    <path id="パス_30900" data-name="パス 30900" d="M117.924,50.718a.36.36,0,0,1-.259-.109l-.771-.791a.362.362,0,1,1,.518-.505l.771.791a.362.362,0,0,1-.259.614" transform="translate(-88.616 -37.334)"/>
    <path id="パス_30901" data-name="パス 30901" d="M729.9,671.582c-1.854-3.313-1.624-4.866-1.1-5.672.942-1.435,3.048-.83,3.982-2.388.96-1.6-.78-3.058-.133-5.112.765-2.43,4.563-4.722,7-3.345,2.085,1.177,2.633,4.732,1.394,6.567-1.376,2.038-4.408,1.147-5.262,3.046-.786,1.747,1.375,3.4.683,5.013-.4.926-1.782,1.951-6.57,1.891" transform="translate(-552.696 -496.719)" fill="#99b9ff"/>
    <path id="パス_30902" data-name="パス 30902" d="M731.944,688.739a.358.358,0,0,1-.118-.02.362.362,0,0,1-.223-.46c3.414-9.86,7.9-13.059,8.086-13.19a.362.362,0,0,1,.413.594c-.045.031-4.488,3.223-7.816,12.833a.362.362,0,0,1-.342.243" transform="translate(-555.091 -512.161)" fill="#fff"/>
    <path id="パス_30903" data-name="パス 30903" d="M686.71,560.654a10.082,10.082,0,0,1,1.68-6.127c1.484-2.1,3.128-2.311,3.695-4.335.535-1.913-.717-2.492-.3-4.645.5-2.565,2.469-2.741,2.976-4.853.618-2.57-1.923-3.87-3.2-7.479-1.651-4.668,1.086-6.78.46-11.14-1.016-7.076-9.959-13.6-13.784-11.819-3.607,1.676-3.869,11.292-.955,18.277,3.107,7.447,7.919,7.339,8.619,13.564.483,4.3-1.537,6.822-.5,13.433a28.607,28.607,0,0,0,1.3,5.125" transform="translate(-512.384 -386.934)" fill="#5479f7"/>
    <path id="パス_30904" data-name="パス 30904" d="M703.539,582.352a.362.362,0,0,1-.329-.211c-1.875-4.092-1.118-8.555-.159-14.2a90.521,90.521,0,0,0,1.289-9.987c.611-10.243-7.96-22.651-8.047-22.776a.362.362,0,0,1,.594-.414c.359.515,8.8,12.74,8.176,23.232a91.1,91.1,0,0,1-1.3,10.065c-.938,5.527-1.679,9.893.1,13.782a.362.362,0,0,1-.329.513" transform="translate(-528.266 -405.633)" fill="#99b9ff"/>
    <path id="パス_30905" data-name="パス 30905" d="M634.094,631.775a33.651,33.651,0,0,1-.708-8.367c.237-5.7,1.821-8.129.23-10.26-1.755-2.349-4.708-.776-6.8-3.571-1.426-1.905-.711-3.516-2.67-5.308a5.685,5.685,0,0,0-3.3-1.557c-1.591-.123-2.153.684-4.182,1.392-3.677,1.282-5.316-.154-6.668,1.195a4.435,4.435,0,0,0-.294,5.3c2.15,2.748,7.837-.452,9.97,2.154,1.822,2.225-1.319,5.789.675,8.269,1.8,2.235,5.394.646,6.868,2.985,1.127,1.789-.451,3.55.594,5.415,1.09,1.945,4.089,2.317,6.286,2.356" transform="translate(-462.05 -457.3)" fill="#5479f7"/>
    <path id="パス_30906" data-name="パス 30906" d="M648.334,647.492a.36.36,0,0,1-.221-.076c-1.9-1.472-2.555-3.889-3.54-7.549a73.378,73.378,0,0,0-3.426-10.322c-3.947-9.293-14.712-8.225-14.822-8.213a.362.362,0,1,1-.079-.719c.113-.012,11.412-1.133,15.567,8.65a74.053,74.053,0,0,1,3.459,10.417c.946,3.518,1.571,5.841,3.283,7.164a.362.362,0,0,1-.221.648" transform="translate(-474.922 -470.859)" fill="#fff"/>
    <path id="パス_30907" data-name="パス 30907" d="M690.406,730.437c.308.137,16.166,0,16.166,0l-1.98,16.177a5.259,5.259,0,0,1-10.348.533Z" transform="translate(-523.848 -554.222)" fill="#5479f7"/>
  </g>
</svg>
