<svg xmlns="http://www.w3.org/2000/svg" width="227.416" height="29.876" viewBox="0 0 227.416 29.876">
  <path id="パス_33249" data-name="パス 33249" d="M-101.738-10.08a4.572,4.572,0,0,1,2.744,1.694,4.81,4.81,0,0,1,1.036,3.038A4.828,4.828,0,0,1-99.68-1.442,7.264,7.264,0,0,1-104.482,0h-9.156V-19.656h8.848a7.255,7.255,0,0,1,4.69,1.372,4.538,4.538,0,0,1,1.694,3.724,4.5,4.5,0,0,1-.91,2.884A4.706,4.706,0,0,1-101.738-10.08ZM-108.85-11.7h3.136a2.776,2.776,0,0,0,1.806-.518,1.861,1.861,0,0,0,.63-1.526,1.9,1.9,0,0,0-.63-1.54,2.725,2.725,0,0,0-1.806-.532h-3.136Zm3.528,7.84a2.839,2.839,0,0,0,1.862-.546,1.939,1.939,0,0,0,.658-1.582,2.025,2.025,0,0,0-.686-1.624,2.811,2.811,0,0,0-1.89-.588h-3.472v4.34ZM-86.394.224a8.624,8.624,0,0,1-4.13-.98,7.176,7.176,0,0,1-2.884-2.8,8.367,8.367,0,0,1-1.05-4.256,8.3,8.3,0,0,1,1.064-4.242,7.22,7.22,0,0,1,2.912-2.814,8.706,8.706,0,0,1,4.144-.98,8.706,8.706,0,0,1,4.144.98,7.22,7.22,0,0,1,2.912,2.814,8.3,8.3,0,0,1,1.064,4.242A8.215,8.215,0,0,1-79.3-3.57a7.29,7.29,0,0,1-2.94,2.814A8.789,8.789,0,0,1-86.394.224Zm0-4.144a3.119,3.119,0,0,0,2.338-1.008,4,4,0,0,0,.966-2.884,4.079,4.079,0,0,0-.938-2.884,3.031,3.031,0,0,0-2.31-1.008,3.039,3.039,0,0,0-2.324.994,4.109,4.109,0,0,0-.924,2.9,4.16,4.16,0,0,0,.91,2.884A2.945,2.945,0,0,0-86.394-3.92ZM-69.2-20.72V0H-73.99V-20.72Zm7.56,3.472A2.9,2.9,0,0,1-63.7-17.99a2.4,2.4,0,0,1-.8-1.834,2.436,2.436,0,0,1,.8-1.862,2.9,2.9,0,0,1,2.058-.742,2.864,2.864,0,0,1,2.03.742,2.436,2.436,0,0,1,.8,1.862,2.4,2.4,0,0,1-.8,1.834A2.864,2.864,0,0,1-61.642-17.248Zm2.38,1.624V0H-64.05V-15.624Zm4.2,7.784a9.338,9.338,0,0,1,.91-4.228,6.788,6.788,0,0,1,2.478-2.8,6.469,6.469,0,0,1,3.5-.98,6.148,6.148,0,0,1,2.814.644,5.128,5.128,0,0,1,2,1.736V-20.72h4.788V0h-4.788V-2.24A4.878,4.878,0,0,1-45.276-.448a6.013,6.013,0,0,1-2.9.672,6.4,6.4,0,0,1-3.5-.994A6.869,6.869,0,0,1-54.152-3.6,9.426,9.426,0,0,1-55.062-7.84Zm11.7.028a3.915,3.915,0,0,0-.994-2.828,3.23,3.23,0,0,0-2.422-1.036A3.251,3.251,0,0,0-49.2-10.654,3.865,3.865,0,0,0-50.19-7.84,3.965,3.965,0,0,0-49.2-5a3.209,3.209,0,0,0,2.422,1.05,3.23,3.23,0,0,0,2.422-1.036A3.915,3.915,0,0,0-43.358-7.812Zm24.668-.252a12.223,12.223,0,0,1-.084,1.4H-29.61a3.256,3.256,0,0,0,.938,2.226,2.866,2.866,0,0,0,2.03.77A2.516,2.516,0,0,0-24.15-5.18h5.1a6.993,6.993,0,0,1-1.414,2.772A7.079,7.079,0,0,1-23.03-.476a8.229,8.229,0,0,1-3.444.7,8.38,8.38,0,0,1-4.088-.98,6.971,6.971,0,0,1-2.8-2.8A8.644,8.644,0,0,1-34.37-7.812a8.743,8.743,0,0,1,.994-4.256,6.88,6.88,0,0,1,2.786-2.8,8.439,8.439,0,0,1,4.116-.98,8.355,8.355,0,0,1,4.032.952,6.836,6.836,0,0,1,2.758,2.716A8.244,8.244,0,0,1-18.69-8.064Zm-4.9-1.26a2.462,2.462,0,0,0-.84-1.96,3.092,3.092,0,0,0-2.1-.728,3.033,3.033,0,0,0-2.03.7,3.109,3.109,0,0,0-1.022,1.988ZM-11.158-22.4l-.364,6.188h-3.22l-.364-6.188ZM-.266.224a8.98,8.98,0,0,1-3.64-.7,6.217,6.217,0,0,1-2.52-1.918,5.045,5.045,0,0,1-1.036-2.73H-2.73a1.819,1.819,0,0,0,.756,1.316,2.675,2.675,0,0,0,1.652.5,2.358,2.358,0,0,0,1.386-.35,1.072,1.072,0,0,0,.49-.91,1.05,1.05,0,0,0-.7-.994,14.141,14.141,0,0,0-2.268-.714,21.293,21.293,0,0,1-2.8-.826A4.838,4.838,0,0,1-6.146-8.47,3.739,3.739,0,0,1-6.958-11a4.3,4.3,0,0,1,.742-2.45A5,5,0,0,1-4.032-15.2,8.363,8.363,0,0,1-.6-15.848a6.876,6.876,0,0,1,4.634,1.456,5.665,5.665,0,0,1,1.946,3.864H1.554A1.907,1.907,0,0,0,.84-11.816a2.477,2.477,0,0,0-1.582-.476,2.187,2.187,0,0,0-1.288.322,1.028,1.028,0,0,0-.448.882,1.077,1.077,0,0,0,.714,1.008,11.436,11.436,0,0,0,2.226.672,24.352,24.352,0,0,1,2.828.882,4.878,4.878,0,0,1,1.918,1.4,3.961,3.961,0,0,1,.854,2.59,4.111,4.111,0,0,1-.77,2.45A5.093,5.093,0,0,1,3.08-.392,8.46,8.46,0,0,1-.266.224Zm30.884-19.88V-6.272a6.327,6.327,0,0,1-1.75,4.788A6.527,6.527,0,0,1,24.15.2a6.98,6.98,0,0,1-4.984-1.764A6.546,6.546,0,0,1,17.29-6.58h4.76a2.933,2.933,0,0,0,.5,1.862,1.755,1.755,0,0,0,1.456.63,1.667,1.667,0,0,0,1.344-.56,2.443,2.443,0,0,0,.476-1.624V-19.656ZM35.21-7.84a9.338,9.338,0,0,1,.91-4.228,6.788,6.788,0,0,1,2.478-2.8,6.469,6.469,0,0,1,3.5-.98,6.013,6.013,0,0,1,2.9.672,4.95,4.95,0,0,1,1.918,1.764v-2.212H51.7V0H46.914V-2.212A5.17,5.17,0,0,1,44.968-.448a6.013,6.013,0,0,1-2.9.672A6.353,6.353,0,0,1,38.6-.77,6.869,6.869,0,0,1,36.12-3.6,9.426,9.426,0,0,1,35.21-7.84Zm11.7.028a3.915,3.915,0,0,0-.994-2.828A3.23,3.23,0,0,0,43.5-11.676a3.251,3.251,0,0,0-2.422,1.022,3.865,3.865,0,0,0-.994,2.814A3.965,3.965,0,0,0,41.076-5,3.209,3.209,0,0,0,43.5-3.948,3.23,3.23,0,0,0,45.92-4.984,3.915,3.915,0,0,0,46.914-7.812Zm14.728-5.6a5.2,5.2,0,0,1,1.932-1.764,5.931,5.931,0,0,1,2.884-.672,6.469,6.469,0,0,1,3.5.98,6.788,6.788,0,0,1,2.478,2.8,9.338,9.338,0,0,1,.91,4.228,9.426,9.426,0,0,1-.91,4.242A6.869,6.869,0,0,1,69.958-.77a6.4,6.4,0,0,1-3.5.994,5.952,5.952,0,0,1-2.87-.672,5.261,5.261,0,0,1-1.946-1.736V7.448H56.854V-15.624h4.788ZM68.474-7.84a3.865,3.865,0,0,0-.994-2.814,3.283,3.283,0,0,0-2.45-1.022,3.23,3.23,0,0,0-2.422,1.036,3.915,3.915,0,0,0-.994,2.828,3.915,3.915,0,0,0,.994,2.828A3.229,3.229,0,0,0,65.03-3.948,3.253,3.253,0,0,0,67.466-5,3.932,3.932,0,0,0,68.474-7.84Zm8.12,0a9.338,9.338,0,0,1,.91-4.228,6.788,6.788,0,0,1,2.478-2.8,6.469,6.469,0,0,1,3.5-.98,6.013,6.013,0,0,1,2.9.672A4.95,4.95,0,0,1,88.3-13.412v-2.212h4.788V0H88.3V-2.212A5.17,5.17,0,0,1,86.352-.448a6.013,6.013,0,0,1-2.9.672A6.353,6.353,0,0,1,79.982-.77,6.869,6.869,0,0,1,77.5-3.6,9.426,9.426,0,0,1,76.594-7.84Zm11.7.028A3.915,3.915,0,0,0,87.3-10.64a3.23,3.23,0,0,0-2.422-1.036,3.251,3.251,0,0,0-2.422,1.022,3.865,3.865,0,0,0-.994,2.814A3.965,3.965,0,0,0,82.46-5a3.209,3.209,0,0,0,2.422,1.05A3.23,3.23,0,0,0,87.3-4.984,3.915,3.915,0,0,0,88.3-7.812Zm19.46-7.98a5.67,5.67,0,0,1,4.382,1.778,6.935,6.935,0,0,1,1.638,4.886V0h-4.76V-8.484a3.429,3.429,0,0,0-.812-2.436,2.847,2.847,0,0,0-2.184-.868,2.847,2.847,0,0,0-2.184.868,3.429,3.429,0,0,0-.812,2.436V0H98.238V-15.624h4.788v2.072a5.051,5.051,0,0,1,1.96-1.638A6.231,6.231,0,0,1,107.758-15.792Z" transform="translate(113.638 22.428)" fill="#333"/>
</svg>
