<svg xmlns="http://www.w3.org/2000/svg" xmlns:xlink="http://www.w3.org/1999/xlink" width="184" height="184" viewBox="0 0 184 184">
  <defs>
    <clipPath id="clip-path">
      <rect id="長方形_1142" data-name="長方形 1142" width="170.265" height="23" fill="#211a18"/>
    </clipPath>
  </defs>
  <g id="グループ_6404" data-name="グループ 6404" transform="translate(-986 -7516)">
    <g id="長方形_10353" data-name="長方形 10353" transform="translate(986 7516)" fill="#fff" stroke="#5096ff" stroke-width="4">
      <rect width="184" height="184" stroke="none"/>
      <rect x="2" y="2" width="180" height="180" fill="none"/>
    </g>
    <g id="グループ_6204" data-name="グループ 6204" transform="translate(992.868 7596.5)">
      <g id="グループ_1353" data-name="グループ 1353" transform="translate(0 0)" clip-path="url(#clip-path)">
        <path id="パス_29081" data-name="パス 29081" d="M32.507,0H28.153V.127a14.775,14.775,0,0,1,4.7,1.008c2.241.961,7.8,4.24,7.8,10.364s-5.548,9.44-7.8,10.365a16.775,16.775,0,0,1-4.7,1.011V23l4.145-.059c6.35,0,12.06-5.089,12.06-11.441S39.085.181,32.507,0" transform="translate(-1.629 0)" fill="#a58b57"/>
        <path id="パス_29082" data-name="パス 29082" d="M9.306,17.94,17.692,0h6.193V.106C20.842.46,20.453,1.663,20.523,4.14l.141,13.588c.142,3.786.248,4.847,3.361,5.166V23H14.614v-.106c2.9-.283,3.007-1.379,2.972-5.166l.035-14.437C14.72,9.766,10.05,19.886,8.811,23h-.92C6.688,19.78,2.69,10.049,0,3.644Z" transform="translate(0 0)" fill="#211a18"/>
        <path id="パス_29083" data-name="パス 29083" d="M63.941,8.835v7.914h-.8V10.418l-3.109,5.325h-.4l-3.109-5.291v6.3h-.8V8.835h.691L59.848,14.7l3.4-5.868Z" transform="translate(-3.225 -0.511)" fill="#211a18"/>
        <path id="パス_29084" data-name="パス 29084" d="M77.053,11.457a2.25,2.25,0,0,1,.622,1.724v3.686h-.768V15.94a1.843,1.843,0,0,1-.8.724,2.784,2.784,0,0,1-1.249.26,2.448,2.448,0,0,1-1.583-.475,1.634,1.634,0,0,1-.039-2.476,2.682,2.682,0,0,1,1.747-.464h1.888v-.362a1.527,1.527,0,0,0-.43-1.17,1.777,1.777,0,0,0-1.256-.4,3.185,3.185,0,0,0-1.084.187,2.74,2.74,0,0,0-.894.514l-.361-.6a3.194,3.194,0,0,1,1.084-.594,4.23,4.23,0,0,1,1.334-.209,2.516,2.516,0,0,1,1.786.582m-.9,4.522a1.856,1.856,0,0,0,.724-.9v-.972H75.007q-1.526,0-1.525,1.063a.97.97,0,0,0,.4.82,1.8,1.8,0,0,0,1.108.3,2.118,2.118,0,0,0,1.164-.311" transform="translate(-4.207 -0.629)" fill="#211a18"/>
        <path id="パス_29085" data-name="パス 29085" d="M88.124,11.18a2.866,2.866,0,0,1,1.386-.305v.78l-.192-.011a1.9,1.9,0,0,0-1.47.577,2.293,2.293,0,0,0-.531,1.617v3.03h-.8V10.92h.768v1.164a1.95,1.95,0,0,1,.842-.9" transform="translate(-5.007 -0.629)" fill="#211a18"/>
        <path id="パス_29086" data-name="パス 29086" d="M98.392,16.539a2.786,2.786,0,0,1-1.09-1.08,3.11,3.11,0,0,1-.4-1.566,3.079,3.079,0,0,1,.4-1.56,2.8,2.8,0,0,1,1.09-1.074,3.218,3.218,0,0,1,1.578-.384,3.054,3.054,0,0,1,1.374.3,2.279,2.279,0,0,1,.954.876l-.6.407a1.875,1.875,0,0,0-.746-.661,2.217,2.217,0,0,0-.984-.22,2.329,2.329,0,0,0-1.159.288,2.02,2.02,0,0,0-.8.82,2.694,2.694,0,0,0,0,2.425,2.029,2.029,0,0,0,.8.814,2.329,2.329,0,0,0,1.159.288,2.266,2.266,0,0,0,.984-.215,1.832,1.832,0,0,0,.746-.656l.6.407a2.271,2.271,0,0,1-.96.876,3.064,3.064,0,0,1-1.368.3,3.208,3.208,0,0,1-1.578-.384" transform="translate(-5.609 -0.629)" fill="#211a18"/>
        <path id="パス_29087" data-name="パス 29087" d="M115.324,11.378a2.539,2.539,0,0,1,.66,1.894V16.72h-.8V13.351a1.967,1.967,0,0,0-.464-1.413,1.74,1.74,0,0,0-1.323-.486,2.028,2.028,0,0,0-1.52.571,2.153,2.153,0,0,0-.56,1.577v3.12h-.8V8.331h.8v3.482a2.174,2.174,0,0,1,.9-.8,2.971,2.971,0,0,1,1.323-.283,2.434,2.434,0,0,1,1.782.65" transform="translate(-6.396 -0.482)" fill="#211a18"/>
        <path id="パス_29088" data-name="パス 29088" d="M130,14.142H125.02a2.13,2.13,0,0,0,.713,1.5,2.364,2.364,0,0,0,1.627.571,2.562,2.562,0,0,0,1.017-.2,2.215,2.215,0,0,0,.8-.582l.452.52a2.543,2.543,0,0,1-.988.724,3.346,3.346,0,0,1-1.306.249,3.3,3.3,0,0,1-1.623-.39,2.818,2.818,0,0,1-1.1-1.08,3.088,3.088,0,0,1-.4-1.56,3.187,3.187,0,0,1,.38-1.56,2.734,2.734,0,0,1,1.039-1.074,2.906,2.906,0,0,1,1.487-.384,2.877,2.877,0,0,1,1.482.384,2.722,2.722,0,0,1,1.028,1.068,3.217,3.217,0,0,1,.374,1.566Zm-4.313-2.029a2.159,2.159,0,0,0-.662,1.43h4.217a2.157,2.157,0,0,0-.66-1.43,2.184,2.184,0,0,0-2.894,0" transform="translate(-7.19 -0.629)" fill="#211a18"/>
        <path id="パス_29089" data-name="パス 29089" d="M147.858,8.835h3.222a4.7,4.7,0,0,1,2.215.5,3.671,3.671,0,0,1,1.492,1.4,3.947,3.947,0,0,1,.532,2.052,3.947,3.947,0,0,1-.532,2.052,3.671,3.671,0,0,1-1.492,1.4,4.7,4.7,0,0,1-2.215.5h-3.222Zm3.177,7.19a3.84,3.84,0,0,0,1.82-.413,3.01,3.01,0,0,0,1.21-1.142,3.245,3.245,0,0,0,.43-1.679,3.245,3.245,0,0,0-.43-1.679,3.01,3.01,0,0,0-1.21-1.142,3.84,3.84,0,0,0-1.82-.413h-2.34v6.467Z" transform="translate(-8.558 -0.511)" fill="#211a18"/>
        <path id="パス_29090" data-name="パス 29090" d="M164.65,16.533a2.836,2.836,0,0,1-1.084-1.08,3.267,3.267,0,0,1,0-3.12,2.8,2.8,0,0,1,1.084-1.074,3.313,3.313,0,0,1,3.1,0,2.761,2.761,0,0,1,1.081,1.074,3.315,3.315,0,0,1,0,3.12,2.8,2.8,0,0,1-1.081,1.08,3.27,3.27,0,0,1-3.1,0m2.686-.61a2.022,2.022,0,0,0,.786-.82,2.738,2.738,0,0,0,0-2.419,2.022,2.022,0,0,0-.786-.82,2.383,2.383,0,0,0-2.272,0,2.035,2.035,0,0,0-.791.82,2.674,2.674,0,0,0,0,2.419,2.035,2.035,0,0,0,.791.82,2.383,2.383,0,0,0,2.272,0" transform="translate(-9.444 -0.629)" fill="#211a18"/>
        <path id="パス_29091" data-name="パス 29091" d="M179.156,11.18a2.862,2.862,0,0,1,1.385-.305v.78l-.191-.011a1.9,1.9,0,0,0-1.471.577,2.3,2.3,0,0,0-.531,1.617v3.03h-.8V10.92h.769v1.164a1.945,1.945,0,0,1,.842-.9" transform="translate(-10.276 -0.629)" fill="#211a18"/>
      </g>
    </g>
  </g>
</svg>
