<svg id="グループ_6373" data-name="グループ 6373" xmlns="http://www.w3.org/2000/svg" xmlns:xlink="http://www.w3.org/1999/xlink" width="200" height="200.323" viewBox="0 0 200 200.323">
  <defs>
    <clipPath id="clip-path">
      <rect id="長方形_10592" data-name="長方形 10592" width="200" height="200.323" fill="none"/>
    </clipPath>
  </defs>
  <g id="グループ_6372" data-name="グループ 6372" clip-path="url(#clip-path)">
    <path id="パス_31085" data-name="パス 31085" d="M16.818,102.668c15.305-15.6-10.4-44-3.228-65,9.653-28.27,85.046-53.178,137.9-22.4,44.264,25.774,59.634,83.788,40.3,107.238-5.788,7.018-12.99,8.885-22.449,16.225-8.8,6.827-9.79,8.57-10.424,9.757-6.258,11.725,6.9,22.015,4.255,32.072-4.185,15.889-46.038,24.366-81.038,18.988-9.438-1.45-57.266-9.883-74.858-44.918-1.361-2.711-14.241-28.9-2.121-43.462,4.2-5.051,7.584-4.344,11.665-8.5" transform="translate(0 -0.844)" fill="#caddff"/>
    <path id="パス_31086" data-name="パス 31086" d="M289.356,501.384l-34.419.217c-.223,0-.3.208-.3.408v29.4c0,2.815-19.556,10.128-19.747,9.756l-.024,3.111a1.133,1.133,0,0,0,1.152,1.093h29.3a10.055,10.055,0,0,0,3.874-.81l15.867-6.707a7.3,7.3,0,0,0,4.658-6.629V501.792a.388.388,0,0,0-.363-.408" transform="translate(-178.207 -380.423)" fill="#99b9ff"/>
    <path id="パス_31087" data-name="パス 31087" d="M252.377,494.5v29.4a7.51,7.51,0,0,1-4.778,6.791l-10.7,4.586a.645.645,0,0,0,.314,1.24h29.409a9.844,9.844,0,0,0,3.825-.768L282.3,530.74a7.515,7.515,0,0,0,4.818-6.808V494.5a.232.232,0,0,0-.243-.218H252.621a.232.232,0,0,0-.243.218" transform="translate(-179.429 -375.033)" fill="#fff"/>
    <path id="パス_31088" data-name="パス 31088" d="M265.479,535.744H236.071A1.061,1.061,0,0,1,235,534.92a.984.984,0,0,1,.614-1.11l10.7-4.586a7.186,7.186,0,0,0,4.559-6.458V493.36a.594.594,0,0,1,.605-.58h34.256a.594.594,0,0,1,.605.58v29.434a7.907,7.907,0,0,1-5.039,7.142l-11.859,5.013a10.275,10.275,0,0,1-3.966.8M251.6,493.5v29.261a7.907,7.907,0,0,1-5,7.123l-10.7,4.586a.26.26,0,0,0-.19.3.336.336,0,0,0,.362.247h29.408a9.545,9.545,0,0,0,3.684-.739l11.859-5.013a7.186,7.186,0,0,0,4.6-6.475V493.5Z" transform="translate(-178.29 -373.895)"/>
    <path id="パス_31089" data-name="パス 31089" d="M36.522,251.433l148.355.334a2.8,2.8,0,0,0,2.758-2.275L199.487,156.7a3.9,3.9,0,0,0-3.692-4.448l-146.634.778Z" transform="translate(-27.711 -115.523)" fill="#5479f7"/>
    <path id="パス_31090" data-name="パス 31090" d="M175.117,153.61a4.8,4.8,0,0,1,4.531,5.146l-11.7,91.74a3,3,0,0,1-2.845,2.392L19.37,252.65a2.412,2.412,0,0,1-2.4-2.851l12.12-93.441c.166-1.3,1.019-2.748,2.317-2.748Z" transform="translate(-12.859 -116.551)" fill="#99b9ff"/>
    <path id="パス_31091" data-name="パス 31091" d="M19.22,252.654a2.938,2.938,0,0,1-2.2-1,2.971,2.971,0,0,1-.715-2.34l2.965-22.924a.362.362,0,1,1,.717.093l-2.965,22.923a2.248,2.248,0,0,0,.541,1.77,2.214,2.214,0,0,0,1.66.752l145.632-.265a2.458,2.458,0,0,0,2.314-2.089l11.758-91.724a3.916,3.916,0,0,0-.942-3.085,3.861,3.861,0,0,0-2.9-1.312H149.508a.362.362,0,0,1,0-.724h25.578a4.585,4.585,0,0,1,3.439,1.558,4.64,4.64,0,0,1,1.117,3.655l-11.758,91.724a3.17,3.17,0,0,1-3.032,2.721Z" transform="translate(-12.35 -115.884)"/>
    <path id="パス_31092" data-name="パス 31092" d="M97.9,221.961a1.369,1.369,0,0,1,1.355-1.2H219.223a2.25,2.25,0,0,1,2.222,2.543l-9.517,71.623a1.369,1.369,0,0,1-1.355,1.2H89.446a1.238,1.238,0,0,1-1.224-1.4Z" transform="translate(-66.93 -167.502)" fill="#fff"/>
    <path id="パス_31093" data-name="パス 31093" d="M271.045,245.946H181.994a2.137,2.137,0,0,1-2.113-2.422l2.811-21.815h93.352l-2.885,22.378a2.135,2.135,0,0,1-2.113,1.859" transform="translate(-136.47 -168.221)" fill="#caddff"/>
    <path id="パス_31094" data-name="パス 31094" d="M246.04,220.762a2.249,2.249,0,0,1,2.221,2.543l-1.03,6.013-123.676-.02,1.157-7.337a1.369,1.369,0,0,1,1.355-1.2Z" transform="translate(-93.747 -167.502)" fill="#5479f7"/>
    <path id="パス_31095" data-name="パス 31095" d="M102.762,265.464a.362.362,0,0,1-.359-.409l5.9-44.417a1.735,1.735,0,0,1,1.714-1.513l97.808-.044a.362.362,0,0,1,0,.724l-97.809.044a1.01,1.01,0,0,0-1,.883l-5.9,44.419a.362.362,0,0,1-.358.314" transform="translate(-77.695 -166.226)"/>
    <path id="パス_31096" data-name="パス 31096" d="M305.462,532.378H259.369a.362.362,0,0,1,0-.724h46.093a.362.362,0,0,1,0,.724" transform="translate(-196.521 -403.391)"/>
    <path id="パス_31097" data-name="パス 31097" d="M604.016,460.951a.386.386,0,0,1-.05,0,.362.362,0,0,1-.309-.408l1.523-11.109a.362.362,0,0,1,.717.1l-1.523,11.109a.362.362,0,0,1-.358.313" transform="translate(-458.02 -340.766)"/>
    <path id="パス_31098" data-name="パス 31098" d="M595.143,243.808a.33.33,0,0,1-.048,0,.361.361,0,0,1-.31-.407l2.852-21.279a1.9,1.9,0,0,0-.458-1.5,1.873,1.873,0,0,0-1.405-.637h-10.92a.362.362,0,0,1,0-.724h10.92a2.6,2.6,0,0,1,1.948.882,2.628,2.628,0,0,1,.633,2.069L595.5,243.494a.362.362,0,0,1-.358.314" transform="translate(-443.48 -166.364)"/>
    <path id="パス_31099" data-name="パス 31099" d="M215.531,306.63H204.71a1.754,1.754,0,0,1-1.735-1.987l1.437-10.894a1.752,1.752,0,0,1,1.735-1.526h10.821a1.755,1.755,0,0,1,1.735,1.987L217.266,305.1a1.752,1.752,0,0,1-1.735,1.526" transform="translate(-153.995 -221.722)" fill="#99b9ff"/>
    <path id="パス_31100" data-name="パス 31100" d="M206.737,414.3a1.43,1.43,0,0,0-1.415-1.613h-44.35a1.432,1.432,0,0,0,0,2.864h44.35a1.428,1.428,0,0,0,1.415-1.25" transform="translate(-121.055 -313.125)" fill="#caddff"/>
    <path id="パス_31101" data-name="パス 31101" d="M232.251,235a1.43,1.43,0,0,0-1.415-1.613h-44.35a1.432,1.432,0,0,0,0,2.864h44.35a1.428,1.428,0,0,0,1.415-1.25" transform="translate(-140.414 -177.083)" fill="#caddff"/>
    <path id="パス_31102" data-name="パス 31102" d="M546.819,235a1.43,1.43,0,0,0-1.415-1.613h-4.049a1.432,1.432,0,0,0,0,2.864H545.4a1.428,1.428,0,0,0,1.415-1.25" transform="translate(-409.669 -177.083)" fill="#caddff"/>
    <path id="パス_31103" data-name="パス 31103" d="M198.291,482.129a1.43,1.43,0,0,0-1.415-1.613h-44.35a1.432,1.432,0,0,0,0,2.864h44.35a1.428,1.428,0,0,0,1.415-1.25" transform="translate(-114.647 -364.59)" fill="#caddff"/>
    <path id="パス_31104" data-name="パス 31104" d="M212.273,446.6H156.75a1.432,1.432,0,0,0,0,2.864h55.523a1.432,1.432,0,0,0,0-2.864" transform="translate(-117.851 -338.858)" fill="#caddff"/>
    <path id="パス_31105" data-name="パス 31105" d="M220.843,378.773H165.2a1.432,1.432,0,0,0,0,2.864h55.648a1.432,1.432,0,0,0,0-2.864" transform="translate(-124.259 -287.393)" fill="#caddff"/>
    <path id="パス_31106" data-name="パス 31106" d="M444.507,389.891h-.835a1.726,1.726,0,0,1-1.707-1.964l3.41-24.846a1.731,1.731,0,0,1,1.707-1.492h19.041a1.726,1.726,0,0,1,1.707,1.964l-.076.556a.362.362,0,0,1-.717-.1l.076-.556a1.008,1.008,0,0,0-.238-.8,1,1,0,0,0-.751-.342H447.082a1,1,0,0,0-.99.867l-3.41,24.846a1.008,1.008,0,0,0,.238.8,1,1,0,0,0,.751.342h.835a.362.362,0,0,1,0,.724" transform="translate(-335.327 -274.354)"/>
    <path id="パス_31107" data-name="パス 31107" d="M477.4,405.08H458.187a1.28,1.28,0,0,1-1.265-1.456l3.433-25.016a1.278,1.278,0,0,1,1.265-1.107h19.212a1.28,1.28,0,0,1,1.264,1.456l-3.433,25.016a1.278,1.278,0,0,1-1.265,1.107" transform="translate(-346.679 -286.428)" fill="#99b9ff"/>
    <path id="パス_31108" data-name="パス 31108" d="M14.652,118.378a1.369,1.369,0,0,1,1.355-1.2H135.98a2.25,2.25,0,0,1,2.222,2.543l-9.517,71.623a1.369,1.369,0,0,1-1.355,1.2H6.2a1.238,1.238,0,0,1-1.224-1.4Z" transform="translate(-3.77 -88.909)" fill="#fff"/>
    <path id="パス_31109" data-name="パス 31109" d="M162.8,117.179a2.249,2.249,0,0,1,2.221,2.543l-1.03,6.013-123.676-.02,1.157-7.337a1.369,1.369,0,0,1,1.355-1.2Z" transform="translate(-30.587 -88.909)" fill="#99b9ff"/>
    <path id="パス_31110" data-name="パス 31110" d="M149.008,131.419a1.43,1.43,0,0,0-1.415-1.613h-44.35a1.432,1.432,0,0,0,0,2.864h44.35a1.428,1.428,0,0,0,1.415-1.25" transform="translate(-77.254 -98.49)" fill="#caddff"/>
    <path id="パス_31111" data-name="パス 31111" d="M463.577,131.419a1.43,1.43,0,0,0-1.415-1.613h-4.049a1.432,1.432,0,0,0,0,2.864h4.049a1.428,1.428,0,0,0,1.415-1.25" transform="translate(-346.509 -98.49)" fill="#caddff"/>
    <path id="パス_31112" data-name="パス 31112" d="M126.192,191.768H5.066a1.6,1.6,0,0,1-1.583-1.813l9.673-72.763a1.735,1.735,0,0,1,1.713-1.514H134.842a2.6,2.6,0,0,1,1.948.882,2.626,2.626,0,0,1,.632,2.069l-9.517,71.625a1.734,1.734,0,0,1-1.713,1.514M14.87,116.4a1.01,1.01,0,0,0-1,.883v0L4.2,190.05a.88.88,0,0,0,.21.7.869.869,0,0,0,.655.3H126.192a1.009,1.009,0,0,0,1-.883l9.517-71.625a1.9,1.9,0,0,0-.458-1.5,1.872,1.872,0,0,0-1.405-.637Zm-1.354.837h0Z" transform="translate(-2.632 -87.77)"/>
    <path id="パス_31113" data-name="パス 31113" d="M205.605,33.506s-1.146-9.622,5.236-13c6.147-3.256,13.3,2.9,13.3,2.9Z" transform="translate(-155.942 -14.836)" fill="#fff"/>
    <path id="パス_31114" data-name="パス 31114" d="M204.442,32.695a.362.362,0,0,1-.359-.319c-.048-.4-1.1-9.908,5.426-13.365,6.293-3.334,13.4,2.692,13.7,2.951a.362.362,0,0,1-.063.592l-18.535,10.1a.362.362,0,0,1-.173.044m9.129-13.944a7.85,7.85,0,0,0-3.724.9c-5.238,2.774-5.208,10.052-5.089,12.1l17.565-9.569c-1.206-.918-4.863-3.429-8.753-3.429" transform="translate(-154.779 -13.664)"/>
    <path id="パス_31115" data-name="パス 31115" d="M146.672,40.866c2.55,4.329,16.436.877,31.014-7.711S202.014,14.1,199.464,9.767s-16.436-.877-31.014,7.711-24.328,19.059-21.778,23.389" transform="translate(-110.98 -5.993)" fill="#fff"/>
    <path id="パス_31116" data-name="パス 31116" d="M150.481,41.96c-2.588,0-4.429-.659-5.245-2.045-2.692-4.571,6.93-15.062,21.906-23.884S195.958,3.877,198.65,8.447c1.322,2.244-.281,5.983-4.512,10.528a79.759,79.759,0,0,1-17.393,13.356c-10.434,6.147-20.318,9.628-26.264,9.628m-4.622-2.413c2.4,4.081,16.38.49,30.518-7.839a79.06,79.06,0,0,0,17.231-13.226c3.937-4.228,5.547-7.751,4.419-9.667-2.4-4.081-16.379-.49-30.518,7.839s-24.053,18.813-21.65,22.893" transform="translate(-109.855 -4.858)"/>
    <path id="パス_31117" data-name="パス 31117" d="M90.96,67.795c-1.841,9.369-29.517,34.8-34.455,29.918-6.847,4.658-15.578,3.9-20.289-.956C30.447,90.814,31.253,79.3,39.679,73.07c-7.321-1.407-9.443-7.207-9.036-11.88.524-6.02,5.779-10.774,13.476-10.88,14.83-.2,19.706,14.221,29.525,11.986,6.744.383,5.1-17.107,16.252-19.977,5.987-1.54,9.053,1.041,8.9,4.039-.26,5.261-4.02,4.335-6.547,10.6-1.883,4.669-.446,6.527-1.293,10.833" transform="translate(-23.213 -31.761)"/>
    <path id="パス_31118" data-name="パス 31118" d="M489.3,95.965l5.391-5.276c.914-.895,2.441.008,1.862,1.1l-1.667,3.147a7.27,7.27,0,0,0,1.68.435,4.6,4.6,0,0,0,3.254-1.338c.982-.965,2.571-2.5,3.107-2.884a6.945,6.945,0,0,1,2.958-1.572l.034,0a1.263,1.263,0,0,1,1.3,1.952l-2.252,3.22A14.788,14.788,0,0,1,498.139,100l-7.254,2.792-.649,18.689-10.93-6.4,5.852-12.217a19.734,19.734,0,0,1,4.138-6.9" transform="translate(-363.672 -67.956)" fill="#fff"/>
    <path id="パス_31119" data-name="パス 31119" d="M489.1,120.7a.362.362,0,0,1-.183-.05l-10.93-6.4a.362.362,0,0,1-.143-.469l5.842-12.2a20,20,0,0,1,4.206-7l.014-.014,5.391-5.276a1.585,1.585,0,0,1,2.064-.158,1.275,1.275,0,0,1,.371,1.686l-1.47,2.776a5.033,5.033,0,0,0,1.169.275,4.191,4.191,0,0,0,2.994-1.234c1.141-1.121,2.614-2.537,3.15-2.921.11-.078.224-.163.342-.25a6.16,6.16,0,0,1,2.786-1.388l.038,0a1.741,1.741,0,0,1,1.72.811,1.545,1.545,0,0,1-.088,1.708l-2.252,3.22a15.052,15.052,0,0,1-6.99,5.386l-7.03,2.706-.64,18.449a.362.362,0,0,1-.362.35M478.64,113.8l10.119,5.928.628-18.082a.362.362,0,0,1,.232-.325l7.253-2.792a14.325,14.325,0,0,0,6.657-5.125l2.252-3.22a.827.827,0,0,0,.058-.925,1.028,1.028,0,0,0-1.021-.459l-.036,0a5.633,5.633,0,0,0-2.435,1.25c-.121.09-.238.176-.351.256-.383.274-1.5,1.312-3.064,2.848a4.957,4.957,0,0,1-3.513,1.442,7.279,7.279,0,0,1-1.8-.458.362.362,0,0,1-.191-.508l1.667-3.147a.563.563,0,0,0-.165-.767.863.863,0,0,0-1.125.1l-5.384,5.269a19.267,19.267,0,0,0-4.056,6.762.325.325,0,0,1-.016.039Zm5.382-12.073h0Z" transform="translate(-362.535 -66.817)"/>
    <path id="パス_31120" data-name="パス 31120" d="M458.654,182.725,478.668,196l-9.225,11.035L452.087,192.32Z" transform="translate(-343.019 -138.642)" fill="#fff"/>
    <path id="パス_31121" data-name="パス 31121" d="M468.3,206.256a.361.361,0,0,1-.234-.086l-17.356-14.713a.362.362,0,0,1-.065-.481l6.567-9.6a.362.362,0,0,1,.5-.1l20.014,13.274a.362.362,0,0,1,.077.533l-9.225,11.035a.362.362,0,0,1-.247.128H468.3m-16.873-15.14,16.829,14.266,8.732-10.445-19.38-12.853Z" transform="translate(-341.881 -137.503)"/>
    <path id="パス_31122" data-name="パス 31122" d="M393.267,202.741l-20.952-15.352s-1.564,3.838-5.16,3.678c-4.876.662-21.129-10.2-21.129-10.2l-.518,27.056s22.116,30.645,47.76-5.177" transform="translate(-262.152 -137.228)" fill="#5479f7"/>
    <path id="パス_31123" data-name="パス 31123" d="M152.854,203.265c-2.579,12.01-5.446,17.55-7.413,25.676h57.112a4.516,4.516,0,0,0,.174-.778c.454-3.51.492-9.686-1.065-20.449-.8-5.509-.343-23.906-4.687-35.026a9.912,9.912,0,0,0-8.037-5.972c-5.517-.769-15.238-3.788-30.585,1.971,0,0-7.523,4.138-8.016,9.71-.537,6.069,4.255,16.776,2.517,24.87" transform="translate(-110.353 -125.373)" fill="#5479f7"/>
    <path id="パス_31124" data-name="パス 31124" d="M68.29,307.155l6.222,10.97L55.315,332.7s-6.749-12.163-7.407-16.285Z" transform="translate(-36.35 -233.053)" fill="#fff"/>
    <path id="パス_31125" data-name="パス 31125" d="M54.178,331.921a.371.371,0,0,1-.075-.008.362.362,0,0,1-.242-.179c-.277-.5-6.787-12.266-7.448-16.4a.362.362,0,0,1,.208-.386L67,305.687a.361.361,0,0,1,.464.151l6.222,10.97a.361.361,0,0,1-.1.467L54.4,331.847a.36.36,0,0,1-.219.074m-7-16.434c.786,3.825,6.018,13.523,7.116,15.531L72.9,316.889,67,306.482Z" transform="translate(-35.212 -231.914)"/>
    <path id="パス_31126" data-name="パス 31126" d="M74.991,186.529,62.049,193.3c-2.731,1.428-3.915,4.413-2.737,6.9l.386.814L33.686,213.431a34.144,34.144,0,0,1,.184-21.545c6.96-19.177,50.922-25.332,50.922-25.332Z" transform="translate(-24.295 -126.372)" fill="#5479f7"/>
    <path id="パス_31127" data-name="パス 31127" d="M236.946,114.979l-.144,10.545,4.217,2.579a1.487,1.487,0,0,1,.111,2.9,28.891,28.891,0,0,1-22.964-.825l8.025-3.409,4.176-14.374Z" transform="translate(-165.533 -85.276)" fill="#fff"/>
    <path id="パス_31128" data-name="パス 31128" d="M229.407,132.2a29.328,29.328,0,0,1-12.532-2.832.362.362,0,0,1,.012-.661l7.867-3.342,4.129-14.21a.362.362,0,0,1,.48-.235l6.578,2.588a.362.362,0,0,1,.229.342l-.141,10.339,3.994,2.442a1.829,1.829,0,0,1,1.424,1.633,1.946,1.946,0,0,1-1.324,1.94,30.017,30.017,0,0,1-10.715,2m-11.478-3.15a28.723,28.723,0,0,0,21.932.477,1.236,1.236,0,0,0,.862-1.214,1.108,1.108,0,0,0-.925-.993.359.359,0,0,1-.107-.044l-4.217-2.578a.361.361,0,0,1-.173-.314l.141-10.3-5.976-2.351L225.4,125.728a.363.363,0,0,1-.206.232Z" transform="translate(-164.394 -84.138)"/>
    <path id="パス_31129" data-name="パス 31129" d="M142.783,360.955c6.156-1.973,43.558-8.969,58.4-2l-.027,5.8c-25.693-6.839-52.8,2.136-60.087,3.544Z" transform="translate(-107.032 -270.063)" fill="#fff"/>
    <path id="パス_31130" data-name="パス 31130" d="M139.926,367.529a.362.362,0,0,1-.352-.444l1.719-7.341a.362.362,0,0,1,.242-.262c2.871-.92,13.79-3.22,26.019-4.369,10.478-.984,24.647-1.368,32.641,2.387a.362.362,0,0,1,.208.329l-.027,5.8a.362.362,0,0,1-.455.348c-21.825-5.809-44.551-.192-55.473,2.508-1.883.466-3.371.833-4.452,1.042a.374.374,0,0,1-.069.007m2.024-7.419-1.543,6.59c1-.214,2.3-.534,3.866-.922,10.906-2.7,33.517-8.284,55.381-2.623l.024-5.1c-7.884-3.582-21.76-3.191-32.056-2.225a165.838,165.838,0,0,0-25.671,4.277" transform="translate(-105.894 -268.934)"/>
    <path id="パス_31131" data-name="パス 31131" d="M183.654,181.186c2.3,8.778-2.741,33.681-7.085,49.083H217.8c-1.322-37.423-7.54-61.523-14.852-62.739l-4.186-.542c2.918,2.9,7.17,11.09,7.023,18.063a2.653,2.653,0,0,1-2.747,2.774l-11.428.54a2.268,2.268,0,0,1-2.207-1.743c-.459-2.388.009-8.56-4.49-14.84-2.4-3.349-4.6-3.78-7.34-3.823-6.459-.028-9.614,3.45-9.614,3.45s11.538-6.077,15.693,9.778" transform="translate(-127.44 -126.701)" fill="#fff"/>
    <path id="パス_31132" data-name="パス 31132" d="M216.665,229.491H175.43a.362.362,0,0,1-.348-.46c3.987-14.138,9.436-39.914,7.083-48.893-1.361-5.194-3.655-8.534-6.817-9.927-4.114-1.812-8.315.356-8.357.378a.362.362,0,0,1-.437-.563c.133-.146,3.314-3.57,9.8-3.57h.079c2.65.041,5.05.369,7.633,3.974a24.733,24.733,0,0,1,4.343,13.144c.064.738.119,1.376.207,1.839a1.915,1.915,0,0,0,1.853,1.449l11.41-.539h.035a2.108,2.108,0,0,0,1.586-.556,2.619,2.619,0,0,0,.781-1.864c.14-6.627-3.934-14.833-6.916-17.8a.362.362,0,0,1,.3-.615l4.186.542c3.818.635,7.264,6.881,9.977,18.066,2.756,11.359,4.551,26.927,5.19,45.02a.362.362,0,0,1-.362.375m-40.757-.724h40.382c-.649-17.886-2.431-33.266-5.157-44.5-2.6-10.725-5.933-16.947-9.38-17.52l-3.19-.413c2.931,3.456,6.586,11.019,6.447,17.585A3.345,3.345,0,0,1,204,186.3a2.82,2.82,0,0,1-2.1.75l-11.411.539h-.035a2.637,2.637,0,0,1-2.545-2.036c-.1-.5-.153-1.155-.218-1.914a24.091,24.091,0,0,0-4.211-12.785c-2.39-3.337-4.518-3.632-7.051-3.672h-.074a14.3,14.3,0,0,0-7.456,1.949,10.34,10.34,0,0,1,6.739.42c3.374,1.486,5.805,4.987,7.225,10.406,2.364,9.02-2.963,34.508-6.958,48.813" transform="translate(-126.301 -125.561)"/>
    <path id="パス_31133" data-name="パス 31133" d="M120.745,362.548l4.807,10.342,4.123-.62a9.746,9.746,0,0,1,7.334,1.442,12.532,12.532,0,0,1,2.841,3.414c2.41,3.928-1.477,4.231-2.307,4.275-1.337.07-2.636-.612-4.174-1.462-.9-.5-2.543-.664-5.31-.494-2.094.129-4.871.989-7.308-.737a6.574,6.574,0,0,1-2.561-3.081l-5.216-7.267Z" transform="translate(-85.718 -275.082)" fill="#fff"/>
    <path id="パス_31134" data-name="パス 31134" d="M136.211,380.628a8.964,8.964,0,0,1-4.156-1.513c-.849-.469-2.473-.613-5.113-.449-.413.025-.856.081-1.326.139-1.851.23-4.155.516-6.213-.942a7.085,7.085,0,0,1-2.677-3.21l-5.185-7.223a.362.362,0,0,1,.077-.5l7.771-5.811a.358.358,0,0,1,.305-.061.362.362,0,0,1,.24.2l4.693,10.1,3.855-.58c1.759-.264,5.087-.42,7.608,1.513a12.929,12.929,0,0,1,2.929,3.512c.844,1.376,1.046,2.5.6,3.354-.455.865-1.59,1.387-3.2,1.471-.071,0-.142.006-.212.006m-7.386-2.75a7.652,7.652,0,0,1,3.58.6c1.573.87,2.778,1.482,3.981,1.418.776-.041,2.146-.235,2.593-1.085.32-.608.126-1.5-.576-2.639a12.238,12.238,0,0,0-2.752-3.316c-2.309-1.77-5.414-1.62-7.061-1.372l-4.122.62a.363.363,0,0,1-.382-.206l-4.62-9.937-7.13,5.332,5.009,6.979a.357.357,0,0,1,.053.108,6.334,6.334,0,0,0,2.423,2.888c1.829,1.3,3.889,1.039,5.706.814.481-.06.935-.116,1.371-.143.712-.044,1.352-.066,1.928-.066" transform="translate(-84.58 -273.943)"/>
    <path id="パス_31135" data-name="パス 31135" d="M372.017,263.354h-.005a.362.362,0,0,1-.357-.367,133.269,133.269,0,0,0-.633-14.166c-.119-1.077-.58-4.323-.585-4.356a.362.362,0,0,1,.717-.1c.019.134.467,3.29.587,4.378A134.082,134.082,0,0,1,372.379,263a.362.362,0,0,1-.362.357" transform="translate(-281.065 -185.174)" fill="#99b9ff"/>
    <path id="パス_31136" data-name="パス 31136" d="M523.455,15.912c-2.127.014-2.81,1.813-4.143,3.469a14.508,14.508,0,0,1-9.14,5.314c-7.218,1.1-6.618-.769-11.292.32-3.019.7-7.721,4.646-4.8,10.929,3.784,8.138,16.688,4.638,21.984.62,9-6.826,11.13-14.337,11.387-15.8a4.085,4.085,0,0,0-4-4.854" transform="translate(-374.183 -12.073)" fill="#5479f7"/>
    <path id="パス_31137" data-name="パス 31137" d="M501.923,40.1a13.924,13.924,0,0,1-3.346-.381,8.462,8.462,0,0,1-5.951-4.758A8.126,8.126,0,0,1,492.4,27.8a8.313,8.313,0,0,1,5.271-4.28,10.45,10.45,0,0,1,4.634-.19,19.343,19.343,0,0,0,6.686-.135,14.247,14.247,0,0,0,8.913-5.183c.283-.351.538-.713.785-1.063.919-1.3,1.788-2.53,3.638-2.542a4.546,4.546,0,0,1,3.42,1.616,4.391,4.391,0,0,1,.935,3.663c-.06.343-1.593,8.49-11.525,16.025A23.8,23.8,0,0,1,501.923,40.1m-1.5-16.214a11.218,11.218,0,0,0-2.583.346,7.55,7.55,0,0,0-4.785,3.892,7.427,7.427,0,0,0,.231,6.532,7.77,7.77,0,0,0,5.469,4.361c5.054,1.255,12.223-1.035,15.968-3.877,9.708-7.364,11.235-15.492,11.249-15.573a3.619,3.619,0,0,0-.775-3.071,3.836,3.836,0,0,0-2.843-1.359h-.02c-1.478.009-2.172.992-3.051,2.236-.253.359-.516.73-.813,1.1a14.97,14.97,0,0,1-9.367,5.445,20.2,20.2,0,0,1-6.9.136,11.663,11.663,0,0,0-1.782-.167" transform="translate(-373.056 -10.934)"/>
    <path id="パス_31138" data-name="パス 31138" d="M626.977,1.5l1.535.319s-.341,2.57-1.458,3.656l-.616-.376a6.253,6.253,0,0,0,.539-3.6" transform="translate(-475.308 -1.138)" fill="#99b9ff"/>
    <path id="パス_31139" data-name="パス 31139" d="M625.916,4.7a.362.362,0,0,1-.188-.053l-.616-.376a.362.362,0,0,1-.125-.49A5.989,5.989,0,0,0,625.479.4a.362.362,0,0,1,.433-.4l1.535.319a.362.362,0,0,1,.285.4c-.014.11-.371,2.708-1.565,3.868a.362.362,0,0,1-.252.1m-.149-.877.083.051A7.3,7.3,0,0,0,626.96.965l-.72-.15a6.858,6.858,0,0,1-.474,3.007" transform="translate(-474.17 0)" fill="#5479f7"/>
    <path id="パス_31140" data-name="パス 31140" d="M605.271,15.189s.191.073,1.758-1.478c1.787-1.769,5.217.446,5.614,2.039a20.8,20.8,0,0,1,.149,3.548,4.668,4.668,0,0,1-1.42-2.816,4.271,4.271,0,0,1-2.321,1.324,3.927,3.927,0,0,0-.177-2.907,3.588,3.588,0,0,1-3.6.29" transform="translate(-459.247 -9.907)" fill="#99b9ff"/>
    <path id="パス_31141" data-name="パス 31141" d="M611.653,18.524a.361.361,0,0,1-.24-.091,5.157,5.157,0,0,1-1.421-2.36,4.368,4.368,0,0,1-2.022.954.362.362,0,0,1-.4-.479,3.768,3.768,0,0,0,0-2.268,3.722,3.722,0,0,1-3.626.086.362.362,0,0,1,.117-.668,9.071,9.071,0,0,0,1.569-1.379,2.909,2.909,0,0,1,2.95-.607,4.85,4.85,0,0,1,3.27,2.816,9.824,9.824,0,0,1,.154,2.675,5.724,5.724,0,0,0,0,.9.362.362,0,0,1-.356.426m-1.42-3.539a.357.357,0,0,1,.11.017.362.362,0,0,1,.251.314,3.931,3.931,0,0,0,.691,1.852,9.09,9.09,0,0,0-.132-2.467,4.185,4.185,0,0,0-2.763-2.294,2.23,2.23,0,0,0-2.246.424c-.555.55-.955.915-1.248,1.155a3.521,3.521,0,0,0,2.631-.52.363.363,0,0,1,.525.121,3.978,3.978,0,0,1,.356,2.579,4.081,4.081,0,0,0,1.549-1.054.362.362,0,0,1,.276-.128m-5.974-1.27h0m-.066-.018a.366.366,0,0,1,.066.018.356.356,0,0,0-.066-.018" transform="translate(-458.109 -8.773)" fill="#5479f7"/>
    <path id="パス_31142" data-name="パス 31142" d="M568.626,35.729c-2.716,1.448-4.261.814-4.974,1.706s.5,2.624,4.8.853c4.028-1.659,7.325-6.6,6.526-7.178-1.221-.89-2.611,2.622-6.355,4.619" transform="translate(-427.524 -23.497)" fill="#caddff"/>
    <path id="パス_31143" data-name="パス 31143" d="M255.33,90.412s-3.058,1.159-3.855-1.184,1.836-2.3,1.836-2.3-2.788-5.1,1.576-5.779a28.913,28.913,0,0,0,7.541-2.252,35.7,35.7,0,0,1,4.137,8.949c.6,2.48.424,4.7-1.688,5.449-5.788,2.05-9.547-2.882-9.547-2.882" transform="translate(-190.691 -59.862)" fill="#fff"/>
    <path id="パス_31144" data-name="パス 31144" d="M260.961,93.014a9.612,9.612,0,0,1-6.89-3.319,4.247,4.247,0,0,1-2.832-.042,2.362,2.362,0,0,1-1.246-1.444,2.03,2.03,0,0,1,.139-1.925,2.292,2.292,0,0,1,1.487-.806c-.4-.893-1.086-2.825-.381-4.257a3.045,3.045,0,0,1,2.455-1.568,28.832,28.832,0,0,0,7.437-2.219.362.362,0,0,1,.463.127,35.574,35.574,0,0,1,4.186,9.061c.958,3.955-.514,5.378-1.918,5.875a8.643,8.643,0,0,1-2.9.516m-6.771-4.1a.362.362,0,0,1,.288.142c.147.192,3.675,4.7,9.139,2.76,1.634-.579,2.124-2.269,1.457-5.022a34.42,34.42,0,0,0-3.922-8.572,29.8,29.8,0,0,1-7.349,2.146,2.369,2.369,0,0,0-1.917,1.171c-.761,1.543.589,4.052.6,4.077a.362.362,0,0,1-.008.36.357.357,0,0,1-.315.175,1.986,1.986,0,0,0-1.45.559,1.368,1.368,0,0,0-.038,1.264A1.645,1.645,0,0,0,251.547,89a3.823,3.823,0,0,0,2.515-.061.358.358,0,0,1,.128-.024" transform="translate(-189.552 -58.724)"/>
    <path id="パス_31145" data-name="パス 31145" d="M323.883,681.073l-12.144,14.51-.006-27.1,12.15-14.65Z" transform="translate(-236.526 -496.09)" fill="#fff"/>
    <path id="パス_31146" data-name="パス 31146" d="M310.6,694.807a.361.361,0,0,1-.362-.362l-.006-27.1a.362.362,0,0,1,.083-.231l12.15-14.651a.362.362,0,0,1,.64.231v27.245a.362.362,0,0,1-.084.232l-12.144,14.51a.362.362,0,0,1-.277.13m.356-27.336.005,25.978L322.383,679.8v-26.11Zm11.788,12.463h0Z" transform="translate(-235.388 -494.952)"/>
    <rect id="長方形_10584" data-name="長方形 10584" width="101.21" height="17.819" transform="translate(90.851 162.502)" fill="#fff"/>
    <path id="パス_31147" data-name="パス 31147" d="M476.649,690.616H375.44a.362.362,0,0,1-.362-.362V672.435a.362.362,0,0,1,.362-.362h101.21a.362.362,0,0,1,.362.362v17.819a.362.362,0,0,1-.362.362M375.8,689.892H476.288V672.8H375.8Z" transform="translate(-284.589 -509.933)"/>
    <rect id="長方形_10585" data-name="長方形 10585" width="108.39" height="7.637" transform="translate(87.377 157.729)" fill="#fff"/>
    <path id="パス_31148" data-name="パス 31148" d="M469.431,660.649H361.041a.362.362,0,0,1-.362-.362v-7.637a.362.362,0,0,1,.362-.362h108.39a.362.362,0,0,1,.362.362v7.637a.362.362,0,0,1-.362.362M361.4,659.926H469.069v-6.913H361.4Z" transform="translate(-273.664 -494.922)"/>
    <rect id="長方形_10586" data-name="長方形 10586" width="108.39" height="7.637" transform="translate(87.377 167.496)" fill="#fff"/>
    <path id="パス_31149" data-name="パス 31149" d="M469.431,701.134H361.041a.362.362,0,0,1-.362-.362v-7.637a.362.362,0,0,1,.362-.362h108.39a.362.362,0,0,1,.362.362v7.637a.362.362,0,0,1-.362.362M361.4,700.41H469.069V693.5H361.4Z" transform="translate(-273.664 -525.639)"/>
    <rect id="長方形_10587" data-name="長方形 10587" width="108.39" height="7.637" transform="translate(87.377 177.263)" fill="#fff"/>
    <path id="パス_31150" data-name="パス 31150" d="M469.431,741.618H361.041a.362.362,0,0,1-.362-.362V733.62a.362.362,0,0,1,.362-.362h108.39a.362.362,0,0,1,.362.362v7.637a.362.362,0,0,1-.362.362M361.4,740.895H469.069v-6.913H361.4Z" transform="translate(-273.664 -556.357)"/>
    <path id="パス_31151" data-name="パス 31151" d="M386.4,560.8a4.2,4.2,0,0,1,4.192-1.86,5.445,5.445,0,0,1,8.2-3.08c.043.028.083.057.125.086a1.9,1.9,0,0,1,2.893-1.228l.059.041a3.453,3.453,0,0,1,5.541-1.5c.013-.02.024-.041.038-.061a3.454,3.454,0,0,1,6.228.963,2.823,2.823,0,0,1,4.689,2.032,6.744,6.744,0,0,0,3.693,4.308,4.186,4.186,0,0,1,1.859,2.847,1.969,1.969,0,0,1,.812.3,1.912,1.912,0,0,1,.575,2.633h0a9.627,9.627,0,0,1-9.523,10.467c-2.588,2.42-7.212,6.335-11.626,8.019a4.959,4.959,0,0,1-6.757,1.313c-.09-.059-.178-.121-.264-.185a5.446,5.446,0,0,1-5.692.608,5.441,5.441,0,0,1-9.208-4.2,1.9,1.9,0,0,1,.085-2.97,3.455,3.455,0,0,1-.388-4.252c.021-.033.043-.064.065-.1a1.9,1.9,0,0,1,1.038-3.073,3.452,3.452,0,0,1,2.341-4.394A9.412,9.412,0,0,0,386.4,560.8" transform="translate(-289.364 -418.54)" fill="#5479f7"/>
    <path id="パス_31152" data-name="パス 31152" d="M386.524,587.259a5.818,5.818,0,0,1-5.807-5.938,2.259,2.259,0,0,1-.053-3.157,3.8,3.8,0,0,1-.259-4.3,2.259,2.259,0,0,1,1.037-3.326,3.814,3.814,0,0,1,2.45-4.428,4.574,4.574,0,0,1,.687-1.831q.072-.11.153-.22a4.534,4.534,0,0,1,.218-4.586h0a4.56,4.56,0,0,1,4.241-2.06,5.8,5.8,0,0,1,8.374-3.153,2.239,2.239,0,0,1,.168-.309,2.262,2.262,0,0,1,2.8-.839,3.817,3.817,0,0,1,5.532-1.583l.111.075a3.816,3.816,0,0,1,6.524.84,3.184,3.184,0,0,1,4.854,2.346,6.942,6.942,0,0,0,3.546,4.273,4.571,4.571,0,0,1,1.972,2.842,2.383,2.383,0,0,1,.7.306,2.273,2.273,0,0,1,.8,2.933,5.838,5.838,0,0,1-.147,6.088,5.772,5.772,0,0,1-3.474,2.469,5.845,5.845,0,0,1-6.223,2.318c-2.459,2.285-7.074,6.2-11.494,7.915a5.3,5.3,0,0,1-7.185,1.318l-.063-.042a5.847,5.847,0,0,1-5.627.59,5.773,5.773,0,0,1-3.838,1.462m-.966-27.393a3.816,3.816,0,0,0-.082,4.041.362.362,0,0,1-.032.414,3.886,3.886,0,0,0-.257.351,3.841,3.841,0,0,0-.6,1.743.362.362,0,0,1-.262.316,3.091,3.091,0,0,0-2.1,3.934.362.362,0,0,1-.265.465,1.527,1.527,0,0,0-.954.663,1.545,1.545,0,0,0,.114,1.823.361.361,0,0,1,.02.441c-.025.035-.042.06-.058.085a3.082,3.082,0,0,0,.348,3.806.362.362,0,0,1-.046.539,1.535,1.535,0,0,0-.069,2.4.362.362,0,0,1,.129.3,5.079,5.079,0,0,0,8.6,3.923.362.362,0,0,1,.408-.066,5.11,5.11,0,0,0,5.314-.567.361.361,0,0,1,.438,0c.079.059.161.117.245.172a4.58,4.58,0,0,0,6.263-1.217.361.361,0,0,1,.167-.13c4.426-1.688,9.11-5.7,11.508-7.945a.363.363,0,0,1,.35-.083,5.113,5.113,0,0,0,5.695-2.086.361.361,0,0,1,.224-.155,5.056,5.056,0,0,0,3.167-2.189,5.11,5.11,0,0,0,.028-5.5.362.362,0,0,1,.007-.4,1.545,1.545,0,0,0-.472-2.126,1.609,1.609,0,0,0-.66-.245.362.362,0,0,1-.312-.3,3.828,3.828,0,0,0-2.311-2.923.363.363,0,0,1-.223-.327,3.837,3.837,0,0,0-2.763-3.615.362.362,0,0,1-.26-.337,2.461,2.461,0,0,0-4.088-1.772.362.362,0,0,1-.588-.175,3.092,3.092,0,0,0-5.576-.862l-.02.032a.385.385,0,0,1-.259.18.37.37,0,0,1-.3-.075,3.172,3.172,0,0,0-.348-.262,3.1,3.1,0,0,0-4.614,1.608.362.362,0,0,1-.55.181l-.048-.033a1.534,1.534,0,0,0-2.341.994.362.362,0,0,1-.561.228l-.03-.021-.086-.059a5.083,5.083,0,0,0-7.65,2.875.361.361,0,0,1-.406.258,3.843,3.843,0,0,0-3.831,1.7" transform="translate(-288.217 -417.406)"/>
    <path id="パス_31153" data-name="パス 31153" d="M452.77,619.613s-5.337,7.429-3.133,10.584,13.837,17.071,13.837,17.071l-9.91,11.5s-7.037-19.279-12.912-22.3-15.757-3.984-15.757-3.984l1.138-1.756s9.129,2.343,9.344.728-3.966-4.591-6.992-5.932a15.879,15.879,0,0,1,2.362-5.556s6.454,10.12,7.413,7.82-2.535-9.611-2.535-9.611l2.734-.264s2.594,12.119,5.29,10.419-1.81-9.226-1.964-9.945c1-.59,3.273,4.512,3.616,2.344a32.215,32.215,0,0,0,.334-4.476l4.432.128s-3.828,6.725-2.585,7.266,3.971-5.305,3.971-5.305Z" transform="translate(-322.387 -467.581)" fill="#99b9ff"/>
    <path id="パス_31154" data-name="パス 31154" d="M452.426,657.992a.356.356,0,0,1-.065-.006.362.362,0,0,1-.275-.232c-.07-.192-7.055-19.181-12.738-22.1-5.747-2.957-15.528-3.937-15.626-3.946a.362.362,0,0,1-.269-.557l1.138-1.756a.364.364,0,0,1,.394-.154c2.93.752,7.92,1.712,8.84,1.092.051-.035.054-.055.055-.061.169-1.273-3.651-4.167-6.78-5.554a.362.362,0,0,1-.212-.376,16.029,16.029,0,0,1,2.421-5.714.372.372,0,0,1,.3-.159.362.362,0,0,1,.3.167c2.521,3.953,5.675,7.993,6.643,7.993h.028c.02,0,.057-.005.1-.117.736-1.763-1.575-7.322-2.527-9.316a.362.362,0,0,1,.292-.516l2.735-.264a.363.363,0,0,1,.388.284c.556,2.6,2.387,9.495,4.163,10.242a.579.579,0,0,0,.581-.054c1.905-1.2-.649-6.437-1.611-8.407a7.426,7.426,0,0,1-.514-1.156.361.361,0,0,1,.17-.387c.733-.431,1.512.564,2.338,1.617a7.31,7.31,0,0,0,1.056,1.184,1.192,1.192,0,0,0,.048-.2,32.11,32.11,0,0,0,.329-4.418.362.362,0,0,1,.372-.363l4.432.128a.362.362,0,0,1,.3.541c-1.814,3.187-3.1,6.346-2.748,6.761.434.18,2.015-1.97,3.491-5.132a.362.362,0,0,1,.579-.108l1.32,1.27a.362.362,0,0,1,.043.472c-.052.072-5.163,7.256-3.131,10.166,2.17,3.106,13.7,16.908,13.818,17.047a.362.362,0,0,1,0,.468l-9.91,11.5a.362.362,0,0,1-.274.126m-28.046-26.945c2.234.258,10.187,1.328,15.3,3.959,5.424,2.791,11.628,18.625,12.872,21.924l9.31-10.8c-1.589-1.9-11.6-13.917-13.659-16.861-2.11-3.02,2.01-9.367,2.956-10.745l-.734-.706c-.97,2.009-2.919,5.594-4.226,5.028a.733.733,0,0,1-.406-.462c-.414-1.243,1.642-5.185,2.527-6.792l-3.466-.1a31.783,31.783,0,0,1-.335,4.16c-.028.176-.113.712-.553.826-.561.147-1.1-.533-1.834-1.475-.216-.276-.568-.724-.876-1.047l.1.209c1.234,2.528,3.8,7.789,1.346,9.337a1.3,1.3,0,0,1-1.247.109c-2.273-.957-4.1-8.585-4.521-10.442l-1.9.184c.8,1.755,3.206,7.325,2.324,9.439a.832.832,0,0,1-.709.559l-.062,0c-1.713,0-5.629-5.783-6.973-7.85a15.02,15.02,0,0,0-1.966,4.668c2.621,1.221,7.217,4.208,6.953,6.2a.8.8,0,0,1-.368.566c-1.382.933-7.418-.487-9.172-.927Z" transform="translate(-321.249 -466.442)" fill="#5479f7"/>
    <path id="パス_31155" data-name="パス 31155" d="M487.094,597.816a1.895,1.895,0,0,1,2.535-1.362,3.882,3.882,0,0,1,7.638,1.352,3.677,3.677,0,0,1,5.154,4.761,1.894,1.894,0,0,1-2.8,2.264,1.914,1.914,0,0,1-.226-.172,3.675,3.675,0,0,1-3.954-4.053,3.883,3.883,0,0,1-5.166-1.038,1.414,1.414,0,0,0-1.68,1.17,1.894,1.894,0,1,1-1.5-2.923" transform="translate(-368.077 -450.248)" fill="#5479f7"/>
    <path id="パス_31156" data-name="パス 31156" d="M499.642,623.729a2.242,2.242,0,0,1-1.223-.364c-.051-.033-.1-.068-.148-.1a4.038,4.038,0,0,1-4.212-3.826,4.271,4.271,0,0,1-3.952-.351,4.227,4.227,0,0,1-.89-.772,1.131,1.131,0,0,0-1.321.855,2.256,2.256,0,0,1-4.1-.757.362.362,0,1,1,.708-.151,1.533,1.533,0,0,0,3,.007.358.358,0,0,1,.37-.284,1.536,1.536,0,0,0,1.148-.44.367.367,0,0,1,.284-.1.362.362,0,0,1,.263.149,3.521,3.521,0,0,0,4.684.941.362.362,0,0,1,.548.347,3.314,3.314,0,0,0,3.564,3.654.368.368,0,0,1,.269.09,1.619,1.619,0,0,0,.184.139,1.533,1.533,0,0,0,2.119-.452.362.362,0,1,1,.607.393,2.241,2.241,0,0,1-1.422.979,2.277,2.277,0,0,1-.475.05" transform="translate(-367.071 -468.479)" fill="#99b9ff"/>
    <path id="パス_31157" data-name="パス 31157" d="M409.876,662.929a1.668,1.668,0,1,1,2.215,2.483,3.677,3.677,0,1,1-2.215-2.483" transform="translate(-307.185 -502.615)" fill="#5479f7"/>
    <path id="パス_31158" data-name="パス 31158" d="M407.714,671.341a4.042,4.042,0,0,1-4.009-3.614.362.362,0,1,1,.719-.077,3.315,3.315,0,1,0,6.5-1.2.362.362,0,0,1,.128-.378,1.307,1.307,0,0,0,.209-1.86.362.362,0,0,1,.559-.459,2.022,2.022,0,0,1,.134,2.391,2.055,2.055,0,0,1-.278.341,4.045,4.045,0,0,1-3.964,4.854" transform="translate(-306.308 -503.52)" fill="#99b9ff"/>
    <path id="パス_31159" data-name="パス 31159" d="M424.465,610.36a2.909,2.909,0,0,1,3.844-3.526,3.677,3.677,0,1,1,1.51,4.182l-.034-.024c-.027.047-.055.093-.084.138a2.907,2.907,0,0,1-2.381,1.326,3.676,3.676,0,1,1-2.854-2.1" transform="translate(-318.906 -458.474)" fill="#5479f7"/>
    <path id="パス_31160" data-name="パス 31160" d="M425.167,621.139a4.049,4.049,0,0,1-3.336-1.773.362.362,0,1,1,.6-.406,3.316,3.316,0,0,0,5.751-3.259.362.362,0,0,1,.321-.514,2.549,2.549,0,0,0,2.085-1.161c.025-.039.05-.08.074-.121a.362.362,0,0,1,.513-.123l.026.018a3.316,3.316,0,0,0,4.489-4.732.362.362,0,0,1,.585-.427,4.04,4.04,0,0,1-5.186,5.934,3.27,3.27,0,0,1-2.067,1.287,4.039,4.039,0,0,1-3,5.187,4.068,4.068,0,0,1-.851.091" transform="translate(-320.016 -461.691)" fill="#99b9ff"/>
    <path id="パス_31161" data-name="パス 31161" d="M413.464,668.337a1.415,1.415,0,1,0,1.957-.418,1.414,1.414,0,0,0-1.957.418" transform="translate(-313.541 -506.608)" fill="#99b9ff"/>
    <path id="パス_31162" data-name="パス 31162" d="M407.942,653.83a.885.885,0,1,0,1.224-.261.885.885,0,0,0-1.224.261" transform="translate(-309.416 -495.784)" fill="#99b9ff"/>
    <path id="パス_31163" data-name="パス 31163" d="M545.446,612.1a1.3,1.3,0,1,0,1.8-.384,1.3,1.3,0,0,0-1.8.384" transform="translate(-413.696 -463.978)" fill="#99b9ff"/>
    <path id="パス_31164" data-name="パス 31164" d="M538.28,627.621a.817.817,0,1,0,1.13-.241.817.817,0,0,0-1.13.241" transform="translate(-408.318 -475.922)" fill="#99b9ff"/>
    <path id="パス_31165" data-name="パス 31165" d="M543.239,745.523c-2.323,3.584-2.462,7.62-.31,9.014s5.779-.38,8.1-3.963,2.462-7.62.31-9.014-5.779.38-8.1,3.963" transform="translate(-410.787 -562.295)" fill="#99b9ff"/>
    <path id="パス_31166" data-name="パス 31166" d="M543.489,754.232a3.431,3.431,0,0,1-1.9-.537,4.338,4.338,0,0,1-1.688-4,12.032,12.032,0,0,1,6.151-9.489,3.866,3.866,0,0,1,6.031,3.909,12.031,12.031,0,0,1-6.151,9.49,5.622,5.622,0,0,1-2.447.63M548.5,740.3a4.908,4.908,0,0,0-2.127.556,11.316,11.316,0,0,0-5.746,8.864,3.16,3.16,0,0,0,4.989,3.234,11.317,11.317,0,0,0,5.746-8.864,3.657,3.657,0,0,0-1.358-3.37,2.723,2.723,0,0,0-1.5-.42" transform="translate(-409.648 -561.149)" fill="#5479f7"/>
    <path id="パス_31167" data-name="パス 31167" d="M548.873,762.88a2.359,2.359,0,0,1-1.3-.367c-1.733-1.124-1.535-4.4.451-7.469a10.647,10.647,0,0,1,2.3-2.57.362.362,0,0,1,.447.569,9.917,9.917,0,0,0-2.144,2.395c-1.707,2.633-2.011,5.595-.665,6.468a2.429,2.429,0,0,0,2.393-.15.362.362,0,0,1,.322.648,4.105,4.105,0,0,1-1.8.476" transform="translate(-414.57 -570.878)" fill="#5479f7"/>
    <path id="パス_31168" data-name="パス 31168" d="M575.315,749.076a.362.362,0,0,1-.3-.16,1.542,1.542,0,0,0-.44-.437,1.7,1.7,0,0,0-1.031-.247.357.357,0,0,1-.38-.342.362.362,0,0,1,.342-.38,2.4,2.4,0,0,1,1.462.363,2.26,2.26,0,0,1,.647.641.362.362,0,0,1-.3.564" transform="translate(-434.885 -567.167)" fill="#5479f7"/>
    <path id="パス_31169" data-name="パス 31169" d="M659.393,561.063a4.39,4.39,0,0,0-3.93-2.75,5.694,5.694,0,0,0-7.8-4.8c-.049.02-.1.042-.145.063a1.984,1.984,0,0,0-2.723-1.84l-.069.03a3.615,3.615,0,0,0-4.93-2.876,3.659,3.659,0,0,0-.457.222c-.009-.023-.017-.047-.026-.07a3.612,3.612,0,0,0-6.586-.26,2.952,2.952,0,0,0-5.221,1.146,7.057,7.057,0,0,1-4.654,3.682,4.379,4.379,0,0,0-2.479,2.55,2.058,2.058,0,0,0-.893.146,2,2,0,0,0-1.118,2.587h0a10.068,10.068,0,0,0,7.677,12.653c2.171,3,6.134,7.949,10.327,10.561a5.186,5.186,0,0,0,6.672,2.7c.1-.042.208-.089.308-.137a8.6,8.6,0,0,0,16.015-.7,1.985,1.985,0,0,0,.508-3.066,3.613,3.613,0,0,0,1.251-4.287c-.015-.037-.032-.074-.047-.111a1.983,1.983,0,0,0-.449-3.362,3.61,3.61,0,0,0-1.523-4.98,4.371,4.371,0,0,0-.294-2.09,4.474,4.474,0,0,0-.212-.45,4.389,4.389,0,0,0,.794-4.557" transform="translate(-467.999 -414.861)" fill="#caddff"/>
    <path id="パス_31170" data-name="パス 31170" d="M652.583,588.089a6.016,6.016,0,0,1-4.795-2.384,6.1,6.1,0,0,1-5.661-1.734l-.083.034a5.526,5.526,0,0,1-7.091-2.789c-4.2-2.65-8.152-7.6-10.217-10.433a6.091,6.091,0,0,1-5.919-3.622,6.018,6.018,0,0,1-3.069-3.224,6.088,6.088,0,0,1,1.072-6.268,2.36,2.36,0,0,1,1.394-2.839,2.476,2.476,0,0,1,.785-.173,30.193,30.193,0,0,0,6-5.905,4.757,4.757,0,0,1,1.09-.294,3.314,3.314,0,0,1,5.442-1.425,3.974,3.974,0,0,1,6.855.442q.072-.032.143-.061a3.977,3.977,0,0,1,5.343,2.738,2.347,2.347,0,0,1,2.707,1.41,2.374,2.374,0,0,1,.114.366,6.057,6.057,0,0,1,7.961,4.908,4.751,4.751,0,0,1,3.24,7.7c.042.089.081.177.117.266a4.766,4.766,0,0,1,.336,2.02,3.971,3.971,0,0,1,1.624,5.033,2.347,2.347,0,0,1,.4,3.612,3.96,3.96,0,0,1-1.131,4.364,2.345,2.345,0,0,1-.68,3.223,6.072,6.072,0,0,1-5.98,5.037m-4.645-3.153a.362.362,0,0,1,.3.154,5.329,5.329,0,0,0,9.639-2.311.362.362,0,0,1,.183-.266,1.621,1.621,0,0,0,.415-2.506.362.362,0,0,1,.058-.537,3.241,3.241,0,0,0,1.125-3.858c-.01-.026-.022-.051-.033-.077l-.01-.023a.362.362,0,0,1,.1-.427,1.621,1.621,0,0,0-.367-2.749.362.362,0,0,1-.171-.507,3.249,3.249,0,0,0-1.37-4.481.362.362,0,0,1-.2-.36,4.012,4.012,0,0,0-.464-2.331.362.362,0,0,1,.048-.412,4.028,4.028,0,0,0-2.877-6.7.362.362,0,0,1-.349-.331,5.33,5.33,0,0,0-7.3-4.5l-.1.042-.036.016a.362.362,0,0,1-.507-.331,1.621,1.621,0,0,0-2.226-1.5l-.058.025a.362.362,0,0,1-.5-.283,3.249,3.249,0,0,0-4.848-2.388.362.362,0,0,1-.519-.187l-.023-.061a3.25,3.25,0,0,0-5.927-.234.362.362,0,0,1-.289.2.358.358,0,0,1-.322-.14,2.59,2.59,0,0,0-4.58,1.006.362.362,0,0,1-.32.28,4.03,4.03,0,0,0-3.575,3.17.362.362,0,0,1-.281.279,4.018,4.018,0,0,0-2.971,2.548.357.357,0,0,1-.364.235,1.727,1.727,0,0,0-.734.121,1.633,1.633,0,0,0-.917,2.117.362.362,0,0,1-.072.385,5.361,5.361,0,0,0-1.075,5.664,5.3,5.3,0,0,0,2.82,2.891.362.362,0,0,1,.19.2,5.362,5.362,0,0,0,5.445,3.293.36.36,0,0,1,.328.148c2.013,2.783,6.017,7.844,10.225,10.466a.362.362,0,0,1,.139.16,4.806,4.806,0,0,0,6.207,2.513c.1-.039.193-.083.287-.127a.362.362,0,0,1,.429.088,5.365,5.365,0,0,0,5.357,1.652.361.361,0,0,1,.092-.012" transform="translate(-466.866 -413.726)"/>
    <path id="パス_31171" data-name="パス 31171" d="M591.346,611.153s3.99,8.7,1.1,11.492S574.817,637.4,574.817,637.4l7.868,13.792s11.087-18.38,17.724-20.305,16.973-.932,16.973-.932l-.816-2.03s-9.84.575-9.737-1.125,4.992-3.917,8.366-4.688a16.606,16.606,0,0,0-1.311-6.177s-8.653,9.095-9.177,6.542,4.528-9.357,4.528-9.357l-2.754-.819s-5.092,11.92-7.518,9.635,3.707-9.107,4.009-9.814c-.91-.806-4.263,3.975-4.181,1.681a33.738,33.738,0,0,1,.554-4.661l-4.575-.756s2.582,7.671,1.2,7.976-3.012-6.242-3.012-6.242Z" transform="translate(-436.14 -461.605)" fill="#99b9ff"/>
    <path id="パス_31172" data-name="パス 31172" d="M581.546,650.412h0a.362.362,0,0,1-.31-.183l-7.868-13.792a.362.362,0,0,1,.086-.46c.147-.12,14.751-11.976,17.6-14.73,2.678-2.587-1.134-11-1.173-11.081a.361.361,0,0,1,.133-.455l1.609-1.039a.362.362,0,0,1,.547.216c.808,3.248,2.049,6.092,2.583,5.976.459-.316-.223-3.825-1.462-7.508a.362.362,0,0,1,.4-.472l4.575.756a.361.361,0,0,1,.3.427,33.637,33.637,0,0,0-.547,4.6,1.136,1.136,0,0,0,.011.24,7.192,7.192,0,0,0,1.345-1.014c1.053-.911,2.049-1.772,2.7-1.192a.362.362,0,0,1,.093.413,7.775,7.775,0,0,1-.757,1.079c-1.385,1.834-5.063,6.7-3.337,8.33a.62.62,0,0,0,.6.176c1.98-.413,5.247-7.134,6.338-9.689a.361.361,0,0,1,.436-.2l2.754.819a.362.362,0,0,1,.188.562c-1.378,1.857-4.867,7.106-4.464,9.069.027.134.071.146.095.153.944.269,5.049-3.28,8.465-6.872a.362.362,0,0,1,.6.108,16.748,16.748,0,0,1,1.339,6.343.362.362,0,0,1-.28.328c-3.57.815-8,2.986-8.086,4.357,0,.01,0,.035.049.087.824.825,6.146.84,9.305.656a.348.348,0,0,1,.357.226l.816,2.03a.362.362,0,0,1-.37.5c-.1-.01-10.345-.964-16.838.919-6.427,1.865-17.4,19.962-17.515,20.145a.362.362,0,0,1-.31.175m-7.4-14.067,7.412,12.993c1.9-3.082,11.474-18.161,17.612-19.942,5.794-1.681,14.212-1.176,16.519-1l-.5-1.244c-1.6.083-8.366.356-9.6-.881a.818.818,0,0,1-.259-.642c.127-2.089,5.451-4.232,8.379-4.955a15.713,15.713,0,0,0-1.092-5.229c-1.8,1.856-7.1,7.141-8.8,6.659a.855.855,0,0,1-.6-.7c-.482-2.349,3.126-7.613,4.288-9.229l-1.955-.581c-.787,1.8-4.2,9.29-6.727,9.817a1.349,1.349,0,0,1-1.244-.358c-2.2-2.071,1.485-6.949,3.255-9.293l.209-.278a14.664,14.664,0,0,0-1.2.961c-.941.814-1.62,1.4-2.16,1.144-.419-.2-.4-.76-.393-.943a33.192,33.192,0,0,1,.492-4.351l-3.621-.6c.582,1.808,1.917,6.3,1.243,7.491a.75.75,0,0,1-.5.385.762.762,0,0,1-.161.018c-1.381,0-2.589-3.872-3.156-6.036l-.926.6c.683,1.575,3.661,8.939.89,11.616-2.705,2.614-15.433,12.972-17.409,14.578" transform="translate(-435.002 -460.468)" fill="#5479f7"/>
    <path id="パス_31173" data-name="パス 31173" d="M641.978,591.876a1.982,1.982,0,0,0-2.33-1.907,4.06,4.06,0,0,0-8.112-.143,3.845,3.845,0,0,0-6.244,3.854,1.981,1.981,0,0,0,2.687,2.754,3.844,3.844,0,0,0,4.871-3.368,4.06,4.06,0,0,0,5.511-.031,1.479,1.479,0,0,1,1.49,1.538,1.981,1.981,0,1,0,2.128-2.7" transform="translate(-474.21 -444.633)" fill="#caddff"/>
    <path id="パス_31174" data-name="パス 31174" d="M626.286,618.035a2.348,2.348,0,0,1-2.173-1.47.362.362,0,0,1,.671-.27,1.62,1.62,0,0,0,2.107.9,1.649,1.649,0,0,0,.218-.108.366.366,0,0,1,.281-.036A3.482,3.482,0,0,0,631.8,614a.362.362,0,0,1,.6-.236,3.72,3.72,0,0,0,3.876.7,3.682,3.682,0,0,0,1.144-.728.361.361,0,0,1,.546.061,1.624,1.624,0,0,0,1.1.689.362.362,0,0,1,.309.35,1.619,1.619,0,0,0,3.109.6.362.362,0,0,1,.666.284,2.343,2.343,0,0,1-4.474-.578,2.356,2.356,0,0,1-1.055-.626,4.422,4.422,0,0,1-5.208.178,4.208,4.208,0,0,1-5.082,3.092c-.059.029-.118.056-.178.08a2.334,2.334,0,0,1-.874.171" transform="translate(-473.523 -465.595)"/>
    <path id="パス_31175" data-name="パス 31175" d="M744.206,675.647a1.744,1.744,0,1,0-2.771,2.1,3.846,3.846,0,1,0,2.771-2.1" transform="translate(-562.234 -512.048)" fill="#caddff"/>
    <path id="パス_31176" data-name="パス 31176" d="M743.46,683.878a4.208,4.208,0,0,1-3.885-5.838,2.108,2.108,0,0,1,.391-2.82.362.362,0,1,1,.461.558,1.382,1.382,0,0,0-.16,1.974.363.363,0,0,1,.053.4,3.484,3.484,0,1,0,6.464,2.545.362.362,0,1,1,.692.214,4.209,4.209,0,0,1-4.016,2.971" transform="translate(-560.867 -512.258)"/>
    <path id="パス_31177" data-name="パス 31177" d="M714.766,615.295a3.043,3.043,0,0,0-3.239-4.39,3.846,3.846,0,1,0-2.388,3.99l.04-.017c.018.053.037.106.059.159a3.04,3.04,0,0,0,2.178,1.839,3.845,3.845,0,1,0,3.349-1.58" transform="translate(-534.049 -460.923)" fill="#caddff"/>
    <path id="パス_31178" data-name="パス 31178" d="M713.17,624.833a4.208,4.208,0,0,1-3.68-6.257,3.4,3.4,0,0,1-1.879-1.746,4.208,4.208,0,0,1-5.174-2.442,4.233,4.233,0,0,1,1.042-4.656.362.362,0,0,1,.492.531,3.485,3.485,0,0,0,3.669,5.788l.157.324-.12-.341a.362.362,0,0,1,.481.219c.016.047.033.093.051.14a2.682,2.682,0,0,0,1.92,1.62.362.362,0,0,1,.216.566,3.485,3.485,0,0,0,5.275,4.519.362.362,0,1,1,.51.513,4.216,4.216,0,0,1-2.961,1.222" transform="translate(-532.743 -462.558)"/>
    <path id="パス_31179" data-name="パス 31179" d="M755.908,683.515a1.48,1.48,0,1,1-1.925-.821,1.48,1.48,0,0,1,1.925.821" transform="translate(-571.378 -517.911)" fill="#caddff"/>
    <path id="パス_31180" data-name="パス 31180" d="M768.27,670.1a.926.926,0,1,1-1.2-.514.926.926,0,0,1,1.2.514" transform="translate(-581.568 -507.993)" fill="#99b9ff"/>
    <path id="パス_31181" data-name="パス 31181" d="M632.519,599.418a1.36,1.36,0,1,1-1.769-.754,1.36,1.36,0,0,1,1.769.754" transform="translate(-477.933 -454.159)" fill="#99b9ff"/>
    <path id="パス_31182" data-name="パス 31182" d="M640.218,617.121a.855.855,0,1,1-1.112-.474.855.855,0,0,1,1.112.474" transform="translate(-484.512 -467.832)" fill="#caddff"/>
    <path id="パス_31183" data-name="パス 31183" d="M577.386,732.307c1.666,4.144,1,8.315-1.488,9.315s-5.856-1.548-7.523-5.692-1-8.315,1.488-9.315,5.856,1.548,7.523,5.692" transform="translate(-430.556 -551.152)" fill="#99b9ff"/>
    <path id="パス_31184" data-name="パス 31184" d="M573.606,741.06a5.3,5.3,0,0,1-3.137-1.209,12.566,12.566,0,0,1-4.406-10.957,4.027,4.027,0,0,1,6.947-2.794,12.565,12.565,0,0,1,4.406,10.957,4.521,4.521,0,0,1-2.524,3.757,3.425,3.425,0,0,1-1.286.246m-3.734-15.445a2.7,2.7,0,0,0-1.015.192,3.84,3.84,0,0,0-2.08,3.2,11.85,11.85,0,0,0,4.128,10.266,3.321,3.321,0,0,0,5.8-2.331,11.852,11.852,0,0,0-4.128-10.266,4.592,4.592,0,0,0-2.7-1.062" transform="translate(-429.416 -550.008)" fill="#5479f7"/>
    <path id="パス_31185" data-name="パス 31185" d="M588.045,751.852a3.831,3.831,0,0,1-2.277-.9.362.362,0,1,1,.44-.574,2.554,2.554,0,0,0,2.442.636c1.565-.629,1.85-3.741.622-6.794a10.39,10.39,0,0,0-1.724-2.893.362.362,0,0,1,.548-.473,11.12,11.12,0,0,1,1.847,3.1c1.422,3.535.972,6.933-1.024,7.736a2.339,2.339,0,0,1-.876.166" transform="translate(-444.342 -562.026)" fill="#5479f7"/>
    <path id="パス_31186" data-name="パス 31186" d="M574.93,734.5a.362.362,0,0,1-.256-.618,2.349,2.349,0,0,1,.786-.524,2.49,2.49,0,0,1,1.564-.079.362.362,0,1,1-.176.7,1.784,1.784,0,0,0-1.117.048,1.636,1.636,0,0,0-.544.365.361.361,0,0,1-.256.106" transform="translate(-435.952 -556.303)" fill="#5479f7"/>
    <path id="パス_31187" data-name="パス 31187" d="M499.342,554.157c-3,1.481-2.729,4.5-3.477,7.758a22.824,22.824,0,0,1-9.279,13.8c-9.459,6.517-9.893,3.463-15.759,8.218-3.788,3.07-7.731,11.883.723,18.765,10.95,8.914,26.8-4.913,31.536-14.239,8.039-15.846,5.892-27.94,5.25-30.186a6.427,6.427,0,0,0-8.993-4.121" transform="translate(-353.971 -419.994)" fill="#99b9ff"/>
    <path id="パス_31188" data-name="パス 31188" d="M478.41,604.809a12.715,12.715,0,0,1-8.228-2.959c-3.381-2.752-5.166-6.144-5.162-9.806a12.861,12.861,0,0,1,4.44-9.521,16.269,16.269,0,0,1,6.358-3.419c2.113-.67,4.508-1.429,9.424-4.815a22.622,22.622,0,0,0,9.132-13.587c.16-.7.273-1.388.383-2.056.4-2.419.772-4.7,3.287-5.946a6.981,6.981,0,0,1,5.774-.062,6.705,6.705,0,0,1,3.727,4.408c.15.524,3.562,13.029-5.276,30.449-3.519,6.936-12.174,15.174-20.567,16.955a15.851,15.851,0,0,1-3.291.36m22.555-52.043a5.9,5.9,0,0,0-2.6.583c-2.181,1.077-2.5,2.991-2.893,5.414-.111.679-.227,1.381-.392,2.1a23.345,23.345,0,0,1-9.427,14.022c-5,3.448-7.561,4.258-9.615,4.909a15.494,15.494,0,0,0-6.121,3.291,12.1,12.1,0,0,0-4.171,8.959c0,3.438,1.689,6.634,4.9,9.245a12.42,12.42,0,0,0,10.912,2.452c8.073-1.712,16.7-9.937,20.072-16.574a52.94,52.94,0,0,0,5.842-20.056,30.28,30.28,0,0,0-.617-9.867,5.9,5.9,0,0,0-3.324-3.945,6.354,6.354,0,0,0-2.56-.534m-2.761.258h0Z" transform="translate(-352.832 -418.861)"/>
    <path id="パス_31189" data-name="パス 31189" d="M606.718,526.981l2.392-.6s1.285,3.87.45,6.176l-1.13-.109a9.836,9.836,0,0,0-1.712-5.463" transform="translate(-460.345 -399.387)" fill="#99b9ff"/>
    <path id="パス_31190" data-name="パス 31190" d="M608.421,531.776l-.035,0-1.13-.109a.362.362,0,0,1-.326-.386,9.608,9.608,0,0,0-1.656-5.243.362.362,0,0,1,.217-.545l2.392-.6a.362.362,0,0,1,.432.237c.054.163,1.315,4.017.447,6.414a.362.362,0,0,1-.34.239m-.766-.8.509.049c.495-1.795-.177-4.442-.44-5.352l-1.582.4a10.492,10.492,0,0,1,1.513,4.9" transform="translate(-459.206 -398.248)" fill="#5479f7"/>
    <path id="パス_31191" data-name="パス 31191" d="M587.624,555.175s.321-.028,1.471-3.3c1.312-3.732,7.689-2.955,9.346-.975,1.382,1.652,2.12,4.192,2.651,4.917a7.342,7.342,0,0,1-3.944-3.008,6.721,6.721,0,0,1-2.374,3.469,6.177,6.177,0,0,0-2.249-3.991s-1.73,3.135-4.9,2.888" transform="translate(-445.858 -416.737)" fill="#99b9ff"/>
    <path id="パス_31192" data-name="パス 31192" d="M593.634,555.51a.361.361,0,0,1-.36-.322,6.032,6.032,0,0,0-1.8-3.5,5.741,5.741,0,0,1-5.022,2.718.362.362,0,0,1-.165-.667,12.844,12.844,0,0,0,1.323-3.114,4.375,4.375,0,0,1,3.6-2.752c2.341-.425,5.256.338,6.366,1.665a15.29,15.29,0,0,1,2.025,3.629,8.9,8.9,0,0,0,.64,1.307.362.362,0,0,1-.389.562,7.819,7.819,0,0,1-3.742-2.558,6.8,6.8,0,0,1-2.271,2.965.362.362,0,0,1-.208.066m-2.249-4.715a.362.362,0,0,1,.209.066,6.2,6.2,0,0,1,2.286,3.629,6.611,6.611,0,0,0,1.778-2.9.362.362,0,0,1,.661-.1,6.652,6.652,0,0,0,2.86,2.5c-.075-.165-.153-.344-.237-.535A14.724,14.724,0,0,0,597.024,550c-.947-1.132-3.6-1.795-5.682-1.417a3.7,3.7,0,0,0-3.045,2.28,23.768,23.768,0,0,1-1.132,2.818,5.548,5.548,0,0,0,3.9-2.7.361.361,0,0,1,.236-.178.356.356,0,0,1,.081-.009m-4.934,2.89-.039.006.039-.006m0,0h0m0,0h0Z" transform="translate(-444.719 -415.607)" fill="#5479f7"/>
    <path id="パス_31193" data-name="パス 31193" d="M560.007,594.256c-2.847,3.917-5.47,4.081-5.866,5.835s2.514,3.368,7.383-2.1c4.56-5.117,5.829-14.37,4.3-14.644-2.34-.419-1.892,5.506-5.816,10.905" transform="translate(-420.426 -442.599)" fill="#caddff"/>
    <path id="パス_31194" data-name="パス 31194" d="M465.713,659.4s-6.374-4.807-8.829,2.355c-1.28,3.734,2.872,8.392,7.979,8.858,5.527.5,7.577-3.606,7.555-6.249s-3.966-6.323-6.7-4.964" transform="translate(-346.481 -499.119)" fill="#fff"/>
    <path id="パス_31195" data-name="パス 31195" d="M464.616,669.873q-.453,0-.926-.043a10.25,10.25,0,0,1-7.45-4.4,5.655,5.655,0,0,1-.838-4.934c.742-2.163,1.912-3.5,3.48-3.983,2.446-.75,5.035.851,5.733,1.33a4.167,4.167,0,0,1,3.782.565c1.865,1.145,3.229,3.169,3.243,4.812a6.806,6.806,0,0,1-2.147,4.907,7.006,7.006,0,0,1-4.876,1.748m-4.389-12.833a3.855,3.855,0,0,0-1.136.164c-1.332.409-2.343,1.595-3,3.525a4.953,4.953,0,0,0,.761,4.306,9.5,9.5,0,0,0,6.909,4.074A6.619,6.619,0,0,0,469,667.593a6.059,6.059,0,0,0,1.914-4.369c-.012-1.387-1.258-3.193-2.9-4.2a3.5,3.5,0,0,0-3.283-.442.363.363,0,0,1-.379-.035,8.049,8.049,0,0,0-4.129-1.505" transform="translate(-345.342 -497.976)"/>
    <path id="パス_31196" data-name="パス 31196" d="M480.861,654.461s-.895-2.078-2.119-2.211l.686,2.425s-2.451-1.029-2.755.926a2.983,2.983,0,0,0,3.58.414s-.765,2.558.708,3.315a1.9,1.9,0,0,0,.527-3.123l2.353.83s-.705-3.477-2.98-2.576" transform="translate(-361.674 -494.892)" fill="#caddff"/>
    <path id="パス_31197" data-name="パス 31197" d="M508.348,684.65a1.139,1.139,0,1,1-.374-1.764,1.3,1.3,0,0,1,.374,1.764" transform="translate(-384.066 -518.072)" fill="#fff"/>
    <path id="パス_31198" data-name="パス 31198" d="M410.978,644.948s-6.476-7.516-11.344.537c-2.537,4.2,1.28,10.949,7.359,12.858,6.581,2.067,10.152-2.385,10.82-5.6s-3.153-8.723-6.836-7.793" transform="translate(-302.617 -486.934)" fill="#fff"/>
    <path id="パス_31199" data-name="パス 31199" d="M409.065,658.091a11.091,11.091,0,0,1-3.32-.541,12.646,12.646,0,0,1-7.834-7.254,6.944,6.944,0,0,1,.274-6.137c1.455-2.406,3.207-3.712,5.207-3.88,3.181-.268,5.915,2.425,6.574,3.132a5.071,5.071,0,0,1,4.415,1.65c1.943,1.862,3.057,4.645,2.647,6.616a8.367,8.367,0,0,1-3.857,5.337,8.007,8.007,0,0,1-4.105,1.077m-5.235-17.106c-.126,0-.253.005-.38.016-1.755.149-3.318,1.337-4.645,3.533a6.238,6.238,0,0,0-.216,5.506,11.9,11.9,0,0,0,7.374,6.82,8.318,8.318,0,0,0,6.842-.47,7.622,7.622,0,0,0,3.515-4.86c.356-1.716-.692-4.272-2.439-5.946a4.435,4.435,0,0,0-3.953-1.423.361.361,0,0,1-.363-.114c-.028-.032-2.682-3.061-5.734-3.061" transform="translate(-301.476 -485.796)"/>
    <path id="パス_31200" data-name="パス 31200" d="M432.768,641.139s-.539-2.76-1.992-3.243l.194,3.126s-2.707-1.895-3.59.4a3.707,3.707,0,0,0,4.239,1.445s-1.6,2.905-.012,4.212a2.364,2.364,0,0,0,1.462-3.655l2.639,1.628s.059-4.408-2.942-3.913" transform="translate(-324.274 -484.001)" fill="#caddff"/>
    <path id="パス_31201" data-name="パス 31201" d="M458.818,690.61a1.416,1.416,0,1,1,.009-2.241,1.611,1.611,0,0,1-.009,2.241" transform="translate(-346.142 -522.12)" fill="#fff"/>
    <path id="パス_31202" data-name="パス 31202" d="M370.553,620.826s.176-9.92-8.819-7.155c-4.689,1.441-6.338,9.019-3.075,14.493,3.532,5.925,9.161,4.983,11.8,3.028s3.458-8.606.092-10.366" transform="translate(-270.84 -465.251)" fill="#fff"/>
    <path id="パス_31203" data-name="パス 31203" d="M364.682,631.911a7.888,7.888,0,0,1-1.558-.154,9.015,9.015,0,0,1-5.9-4.546,12.645,12.645,0,0,1-1.012-10.629,6.943,6.943,0,0,1,4.291-4.394c2.689-.826,4.864-.633,6.468.574,2.55,1.919,2.8,5.748,2.817,6.714a5.074,5.074,0,0,1,2.195,4.172c.209,2.684-.814,5.5-2.432,6.7a8.428,8.428,0,0,1-4.874,1.566m-1.165-19.5a9.6,9.6,0,0,0-2.8.469,6.24,6.24,0,0,0-3.828,3.963,11.9,11.9,0,0,0,.958,10,8.316,8.316,0,0,0,5.417,4.207,7.619,7.619,0,0,0,5.859-1.284c1.409-1.042,2.329-3.647,2.141-6.061a4.433,4.433,0,0,0-2-3.694.363.363,0,0,1-.194-.327c0-.044.042-4.409-2.532-6.344a4.894,4.894,0,0,0-3.022-.928" transform="translate(-269.72 -464.113)"/>
    <path id="パス_31204" data-name="パス 31204" d="M400.907,630.739s1.436-2.418.675-3.746l-1.937,2.461s-.757-3.216-2.944-2.093a3.707,3.707,0,0,0,2.2,3.9s-3.13,1.1-2.814,3.134a2.364,2.364,0,0,0,3.525-1.752l.884,2.972s2.98-3.249.412-4.878" transform="translate(-300.512 -475.729)" fill="#caddff"/>
    <path id="パス_31205" data-name="パス 31205" d="M380.516,622a1.416,1.416,0,1,1,1.5-1.665,1.611,1.611,0,0,1-1.5,1.665" transform="translate(-287.193 -469.867)" fill="#caddff"/>
    <path id="パス_31206" data-name="パス 31206" d="M412.173,630.456a.362.362,0,0,1-.278-.593c.151-.182,3.759-4.464,8.517-4.464h.014a32.3,32.3,0,0,1,5.606.8c4.009.792,8.554,1.69,10.111-.39a.362.362,0,1,1,.579.434c-1.83,2.444-6.406,1.54-10.831.666a31.916,31.916,0,0,0-5.468-.789h-.013c-4.414,0-7.925,4.16-7.96,4.2a.361.361,0,0,1-.278.131" transform="translate(-312.46 -474.519)" fill="#caddff"/>
    <path id="パス_31207" data-name="パス 31207" d="M446.751,634.892a.38.38,0,0,1-.073-.007.362.362,0,0,1-.282-.427c.042-.2,1.068-5.014,5.182-6.17a.362.362,0,0,1,.2.7c-3.693,1.037-4.659,5.572-4.668,5.618a.362.362,0,0,1-.354.289" transform="translate(-338.696 -476.701)" fill="#caddff"/>
    <path id="パス_31208" data-name="パス 31208" d="M489.351,640.376a.362.362,0,0,1-.337-.492.9.9,0,0,1,.12-.2c1.269-1.794,2.177-4.479-.709-7.085a.362.362,0,0,1,.485-.537c2.559,2.311,2.848,5.166.814,8.04-.023.033-.042.058-.053.075a.362.362,0,0,1-.321.195" transform="translate(-370.501 -479.507)" fill="#caddff"/>
    <path id="パス_31209" data-name="パス 31209" d="M308.547,606.922c3.24.834,3.594,3.842,4.995,6.88a22.825,22.825,0,0,0,11.914,11.607c10.595,4.437,10.393,1.36,17.11,4.81,4.337,2.228,10,10.044,3.142,18.515-8.889,10.971-27.242.69-33.786-7.467-11.119-13.859-11.5-26.137-11.331-28.467a6.427,6.427,0,0,1,7.957-5.878" transform="translate(-228.053 -460.362)" fill="#5479f7"/>
    <path id="パス_31210" data-name="パス 31210" d="M334.162,652.732h-.044c-8.58-.021-18.741-6.309-23.608-12.375-12.222-15.235-11.449-28.176-11.41-28.719a6.7,6.7,0,0,1,2.744-5.078,6.982,6.982,0,0,1,5.664-1.124c2.716.7,3.552,2.859,4.437,5.145.244.631.5,1.284.8,1.934a22.624,22.624,0,0,0,11.725,11.425c5.505,2.306,8.005,2.557,10.211,2.78a16.28,16.28,0,0,1,6.925,2.042,12.863,12.863,0,0,1,6.3,8.408c.755,3.584-.3,7.269-3.041,10.657a13.107,13.107,0,0,1-10.7,4.907m-28.221-46.767a6.378,6.378,0,0,0-3.675,1.182,5.894,5.894,0,0,0-2.444,4.543,30.279,30.279,0,0,0,1.42,9.784,52.94,52.94,0,0,0,9.832,18.431c4.658,5.806,14.793,12.084,23.045,12.1h.042A12.415,12.415,0,0,0,344.3,647.37c2.6-3.212,3.6-6.688,2.894-10.052a12.1,12.1,0,0,0-5.92-7.913,15.493,15.493,0,0,0-6.666-1.965c-2.144-.216-4.813-.485-10.418-2.833a23.347,23.347,0,0,1-12.1-11.79c-.309-.671-.566-1.334-.814-1.976-.886-2.29-1.586-4.1-3.942-4.706a5.574,5.574,0,0,0-1.386-.171" transform="translate(-226.925 -459.225)"/>
    <path id="パス_31211" data-name="パス 31211" d="M315.991,581.382l-2.465-.1s-.464,4.052.826,6.137l1.084-.338a9.839,9.839,0,0,1,.555-5.7" transform="translate(-237.825 -441.045)" fill="#99b9ff"/>
    <path id="パス_31212" data-name="パス 31212" d="M313.207,586.64a.362.362,0,0,1-.308-.172c-1.341-2.167-.9-6.2-.878-6.369a.354.354,0,0,1,.374-.32l2.465.1a.362.362,0,0,1,.324.489,9.609,9.609,0,0,0-.545,5.472.362.362,0,0,1-.24.444l-1.084.338a.372.372,0,0,1-.108.016m-.5-6.123c-.071.945-.185,3.674.668,5.329l.488-.152a10.49,10.49,0,0,1,.474-5.11Z" transform="translate(-236.68 -439.905)" fill="#5479f7"/>
    <path id="パス_31213" data-name="パス 31213" d="M310.865,606.953s-.32.038-2.117-2.928c-2.05-3.384-8.132-1.315-9.347.963-1.014,1.9-1.215,4.537-1.586,5.357a7.342,7.342,0,0,0,3.244-3.753,6.722,6.722,0,0,0,3.035,2.908,6.178,6.178,0,0,1,1.382-4.368s2.336,2.714,5.388,1.822" transform="translate(-225.966 -456.948)" fill="#99b9ff"/>
    <path id="パス_31214" data-name="パス 31214" d="M296.677,609.565a.362.362,0,0,1-.33-.511,8.851,8.851,0,0,0,.358-1.41,15.287,15.287,0,0,1,1.238-3.968c.814-1.526,3.511-2.87,5.889-2.935a4.363,4.363,0,0,1,4.087,1.955,12.848,12.848,0,0,0,1.933,2.777.362.362,0,0,1-.025.686,5.738,5.738,0,0,1-5.473-1.63,6.033,6.033,0,0,0-1.04,3.794.362.362,0,0,1-.5.367,6.792,6.792,0,0,1-2.832-2.436,7.821,7.821,0,0,1-3.138,3.271.361.361,0,0,1-.166.041m7.344-8.1-.168,0c-2.113.058-4.576,1.25-5.271,2.553a14.726,14.726,0,0,0-1.168,3.775c-.042.2-.082.393-.121.569a6.663,6.663,0,0,0,2.285-3.029.362.362,0,0,1,.667-.042,6.614,6.614,0,0,0,2.335,2.473,6.2,6.2,0,0,1,1.492-4.021.367.367,0,0,1,.272-.115.362.362,0,0,1,.267.126,5.59,5.59,0,0,0,4.374,1.843,23.819,23.819,0,0,1-1.686-2.526,3.63,3.63,0,0,0-3.28-1.609m5.665,3.99h0Zm.039,0-.039,0,.039,0" transform="translate(-224.828 -455.808)" fill="#5479f7"/>
    <path id="パス_31215" data-name="パス 31215" d="M345.972,643.442c3.59,3.25,6.191,2.872,6.938,4.508s-1.769,3.812-7.656-.537c-5.513-4.073-8.654-12.869-7.212-13.451,2.2-.89,2.981,5,7.93,9.48" transform="translate(-256.224 -480.948)" fill="#caddff"/>
    <path id="パス_31216" data-name="パス 31216" d="M587.324,672.682s8.687-2.833,8.681,5.834c0,4.517-6.231,8.016-11.931,6.62-6.171-1.511-6.861-6.722-5.853-9.575s6.645-5.368,9.1-2.879" transform="translate(-438.435 -509.624)" fill="#5479f7"/>
    <path id="パス_31217" data-name="パス 31217" d="M585.519,684.657a11.233,11.233,0,0,1-2.666-.315,8.331,8.331,0,0,1-5.612-3.979,7.736,7.736,0,0,1-.5-6.068c.62-1.757,2.833-3.425,5.262-3.968a4.706,4.706,0,0,1,4.28.8c.885-.248,4.309-1.047,6.682.677,1.5,1.092,2.265,2.964,2.263,5.564a6.422,6.422,0,0,1-2.723,4.987,11.5,11.5,0,0,1-6.991,2.3m-2.042-13.775a6.111,6.111,0,0,0-1.312.152c-2.166.484-4.2,1.99-4.737,3.5a6.99,6.99,0,0,0,.449,5.483,7.632,7.632,0,0,0,5.148,3.62,10.93,10.93,0,0,0,9.039-1.85,5.719,5.719,0,0,0,2.445-4.418c0-2.353-.659-4.028-1.963-4.976-2.386-1.736-6.206-.526-6.244-.513a.364.364,0,0,1-.369-.09,3.353,3.353,0,0,0-2.455-.909" transform="translate(-437.3 -508.479)"/>
    <path id="パス_31218" data-name="パス 31218" d="M605.286,667.6s1.741-1.917,3.116-1.605l-1.644,2.37s3.036-.2,2.637,2.028a3.414,3.414,0,0,1-4.029-.883s-.123,3.053-2,3.324a2.177,2.177,0,0,1,.591-3.577l-2.856.023s2.056-3.5,4.184-1.68" transform="translate(-456.084 -505.295)"/>
    <path id="パス_31219" data-name="パス 31219" d="M584.731,690.759c.106.9.753,1.555,1.445,1.473a1.484,1.484,0,0,0,1.061-1.77c-.106-.9-.753-1.555-1.445-1.473a1.484,1.484,0,0,0-1.061,1.77" transform="translate(-443.651 -522.763)" fill="#fff"/>
    <path id="パス_31220" data-name="パス 31220" d="M636.838,677.583s9.806-5.727,12.079,4.8c1.185,5.488-5.458,11.375-12.749,11.18-7.892-.211-10.1-6.358-9.628-10.089s6.657-8.269,10.3-5.893" transform="translate(-475.339 -512.934)" fill="#5479f7"/>
    <path id="パス_31221" data-name="パス 31221" d="M635.371,692.78q-.174,0-.347,0a10.269,10.269,0,0,1-7.8-3.324,9.521,9.521,0,0,1-2.178-7.171c.288-2.27,2.515-4.85,5.3-6.136a5.745,5.745,0,0,1,5.37-.131c.925-.5,4.908-2.433,8.261-.956,2.087.919,3.487,2.971,4.163,6.1a7.894,7.894,0,0,1-1.975,6.7,14.423,14.423,0,0,1-10.79,4.924m-1.987-16.646a6.754,6.754,0,0,0-2.737.667c-2.529,1.169-4.628,3.564-4.882,5.57a8.775,8.775,0,0,0,2.009,6.609,9.569,9.569,0,0,0,7.27,3.072,13.689,13.689,0,0,0,10.561-4.658,7.193,7.193,0,0,0,1.825-6.084c-.624-2.889-1.885-4.77-3.747-5.591-3.405-1.5-7.752,1-7.8,1.026a.362.362,0,0,1-.38-.009,3.815,3.815,0,0,0-2.122-.6" transform="translate(-474.205 -511.784)"/>
    <path id="パス_31222" data-name="パス 31222" d="M655.578,669.626s1.61-2.786,3.362-2.77l-1.373,3.311s3.635-1.044,3.737,1.768a4.243,4.243,0,0,1-5.126-.012s.654,3.741-1.554,4.564c0,0-2.875-1.882-.223-4.5l-3.462.78s1.576-4.793,4.64-3.142" transform="translate(-493.897 -505.974)"/>
    <path id="パス_31223" data-name="パス 31223" d="M633.464,714.972a1.62,1.62,0,1,0,.823-2.428,1.843,1.843,0,0,0-.823,2.428" transform="translate(-480.532 -540.589)" fill="#fff"/>
    <path id="パス_31224" data-name="パス 31224" d="M697.206,664.551s3.5-10.8,12.207-4.464c4.539,3.3,3.505,12.12-2.063,16.831-6.027,5.1-11.77,1.986-13.9-1.112s-.542-10.6,3.756-11.255" transform="translate(-525.439 -499.326)" fill="#5479f7"/>
    <path id="パス_31225" data-name="パス 31225" d="M699.542,678.847a8.641,8.641,0,0,1-1.151-.077,9.522,9.522,0,0,1-6.4-3.9c-1.3-1.885-1.354-5.293-.136-8.1a5.745,5.745,0,0,1,3.918-3.674c.359-.986,2.041-5.084,5.524-6.215,2.168-.7,4.58-.106,7.168,1.777a7.894,7.894,0,0,1,2.988,6.313,14.419,14.419,0,0,1-5.03,11.087,10.688,10.688,0,0,1-6.881,2.792m3.565-21.53a5.1,5.1,0,0,0-1.587.249c-3.537,1.149-5.116,5.909-5.131,5.957a.362.362,0,0,1-.29.246c-2.01.305-3.106,2.189-3.581,3.285-1.107,2.557-1.078,5.741.068,7.406a8.777,8.777,0,0,0,5.9,3.592,9.562,9.562,0,0,0,7.469-2.551,13.671,13.671,0,0,0,4.775-10.508,7.192,7.192,0,0,0-2.691-5.754,8.573,8.573,0,0,0-4.932-1.924m-7.063,6.1h0Z" transform="translate(-524.277 -498.186)"/>
    <path id="パス_31226" data-name="パス 31226" d="M703.608,667.734s-.655-3.151.663-4.305l1.181,3.385s2.016-3.2,3.965-1.17a4.243,4.243,0,0,1-3.832,3.405s2.979,2.355,1.881,4.439c0,0-3.4.511-3.164-3.208l-2.063,2.888s-2.017-4.625,1.368-5.434" transform="translate(-532.37 -503.374)"/>
    <path id="パス_31227" data-name="パス 31227" d="M742.3,669.659a1.621,1.621,0,1,0-1-2.36,1.844,1.844,0,0,0,1,2.36" transform="translate(-562.332 -505.781)" fill="#fff"/>
    <path id="パス_31228" data-name="パス 31228" d="M633.01,641.869a.361.361,0,0,1-.338-.234c-.022-.059-2.287-5.9-7.1-7.545a36.542,36.542,0,0,0-6.222-1.182c-5.1-.7-10.371-1.418-11.433-4.714a.362.362,0,0,1,.689-.222c.922,2.862,6.193,3.583,10.842,4.219a36.92,36.92,0,0,1,6.358,1.214c5.137,1.755,7.445,7.721,7.541,7.974a.361.361,0,0,1-.21.466.357.357,0,0,1-.128.024" transform="translate(-461.242 -476.282)"/>
    <path id="パス_31229" data-name="パス 31229" d="M660.067,655.511a.38.38,0,0,1-.047,0,.361.361,0,0,1-.312-.405c.007-.053.644-5.357-2.986-7.868a.362.362,0,0,1,.412-.6c4,2.764,3.322,8.321,3.292,8.556a.362.362,0,0,1-.358.315" transform="translate(-498.167 -490.587)"/>
    <path id="パス_31230" data-name="パス 31230" d="M616.082,651.361a.362.362,0,0,1-.358-.311c-.006-.023-.017-.058-.03-.105-1.124-3.838.241-6.8,3.842-8.337a.362.362,0,0,1,.284.666c-3.221,1.375-4.44,4.027-3.432,7.468a.986.986,0,0,1,.056.244.362.362,0,0,1-.348.375h-.014" transform="translate(-466.864 -487.554)"/>
    <rect id="長方形_10588" data-name="長方形 10588" width="101.21" height="17.819" transform="translate(78.664 177.152)" fill="#fff"/>
    <path id="パス_31231" data-name="パス 31231" d="M426.135,751.343H324.926a.362.362,0,0,1-.362-.362V733.162a.362.362,0,0,1,.362-.362h101.21a.362.362,0,0,1,.362.362v17.819a.362.362,0,0,1-.362.362m-100.848-.724H425.774v-17.1H325.288Z" transform="translate(-246.262 -556.009)"/>
    <rect id="長方形_10589" data-name="長方形 10589" width="108.39" height="7.637" transform="translate(75.19 172.379)" fill="#fff"/>
    <path id="パス_31232" data-name="パス 31232" d="M418.916,721.376H310.526a.362.362,0,0,1-.362-.362v-7.637a.362.362,0,0,1,.362-.362h108.39a.362.362,0,0,1,.362.362v7.637a.362.362,0,0,1-.362.362m-108.028-.724H418.554V713.74H310.888Z" transform="translate(-235.336 -540.998)"/>
    <rect id="長方形_10590" data-name="長方形 10590" width="108.39" height="7.637" transform="translate(75.19 182.146)" fill="#fff"/>
    <path id="パス_31233" data-name="パス 31233" d="M418.916,761.86H310.526a.362.362,0,0,1-.362-.362v-7.637a.362.362,0,0,1,.362-.362h108.39a.362.362,0,0,1,.362.362V761.5a.362.362,0,0,1-.362.362m-108.028-.724H418.554v-6.913H310.888Z" transform="translate(-235.336 -571.715)"/>
    <rect id="長方形_10591" data-name="長方形 10591" width="108.39" height="7.637" transform="translate(75.19 191.913)" fill="#fff"/>
    <path id="パス_31234" data-name="パス 31234" d="M418.916,802.344H310.526a.362.362,0,0,1-.362-.362v-7.637a.362.362,0,0,1,.362-.362h108.39a.362.362,0,0,1,.362.362v7.637a.362.362,0,0,1-.362.362m-108.028-.724H418.554v-6.913H310.888Z" transform="translate(-235.336 -602.432)"/>
    <path id="パス_31235" data-name="パス 31235" d="M747.776,728.265a.746.746,0,1,0,.745-.8.771.771,0,0,0-.745.8" transform="translate(-567.372 -551.965)" fill="#fff"/>
    <path id="パス_31236" data-name="パス 31236" d="M747.382,728.285a1.159,1.159,0,1,1,1.106-1.158,1.134,1.134,0,0,1-1.106,1.158m0-1.591a.437.437,0,1,0,.383.434.411.411,0,0,0-.383-.434" transform="translate(-566.234 -550.827)"/>
    <path id="パス_31237" data-name="パス 31237" d="M747.776,768.749a.746.746,0,1,0,.745-.8.771.771,0,0,0-.745.8" transform="translate(-567.372 -582.682)" fill="#fff"/>
    <path id="パス_31238" data-name="パス 31238" d="M747.382,768.769a1.159,1.159,0,1,1,1.106-1.158,1.134,1.134,0,0,1-1.106,1.158m0-1.591a.437.437,0,1,0,.383.434.411.411,0,0,0-.383-.434" transform="translate(-566.234 -581.544)"/>
    <path id="パス_31239" data-name="パス 31239" d="M747.776,809.233a.746.746,0,1,0,.745-.8.771.771,0,0,0-.745.8" transform="translate(-567.372 -613.399)" fill="#fff"/>
    <path id="パス_31240" data-name="パス 31240" d="M747.382,809.253a1.159,1.159,0,1,1,1.106-1.158,1.134,1.134,0,0,1-1.106,1.158m0-1.591a.437.437,0,1,0,.383.434.411.411,0,0,0-.383-.434" transform="translate(-566.234 -612.261)"/>
    <path id="パス_31241" data-name="パス 31241" d="M320.3,728.265a.746.746,0,1,0,.745-.8.771.771,0,0,0-.745.8" transform="translate(-243.027 -551.965)" fill="#fff"/>
    <path id="パス_31242" data-name="パス 31242" d="M319.907,728.285a1.159,1.159,0,1,1,1.106-1.158,1.134,1.134,0,0,1-1.106,1.158m0-1.591a.437.437,0,1,0,.382.434.411.411,0,0,0-.382-.434" transform="translate(-241.889 -550.827)"/>
    <path id="パス_31243" data-name="パス 31243" d="M320.3,768.749a.746.746,0,1,0,.745-.8.771.771,0,0,0-.745.8" transform="translate(-243.027 -582.682)" fill="#fff"/>
    <path id="パス_31244" data-name="パス 31244" d="M319.907,768.769a1.159,1.159,0,1,1,1.106-1.158,1.134,1.134,0,0,1-1.106,1.158m0-1.591a.437.437,0,1,0,.382.434.411.411,0,0,0-.382-.434" transform="translate(-241.889 -581.544)"/>
    <path id="パス_31245" data-name="パス 31245" d="M320.3,809.233a.746.746,0,1,0,.745-.8.771.771,0,0,0-.745.8" transform="translate(-243.027 -613.399)" fill="#fff"/>
    <path id="パス_31246" data-name="パス 31246" d="M319.907,809.253a1.159,1.159,0,1,1,1.106-1.158,1.134,1.134,0,0,1-1.106,1.158m0-1.591a.437.437,0,1,0,.382.434.411.411,0,0,0-.382-.434" transform="translate(-241.889 -612.261)"/>
    <path id="パス_31247" data-name="パス 31247" d="M773.2,661.425l-12.259,14.65v-7.637L773.2,653.788Z" transform="translate(-577.362 -496.06)" fill="#fff"/>
    <path id="パス_31248" data-name="パス 31248" d="M759.8,675.3a.362.362,0,0,1-.362-.362V667.3a.365.365,0,0,1,.084-.232l12.259-14.65a.362.362,0,0,1,.639.232v7.637a.362.362,0,0,1-.084.232l-12.259,14.65a.362.362,0,0,1-.278.13m.362-7.867v6.509L771.7,660.157v-6.509Zm11.9-7.145h0Z" transform="translate(-576.223 -494.923)"/>
    <path id="パス_31249" data-name="パス 31249" d="M773.2,701.91l-12.259,14.65v-7.637L773.2,694.273Z" transform="translate(-577.362 -526.777)" fill="#fff"/>
    <path id="パス_31250" data-name="パス 31250" d="M759.8,715.785a.362.362,0,0,1-.362-.362v-7.637a.364.364,0,0,1,.084-.232l12.259-14.65a.362.362,0,0,1,.639.232v7.637a.362.362,0,0,1-.084.232l-12.259,14.65a.363.363,0,0,1-.278.13m.362-7.867v6.509L771.7,700.641v-6.509Zm11.9-7.145h0Z" transform="translate(-576.223 -525.64)"/>
    <path id="パス_31251" data-name="パス 31251" d="M773.2,742.394l-12.259,14.65v-7.637L773.2,734.757Z" transform="translate(-577.362 -557.494)" fill="#fff"/>
    <path id="パス_31252" data-name="パス 31252" d="M759.8,756.269a.362.362,0,0,1-.362-.362V748.27a.365.365,0,0,1,.084-.232l12.259-14.65a.362.362,0,0,1,.639.232v7.637a.363.363,0,0,1-.084.232l-12.259,14.65a.363.363,0,0,1-.278.13m.362-7.867v6.509L771.7,741.125v-6.509Zm11.9-7.145h0Z" transform="translate(-576.223 -556.356)"/>
    <path id="パス_31253" data-name="パス 31253" d="M423.295,16.62a.36.36,0,0,1-.151-.033c-19.1-8.76-39.682-6.713-39.887-6.691a.362.362,0,1,1-.076-.72c.208-.021,20.99-2.089,40.265,6.754a.362.362,0,0,1-.151.691" transform="translate(-290.491 -6.792)"/>
    <path id="パス_31254" data-name="パス 31254" d="M413.949,23.631a.36.36,0,0,1-.114-.018c-6.513-2.154-15.687-1.269-15.778-1.261a.362.362,0,1,1-.072-.72c.093-.009,9.417-.91,16.078,1.293a.362.362,0,0,1-.114.705" transform="translate(-301.723 -16.269)"/>
    <path id="パス_31255" data-name="パス 31255" d="M474.723,32.887a1.361,1.361,0,0,1-.4-.062,1.345,1.345,0,0,1-.8-.665,1.363,1.363,0,0,1,.57-1.832,1.351,1.351,0,0,1,1.829.57,1.363,1.363,0,0,1-.57,1.832,1.345,1.345,0,0,1-.629.157m.461-.477h0Zm-.46-1.515a.628.628,0,0,0-.293.073.637.637,0,0,0-.266.857.627.627,0,0,0,.849.265.638.638,0,0,0,.266-.857.631.631,0,0,0-.557-.338" transform="translate(-359.167 -22.892)"/>
    <path id="パス_31256" data-name="パス 31256" d="M789.477,348.427a.361.361,0,0,1-.268-.119,2.571,2.571,0,0,1-.851-2.175,1.7,1.7,0,0,1,.624-.971,1.361,1.361,0,0,0,.429-.554c.16-.444-.04-.814-.381-1.381a2.612,2.612,0,0,1-.534-1.839c.161-.89.91-1.271,1.571-1.608.577-.294,1.123-.571,1.294-1.141.2-.652-.221-1.284-.663-1.954a3.018,3.018,0,0,1-.744-2.571,2.787,2.787,0,0,1,1.553-1.531c.506-.278.943-.517,1.032-.949.13-.633-.479-1.494-1.762-2.49a.362.362,0,1,1,.444-.572c1.559,1.21,2.222,2.26,2.028,3.207-.156.759-.813,1.12-1.393,1.438-.535.294-1.04.571-1.211,1.114-.2.65.214,1.284.657,1.955a3.053,3.053,0,0,1,.752,2.562,2.779,2.779,0,0,1-1.659,1.577c-.585.3-1.09.555-1.187,1.091a2.008,2.008,0,0,0,.442,1.338,2.242,2.242,0,0,1,.44,2,2.037,2.037,0,0,1-.623.843,1.014,1.014,0,0,0-.4.576,1.925,1.925,0,0,0,.678,1.549.362.362,0,0,1-.269.6" transform="translate(-598.139 -249.244)"/>
    <path id="パス_31257" data-name="パス 31257" d="M814.915,416.91a.362.362,0,0,1-.134-.7l1.738-.694a.362.362,0,0,1,.268.673l-1.738.694a.363.363,0,0,1-.134.026" transform="translate(-618.039 -315.254)"/>
    <path id="パス_31258" data-name="パス 31258" d="M798.135,423.606a.362.362,0,0,1-.134-.7l1.738-.694a.362.362,0,1,1,.268.673l-1.738.693a.364.364,0,0,1-.134.026" transform="translate(-605.307 -320.335)"/>
    <path id="パス_31259" data-name="パス 31259" d="M806.035,410.749a.362.362,0,0,1-.336-.228l-.693-1.738a.362.362,0,0,1,.673-.268l.693,1.738a.362.362,0,0,1-.336.5" transform="translate(-610.775 -309.787)"/>
    <path id="パス_31260" data-name="パス 31260" d="M812.73,427.529a.362.362,0,0,1-.336-.228l-.694-1.738a.362.362,0,1,1,.672-.268l.694,1.738a.362.362,0,0,1-.336.5" transform="translate(-615.855 -322.518)"/>
    <path id="パス_31261" data-name="パス 31261" d="M764.139,281.2a.362.362,0,0,1-.35-.453c5.344-20.518-3.05-41.374-3.135-41.582a.362.362,0,1,1,.669-.275c.087.211,8.571,21.291,3.166,42.04a.362.362,0,0,1-.35.271" transform="translate(-577.122 -181.085)"/>
    <path id="パス_31262" data-name="パス 31262" d="M124.808,651.9a.361.361,0,0,1-.112-.018c-17.859-5.8-28.346-14.626-34-21.013-6.14-6.939-8.016-12.425-8.093-12.655a.362.362,0,0,1,.687-.229c.018.055,1.922,5.6,7.978,12.438,5.592,6.308,15.968,15.033,33.65,20.771a.362.362,0,0,1-.112.706" transform="translate(-62.662 -468.706)"/>
    <path id="パス_31263" data-name="パス 31263" d="M98.452,645.529a.36.36,0,0,1-.143-.03c-17.2-7.432-26.745-17.033-31.726-23.78-5.412-7.331-6.725-12.822-6.778-13.052a.362.362,0,0,1,.705-.163c.013.055,1.345,5.606,6.682,12.823,4.928,6.663,14.377,16.15,31.4,23.508a.362.362,0,0,1-.144.694" transform="translate(-45.369 -461.488)"/>
    <path id="パス_31264" data-name="パス 31264" d="M34.841,598.586a.373.373,0,0,1-.091-.012,2.153,2.153,0,0,1-1.6-1.138,1.442,1.442,0,0,1-.013-.981,1.038,1.038,0,0,0,.044-.536c-.082-.344-.373-.5-.84-.724a2.177,2.177,0,0,1-1.218-1.046,2.006,2.006,0,0,1,.353-1.856,1.7,1.7,0,0,0,.364-1.3c-.149-.5-.676-.727-1.287-.989-.683-.293-1.456-.625-1.694-1.459a2.355,2.355,0,0,1,.377-1.785c.245-.463.39-.761.274-1.051-.182-.456-.983-.763-2.255-.863a.362.362,0,1,1,.057-.721c1.629.127,2.568.558,2.871,1.316a1.923,1.923,0,0,1-.307,1.657,1.722,1.722,0,0,0-.32,1.249c.143.5.671.73,1.283.992.68.292,1.45.622,1.7,1.448a2.312,2.312,0,0,1-.429,1.867c-.3.518-.469.854-.316,1.214.14.328.477.49.866.678a1.877,1.877,0,0,1,1.23,1.208,1.713,1.713,0,0,1-.047.884.757.757,0,0,0-.018.529c.127.313.5.552,1.109.71a.362.362,0,0,1-.091.712" transform="translate(-20.429 -443.198)"/>
  </g>
</svg>
