<svg id="グループ_1354" data-name="グループ 1354" xmlns="http://www.w3.org/2000/svg" xmlns:xlink="http://www.w3.org/1999/xlink" width="162.862" height="22" viewBox="0 0 162.862 22">
  <defs>
    <clipPath id="clip-path">
      <rect id="長方形_1142" data-name="長方形 1142" width="162.862" height="22" fill="#333"/>
    </clipPath>
  </defs>
  <g id="グループ_1353" data-name="グループ 1353" transform="translate(0 0)" clip-path="url(#clip-path)">
    <path id="パス_29081" data-name="パス 29081" d="M32.318,0H28.153V.122a14.133,14.133,0,0,1,4.5.964C34.8,2.005,40.119,5.142,40.119,11s-5.307,9.03-7.465,9.915a16.046,16.046,0,0,1-4.5.967V22l3.965-.057c6.074,0,11.536-4.868,11.536-10.944S38.61.173,32.318,0" transform="translate(-2.783 0)" fill="#333"/>
    <path id="パス_29082" data-name="パス 29082" d="M8.9,17.16,16.923,0h5.923V.1C19.935.44,19.563,1.591,19.631,3.96l.135,13c.136,3.622.237,4.636,3.215,4.941V22h-9v-.1c2.776-.27,2.877-1.319,2.843-4.941l.033-13.809C14.08,9.341,9.613,19.022,8.428,22h-.88C6.4,18.92,2.573,9.612,0,3.486Z" transform="translate(0 0)" fill="#333"/>
    <path id="パス_29083" data-name="パス 29083" d="M63.584,8.835V16.4h-.768V10.349l-2.974,5.093h-.378L56.49,10.381V16.4h-.769V8.835h.661l3.287,5.612,3.255-5.612Z" transform="translate(-5.508 -0.873)" fill="#333"/>
    <path id="パス_29084" data-name="パス 29084" d="M76.863,11.432a2.152,2.152,0,0,1,.595,1.649v3.525h-.734V15.72a1.763,1.763,0,0,1-.763.692,2.663,2.663,0,0,1-1.195.249,2.341,2.341,0,0,1-1.514-.454,1.563,1.563,0,0,1-.037-2.368,2.565,2.565,0,0,1,1.671-.443h1.806v-.346a1.461,1.461,0,0,0-.411-1.119,1.7,1.7,0,0,0-1.2-.384,3.047,3.047,0,0,0-1.037.178,2.621,2.621,0,0,0-.855.492l-.345-.573a3.055,3.055,0,0,1,1.037-.568,4.046,4.046,0,0,1,1.276-.2,2.406,2.406,0,0,1,1.709.557M76,15.757a1.776,1.776,0,0,0,.692-.86v-.93H74.906q-1.46,0-1.459,1.017a.928.928,0,0,0,.378.784,1.721,1.721,0,0,0,1.06.287,2.026,2.026,0,0,0,1.114-.3" transform="translate(-7.185 -1.075)" fill="#333"/>
    <path id="パス_29085" data-name="パス 29085" d="M88.054,11.167a2.741,2.741,0,0,1,1.326-.292v.746L89.2,11.61a1.815,1.815,0,0,0-1.406.552,2.193,2.193,0,0,0-.508,1.546v2.9h-.768V10.918h.734v1.114a1.865,1.865,0,0,1,.806-.865" transform="translate(-8.551 -1.075)" fill="#333"/>
    <path id="パス_29086" data-name="パス 29086" d="M98.327,16.293a2.665,2.665,0,0,1-1.043-1.033,2.975,2.975,0,0,1-.379-1.5,2.945,2.945,0,0,1,.379-1.492,2.676,2.676,0,0,1,1.043-1.027,3.079,3.079,0,0,1,1.509-.368,2.921,2.921,0,0,1,1.314.287,2.18,2.18,0,0,1,.913.838l-.572.389a1.793,1.793,0,0,0-.714-.633,2.121,2.121,0,0,0-.941-.211,2.228,2.228,0,0,0-1.108.276,1.932,1.932,0,0,0-.768.784,2.577,2.577,0,0,0,0,2.32,1.941,1.941,0,0,0,.768.779,2.228,2.228,0,0,0,1.108.276,2.167,2.167,0,0,0,.941-.205,1.753,1.753,0,0,0,.714-.627l.572.389a2.172,2.172,0,0,1-.918.838,2.93,2.93,0,0,1-1.308.287,3.069,3.069,0,0,1-1.509-.368" transform="translate(-9.578 -1.075)" fill="#333"/>
    <path id="パス_29087" data-name="パス 29087" d="M115.115,11.245a2.428,2.428,0,0,1,.632,1.811v3.3h-.767V13.132a1.882,1.882,0,0,0-.444-1.352,1.664,1.664,0,0,0-1.265-.465,1.94,1.94,0,0,0-1.454.546,2.059,2.059,0,0,0-.535,1.509v2.985h-.768V8.331h.768v3.331a2.079,2.079,0,0,1,.864-.768,2.842,2.842,0,0,1,1.265-.27,2.328,2.328,0,0,1,1.7.622" transform="translate(-10.923 -0.823)" fill="#333"/>
    <path id="パス_29088" data-name="パス 29088" d="M129.744,14h-4.759a2.037,2.037,0,0,0,.682,1.433,2.261,2.261,0,0,0,1.556.546,2.45,2.45,0,0,0,.973-.189,2.118,2.118,0,0,0,.768-.557l.433.5a2.432,2.432,0,0,1-.945.692,3.2,3.2,0,0,1-1.249.238,3.159,3.159,0,0,1-1.553-.373,2.7,2.7,0,0,1-1.054-1.033,2.953,2.953,0,0,1-.379-1.492,3.049,3.049,0,0,1,.363-1.492,2.615,2.615,0,0,1,.994-1.027A2.78,2.78,0,0,1,127,10.875a2.752,2.752,0,0,1,1.417.368,2.6,2.6,0,0,1,.983,1.022,3.077,3.077,0,0,1,.358,1.5Zm-4.126-1.941a2.065,2.065,0,0,0-.634,1.368h4.034a2.063,2.063,0,0,0-.632-1.368,2.089,2.089,0,0,0-2.768,0" transform="translate(-12.278 -1.075)" fill="#333"/>
    <path id="パス_29089" data-name="パス 29089" d="M147.858,8.835h3.082a4.5,4.5,0,0,1,2.119.481,3.511,3.511,0,0,1,1.427,1.341A3.775,3.775,0,0,1,155,12.62a3.775,3.775,0,0,1-.509,1.963,3.511,3.511,0,0,1-1.427,1.341,4.5,4.5,0,0,1-2.119.481h-3.082Zm3.039,6.878a3.673,3.673,0,0,0,1.741-.395,2.879,2.879,0,0,0,1.157-1.092,3.343,3.343,0,0,0,0-3.212,2.879,2.879,0,0,0-1.157-1.092,3.673,3.673,0,0,0-1.741-.395h-2.238v6.186Z" transform="translate(-14.614 -0.873)" fill="#333"/>
    <path id="パス_29090" data-name="パス 29090" d="M164.586,16.287a2.712,2.712,0,0,1-1.037-1.033,3.125,3.125,0,0,1,0-2.985,2.674,2.674,0,0,1,1.037-1.027,3.169,3.169,0,0,1,2.963,0,2.641,2.641,0,0,1,1.034,1.027,3.171,3.171,0,0,1,0,2.985,2.678,2.678,0,0,1-1.034,1.033,3.128,3.128,0,0,1-2.963,0m2.569-.584a1.934,1.934,0,0,0,.752-.784,2.619,2.619,0,0,0,0-2.314,1.934,1.934,0,0,0-.752-.784,2.28,2.28,0,0,0-2.174,0,1.947,1.947,0,0,0-.757.784,2.558,2.558,0,0,0,0,2.314,1.947,1.947,0,0,0,.757.784,2.28,2.28,0,0,0,2.174,0" transform="translate(-16.128 -1.075)" fill="#333"/>
    <path id="パス_29091" data-name="パス 29091" d="M179.086,11.167a2.738,2.738,0,0,1,1.325-.292v.746l-.183-.011a1.819,1.819,0,0,0-1.407.552,2.2,2.2,0,0,0-.508,1.546v2.9h-.768V10.918h.735v1.114a1.861,1.861,0,0,1,.806-.865" transform="translate(-17.549 -1.075)" fill="#333"/>
  </g>
</svg>
