<svg xmlns="http://www.w3.org/2000/svg" xmlns:xlink="http://www.w3.org/1999/xlink" width="257.035" height="24.855" viewBox="0 0 257.035 24.855">
  <defs>
    <clipPath id="clip-path">
      <rect id="長方形_1142" data-name="長方形 1142" width="184" height="24.855" fill="#333"/>
    </clipPath>
  </defs>
  <g id="グループ_669" data-name="グループ 669" transform="translate(-102.789 -2505.072)">
    <path id="パス_33217" data-name="パス 33217" d="M-29.208-19.392-32.856-17.9c1.056,2.5,2.184,4.968,3.288,7.032-2.208,1.656-3.912,3.648-3.912,6.36,0,4.44,3.816,5.76,8.76,5.76a46.125,46.125,0,0,0,7.776-.6l.048-4.2a39.682,39.682,0,0,1-7.92.936c-3.072,0-4.608-.744-4.608-2.328s1.344-2.856,3.192-4.08a68.038,68.038,0,0,1,6.36-3.336c.984-.48,1.848-.96,2.688-1.464l-2.016-3.36a18.031,18.031,0,0,1-2.5,1.632c-1.032.6-2.856,1.536-4.608,2.544A49,49,0,0,1-29.208-19.392ZM-.264-3.264c0-.768.744-1.2,1.872-1.2a6.041,6.041,0,0,1,1.608.216v.168c0,1.32-.456,1.944-1.608,1.944C.576-2.136-.264-2.424-.264-3.264Zm7.08-15.7H2.664A11.718,11.718,0,0,1,2.856-17.3c.024.432.024,1.32.048,2.448-.456.024-.888.024-1.344.024a41.854,41.854,0,0,1-4.3-.216l.024,3.456c1.416.1,2.856.144,4.3.144.432,0,.888,0,1.344-.024.024,1.512.1,2.976.168,4.248-.384-.024-.792-.048-1.2-.048-3.36,0-5.568,1.728-5.568,4.416C-3.672-.144-1.44,1.3,1.944,1.3,5.088,1.3,6.576-.1,6.888-2.352A32.093,32.093,0,0,1,9.456-.168l1.968-3.048a15.214,15.214,0,0,0-4.608-3.1c-.072-1.44-.192-3.144-.24-5.352,1.248-.072,2.424-.216,3.5-.36v-3.624c-1.08.24-2.256.408-3.48.552.024-1.008.048-1.8.072-2.256A16.014,16.014,0,0,1,6.816-18.96Zm-11.64.312-4.008-.336C-8.856-18.1-9-16.992-9.1-16.272a74.383,74.383,0,0,0-.936,9.96,27.948,27.948,0,0,0,.984,7.7l3.288-.24C-5.784.768-5.784.336-5.784.072A7.25,7.25,0,0,1-5.64-1.056c.288-1.392,1.008-3.816,1.728-5.976L-5.664-8.448c-.312.72-.624,1.176-.912,1.872A4.436,4.436,0,0,1-6.6-7.128,68.081,68.081,0,0,1-5.472-16.2,23.363,23.363,0,0,1-4.824-18.648ZM23.328-6.384h3.744c-.216-3.168,4.752-3.408,4.752-6.864,0-3.432-2.76-4.992-6.288-4.992a8.114,8.114,0,0,0-6.288,3.024l2.352,2.16a4.573,4.573,0,0,1,3.432-1.728c1.584,0,2.712.6,2.712,1.92C27.744-10.752,22.944-10.032,23.328-6.384ZM25.2.288A2.371,2.371,0,0,0,27.648-2.16,2.332,2.332,0,0,0,25.2-4.56a2.332,2.332,0,0,0-2.448,2.4A2.357,2.357,0,0,0,25.2.288Z" transform="translate(328 2526)" fill="#333"/>
    <g id="グループ_6315" data-name="グループ 6315" transform="translate(102.789 2505.072)">
      <g id="グループ_1353" data-name="グループ 1353" transform="translate(0 0)" clip-path="url(#clip-path)">
        <path id="パス_29081" data-name="パス 29081" d="M32.859,0H28.153V.137a15.967,15.967,0,0,1,5.084,1.089c2.422,1.038,8.434,4.583,8.434,11.2s-6,10.2-8.434,11.2a18.128,18.128,0,0,1-5.084,1.092v.134l4.48-.064c6.862,0,13.033-5.5,13.033-12.364S39.967.2,32.859,0" transform="translate(0.51 0)" fill="#333"/>
        <path id="パス_29082" data-name="パス 29082" d="M10.057,19.387,19.119,0h6.692V.115C22.523.5,22.1,1.8,22.179,4.474l.153,14.684c.154,4.092.268,5.238,3.633,5.582v.115H15.793V24.74c3.136-.305,3.25-1.491,3.212-5.582l.038-15.6c-3.136,7-8.183,17.934-9.521,21.3H8.528c-1.3-3.48-5.621-14-8.528-20.917Z" transform="translate(0 0)" fill="#333"/>
        <path id="パス_29083" data-name="パス 29083" d="M64.6,8.835v8.552h-.867V10.545L60.377,16.3h-.428l-3.36-5.718v6.805h-.868V8.835h.746l3.714,6.341,3.677-6.341Z" transform="translate(1.01 0.16)" fill="#333"/>
        <path id="パス_29084" data-name="パス 29084" d="M77.4,11.5a2.431,2.431,0,0,1,.672,1.863V17.35h-.83v-1a1.992,1.992,0,0,1-.862.782,3.009,3.009,0,0,1-1.35.281,2.645,2.645,0,0,1-1.71-.513,1.766,1.766,0,0,1-.042-2.676,2.9,2.9,0,0,1,1.888-.5h2.04v-.391a1.651,1.651,0,0,0-.464-1.265,1.92,1.92,0,0,0-1.357-.434,3.442,3.442,0,0,0-1.172.2,2.961,2.961,0,0,0-.966.556l-.39-.648a3.452,3.452,0,0,1,1.172-.641,4.571,4.571,0,0,1,1.442-.226,2.719,2.719,0,0,1,1.93.629m-.976,4.887a2.006,2.006,0,0,0,.782-.971V14.369H75.194q-1.649,0-1.648,1.148a1.048,1.048,0,0,0,.428.886,1.945,1.945,0,0,0,1.2.324,2.288,2.288,0,0,0,1.258-.336" transform="translate(1.317 0.197)" fill="#333"/>
        <path id="パス_29085" data-name="パス 29085" d="M88.254,11.2a3.1,3.1,0,0,1,1.5-.33v.843l-.208-.012a2.051,2.051,0,0,0-1.588.623,2.478,2.478,0,0,0-.574,1.747V17.35h-.867V10.924h.83v1.258a2.107,2.107,0,0,1,.91-.977" transform="translate(1.568 0.197)" fill="#333"/>
        <path id="パス_29086" data-name="パス 29086" d="M98.512,17a3.011,3.011,0,0,1-1.178-1.167,3.361,3.361,0,0,1-.429-1.692,3.327,3.327,0,0,1,.429-1.686,3.023,3.023,0,0,1,1.178-1.161,3.478,3.478,0,0,1,1.705-.415,3.3,3.3,0,0,1,1.484.324,2.462,2.462,0,0,1,1.031.947l-.646.44a2.026,2.026,0,0,0-.806-.715,2.4,2.4,0,0,0-1.063-.238,2.517,2.517,0,0,0-1.252.312,2.183,2.183,0,0,0-.867.886,2.911,2.911,0,0,0,0,2.621,2.193,2.193,0,0,0,.867.88,2.517,2.517,0,0,0,1.252.312,2.449,2.449,0,0,0,1.063-.232,1.98,1.98,0,0,0,.806-.709l.646.44a2.454,2.454,0,0,1-1.037.947,3.311,3.311,0,0,1-1.478.324A3.467,3.467,0,0,1,98.512,17" transform="translate(1.756 0.197)" fill="#333"/>
        <path id="パス_29087" data-name="パス 29087" d="M115.713,11.624a2.743,2.743,0,0,1,.714,2.046V17.4h-.866V13.756a2.126,2.126,0,0,0-.5-1.527,1.88,1.88,0,0,0-1.429-.525,2.192,2.192,0,0,0-1.642.617,2.326,2.326,0,0,0-.6,1.7V17.4h-.867V8.331h.867v3.763a2.349,2.349,0,0,1,.976-.867,3.21,3.21,0,0,1,1.429-.305,2.63,2.63,0,0,1,1.925.7" transform="translate(2.003 0.151)" fill="#333"/>
        <path id="パス_29088" data-name="パス 29088" d="M130.461,14.406h-5.377a2.3,2.3,0,0,0,.771,1.619,2.554,2.554,0,0,0,1.758.617,2.768,2.768,0,0,0,1.1-.214,2.393,2.393,0,0,0,.867-.629l.489.562a2.748,2.748,0,0,1-1.068.782,3.616,3.616,0,0,1-1.411.269,3.569,3.569,0,0,1-1.754-.422,3.045,3.045,0,0,1-1.191-1.167,3.337,3.337,0,0,1-.428-1.686,3.444,3.444,0,0,1,.41-1.686,2.954,2.954,0,0,1,1.123-1.161,3.141,3.141,0,0,1,1.607-.415,3.109,3.109,0,0,1,1.6.415,2.942,2.942,0,0,1,1.111,1.155,3.477,3.477,0,0,1,.4,1.692ZM125.8,12.213a2.333,2.333,0,0,0-.716,1.546h4.557a2.331,2.331,0,0,0-.714-1.546,2.36,2.36,0,0,0-3.128,0" transform="translate(2.251 0.197)" fill="#333"/>
        <path id="パス_29089" data-name="パス 29089" d="M147.858,8.835h3.482a5.081,5.081,0,0,1,2.394.544,3.967,3.967,0,0,1,1.613,1.515,4.265,4.265,0,0,1,.575,2.217,4.265,4.265,0,0,1-.575,2.217,3.967,3.967,0,0,1-1.613,1.515,5.081,5.081,0,0,1-2.394.544h-3.482Zm3.433,7.77a4.15,4.15,0,0,0,1.967-.446,3.253,3.253,0,0,0,1.307-1.234,3.507,3.507,0,0,0,.464-1.814,3.507,3.507,0,0,0-.464-1.814,3.253,3.253,0,0,0-1.307-1.234,4.15,4.15,0,0,0-1.967-.446h-2.529v6.988Z" transform="translate(2.679 0.16)" fill="#333"/>
        <path id="パス_29090" data-name="パス 29090" d="M164.769,16.99a3.064,3.064,0,0,1-1.172-1.167,3.53,3.53,0,0,1,0-3.372,3.021,3.021,0,0,1,1.172-1.161,3.58,3.58,0,0,1,3.348,0,2.983,2.983,0,0,1,1.168,1.161,3.582,3.582,0,0,1,0,3.372,3.026,3.026,0,0,1-1.168,1.167,3.534,3.534,0,0,1-3.348,0m2.9-.66a2.185,2.185,0,0,0,.849-.886,2.959,2.959,0,0,0,0-2.615,2.185,2.185,0,0,0-.849-.886,2.575,2.575,0,0,0-2.456,0,2.2,2.2,0,0,0-.855.886,2.89,2.89,0,0,0,0,2.615,2.2,2.2,0,0,0,.855.886,2.575,2.575,0,0,0,2.456,0" transform="translate(2.957 0.197)" fill="#333"/>
        <path id="パス_29091" data-name="パス 29091" d="M179.286,11.2a3.093,3.093,0,0,1,1.5-.33v.843l-.207-.012a2.055,2.055,0,0,0-1.589.623,2.482,2.482,0,0,0-.574,1.747V17.35h-.867V10.924h.831v1.258a2.1,2.1,0,0,1,.91-.977" transform="translate(3.217 0.197)" fill="#333"/>
      </g>
    </g>
  </g>
</svg>
