<svg xmlns="http://www.w3.org/2000/svg" xmlns:xlink="http://www.w3.org/1999/xlink" width="279.116" height="22.154" viewBox="0 0 279.116 22.154">
  <defs>
    <clipPath id="clip-path">
      <rect id="長方形_1142" data-name="長方形 1142" width="164" height="22.154" fill="#333"/>
    </clipPath>
  </defs>
  <g id="グループ_6312" data-name="グループ 6312" transform="translate(-380 -2701.923)">
    <path id="パス_33218" data-name="パス 33218" d="M-55.278-12.348l.234,2.466c2.088-.45,5.76-.846,7.452-1.026a7.2,7.2,0,0,0-2.682,5.562c0,3.906,3.564,5.922,7.344,6.174l.846-2.466c-3.06-.162-5.832-1.224-5.832-4.194a5.47,5.47,0,0,1,3.816-5.04,18.7,18.7,0,0,1,3.474-.252l-.018-2.3c-1.278.054-3.24.162-5.094.324-3.294.27-6.264.54-7.776.666C-53.856-12.4-54.558-12.366-55.278-12.348ZM-43.2-9.36l-1.332.558a13.888,13.888,0,0,1,1.4,2.5l1.368-.612A22.342,22.342,0,0,0-43.2-9.36Zm2.016-.828-1.314.612a15.835,15.835,0,0,1,1.476,2.43l1.35-.648A26.926,26.926,0,0,0-41.184-10.188Zm4.986-2.16.234,2.466c2.088-.45,5.76-.846,7.452-1.026a7.2,7.2,0,0,0-2.682,5.562c0,3.906,3.564,5.922,7.344,6.174L-23-1.638c-3.06-.162-5.832-1.224-5.832-4.194a5.47,5.47,0,0,1,3.816-5.04,18.7,18.7,0,0,1,3.474-.252l-.018-2.3c-1.278.054-3.24.162-5.094.324-3.294.27-6.264.54-7.776.666C-34.776-12.4-35.478-12.366-36.2-12.348ZM-24.12-9.36l-1.332.558a13.888,13.888,0,0,1,1.4,2.5l1.368-.612A22.342,22.342,0,0,0-24.12-9.36Zm2.016-.828-1.314.612a15.835,15.835,0,0,1,1.476,2.43l1.35-.648A26.925,26.925,0,0,0-22.1-10.188Zm6.372,1.044.126,2.124A66.94,66.94,0,0,0-7.776-7c.288.612.63,1.242,1.008,1.872-.54-.054-1.512-.144-2.268-.216l-.18,1.71c1.314.144,3.258.378,4.266.576l1.1-1.656a5.487,5.487,0,0,1-.81-.918,16.381,16.381,0,0,1-.936-1.6,24.119,24.119,0,0,0,2.88-.558l-.36-2.124a23.238,23.238,0,0,1-3.438.72c-.108-.288-.216-.558-.306-.81-.09-.27-.18-.558-.27-.846A26.241,26.241,0,0,0-3.78-11.52l-.288-2.07a20.688,20.688,0,0,1-3.546.774q-.189-.918-.324-1.89l-2.412.27c.216.63.4,1.206.576,1.782a37.442,37.442,0,0,1-5.634-.27l.126,2.07a42.085,42.085,0,0,0,6.066.162c.108.306.216.648.36,1.062.072.2.144.414.234.63A46.126,46.126,0,0,1-15.732-9.144Zm3.456,4.176L-14.508-5.4a5.977,5.977,0,0,0-.774,2.9c.036,2.574,2.268,3.636,5.868,3.636A27.647,27.647,0,0,0-5.04.792l.126-2.286a23.691,23.691,0,0,1-4.518.4c-2.376,0-3.636-.54-3.636-1.872A3.378,3.378,0,0,1-12.276-4.968ZM7.38-2.124c0-.45.432-.864,1.116-.864.972,0,1.638.756,1.746,1.926A9.4,9.4,0,0,1,9.2-1.008C8.118-1.008,7.38-1.458,7.38-2.124ZM4.32-13.716l.072,2.34c.414-.054.99-.108,1.476-.144.954-.054,3.438-.162,4.356-.18-.882.774-2.754,2.286-3.762,3.114C5.4-7.7,3.222-5.868,1.944-4.842L3.582-3.15C5.508-5.346,7.308-6.8,10.062-6.8c2.124,0,3.744,1.1,3.744,2.718a2.609,2.609,0,0,1-1.494,2.448A3.6,3.6,0,0,0,8.478-4.716,3.016,3.016,0,0,0,5.256-1.908c0,1.8,1.89,2.952,4.392,2.952,4.356,0,6.516-2.25,6.516-5.094,0-2.628-2.322-4.536-5.382-4.536a7.032,7.032,0,0,0-1.71.2c1.134-.9,3.024-2.484,4-3.168.414-.306.846-.558,1.26-.828l-1.17-1.6a7.865,7.865,0,0,1-1.368.2c-1.026.09-4.878.162-5.832.162A12.491,12.491,0,0,1,4.32-13.716Zm19.044.63v2.376c1.458.126,3.024.2,4.914.2,1.71,0,3.942-.108,5.2-.216v-2.394c-1.386.144-3.438.252-5.22.252A47.219,47.219,0,0,1,23.364-13.086Zm1.512,7.632L22.518-5.67a11.644,11.644,0,0,0-.36,2.592c0,2.466,2.07,3.852,6.192,3.852A27.737,27.737,0,0,0,34.6.162l-.018-2.538a24.715,24.715,0,0,1-6.318.72c-2.592,0-3.69-.828-3.69-1.98A6.632,6.632,0,0,1,24.876-5.454ZM44.46-14.346l-2.25.918c.81,1.908,1.674,3.834,2.5,5.364-1.728,1.278-2.988,2.772-2.988,4.752,0,3.1,2.718,4.086,6.3,4.086A33.429,33.429,0,0,0,53.8.324l.036-2.592a27.788,27.788,0,0,1-5.886.666c-2.5,0-3.744-.684-3.744-1.98,0-1.26,1.008-2.286,2.5-3.276a53.28,53.28,0,0,1,5.022-2.664c.666-.342,1.242-.648,1.782-.972l-1.242-2.088a11.248,11.248,0,0,1-1.674,1.1c-.846.486-2.412,1.26-3.888,2.124A42.757,42.757,0,0,1,44.46-14.346Z" transform="translate(605.278 2721)" fill="#333"/>
    <g id="グループ_6316" data-name="グループ 6316" transform="translate(380 2701.923)">
      <g id="グループ_1353" data-name="グループ 1353" transform="translate(0 0)" clip-path="url(#clip-path)">
        <path id="パス_29081" data-name="パス 29081" d="M32.347,0H28.153V.123a14.231,14.231,0,0,1,4.532.971c2.159.926,7.517,4.084,7.517,9.983s-5.344,9.093-7.517,9.984a16.158,16.158,0,0,1-4.532.974v.12l3.993-.057c6.116,0,11.616-4.9,11.616-11.02S38.683.174,32.347,0" transform="translate(-2.605 0)" fill="#333"/>
        <path id="パス_29082" data-name="パス 29082" d="M8.964,17.28,17.041,0h5.965V.1c-2.931.34-3.306,1.5-3.238,3.885L19.9,17.076c.137,3.647.239,4.669,3.238,4.976v.1H14.076v-.1c2.795-.272,2.9-1.329,2.863-4.976L16.973,3.17C14.178,9.407,9.68,19.155,8.487,22.154H7.6C6.442,19.052,2.591,9.679,0,3.51Z" transform="translate(0 0)" fill="#333"/>
        <path id="パス_29083" data-name="パス 29083" d="M63.639,8.835v7.623h-.773v-6.1l-2.995,5.129H59.49l-2.995-5.1v6.065h-.774V8.835h.665l3.31,5.652,3.278-5.652Z" transform="translate(-5.157 -0.818)" fill="#333"/>
        <path id="パス_29084" data-name="パス 29084" d="M76.892,11.436a2.167,2.167,0,0,1,.6,1.661v3.55h-.74v-.893a1.775,1.775,0,0,1-.769.7,2.682,2.682,0,0,1-1.2.25,2.358,2.358,0,0,1-1.525-.457,1.574,1.574,0,0,1-.037-2.385,2.583,2.583,0,0,1,1.682-.446h1.819v-.348a1.471,1.471,0,0,0-.414-1.127,1.711,1.711,0,0,0-1.21-.387,3.068,3.068,0,0,0-1.045.18,2.639,2.639,0,0,0-.861.5l-.348-.577a3.077,3.077,0,0,1,1.044-.572,4.074,4.074,0,0,1,1.285-.2,2.423,2.423,0,0,1,1.721.561m-.87,4.356a1.788,1.788,0,0,0,.7-.866v-.936h-1.8q-1.47,0-1.469,1.024a.934.934,0,0,0,.381.789,1.733,1.733,0,0,0,1.067.289,2.04,2.04,0,0,0,1.122-.3" transform="translate(-6.727 -1.006)" fill="#333"/>
        <path id="パス_29085" data-name="パス 29085" d="M88.065,11.169a2.761,2.761,0,0,1,1.335-.294v.751l-.185-.011a1.828,1.828,0,0,0-1.416.555,2.208,2.208,0,0,0-.512,1.557v2.918h-.773V10.919h.74V12.04a1.878,1.878,0,0,1,.811-.871" transform="translate(-8.006 -1.006)" fill="#333"/>
        <path id="パス_29086" data-name="パス 29086" d="M98.337,16.331a2.684,2.684,0,0,1-1.05-1.04,3,3,0,0,1-.382-1.508,2.965,2.965,0,0,1,.382-1.5,2.694,2.694,0,0,1,1.05-1.035,3.1,3.1,0,0,1,1.52-.37,2.941,2.941,0,0,1,1.323.289,2.195,2.195,0,0,1,.919.844l-.576.392a1.806,1.806,0,0,0-.719-.637,2.136,2.136,0,0,0-.947-.212,2.243,2.243,0,0,0-1.116.278,1.946,1.946,0,0,0-.773.789,2.595,2.595,0,0,0,0,2.336,1.954,1.954,0,0,0,.773.784,2.243,2.243,0,0,0,1.116.278,2.182,2.182,0,0,0,.947-.207,1.765,1.765,0,0,0,.719-.632l.576.392a2.187,2.187,0,0,1-.925.844,2.951,2.951,0,0,1-1.318.289,3.09,3.09,0,0,1-1.52-.37" transform="translate(-8.968 -1.006)" fill="#333"/>
        <path id="パス_29087" data-name="パス 29087" d="M115.147,11.266a2.445,2.445,0,0,1,.636,1.824v3.321h-.772V13.166a1.9,1.9,0,0,0-.447-1.361,1.676,1.676,0,0,0-1.274-.468,1.953,1.953,0,0,0-1.464.55,2.073,2.073,0,0,0-.539,1.519v3.005h-.773V8.331h.773v3.354a2.094,2.094,0,0,1,.87-.773,2.862,2.862,0,0,1,1.274-.272,2.344,2.344,0,0,1,1.716.626" transform="translate(-10.227 -0.771)" fill="#333"/>
        <path id="パス_29088" data-name="パス 29088" d="M129.782,14.022H124.99a2.051,2.051,0,0,0,.687,1.443,2.276,2.276,0,0,0,1.567.55,2.468,2.468,0,0,0,.98-.191,2.133,2.133,0,0,0,.773-.561l.436.5a2.449,2.449,0,0,1-.952.7,3.223,3.223,0,0,1-1.258.24,3.181,3.181,0,0,1-1.564-.376,2.714,2.714,0,0,1-1.062-1.04,2.974,2.974,0,0,1-.381-1.5,3.07,3.07,0,0,1,.366-1.5,2.633,2.633,0,0,1,1-1.035,2.8,2.8,0,0,1,1.432-.37,2.771,2.771,0,0,1,1.427.37,2.622,2.622,0,0,1,.99,1.029,3.1,3.1,0,0,1,.36,1.508Zm-4.154-1.955a2.079,2.079,0,0,0-.638,1.378h4.062a2.078,2.078,0,0,0-.636-1.378,2.1,2.1,0,0,0-2.788,0" transform="translate(-11.496 -1.006)" fill="#333"/>
        <path id="パス_29089" data-name="パス 29089" d="M147.858,8.835h3.1a4.529,4.529,0,0,1,2.133.485,3.536,3.536,0,0,1,1.437,1.35,3.8,3.8,0,0,1,.513,1.976,3.8,3.8,0,0,1-.513,1.976,3.536,3.536,0,0,1-1.437,1.35,4.529,4.529,0,0,1-2.133.485h-3.1Zm3.06,6.926a3.7,3.7,0,0,0,1.753-.4,2.9,2.9,0,0,0,1.165-1.1,3.367,3.367,0,0,0,0-3.234,2.9,2.9,0,0,0-1.165-1.1,3.7,3.7,0,0,0-1.753-.4h-2.254v6.229Z" transform="translate(-13.683 -0.818)" fill="#333"/>
        <path id="パス_29090" data-name="パス 29090" d="M164.6,16.325a2.731,2.731,0,0,1-1.044-1.04,3.146,3.146,0,0,1,0-3.005,2.692,2.692,0,0,1,1.044-1.035,3.191,3.191,0,0,1,2.984,0,2.659,2.659,0,0,1,1.041,1.035,3.193,3.193,0,0,1,0,3.005,2.7,2.7,0,0,1-1.041,1.04,3.15,3.15,0,0,1-2.984,0m2.587-.588a1.948,1.948,0,0,0,.757-.789,2.637,2.637,0,0,0,0-2.33,1.948,1.948,0,0,0-.757-.789,2.3,2.3,0,0,0-2.189,0,1.96,1.96,0,0,0-.762.789,2.576,2.576,0,0,0,0,2.33,1.96,1.96,0,0,0,.762.789,2.3,2.3,0,0,0,2.189,0" transform="translate(-15.1 -1.006)" fill="#333"/>
        <path id="パス_29091" data-name="パス 29091" d="M179.1,11.169a2.757,2.757,0,0,1,1.334-.294v.751l-.184-.011a1.831,1.831,0,0,0-1.417.555,2.213,2.213,0,0,0-.512,1.557v2.918h-.773V10.919h.74V12.04a1.874,1.874,0,0,1,.811-.871" transform="translate(-16.431 -1.006)" fill="#333"/>
      </g>
    </g>
  </g>
</svg>
