<svg xmlns="http://www.w3.org/2000/svg" width="1088" height="310.992" viewBox="0 0 1088 310.992">
  <g id="グループ_6401" data-name="グループ 6401" transform="translate(3064 -5178.32)">
    <path id="パス_33184" data-name="パス 33184" d="M0,0H288V280H0Z" transform="translate(-3064 5178.32)" fill="#fff"/>
    <path id="パス_33186" data-name="パス 33186" d="M0,0H512V280H0Z" transform="translate(-2760 5178.32)" fill="#fff"/>
    <path id="パス_33191" data-name="パス 33191" d="M0,0H512V56H0Z" transform="translate(-2760 5346)" fill="#f5f5f5"/>
    <path id="パス_33187" data-name="パス 33187" d="M0,0H512V56H0Z" transform="translate(-2760 5234)" fill="#f5f5f5"/>
    <g id="グループ_5884" data-name="グループ 5884" transform="translate(-3147 1901)">
      <g id="楕円形_83" data-name="楕円形 83" transform="translate(631 3405)" fill="none" stroke="#555" stroke-width="3">
        <circle cx="12" cy="12" r="12" stroke="none"/>
        <circle cx="12" cy="12" r="10.5" fill="none"/>
      </g>
      <path id="パス_29183" data-name="パス 29183" d="M636.986,3416.355l2.979,2.81,7.021-6" transform="translate(1.014 0.834)" fill="none" stroke="#555" stroke-width="3"/>
    </g>
    <g id="グループ_5885" data-name="グループ 5885" transform="translate(-3147 1957)">
      <g id="楕円形_83-2" data-name="楕円形 83" transform="translate(631 3405)" fill="none" stroke="#555" stroke-width="3">
        <circle cx="12" cy="12" r="12" stroke="none"/>
        <circle cx="12" cy="12" r="10.5" fill="none"/>
      </g>
      <path id="パス_29183-2" data-name="パス 29183" d="M636.986,3416.355l2.979,2.81,7.021-6" transform="translate(1.014 0.834)" fill="none" stroke="#555" stroke-width="3"/>
    </g>
    <g id="グループ_5886" data-name="グループ 5886" transform="translate(-3147 2013)">
      <g id="楕円形_83-3" data-name="楕円形 83" transform="translate(631 3405)" fill="none" stroke="#555" stroke-width="3">
        <circle cx="12" cy="12" r="12" stroke="none"/>
        <circle cx="12" cy="12" r="10.5" fill="none"/>
      </g>
      <path id="パス_29183-3" data-name="パス 29183" d="M636.986,3416.355l2.979,2.81,7.021-6" transform="translate(1.014 0.834)" fill="none" stroke="#555" stroke-width="3"/>
    </g>
    <g id="グループ_5883" data-name="グループ 5883" transform="translate(-3147 1845)">
      <g id="楕円形_83-4" data-name="楕円形 83" transform="translate(631 3405)" fill="none" stroke="#555" stroke-width="3">
        <circle cx="12" cy="12" r="12" stroke="none"/>
        <circle cx="12" cy="12" r="10.5" fill="none"/>
      </g>
      <path id="パス_29183-4" data-name="パス 29183" d="M636.986,3416.355l2.979,2.81,7.021-6" transform="translate(1.014 0.834)" fill="none" stroke="#555" stroke-width="3"/>
    </g>
    <g id="グループ_5882" data-name="グループ 5882" transform="translate(-3147 1789)">
      <g id="楕円形_83-5" data-name="楕円形 83" transform="translate(631 3405)" fill="none" stroke="#555" stroke-width="3">
        <circle cx="12" cy="12" r="12" stroke="none"/>
        <circle cx="12" cy="12" r="10.5" fill="none"/>
      </g>
      <path id="パス_29183-5" data-name="パス 29183" d="M636.986,3416.355l2.979,2.81,7.021-6" transform="translate(1.014 0.834)" fill="none" stroke="#555" stroke-width="3"/>
    </g>
    <path id="パス_33196" data-name="パス 33196" d="M0,0H255.694V280H0Z" transform="translate(-2232 5178.32)" fill="#fff"/>
    <path id="パス_33197" data-name="パス 33197" d="M0,0H256V57H0Z" transform="translate(-2232 5346)" fill="#f5f5f5"/>
    <path id="パス_33198" data-name="パス 33198" d="M0,0H256V56H0Z" transform="translate(-2232 5234)" fill="#f5f5f5"/>
    <g id="グループ_6333" data-name="グループ 6333" transform="translate(-2747 1901)">
      <g id="楕円形_83-6" data-name="楕円形 83" transform="translate(631 3405)" fill="none" stroke="#555" stroke-width="3">
        <circle cx="12" cy="12" r="12" stroke="none"/>
        <circle cx="12" cy="12" r="10.5" fill="none"/>
      </g>
      <path id="パス_29183-6" data-name="パス 29183" d="M636.986,3416.355l2.979,2.81,7.021-6" transform="translate(1.014 0.834)" fill="none" stroke="#555" stroke-width="3"/>
    </g>
    <g id="グループ_6334" data-name="グループ 6334" transform="translate(-2747 1957)">
      <g id="楕円形_83-7" data-name="楕円形 83" transform="translate(631 3405)" fill="none" stroke="#555" stroke-width="3">
        <circle cx="12" cy="12" r="12" stroke="none"/>
        <circle cx="12" cy="12" r="10.5" fill="none"/>
      </g>
      <path id="パス_29183-7" data-name="パス 29183" d="M636.986,3416.355l2.979,2.81,7.021-6" transform="translate(1.014 0.834)" fill="none" stroke="#555" stroke-width="3"/>
    </g>
    <g id="グループ_6335" data-name="グループ 6335" transform="translate(-2747 2013)">
      <g id="楕円形_83-8" data-name="楕円形 83" transform="translate(631 3405)" fill="none" stroke="#555" stroke-width="3">
        <circle cx="12" cy="12" r="12" stroke="none"/>
        <circle cx="12" cy="12" r="10.5" fill="none"/>
      </g>
      <path id="パス_29183-8" data-name="パス 29183" d="M636.986,3416.355l2.979,2.81,7.021-6" transform="translate(1.014 0.834)" fill="none" stroke="#555" stroke-width="3"/>
    </g>
    <g id="グループ_6332" data-name="グループ 6332" transform="translate(-2747 1845)">
      <g id="楕円形_83-9" data-name="楕円形 83" transform="translate(631 3405)" fill="none" stroke="#555" stroke-width="3">
        <circle cx="12" cy="12" r="12" stroke="none"/>
        <circle cx="12" cy="12" r="10.5" fill="none"/>
      </g>
      <path id="パス_29183-9" data-name="パス 29183" d="M636.986,3416.355l2.979,2.81,7.021-6" transform="translate(1.014 0.834)" fill="none" stroke="#555" stroke-width="3"/>
    </g>
    <g id="グループ_6331" data-name="グループ 6331" transform="translate(-2747 1789)">
      <g id="楕円形_83-10" data-name="楕円形 83" transform="translate(631 3405)" fill="none" stroke="#555" stroke-width="3">
        <circle cx="12" cy="12" r="12" stroke="none"/>
        <circle cx="12" cy="12" r="10.5" fill="none"/>
      </g>
      <path id="パス_29183-10" data-name="パス 29183" d="M636.986,3416.355l2.979,2.81,7.021-6" transform="translate(1.014 0.834)" fill="none" stroke="#555" stroke-width="3"/>
    </g>
    <path id="パス_33195" data-name="パス 33195" d="M8-9.44a1.209,1.209,0,0,0,1.2-1.2A1.209,1.209,0,0,0,8-11.84a1.209,1.209,0,0,0-1.2,1.2A1.209,1.209,0,0,0,8-9.44Zm0,2.9-5.28-5.28-.464.464,5.28,5.28-5.3,5.3L2.7-.32,8-5.616l5.28,5.28L13.744-.8,8.464-6.08l5.28-5.28-.464-.464ZM4.64-6.08a1.209,1.209,0,0,0-1.2-1.2,1.209,1.209,0,0,0-1.2,1.2,1.209,1.209,0,0,0,1.2,1.2A1.209,1.209,0,0,0,4.64-6.08Zm6.72,0a1.209,1.209,0,0,0,1.2,1.2,1.209,1.209,0,0,0,1.2-1.2,1.209,1.209,0,0,0-1.2-1.2A1.209,1.209,0,0,0,11.36-6.08ZM8-2.72a1.209,1.209,0,0,0-1.2,1.2A1.209,1.209,0,0,0,8-.32a1.209,1.209,0,0,0,1.2-1.2A1.209,1.209,0,0,0,8-2.72Zm22.656-2.9a5.922,5.922,0,0,0-6.272-6.032,6.935,6.935,0,0,0-7.152,6.656c0,2.672,1.456,4.432,3.04,4.432s2.912-1.808,3.872-5.072a31.86,31.86,0,0,0,.96-4.5,4.254,4.254,0,0,1,3.872,4.464A4.6,4.6,0,0,1,25.1-1.12,9.889,9.889,0,0,1,23.68-.9l.944,1.5C28.512.048,30.656-2.256,30.656-5.616Zm-11.808.464a5.348,5.348,0,0,1,4.56-4.944,25.473,25.473,0,0,1-.88,4.128c-.736,2.464-1.488,3.5-2.208,3.5C19.632-2.464,18.848-3.312,18.848-5.152Zm26.464-2.5h-4.8V-8.96h4.8Zm0,2.368h-4.8V-6.608h4.8Zm0,2.384h-4.8V-4.24h4.8ZM39.136-10.08v8.3h7.632v-8.3H43.216c.144-.432.32-.912.464-1.376h3.7V-12.72H38.4v1.264h3.584c-.08.448-.176.928-.272,1.376Zm-.672,5.072-2.144.7v-5.952h1.968v-1.376H32.864v1.376h1.968v6.432c-.88.288-1.68.528-2.32.72L33.1-1.68c1.584-.544,3.648-1.3,5.616-2.016Zm2.368,3.36A13.3,13.3,0,0,1,37.072.24,7.9,7.9,0,0,1,38,1.264a14.523,14.523,0,0,0,4.064-2.08Zm2.528.864a23.176,23.176,0,0,1,3.1,2.064l1.184-.9a21.792,21.792,0,0,0-3.184-1.968Zm8.608-.576V-3.648h7.9V-1.36Zm7.9-6v2.3h-7.9v-2.3Zm0-3.68v2.272h-7.9V-11.04ZM50.464-12.5V1.152h1.5V.1h7.9V1.152H61.44V-12.5ZM71.328-2c0-.688.752-1.152,1.824-1.152a5.156,5.156,0,0,1,1.488.224V-2.5c0,1.008-.368,1.616-1.552,1.616C72.064-.88,71.328-1.248,71.328-2Zm4.8-10.416H74.32a7.873,7.873,0,0,1,.1,1.024V-9.5c-.448.016-.88.032-1.328.032a26.049,26.049,0,0,1-2.768-.144l.016,1.5c.928.064,1.808.112,2.736.112.448,0,.9-.016,1.344-.032.032,1.248.1,2.624.16,3.744a8.515,8.515,0,0,0-1.3-.1c-2.144,0-3.408,1.088-3.408,2.56C69.872-.288,71.136.608,73.3.608c2.224,0,2.928-1.264,2.928-2.736v-.08A15.213,15.213,0,0,1,78.448-.432l.864-1.344A10.556,10.556,0,0,0,76.16-3.84c-.048-1.232-.16-2.672-.176-4.272.928-.064,1.824-.176,2.656-.3V-9.968a24.748,24.748,0,0,1-2.656.368c.016-.736.032-1.424.048-1.824C76.048-11.744,76.08-12.1,76.128-12.416Zm-7.856.144-1.744-.16c-.016.416-.08.928-.128,1.328a49.093,49.093,0,0,0-.7,6.7A18.727,18.727,0,0,0,66.32.688L67.744.576c-.016-.192-.032-.432-.048-.592a4.13,4.13,0,0,1,.08-.736c.176-.816.72-2.448,1.152-3.664l-.8-.624c-.256.592-.608,1.392-.832,2.048A10.408,10.408,0,0,1,67.168-4.7a42.3,42.3,0,0,1,.784-6.336C68.016-11.328,68.176-11.984,68.272-12.272Zm14.608.9h3.584v2.688H82.88ZM84.512-5.84c.064-.512.1-1.024.128-1.536H87.9v-5.312H81.52v5.312h1.664c-.144,2.784-.5,5.888-2.64,7.616a3.726,3.726,0,0,1,1.024,1.04,9.168,9.168,0,0,0,2.784-5.792h2.24c-.128,2.88-.288,4.016-.56,4.3-.112.16-.272.176-.528.176a16.117,16.117,0,0,1-1.712-.08A3.075,3.075,0,0,1,84.208,1.2a12.069,12.069,0,0,0,1.936-.032A1.367,1.367,0,0,0,87.232.656c.432-.5.592-1.984.768-5.888.016-.192.016-.608.016-.608ZM90.768-11.5h-1.44v8.832h1.44Zm2.384-1.6V-.624c0,.288-.112.384-.416.4-.32,0-1.328.016-2.416-.032a6.89,6.89,0,0,1,.528,1.52,9.364,9.364,0,0,0,3.008-.256c.56-.272.784-.7.784-1.632V-13.1ZM103.1-9.456a12.912,12.912,0,0,0,2.768-2.624,13.579,13.579,0,0,0,2.88,2.624Zm-.08,1.216h2.192v1.2h-4v1.232h4v3.232c0,.192-.048.24-.24.24-.192.016-.816.016-1.424-.016a6.209,6.209,0,0,1,.384,1.248,6.22,6.22,0,0,0,2.128-.192c.48-.224.608-.56.608-1.248V-5.808h4.24V-7.04h-4.24v-1.2H108.9V-9.36a15.52,15.52,0,0,0,1.648.992,6.74,6.74,0,0,1,.864-1.36,12.984,12.984,0,0,1-4.88-3.664h-1.44a12.008,12.008,0,0,1-4.624,3.808,7.508,7.508,0,0,1,.784,1.264,14.548,14.548,0,0,0,1.776-1.072Zm7.888,5.824a15.253,15.253,0,0,0-2.128-2.88l-1.184.544a15.148,15.148,0,0,1,2.064,2.96Zm-8.176-2.816a7.727,7.727,0,0,1-2.08,2.72,7.361,7.361,0,0,1,1.136.752,9.911,9.911,0,0,0,2.24-3.168Zm-2.112-5.328a12.228,12.228,0,0,0-2.608-2.5l-1.1.88A11.613,11.613,0,0,1,99.44-9.584Zm-.432,3.344h-3.36V-5.84h1.9v3.776A21.2,21.2,0,0,1,96.544-.416l.768,1.52c.8-.688,1.536-1.328,2.224-1.984,1.024,1.248,2.448,1.76,4.5,1.84,1.824.08,5.072.048,6.9-.032a6.777,6.777,0,0,1,.5-1.52c-2,.128-5.584.176-7.376.112-1.808-.064-3.136-.56-3.856-1.68Zm26.832-2.9-1.264-1.04a4.108,4.108,0,0,1-1.232.144H115.28a13.865,13.865,0,0,1-1.728-.128v1.792c.336-.032,1.088-.1,1.728-.1h8.992A18.866,18.866,0,0,1,119.7-4.3c-1.072-.944-2.272-1.92-2.88-2.368L115.5-5.6a37.529,37.529,0,0,1,3.6,3.1,41.3,41.3,0,0,1,2.96,3.36L123.536-.32c-.64-.768-1.68-1.888-2.624-2.832a25.577,25.577,0,0,0,5.648-6.4C126.672-9.712,126.848-9.9,127.024-10.112Zm9.216,9.76,1.056.88a4.972,4.972,0,0,1,.608-.4,16.835,16.835,0,0,0,5.456-4.416l-.976-1.376a11.256,11.256,0,0,1-4.352,3.68v-8.848a9.638,9.638,0,0,1,.08-1.28h-1.856a11.726,11.726,0,0,1,.1,1.28V-1.36A4.615,4.615,0,0,1,136.24-.352ZM128.864-.5,130.4.528a8.989,8.989,0,0,0,2.848-4.48,35.053,35.053,0,0,0,.5-6.832,11.974,11.974,0,0,1,.08-1.28h-1.856a4.987,4.987,0,0,1,.128,1.3,27.743,27.743,0,0,1-.464,6.384A7.406,7.406,0,0,1,128.864-.5Zm20-11.968-.912,1.376c.992.56,2.7,1.7,3.52,2.288l.944-1.376C151.664-10.72,149.856-11.9,148.864-12.464Zm-2.64,11.408.944,1.648a18.747,18.747,0,0,0,5.312-1.984,19.047,19.047,0,0,0,6.256-5.728l-.976-1.7a16.457,16.457,0,0,1-6.128,5.936A17.571,17.571,0,0,1,146.224-1.056Zm.208-7.776-.912,1.376a40.041,40.041,0,0,1,3.568,2.24l.928-1.424C149.264-7.168,147.44-8.3,146.432-8.832Zm16.784.384v1.6c.336-.032.88-.048,1.168-.048h2.752v5.552h-3.5a10.574,10.574,0,0,1-1.216-.08V.256a10.69,10.69,0,0,1,1.216-.064h8.848a9.725,9.725,0,0,1,1.136.064v-1.68a7.9,7.9,0,0,1-1.136.08h-3.7V-6.9h2.96c.352,0,.8.016,1.168.048v-1.6a9.13,9.13,0,0,1-1.168.08h-7.36A10.239,10.239,0,0,1,163.216-8.448Zm23.456-3.232-1.072.464a14.578,14.578,0,0,1,1.408,2.448l1.12-.5A19.726,19.726,0,0,0,186.672-11.68Zm2.016-.832-1.072.5a15.99,15.99,0,0,1,1.472,2.4l1.1-.544A23.759,23.759,0,0,0,188.688-12.512ZM180.736-1.248A16.954,16.954,0,0,1,180.608.8h1.952c-.064-.576-.112-1.552-.112-2.048,0-.528,0-2.736-.016-4.944a44.711,44.711,0,0,1,6.064,2.48l.7-1.728A51.831,51.831,0,0,0,182.432-8v-2.5c0-.576.08-1.264.128-1.792h-1.968a11.427,11.427,0,0,1,.144,1.792Zm12.816-5.888v1.984c.544-.048,1.5-.08,2.384-.08h8.7c.7,0,1.44.064,1.792.08V-7.136c-.4.032-1.024.1-1.792.1h-8.7C195.072-7.04,194.08-7.1,193.552-7.136ZM216.24-.352l1.056.88a4.972,4.972,0,0,1,.608-.4,16.835,16.835,0,0,0,5.456-4.416l-.976-1.376a11.256,11.256,0,0,1-4.352,3.68v-8.848a9.638,9.638,0,0,1,.08-1.28h-1.856a11.726,11.726,0,0,1,.1,1.28V-1.36A4.615,4.615,0,0,1,216.24-.352ZM208.864-.5,210.4.528a8.989,8.989,0,0,0,2.848-4.48,35.053,35.053,0,0,0,.5-6.832,11.974,11.974,0,0,1,.08-1.28h-1.856a4.987,4.987,0,0,1,.128,1.3,27.743,27.743,0,0,1-.464,6.384A7.406,7.406,0,0,1,208.864-.5ZM225.2-10.72l.16,1.744c1.792-.384,5.52-.768,7.136-.928a6.418,6.418,0,0,0-2.72,5.2c0,3.52,3.28,5.2,6.416,5.36l.576-1.712c-2.64-.112-5.36-1.088-5.36-4a5.305,5.305,0,0,1,3.536-4.816,15.419,15.419,0,0,1,3.12-.224v-1.616c-1.1.032-2.7.128-4.416.272-2.944.256-5.792.528-6.96.64C226.368-10.768,225.808-10.736,225.2-10.72Zm10.56,2.4-.96.416a15.131,15.131,0,0,1,1.28,2.24l.992-.448A22.337,22.337,0,0,0,235.76-8.32Zm1.776-.688-.96.432a15.016,15.016,0,0,1,1.344,2.208l.976-.464A23.108,23.108,0,0,0,237.536-9.008Zm17.12,3.392a5.922,5.922,0,0,0-6.272-6.032,6.935,6.935,0,0,0-7.152,6.656c0,2.672,1.456,4.432,3.04,4.432s2.912-1.808,3.872-5.072a31.859,31.859,0,0,0,.96-4.5,4.254,4.254,0,0,1,3.872,4.464A4.6,4.6,0,0,1,249.1-1.12,9.889,9.889,0,0,1,247.68-.9l.944,1.5C252.512.048,254.656-2.256,254.656-5.616Zm-11.808.464a5.348,5.348,0,0,1,4.56-4.944,25.474,25.474,0,0,1-.88,4.128c-.736,2.464-1.488,3.5-2.208,3.5C243.632-2.464,242.848-3.312,242.848-5.152Zm17.7-3.424a15.537,15.537,0,0,0,3.408-3.392,16.022,16.022,0,0,0,3.6,3.392Zm-.3,1.376h7.488V-8.448a20.076,20.076,0,0,0,2.832,1.664,7.244,7.244,0,0,1,.944-1.344,16.084,16.084,0,0,1-6.848-5.28H263.12a16.181,16.181,0,0,1-6.544,5.5,5.42,5.42,0,0,1,.88,1.216,19.691,19.691,0,0,0,2.784-1.664Zm-2.752,3.056h3.968A27.243,27.243,0,0,1,259.968-.8L257.6-.72l.192,1.456c2.72-.112,6.784-.288,10.592-.48a10.925,10.925,0,0,1,.7,1.04l1.36-.848a20.36,20.36,0,0,0-3.712-4.112l-1.28.688a23.328,23.328,0,0,1,1.856,1.9c-1.952.08-3.936.16-5.712.224.576-1.024,1.168-2.224,1.7-3.3h7.328V-5.536H257.488Zm26.064-6.16H276.5V-11.68h7.056Zm1.568-2.56H275.008V-9.12H285.12ZM275.792-3.44h8.4V-2.5h-8.4Zm0-1.92h8.4v.928h-8.4Zm0-1.92h8.4v.912h-8.4Zm9.952,5.84V-8.352H274.32V-1.44h2.8A18.734,18.734,0,0,1,272.64.192a8.966,8.966,0,0,1,1.12,1.072,20.145,20.145,0,0,0,4.96-1.936l-1.152-.768h4.672l-1.184.88a42.589,42.589,0,0,1,5.04,1.84L287.408.24a47.7,47.7,0,0,0-4.768-1.68ZM298.16-2.5a14.968,14.968,0,0,1-.992,2.032l.5.128h-3.52l.64-.176a7.5,7.5,0,0,0-.912-1.984Zm-5.184-2.992h5.984V-3.7h-5.984ZM298.944-2.5h1.536V-6.7h-8.944V-2.5h1.792l-.88.24a9.063,9.063,0,0,1,.832,1.92h-4.112V.912H302.9V-.336h-4.3c.32-.544.7-1.264,1.056-1.984Zm2.96-8.944a14.9,14.9,0,0,1-2,1.792,11.181,11.181,0,0,1-.944-1.008,26.553,26.553,0,0,0,2.288-1.824l-1.12-.8a16.531,16.531,0,0,1-1.856,1.712,10.592,10.592,0,0,1-1.008-1.808L296-12.992A14.59,14.59,0,0,0,298.464-9.1h-4.8a10.686,10.686,0,0,0,2.016-3.3l-.96-.5-.256.064H290.1V-11.6h3.648a10.2,10.2,0,0,1-1.44,1.92,9.836,9.836,0,0,0-1.984-1.472l-.8.816a11.442,11.442,0,0,1,1.9,1.5,11.338,11.338,0,0,1-2.976,1.888,5.5,5.5,0,0,1,.88,1.072,13.19,13.19,0,0,0,3.744-2.608v.656h5.856v-.784a12.117,12.117,0,0,0,3.584,2.544A5.246,5.246,0,0,1,303.5-7.3a10.242,10.242,0,0,1-2.736-1.584,23.711,23.711,0,0,0,2.24-1.776ZM306.256-9.5a15.726,15.726,0,0,0,1.808-2.528A16.5,16.5,0,0,1,310.176-9.5Zm7.392,6.4c-1.088.72-2.16,1.424-2.96,1.92l-.032-.432-2.08.4V-5.488h2.16v-1.3h-2.16V-8.24h1.76V-9.5h-.128l.96-1.12a18.714,18.714,0,0,0-2.672-2.8h-1.264a10.922,10.922,0,0,1-2.9,4,4.267,4.267,0,0,1,.912.944c.176-.16.336-.32.5-.464v.7h1.536v1.456h-2.336v1.3h2.336V-.976c-.944.176-1.808.336-2.512.448l.3,1.36c1.6-.32,3.7-.768,5.7-1.2L310.752-.5l.384.672c.928-.64,1.984-1.408,2.96-2.16Zm-8.432-1.408A13.787,13.787,0,0,1,305.76-1.6l1.056-.272a14.557,14.557,0,0,0-.624-2.9Zm4.7,2.624c.24-.72.528-1.792.8-2.72L309.6-4.9a19.623,19.623,0,0,1-.624,2.752Zm1.136-3.632a9.29,9.29,0,0,1,1.632,2.144l1.072-.72a9.658,9.658,0,0,0-1.712-2.064Zm6.24,1.936a25.635,25.635,0,0,0,1.984-2.1l-1.168-.736a13.7,13.7,0,0,1-1.68,2.112,12.746,12.746,0,0,1-.8-2.16v-.4H319.3v-1.28h-1.248v-4.688h-6.416v1.248h5.04v1.136h-4.72V-9.28h4.72v1.136h-5.856v1.28h3.44V-.256c0,.176-.048.224-.224.24-.16,0-.672,0-1.2-.016a4.935,4.935,0,0,1,.368,1.3,4.655,4.655,0,0,0,1.9-.224c.432-.224.528-.592.528-1.264V-3.3A8.544,8.544,0,0,0,318.656.352a6.566,6.566,0,0,1,.96-1.216A7.3,7.3,0,0,1,316.544-4.1Zm9.712-8.88-1.872-.192a17.964,17.964,0,0,1-.384,3.44c-.9.08-1.76.144-2.272.16-.544.016-1.024.032-1.552,0l.16,1.728c.432-.08,1.184-.176,1.584-.224.368-.048,1.024-.128,1.744-.208A24.955,24.955,0,0,1,321.1.032l1.648.656a33.409,33.409,0,0,0,3.312-8.608c.592-.064,1.12-.1,1.456-.1,1.008,0,1.632.24,1.632,1.616a13.187,13.187,0,0,1-.7,4.7,1.285,1.285,0,0,1-1.312.752,8.45,8.45,0,0,1-1.968-.32L325.44.4a8.849,8.849,0,0,0,1.9.24,2.391,2.391,0,0,0,2.464-1.408,15.492,15.492,0,0,0,.912-5.808c0-2.24-1.184-2.864-2.72-2.864-.368,0-.96.032-1.616.1.144-.752.288-1.52.384-2.016C326.848-11.712,326.928-12.128,327.008-12.464Zm7.3-1.216-1.04.432a16.157,16.157,0,0,1,1.328,2.208l1.04-.464A24.827,24.827,0,0,0,334.3-13.68Zm-1.824.672-1.04.432a14.5,14.5,0,0,1,1.136,1.952c-.016-.032-.048-.064-.064-.1l-1.488.656a18.465,18.465,0,0,1,2.784,5.856l1.584-.752a27.99,27.99,0,0,0-2.64-5.408l1.024-.432A23.441,23.441,0,0,0,332.48-13.008Zm13.328,2.432c-.912-.72-2.592-1.952-3.9-2.816l-.976,1.056c1.28.9,2.976,2.176,3.888,2.976Zm-7.536,1.728a14.63,14.63,0,0,1-1.76,5.248l1.456.56A18.045,18.045,0,0,0,339.7-8.5Zm5.152,8.48c-.88,0-1.04-.144-1.04-.912V-2.672a29.352,29.352,0,0,0,7.552-9.2l-1.5-.624a25.587,25.587,0,0,1-6.048,7.9V-9.7h-1.568v6.384a22.828,22.828,0,0,1-4.272,2.544A6.753,6.753,0,0,1,337.52.4a23.967,23.967,0,0,0,3.3-1.92V-1.3c0,1.888.544,2.4,2.448,2.4h3.04c1.824,0,2.272-.88,2.5-3.728a4.928,4.928,0,0,1-1.456-.64c-.128,2.4-.272,2.9-1.152,2.9Zm4.208-7.088a20.445,20.445,0,0,1,2.416,5.024l1.44-.72a21.764,21.764,0,0,0-2.512-4.928ZM362.48-3.6a5.466,5.466,0,0,1-1.84,1.888c-1.1-.272-2.256-.528-3.392-.752.256-.368.528-.752.8-1.136Zm-7.2-5.536h2.1V-7.28h-2.1Zm3.52-2.352h2.224v1.152H358.8Zm5.968,2.352V-7.28h-2.336V-9.136ZM358.8-7.28V-9.136h2.224V-7.28Zm8.432,3.68V-4.816h-8.368q.408-.624.768-1.2l-.24-.064h6.848v-4.256h-3.808v-1.152h4.4V-12.8H353.12v1.312h4.256v1.152h-3.488V-6.08h4.08c-.24.4-.528.832-.816,1.264h-4.368V-3.6h3.536c-.544.784-1.088,1.52-1.536,2.1l1.424.464.256-.352c.784.176,1.552.336,2.3.528a22.946,22.946,0,0,1-5.728.832,3.793,3.793,0,0,1,.56,1.3A20.039,20.039,0,0,0,360.9-.32a44.731,44.731,0,0,1,4.944,1.632L366.72.1c-1.152-.432-2.672-.912-4.352-1.36A6.863,6.863,0,0,0,364.144-3.6Zm1.968-7.12.16,1.744c1.792-.384,5.52-.768,7.136-.928a6.418,6.418,0,0,0-2.72,5.2c0,3.52,3.28,5.2,6.416,5.36l.576-1.712c-2.64-.112-5.36-1.088-5.36-4a5.305,5.305,0,0,1,3.536-4.816,15.419,15.419,0,0,1,3.12-.224v-1.616c-1.1.032-2.7.128-4.416.272-2.944.256-5.792.528-6.96.64C370.368-10.768,369.808-10.736,369.2-10.72Zm10.56,2.4-.96.416a15.127,15.127,0,0,1,1.28,2.24l.992-.448A22.337,22.337,0,0,0,379.76-8.32Zm1.776-.688-.96.432a15.015,15.015,0,0,1,1.344,2.208l.976-.464A23.108,23.108,0,0,0,381.536-9.008Zm12.688-3.76h-1.84c.032.16.08.656.128,1.168.016.192.016.464.032.816-2.288.032-5.264.112-7.072.144L385.52-9.1c1.984-.128,4.608-.224,7.04-.256,0,.464.016.944.016,1.36a3.2,3.2,0,0,0-.9-.112,2.89,2.89,0,0,0-2.976,2.88,2.672,2.672,0,0,0,2.688,2.784,2.506,2.506,0,0,0,1.12-.24c-.768,1.232-2.24,1.936-4.128,2.352l1.36,1.344c3.792-1.1,4.928-3.616,4.928-5.744a3.941,3.941,0,0,0-.56-2.128c0-.72,0-1.648-.016-2.512,2.32,0,3.84.032,4.784.08l.032-1.5h-4.8c0-.32,0-.608.016-.8A9.323,9.323,0,0,1,394.224-12.768Zm-4.016,7.5a1.442,1.442,0,0,1,1.456-1.5A1.319,1.319,0,0,1,392.912-6c.208,1.5-.416,2.16-1.248,2.16A1.4,1.4,0,0,1,390.208-5.264Z" transform="translate(-2376 5488)" fill="#fff"/>
    <path id="パス_33192" data-name="パス 33192" d="M9.776-3.264V-1.52H6.336V-3.264ZM11.12-.4v-4H5.008V.528H6.336V-.4ZM6.336-9.2a7.837,7.837,0,0,0-.64-1.5H10.24A11.907,11.907,0,0,1,9.5-9.2Zm6.672,2.416A2.835,2.835,0,0,1,11.936-7.2c-.048.864-.112.976-.416.976H10.368c-.368,0-.416-.032-.416-.352V-7.9h3.056ZM3.152-7.9h2.56c-.144,1.328-.64,1.968-2.56,2.352ZM14.9-10.7v-1.36H8.7v-1.36H7.184v1.36H1.12v1.36H4.08a8.923,8.923,0,0,1,.656,1.5H1.728V1.232H3.152V-5.52A2.991,2.991,0,0,1,3.824-4.5C6.192-5.056,6.848-6.048,7.04-7.9H8.656V-6.56c0,1.12.288,1.44,1.536,1.44H11.68c.816,0,1.168-.272,1.328-1.3V-.48c0,.24-.08.32-.368.336-.272,0-1.2.016-2.16-.032a5.7,5.7,0,0,1,.5,1.44,8.422,8.422,0,0,0,2.736-.256c.56-.24.72-.688.72-1.472V-9.2h-3.28c.272-.432.544-.944.848-1.5ZM27.008-8.72h-6v-2.608h6Zm1.52-4.032H19.584V-7.3h8.944ZM21.648-4.32V-.992H18.736V-4.32Zm-4.32,5.584h1.408V.432h2.912v.72H23.12v-6.9H17.328ZM26.112-.992V-4.32H29.28V-.992ZM24.688-5.744V1.264h1.424V.432H29.28v.752h1.488V-5.744Zm21.968.128a5.922,5.922,0,0,0-6.272-6.032,6.935,6.935,0,0,0-7.152,6.656c0,2.672,1.456,4.432,3.04,4.432s2.912-1.808,3.872-5.072a31.86,31.86,0,0,0,.96-4.5,4.254,4.254,0,0,1,3.872,4.464A4.6,4.6,0,0,1,41.1-1.12,9.889,9.889,0,0,1,39.68-.9l.944,1.5C44.512.048,46.656-2.256,46.656-5.616Zm-11.808.464a5.348,5.348,0,0,1,4.56-4.944,25.473,25.473,0,0,1-.88,4.128c-.736,2.464-1.488,3.5-2.208,3.5C35.632-2.464,34.848-3.312,34.848-5.152ZM53.6-6.512l-1.376.384V-8.944H53.7V-10.32H52.224v-3.088H50.8v3.088H48.768v1.376H50.8v3.2c-.88.24-1.68.448-2.32.592L48.8-3.7l2-.576V-.48c0,.224-.08.3-.288.3s-.864,0-1.536-.016a5.869,5.869,0,0,1,.432,1.44A5.133,5.133,0,0,0,51.616.96c.448-.24.608-.656.608-1.44V-4.7c.512-.16,1.04-.32,1.552-.48Zm2.352-3.152h4.9V-8.5h-4.9Zm0-2.144h4.9v1.12h-4.9Zm.816,5.472a9.6,9.6,0,0,0,.512-1.088h4.992V-12.9H54.608v5.472H55.76a9.021,9.021,0,0,1-2.976,3.632,8.115,8.115,0,0,1,1.072,1.008,8.561,8.561,0,0,0,.912-.816v1.792c0,1.248.3,1.6,1.744,1.6h2.112c1.024,0,1.392-.352,1.552-1.744A3.535,3.535,0,0,1,59.024-2.4c-.064.9-.144,1.024-.544,1.024H56.672c-.56,0-.64-.064-.64-.448V-2.5a19.915,19.915,0,0,0,3.536-1.088l-.88-.928a14.718,14.718,0,0,1-2.656.96V-4.608h-.384c.112-.16.24-.32.352-.48h5.584C61.376-1.824,61.136-.5,60.816-.16a.651.651,0,0,1-.576.208c-.3,0-1.008-.016-1.776-.08a2.768,2.768,0,0,1,.384,1.248,13.91,13.91,0,0,0,2.016,0A1.545,1.545,0,0,0,62,.672c.512-.56.752-2.144,1.008-6.4.016-.192.032-.608.032-.608ZM78.832-11.1A13.475,13.475,0,0,0,76.7-13.28l-1.088.736a12.658,12.658,0,0,1,2.08,2.256ZM72.8-1.344H69.7v-.768H72.48V-6H69.712v-.768h3.056V-7.84H69.712v-.9h3.744a31.844,31.844,0,0,0,.9,6.272A11.3,11.3,0,0,1,72.8-.864ZM66.752-3.68h1.712v.768H66.752Zm0-1.536h1.712v.768H66.752Zm2.848.768v-.768h1.76v.768Zm0,1.536V-3.68h1.76v.768Zm7.632-5.04a17.262,17.262,0,0,1-1.744,3.9,34.4,34.4,0,0,1-.576-4.688h4.256V-9.984h-4.32c-.048-1.088-.064-2.24-.048-3.424H73.312c0,1.168.032,2.32.08,3.424H69.776v-1.088h2.7V-12.24h-2.7v-1.184H68.352v1.184H65.6v1.168h2.752v1.088H64.88v1.248h3.488v.9h-3.04v1.072h3.04V-6h-2.72v3.888h2.736v.768h-3.3v1.1h3.3v1.5H69.7V-.24h2.288c-.192.144-.4.272-.608.4a4.137,4.137,0,0,1,1.008,1.12A12.636,12.636,0,0,0,74.912-.912c.608,1.36,1.424,2.16,2.512,2.16,1.248,0,1.76-.72,1.968-3.328a3.694,3.694,0,0,1-1.2-.784c-.08,1.9-.256,2.672-.64,2.672-.624,0-1.152-.752-1.584-2.032A18.752,18.752,0,0,0,78.56-7.552Z" transform="translate(-3024 5437)" fill="#333"/>
    <g id="グループ_6395" data-name="グループ 6395">
      <rect id="長方形_9905" data-name="長方形 9905" width="288" height="56" transform="translate(-3064 5346)" fill="#f5f5f5"/>
      <path id="パス_33199" data-name="パス 33199" d="M9.776-3.264V-1.52H6.336V-3.264ZM11.12-.4v-4H5.008V.528H6.336V-.4ZM6.336-9.2a7.837,7.837,0,0,0-.64-1.5H10.24A11.907,11.907,0,0,1,9.5-9.2Zm6.672,2.416A2.835,2.835,0,0,1,11.936-7.2c-.048.864-.112.976-.416.976H10.368c-.368,0-.416-.032-.416-.352V-7.9h3.056ZM3.152-7.9h2.56c-.144,1.328-.64,1.968-2.56,2.352ZM14.9-10.7v-1.36H8.7v-1.36H7.184v1.36H1.12v1.36H4.08a8.923,8.923,0,0,1,.656,1.5H1.728V1.232H3.152V-5.52A2.991,2.991,0,0,1,3.824-4.5C6.192-5.056,6.848-6.048,7.04-7.9H8.656V-6.56c0,1.12.288,1.44,1.536,1.44H11.68c.816,0,1.168-.272,1.328-1.3V-.48c0,.24-.08.32-.368.336-.272,0-1.2.016-2.16-.032a5.7,5.7,0,0,1,.5,1.44,8.422,8.422,0,0,0,2.736-.256c.56-.24.72-.688.72-1.472V-9.2h-3.28c.272-.432.544-.944.848-1.5ZM27.008-8.72h-6v-2.608h6Zm1.52-4.032H19.584V-7.3h8.944ZM21.648-4.32V-.992H18.736V-4.32Zm-4.32,5.584h1.408V.432h2.912v.72H23.12v-6.9H17.328ZM26.112-.992V-4.32H29.28V-.992ZM24.688-5.744V1.264h1.424V.432H29.28v.752h1.488V-5.744Zm21.968.128a5.922,5.922,0,0,0-6.272-6.032,6.935,6.935,0,0,0-7.152,6.656c0,2.672,1.456,4.432,3.04,4.432s2.912-1.808,3.872-5.072a31.86,31.86,0,0,0,.96-4.5,4.254,4.254,0,0,1,3.872,4.464A4.6,4.6,0,0,1,41.1-1.12,9.889,9.889,0,0,1,39.68-.9l.944,1.5C44.512.048,46.656-2.256,46.656-5.616Zm-11.808.464a5.348,5.348,0,0,1,4.56-4.944,25.473,25.473,0,0,1-.88,4.128c-.736,2.464-1.488,3.5-2.208,3.5C35.632-2.464,34.848-3.312,34.848-5.152ZM52.656-9.84H50.64v-1.776h2.016Zm0,2.944H50.64V-8.7h2.016Zm0,2.944H50.64V-5.776h2.016ZM54-12.832H49.344v10.08H54ZM50.128-2.512A7.151,7.151,0,0,1,48.512.512a9.224,9.224,0,0,1,1.12.768A10.322,10.322,0,0,0,51.44-2.192Zm1.936.464A13.344,13.344,0,0,1,53.344.544l1.168-.56a14.823,14.823,0,0,0-1.328-2.512Zm7.344-.368V-3.44h1.7v1.024ZM56.48-3.44H58.1v1.024H56.48ZM58.1-5.36v.944H56.48V-5.36Zm3.008,0v.944h-1.7V-5.36Zm-3.36-3.824h2.048v.848H57.744Zm0-1.84h2.048v.784H57.744Zm5.584,8.608H62.48V-6.464H59.408v-.768H63.3v-1.1H61.12v-.848H62.7V-10.24H61.12v-.784h1.84v-1.1H61.12v-1.3H59.792v1.3H57.744v-1.3H56.432v1.3h-1.84v1.1h1.84v.784h-1.44v1.056h1.44v.848h-2.16v1.1H58.1v.768H55.152v4.048h-.944v1.088h.944V1.28H56.48V-1.328H61.1V-.192c0,.192-.048.256-.272.256-.208.016-.944.016-1.68-.016a4.412,4.412,0,0,1,.4,1.2,6.673,6.673,0,0,0,2.32-.208c.464-.208.608-.56.608-1.216V-1.328h.848ZM67.7-12.5v1.5H71.5a17.681,17.681,0,0,0,.208,1.9L70.9-9.232c-.928,4.336-2.864,7.488-6.3,9.264a11.381,11.381,0,0,1,1.376,1.2A14.111,14.111,0,0,0,72.112-7.2,13.575,13.575,0,0,0,78.24,1.2a7.518,7.518,0,0,1,1.2-1.264c-6.1-3.6-6.464-9.536-6.464-12.432Z" transform="translate(-3024 5381)" fill="#333"/>
    </g>
    <path id="パス_33188" data-name="パス 33188" d="M12.112-13.376l-1.072.432c.336.512.752,1.184,1.056,1.776a5.793,5.793,0,0,1-.72.032H3.632c-.528,0-1.28-.064-1.744-.112v1.792C2.3-9.488,2.944-9.52,3.616-9.52h7.872a11.2,11.2,0,0,1-2,4.912A10.683,10.683,0,0,1,3.232-.8L4.608.7A12.444,12.444,0,0,0,10.96-3.632,16.019,16.019,0,0,0,13.36-9.5a4.861,4.861,0,0,1,.288-.928l-.88-.576.608-.256A23.751,23.751,0,0,0,12.112-13.376Zm2.144-.416-1.088.448a15.894,15.894,0,0,1,1.3,2.144l1.088-.48C15.232-12.272,14.64-13.232,14.256-13.792Zm3.936,2.656c.032.416.032.976.032,1.392v7.856c0,.64-.032,1.92-.048,2.064H19.92C19.9.1,19.9-.288,19.9-.72h8.288c-.016.448-.016.816-.032.9H29.9c0-.128-.032-1.5-.032-2.064V-9.744c0-.448,0-.944.032-1.376-.528.016-1.1.016-1.472.016H19.744C19.344-11.1,18.832-11.1,18.192-11.136Zm1.7,1.632h8.3V-2.32h-8.3Zm24.448-3.424-1.024.432a19.1,19.1,0,0,1,1.264,2.208l1.056-.448A23.186,23.186,0,0,0,44.336-12.928Zm1.808-.688-1.024.432a16.058,16.058,0,0,1,1.312,2.208l1.04-.464A18.914,18.914,0,0,0,46.144-13.616Zm-5.872,1.552-1.856-.608a7.5,7.5,0,0,1-.592,1.44,13.685,13.685,0,0,1-5.024,5.3L34.208-4.9a16.576,16.576,0,0,0,4.048-3.9h5.008a12.015,12.015,0,0,1-2.432,4.72A12.806,12.806,0,0,1,34.416-.1L35.9,1.248a14.546,14.546,0,0,0,6.4-4.432,15.835,15.835,0,0,0,2.816-5.44,5.476,5.476,0,0,1,.448-.976l-1.312-.8a4.272,4.272,0,0,1-1.2.16H39.2c.1-.144.16-.272.24-.416C39.616-10.976,39.952-11.584,40.272-12.064Zm13.7.384v1.024H50.9V-11.68ZM50.9-8.544v-1.12h3.072v1.12ZM55.36-7.472v-5.312H49.424V1.264H50.9V-7.472Zm2.464,7.1c-.24,0-.288-.048-.288-.352V-2.352h1.808V-5.808H58.016c.24-.368.512-.8.768-1.232l-1.232-.4h3.632v6.9c0,.224-.08.288-.288.3h-1.04a5.947,5.947,0,0,0,.128-.912,3.584,3.584,0,0,1-1.072-.432C58.88-.512,58.8-.368,58.576-.368Zm-4-4.416h4.208v1.392H53.824Zm7.36-6.9v1.024H58.016V-11.68ZM58.016-9.664h3.168v1.152H58.016Zm4.64-3.12H56.592V-7.44H57.5a12.941,12.941,0,0,1-.816,1.632h-1.52a5.159,5.159,0,0,0-.9-1.584l-1.152.4a5.449,5.449,0,0,1,.688,1.184H52.576v3.456h1.44c-.192,1.12-.784,1.792-2.4,2.192A3.778,3.778,0,0,1,52.352.864a3.572,3.572,0,0,0,2.9-3.216H56.3V-.7C56.3.368,56.528.72,57.616.72h1.12a1.012,1.012,0,0,0,.832-.3,7.488,7.488,0,0,1,.176.8A5.263,5.263,0,0,0,62.016.944c.5-.256.64-.688.64-1.472Zm16.528,2.1v-1.168H74.656a12.128,12.128,0,0,0,.448-1.28l-1.328-.3a9.7,9.7,0,0,1-1.984,3.76,8.666,8.666,0,0,1,1.168.768,8.988,8.988,0,0,0,1.168-1.776Zm-.432,2.9V-8.96H73.5v1.168ZM66.832-8.928h1.424v.736H66.832ZM68.256-12v.656H66.832V-12Zm2.112,2.224H66.832v-.72h3.536Zm1.824,1.584H69.456v-.736h2.208v-2.416H69.456V-12h2.512v-.88h-6.5V-7.3h6.72ZM68.48-3.024h6.992v.688H68.48Zm0-1.472h6.992v.672H68.48Zm0-1.472h6.992V-5.3H68.48ZM75.1-.08c-.688,0-.8-.048-.8-.432v-.976h2.624v-5.3H67.072v5.3h2.176C68.8-.512,67.728-.08,64.7.144a3.507,3.507,0,0,1,.64,1.136c3.6-.368,4.9-1.152,5.408-2.768h2.1V-.5c0,1.248.416,1.584,2.1,1.584h2.512c1.28,0,1.7-.4,1.84-2.1a4.923,4.923,0,0,1-1.264-.464c-.064,1.216-.16,1.392-.72,1.392Z" transform="translate(-3024 5325)" fill="#333"/>
    <path id="パス_33189" data-name="パス 33189" d="M0,0H288V56H0Z" transform="translate(-3064 5234)" fill="#f5f5f5"/>
    <path id="パス_33190" data-name="パス 33190" d="M9.776-3.264V-1.52H6.336V-3.264ZM11.12-.4v-4H5.008V.528H6.336V-.4ZM6.336-9.2a7.837,7.837,0,0,0-.64-1.5H10.24A11.907,11.907,0,0,1,9.5-9.2Zm6.672,2.416A2.835,2.835,0,0,1,11.936-7.2c-.048.864-.112.976-.416.976H10.368c-.368,0-.416-.032-.416-.352V-7.9h3.056ZM3.152-7.9h2.56c-.144,1.328-.64,1.968-2.56,2.352ZM14.9-10.7v-1.36H8.7v-1.36H7.184v1.36H1.12v1.36H4.08a8.923,8.923,0,0,1,.656,1.5H1.728V1.232H3.152V-5.52A2.991,2.991,0,0,1,3.824-4.5C6.192-5.056,6.848-6.048,7.04-7.9H8.656V-6.56c0,1.12.288,1.44,1.536,1.44H11.68c.816,0,1.168-.272,1.328-1.3V-.48c0,.24-.08.32-.368.336-.272,0-1.2.016-2.16-.032a5.7,5.7,0,0,1,.5,1.44,8.422,8.422,0,0,0,2.736-.256c.56-.24.72-.688.72-1.472V-9.2h-3.28c.272-.432.544-.944.848-1.5ZM27.008-8.72h-6v-2.608h6Zm1.52-4.032H19.584V-7.3h8.944ZM21.648-4.32V-.992H18.736V-4.32Zm-4.32,5.584h1.408V.432h2.912v.72H23.12v-6.9H17.328ZM26.112-.992V-4.32H29.28V-.992ZM24.688-5.744V1.264h1.424V.432H29.28v.752h1.488V-5.744Zm15.1,1.584V-6.048H41.84v1.184a5.184,5.184,0,0,1-.032.7Zm5.52-1.888V-4.16H43.168c.016-.224.016-.448.016-.672V-6.048Zm-5.056-3.68a10.866,10.866,0,0,0,2.272-2.384,11.589,11.589,0,0,0,2.384,2.384Zm6.4,6.736V-7.216H43.184V-8.48h2.352v-.8a13.3,13.3,0,0,0,1.328.8,7.3,7.3,0,0,1,.784-1.312,11,11,0,0,1-4.5-3.616H41.808a10.542,10.542,0,0,1-3.84,3.52v-.192h-1.6v-3.344H34.976v3.344H32.864V-8.7h2A17.619,17.619,0,0,1,32.528-2.96a7.744,7.744,0,0,1,.72,1.3,15.033,15.033,0,0,0,1.728-3.824V1.248h1.392V-5.92c.416.752.848,1.6,1.056,2.1l.8-1.168c-.24-.4-1.424-2.144-1.856-2.7V-8.7h1.6v-.384a5.952,5.952,0,0,1,.32.64,10.284,10.284,0,0,0,1.312-.8v.768h2.24v1.264H38.5v4.224h3.088c-.432,1.232-1.52,2.384-4.16,3.216a5.016,5.016,0,0,1,.816,1.12C40.784.512,42.048-.72,42.672-2.064a6.763,6.763,0,0,0,4,3.392A3.571,3.571,0,0,1,47.536.08,5.724,5.724,0,0,1,43.68-2.992Zm5.856.752A12.261,12.261,0,0,1,48.736.08,7.962,7.962,0,0,1,49.888,1.1a15.712,15.712,0,0,0,4.048-2.816Zm8.512-.512a9.27,9.27,0,0,1,.88.8l1.056-.88A28.649,28.649,0,0,0,59.04-5.68l-.992.784c.5.3,1.024.656,1.536,1.04-1.568.016-3.152.048-4.64.064a48.915,48.915,0,0,0,4.528-3.12l-1.36-.736a32.464,32.464,0,0,1-3.264,2.512c-.352-.272-.784-.56-1.248-.848a25.46,25.46,0,0,0,2.464-2.032l-.512-.24h5.84V-6.4h1.472V-9.52H56.688V-10.8h6v-1.312h-6V-13.44H55.216v1.328H49.28V-10.8h5.936v1.28H49.2V-6.4h1.408V-8.256h3.728a20.3,20.3,0,0,1-1.824,1.664q-.408-.216-.768-.384l-.96.832a21.066,21.066,0,0,1,2.848,1.808c-.32.192-.624.384-.928.56-1.36.016-2.592.016-3.6.016l.08,1.36c1.632-.032,3.744-.08,6.032-.16V1.28H56.7V-2.608ZM57.952-1.5a21.355,21.355,0,0,1,3.872,2.56L63.056.208A25.4,25.4,0,0,0,59.1-2.256Z" transform="translate(-3024 5269)" fill="#333"/>
    <path id="パス_33185" data-name="パス 33185" d="M9.776-3.264V-1.52H6.336V-3.264ZM11.12-.4v-4H5.008V.528H6.336V-.4ZM6.336-9.2a7.837,7.837,0,0,0-.64-1.5H10.24A11.907,11.907,0,0,1,9.5-9.2Zm6.672,2.416A2.835,2.835,0,0,1,11.936-7.2c-.048.864-.112.976-.416.976H10.368c-.368,0-.416-.032-.416-.352V-7.9h3.056ZM3.152-7.9h2.56c-.144,1.328-.64,1.968-2.56,2.352ZM14.9-10.7v-1.36H8.7v-1.36H7.184v1.36H1.12v1.36H4.08a8.923,8.923,0,0,1,.656,1.5H1.728V1.232H3.152V-5.52A2.991,2.991,0,0,1,3.824-4.5C6.192-5.056,6.848-6.048,7.04-7.9H8.656V-6.56c0,1.12.288,1.44,1.536,1.44H11.68c.816,0,1.168-.272,1.328-1.3V-.48c0,.24-.08.32-.368.336-.272,0-1.2.016-2.16-.032a5.7,5.7,0,0,1,.5,1.44,8.422,8.422,0,0,0,2.736-.256c.56-.24.72-.688.72-1.472V-9.2h-3.28c.272-.432.544-.944.848-1.5ZM27.008-8.72h-6v-2.608h6Zm1.52-4.032H19.584V-7.3h8.944ZM21.648-4.32V-.992H18.736V-4.32Zm-4.32,5.584h1.408V.432h2.912v.72H23.12v-6.9H17.328ZM26.112-.992V-4.32H29.28V-.992ZM24.688-5.744V1.264h1.424V.432H29.28v.752h1.488V-5.744Zm21.968.128a5.922,5.922,0,0,0-6.272-6.032,6.935,6.935,0,0,0-7.152,6.656c0,2.672,1.456,4.432,3.04,4.432s2.912-1.808,3.872-5.072a31.86,31.86,0,0,0,.96-4.5,4.254,4.254,0,0,1,3.872,4.464A4.6,4.6,0,0,1,41.1-1.12,9.889,9.889,0,0,1,39.68-.9l.944,1.5C44.512.048,46.656-2.256,46.656-5.616Zm-11.808.464a5.348,5.348,0,0,1,4.56-4.944,25.473,25.473,0,0,1-.88,4.128c-.736,2.464-1.488,3.5-2.208,3.5C35.632-2.464,34.848-3.312,34.848-5.152Zm19.12-6.528v1.024H50.9V-11.68ZM50.9-8.544v-1.12h3.072v1.12ZM55.36-7.472v-5.312H49.424V1.264H50.9V-7.472Zm2.464,7.1c-.24,0-.288-.048-.288-.352V-2.352h1.808V-5.808H58.016c.24-.368.512-.8.768-1.232l-1.232-.4h3.632v6.9c0,.224-.08.288-.288.3h-1.04a5.947,5.947,0,0,0,.128-.912,3.584,3.584,0,0,1-1.072-.432C58.88-.512,58.8-.368,58.576-.368Zm-4-4.416h4.208v1.392H53.824Zm7.36-6.9v1.024H58.016V-11.68ZM58.016-9.664h3.168v1.152H58.016Zm4.64-3.12H56.592V-7.44H57.5a12.941,12.941,0,0,1-.816,1.632h-1.52a5.159,5.159,0,0,0-.9-1.584l-1.152.4a5.449,5.449,0,0,1,.688,1.184H52.576v3.456h1.44c-.192,1.12-.784,1.792-2.4,2.192A3.778,3.778,0,0,1,52.352.864a3.572,3.572,0,0,0,2.9-3.216H56.3V-.7C56.3.368,56.528.72,57.616.72h1.12a1.012,1.012,0,0,0,.832-.3,7.488,7.488,0,0,1,.176.8A5.263,5.263,0,0,0,62.016.944c.5-.256.64-.688.64-1.472Zm16.528,2.1v-1.168H74.656a12.128,12.128,0,0,0,.448-1.28l-1.328-.3a9.7,9.7,0,0,1-1.984,3.76,8.666,8.666,0,0,1,1.168.768,8.988,8.988,0,0,0,1.168-1.776Zm-.432,2.9V-8.96H73.5v1.168ZM66.832-8.928h1.424v.736H66.832ZM68.256-12v.656H66.832V-12Zm2.112,2.224H66.832v-.72h3.536Zm1.824,1.584H69.456v-.736h2.208v-2.416H69.456V-12h2.512v-.88h-6.5V-7.3h6.72ZM68.48-3.024h6.992v.688H68.48Zm0-1.472h6.992v.672H68.48Zm0-1.472h6.992V-5.3H68.48ZM75.1-.08c-.688,0-.8-.048-.8-.432v-.976h2.624v-5.3H67.072v5.3h2.176C68.8-.512,67.728-.08,64.7.144a3.507,3.507,0,0,1,.64,1.136c3.6-.368,4.9-1.152,5.408-2.768h2.1V-.5c0,1.248.416,1.584,2.1,1.584h2.512c1.28,0,1.7-.4,1.84-2.1a4.923,4.923,0,0,1-1.264-.464c-.064,1.216-.16,1.392-.72,1.392Z" transform="translate(-3024 5213)" fill="#333"/>
    <path id="パス_33193" data-name="パス 33193" d="M7-8.26A1.058,1.058,0,0,0,8.05-9.31,1.058,1.058,0,0,0,7-10.36,1.058,1.058,0,0,0,5.95-9.31,1.058,1.058,0,0,0,7-8.26ZM7-5.726l-4.62-4.62-.406.406,4.62,4.62L1.96-.686l.406.406L7-4.914l4.62,4.62L12.026-.7,7.406-5.32l4.62-4.62-.406-.406ZM4.06-5.32A1.058,1.058,0,0,0,3.01-6.37,1.058,1.058,0,0,0,1.96-5.32,1.058,1.058,0,0,0,3.01-4.27,1.058,1.058,0,0,0,4.06-5.32Zm5.88,0a1.058,1.058,0,0,0,1.05,1.05,1.058,1.058,0,0,0,1.05-1.05,1.058,1.058,0,0,0-1.05-1.05A1.058,1.058,0,0,0,9.94-5.32ZM7-2.38A1.058,1.058,0,0,0,5.95-1.33,1.058,1.058,0,0,0,7-.28,1.058,1.058,0,0,0,8.05-1.33,1.058,1.058,0,0,0,7-2.38Z" transform="translate(-2486 5380)" fill="#333"/>
    <path id="パス_33194" data-name="パス 33194" d="M7-8.26A1.058,1.058,0,0,0,8.05-9.31,1.058,1.058,0,0,0,7-10.36,1.058,1.058,0,0,0,5.95-9.31,1.058,1.058,0,0,0,7-8.26ZM7-5.726l-4.62-4.62-.406.406,4.62,4.62L1.96-.686l.406.406L7-4.914l4.62,4.62L12.026-.7,7.406-5.32l4.62-4.62-.406-.406ZM4.06-5.32A1.058,1.058,0,0,0,3.01-6.37,1.058,1.058,0,0,0,1.96-5.32,1.058,1.058,0,0,0,3.01-4.27,1.058,1.058,0,0,0,4.06-5.32Zm5.88,0a1.058,1.058,0,0,0,1.05,1.05,1.058,1.058,0,0,0,1.05-1.05,1.058,1.058,0,0,0-1.05-1.05A1.058,1.058,0,0,0,9.94-5.32ZM7-2.38A1.058,1.058,0,0,0,5.95-1.33,1.058,1.058,0,0,0,7-.28,1.058,1.058,0,0,0,8.05-1.33,1.058,1.058,0,0,0,7-2.38Z" transform="translate(-2486 5436)" fill="#333"/>
  </g>
</svg>
