<svg xmlns="http://www.w3.org/2000/svg" xmlns:xlink="http://www.w3.org/1999/xlink" width="584.784" height="305.897" viewBox="0 0 584.784 305.897">
  <defs>
    <linearGradient id="linear-gradient" y1="0.5" x2="1" y2="0.5" gradientUnits="objectBoundingBox">
      <stop offset="0" stop-color="gold"/>
      <stop offset="0.091" stop-color="#ffd208"/>
      <stop offset="0.182" stop-color="#ffc322"/>
      <stop offset="0.273" stop-color="#ffac42"/>
      <stop offset="0.364" stop-color="#ff906a"/>
      <stop offset="0.455" stop-color="#ff7a96"/>
      <stop offset="0.545" stop-color="#ff74c2"/>
      <stop offset="0.636" stop-color="#f87de5"/>
      <stop offset="0.727" stop-color="#c489fa"/>
      <stop offset="0.818" stop-color="#8f91ff"/>
      <stop offset="0.909" stop-color="#6395ff"/>
      <stop offset="1" stop-color="#5096ff"/>
    </linearGradient>
  </defs>
  <g id="グループ_6542" data-name="グループ 6542" transform="translate(-427.788 -213)">
    <path id="パス_33246" data-name="パス 33246" d="M4.48-1.408V-2.672H11.6v1.264ZM11.6-6.064v1.248H4.48V-6.064Zm0-3.376v1.232H4.48V-9.44ZM8.736-11.664c.224-.528.48-1.136.7-1.744L6.592-13.7c-.064.608-.192,1.36-.336,2.032H2.128V1.488H4.48V.736H11.6v.752h2.48V-11.664Zm12.976.944c1.248.32,4.832,1.072,6.5,1.3l.576-2.368a49.091,49.091,0,0,1-6.464-1.232Zm.96,1.04L20.1-10.032A60.75,60.75,0,0,1,19.312-3.3l2.192.544a4.072,4.072,0,0,1,.656-.992,5.308,5.308,0,0,1,4.1-1.728c1.264,0,2.128.672,2.128,1.568,0,1.936-2.56,2.944-7.184,2.256L21.952.864c6.976.608,9.136-1.776,9.136-4.72,0-1.936-1.616-3.792-4.592-3.792a8.019,8.019,0,0,0-4.384,1.28A27.5,27.5,0,0,1,22.672-9.68ZM39.984-6.048c-.56,1.84-1.04,2.8-1.68,2.8-.544,0-1.024-.72-1.024-2.1A4.721,4.721,0,0,1,40.8-9.632,23.105,23.105,0,0,1,39.984-6.048ZM42.768.8c4.128-.688,6.1-3.136,6.1-6.464a6.214,6.214,0,0,0-6.592-6.384,7.227,7.227,0,0,0-7.488,6.96c0,2.7,1.5,4.832,3.456,4.832,1.872,0,3.3-2.128,4.24-5.3a33.145,33.145,0,0,0,.928-4.128,3.672,3.672,0,0,1,2.816,3.936,4.014,4.014,0,0,1-3.36,3.984,11.377,11.377,0,0,1-1.552.288ZM57.792-4.72c-.7.16-1.424.3-2.128.464v-5.36h1.952V-11.84H51.488v2.224H53.36v5.84c-.816.16-1.568.3-2.176.416l.544,2.416c1.808-.48,4.144-1.1,6.3-1.712Zm5.12-3.968a12.86,12.86,0,0,1-1.28,3.7,14.218,14.218,0,0,1-1.328-3.7Zm3.5,0v-2.224H60.96q.384-1.152.672-2.352l-2.3-.464a15.6,15.6,0,0,1-3.12,6.992,14.107,14.107,0,0,1,1.984,1.392c.192-.24.368-.5.544-.752A17.429,17.429,0,0,0,60.064-2.96,10.553,10.553,0,0,1,55.648-.624a10.519,10.519,0,0,1,1.232,2.16A12.827,12.827,0,0,0,61.44-1.04a9.9,9.9,0,0,0,3.7,2.576,9.536,9.536,0,0,1,1.6-2.112,8.949,8.949,0,0,1-3.648-2.352,15.607,15.607,0,0,0,2.256-5.76ZM71.76-2.544c-.48,0-.736-.416-.736-1.04a4.554,4.554,0,0,1,.864-2.56,18.4,18.4,0,0,0,1.28,2.688A2.09,2.09,0,0,1,71.76-2.544Zm4.048-5.888A18.012,18.012,0,0,1,74.64-5.616a16.5,16.5,0,0,1-.9-2.08A6.061,6.061,0,0,1,75.808-8.432Zm3.024-2.352c.112-.448.288-1.344.432-1.808l-2.656-.256a9.474,9.474,0,0,1-.128,1.68c-.032.176-.064.352-.1.544a9.164,9.164,0,0,0-3.328.864c-.08-.288-.16-.56-.24-.832-.128-.48-.256-1.008-.352-1.584l-2.512.784a12.593,12.593,0,0,1,.7,1.76c.128.4.256.8.384,1.184a7.169,7.169,0,0,0-2.272,5.072c0,2.16,1.328,3.328,2.7,3.328a3.935,3.935,0,0,0,3.1-1.536l.416.48L76.928-2.64a10.426,10.426,0,0,1-.8-.864A19.439,19.439,0,0,0,78.16-8.3a3.166,3.166,0,0,1,2.16,3.216c0,1.712-1.1,3.52-4.688,3.824L77.1.96c3.248-.512,5.728-2.448,5.728-5.92a5.355,5.355,0,0,0-4.08-5.472Zm21.712-1.072a22.837,22.837,0,0,0-1.264-2.176l-1.5.608a17.847,17.847,0,0,1,1.264,2.208ZM89.5-12.832a15.907,15.907,0,0,1-.3,3.312c-.7.048-1.36.1-1.824.112a17.645,17.645,0,0,1-1.84,0l.208,2.576c.528-.1,1.44-.224,1.952-.288.224-.032.576-.08.992-.144a23.032,23.032,0,0,1-3.12,7.152L88.08.9a35.832,35.832,0,0,0,3.168-8.448c.288-.016.56-.032.736-.032.992,0,1.472.144,1.472,1.3a11.306,11.306,0,0,1-.592,4.064,1.074,1.074,0,0,1-1.072.608,10.055,10.055,0,0,1-1.936-.336L90.272.576A9.409,9.409,0,0,0,92.192.8,2.713,2.713,0,0,0,94.96-.736a15.832,15.832,0,0,0,.88-5.808c0-2.368-1.2-3.232-3.024-3.232-.288,0-.656.016-1.072.048.1-.416.192-.848.272-1.28.1-.448.224-1.04.336-1.52Zm9.056,1.76c-.288-.56-.848-1.6-1.248-2.192l-1.5.608A20.594,20.594,0,0,1,96.9-10.7l-1.392.576A17.506,17.506,0,0,1,98.1-4l2.448-1.136a29.117,29.117,0,0,0-2.56-5.7Zm12.448,9.888V-3.936H115.6v-2.24h-4.592V-8.624h5.232V-10.9h-5.232V-13.68h-2.432V-10.9h-2.048a19.881,19.881,0,0,0,.7-2.08l-2.416-.544a13.555,13.555,0,0,1-2.8,5.664,15.445,15.445,0,0,1,2.1,1.408A14.22,14.22,0,0,0,105.5-8.624h3.072v2.448h-4.144v2.24h4.144v2.752h-6.048V1.088h14.56V-1.184ZM121.6-4.608a8.192,8.192,0,0,0-.4,2.24c0,2.336,1.9,3.36,4.96,3.36a27.236,27.236,0,0,0,4.208-.32l.08-2.448a25.282,25.282,0,0,1-4.352.352c-1.936,0-2.5-.624-2.5-1.472a4.891,4.891,0,0,1,.368-1.5Zm10.672-4.736a18.357,18.357,0,0,1-2.8.768l-.192-.448c-.1-.224-.208-.464-.3-.7a22.259,22.259,0,0,0,2.56-.624l-.4-2.128a19.05,19.05,0,0,1-2.96.72,11.435,11.435,0,0,1-.432-1.488l-2.736.512a10.228,10.228,0,0,1,.72,1.248,31.345,31.345,0,0,1-4.56-.208L121.3-9.52a32.233,32.233,0,0,0,5.376.08l.416.96.1.24a33.037,33.037,0,0,1-6.128-.064l.1,2.192a42.538,42.538,0,0,0,6.9-.08c.16.384.336.816.544,1.28-.4-.032-.96-.08-1.5-.128l-.208,1.824c1.088.128,2.736.384,3.664.576l1.12-1.44c-.464-.88-.88-1.744-1.248-2.512a17.694,17.694,0,0,0,2.3-.592Zm10.88,8.128c-.8,0-1.328-.352-1.328-.848,0-.32.3-.624.816-.624.672,0,1.152.56,1.232,1.44C143.648-1.232,143.408-1.216,143.152-1.216Zm3.6-11.376a8.433,8.433,0,0,1-1.408.192c-.944.08-4.112.128-4.96.128a13.289,13.289,0,0,1-1.616-.1l.08,2.48c.384-.064.944-.112,1.424-.144.848-.064,2.48-.128,3.28-.144-.768.688-2.24,1.824-3.12,2.56-.944.768-2.784,2.336-3.808,3.136l1.744,1.808c1.52-1.856,3.184-3.248,5.5-3.248,1.744,0,3.136.848,3.136,2.208a2.1,2.1,0,0,1-.928,1.824,3.25,3.25,0,0,0-3.456-2.624,2.9,2.9,0,0,0-3.072,2.688c0,1.744,1.856,2.784,4.1,2.784,4.1,0,5.888-2.16,5.888-4.64,0-2.384-2.144-4.128-4.864-4.128a5.332,5.332,0,0,0-1.1.1c.864-.672,2.256-1.808,3.152-2.416.4-.272.8-.512,1.216-.768Z" transform="translate(524 516.569)" fill="#888"/>
    <path id="パス_33247" data-name="パス 33247" d="M11.808-11.424a11.331,11.331,0,0,1-1.648,1.072c-.688.4-1.888,1.024-3.056,1.7A33.255,33.255,0,0,1,5.2-12.88L2.784-11.9c.7,1.664,1.44,3.28,2.176,4.64C3.5-6.16,2.384-4.864,2.384-3.056,2.384-.128,4.9.752,8.16.752A30.135,30.135,0,0,0,13.3.352l.032-2.768A27.172,27.172,0,0,1,8.1-1.808c-2.032,0-3.04-.5-3.04-1.536s.88-1.888,2.112-2.688A42.789,42.789,0,0,1,11.36-8.24c.64-.32,1.216-.624,1.776-.96Zm9.664-.128-2.944-.032a9.385,9.385,0,0,1,.144,1.712c0,1.008.016,2.816.176,4.32.448,4.336,2,5.936,3.872,5.936,1.392,0,2.4-.992,3.5-3.792L24.288-5.776C24.064-4.7,23.5-2.72,22.768-2.72c-.912,0-1.232-1.456-1.424-3.536-.1-1.056-.1-2.1-.1-3.136A14.783,14.783,0,0,1,21.472-11.552Zm7.744.3-2.448.8C28.624-8.432,29.392-4.384,29.616-2l2.544-.976C32.032-5.264,30.768-9.424,29.216-11.248ZM44.528-5.216c0,2.288-2.416,3.44-6.4,3.872l1.376,2.4c4.576-.592,7.76-2.8,7.76-6.176,0-2.592-1.808-4.112-4.464-4.112a22.66,22.66,0,0,0-4.832.688,16.958,16.958,0,0,1-1.872.288l.7,2.72c.5-.176,1.2-.464,1.648-.592A13.619,13.619,0,0,1,42.464-6.9C43.872-6.9,44.528-6.1,44.528-5.216Zm-5.984-7.872-.368,2.3c1.84.32,5.424.624,7.328.752l.384-2.352A47.436,47.436,0,0,1,38.544-13.088Zm24.816,3.6c-.352,0-.416-.048-.416-.416v-.048H64.72c-.064.384-.144.464-.416.464Zm.352-1.9H61.056v1.5c0,1.472.432,1.9,2,1.9h1.488c1.072,0,1.568-.32,1.76-1.44a5.214,5.214,0,0,1-1.5-.528h.88v-3.312H60.768v1.424h2.944ZM58.1-9.488c-.352,0-.416-.048-.416-.416v-.048h1.776c-.064.384-.144.464-.416.464Zm.32-1.9H55.792v1.5c0,1.472.432,1.9,2,1.9H59.28c1.072,0,1.568-.32,1.76-1.44a5.214,5.214,0,0,1-1.5-.528h.816v-3.312H55.584v1.424h2.832Zm-3.248.7a12.473,12.473,0,0,0-2.144-2.624l-1.84,1.152a12.436,12.436,0,0,1,2,2.768ZM59.232-3.1h3.184l-1.184.656A17.576,17.576,0,0,1,63.856-.832c-2.08.064-4.336.064-5.728,0L57.52-.88a10.908,10.908,0,0,0,3.008-1.776Zm.832-2.5h1.424v.816H60.064Zm6.288,4a28.418,28.418,0,0,0-2.8-1.5h2.7v-1.68H63.7V-5.6H65.76V-7.248H63.7v-.688H61.488v.688H60.064v-.688H57.888v.688h-2V-5.6h2v.816H55.44V-3.1H58.1a11.531,11.531,0,0,1-2.576.96A14.539,14.539,0,0,1,56.976-.976,2.752,2.752,0,0,1,55.04-2.352V-7.488H51.392v2.144H52.88V-2.16c-.576.48-1.2.928-1.744,1.3L52.208,1.36c.752-.7,1.344-1.28,1.9-1.888.944,1.232,2.16,1.664,4.016,1.744,2.112.1,5.7.064,7.856-.048a10.674,10.674,0,0,1,.688-2.16c-.72.064-1.584.112-2.5.144Zm8-5.2-1.744.32V-8.56H74.4V-10.7H72.608V-13.68H70.384V-10.7H68.416V-8.56h1.968v2.448c-.832.144-1.6.256-2.24.352l.48,2.224,1.76-.32V-.944c0,.24-.08.32-.32.336-.24,0-.992,0-1.632-.032a8.3,8.3,0,0,1,.64,2.128,5.7,5.7,0,0,0,2.72-.416c.624-.352.816-.912.816-2v-3.36c.656-.128,1.3-.256,1.936-.384Zm6.288-3.824v2.848H77.28v-2.848ZM82.976-5.6v-7.216H74.944V-7.36c0,2.32-.144,5.328-2.048,7.3a9.009,9.009,0,0,1,1.808,1.6c1.76-1.792,2.352-4.672,2.512-7.136h.848c.624,3.328,1.664,5.824,4.064,7.168a8.629,8.629,0,0,1,1.6-2.048c-1.872-.912-2.848-2.832-3.344-5.12Z" transform="translate(833 516.569)" fill="#888"/>
    <path id="パス_29729" data-name="パス 29729" d="M-72.8-16.512q-.527.188-.961.393a3.809,3.809,0,0,0-.768.475,2.892,2.892,0,0,0-.58.633,3.206,3.206,0,0,0-.4.855q.223-.059.428-.094a2.6,2.6,0,0,1,.439-.035,2.806,2.806,0,0,1,.926.146,2.413,2.413,0,0,1,.744.41,2.123,2.123,0,0,1,.527.645,2.586,2.586,0,0,1,.275.85,6.641,6.641,0,0,1,.258-1.758,4.855,4.855,0,0,1,.791-1.582A5.489,5.489,0,0,1-69.7-16.869a7.225,7.225,0,0,1,2.139-.9v1.254q-.527.188-.961.393a3.971,3.971,0,0,0-.773.475,2.711,2.711,0,0,0-.58.633,3.325,3.325,0,0,0-.393.855,4.217,4.217,0,0,1,.416-.094,2.6,2.6,0,0,1,.439-.035,2.786,2.786,0,0,1,1.008.176,2.328,2.328,0,0,1,.791.5,2.2,2.2,0,0,1,.516.773,2.66,2.66,0,0,1,.182,1,3.063,3.063,0,0,1-.176,1.049,2.429,2.429,0,0,1-.51.844,2.32,2.32,0,0,1-.809.557,2.747,2.747,0,0,1-1.072.2,2.686,2.686,0,0,1-.99-.182,2.491,2.491,0,0,1-.814-.516,2.639,2.639,0,0,1-.574-.814,3.3,3.3,0,0,1-.281-1.066,2.976,2.976,0,0,1-.193,1.02,2.412,2.412,0,0,1-.516.814,2.415,2.415,0,0,1-.8.545,2.672,2.672,0,0,1-1.055.2A2.678,2.678,0,0,1-75.774-9.4a2.526,2.526,0,0,1-.855-.6,2.764,2.764,0,0,1-.568-.932,3.421,3.421,0,0,1-.205-1.213,6.705,6.705,0,0,1,.24-1.787,4.867,4.867,0,0,1,.785-1.611,5.44,5.44,0,0,1,1.424-1.312,7.407,7.407,0,0,1,2.156-.914Zm20.214,6.984v-.792h1.728v.792Zm0-3.744h1.728v.768h-1.728Zm6.864,0v.768h-1.752v-.768Zm0,3.744h-1.752v-.792h1.752Zm-5.136,7.8h3.384V-3.7h6.288V-6.5h-6.288v-.672h5.088v-8.448h-5.088v-.624h6.024v-2.784h-6.024V-20.52h-3.384v1.488h-5.736v2.784h5.736v.624h-4.9v8.448h4.9V-6.5h-6V-3.7h6ZM-56.88-16.152A21.213,21.213,0,0,0-60.624-19.9l-2.664,1.968a20.127,20.127,0,0,1,3.528,3.984Zm-.576,4.92h-5.832v3.216h2.5v4.7c-.936.7-1.92,1.368-2.808,1.9l1.608,3.48C-60.768,1.032-59.832.192-58.92-.7-57.5,1.128-55.7,1.752-52.992,1.872c3.072.144,8.184.1,11.328-.072a15.962,15.962,0,0,1,1.08-3.384,114.486,114.486,0,0,1-12.36.24c-2.256-.1-3.72-.72-4.512-2.208ZM-18.6-20.064a25.691,25.691,0,0,1-1.536,4.008l2.784,1.032c.576-.984,1.3-2.448,1.992-3.912Zm-5.376,3.912A17.946,17.946,0,0,0-25.8-20.016l-2.736,1.08a17.861,17.861,0,0,1,1.656,3.984Zm-13.392,9.96A23.933,23.933,0,0,1-36.7-2.16l2.28-.624a27.484,27.484,0,0,0-.792-3.96Zm17.688-5.352h-4.656v-.768h4.656Zm0,3.1h-4.656v-.768h4.656Zm0,3.072h-4.656v-.768h4.656ZM-34.632-14.52a22.214,22.214,0,0,0,1.92-2.76,21.7,21.7,0,0,1,2.28,2.76ZM-16.368-2.88v-11.9h-4.1V-20.52h-3.192v5.736H-27.48v11.9h2.088A18.492,18.492,0,0,1-28.224-.768l-.168-1.992c-1.008.168-2.04.36-3.048.528v-.984l2.016.528c.312-.936.7-2.328,1.128-3.648l-2.448-.576a25.847,25.847,0,0,1-.7,3.5V-7.416h2.76v-2.928h-2.76v-1.3h2.448v-2.88h-.36l1.608-1.944a24.7,24.7,0,0,0-4.032-4.056H-34.56a14.539,14.539,0,0,1-3.984,5.664,9.875,9.875,0,0,1,2.064,2.28l.12-.12v1.056h1.944v1.3H-37.44v2.928h3.024v5.688c-1.224.192-2.376.36-3.312.48L-37.08,1.9c2.232-.432,5.04-.984,7.752-1.536A19.873,19.873,0,0,1-27.6,2.328a21.774,21.774,0,0,0,5.3-3.672l-2.16-1.536h4.944l-2.064,1.488a27.2,27.2,0,0,1,3.624,3.648L-14.976.528A31.641,31.641,0,0,0-18.792-2.88ZM8.784-20.16H5.472v9.96c0,.312-.12.384-.456.384-.336.024-1.512.024-2.448-.024A12.03,12.03,0,0,1,3.6-6.792,9.565,9.565,0,0,0,7.512-7.32c1.008-.5,1.272-1.3,1.272-2.808ZM4.3-19.128H1.128v8.208H4.3ZM-6.312-14.616V-16.7h1.488v2.088ZM.48-1.68v-1.3H7.248V-6.12H.48V-7.584H-1.584v-3.984H.384v-3.048H-1.584V-16.7H-.168v-3.024h-11.04V-16.7h1.7v2.088h-2.544v3.048h2.112A5.117,5.117,0,0,1-12.72-8.976a14.381,14.381,0,0,1,2.256,2.424,7.021,7.021,0,0,0,3.888-5.016h1.752v4.344h1.7v1.1h-6.6v3.144h6.6v1.3h-9V1.536H9.6V-1.68ZM19.824.336c4.32,0,6.816-2.616,6.816-5.592,0-2.52-1.32-4.008-3.528-4.9L20.88-11.04c-1.584-.624-2.688-1.008-2.688-2.016,0-.936.792-1.464,2.112-1.464a5.808,5.808,0,0,1,3.672,1.368l2.136-2.688A8.31,8.31,0,0,0,20.3-18.192c-3.792,0-6.48,2.4-6.48,5.4a5.23,5.23,0,0,0,3.624,4.9l2.28.96c1.536.648,2.52.984,2.52,2.016,0,.96-.744,1.56-2.328,1.56A7.1,7.1,0,0,1,15.6-5.184L13.152-2.232A9.993,9.993,0,0,0,19.824.336ZM31.056,0h4.08V-5.928c0-2.16-.36-4.608-.552-6.6h.12l1.752,3.912L40.872,0H45.24V-17.88H41.16v5.928a61.987,61.987,0,0,0,.576,6.6h-.12l-1.752-3.96-4.44-8.568H31.056Zm25.32.336c4.32,0,6.816-2.616,6.816-5.592,0-2.52-1.32-4.008-3.528-4.9l-2.232-.888c-1.584-.624-2.688-1.008-2.688-2.016,0-.936.792-1.464,2.112-1.464a5.808,5.808,0,0,1,3.672,1.368l2.136-2.688a8.31,8.31,0,0,0-5.808-2.352c-3.792,0-6.48,2.4-6.48,5.4A5.23,5.23,0,0,0,54-7.9l2.28.96c1.536.648,2.52.984,2.52,2.016,0,.96-.744,1.56-2.328,1.56a7.1,7.1,0,0,1-4.32-1.824L49.7-2.232A9.993,9.993,0,0,0,56.376.336ZM72.317-10.441q.527-.187.961-.393a3.809,3.809,0,0,0,.768-.475,2.892,2.892,0,0,0,.58-.633,3.206,3.206,0,0,0,.4-.855q-.223.059-.428.094a2.6,2.6,0,0,1-.439.035,2.806,2.806,0,0,1-.926-.146,2.413,2.413,0,0,1-.744-.41,2.147,2.147,0,0,1-.527-.639,2.523,2.523,0,0,1-.275-.844,6.575,6.575,0,0,1-.258,1.752,4.933,4.933,0,0,1-.791,1.582,5.355,5.355,0,0,1-1.418,1.295,7.327,7.327,0,0,1-2.139.891v-1.254q.527-.187.961-.393a3.971,3.971,0,0,0,.773-.475,2.711,2.711,0,0,0,.58-.633,3.325,3.325,0,0,0,.393-.855,4.216,4.216,0,0,1-.416.094,2.6,2.6,0,0,1-.439.035,2.786,2.786,0,0,1-1.008-.176,2.328,2.328,0,0,1-.791-.5,2.2,2.2,0,0,1-.516-.773,2.66,2.66,0,0,1-.182-1,3.063,3.063,0,0,1,.176-1.049,2.429,2.429,0,0,1,.51-.844,2.32,2.32,0,0,1,.809-.557,2.747,2.747,0,0,1,1.072-.2,2.686,2.686,0,0,1,.99.182,2.491,2.491,0,0,1,.814.516,2.639,2.639,0,0,1,.574.814,3.3,3.3,0,0,1,.281,1.066,2.976,2.976,0,0,1,.193-1.02,2.412,2.412,0,0,1,.516-.814,2.415,2.415,0,0,1,.8-.545,2.672,2.672,0,0,1,1.055-.2,2.678,2.678,0,0,1,1.066.211,2.526,2.526,0,0,1,.855.6,2.764,2.764,0,0,1,.568.932,3.421,3.421,0,0,1,.205,1.213,6.705,6.705,0,0,1-.24,1.787,4.867,4.867,0,0,1-.785,1.611A5.525,5.525,0,0,1,74.474-10.1a7.1,7.1,0,0,1-2.156.908Z" transform="translate(754 516.569)" fill="url(#linear-gradient)"/>
    <path id="パス_33244" data-name="パス 33244" d="M-261.612-25.92a11.756,11.756,0,0,1,7.056,4.356,12.368,12.368,0,0,1,2.664,7.812A12.416,12.416,0,0,1-256.32-3.708Q-260.748,0-268.668,0h-23.544V-50.544h22.752q7.7,0,12.06,3.528a11.669,11.669,0,0,1,4.356,9.576,11.567,11.567,0,0,1-2.34,7.416A12.1,12.1,0,0,1-261.612-25.92ZM-279.9-30.1h8.064a7.139,7.139,0,0,0,4.644-1.332,4.786,4.786,0,0,0,1.62-3.924,4.893,4.893,0,0,0-1.62-3.96,7.008,7.008,0,0,0-4.644-1.368H-279.9Zm9.072,20.16a7.3,7.3,0,0,0,4.788-1.4,4.985,4.985,0,0,0,1.692-4.068,5.208,5.208,0,0,0-1.764-4.176,7.229,7.229,0,0,0-4.86-1.512H-279.9v11.16ZM-222.156.576a22.176,22.176,0,0,1-10.62-2.52,18.452,18.452,0,0,1-7.416-7.2,21.514,21.514,0,0,1-2.7-10.944A21.341,21.341,0,0,1-240.156-31a18.565,18.565,0,0,1,7.488-7.236,22.388,22.388,0,0,1,10.656-2.52,22.388,22.388,0,0,1,10.656,2.52A18.565,18.565,0,0,1-203.868-31a21.341,21.341,0,0,1,2.736,10.908A21.123,21.123,0,0,1-203.9-9.18a18.745,18.745,0,0,1-7.56,7.236A22.6,22.6,0,0,1-222.156.576Zm0-10.656a8.021,8.021,0,0,0,6.012-2.592q2.484-2.592,2.484-7.416t-2.412-7.416a7.8,7.8,0,0,0-5.94-2.592,7.814,7.814,0,0,0-5.976,2.556q-2.376,2.556-2.376,7.452,0,4.824,2.34,7.416A7.573,7.573,0,0,0-222.156-10.08Zm44.208-43.2V0H-190.26V-53.28Zm19.44,8.928A7.462,7.462,0,0,1-163.8-46.26a6.183,6.183,0,0,1-2.052-4.716,6.263,6.263,0,0,1,2.052-4.788,7.462,7.462,0,0,1,5.292-1.908,7.364,7.364,0,0,1,5.22,1.908,6.263,6.263,0,0,1,2.052,4.788,6.183,6.183,0,0,1-2.052,4.716A7.364,7.364,0,0,1-158.508-44.352Zm6.12,4.176V0H-164.7V-40.176Zm10.8,20.016a24.012,24.012,0,0,1,2.34-10.872,17.454,17.454,0,0,1,6.372-7.2,16.635,16.635,0,0,1,9-2.52A15.808,15.808,0,0,1-116.64-39.1a13.185,13.185,0,0,1,5.148,4.464V-53.28H-99.18V0h-12.312V-5.76a12.542,12.542,0,0,1-4.932,4.608A15.461,15.461,0,0,1-123.876.576a16.461,16.461,0,0,1-9-2.556,17.662,17.662,0,0,1-6.372-7.272A24.24,24.24,0,0,1-141.588-20.16Zm30.1.072a10.066,10.066,0,0,0-2.556-7.272,8.3,8.3,0,0,0-6.228-2.664A8.359,8.359,0,0,0-126.5-27.4a9.938,9.938,0,0,0-2.556,7.236,10.2,10.2,0,0,0,2.556,7.308,8.252,8.252,0,0,0,6.228,2.7,8.3,8.3,0,0,0,6.228-2.664A10.066,10.066,0,0,0-111.492-20.088Zm63.432-.648a31.431,31.431,0,0,1-.216,3.6H-76.14a8.372,8.372,0,0,0,2.412,5.724,7.369,7.369,0,0,0,5.22,1.98A6.47,6.47,0,0,0-62.1-13.32H-49a17.982,17.982,0,0,1-3.636,7.128A18.2,18.2,0,0,1-59.22-1.224a21.161,21.161,0,0,1-8.856,1.8,21.549,21.549,0,0,1-10.512-2.52,17.924,17.924,0,0,1-7.2-7.2A22.228,22.228,0,0,1-88.38-20.088a22.481,22.481,0,0,1,2.556-10.944,17.692,17.692,0,0,1,7.164-7.2,21.7,21.7,0,0,1,10.584-2.52A21.484,21.484,0,0,1-57.708-38.3a17.577,17.577,0,0,1,7.092,6.984A21.2,21.2,0,0,1-48.06-20.736Zm-12.6-3.24a6.33,6.33,0,0,0-2.16-5.04,7.951,7.951,0,0,0-5.4-1.872,7.8,7.8,0,0,0-5.22,1.8,8,8,0,0,0-2.628,5.112ZM-28.692-57.6l-.936,15.912h-8.28L-38.844-57.6ZM-.684.576a23.092,23.092,0,0,1-9.36-1.8,15.986,15.986,0,0,1-6.48-4.932,12.973,12.973,0,0,1-2.664-7.02H-7.02A4.678,4.678,0,0,0-5.076-9.792,6.878,6.878,0,0,0-.828-8.5a6.063,6.063,0,0,0,3.564-.9A2.756,2.756,0,0,0,4-11.736a2.7,2.7,0,0,0-1.8-2.556,36.364,36.364,0,0,0-5.832-1.836,54.754,54.754,0,0,1-7.2-2.124A12.44,12.44,0,0,1-15.8-21.78,9.615,9.615,0,0,1-17.892-28.3a11.064,11.064,0,0,1,1.908-6.3,12.846,12.846,0,0,1,5.616-4.5,21.5,21.5,0,0,1,8.82-1.656q7.56,0,11.916,3.744a14.568,14.568,0,0,1,5,9.936H4A4.9,4.9,0,0,0,2.16-30.384a6.368,6.368,0,0,0-4.068-1.224,5.624,5.624,0,0,0-3.312.828,2.644,2.644,0,0,0-1.152,2.268A2.769,2.769,0,0,0-4.536-25.92a29.406,29.406,0,0,0,5.724,1.728A62.621,62.621,0,0,1,8.46-21.924a12.544,12.544,0,0,1,4.932,3.6,10.186,10.186,0,0,1,2.2,6.66,10.571,10.571,0,0,1-1.98,6.3A13.1,13.1,0,0,1,7.92-1.008,21.753,21.753,0,0,1-.684.576Zm79.416-51.12v34.416q0,7.992-4.5,12.312T62.1.5Q54.108.5,49.284-4.032T44.46-16.92H56.7A7.543,7.543,0,0,0,58-12.132a4.513,4.513,0,0,0,3.744,1.62,4.287,4.287,0,0,0,3.456-1.44,6.283,6.283,0,0,0,1.224-4.176V-50.544ZM90.54-20.16a24.012,24.012,0,0,1,2.34-10.872,17.454,17.454,0,0,1,6.372-7.2,16.635,16.635,0,0,1,9-2.52,15.461,15.461,0,0,1,7.452,1.728,12.729,12.729,0,0,1,4.932,4.536v-5.688h12.312V0H120.636V-5.688a13.3,13.3,0,0,1-5,4.536A15.461,15.461,0,0,1,108.18.576,16.336,16.336,0,0,1,99.252-1.98,17.662,17.662,0,0,1,92.88-9.252,24.239,24.239,0,0,1,90.54-20.16Zm30.1.072a10.066,10.066,0,0,0-2.556-7.272,8.3,8.3,0,0,0-6.228-2.664,8.359,8.359,0,0,0-6.228,2.628,9.938,9.938,0,0,0-2.556,7.236,10.2,10.2,0,0,0,2.556,7.308,8.252,8.252,0,0,0,6.228,2.7,8.3,8.3,0,0,0,6.228-2.664A10.066,10.066,0,0,0,120.636-20.088Zm37.872-14.4a13.366,13.366,0,0,1,4.968-4.536,15.251,15.251,0,0,1,7.416-1.728,16.635,16.635,0,0,1,9,2.52,17.454,17.454,0,0,1,6.372,7.2A24.012,24.012,0,0,1,188.6-20.16a24.24,24.24,0,0,1-2.34,10.908,17.663,17.663,0,0,1-6.372,7.272,16.461,16.461,0,0,1-9,2.556,15.3,15.3,0,0,1-7.38-1.728,13.53,13.53,0,0,1-5-4.464V19.152H146.2V-40.176h12.312ZM176.076-20.16A9.938,9.938,0,0,0,173.52-27.4a8.442,8.442,0,0,0-6.3-2.628,8.3,8.3,0,0,0-6.228,2.664,10.066,10.066,0,0,0-2.556,7.272,10.066,10.066,0,0,0,2.556,7.272,8.3,8.3,0,0,0,6.228,2.664,8.366,8.366,0,0,0,6.264-2.7A10.111,10.111,0,0,0,176.076-20.16Zm20.88,0a24.012,24.012,0,0,1,2.34-10.872,17.454,17.454,0,0,1,6.372-7.2,16.635,16.635,0,0,1,9-2.52,15.461,15.461,0,0,1,7.452,1.728,12.729,12.729,0,0,1,4.932,4.536v-5.688h12.312V0H227.052V-5.688a13.3,13.3,0,0,1-5,4.536A15.461,15.461,0,0,1,214.6.576a16.336,16.336,0,0,1-8.928-2.556A17.662,17.662,0,0,1,199.3-9.252,24.24,24.24,0,0,1,196.956-20.16Zm30.1.072A10.066,10.066,0,0,0,224.5-27.36a8.3,8.3,0,0,0-6.228-2.664A8.359,8.359,0,0,0,212.04-27.4a9.938,9.938,0,0,0-2.556,7.236,10.2,10.2,0,0,0,2.556,7.308,8.252,8.252,0,0,0,6.228,2.7,8.3,8.3,0,0,0,6.228-2.664A10.066,10.066,0,0,0,227.052-20.088Zm50.04-20.52q7.056,0,11.268,4.572t4.212,12.564V0h-12.24V-21.816a8.817,8.817,0,0,0-2.088-6.264,7.321,7.321,0,0,0-5.616-2.232,7.321,7.321,0,0,0-5.616,2.232,8.817,8.817,0,0,0-2.088,6.264V0H252.612V-40.176h12.312v5.328a12.989,12.989,0,0,1,5.04-4.212A16.023,16.023,0,0,1,277.092-40.608Z" transform="translate(720 461.569)" fill="#333"/>
    <path id="パス_33248" data-name="パス 33248" d="M-31.324.574c7.38,0,11.644-4.469,11.644-9.553,0-4.305-2.255-6.847-6.027-8.364L-29.52-18.86c-2.706-1.066-4.633-1.722-4.633-3.4,0-1.64,1.394-2.542,3.649-2.542a9.922,9.922,0,0,1,6.273,2.337l3.649-4.592A14.2,14.2,0,0,0-30.5-31.078c-6.478,0-11.07,4.1-11.07,9.225,0,4.428,2.993,7.093,6.191,8.364l3.9,1.64c2.624,1.107,4.305,1.681,4.305,3.444,0,1.64-1.271,2.665-3.977,2.665a12.334,12.334,0,0,1-7.421-3.116l-4.141,5.043A17.071,17.071,0,0,0-31.324.574ZM-12.136,0h6.97V-10.127c0-3.69-.615-7.872-.943-11.275h.2l2.993,6.683L4.633,0h7.462V-30.5H5.125v10.086A96.171,96.171,0,0,0,6.109-9.143H5.9L2.911-15.908-4.674-30.5h-7.462ZM31.119.574C38.5.574,42.763-3.9,42.763-8.979c0-4.305-2.255-6.847-6.027-8.364L32.923-18.86c-2.706-1.066-4.633-1.722-4.633-3.4,0-1.64,1.394-2.542,3.649-2.542a9.922,9.922,0,0,1,6.273,2.337l3.649-4.592a14.2,14.2,0,0,0-9.922-4.018c-6.478,0-11.07,4.1-11.07,9.225,0,4.428,2.993,7.093,6.191,8.364l3.9,1.64c2.624,1.107,4.305,1.681,4.305,3.444,0,1.64-1.271,2.665-3.977,2.665a12.334,12.334,0,0,1-7.421-3.116L19.721-3.813A17.071,17.071,0,0,0,31.119.574Z" transform="translate(873.385 363.569)" fill="#333"/>
    <path id="パス_33245" data-name="パス 33245" d="M23.04-5.364c-.036-1.584-.108-4-.144-5.94,1.872-.828,3.6-1.512,4.968-2.016,1.368-.54,3.6-1.368,4.86-1.728L30.6-20.016c-1.512.72-2.988,1.4-4.536,2.088-1.26.576-2.412,1.044-3.852,1.728a5.186,5.186,0,0,0-4.752-2.52,17.165,17.165,0,0,0-3.528.36A20.331,20.331,0,0,0,15.3-20.88c3.816-.144,8.172-.468,11.52-.9l.036-5a81.87,81.87,0,0,1-9.612,1.008,31.286,31.286,0,0,0,.792-3.24l-5.688-.468a20.786,20.786,0,0,1-.612,3.888h-1.4a46.336,46.336,0,0,1-6.408-.432v5c1.872.18,4.464.252,5.94.252a32.779,32.779,0,0,1-7.632,9.18L6.84-8.136a43.331,43.331,0,0,1,3.312-4.032,8.559,8.559,0,0,1,5.256-2.376,2.678,2.678,0,0,1,1.944.72c-3.96,2.088-8.208,5.076-8.208,9.72,0,4.752,4.212,6.264,10.08,6.264a95.936,95.936,0,0,0,10.3-.612l.18-5.58A53.126,53.126,0,0,1,19.332-2.916c-3.348,0-4.464-.612-4.464-2.124,0-1.44.972-2.592,3.2-3.888-.036,1.332-.108,2.664-.18,3.564ZM44.46-14l.216-2.376H51.3V-28.8H40.068v4.608h6.264v3.168H40.464c-.18,4.14-.648,9.288-1.152,12.636l4.5.684q.108-.864.216-1.836h2.3c-.252,4.86-.54,6.984-1.08,7.524a1.469,1.469,0,0,1-1.26.468c-.72,0-2.088,0-3.528-.144A12.457,12.457,0,0,1,42.048,3.42,25.465,25.465,0,0,0,46.4,3.24a4.128,4.128,0,0,0,2.952-1.692C50.436.216,50.832-3.564,51.192-12.1c.036-.612.072-1.908.072-1.908Zm12.564,2.916v-2.3h2.268v2.3Zm9.648-2.3v2.3H64.3v-2.3ZM73.728,1.62a31.457,31.457,0,0,0-4.5-8.5L64.98-5.112q.54.81,1.08,1.728L64.3-3.276v-3.6H71.64V-17.64H64.3V-20.3l3.636-.324A11.743,11.743,0,0,1,68.8-18.54l4.752-2.124a31.287,31.287,0,0,0-5.076-7.956L64.08-26.712c.432.54.864,1.152,1.3,1.764L60.3-24.66c1.008-1.512,2.016-3.2,2.952-4.9L57.6-30.816a41.448,41.448,0,0,1-2.88,6.408l-3.168.144.648,4.9c2.088-.144,4.5-.324,7.092-.54v2.268H52.308V-6.876h6.984v3.924c-3.06.216-5.9.36-8.208.468l.612,5.04c4.572-.324,10.728-.792,16.668-1.332a17.324,17.324,0,0,1,.756,2.34Zm12.24-31.968a37.912,37.912,0,0,1-9.54,13.788,38.632,38.632,0,0,1,2.988,5.616,34.893,34.893,0,0,0,2.916-3.1V3.348h5.256V-21.528a59.4,59.4,0,0,0,3.564-7.092ZM100.44-1.8c-1.62,0-1.8-.288-1.8-2.52v-8.316a89.822,89.822,0,0,0,12.024-6.516l-3.852-4.608a67.314,67.314,0,0,1-8.172,5.724V-29.808H93.348V-4.356c0,5.724,1.4,7.416,6.372,7.416h5.508c4.536,0,5.9-2.448,6.48-8.856a15.373,15.373,0,0,1-4.824-2.2c-.288,5-.576,6.192-2.2,6.192Zm29.016-9.972a2.175,2.175,0,0,1,2.268-2.3,2.325,2.325,0,0,1,1.944.936c.4,2.736-.792,3.564-1.944,3.564A2.265,2.265,0,0,1,129.456-11.772ZM148.14-25.308c-1.872-.036-6.66.036-9.972.036v-.4c.036-.648.18-2.844.288-3.528h-6.228c.144.684.288,2.2.4,3.564l.036.4c-4.608.072-10.908.216-15.048.18l.144,5.184c4.356-.216,9.612-.432,14.976-.5l.036,1.8a7.229,7.229,0,0,0-.9-.036c-4.14,0-7.6,2.628-7.6,6.948a6.609,6.609,0,0,0,6.336,6.84,3.913,3.913,0,0,0,.648-.036c-2.088,1.656-5.076,2.52-8.172,3.132l4.572,4.608c8.928-2.412,11.88-8.6,11.88-13.176a9.349,9.349,0,0,0-1.4-5.148c0-1.476,0-3.276-.036-4.968,4.5.036,7.848.108,9.972.216ZM170.172-2.736c-1.8,0-2.988-.792-2.988-1.908,0-.72.684-1.4,1.836-1.4,1.512,0,2.592,1.26,2.772,3.24C171.288-2.772,170.748-2.736,170.172-2.736Zm8.1-25.6a18.974,18.974,0,0,1-3.168.432c-2.124.18-9.252.288-11.16.288a29.9,29.9,0,0,1-3.636-.216l.18,5.58c.864-.144,2.124-.252,3.2-.324,1.908-.144,5.58-.288,7.38-.324-1.728,1.548-5.04,4.1-7.02,5.76-2.124,1.728-6.264,5.256-8.568,7.056l3.924,4.068c3.42-4.176,7.164-7.308,12.384-7.308,3.924,0,7.056,1.908,7.056,4.968a4.732,4.732,0,0,1-2.088,4.1c-.612-3.384-3.42-5.9-7.776-5.9-4.032,0-6.912,2.916-6.912,6.048,0,3.924,4.176,6.264,9.216,6.264,9.216,0,13.248-4.86,13.248-10.44,0-5.364-4.824-9.288-10.944-9.288a12,12,0,0,0-2.484.216c1.944-1.512,5.076-4.068,7.092-5.436.9-.612,1.8-1.152,2.736-1.728Zm24.552,5.22c-.288,1.08-.72,2.34-1.08,3.276l2.16.432h-6.156l1.584-.432a13.25,13.25,0,0,0-.972-3.276ZM208.08-5.076c-.756-.576-3.492-2.664-4.788-3.492V-8.6H208.8V-12.96h-5.508v-2.2h5.868V-19.4h-3.1c.432-.9.9-2.088,1.512-3.42l-1.548-.288h2.916v-4.212h-5.652v-3.06h-5.076v3.06h-5.652v4.212h3.492l-1.908.468a14.978,14.978,0,0,1,.9,3.24h-2.916v4.248h6.084v2.2H192.24V-8.6h5a22.239,22.239,0,0,1-6.12,6.3A22.028,22.028,0,0,1,194.508,1.4a23.514,23.514,0,0,0,3.708-4V3.384h5.076v-6.8c.684.756,1.332,1.476,1.8,2.052Zm6.984-18.216a54.686,54.686,0,0,0,10.8-3.348l-4.176-3.78a41.186,41.186,0,0,1-8.748,3.2l-2.844-.792v12.564c0,4.86-.36,10.98-4.284,15.336a11.809,11.809,0,0,1,3.744,3.564c4.464-4.788,5.4-12.312,5.508-17.64h2.664V3.24H222.8V-14.184h3.06v-4.824h-10.8ZM249.7-12.6v-4.644H253.4V-12.6Zm9,6.192V-17.244h5.256v-5.04H258.7V-30.06H253.4v7.776H249.7v-8.1H244.4v8.1h-3.888v-7.344h-5.4v7.344h-5.04v5.04h5.04V3.42h5.4V1.332h22.14v-5.04h-22.14V-17.244H244.4V-6.408H249.7V-7.74H253.4v1.332Zm42.912-18.54a28.192,28.192,0,0,0-4.716-5.832l-3.96,2.412a28.087,28.087,0,0,1,4.428,6.084Zm-24.84-5.58a37.913,37.913,0,0,1-9.54,13.788,37.588,37.588,0,0,1,2.88,5.4,40.692,40.692,0,0,0,3.132-3.348V3.348h5.436V-22.644a55.622,55.622,0,0,0,3.1-6.228Zm25.308,13.752-.72-4.968-10.008,1.368c-.216-3.024-.324-6.336-.36-9.828H285.66c.108,3.816.252,7.344.5,10.548l-6.48.9.756,5.04,6.192-.864c1.3,10.872,4.1,17.244,10.332,17.892,2.088.144,4.32-1.4,5.328-8.82a20.009,20.009,0,0,1-4.284-3.024c-.216,3.852-.576,5.544-1.3,5.472-2.376-.4-4-5.112-4.86-12.276Z" transform="translate(523 361.699)" fill="#333"/>
    <path id="パス_29298" data-name="パス 29298" d="M-249.734-75.769l6.762,16.905c11.834-5.27,34.307-14.618,48.03-14.618,11.137,0,16.905,6.464,16.905,15.215,0,15.712-19.988,23.369-47.434,23.965l7.06,16.01c37.489-1.79,57.676-17.9,57.676-39.677,0-19.391-14.717-30.131-33.512-30.131-14.618,0-35.3,7.06-42.462,9.248C-240.287-77.858-246.055-76.366-249.734-75.769Zm149.162-24.761-16.507-1.591a79.2,79.2,0,0,1-2.486,16.209q-3.878.3-7.756.3c-3.282,0-9.248-.2-13.822-.7l1.094,13.922c4.574.3,8.651.4,12.828.4,1.094,0,2.088,0,3.182-.1-4.375,10.342-11.933,24.264-19.689,34.009l14.518,7.359c8.055-11.436,16.408-28.838,21.082-42.859a135.688,135.688,0,0,0,16.905-3.381l-.4-13.822C-95-89.791-99.18-88.8-103.853-87.9-102.461-92.873-101.268-97.448-100.572-100.53Zm-4.972,68.714c0-2.884,3.083-4.873,7.955-4.873a37.09,37.09,0,0,1,6.762.7v.5c0,5.569-1.79,9.049-7.756,9.049C-102.759-26.446-105.544-28.634-105.544-31.816ZM-77.3-69.405H-92.418c.3,5.569.7,13.822,1.094,20.883a45.523,45.523,0,0,0-5.27-.3c-15.314,0-23.17,8.552-23.17,18.5,0,11.535,10.242,17.7,23.369,17.7,14.717,0,19.888-7.16,20.187-16.706A106.18,106.18,0,0,1-64.176-19.187l7.955-12.927A64.755,64.755,0,0,0-76.805-45.042c-.2-4.177-.4-8.055-.5-10.441C-77.4-60.356-77.6-65.129-77.3-69.405Zm15.513,6.762,8.552-12.729A201.235,201.235,0,0,0-78.6-89l-7.756,11.933C-79.391-73.979-67.756-67.317-61.79-62.643Zm65.532-35.3-17.9-1.889a100.663,100.663,0,0,1-1.889,20.783c-4.475.3-8.552.6-11.436.7a113.508,113.508,0,0,1-11.635,0l1.392,16.209c3.282-.6,9.049-1.392,12.231-1.889,1.392-.2,3.58-.5,6.165-.895-3.679,13.623-10.143,32.517-19.59,45.246l15.712,6.265C-14.754-27.043-7.3-51.108-3.318-66.621q2.983-.3,4.773-.3c6.165,0,9.149.895,9.149,8.154,0,9.248-1.193,20.883-3.679,25.855-1.293,2.685-3.58,3.779-6.762,3.779A64.675,64.675,0,0,1-11.969-31.22l2.585,15.811A60.443,60.443,0,0,0,2.748-14.016c8.055,0,13.922-2.486,17.3-9.646,4.276-8.751,5.569-25.059,5.569-36.694,0-14.916-7.558-20.286-18.993-20.286-1.79,0-4.077.1-6.762.3.6-2.585,1.193-5.37,1.79-8.055C2.251-91.183,3.046-94.962,3.742-97.945ZM46.8-106.994l-9.347,3.779a110.923,110.923,0,0,1,7.856,13.723l9.347-3.978A141.929,141.929,0,0,0,46.8-106.994Zm-12.231,4.773-9.348,3.779A95.187,95.187,0,0,1,31.984-86.31l-8.453,3.58c7.16,9.149,13.822,26.75,16.209,38.285l15.413-7.06c-2.685-9.149-10.143-26.352-16.11-35.7L42.326-88.6C40.536-92.078,37.055-98.541,34.569-102.221Zm64.836,1.79L83-101.127a110.569,110.569,0,0,1-.8,11.436,240.665,240.665,0,0,0-2.585,31.722,117.468,117.468,0,0,0,1.293,17l14.817-.994a83.483,83.483,0,0,1-.6-9.546c0-13.126,9.646-30.529,20.982-30.529,7.06,0,12.132,6.961,12.132,22.076,0,23.568-14.817,30.031-37.191,33.512L100.2-12.425c27.346-5.072,44.45-19.093,44.45-47.533,0-22.474-11.436-36.2-25.656-36.2-10.342,0-18.1,6.165-23.269,12.43A146.088,146.088,0,0,1,99.405-100.431Z" transform="translate(772.734 319.994)" fill="url(#linear-gradient)"/>
  </g>
</svg>
