<svg xmlns="http://www.w3.org/2000/svg" xmlns:xlink="http://www.w3.org/1999/xlink" width="316" height="192.277" viewBox="0 0 316 192.277">
  <defs>
    <linearGradient id="linear-gradient" y1="0.5" x2="1" y2="0.5" gradientUnits="objectBoundingBox">
      <stop offset="0" stop-color="gold"/>
      <stop offset="0.091" stop-color="#ffd208"/>
      <stop offset="0.182" stop-color="#ffc322"/>
      <stop offset="0.273" stop-color="#ffac42"/>
      <stop offset="0.364" stop-color="#ff906a"/>
      <stop offset="0.455" stop-color="#ff7a96"/>
      <stop offset="0.545" stop-color="#ff74c2"/>
      <stop offset="0.636" stop-color="#f87de5"/>
      <stop offset="0.727" stop-color="#c489fa"/>
      <stop offset="0.818" stop-color="#8f91ff"/>
      <stop offset="0.909" stop-color="#6395ff"/>
      <stop offset="1" stop-color="#5096ff"/>
    </linearGradient>
  </defs>
  <g id="グループ_6393" data-name="グループ 6393" transform="translate(-38 -106.292)">
    <g id="グループ_5975" data-name="グループ 5975" transform="translate(-485 -203.431)">
      <text id="という選択" transform="translate(770 498)" fill="#888" font-size="13" font-family="NotoSansJP-Black, Noto Sans JP" font-weight="800" letter-spacing="0.06em"><tspan x="0" y="0">という選択</tspan></text>
      <path id="パス_29729" data-name="パス 29729" d="M-73.822-17.4q-.41.146-.747.305a2.961,2.961,0,0,0-.6.369,2.248,2.248,0,0,0-.451.492,2.493,2.493,0,0,0-.31.665q.173-.046.333-.073a2.023,2.023,0,0,1,.342-.027,2.182,2.182,0,0,1,.72.114,1.876,1.876,0,0,1,.579.319,1.651,1.651,0,0,1,.41.5,2.012,2.012,0,0,1,.214.661,5.164,5.164,0,0,1,.2-1.367,3.775,3.775,0,0,1,.615-1.23,4.268,4.268,0,0,1,1.1-1.007,5.618,5.618,0,0,1,1.663-.7v.975q-.41.146-.747.305a3.087,3.087,0,0,0-.6.369,2.108,2.108,0,0,0-.451.492,2.585,2.585,0,0,0-.305.665,3.278,3.278,0,0,1,.323-.073,2.023,2.023,0,0,1,.342-.027,2.166,2.166,0,0,1,.784.137,1.811,1.811,0,0,1,.615.387,1.713,1.713,0,0,1,.4.6,2.068,2.068,0,0,1,.141.779,2.382,2.382,0,0,1-.137.816,1.889,1.889,0,0,1-.4.656,1.8,1.8,0,0,1-.629.433,2.136,2.136,0,0,1-.834.155,2.089,2.089,0,0,1-.77-.141,1.937,1.937,0,0,1-.633-.4,2.052,2.052,0,0,1-.446-.633,2.565,2.565,0,0,1-.219-.829,2.314,2.314,0,0,1-.15.793,1.876,1.876,0,0,1-.4.633,1.877,1.877,0,0,1-.624.424,2.078,2.078,0,0,1-.82.155,2.083,2.083,0,0,1-.829-.164,1.964,1.964,0,0,1-.665-.465,2.149,2.149,0,0,1-.442-.724A2.66,2.66,0,0,1-77.4-14a5.214,5.214,0,0,1,.187-1.39,3.784,3.784,0,0,1,.611-1.253A4.23,4.23,0,0,1-75.5-17.668a5.76,5.76,0,0,1,1.677-.711Zm15.718,5.43v-.616h1.344v.616Zm0-2.911h1.344v.6H-58.1Zm5.337,0v.6H-54.13v-.6Zm0,2.911H-54.13v-.616h1.362Zm-3.994,6.065h2.631v-1.53h4.889V-9.622H-54.13v-.523h3.956v-6.569H-54.13V-17.2h4.684v-2.165H-54.13V-20.52h-2.631v1.157h-4.46V-17.2h4.46v.485h-3.807v6.569h3.807v.523h-4.665v2.183h4.665Zm-4.684-11.216a16.5,16.5,0,0,0-2.911-2.911l-2.071,1.53a15.65,15.65,0,0,1,2.743,3.1Zm-.448,3.826h-4.535v2.5h1.941V-7.14c-.728.541-1.493,1.064-2.183,1.474l1.25,2.706c.952-.8,1.68-1.456,2.389-2.146,1.1,1.418,2.5,1.9,4.609,2,2.389.112,6.364.075,8.808-.056a12.412,12.412,0,0,1,.84-2.631,89.021,89.021,0,0,1-9.611.187c-1.754-.075-2.893-.56-3.508-1.717Zm30.213-6.868a19.976,19.976,0,0,1-1.194,3.117l2.165.8c.448-.765,1.008-1.9,1.549-3.042Zm-4.18,3.042a13.954,13.954,0,0,0-1.418-3l-2.127.84a13.888,13.888,0,0,1,1.288,3.1ZM-46.273-9.379a18.61,18.61,0,0,1,.523,3.135l1.773-.485a21.37,21.37,0,0,0-.616-3.079Zm13.754-4.162h-3.62v-.6h3.62Zm0,2.407h-3.62v-.6h3.62Zm0,2.389h-3.62v-.6h3.62Zm-11.626-7.11A17.272,17.272,0,0,0-42.653-18a16.875,16.875,0,0,1,1.773,2.146Zm14.2,9.051V-16.06h-3.191v-4.46h-2.482v4.46h-2.967V-6.8h1.624a14.379,14.379,0,0,1-2.2,1.642l-.131-1.549c-.784.131-1.586.28-2.37.411v-.765l1.568.411c.243-.728.541-1.81.877-2.837l-1.9-.448a20.1,20.1,0,0,1-.541,2.725v-3.117h2.146v-2.277h-2.146v-1.008h1.9v-2.239h-.28l1.25-1.512a19.209,19.209,0,0,0-3.135-3.154H-44.09a11.305,11.305,0,0,1-3.1,4.4,7.679,7.679,0,0,1,1.6,1.773l.093-.093v.821h1.512v1.008h-2.351v2.277h2.351v4.423c-.952.149-1.848.28-2.575.373l.5,2.445c1.736-.336,3.919-.765,6.028-1.194a15.454,15.454,0,0,1,1.344,1.53,16.931,16.931,0,0,0,4.124-2.855L-36.233-6.8h3.844l-1.6,1.157A21.15,21.15,0,0,1-31.176-2.81l2.314-1.344A24.6,24.6,0,0,0-31.829-6.8ZM-10.386-20.24h-2.575V-12.5c0,.243-.093.3-.355.3-.261.019-1.176.019-1.9-.019a9.355,9.355,0,0,1,.8,2.37,7.437,7.437,0,0,0,3.042-.411c.784-.392.989-1.008.989-2.183Zm-3.49.8h-2.463v6.382h2.463Zm-8.249,3.508v-1.624h1.157v1.624Zm5.281,10.059V-6.878h5.263V-9.323h-5.263v-1.138h-1.6v-3.1h1.53v-2.37h-1.53v-1.624h1.1V-19.9h-8.584v2.351h1.325v1.624h-1.978v2.37h1.642a3.979,3.979,0,0,1-2.165,2.015,11.183,11.183,0,0,1,1.754,1.885,5.459,5.459,0,0,0,3.023-3.9h1.362v3.378h1.325v.858h-5.132v2.445h5.132v1.008h-7v2.5H-9.752v-2.5ZM-1.8-4.3c3.359,0,5.3-2.034,5.3-4.348A3.838,3.838,0,0,0,.755-12.458l-1.736-.69c-1.232-.485-2.09-.784-2.09-1.568,0-.728.616-1.138,1.642-1.138a4.516,4.516,0,0,1,2.855,1.064l1.661-2.09A6.461,6.461,0,0,0-1.429-18.71c-2.949,0-5.039,1.866-5.039,4.2A4.066,4.066,0,0,0-3.649-10.7l1.773.746c1.194.5,1.959.765,1.959,1.568,0,.746-.579,1.213-1.81,1.213A5.521,5.521,0,0,1-5.086-8.6l-1.9,2.3A7.77,7.77,0,0,0-1.8-4.3Zm8.734-.261H10.1V-9.174c0-1.68-.28-3.583-.429-5.132h.093l1.362,3.042,3.434,6.7h3.4v-13.9H14.788v4.609a48.2,48.2,0,0,0,.448,5.132h-.093L13.781-11.8l-3.452-6.662h-3.4ZM26.62-4.3c3.359,0,5.3-2.034,5.3-4.348a3.838,3.838,0,0,0-2.743-3.807l-1.736-.69c-1.232-.485-2.09-.784-2.09-1.568,0-.728.616-1.138,1.642-1.138a4.516,4.516,0,0,1,2.855,1.064l1.661-2.09a6.461,6.461,0,0,0-4.516-1.829c-2.949,0-5.039,1.866-5.039,4.2A4.066,4.066,0,0,0,24.772-10.7l1.773.746c1.194.5,1.959.765,1.959,1.568,0,.746-.579,1.213-1.81,1.213A5.521,5.521,0,0,1,23.335-8.6l-1.9,2.3A7.77,7.77,0,0,0,26.62-4.3Zm12.4-8.38q.41-.146.747-.305a2.962,2.962,0,0,0,.6-.369,2.248,2.248,0,0,0,.451-.492,2.494,2.494,0,0,0,.31-.665q-.173.046-.333.073a2.023,2.023,0,0,1-.342.027,2.182,2.182,0,0,1-.72-.114,1.876,1.876,0,0,1-.579-.319,1.67,1.67,0,0,1-.41-.5A1.963,1.963,0,0,1,38.523-16a5.113,5.113,0,0,1-.2,1.362,3.835,3.835,0,0,1-.615,1.23,4.164,4.164,0,0,1-1.1,1.007,5.7,5.7,0,0,1-1.663.693v-.975q.41-.146.747-.305a3.087,3.087,0,0,0,.6-.369,2.108,2.108,0,0,0,.451-.492,2.586,2.586,0,0,0,.305-.665,3.279,3.279,0,0,1-.323.073,2.023,2.023,0,0,1-.342.027,2.166,2.166,0,0,1-.784-.137,1.81,1.81,0,0,1-.615-.387,1.713,1.713,0,0,1-.4-.6,2.069,2.069,0,0,1-.141-.779,2.381,2.381,0,0,1,.137-.816,1.889,1.889,0,0,1,.4-.656,1.8,1.8,0,0,1,.629-.433,2.136,2.136,0,0,1,.834-.155,2.089,2.089,0,0,1,.77.141,1.937,1.937,0,0,1,.633.4,2.052,2.052,0,0,1,.446.633,2.565,2.565,0,0,1,.219.829,2.314,2.314,0,0,1,.15-.793,1.876,1.876,0,0,1,.4-.633,1.878,1.878,0,0,1,.624-.424,2.078,2.078,0,0,1,.82-.155,2.082,2.082,0,0,1,.829.164A1.964,1.964,0,0,1,42-17.75a2.149,2.149,0,0,1,.442.724,2.66,2.66,0,0,1,.159.943,5.214,5.214,0,0,1-.187,1.39,3.784,3.784,0,0,1-.611,1.253,4.3,4.3,0,0,1-1.107,1.025,5.521,5.521,0,0,1-1.677.706Z" transform="translate(725.403 503.52)" fill="url(#linear-gradient)"/>
      <text id="自らの攻めが生きる" transform="translate(523 498)" fill="#888" font-size="13" font-family="NotoSansJP-Black, Noto Sans JP" font-weight="800" letter-spacing="0.06em"><tspan x="0" y="0">自らの攻めが生きる</tspan></text>
    </g>
    <text id="Bolide_s_Japan" data-name="Bolide&apos;s Japan" transform="translate(195 260.67)" fill="#333" font-size="32" font-family="Poppins-Bold, Poppins" font-weight="700" letter-spacing="0.06em"><tspan x="-131.856" y="0">Bolide&apos;s Japan</tspan></text>
    <g id="グループ_6076" data-name="グループ 6076" transform="translate(48 -65.33)">
      <text id="SNS" transform="translate(241 266.569)" fill="#333" font-size="30" font-family="NotoSansJP-Black, Noto Sans JP" font-weight="800" letter-spacing="0.06em"><tspan x="-32.43" y="0">SNS</tspan></text>
      <text id="を強化する新世代" transform="translate(21 263.699)" fill="#333" font-size="22" font-family="NotoSansJP-Black, Noto Sans JP" font-weight="800" letter-spacing="0.06em"><tspan x="0" y="0">を強化する新世代</tspan></text>
    </g>
    <path id="パス_29298" data-name="パス 29298" d="M-249.734-87.2l4.286,10.716c7.5-3.341,21.747-9.266,30.446-9.266,7.06,0,10.716,4.1,10.716,9.644,0,9.96-12.67,14.813-30.068,15.192l4.476,10.149c23.765-1.135,36.561-11.346,36.561-25.151,0-12.292-9.329-19.1-21.243-19.1-9.266,0-22.378,4.476-26.916,5.862C-243.746-88.525-247.4-87.579-249.734-87.2Zm94.554-15.7-10.464-1.009A50.2,50.2,0,0,1-167.22-93.63q-2.458.189-4.917.189c-2.08,0-5.862-.126-8.762-.441l.693,8.825c2.9.189,5.484.252,8.132.252.693,0,1.324,0,2.017-.063A101.513,101.513,0,0,1-182.538-63.31l9.2,4.665c5.106-7.249,10.4-18.28,13.364-27.168a86.015,86.015,0,0,0,10.716-2.143l-.252-8.762c-2.143.63-4.791,1.261-7.753,1.828C-156.378-98.043-155.622-100.943-155.18-102.9Zm-3.152,43.558c0-1.828,1.954-3.089,5.043-3.089a23.511,23.511,0,0,1,4.286.441v.315c0,3.53-1.135,5.736-4.917,5.736C-156.567-55.935-158.332-57.322-158.332-59.339Zm17.9-23.828h-9.581c.189,3.53.441,8.762.693,13.238a28.856,28.856,0,0,0-3.341-.189c-9.708,0-14.687,5.421-14.687,11.725,0,7.312,6.493,11.22,14.813,11.22,9.329,0,12.607-4.539,12.8-10.59a67.312,67.312,0,0,1,7.627,6.43l5.043-8.195a41.048,41.048,0,0,0-13.048-8.195c-.126-2.648-.252-5.106-.315-6.619C-140.493-77.43-140.619-80.456-140.43-83.166Zm9.834,4.286,5.421-8.069a127.57,127.57,0,0,0-16.074-8.636l-4.917,7.564A91.612,91.612,0,0,1-130.6-78.88Zm41.541-22.378-11.346-1.2a63.808,63.808,0,0,1-1.2,13.174c-2.837.189-5.421.378-7.249.441a71.935,71.935,0,0,1-7.375,0l.882,10.275c2.08-.378,5.736-.883,7.753-1.2.883-.126,2.269-.315,3.908-.567-2.332,8.636-6.43,20.613-12.418,28.681l9.96,3.971c5.358-8.636,10.086-23.891,12.607-33.724q1.891-.189,3.026-.189c3.908,0,5.8.567,5.8,5.169,0,5.862-.756,13.238-2.332,16.389a4.267,4.267,0,0,1-4.286,2.4,41,41,0,0,1-7.69-1.324l1.639,10.023a38.315,38.315,0,0,0,7.69.883c5.106,0,8.825-1.576,10.968-6.114,2.711-5.547,3.53-15.885,3.53-23.26,0-9.455-4.791-12.859-12.04-12.859-1.135,0-2.584.063-4.286.189.378-1.639.756-3.4,1.135-5.106C-90-96.971-89.5-99.367-89.056-101.258Zm27.295-5.736-5.925,2.4a70.317,70.317,0,0,1,4.98,8.7l5.925-2.521A89.965,89.965,0,0,0-61.761-106.994Zm-7.753,3.026-5.925,2.4a60.342,60.342,0,0,1,4.286,7.69l-5.358,2.269c4.539,5.8,8.762,16.957,10.275,24.269l9.771-4.476A111.66,111.66,0,0,0-66.678-94.45l2.08-.883C-65.732-97.539-67.939-101.636-69.515-103.968Zm41.1,1.135-10.4-.441a70.091,70.091,0,0,1-.5,7.249,152.556,152.556,0,0,0-1.639,20.108,74.464,74.464,0,0,0,.819,10.779l9.392-.63a52.92,52.92,0,0,1-.378-6.051c0-8.321,6.114-19.352,13.3-19.352,4.476,0,7.69,4.413,7.69,13.994,0,14.939-9.392,19.037-23.575,21.243l5.8,8.888C-10.576-50.262.266-59.15.266-77.178c0-14.246-7.249-22.945-16.263-22.945-6.556,0-11.473,3.908-14.75,7.879A92.6,92.6,0,0,1-28.415-102.834Z" transform="translate(319.734 213.286)" fill="url(#linear-gradient)"/>
  </g>
</svg>
