<svg xmlns="http://www.w3.org/2000/svg" xmlns:xlink="http://www.w3.org/1999/xlink" width="313.3" height="191.043" viewBox="0 0 313.3 191.043">
  <defs>
    <linearGradient id="linear-gradient" y1="0.5" x2="1" y2="0.5" gradientUnits="objectBoundingBox">
      <stop offset="0" stop-color="gold"/>
      <stop offset="0.091" stop-color="#ffd208"/>
      <stop offset="0.182" stop-color="#ffc322"/>
      <stop offset="0.273" stop-color="#ffac42"/>
      <stop offset="0.364" stop-color="#ff906a"/>
      <stop offset="0.455" stop-color="#ff7a96"/>
      <stop offset="0.545" stop-color="#ff74c2"/>
      <stop offset="0.636" stop-color="#f87de5"/>
      <stop offset="0.727" stop-color="#c489fa"/>
      <stop offset="0.818" stop-color="#8f91ff"/>
      <stop offset="0.909" stop-color="#6395ff"/>
      <stop offset="1" stop-color="#5096ff"/>
    </linearGradient>
  </defs>
  <g id="グループ_6542" data-name="グループ 6542" transform="translate(-39.729 -106.292)">
    <path id="パス_33248" data-name="パス 33248" d="M9.594-9.282a9.206,9.206,0,0,1-1.339.871c-.559.325-1.534.832-2.483,1.378a27.02,27.02,0,0,1-1.547-3.432l-1.963.793C2.834-8.32,3.432-7.007,4.03-5.9A4.34,4.34,0,0,0,1.937-2.483C1.937-.1,3.978.611,6.63.611A24.484,24.484,0,0,0,10.8.286l.026-2.249a22.077,22.077,0,0,1-4.251.494c-1.651,0-2.47-.4-2.47-1.248S4.823-4.251,5.824-4.9A34.766,34.766,0,0,1,9.23-6.7c.52-.26.988-.507,1.443-.78Zm7.852-.1-2.392-.026a7.625,7.625,0,0,1,.117,1.391c0,.819.013,2.288.143,3.51C15.678-.988,16.939.312,18.46.312c1.131,0,1.95-.806,2.847-3.081L19.734-4.693C19.552-3.822,19.1-2.21,18.5-2.21c-.741,0-1-1.183-1.157-2.873-.078-.858-.078-1.7-.078-2.548A12.011,12.011,0,0,1,17.446-9.386Zm6.292.247-1.989.65c1.508,1.638,2.132,4.927,2.314,6.864l2.067-.793A14.174,14.174,0,0,0,23.738-9.139Zm12.441,4.9c0,1.859-1.963,2.795-5.2,3.146L32.1.858C35.815.377,38.4-1.417,38.4-4.16c0-2.106-1.469-3.341-3.627-3.341a18.411,18.411,0,0,0-3.926.559,13.778,13.778,0,0,1-1.521.234L29.9-4.5c.4-.143.975-.377,1.339-.481A11.066,11.066,0,0,1,34.5-5.6C35.646-5.6,36.179-4.953,36.179-4.238Zm-4.862-6.4-.3,1.872c1.5.26,4.407.507,5.954.611l.312-1.911A38.542,38.542,0,0,1,31.317-10.634ZM51.48-7.709c-.286,0-.338-.039-.338-.338v-.039h1.443c-.052.312-.117.377-.338.377Zm.286-1.547H49.608v1.222c0,1.2.351,1.547,1.625,1.547h1.209c.871,0,1.274-.26,1.43-1.17a4.236,4.236,0,0,1-1.222-.429h.715v-2.691H49.374V-9.62h2.392ZM47.2-7.709c-.286,0-.338-.039-.338-.338v-.039h1.443c-.052.312-.117.377-.338.377Zm.26-1.547H45.331v1.222c0,1.2.351,1.547,1.625,1.547h1.209c.871,0,1.274-.26,1.43-1.17a4.236,4.236,0,0,1-1.222-.429h.663v-2.691H45.162V-9.62h2.3Zm-2.639.572a10.134,10.134,0,0,0-1.742-2.132l-1.495.936a10.1,10.1,0,0,1,1.625,2.249Zm3.3,6.162h2.587l-.962.533A14.281,14.281,0,0,1,51.883-.676c-1.69.052-3.523.052-4.654,0l-.494-.039a8.863,8.863,0,0,0,2.444-1.443ZM48.8-4.55h1.157v.663H48.8ZM53.911-1.3a23.09,23.09,0,0,0-2.275-1.222h2.2V-3.887h-2.08V-4.55H53.43V-5.889H51.753v-.559H49.959v.559H48.8v-.559H47.034v.559H45.409V-4.55h1.625v.663H45.045v1.365H47.2a9.369,9.369,0,0,1-2.093.78,11.813,11.813,0,0,1,1.183.949A2.236,2.236,0,0,1,44.72-1.911V-6.084H41.756v1.742h1.209v2.587C42.5-1.365,41.99-1,41.548-.7l.871,1.807C43.03.533,43.511.065,43.966-.429A3.859,3.859,0,0,0,47.229.988c1.716.078,4.628.052,6.383-.039a8.673,8.673,0,0,1,.559-1.755c-.585.052-1.287.091-2.028.117Zm6.5-4.225-1.417.26v-1.69H60.45V-8.7H58.994v-2.418H57.187V-8.7h-1.6v1.742h1.6v1.989c-.676.117-1.3.208-1.82.286l.39,1.807,1.43-.26V-.767c0,.2-.065.26-.26.273s-.806,0-1.326-.026a6.742,6.742,0,0,1,.52,1.729,4.628,4.628,0,0,0,2.21-.338c.507-.286.663-.741.663-1.625v-2.73c.533-.1,1.053-.208,1.573-.312ZM65.52-8.632v2.314H62.79V-8.632Zm1.9,4.082v-5.863H60.892V-5.98c0,1.885-.117,4.329-1.664,5.928a7.32,7.32,0,0,1,1.469,1.3c1.43-1.456,1.911-3.8,2.041-5.8h.689c.507,2.7,1.352,4.732,3.3,5.824a7.011,7.011,0,0,1,1.3-1.664c-1.521-.741-2.314-2.3-2.717-4.16Z" transform="translate(285 294.569)" fill="#888"/>
    <path id="パス_29729" data-name="パス 29729" d="M-73.822-17.4q-.41.146-.747.305a2.961,2.961,0,0,0-.6.369,2.248,2.248,0,0,0-.451.492,2.493,2.493,0,0,0-.31.665q.173-.046.333-.073a2.023,2.023,0,0,1,.342-.027,2.182,2.182,0,0,1,.72.114,1.876,1.876,0,0,1,.579.319,1.651,1.651,0,0,1,.41.5,2.012,2.012,0,0,1,.214.661,5.164,5.164,0,0,1,.2-1.367,3.775,3.775,0,0,1,.615-1.23,4.268,4.268,0,0,1,1.1-1.007,5.618,5.618,0,0,1,1.663-.7v.975q-.41.146-.747.305a3.087,3.087,0,0,0-.6.369,2.108,2.108,0,0,0-.451.492,2.585,2.585,0,0,0-.305.665,3.278,3.278,0,0,1,.323-.073,2.023,2.023,0,0,1,.342-.027,2.166,2.166,0,0,1,.784.137,1.811,1.811,0,0,1,.615.387,1.713,1.713,0,0,1,.4.6,2.068,2.068,0,0,1,.141.779,2.382,2.382,0,0,1-.137.816,1.889,1.889,0,0,1-.4.656,1.8,1.8,0,0,1-.629.433,2.136,2.136,0,0,1-.834.155,2.089,2.089,0,0,1-.77-.141,1.937,1.937,0,0,1-.633-.4,2.052,2.052,0,0,1-.446-.633,2.565,2.565,0,0,1-.219-.829,2.314,2.314,0,0,1-.15.793,1.876,1.876,0,0,1-.4.633,1.877,1.877,0,0,1-.624.424,2.078,2.078,0,0,1-.82.155,2.083,2.083,0,0,1-.829-.164,1.964,1.964,0,0,1-.665-.465,2.149,2.149,0,0,1-.442-.724A2.66,2.66,0,0,1-77.4-14a5.214,5.214,0,0,1,.187-1.39,3.784,3.784,0,0,1,.611-1.253A4.23,4.23,0,0,1-75.5-17.668a5.76,5.76,0,0,1,1.677-.711Zm15.718,5.43v-.616h1.344v.616Zm0-2.911h1.344v.6H-58.1Zm5.337,0v.6H-54.13v-.6Zm0,2.911H-54.13v-.616h1.362Zm-3.994,6.065h2.631v-1.53h4.889V-9.622H-54.13v-.523h3.956v-6.569H-54.13V-17.2h4.684v-2.165H-54.13V-20.52h-2.631v1.157h-4.46V-17.2h4.46v.485h-3.807v6.569h3.807v.523h-4.665v2.183h4.665Zm-4.684-11.216a16.5,16.5,0,0,0-2.911-2.911l-2.071,1.53a15.65,15.65,0,0,1,2.743,3.1Zm-.448,3.826h-4.535v2.5h1.941V-7.14c-.728.541-1.493,1.064-2.183,1.474l1.25,2.706c.952-.8,1.68-1.456,2.389-2.146,1.1,1.418,2.5,1.9,4.609,2,2.389.112,6.364.075,8.808-.056a12.412,12.412,0,0,1,.84-2.631,89.021,89.021,0,0,1-9.611.187c-1.754-.075-2.893-.56-3.508-1.717Zm30.213-6.868a19.976,19.976,0,0,1-1.194,3.117l2.165.8c.448-.765,1.008-1.9,1.549-3.042Zm-4.18,3.042a13.954,13.954,0,0,0-1.418-3l-2.127.84a13.888,13.888,0,0,1,1.288,3.1ZM-46.273-9.379a18.61,18.61,0,0,1,.523,3.135l1.773-.485a21.37,21.37,0,0,0-.616-3.079Zm13.754-4.162h-3.62v-.6h3.62Zm0,2.407h-3.62v-.6h3.62Zm0,2.389h-3.62v-.6h3.62Zm-11.626-7.11A17.272,17.272,0,0,0-42.653-18a16.875,16.875,0,0,1,1.773,2.146Zm14.2,9.051V-16.06h-3.191v-4.46h-2.482v4.46h-2.967V-6.8h1.624a14.379,14.379,0,0,1-2.2,1.642l-.131-1.549c-.784.131-1.586.28-2.37.411v-.765l1.568.411c.243-.728.541-1.81.877-2.837l-1.9-.448a20.1,20.1,0,0,1-.541,2.725v-3.117h2.146v-2.277h-2.146v-1.008h1.9v-2.239h-.28l1.25-1.512a19.209,19.209,0,0,0-3.135-3.154H-44.09a11.305,11.305,0,0,1-3.1,4.4,7.679,7.679,0,0,1,1.6,1.773l.093-.093v.821h1.512v1.008h-2.351v2.277h2.351v4.423c-.952.149-1.848.28-2.575.373l.5,2.445c1.736-.336,3.919-.765,6.028-1.194a15.454,15.454,0,0,1,1.344,1.53,16.931,16.931,0,0,0,4.124-2.855L-36.233-6.8h3.844l-1.6,1.157A21.15,21.15,0,0,1-31.176-2.81l2.314-1.344A24.6,24.6,0,0,0-31.829-6.8ZM-10.386-20.24h-2.575V-12.5c0,.243-.093.3-.355.3-.261.019-1.176.019-1.9-.019a9.355,9.355,0,0,1,.8,2.37,7.437,7.437,0,0,0,3.042-.411c.784-.392.989-1.008.989-2.183Zm-3.49.8h-2.463v6.382h2.463Zm-8.249,3.508v-1.624h1.157v1.624Zm5.281,10.059V-6.878h5.263V-9.323h-5.263v-1.138h-1.6v-3.1h1.53v-2.37h-1.53v-1.624h1.1V-19.9h-8.584v2.351h1.325v1.624h-1.978v2.37h1.642a3.979,3.979,0,0,1-2.165,2.015,11.183,11.183,0,0,1,1.754,1.885,5.459,5.459,0,0,0,3.023-3.9h1.362v3.378h1.325v.858h-5.132v2.445h5.132v1.008h-7v2.5H-9.752v-2.5ZM-1.8-4.3c3.359,0,5.3-2.034,5.3-4.348A3.838,3.838,0,0,0,.755-12.458l-1.736-.69c-1.232-.485-2.09-.784-2.09-1.568,0-.728.616-1.138,1.642-1.138a4.516,4.516,0,0,1,2.855,1.064l1.661-2.09A6.461,6.461,0,0,0-1.429-18.71c-2.949,0-5.039,1.866-5.039,4.2A4.066,4.066,0,0,0-3.649-10.7l1.773.746c1.194.5,1.959.765,1.959,1.568,0,.746-.579,1.213-1.81,1.213A5.521,5.521,0,0,1-5.086-8.6l-1.9,2.3A7.77,7.77,0,0,0-1.8-4.3Zm8.734-.261H10.1V-9.174c0-1.68-.28-3.583-.429-5.132h.093l1.362,3.042,3.434,6.7h3.4v-13.9H14.788v4.609a48.2,48.2,0,0,0,.448,5.132h-.093L13.781-11.8l-3.452-6.662h-3.4ZM26.62-4.3c3.359,0,5.3-2.034,5.3-4.348a3.838,3.838,0,0,0-2.743-3.807l-1.736-.69c-1.232-.485-2.09-.784-2.09-1.568,0-.728.616-1.138,1.642-1.138a4.516,4.516,0,0,1,2.855,1.064l1.661-2.09a6.461,6.461,0,0,0-4.516-1.829c-2.949,0-5.039,1.866-5.039,4.2A4.066,4.066,0,0,0,24.772-10.7l1.773.746c1.194.5,1.959.765,1.959,1.568,0,.746-.579,1.213-1.81,1.213A5.521,5.521,0,0,1,23.335-8.6l-1.9,2.3A7.77,7.77,0,0,0,26.62-4.3Zm12.4-8.38q.41-.146.747-.305a2.962,2.962,0,0,0,.6-.369,2.248,2.248,0,0,0,.451-.492,2.494,2.494,0,0,0,.31-.665q-.173.046-.333.073a2.023,2.023,0,0,1-.342.027,2.182,2.182,0,0,1-.72-.114,1.876,1.876,0,0,1-.579-.319,1.67,1.67,0,0,1-.41-.5A1.963,1.963,0,0,1,38.523-16a5.113,5.113,0,0,1-.2,1.362,3.835,3.835,0,0,1-.615,1.23,4.164,4.164,0,0,1-1.1,1.007,5.7,5.7,0,0,1-1.663.693v-.975q.41-.146.747-.305a3.087,3.087,0,0,0,.6-.369,2.108,2.108,0,0,0,.451-.492,2.586,2.586,0,0,0,.305-.665,3.279,3.279,0,0,1-.323.073,2.023,2.023,0,0,1-.342.027,2.166,2.166,0,0,1-.784-.137,1.81,1.81,0,0,1-.615-.387,1.713,1.713,0,0,1-.4-.6,2.069,2.069,0,0,1-.141-.779,2.381,2.381,0,0,1,.137-.816,1.889,1.889,0,0,1,.4-.656,1.8,1.8,0,0,1,.629-.433,2.136,2.136,0,0,1,.834-.155,2.089,2.089,0,0,1,.77.141,1.937,1.937,0,0,1,.633.4,2.052,2.052,0,0,1,.446.633,2.565,2.565,0,0,1,.219.829,2.314,2.314,0,0,1,.15-.793,1.876,1.876,0,0,1,.4-.633,1.878,1.878,0,0,1,.624-.424,2.078,2.078,0,0,1,.82-.155,2.082,2.082,0,0,1,.829.164A1.964,1.964,0,0,1,42-17.75a2.149,2.149,0,0,1,.442.724,2.66,2.66,0,0,1,.159.943,5.214,5.214,0,0,1-.187,1.39,3.784,3.784,0,0,1-.611,1.253,4.3,4.3,0,0,1-1.107,1.025,5.521,5.521,0,0,1-1.677.706Z" transform="translate(240.403 300.089)" fill="url(#linear-gradient)"/>
    <path id="パス_33246" data-name="パス 33246" d="M3.64-1.144V-2.171H9.425v1.027ZM9.425-4.927v1.014H3.64V-4.927Zm0-2.743v1H3.64v-1ZM7.1-9.477c.182-.429.39-.923.572-1.417l-2.314-.234c-.052.494-.156,1.105-.273,1.651H1.729V1.209H3.64V.6H9.425v.611H11.44V-9.477Zm10.543.767c1.014.26,3.926.871,5.278,1.053l.468-1.924a39.886,39.886,0,0,1-5.252-1Zm.78.845-2.093-.286a49.359,49.359,0,0,1-.637,5.473l1.781.442a3.308,3.308,0,0,1,.533-.806,4.313,4.313,0,0,1,3.328-1.4c1.027,0,1.729.546,1.729,1.274,0,1.573-2.08,2.392-5.837,1.833L17.836.7C23.5,1.2,25.259-.741,25.259-3.133c0-1.573-1.313-3.081-3.731-3.081a6.515,6.515,0,0,0-3.562,1.04A22.344,22.344,0,0,1,18.421-7.865ZM32.487-4.914c-.455,1.5-.845,2.275-1.365,2.275-.442,0-.832-.585-.832-1.7a3.836,3.836,0,0,1,2.86-3.484A18.773,18.773,0,0,1,32.487-4.914ZM34.749.65C38.1.091,39.7-1.9,39.7-4.6a5.049,5.049,0,0,0-5.356-5.187,5.872,5.872,0,0,0-6.084,5.655c0,2.2,1.222,3.926,2.808,3.926,1.521,0,2.678-1.729,3.445-4.3a26.93,26.93,0,0,0,.754-3.354,2.983,2.983,0,0,1,2.288,3.2,3.261,3.261,0,0,1-2.73,3.237,9.244,9.244,0,0,1-1.261.234ZM46.956-3.835c-.572.13-1.157.247-1.729.377V-7.813h1.586V-9.62H41.834v1.807h1.521v4.745c-.663.13-1.274.247-1.768.338l.442,1.963c1.469-.39,3.367-.9,5.122-1.391Zm4.16-3.224a10.449,10.449,0,0,1-1.04,3,11.552,11.552,0,0,1-1.079-3Zm2.847,0V-8.866H49.53q.312-.936.546-1.911L48.2-11.154a12.675,12.675,0,0,1-2.535,5.681,11.462,11.462,0,0,1,1.612,1.131c.156-.195.3-.4.442-.611A14.161,14.161,0,0,0,48.8-2.4a8.574,8.574,0,0,1-3.588,1.9,8.547,8.547,0,0,1,1,1.755,10.422,10.422,0,0,0,3.7-2.093,8.045,8.045,0,0,0,3,2.093,7.748,7.748,0,0,1,1.3-1.716,7.271,7.271,0,0,1-2.964-1.911,12.681,12.681,0,0,0,1.833-4.68Zm4.342,4.992c-.39,0-.6-.338-.6-.845a3.7,3.7,0,0,1,.7-2.08,14.954,14.954,0,0,0,1.04,2.184A1.7,1.7,0,0,1,58.305-2.067Zm3.289-4.784a14.634,14.634,0,0,1-.949,2.288,13.4,13.4,0,0,1-.728-1.69A4.925,4.925,0,0,1,61.594-6.851Zm2.457-1.911c.091-.364.234-1.092.351-1.469l-2.158-.208a7.7,7.7,0,0,1-.1,1.365c-.026.143-.052.286-.078.442a7.446,7.446,0,0,0-2.7.7c-.065-.234-.13-.455-.195-.676-.1-.39-.208-.819-.286-1.287l-2.041.637a10.231,10.231,0,0,1,.572,1.43c.1.325.208.65.312.962a5.825,5.825,0,0,0-1.846,4.121c0,1.755,1.079,2.7,2.2,2.7a3.2,3.2,0,0,0,2.522-1.248l.338.39L62.5-2.145a8.471,8.471,0,0,1-.65-.7,15.794,15.794,0,0,0,1.651-3.9A2.573,2.573,0,0,1,65.26-4.134c0,1.391-.9,2.86-3.809,3.107L62.647.78C65.286.364,67.3-1.209,67.3-4.03a4.351,4.351,0,0,0-3.315-4.446Zm17.641-.871A18.554,18.554,0,0,0,80.665-11.4l-1.222.494A14.5,14.5,0,0,1,80.47-9.113Zm-8.97-.793a12.924,12.924,0,0,1-.247,2.691c-.572.039-1.1.078-1.482.091a14.336,14.336,0,0,1-1.5,0l.169,2.093c.429-.078,1.17-.182,1.586-.234.182-.026.468-.065.806-.117A18.713,18.713,0,0,1,69.524-.091l2.041.819a29.114,29.114,0,0,0,2.574-6.864c.234-.013.455-.026.6-.026.806,0,1.2.117,1.2,1.053a9.186,9.186,0,0,1-.481,3.3.873.873,0,0,1-.871.494,8.17,8.17,0,0,1-1.573-.273L73.346.468a7.645,7.645,0,0,0,1.56.182A2.2,2.2,0,0,0,77.155-.6a12.863,12.863,0,0,0,.715-4.719c0-1.924-.975-2.626-2.457-2.626-.234,0-.533.013-.871.039.078-.338.156-.689.221-1.04s.182-.845.273-1.235ZM80.08-9c-.234-.455-.689-1.3-1.014-1.781l-1.222.494A16.732,16.732,0,0,1,78.728-8.7L77.6-8.229A14.224,14.224,0,0,1,79.7-3.25l1.989-.923A23.658,23.658,0,0,0,79.612-8.8ZM90.194-.962V-3.2h3.731v-1.82H90.194V-7.007h4.251V-8.853H90.194v-2.262H88.218v2.262H86.554a16.153,16.153,0,0,0,.572-1.69l-1.963-.442a11.013,11.013,0,0,1-2.275,4.6,12.549,12.549,0,0,1,1.7,1.144,11.554,11.554,0,0,0,1.131-1.768h2.5v1.989H84.851V-3.2h3.367V-.962H83.3V.884h11.83V-.962ZM98.8-3.744a6.656,6.656,0,0,0-.325,1.82c0,1.9,1.547,2.73,4.03,2.73a22.129,22.129,0,0,0,3.419-.26l.065-1.989a20.542,20.542,0,0,1-3.536.286c-1.573,0-2.028-.507-2.028-1.2a3.974,3.974,0,0,1,.3-1.222Zm8.671-3.848a14.915,14.915,0,0,1-2.275.624l-.156-.364c-.078-.182-.169-.377-.247-.572a18.086,18.086,0,0,0,2.08-.507l-.325-1.729a15.478,15.478,0,0,1-2.4.585,9.292,9.292,0,0,1-.351-1.209l-2.223.416a8.309,8.309,0,0,1,.585,1.014A25.467,25.467,0,0,1,98.449-9.5l.1,1.768a26.189,26.189,0,0,0,4.368.065l.338.78.078.195a26.842,26.842,0,0,1-4.979-.052l.078,1.781a34.563,34.563,0,0,0,5.6-.065c.13.312.273.663.442,1.04-.325-.026-.78-.065-1.222-.1l-.169,1.482c.884.1,2.223.312,2.977.468l.91-1.17c-.377-.715-.715-1.417-1.014-2.041a14.375,14.375,0,0,0,1.872-.481Zm8.84,6.6c-.65,0-1.079-.286-1.079-.689,0-.26.247-.507.663-.507.546,0,.936.455,1,1.17C116.714-1,116.519-.988,116.311-.988Zm2.925-9.243a6.852,6.852,0,0,1-1.144.156c-.767.065-3.341.1-4.03.1a10.8,10.8,0,0,1-1.313-.078l.065,2.015c.312-.052.767-.091,1.157-.117.689-.052,2.015-.1,2.665-.117-.624.559-1.82,1.482-2.535,2.08-.767.624-2.262,1.9-3.094,2.548l1.417,1.469c1.235-1.508,2.587-2.639,4.472-2.639,1.417,0,2.548.689,2.548,1.794a1.709,1.709,0,0,1-.754,1.482,2.641,2.641,0,0,0-2.808-2.132,2.356,2.356,0,0,0-2.5,2.184c0,1.417,1.508,2.262,3.328,2.262,3.328,0,4.784-1.755,4.784-3.77,0-1.937-1.742-3.354-3.952-3.354a4.332,4.332,0,0,0-.9.078c.7-.546,1.833-1.469,2.561-1.963.325-.221.65-.416.988-.624Z" transform="translate(38 294.569)" fill="#888"/>
    <path id="パス_33245" data-name="パス 33245" d="M-116.272-11.52a5.225,5.225,0,0,1,3.136,1.936,5.5,5.5,0,0,1,1.184,3.472,5.518,5.518,0,0,1-1.968,4.464A8.3,8.3,0,0,1-119.408,0h-10.464V-22.464h10.112A8.291,8.291,0,0,1-114.4-20.9a5.186,5.186,0,0,1,1.936,4.256,5.141,5.141,0,0,1-1.04,3.3A5.379,5.379,0,0,1-116.272-11.52Zm-8.128-1.856h3.584a3.173,3.173,0,0,0,2.064-.592,2.127,2.127,0,0,0,.72-1.744,2.175,2.175,0,0,0-.72-1.76,3.115,3.115,0,0,0-2.064-.608H-124.4Zm4.032,8.96a3.245,3.245,0,0,0,2.128-.624,2.215,2.215,0,0,0,.752-1.808,2.315,2.315,0,0,0-.784-1.856,3.213,3.213,0,0,0-2.16-.672H-124.4v4.96ZM-98.736.256a9.856,9.856,0,0,1-4.72-1.12,8.2,8.2,0,0,1-3.3-3.2,9.562,9.562,0,0,1-1.2-4.864,9.485,9.485,0,0,1,1.216-4.848,8.251,8.251,0,0,1,3.328-3.216,9.95,9.95,0,0,1,4.736-1.12,9.95,9.95,0,0,1,4.736,1.12,8.251,8.251,0,0,1,3.328,3.216,9.485,9.485,0,0,1,1.216,4.848A9.388,9.388,0,0,1-90.624-4.08a8.331,8.331,0,0,1-3.36,3.216A10.045,10.045,0,0,1-98.736.256Zm0-4.736a3.565,3.565,0,0,0,2.672-1.152,4.577,4.577,0,0,0,1.1-3.3,4.662,4.662,0,0,0-1.072-3.3,3.464,3.464,0,0,0-2.64-1.152,3.473,3.473,0,0,0-2.656,1.136,4.7,4.7,0,0,0-1.056,3.312,4.754,4.754,0,0,0,1.04,3.3A3.366,3.366,0,0,0-98.736-4.48Zm19.648-19.2V0H-84.56V-23.68Zm8.64,3.968A3.317,3.317,0,0,1-72.8-20.56a2.748,2.748,0,0,1-.912-2.1,2.784,2.784,0,0,1,.912-2.128,3.317,3.317,0,0,1,2.352-.848,3.273,3.273,0,0,1,2.32.848,2.784,2.784,0,0,1,.912,2.128,2.748,2.748,0,0,1-.912,2.1A3.273,3.273,0,0,1-70.448-19.712Zm2.72,1.856V0H-73.2V-17.856Zm4.8,8.9a10.672,10.672,0,0,1,1.04-4.832,7.758,7.758,0,0,1,2.832-3.2,7.393,7.393,0,0,1,4-1.12,7.026,7.026,0,0,1,3.216.736,5.86,5.86,0,0,1,2.288,1.984V-23.68h5.472V0h-5.472V-2.56A5.574,5.574,0,0,1-51.744-.512a6.872,6.872,0,0,1-3.312.768,7.316,7.316,0,0,1-4-1.136,7.85,7.85,0,0,1-2.832-3.232A10.773,10.773,0,0,1-62.928-8.96Zm13.376.032a4.474,4.474,0,0,0-1.136-3.232,3.691,3.691,0,0,0-2.768-1.184,3.715,3.715,0,0,0-2.768,1.168A4.417,4.417,0,0,0-57.36-8.96a4.531,4.531,0,0,0,1.136,3.248,3.668,3.668,0,0,0,2.768,1.2A3.691,3.691,0,0,0-50.688-5.7,4.474,4.474,0,0,0-49.552-8.928Zm28.192-.288a13.969,13.969,0,0,1-.1,1.6H-33.84a3.721,3.721,0,0,0,1.072,2.544,3.275,3.275,0,0,0,2.32.88A2.876,2.876,0,0,0-27.6-5.92h5.824a7.992,7.992,0,0,1-1.616,3.168A8.091,8.091,0,0,1-26.32-.544a9.4,9.4,0,0,1-3.936.8,9.577,9.577,0,0,1-4.672-1.12,7.966,7.966,0,0,1-3.2-3.2A9.879,9.879,0,0,1-39.28-8.928a9.992,9.992,0,0,1,1.136-4.864,7.863,7.863,0,0,1,3.184-3.2,9.645,9.645,0,0,1,4.7-1.12,9.548,9.548,0,0,1,4.608,1.088,7.812,7.812,0,0,1,3.152,3.1A9.422,9.422,0,0,1-21.36-9.216Zm-5.6-1.44a2.813,2.813,0,0,0-.96-2.24,3.534,3.534,0,0,0-2.4-.832,3.466,3.466,0,0,0-2.32.8,3.553,3.553,0,0,0-1.168,2.272ZM-12.752-25.6l-.416,7.072h-3.68l-.416-7.072ZM-.3.256a10.263,10.263,0,0,1-4.16-.8,7.1,7.1,0,0,1-2.88-2.192,5.766,5.766,0,0,1-1.184-3.12H-3.12a2.079,2.079,0,0,0,.864,1.5,3.057,3.057,0,0,0,1.888.576,2.7,2.7,0,0,0,1.584-.4,1.225,1.225,0,0,0,.56-1.04,1.2,1.2,0,0,0-.8-1.136,16.162,16.162,0,0,0-2.592-.816,24.335,24.335,0,0,1-3.2-.944A5.529,5.529,0,0,1-7.024-9.68a4.273,4.273,0,0,1-.928-2.9,4.917,4.917,0,0,1,.848-2.8,5.709,5.709,0,0,1,2.5-2,9.557,9.557,0,0,1,3.92-.736,7.858,7.858,0,0,1,5.3,1.664,6.475,6.475,0,0,1,2.224,4.416H1.776A2.179,2.179,0,0,0,.96-13.5a2.83,2.83,0,0,0-1.808-.544,2.5,2.5,0,0,0-1.472.368,1.175,1.175,0,0,0-.512,1.008,1.23,1.23,0,0,0,.816,1.152,13.069,13.069,0,0,0,2.544.768A27.831,27.831,0,0,1,3.76-9.744a5.575,5.575,0,0,1,2.192,1.6,4.527,4.527,0,0,1,.976,2.96,4.7,4.7,0,0,1-.88,2.8A5.82,5.82,0,0,1,3.52-.448,9.668,9.668,0,0,1-.3.256Zm35.3-22.72v15.3a7.23,7.23,0,0,1-2,5.472A7.46,7.46,0,0,1,27.6.224a7.977,7.977,0,0,1-5.7-2.016A7.481,7.481,0,0,1,19.76-7.52H25.2a3.352,3.352,0,0,0,.576,2.128,2.006,2.006,0,0,0,1.664.72,1.906,1.906,0,0,0,1.536-.64,2.792,2.792,0,0,0,.544-1.856v-15.3ZM40.24-8.96a10.672,10.672,0,0,1,1.04-4.832,7.758,7.758,0,0,1,2.832-3.2,7.393,7.393,0,0,1,4-1.12,6.872,6.872,0,0,1,3.312.768,5.657,5.657,0,0,1,2.192,2.016v-2.528h5.472V0H53.616V-2.528A5.909,5.909,0,0,1,51.392-.512,6.871,6.871,0,0,1,48.08.256,7.26,7.26,0,0,1,44.112-.88,7.85,7.85,0,0,1,41.28-4.112,10.773,10.773,0,0,1,40.24-8.96Zm13.376.032A4.474,4.474,0,0,0,52.48-12.16a3.691,3.691,0,0,0-2.768-1.184,3.715,3.715,0,0,0-2.768,1.168A4.417,4.417,0,0,0,45.808-8.96a4.531,4.531,0,0,0,1.136,3.248,3.668,3.668,0,0,0,2.768,1.2A3.691,3.691,0,0,0,52.48-5.7,4.474,4.474,0,0,0,53.616-8.928Zm16.832-6.4a5.94,5.94,0,0,1,2.208-2.016,6.778,6.778,0,0,1,3.3-.768,7.393,7.393,0,0,1,4,1.12,7.758,7.758,0,0,1,2.832,3.2,10.672,10.672,0,0,1,1.04,4.832,10.773,10.773,0,0,1-1.04,4.848A7.85,7.85,0,0,1,79.952-.88a7.316,7.316,0,0,1-4,1.136,6.8,6.8,0,0,1-3.28-.768A6.013,6.013,0,0,1,70.448-2.5V8.512H64.976V-17.856h5.472ZM78.256-8.96a4.417,4.417,0,0,0-1.136-3.216,3.752,3.752,0,0,0-2.8-1.168,3.691,3.691,0,0,0-2.768,1.184,4.474,4.474,0,0,0-1.136,3.232A4.474,4.474,0,0,0,71.552-5.7,3.691,3.691,0,0,0,74.32-4.512a3.718,3.718,0,0,0,2.784-1.2A4.494,4.494,0,0,0,78.256-8.96Zm9.28,0a10.672,10.672,0,0,1,1.04-4.832,7.758,7.758,0,0,1,2.832-3.2,7.393,7.393,0,0,1,4-1.12,6.872,6.872,0,0,1,3.312.768,5.657,5.657,0,0,1,2.192,2.016v-2.528h5.472V0h-5.472V-2.528A5.909,5.909,0,0,1,98.688-.512a6.872,6.872,0,0,1-3.312.768A7.26,7.26,0,0,1,91.408-.88a7.85,7.85,0,0,1-2.832-3.232A10.773,10.773,0,0,1,87.536-8.96Zm13.376.032a4.474,4.474,0,0,0-1.136-3.232,3.691,3.691,0,0,0-2.768-1.184,3.715,3.715,0,0,0-2.768,1.168A4.417,4.417,0,0,0,93.1-8.96,4.531,4.531,0,0,0,94.24-5.712a3.668,3.668,0,0,0,2.768,1.2A3.691,3.691,0,0,0,99.776-5.7,4.474,4.474,0,0,0,100.912-8.928Zm22.24-9.12a6.48,6.48,0,0,1,5.008,2.032,7.926,7.926,0,0,1,1.872,5.584V0h-5.44V-9.7a3.919,3.919,0,0,0-.928-2.784,3.254,3.254,0,0,0-2.5-.992,3.254,3.254,0,0,0-2.5.992,3.919,3.919,0,0,0-.928,2.784V0h-5.472V-17.856h5.472v2.368a5.773,5.773,0,0,1,2.24-1.872A7.121,7.121,0,0,1,123.152-18.048Z" transform="translate(195 260.67)" fill="#333"/>
    <path id="パス_33247" data-name="パス 33247" d="M-22.92.42c5.4,0,8.52-3.27,8.52-6.99,0-3.15-1.65-5.01-4.41-6.12L-21.6-13.8c-1.98-.78-3.39-1.26-3.39-2.49,0-1.2,1.02-1.86,2.67-1.86a7.26,7.26,0,0,1,4.59,1.71l2.67-3.36a10.387,10.387,0,0,0-7.26-2.94c-4.74,0-8.1,3-8.1,6.75,0,3.24,2.19,5.19,4.53,6.12l2.85,1.2c1.92.81,3.15,1.23,3.15,2.52,0,1.2-.93,1.95-2.91,1.95a9.025,9.025,0,0,1-5.43-2.28l-3.03,3.69A12.491,12.491,0,0,0-22.92.42ZM-8.88,0h5.1V-7.41c0-2.7-.45-5.76-.69-8.25h.15l2.19,4.89L3.39,0H8.85V-22.32H3.75v7.38a70.369,70.369,0,0,0,.72,8.25H4.32L2.13-11.64-3.42-22.32H-8.88ZM22.77.42c5.4,0,8.52-3.27,8.52-6.99,0-3.15-1.65-5.01-4.41-6.12L24.09-13.8c-1.98-.78-3.39-1.26-3.39-2.49,0-1.2,1.02-1.86,2.67-1.86a7.26,7.26,0,0,1,4.59,1.71l2.67-3.36a10.387,10.387,0,0,0-7.26-2.94c-4.74,0-8.1,3-8.1,6.75,0,3.24,2.19,5.19,4.53,6.12l2.85,1.2c1.92.81,3.15,1.23,3.15,2.52,0,1.2-.93,1.95-2.91,1.95a9.025,9.025,0,0,1-5.43-2.28L14.43-2.79A12.491,12.491,0,0,0,22.77.42Z" transform="translate(289 201.239)" fill="#333"/>
    <path id="パス_33244" data-name="パス 33244" d="M14.08-3.278c-.022-.968-.066-2.442-.088-3.63,1.144-.506,2.2-.924,3.036-1.232.836-.33,2.2-.836,2.97-1.056l-1.3-3.036c-.924.44-1.826.858-2.772,1.276-.77.352-1.474.638-2.354,1.056a3.169,3.169,0,0,0-2.9-1.54,10.49,10.49,0,0,0-2.156.22,12.425,12.425,0,0,0,.836-1.54c2.332-.088,4.994-.286,7.04-.55l.022-3.058a50.032,50.032,0,0,1-5.874.616,19.119,19.119,0,0,0,.484-1.98l-3.476-.286a12.7,12.7,0,0,1-.374,2.376H6.314A28.316,28.316,0,0,1,2.4-15.906v3.058c1.144.11,2.728.154,3.63.154a20.031,20.031,0,0,1-4.664,5.61L4.18-4.972A26.48,26.48,0,0,1,6.2-7.436,5.231,5.231,0,0,1,9.416-8.888a1.637,1.637,0,0,1,1.188.44c-2.42,1.276-5.016,3.1-5.016,5.94,0,2.9,2.574,3.828,6.16,3.828A58.628,58.628,0,0,0,18.04.946l.11-3.41a32.466,32.466,0,0,1-6.336.682c-2.046,0-2.728-.374-2.728-1.3,0-.88.594-1.584,1.958-2.376-.022.814-.066,1.628-.11,2.178Zm13.09-5.28L27.3-10.01H31.35V-17.6H24.486v2.816h3.828v1.936H24.728c-.11,2.53-.4,5.676-.7,7.722l2.75.418q.066-.528.132-1.122h1.408c-.154,2.97-.33,4.268-.66,4.6a.9.9,0,0,1-.77.286c-.44,0-1.276,0-2.156-.088A7.613,7.613,0,0,1,25.7,2.09a15.562,15.562,0,0,0,2.662-.11,2.523,2.523,0,0,0,1.8-1.034c.66-.814.9-3.124,1.122-8.338.022-.374.044-1.166.044-1.166Zm7.678,1.782V-8.184h1.386v1.408Zm5.9-1.408v1.408H39.292V-8.184ZM45.056.99A19.224,19.224,0,0,0,42.306-4.2l-2.6,1.078q.33.495.66,1.056L39.292-2V-4.2H43.78V-10.78H39.292v-1.628l2.222-.2a7.177,7.177,0,0,1,.528,1.276l2.9-1.3a19.12,19.12,0,0,0-3.1-4.862L39.16-16.324c.264.33.528.7.792,1.078l-3.1.176c.616-.924,1.232-1.958,1.8-2.992l-3.454-.77a25.329,25.329,0,0,1-1.76,3.916l-1.936.088.4,2.992c1.276-.088,2.75-.2,4.334-.33v1.386H31.966V-4.2h4.268v2.4c-1.87.132-3.608.22-5.016.286l.374,3.08c2.794-.2,6.556-.484,10.186-.814a10.586,10.586,0,0,1,.462,1.43Zm7.48-19.536a23.169,23.169,0,0,1-5.83,8.426,23.608,23.608,0,0,1,1.826,3.432A21.323,21.323,0,0,0,50.314-8.58V2.046h3.212v-15.2A36.3,36.3,0,0,0,55.7-17.49ZM61.38-1.1c-.99,0-1.1-.176-1.1-1.54V-7.722A54.891,54.891,0,0,0,67.628-11.7L65.274-14.52a41.136,41.136,0,0,1-4.994,3.5v-7.194H57.046V-2.662c0,3.5.858,4.532,3.894,4.532h3.366c2.772,0,3.608-1.5,3.96-5.412a9.4,9.4,0,0,1-2.948-1.342C65.142-1.826,64.966-1.1,63.976-1.1ZM79.112-7.194A1.329,1.329,0,0,1,80.5-8.6a1.421,1.421,0,0,1,1.188.572c.242,1.672-.484,2.178-1.188,2.178A1.384,1.384,0,0,1,79.112-7.194ZM90.53-15.466c-1.144-.022-4.07.022-6.094.022v-.242c.022-.4.11-1.738.176-2.156H80.806c.088.418.176,1.342.242,2.178l.022.242c-2.816.044-6.666.132-9.2.11l.088,3.168c2.662-.132,5.874-.264,9.152-.308l.022,1.1a4.418,4.418,0,0,0-.55-.022c-2.53,0-4.642,1.606-4.642,4.246a4.039,4.039,0,0,0,3.872,4.18,2.391,2.391,0,0,0,.4-.022,11.808,11.808,0,0,1-4.994,1.914L78.012,1.76c5.456-1.474,7.26-5.258,7.26-8.052a5.713,5.713,0,0,0-.858-3.146c0-.9,0-2-.022-3.036,2.75.022,4.8.066,6.094.132ZM103.994-1.672c-1.1,0-1.826-.484-1.826-1.166,0-.44.418-.858,1.122-.858.924,0,1.584.77,1.694,1.98C104.676-1.694,104.346-1.672,103.994-1.672Zm4.95-15.642a11.6,11.6,0,0,1-1.936.264c-1.3.11-5.654.176-6.82.176a18.273,18.273,0,0,1-2.222-.132l.11,3.41c.528-.088,1.3-.154,1.958-.2,1.166-.088,3.41-.176,4.51-.2-1.056.946-3.08,2.508-4.29,3.52-1.3,1.056-3.828,3.212-5.236,4.312l2.4,2.486c2.09-2.552,4.378-4.466,7.568-4.466,2.4,0,4.312,1.166,4.312,3.036A2.892,2.892,0,0,1,108.02-2.6,4.469,4.469,0,0,0,103.268-6.2a3.987,3.987,0,0,0-4.224,3.7c0,2.4,2.552,3.828,5.632,3.828,5.632,0,8.1-2.97,8.1-6.38,0-3.278-2.948-5.676-6.688-5.676a7.331,7.331,0,0,0-1.518.132c1.188-.924,3.1-2.486,4.334-3.322.55-.374,1.1-.7,1.672-1.056Zm15,3.19c-.176.66-.44,1.43-.66,2l1.32.264h-3.762l.968-.264a8.1,8.1,0,0,0-.594-2ZM127.16-3.1c-.462-.352-2.134-1.628-2.926-2.134v-.022H127.6V-7.92h-3.366V-9.262h3.586v-2.6h-1.892c.264-.55.55-1.276.924-2.09l-.946-.176h1.782V-16.7h-3.454v-1.87h-3.1v1.87h-3.454v2.574h2.134l-1.166.286a9.153,9.153,0,0,1,.55,1.98h-1.782v2.6h3.718V-7.92H117.48v2.662h3.058a13.591,13.591,0,0,1-3.74,3.85A13.461,13.461,0,0,1,118.866.858a14.37,14.37,0,0,0,2.266-2.442V2.068h3.1V-2.09c.418.462.814.9,1.1,1.254Zm4.268-11.132a33.419,33.419,0,0,0,6.6-2.046l-2.552-2.31a25.169,25.169,0,0,1-5.346,1.958l-1.738-.484v7.678c0,2.97-.22,6.71-2.618,9.372a7.217,7.217,0,0,1,2.288,2.178c2.728-2.926,3.3-7.524,3.366-10.78h1.628V1.98h3.1V-8.668h1.87v-2.948h-6.6ZM152.592-7.7v-2.838h2.266V-7.7Zm5.5,3.784v-6.622H161.3v-3.08h-3.212V-18.37h-3.234v4.752h-2.266v-4.95h-3.234v4.95h-2.376v-4.488h-3.3v4.488H140.6v3.08h3.08V2.09h3.3V.814h13.53v-3.08h-13.53v-8.272h2.376v6.622h3.234V-4.73h2.266v.814Zm26.224-11.33a17.229,17.229,0,0,0-2.882-3.564l-2.42,1.474a17.164,17.164,0,0,1,2.706,3.718Zm-15.18-3.41a23.168,23.168,0,0,1-5.83,8.426,22.97,22.97,0,0,1,1.76,3.3,24.867,24.867,0,0,0,1.914-2.046V2.046H170.3V-13.838a33.989,33.989,0,0,0,1.892-3.806Zm15.466,8.4-.44-3.036-6.116.836c-.132-1.848-.2-3.872-.22-6.006H174.57c.066,2.332.154,4.488.308,6.446l-3.96.55.462,3.08,3.784-.528c.792,6.644,2.508,10.538,6.314,10.934,1.276.088,2.64-.858,3.256-5.39a12.228,12.228,0,0,1-2.618-1.848c-.132,2.354-.352,3.388-.792,3.344-1.452-.242-2.442-3.124-2.97-7.5Z" transform="translate(69 198.369)" fill="#333"/>
    <path id="パス_29298" data-name="パス 29298" d="M-249.734-87.2l4.286,10.716c7.5-3.341,21.747-9.266,30.446-9.266,7.06,0,10.716,4.1,10.716,9.644,0,9.96-12.67,14.813-30.068,15.192l4.476,10.149c23.765-1.135,36.561-11.346,36.561-25.151,0-12.292-9.329-19.1-21.243-19.1-9.266,0-22.378,4.476-26.916,5.862C-243.746-88.525-247.4-87.579-249.734-87.2Zm94.554-15.7-10.464-1.009A50.2,50.2,0,0,1-167.22-93.63q-2.458.189-4.917.189c-2.08,0-5.862-.126-8.762-.441l.693,8.825c2.9.189,5.484.252,8.132.252.693,0,1.324,0,2.017-.063A101.513,101.513,0,0,1-182.538-63.31l9.2,4.665c5.106-7.249,10.4-18.28,13.364-27.168a86.015,86.015,0,0,0,10.716-2.143l-.252-8.762c-2.143.63-4.791,1.261-7.753,1.828C-156.378-98.043-155.622-100.943-155.18-102.9Zm-3.152,43.558c0-1.828,1.954-3.089,5.043-3.089a23.511,23.511,0,0,1,4.286.441v.315c0,3.53-1.135,5.736-4.917,5.736C-156.567-55.935-158.332-57.322-158.332-59.339Zm17.9-23.828h-9.581c.189,3.53.441,8.762.693,13.238a28.856,28.856,0,0,0-3.341-.189c-9.708,0-14.687,5.421-14.687,11.725,0,7.312,6.493,11.22,14.813,11.22,9.329,0,12.607-4.539,12.8-10.59a67.312,67.312,0,0,1,7.627,6.43l5.043-8.195a41.048,41.048,0,0,0-13.048-8.195c-.126-2.648-.252-5.106-.315-6.619C-140.493-77.43-140.619-80.456-140.43-83.166Zm9.834,4.286,5.421-8.069a127.57,127.57,0,0,0-16.074-8.636l-4.917,7.564A91.612,91.612,0,0,1-130.6-78.88Zm41.541-22.378-11.346-1.2a63.808,63.808,0,0,1-1.2,13.174c-2.837.189-5.421.378-7.249.441a71.935,71.935,0,0,1-7.375,0l.882,10.275c2.08-.378,5.736-.883,7.753-1.2.883-.126,2.269-.315,3.908-.567-2.332,8.636-6.43,20.613-12.418,28.681l9.96,3.971c5.358-8.636,10.086-23.891,12.607-33.724q1.891-.189,3.026-.189c3.908,0,5.8.567,5.8,5.169,0,5.862-.756,13.238-2.332,16.389a4.267,4.267,0,0,1-4.286,2.4,41,41,0,0,1-7.69-1.324l1.639,10.023a38.315,38.315,0,0,0,7.69.883c5.106,0,8.825-1.576,10.968-6.114,2.711-5.547,3.53-15.885,3.53-23.26,0-9.455-4.791-12.859-12.04-12.859-1.135,0-2.584.063-4.286.189.378-1.639.756-3.4,1.135-5.106C-90-96.971-89.5-99.367-89.056-101.258Zm27.295-5.736-5.925,2.4a70.317,70.317,0,0,1,4.98,8.7l5.925-2.521A89.965,89.965,0,0,0-61.761-106.994Zm-7.753,3.026-5.925,2.4a60.342,60.342,0,0,1,4.286,7.69l-5.358,2.269c4.539,5.8,8.762,16.957,10.275,24.269l9.771-4.476A111.66,111.66,0,0,0-66.678-94.45l2.08-.883C-65.732-97.539-67.939-101.636-69.515-103.968Zm41.1,1.135-10.4-.441a70.091,70.091,0,0,1-.5,7.249,152.556,152.556,0,0,0-1.639,20.108,74.464,74.464,0,0,0,.819,10.779l9.392-.63a52.92,52.92,0,0,1-.378-6.051c0-8.321,6.114-19.352,13.3-19.352,4.476,0,7.69,4.413,7.69,13.994,0,14.939-9.392,19.037-23.575,21.243l5.8,8.888C-10.576-50.262.266-59.15.266-77.178c0-14.246-7.249-22.945-16.263-22.945-6.556,0-11.473,3.908-14.75,7.879A92.6,92.6,0,0,1-28.415-102.834Z" transform="translate(319.734 213.286)" fill="url(#linear-gradient)"/>
  </g>
</svg>
