<svg xmlns="http://www.w3.org/2000/svg" xmlns:xlink="http://www.w3.org/1999/xlink" width="594" height="308.569" viewBox="0 0 594 308.569">
  <defs>
    <linearGradient id="linear-gradient" y1="0.5" x2="1" y2="0.5" gradientUnits="objectBoundingBox">
      <stop offset="0" stop-color="gold"/>
      <stop offset="0.091" stop-color="#ffd208"/>
      <stop offset="0.182" stop-color="#ffc322"/>
      <stop offset="0.273" stop-color="#ffac42"/>
      <stop offset="0.364" stop-color="#ff906a"/>
      <stop offset="0.455" stop-color="#ff7a96"/>
      <stop offset="0.545" stop-color="#ff74c2"/>
      <stop offset="0.636" stop-color="#f87de5"/>
      <stop offset="0.727" stop-color="#c489fa"/>
      <stop offset="0.818" stop-color="#8f91ff"/>
      <stop offset="0.909" stop-color="#6395ff"/>
      <stop offset="1" stop-color="#5096ff"/>
    </linearGradient>
  </defs>
  <g id="グループ_5938" data-name="グループ 5938" transform="translate(-423 -194.431)">
    <g id="グループ_5975" data-name="グループ 5975" transform="translate(1)">
      <text id="自らの攻めが生きる" transform="translate(523 498)" fill="#888" font-size="16" font-family="NotoSansJP-Black, Noto Sans JP" font-weight="800" letter-spacing="0.06em"><tspan x="0" y="0">自らの攻めが生きる</tspan></text>
      <text id="という選択" transform="translate(832 498)" fill="#888" font-size="16" font-family="NotoSansJP-Black, Noto Sans JP" font-weight="800" letter-spacing="0.06em"><tspan x="0" y="0">という選択</tspan></text>
      <path id="パス_29729" data-name="パス 29729" d="M-72.8-16.512q-.527.188-.961.393a3.809,3.809,0,0,0-.768.475,2.892,2.892,0,0,0-.58.633,3.206,3.206,0,0,0-.4.855q.223-.059.428-.094a2.6,2.6,0,0,1,.439-.035,2.806,2.806,0,0,1,.926.146,2.413,2.413,0,0,1,.744.41,2.123,2.123,0,0,1,.527.645,2.586,2.586,0,0,1,.275.85,6.641,6.641,0,0,1,.258-1.758,4.855,4.855,0,0,1,.791-1.582A5.489,5.489,0,0,1-69.7-16.869a7.225,7.225,0,0,1,2.139-.9v1.254q-.527.188-.961.393a3.971,3.971,0,0,0-.773.475,2.711,2.711,0,0,0-.58.633,3.325,3.325,0,0,0-.393.855,4.217,4.217,0,0,1,.416-.094,2.6,2.6,0,0,1,.439-.035,2.786,2.786,0,0,1,1.008.176,2.328,2.328,0,0,1,.791.5,2.2,2.2,0,0,1,.516.773,2.66,2.66,0,0,1,.182,1,3.063,3.063,0,0,1-.176,1.049,2.429,2.429,0,0,1-.51.844,2.32,2.32,0,0,1-.809.557,2.747,2.747,0,0,1-1.072.2,2.686,2.686,0,0,1-.99-.182,2.491,2.491,0,0,1-.814-.516,2.639,2.639,0,0,1-.574-.814,3.3,3.3,0,0,1-.281-1.066,2.976,2.976,0,0,1-.193,1.02,2.412,2.412,0,0,1-.516.814,2.415,2.415,0,0,1-.8.545,2.672,2.672,0,0,1-1.055.2A2.678,2.678,0,0,1-75.774-9.4a2.526,2.526,0,0,1-.855-.6,2.764,2.764,0,0,1-.568-.932,3.421,3.421,0,0,1-.205-1.213,6.705,6.705,0,0,1,.24-1.787,4.867,4.867,0,0,1,.785-1.611,5.44,5.44,0,0,1,1.424-1.312,7.407,7.407,0,0,1,2.156-.914Zm20.214,6.984v-.792h1.728v.792Zm0-3.744h1.728v.768h-1.728Zm6.864,0v.768h-1.752v-.768Zm0,3.744h-1.752v-.792h1.752Zm-5.136,7.8h3.384V-3.7h6.288V-6.5h-6.288v-.672h5.088v-8.448h-5.088v-.624h6.024v-2.784h-6.024V-20.52h-3.384v1.488h-5.736v2.784h5.736v.624h-4.9v8.448h4.9V-6.5h-6V-3.7h6ZM-56.88-16.152A21.213,21.213,0,0,0-60.624-19.9l-2.664,1.968a20.127,20.127,0,0,1,3.528,3.984Zm-.576,4.92h-5.832v3.216h2.5v4.7c-.936.7-1.92,1.368-2.808,1.9l1.608,3.48C-60.768,1.032-59.832.192-58.92-.7-57.5,1.128-55.7,1.752-52.992,1.872c3.072.144,8.184.1,11.328-.072a15.962,15.962,0,0,1,1.08-3.384,114.486,114.486,0,0,1-12.36.24c-2.256-.1-3.72-.72-4.512-2.208ZM-18.6-20.064a25.691,25.691,0,0,1-1.536,4.008l2.784,1.032c.576-.984,1.3-2.448,1.992-3.912Zm-5.376,3.912A17.946,17.946,0,0,0-25.8-20.016l-2.736,1.08a17.861,17.861,0,0,1,1.656,3.984Zm-13.392,9.96A23.933,23.933,0,0,1-36.7-2.16l2.28-.624a27.484,27.484,0,0,0-.792-3.96Zm17.688-5.352h-4.656v-.768h4.656Zm0,3.1h-4.656v-.768h4.656Zm0,3.072h-4.656v-.768h4.656ZM-34.632-14.52a22.214,22.214,0,0,0,1.92-2.76,21.7,21.7,0,0,1,2.28,2.76ZM-16.368-2.88v-11.9h-4.1V-20.52h-3.192v5.736H-27.48v11.9h2.088A18.492,18.492,0,0,1-28.224-.768l-.168-1.992c-1.008.168-2.04.36-3.048.528v-.984l2.016.528c.312-.936.7-2.328,1.128-3.648l-2.448-.576a25.847,25.847,0,0,1-.7,3.5V-7.416h2.76v-2.928h-2.76v-1.3h2.448v-2.88h-.36l1.608-1.944a24.7,24.7,0,0,0-4.032-4.056H-34.56a14.539,14.539,0,0,1-3.984,5.664,9.875,9.875,0,0,1,2.064,2.28l.12-.12v1.056h1.944v1.3H-37.44v2.928h3.024v5.688c-1.224.192-2.376.36-3.312.48L-37.08,1.9c2.232-.432,5.04-.984,7.752-1.536A19.873,19.873,0,0,1-27.6,2.328a21.774,21.774,0,0,0,5.3-3.672l-2.16-1.536h4.944l-2.064,1.488a27.2,27.2,0,0,1,3.624,3.648L-14.976.528A31.641,31.641,0,0,0-18.792-2.88ZM8.784-20.16H5.472v9.96c0,.312-.12.384-.456.384-.336.024-1.512.024-2.448-.024A12.03,12.03,0,0,1,3.6-6.792,9.565,9.565,0,0,0,7.512-7.32c1.008-.5,1.272-1.3,1.272-2.808ZM4.3-19.128H1.128v8.208H4.3ZM-6.312-14.616V-16.7h1.488v2.088ZM.48-1.68v-1.3H7.248V-6.12H.48V-7.584H-1.584v-3.984H.384v-3.048H-1.584V-16.7H-.168v-3.024h-11.04V-16.7h1.7v2.088h-2.544v3.048h2.112A5.117,5.117,0,0,1-12.72-8.976a14.381,14.381,0,0,1,2.256,2.424,7.021,7.021,0,0,0,3.888-5.016h1.752v4.344h1.7v1.1h-6.6v3.144h6.6v1.3h-9V1.536H9.6V-1.68ZM19.824.336c4.32,0,6.816-2.616,6.816-5.592,0-2.52-1.32-4.008-3.528-4.9L20.88-11.04c-1.584-.624-2.688-1.008-2.688-2.016,0-.936.792-1.464,2.112-1.464a5.808,5.808,0,0,1,3.672,1.368l2.136-2.688A8.31,8.31,0,0,0,20.3-18.192c-3.792,0-6.48,2.4-6.48,5.4a5.23,5.23,0,0,0,3.624,4.9l2.28.96c1.536.648,2.52.984,2.52,2.016,0,.96-.744,1.56-2.328,1.56A7.1,7.1,0,0,1,15.6-5.184L13.152-2.232A9.993,9.993,0,0,0,19.824.336ZM31.056,0h4.08V-5.928c0-2.16-.36-4.608-.552-6.6h.12l1.752,3.912L40.872,0H45.24V-17.88H41.16v5.928a61.987,61.987,0,0,0,.576,6.6h-.12l-1.752-3.96-4.44-8.568H31.056Zm25.32.336c4.32,0,6.816-2.616,6.816-5.592,0-2.52-1.32-4.008-3.528-4.9l-2.232-.888c-1.584-.624-2.688-1.008-2.688-2.016,0-.936.792-1.464,2.112-1.464a5.808,5.808,0,0,1,3.672,1.368l2.136-2.688a8.31,8.31,0,0,0-5.808-2.352c-3.792,0-6.48,2.4-6.48,5.4A5.23,5.23,0,0,0,54-7.9l2.28.96c1.536.648,2.52.984,2.52,2.016,0,.96-.744,1.56-2.328,1.56a7.1,7.1,0,0,1-4.32-1.824L49.7-2.232A9.993,9.993,0,0,0,56.376.336ZM72.317-10.441q.527-.187.961-.393a3.809,3.809,0,0,0,.768-.475,2.892,2.892,0,0,0,.58-.633,3.206,3.206,0,0,0,.4-.855q-.223.059-.428.094a2.6,2.6,0,0,1-.439.035,2.806,2.806,0,0,1-.926-.146,2.413,2.413,0,0,1-.744-.41,2.147,2.147,0,0,1-.527-.639,2.523,2.523,0,0,1-.275-.844,6.575,6.575,0,0,1-.258,1.752,4.933,4.933,0,0,1-.791,1.582,5.355,5.355,0,0,1-1.418,1.295,7.327,7.327,0,0,1-2.139.891v-1.254q.527-.187.961-.393a3.971,3.971,0,0,0,.773-.475,2.711,2.711,0,0,0,.58-.633,3.325,3.325,0,0,0,.393-.855,4.216,4.216,0,0,1-.416.094,2.6,2.6,0,0,1-.439.035,2.786,2.786,0,0,1-1.008-.176,2.328,2.328,0,0,1-.791-.5,2.2,2.2,0,0,1-.516-.773,2.66,2.66,0,0,1-.182-1,3.063,3.063,0,0,1,.176-1.049,2.429,2.429,0,0,1,.51-.844,2.32,2.32,0,0,1,.809-.557,2.747,2.747,0,0,1,1.072-.2,2.686,2.686,0,0,1,.99.182,2.491,2.491,0,0,1,.814.516,2.639,2.639,0,0,1,.574.814,3.3,3.3,0,0,1,.281,1.066,2.976,2.976,0,0,1,.193-1.02,2.412,2.412,0,0,1,.516-.814,2.415,2.415,0,0,1,.8-.545,2.672,2.672,0,0,1,1.055-.2,2.678,2.678,0,0,1,1.066.211,2.526,2.526,0,0,1,.855.6,2.764,2.764,0,0,1,.568.932,3.421,3.421,0,0,1,.205,1.213,6.705,6.705,0,0,1-.24,1.787,4.867,4.867,0,0,1-.785,1.611A5.525,5.525,0,0,1,74.474-10.1a7.1,7.1,0,0,1-2.156.908Z" transform="translate(753 498)" fill="url(#linear-gradient)"/>
    </g>
    <text id="Bolide_s_Japan" data-name="Bolide&apos;s Japan" transform="translate(720 443)" fill="#333" font-size="72" font-family="Poppins-Bold, Poppins" font-weight="700" letter-spacing="0.06em"><tspan x="-296.676" y="0">Bolide&apos;s Japan</tspan></text>
    <g id="グループ_5934" data-name="グループ 5934" transform="translate(363 -52.452)">
      <text id="SNS" transform="translate(510.385 397.452)" fill="#333" font-size="41" font-family="NotoSansJP-Black, Noto Sans JP" font-weight="800" letter-spacing="0.06em"><tspan x="-44.321" y="0">SNS</tspan></text>
      <text id="を強化する新世代" transform="translate(160 395.583)" fill="#333" font-size="36" font-family="NotoSansJP-Black, Noto Sans JP" font-weight="800" letter-spacing="0.06em"><tspan x="0" y="0">を強化する新世代</tspan></text>
    </g>
    <path id="パス_29298" data-name="パス 29298" d="M-249.734-75.769l6.762,16.905c11.834-5.27,34.307-14.618,48.03-14.618,11.137,0,16.905,6.464,16.905,15.215,0,15.712-19.988,23.369-47.434,23.965l7.06,16.01c37.489-1.79,57.676-17.9,57.676-39.677,0-19.391-14.717-30.131-33.512-30.131-14.618,0-35.3,7.06-42.462,9.248C-240.287-77.858-246.055-76.366-249.734-75.769Zm149.162-24.761-16.507-1.591a79.2,79.2,0,0,1-2.486,16.209q-3.878.3-7.756.3c-3.282,0-9.248-.2-13.822-.7l1.094,13.922c4.574.3,8.651.4,12.828.4,1.094,0,2.088,0,3.182-.1-4.375,10.342-11.933,24.264-19.689,34.009l14.518,7.359c8.055-11.436,16.408-28.838,21.082-42.859a135.688,135.688,0,0,0,16.905-3.381l-.4-13.822C-95-89.791-99.18-88.8-103.853-87.9-102.461-92.873-101.268-97.448-100.572-100.53Zm-4.972,68.714c0-2.884,3.083-4.873,7.955-4.873a37.09,37.09,0,0,1,6.762.7v.5c0,5.569-1.79,9.049-7.756,9.049C-102.759-26.446-105.544-28.634-105.544-31.816ZM-77.3-69.405H-92.418c.3,5.569.7,13.822,1.094,20.883a45.523,45.523,0,0,0-5.27-.3c-15.314,0-23.17,8.552-23.17,18.5,0,11.535,10.242,17.7,23.369,17.7,14.717,0,19.888-7.16,20.187-16.706A106.18,106.18,0,0,1-64.176-19.187l7.955-12.927A64.755,64.755,0,0,0-76.805-45.042c-.2-4.177-.4-8.055-.5-10.441C-77.4-60.356-77.6-65.129-77.3-69.405Zm15.513,6.762,8.552-12.729A201.235,201.235,0,0,0-78.6-89l-7.756,11.933C-79.391-73.979-67.756-67.317-61.79-62.643Zm65.532-35.3-17.9-1.889a100.663,100.663,0,0,1-1.889,20.783c-4.475.3-8.552.6-11.436.7a113.508,113.508,0,0,1-11.635,0l1.392,16.209c3.282-.6,9.049-1.392,12.231-1.889,1.392-.2,3.58-.5,6.165-.895-3.679,13.623-10.143,32.517-19.59,45.246l15.712,6.265C-14.754-27.043-7.3-51.108-3.318-66.621q2.983-.3,4.773-.3c6.165,0,9.149.895,9.149,8.154,0,9.248-1.193,20.883-3.679,25.855-1.293,2.685-3.58,3.779-6.762,3.779A64.675,64.675,0,0,1-11.969-31.22l2.585,15.811A60.443,60.443,0,0,0,2.748-14.016c8.055,0,13.922-2.486,17.3-9.646,4.276-8.751,5.569-25.059,5.569-36.694,0-14.916-7.558-20.286-18.993-20.286-1.79,0-4.077.1-6.762.3.6-2.585,1.193-5.37,1.79-8.055C2.251-91.183,3.046-94.962,3.742-97.945ZM46.8-106.994l-9.347,3.779a110.923,110.923,0,0,1,7.856,13.723l9.347-3.978A141.929,141.929,0,0,0,46.8-106.994Zm-12.231,4.773-9.348,3.779A95.187,95.187,0,0,1,31.984-86.31l-8.453,3.58c7.16,9.149,13.822,26.75,16.209,38.285l15.413-7.06c-2.685-9.149-10.143-26.352-16.11-35.7L42.326-88.6C40.536-92.078,37.055-98.541,34.569-102.221Zm64.836,1.79L83-101.127a110.569,110.569,0,0,1-.8,11.436,240.665,240.665,0,0,0-2.585,31.722,117.468,117.468,0,0,0,1.293,17l14.817-.994a83.483,83.483,0,0,1-.6-9.546c0-13.126,9.646-30.529,20.982-30.529,7.06,0,12.132,6.961,12.132,22.076,0,23.568-14.817,30.031-37.191,33.512L100.2-12.425c27.346-5.072,44.45-19.093,44.45-47.533,0-22.474-11.436-36.2-25.656-36.2-10.342,0-18.1,6.165-23.269,12.43A146.088,146.088,0,0,1,99.405-100.431Z" transform="translate(772.734 301.425)" fill="url(#linear-gradient)"/>
  </g>
</svg>
