<svg xmlns="http://www.w3.org/2000/svg" width="88" height="88" viewBox="0 0 88 88">
  <g id="グループ_6523" data-name="グループ 6523" transform="translate(-762 -364)">
    <circle id="楕円形_265" data-name="楕円形 265" cx="44" cy="44" r="44" transform="translate(762 364)" fill="#f5f5f5"/>
    <g id="グループ_6518" data-name="グループ 6518" transform="translate(774 380.085)">
      <g id="グループ_6519" data-name="グループ 6519">
        <path id="パス_33242" data-name="パス 33242" d="M794.432,413.816l-4.647,10.6,15.646,12.358,5.951-1.02,5.159-1.984.736-5.839-10.09-12.7a27.6,27.6,0,0,0-7.322-1.715A21.779,21.779,0,0,0,794.432,413.816Z" transform="translate(-774 -380.085)" fill="#fff"/>
        <path id="パス_33225" data-name="パス 33225" d="M74.457,76.853c-7.31,4.907-12.763-3.177-12.763-3.177-2.584-3.532-4.433.118-4.433.118-1.36,3.3-3.319,3-4.475,2.436a1.349,1.349,0,0,1-.676-1.591l.872-2.994a4.626,4.626,0,0,1,2.578-2.94l3.3-1.451a5.751,5.751,0,0,1,3.722-.1l8.6,2.035Z" transform="translate(-26.634 -34.228)" fill="#fff" stroke="#333" stroke-linecap="round" stroke-linejoin="round" stroke-width="1"/>
        <path id="パス_33226" data-name="パス 33226" d="M92,91.527l-5.661,1.8-3.547-4.943s4.141,1.715,7.393-1.1Z" transform="translate(-42.359 -44.659)" fill="#fff" stroke="#333" stroke-linecap="round" stroke-linejoin="round" stroke-width="1"/>
        <path id="パス_33227" data-name="パス 33227" d="M22.931,63.2l6.418,2.7-5.69,13.3-6.281-2.443" transform="translate(-8.891 -32.339)" fill="#ff8e6f" stroke="#333" stroke-linecap="round" stroke-linejoin="round" stroke-width="1"/>
        <path id="パス_33228" data-name="パス 33228" d="M97.629,66.051l-6.418,2.7,5.69,13.3,6.28-2.443" transform="translate(-46.668 -33.795)" fill="#f77ee6" stroke="#333" stroke-linecap="round" stroke-linejoin="round" stroke-width="1"/>
        <path id="パス_33229" data-name="パス 33229" d="M76.843,89.47l4.881,6.121A1.739,1.739,0,0,1,82,97.252a1.984,1.984,0,0,1-3.316.7l-6.7-7.111" transform="translate(-36.833 -45.777)" fill="#fff" stroke="#333" stroke-linecap="round" stroke-linejoin="round" stroke-width="1"/>
        <path id="パス_33230" data-name="パス 33230" d="M65.919,99.129l5.639,5.9a2.92,2.92,0,0,0,4.889-1.084q.016-.048.031-.1" transform="translate(-33.727 -50.719)" fill="#fff" stroke="#333" stroke-linecap="round" stroke-linejoin="round" stroke-width="1"/>
        <path id="パス_33231" data-name="パス 33231" d="M60.385,104.808l4.664,5.179A2.954,2.954,0,0,0,67.056,111a3.173,3.173,0,0,0,2.931-1.821" transform="translate(-30.896 -53.625)" fill="#fff" stroke="#333" stroke-linecap="round" stroke-linejoin="round" stroke-width="1"/>
        <path id="パス_33232" data-name="パス 33232" d="M51.214,69.174a35.92,35.92,0,0,0-9.324-.534" transform="translate(-21.433 -35.071)" fill="#fff" stroke="#333" stroke-linecap="round" stroke-linejoin="round" stroke-width="1"/>
        <path id="パス_33233" data-name="パス 33233" d="M32.28,91.2a115.739,115.739,0,0,1,13.465,11.339l2.186,2.1a1.909,1.909,0,0,0,3.21-1.018l.009-.061" transform="translate(-16.516 -46.663)" fill="#fff" stroke="#333" stroke-linecap="round" stroke-linejoin="round" stroke-width="1"/>
        <path id="パス_33234" data-name="パス 33234" d="M38.864,96.887l-.575.642a1.479,1.479,0,0,0,.166,2.13,1.643,1.643,0,0,0,2.271-.182l.561-.634" transform="translate(-19.398 -49.572)" fill="#fff" stroke="#333" stroke-linecap="round" stroke-linejoin="round" stroke-width="1"/>
        <path id="パス_33235" data-name="パス 33235" d="M46.239,103.56l-1.26,1.374a1.837,1.837,0,0,1-2.742-2.445l1.174-1.353" transform="translate(-21.381 -51.746)" fill="#fff" stroke="#333" stroke-linecap="round" stroke-linejoin="round" stroke-width="1"/>
        <path id="パス_33236" data-name="パス 33236" d="M49.546,106.1l-.816.889a1.823,1.823,0,0,0,2.671,2.483l.852-.9" transform="translate(-24.688 -54.286)" fill="#fff" stroke="#333" stroke-linecap="round" stroke-linejoin="round" stroke-width="1"/>
        <path id="パス_33237" data-name="パス 33237" d="M57.99,113.68l-.448.459a1.724,1.724,0,0,1-2.487-2.387l.322-.342" transform="translate(-27.928 -57.003)" fill="#fff" stroke="#333" stroke-linecap="round" stroke-linejoin="round" stroke-width="1"/>
        <path id="パス_33238" data-name="パス 33238" d="M1.5,73.612,6.526,75.6l9.009-22L1.5,47.914Z" transform="translate(-0.767 -24.515)" fill="#5096ff" stroke="#333" stroke-linecap="round" stroke-linejoin="round" stroke-width="1"/>
        <path id="パス_33239" data-name="パス 33239" d="M116.9,76.459l-5.026,1.991-9.009-22L116.9,50.76Z" transform="translate(-52.63 -25.971)" fill="#5096ff" stroke="#333" stroke-linecap="round" stroke-linejoin="round" stroke-width="1"/>
        <path id="パス_33240" data-name="パス 33240" d="M67.474,20.927l1.866.776a17.071,17.071,0,0,0,.024-10.281L67.49,12.2a1.271,1.271,0,0,1-1.619-.666,1.251,1.251,0,0,1,.671-1.619l1.877-.775a17.134,17.134,0,0,0-7.263-7.276L60.38,3.726a1.249,1.249,0,0,1-1.612.664A1.233,1.233,0,0,1,58.1,2.78L58.881.914A17.07,17.07,0,0,0,48.6.89l.772,1.873a1.249,1.249,0,0,1-.666,1.618,1.267,1.267,0,0,1-1.619-.67l-.774-1.877A17.061,17.061,0,0,0,39.038,9.1l1.867.776a1.234,1.234,0,0,1,.664,1.612,1.248,1.248,0,0,1-1.611.664l-1.868-.776a17.163,17.163,0,0,0-.022,10.28l1.873-.772a1.264,1.264,0,0,1,1.617.666,1.251,1.251,0,0,1-.668,1.62l-1.88.773a17.245,17.245,0,0,0,7.264,7.277l.776-1.867a1.247,1.247,0,0,1,1.612-.665,1.228,1.228,0,0,1,.664,1.611l-.776,1.867a16.987,16.987,0,0,0,10.281.024l-.773-1.874a1.25,1.25,0,0,1,.667-1.617,1.264,1.264,0,0,1,1.619.67l.775,1.877a17.3,17.3,0,0,0,7.276-7.264L66.526,23.2a1.23,1.23,0,0,1-.664-1.612A1.251,1.251,0,0,1,67.474,20.927Z" transform="translate(-21.525 -4.949)" fill="gold" stroke="#333" stroke-miterlimit="10" stroke-width="1"/>
        <path id="パス_33241" data-name="パス 33241" d="M60.479,30.622a7.32,7.32,0,1,0-7.32-7.321A7.329,7.329,0,0,0,60.479,30.622Z" transform="translate(-28.29 -11.714)" fill="#fff" stroke="#333" stroke-miterlimit="10" stroke-width="1"/>
      </g>
    </g>
  </g>
</svg>
