<svg xmlns="http://www.w3.org/2000/svg" xmlns:xlink="http://www.w3.org/1999/xlink" width="368" height="474" viewBox="0 0 368 474">
  <defs>
    <filter id="パス_33204" x="0" y="0" width="368" height="138" filterUnits="userSpaceOnUse">
      <feOffset dy="3" input="SourceAlpha"/>
      <feGaussianBlur stdDeviation="3" result="blur"/>
      <feFlood flood-opacity="0.161"/>
      <feComposite operator="in" in2="blur"/>
      <feComposite in="SourceGraphic"/>
    </filter>
    <filter id="パス_33205" x="0" y="120" width="368" height="34" filterUnits="userSpaceOnUse">
      <feOffset dy="3" input="SourceAlpha"/>
      <feGaussianBlur stdDeviation="3" result="blur-2"/>
      <feFlood flood-opacity="0.161"/>
      <feComposite operator="in" in2="blur-2"/>
      <feComposite in="SourceGraphic"/>
    </filter>
  </defs>
  <g id="グループ_6398" data-name="グループ 6398" transform="translate(-11 -6699)">
    <g transform="matrix(1, 0, 0, 1, 11, 6699)" filter="url(#パス_33204)">
      <path id="パス_33204-2" data-name="パス 33204" d="M0,0H350V120H0Z" transform="translate(9 6)" fill="#fff"/>
    </g>
    <g transform="matrix(1, 0, 0, 1, 11, 6699)" filter="url(#パス_33205)">
      <path id="パス_33205-2" data-name="パス 33205" d="M175,0,350,16H0Z" transform="translate(359 142) rotate(180)" fill="#fff"/>
    </g>
    <path id="パス_33202" data-name="パス 33202" d="M-10.65,2.73h1.47l3.72-14.82H-6.915ZM.435-4.905c.06-.63.09-1.26.105-1.83H6.555v1.83Zm6.12-5.355v1.83H.54v-1.83ZM8.445-12H-1.3v4.935c0,2.28-.21,5.145-2.475,7.08A7.045,7.045,0,0,1-2.4,1.305,8.069,8.069,0,0,0,.135-3.18h6.42V-1c0,.315-.12.435-.48.435-.33,0-1.59.015-2.64-.045a7.657,7.657,0,0,1,.75,1.875A9.074,9.074,0,0,0,7.5.915c.69-.3.945-.81.945-1.89Z" transform="translate(248 6800)" fill="#333"/>
    <path id="パス_33201" data-name="パス 33201" d="M-29.1-13.944h-7.488v3.312a3.488,3.488,0,0,1,1.344-.864,5.12,5.12,0,0,1,1.872-.336,5.159,5.159,0,0,1,2.988.816A4.8,4.8,0,0,1-28.644-8.9,7.091,7.091,0,0,1-28.092-6.1a6.146,6.146,0,0,1-1.584,4.452A5.909,5.909,0,0,1-34.14,0a7.83,7.83,0,0,1-3.336-.66A5.111,5.111,0,0,1-39.66-2.5a5.318,5.318,0,0,1-.84-2.712h4.008a2.159,2.159,0,0,0,.7,1.236,2.191,2.191,0,0,0,1.512.492A1.983,1.983,0,0,0-32.6-4.2a3.075,3.075,0,0,0,.552-1.92,2.561,2.561,0,0,0-.576-1.8,2.174,2.174,0,0,0-1.68-.624,2.179,2.179,0,0,0-1.344.4,1.847,1.847,0,0,0-.7,1.044h-3.96v-10.44H-29.1Zm15.6,0h-7.488v3.312a3.488,3.488,0,0,1,1.344-.864,5.12,5.12,0,0,1,1.872-.336,5.159,5.159,0,0,1,2.988.816A4.8,4.8,0,0,1-13.044-8.9,7.091,7.091,0,0,1-12.492-6.1a6.146,6.146,0,0,1-1.584,4.452A5.909,5.909,0,0,1-18.54,0a7.83,7.83,0,0,1-3.336-.66A5.111,5.111,0,0,1-24.06-2.5a5.318,5.318,0,0,1-.84-2.712h4.008a2.159,2.159,0,0,0,.7,1.236,2.191,2.191,0,0,0,1.512.492A1.983,1.983,0,0,0-17-4.2a3.075,3.075,0,0,0,.552-1.92,2.561,2.561,0,0,0-.576-1.8,2.174,2.174,0,0,0-1.68-.624,2.179,2.179,0,0,0-1.344.4,1.847,1.847,0,0,0-.7,1.044h-3.96v-10.44H-13.5ZM-5.412-3.792-8.076,3.1h-2.616L-9.3-3.792ZM-3.348-9a11.537,11.537,0,0,1,1.6-6.5A5.749,5.749,0,0,1,3.4-17.88,5.749,5.749,0,0,1,8.544-15.5,11.537,11.537,0,0,1,10.14-9a11.636,11.636,0,0,1-1.6,6.552A5.749,5.749,0,0,1,3.4-.072,5.749,5.749,0,0,1-1.752-2.448,11.636,11.636,0,0,1-3.348-9ZM6.108-9a10.352,10.352,0,0,0-.528-3.732A2.112,2.112,0,0,0,3.4-14.04a2.112,2.112,0,0,0-2.184,1.308A10.352,10.352,0,0,0,.684-9,15.69,15.69,0,0,0,.876-6.3a3.455,3.455,0,0,0,.78,1.728,2.209,2.209,0,0,0,1.74.66,2.209,2.209,0,0,0,1.74-.66A3.455,3.455,0,0,0,5.916-6.3,15.69,15.69,0,0,0,6.108-9ZM12.3-9a11.537,11.537,0,0,1,1.6-6.5,5.749,5.749,0,0,1,5.148-2.376A5.749,5.749,0,0,1,24.192-15.5a11.537,11.537,0,0,1,1.6,6.5,11.636,11.636,0,0,1-1.6,6.552A5.749,5.749,0,0,1,19.044-.072,5.749,5.749,0,0,1,13.9-2.448,11.636,11.636,0,0,1,12.3-9Zm9.456,0a10.352,10.352,0,0,0-.528-3.732,2.112,2.112,0,0,0-2.184-1.308,2.112,2.112,0,0,0-2.184,1.308A10.352,10.352,0,0,0,16.332-9a15.69,15.69,0,0,0,.192,2.7,3.455,3.455,0,0,0,.78,1.728,2.209,2.209,0,0,0,1.74.66,2.209,2.209,0,0,0,1.74-.66,3.455,3.455,0,0,0,.78-1.728A15.69,15.69,0,0,0,21.756-9Zm6.192,0a11.537,11.537,0,0,1,1.6-6.5,5.749,5.749,0,0,1,5.148-2.376A5.749,5.749,0,0,1,39.84-15.5a11.537,11.537,0,0,1,1.6,6.5,11.636,11.636,0,0,1-1.6,6.552A5.749,5.749,0,0,1,34.692-.072a5.749,5.749,0,0,1-5.148-2.376A11.636,11.636,0,0,1,27.948-9ZM37.4-9a10.352,10.352,0,0,0-.528-3.732,2.112,2.112,0,0,0-2.184-1.308,2.112,2.112,0,0,0-2.184,1.308A10.352,10.352,0,0,0,31.98-9a15.69,15.69,0,0,0,.192,2.7,3.455,3.455,0,0,0,.78,1.728,2.209,2.209,0,0,0,1.74.66,2.209,2.209,0,0,0,1.74-.66,3.455,3.455,0,0,0,.78-1.728A15.69,15.69,0,0,0,37.4-9Z" transform="translate(192 6801)" fill="#333"/>
    <path id="パス_33203" data-name="パス 33203" d="M2.382-7.945,1.354-6.1h3.6v.932H1.16v5.2H-1.292v-5.2H-5V-6.1h3.507l-1-1.846H-5v-.932h1.978l-2.769-5.054h2.7L-.316-8.736q.1.176.431.844.229-.475.448-.861l2.689-5.177H5.73L2.909-8.877H4.957v.932Z" transform="translate(140 6801)" fill="#333"/>
    <path id="パス_33200" data-name="パス 33200" d="M1.72,0H7.34c3.24,0,5.82-1.36,5.82-4.4a3.376,3.376,0,0,0-2.64-3.5v-.08a3.475,3.475,0,0,0,1.94-3.22c0-2.86-2.46-3.7-5.54-3.7H1.72ZM5.3-8.98v-3.18H6.78c1.5,0,2.2.44,2.2,1.5,0,1.02-.68,1.68-2.2,1.68Zm0,6.24V-6.36H7.08c1.74,0,2.6.5,2.6,1.72,0,1.28-.88,1.9-2.6,1.9ZM18.68.28c3.34,0,4.88-2.4,4.88-5.32V-14.9H19.98v9.58c0,1.94-.62,2.52-1.78,2.52a2.34,2.34,0,0,1-2-1.48L13.78-2.46A5.144,5.144,0,0,0,18.68.28ZM34.2-16.4H30.88c.06.38.14,1.54.14,1.96v1.26c-.34.02-.66.02-.96.02a23.589,23.589,0,0,1-2.88-.14l.06,2.92a25.861,25.861,0,0,0,2.92.1c.26,0,.54,0,.86-.02v1.14c0,.52,0,1.04.02,1.56-2.52,1.1-4.52,2.98-4.52,4.78,0,2.3,2.84,4.06,5,4.06,1.44,0,2.44-.7,2.44-3.52,0-.62-.04-2.02-.08-3.52a14.453,14.453,0,0,1,3.42-.44c1.66,0,2.66.72,2.66,1.9,0,1.22-1.12,1.96-2.66,2.22a15.209,15.209,0,0,1-2.5.14l1.1,3.14A22.6,22.6,0,0,0,38.62.8c3.42-.86,4.5-2.78,4.5-5.12,0-2.96-2.62-4.58-5.78-4.58a16.926,16.926,0,0,0-3.52.42v-.78c0-.44,0-.86.02-1.28,1.22-.14,2.5-.34,3.6-.58l-.06-3a25.247,25.247,0,0,1-3.46.68l.06-1.02C34.02-14.98,34.12-16.02,34.2-16.4Zm5.4,2.14L38.3-11.9a37.239,37.239,0,0,1,4.98,2.86l1.44-2.46A49.409,49.409,0,0,0,39.6-14.26ZM29.5-2.96c0-.56.6-1.22,1.6-1.78.02.82.04,1.5.04,1.88,0,.7-.28.78-.58.78C30.18-2.08,29.5-2.48,29.5-2.96Zm21.68.62c0-.56.64-1,1.76-1a9.114,9.114,0,0,1,1.5.12c.02.24.02.44.02.58,0,1.02-.56,1.3-1.58,1.3C51.84-1.34,51.18-1.68,51.18-2.34Zm6.22-14H54.12a7.651,7.651,0,0,1,.14,1.46v.68h-.68a37.731,37.731,0,0,1-4.84-.44l.06,2.74a46.1,46.1,0,0,0,4.8.36h.64c-.02.54-.02,1.1-.02,1.64h-.9a34.665,34.665,0,0,1-4.7-.38l.04,2.84c1.26.16,3.56.26,4.62.26h.98c.02.46.04.94.06,1.4-.32-.02-.64-.04-.98-.04-3.18,0-5.1,1.52-5.1,3.66,0,2.22,1.74,3.56,5.12,3.56C56,1.4,57.52.12,57.52-1.76v-.4A15.268,15.268,0,0,1,61.1.44l1.74-2.7a15.2,15.2,0,0,0-5.48-2.98c-.04-.68-.08-1.36-.12-2,1.9-.06,3.36-.18,5.12-.36l.02-2.84c-1.54.18-3.14.36-5.2.46,0-.52,0-1.08.02-1.66,1.92-.08,3.68-.24,4.88-.42l.02-2.76a44.824,44.824,0,0,1-4.86.52c0-.22.02-.42.02-.58C57.28-15.36,57.34-15.92,57.4-16.34Zm17.28.44-3.6-.38a20.245,20.245,0,0,1-.38,4.18c-.9.06-1.72.12-2.3.14a22.829,22.829,0,0,1-2.34,0l.28,3.26c.66-.12,1.82-.28,2.46-.38.28-.04.72-.1,1.24-.18A29.052,29.052,0,0,1,66.1-.16L69.26,1.1c1.7-2.74,3.2-7.58,4-10.7q.6-.06.96-.06c1.24,0,1.84.18,1.84,1.64a14.857,14.857,0,0,1-.74,5.2,1.354,1.354,0,0,1-1.36.76,13.008,13.008,0,0,1-2.44-.42L72.04.7a12.156,12.156,0,0,0,2.44.28A3.4,3.4,0,0,0,77.96-.96c.86-1.76,1.12-5.04,1.12-7.38,0-3-1.52-4.08-3.82-4.08-.36,0-.82.02-1.36.06.12-.52.24-1.08.36-1.62C74.38-14.54,74.54-15.3,74.68-15.9Zm6.9,1.72-2.92,1.22a22.545,22.545,0,0,1,3.26,7.82l3.1-1.42A36.468,36.468,0,0,0,81.58-14.18Zm19.2-1.66H97.52a19.279,19.279,0,0,1,.16,2.02v1.92c-1.64.14-3.38.3-4.92.44.02-.6.02-1.12.02-1.46a16.347,16.347,0,0,1,.14-2.34H89.5a18.625,18.625,0,0,1,.18,2.52v1.58c-.46.04-.84.08-1.1.1-1.18.12-2.2.16-2.74.16l.32,3.06c.52-.08,1.98-.3,2.62-.38.24-.02.54-.06.9-.1,0,1.8,0,3.62.02,4.48C89.78-.22,90.52.88,96,.88a56.358,56.358,0,0,0,5.64-.32l.12-3.32a37.8,37.8,0,0,1-6,.54c-2.74,0-2.98-.26-3.02-2.12-.02-.88-.02-2.6,0-4.3,1.54-.16,3.3-.34,4.9-.48-.02.78-.06,1.46-.12,1.94-.04.36-.2.42-.54.42A11.7,11.7,0,0,1,95.22-7l-.06,2.66a31.309,31.309,0,0,0,3.22.32c1.08,0,1.62-.26,1.86-1.42a31.641,31.641,0,0,0,.3-3.9q.63-.03,1.14-.06c.54-.02,1.76-.06,2.14-.04v-2.94c-.66.06-1.56.12-2.12.16-.34.02-.72.06-1.1.08,0-.54.02-1.12.04-1.82C100.66-14.54,100.72-15.54,100.78-15.84Zm20.64,1.2a1.067,1.067,0,0,1,1.06-1.06,1.067,1.067,0,0,1,1.06,1.06,1.067,1.067,0,0,1-1.06,1.06A1.067,1.067,0,0,1,121.42-14.64Zm-1.42,0a2.492,2.492,0,0,0,2.48,2.48,2.492,2.492,0,0,0,2.48-2.48,2.492,2.492,0,0,0-2.48-2.48A2.492,2.492,0,0,0,120-14.64Zm-11.26,8.3A24.384,24.384,0,0,1,105.6-.72L109.02.72a27.465,27.465,0,0,0,2.94-5.84A48.173,48.173,0,0,0,113.6-11c.08-.46.36-1.66.54-2.3l-3.54-.74A28.934,28.934,0,0,1,108.74-6.34Zm9.88-.22A62.551,62.551,0,0,1,120.6.6l3.62-1.18c-.56-2.08-1.62-5.34-2.28-7.06-.7-1.82-2.12-5.08-2.98-6.68l-3.24,1.04A55.437,55.437,0,0,1,118.62-6.56Zm16.9-5.52-2.88.94a37.647,37.647,0,0,1,1.66,4.48l2.9-1C136.9-8.6,135.92-11.2,135.52-12.08Zm7.46,1.64-3.42-1.1a13.333,13.333,0,0,1-2.44,6.86,13.5,13.5,0,0,1-6.7,4.16l2.54,2.6a15.848,15.848,0,0,0,6.78-5.1,16.4,16.4,0,0,0,2.68-5.68C142.56-9.18,142.7-9.66,142.98-10.44ZM130.88-11l-2.92,1.04A36.4,36.4,0,0,1,129.8-5.3l2.96-1.1C132.36-7.56,131.44-9.88,130.88-11Zm26.18-4.64-3.54-1.16a10.431,10.431,0,0,1-1.06,2.38,18.144,18.144,0,0,1-6.22,6.26l2.72,2.02A24.8,24.8,0,0,0,154-10.92h4.98a12.812,12.812,0,0,1-2.64,5A16.117,16.117,0,0,1,148.24-1l2.88,2.56a19.229,19.229,0,0,0,8.12-5.76,20.965,20.965,0,0,0,3.46-6.56,8.946,8.946,0,0,1,.78-1.64l-2.46-1.52a7.534,7.534,0,0,1-1.98.26h-3.22C156.12-14.18,156.6-15,157.06-15.64Z" transform="translate(112 6762)" fill="#333"/>
    <path id="パス_33199" data-name="パス 33199" d="M-18.16-8.01h-1.42c.04.26.07.58.1,1.01q.015.33.03.72h-3.31a9.572,9.572,0,0,1-1.11-.07v1.33c.35-.02.78-.04,1.14-.04H-20a11.874,11.874,0,0,1-4.4,3.47l.92,1.04A13.751,13.751,0,0,0-19.4-3.93c.02,1.03.02,2.03.02,2.7,0,.29-.1.42-.35.42a8.494,8.494,0,0,1-1.33-.12l.11,1.3c.57.04,1.13.06,1.74.06.76,0,1.13-.37,1.12-1.01-.02-1.35-.06-3.02-.09-4.48h1.29c.27,0,.65.02.97.03V-6.36a7.73,7.73,0,0,1-1.04.08h-1.25c0-.26-.01-.5-.01-.72A8.553,8.553,0,0,1-18.16-8.01Zm11.2.68a.58.58,0,0,1,.58-.58.578.578,0,0,1,.57.58.576.576,0,0,1-.57.57A.578.578,0,0,1-6.96-7.33Zm-.62,0a1.108,1.108,0,0,0,.02.19,4.315,4.315,0,0,1-.57.04h-4.63a11.134,11.134,0,0,1-1.19-.08v1.41c.25-.02.73-.04,1.19-.04h4.65A6.284,6.284,0,0,1-9.28-2.99,6.556,6.556,0,0,1-13.2-.64l1.09,1.2A8.032,8.032,0,0,0-8.09-2.21a10.1,10.1,0,0,0,1.5-3.64c.03-.09.05-.19.08-.3a.57.57,0,0,0,.13.01A1.2,1.2,0,0,0-5.19-7.33a1.2,1.2,0,0,0-1.19-1.2A1.2,1.2,0,0,0-7.58-7.33Zm5.67-.59-.73,1.1c.66.37,1.7,1.05,2.26,1.44L.37-6.49C-.15-6.85-1.25-7.56-1.91-7.92ZM-3.77-.82-3.02.5A12.168,12.168,0,0,0,.32-.74,12.074,12.074,0,0,0,4.3-4.33L3.53-5.69A10.194,10.194,0,0,1-.36-1.94,10.836,10.836,0,0,1-3.77-.82Zm.32-4.82-.73,1.11c.67.35,1.71,1.03,2.28,1.42l.73-1.12C-1.68-4.59-2.78-5.28-3.45-5.64ZM7.13-5.65v1.21c.24-.02.87-.04,1.24-.04h3.3v1.21H8.48c-.38,0-.83-.01-1.09-.03v1.18c.23-.01.71-.02,1.09-.02h3.19V-.81H7.89a8.581,8.581,0,0,1-.87-.04V.38c.17-.01.58-.03.86-.03h3.79c0,.15,0,.31-.01.4h1.26c0-.18-.01-.52-.01-.68V-4.95c0-.21,0-.54.01-.67-.16.01-.53.02-.77.02H8.37C8-5.6,7.39-5.62,7.13-5.65ZM17.41-7.6l-.94,1a20.792,20.792,0,0,1,2.5,2.16l1.02-1.04A20.2,20.2,0,0,0,17.41-7.6ZM16.16-.94,17,.38a10.83,10.83,0,0,0,3.71-1.41,10.634,10.634,0,0,0,3.7-3.7l-.78-1.41a9.416,9.416,0,0,1-3.64,3.89A10.307,10.307,0,0,1,16.16-.94Z" transform="translate(195 6734)" fill="#5096ff"/>
    <g id="パス_33206" data-name="パス 33206" transform="translate(20 6851)" fill="#f5f5f5">
      <path d="M 348 78 L 2 78 L 2 2 L 348 2 L 348 78 Z" stroke="none"/>
      <path d="M 4 4 L 4 76 L 346 76 L 346 4 L 4 4 M 0 0 L 350 0 L 350 80 L 0 80 L 0 0 Z" stroke="none" fill="#ddd"/>
    </g>
    <g id="パス_33218" data-name="パス 33218" transform="translate(20 7083)" fill="#f5f5f5">
      <path d="M 348 88 L 2 88 L 2 2 L 348 2 L 348 88 Z" stroke="none"/>
      <path d="M 4 4 L 4 86 L 346 86 L 346 4 L 4 4 M 0 0 L 350 0 L 350 90 L 0 90 L 0 0 Z" stroke="none" fill="#ddd"/>
    </g>
    <g id="パス_33211" data-name="パス 33211" transform="translate(20 6957)" fill="#f5f5f5">
      <path d="M 348 98 L 2 98 L 2 2 L 348 2 L 348 98 Z" stroke="none"/>
      <path d="M 4 4 L 4 96 L 346 96 L 346 4 L 4 4 M 0 0 L 350 0 L 350 100 L 0 100 L 0 0 Z" stroke="none" fill="#ddd"/>
    </g>
    <path id="パス_33208" data-name="パス 33208" d="M6.864-13.616a17.642,17.642,0,0,1-6.544,6A8.017,8.017,0,0,1,1.52-6.08a19.823,19.823,0,0,0,6.4-5.664A21.417,21.417,0,0,0,14.448-6.1a10.376,10.376,0,0,1,1.28-1.712,17.011,17.011,0,0,1-6.912-5.808ZM9.088-3.968h4.288v-1.68H9.088V-9.072h-2v8.3H4.816V-6.32H2.944V-.768H1.2V.96H14.816V-.768H9.088Zm16.88-5.424c-.176.432-.368.9-.56,1.28H22.416l.272-.048a8.6,8.6,0,0,0-.544-1.232Zm5.168,7.136V-3.824H24.912v-.7h4.8V-5.9h-4.8v-.72h5.552V-8.112H27.328c.24-.384.5-.816.752-1.28h3.008v-1.552h-2.08c.368-.56.8-1.28,1.248-2.016l-2-.48a12.889,12.889,0,0,1-1.008,2.32l.576.176H26.4v-2.608H24.608v2.608H23.424v-2.608H21.648v2.608H20.192l.784-.288a12.107,12.107,0,0,0-1.216-2.256l-1.632.56a14.342,14.342,0,0,1,.992,1.984H16.976v1.552H20.32l-.192.032a7.19,7.19,0,0,1,.544,1.248h-3.04v1.488H23.04v.72H18.432v1.376H23.04v.7H16.928v1.568H21.52A16.81,16.81,0,0,1,16.464-.384,8.875,8.875,0,0,1,17.68,1.2a15.177,15.177,0,0,0,5.36-2.592V1.392h1.872v-2.88a13.657,13.657,0,0,0,5.376,2.7,8.95,8.95,0,0,1,1.28-1.728A14.294,14.294,0,0,1,26.5-2.256Zm10.752-.112a15.235,15.235,0,0,1-.832,1.776l.432.1H38.336l.608-.176a6.513,6.513,0,0,0-.768-1.7ZM37.216-5.3h5.456v1.424H37.216ZM43.2-2.368h1.44V-6.8H35.376v4.432H37.12l-.832.208A7.656,7.656,0,0,1,37.024-.5H33.152V1.072h13.76V-.5H42.9c.272-.464.592-1.088.928-1.744Zm2.608-9.184A14.027,14.027,0,0,1,44.016-9.9c-.256-.256-.512-.528-.752-.816.7-.48,1.5-1.088,2.192-1.664l-1.44-1.024a13.39,13.39,0,0,1-1.6,1.52,10.366,10.366,0,0,1-.848-1.616l-1.632.512a15.451,15.451,0,0,0,2.192,3.7H38.016a10.771,10.771,0,0,0,1.808-3.12l-1.232-.64-.32.08H34.08v1.536h3.28a10.07,10.07,0,0,1-1.2,1.584,9.659,9.659,0,0,0-1.808-1.3l-1.04,1.04a11.146,11.146,0,0,1,1.712,1.344,11.148,11.148,0,0,1-2.7,1.648,6.761,6.761,0,0,1,1.136,1.392,14.066,14.066,0,0,0,3.616-2.528v.544H42.96v-.656a11.375,11.375,0,0,0,3.424,2.416,6.8,6.8,0,0,1,1.264-1.584,11.314,11.314,0,0,1-2.512-1.392A24.96,24.96,0,0,0,47.2-10.56Zm4.656,1.968a15.12,15.12,0,0,0,1.552-2.192A14.876,14.876,0,0,1,53.84-9.584ZM54.624-1.7,52.7-1.36V-5.232h1.984v-1.6H52.7V-8h1.648V-9.584h-.144l1.008-1.2a15.9,15.9,0,0,0-2.672-2.752H50.976a10.225,10.225,0,0,1-2.768,3.872,5.209,5.209,0,0,1,1.136,1.232c.1-.1.208-.192.3-.288V-8h1.408v1.168H48.88v1.6h2.176v4.176c-.88.144-1.68.272-2.352.368l.352,1.728c1.616-.3,3.728-.752,5.712-1.168L54.72-.592l.528.912c.912-.624,1.936-1.36,2.88-2.08L57.552-3.2c-1.04.688-2.1,1.36-2.9,1.824Zm6.928-1.776c.56-.528,1.28-1.28,1.92-2.016L61.984-6.4a13.357,13.357,0,0,1-1.44,1.92,10.378,10.378,0,0,1-.656-1.712V-6.72h3.456V-8.336H62.16v-4.688H55.6v1.568h4.8v.864H55.952v1.44H60.4v.816H54.832V-6.72h3.3V-.448c0,.16-.048.208-.224.208-.16,0-.64.016-1.088-.016a6.5,6.5,0,0,1,.448,1.648,4.208,4.208,0,0,0,2.016-.3c.5-.256.608-.7.608-1.5v-2.1A8.055,8.055,0,0,0,62.512.576,7.067,7.067,0,0,1,63.728-.992,7.377,7.377,0,0,1,60.8-3.968ZM49.04-4.32a14.561,14.561,0,0,1,.5,2.8l1.28-.352a18.275,18.275,0,0,0-.56-2.752Zm4.992,2.48c.24-.656.5-1.68.784-2.576L53.44-4.752a19.618,19.618,0,0,1-.56,2.592Zm.88-3.52a9.149,9.149,0,0,1,1.568,2.1l1.328-.88A7.814,7.814,0,0,0,56.16-6.16Zm24.256-5.5a14.452,14.452,0,0,0-2.3-2.576l-1.424.88a13.613,13.613,0,0,1,2.192,2.688ZM68.56-13.424a16.724,16.724,0,0,1-4.368,6.24,12.22,12.22,0,0,1,1.056,1.936A15.078,15.078,0,0,0,66.912-7.04v8.4H68.9V-9.888a25.421,25.421,0,0,0,1.488-2.944ZM79.408-7.68l-.272-1.792-4.56.592c-.112-1.36-.176-2.864-.208-4.432H72.432c.048,1.68.144,3.248.256,4.688l-3.232.432.272,1.84,3.152-.432C73.456-1.9,74.72,1.1,77.424,1.36c.9.048,1.76-.688,2.16-3.776A6.546,6.546,0,0,1,78.032-3.5c-.128,1.776-.32,2.576-.688,2.544-1.28-.16-2.128-2.528-2.576-6.08Zm15.52-4.96H87.152v1.808h7.776ZM84.08-13.552a14.234,14.234,0,0,1-3.616,3.408A11.061,11.061,0,0,1,81.52-8.592a21.48,21.48,0,0,0,4.4-4.208Zm.608,3.456a15.589,15.589,0,0,1-4.4,4.784,18.749,18.749,0,0,1,1.3,1.648c.432-.352.864-.752,1.312-1.184V1.408h1.9V-6.944a21.222,21.222,0,0,0,1.712-2.448ZM95.328-8.24H86.48v1.808H91.2V-.864c0,.24-.112.3-.4.3-.288.016-1.344.016-2.256-.032a8.091,8.091,0,0,1,.576,1.936,8.833,8.833,0,0,0,3.12-.32c.7-.288.9-.816.9-1.84V-6.432h2.192Z" transform="translate(147 6912)" fill="#333"/>
    <g id="パス_33207" data-name="パス 33207" transform="translate(183 6865)" fill="none">
      <path d="M12,0A12,12,0,1,1,0,12,12,12,0,0,1,12,0Z" stroke="none"/>
      <path d="M 12 3 C 7.037380218505859 3 3 7.037380218505859 3 12 C 3 16.96261978149414 7.037380218505859 21 12 21 C 16.96261978149414 21 21 16.96261978149414 21 12 C 21 7.037380218505859 16.96261978149414 3 12 3 M 12 0 C 18.62742042541504 0 24 5.372579574584961 24 12 C 24 18.62742042541504 18.62742042541504 24 12 24 C 5.372579574584961 24 0 18.62742042541504 0 12 C 0 5.372579574584961 5.372579574584961 0 12 0 Z" stroke="none" fill="#555"/>
    </g>
    <path id="パス_29183" data-name="パス 29183" d="M636.986,3416.355l2.979,2.81,7.021-6" transform="translate(-446.986 3460.834)" fill="none" stroke="#555" stroke-width="3"/>
    <path id="パス_33220" data-name="パス 33220" d="M9.168-12.48l-2.336-.768a7.7,7.7,0,0,1-.72,1.68A14.088,14.088,0,0,1,1.12-6.416L2.912-5.088A18.237,18.237,0,0,0,6.944-8.96h4.5A11.374,11.374,0,0,1,9.168-4.592,12.751,12.751,0,0,1,2.72-.64l1.888,1.7a14.94,14.94,0,0,0,6.464-4.512A16.694,16.694,0,0,0,13.856-8.8a6.406,6.406,0,0,1,.528-1.152L12.752-10.96a5.131,5.131,0,0,1-1.392.192H8.144c.016-.032.032-.048.048-.08C8.384-11.2,8.8-11.92,9.168-12.48Zm8.3,5.072V-4.9c.592-.048,1.664-.08,2.576-.08H28.64c.672,0,1.488.064,1.872.08V-7.408c-.416.032-1.12.1-1.872.1H20.048C19.216-7.312,18.048-7.36,17.472-7.408ZM44.4-12a.874.874,0,0,1,.88-.864.86.86,0,0,1,.864.864.86.86,0,0,1-.864.864A.874.874,0,0,1,44.4-12Zm-.976,0a1.857,1.857,0,0,0,1.856,1.856A1.844,1.844,0,0,0,47.12-12a1.844,1.844,0,0,0-1.84-1.856A1.857,1.857,0,0,0,43.424-12Zm-2.208-.624H38.848a8.289,8.289,0,0,1,.144,1.392v1.28H34.928a12.182,12.182,0,0,1-1.552-.128v2.128c.448-.048,1.072-.064,1.552-.064h4.064V-8c0,.752,0,5.824-.016,6.416-.016.416-.176.576-.592.576A11.066,11.066,0,0,1,36.608-1.2L36.8.784a23.1,23.1,0,0,0,2.608.144c1.136,0,1.664-.576,1.664-1.5v-7.44h3.744c.432,0,1.056.016,1.568.048v-2.1a12.949,12.949,0,0,1-1.584.112H41.072v-1.28A12.97,12.97,0,0,1,41.216-12.624Zm-3.76,6.88-1.808-.848A16.673,16.673,0,0,1,32.64-2.464L34.368-1.28A25.112,25.112,0,0,0,37.456-5.744Zm6.88-.9L42.592-5.7a30.378,30.378,0,0,1,2.592,4.288l1.888-1.024A37.191,37.191,0,0,0,44.336-6.64Zm7.52-5.52-1.5,1.6a33.268,33.268,0,0,1,4,3.456l1.632-1.664A32.315,32.315,0,0,0,51.856-12.16Zm-2,10.656L51.2.608a17.328,17.328,0,0,0,5.936-2.256,17.014,17.014,0,0,0,5.92-5.92L61.808-9.824A15.066,15.066,0,0,1,55.984-3.6,16.491,16.491,0,0,1,49.856-1.5Zm24.032-.864a15.234,15.234,0,0,1-.832,1.776l.432.1H70.336l.608-.176a6.513,6.513,0,0,0-.768-1.7ZM69.216-5.3h5.456v1.424H69.216ZM75.2-2.368h1.44V-6.8H67.376v4.432H69.12l-.832.208A7.656,7.656,0,0,1,69.024-.5H65.152V1.072h13.76V-.5H74.9c.272-.464.592-1.088.928-1.744Zm2.608-9.184A14.028,14.028,0,0,1,76.016-9.9c-.256-.256-.512-.528-.752-.816.7-.48,1.5-1.088,2.192-1.664l-1.44-1.024a13.39,13.39,0,0,1-1.6,1.52,10.366,10.366,0,0,1-.848-1.616l-1.632.512a15.452,15.452,0,0,0,2.192,3.7H70.016a10.771,10.771,0,0,0,1.808-3.12l-1.232-.64-.32.08H66.08v1.536h3.28a10.07,10.07,0,0,1-1.2,1.584,9.659,9.659,0,0,0-1.808-1.3l-1.04,1.04a11.146,11.146,0,0,1,1.712,1.344,11.148,11.148,0,0,1-2.7,1.648,6.761,6.761,0,0,1,1.136,1.392,14.066,14.066,0,0,0,3.616-2.528v.544H74.96v-.656a11.376,11.376,0,0,0,3.424,2.416,6.8,6.8,0,0,1,1.264-1.584,11.314,11.314,0,0,1-2.512-1.392A24.96,24.96,0,0,0,79.2-10.56Zm4.656,1.968a15.12,15.12,0,0,0,1.552-2.192A14.876,14.876,0,0,1,85.84-9.584ZM86.624-1.7,84.7-1.36V-5.232h1.984v-1.6H84.7V-8h1.648V-9.584h-.144l1.008-1.2a15.9,15.9,0,0,0-2.672-2.752H82.976a10.224,10.224,0,0,1-2.768,3.872,5.209,5.209,0,0,1,1.136,1.232c.1-.1.208-.192.3-.288V-8h1.408v1.168H80.88v1.6h2.176v4.176c-.88.144-1.68.272-2.352.368l.352,1.728c1.616-.3,3.728-.752,5.712-1.168L86.72-.592l.528.912c.912-.624,1.936-1.36,2.88-2.08L89.552-3.2c-1.04.688-2.1,1.36-2.9,1.824Zm6.928-1.776c.56-.528,1.28-1.28,1.92-2.016L93.984-6.4a13.357,13.357,0,0,1-1.44,1.92,10.378,10.378,0,0,1-.656-1.712V-6.72h3.456V-8.336H94.16v-4.688H87.6v1.568h4.8v.864H87.952v1.44H92.4v.816H86.832V-6.72h3.3V-.448c0,.16-.048.208-.224.208-.16,0-.64.016-1.088-.016a6.5,6.5,0,0,1,.448,1.648,4.208,4.208,0,0,0,2.016-.3c.5-.256.608-.7.608-1.5v-2.1A8.055,8.055,0,0,0,94.512.576,7.067,7.067,0,0,1,95.728-.992,7.377,7.377,0,0,1,92.8-3.968ZM81.04-4.32a14.561,14.561,0,0,1,.5,2.8l1.28-.352a18.275,18.275,0,0,0-.56-2.752Zm4.992,2.48c.24-.656.5-1.68.784-2.576L85.44-4.752a19.619,19.619,0,0,1-.56,2.592Zm.88-3.52a9.149,9.149,0,0,1,1.568,2.1l1.328-.88A7.814,7.814,0,0,0,88.16-6.16Zm24.256-5.5a14.452,14.452,0,0,0-2.3-2.576l-1.424.88a13.613,13.613,0,0,1,2.192,2.688Zm-10.608-2.56a16.724,16.724,0,0,1-4.368,6.24,12.22,12.22,0,0,1,1.056,1.936A15.078,15.078,0,0,0,98.912-7.04v8.4H100.9V-9.888a25.421,25.421,0,0,0,1.488-2.944ZM111.408-7.68l-.272-1.792-4.56.592c-.112-1.36-.176-2.864-.208-4.432h-1.936c.048,1.68.144,3.248.256,4.688l-3.232.432.272,1.84,3.152-.432c.576,4.88,1.84,7.888,4.544,8.144.9.048,1.76-.688,2.16-3.776A6.546,6.546,0,0,1,110.032-3.5c-.128,1.776-.32,2.576-.688,2.544-1.28-.16-2.128-2.528-2.576-6.08Zm15.52-4.96h-7.776v1.808h7.776Zm-10.848-.912a14.234,14.234,0,0,1-3.616,3.408,11.061,11.061,0,0,1,1.056,1.552,21.48,21.48,0,0,0,4.4-4.208Zm.608,3.456a15.589,15.589,0,0,1-4.4,4.784,18.749,18.749,0,0,1,1.3,1.648c.432-.352.864-.752,1.312-1.184V1.408h1.9V-6.944a21.222,21.222,0,0,0,1.712-2.448Zm10.64,1.856H118.48v1.808h4.72V-.864c0,.24-.112.3-.4.3-.288.016-1.344.016-2.256-.032a8.091,8.091,0,0,1,.576,1.936,8.833,8.833,0,0,0,3.12-.32c.7-.288.9-.816.9-1.84V-6.432h2.192Z" transform="translate(131 7139.5)" fill="#333"/>
    <g id="パス_33219" data-name="パス 33219" transform="translate(183 7092.5)" fill="none">
      <path d="M12,0A12,12,0,1,1,0,12,12,12,0,0,1,12,0Z" stroke="none"/>
      <path d="M 12 3 C 7.037380218505859 3 3 7.037380218505859 3 12 C 3 16.96261978149414 7.037380218505859 21 12 21 C 16.96261978149414 21 21 16.96261978149414 21 12 C 21 7.037380218505859 16.96261978149414 3 12 3 M 12 0 C 18.62742042541504 0 24 5.372579574584961 24 12 C 24 18.62742042541504 18.62742042541504 24 12 24 C 5.372579574584961 24 0 18.62742042541504 0 12 C 0 5.372579574584961 5.372579574584961 0 12 0 Z" stroke="none" fill="#555"/>
    </g>
    <path id="パス_29183-2" data-name="パス 29183" d="M636.986,3416.355l2.979,2.81,7.021-6" transform="translate(-446.986 3688.334)" fill="none" stroke="#555" stroke-width="3"/>
    <path id="パス_33221" data-name="パス 33221" d="M5-5.9a.755.755,0,0,0,.75-.75A.755.755,0,0,0,5-7.4a.755.755,0,0,0-.75.75A.755.755,0,0,0,5-5.9ZM5-4.09,1.7-7.39l-.29.29,3.3,3.3L1.4-.49l.29.29L5-3.51,8.3-.21,8.59-.5,5.29-3.8l3.3-3.3L8.3-7.39ZM2.9-3.8a.755.755,0,0,0-.75-.75.755.755,0,0,0-.75.75.755.755,0,0,0,.75.75A.755.755,0,0,0,2.9-3.8Zm4.2,0a.755.755,0,0,0,.75.75A.755.755,0,0,0,8.6-3.8a.755.755,0,0,0-.75-.75A.755.755,0,0,0,7.1-3.8ZM5-1.7a.755.755,0,0,0-.75.75A.755.755,0,0,0,5-.2a.755.755,0,0,0,.75-.75A.755.755,0,0,0,5-1.7ZM16.94-5.85a8.848,8.848,0,0,1-1.95,3.2A9.067,9.067,0,0,1,13-5.85Zm2.58,0v-.9H15.47V-8.39h-.95v1.64H10.53v.9h1.45a11.341,11.341,0,0,0,2.25,3.89A10.4,10.4,0,0,1,10.38-.1a4.854,4.854,0,0,1,.59.91,11.52,11.52,0,0,0,3.97-2.08A9.787,9.787,0,0,0,18.98.79a5.036,5.036,0,0,1,.67-.92,9.332,9.332,0,0,1-3.93-1.86,10.734,10.734,0,0,0,2.31-3.86ZM26.47-6.9a7.828,7.828,0,0,1-.44.92H23.96a3.413,3.413,0,0,0-.43-.92Zm3,.92H27.02c.16-.26.33-.58.51-.9l-.1-.02h1.43v-.75h-3.4v-.74h-.97v.74H21.18v.75h1.58l-.21.04a3.979,3.979,0,0,1,.43.88H20.53v.76h8.94ZM22.53-2.9h4.91v.61H22.53Zm0-1.22h4.91v.6H22.53ZM29.48-1.1H25.47v-.56h2.92v-3.1H21.62v3.1h2.87v.56H20.51v.77h3.98V.78h.98V-.33h4.01Zm3.69-6.76-.99.41c.47,1.07.97,2.2,1.43,3.04a3.277,3.277,0,0,0-1.7,2.6c0,1.6,1.42,2.15,3.35,2.15A19.091,19.091,0,0,0,38.44.1l.01-1.14a14.9,14.9,0,0,1-3.23.36c-1.49,0-2.24-.46-2.24-1.24,0-.73.56-1.36,1.44-1.94.95-.62,2.28-1.24,2.94-1.58.32-.16.6-.31.86-.47l-.55-.91a5.545,5.545,0,0,1-.8.53c-.52.29-1.51.78-2.39,1.31A23.365,23.365,0,0,1,33.17-7.86ZM48.21-.7h-6.4V-6.05H40.9V.78h.91V.18h6.4V.76h.91V-6.05h-.91ZM46.55-4.06H45.37V-5.15h1.18Zm0,1.84H45.37v-1.1h1.18Zm-3.16-1.1h1.17v1.1H43.39Zm0-1.83h1.17v1.09H43.39Zm-2.8-2.61v.86H44.5v.98H42.61v4.47h4.75V-5.92H45.43V-6.9h3.98v-.86Zm11.68-.59A11.621,11.621,0,0,1,50.21-4.4a7.2,7.2,0,0,1,.46.98,8.926,8.926,0,0,0,.8-1.1V.78h.88V-6.14a18.321,18.321,0,0,0,.78-1.97Zm1.95,2.58H55.8v.97H54.22Zm2.34-1.31a4.145,4.145,0,0,1-.48.66h-1.8q.285-.33.54-.66ZM58.33-4.8H56.65v-.97h1.68Zm.57.91a11.238,11.238,0,0,1-1.18,1.01,8.344,8.344,0,0,1-.42-1.28h1.92V-6.42H57.09a8.833,8.833,0,0,0,.68-1l-.56-.4-.16.05H55.29q.15-.225.27-.45l-.89-.16A6.865,6.865,0,0,1,52.58-6a2.658,2.658,0,0,1,.68.53l.11-.09v1.4h1.75a9.969,9.969,0,0,1-2.33.97,5.907,5.907,0,0,1,.53.63,11.592,11.592,0,0,0,1.74-.79c.12.11.24.23.35.35a9.171,9.171,0,0,1-2.54,1.22,2.765,2.765,0,0,1,.44.61A11.743,11.743,0,0,0,55.77-2.5a3.778,3.778,0,0,1,.25.49A9.919,9.919,0,0,1,52.7-.18a3.31,3.31,0,0,1,.5.68,12.367,12.367,0,0,0,3-1.73,1.216,1.216,0,0,1-.29,1.07.674.674,0,0,1-.55.18c-.19,0-.48-.01-.78-.04a1.83,1.83,0,0,1,.21.79c.27.02.54.02.75.02a1.408,1.408,0,0,0,.99-.34c.79-.64.79-2.81-.84-4.18.21-.14.41-.28.6-.43h.22A7.094,7.094,0,0,0,59.08.38a3.081,3.081,0,0,1,.6-.73,4.43,4.43,0,0,1-1.65-1.86,12.7,12.7,0,0,0,1.52-1.13Zm10.26.38a3.7,3.7,0,0,0-3.92-3.77,4.335,4.335,0,0,0-4.47,4.16c0,1.67.91,2.77,1.9,2.77s1.82-1.13,2.42-3.17a19.912,19.912,0,0,0,.6-2.81,2.659,2.659,0,0,1,2.42,2.79A2.876,2.876,0,0,1,65.69-.7a6.181,6.181,0,0,1-.89.14l.59.94C67.82.03,69.16-1.41,69.16-3.51Zm-7.38.29a3.343,3.343,0,0,1,2.85-3.09,15.92,15.92,0,0,1-.55,2.58c-.46,1.54-.93,2.19-1.38,2.19C62.27-1.54,61.78-2.07,61.78-3.22ZM77.99-6.73H74.95v-.65h3.04Zm0,1.29H74.95V-6.1h3.04Zm.89-2.63H74.1v3.32h4.78ZM73.52-3.26l-.13-.84-.96.28V-5.58h1.06v-.86H72.43V-8.37h-.85v1.93H70.42v.86h1.16v2.01c-.47.13-.91.25-1.26.34l.21.9,1.05-.32V-.33c0,.14-.05.18-.17.18s-.48,0-.88-.01a2.968,2.968,0,0,1,.25.86,2.833,2.833,0,0,0,1.3-.18c.26-.14.35-.39.35-.85V-2.92ZM76.9-1.6h2v-.74h-2V-3.38h2.51v-.76H73.63v.76h2.4V-.46a2.264,2.264,0,0,1-1.12-1.38,10.359,10.359,0,0,0,.19-1.05l-.84-.1A4.6,4.6,0,0,1,72.81.23a4.317,4.317,0,0,1,.69.56A4.34,4.34,0,0,0,74.63-.92C75.28.4,76.32.65,77.71.65h1.72a2.907,2.907,0,0,1,.26-.82c-.38.01-1.67.01-1.95.01a5.747,5.747,0,0,1-.84-.05ZM87.97-3.36V-.73H85.42V-3.96h3.12v-3.5h-.98v2.6H85.42V-8.32h-.95v3.46H82.43V-7.45H81.5v3.49h2.97V-.73H82.06V-3.36h-.94V.79h.94V.18h5.91V.77h.96V-3.36Zm8.16-3.25c-.57-.45-1.62-1.22-2.44-1.76l-.61.66c.8.56,1.86,1.36,2.43,1.86ZM91.42-5.53a9.144,9.144,0,0,1-1.1,3.28l.91.35a11.278,11.278,0,0,0,1.08-3.41Zm3.22,5.3c-.55,0-.65-.09-.65-.57v-.87a18.345,18.345,0,0,0,4.72-5.75l-.94-.39a15.991,15.991,0,0,1-3.78,4.94V-6.06h-.98v3.99A14.267,14.267,0,0,1,90.34-.48a4.221,4.221,0,0,1,.61.73,14.979,14.979,0,0,0,2.06-1.2v.14c0,1.18.34,1.5,1.53,1.5h1.9C97.58.69,97.86.14,98-1.64a3.08,3.08,0,0,1-.91-.4c-.08,1.5-.17,1.81-.72,1.81Zm2.63-4.43a12.778,12.778,0,0,1,1.51,3.14l.9-.45a13.6,13.6,0,0,0-1.57-3.08Zm10.99-.17h-3.02v-.83h3.02Zm0,1.48h-3.02v-.84h3.02Zm0,1.49h-3.02V-2.7h3.02Zm-3.9-4.49v5.18h4.81V-6.35h-2.23c.09-.25.18-.53.27-.8h2.31v-.78h-5.59v.78h2.23c-.04.26-.1.54-.16.8Zm-1.55-1.87a8,8,0,0,1-2.44,1.92,3.358,3.358,0,0,1,.69.66,10.052,10.052,0,0,0,2.63-2.21Zm.2,2.77a7.8,7.8,0,0,1-2.51,2.03,4.131,4.131,0,0,1,.69.7,9.66,9.66,0,0,0,2.67-2.36Zm.22,2.77a6.816,6.816,0,0,1-2.87,2.51,3.579,3.579,0,0,1,.67.75,8.2,8.2,0,0,0,3.07-2.92Zm2.24,1.65A8.106,8.106,0,0,1,103.15.14a5.869,5.869,0,0,1,.58.65,9.37,9.37,0,0,0,2.52-1.3Zm1.6.54A14.019,14.019,0,0,1,109.02.8l.74-.56a13.231,13.231,0,0,0-2-1.23Z" transform="translate(139.5 7160.5)" fill="#555"/>
    <path id="パス_33210" data-name="パス 33210" d="M0,0H14" transform="translate(188 6944)" fill="none" stroke="#333" stroke-linecap="round" stroke-width="3"/>
    <path id="パス_33209" data-name="パス 33209" d="M0,0H14" transform="translate(195 6937) rotate(90)" fill="none" stroke="#333" stroke-linecap="round" stroke-width="3"/>
    <path id="パス_33217" data-name="パス 33217" d="M0,0H14" transform="translate(188 7070)" fill="none" stroke="#333" stroke-linecap="round" stroke-width="3"/>
    <path id="パス_33216" data-name="パス 33216" d="M0,0H14" transform="translate(195 7063) rotate(90)" fill="none" stroke="#333" stroke-linecap="round" stroke-width="3"/>
    <path id="パス_33213" data-name="パス 33213" d="M12.864-11.728a.929.929,0,0,1,.928-.928.925.925,0,0,1,.912.928.922.922,0,0,1-.912.912A.925.925,0,0,1,12.864-11.728Zm-.992,0a1.772,1.772,0,0,0,.032.3,6.9,6.9,0,0,1-.912.064H3.584a17.815,17.815,0,0,1-1.9-.128v2.256c.4-.032,1.168-.064,1.9-.064h7.44A10.055,10.055,0,0,1,9.152-4.784,10.489,10.489,0,0,1,2.88-1.024L4.624.9a12.851,12.851,0,0,0,6.432-4.432,16.151,16.151,0,0,0,2.4-5.824c.048-.144.08-.3.128-.48a.912.912,0,0,0,.208.016,1.919,1.919,0,0,0,1.9-1.9,1.922,1.922,0,0,0-1.9-1.92A1.926,1.926,0,0,0,11.872-11.728ZM19.12-.64,20.64.672A4.13,4.13,0,0,1,21.584.24a20.05,20.05,0,0,0,9.28-5.76L29.728-7.328a18.333,18.333,0,0,1-8.224,5.3v-8.32a11.7,11.7,0,0,1,.16-1.824H19.152a10.222,10.222,0,0,1,.176,1.824V-1.68A2.09,2.09,0,0,1,19.12-.64ZM45.344-10.848l-1.312-.976a5.735,5.735,0,0,1-1.648.208H36.736a17.875,17.875,0,0,1-1.888-.112v2.272c.336-.016,1.216-.112,1.888-.112H42.16a12.4,12.4,0,0,1-2.384,3.92,17.936,17.936,0,0,1-6.56,4.592L34.864.672a21.076,21.076,0,0,0,6.016-4.5A36.486,36.486,0,0,1,44.912.7L46.736-.88a44.979,44.979,0,0,0-4.464-4.576,23.524,23.524,0,0,0,2.512-4.4A7.56,7.56,0,0,1,45.344-10.848Zm15.5-1.568H58.432a11.287,11.287,0,0,1,.1,1.6v3.04c0,2.5-.208,3.7-1.312,4.9a7.239,7.239,0,0,1-3.84,2.016L55.04.9a9.421,9.421,0,0,0,3.888-2.3c1.184-1.312,1.856-2.8,1.856-6.24v-3.168C60.784-11.456,60.816-11.968,60.848-12.416Zm-7.424.128h-2.3a11.361,11.361,0,0,1,.064,1.232v5.392c0,.48-.064,1.1-.08,1.408h2.32c-.032-.368-.048-.992-.048-1.392v-5.408C53.376-11.568,53.392-11.92,53.424-12.288Zm23.424-.128H74.432a11.287,11.287,0,0,1,.1,1.6v3.04c0,2.5-.208,3.7-1.312,4.9a7.239,7.239,0,0,1-3.84,2.016L71.04.9a9.421,9.421,0,0,0,3.888-2.3c1.184-1.312,1.856-2.8,1.856-6.24v-3.168C76.784-11.456,76.816-11.968,76.848-12.416Zm-7.424.128h-2.3a11.361,11.361,0,0,1,.064,1.232v5.392c0,.48-.064,1.1-.08,1.408h2.32c-.032-.368-.048-.992-.048-1.392v-5.408C69.376-11.568,69.392-11.92,69.424-12.288Zm12.048,4.88V-4.9c.592-.048,1.664-.08,2.576-.08H92.64c.672,0,1.488.064,1.872.08V-7.408c-.416.032-1.12.1-1.872.1H84.048C83.216-7.312,82.048-7.36,81.472-7.408Zm27.072-3.44-1.312-.976a5.735,5.735,0,0,1-1.648.208H99.936a17.875,17.875,0,0,1-1.888-.112v2.272c.336-.016,1.216-.112,1.888-.112h5.424a12.4,12.4,0,0,1-2.384,3.92,17.936,17.936,0,0,1-6.56,4.592L98.064.672a21.076,21.076,0,0,0,6.016-4.5A36.486,36.486,0,0,1,108.112.7L109.936-.88a44.98,44.98,0,0,0-4.464-4.576,23.524,23.524,0,0,0,2.512-4.4A7.561,7.561,0,0,1,108.544-10.848Zm12.544,8.48a15.234,15.234,0,0,1-.832,1.776l.432.1h-3.152l.608-.176a6.513,6.513,0,0,0-.768-1.7ZM116.416-5.3h5.456v1.424h-5.456ZM122.4-2.368h1.44V-6.8h-9.264v4.432h1.744l-.832.208A7.656,7.656,0,0,1,116.224-.5h-3.872V1.072h13.76V-.5H122.1c.272-.464.592-1.088.928-1.744Zm2.608-9.184A14.028,14.028,0,0,1,123.216-9.9c-.256-.256-.512-.528-.752-.816.7-.48,1.5-1.088,2.192-1.664l-1.44-1.024a13.39,13.39,0,0,1-1.6,1.52,10.366,10.366,0,0,1-.848-1.616l-1.632.512a15.452,15.452,0,0,0,2.192,3.7h-4.112a10.771,10.771,0,0,0,1.808-3.12l-1.232-.64-.32.08H113.28v1.536h3.28a10.07,10.07,0,0,1-1.2,1.584,9.659,9.659,0,0,0-1.808-1.3l-1.04,1.04a11.146,11.146,0,0,1,1.712,1.344,11.148,11.148,0,0,1-2.7,1.648,6.761,6.761,0,0,1,1.136,1.392,14.066,14.066,0,0,0,3.616-2.528v.544h5.888v-.656a11.376,11.376,0,0,0,3.424,2.416,6.8,6.8,0,0,1,1.264-1.584,11.314,11.314,0,0,1-2.512-1.392A24.96,24.96,0,0,0,126.4-10.56Zm4.656,1.968a15.121,15.121,0,0,0,1.552-2.192,14.876,14.876,0,0,1,1.824,2.192Zm4.16,7.888-1.92.336V-5.232h1.984v-1.6H131.9V-8h1.648V-9.584h-.144l1.008-1.2a15.9,15.9,0,0,0-2.672-2.752h-1.568a10.225,10.225,0,0,1-2.768,3.872,5.209,5.209,0,0,1,1.136,1.232c.1-.1.208-.192.3-.288V-8h1.408v1.168H128.08v1.6h2.176v4.176c-.88.144-1.68.272-2.352.368l.352,1.728c1.616-.3,3.728-.752,5.712-1.168l-.048-.464.528.912c.912-.624,1.936-1.36,2.88-2.08l-.576-1.44c-1.04.688-2.1,1.36-2.9,1.824Zm6.928-1.776c.56-.528,1.28-1.28,1.92-2.016L141.184-6.4a13.357,13.357,0,0,1-1.44,1.92,10.377,10.377,0,0,1-.656-1.712V-6.72h3.456V-8.336H141.36v-4.688H134.8v1.568h4.8v.864h-4.448v1.44H139.6v.816h-5.568V-6.72h3.3V-.448c0,.16-.048.208-.224.208-.16,0-.64.016-1.088-.016a6.5,6.5,0,0,1,.448,1.648,4.208,4.208,0,0,0,2.016-.3c.5-.256.608-.7.608-1.5v-2.1A8.055,8.055,0,0,0,141.712.576a7.066,7.066,0,0,1,1.216-1.568A7.377,7.377,0,0,1,140-3.968ZM128.24-4.32a14.56,14.56,0,0,1,.5,2.8l1.28-.352a18.274,18.274,0,0,0-.56-2.752Zm4.992,2.48c.24-.656.5-1.68.784-2.576l-1.376-.336a19.621,19.621,0,0,1-.56,2.592Zm.88-3.52a9.149,9.149,0,0,1,1.568,2.1l1.328-.88A7.814,7.814,0,0,0,135.36-6.16Zm24.256-5.5a14.452,14.452,0,0,0-2.3-2.576l-1.424.88a13.613,13.613,0,0,1,2.192,2.688Zm-10.608-2.56a16.724,16.724,0,0,1-4.368,6.24,12.22,12.22,0,0,1,1.056,1.936,15.077,15.077,0,0,0,1.664-1.792v8.4H148.1V-9.888a25.42,25.42,0,0,0,1.488-2.944ZM158.608-7.68l-.272-1.792-4.56.592c-.112-1.36-.176-2.864-.208-4.432h-1.936c.048,1.68.144,3.248.256,4.688l-3.232.432.272,1.84,3.152-.432c.576,4.88,1.84,7.888,4.544,8.144.9.048,1.76-.688,2.16-3.776A6.546,6.546,0,0,1,157.232-3.5c-.128,1.776-.32,2.576-.688,2.544-1.28-.16-2.128-2.528-2.576-6.08Zm15.52-4.96h-7.776v1.808h7.776Zm-10.848-.912a14.234,14.234,0,0,1-3.616,3.408,11.063,11.063,0,0,1,1.056,1.552,21.48,21.48,0,0,0,4.4-4.208Zm.608,3.456a15.589,15.589,0,0,1-4.4,4.784,18.748,18.748,0,0,1,1.3,1.648c.432-.352.864-.752,1.312-1.184V1.408H164V-6.944a21.221,21.221,0,0,0,1.712-2.448Zm10.64,1.856H165.68v1.808h4.72V-.864c0,.24-.112.3-.4.3-.288.016-1.344.016-2.256-.032a8.091,8.091,0,0,1,.576,1.936,8.833,8.833,0,0,0,3.12-.32c.7-.288.9-.816.9-1.84V-6.432h2.192Z" transform="translate(107.5 7011)" fill="#333"/>
    <g id="パス_33212" data-name="パス 33212" transform="translate(182.5 6964)" fill="none">
      <path d="M12,0A12,12,0,1,1,0,12,12,12,0,0,1,12,0Z" stroke="none"/>
      <path d="M 12 3 C 7.037380218505859 3 3 7.037380218505859 3 12 C 3 16.96261978149414 7.037380218505859 21 12 21 C 16.96261978149414 21 21 16.96261978149414 21 12 C 21 7.037380218505859 16.96261978149414 3 12 3 M 12 0 C 18.62742042541504 0 24 5.372579574584961 24 12 C 24 18.62742042541504 18.62742042541504 24 12 24 C 5.372579574584961 24 0 18.62742042541504 0 12 C 0 5.372579574584961 5.372579574584961 0 12 0 Z" stroke="none" fill="#555"/>
    </g>
    <path id="パス_29183-3" data-name="パス 29183" d="M636.986,3416.355l2.979,2.81,7.021-6" transform="translate(-447.486 3559.834)" fill="none" stroke="#555" stroke-width="3"/>
    <path id="パス_33214" data-name="パス 33214" d="M5-5.9a.755.755,0,0,0,.75-.75A.755.755,0,0,0,5-7.4a.755.755,0,0,0-.75.75A.755.755,0,0,0,5-5.9ZM5-4.09,1.7-7.39l-.29.29,3.3,3.3L1.4-.49l.29.29L5-3.51,8.3-.21,8.59-.5,5.29-3.8l3.3-3.3L8.3-7.39ZM2.9-3.8a.755.755,0,0,0-.75-.75.755.755,0,0,0-.75.75.755.755,0,0,0,.75.75A.755.755,0,0,0,2.9-3.8Zm4.2,0a.755.755,0,0,0,.75.75A.755.755,0,0,0,8.6-3.8a.755.755,0,0,0-.75-.75A.755.755,0,0,0,7.1-3.8ZM5-1.7a.755.755,0,0,0-.75.75A.755.755,0,0,0,5-.2a.755.755,0,0,0,.75-.75A.755.755,0,0,0,5-1.7ZM16.94-5.85a8.848,8.848,0,0,1-1.95,3.2A9.067,9.067,0,0,1,13-5.85Zm2.58,0v-.9H15.47V-8.39h-.95v1.64H10.53v.9h1.45a11.341,11.341,0,0,0,2.25,3.89A10.4,10.4,0,0,1,10.38-.1a4.854,4.854,0,0,1,.59.91,11.52,11.52,0,0,0,3.97-2.08A9.787,9.787,0,0,0,18.98.79a5.036,5.036,0,0,1,.67-.92,9.332,9.332,0,0,1-3.93-1.86,10.734,10.734,0,0,0,2.31-3.86ZM26.47-6.9a7.828,7.828,0,0,1-.44.92H23.96a3.413,3.413,0,0,0-.43-.92Zm3,.92H27.02c.16-.26.33-.58.51-.9l-.1-.02h1.43v-.75h-3.4v-.74h-.97v.74H21.18v.75h1.58l-.21.04a3.979,3.979,0,0,1,.43.88H20.53v.76h8.94ZM22.53-2.9h4.91v.61H22.53Zm0-1.22h4.91v.6H22.53ZM29.48-1.1H25.47v-.56h2.92v-3.1H21.62v3.1h2.87v.56H20.51v.77h3.98V.78h.98V-.33h4.01Zm3.69-6.76-.99.41c.47,1.07.97,2.2,1.43,3.04a3.277,3.277,0,0,0-1.7,2.6c0,1.6,1.42,2.15,3.35,2.15A19.091,19.091,0,0,0,38.44.1l.01-1.14a14.9,14.9,0,0,1-3.23.36c-1.49,0-2.24-.46-2.24-1.24,0-.73.56-1.36,1.44-1.94.95-.62,2.28-1.24,2.94-1.58.32-.16.6-.31.86-.47l-.55-.91a5.545,5.545,0,0,1-.8.53c-.52.29-1.51.78-2.39,1.31A23.365,23.365,0,0,1,33.17-7.86ZM48.21-.7h-6.4V-6.05H40.9V.78h.91V.18h6.4V.76h.91V-6.05h-.91ZM46.55-4.06H45.37V-5.15h1.18Zm0,1.84H45.37v-1.1h1.18Zm-3.16-1.1h1.17v1.1H43.39Zm0-1.83h1.17v1.09H43.39Zm-2.8-2.61v.86H44.5v.98H42.61v4.47h4.75V-5.92H45.43V-6.9h3.98v-.86Zm11.68-.59A11.621,11.621,0,0,1,50.21-4.4a7.2,7.2,0,0,1,.46.98,8.926,8.926,0,0,0,.8-1.1V.78h.88V-6.14a18.321,18.321,0,0,0,.78-1.97Zm1.95,2.58H55.8v.97H54.22Zm2.34-1.31a4.145,4.145,0,0,1-.48.66h-1.8q.285-.33.54-.66ZM58.33-4.8H56.65v-.97h1.68Zm.57.91a11.238,11.238,0,0,1-1.18,1.01,8.344,8.344,0,0,1-.42-1.28h1.92V-6.42H57.09a8.833,8.833,0,0,0,.68-1l-.56-.4-.16.05H55.29q.15-.225.27-.45l-.89-.16A6.865,6.865,0,0,1,52.58-6a2.658,2.658,0,0,1,.68.53l.11-.09v1.4h1.75a9.969,9.969,0,0,1-2.33.97,5.907,5.907,0,0,1,.53.63,11.592,11.592,0,0,0,1.74-.79c.12.11.24.23.35.35a9.171,9.171,0,0,1-2.54,1.22,2.765,2.765,0,0,1,.44.61A11.743,11.743,0,0,0,55.77-2.5a3.778,3.778,0,0,1,.25.49A9.919,9.919,0,0,1,52.7-.18a3.31,3.31,0,0,1,.5.68,12.367,12.367,0,0,0,3-1.73,1.216,1.216,0,0,1-.29,1.07.674.674,0,0,1-.55.18c-.19,0-.48-.01-.78-.04a1.83,1.83,0,0,1,.21.79c.27.02.54.02.75.02a1.408,1.408,0,0,0,.99-.34c.79-.64.79-2.81-.84-4.18.21-.14.41-.28.6-.43h.22A7.094,7.094,0,0,0,59.08.38a3.081,3.081,0,0,1,.6-.73,4.43,4.43,0,0,1-1.65-1.86,12.7,12.7,0,0,0,1.52-1.13Zm10.26.38a3.7,3.7,0,0,0-3.92-3.77,4.335,4.335,0,0,0-4.47,4.16c0,1.67.91,2.77,1.9,2.77s1.82-1.13,2.42-3.17a19.912,19.912,0,0,0,.6-2.81,2.659,2.659,0,0,1,2.42,2.79A2.876,2.876,0,0,1,65.69-.7a6.181,6.181,0,0,1-.89.14l.59.94C67.82.03,69.16-1.41,69.16-3.51Zm-7.38.29a3.343,3.343,0,0,1,2.85-3.09,15.92,15.92,0,0,1-.55,2.58c-.46,1.54-.93,2.19-1.38,2.19C62.27-1.54,61.78-2.07,61.78-3.22ZM77.99-6.73H74.95v-.65h3.04Zm0,1.29H74.95V-6.1h3.04Zm.89-2.63H74.1v3.32h4.78ZM73.52-3.26l-.13-.84-.96.28V-5.58h1.06v-.86H72.43V-8.37h-.85v1.93H70.42v.86h1.16v2.01c-.47.13-.91.25-1.26.34l.21.9,1.05-.32V-.33c0,.14-.05.18-.17.18s-.48,0-.88-.01a2.968,2.968,0,0,1,.25.86,2.833,2.833,0,0,0,1.3-.18c.26-.14.35-.39.35-.85V-2.92ZM76.9-1.6h2v-.74h-2V-3.38h2.51v-.76H73.63v.76h2.4V-.46a2.264,2.264,0,0,1-1.12-1.38,10.359,10.359,0,0,0,.19-1.05l-.84-.1A4.6,4.6,0,0,1,72.81.23a4.317,4.317,0,0,1,.69.56A4.34,4.34,0,0,0,74.63-.92C75.28.4,76.32.65,77.71.65h1.72a2.907,2.907,0,0,1,.26-.82c-.38.01-1.67.01-1.95.01a5.747,5.747,0,0,1-.84-.05ZM87.97-3.36V-.73H85.42V-3.96h3.12v-3.5h-.98v2.6H85.42V-8.32h-.95v3.46H82.43V-7.45H81.5v3.49h2.97V-.73H82.06V-3.36h-.94V.79h.94V.18h5.91V.77h.96V-3.36Zm8.16-3.25c-.57-.45-1.62-1.22-2.44-1.76l-.61.66c.8.56,1.86,1.36,2.43,1.86ZM91.42-5.53a9.144,9.144,0,0,1-1.1,3.28l.91.35a11.278,11.278,0,0,0,1.08-3.41Zm3.22,5.3c-.55,0-.65-.09-.65-.57v-.87a18.345,18.345,0,0,0,4.72-5.75l-.94-.39a15.991,15.991,0,0,1-3.78,4.94V-6.06h-.98v3.99A14.267,14.267,0,0,1,90.34-.48a4.221,4.221,0,0,1,.61.73,14.979,14.979,0,0,0,2.06-1.2v.14c0,1.18.34,1.5,1.53,1.5h1.9C97.58.69,97.86.14,98-1.64a3.08,3.08,0,0,1-.91-.4c-.08,1.5-.17,1.81-.72,1.81Zm2.63-4.43a12.778,12.778,0,0,1,1.51,3.14l.9-.45a13.6,13.6,0,0,0-1.57-3.08Zm10.99-.17h-3.02v-.83h3.02Zm0,1.48h-3.02v-.84h3.02Zm0,1.49h-3.02V-2.7h3.02Zm-3.9-4.49v5.18h4.81V-6.35h-2.23c.09-.25.18-.53.27-.8h2.31v-.78h-5.59v.78h2.23c-.04.26-.1.54-.16.8Zm-1.55-1.87a8,8,0,0,1-2.44,1.92,3.358,3.358,0,0,1,.69.66,10.052,10.052,0,0,0,2.63-2.21Zm.2,2.77a7.8,7.8,0,0,1-2.51,2.03,4.131,4.131,0,0,1,.69.7,9.66,9.66,0,0,0,2.67-2.36Zm.22,2.77a6.816,6.816,0,0,1-2.87,2.51,3.579,3.579,0,0,1,.67.75,8.2,8.2,0,0,0,3.07-2.92Zm2.24,1.65A8.106,8.106,0,0,1,103.15.14a5.869,5.869,0,0,1,.58.65,9.37,9.37,0,0,0,2.52-1.3Zm1.6.54A14.019,14.019,0,0,1,109.02.8l.74-.56a13.231,13.231,0,0,0-2-1.23Z" transform="translate(139.5 7032)" fill="#555"/>
    <path id="パス_33215" data-name="パス 33215" d="M5-5.9a.755.755,0,0,0,.75-.75A.755.755,0,0,0,5-7.4a.755.755,0,0,0-.75.75A.755.755,0,0,0,5-5.9ZM5-4.09,1.7-7.39l-.29.29,3.3,3.3L1.4-.49l.29.29L5-3.51,8.3-.21,8.59-.5,5.29-3.8l3.3-3.3L8.3-7.39ZM2.9-3.8a.755.755,0,0,0-.75-.75.755.755,0,0,0-.75.75.755.755,0,0,0,.75.75A.755.755,0,0,0,2.9-3.8Zm4.2,0a.755.755,0,0,0,.75.75A.755.755,0,0,0,8.6-3.8a.755.755,0,0,0-.75-.75A.755.755,0,0,0,7.1-3.8ZM5-1.7a.755.755,0,0,0-.75.75A.755.755,0,0,0,5-.2a.755.755,0,0,0,.75-.75A.755.755,0,0,0,5-1.7ZM12.68.13a2.206,2.206,0,0,0,2.46-2.11,1.864,1.864,0,0,0-1.52-1.84v-.05A1.779,1.779,0,0,0,14.89-5.6c0-1.21-.93-1.9-2.25-1.9a3.1,3.1,0,0,0-2.11.89l.6.72a2.144,2.144,0,0,1,1.47-.69,1.023,1.023,0,0,1,1.13,1.06c0,.74-.48,1.29-1.93,1.29v.85c1.66,0,2.18.53,2.18,1.34a1.238,1.238,0,0,1-1.4,1.23,2.378,2.378,0,0,1-1.74-.81l-.56.74A3.055,3.055,0,0,0,12.68.13ZM18.3-8.35A11.206,11.206,0,0,1,16.02-4.5a6.2,6.2,0,0,1,.51.94,10,10,0,0,0,.78-.97V.77h.88v-6.7a15.435,15.435,0,0,0,.98-2.16Zm6.94,4.83H22.59V-5.5h2.2v-.91h-2.2V-8.27h-.93v1.86H20.54c.12-.42.23-.85.32-1.28l-.9-.18a8.89,8.89,0,0,1-1.19,3.33,6.144,6.144,0,0,1,.8.45,7.133,7.133,0,0,0,.67-1.41h1.42v1.98H18.89v.91h2.77V.78h.93V-2.61h2.65Zm3.14,2.43c0-.4.46-.73,1.31-.73a4.53,4.53,0,0,1,.91.09c.01.22.01.42.01.56,0,.64-.43.81-.99.81C28.76-.36,28.38-.66,28.38-1.09ZM31.53-8H30.46a3.281,3.281,0,0,1,.05.63v.61h-.43a18.118,18.118,0,0,1-2.51-.22l.01.91c.65.08,1.85.18,2.51.18h.41v1.23h-.51a19.55,19.55,0,0,1-2.47-.18l.01.94c.69.08,1.8.13,2.44.13h.55c.01.37.03.78.04,1.17-.24-.02-.48-.04-.74-.04-1.49,0-2.38.65-2.38,1.61,0,1,.81,1.56,2.31,1.56,1.31,0,1.86-.69,1.86-1.45,0-.14-.01-.31-.02-.52A7.689,7.689,0,0,1,33.83.02l.58-.89A8.029,8.029,0,0,0,31.54-2.4c-.02-.45-.05-.93-.07-1.39.96-.04,1.79-.11,2.71-.22l.01-.93c-.87.12-1.75.21-2.74.25V-5.93c.97-.04,1.9-.13,2.64-.22v-.92a21.972,21.972,0,0,1-2.63.28c.01-.22.01-.41.02-.53C31.49-7.6,31.51-7.82,31.53-8Zm4.92,1.3.1,1.09c1.12-.24,3.45-.48,4.46-.58a4.011,4.011,0,0,0-1.7,3.25c0,2.2,2.05,3.25,4.01,3.35l.36-1.07c-1.65-.07-3.35-.68-3.35-2.5a3.316,3.316,0,0,1,2.21-3.01,9.637,9.637,0,0,1,1.95-.14V-7.32c-.69.02-1.69.08-2.76.17-1.84.16-3.62.33-4.35.4C37.18-6.73,36.83-6.71,36.45-6.7Zm6.6,1.5-.6.26a9.456,9.456,0,0,1,.8,1.4l.62-.28A13.962,13.962,0,0,0,43.05-5.2Zm1.11-.43-.6.27a9.385,9.385,0,0,1,.84,1.38l.61-.29A14.444,14.444,0,0,0,44.16-5.63Z" transform="translate(171.5 7047)" fill="#555"/>
  </g>
</svg>
