<svg xmlns="http://www.w3.org/2000/svg" xmlns:xlink="http://www.w3.org/1999/xlink" width="1129" height="178" viewBox="0 0 1129 178">
  <defs>
    <filter id="合体_9" x="0" y="0" width="314" height="178" filterUnits="userSpaceOnUse">
      <feOffset dy="3" input="SourceAlpha"/>
      <feGaussianBlur stdDeviation="3" result="blur"/>
      <feFlood flood-opacity="0.161"/>
      <feComposite operator="in" in2="blur"/>
      <feComposite in="SourceGraphic"/>
    </filter>
  </defs>
  <g id="グループ_6355" data-name="グループ 6355" transform="translate(-151 -5839)">
    <g transform="matrix(1, 0, 0, 1, 151, 5839)" filter="url(#合体_9)">
      <path id="合体_9-2" data-name="合体 9" d="M264,0l32,80-32,80ZM0,160V0H264V160Z" transform="translate(9 6)" fill="#fff"/>
    </g>
    <g id="グループ_6346" data-name="グループ 6346" transform="translate(20 -61)">
      <path id="パス_33505" data-name="パス 33505" d="M1.72,0H7.34c3.24,0,5.82-1.36,5.82-4.4a3.376,3.376,0,0,0-2.64-3.5v-.08a3.475,3.475,0,0,0,1.94-3.22c0-2.86-2.46-3.7-5.54-3.7H1.72ZM5.3-8.98v-3.18H6.78c1.5,0,2.2.44,2.2,1.5,0,1.02-.68,1.68-2.2,1.68Zm0,6.24V-6.36H7.08c1.74,0,2.6.5,2.6,1.72,0,1.28-.88,1.9-2.6,1.9ZM18.68.28c3.34,0,4.88-2.4,4.88-5.32V-14.9H19.98v9.58c0,1.94-.62,2.52-1.78,2.52a2.34,2.34,0,0,1-2-1.48L13.78-2.46A5.144,5.144,0,0,0,18.68.28ZM34.2-16.4H30.88c.06.38.14,1.54.14,1.96v1.26c-.34.02-.66.02-.96.02a23.589,23.589,0,0,1-2.88-.14l.06,2.92a25.861,25.861,0,0,0,2.92.1c.26,0,.54,0,.86-.02v1.14c0,.52,0,1.04.02,1.56-2.52,1.1-4.52,2.98-4.52,4.78,0,2.3,2.84,4.06,5,4.06,1.44,0,2.44-.7,2.44-3.52,0-.62-.04-2.02-.08-3.52a14.453,14.453,0,0,1,3.42-.44c1.66,0,2.66.72,2.66,1.9,0,1.22-1.12,1.96-2.66,2.22a15.209,15.209,0,0,1-2.5.14l1.1,3.14A22.6,22.6,0,0,0,38.62.8c3.42-.86,4.5-2.78,4.5-5.12,0-2.96-2.62-4.58-5.78-4.58a16.926,16.926,0,0,0-3.52.42v-.78c0-.44,0-.86.02-1.28,1.22-.14,2.5-.34,3.6-.58l-.06-3a25.247,25.247,0,0,1-3.46.68l.06-1.02C34.02-14.98,34.12-16.02,34.2-16.4Zm5.4,2.14L38.3-11.9a37.239,37.239,0,0,1,4.98,2.86l1.44-2.46A49.409,49.409,0,0,0,39.6-14.26ZM29.5-2.96c0-.56.6-1.22,1.6-1.78.02.82.04,1.5.04,1.88,0,.7-.28.78-.58.78C30.18-2.08,29.5-2.48,29.5-2.96Zm21.68.62c0-.56.64-1,1.76-1a9.114,9.114,0,0,1,1.5.12c.02.24.02.44.02.58,0,1.02-.56,1.3-1.58,1.3C51.84-1.34,51.18-1.68,51.18-2.34Zm6.22-14H54.12a7.651,7.651,0,0,1,.14,1.46v.68h-.68a37.731,37.731,0,0,1-4.84-.44l.06,2.74a46.1,46.1,0,0,0,4.8.36h.64c-.02.54-.02,1.1-.02,1.64h-.9a34.665,34.665,0,0,1-4.7-.38l.04,2.84c1.26.16,3.56.26,4.62.26h.98c.02.46.04.94.06,1.4-.32-.02-.64-.04-.98-.04-3.18,0-5.1,1.52-5.1,3.66,0,2.22,1.74,3.56,5.12,3.56C56,1.4,57.52.12,57.52-1.76v-.4A15.268,15.268,0,0,1,61.1.44l1.74-2.7a15.2,15.2,0,0,0-5.48-2.98c-.04-.68-.08-1.36-.12-2,1.9-.06,3.36-.18,5.12-.36l.02-2.84c-1.54.18-3.14.36-5.2.46,0-.52,0-1.08.02-1.66,1.92-.08,3.68-.24,4.88-.42l.02-2.76a44.824,44.824,0,0,1-4.86.52c0-.22.02-.42.02-.58C57.28-15.36,57.34-15.92,57.4-16.34Zm17.28.44-3.6-.38a20.245,20.245,0,0,1-.38,4.18c-.9.06-1.72.12-2.3.14a22.829,22.829,0,0,1-2.34,0l.28,3.26c.66-.12,1.82-.28,2.46-.38.28-.04.72-.1,1.24-.18A29.052,29.052,0,0,1,66.1-.16L69.26,1.1c1.7-2.74,3.2-7.58,4-10.7q.6-.06.96-.06c1.24,0,1.84.18,1.84,1.64a14.857,14.857,0,0,1-.74,5.2,1.354,1.354,0,0,1-1.36.76,13.008,13.008,0,0,1-2.44-.42L72.04.7a12.156,12.156,0,0,0,2.44.28A3.4,3.4,0,0,0,77.96-.96c.86-1.76,1.12-5.04,1.12-7.38,0-3-1.52-4.08-3.82-4.08-.36,0-.82.02-1.36.06.12-.52.24-1.08.36-1.62C74.38-14.54,74.54-15.3,74.68-15.9Zm6.9,1.72-2.92,1.22a22.545,22.545,0,0,1,3.26,7.82l3.1-1.42A36.468,36.468,0,0,0,81.58-14.18Zm19.2-1.66H97.52a19.279,19.279,0,0,1,.16,2.02v1.92c-1.64.14-3.38.3-4.92.44.02-.6.02-1.12.02-1.46a16.347,16.347,0,0,1,.14-2.34H89.5a18.625,18.625,0,0,1,.18,2.52v1.58c-.46.04-.84.08-1.1.1-1.18.12-2.2.16-2.74.16l.32,3.06c.52-.08,1.98-.3,2.62-.38.24-.02.54-.06.9-.1,0,1.8,0,3.62.02,4.48C89.78-.22,90.52.88,96,.88a56.358,56.358,0,0,0,5.64-.32l.12-3.32a37.8,37.8,0,0,1-6,.54c-2.74,0-2.98-.26-3.02-2.12-.02-.88-.02-2.6,0-4.3,1.54-.16,3.3-.34,4.9-.48-.02.78-.06,1.46-.12,1.94-.04.36-.2.42-.54.42A11.7,11.7,0,0,1,95.22-7l-.06,2.66a31.309,31.309,0,0,0,3.22.32c1.08,0,1.62-.26,1.86-1.42a31.641,31.641,0,0,0,.3-3.9q.63-.03,1.14-.06c.54-.02,1.76-.06,2.14-.04v-2.94c-.66.06-1.56.12-2.12.16-.34.02-.72.06-1.1.08,0-.54.02-1.12.04-1.82C100.66-14.54,100.72-15.54,100.78-15.84Zm20.64,1.2a1.067,1.067,0,0,1,1.06-1.06,1.067,1.067,0,0,1,1.06,1.06,1.067,1.067,0,0,1-1.06,1.06A1.067,1.067,0,0,1,121.42-14.64Zm-1.42,0a2.492,2.492,0,0,0,2.48,2.48,2.492,2.492,0,0,0,2.48-2.48,2.492,2.492,0,0,0-2.48-2.48A2.492,2.492,0,0,0,120-14.64Zm-11.26,8.3A24.384,24.384,0,0,1,105.6-.72L109.02.72a27.465,27.465,0,0,0,2.94-5.84A48.173,48.173,0,0,0,113.6-11c.08-.46.36-1.66.54-2.3l-3.54-.74A28.934,28.934,0,0,1,108.74-6.34Zm9.88-.22A62.551,62.551,0,0,1,120.6.6l3.62-1.18c-.56-2.08-1.62-5.34-2.28-7.06-.7-1.82-2.12-5.08-2.98-6.68l-3.24,1.04A55.437,55.437,0,0,1,118.62-6.56Zm16.9-5.52-2.88.94a37.647,37.647,0,0,1,1.66,4.48l2.9-1C136.9-8.6,135.92-11.2,135.52-12.08Zm7.46,1.64-3.42-1.1a13.333,13.333,0,0,1-2.44,6.86,13.5,13.5,0,0,1-6.7,4.16l2.54,2.6a15.848,15.848,0,0,0,6.78-5.1,16.4,16.4,0,0,0,2.68-5.68C142.56-9.18,142.7-9.66,142.98-10.44ZM130.88-11l-2.92,1.04A36.4,36.4,0,0,1,129.8-5.3l2.96-1.1C132.36-7.56,131.44-9.88,130.88-11Zm26.18-4.64-3.54-1.16a10.431,10.431,0,0,1-1.06,2.38,18.144,18.144,0,0,1-6.22,6.26l2.72,2.02A24.8,24.8,0,0,0,154-10.92h4.98a12.812,12.812,0,0,1-2.64,5A16.117,16.117,0,0,1,148.24-1l2.88,2.56a19.229,19.229,0,0,0,8.12-5.76,20.965,20.965,0,0,0,3.46-6.56,8.946,8.946,0,0,1,.78-1.64l-2.46-1.52a7.534,7.534,0,0,1-1.98.26h-3.22C156.12-14.18,156.6-15,157.06-15.64Z" transform="translate(200 5975)" fill="#333"/>
      <path id="パス_33506" data-name="パス 33506" d="M-21.792-9.612h-1.7c.048.312.084.7.12,1.212q.018.4.036.864h-3.972a11.487,11.487,0,0,1-1.332-.084v1.6c.42-.024.936-.048,1.368-.048H-24a14.248,14.248,0,0,1-5.28,4.164l1.1,1.248a16.5,16.5,0,0,0,4.9-4.056c.024,1.236.024,2.436.024,3.24,0,.348-.12.5-.42.5a10.193,10.193,0,0,1-1.6-.144l.132,1.56c.684.048,1.356.072,2.088.072C-22.14.516-21.7.072-21.708-.7c-.024-1.62-.072-3.624-.108-5.376h1.548c.324,0,.78.024,1.164.036v-1.6a9.277,9.277,0,0,1-1.248.1h-1.5c0-.312-.012-.6-.012-.864A10.264,10.264,0,0,1-21.792-9.612Zm13.44.816a.7.7,0,0,1,.7-.7.694.694,0,0,1,.684.7.692.692,0,0,1-.684.684A.694.694,0,0,1-8.352-8.8Zm-.744,0a1.329,1.329,0,0,0,.024.228,5.178,5.178,0,0,1-.684.048h-5.556a13.361,13.361,0,0,1-1.428-.1v1.692c.3-.024.876-.048,1.428-.048h5.58a7.541,7.541,0,0,1-1.4,3.384,7.867,7.867,0,0,1-4.7,2.82l1.308,1.44A9.638,9.638,0,0,0-9.708-2.652a12.114,12.114,0,0,0,1.8-4.368c.036-.108.06-.228.1-.36a.684.684,0,0,0,.156.012A1.439,1.439,0,0,0-6.228-8.8a1.442,1.442,0,0,0-1.428-1.44A1.444,1.444,0,0,0-9.1-8.8Zm6.8-.708-.876,1.32c.792.444,2.04,1.26,2.712,1.728l.9-1.332C-.18-8.22-1.5-9.072-2.292-9.5ZM-4.524-.984-3.624.6A14.6,14.6,0,0,0,.384-.888,14.489,14.489,0,0,0,5.16-5.2L4.236-6.828a12.233,12.233,0,0,1-4.668,4.5A13,13,0,0,1-4.524-.984Zm.384-5.784-.876,1.332c.8.42,2.052,1.236,2.736,1.7L-1.4-5.076C-2.016-5.508-3.336-6.336-4.14-6.768Zm12.7-.012v1.452c.288-.024,1.044-.048,1.488-.048H14v1.452H10.176c-.456,0-1-.012-1.308-.036v1.416c.276-.012.852-.024,1.308-.024H14v1.6H9.468A10.3,10.3,0,0,1,8.424-1.02V.456c.2-.012.7-.036,1.032-.036H14c0,.18,0,.372-.012.48H15.5c0-.216-.012-.624-.012-.816V-5.94c0-.252,0-.648.012-.8-.192.012-.636.024-.924.024H10.044C9.6-6.72,8.868-6.744,8.556-6.78ZM20.892-9.12l-1.128,1.2a24.951,24.951,0,0,1,3,2.592l1.224-1.248A24.236,24.236,0,0,0,20.892-9.12Zm-1.5,7.992L20.4.456a13,13,0,0,0,4.452-1.692,12.76,12.76,0,0,0,4.44-4.44l-.936-1.692A11.3,11.3,0,0,1,23.988-2.7,12.368,12.368,0,0,1,19.392-1.128Z" transform="translate(278 5945)" fill="#5096ff"/>
      <g id="グループ_6345" data-name="グループ 6345" transform="translate(-352 2812)">
        <path id="パス_33507" data-name="パス 33507" d="M-11.36,2.912h1.568L-5.824-12.9H-7.376ZM.464-5.232C.528-5.9.56-6.576.576-7.184H6.992v1.952Zm6.528-5.712v1.952H.576v-1.952ZM9.008-12.8h-10.4v5.264c0,2.432-.224,5.488-2.64,7.552A7.515,7.515,0,0,1-2.56,1.392a8.607,8.607,0,0,0,2.7-4.784H6.992v2.32c0,.336-.128.464-.512.464-.352,0-1.7.016-2.816-.048a8.168,8.168,0,0,1,.8,2A9.679,9.679,0,0,0,8,.976C8.736.656,9.008.112,9.008-1.04Z" transform="translate(685.971 3218)" fill="#333"/>
        <path id="パス_33508" data-name="パス 33508" d="M-38.8-18.592h-9.984v4.416a4.651,4.651,0,0,1,1.792-1.152,6.827,6.827,0,0,1,2.5-.448,6.878,6.878,0,0,1,3.984,1.088,6.4,6.4,0,0,1,2.32,2.816,9.454,9.454,0,0,1,.736,3.744,8.2,8.2,0,0,1-2.112,5.936A7.879,7.879,0,0,1-45.52,0a10.44,10.44,0,0,1-4.448-.88A6.814,6.814,0,0,1-52.88-3.328,7.091,7.091,0,0,1-54-6.944h5.344A2.879,2.879,0,0,0-47.728-5.3a2.921,2.921,0,0,0,2.016.656,2.644,2.644,0,0,0,2.24-.96,4.1,4.1,0,0,0,.736-2.56,3.415,3.415,0,0,0-.768-2.4,2.9,2.9,0,0,0-2.24-.832,2.905,2.905,0,0,0-1.792.528,2.462,2.462,0,0,0-.928,1.392h-5.28v-13.92H-38.8Zm20.8,0h-9.984v4.416a4.651,4.651,0,0,1,1.792-1.152,6.827,6.827,0,0,1,2.5-.448,6.878,6.878,0,0,1,3.984,1.088,6.4,6.4,0,0,1,2.32,2.816,9.454,9.454,0,0,1,.736,3.744,8.2,8.2,0,0,1-2.112,5.936A7.879,7.879,0,0,1-24.72,0a10.44,10.44,0,0,1-4.448-.88A6.814,6.814,0,0,1-32.08-3.328,7.091,7.091,0,0,1-33.2-6.944h5.344A2.879,2.879,0,0,0-26.928-5.3a2.922,2.922,0,0,0,2.016.656,2.644,2.644,0,0,0,2.24-.96,4.1,4.1,0,0,0,.736-2.56,3.415,3.415,0,0,0-.768-2.4,2.9,2.9,0,0,0-2.24-.832,2.905,2.905,0,0,0-1.792.528,2.462,2.462,0,0,0-.928,1.392h-5.28v-13.92H-18ZM-7.216-5.056l-3.552,9.184h-3.488L-12.4-5.056ZM-4.464-12q0-5.5,2.128-8.672T4.528-23.84q4.736,0,6.864,3.168T13.52-12q0,5.568-2.128,8.736T4.528-.1Q-.208-.1-2.336-3.264T-4.464-12ZM8.144-12a13.8,13.8,0,0,0-.7-4.976A2.816,2.816,0,0,0,4.528-18.72a2.816,2.816,0,0,0-2.912,1.744A13.8,13.8,0,0,0,.912-12a20.92,20.92,0,0,0,.256,3.6,4.606,4.606,0,0,0,1.04,2.3,2.946,2.946,0,0,0,2.32.88,2.946,2.946,0,0,0,2.32-.88,4.606,4.606,0,0,0,1.04-2.3A20.92,20.92,0,0,0,8.144-12ZM16.4-12q0-5.5,2.128-8.672t6.864-3.168q4.736,0,6.864,3.168T34.384-12q0,5.568-2.128,8.736T25.392-.1q-4.736,0-6.864-3.168T16.4-12Zm12.608,0a13.8,13.8,0,0,0-.7-4.976,2.816,2.816,0,0,0-2.912-1.744,2.816,2.816,0,0,0-2.912,1.744,13.8,13.8,0,0,0-.7,4.976,20.92,20.92,0,0,0,.256,3.6,4.606,4.606,0,0,0,1.04,2.3,2.946,2.946,0,0,0,2.32.88,2.946,2.946,0,0,0,2.32-.88,4.606,4.606,0,0,0,1.04-2.3A20.92,20.92,0,0,0,29.008-12Zm8.256,0q0-5.5,2.128-8.672t6.864-3.168q4.736,0,6.864,3.168T55.248-12q0,5.568-2.128,8.736T46.256-.1q-4.736,0-6.864-3.168T37.264-12Zm12.608,0a13.8,13.8,0,0,0-.7-4.976,2.816,2.816,0,0,0-2.912-1.744,2.816,2.816,0,0,0-2.912,1.744A13.8,13.8,0,0,0,42.64-12,20.92,20.92,0,0,0,42.9-8.4a4.606,4.606,0,0,0,1.04,2.3,2.946,2.946,0,0,0,2.32.88,2.946,2.946,0,0,0,2.32-.88,4.606,4.606,0,0,0,1.04-2.3A20.92,20.92,0,0,0,49.872-12Z" transform="translate(617.363 3219)" fill="#333"/>
        <path id="パス_33509" data-name="パス 33509" d="M3.176-10.594,1.8-8.133h4.8v1.242H1.547V.047h-3.27V-6.891H-6.668V-8.133h4.676l-1.336-2.461h-3.34v-1.242h2.637l-3.691-6.738h3.6l3.7,6.926q.129.234.574,1.125.3-.633.6-1.148l3.586-6.9h3.3L3.879-11.836h2.73v1.242Z" transform="translate(555.723 3219)" fill="#333"/>
      </g>
    </g>
    <g id="パス_33510" data-name="パス 33510" transform="translate(488 5845)" fill="#f5f5f5">
      <path d="M 238 158 L 2 158 L 2 2 L 238 2 L 238 158 Z" stroke="none"/>
      <path d="M 4 4 L 4 156 L 236 156 L 236 4 L 4 4 M 0 0 L 240 0 L 240 160 L 0 160 L 0 0 Z" stroke="none" fill="#ddd"/>
    </g>
    <g id="パス_33511" data-name="パス 33511" transform="translate(764 5845)" fill="#f5f5f5">
      <path d="M 238 158 L 2 158 L 2 2 L 238 2 L 238 158 Z" stroke="none"/>
      <path d="M 4 4 L 4 156 L 236 156 L 236 4 L 4 4 M 0 0 L 240 0 L 240 160 L 0 160 L 0 0 Z" stroke="none" fill="#ddd"/>
    </g>
    <g id="パス_33512" data-name="パス 33512" transform="translate(1040 5845)" fill="#f5f5f5">
      <path d="M 238 158 L 2 158 L 2 2 L 238 2 L 238 158 Z" stroke="none"/>
      <path d="M 4 4 L 4 156 L 236 156 L 236 4 L 4 4 M 0 0 L 240 0 L 240 160 L 0 160 L 0 0 Z" stroke="none" fill="#ddd"/>
    </g>
    <g id="グループ_6347" data-name="グループ 6347" transform="translate(92.5 -116.791)">
      <path id="パス_33513" data-name="パス 33513" d="M0,0H16" transform="translate(645.5 6041.791)" fill="none" stroke="#333" stroke-linecap="round" stroke-width="3"/>
      <path id="パス_33514" data-name="パス 33514" d="M0,0H16" transform="translate(653.5 6033.791) rotate(90)" fill="none" stroke="#333" stroke-linecap="round" stroke-width="3"/>
    </g>
    <g id="グループ_6348" data-name="グループ 6348" transform="translate(368.5 -116.791)">
      <path id="パス_33515" data-name="パス 33515" d="M0,0H16" transform="translate(645.5 6041.791)" fill="none" stroke="#333" stroke-linecap="round" stroke-width="3"/>
      <path id="パス_33516" data-name="パス 33516" d="M0,0H16" transform="translate(653.5 6033.791) rotate(90)" fill="none" stroke="#333" stroke-linecap="round" stroke-width="3"/>
    </g>
    <g id="グループ_6350" data-name="グループ 6350" transform="translate(0 -32.58)">
      <path id="パス_33517" data-name="パス 33517" d="M8.58-17.02A22.052,22.052,0,0,1,.4-9.52,10.021,10.021,0,0,1,1.9-7.6a24.779,24.779,0,0,0,8-7.08,26.771,26.771,0,0,0,8.16,7.06,12.97,12.97,0,0,1,1.6-2.14,21.264,21.264,0,0,1-8.64-7.26ZM11.36-4.96h5.36v-2.1H11.36v-4.28H8.86V-.96H6.02V-7.9H3.68V-.96H1.5V1.2H18.52V-.96H11.36Zm21.1-6.78c-.22.54-.46,1.12-.7,1.6H28.02l.34-.06a10.744,10.744,0,0,0-.68-1.54Zm6.46,8.92V-4.78H31.14v-.88h6V-7.38h-6v-.9h6.94v-1.86H34.16c.3-.48.62-1.02.94-1.6h3.76v-1.94h-2.6c.46-.7,1-1.6,1.56-2.52l-2.5-.6a16.111,16.111,0,0,1-1.26,2.9l.72.22H33v-3.26H30.76v3.26H29.28v-3.26H27.06v3.26H25.24l.98-.36a15.134,15.134,0,0,0-1.52-2.82l-2.04.7a17.927,17.927,0,0,1,1.24,2.48H21.22v1.94H25.4l-.24.04a8.987,8.987,0,0,1,.68,1.56h-3.8v1.86H28.8v.9H23.04v1.72H28.8v.88H21.16v1.96H26.9A21.012,21.012,0,0,1,20.58-.48,11.094,11.094,0,0,1,22.1,1.5a18.972,18.972,0,0,0,6.7-3.24V1.74h2.34v-3.6a17.072,17.072,0,0,0,6.72,3.38,11.188,11.188,0,0,1,1.6-2.16,17.868,17.868,0,0,1-6.34-2.18Zm13.44-.14A19.043,19.043,0,0,1,51.32-.74l.54.12H47.92l.76-.22a8.142,8.142,0,0,0-.96-2.12ZM46.52-6.62h6.82v1.78H46.52ZM54-2.96h1.8V-8.5H44.22v5.54H46.4l-1.04.26a9.57,9.57,0,0,1,.92,2.08H41.44V1.34h17.2V-.62H53.62c.34-.58.74-1.36,1.16-2.18Zm3.26-11.48a17.535,17.535,0,0,1-2.24,2.06c-.32-.32-.64-.66-.94-1.02.88-.6,1.88-1.36,2.74-2.08l-1.8-1.28a16.738,16.738,0,0,1-2,1.9,12.957,12.957,0,0,1-1.06-2.02l-2.04.64a19.314,19.314,0,0,0,2.74,4.62H47.52a13.463,13.463,0,0,0,2.26-3.9l-1.54-.8-.4.1H42.6v1.92h4.1a12.588,12.588,0,0,1-1.5,1.98,12.073,12.073,0,0,0-2.26-1.62l-1.3,1.3a13.933,13.933,0,0,1,2.14,1.68A13.935,13.935,0,0,1,40.4-8.9a8.451,8.451,0,0,1,1.42,1.74,17.583,17.583,0,0,0,4.52-3.16v.68H53.7v-.82a14.219,14.219,0,0,0,4.28,3.02,8.5,8.5,0,0,1,1.58-1.98,14.143,14.143,0,0,1-3.14-1.74A31.2,31.2,0,0,0,59-13.2Zm5.82,2.46a18.9,18.9,0,0,0,1.94-2.74,18.6,18.6,0,0,1,2.28,2.74Zm5.2,9.86-2.4.42V-6.54h2.48v-2H65.88V-10h2.06v-1.98h-.18l1.26-1.5a19.875,19.875,0,0,0-3.34-3.44H63.72a12.781,12.781,0,0,1-3.46,4.84,6.512,6.512,0,0,1,1.42,1.54c.12-.12.26-.24.38-.36v.9h1.76v1.46H61.1v2h2.72v5.22c-1.1.18-2.1.34-2.94.46l.44,2.16C63.34.92,65.98.36,68.46-.16L68.4-.74,69.06.4c1.14-.78,2.42-1.7,3.6-2.6L71.94-4c-1.3.86-2.62,1.7-3.62,2.28Zm8.66-2.22c.7-.66,1.6-1.6,2.4-2.52L77.48-8a16.7,16.7,0,0,1-1.8,2.4,12.971,12.971,0,0,1-.82-2.14V-8.4h4.32v-2.02H77.7v-5.86H69.5v1.96h6v1.08H69.94v1.8H75.5v1.02H68.54V-8.4h4.12V-.56c0,.2-.06.26-.28.26-.2,0-.8.02-1.36-.02a8.121,8.121,0,0,1,.56,2.06,5.26,5.26,0,0,0,2.52-.38c.62-.32.76-.88.76-1.88V-3.14A10.069,10.069,0,0,0,78.14.72a8.833,8.833,0,0,1,1.52-1.96A9.221,9.221,0,0,1,76-4.96ZM61.3-5.4a18.2,18.2,0,0,1,.62,3.5l1.6-.44a22.844,22.844,0,0,0-.7-3.44Zm6.24,3.1c.3-.82.62-2.1.98-3.22L66.8-5.94a24.523,24.523,0,0,1-.7,3.24Zm1.1-4.4A11.436,11.436,0,0,1,70.6-4.08l1.66-1.1A9.768,9.768,0,0,0,70.2-7.7Zm30.32-6.88a18.065,18.065,0,0,0-2.88-3.22L94.3-15.7a17.017,17.017,0,0,1,2.74,3.36ZM85.7-16.78a20.9,20.9,0,0,1-5.46,7.8,15.275,15.275,0,0,1,1.32,2.42A18.846,18.846,0,0,0,83.64-8.8V1.7h2.48V-12.36a31.777,31.777,0,0,0,1.86-3.68ZM99.26-9.6l-.34-2.24-5.7.74c-.14-1.7-.22-3.58-.26-5.54H90.54c.06,2.1.18,4.06.32,5.86l-4.04.54.34,2.3,3.94-.54c.72,6.1,2.3,9.86,5.68,10.18,1.12.06,2.2-.86,2.7-4.72a8.183,8.183,0,0,1-1.94-1.36c-.16,2.22-.4,3.22-.86,3.18-1.6-.2-2.66-3.16-3.22-7.6Zm19.4-6.2h-9.72v2.26h9.72ZM105.1-16.94a17.792,17.792,0,0,1-4.52,4.26,13.828,13.828,0,0,1,1.32,1.94A26.85,26.85,0,0,0,107.4-16Zm.76,4.32a19.487,19.487,0,0,1-5.5,5.98,23.436,23.436,0,0,1,1.62,2.06c.54-.44,1.08-.94,1.64-1.48V1.76H106V-8.68a26.526,26.526,0,0,0,2.14-3.06Zm13.3,2.32H108.1v2.26H114v6.96c0,.3-.14.38-.5.38-.36.02-1.68.02-2.82-.04a10.113,10.113,0,0,1,.72,2.42,11.041,11.041,0,0,0,3.9-.4c.88-.36,1.12-1.02,1.12-2.3V-8.04h2.74Z" transform="translate(548 5983)" fill="#333"/>
      <g id="グループ_6349" data-name="グループ 6349" transform="translate(-35 2520.58)">
        <g id="パス_33518" data-name="パス 33518" transform="translate(631 3405)" fill="none">
          <path d="M12,0A12,12,0,1,1,0,12,12,12,0,0,1,12,0Z" stroke="none"/>
          <path d="M 12 3 C 7.037380218505859 3 3 7.037380218505859 3 12 C 3 16.96261978149414 7.037380218505859 21 12 21 C 16.96261978149414 21 21 16.96261978149414 21 12 C 21 7.037380218505859 16.96261978149414 3 12 3 M 12 0 C 18.62742042541504 0 24 5.372579574584961 24 12 C 24 18.62742042541504 18.62742042541504 24 12 24 C 5.372579574584961 24 0 18.62742042541504 0 12 C 0 5.372579574584961 5.372579574584961 0 12 0 Z" stroke="none" fill="#555"/>
        </g>
        <path id="パス_29183" data-name="パス 29183" d="M636.986,3416.355l2.979,2.81,7.021-6" transform="translate(1.014 0.834)" fill="none" stroke="#555" stroke-width="3"/>
      </g>
    </g>
    <g id="グループ_6352" data-name="グループ 6352" transform="translate(0 -50)">
      <path id="パス_33519" data-name="パス 33519" d="M-53.42-14.66a1.161,1.161,0,0,1,1.16-1.16,1.157,1.157,0,0,1,1.14,1.16,1.153,1.153,0,0,1-1.14,1.14A1.157,1.157,0,0,1-53.42-14.66Zm-1.24,0a2.215,2.215,0,0,0,.04.38,8.63,8.63,0,0,1-1.14.08h-9.26a22.269,22.269,0,0,1-2.38-.16v2.82c.5-.04,1.46-.08,2.38-.08h9.3a12.568,12.568,0,0,1-2.34,5.64,13.111,13.111,0,0,1-7.84,4.7l2.18,2.4a16.063,16.063,0,0,0,8.04-5.54,20.189,20.189,0,0,0,3-7.28c.06-.18.1-.38.16-.6a1.14,1.14,0,0,0,.26.02,2.4,2.4,0,0,0,2.38-2.38,2.4,2.4,0,0,0-2.38-2.4A2.407,2.407,0,0,0-54.66-14.66ZM-45.6-.8-43.7.84A5.162,5.162,0,0,1-42.52.3c4.72-1.54,8.86-3.92,11.6-7.2l-1.42-2.26A22.917,22.917,0,0,1-42.62-2.54v-10.4a14.629,14.629,0,0,1,.2-2.28h-3.14a12.778,12.778,0,0,1,.22,2.28V-2.1A2.612,2.612,0,0,1-45.6-.8Zm32.78-12.76-1.64-1.22a7.168,7.168,0,0,1-2.06.26h-7.06a22.344,22.344,0,0,1-2.36-.14v2.84c.42-.02,1.52-.14,2.36-.14h6.78a15.5,15.5,0,0,1-2.98,4.9,22.42,22.42,0,0,1-8.2,5.74L-25.92.84A26.345,26.345,0,0,0-18.4-4.78,45.608,45.608,0,0,1-13.36.88l2.28-1.98a56.224,56.224,0,0,0-5.58-5.72,29.4,29.4,0,0,0,3.14-5.5A9.45,9.45,0,0,1-12.82-13.56ZM6.56-15.52H3.54a14.109,14.109,0,0,1,.12,2v3.8C3.66-6.6,3.4-5.1,2.02-3.6a9.048,9.048,0,0,1-4.8,2.52L-.7,1.12A11.776,11.776,0,0,0,4.16-1.76c1.48-1.64,2.32-3.5,2.32-7.8v-3.96C6.48-14.32,6.52-14.96,6.56-15.52Zm-9.28.16H-5.6a14.2,14.2,0,0,1,.08,1.54v6.74c0,.6-.08,1.38-.1,1.76h2.9c-.04-.46-.06-1.24-.06-1.74v-6.76C-2.78-14.46-2.76-14.9-2.72-15.36Zm29.28-.16H23.54a14.109,14.109,0,0,1,.12,2v3.8c0,3.12-.26,4.62-1.64,6.12a9.048,9.048,0,0,1-4.8,2.52l2.08,2.2a11.776,11.776,0,0,0,4.86-2.88c1.48-1.64,2.32-3.5,2.32-7.8v-3.96C26.48-14.32,26.52-14.96,26.56-15.52Zm-9.28.16H14.4a14.2,14.2,0,0,1,.08,1.54v6.74c0,.6-.08,1.38-.1,1.76h2.9c-.04-.46-.06-1.24-.06-1.74v-6.76C17.22-14.46,17.24-14.9,17.28-15.36Zm15.06,6.1v3.14c.74-.06,2.08-.1,3.22-.1H46.3c.84,0,1.86.08,2.34.1V-9.26c-.52.04-1.4.12-2.34.12H35.56C34.52-9.14,33.06-9.2,32.34-9.26Zm33.84-4.3-1.64-1.22a7.168,7.168,0,0,1-2.06.26H55.42a22.344,22.344,0,0,1-2.36-.14v2.84c.42-.02,1.52-.14,2.36-.14H62.2a15.5,15.5,0,0,1-2.98,4.9,22.42,22.42,0,0,1-8.2,5.74L53.08.84A26.345,26.345,0,0,0,60.6-4.78,45.607,45.607,0,0,1,65.64.88L67.92-1.1a56.224,56.224,0,0,0-5.58-5.72,29.4,29.4,0,0,0,3.14-5.5A9.451,9.451,0,0,1,66.18-13.56Zm-93.82,38.6a19.043,19.043,0,0,1-1.04,2.22l.54.12h-3.94l.76-.22a8.142,8.142,0,0,0-.96-2.12Zm-5.84-3.66h6.82v1.78h-6.82ZM-26,25.04h1.8V19.5H-35.78v5.54h2.18l-1.04.26a9.57,9.57,0,0,1,.92,2.08h-4.84v1.96h17.2V27.38h-5.02c.34-.58.74-1.36,1.16-2.18Zm3.26-11.48a17.534,17.534,0,0,1-2.24,2.06c-.32-.32-.64-.66-.94-1.02.88-.6,1.88-1.36,2.74-2.08l-1.8-1.28a16.738,16.738,0,0,1-2,1.9,12.957,12.957,0,0,1-1.06-2.02l-2.04.64a19.314,19.314,0,0,0,2.74,4.62h-5.14a13.463,13.463,0,0,0,2.26-3.9l-1.54-.8-.4.1H-37.4V13.7h4.1a12.588,12.588,0,0,1-1.5,1.98,12.073,12.073,0,0,0-2.26-1.62l-1.3,1.3a13.933,13.933,0,0,1,2.14,1.68A13.935,13.935,0,0,1-39.6,19.1a8.451,8.451,0,0,1,1.42,1.74,17.583,17.583,0,0,0,4.52-3.16v.68h7.36v-.82a14.219,14.219,0,0,0,4.28,3.02,8.5,8.5,0,0,1,1.58-1.98,14.143,14.143,0,0,1-3.14-1.74A31.2,31.2,0,0,0-21,14.8Zm5.82,2.46a18.9,18.9,0,0,0,1.94-2.74,18.6,18.6,0,0,1,2.28,2.74Zm5.2,9.86-2.4.42V21.46h2.48v-2h-2.48V18h2.06V16.02h-.18l1.26-1.5a19.875,19.875,0,0,0-3.34-3.44h-1.96a12.781,12.781,0,0,1-3.46,4.84,6.512,6.512,0,0,1,1.42,1.54c.12-.12.26-.24.38-.36V18h1.76v1.46H-18.9v2h2.72v5.22c-1.1.18-2.1.34-2.94.46l.44,2.16c2.02-.38,4.66-.94,7.14-1.46l-.06-.58.66,1.14c1.14-.78,2.42-1.7,3.6-2.6L-8.06,24c-1.3.86-2.62,1.7-3.62,2.28Zm8.66-2.22c.7-.66,1.6-1.6,2.4-2.52L-2.52,20a16.7,16.7,0,0,1-1.8,2.4,12.972,12.972,0,0,1-.82-2.14V19.6H-.82V17.58H-2.3V11.72h-8.2v1.96h6v1.08h-5.56v1.8H-4.5v1.02h-6.96V19.6h4.12v7.84c0,.2-.06.26-.28.26-.2,0-.8.02-1.36-.02a8.121,8.121,0,0,1,.56,2.06,5.26,5.26,0,0,0,2.52-.38c.62-.32.76-.88.76-1.88V24.86a10.069,10.069,0,0,0,3.28,3.86A8.833,8.833,0,0,1-.34,26.76,9.221,9.221,0,0,1-4,23.04ZM-18.7,22.6a18.2,18.2,0,0,1,.62,3.5l1.6-.44a22.844,22.844,0,0,0-.7-3.44Zm6.24,3.1c.3-.82.62-2.1.98-3.22l-1.72-.42a24.523,24.523,0,0,1-.7,3.24Zm1.1-4.4A11.436,11.436,0,0,1-9.4,23.92l1.66-1.1A9.768,9.768,0,0,0-9.8,20.3Zm30.32-6.88a18.065,18.065,0,0,0-2.88-3.22L14.3,12.3a17.016,17.016,0,0,1,2.74,3.36ZM5.7,11.22a20.9,20.9,0,0,1-5.46,7.8,15.275,15.275,0,0,1,1.32,2.42A18.846,18.846,0,0,0,3.64,19.2V29.7H6.12V15.64a31.775,31.775,0,0,0,1.86-3.68ZM19.26,18.4l-.34-2.24-5.7.74c-.14-1.7-.22-3.58-.26-5.54H10.54c.06,2.1.18,4.06.32,5.86l-4.04.54.34,2.3,3.94-.54c.72,6.1,2.3,9.86,5.68,10.18,1.12.06,2.2-.86,2.7-4.72a8.183,8.183,0,0,1-1.94-1.36c-.16,2.22-.4,3.22-.86,3.18-1.6-.2-2.66-3.16-3.22-7.6Zm19.4-6.2H28.94v2.26h9.72ZM25.1,11.06a17.792,17.792,0,0,1-4.52,4.26,13.828,13.828,0,0,1,1.32,1.94A26.85,26.85,0,0,0,27.4,12Zm.76,4.32a19.487,19.487,0,0,1-5.5,5.98,23.434,23.434,0,0,1,1.62,2.06c.54-.44,1.08-.94,1.64-1.48v7.82H26V19.32a26.527,26.527,0,0,0,2.14-3.06Zm13.3,2.32H28.1v2.26H34v6.96c0,.3-.14.38-.5.38-.36.02-1.68.02-2.82-.04a10.113,10.113,0,0,1,.72,2.42,11.041,11.041,0,0,0,3.9-.4c.88-.36,1.12-1.02,1.12-2.3V19.96h2.74Z" transform="translate(884 5961)" fill="#333"/>
      <path id="パス_33520" data-name="パス 33520" d="M7-8.26A1.058,1.058,0,0,0,8.05-9.31,1.058,1.058,0,0,0,7-10.36,1.058,1.058,0,0,0,5.95-9.31,1.058,1.058,0,0,0,7-8.26ZM7-5.726l-4.62-4.62-.406.406,4.62,4.62L1.96-.686l.406.406L7-4.914l4.62,4.62L12.026-.7,7.406-5.32l4.62-4.62-.406-.406ZM4.06-5.32A1.058,1.058,0,0,0,3.01-6.37,1.058,1.058,0,0,0,1.96-5.32,1.058,1.058,0,0,0,3.01-4.27,1.058,1.058,0,0,0,4.06-5.32Zm5.88,0a1.058,1.058,0,0,0,1.05,1.05,1.058,1.058,0,0,0,1.05-1.05,1.058,1.058,0,0,0-1.05-1.05A1.058,1.058,0,0,0,9.94-5.32ZM7-2.38A1.058,1.058,0,0,0,5.95-1.33,1.058,1.058,0,0,0,7-.28,1.058,1.058,0,0,0,8.05-1.33,1.058,1.058,0,0,0,7-2.38ZM23.716-8.19a12.387,12.387,0,0,1-2.73,4.48A12.693,12.693,0,0,1,18.2-8.19Zm3.612,0V-9.45h-5.67v-2.3h-1.33v2.3H14.742v1.26h2.03a15.877,15.877,0,0,0,3.15,5.446,14.556,14.556,0,0,1-5.39,2.6,6.8,6.8,0,0,1,.826,1.274,16.128,16.128,0,0,0,5.558-2.912,13.7,13.7,0,0,0,5.656,2.884A7.05,7.05,0,0,1,27.51-.182a13.064,13.064,0,0,1-5.5-2.6,15.028,15.028,0,0,0,3.234-5.4Zm9.73-1.47a10.959,10.959,0,0,1-.616,1.288h-2.9a4.778,4.778,0,0,0-.6-1.288Zm4.2,1.288h-3.43c.224-.364.462-.812.714-1.26L38.4-9.66h2v-1.05h-4.76v-1.036H34.286v1.036H29.652v1.05h2.212L31.57-9.6a5.57,5.57,0,0,1,.6,1.232h-3.43v1.064H41.258ZM31.542-4.06h6.874v.854H31.542Zm0-1.708h6.874v.84H31.542Zm9.73,4.228H35.658v-.784h4.088v-4.34H30.268v4.34h4.018v.784H28.714V-.462h5.572V1.092h1.372V-.462h5.614ZM46.438-11l-1.386.574c.658,1.5,1.358,3.08,2,4.256-1.428,1.008-2.38,2.156-2.38,3.64,0,2.24,1.988,3.01,4.69,3.01A26.728,26.728,0,0,0,53.816.14l.014-1.6a20.857,20.857,0,0,1-4.522.5c-2.086,0-3.136-.644-3.136-1.736,0-1.022.784-1.9,2.016-2.716,1.33-.868,3.192-1.736,4.116-2.212.448-.224.84-.434,1.2-.658l-.77-1.274a7.763,7.763,0,0,1-1.12.742C50.89-8.4,49.5-7.714,48.272-6.972A32.71,32.71,0,0,1,46.438-11ZM67.494-.98h-8.96V-8.47H57.26V1.092h1.274V.252h8.96v.812h1.274V-8.47H67.494Zm-2.324-4.7H63.518V-7.21H65.17Zm0,2.576H63.518v-1.54H65.17Zm-4.424-1.54h1.638v1.54H60.746Zm0-2.562h1.638v1.526H60.746Zm-3.92-3.654v1.2H62.3v1.372H59.654V-2.03H66.3V-8.288H63.6V-9.66h5.572v-1.2Zm16.352-.826a16.269,16.269,0,0,1-2.884,5.53,10.082,10.082,0,0,1,.644,1.372,12.5,12.5,0,0,0,1.12-1.54v7.42H73.29V-8.6a25.652,25.652,0,0,0,1.092-2.758Zm2.73,3.612H78.12V-6.72H75.908Zm3.276-1.834a5.8,5.8,0,0,1-.672.924h-2.52q.4-.462.756-.924ZM81.662-6.72H79.31V-8.078h2.352Zm.8,1.274a15.732,15.732,0,0,1-1.652,1.414,11.682,11.682,0,0,1-.588-1.792h2.688V-8.988H79.926a12.366,12.366,0,0,0,.952-1.4l-.784-.56-.224.07H77.406q.21-.315.378-.63l-1.246-.224A9.611,9.611,0,0,1,73.612-8.4a3.721,3.721,0,0,1,.952.742l.154-.126v1.96h2.45a13.956,13.956,0,0,1-3.262,1.358,8.27,8.27,0,0,1,.742.882A16.229,16.229,0,0,0,77.084-4.69c.168.154.336.322.49.49a12.839,12.839,0,0,1-3.556,1.708,3.871,3.871,0,0,1,.616.854A16.44,16.44,0,0,0,78.078-3.5a5.29,5.29,0,0,1,.35.686A13.887,13.887,0,0,1,73.78-.252a4.634,4.634,0,0,1,.7.952,17.314,17.314,0,0,0,4.2-2.422,1.7,1.7,0,0,1-.406,1.5.944.944,0,0,1-.77.252c-.266,0-.672-.014-1.092-.056a2.562,2.562,0,0,1,.294,1.106c.378.028.756.028,1.05.028A1.972,1.972,0,0,0,79.142.63c1.106-.9,1.106-3.934-1.176-5.852.294-.2.574-.392.84-.6h.308c.63,2.786,1.736,5.138,3.6,6.356a4.313,4.313,0,0,1,.84-1.022,6.2,6.2,0,0,1-2.31-2.6A17.779,17.779,0,0,0,83.37-4.676Zm14.364.532a5.182,5.182,0,0,0-5.488-5.278,6.068,6.068,0,0,0-6.258,5.824c0,2.338,1.274,3.878,2.66,3.878s2.548-1.582,3.388-4.438a27.879,27.879,0,0,0,.84-3.934,3.722,3.722,0,0,1,3.388,3.906A4.027,4.027,0,0,1,91.966-.98a8.653,8.653,0,0,1-1.246.2L91.546.532C94.948.042,96.824-1.974,96.824-4.914Zm-10.332.406a4.68,4.68,0,0,1,3.99-4.326,22.289,22.289,0,0,1-.77,3.612c-.644,2.156-1.3,3.066-1.932,3.066C87.178-2.156,86.492-2.9,86.492-4.508Zm22.694-4.914H104.93v-.91h4.256Zm0,1.806H104.93V-8.54h4.256Zm1.246-3.682H103.74V-6.65h6.692Zm-7.5,6.734-.182-1.176-1.344.392V-7.812h1.484v-1.2H101.4v-2.7h-1.19v2.7H98.588v1.2h1.624V-5c-.658.182-1.274.35-1.764.476l.294,1.26,1.47-.448V-.462c0,.2-.07.252-.238.252s-.672,0-1.232-.014a4.156,4.156,0,0,1,.35,1.2,3.967,3.967,0,0,0,1.82-.252c.364-.2.49-.546.49-1.19V-4.088ZM107.66-2.24h2.8V-3.276h-2.8V-4.732h3.514V-5.8h-8.092v1.064h3.36V-.644a3.17,3.17,0,0,1-1.568-1.932,14.5,14.5,0,0,0,.266-1.47l-1.176-.14a6.441,6.441,0,0,1-2.03,4.508,6.044,6.044,0,0,1,.966.784,6.076,6.076,0,0,0,1.582-2.394c.91,1.848,2.366,2.2,4.312,2.2H111.2a4.07,4.07,0,0,1,.364-1.148c-.532.014-2.338.014-2.73.014a8.045,8.045,0,0,1-1.176-.07Zm15.5-2.464v3.682h-3.57V-5.544h4.368v-4.9h-1.372V-6.8h-3v-4.844h-1.33V-6.8H115.4V-10.43h-1.3v4.886h4.158v4.522h-3.374V-4.7h-1.316v5.81h1.316V.252h8.274v.826H124.5V-4.7Zm11.424-4.55c-.8-.63-2.268-1.708-3.416-2.464l-.854.924c1.12.784,2.6,1.9,3.4,2.6Zm-6.594,1.512a12.8,12.8,0,0,1-1.54,4.592l1.274.49a15.789,15.789,0,0,0,1.512-4.774ZM132.5-.322c-.77,0-.91-.126-.91-.8V-2.338a25.683,25.683,0,0,0,6.608-8.05l-1.316-.546a22.388,22.388,0,0,1-5.292,6.916V-8.484h-1.372V-2.9a19.974,19.974,0,0,1-3.738,2.226A5.91,5.91,0,0,1,127.33.35a20.971,20.971,0,0,0,2.884-1.68v.2c0,1.652.476,2.1,2.142,2.1h2.66c1.6,0,1.988-.77,2.184-3.262a4.312,4.312,0,0,1-1.274-.56c-.112,2.1-.238,2.534-1.008,2.534Zm3.682-6.2a17.889,17.889,0,0,1,2.114,4.4l1.26-.63a19.042,19.042,0,0,0-2.2-4.312Zm15.386-.238h-4.228V-7.924h4.228Zm0,2.072h-4.228V-5.866h4.228Zm0,2.086h-4.228V-3.78h4.228ZM146.1-8.89v7.252h6.734V-8.89h-3.122c.126-.35.252-.742.378-1.12h3.234V-11.1H145.5v1.092h3.122c-.056.364-.14.756-.224,1.12Zm-2.17-2.618a11.2,11.2,0,0,1-3.416,2.688,4.7,4.7,0,0,1,.966.924,14.074,14.074,0,0,0,3.682-3.094Zm.28,3.878A10.923,10.923,0,0,1,140.7-4.788a5.782,5.782,0,0,1,.966.98,13.525,13.525,0,0,0,3.738-3.3Zm.308,3.878A9.542,9.542,0,0,1,140.5-.238a5.011,5.011,0,0,1,.938,1.05,11.474,11.474,0,0,0,4.3-4.088Zm3.136,2.31A11.348,11.348,0,0,1,144.41.2a8.217,8.217,0,0,1,.812.91,13.118,13.118,0,0,0,3.528-1.82Zm2.24.756a19.627,19.627,0,0,1,2.73,1.806l1.036-.784a18.524,18.524,0,0,0-2.8-1.722Z" transform="translate(807 6021)" fill="#555"/>
      <path id="パス_33521" data-name="パス 33521" d="M7-8.26A1.058,1.058,0,0,0,8.05-9.31,1.058,1.058,0,0,0,7-10.36,1.058,1.058,0,0,0,5.95-9.31,1.058,1.058,0,0,0,7-8.26ZM7-5.726l-4.62-4.62-.406.406,4.62,4.62L1.96-.686l.406.406L7-4.914l4.62,4.62L12.026-.7,7.406-5.32l4.62-4.62-.406-.406ZM4.06-5.32A1.058,1.058,0,0,0,3.01-6.37,1.058,1.058,0,0,0,1.96-5.32,1.058,1.058,0,0,0,3.01-4.27,1.058,1.058,0,0,0,4.06-5.32Zm5.88,0a1.058,1.058,0,0,0,1.05,1.05,1.058,1.058,0,0,0,1.05-1.05,1.058,1.058,0,0,0-1.05-1.05A1.058,1.058,0,0,0,9.94-5.32ZM7-2.38A1.058,1.058,0,0,0,5.95-1.33,1.058,1.058,0,0,0,7-.28,1.058,1.058,0,0,0,8.05-1.33,1.058,1.058,0,0,0,7-2.38ZM17.752.182C19.642.182,21.2-.91,21.2-2.772a2.609,2.609,0,0,0-2.128-2.576v-.07A2.491,2.491,0,0,0,20.846-7.84c0-1.694-1.3-2.66-3.15-2.66a4.343,4.343,0,0,0-2.954,1.246l.84,1.008a3,3,0,0,1,2.058-.966,1.432,1.432,0,0,1,1.582,1.484c0,1.036-.672,1.806-2.7,1.806v1.19c2.324,0,3.052.742,3.052,1.876a1.733,1.733,0,0,1-1.96,1.722,3.33,3.33,0,0,1-2.436-1.134l-.784,1.036A4.277,4.277,0,0,0,17.752.182ZM25.62-11.69A15.689,15.689,0,0,1,22.428-6.3a8.686,8.686,0,0,1,.714,1.316,14,14,0,0,0,1.092-1.358v7.42h1.232V-8.3a21.609,21.609,0,0,0,1.372-3.024Zm9.716,6.762h-3.71V-7.7h3.08V-8.974h-3.08v-2.6h-1.3v2.6H28.756c.168-.588.322-1.19.448-1.792l-1.26-.252a12.446,12.446,0,0,1-1.666,4.662,8.6,8.6,0,0,1,1.12.63A9.986,9.986,0,0,0,28.336-7.7h1.988v2.772H26.446v1.274h3.878V1.092h1.3V-3.654h3.71Zm4.4,3.4c0-.56.644-1.022,1.834-1.022a6.342,6.342,0,0,1,1.274.126c.014.308.014.588.014.784,0,.9-.6,1.134-1.386,1.134C40.264-.5,39.732-.924,39.732-1.526Zm4.41-9.674h-1.5a4.594,4.594,0,0,1,.07.882v.854h-.6A25.366,25.366,0,0,1,38.6-9.772L38.612-8.5c.91.112,2.59.252,3.514.252H42.7v1.722h-.714a27.37,27.37,0,0,1-3.458-.252l.014,1.316c.966.112,2.52.182,3.416.182h.77c.014.518.042,1.092.056,1.638-.336-.028-.672-.056-1.036-.056-2.086,0-3.332.91-3.332,2.254,0,1.4,1.134,2.184,3.234,2.184,1.834,0,2.6-.966,2.6-2.03,0-.2-.014-.434-.028-.728A10.764,10.764,0,0,1,47.362.028l.812-1.246A11.241,11.241,0,0,0,44.156-3.36c-.028-.63-.07-1.3-.1-1.946,1.344-.056,2.506-.154,3.794-.308l.014-1.3c-1.218.168-2.45.294-3.836.35V-8.3c1.358-.056,2.66-.182,3.7-.308V-9.9a30.761,30.761,0,0,1-3.682.392c.014-.308.014-.574.028-.742C44.086-10.64,44.114-10.948,44.142-11.2ZM51.03-9.38l.14,1.526c1.568-.336,4.83-.672,6.244-.812a5.616,5.616,0,0,0-2.38,4.55c0,3.08,2.87,4.55,5.614,4.69l.5-1.5c-2.31-.1-4.69-.952-4.69-3.5a4.642,4.642,0,0,1,3.094-4.214,13.491,13.491,0,0,1,2.73-.2v-1.414c-.966.028-2.366.112-3.864.238-2.576.224-5.068.462-6.09.56C52.052-9.422,51.562-9.394,51.03-9.38Zm9.24,2.1-.84.364a13.239,13.239,0,0,1,1.12,1.96l.868-.392A19.545,19.545,0,0,0,60.27-7.28Zm1.554-.6-.84.378A13.139,13.139,0,0,1,62.16-5.572l.854-.406A20.221,20.221,0,0,0,61.824-7.882Z" transform="translate(852 6043)" fill="#555"/>
      <g id="グループ_6351" data-name="グループ 6351" transform="translate(241 2499)">
        <g id="パス_33522" data-name="パス 33522" transform="translate(631 3405)" fill="none">
          <path d="M12,0A12,12,0,1,1,0,12,12,12,0,0,1,12,0Z" stroke="none"/>
          <path d="M 12 3 C 7.037380218505859 3 3 7.037380218505859 3 12 C 3 16.96261978149414 7.037380218505859 21 12 21 C 16.96261978149414 21 21 16.96261978149414 21 12 C 21 7.037380218505859 16.96261978149414 3 12 3 M 12 0 C 18.62742042541504 0 24 5.372579574584961 24 12 C 24 18.62742042541504 18.62742042541504 24 12 24 C 5.372579574584961 24 0 18.62742042541504 0 12 C 0 5.372579574584961 5.372579574584961 0 12 0 Z" stroke="none" fill="#555"/>
        </g>
        <path id="パス_29183-2" data-name="パス 29183" d="M636.986,3416.355l2.979,2.81,7.021-6" transform="translate(1.014 0.834)" fill="none" stroke="#555" stroke-width="3"/>
      </g>
    </g>
    <g id="グループ_6354" data-name="グループ 6354" transform="translate(0 -33)">
      <path id="パス_33523" data-name="パス 33523" d="M11.46-15.6l-2.92-.96a9.622,9.622,0,0,1-.9,2.1A17.61,17.61,0,0,1,1.4-8.02L3.64-6.36A22.8,22.8,0,0,0,8.68-11.2H14.3a14.217,14.217,0,0,1-2.84,5.46A15.939,15.939,0,0,1,3.4-.8L5.76,1.32a18.675,18.675,0,0,0,8.08-5.64A20.868,20.868,0,0,0,17.32-11a8.007,8.007,0,0,1,.66-1.44L15.94-13.7a6.413,6.413,0,0,1-1.74.24H10.18c.02-.04.04-.06.06-.1C10.48-14,11-14.9,11.46-15.6ZM21.84-9.26v3.14c.74-.06,2.08-.1,3.22-.1H35.8c.84,0,1.86.08,2.34.1V-9.26c-.52.04-1.4.12-2.34.12H25.06C24.02-9.14,22.56-9.2,21.84-9.26ZM55.5-15a1.093,1.093,0,0,1,1.1-1.08A1.076,1.076,0,0,1,57.68-15a1.076,1.076,0,0,1-1.08,1.08A1.093,1.093,0,0,1,55.5-15Zm-1.22,0a2.322,2.322,0,0,0,2.32,2.32A2.3,2.3,0,0,0,58.9-15a2.3,2.3,0,0,0-2.3-2.32A2.322,2.322,0,0,0,54.28-15Zm-2.76-.78H48.56a10.361,10.361,0,0,1,.18,1.74v1.6H43.66a15.227,15.227,0,0,1-1.94-.16v2.66c.56-.06,1.34-.08,1.94-.08h5.08V-10c0,.94,0,7.28-.02,8.02-.02.52-.22.72-.74.72a13.833,13.833,0,0,1-2.22-.24L46,.98a28.878,28.878,0,0,0,3.26.18c1.42,0,2.08-.72,2.08-1.88v-9.3h4.68c.54,0,1.32.02,1.96.06v-2.62a16.187,16.187,0,0,1-1.98.14H51.34v-1.6A16.213,16.213,0,0,1,51.52-15.78Zm-4.7,8.6L44.56-8.24A20.841,20.841,0,0,1,40.8-3.08L42.96-1.6A31.39,31.39,0,0,0,46.82-7.18Zm8.6-1.12L53.24-7.12a37.973,37.973,0,0,1,3.24,5.36l2.36-1.28A46.489,46.489,0,0,0,55.42-8.3Zm9.4-6.9-1.88,2a41.585,41.585,0,0,1,5,4.32l2.04-2.08A40.394,40.394,0,0,0,64.82-15.2ZM62.32-1.88,64,.76a21.659,21.659,0,0,0,7.42-2.82,21.267,21.267,0,0,0,7.4-7.4l-1.56-2.82A18.832,18.832,0,0,1,69.98-4.5,20.614,20.614,0,0,1,62.32-1.88ZM92.36-2.96A19.042,19.042,0,0,1,91.32-.74l.54.12H87.92l.76-.22a8.141,8.141,0,0,0-.96-2.12ZM86.52-6.62h6.82v1.78H86.52ZM94-2.96h1.8V-8.5H84.22v5.54H86.4l-1.04.26a9.57,9.57,0,0,1,.92,2.08H81.44V1.34h17.2V-.62H93.62c.34-.58.74-1.36,1.16-2.18Zm3.26-11.48a17.535,17.535,0,0,1-2.24,2.06c-.32-.32-.64-.66-.94-1.02.88-.6,1.88-1.36,2.74-2.08l-1.8-1.28a16.738,16.738,0,0,1-2,1.9,12.957,12.957,0,0,1-1.06-2.02l-2.04.64a19.314,19.314,0,0,0,2.74,4.62H87.52a13.463,13.463,0,0,0,2.26-3.9l-1.54-.8-.4.1H82.6v1.92h4.1a12.587,12.587,0,0,1-1.5,1.98,12.074,12.074,0,0,0-2.26-1.62l-1.3,1.3a13.933,13.933,0,0,1,2.14,1.68A13.935,13.935,0,0,1,80.4-8.9a8.451,8.451,0,0,1,1.42,1.74,17.583,17.583,0,0,0,4.52-3.16v.68H93.7v-.82a14.22,14.22,0,0,0,4.28,3.02,8.5,8.5,0,0,1,1.58-1.98,14.143,14.143,0,0,1-3.14-1.74A31.2,31.2,0,0,0,99-13.2Zm5.82,2.46a18.9,18.9,0,0,0,1.94-2.74,18.6,18.6,0,0,1,2.28,2.74Zm5.2,9.86-2.4.42V-6.54h2.48v-2h-2.48V-10h2.06v-1.98h-.18l1.26-1.5a19.875,19.875,0,0,0-3.34-3.44h-1.96a12.781,12.781,0,0,1-3.46,4.84,6.512,6.512,0,0,1,1.42,1.54c.12-.12.26-.24.38-.36v.9h1.76v1.46H101.1v2h2.72v5.22c-1.1.18-2.1.34-2.94.46l.44,2.16c2.02-.38,4.66-.94,7.14-1.46l-.06-.58L109.06.4c1.14-.78,2.42-1.7,3.6-2.6L111.94-4c-1.3.86-2.62,1.7-3.62,2.28Zm8.66-2.22c.7-.66,1.6-1.6,2.4-2.52L117.48-8a16.7,16.7,0,0,1-1.8,2.4,12.971,12.971,0,0,1-.82-2.14V-8.4h4.32v-2.02H117.7v-5.86h-8.2v1.96h6v1.08h-5.56v1.8h5.56v1.02h-6.96V-8.4h4.12V-.56c0,.2-.06.26-.28.26-.2,0-.8.02-1.36-.02a8.121,8.121,0,0,1,.56,2.06,5.26,5.26,0,0,0,2.52-.38c.62-.32.76-.88.76-1.88V-3.14A10.069,10.069,0,0,0,118.14.72a8.833,8.833,0,0,1,1.52-1.96A9.221,9.221,0,0,1,116-4.96ZM101.3-5.4a18.2,18.2,0,0,1,.62,3.5l1.6-.44a22.844,22.844,0,0,0-.7-3.44Zm6.24,3.1c.3-.82.62-2.1.98-3.22l-1.72-.42a24.523,24.523,0,0,1-.7,3.24Zm1.1-4.4a11.436,11.436,0,0,1,1.96,2.62l1.66-1.1A9.768,9.768,0,0,0,110.2-7.7Zm30.32-6.88a18.065,18.065,0,0,0-2.88-3.22l-1.78,1.1a17.017,17.017,0,0,1,2.74,3.36Zm-13.26-3.2a20.9,20.9,0,0,1-5.46,7.8,15.275,15.275,0,0,1,1.32,2.42,18.846,18.846,0,0,0,2.08-2.24V1.7h2.48V-12.36a31.777,31.777,0,0,0,1.86-3.68ZM139.26-9.6l-.34-2.24-5.7.74c-.14-1.7-.22-3.58-.26-5.54h-2.42c.06,2.1.18,4.06.32,5.86l-4.04.54.34,2.3,3.94-.54c.72,6.1,2.3,9.86,5.68,10.18,1.12.06,2.2-.86,2.7-4.72a8.183,8.183,0,0,1-1.94-1.36c-.16,2.22-.4,3.22-.86,3.18-1.6-.2-2.66-3.16-3.22-7.6Zm19.4-6.2h-9.72v2.26h9.72ZM145.1-16.94a17.792,17.792,0,0,1-4.52,4.26,13.827,13.827,0,0,1,1.32,1.94A26.85,26.85,0,0,0,147.4-16Zm.76,4.32a19.487,19.487,0,0,1-5.5,5.98,23.434,23.434,0,0,1,1.62,2.06c.54-.44,1.08-.94,1.64-1.48V1.76H146V-8.68a26.527,26.527,0,0,0,2.14-3.06Zm13.3,2.32H148.1v2.26H154v6.96c0,.3-.14.38-.5.38-.36.02-1.68.02-2.82-.04a10.113,10.113,0,0,1,.72,2.42,11.041,11.041,0,0,0,3.9-.4c.88-.36,1.12-1.02,1.12-2.3V-8.04h2.74Z" transform="translate(1080 5969)" fill="#333"/>
      <path id="パス_33524" data-name="パス 33524" d="M7-8.26A1.058,1.058,0,0,0,8.05-9.31,1.058,1.058,0,0,0,7-10.36,1.058,1.058,0,0,0,5.95-9.31,1.058,1.058,0,0,0,7-8.26ZM7-5.726l-4.62-4.62-.406.406,4.62,4.62L1.96-.686l.406.406L7-4.914l4.62,4.62L12.026-.7,7.406-5.32l4.62-4.62-.406-.406ZM4.06-5.32A1.058,1.058,0,0,0,3.01-6.37,1.058,1.058,0,0,0,1.96-5.32,1.058,1.058,0,0,0,3.01-4.27,1.058,1.058,0,0,0,4.06-5.32Zm5.88,0a1.058,1.058,0,0,0,1.05,1.05,1.058,1.058,0,0,0,1.05-1.05,1.058,1.058,0,0,0-1.05-1.05A1.058,1.058,0,0,0,9.94-5.32ZM7-2.38A1.058,1.058,0,0,0,5.95-1.33,1.058,1.058,0,0,0,7-.28,1.058,1.058,0,0,0,8.05-1.33,1.058,1.058,0,0,0,7-2.38ZM23.716-8.19a12.387,12.387,0,0,1-2.73,4.48A12.693,12.693,0,0,1,18.2-8.19Zm3.612,0V-9.45h-5.67v-2.3h-1.33v2.3H14.742v1.26h2.03a15.877,15.877,0,0,0,3.15,5.446,14.556,14.556,0,0,1-5.39,2.6,6.8,6.8,0,0,1,.826,1.274,16.128,16.128,0,0,0,5.558-2.912,13.7,13.7,0,0,0,5.656,2.884A7.05,7.05,0,0,1,27.51-.182a13.064,13.064,0,0,1-5.5-2.6,15.028,15.028,0,0,0,3.234-5.4Zm9.73-1.47a10.959,10.959,0,0,1-.616,1.288h-2.9a4.778,4.778,0,0,0-.6-1.288Zm4.2,1.288h-3.43c.224-.364.462-.812.714-1.26L38.4-9.66h2v-1.05h-4.76v-1.036H34.286v1.036H29.652v1.05h2.212L31.57-9.6a5.57,5.57,0,0,1,.6,1.232h-3.43v1.064H41.258ZM31.542-4.06h6.874v.854H31.542Zm0-1.708h6.874v.84H31.542Zm9.73,4.228H35.658v-.784h4.088v-4.34H30.268v4.34h4.018v.784H28.714V-.462h5.572V1.092h1.372V-.462h5.614ZM46.438-11l-1.386.574c.658,1.5,1.358,3.08,2,4.256-1.428,1.008-2.38,2.156-2.38,3.64,0,2.24,1.988,3.01,4.69,3.01A26.728,26.728,0,0,0,53.816.14l.014-1.6a20.857,20.857,0,0,1-4.522.5c-2.086,0-3.136-.644-3.136-1.736,0-1.022.784-1.9,2.016-2.716,1.33-.868,3.192-1.736,4.116-2.212.448-.224.84-.434,1.2-.658l-.77-1.274a7.763,7.763,0,0,1-1.12.742C50.89-8.4,49.5-7.714,48.272-6.972A32.71,32.71,0,0,1,46.438-11ZM67.494-.98h-8.96V-8.47H57.26V1.092h1.274V.252h8.96v.812h1.274V-8.47H67.494Zm-2.324-4.7H63.518V-7.21H65.17Zm0,2.576H63.518v-1.54H65.17Zm-4.424-1.54h1.638v1.54H60.746Zm0-2.562h1.638v1.526H60.746Zm-3.92-3.654v1.2H62.3v1.372H59.654V-2.03H66.3V-8.288H63.6V-9.66h5.572v-1.2Zm16.352-.826a16.269,16.269,0,0,1-2.884,5.53,10.082,10.082,0,0,1,.644,1.372,12.5,12.5,0,0,0,1.12-1.54v7.42H73.29V-8.6a25.652,25.652,0,0,0,1.092-2.758Zm2.73,3.612H78.12V-6.72H75.908Zm3.276-1.834a5.8,5.8,0,0,1-.672.924h-2.52q.4-.462.756-.924ZM81.662-6.72H79.31V-8.078h2.352Zm.8,1.274a15.732,15.732,0,0,1-1.652,1.414,11.682,11.682,0,0,1-.588-1.792h2.688V-8.988H79.926a12.366,12.366,0,0,0,.952-1.4l-.784-.56-.224.07H77.406q.21-.315.378-.63l-1.246-.224A9.611,9.611,0,0,1,73.612-8.4a3.721,3.721,0,0,1,.952.742l.154-.126v1.96h2.45a13.956,13.956,0,0,1-3.262,1.358,8.27,8.27,0,0,1,.742.882A16.229,16.229,0,0,0,77.084-4.69c.168.154.336.322.49.49a12.839,12.839,0,0,1-3.556,1.708,3.871,3.871,0,0,1,.616.854A16.44,16.44,0,0,0,78.078-3.5a5.29,5.29,0,0,1,.35.686A13.887,13.887,0,0,1,73.78-.252a4.634,4.634,0,0,1,.7.952,17.314,17.314,0,0,0,4.2-2.422,1.7,1.7,0,0,1-.406,1.5.944.944,0,0,1-.77.252c-.266,0-.672-.014-1.092-.056a2.562,2.562,0,0,1,.294,1.106c.378.028.756.028,1.05.028A1.972,1.972,0,0,0,79.142.63c1.106-.9,1.106-3.934-1.176-5.852.294-.2.574-.392.84-.6h.308c.63,2.786,1.736,5.138,3.6,6.356a4.313,4.313,0,0,1,.84-1.022,6.2,6.2,0,0,1-2.31-2.6A17.779,17.779,0,0,0,83.37-4.676Zm14.364.532a5.182,5.182,0,0,0-5.488-5.278,6.068,6.068,0,0,0-6.258,5.824c0,2.338,1.274,3.878,2.66,3.878s2.548-1.582,3.388-4.438a27.879,27.879,0,0,0,.84-3.934,3.722,3.722,0,0,1,3.388,3.906A4.027,4.027,0,0,1,91.966-.98a8.653,8.653,0,0,1-1.246.2L91.546.532C94.948.042,96.824-1.974,96.824-4.914Zm-10.332.406a4.68,4.68,0,0,1,3.99-4.326,22.289,22.289,0,0,1-.77,3.612c-.644,2.156-1.3,3.066-1.932,3.066C87.178-2.156,86.492-2.9,86.492-4.508Zm22.694-4.914H104.93v-.91h4.256Zm0,1.806H104.93V-8.54h4.256Zm1.246-3.682H103.74V-6.65h6.692Zm-7.5,6.734-.182-1.176-1.344.392V-7.812h1.484v-1.2H101.4v-2.7h-1.19v2.7H98.588v1.2h1.624V-5c-.658.182-1.274.35-1.764.476l.294,1.26,1.47-.448V-.462c0,.2-.07.252-.238.252s-.672,0-1.232-.014a4.156,4.156,0,0,1,.35,1.2,3.967,3.967,0,0,0,1.82-.252c.364-.2.49-.546.49-1.19V-4.088ZM107.66-2.24h2.8V-3.276h-2.8V-4.732h3.514V-5.8h-8.092v1.064h3.36V-.644a3.17,3.17,0,0,1-1.568-1.932,14.5,14.5,0,0,0,.266-1.47l-1.176-.14a6.441,6.441,0,0,1-2.03,4.508,6.044,6.044,0,0,1,.966.784,6.076,6.076,0,0,0,1.582-2.394c.91,1.848,2.366,2.2,4.312,2.2H111.2a4.07,4.07,0,0,1,.364-1.148c-.532.014-2.338.014-2.73.014a8.045,8.045,0,0,1-1.176-.07Zm15.5-2.464v3.682h-3.57V-5.544h4.368v-4.9h-1.372V-6.8h-3v-4.844h-1.33V-6.8H115.4V-10.43h-1.3v4.886h4.158v4.522h-3.374V-4.7h-1.316v5.81h1.316V.252h8.274v.826H124.5V-4.7Zm11.424-4.55c-.8-.63-2.268-1.708-3.416-2.464l-.854.924c1.12.784,2.6,1.9,3.4,2.6Zm-6.594,1.512a12.8,12.8,0,0,1-1.54,4.592l1.274.49a15.789,15.789,0,0,0,1.512-4.774ZM132.5-.322c-.77,0-.91-.126-.91-.8V-2.338a25.683,25.683,0,0,0,6.608-8.05l-1.316-.546a22.388,22.388,0,0,1-5.292,6.916V-8.484h-1.372V-2.9a19.974,19.974,0,0,1-3.738,2.226A5.91,5.91,0,0,1,127.33.35a20.971,20.971,0,0,0,2.884-1.68v.2c0,1.652.476,2.1,2.142,2.1h2.66c1.6,0,1.988-.77,2.184-3.262a4.312,4.312,0,0,1-1.274-.56c-.112,2.1-.238,2.534-1.008,2.534Zm3.682-6.2a17.889,17.889,0,0,1,2.114,4.4l1.26-.63a19.042,19.042,0,0,0-2.2-4.312Zm15.386-.238h-4.228V-7.924h4.228Zm0,2.072h-4.228V-5.866h4.228Zm0,2.086h-4.228V-3.78h4.228ZM146.1-8.89v7.252h6.734V-8.89h-3.122c.126-.35.252-.742.378-1.12h3.234V-11.1H145.5v1.092h3.122c-.056.364-.14.756-.224,1.12Zm-2.17-2.618a11.2,11.2,0,0,1-3.416,2.688,4.7,4.7,0,0,1,.966.924,14.074,14.074,0,0,0,3.682-3.094Zm.28,3.878A10.923,10.923,0,0,1,140.7-4.788a5.782,5.782,0,0,1,.966.98,13.525,13.525,0,0,0,3.738-3.3Zm.308,3.878A9.542,9.542,0,0,1,140.5-.238a5.011,5.011,0,0,1,.938,1.05,11.474,11.474,0,0,0,4.3-4.088Zm3.136,2.31A11.348,11.348,0,0,1,144.41.2a8.217,8.217,0,0,1,.812.91,13.118,13.118,0,0,0,3.528-1.82Zm2.24.756a19.627,19.627,0,0,1,2.73,1.806l1.036-.784a18.524,18.524,0,0,0-2.8-1.722Z" transform="translate(1083 6001)" fill="#555"/>
      <g id="グループ_6353" data-name="グループ 6353" transform="translate(517 2507)">
        <g id="パス_33525" data-name="パス 33525" transform="translate(631 3405)" fill="none">
          <path d="M12,0A12,12,0,1,1,0,12,12,12,0,0,1,12,0Z" stroke="none"/>
          <path d="M 12 3 C 7.037380218505859 3 3 7.037380218505859 3 12 C 3 16.96261978149414 7.037380218505859 21 12 21 C 16.96261978149414 21 21 16.96261978149414 21 12 C 21 7.037380218505859 16.96261978149414 3 12 3 M 12 0 C 18.62742042541504 0 24 5.372579574584961 24 12 C 24 18.62742042541504 18.62742042541504 24 12 24 C 5.372579574584961 24 0 18.62742042541504 0 12 C 0 5.372579574584961 5.372579574584961 0 12 0 Z" stroke="none" fill="#555"/>
        </g>
        <path id="パス_29183-3" data-name="パス 29183" d="M636.986,3416.355l2.979,2.81,7.021-6" transform="translate(1.014 0.834)" fill="none" stroke="#555" stroke-width="3"/>
      </g>
    </g>
  </g>
</svg>
