<svg xmlns="http://www.w3.org/2000/svg" width="40" height="40" viewBox="0 0 40 40">
  <g id="グループ_5791" data-name="グループ 5791" transform="translate(-1334 -743)">
    <path id="パス_33196" data-name="パス 33196" d="M5,0H35a5,5,0,0,1,5,5V35a5,5,0,0,1-5,5H5a5,5,0,0,1-5-5V5A5,5,0,0,1,5,0Z" transform="translate(1334 743)" fill="#5096ff"/>
    <path id="パス_33197" data-name="パス 33197" d="M8,0l8,10H0Z" transform="translate(1346 750)" fill="#fff"/>
    <path id="パス_33198" data-name="パス 33198" d="M-9.53-5.85h1.86V0h1.4V-5.85h1.86V-6.98H-9.53ZM3.42-3.51A3.486,3.486,0,0,0-.15-7.08,3.506,3.506,0,0,0-3.73-3.51,3.508,3.508,0,0,0-.15.07,3.494,3.494,0,0,0,3.42-3.51Zm-5.71,0A2.1,2.1,0,0,1-.15-5.82,2.094,2.094,0,0,1,1.98-3.51,2.111,2.111,0,0,1-.15-1.18,2.113,2.113,0,0,1-2.29-3.51Zm8.15-.3V-5.84H6.97c.79,0,1.14.38,1.14,1.02,0,.62-.35,1.01-1.14,1.01ZM9.55-4.82c0-1.21-.84-2.16-2.52-2.16H4.46V0h1.4V-2.68H7.03C8.83-2.68,9.55-3.76,9.55-4.82Z" transform="translate(1354 773)" fill="#fff"/>
  </g>
</svg>
