<svg xmlns="http://www.w3.org/2000/svg" xmlns:xlink="http://www.w3.org/1999/xlink" width="88" height="88" viewBox="0 0 88 88">
  <defs>
    <clipPath id="clip-path">
      <rect id="長方形_10682" data-name="長方形 10682" width="64" height="62.332" fill="none" stroke="#333" stroke-width="1"/>
    </clipPath>
  </defs>
  <g id="グループ_6522" data-name="グループ 6522" transform="translate(-294 -364)">
    <circle id="楕円形_263" data-name="楕円形 263" cx="44" cy="44" r="44" transform="translate(294 364)" fill="#f5f5f5"/>
    <g id="グループ_6516" data-name="グループ 6516" transform="translate(306 377.003)">
      <rect id="長方形_10676" data-name="長方形 10676" width="41.464" height="53.563" transform="translate(13.616 5.898)" fill="#fff" stroke="#333" stroke-width="1"/>
      <rect id="長方形_10677" data-name="長方形 10677" width="41.464" height="53.563" transform="translate(13.616 5.898)" fill="none" stroke="#333" stroke-linecap="round" stroke-linejoin="round" stroke-width="1"/>
      <rect id="長方形_10678" data-name="長方形 10678" width="29.397" height="6.959" transform="translate(19.778 0.709)" fill="#fff" stroke="#333" stroke-width="1"/>
      <g id="グループ_6515" data-name="グループ 6515" transform="translate(0 -0.003)">
        <g id="グループ_6514" data-name="グループ 6514" transform="translate(0 0)" clip-path="url(#clip-path)">
          <path id="パス_33224" data-name="パス 33224" d="M0,0H29.4V6.959H0Z" transform="translate(19.778 0.712)" fill="#5096ff" stroke="#333" stroke-linecap="round" stroke-width="1"/>
          <path id="パス_33212" data-name="パス 33212" d="M2067.915,1632.648a5.6,5.6,0,1,1,5.6,5.6,5.6,5.6,0,0,1-5.6-5.6" transform="translate(-2018.681 -1588.306)" fill="#fff" stroke="#333" stroke-width="1"/>
          <circle id="楕円形_266" data-name="楕円形 266" cx="5.604" cy="5.604" r="5.604" transform="translate(49.234 38.738)" fill="none" stroke="#333" stroke-linecap="round" stroke-linejoin="round" stroke-width="1"/>
          <path id="パス_33213" data-name="パス 33213" d="M2411.669,2319.979a2.935,2.935,0,1,1,2.935,2.935,2.935,2.935,0,0,1-2.935-2.935" transform="translate(-2354.25 -2261.878)" fill="#fff" stroke="#333" stroke-width="1"/>
          <circle id="楕円形_267" data-name="楕円形 267" cx="2.935" cy="2.935" r="2.935" transform="translate(57.418 55.166)" fill="none" stroke="#333" stroke-linecap="round" stroke-linejoin="round" stroke-width="1"/>
          <path id="パス_33214" data-name="パス 33214" d="M159.83,207.635a2.935,2.935,0,1,1,2.935,2.935,2.935,2.935,0,0,1-2.935-2.935" transform="translate(-156.025 -199.826)" fill="#fff" stroke="#333" stroke-width="1"/>
          <circle id="楕円形_268" data-name="楕円形 268" cx="2.935" cy="2.935" r="2.935" transform="translate(2.59 7.809) rotate(-45)" fill="none" stroke="#333" stroke-linecap="round" stroke-linejoin="round" stroke-width="1"/>
          <path id="パス_33215" data-name="パス 33215" d="M61.145,572.52a18.323,18.323,0,1,1-25.7-.036,18.174,18.174,0,0,1,25.7.036" transform="translate(-29.18 -553.677)" fill="#fff" stroke="#333" stroke-width="1"/>
          <ellipse id="楕円形_269" data-name="楕円形 269" cx="18.321" cy="18.025" rx="18.321" ry="18.025" transform="translate(-6.813 31.638) rotate(-44.453)" fill="none" stroke="#333" stroke-linecap="round" stroke-linejoin="round" stroke-width="1"/>
          <path id="パス_33216" data-name="パス 33216" d="M207.948,724.438a14.7,14.7,0,1,1-20.623-.029,14.583,14.583,0,0,1,20.623.029" transform="translate(-178.516 -703.007)" fill="#ff8e6f" stroke="#333" stroke-width="1"/>
          <ellipse id="楕円形_270" data-name="楕円形 270" cx="14.701" cy="14.463" rx="14.701" ry="14.463" transform="translate(-1.684 31.698) rotate(-44.455)" fill="none" stroke="#333" stroke-linecap="round" stroke-linejoin="round" stroke-width="1"/>
          <path id="パス_33217" data-name="パス 33217" d="M1378.219,1922.859l-1.109,1.088a3.173,3.173,0,0,1-4.473-.043l-8.6-8.77a3.172,3.172,0,0,1,.042-4.473l1.109-1.088a3.172,3.172,0,0,1,4.473.043l8.6,8.77a3.172,3.172,0,0,1-.043,4.473" transform="translate(-1330.676 -1863.229)" fill="#fff" stroke="#333" stroke-width="1"/>
          <path id="パス_33218" data-name="パス 33218" d="M1378.219,1922.859l-1.109,1.088a3.173,3.173,0,0,1-4.473-.043l-8.6-8.77a3.172,3.172,0,0,1,.042-4.473l1.109-1.088a3.172,3.172,0,0,1,4.473.043l8.6,8.77A3.172,3.172,0,0,1,1378.219,1922.859Z" transform="translate(-1330.676 -1863.229)" fill="#f77ee6" stroke="#333" stroke-linecap="round" stroke-linejoin="round" stroke-width="1"/>
          <path id="パス_33219" data-name="パス 33219" d="M1286.846,1836.245l-1.552-1.582a1.179,1.179,0,0,1,.029-1.667l1.16-1.138a1.179,1.179,0,0,1,1.667,0l1.552,1.582a2.8,2.8,0,0,1-2.856,2.8" transform="translate(-1254.37 -1787.908)" fill="#fff" stroke="#333" stroke-width="1"/>
          <path id="パス_33220" data-name="パス 33220" d="M1286.846,1836.245l-1.552-1.582a1.179,1.179,0,0,1,.029-1.667l1.16-1.138a1.179,1.179,0,0,1,1.667,0l1.552,1.582A2.8,2.8,0,0,1,1286.846,1836.245Z" transform="translate(-1254.37 -1787.908)" fill="none" stroke="#333" stroke-linecap="round" stroke-linejoin="round" stroke-width="1"/>
          <rect id="長方形_10680" data-name="長方形 10680" width="8.777" height="8.777" transform="translate(14.441 23.802)" fill="#fff" stroke="#333" stroke-width="1"/>
          <rect id="長方形_10681" data-name="長方形 10681" width="8.777" height="8.777" transform="translate(14.441 23.802)" fill="gold" stroke="#333" stroke-linecap="round" stroke-linejoin="round" stroke-width="1"/>
          <path id="パス_33221" data-name="パス 33221" d="M603.223,1666.576v-5.931h9.015v5.931" transform="translate(-588.862 -1621.108)" fill="gold" stroke="#333" stroke-linecap="round" stroke-linejoin="round" stroke-width="1"/>
          <path id="パス_33222" data-name="パス 33222" d="M712.826,1007.417l1.9,2.768,4.191-5.5" transform="translate(-695.855 -980.768)" fill="none" stroke="#333" stroke-linecap="round" stroke-linejoin="round" stroke-width="1"/>
          <line id="線_140" data-name="線 140" x2="10.438" transform="translate(38.796 22.932)" fill="none" stroke="#333" stroke-linecap="round" stroke-linejoin="round" stroke-width="1"/>
          <line id="線_141" data-name="線 141" x2="9.015" transform="translate(40.219 27.202)" fill="none" stroke="#333" stroke-linecap="round" stroke-linejoin="round" stroke-width="1"/>
          <line id="線_142" data-name="線 142" x2="8.54" transform="translate(40.694 30.997)" fill="none" stroke="#333" stroke-linecap="round" stroke-linejoin="round" stroke-width="1"/>
          <line id="線_143" data-name="線 143" x2="9.489" transform="translate(39.745 34.793)" fill="none" stroke="#333" stroke-linecap="round" stroke-linejoin="round" stroke-width="1"/>
          <path id="パス_33223" data-name="パス 33223" d="M30.3,1835.013s2.639,5.091,7,6.6" transform="translate(-29.579 -1791.324)" fill="none" stroke="#333" stroke-linecap="round" stroke-linejoin="round" stroke-width="1"/>
        </g>
      </g>
    </g>
  </g>
</svg>
