<svg xmlns="http://www.w3.org/2000/svg" width="512" height="238" viewBox="0 0 512 238">
  <g id="グループ_6543" data-name="グループ 6543" transform="translate(-480 -4126)">
    <path id="パス_33250" data-name="パス 33250" d="M0,0H512V204.887H0Z" transform="translate(480 4126)" fill="#fff"/>
    <path id="パス_33275" data-name="パス 33275" d="M256,0,512,33.113H0Z" transform="translate(992 4364) rotate(180)" fill="#fff"/>
    <path id="パス_29180" data-name="パス 29180" d="M0,0H90L0,70Z" transform="translate(480 4126)" fill="#5096ff"/>
    <path id="パス_33251" data-name="パス 33251" d="M17.1-13.78a1.067,1.067,0,0,1-1.06-1.06A1.067,1.067,0,0,1,17.1-15.9a1.067,1.067,0,0,1,1.06,1.06A1.067,1.067,0,0,1,17.1-13.78Zm-12.72-.7c-.66,0-1.98-.1-2.6-.18v3.42c.52-.04,1.62-.1,2.6-.1h8.8a11.235,11.235,0,0,1-2.2,5.16A13.088,13.088,0,0,1,3.12-1.56l2.64,2.9A16.4,16.4,0,0,0,13.9-4.28a21.073,21.073,0,0,0,3.02-7.24c.06-.24.14-.54.24-.84a2.508,2.508,0,0,0,2.42-2.48,2.492,2.492,0,0,0-2.48-2.48,2.492,2.492,0,0,0-2.48,2.48,1.14,1.14,0,0,0,.02.26,10.424,10.424,0,0,1-1.44.1ZM25.9,1.12A5.2,5.2,0,0,1,27.28.48c4.56-1.6,8.74-3.94,11.56-7.24L37.12-9.52a23.574,23.574,0,0,1-9.9,6.5v-9.86a15.706,15.706,0,0,1,.22-2.52h-3.8a13.2,13.2,0,0,1,.26,2.52V-2.36a3.017,3.017,0,0,1-.3,1.48ZM45.66-15.96l-1.12,2.88a71.6,71.6,0,0,1,11.04,2.54l1.24-3.02A75.4,75.4,0,0,0,45.66-15.96Zm-.9,5.44L43.64-7.58a74.3,74.3,0,0,1,10.6,2.56l1.18-3.04A90.565,90.565,0,0,0,44.76-10.52Zm-1,5.68L42.54-1.78A78.8,78.8,0,0,1,55,1.18l1.34-3.04A90.806,90.806,0,0,0,43.76-4.84ZM67.6-10.82a11.39,11.39,0,0,1,.16,2c0,3.26-.5,4.96-2.72,6.64A7.767,7.767,0,0,1,62.76-.96l2.82,2.3c5.64-3.14,5.54-7.46,5.54-12.16Zm9.84-4.5a13.813,13.813,0,0,1-2.4.2H64.66a17.391,17.391,0,0,1-2.54-.22V-12a24.018,24.018,0,0,1,2.54-.16h9.88a10.868,10.868,0,0,1-3.3,3.3l2.5,2a20.929,20.929,0,0,0,4.72-5.48c.2-.32.66-.9.9-1.2ZM97.88-.44a63.544,63.544,0,0,0-4.36-8.42L90.48-7.62a22.636,22.636,0,0,1,1.9,3.38c-1.84.22-4.22.5-6.36.7.96-2.66,2.42-7.22,3.1-9.2.32-.92.64-1.78.94-2.44l-3.84-.78a16.667,16.667,0,0,1-.52,2.52c-.6,2.14-2.16,7.16-3.32,10.16l-.3.02c-.68.02-1.66.02-2.38.02L80.26.3c.66-.08,1.5-.2,2-.26C84.68-.22,90.42-.8,93.72-1.2c.34.8.64,1.56.88,2.22ZM114.5-13.78a1.067,1.067,0,0,1-1.06-1.06,1.067,1.067,0,0,1,1.06-1.06,1.067,1.067,0,0,1,1.06,1.06A1.067,1.067,0,0,1,114.5-13.78Zm-12.72-.7c-.66,0-1.98-.1-2.6-.18v3.42c.52-.04,1.62-.1,2.6-.1h8.8a11.235,11.235,0,0,1-2.2,5.16,13.088,13.088,0,0,1-7.86,4.62l2.64,2.9a16.4,16.4,0,0,0,8.14-5.62,21.073,21.073,0,0,0,3.02-7.24c.06-.24.14-.54.24-.84a2.508,2.508,0,0,0,2.42-2.48,2.492,2.492,0,0,0-2.48-2.48,2.492,2.492,0,0,0-2.48,2.48,1.141,1.141,0,0,0,.02.26,10.424,10.424,0,0,1-1.44.1Zm31.86,3.66a4.659,4.659,0,0,1-1.68.24h-9.52c-.68,0-1.62-.06-2.54-.14V-7.6c.9-.08,2.04-.1,2.54-.1h9.1a7.853,7.853,0,0,1-1.86,2.9,13.71,13.71,0,0,1-6.88,3.42l2.42,2.74a15.316,15.316,0,0,0,7.14-4.42,15.428,15.428,0,0,0,2.98-5.46,7.767,7.767,0,0,1,.44-.96Zm-11.86-1.66c.6-.06,1.56-.08,2.24-.08h7.54c.76,0,1.84.04,2.4.08V-15.6a22.45,22.45,0,0,1-2.36.12h-7.58a19.174,19.174,0,0,1-2.24-.12Zm20.6-3.04-2.3,2.46a41.685,41.685,0,0,1,5.02,4.38l2.48-2.54A40.353,40.353,0,0,0,142.38-15.52ZM139.42-2.24l2.06,3.2a21.342,21.342,0,0,0,7.16-2.64,21.628,21.628,0,0,0,7.78-7.58l-1.88-3.42a19.326,19.326,0,0,1-7.64,8A20.581,20.581,0,0,1,139.42-2.24Z" transform="translate(658 4192)" fill="#333"/>
    <path id="パス_33252" data-name="パス 33252" d="M-80.808-.888V-2.136h5.7V-.888Zm5.7-3.8v1.236h-5.7V-4.692Zm0-2.556v1.236h-5.7V-7.248ZM-77.7-8.616c.192-.432.384-.9.564-1.38l-1.728-.192a13.58,13.58,0,0,1-.324,1.572H-82.26V1.032h1.452v-.6h5.7V1.02h1.524V-8.616Zm12.54-.852a20.378,20.378,0,0,0,2.508,3.684h-6.48a14.392,14.392,0,0,0,2.376-3.78l-1.536-.444a9.949,9.949,0,0,1-3.54,4.488,8.582,8.582,0,0,1,1.224,1.152,9.041,9.041,0,0,0,.96-.864v.84h2.028A4.546,4.546,0,0,1-71.2-.192a4.781,4.781,0,0,1,.948,1.32c3.108-1.164,3.888-3.216,4.188-5.52H-63.7c-.108,2.508-.24,3.576-.48,3.828a.556.556,0,0,1-.48.168c-.3,0-.924-.012-1.584-.06a3.448,3.448,0,0,1,.468,1.44A12.005,12.005,0,0,0-63.96.948,1.448,1.448,0,0,0-62.868.384c.42-.5.564-1.92.7-5.544v-.084c.264.276.516.54.768.768A6.835,6.835,0,0,1-60.192-5.76a13.817,13.817,0,0,1-3.564-4.272Zm16.284,5.244A4.57,4.57,0,0,0-53.724-8.9a5.332,5.332,0,0,0-5.508,5.136c0,2.028,1.1,3.492,2.436,3.492,1.308,0,2.34-1.488,3.06-3.912a24.268,24.268,0,0,0,.72-3.252A2.967,2.967,0,0,1-50.5-4.272a3.256,3.256,0,0,1-2.736,3.216,9.23,9.23,0,0,1-1.116.192l.9,1.428C-50.424.1-48.876-1.692-48.876-4.224Zm-8.82.3A3.777,3.777,0,0,1-54.648-7.4a18.012,18.012,0,0,1-.636,2.9c-.492,1.62-.96,2.376-1.464,2.376C-57.216-2.124-57.7-2.712-57.7-3.924Zm12.972-6.216a12.579,12.579,0,0,1-3.048,4.62,9.041,9.041,0,0,1,.828,1.464,12.052,12.052,0,0,0,.96-1.068V1.032h1.416v-8.22A19.4,19.4,0,0,0-43.332-9.7Zm8.34,4.992V-6.54H-39.42V-9.924h-1.464V-6.54h-3.18v1.392h3.18V-.78h-2.88V.588h7.176V-.78H-39.42V-5.148Zm9.228,3.42h-2.16v-.564h2.16ZM-29.316-3.9h2.16v.516h-2.16Zm-3.336-2.388v-.576h1.884v.576Zm5.28-.576v.576h-1.944v-.576Zm2.916,3.48H-25.7V-4.86h-3.612v-.528h3.408V-7.764h-3.408v-.492h4.584V-9.384h-4.584v-.78h-1.452v.78h-4.476v1.128h4.476v.492H-34.02v2.376h3.252v.528H-34.32v.96h3.552v.516H-35.52v1.092h4.752v.564h-3.648V-.7h3.648v.372c0,.216-.072.288-.3.3-.192,0-.9,0-1.476-.024a4.4,4.4,0,0,1,.468,1.128,6.32,6.32,0,0,0,2.124-.2c.468-.2.636-.492.636-1.2V-.7h2.16V-.2H-25.7V-2.292h1.248ZM-18-6.1A1.547,1.547,0,0,0-19.536-4.56,1.547,1.547,0,0,0-18-3.024,1.547,1.547,0,0,0-16.464-4.56,1.547,1.547,0,0,0-18-6.1ZM-7.944-8.808c-.516-.336-1.56-.864-2.232-1.2l-.8,1.032A24.833,24.833,0,0,1-8.8-7.656Zm-.576,3.24c-.528-.324-1.6-.84-2.256-1.164l-.768,1.056c.708.384,1.74.948,2.232,1.3ZM-10.176.912C-9.444-.252-8.688-1.62-8.052-2.88L-9.1-3.84a35.466,35.466,0,0,1-2.28,3.78ZM-2.388-.744h-3.6V-2.508h3.6ZM-.432-5.316V-6.684H-3.48V-8.328a16.374,16.374,0,0,0,2.6-.708l-1.092-1.128A23.725,23.725,0,0,1-7.584-9.036a5.1,5.1,0,0,1,.42,1.224c.744-.072,1.548-.156,2.328-.276v1.4H-8.028v1.368h3.192V-3.8H-7.284V1.044h1.3V.552h3.6V.984h1.356V-3.8H-3.48V-5.316ZM4.128-1.44H6.3V-2.448H4.128v-.468H6.252V-6.624H4.128v-.468h2.3v.936H7.524A9.252,9.252,0,0,1,6.216-1c-.7.06-1.4.12-2.088.168ZM1.9-3.8v-.54h.936v.54Zm3.168-.54v.54H4.128v-.54ZM4.128-5.2v-.528h.936V-5.2ZM1.9-5.724h.936V-5.2H1.9Zm7.02-1.74c.024-.792.024-1.632.024-2.508H7.572c0,.888,0,1.716-.012,2.508H6.432v-.66h-2.3v-.588c.78-.084,1.524-.192,2.16-.324L5.664-10.1a37.18,37.18,0,0,1-5.172.588A4.445,4.445,0,0,1,.8-8.508c.648-.012,1.332-.048,2.028-.1v.48H.468v1.032H2.832v.468H.768v3.708H2.832v.468H.72V-1.44H2.832v.72C1.908-.66,1.068-.6.4-.552L.564.648C1.86.54,3.588.36,5.316.18a4.675,4.675,0,0,1,.84.948C8.172-.468,8.724-2.94,8.88-6.156H9.96C9.888-2.28,9.768-.816,9.516-.492a.436.436,0,0,1-.408.2C8.88-.288,8.424-.3,7.9-.348a3.341,3.341,0,0,1,.42,1.368A8.05,8.05,0,0,0,9.8.972a1.339,1.339,0,0,0,.948-.6c.384-.552.48-2.292.588-7.2,0-.168.012-.636.012-.636Zm14.208,3.24A4.57,4.57,0,0,0,18.276-8.9a5.332,5.332,0,0,0-5.508,5.136c0,2.028,1.1,3.492,2.436,3.492,1.308,0,2.34-1.488,3.06-3.912a24.268,24.268,0,0,0,.72-3.252A2.967,2.967,0,0,1,21.5-4.272a3.256,3.256,0,0,1-2.736,3.216,9.229,9.229,0,0,1-1.116.192l.9,1.428C21.576.1,23.124-1.692,23.124-4.224Zm-8.82.3A3.777,3.777,0,0,1,17.352-7.4a18.012,18.012,0,0,1-.636,2.9c-.492,1.62-.96,2.376-1.464,2.376C14.784-2.124,14.3-2.712,14.3-3.924Zm19.56-4.584c-.084,1.776-.18,2.484-.348,2.676a.373.373,0,0,1-.36.144c-.12,0-.324,0-.576-.012l.576-.924a9.713,9.713,0,0,0-1.092-.6,9.488,9.488,0,0,0,.3-1.284ZM29.112-7.164a14.013,14.013,0,0,1,1.32.5A3.947,3.947,0,0,1,28.7-5.148a3.39,3.39,0,0,1,.8,1.008A4.88,4.88,0,0,0,31.572-6.1c.24.132.456.264.66.4a3.444,3.444,0,0,1,.336,1.248,8.07,8.07,0,0,0,1.3-.048,1.073,1.073,0,0,0,.792-.456c.324-.384.444-1.5.564-4.212.012-.168.012-.528.012-.528H29.28v1.188h1.8q-.072.378-.18.756c-.384-.144-.768-.288-1.128-.4Zm1.572,3.072a8.986,8.986,0,0,1,2.088,1.608L33.66-3.4A8.334,8.334,0,0,0,31.512-4.92Zm-2.292-5.7h-3.42v1.08h3.42Zm.36,1.608H24.4v1.128h4.356Zm-.324,1.668H24.936v1.092h3.492ZM24.936-3.8h3.492V-4.872H24.936Zm2.316,3.1H26.076v-1.38h1.176ZM28.44-3.216H24.9V.876h1.176V.408H28.44V-.18l.972.588a5.712,5.712,0,0,0,.924-2.916L29.208-2.8A5.415,5.415,0,0,1,28.44-.324Zm3.54,2.94c-.216,0-.24-.036-.24-.372V-3.264H30.42V-.636c0,1.188.228,1.584,1.356,1.584h.984c.852,0,1.2-.4,1.332-1.968a3.438,3.438,0,0,1-1.164-.516c-.036,1.1-.084,1.26-.312,1.26Zm1.344-2.34a8.873,8.873,0,0,1,1.2,3.024l1.26-.516a8.915,8.915,0,0,0-1.308-2.964ZM42.108-4.08V-5.424H40.14V-7.332h1.692v-1.32H38.664c.12-.408.216-.816.3-1.236L37.6-10.164a8.939,8.939,0,0,1-1.344,3.612,8.027,8.027,0,0,1,1.152.828,8.37,8.37,0,0,0,.816-1.608h.48v1.908H36.48V-4.08H38.6A5.605,5.605,0,0,1,36.3-.072a5.426,5.426,0,0,1,1.02,1.08,6.406,6.406,0,0,0,2.268-3.144C40.176-1.4,40.86-.5,41.256.12l.96-1.2c-.336-.4-1.632-1.9-2.256-2.508.036-.156.06-.324.084-.492Zm1.7,2.568V-7.788h1.74v6.276Zm-1.38-7.62V.7h1.38V-.168h1.74V.516H47V-9.132ZM52.2-5l-.912.24V-6.588h.924V-7.9h-.924v-2.256H49.92V-7.9H48.528v1.308H49.92v2.16c-.612.144-1.176.276-1.632.372l.3,1.38,1.332-.36v2.46c0,.18-.06.228-.2.228S49.068-.336,48.6-.36A5.185,5.185,0,0,1,49,1.032,3.545,3.545,0,0,0,50.784.744c.384-.216.5-.6.5-1.308V-3.42c.36-.108.72-.2,1.068-.312ZM53.952-6.96h5.46v-1.3H56.76v-1.9H55.344v1.9H52.6v2.772c0,1.68-.12,4.068-1.3,5.7a5.6,5.6,0,0,1,1.152.792c1.272-1.788,1.5-4.608,1.5-6.48ZM59.724.552a18.141,18.141,0,0,0-1.62-4.44L56.892-3.5a20.972,20.972,0,0,1,.888,2.2c-.684.072-1.38.132-2.04.2.408-1.44.84-3.336,1.14-5.028L55.392-6.36A39.47,39.47,0,0,1,54.36-.984l-.924.072.24,1.32c1.236-.132,2.892-.324,4.476-.5A9.634,9.634,0,0,1,58.392,1Zm11.6-6.024V-6.948H66.612c.12-1.116.132-2.22.144-3.2H65.2c-.012.984,0,2.076-.12,3.2H60.708v1.476h4.128A7.194,7.194,0,0,1,60.48-.192,4.228,4.228,0,0,1,61.548,1.02a8.26,8.26,0,0,0,4.488-5.1,8.951,8.951,0,0,0,4.5,5.088A5.743,5.743,0,0,1,71.592-.336,8.008,8.008,0,0,1,67.1-5.472ZM75.06.828l1.284-1.1A21.594,21.594,0,0,0,73.728-2.9L72.48-1.824A23.515,23.515,0,0,1,75.06.828ZM-98.724,6.86a12.579,12.579,0,0,1-3.048,4.62,9.041,9.041,0,0,1,.828,1.464,12.052,12.052,0,0,0,.96-1.068v6.156h1.416V9.812A19.4,19.4,0,0,0-97.332,7.3Zm8.34,4.992V10.46H-93.42V7.076h-1.464V10.46h-3.18v1.392h3.18V16.22h-2.88v1.368h7.176V16.22H-93.42V11.852Zm9.228,3.42h-2.16v-.564h2.16Zm-2.16-2.172h2.16v.516h-2.16Zm-3.336-2.388v-.576h1.884v.576Zm5.28-.576v.576h-1.944v-.576Zm2.916,3.48H-79.7V12.14h-3.612v-.528h3.408V9.236h-3.408V8.744h4.584V7.616h-4.584v-.78h-1.452v.78h-4.476V8.744h4.476v.492H-88.02v2.376h3.252v.528H-88.32v.96h3.552v.516H-89.52v1.092h4.752v.564h-3.648V16.3h3.648v.372c0,.216-.072.288-.3.3-.192,0-.9,0-1.476-.024a4.4,4.4,0,0,1,.468,1.128,6.32,6.32,0,0,0,2.124-.2c.468-.2.636-.492.636-1.2V16.3h2.16V16.8H-79.7V14.708h1.248Zm5.832-5v1.536a32.207,32.207,0,0,0,5.16,0V8.6A24.676,24.676,0,0,1-72.624,8.612Zm.96,5.124-1.38-.132a7.331,7.331,0,0,0-.2,1.56c0,1.236,1,1.968,3.06,1.968a16.994,16.994,0,0,0,3.1-.228l-.024-1.62a14.185,14.185,0,0,1-3.012.312c-1.224,0-1.68-.324-1.68-.852A4.073,4.073,0,0,1-71.664,13.736Zm-2.808-5.928-1.68-.144c-.012.384-.084.84-.12,1.176a33.462,33.462,0,0,0-.5,4.752,15.34,15.34,0,0,0,.468,3.924l1.392-.1c-.012-.168-.024-.36-.024-.492a3.621,3.621,0,0,1,.06-.564c.132-.636.528-1.944.864-2.94l-.744-.588c-.168.4-.36.816-.54,1.224a5.79,5.79,0,0,1-.048-.78,31.828,31.828,0,0,1,.576-4.4C-74.724,8.66-74.568,8.06-74.472,7.808Zm9.324,6.048a8.725,8.725,0,0,1-.636,2.784,7.053,7.053,0,0,1,1.092.516,11.1,11.1,0,0,0,.72-3.1Zm2.676.264a12.213,12.213,0,0,1,.708,2.316l1.128-.4a13.684,13.684,0,0,0-.78-2.256Zm-.2-2.988c.144.252.288.54.42.816l-1.212.06a38.632,38.632,0,0,0,2.292-3.252l-1.212-.5a18.763,18.763,0,0,1-1.1,1.968c-.12-.156-.264-.336-.42-.5.432-.672.924-1.6,1.356-2.424l-1.26-.444a15.862,15.862,0,0,1-.876,2.088l-.288-.252-.672.984a11.305,11.305,0,0,1,1.44,1.644c-.18.264-.372.516-.552.744l-.888.036.12,1.248c.528-.036,1.128-.084,1.776-.12v4.836h1.26V13.124l.684-.048a6.529,6.529,0,0,1,.168.648l1.08-.5a9.787,9.787,0,0,0-1.1-2.532Zm6.348,3.432v1.692H-59V14.564Zm-3.984,3.468H-59v-.5h2.676v.492h1.38V13.292h-5.364Zm5.9-8.352v-1.3h-2.628V6.836h-1.452V8.384H-61.02v1.3h2.532v1.308h-2.2v1.3h6v-1.3h-2.352V9.68Zm10.176-2.328-.9.276a14.012,14.012,0,0,1,.7,1.752l.9-.3C-43.7,8.588-44.016,7.844-44.232,7.352Zm1.284-.456-.864.3A15.78,15.78,0,0,1-43.1,8.924l.9-.3A16.3,16.3,0,0,0-42.948,6.9Zm-10.26,1.716.108,1.56c.276-.048.456-.072.708-.108.36-.048,1.116-.132,1.572-.18a7.581,7.581,0,0,0-1.92,4.836c0,2.172,1.644,3.228,3.576,3.228,3.348,0,4.284-2.568,4.116-5.3a10.256,10.256,0,0,0,1.332,1.848l.972-1.38a8.234,8.234,0,0,1-2.568-5.1l-1.512.42c.084.252.168.5.252.744.924,4.344.072,7.164-2.568,7.164A1.826,1.826,0,0,1-51.2,14.384a6.538,6.538,0,0,1,2.436-4.776,5.233,5.233,0,0,1,.612-.264l-.456-1.332a18.757,18.757,0,0,1-3.924.6A6.272,6.272,0,0,1-53.208,8.612ZM-38.8,6.9a12.562,12.562,0,0,1-2.868,4.584,11.652,11.652,0,0,1,.84,1.488c.276-.288.564-.612.84-.96V18.02h1.464V9.776a22.041,22.041,0,0,0,1.14-2.424Zm8.388,2.52h-1.32V6.968h-1.488V9.416h-4.572v1.44h4.572V16.3c0,.264-.108.36-.408.36-.276.012-1.332.012-2.256-.024a5.684,5.684,0,0,1,.552,1.416,8.53,8.53,0,0,0,2.808-.24c.576-.216.792-.588.792-1.512V10.856h1.32Zm-3.924,5.076c-.36-.72-1.1-1.9-1.644-2.772l-1.272.588a31.069,31.069,0,0,1,1.56,2.88ZM-20.664,7.46H-22.4a5.716,5.716,0,0,1,.132.828c.024.324.036.948.048,1.62-.456.012-.924.024-1.356.024A12.621,12.621,0,0,1-25.392,9.8v1.524c.588.024,1.332.06,1.848.06.444,0,.888-.012,1.344-.024v.432c0,2.028-.192,3.1-1.116,4.056a4.656,4.656,0,0,1-1.392.96l1.38,1.092c2.4-1.524,2.616-3.264,2.616-6.1v-.5c.672-.036,1.3-.084,1.776-.144l.012-1.56a15.785,15.785,0,0,1-1.8.216V8.276C-20.712,8.012-20.7,7.724-20.664,7.46Zm-5.964.2-1.776-.18a8.136,8.136,0,0,1-.084,1.044,33.7,33.7,0,0,0-.384,4.788,13.051,13.051,0,0,0,.684,3.888l1.332-.132c-.012-.168-.024-.372-.024-.492a2.7,2.7,0,0,1,.072-.588,29.618,29.618,0,0,1,.816-2.928l-.744-.48c-.2.444-.42,1.02-.576,1.392a15.194,15.194,0,0,1,.4-5.34A9.565,9.565,0,0,1-26.628,7.664Zm15.672,6.408-1.428-.144a8.392,8.392,0,0,0-.216,1.608c0,1.212,1.092,1.908,3.108,1.908a19.263,19.263,0,0,0,2.448-.168l.06-1.536a14.083,14.083,0,0,1-2.5.252c-1.284,0-1.644-.4-1.644-.924A4.111,4.111,0,0,1-10.956,14.072Zm-1.356-6.648-1.836-.144a6.152,6.152,0,0,1-.036,1.212q-.036.288-.108.684-.558.036-1.08.036a11.875,11.875,0,0,1-1.512-.1l.036,1.5c.42.024.876.048,1.452.048.252,0,.516-.012.792-.024-.072.348-.168.684-.252,1.008a25.982,25.982,0,0,1-2.076,5.4l1.668.564a37.289,37.289,0,0,0,1.908-5.556c.132-.492.252-1.02.36-1.536a22.091,22.091,0,0,0,2.34-.4v-1.5c-.66.156-1.332.288-2,.384.036-.168.072-.324.1-.456C-12.516,8.288-12.408,7.748-12.312,7.424Zm.708,3.624v1.4a20.618,20.618,0,0,1,2.316-.12,17.592,17.592,0,0,1,2.064.144l.036-1.44A21.1,21.1,0,0,0-9.3,10.928C-10.068,10.928-10.932,10.988-11.6,11.048ZM-2.88,8.42-4.728,8.4a7.294,7.294,0,0,1,.1,1.224c0,.732.012,2.136.132,3.24.336,3.216,1.476,4.4,2.8,4.4.96,0,1.716-.732,2.508-2.82L-.4,12.98c-.228.96-.708,2.364-1.272,2.364-.756,0-1.116-1.188-1.284-2.916-.072-.864-.084-1.764-.072-2.544A9.708,9.708,0,0,1-2.88,8.42Zm6,.276L1.6,9.188c1.308,1.488,1.944,4.4,2.136,6.336L5.3,14.912A13.333,13.333,0,0,0,3.12,8.7Zm14.292,1.416V8.744h-4.74V6.788H11.2V8.744H6.6v1.368h3.432c-.132,2.568-.408,5.3-3.648,6.8a4.562,4.562,0,0,1,1.008,1.212,7.044,7.044,0,0,0,3.852-5.112h3.3c-.168,2.184-.384,3.228-.7,3.492a.77.77,0,0,1-.576.156c-.348,0-1.188,0-2.016-.084a3.321,3.321,0,0,1,.5,1.4,16.436,16.436,0,0,0,2.052,0,1.772,1.772,0,0,0,1.3-.552c.48-.528.732-1.872.948-5.136a5.838,5.838,0,0,0,.048-.624H11.472c.06-.516.1-1.044.132-1.56Zm5.964-1.5v1.536a32.207,32.207,0,0,0,5.16,0V8.6A24.676,24.676,0,0,1,23.376,8.612Zm.96,5.124-1.38-.132a7.331,7.331,0,0,0-.2,1.56c0,1.236,1,1.968,3.06,1.968a16.994,16.994,0,0,0,3.1-.228l-.024-1.62a14.185,14.185,0,0,1-3.012.312c-1.224,0-1.68-.324-1.68-.852A4.073,4.073,0,0,1,24.336,13.736ZM21.528,7.808l-1.68-.144c-.012.384-.084.84-.12,1.176a33.461,33.461,0,0,0-.5,4.752,15.34,15.34,0,0,0,.468,3.924l1.392-.1c-.012-.168-.024-.36-.024-.492a3.621,3.621,0,0,1,.06-.564c.132-.636.528-1.944.864-2.94l-.744-.588c-.168.4-.36.816-.54,1.224a5.789,5.789,0,0,1-.048-.78,31.828,31.828,0,0,1,.576-4.4C21.276,8.66,21.432,8.06,21.528,7.808Zm14.1-.42-1.692-.1a6.428,6.428,0,0,1-.012,1.068c-.024.276-.06.6-.1.972a11.333,11.333,0,0,1-2.472-.456l-.084,1.38a14.091,14.091,0,0,0,2.388.432c-.06.54-.132,1.1-.2,1.644a11.027,11.027,0,0,1-2.364-.48L31.008,13.3a13.426,13.426,0,0,0,2.3.4c-.048.492-.084.924-.084,1.212,0,2,1.332,2.82,3.216,2.82,2.628,0,4.26-1.3,4.26-3.108a4.473,4.473,0,0,0-1.164-2.88l-1.692.36a3.273,3.273,0,0,1,1.236,2.328c0,.984-.912,1.752-2.592,1.752-1.176,0-1.788-.528-1.788-1.524,0-.216.024-.516.048-.876h.48c.756,0,1.452-.048,2.124-.108l.036-1.428a20.788,20.788,0,0,1-2.412.144H34.9c.06-.54.132-1.1.2-1.632a21.626,21.626,0,0,0,2.34-.12l.048-1.428a16.926,16.926,0,0,1-2.2.168c.048-.4.1-.72.132-.924A10.742,10.742,0,0,1,35.628,7.388Zm11.6-.132H45.576a9.658,9.658,0,0,1,.084,1.056c0,.2,0,.552-.012.972-.24.012-.48.024-.7.024a13.307,13.307,0,0,1-1.656-.1l.024,1.452a14.712,14.712,0,0,0,1.68.06c.192,0,.408-.012.636-.024v1.008c0,.276,0,.564.012.852-1.476.636-2.676,1.728-2.676,2.772,0,1.272,1.644,2.28,2.808,2.28.792,0,1.32-.4,1.32-1.884,0-.408-.024-1.344-.048-2.292a8.09,8.09,0,0,1,2.256-.336c1.044,0,1.764.48,1.764,1.3,0,.876-.768,1.356-1.74,1.536a9.24,9.24,0,0,1-1.476.084l.552,1.548a10.987,10.987,0,0,0,1.572-.192c1.908-.48,2.652-1.548,2.652-2.964,0-1.656-1.452-2.616-3.3-2.616a9.943,9.943,0,0,0-2.3.312V11.66c0-.348,0-.72.012-1.08.78-.1,1.608-.216,2.292-.372L49.3,8.72a14.7,14.7,0,0,1-2.208.432c.012-.3.024-.588.036-.852C47.148,7.988,47.2,7.472,47.232,7.256Zm3.42,1.3-.66,1.164a19.093,19.093,0,0,1,2.892,1.752l.72-1.224A25.076,25.076,0,0,0,50.652,8.552Zm-6.2,6.72c0-.42.492-.912,1.224-1.308.024.648.036,1.2.036,1.5,0,.408-.168.5-.384.5C45.012,15.968,44.448,15.644,44.448,15.272ZM61.836,7.328H60.1a8.708,8.708,0,0,1,.12,1.044c.012.1.012.216.024.372-1.632.024-3.816.072-5.184.072l.036,1.452c1.476-.084,3.348-.156,5.16-.18.012.264.012.54.012.8a3.114,3.114,0,0,0-.48-.036,2.263,2.263,0,0,0-2.4,2.244,2.117,2.117,0,0,0,2.064,2.208,2.566,2.566,0,0,0,.54-.06,5.392,5.392,0,0,1-2.928,1.368l1.284,1.272c2.928-.816,3.84-2.808,3.84-4.368a3.054,3.054,0,0,0-.432-1.644c0-.528-.012-1.188-.012-1.8,1.632,0,2.748.024,3.468.06L65.22,8.72c-.624-.012-2.268.012-3.48.012.012-.144.012-.276.012-.372C61.764,8.168,61.812,7.52,61.836,7.328Zm-3.012,5.748a.9.9,0,0,1,.924-.96.885.885,0,0,1,.78.42c.168,1.056-.276,1.44-.78,1.44A.9.9,0,0,1,58.824,13.076ZM73.836,7.328H72.1a8.708,8.708,0,0,1,.12,1.044c.012.1.012.216.024.372-1.632.024-3.816.072-5.184.072l.036,1.452c1.476-.084,3.348-.156,5.16-.18.012.264.012.54.012.8a3.114,3.114,0,0,0-.48-.036,2.263,2.263,0,0,0-2.4,2.244,2.117,2.117,0,0,0,2.064,2.208,2.566,2.566,0,0,0,.54-.06,5.392,5.392,0,0,1-2.928,1.368l1.284,1.272c2.928-.816,3.84-2.808,3.84-4.368a3.054,3.054,0,0,0-.432-1.644c0-.528-.012-1.188-.012-1.8,1.632,0,2.748.024,3.468.06L77.22,8.72c-.624-.012-2.268.012-3.48.012.012-.144.012-.276.012-.372C73.764,8.168,73.812,7.52,73.836,7.328Zm-3.012,5.748a.9.9,0,0,1,.924-.96.885.885,0,0,1,.78.42c.168,1.056-.276,1.44-.78,1.44A.9.9,0,0,1,70.824,13.076ZM86.388,7.592l-1.656-.156a8.107,8.107,0,0,1-.1,1.14q-.036.27-.108.576a6.541,6.541,0,0,0-2.724.72c-.084-.252-.156-.5-.216-.732-.1-.36-.192-.756-.264-1.152l-1.572.492a7.614,7.614,0,0,1,.48,1.248c.108.324.2.648.324.972a5.246,5.246,0,0,0-1.776,3.792c0,1.548.912,2.388,1.908,2.388a3.089,3.089,0,0,0,2.364-1.272c.12.156.264.312.408.468l1.212-.96a9.591,9.591,0,0,1-.66-.72,15.175,15.175,0,0,0,1.632-3.816,2.6,2.6,0,0,1,1.944,2.652c0,1.5-1.044,2.856-3.672,3.072l.912,1.392c2.5-.384,4.308-1.836,4.308-4.38A3.956,3.956,0,0,0,86,9.26c.036-.156.072-.3.108-.456C86.184,8.5,86.292,7.916,86.388,7.592Zm-6.2,6.78a3.626,3.626,0,0,1,.888-2.256,12.926,12.926,0,0,0,1.116,2.3c-.444.54-.888.912-1.32.912S80.184,14.96,80.184,14.372Zm2.052-3.192a4.808,4.808,0,0,1,1.932-.672A13.825,13.825,0,0,1,83.1,13.1,12.323,12.323,0,0,1,82.236,11.18Zm13.152,2.736h1.224l.324-4.1L97,8.024H95l.06,1.788ZM96,17.108a1.062,1.062,0,1,0-1.056-1.056A1.021,1.021,0,0,0,96,17.108Z" transform="translate(736 4146)" fill="#5096ff"/>
    <path id="パス_33253" data-name="パス 33253" d="M0,0H170V126H0Z" transform="translate(480 4206)" fill="#fff"/>
    <path id="パス_33254" data-name="パス 33254" d="M0,0H171V126H0Z" transform="translate(650 4206)" fill="#fff"/>
    <path id="パス_33268" data-name="パス 33268" d="M0,0H171V126H0Z" transform="translate(821 4206)" fill="#fff"/>
    <path id="パス_33266" data-name="パス 33266" d="M-11.36,2.912h1.568L-5.824-12.9H-7.376ZM.464-5.232C.528-5.9.56-6.576.576-7.184H6.992v1.952Zm6.528-5.712v1.952H.576v-1.952ZM9.008-12.8h-10.4v5.264c0,2.432-.224,5.488-2.64,7.552A7.515,7.515,0,0,1-2.56,1.392a8.607,8.607,0,0,0,2.7-4.784H6.992v2.32c0,.336-.128.464-.512.464-.352,0-1.7.016-2.816-.048a8.168,8.168,0,0,1,.8,2A9.679,9.679,0,0,0,8,.976C8.736.656,9.008.112,9.008-1.04Z" transform="translate(626 4307)" fill="#333"/>
    <path id="パス_33262" data-name="パス 33262" d="M-47.056-18.272V-23.36h8.864V0h-5.7V-18.272Zm12.032,0V-23.36h8.864V0h-5.7V-18.272Zm19.04,13.216-3.552,9.184h-3.488l1.856-9.184ZM-13.232-12q0-5.5,2.128-8.672T-4.24-23.84q4.736,0,6.864,3.168T4.752-12q0,5.568-2.128,8.736T-4.24-.1Q-8.976-.1-11.1-3.264T-13.232-12ZM-.624-12a13.8,13.8,0,0,0-.7-4.976A2.816,2.816,0,0,0-4.24-18.72a2.816,2.816,0,0,0-2.912,1.744A13.8,13.8,0,0,0-7.856-12,20.92,20.92,0,0,0-7.6-8.4,4.606,4.606,0,0,0-6.56-6.1a2.946,2.946,0,0,0,2.32.88A2.946,2.946,0,0,0-1.92-6.1,4.606,4.606,0,0,0-.88-8.4,20.92,20.92,0,0,0-.624-12Zm8.256,0q0-5.5,2.128-8.672t6.864-3.168q4.736,0,6.864,3.168T25.616-12q0,5.568-2.128,8.736T16.624-.1Q11.888-.1,9.76-3.264T7.632-12ZM20.24-12a13.8,13.8,0,0,0-.7-4.976,2.816,2.816,0,0,0-2.912-1.744,2.816,2.816,0,0,0-2.912,1.744,13.8,13.8,0,0,0-.7,4.976,20.92,20.92,0,0,0,.256,3.6A4.606,4.606,0,0,0,14.3-6.1a2.946,2.946,0,0,0,2.32.88,2.946,2.946,0,0,0,2.32-.88,4.606,4.606,0,0,0,1.04-2.3A20.92,20.92,0,0,0,20.24-12ZM28.5-12q0-5.5,2.128-8.672t6.864-3.168q4.736,0,6.864,3.168T46.48-12q0,5.568-2.128,8.736T37.488-.1q-4.736,0-6.864-3.168T28.5-12ZM41.1-12a13.8,13.8,0,0,0-.7-4.976,2.816,2.816,0,0,0-2.912-1.744,2.816,2.816,0,0,0-2.912,1.744,13.8,13.8,0,0,0-.7,4.976,20.92,20.92,0,0,0,.256,3.6,4.606,4.606,0,0,0,1.04,2.3,2.946,2.946,0,0,0,2.32.88,2.946,2.946,0,0,0,2.32-.88,4.606,4.606,0,0,0,1.04-2.3A20.92,20.92,0,0,0,41.1-12Z" transform="translate(564 4308)" fill="#333"/>
    <path id="パス_33264" data-name="パス 33264" d="M3.176-10.594,1.8-8.133h4.8v1.242H1.547V.047h-3.27V-6.891H-6.668V-8.133h4.676l-1.336-2.461h-3.34v-1.242h2.637l-3.691-6.738h3.6l3.7,6.926q.129.234.574,1.125.3-.633.6-1.148l3.586-6.9h3.3L3.879-11.836h2.73v1.242Z" transform="translate(504 4308)" fill="#333"/>
    <path id="パス_33257" data-name="パス 33257" d="M-26.923-11.063A14.334,14.334,0,0,1-32.24-6.188a6.514,6.514,0,0,1,.975,1.248,16.106,16.106,0,0,0,5.2-4.6,17.4,17.4,0,0,0,5.3,4.589,8.43,8.43,0,0,1,1.04-1.391,13.822,13.822,0,0,1-5.616-4.719Zm1.807,7.839h3.484V-4.589h-3.484V-7.371h-1.625V-.624h-1.846V-5.135h-1.521V-.624h-1.417V.78h11.063v-1.4h-4.654ZM-11.4-7.631c-.143.351-.3.728-.455,1.04h-2.431l.221-.039a6.984,6.984,0,0,0-.442-1Zm4.2,5.8V-3.107h-5.057v-.572h3.9V-4.8h-3.9v-.585h4.511V-6.591H-10.3c.195-.312.4-.663.611-1.04h2.444V-8.892h-1.69c.3-.455.65-1.04,1.014-1.638l-1.625-.39a10.472,10.472,0,0,1-.819,1.885l.468.143H-11.05v-2.119h-1.456v2.119h-.962v-2.119h-1.443v2.119h-1.183l.637-.234a9.837,9.837,0,0,0-.988-1.833l-1.326.455a11.653,11.653,0,0,1,.806,1.612h-1.742v1.261h2.717l-.156.026A5.842,5.842,0,0,1-15.7-6.591h-2.47v1.209h4.394V-4.8h-3.744v1.118h3.744v.572h-4.966v1.274h3.731A13.658,13.658,0,0,1-19.123-.312,7.211,7.211,0,0,1-18.135.975,12.332,12.332,0,0,0-13.78-1.131V1.131h1.521v-2.34A11.1,11.1,0,0,0-7.891.988a7.272,7.272,0,0,1,1.04-1.4,11.614,11.614,0,0,1-4.121-1.417ZM0-6.6A1.676,1.676,0,0,0-1.664-4.94,1.676,1.676,0,0,0,0-3.276,1.676,1.676,0,0,0,1.664-4.94,1.676,1.676,0,0,0,0-6.6Zm10.114,1.43A7.762,7.762,0,0,1,11.466-3l1.157-.637A8.076,8.076,0,0,0,11.18-5.759Zm6.435-2.184H15.106V-8.645h-1.43v1.287H9.5v1.313h4.173v3.328c0,.169-.052.221-.234.221s-.832.013-1.391-.013a5.5,5.5,0,0,1,.39,1.3,5.447,5.447,0,0,0,2.067-.221c.455-.208.6-.559.6-1.261V-6.045h1.443ZM9.009-.9V-8.97h7.943V-.9ZM7.475-10.452V1.105H9.009V.6h7.943v.507h1.612V-10.452ZM22.4-10.959A13.69,13.69,0,0,1,19.708-6.1a9.266,9.266,0,0,1,.858,1.612c.26-.312.533-.663.793-1.014v6.6h1.469V-8.008a22.767,22.767,0,0,0,1.04-2.509Zm5.967,8.528V-5.824a19.014,19.014,0,0,0,1.6,3.393Zm-3.094,0a16.893,16.893,0,0,0,1.586-3.3v3.3Zm6.682-4.8V-8.7H28.366v-2.249H26.858V-8.7H23.569v1.469H26.13A13.293,13.293,0,0,1,22.893-1.95,6.3,6.3,0,0,1,24-.78a9.027,9.027,0,0,0,1.157-1.469v1.2h1.7V1.04h1.508V-1.053h1.742V-2.2a10.894,10.894,0,0,0,1.04,1.378,6.328,6.328,0,0,1,1.157-1.2,14.044,14.044,0,0,1-3.172-5.213Z" transform="translate(567 4248)" fill="#adadad"/>
    <path id="パス_33267" data-name="パス 33267" d="M-11.36,2.912h1.568L-5.824-12.9H-7.376ZM.464-5.232C.528-5.9.56-6.576.576-7.184H6.992v1.952Zm6.528-5.712v1.952H.576v-1.952ZM9.008-12.8h-10.4v5.264c0,2.432-.224,5.488-2.64,7.552A7.515,7.515,0,0,1-2.56,1.392a8.607,8.607,0,0,0,2.7-4.784H6.992v2.32c0,.336-.128.464-.512.464-.352,0-1.7.016-2.816-.048a8.168,8.168,0,0,1,.8,2A9.679,9.679,0,0,0,8,.976C8.736.656,9.008.112,9.008-1.04Z" transform="translate(795 4307)" fill="#333"/>
    <path id="パス_33263" data-name="パス 33263" d="M-28.368-18.592h-9.984v4.416a4.651,4.651,0,0,1,1.792-1.152,6.827,6.827,0,0,1,2.5-.448,6.878,6.878,0,0,1,3.984,1.088,6.4,6.4,0,0,1,2.32,2.816,9.454,9.454,0,0,1,.736,3.744,8.2,8.2,0,0,1-2.112,5.936A7.879,7.879,0,0,1-35.088,0a10.44,10.44,0,0,1-4.448-.88,6.814,6.814,0,0,1-2.912-2.448,7.091,7.091,0,0,1-1.12-3.616h5.344A2.879,2.879,0,0,0-37.3-5.3a2.921,2.921,0,0,0,2.016.656,2.644,2.644,0,0,0,2.24-.96A4.1,4.1,0,0,0-32.3-8.16a3.415,3.415,0,0,0-.768-2.4,2.9,2.9,0,0,0-2.24-.832,2.905,2.905,0,0,0-1.792.528,2.462,2.462,0,0,0-.928,1.392h-5.28v-13.92h14.944ZM-17.584-5.056l-3.552,9.184h-3.488l1.856-9.184Zm19.2-13.536H-8.368v4.416a4.651,4.651,0,0,1,1.792-1.152,6.827,6.827,0,0,1,2.5-.448A6.878,6.878,0,0,1-.1-14.688a6.4,6.4,0,0,1,2.32,2.816A9.454,9.454,0,0,1,2.96-8.128,8.2,8.2,0,0,1,.848-2.192,7.879,7.879,0,0,1-5.1,0,10.44,10.44,0,0,1-9.552-.88a6.814,6.814,0,0,1-2.912-2.448,7.091,7.091,0,0,1-1.12-3.616H-8.24A2.879,2.879,0,0,0-7.312-5.3,2.921,2.921,0,0,0-5.3-4.64a2.644,2.644,0,0,0,2.24-.96A4.1,4.1,0,0,0-2.32-8.16a3.415,3.415,0,0,0-.768-2.4,2.9,2.9,0,0,0-2.24-.832,2.905,2.905,0,0,0-1.792.528,2.462,2.462,0,0,0-.928,1.392h-5.28v-13.92H1.616ZM5.968-12q0-5.5,2.128-8.672T14.96-23.84q4.736,0,6.864,3.168T23.952-12q0,5.568-2.128,8.736T14.96-.1Q10.224-.1,8.1-3.264T5.968-12Zm12.608,0a13.8,13.8,0,0,0-.7-4.976A2.816,2.816,0,0,0,14.96-18.72a2.816,2.816,0,0,0-2.912,1.744,13.8,13.8,0,0,0-.7,4.976A20.92,20.92,0,0,0,11.6-8.4a4.606,4.606,0,0,0,1.04,2.3,2.946,2.946,0,0,0,2.32.88,2.946,2.946,0,0,0,2.32-.88,4.606,4.606,0,0,0,1.04-2.3A20.92,20.92,0,0,0,18.576-12Zm8.256,0q0-5.5,2.128-8.672t6.864-3.168q4.736,0,6.864,3.168T44.816-12q0,5.568-2.128,8.736T35.824-.1q-4.736,0-6.864-3.168T26.832-12ZM39.44-12a13.8,13.8,0,0,0-.7-4.976,2.816,2.816,0,0,0-2.912-1.744,2.816,2.816,0,0,0-2.912,1.744,13.8,13.8,0,0,0-.7,4.976,20.92,20.92,0,0,0,.256,3.6A4.606,4.606,0,0,0,33.5-6.1a2.946,2.946,0,0,0,2.32.88,2.946,2.946,0,0,0,2.32-.88,4.606,4.606,0,0,0,1.04-2.3A20.92,20.92,0,0,0,39.44-12Z" transform="translate(735 4308)" fill="#333"/>
    <path id="パス_33265" data-name="パス 33265" d="M3.176-10.594,1.8-8.133h4.8v1.242H1.547V.047h-3.27V-6.891H-6.668V-8.133h4.676l-1.336-2.461h-3.34v-1.242h2.637l-3.691-6.738h3.6l3.7,6.926q.129.234.574,1.125.3-.633.6-1.148l3.586-6.9h3.3L3.879-11.836h2.73v1.242Z" transform="translate(677 4308)" fill="#333"/>
    <path id="パス_33258" data-name="パス 33258" d="M-27.4-10.14A12.692,12.692,0,0,1-29.844-5.6a10.08,10.08,0,0,1,.672,1.548,12.312,12.312,0,0,0,.8-1.032V1.056h1.356V-7.452a22.814,22.814,0,0,0,.936-2.28Zm5.652,7.608h-1.224v-1.26h1.224Zm1.368-3.276V-6.84h-1.452V-8.064h-1.1V-6.84h-1.38v1.032h1.38v1.032H-24V-1.56h3.324V-4.776h-1.152V-5.808ZM-24.612-.9V-8.316H-20.1V-.9Zm-1.3-8.652V1.032h1.3v-.7H-20.1V.924h1.356V-9.552ZM-13-9.888C-13.08-8.3-12.912-2.856-17.7-.2A5,5,0,0,1-16.5.936a10.247,10.247,0,0,0,4.44-6.024A9.516,9.516,0,0,0-7.332.936a4.69,4.69,0,0,1,1.1-1.212C-10.7-2.376-11.3-7.548-11.4-9.2c.012-.252.024-.492.036-.684Zm15.84,8.16H.684v-.564h2.16ZM.684-3.9h2.16v.516H.684ZM-2.652-6.288v-.576H-.768v.576Zm5.28-.576v.576H.684v-.576Zm2.916,3.48H4.3V-4.86H.684v-.528H4.092V-7.764H.684v-.492H5.268V-9.384H.684v-.78H-.768v.78H-5.244v1.128H-.768v.492H-4.02v2.376H-.768v.528H-4.32v.96H-.768v.516H-5.52v1.092H-.768v.564H-4.416V-.7H-.768v.372c0,.216-.072.288-.3.3-.192,0-.9,0-1.476-.024A4.4,4.4,0,0,1-2.076,1.08,6.32,6.32,0,0,0,.048.876c.468-.2.636-.492.636-1.2V-.7h2.16V-.2H4.3V-2.292H5.544Zm7.932-3.66c-.132.324-.276.672-.42.96H10.812l.2-.036a6.446,6.446,0,0,0-.408-.924Zm3.876,5.352V-2.868H12.684V-3.4h3.6V-4.428h-3.6v-.54h4.164V-6.084H14.5c.18-.288.372-.612.564-.96h2.256V-8.208h-1.56c.276-.42.6-.96.936-1.512l-1.5-.36a9.666,9.666,0,0,1-.756,1.74l.432.132H13.8v-1.956H12.456v1.956h-.888v-1.956H10.236v1.956H9.144l.588-.216a9.08,9.08,0,0,0-.912-1.692L7.6-9.7A10.756,10.756,0,0,1,8.34-8.208H6.732v1.164H9.24L9.1-7.02a5.392,5.392,0,0,1,.408.936H7.224v1.116H11.28v.54H7.824V-3.4H11.28v.528H6.7v1.176H10.14a12.607,12.607,0,0,1-3.792,1.4A6.656,6.656,0,0,1,7.26.9a11.383,11.383,0,0,0,4.02-1.944V1.044h1.4v-2.16A10.243,10.243,0,0,0,16.716.912a6.713,6.713,0,0,1,.96-1.3,10.721,10.721,0,0,1-3.8-1.308Zm7.44.96V-3.048h3.444v-1.38H24.792V-6.5h4.02V-7.9h-3.8l.636-.468a13.628,13.628,0,0,0-2.3-1.812l-1.176.816a17.735,17.735,0,0,1,1.8,1.464h-4.8V-6.5H23.22v2.076H19.8v1.38h3.42V-.732H18.66v1.4H29.4v-1.4Z" transform="translate(736 4248)" fill="#adadad"/>
    <path id="パス_33260" data-name="パス 33260" d="M-63.818-5.448V-3.9h11.04V-5.448Zm13.908-1.38a5.013,5.013,0,0,1,.54,1.512l.9-.36a4.659,4.659,0,0,0-.612-1.488Zm-.12-.612h1.7v2.316c-.588.06-1.164.12-1.7.168Zm3.4,3.228L-46.67-5.3l-.5.06v-3.3h-1.572c.168-.408.36-.9.54-1.392l-1.524-.24a12.249,12.249,0,0,1-.324,1.632h-1.092v3.7l-.84.072.144,1.14.7-.072a8.485,8.485,0,0,1-.84,4.116,4.405,4.405,0,0,1,.96.624,10.15,10.15,0,0,0,1-4.872l1.7-.18V-.252c0,.144-.036.192-.18.192-.12,0-.516,0-.9-.012a4.256,4.256,0,0,1,.336,1.116A3,3,0,0,0-47.606.828c.348-.2.432-.516.432-1.056V-4.152Zm-2.184.528h-.816V-.948h.816Zm5.952-.168A5.739,5.739,0,0,1-43.922-2.1a6.115,6.115,0,0,1-.984-1.752Zm.8-1.3-.228.048h-3.6a3.69,3.69,0,0,0,1.176-3.036V-8.5h1.272v1.428c0,.744.084,1.008.276,1.2a1.134,1.134,0,0,0,.8.3h.624a1.429,1.429,0,0,0,.648-.144.824.824,0,0,0,.408-.48,5.979,5.979,0,0,0,.168-1.236,3.406,3.406,0,0,1-1.02-.528c-.012.456-.024.828-.048,1s-.048.228-.1.252a.221.221,0,0,1-.156.048h-.192a.122.122,0,0,1-.12-.06,1.292,1.292,0,0,1-.012-.36V-9.732h-3.816V-8.16a2.6,2.6,0,0,1-.936,2.268,7.039,7.039,0,0,1,1,.792h-.5v1.248h1.464l-1.1.252a8.547,8.547,0,0,0,1.224,2.352,6.642,6.642,0,0,1-2.22,1.1A5.382,5.382,0,0,1-46.3,1.044a8.456,8.456,0,0,0,2.412-1.3,6.534,6.534,0,0,0,2.508,1.284,5.166,5.166,0,0,1,.852-1.176,6.466,6.466,0,0,1-2.388-1.032,8.394,8.394,0,0,0,1.752-3.672Zm11.424-2.64-1.248-.624A4.314,4.314,0,0,1-33-8.256h-3.792a12.212,12.212,0,0,1-1.344-.1V-6.66c.432-.036.876-.048,1.356-.048h4.14c-.024.78-.444,3.324-.672,4.632H-38.27a8.058,8.058,0,0,1-1.188-.1v1.74c.408-.036.828-.06,1.188-.06h8a9.3,9.3,0,0,1,1.116.06v-1.74a9.232,9.232,0,0,1-1.116.1h-1.3c.228-1.344.66-4.08.8-5.172A5.169,5.169,0,0,1-30.638-7.788Zm3.432,2.232v1.884c.444-.036,1.248-.06,1.932-.06h6.444c.5,0,1.116.048,1.4.06V-5.556c-.312.024-.84.072-1.4.072h-6.444C-25.9-5.484-26.774-5.52-27.206-5.556Zm20.46-3.78-.8.264a15.89,15.89,0,0,1,.612,1.644l.828-.264A12.167,12.167,0,0,0-6.746-9.336ZM-5.51-9.72l-.816.264a10.748,10.748,0,0,1,.648,1.632l.828-.264C-5.006-8.544-5.282-9.24-5.51-9.72Zm-2.268,4.6v-.4h.9c.624,0,1.044.012,1.308.036v-1.6A7.111,7.111,0,0,1-6.89-7h-.888v-1.26a7.707,7.707,0,0,1,.084-1.116H-9.41a7.919,7.919,0,0,1,.072,1.116V-7h-2.844V-8.172a9.57,9.57,0,0,1,.072-1.092h-1.7c.036.372.072.732.072,1.08V-7h-1.02a7.935,7.935,0,0,1-1.3-.108v1.632c.264-.012.7-.048,1.3-.048h1.02v1.632a9.7,9.7,0,0,1-.072,1.26h1.68c-.012-.24-.048-.72-.048-1.26V-5.52h2.844v.456c0,2.952-1.02,3.984-3.336,4.8L-11.39.948C-8.486-.336-7.778-2.148-7.778-5.124Zm4.332-.432v1.884c.444-.036,1.248-.06,1.932-.06H4.93c.5,0,1.116.048,1.4.06V-5.556c-.312.024-.84.072-1.4.072H-1.514C-2.138-5.484-3.014-5.52-3.446-5.556ZM9.79,2.02l.92-.39A9.621,9.621,0,0,1,9.49-3.16a9.638,9.638,0,0,1,1.22-4.78l-.92-.39A9.576,9.576,0,0,0,8.3-3.16,9.585,9.585,0,0,0,9.79,2.02Zm9.48-9.35a.58.58,0,0,1,.58-.58.578.578,0,0,1,.57.58.576.576,0,0,1-.57.57A.578.578,0,0,1,19.27-7.33Zm-.62,0a1.108,1.108,0,0,0,.02.19,4.315,4.315,0,0,1-.57.04H13.47a11.134,11.134,0,0,1-1.19-.08v1.41c.25-.02.73-.04,1.19-.04h4.65a6.284,6.284,0,0,1-1.17,2.82A6.556,6.556,0,0,1,13.03-.64L14.12.56a8.032,8.032,0,0,0,4.02-2.77,10.1,10.1,0,0,0,1.5-3.64c.03-.09.05-.19.08-.3a.57.57,0,0,0,.13.01,1.2,1.2,0,0,0,1.19-1.19,1.2,1.2,0,0,0-1.19-1.2A1.2,1.2,0,0,0,18.65-7.33ZM23.18-.4l.95.82a2.581,2.581,0,0,1,.59-.27,12.531,12.531,0,0,0,5.8-3.6l-.71-1.13a11.458,11.458,0,0,1-5.14,3.31v-5.2a7.314,7.314,0,0,1,.1-1.14H23.2a6.389,6.389,0,0,1,.11,1.14v5.42A1.306,1.306,0,0,1,23.18-.4Zm10.9-7.43-.47,1.18A34.306,34.306,0,0,1,39.02-5.4l.51-1.25A36.519,36.519,0,0,0,34.08-7.83Zm-.46,2.69-.46,1.21a34.767,34.767,0,0,1,5.2,1.26l.49-1.25A41.224,41.224,0,0,0,33.62-5.14Zm-.51,2.86-.5,1.26A35.677,35.677,0,0,1,38.72.47l.55-1.25A42.735,42.735,0,0,0,33.11-2.28ZM50.78-6.77l-.79-.74a5.157,5.157,0,0,1-1.02.09H43.58a7.928,7.928,0,0,1-1.22-.1v1.39c.47-.04.8-.07,1.22-.07h5.21a5.947,5.947,0,0,1-1.84,1.86l1.04.83a10.185,10.185,0,0,0,2.4-2.74A5.035,5.035,0,0,1,50.78-6.77ZM46.7-5.42H45.25a5.544,5.544,0,0,1,.07.9c0,1.64-.24,2.7-1.51,3.58a3.951,3.951,0,0,1-1.05.55l1.17.95C46.65-.9,46.7-2.94,46.7-5.42Zm9.38-2.12-1.59-.33a7.277,7.277,0,0,1-.24,1.16c-.29,1.04-1.15,3.78-1.73,5.26-.09,0-.19.01-.27.01-.33.01-.76.01-1.1.01L51.38.03c.32-.04.69-.09.94-.12,1.26-.13,4.29-.45,5.91-.64.19.43.35.84.48,1.18l1.35-.6a30.755,30.755,0,0,0-2.19-4.16l-1.25.51a12.087,12.087,0,0,1,1.05,1.83c-1.01.12-2.43.28-3.65.4.5-1.34,1.31-3.88,1.63-4.86C55.8-6.87,55.95-7.24,56.08-7.54Zm5.88,9.56a9.507,9.507,0,0,0,1.5-5.18,9.5,9.5,0,0,0-1.5-5.17l-.91.39a9.638,9.638,0,0,1,1.22,4.78,9.621,9.621,0,0,1-1.22,4.79Z" transform="translate(736 4267)" fill="#adadad"/>
    <path id="パス_33255" data-name="パス 33255" d="M-25.212-7.992l-1.176-.756a4.022,4.022,0,0,1-.948.1H-32.88c-.4,0-1.08-.06-1.44-.1v1.692c.312-.024.888-.048,1.428-.048H-27.3A7.6,7.6,0,0,1-28.7-3.72a7.982,7.982,0,0,1-4.7,2.82L-32.1.528a9.6,9.6,0,0,0,4.824-3.312,12.332,12.332,0,0,0,1.8-4.368A5.242,5.242,0,0,1-25.212-7.992Zm10.968-1.32h-1.812a8.466,8.466,0,0,1,.072,1.2v2.28c0,1.872-.156,2.772-.984,3.672a5.429,5.429,0,0,1-2.88,1.512L-18.6.672a7.066,7.066,0,0,0,2.916-1.728c.888-.984,1.392-2.1,1.392-4.68V-8.112C-14.292-8.592-14.268-8.976-14.244-9.312Zm-5.568.1H-21.54a8.521,8.521,0,0,1,.048.924v4.044c0,.36-.048.828-.06,1.056h1.74c-.024-.276-.036-.744-.036-1.044V-8.292C-19.848-8.676-19.836-8.94-19.812-9.216Zm9.036,3.66v1.884c.444-.036,1.248-.06,1.932-.06H-2.4c.5,0,1.116.048,1.4.06V-5.556c-.312.024-.84.072-1.4.072H-8.844C-9.468-5.484-10.344-5.52-10.776-5.556ZM2.8-9.2v1.548c.348-.024.864-.036,1.248-.036h4.6c.432,0,1,.012,1.32.036V-9.2a11.314,11.314,0,0,1-1.3.06H4.044A10.115,10.115,0,0,1,2.8-9.2Zm8.172,3.48L9.9-6.384a2.531,2.531,0,0,1-.876.12H3.084c-.372,0-.888-.036-1.392-.072v1.56c.5-.048,1.1-.06,1.392-.06h5.8A5.206,5.206,0,0,1,7.644-2.76,8.094,8.094,0,0,1,3.492-.66L4.68.7A8.986,8.986,0,0,0,8.964-1.9,8.624,8.624,0,0,0,10.74-5.22,4.446,4.446,0,0,1,10.968-5.724Zm4.044-3.4-1.128,1.2a24.951,24.951,0,0,1,3,2.592l1.224-1.248A24.236,24.236,0,0,0,15.012-9.12Zm-1.5,7.992L14.52.456a13,13,0,0,0,4.452-1.692,12.76,12.76,0,0,0,4.44-4.44l-.936-1.692A11.3,11.3,0,0,1,18.108-2.7,12.368,12.368,0,0,1,13.512-1.128ZM33.888-8.136,32.9-8.868a4.3,4.3,0,0,1-1.236.156H27.432A13.407,13.407,0,0,1,26.016-8.8v1.7c.252-.012.912-.084,1.416-.084H31.5a9.3,9.3,0,0,1-1.788,2.94,13.452,13.452,0,0,1-4.92,3.444L26.028.5A15.807,15.807,0,0,0,30.54-2.868a27.365,27.365,0,0,1,3.024,3.4L34.932-.66a33.735,33.735,0,0,0-3.348-3.432,17.643,17.643,0,0,0,1.884-3.3A5.67,5.67,0,0,1,33.888-8.136Z" transform="translate(714 4229)" fill="#adadad"/>
    <path id="パス_33261" data-name="パス 33261" d="M-14.952-5.16h2.208v.612h-2.208Zm0-1.524h2.208v.612h-2.208Zm5.892,0v.612h-2.292v-.612Zm0,2.136h-2.292V-5.16H-9.06Zm2.5,1.608h-2.58v-.636h1.476v-4.08h-3.684V-8.2h4.5V-9.36h-4.5v-.792h-1.392v.792h-4.4V-8.2h4.4v.54h-3.528v4.08h5.724v.636h-6.876v1.2h2.568l-.864.612A8.806,8.806,0,0,1-14,.552l1.14-.84A8.246,8.246,0,0,0-14.448-1.74h3.9V-.384c0,.156-.072.2-.264.216s-.96,0-1.6-.024a4.852,4.852,0,0,1,.444,1.248A7.058,7.058,0,0,0-9.792.864c.5-.192.648-.516.648-1.2v-1.4h2.58Zm4.788-5.592v.624H-3.6v-.624ZM-3.6-6.2v-.684h1.824V-6.2Zm3.156-3.48H-5.016V1.044H-3.6V-5.064H-.444Zm2.2,3.5v-.708h1.9v.708Zm1.9-2.352v.624h-1.9v-.624Zm1.44-1.152H.4v4.656H3.648v4.32c0,.228-.084.312-.336.312s-1.14.012-1.9-.036a5.173,5.173,0,0,1,.5,1.464A6.529,6.529,0,0,0,4.392.768c.528-.216.7-.636.7-1.452ZM8.34-7.92h7.308v1.38h1.464V-9.216H12.72v-.936H11.256v.936H6.936V-6.54h1.4ZM16-5.868A14.435,14.435,0,0,1,14.328-4.56a10.609,10.609,0,0,1-.492-1.392H15.2v-1.2H8.76v1.2h1.752A14.505,14.505,0,0,1,6.84-4.74a8.461,8.461,0,0,1,.732,1.116,17.9,17.9,0,0,0,2.844-1.02c.108.1.2.192.3.288A12.922,12.922,0,0,1,7.008-2.8a5.132,5.132,0,0,1,.72,1.08,17.681,17.681,0,0,0,3.636-1.8,4.681,4.681,0,0,1,.228.42,13.8,13.8,0,0,1-5,2.424A6.15,6.15,0,0,1,7.332.516,18.505,18.505,0,0,0,11.916-1.86a1.566,1.566,0,0,1-.4,1.344.854.854,0,0,1-.72.252c-.312,0-.7-.024-1.152-.06a2.993,2.993,0,0,1,.408,1.368,9.947,9.947,0,0,0,1.02.024,1.973,1.973,0,0,0,1.464-.5c1.188-.864,1.272-3.852-.984-5.82a7.714,7.714,0,0,0,1-.7h.024c.684,2.8,1.872,5,4.008,6.144a5.994,5.994,0,0,1,1-1.236A6.116,6.116,0,0,1,14.9-3.456a21.8,21.8,0,0,0,2.208-1.452Z" transform="translate(776 4229)" fill="#adadad"/>
    <path id="パス_29181" data-name="パス 29181" d="M10.944-12.816H8.672c.064.416.112.928.16,1.616q.024.528.048,1.152h-5.3a15.316,15.316,0,0,1-1.776-.112v2.128c.56-.032,1.248-.064,1.824-.064H8A19,19,0,0,1,.96-2.544L2.432-.88A22,22,0,0,0,8.96-6.288c.032,1.648.032,3.248.032,4.32,0,.464-.16.672-.56.672A13.59,13.59,0,0,1,6.3-1.488L6.48.592c.912.064,1.808.1,2.784.1C10.48.688,11.072.1,11.056-.928c-.032-2.16-.1-4.832-.144-7.168h2.064c.432,0,1.04.032,1.552.048v-2.128a12.369,12.369,0,0,1-1.664.128h-2c0-.416-.016-.8-.016-1.152A13.685,13.685,0,0,1,10.944-12.816ZM28.7-10.848l-1.312-.976a5.735,5.735,0,0,1-1.648.208H20.1a17.875,17.875,0,0,1-1.888-.112v2.272c.336-.016,1.216-.112,1.888-.112H25.52a12.4,12.4,0,0,1-2.384,3.92,17.936,17.936,0,0,1-6.56,4.592L18.224.672a21.076,21.076,0,0,0,6.016-4.5A36.486,36.486,0,0,1,28.272.7L30.1-.88a44.98,44.98,0,0,0-4.464-4.576,23.524,23.524,0,0,0,2.512-4.4A7.56,7.56,0,0,1,28.7-10.848Zm15.36,0-1.312-.976a5.735,5.735,0,0,1-1.648.208H35.456a17.875,17.875,0,0,1-1.888-.112v2.272c.336-.016,1.216-.112,1.888-.112H40.88A12.4,12.4,0,0,1,38.5-5.648a17.936,17.936,0,0,1-6.56,4.592L33.584.672a21.076,21.076,0,0,0,6.016-4.5A36.486,36.486,0,0,1,43.632.7L45.456-.88a44.98,44.98,0,0,0-4.464-4.576,23.524,23.524,0,0,0,2.512-4.4A7.56,7.56,0,0,1,44.064-10.848Zm15.5-.912-2.384-.832A9.979,9.979,0,0,1,56.8-11.12a16.592,16.592,0,0,1-1.776,3.808c-1.3-.96-2.976-2.112-4.256-2.9l-1.36,1.632a43.99,43.99,0,0,1,4.32,3.04,17.607,17.607,0,0,1-6.08,4.72L49.44.8a20,20,0,0,0,5.952-4.944A32.217,32.217,0,0,1,58.944-.608l1.648-1.824a41.9,41.9,0,0,0-3.84-3.536A24.164,24.164,0,0,0,58.9-10.32C59.056-10.688,59.36-11.392,59.568-11.76Z" transform="translate(487.828 4175.811) rotate(-38.5)" fill="#fff"/>
    <path id="パス_33274" data-name="パス 33274" d="M-11.36,2.912h1.568L-5.824-12.9H-7.376ZM.464-5.232C.528-5.9.56-6.576.576-7.184H6.992v1.952Zm6.528-5.712v1.952H.576v-1.952ZM9.008-12.8h-10.4v5.264c0,2.432-.224,5.488-2.64,7.552A7.515,7.515,0,0,1-2.56,1.392a8.607,8.607,0,0,0,2.7-4.784H6.992v2.32c0,.336-.128.464-.512.464-.352,0-1.7.016-2.816-.048a8.168,8.168,0,0,1,.8,2A9.679,9.679,0,0,0,8,.976C8.736.656,9.008.112,9.008-1.04Z" transform="translate(930 4307)" fill="#333"/>
    <path id="パス_33273" data-name="パス 33273" d="M-8.992-12q0-5.5,2.128-8.672T0-23.84q4.736,0,6.864,3.168T8.992-12q0,5.568-2.128,8.736T0-.1q-4.736,0-6.864-3.168T-8.992-12ZM3.616-12a13.8,13.8,0,0,0-.7-4.976A2.816,2.816,0,0,0,0-18.72a2.816,2.816,0,0,0-2.912,1.744A13.8,13.8,0,0,0-3.616-12,20.92,20.92,0,0,0-3.36-8.4,4.606,4.606,0,0,0-2.32-6.1,2.946,2.946,0,0,0,0-5.216,2.946,2.946,0,0,0,2.32-6.1,4.606,4.606,0,0,0,3.36-8.4,20.92,20.92,0,0,0,3.616-12Z" transform="translate(906 4308)" fill="#333"/>
    <path id="パス_33270" data-name="パス 33270" d="M3.176-10.594,1.8-8.133h4.8v1.242H1.547V.047h-3.27V-6.891H-6.668V-8.133h4.676l-1.336-2.461h-3.34v-1.242h2.637l-3.691-6.738h3.6l3.7,6.926q.129.234.574,1.125.3-.633.6-1.148l3.586-6.9h3.3L3.879-11.836h2.73v1.242Z" transform="translate(884 4308)" fill="#333"/>
    <path id="パス_33271" data-name="パス 33271" d="M-29.068-6.552h1.313V-8.021h-1.313v-2.821h-1.443v2.821h-1.521v1.469h1.521v3.666c-.65.247-1.222.468-1.69.637l.624,1.56c1.2-.546,2.678-1.248,4.056-1.937l-.351-1.365c-.39.169-.793.338-1.2.507Zm4.433,6.058c-.793,0-.91-.117-.91-.871V-5.382l1.079-.468v3.965h1.443V-6.474l1.118-.494c0,1.846-.013,2.8-.039,3-.052.234-.13.286-.286.286a5.915,5.915,0,0,1-.624-.026,4.152,4.152,0,0,1,.325,1.3,3.624,3.624,0,0,0,1.352-.182,1.109,1.109,0,0,0,.663-1.079c.065-.533.091-2.093.091-4.563l.052-.26-1.079-.377-.273.182L-22-8.5l-1.027.442v-2.964h-1.443v3.588l-1.079.455V-9.763h-1.482v3.419l-1.274.533.572,1.378.7-.3v3.341c0,1.794.507,2.275,2.262,2.275H-22c1.521,0,1.976-.624,2.184-2.444a3.913,3.913,0,0,1-1.352-.559c-.117,1.326-.247,1.625-.962,1.625Zm17.5-6.968V-8.944h-5.135v-2.119h-1.6v2.119H-18.85v1.482h3.718c-.143,2.782-.442,5.746-3.952,7.371a4.942,4.942,0,0,1,1.092,1.313,7.631,7.631,0,0,0,4.173-5.538h3.575C-10.426-1.95-10.66-.819-11-.533a.834.834,0,0,1-.624.169c-.377,0-1.287,0-2.184-.091a3.6,3.6,0,0,1,.546,1.521,17.806,17.806,0,0,0,2.223,0,1.919,1.919,0,0,0,1.4-.6C-9.113-.1-8.84-1.56-8.606-5.1a6.325,6.325,0,0,0,.052-.676h-5.018c.065-.559.1-1.131.143-1.69Zm4.095,6.5V-2.314H3.133V-.962ZM3.133-5.083v1.339H-3.042V-5.083Zm0-2.769v1.339H-3.042V-7.852ZM.325-9.334c.208-.468.416-.975.611-1.495l-1.872-.208a14.713,14.713,0,0,1-.351,1.7H-4.615V1.118h1.573V.468H3.133v.637H4.784V-9.334ZM10.6-5.148c1.768-.13,4.238-.3,6.63-.481a11.24,11.24,0,0,1,.52,1.066l1.43-.806a17.818,17.818,0,0,0-2.574-3.8l-1.352.689c.364.442.741.949,1.092,1.456-1.027.065-2.054.13-3.016.182.572-1.144,1.17-2.535,1.664-3.809l-1.781-.377A27.051,27.051,0,0,1,11.674-6.76c-.455.026-.884.039-1.261.052Zm.429-4.524a10.445,10.445,0,0,0-2.5-1.313L7.683-9.8A9.805,9.805,0,0,1,10.1-8.385ZM10.27-6.24A10.6,10.6,0,0,0,7.748-7.475L6.9-6.292A10.329,10.329,0,0,1,9.36-4.927Zm-1.6,7.2c.767-1.261,1.573-2.743,2.236-4.1L9.75-4.16a36.793,36.793,0,0,1-2.418,4.1ZM16.419-2.86V-.819H12.974V-2.86Zm-4.94,3.991h1.5V.6h3.445v.481h1.573V-4.29H11.479ZM22.4-10.959A13.69,13.69,0,0,1,19.708-6.1a9.266,9.266,0,0,1,.858,1.612c.26-.312.533-.663.793-1.014v6.6h1.469V-8.008a22.767,22.767,0,0,0,1.04-2.509Zm5.967,8.528V-5.824a19.014,19.014,0,0,0,1.6,3.393Zm-3.094,0a16.893,16.893,0,0,0,1.586-3.3v3.3Zm6.682-4.8V-8.7H28.366v-2.249H26.858V-8.7H23.569v1.469H26.13A13.293,13.293,0,0,1,22.893-1.95,6.3,6.3,0,0,1,24-.78a9.027,9.027,0,0,0,1.157-1.469v1.2h1.7V1.04h1.508V-1.053h1.742V-2.2a10.894,10.894,0,0,0,1.04,1.378,6.328,6.328,0,0,1,1.157-1.2,14.044,14.044,0,0,1-3.172-5.213Z" transform="translate(907 4258.5)" fill="#adadad"/>
    <path id="パス_33272" data-name="パス 33272" d="M-14.586-9.555l-1.937-.676a8.108,8.108,0,0,1-.312,1.2,13.481,13.481,0,0,1-1.443,3.094c-1.053-.78-2.418-1.716-3.458-2.353l-1.1,1.326a35.742,35.742,0,0,1,3.51,2.47,14.306,14.306,0,0,1-4.94,3.835L-22.815.65a16.252,16.252,0,0,0,4.836-4.017A26.176,26.176,0,0,1-15.093-.494l1.339-1.482a34.04,34.04,0,0,0-3.12-2.873,19.633,19.633,0,0,0,1.742-3.536C-15-8.684-14.755-9.256-14.586-9.555Zm4.485-.26v1.677c.39-.026.949-.039,1.391-.039h4.251c.455,0,.962.013,1.4.039V-9.815a10.2,10.2,0,0,1-1.4.1H-8.71A9.727,9.727,0,0,1-10.1-9.815Zm-1.508,3.328v1.7c.364-.026.871-.052,1.248-.052h3.575a5.587,5.587,0,0,1-.806,2.873A5.309,5.309,0,0,1-9.945-.1L-8.424,1A6.161,6.161,0,0,0-5.811-1.5a8.247,8.247,0,0,0,.832-3.341h3.133c.364,0,.858.013,1.183.039v-1.69a9.831,9.831,0,0,1-1.183.078h-8.515A9.9,9.9,0,0,1-11.609-6.487Zm9.334-4.225-1.04.429A16.552,16.552,0,0,1-2.288-8.476l1.04-.455C-1.495-9.412-1.95-10.231-2.275-10.712ZM-.741-11.3l-1.027.429A15.337,15.337,0,0,1-.728-9.074l1.04-.455A20.333,20.333,0,0,0-.741-11.3ZM.936-3.705,1.7-2.171A27.12,27.12,0,0,0,5.434-3.692V-.26c0,.455-.039,1.144-.065,1.4H7.293A7.238,7.238,0,0,1,7.2-.26V-4.719a17.04,17.04,0,0,0,2.912-2.366L8.827-8.346A13.544,13.544,0,0,1,5.59-5.564,17.166,17.166,0,0,1,.936-3.705ZM24.96-8.8l-1.027-.962a6.7,6.7,0,0,1-1.326.117H15.6a10.306,10.306,0,0,1-1.586-.13v1.807c.611-.052,1.04-.091,1.586-.091h6.773a7.731,7.731,0,0,1-2.392,2.418l1.352,1.079a13.24,13.24,0,0,0,3.12-3.562A6.545,6.545,0,0,1,24.96-8.8Zm-5.3,1.755H17.771a7.207,7.207,0,0,1,.091,1.17c0,2.132-.312,3.51-1.963,4.654a5.137,5.137,0,0,1-1.365.715L16.055.728C19.591-1.17,19.656-3.822,19.656-7.046Z" transform="translate(907 4237.5)" fill="#adadad"/>
    <path id="パス_33256" data-name="パス 33256" d="M0,0H480" transform="translate(496.5 4206.5)" fill="none" stroke="#f5f5f5" stroke-width="2"/>
    <path id="パス_33259" data-name="パス 33259" d="M0,0V92" transform="translate(650 4223.5)" fill="none" stroke="#f5f5f5" stroke-width="2"/>
    <path id="パス_33269" data-name="パス 33269" d="M0,0V92" transform="translate(821 4223.5)" fill="none" stroke="#f5f5f5" stroke-width="2"/>
  </g>
</svg>
