<svg xmlns="http://www.w3.org/2000/svg" width="512" height="238" viewBox="0 0 512 238">
  <g id="グループ_6395" data-name="グループ 6395" transform="translate(-480 -4126)">
    <path id="合体_7" data-name="合体 7" d="M0,204.887H512L256,238Zm0,0V0H512V204.887Z" transform="translate(480 4126)" fill="#fff"/>
    <path id="パス_29180" data-name="パス 29180" d="M0,0H90L0,70Z" transform="translate(480 4126)" fill="#5096ff"/>
    <text id="プレミアムプラン" transform="translate(658 4192)" fill="#333" font-size="20" font-family="NotoSansJP-Black, Noto Sans JP" font-weight="800"><tspan x="0" y="0">プレミアムプラン</tspan></text>
    <text id="自分の仕事_活動の認知拡大_仕事に結び付けたい方にもおすすめ_" data-name="自分の仕事・活動の認知拡大、
仕事に結び付けたい方にもおすすめ！" transform="translate(736 4146)" fill="#5096ff" font-size="12" font-family="NotoSansJP-Bold, Noto Sans JP" font-weight="700"><tspan x="-84" y="0">自分の仕事・活動の認知拡大、</tspan><tspan x="-102" y="17">仕事に結び付けたい方にもおすすめ！</tspan></text>
    <rect id="長方形_10383" data-name="長方形 10383" width="170" height="126" transform="translate(480 4206)" fill="#fff"/>
    <rect id="長方形_10384" data-name="長方形 10384" width="171" height="126" transform="translate(650 4206)" fill="#fff"/>
    <rect id="長方形_10385" data-name="長方形 10385" width="171" height="126" transform="translate(821 4206)" fill="#fff"/>
    <g id="グループ_5860" data-name="グループ 5860" transform="translate(-65 1089)">
      <text id="_月" data-name="/月" transform="translate(691 3218)" fill="#333" font-size="16" font-family="NotoSansJP-Bold, Noto Sans JP" font-weight="700" letter-spacing="0.06em"><tspan x="-11.584" y="0">/月</tspan></text>
      <text id="_11_000" data-name="11,000" transform="translate(629 3219)" fill="#333" font-size="32" font-family="Poppins-Bold, Poppins" font-weight="700"><tspan x="-47.92" y="0">11,000</tspan></text>
      <text id="_" data-name="￥" transform="translate(569 3219)" fill="#333" font-size="24" font-family="YuGothicUI-Bold, Yu Gothic UI" font-weight="700" letter-spacing="0.06em"><tspan x="-12" y="0">￥</tspan></text>
    </g>
    <text id="企業_団体" data-name="企業・団体" transform="translate(567 4248)" fill="#adadad" font-size="13" font-family="NotoSansJP-Bold, Noto Sans JP" font-weight="700"><tspan x="-32.5" y="0">企業・団体</tspan></text>
    <g id="グループ_5927" data-name="グループ 5927" transform="translate(106 1089)">
      <text id="_月-2" data-name="/月" transform="translate(689 3218)" fill="#333" font-size="16" font-family="NotoSansJP-Bold, Noto Sans JP" font-weight="700" letter-spacing="0.06em"><tspan x="-11.584" y="0">/月</tspan></text>
      <text id="_5_500" data-name="5,500" transform="translate(629 3219)" fill="#333" font-size="32" font-family="Poppins-Bold, Poppins" font-weight="700"><tspan x="-46.256" y="0">5,500</tspan></text>
      <text id="_2" data-name="￥" transform="translate(571 3219)" fill="#333" font-size="24" font-family="YuGothicUI-Bold, Yu Gothic UI" font-weight="700" letter-spacing="0.06em"><tspan x="-12" y="0">￥</tspan></text>
    </g>
    <text id="個人事業主" transform="translate(736 4248)" fill="#adadad" font-size="12" font-family="NotoSansJP-Bold, Noto Sans JP" font-weight="700"><tspan x="-30" y="0">個人事業主</tspan></text>
    <text id="一般ユーザー_プレミアム_" data-name="一般ユーザー(プレミアム)" transform="translate(736 4267)" fill="#adadad" font-size="12" font-family="NotoSansJP-Bold, Noto Sans JP" font-weight="700"><tspan x="-64.31" y="0">一般ユーザー</tspan><tspan y="0" font-size="10">(プレミアム)</tspan></text>
    <g id="グループ_5979" data-name="グループ 5979" transform="translate(13 1076)">
      <text id="フリーランス" transform="translate(701 3153)" fill="#adadad" font-size="12" font-family="NotoSansJP-Bold, Noto Sans JP" font-weight="700"><tspan x="-35.88" y="0">フリーランス</tspan></text>
      <text id="専門家" transform="translate(763 3153)" fill="#adadad" font-size="12" font-family="NotoSansJP-Bold, Noto Sans JP" font-weight="700"><tspan x="-18" y="0">専門家</tspan></text>
    </g>
    <path id="パス_29181" data-name="パス 29181" d="M10.944-12.816H8.672c.064.416.112.928.16,1.616q.024.528.048,1.152h-5.3a15.316,15.316,0,0,1-1.776-.112v2.128c.56-.032,1.248-.064,1.824-.064H8A19,19,0,0,1,.96-2.544L2.432-.88A22,22,0,0,0,8.96-6.288c.032,1.648.032,3.248.032,4.32,0,.464-.16.672-.56.672A13.59,13.59,0,0,1,6.3-1.488L6.48.592c.912.064,1.808.1,2.784.1C10.48.688,11.072.1,11.056-.928c-.032-2.16-.1-4.832-.144-7.168h2.064c.432,0,1.04.032,1.552.048v-2.128a12.369,12.369,0,0,1-1.664.128h-2c0-.416-.016-.8-.016-1.152A13.685,13.685,0,0,1,10.944-12.816ZM28.7-10.848l-1.312-.976a5.735,5.735,0,0,1-1.648.208H20.1a17.875,17.875,0,0,1-1.888-.112v2.272c.336-.016,1.216-.112,1.888-.112H25.52a12.4,12.4,0,0,1-2.384,3.92,17.936,17.936,0,0,1-6.56,4.592L18.224.672a21.076,21.076,0,0,0,6.016-4.5A36.486,36.486,0,0,1,28.272.7L30.1-.88a44.98,44.98,0,0,0-4.464-4.576,23.524,23.524,0,0,0,2.512-4.4A7.56,7.56,0,0,1,28.7-10.848Zm15.36,0-1.312-.976a5.735,5.735,0,0,1-1.648.208H35.456a17.875,17.875,0,0,1-1.888-.112v2.272c.336-.016,1.216-.112,1.888-.112H40.88A12.4,12.4,0,0,1,38.5-5.648a17.936,17.936,0,0,1-6.56,4.592L33.584.672a21.076,21.076,0,0,0,6.016-4.5A36.486,36.486,0,0,1,43.632.7L45.456-.88a44.98,44.98,0,0,0-4.464-4.576,23.524,23.524,0,0,0,2.512-4.4A7.56,7.56,0,0,1,44.064-10.848Zm15.5-.912-2.384-.832A9.979,9.979,0,0,1,56.8-11.12a16.592,16.592,0,0,1-1.776,3.808c-1.3-.96-2.976-2.112-4.256-2.9l-1.36,1.632a43.99,43.99,0,0,1,4.32,3.04,17.607,17.607,0,0,1-6.08,4.72L49.44.8a20,20,0,0,0,5.952-4.944A32.217,32.217,0,0,1,58.944-.608l1.648-1.824a41.9,41.9,0,0,0-3.84-3.536A24.164,24.164,0,0,0,58.9-10.32C59.056-10.688,59.36-11.392,59.568-11.76Z" transform="translate(487.828 4175.811) rotate(-38.5)" fill="#fff"/>
    <g id="グループ_5928" data-name="グループ 5928" transform="translate(277 1089)">
      <text id="_月-3" data-name="/月" transform="translate(653 3218)" fill="#333" font-size="16" font-family="NotoSansJP-Bold, Noto Sans JP" font-weight="700" letter-spacing="0.06em"><tspan x="-11.584" y="0">/月</tspan></text>
      <text id="_0" data-name="0" transform="translate(629 3219)" fill="#333" font-size="32" font-family="Poppins-Bold, Poppins" font-weight="700"><tspan x="-10.432" y="0">0</tspan></text>
      <text id="_3" data-name="￥" transform="translate(607 3219)" fill="#333" font-size="24" font-family="YuGothicUI-Bold, Yu Gothic UI" font-weight="700" letter-spacing="0.06em"><tspan x="-12" y="0">￥</tspan></text>
    </g>
    <g id="グループ_5980" data-name="グループ 5980" transform="translate(0 1072.5)">
      <text id="地方自治体" transform="translate(907 3186)" fill="#adadad" font-size="13" font-family="NotoSansJP-Bold, Noto Sans JP" font-weight="700"><tspan x="-32.5" y="0">地方自治体</tspan></text>
      <text id="メディア" transform="translate(907 3165)" fill="#adadad" font-size="13" font-family="NotoSansJP-Bold, Noto Sans JP" font-weight="700"><tspan x="-25.545" y="0">メディア</tspan></text>
    </g>
    <line id="線_118" data-name="線 118" x2="480" transform="translate(496.5 4206.5)" fill="none" stroke="#f5f5f5" stroke-width="2"/>
    <line id="線_119" data-name="線 119" y2="92" transform="translate(650 4223.5)" fill="none" stroke="#f5f5f5" stroke-width="2"/>
    <line id="線_120" data-name="線 120" y2="92" transform="translate(821 4223.5)" fill="none" stroke="#f5f5f5" stroke-width="2"/>
  </g>
</svg>
