<svg xmlns="http://www.w3.org/2000/svg" width="278.433" height="24.414" viewBox="0 0 278.433 24.414">
  <g id="グループ_6393" data-name="グループ 6393" transform="translate(121.079 -2544.24)">
    <g id="グループ_6207" data-name="グループ 6207" transform="translate(45.567 2556.364)">
      <path id="パス_1836" data-name="パス 1836" d="M1.19-18.816a5.368,5.368,0,0,1,.683-2.709,4.875,4.875,0,0,1,1.865-1.865,5.291,5.291,0,0,1,2.65-.668,5.213,5.213,0,0,1,3.01.881A4.606,4.606,0,0,1,11.2-20.739H8.839a2.45,2.45,0,0,0-.991-1.1,2.908,2.908,0,0,0-1.476-.367,3.036,3.036,0,0,0-1.593.418,2.855,2.855,0,0,0-1.086,1.182A3.9,3.9,0,0,0,3.3-18.816a3.908,3.908,0,0,0,.389,1.784A2.846,2.846,0,0,0,4.78-15.843a3.036,3.036,0,0,0,1.593.418A2.863,2.863,0,0,0,7.848-15.8a2.494,2.494,0,0,0,.991-1.108H11.2a4.581,4.581,0,0,1-1.8,2.445,5.235,5.235,0,0,1-3.017.874,5.291,5.291,0,0,1-2.65-.668,4.89,4.89,0,0,1-1.865-1.857A5.328,5.328,0,0,1,1.19-18.816ZM18.6-13.574a5.31,5.31,0,0,1-2.643-.675,5.042,5.042,0,0,1-1.909-1.872,5.237,5.237,0,0,1-.7-2.709,5.208,5.208,0,0,1,.7-2.694A5.042,5.042,0,0,1,15.96-23.4a5.31,5.31,0,0,1,2.643-.675,5.3,5.3,0,0,1,2.65.675,5,5,0,0,1,1.894,1.872,5.251,5.251,0,0,1,.7,2.694,5.279,5.279,0,0,1-.7,2.709,4.989,4.989,0,0,1-1.9,1.872A5.31,5.31,0,0,1,18.6-13.574Zm0-1.835a3.131,3.131,0,0,0,1.63-.418,2.869,2.869,0,0,0,1.1-1.2,3.926,3.926,0,0,0,.4-1.806,3.881,3.881,0,0,0-.4-1.8,2.83,2.83,0,0,0-1.1-1.182,3.175,3.175,0,0,0-1.63-.411,3.215,3.215,0,0,0-1.637.411,2.815,2.815,0,0,0-1.108,1.182,3.881,3.881,0,0,0-.4,1.8,3.926,3.926,0,0,0,.4,1.806,2.853,2.853,0,0,0,1.108,1.2A3.17,3.17,0,0,0,18.6-15.41Zm12.935,1.732-2.261-3.994h-.969v3.994H26.252V-23.925H30.1a4.492,4.492,0,0,1,2.026.418,2.923,2.923,0,0,1,1.255,1.131,3.085,3.085,0,0,1,.418,1.593,3.051,3.051,0,0,1-.587,1.828,3.017,3.017,0,0,1-1.747,1.123l2.452,4.155Zm-3.23-5.535h1.718a1.716,1.716,0,0,0,1.248-.4,1.5,1.5,0,0,0,.411-1.123,1.434,1.434,0,0,0-.411-1.094,1.758,1.758,0,0,0-1.248-.389H28.308ZM42.828-15.63H38.747l-.675,1.953H35.913L39.6-23.94h2.393l3.685,10.263H43.5Zm-.558-1.644-1.483-4.287L39.3-17.274Zm13.14-3.48a3.191,3.191,0,0,1-.389,1.542,2.858,2.858,0,0,1-1.219,1.16,4.433,4.433,0,0,1-2.092.44H49.993v3.935H47.938V-23.925h3.773a4.56,4.56,0,0,1,2.026.411,2.864,2.864,0,0,1,1.255,1.131A3.181,3.181,0,0,1,55.411-20.754Zm-3.788,1.483a1.781,1.781,0,0,0,1.263-.389,1.434,1.434,0,0,0,.411-1.094q0-1.5-1.674-1.5h-1.63v2.98Zm8.149-4.654v6.343a2.175,2.175,0,0,0,.543,1.593,2.049,2.049,0,0,0,1.527.551,2.069,2.069,0,0,0,1.542-.551,2.175,2.175,0,0,0,.543-1.593v-6.343H66V-17.6a4.085,4.085,0,0,1-.565,2.21,3.585,3.585,0,0,1-1.512,1.358,4.8,4.8,0,0,1-2.107.455,4.672,4.672,0,0,1-2.078-.455,3.465,3.465,0,0,1-1.476-1.358,4.214,4.214,0,0,1-.543-2.21v-6.328ZM74.145-13.677l-2.261-3.994h-.969v3.994H68.86V-23.925h3.847a4.492,4.492,0,0,1,2.026.418,2.923,2.923,0,0,1,1.255,1.131,3.085,3.085,0,0,1,.418,1.593,3.051,3.051,0,0,1-.587,1.828,3.017,3.017,0,0,1-1.747,1.123l2.452,4.155Zm-3.23-5.535h1.718a1.716,1.716,0,0,0,1.248-.4,1.5,1.5,0,0,0,.411-1.123,1.434,1.434,0,0,0-.411-1.094,1.758,1.758,0,0,0-1.248-.389H70.915ZM85.436-15.63H81.354l-.675,1.953H78.52L82.206-23.94H84.6l3.685,10.263H86.111Zm-.558-1.644-1.483-4.287-1.483,4.287Z" transform="translate(23.503 24.072)" fill="#555"/>
    </g>
    <path id="パス_33184" data-name="パス 33184" d="M2.612-7.7a1.794,1.794,0,0,1,.7-.642,2.2,2.2,0,0,1,1.05-.245,2.356,2.356,0,0,1,1.275.357,2.472,2.472,0,0,1,.9,1.02,3.4,3.4,0,0,1,.331,1.54,3.433,3.433,0,0,1-.331,1.545,2.5,2.5,0,0,1-.9,1.03,2.331,2.331,0,0,1-1.275.362,2.2,2.2,0,0,1-1.05-.24,1.853,1.853,0,0,1-.7-.637v.8H.868V-10.36H2.612ZM5.1-5.67a1.407,1.407,0,0,0-.362-1.025,1.2,1.2,0,0,0-.892-.372,1.176,1.176,0,0,0-.882.377A1.426,1.426,0,0,0,2.6-5.66a1.426,1.426,0,0,0,.362,1.03,1.176,1.176,0,0,0,.882.377,1.185,1.185,0,0,0,.887-.382A1.432,1.432,0,0,0,5.1-5.67ZM13.6-8.5,10.034-.113H8.158l1.305-2.9L7.149-8.5H9.1l1.315,3.558L11.717-8.5Z" transform="translate(50.657 2568.768)" fill="#555"/>
    <path id="パス_33185" data-name="パス 33185" d="M-88.02-15.88a8.812,8.812,0,0,1,1.034-4.351A7.12,7.12,0,0,1-84.1-23.094a8.758,8.758,0,0,1,4.239-1,8.156,8.156,0,0,1,5.113,1.574,7.407,7.407,0,0,1,2.695,4.437h-5.3a2.548,2.548,0,0,0-2.593-1.832,2.63,2.63,0,0,0-2.185,1.045,4.772,4.772,0,0,0-.816,2.991,4.772,4.772,0,0,0,.816,2.991,2.63,2.63,0,0,0,2.185,1.045,2.548,2.548,0,0,0,2.593-1.832h5.3a7.479,7.479,0,0,1-2.709,4.408,8.071,8.071,0,0,1-5.1,1.6,8.758,8.758,0,0,1-4.239-1,7.12,7.12,0,0,1-2.884-2.863A8.813,8.813,0,0,1-88.02-15.88Zm27.18,8.216a9.1,9.1,0,0,1-4.3-1,7.408,7.408,0,0,1-3-2.863A8.436,8.436,0,0,1-69.23-15.88a8.369,8.369,0,0,1,1.107-4.337,7.454,7.454,0,0,1,3.03-2.877,9.188,9.188,0,0,1,4.312-1,9.188,9.188,0,0,1,4.312,1,7.454,7.454,0,0,1,3.03,2.877,8.369,8.369,0,0,1,1.107,4.337,8.285,8.285,0,0,1-1.122,4.337,7.528,7.528,0,0,1-3.059,2.877A9.276,9.276,0,0,1-60.84-7.664Zm0-4.237a3.273,3.273,0,0,0,2.433-1.031A4.05,4.05,0,0,0-57.4-15.88a4.124,4.124,0,0,0-.976-2.948,3.18,3.18,0,0,0-2.4-1.031A3.188,3.188,0,0,0-63.2-18.843a4.154,4.154,0,0,0-.961,2.963,4.2,4.2,0,0,0,.947,2.948A3.089,3.089,0,0,0-60.84-11.9Zm22.228-12.137a5.952,5.952,0,0,1,4.559,1.818,7.014,7.014,0,0,1,1.7,5v9.332H-37.3v-8.674a3.468,3.468,0,0,0-.845-2.49,2.989,2.989,0,0,0-2.272-.887,2.989,2.989,0,0,0-2.272.887,3.468,3.468,0,0,0-.845,2.49v8.674h-4.982V-23.867h4.982v2.118A5.234,5.234,0,0,1-41.5-23.423,6.579,6.579,0,0,1-38.612-24.039Zm20.8,0a5.952,5.952,0,0,1,4.559,1.818,7.014,7.014,0,0,1,1.7,5v9.332H-16.5v-8.674a3.468,3.468,0,0,0-.845-2.49,2.989,2.989,0,0,0-2.272-.887,2.989,2.989,0,0,0-2.272.887,3.468,3.468,0,0,0-.845,2.49v8.674h-4.982V-23.867h4.982v2.118A5.234,5.234,0,0,1-20.7-23.423,6.579,6.579,0,0,1-17.812-24.039Zm26.219,7.9a12.282,12.282,0,0,1-.087,1.431H-2.954a3.3,3.3,0,0,0,.976,2.276,3.011,3.011,0,0,0,2.112.787,2.623,2.623,0,0,0,2.593-1.546h5.3a7.1,7.1,0,0,1-1.471,2.834A7.355,7.355,0,0,1,3.892-8.38a8.692,8.692,0,0,1-3.583.716,8.843,8.843,0,0,1-4.253-1,7.191,7.191,0,0,1-2.913-2.863A8.714,8.714,0,0,1-7.907-15.88a8.812,8.812,0,0,1,1.034-4.351,7.1,7.1,0,0,1,2.9-2.863,8.906,8.906,0,0,1,4.282-1,8.817,8.817,0,0,1,4.2.973,7.054,7.054,0,0,1,2.87,2.777A8.311,8.311,0,0,1,8.407-16.138Zm-5.1-1.288a2.5,2.5,0,0,0-.874-2A3.252,3.252,0,0,0,.25-20.174a3.19,3.19,0,0,0-2.112.716,3.161,3.161,0,0,0-1.063,2.032ZM11.2-15.88a8.812,8.812,0,0,1,1.034-4.351,7.12,7.12,0,0,1,2.884-2.863,8.758,8.758,0,0,1,4.239-1,8.156,8.156,0,0,1,5.113,1.574,7.408,7.408,0,0,1,2.695,4.437h-5.3a2.548,2.548,0,0,0-2.593-1.832,2.63,2.63,0,0,0-2.185,1.045,4.772,4.772,0,0,0-.816,2.991,4.772,4.772,0,0,0,.816,2.991,2.63,2.63,0,0,0,2.185,1.045,2.548,2.548,0,0,0,2.593-1.832h5.3a7.479,7.479,0,0,1-2.709,4.408,8.071,8.071,0,0,1-5.1,1.6,8.758,8.758,0,0,1-4.239-1,7.12,7.12,0,0,1-2.884-2.863A8.812,8.812,0,0,1,11.2-15.88Zm28.841,3.836v4.151H37.51a6.277,6.277,0,0,1-4.224-1.3,5.329,5.329,0,0,1-1.515-4.251V-19.8H29.79v-4.065h1.981V-27.76h4.982v3.893h3.263V-19.8H36.753v6.412a1.327,1.327,0,0,0,.35,1.031,1.728,1.728,0,0,0,1.165.315Z" transform="translate(1.481 2573.85)" fill="#333"/>
    <path id="パス_33186" data-name="パス 33186" d="M-18.76-19.2a13.6,13.6,0,0,1,1.937-7.766q1.937-2.837,6.249-2.837t6.249,2.837A13.6,13.6,0,0,1-2.388-19.2q0,4.986-1.937,7.823t-6.249,2.837q-4.312,0-6.249-2.837T-18.76-19.2Zm11.478,0a12.174,12.174,0,0,0-.641-4.456,2.567,2.567,0,0,0-2.651-1.562,2.567,2.567,0,0,0-2.651,1.562,12.174,12.174,0,0,0-.641,4.456,18.433,18.433,0,0,0,.233,3.224,4.1,4.1,0,0,0,.947,2.063,2.706,2.706,0,0,0,2.112.788,2.706,2.706,0,0,0,2.112-.788,4.1,4.1,0,0,0,.947-2.063A18.433,18.433,0,0,0-7.282-19.2ZM-.29-24.814V-29.37h8.07V-8.452H2.594V-24.814Z" transform="translate(-102.319 2574.041)" fill="#fff" opacity="0.3"/>
  </g>
</svg>
