<svg xmlns="http://www.w3.org/2000/svg" width="34.01" height="390.351" viewBox="0 0 34.01 390.351">
  <g id="グループ_6206" data-name="グループ 6206" transform="translate(2735.71 -1006.5) rotate(90)">
    <g id="グループ_6207" data-name="グループ 6207" transform="translate(1243.361 2694.661)">
      <path id="パス_1836" data-name="パス 1836" d="M1.19-16.855a7.371,7.371,0,0,1,.937-3.719,6.694,6.694,0,0,1,2.56-2.56,7.265,7.265,0,0,1,3.639-.917,7.158,7.158,0,0,1,4.133,1.21,6.324,6.324,0,0,1,2.48,3.346H11.693a3.364,3.364,0,0,0-1.361-1.512,3.993,3.993,0,0,0-2.026-.5,4.168,4.168,0,0,0-2.187.575,3.921,3.921,0,0,0-1.492,1.623,5.35,5.35,0,0,0-.534,2.459,5.366,5.366,0,0,0,.534,2.449,3.907,3.907,0,0,0,1.492,1.633,4.168,4.168,0,0,0,2.187.575,3.932,3.932,0,0,0,2.026-.514,3.425,3.425,0,0,0,1.361-1.522h3.246a6.29,6.29,0,0,1-2.47,3.357,7.188,7.188,0,0,1-4.143,1.2A7.265,7.265,0,0,1,4.688-10.6a6.714,6.714,0,0,1-2.56-2.55A7.315,7.315,0,0,1,1.19-16.855ZM25.1-9.658a7.291,7.291,0,0,1-3.629-.927,6.923,6.923,0,0,1-2.621-2.57,7.19,7.19,0,0,1-.968-3.719,7.152,7.152,0,0,1,.968-3.7,6.923,6.923,0,0,1,2.621-2.57,7.291,7.291,0,0,1,3.629-.927,7.274,7.274,0,0,1,3.639.927,6.87,6.87,0,0,1,2.6,2.57,7.21,7.21,0,0,1,.958,3.7,7.249,7.249,0,0,1-.958,3.719,6.85,6.85,0,0,1-2.611,2.57A7.291,7.291,0,0,1,25.1-9.658Zm0-2.52a4.3,4.3,0,0,0,2.238-.575A3.939,3.939,0,0,0,28.849-14.4a5.391,5.391,0,0,0,.544-2.48,5.329,5.329,0,0,0-.544-2.47,3.885,3.885,0,0,0-1.512-1.623,4.359,4.359,0,0,0-2.238-.564,4.414,4.414,0,0,0-2.248.564,3.865,3.865,0,0,0-1.522,1.623,5.329,5.329,0,0,0-.544,2.47,5.391,5.391,0,0,0,.544,2.48,3.918,3.918,0,0,0,1.522,1.643A4.353,4.353,0,0,0,25.1-12.178ZM42.859-9.8l-3.1-5.483H38.424V-9.8H35.6V-23.87h5.282a6.167,6.167,0,0,1,2.782.575,4.014,4.014,0,0,1,1.724,1.552,4.236,4.236,0,0,1,.575,2.187,4.19,4.19,0,0,1-.806,2.51,4.143,4.143,0,0,1-2.4,1.542L46.125-9.8Zm-4.435-7.6h2.359a2.357,2.357,0,0,0,1.714-.554,2.063,2.063,0,0,0,.564-1.542A1.968,1.968,0,0,0,42.5-21a2.413,2.413,0,0,0-1.714-.534H38.424ZM58.362-12.48h-5.6L51.83-9.8H48.867l5.06-14.091h3.286L62.273-9.8H59.289ZM57.6-14.738,55.56-20.625l-2.036,5.887Zm18.043-4.778A4.382,4.382,0,0,1,75.1-17.4a3.924,3.924,0,0,1-1.673,1.593,6.086,6.086,0,0,1-2.873.6H68.2v5.4H65.377V-23.87h5.181a6.261,6.261,0,0,1,2.782.564,3.932,3.932,0,0,1,1.724,1.552A4.368,4.368,0,0,1,75.638-19.516Zm-5.2,2.036a2.446,2.446,0,0,0,1.734-.534,1.968,1.968,0,0,0,.564-1.5q0-2.056-2.3-2.056H68.2v4.092Zm11.188-6.39v8.709a2.986,2.986,0,0,0,.746,2.187,2.813,2.813,0,0,0,2.1.756,2.841,2.841,0,0,0,2.117-.756,2.986,2.986,0,0,0,.746-2.187V-23.87h2.842v8.689a5.609,5.609,0,0,1-.776,3.034,4.922,4.922,0,0,1-2.076,1.865,6.591,6.591,0,0,1-2.893.625,6.415,6.415,0,0,1-2.853-.625,4.758,4.758,0,0,1-2.026-1.865,5.786,5.786,0,0,1-.746-3.034V-23.87ZM101.362-9.8l-3.1-5.483H96.926V-9.8H94.1V-23.87h5.282a6.167,6.167,0,0,1,2.782.575,4.014,4.014,0,0,1,1.724,1.552,4.236,4.236,0,0,1,.575,2.187,4.19,4.19,0,0,1-.806,2.51,4.142,4.142,0,0,1-2.4,1.542L104.627-9.8Zm-4.435-7.6h2.359A2.357,2.357,0,0,0,101-17.954a2.063,2.063,0,0,0,.564-1.542A1.968,1.968,0,0,0,101-21a2.413,2.413,0,0,0-1.714-.534H96.926Zm19.938,4.919h-5.6L110.332-9.8h-2.963l5.06-14.091h3.286L120.775-9.8h-2.984Zm-.766-2.258-2.036-5.887-2.036,5.887Z" transform="translate(32.715 48)" fill="#555"/>
    </g>
    <path id="パス_33208" data-name="パス 33208" d="M3.262-6.706a2.464,2.464,0,0,1,.966-.882A3.017,3.017,0,0,1,5.67-7.924a3.235,3.235,0,0,1,1.75.49,3.394,3.394,0,0,1,1.239,1.4A4.669,4.669,0,0,1,9.114-3.92,4.713,4.713,0,0,1,8.659-1.8,3.434,3.434,0,0,1,7.42-.385a3.2,3.2,0,0,1-1.75.5A3.017,3.017,0,0,1,4.228-.217a2.544,2.544,0,0,1-.966-.875V0H.868V-10.36H3.262ZM6.678-3.92a1.932,1.932,0,0,0-.5-1.407,1.641,1.641,0,0,0-1.225-.511,1.615,1.615,0,0,0-1.211.518,1.957,1.957,0,0,0-.5,1.414,1.957,1.957,0,0,0,.5,1.414,1.615,1.615,0,0,0,1.211.518A1.627,1.627,0,0,0,6.174-2.5,1.966,1.966,0,0,0,6.678-3.92ZM18.354-7.812,13.454,3.71H10.878L12.67-.266,9.492-7.812h2.674l1.806,4.886,1.792-4.886Z" transform="translate(1252.912 2732)" fill="#555"/>
    <path id="パス_33209" data-name="パス 33209" d="M-88.02-11.16a12.49,12.49,0,0,1,1.42-6.08,9.863,9.863,0,0,1,3.96-4,11.857,11.857,0,0,1,5.82-1.4,11.066,11.066,0,0,1,7.02,2.2,10.38,10.38,0,0,1,3.7,6.2h-7.28a3.5,3.5,0,0,0-3.56-2.56,3.588,3.588,0,0,0-3,1.46,6.754,6.754,0,0,0-1.12,4.18,6.754,6.754,0,0,0,1.12,4.18,3.588,3.588,0,0,0,3,1.46,3.5,3.5,0,0,0,3.56-2.56h7.28a10.479,10.479,0,0,1-3.72,6.16,10.953,10.953,0,0,1-7,2.24,11.857,11.857,0,0,1-5.82-1.4,9.863,9.863,0,0,1-3.96-4A12.49,12.49,0,0,1-88.02-11.16ZM-50.7.32a12.32,12.32,0,0,1-5.9-1.4,10.251,10.251,0,0,1-4.12-4,11.952,11.952,0,0,1-1.5-6.08,11.856,11.856,0,0,1,1.52-6.06,10.314,10.314,0,0,1,4.16-4.02,12.438,12.438,0,0,1,5.92-1.4,12.438,12.438,0,0,1,5.92,1.4,10.314,10.314,0,0,1,4.16,4.02,11.856,11.856,0,0,1,1.52,6.06A11.735,11.735,0,0,1-40.56-5.1a10.414,10.414,0,0,1-4.2,4.02A12.556,12.556,0,0,1-50.7.32Zm0-5.92a4.456,4.456,0,0,0,3.34-1.44,5.721,5.721,0,0,0,1.38-4.12,5.827,5.827,0,0,0-1.34-4.12,4.33,4.33,0,0,0-3.3-1.44,4.341,4.341,0,0,0-3.32,1.42,5.87,5.87,0,0,0-1.32,4.14,5.942,5.942,0,0,0,1.3,4.12A4.207,4.207,0,0,0-50.7-5.6Zm30.52-16.96a8.1,8.1,0,0,1,6.26,2.54,9.907,9.907,0,0,1,2.34,6.98V0h-6.8V-12.12a4.9,4.9,0,0,0-1.16-3.48,4.067,4.067,0,0,0-3.12-1.24,4.067,4.067,0,0,0-3.12,1.24,4.9,4.9,0,0,0-1.16,3.48V0h-6.84V-22.32h6.84v2.96a7.216,7.216,0,0,1,2.8-2.34A8.9,8.9,0,0,1-20.18-22.56Zm28.56,0a8.1,8.1,0,0,1,6.26,2.54,9.907,9.907,0,0,1,2.34,6.98V0h-6.8V-12.12A4.9,4.9,0,0,0,9.02-15.6,4.067,4.067,0,0,0,5.9-16.84,4.067,4.067,0,0,0,2.78-15.6a4.9,4.9,0,0,0-1.16,3.48V0H-5.22V-22.32H1.62v2.96a7.216,7.216,0,0,1,2.8-2.34A8.9,8.9,0,0,1,8.38-22.56Zm36,11.04a17.462,17.462,0,0,1-.12,2H28.78a4.651,4.651,0,0,0,1.34,3.18,4.094,4.094,0,0,0,2.9,1.1A3.6,3.6,0,0,0,36.58-7.4h7.28a9.99,9.99,0,0,1-2.02,3.96A10.113,10.113,0,0,1,38.18-.68a11.756,11.756,0,0,1-4.92,1,11.972,11.972,0,0,1-5.84-1.4,9.958,9.958,0,0,1-4-4,12.349,12.349,0,0,1-1.44-6.08,12.49,12.49,0,0,1,1.42-6.08,9.829,9.829,0,0,1,3.98-4,12.056,12.056,0,0,1,5.88-1.4,11.935,11.935,0,0,1,5.76,1.36,9.765,9.765,0,0,1,3.94,3.88A11.777,11.777,0,0,1,44.38-11.52Zm-7-1.8a3.517,3.517,0,0,0-1.2-2.8,4.417,4.417,0,0,0-3-1.04,4.332,4.332,0,0,0-2.9,1,4.441,4.441,0,0,0-1.46,2.84Zm10.84,2.16a12.49,12.49,0,0,1,1.42-6.08,9.863,9.863,0,0,1,3.96-4,11.857,11.857,0,0,1,5.82-1.4,11.066,11.066,0,0,1,7.02,2.2,10.38,10.38,0,0,1,3.7,6.2H62.86A3.5,3.5,0,0,0,59.3-16.8a3.588,3.588,0,0,0-3,1.46,6.754,6.754,0,0,0-1.12,4.18A6.754,6.754,0,0,0,56.3-6.98a3.588,3.588,0,0,0,3,1.46,3.5,3.5,0,0,0,3.56-2.56h7.28a10.479,10.479,0,0,1-3.72,6.16,10.953,10.953,0,0,1-7,2.24,11.857,11.857,0,0,1-5.82-1.4,9.863,9.863,0,0,1-3.96-4A12.49,12.49,0,0,1,48.22-11.16ZM87.82-5.8V0H84.34a8.518,8.518,0,0,1-5.8-1.82q-2.08-1.82-2.08-5.94v-8.88H73.74v-5.68h2.72v-5.44H83.3v5.44h4.48v5.68H83.3v8.96a1.874,1.874,0,0,0,.48,1.44,2.343,2.343,0,0,0,1.6.44Z" transform="translate(1155.96 2732)" fill="#333"/>
    <path id="パス_33210" data-name="パス 33210" d="M-18.76-15q0-6.88,2.66-10.84t8.58-3.96q5.92,0,8.58,3.96T3.72-15q0,6.96-2.66,10.92T-7.52-.12q-5.92,0-8.58-3.96T-18.76-15ZM-3-15a17.253,17.253,0,0,0-.88-6.22A3.52,3.52,0,0,0-7.52-23.4a3.52,3.52,0,0,0-3.64,2.18A17.253,17.253,0,0,0-12.04-15a26.15,26.15,0,0,0,.32,4.5,5.758,5.758,0,0,0,1.3,2.88,3.682,3.682,0,0,0,2.9,1.1,3.682,3.682,0,0,0,2.9-1.1,5.758,5.758,0,0,0,1.3-2.88A26.15,26.15,0,0,0-3-15Zm9.6-7.84V-29.2H17.68V0H10.56V-22.84Z" transform="translate(1025.26 2731.5)" fill="#fff" opacity="0.3"/>
  </g>
</svg>
