<svg xmlns="http://www.w3.org/2000/svg" width="206.185" height="23.833" viewBox="0 0 206.185 23.833">
  <g id="グループ_6533" data-name="グループ 6533" transform="translate(-636.7 -2584.112)">
    <g id="グループ_6532" data-name="グループ 6532">
      <g id="グループ_6531" data-name="グループ 6531">
        <g id="グループ_6530" data-name="グループ 6530">
          <g id="グループ_6529" data-name="グループ 6529">
            <g id="グループ_6528" data-name="グループ 6528">
              <g id="グループ_6527" data-name="グループ 6527">
                <g id="グループ_6526" data-name="グループ 6526">
                  <g id="グループ_6525" data-name="グループ 6525">
                    <g id="グループ_6524" data-name="グループ 6524">
                      <g id="グループ_6523" data-name="グループ 6523">
                        <g id="グループ_6522" data-name="グループ 6522" transform="translate(23 -12)">
                          <path id="パス_33244" data-name="パス 33244" d="M3.029-6.227a2.288,2.288,0,0,1,.9-.819,2.8,2.8,0,0,1,1.339-.312A3,3,0,0,1,6.89-6.9,3.151,3.151,0,0,1,8.041-5.6,4.335,4.335,0,0,1,8.463-3.64a4.377,4.377,0,0,1-.422,1.97A3.189,3.189,0,0,1,6.89-.358,2.972,2.972,0,0,1,5.265.1,2.8,2.8,0,0,1,3.926-.2a2.362,2.362,0,0,1-.9-.813V0H.806V-9.62H3.029ZM6.2-3.64A1.794,1.794,0,0,0,5.74-4.947,1.524,1.524,0,0,0,4.6-5.421a1.5,1.5,0,0,0-1.125.481,1.818,1.818,0,0,0-.462,1.313,1.818,1.818,0,0,0,.462,1.313A1.5,1.5,0,0,0,4.6-1.833a1.511,1.511,0,0,0,1.131-.488A1.826,1.826,0,0,0,6.2-3.64ZM17.043-7.254l-4.55,10.7H10.1L11.765-.247,8.814-7.254H11.3l1.677,4.537,1.664-4.537Z" transform="translate(740.562 2616.5)" fill="#555"/>
                          <path id="パス_33245" data-name="パス 33245" d="M-29.526,0l-4.76-6.552V0h-4.788V-20.72h4.788V-9.268l4.732-6.356h5.908l-6.5,7.84L-23.59,0Zm18.4-15.792a5.67,5.67,0,0,1,4.382,1.778A6.935,6.935,0,0,1-5.11-9.128V0H-9.87V-8.484a3.429,3.429,0,0,0-.812-2.436,2.847,2.847,0,0,0-2.184-.868,2.847,2.847,0,0,0-2.184.868,3.429,3.429,0,0,0-.812,2.436V0H-20.65V-15.624h4.788v2.072A5.051,5.051,0,0,1-13.9-15.19,6.231,6.231,0,0,1-11.13-15.792ZM6.454.224a8.624,8.624,0,0,1-4.13-.98A7.176,7.176,0,0,1-.56-3.556,8.367,8.367,0,0,1-1.61-7.812,8.3,8.3,0,0,1-.546-12.054a7.22,7.22,0,0,1,2.912-2.814,8.706,8.706,0,0,1,4.144-.98,8.706,8.706,0,0,1,4.144.98,7.22,7.22,0,0,1,2.912,2.814A8.3,8.3,0,0,1,14.63-7.812,8.215,8.215,0,0,1,13.552-3.57a7.29,7.29,0,0,1-2.94,2.814A8.789,8.789,0,0,1,6.454.224Zm0-4.144A3.119,3.119,0,0,0,8.792-4.928a4,4,0,0,0,.966-2.884A4.079,4.079,0,0,0,8.82-10.7,3.031,3.031,0,0,0,6.51-11.7a3.039,3.039,0,0,0-2.324.994,4.109,4.109,0,0,0-.924,2.9,4.16,4.16,0,0,0,.91,2.884A2.945,2.945,0,0,0,6.454-3.92Zm34.272-11.7L36.5,0H31.206L28.742-10.136,26.194,0H20.93L16.674-15.624h4.788L23.674-4.452l2.632-11.172h5.068l2.66,11.116,2.184-11.116Z" transform="translate(693.562 2617.5)" fill="#333"/>
                          <path id="パス_33243" data-name="パス 33243" d="M-15.862-10.5A13.46,13.46,0,0,1-14-18.088q1.862-2.772,6.006-2.772t6.006,2.772A13.46,13.46,0,0,1-.126-10.5,13.576,13.576,0,0,1-1.988-2.856Q-3.85-.084-7.994-.084T-14-2.856A13.576,13.576,0,0,1-15.862-10.5Zm11.032,0a12.077,12.077,0,0,0-.616-4.354A2.464,2.464,0,0,0-7.994-16.38a2.464,2.464,0,0,0-2.548,1.526,12.077,12.077,0,0,0-.616,4.354,18.305,18.305,0,0,0,.224,3.15,4.031,4.031,0,0,0,.91,2.016,2.578,2.578,0,0,0,2.03.77,2.578,2.578,0,0,0,2.03-.77,4.031,4.031,0,0,0,.91-2.016A18.305,18.305,0,0,0-4.83-10.5ZM2.226-3.836q.952-.756.868-.7Q5.838-6.8,7.42-8.26a17.91,17.91,0,0,0,2.674-3.052,5.515,5.515,0,0,0,1.092-3.108,2.736,2.736,0,0,0-.532-1.792,1.95,1.95,0,0,0-1.6-.644,1.97,1.97,0,0,0-1.666.8,3.679,3.679,0,0,0-.6,2.254H2.17A7.93,7.93,0,0,1,3.192-17.78,5.936,5.936,0,0,1,5.74-20.132a8.045,8.045,0,0,1,3.514-.756A6.785,6.785,0,0,1,14.28-19.18a6.049,6.049,0,0,1,1.694,4.452A8.732,8.732,0,0,1,13.93-9.17a30.1,30.1,0,0,1-5.208,5h7.56V-.28H2.226Z" transform="translate(629.562 2617)" fill="#fff" opacity="0.3"/>
                          <g id="グループ_2240" data-name="グループ 2240" transform="translate(193.738 2206.55)">
                            <path id="パス_1885" data-name="パス 1885" d="M9.619-43.457a7.442,7.442,0,0,1-3.061.715H6.32v-8.908H5.04v9.134H9.406l.238-.941Zm1.066.941h1.28v-9.134h-1.28ZM18-42.365a4.617,4.617,0,0,0,4.83-4.805,4.434,4.434,0,0,0-4.667-4.63,4.617,4.617,0,0,0-4.83,4.805A4.434,4.434,0,0,0,18-42.365Zm.138-.2c-2.007,0-3.4-1.832-3.4-4.567,0-2.685,1.3-4.466,3.325-4.466,1.97,0,3.362,1.832,3.362,4.567C21.425-44.335,20.121-42.566,18.138-42.566Zm11.819-9.083a23.517,23.517,0,0,1,.251,3.99v3.086l-5.018-7.076H23.671v.038l.615.853v4.253a24.913,24.913,0,0,1-.251,3.99h.753a23.517,23.517,0,0,1-.251-3.99v-3.9l5.809,8.042h.113V-47.66a24.913,24.913,0,0,1,.251-3.99Zm8.18,0h-3.2v9.134h2.986c3.1,0,5.056-1.719,5.056-4.667C42.98-50.081,41.035-51.649,38.137-51.649Zm0,8.933a10.013,10.013,0,0,1-1.92-.113v-8.619h1.807c2.158,0,3.551,1.744,3.551,4.328C41.575-44.31,40.32-42.717,38.137-42.717Zm10.464.351a4.617,4.617,0,0,0,4.83-4.805,4.434,4.434,0,0,0-4.667-4.63,4.617,4.617,0,0,0-4.83,4.805A4.434,4.434,0,0,0,48.6-42.365Zm.138-.2c-2.007,0-3.4-1.832-3.4-4.567,0-2.685,1.3-4.466,3.325-4.466,1.97,0,3.362,1.832,3.362,4.567C52.026-44.335,50.721-42.566,48.738-42.566Zm9.811-4.391c1.192-.414,2.2-1.092,2.2-2.384,0-1.556-1.292-2.309-3.7-2.309H54.8v9.134h1.28v-4.128h.841a.7.7,0,0,1,.652.263l3.714,4.14h.075v-1.593Zm-1.317.113a9.366,9.366,0,0,1-1.154-.075v-4.529h.916c1.656,0,2.459.866,2.459,2.2A2.248,2.248,0,0,1,57.232-46.844Z" transform="translate(564.788 453)" fill="#555"/>
                          </g>
                        </g>
                      </g>
                    </g>
                  </g>
                </g>
              </g>
            </g>
          </g>
        </g>
      </g>
    </g>
  </g>
</svg>
