<svg xmlns="http://www.w3.org/2000/svg" width="33.09" height="357.34" viewBox="0 0 33.09 357.34">
  <g id="グループ_6502" data-name="グループ 6502" transform="translate(-1183.29 -1439.66)">
    <g id="グループ_6201" data-name="グループ 6201" transform="translate(1229.256 1674.158) rotate(90)">
      <path id="パス_1787" data-name="パス 1787" d="M3.008-22.851H9.517a9.341,9.341,0,0,1,4.233.925,6.849,6.849,0,0,1,2.872,2.616,7.4,7.4,0,0,1,1.021,3.9,7.4,7.4,0,0,1-1.021,3.9A6.849,6.849,0,0,1,13.75-8.886a9.341,9.341,0,0,1-4.233.925H3.008ZM9.39-10.3a6.319,6.319,0,0,0,2.882-.628,4.49,4.49,0,0,0,1.914-1.787,5.281,5.281,0,0,0,.67-2.691,5.281,5.281,0,0,0-.67-2.691,4.49,4.49,0,0,0-1.914-1.787,6.32,6.32,0,0,0-2.882-.628H5.773V-10.3Zm20.761-3.276q0,.277-.043.787H21.2A3.089,3.089,0,0,0,22.419-10.8a4.009,4.009,0,0,0,2.457.734A4.14,4.14,0,0,0,27.96-11.3l1.425,1.638a4.8,4.8,0,0,1-1.936,1.383,7.051,7.051,0,0,1-2.638.468,7.02,7.02,0,0,1-3.3-.745,5.362,5.362,0,0,1-2.2-2.074,5.857,5.857,0,0,1-.776-3.01,5.944,5.944,0,0,1,.755-2.989,5.357,5.357,0,0,1,2.1-2.074,6.114,6.114,0,0,1,3.021-.745,5.96,5.96,0,0,1,2.967.734,5.2,5.2,0,0,1,2.042,2.063A6.257,6.257,0,0,1,30.151-13.576ZM24.408-17.32a3.207,3.207,0,0,0-2.159.755,3.176,3.176,0,0,0-1.074,2.01H27.62a3.135,3.135,0,0,0-1.042-2A3.17,3.17,0,0,0,24.408-17.32Zm7.445-6.424h2.659V-7.96H31.853Zm5.3,0h2.659V-7.96H37.149Zm9.636,4.3a5.539,5.539,0,0,1,3.84,1.2,4.646,4.646,0,0,1,1.329,3.627V-7.96h-2.51V-9.343A3.094,3.094,0,0,1,48.051-8.2a5.446,5.446,0,0,1-2.18.394,5.342,5.342,0,0,1-2.234-.436A3.451,3.451,0,0,1,42.159-9.46a3.077,3.077,0,0,1-.521-1.755,3.008,3.008,0,0,1,1.138-2.457A5.652,5.652,0,0,1,46.36-14.6H49.3v-.17a2.328,2.328,0,0,0-.713-1.829,3.083,3.083,0,0,0-2.117-.638,6.11,6.11,0,0,0-1.883.3,4.625,4.625,0,0,0-1.563.83l-1.042-1.936a6.454,6.454,0,0,1,2.148-1.042A9.559,9.559,0,0,1,46.786-19.447Zm-.362,9.7A3.433,3.433,0,0,0,48.2-10.2a2.488,2.488,0,0,0,1.1-1.308v-1.319H46.552q-2.3,0-2.3,1.51a1.356,1.356,0,0,0,.574,1.149A2.633,2.633,0,0,0,46.424-9.747ZM73.46-7.96l-.021-9.87L68.547-9.662H67.313L62.42-17.7V-7.96H59.783v-14.89h2.276l5.914,9.87,5.807-9.87h2.276l.021,14.89Zm9.87-11.487a5.538,5.538,0,0,1,3.84,1.2A4.646,4.646,0,0,1,88.5-14.618V-7.96H85.99V-9.343A3.094,3.094,0,0,1,84.6-8.2a5.446,5.446,0,0,1-2.18.394,5.342,5.342,0,0,1-2.234-.436A3.451,3.451,0,0,1,78.7-9.46a3.077,3.077,0,0,1-.521-1.755,3.008,3.008,0,0,1,1.138-2.457,5.652,5.652,0,0,1,3.584-.925h2.936v-.17a2.328,2.328,0,0,0-.713-1.829,3.083,3.083,0,0,0-2.117-.638,6.11,6.11,0,0,0-1.883.3,4.625,4.625,0,0,0-1.563.83l-1.042-1.936a6.454,6.454,0,0,1,2.148-1.042A9.559,9.559,0,0,1,83.331-19.447Zm-.362,9.7a3.433,3.433,0,0,0,1.776-.457,2.488,2.488,0,0,0,1.1-1.308v-1.319H83.1q-2.3,0-2.3,1.51a1.356,1.356,0,0,0,.574,1.149A2.633,2.633,0,0,0,82.969-9.747Zm8.083-14h2.659V-7.96H91.052Zm5.3,0h2.659V-7.96H96.349Z" transform="translate(23.834 51)" fill="#555"/>
    </g>
    <path id="パス_33196" data-name="パス 33196" d="M3.262-6.706a2.464,2.464,0,0,1,.966-.882A3.017,3.017,0,0,1,5.67-7.924a3.235,3.235,0,0,1,1.75.49,3.394,3.394,0,0,1,1.239,1.4A4.669,4.669,0,0,1,9.114-3.92,4.713,4.713,0,0,1,8.659-1.8,3.434,3.434,0,0,1,7.42-.385a3.2,3.2,0,0,1-1.75.5A3.017,3.017,0,0,1,4.228-.217a2.544,2.544,0,0,1-.966-.875V0H.868V-10.36H3.262ZM6.678-3.92a1.932,1.932,0,0,0-.5-1.407,1.641,1.641,0,0,0-1.225-.511,1.615,1.615,0,0,0-1.211.518,1.957,1.957,0,0,0-.5,1.414,1.957,1.957,0,0,0,.5,1.414,1.615,1.615,0,0,0,1.211.518A1.627,1.627,0,0,0,6.174-2.5,1.966,1.966,0,0,0,6.678-3.92ZM18.354-7.812,13.454,3.71H10.878L12.67-.266,9.492-7.812h2.674l1.806,4.886,1.792-4.886Z" transform="translate(1187 1673) rotate(90)" fill="#555"/>
    <path id="パス_33195" data-name="パス 33195" d="M-63.64.32a12.829,12.829,0,0,1-5.2-1,8.881,8.881,0,0,1-3.6-2.74,7.207,7.207,0,0,1-1.48-3.9h6.76a2.6,2.6,0,0,0,1.08,1.88,3.821,3.821,0,0,0,2.36.72,3.368,3.368,0,0,0,1.98-.5,1.531,1.531,0,0,0,.7-1.3,1.5,1.5,0,0,0-1-1.42,20.2,20.2,0,0,0-3.24-1.02,30.419,30.419,0,0,1-4-1.18,6.911,6.911,0,0,1-2.76-1.96,5.341,5.341,0,0,1-1.16-3.62,6.147,6.147,0,0,1,1.06-3.5,7.137,7.137,0,0,1,3.12-2.5,11.947,11.947,0,0,1,4.9-.92,9.823,9.823,0,0,1,6.62,2.08,8.093,8.093,0,0,1,2.78,5.52h-6.32a2.724,2.724,0,0,0-1.02-1.84,3.538,3.538,0,0,0-2.26-.68,3.125,3.125,0,0,0-1.84.46,1.469,1.469,0,0,0-.64,1.26,1.538,1.538,0,0,0,1.02,1.44,16.337,16.337,0,0,0,3.18.96,34.789,34.789,0,0,1,4.04,1.26,6.969,6.969,0,0,1,2.74,2,5.659,5.659,0,0,1,1.22,3.7,5.873,5.873,0,0,1-1.1,3.5A7.275,7.275,0,0,1-58.86-.56,12.085,12.085,0,0,1-63.64.32Zm35.88-11.84a17.461,17.461,0,0,1-.12,2H-43.36a4.651,4.651,0,0,0,1.34,3.18,4.094,4.094,0,0,0,2.9,1.1A3.6,3.6,0,0,0-35.56-7.4h7.28A9.99,9.99,0,0,1-30.3-3.44,10.113,10.113,0,0,1-33.96-.68a11.756,11.756,0,0,1-4.92,1,11.972,11.972,0,0,1-5.84-1.4,9.958,9.958,0,0,1-4-4,12.349,12.349,0,0,1-1.44-6.08,12.49,12.49,0,0,1,1.42-6.08,9.829,9.829,0,0,1,3.98-4,12.056,12.056,0,0,1,5.88-1.4,11.935,11.935,0,0,1,5.76,1.36,9.765,9.765,0,0,1,3.94,3.88A11.777,11.777,0,0,1-27.76-11.52Zm-7-1.8a3.517,3.517,0,0,0-1.2-2.8,4.417,4.417,0,0,0-3-1.04,4.332,4.332,0,0,0-2.9,1,4.441,4.441,0,0,0-1.46,2.84Zm10.84,2.12a13.34,13.34,0,0,1,1.3-6.04,9.7,9.7,0,0,1,3.54-4,9.242,9.242,0,0,1,5-1.4,8.589,8.589,0,0,1,4.14.96A7.072,7.072,0,0,1-7.2-19.16v-3.16H-.36V0H-7.2V-3.16A7.386,7.386,0,0,1-9.98-.64a8.589,8.589,0,0,1-4.14.96A9.076,9.076,0,0,1-19.08-1.1a9.812,9.812,0,0,1-3.54-4.04A13.466,13.466,0,0,1-23.92-11.2Zm16.72.04A5.592,5.592,0,0,0-8.62-15.2a4.614,4.614,0,0,0-3.46-1.48,4.644,4.644,0,0,0-3.46,1.46,5.521,5.521,0,0,0-1.42,4.02,5.664,5.664,0,0,0,1.42,4.06,4.584,4.584,0,0,0,3.46,1.5A4.614,4.614,0,0,0-8.62-7.12,5.592,5.592,0,0,0-7.2-11.16ZM13.04-18.6a9.023,9.023,0,0,1,3-2.9,7.736,7.736,0,0,1,4-1.06v7.24H18.16a5.763,5.763,0,0,0-3.84,1.1q-1.28,1.1-1.28,3.86V0H6.2V-22.32h6.84Zm10.52,7.44a12.49,12.49,0,0,1,1.42-6.08,9.863,9.863,0,0,1,3.96-4,11.857,11.857,0,0,1,5.82-1.4,11.066,11.066,0,0,1,7.02,2.2,10.38,10.38,0,0,1,3.7,6.2H38.2a3.5,3.5,0,0,0-3.56-2.56,3.588,3.588,0,0,0-3,1.46,6.754,6.754,0,0,0-1.12,4.18,6.754,6.754,0,0,0,1.12,4.18,3.588,3.588,0,0,0,3,1.46A3.5,3.5,0,0,0,38.2-8.08h7.28a10.479,10.479,0,0,1-3.72,6.16,10.953,10.953,0,0,1-7,2.24,11.857,11.857,0,0,1-5.82-1.4,9.863,9.863,0,0,1-3.96-4A12.49,12.49,0,0,1,23.56-11.16Zm40.88-11.4a7.941,7.941,0,0,1,6.16,2.54,9.961,9.961,0,0,1,2.32,6.98V0h-6.8V-12.12a4.9,4.9,0,0,0-1.16-3.48,4.067,4.067,0,0,0-3.12-1.24,4.067,4.067,0,0,0-3.12,1.24,4.9,4.9,0,0,0-1.16,3.48V0H50.72V-29.6h6.84v10.28a7.311,7.311,0,0,1,2.84-2.36A9.077,9.077,0,0,1,64.44-22.56Z" transform="translate(1186 1588) rotate(90)" fill="#333"/>
    <path id="パス_33194" data-name="パス 33194" d="M-23.34-15q0-6.88,2.66-10.84t8.58-3.96q5.92,0,8.58,3.96T-.86-15q0,6.96-2.66,10.92T-12.1-.12q-5.92,0-8.58-3.96T-23.34-15Zm15.76,0a17.253,17.253,0,0,0-.88-6.22A3.52,3.52,0,0,0-12.1-23.4a3.52,3.52,0,0,0-3.64,2.18A17.253,17.253,0,0,0-16.62-15a26.15,26.15,0,0,0,.32,4.5A5.758,5.758,0,0,0-15-7.62a3.682,3.682,0,0,0,2.9,1.1,3.682,3.682,0,0,0,2.9-1.1A5.758,5.758,0,0,0-7.9-10.5,26.15,26.15,0,0,0-7.58-15ZM2.98-20.96a8.785,8.785,0,0,1,2.8-6.6,10.465,10.465,0,0,1,7.16-2.32,11.663,11.663,0,0,1,5.14,1.04A7.533,7.533,0,0,1,21.32-26a7.593,7.593,0,0,1,1.1,4.04,6.7,6.7,0,0,1-1.32,4.3,6.676,6.676,0,0,1-3.08,2.26v.16a7.216,7.216,0,0,1,3.6,2.52A7.331,7.331,0,0,1,22.94-8.2,8.347,8.347,0,0,1,21.8-3.82,7.784,7.784,0,0,1,18.48-.84,11.551,11.551,0,0,1,13.3.24,11.662,11.662,0,0,1,5.64-2.12Q2.78-4.48,2.62-9.24H9.26a4.034,4.034,0,0,0,1,2.78,3.662,3.662,0,0,0,2.8,1.02,3.188,3.188,0,0,0,2.42-.9,3.3,3.3,0,0,0,.86-2.38,3.163,3.163,0,0,0-1.22-2.78,6.894,6.894,0,0,0-3.9-.86H9.94v-5.56h1.28a6.772,6.772,0,0,0,3.3-.7,2.61,2.61,0,0,0,1.26-2.5,3.028,3.028,0,0,0-.8-2.24,2.973,2.973,0,0,0-2.2-.8,2.727,2.727,0,0,0-2.26.92,4.123,4.123,0,0,0-.86,2.28Z" transform="translate(1186.5 1463) rotate(90)" fill="#fff" opacity="0.3"/>
  </g>
</svg>
