<svg xmlns="http://www.w3.org/2000/svg" width="34.05" height="306.11" viewBox="0 0 34.05 306.11">
  <g id="グループ_6530" data-name="グループ 6530" transform="translate(-920.04 -2227.34)">
    <g id="グループ_6529" data-name="グループ 6529">
      <g id="グループ_6528" data-name="グループ 6528">
        <g id="グループ_6527" data-name="グループ 6527">
          <g id="グループ_6526" data-name="グループ 6526">
            <g id="グループ_6525" data-name="グループ 6525">
              <g id="グループ_6524" data-name="グループ 6524">
                <g id="グループ_6523" data-name="グループ 6523">
                  <g id="グループ_6522" data-name="グループ 6522" transform="translate(-52 1)">
                    <g id="グループ_2240" data-name="グループ 2240" transform="translate(1390.439 1886.172) rotate(90)">
                      <path id="パス_1885" data-name="パス 1885" d="M11.256-40.475A10.1,10.1,0,0,1,7.1-39.5H6.777V-51.6H5.04v12.4h5.927l.324-1.277ZM12.7-39.2h1.737V-51.6H12.7Zm9.929.2a6.267,6.267,0,0,0,6.557-6.523A6.019,6.019,0,0,0,22.854-51.8,6.267,6.267,0,0,0,16.3-45.277,6.019,6.019,0,0,0,22.633-38.993Zm.187-.272c-2.725,0-4.615-2.486-4.615-6.2,0-3.645,1.771-6.063,4.513-6.063,2.674,0,4.564,2.486,4.564,6.2C27.282-41.667,25.511-39.266,22.82-39.266ZM38.863-51.6A31.922,31.922,0,0,1,39.2-46.18v4.19L32.391-51.6H30.33v.051l.834,1.158v5.773a33.818,33.818,0,0,1-.341,5.416h1.022a31.923,31.923,0,0,1-.341-5.416v-5.3l7.885,10.917h.153V-46.18a33.817,33.817,0,0,1,.341-5.416Zm11.1,0H45.624v12.4h4.053c4.207,0,6.863-2.333,6.863-6.335C56.54-49.467,53.9-51.6,49.967-51.6Zm0,12.126a13.591,13.591,0,0,1-2.606-.153v-11.7h2.452c2.929,0,4.82,2.367,4.82,5.876C54.633-41.633,52.93-39.47,49.967-39.47Zm14.2.477a6.267,6.267,0,0,0,6.557-6.523A6.019,6.019,0,0,0,64.391-51.8a6.267,6.267,0,0,0-6.557,6.523A6.019,6.019,0,0,0,64.17-38.993Zm.187-.272c-2.725,0-4.615-2.486-4.615-6.2,0-3.645,1.771-6.063,4.513-6.063,2.674,0,4.564,2.486,4.564,6.2C68.819-41.667,67.048-39.266,64.357-39.266Zm13.318-5.961c1.618-.562,2.98-1.482,2.98-3.236,0-2.112-1.754-3.134-5.024-3.134H72.583v12.4H74.32v-5.6h1.141a.947.947,0,0,1,.886.358l5.041,5.62h.1v-2.163Zm-1.788.153a12.714,12.714,0,0,1-1.567-.1v-6.148h1.243c2.248,0,3.338,1.175,3.338,2.98A3.051,3.051,0,0,1,75.887-45.073Z" transform="translate(564.788 453)" fill="#555"/>
                    </g>
                    <path id="パス_33245" data-name="パス 33245" d="M3.262-6.706a2.464,2.464,0,0,1,.966-.882A3.017,3.017,0,0,1,5.67-7.924a3.235,3.235,0,0,1,1.75.49,3.394,3.394,0,0,1,1.239,1.4A4.669,4.669,0,0,1,9.114-3.92,4.713,4.713,0,0,1,8.659-1.8,3.434,3.434,0,0,1,7.42-.385a3.2,3.2,0,0,1-1.75.5A3.017,3.017,0,0,1,4.228-.217a2.544,2.544,0,0,1-.966-.875V0H.868V-10.36H3.262ZM6.678-3.92a1.932,1.932,0,0,0-.5-1.407,1.641,1.641,0,0,0-1.225-.511,1.615,1.615,0,0,0-1.211.518,1.957,1.957,0,0,0-.5,1.414,1.957,1.957,0,0,0,.5,1.414,1.615,1.615,0,0,0,1.211.518A1.627,1.627,0,0,0,6.174-2.5,1.966,1.966,0,0,0,6.678-3.92ZM18.354-7.812,13.454,3.71H10.878L12.67-.266,9.492-7.812h2.674l1.806,4.886,1.792-4.886Z" transform="translate(975.75 2426) rotate(90)" fill="#555"/>
                    <path id="パス_33244" data-name="パス 33244" d="M-42.18,0l-6.8-9.36V0h-6.84V-29.6h6.84v16.36l6.76-9.08h8.44l-9.28,11.2L-33.7,0ZM-15.9-22.56a8.1,8.1,0,0,1,6.26,2.54A9.907,9.907,0,0,1-7.3-13.04V0h-6.8V-12.12a4.9,4.9,0,0,0-1.16-3.48,4.067,4.067,0,0,0-3.12-1.24A4.067,4.067,0,0,0-21.5-15.6a4.9,4.9,0,0,0-1.16,3.48V0H-29.5V-22.32h6.84v2.96a7.216,7.216,0,0,1,2.8-2.34A8.9,8.9,0,0,1-15.9-22.56ZM9.22.32a12.32,12.32,0,0,1-5.9-1.4,10.251,10.251,0,0,1-4.12-4,11.952,11.952,0,0,1-1.5-6.08A11.856,11.856,0,0,1-.78-17.22a10.314,10.314,0,0,1,4.16-4.02,12.438,12.438,0,0,1,5.92-1.4,12.438,12.438,0,0,1,5.92,1.4,10.314,10.314,0,0,1,4.16,4.02,11.856,11.856,0,0,1,1.52,6.06A11.735,11.735,0,0,1,19.36-5.1a10.414,10.414,0,0,1-4.2,4.02A12.556,12.556,0,0,1,9.22.32Zm0-5.92a4.456,4.456,0,0,0,3.34-1.44,5.721,5.721,0,0,0,1.38-4.12,5.827,5.827,0,0,0-1.34-4.12,4.33,4.33,0,0,0-3.3-1.44A4.341,4.341,0,0,0,5.98-15.3a5.87,5.87,0,0,0-1.32,4.14,5.942,5.942,0,0,0,1.3,4.12A4.207,4.207,0,0,0,9.22-5.6ZM58.18-22.32,52.14,0H44.58L41.06-14.48,37.42,0H29.9L23.82-22.32h6.84L33.82-6.36l3.76-15.96h7.24l3.8,15.88,3.12-15.88Z" transform="translate(975.75 2356) rotate(90)" fill="#333"/>
                    <path id="パス_33243" data-name="パス 33243" d="M-22.66-15q0-6.88,2.66-10.84t8.58-3.96q5.92,0,8.58,3.96T-.18-15q0,6.96-2.66,10.92T-11.42-.12q-5.92,0-8.58-3.96T-22.66-15ZM-6.9-15a17.253,17.253,0,0,0-.88-6.22,3.52,3.52,0,0,0-3.64-2.18,3.52,3.52,0,0,0-3.64,2.18A17.253,17.253,0,0,0-15.94-15a26.15,26.15,0,0,0,.32,4.5,5.758,5.758,0,0,0,1.3,2.88,3.682,3.682,0,0,0,2.9,1.1,3.682,3.682,0,0,0,2.9-1.1,5.758,5.758,0,0,0,1.3-2.88A26.15,26.15,0,0,0-6.9-15ZM3.18-5.48q1.36-1.08,1.24-1Q8.34-9.72,10.6-11.8a25.586,25.586,0,0,0,3.82-4.36,7.879,7.879,0,0,0,1.56-4.44,3.908,3.908,0,0,0-.76-2.56,2.786,2.786,0,0,0-2.28-.92,2.815,2.815,0,0,0-2.38,1.14,5.256,5.256,0,0,0-.86,3.22H3.1A11.329,11.329,0,0,1,4.56-25.4,8.48,8.48,0,0,1,8.2-28.76a11.493,11.493,0,0,1,5.02-1.08q4.76,0,7.18,2.44a8.641,8.641,0,0,1,2.42,6.36A12.474,12.474,0,0,1,19.9-13.1a43,43,0,0,1-7.44,7.14h10.8V-.4H3.18Z" transform="translate(976.25 2249) rotate(90)" fill="#fff" opacity="0.3"/>
                  </g>
                </g>
              </g>
            </g>
          </g>
        </g>
      </g>
    </g>
  </g>
</svg>
