<svg xmlns="http://www.w3.org/2000/svg" width="241.725" height="23.861" viewBox="0 0 241.725 23.861">
  <g id="グループ_6212" data-name="グループ 6212" transform="translate(-1038.5 -2710.584)">
    <g id="グループ_6215" data-name="グループ 6215" transform="translate(1181.079 2693.244)">
      <path id="パス_1787" data-name="パス 1787" d="M3.008-23.071h4.9a7.035,7.035,0,0,1,3.188.7A5.158,5.158,0,0,1,13.262-20.4a5.576,5.576,0,0,1,.769,2.94,5.576,5.576,0,0,1-.769,2.94A5.158,5.158,0,0,1,11.1-12.553a7.035,7.035,0,0,1-3.188.7h-4.9Zm4.806,9.453a4.76,4.76,0,0,0,2.171-.473,3.381,3.381,0,0,0,1.442-1.346,3.977,3.977,0,0,0,.5-2.027,3.977,3.977,0,0,0-.5-2.027,3.381,3.381,0,0,0-1.442-1.346,4.76,4.76,0,0,0-2.171-.473H5.091v7.69Zm15.637-2.467q0,.208-.032.593H16.706a2.327,2.327,0,0,0,.921,1.5,3.02,3.02,0,0,0,1.85.553,3.118,3.118,0,0,0,2.323-.929l1.073,1.234A3.617,3.617,0,0,1,21.417-12.1a5.31,5.31,0,0,1-1.987.352,5.287,5.287,0,0,1-2.483-.561,4.038,4.038,0,0,1-1.658-1.562,4.411,4.411,0,0,1-.585-2.267,4.477,4.477,0,0,1,.569-2.251,4.035,4.035,0,0,1,1.578-1.562,4.6,4.6,0,0,1,2.275-.561,4.489,4.489,0,0,1,2.235.553A3.915,3.915,0,0,1,22.9-18.4,4.712,4.712,0,0,1,23.451-16.086Zm-4.326-2.82a2.416,2.416,0,0,0-1.626.569,2.392,2.392,0,0,0-.809,1.514h4.854a2.361,2.361,0,0,0-.785-1.506A2.387,2.387,0,0,0,19.125-18.906Zm5.607-4.838h2v11.888h-2Zm3.989,0h2v11.888h-2Zm7.258,3.236a4.171,4.171,0,0,1,2.892.905,3.5,3.5,0,0,1,1,2.732v5.015H37.983V-12.9a2.33,2.33,0,0,1-1.049.857,4.1,4.1,0,0,1-1.642.3,4.023,4.023,0,0,1-1.682-.328,2.6,2.6,0,0,1-1.113-.913,2.318,2.318,0,0,1-.393-1.322,2.265,2.265,0,0,1,.857-1.85,4.257,4.257,0,0,1,2.7-.7h2.211v-.128a1.753,1.753,0,0,0-.537-1.378,2.322,2.322,0,0,0-1.594-.481,4.6,4.6,0,0,0-1.418.224,3.483,3.483,0,0,0-1.178.625l-.785-1.458a4.861,4.861,0,0,1,1.618-.785A7.2,7.2,0,0,1,35.98-20.508ZM35.708-13.2a2.586,2.586,0,0,0,1.338-.344,1.874,1.874,0,0,0,.825-.985v-.993H35.8q-1.73,0-1.73,1.138a1.021,1.021,0,0,0,.433.865A1.983,1.983,0,0,0,35.708-13.2Zm20.363,1.346-.016-7.434L52.37-13.138h-.929l-3.685-6.056v7.338H45.769V-23.071h1.714l4.454,7.434,4.374-7.434h1.714l.016,11.215ZM63.5-20.508A4.171,4.171,0,0,1,66.4-19.6a3.5,3.5,0,0,1,1,2.732v5.015H65.507V-12.9a2.33,2.33,0,0,1-1.049.857,4.1,4.1,0,0,1-1.642.3,4.023,4.023,0,0,1-1.682-.328,2.6,2.6,0,0,1-1.113-.913,2.317,2.317,0,0,1-.393-1.322,2.265,2.265,0,0,1,.857-1.85,4.257,4.257,0,0,1,2.7-.7H65.4v-.128a1.753,1.753,0,0,0-.537-1.378,2.322,2.322,0,0,0-1.594-.481,4.6,4.6,0,0,0-1.418.224,3.483,3.483,0,0,0-1.178.625l-.785-1.458a4.861,4.861,0,0,1,1.618-.785A7.2,7.2,0,0,1,63.5-20.508ZM63.232-13.2a2.586,2.586,0,0,0,1.338-.344,1.874,1.874,0,0,0,.825-.985v-.993H63.328q-1.73,0-1.73,1.138a1.021,1.021,0,0,0,.433.865A1.983,1.983,0,0,0,63.232-13.2ZM69.32-23.744h2v11.888h-2Zm3.989,0h2v11.888h-2Z" transform="translate(23.834 51)" fill="#555"/>
    </g>
    <path id="パス_33190" data-name="パス 33190" d="M3.029-6.227a2.288,2.288,0,0,1,.9-.819,2.8,2.8,0,0,1,1.339-.312A3,3,0,0,1,6.89-6.9,3.151,3.151,0,0,1,8.041-5.6,4.335,4.335,0,0,1,8.463-3.64a4.377,4.377,0,0,1-.422,1.97A3.189,3.189,0,0,1,6.89-.358,2.972,2.972,0,0,1,5.265.1,2.8,2.8,0,0,1,3.926-.2a2.362,2.362,0,0,1-.9-.813V0H.806V-9.62H3.029ZM6.2-3.64A1.794,1.794,0,0,0,5.74-4.947,1.524,1.524,0,0,0,4.6-5.421a1.5,1.5,0,0,0-1.125.481,1.818,1.818,0,0,0-.462,1.313,1.818,1.818,0,0,0,.462,1.313A1.5,1.5,0,0,0,4.6-1.833a1.511,1.511,0,0,0,1.131-.488A1.826,1.826,0,0,0,6.2-3.64ZM17.043-7.254l-4.55,10.7H10.1L11.765-.247,8.814-7.254H11.3l1.677,4.537,1.664-4.537Z" transform="translate(1184.878 2731)" fill="#555"/>
    <path id="パス_33191" data-name="パス 33191" d="M-44.548.224a8.98,8.98,0,0,1-3.64-.7,6.217,6.217,0,0,1-2.52-1.918,5.045,5.045,0,0,1-1.036-2.73h4.732a1.819,1.819,0,0,0,.756,1.316,2.675,2.675,0,0,0,1.652.5,2.358,2.358,0,0,0,1.386-.35,1.072,1.072,0,0,0,.49-.91,1.05,1.05,0,0,0-.7-.994A14.141,14.141,0,0,0-45.7-6.272,21.293,21.293,0,0,1-48.5-7.1,4.838,4.838,0,0,1-50.428-8.47,3.739,3.739,0,0,1-51.24-11a4.3,4.3,0,0,1,.742-2.45,5,5,0,0,1,2.184-1.75,8.363,8.363,0,0,1,3.43-.644,6.876,6.876,0,0,1,4.634,1.456A5.665,5.665,0,0,1-38.3-10.528h-4.424a1.907,1.907,0,0,0-.714-1.288,2.477,2.477,0,0,0-1.582-.476,2.187,2.187,0,0,0-1.288.322,1.028,1.028,0,0,0-.448.882,1.077,1.077,0,0,0,.714,1.008,11.436,11.436,0,0,0,2.226.672,24.352,24.352,0,0,1,2.828.882,4.878,4.878,0,0,1,1.918,1.4,3.961,3.961,0,0,1,.854,2.59,4.111,4.111,0,0,1-.77,2.45A5.093,5.093,0,0,1-41.2-.392,8.46,8.46,0,0,1-44.548.224Zm25.116-8.288a12.223,12.223,0,0,1-.084,1.4H-30.352a3.256,3.256,0,0,0,.938,2.226,2.866,2.866,0,0,0,2.03.77A2.516,2.516,0,0,0-24.892-5.18h5.1A6.993,6.993,0,0,1-21.21-2.408,7.079,7.079,0,0,1-23.772-.476a8.229,8.229,0,0,1-3.444.7A8.38,8.38,0,0,1-31.3-.756a6.971,6.971,0,0,1-2.8-2.8,8.644,8.644,0,0,1-1.008-4.256,8.743,8.743,0,0,1,.994-4.256,6.88,6.88,0,0,1,2.786-2.8,8.439,8.439,0,0,1,4.116-.98,8.355,8.355,0,0,1,4.032.952,6.836,6.836,0,0,1,2.758,2.716A8.244,8.244,0,0,1-19.432-8.064Zm-4.9-1.26a2.462,2.462,0,0,0-.84-1.96,3.092,3.092,0,0,0-2.1-.728,3.033,3.033,0,0,0-2.03.7,3.109,3.109,0,0,0-1.022,1.988Zm7.588,1.484a9.338,9.338,0,0,1,.91-4.228,6.788,6.788,0,0,1,2.478-2.8,6.469,6.469,0,0,1,3.5-.98,6.013,6.013,0,0,1,2.9.672A4.95,4.95,0,0,1-5.04-13.412v-2.212H-.252V0H-5.04V-2.212A5.17,5.17,0,0,1-6.986-.448a6.013,6.013,0,0,1-2.9.672A6.353,6.353,0,0,1-13.356-.77,6.869,6.869,0,0,1-15.834-3.6,9.426,9.426,0,0,1-16.744-7.84Zm11.7.028a3.915,3.915,0,0,0-.994-2.828,3.23,3.23,0,0,0-2.422-1.036,3.251,3.251,0,0,0-2.422,1.022,3.865,3.865,0,0,0-.994,2.814A3.965,3.965,0,0,0-10.878-5a3.209,3.209,0,0,0,2.422,1.05A3.23,3.23,0,0,0-6.034-4.984,3.915,3.915,0,0,0-5.04-7.812ZM9.128-13.02a6.316,6.316,0,0,1,2.1-2.03,5.415,5.415,0,0,1,2.8-.742v5.068H12.712a4.034,4.034,0,0,0-2.688.77,3.42,3.42,0,0,0-.9,2.7V0H4.34V-15.624H9.128Zm7.364,5.208a8.743,8.743,0,0,1,.994-4.256,6.9,6.9,0,0,1,2.772-2.8,8.3,8.3,0,0,1,4.074-.98,7.746,7.746,0,0,1,4.914,1.54,7.266,7.266,0,0,1,2.59,4.34h-5.1a2.453,2.453,0,0,0-2.492-1.792,2.512,2.512,0,0,0-2.1,1.022,4.728,4.728,0,0,0-.784,2.926,4.728,4.728,0,0,0,.784,2.926,2.512,2.512,0,0,0,2.1,1.022A2.453,2.453,0,0,0,26.74-5.656h5.1a7.335,7.335,0,0,1-2.6,4.312,7.667,7.667,0,0,1-4.9,1.568,8.3,8.3,0,0,1-4.074-.98,6.9,6.9,0,0,1-2.772-2.8A8.743,8.743,0,0,1,16.492-7.812Zm28.616-7.98a5.559,5.559,0,0,1,4.312,1.778,6.973,6.973,0,0,1,1.624,4.886V0h-4.76V-8.484a3.429,3.429,0,0,0-.812-2.436,2.847,2.847,0,0,0-2.184-.868,2.847,2.847,0,0,0-2.184.868,3.429,3.429,0,0,0-.812,2.436V0H35.5V-20.72h4.788v7.2a5.118,5.118,0,0,1,1.988-1.652A6.354,6.354,0,0,1,45.108-15.792Z" transform="translate(1128.64 2732)" fill="#333"/>
    <path id="パス_33192" data-name="パス 33192" d="M-16.338-10.5a13.46,13.46,0,0,1,1.862-7.588q1.862-2.772,6.006-2.772t6.006,2.772A13.46,13.46,0,0,1-.6-10.5,13.576,13.576,0,0,1-2.464-2.856Q-4.326-.084-8.47-.084t-6.006-2.772A13.576,13.576,0,0,1-16.338-10.5Zm11.032,0a12.077,12.077,0,0,0-.616-4.354A2.464,2.464,0,0,0-8.47-16.38a2.464,2.464,0,0,0-2.548,1.526,12.077,12.077,0,0,0-.616,4.354,18.305,18.305,0,0,0,.224,3.15,4.031,4.031,0,0,0,.91,2.016,2.578,2.578,0,0,0,2.03.77,2.578,2.578,0,0,0,2.03-.77A4.031,4.031,0,0,0-5.53-7.35,18.305,18.305,0,0,0-5.306-10.5Zm7.392-4.172a6.15,6.15,0,0,1,1.96-4.62,7.325,7.325,0,0,1,5.012-1.624,8.164,8.164,0,0,1,3.6.728A5.273,5.273,0,0,1,14.924-18.2a5.315,5.315,0,0,1,.77,2.828,4.69,4.69,0,0,1-.924,3.01,4.673,4.673,0,0,1-2.156,1.582v.112A5.051,5.051,0,0,1,15.134-8.9a5.132,5.132,0,0,1,.924,3.164,5.843,5.843,0,0,1-.8,3.066A5.449,5.449,0,0,1,12.936-.588,8.086,8.086,0,0,1,9.31.168,8.163,8.163,0,0,1,3.948-1.484,6.385,6.385,0,0,1,1.834-6.468H6.482a2.824,2.824,0,0,0,.7,1.946,2.563,2.563,0,0,0,1.96.714,2.232,2.232,0,0,0,1.694-.63,2.311,2.311,0,0,0,.6-1.666,2.214,2.214,0,0,0-.854-1.946,4.826,4.826,0,0,0-2.73-.6h-.9v-3.892h.9a4.74,4.74,0,0,0,2.31-.49,1.827,1.827,0,0,0,.882-1.75,2.12,2.12,0,0,0-.56-1.568,2.081,2.081,0,0,0-1.54-.56,1.909,1.909,0,0,0-1.582.644,2.886,2.886,0,0,0-.6,1.6Z" transform="translate(1054.838 2731.5)" fill="#fff" opacity="0.3"/>
  </g>
</svg>
