<svg xmlns="http://www.w3.org/2000/svg" xmlns:xlink="http://www.w3.org/1999/xlink" width="314.445" height="30.128" viewBox="0 0 314.445 30.128">
  <defs>
    <clipPath id="clip-path">
      <rect id="長方形_1142" data-name="長方形 1142" width="103.639" height="14" fill="#555"/>
    </clipPath>
  </defs>
  <g id="グループ_6213" data-name="グループ 6213" transform="translate(-1035.5 -2709.572)">
    <g id="グループ_6216" data-name="グループ 6216" transform="translate(1246.305 2719.5)">
      <g id="グループ_1353" data-name="グループ 1353" transform="translate(0 0)" clip-path="url(#clip-path)">
        <path id="パス_29081" data-name="パス 29081" d="M30.8,0H28.153V.077a8.994,8.994,0,0,1,2.864.614c1.364.585,4.751,2.581,4.751,6.309s-3.377,5.746-4.751,6.309a10.211,10.211,0,0,1-2.864.615V14l2.523-.036A7.269,7.269,0,0,0,38.017,7,7.168,7.168,0,0,0,30.8,0" transform="translate(-12.008 0)" fill="#555"/>
        <path id="パス_29082" data-name="パス 29082" d="M5.665,10.92,10.769,0h3.769V.065c-1.852.215-2.089.947-2.046,2.455l.086,8.271c.087,2.3.151,2.95,2.046,3.144V14H8.9v-.065c1.766-.172,1.831-.84,1.809-3.144L10.726,2C8.96,5.945,6.117,12.1,5.363,14H4.8C4.071,12.04,1.637,6.117,0,2.218Z" transform="translate(0 0)" fill="#555"/>
        <path id="パス_29083" data-name="パス 29083" d="M60.724,8.835v4.817h-.489V9.8L58.343,13.04H58.1L56.21,9.819v3.833h-.489V8.835h.42l2.092,3.572L60.3,8.835Z" transform="translate(-23.767 -3.768)" fill="#555"/>
        <path id="パス_29084" data-name="パス 29084" d="M75.346,11.229a1.37,1.37,0,0,1,.378,1.049v2.243h-.467v-.564a1.122,1.122,0,0,1-.486.44,1.7,1.7,0,0,1-.76.158,1.49,1.49,0,0,1-.963-.289.995.995,0,0,1-.024-1.507,1.632,1.632,0,0,1,1.063-.282h1.149v-.22a.93.93,0,0,0-.261-.712,1.081,1.081,0,0,0-.764-.244,1.939,1.939,0,0,0-.66.114,1.668,1.668,0,0,0-.544.313l-.22-.365a1.944,1.944,0,0,1,.66-.361,2.575,2.575,0,0,1,.812-.127,1.531,1.531,0,0,1,1.087.354m-.55,2.753a1.13,1.13,0,0,0,.44-.547v-.592H74.1q-.929,0-.928.647a.59.59,0,0,0,.241.5,1.1,1.1,0,0,0,.674.182,1.289,1.289,0,0,0,.709-.189" transform="translate(-31.005 -4.639)" fill="#555"/>
        <path id="パス_29085" data-name="パス 29085" d="M87.494,11.061a1.744,1.744,0,0,1,.844-.186v.475l-.117-.007a1.155,1.155,0,0,0-.895.351,1.4,1.4,0,0,0-.323.984v1.844h-.489V10.9h.467v.709a1.187,1.187,0,0,1,.513-.551" transform="translate(-36.901 -4.639)" fill="#555"/>
        <path id="パス_29086" data-name="パス 29086" d="M97.81,14.323a1.7,1.7,0,0,1-.664-.657,1.893,1.893,0,0,1-.241-.953,1.874,1.874,0,0,1,.241-.95,1.7,1.7,0,0,1,.664-.654,1.959,1.959,0,0,1,.961-.234,1.859,1.859,0,0,1,.836.182,1.387,1.387,0,0,1,.581.533l-.364.248a1.141,1.141,0,0,0-.454-.4,1.35,1.35,0,0,0-.6-.134,1.418,1.418,0,0,0-.705.175,1.23,1.23,0,0,0-.489.5,1.64,1.64,0,0,0,0,1.476,1.235,1.235,0,0,0,.489.5,1.418,1.418,0,0,0,.705.175,1.379,1.379,0,0,0,.6-.131,1.115,1.115,0,0,0,.454-.4l.364.248a1.382,1.382,0,0,1-.584.533,1.865,1.865,0,0,1-.833.182,1.953,1.953,0,0,1-.961-.234" transform="translate(-41.333 -4.639)" fill="#555"/>
        <path id="パス_29087" data-name="パス 29087" d="M113.442,10.186a1.545,1.545,0,0,1,.4,1.153v2.1h-.488V11.386a1.2,1.2,0,0,0-.283-.86,1.059,1.059,0,0,0-.805-.3,1.234,1.234,0,0,0-.925.348,1.31,1.31,0,0,0-.341.96v1.9h-.489V8.331H111v2.12a1.323,1.323,0,0,1,.55-.489,1.808,1.808,0,0,1,.805-.172,1.481,1.481,0,0,1,1.084.4" transform="translate(-47.138 -3.553)" fill="#555"/>
        <path id="パス_29088" data-name="パス 29088" d="M127.734,12.864h-3.028a1.3,1.3,0,0,0,.434.912,1.439,1.439,0,0,0,.99.348,1.559,1.559,0,0,0,.619-.12,1.348,1.348,0,0,0,.489-.354l.275.317a1.548,1.548,0,0,1-.6.44,2.037,2.037,0,0,1-.795.151,2.01,2.01,0,0,1-.988-.237,1.715,1.715,0,0,1-.671-.657,1.879,1.879,0,0,1-.241-.95,1.94,1.94,0,0,1,.231-.95,1.664,1.664,0,0,1,.633-.654,1.769,1.769,0,0,1,.9-.234,1.751,1.751,0,0,1,.9.234,1.657,1.657,0,0,1,.626.65,1.958,1.958,0,0,1,.228.953Zm-2.625-1.235a1.314,1.314,0,0,0-.4.871h2.567a1.313,1.313,0,0,0-.4-.871,1.329,1.329,0,0,0-1.762,0" transform="translate(-52.983 -4.639)" fill="#555"/>
        <path id="パス_29089" data-name="パス 29089" d="M147.858,8.835h1.961a2.862,2.862,0,0,1,1.348.306,2.234,2.234,0,0,1,.908.853,2.569,2.569,0,0,1,0,2.5,2.234,2.234,0,0,1-.908.853,2.862,2.862,0,0,1-1.348.306h-1.961Zm1.934,4.377a2.337,2.337,0,0,0,1.108-.251,1.832,1.832,0,0,0,.736-.7,2.128,2.128,0,0,0,0-2.044,1.832,1.832,0,0,0-.736-.7,2.337,2.337,0,0,0-1.108-.251h-1.424v3.936Z" transform="translate(-63.067 -3.768)" fill="#555"/>
        <path id="パス_29090" data-name="パス 29090" d="M164.07,14.319a1.726,1.726,0,0,1-.66-.657,1.988,1.988,0,0,1,0-1.9,1.7,1.7,0,0,1,.66-.654,2.016,2.016,0,0,1,1.886,0,1.68,1.68,0,0,1,.658.654,2.018,2.018,0,0,1,0,1.9,1.7,1.7,0,0,1-.658.657,1.991,1.991,0,0,1-1.886,0m1.635-.372a1.231,1.231,0,0,0,.478-.5,1.667,1.667,0,0,0,0-1.473,1.231,1.231,0,0,0-.478-.5,1.451,1.451,0,0,0-1.383,0,1.239,1.239,0,0,0-.482.5,1.628,1.628,0,0,0,0,1.473,1.239,1.239,0,0,0,.482.5,1.451,1.451,0,0,0,1.383,0" transform="translate(-69.597 -4.639)" fill="#555"/>
        <path id="パス_29091" data-name="パス 29091" d="M178.526,11.061a1.742,1.742,0,0,1,.843-.186v.475l-.116-.007a1.157,1.157,0,0,0-.9.351,1.4,1.4,0,0,0-.323.984v1.844h-.489V10.9h.468v.709a1.184,1.184,0,0,1,.513-.551" transform="translate(-75.729 -4.639)" fill="#555"/>
      </g>
    </g>
    <path id="パス_33193" data-name="パス 33193" d="M3.029-6.227a2.288,2.288,0,0,1,.9-.819,2.8,2.8,0,0,1,1.339-.312A3,3,0,0,1,6.89-6.9,3.151,3.151,0,0,1,8.041-5.6,4.335,4.335,0,0,1,8.463-3.64a4.377,4.377,0,0,1-.422,1.97A3.189,3.189,0,0,1,6.89-.358,2.972,2.972,0,0,1,5.265.1,2.8,2.8,0,0,1,3.926-.2a2.362,2.362,0,0,1-.9-.813V0H.806V-9.62H3.029ZM6.2-3.64A1.794,1.794,0,0,0,5.74-4.947,1.524,1.524,0,0,0,4.6-5.421a1.5,1.5,0,0,0-1.125.481,1.818,1.818,0,0,0-.462,1.313,1.818,1.818,0,0,0,.462,1.313A1.5,1.5,0,0,0,4.6-1.833a1.511,1.511,0,0,0,1.131-.488A1.826,1.826,0,0,0,6.2-3.64ZM17.043-7.254l-4.55,10.7H10.1L11.765-.247,8.814-7.254H11.3l1.677,4.537,1.664-4.537Z" transform="translate(1223.262 2731)" fill="#555"/>
    <path id="パス_33194" data-name="パス 33194" d="M-64.078.224a8.98,8.98,0,0,1-3.64-.7,6.217,6.217,0,0,1-2.52-1.918,5.045,5.045,0,0,1-1.036-2.73h4.732a1.819,1.819,0,0,0,.756,1.316,2.675,2.675,0,0,0,1.652.5,2.358,2.358,0,0,0,1.386-.35,1.072,1.072,0,0,0,.49-.91,1.05,1.05,0,0,0-.7-.994,14.141,14.141,0,0,0-2.268-.714,21.293,21.293,0,0,1-2.8-.826A4.838,4.838,0,0,1-69.958-8.47,3.739,3.739,0,0,1-70.77-11a4.3,4.3,0,0,1,.742-2.45,5,5,0,0,1,2.184-1.75,8.363,8.363,0,0,1,3.43-.644,6.876,6.876,0,0,1,4.634,1.456,5.665,5.665,0,0,1,1.946,3.864h-4.424a1.907,1.907,0,0,0-.714-1.288,2.477,2.477,0,0,0-1.582-.476,2.187,2.187,0,0,0-1.288.322,1.028,1.028,0,0,0-.448.882,1.077,1.077,0,0,0,.714,1.008,11.436,11.436,0,0,0,2.226.672,24.352,24.352,0,0,1,2.828.882,4.878,4.878,0,0,1,1.918,1.4,3.961,3.961,0,0,1,.854,2.59,4.111,4.111,0,0,1-.77,2.45A5.093,5.093,0,0,1-60.732-.392,8.46,8.46,0,0,1-64.078.224Zm19.992-16.016a5.559,5.559,0,0,1,4.312,1.778A6.973,6.973,0,0,1-38.15-9.128V0h-4.76V-8.484a3.429,3.429,0,0,0-.812-2.436,2.847,2.847,0,0,0-2.184-.868,2.847,2.847,0,0,0-2.184.868A3.429,3.429,0,0,0-48.9-8.484V0H-53.69V-20.72H-48.9v7.2a5.118,5.118,0,0,1,1.988-1.652A6.354,6.354,0,0,1-44.086-15.792ZM-26.586.224a8.624,8.624,0,0,1-4.13-.98,7.176,7.176,0,0,1-2.884-2.8,8.367,8.367,0,0,1-1.05-4.256,8.3,8.3,0,0,1,1.064-4.242,7.22,7.22,0,0,1,2.912-2.814,8.706,8.706,0,0,1,4.144-.98,8.706,8.706,0,0,1,4.144.98,7.22,7.22,0,0,1,2.912,2.814A8.3,8.3,0,0,1-18.41-7.812,8.215,8.215,0,0,1-19.488-3.57a7.29,7.29,0,0,1-2.94,2.814A8.789,8.789,0,0,1-26.586.224Zm0-4.144a3.119,3.119,0,0,0,2.338-1.008,4,4,0,0,0,.966-2.884A4.079,4.079,0,0,0-24.22-10.7,3.031,3.031,0,0,0-26.53-11.7a3.039,3.039,0,0,0-2.324.994,4.109,4.109,0,0,0-.924,2.9,4.16,4.16,0,0,0,.91,2.884A2.945,2.945,0,0,0-26.586-3.92Zm16.632-9.492a5.2,5.2,0,0,1,1.932-1.764,5.931,5.931,0,0,1,2.884-.672,6.469,6.469,0,0,1,3.5.98,6.788,6.788,0,0,1,2.478,2.8A9.338,9.338,0,0,1,1.75-7.84,9.426,9.426,0,0,1,.84-3.6,6.869,6.869,0,0,1-1.638-.77a6.4,6.4,0,0,1-3.5.994,5.952,5.952,0,0,1-2.87-.672A5.262,5.262,0,0,1-9.954-2.184V7.448h-4.788V-15.624h4.788ZM-3.122-7.84a3.865,3.865,0,0,0-.994-2.814,3.283,3.283,0,0,0-2.45-1.022A3.23,3.23,0,0,0-8.988-10.64a3.915,3.915,0,0,0-.994,2.828,3.915,3.915,0,0,0,.994,2.828A3.229,3.229,0,0,0-6.566-3.948,3.253,3.253,0,0,0-4.13-5,3.932,3.932,0,0,0-3.122-7.84Zm13.3-5.572a5.2,5.2,0,0,1,1.932-1.764,5.931,5.931,0,0,1,2.884-.672,6.469,6.469,0,0,1,3.5.98,6.788,6.788,0,0,1,2.478,2.8,9.338,9.338,0,0,1,.91,4.228,9.426,9.426,0,0,1-.91,4.242A6.869,6.869,0,0,1,18.494-.77a6.4,6.4,0,0,1-3.5.994,5.952,5.952,0,0,1-2.87-.672,5.262,5.262,0,0,1-1.946-1.736V7.448H5.39V-15.624h4.788ZM17.01-7.84a3.865,3.865,0,0,0-.994-2.814,3.283,3.283,0,0,0-2.45-1.022,3.23,3.23,0,0,0-2.422,1.036,3.915,3.915,0,0,0-.994,2.828,3.915,3.915,0,0,0,.994,2.828,3.229,3.229,0,0,0,2.422,1.036A3.253,3.253,0,0,0,16-5,3.932,3.932,0,0,0,17.01-7.84Zm10.92-9.408a2.9,2.9,0,0,1-2.058-.742,2.4,2.4,0,0,1-.8-1.834,2.436,2.436,0,0,1,.8-1.862,2.9,2.9,0,0,1,2.058-.742,2.864,2.864,0,0,1,2.03.742,2.436,2.436,0,0,1,.8,1.862,2.4,2.4,0,0,1-.8,1.834A2.864,2.864,0,0,1,27.93-17.248Zm2.38,1.624V0H25.522V-15.624Zm14.112-.168A5.67,5.67,0,0,1,48.8-14.014a6.935,6.935,0,0,1,1.638,4.886V0h-4.76V-8.484a3.429,3.429,0,0,0-.812-2.436,2.847,2.847,0,0,0-2.184-.868,2.847,2.847,0,0,0-2.184.868,3.429,3.429,0,0,0-.812,2.436V0H34.9V-15.624H39.69v2.072a5.051,5.051,0,0,1,1.96-1.638A6.231,6.231,0,0,1,44.422-15.792Zm16.408-.056a6.013,6.013,0,0,1,2.9.672,4.95,4.95,0,0,1,1.918,1.764v-2.212h4.788v15.6a8.788,8.788,0,0,1-.854,3.906,6.508,6.508,0,0,1-2.6,2.786A8.423,8.423,0,0,1,62.622,7.7a9.056,9.056,0,0,1-5.628-1.638A6.182,6.182,0,0,1,54.53,1.624h4.732a2.265,2.265,0,0,0,1.064,1.414,3.878,3.878,0,0,0,2.072.518A3.257,3.257,0,0,0,64.764,2.7a3.663,3.663,0,0,0,.882-2.73V-2.24A5.31,5.31,0,0,1,63.714-.462,5.833,5.833,0,0,1,60.83.224a6.4,6.4,0,0,1-3.5-.994A6.869,6.869,0,0,1,54.852-3.6a9.426,9.426,0,0,1-.91-4.242,9.338,9.338,0,0,1,.91-4.228,6.788,6.788,0,0,1,2.478-2.8A6.469,6.469,0,0,1,60.83-15.848Zm4.816,8.036a3.915,3.915,0,0,0-.994-2.828,3.23,3.23,0,0,0-2.422-1.036,3.251,3.251,0,0,0-2.422,1.022,3.865,3.865,0,0,0-.994,2.814A3.965,3.965,0,0,0,59.808-5a3.209,3.209,0,0,0,2.422,1.05,3.23,3.23,0,0,0,2.422-1.036A3.915,3.915,0,0,0,65.646-7.812Z" transform="translate(1147.634 2732)" fill="#333"/>
    <path id="パス_33195" data-name="パス 33195" d="M-17.346-10.5a13.46,13.46,0,0,1,1.862-7.588q1.862-2.772,6.006-2.772t6.006,2.772A13.46,13.46,0,0,1-1.61-10.5,13.576,13.576,0,0,1-3.472-2.856Q-5.334-.084-9.478-.084t-6.006-2.772A13.576,13.576,0,0,1-17.346-10.5Zm11.032,0a12.077,12.077,0,0,0-.616-4.354A2.464,2.464,0,0,0-9.478-16.38a2.464,2.464,0,0,0-2.548,1.526,12.077,12.077,0,0,0-.616,4.354,18.305,18.305,0,0,0,.224,3.15,4.031,4.031,0,0,0,.91,2.016,2.578,2.578,0,0,0,2.03.77,2.578,2.578,0,0,0,2.03-.77,4.031,4.031,0,0,0,.91-2.016A18.305,18.305,0,0,0-6.314-10.5ZM1.022-3.64V-7.5L9.87-20.16h5.348V-7.784h2.3V-3.64h-2.3V0H10.43V-3.64ZM10.766-14.9l-4.7,7.112h4.7Z" transform="translate(1052.846 2731.5)" fill="#fff" opacity="0.3"/>
  </g>
</svg>
