<svg xmlns="http://www.w3.org/2000/svg" width="202.505" height="23.833" viewBox="0 0 202.505 23.833">
  <g id="グループ_6211" data-name="グループ 6211" transform="translate(-1052.5 -2710.612)">
    <g id="グループ_6214" data-name="グループ 6214" transform="translate(1156.84 2695.4)">
      <path id="パス_52" data-name="パス 52" d="M9.1-19.882a10.1,10.1,0,0,1-4.156.971H4.617V-31H2.88v12.4H8.807l.324-1.277Zm2.044-9.384L12.3-30.424,11.14-31.582,9.982-30.424ZM10.34-18.6h1.6v-9.231h-.068l-1.533.46Zm7.647.2a4.512,4.512,0,0,0,4.65-4.769,4.352,4.352,0,0,0-4.5-4.684,4.526,4.526,0,0,0-4.65,4.786A4.338,4.338,0,0,0,17.987-18.4Zm.1-.238c-1.686,0-2.861-1.805-2.861-4.53,0-2.691,1.107-4.445,2.81-4.445,1.686,0,2.861,1.822,2.861,4.547C20.9-20.393,19.792-18.638,18.089-18.638Zm10.951-9.214a4.532,4.532,0,0,0-3.3,1.482v-1.465h-.068l-1.55.46V-18.6h1.618V-26.03a3.649,3.649,0,0,1,2.606-1.209c1.993,0,1.993,1.873,1.993,2.572V-18.6h1.618v-6.029C31.953-26.831,30.931-27.853,29.041-27.853Zm13.234,8.925L41.9-20.154V-32.4h-.068l-1.55.511v4.973a3.67,3.67,0,0,0-2.5-.937c-2.384,0-4.394,1.976-4.394,4.888,0,2.674,1.669,4.564,3.883,4.564a4.1,4.1,0,0,0,3.049-1.448l.443,1.4Zm-4.479-.034c-1.55,0-2.674-1.4-2.674-4.173,0-2.742,1.141-4.428,2.81-4.428a2.561,2.561,0,0,1,2.35,1.72v5.6A3.371,3.371,0,0,1,37.795-18.962Zm10.117.562a4.512,4.512,0,0,0,4.65-4.769,4.352,4.352,0,0,0-4.5-4.684,4.526,4.526,0,0,0-4.65,4.786A4.338,4.338,0,0,0,47.912-18.4Zm.1-.238c-1.686,0-2.861-1.805-2.861-4.53,0-2.691,1.107-4.445,2.81-4.445,1.686,0,2.861,1.822,2.861,4.547C50.824-20.393,49.717-18.638,48.014-18.638ZM58.4-27.819c-1.192,0-2.146.852-2.776,2.231v-2.248h-.068l-1.516.46V-18.6h1.618v-6.489A2.472,2.472,0,0,1,57.79-26.66a2.453,2.453,0,0,1,.937.2l.477-1.26A3.4,3.4,0,0,0,58.4-27.819Z" transform="translate(38.961 55)" fill="#555"/>
    </g>
    <path id="パス_33187" data-name="パス 33187" d="M3.029-6.227a2.288,2.288,0,0,1,.9-.819,2.8,2.8,0,0,1,1.339-.312A3,3,0,0,1,6.89-6.9,3.151,3.151,0,0,1,8.041-5.6,4.335,4.335,0,0,1,8.463-3.64a4.377,4.377,0,0,1-.422,1.97A3.189,3.189,0,0,1,6.89-.358,2.972,2.972,0,0,1,5.265.1,2.8,2.8,0,0,1,3.926-.2a2.362,2.362,0,0,1-.9-.813V0H.806V-9.62H3.029ZM6.2-3.64A1.794,1.794,0,0,0,5.74-4.947,1.524,1.524,0,0,0,4.6-5.421a1.5,1.5,0,0,0-1.125.481,1.818,1.818,0,0,0-.462,1.313,1.818,1.818,0,0,0,.462,1.313A1.5,1.5,0,0,0,4.6-1.833a1.511,1.511,0,0,0,1.131-.488A1.826,1.826,0,0,0,6.2-3.64ZM17.043-7.254l-4.55,10.7H10.1L11.765-.247,8.814-7.254H11.3l1.677,4.537,1.664-4.537Z" transform="translate(1175.638 2731)" fill="#555"/>
    <path id="パス_33188" data-name="パス 33188" d="M-29.526,0l-4.76-6.552V0h-4.788V-20.72h4.788V-9.268l4.732-6.356h5.908l-6.5,7.84L-23.59,0Zm18.4-15.792a5.67,5.67,0,0,1,4.382,1.778A6.935,6.935,0,0,1-5.11-9.128V0H-9.87V-8.484a3.429,3.429,0,0,0-.812-2.436,2.847,2.847,0,0,0-2.184-.868,2.847,2.847,0,0,0-2.184.868,3.429,3.429,0,0,0-.812,2.436V0H-20.65V-15.624h4.788v2.072A5.051,5.051,0,0,1-13.9-15.19,6.231,6.231,0,0,1-11.13-15.792ZM6.454.224a8.624,8.624,0,0,1-4.13-.98A7.176,7.176,0,0,1-.56-3.556,8.367,8.367,0,0,1-1.61-7.812,8.3,8.3,0,0,1-.546-12.054a7.22,7.22,0,0,1,2.912-2.814,8.706,8.706,0,0,1,4.144-.98,8.706,8.706,0,0,1,4.144.98,7.22,7.22,0,0,1,2.912,2.814A8.3,8.3,0,0,1,14.63-7.812,8.215,8.215,0,0,1,13.552-3.57a7.29,7.29,0,0,1-2.94,2.814A8.789,8.789,0,0,1,6.454.224Zm0-4.144A3.119,3.119,0,0,0,8.792-4.928a4,4,0,0,0,.966-2.884A4.079,4.079,0,0,0,8.82-10.7,3.031,3.031,0,0,0,6.51-11.7a3.039,3.039,0,0,0-2.324.994,4.109,4.109,0,0,0-.924,2.9,4.16,4.16,0,0,0,.91,2.884A2.945,2.945,0,0,0,6.454-3.92Zm34.272-11.7L36.5,0H31.206L28.742-10.136,26.194,0H20.93L16.674-15.624h4.788L23.674-4.452l2.632-11.172h5.068l2.66,11.116,2.184-11.116Z" transform="translate(1129.718 2732)" fill="#333"/>
    <path id="パス_33189" data-name="パス 33189" d="M-15.862-10.5A13.46,13.46,0,0,1-14-18.088q1.862-2.772,6.006-2.772t6.006,2.772A13.46,13.46,0,0,1-.126-10.5,13.576,13.576,0,0,1-1.988-2.856Q-3.85-.084-7.994-.084T-14-2.856A13.576,13.576,0,0,1-15.862-10.5Zm11.032,0a12.077,12.077,0,0,0-.616-4.354A2.464,2.464,0,0,0-7.994-16.38a2.464,2.464,0,0,0-2.548,1.526,12.077,12.077,0,0,0-.616,4.354,18.305,18.305,0,0,0,.224,3.15,4.031,4.031,0,0,0,.91,2.016,2.578,2.578,0,0,0,2.03.77,2.578,2.578,0,0,0,2.03-.77,4.031,4.031,0,0,0,.91-2.016A18.305,18.305,0,0,0-4.83-10.5ZM2.226-3.836q.952-.756.868-.7Q5.838-6.8,7.42-8.26a17.91,17.91,0,0,0,2.674-3.052,5.515,5.515,0,0,0,1.092-3.108,2.736,2.736,0,0,0-.532-1.792,1.95,1.95,0,0,0-1.6-.644,1.97,1.97,0,0,0-1.666.8,3.679,3.679,0,0,0-.6,2.254H2.17A7.93,7.93,0,0,1,3.192-17.78,5.936,5.936,0,0,1,5.74-20.132a8.045,8.045,0,0,1,3.514-.756A6.785,6.785,0,0,1,14.28-19.18a6.049,6.049,0,0,1,1.694,4.452A8.732,8.732,0,0,1,13.93-9.17a30.1,30.1,0,0,1-5.208,5h7.56V-.28H2.226Z" transform="translate(1068.362 2731.5)" fill="#fff" opacity="0.3"/>
  </g>
</svg>
