<svg xmlns="http://www.w3.org/2000/svg" xmlns:xlink="http://www.w3.org/1999/xlink" width="43.04" height="468.836" viewBox="0 0 43.04 468.836">
  <defs>
    <clipPath id="clip-path">
      <rect id="長方形_1142" data-name="長方形 1142" width="148.056" height="20" fill="#555"/>
    </clipPath>
  </defs>
  <g id="グループ_6502" data-name="グループ 6502" transform="translate(-1294.75 -1440.22)">
    <g id="グループ_6205" data-name="グループ 6205" transform="translate(1325.817 1761) rotate(90)">
      <g id="グループ_1353" data-name="グループ 1353" transform="translate(0 0)" clip-path="url(#clip-path)">
        <path id="パス_29081" data-name="パス 29081" d="M31.94,0H28.153V.111a12.848,12.848,0,0,1,4.091.877c1.949.836,6.787,3.687,6.787,9.012s-4.824,8.209-6.787,9.013a14.587,14.587,0,0,1-4.091.879V20l3.6-.052c5.522,0,10.487-4.426,10.487-9.949S37.659.157,31.94,0" transform="translate(-5.089 0)" fill="#555"/>
        <path id="パス_29082" data-name="パス 29082" d="M8.092,15.6,15.384,0h5.385V.093C18.123.4,17.785,1.446,17.846,3.6l.123,11.816c.124,3.293.215,4.215,2.923,4.492V20H12.708v-.093c2.523-.246,2.615-1.2,2.585-4.492l.03-12.554C12.8,8.492,8.739,17.292,7.661,20h-.8C5.816,17.2,2.339,8.738,0,3.169Z" transform="translate(0 0)" fill="#555"/>
        <path id="パス_29083" data-name="パス 29083" d="M62.869,8.835v6.882h-.7V10.211l-2.7,4.63h-.344l-2.7-4.6v5.476h-.7V8.835h.6l2.989,5.1,2.959-5.1Z" transform="translate(-10.072 -1.597)" fill="#555"/>
        <path id="パス_29084" data-name="パス 29084" d="M76.484,11.381a1.957,1.957,0,0,1,.541,1.5v3.2h-.668v-.806a1.6,1.6,0,0,1-.694.629,2.421,2.421,0,0,1-1.086.226,2.129,2.129,0,0,1-1.376-.413,1.421,1.421,0,0,1-.034-2.153,2.332,2.332,0,0,1,1.519-.4h1.642v-.315a1.328,1.328,0,0,0-.374-1.017,1.545,1.545,0,0,0-1.092-.349,2.77,2.77,0,0,0-.943.162,2.382,2.382,0,0,0-.777.447l-.314-.521a2.778,2.778,0,0,1,.943-.516,3.678,3.678,0,0,1,1.16-.182,2.188,2.188,0,0,1,1.553.506M75.7,15.314a1.614,1.614,0,0,0,.629-.782v-.845H74.7q-1.327,0-1.326.924a.843.843,0,0,0,.344.713,1.565,1.565,0,0,0,.963.261,1.841,1.841,0,0,0,1.013-.27" transform="translate(-13.14 -1.966)" fill="#555"/>
        <path id="パス_29085" data-name="パス 29085" d="M87.914,11.14a2.492,2.492,0,0,1,1.205-.265v.678l-.167-.01a1.65,1.65,0,0,0-1.278.5,1.994,1.994,0,0,0-.462,1.406v2.635h-.7V10.914h.668v1.013a1.7,1.7,0,0,1,.732-.786" transform="translate(-15.639 -1.966)" fill="#555"/>
        <path id="パス_29086" data-name="パス 29086" d="M98.2,15.8a2.423,2.423,0,0,1-.948-.939A2.7,2.7,0,0,1,96.9,13.5a2.677,2.677,0,0,1,.345-1.357,2.433,2.433,0,0,1,.948-.934,2.8,2.8,0,0,1,1.372-.334,2.655,2.655,0,0,1,1.194.261,1.981,1.981,0,0,1,.83.762l-.52.354a1.63,1.63,0,0,0-.649-.575,1.928,1.928,0,0,0-.855-.192,2.025,2.025,0,0,0-1.008.251,1.756,1.756,0,0,0-.7.713,2.343,2.343,0,0,0,0,2.109,1.764,1.764,0,0,0,.7.708,2.025,2.025,0,0,0,1.008.251,1.97,1.97,0,0,0,.855-.187,1.593,1.593,0,0,0,.649-.57l.52.354a1.975,1.975,0,0,1-.835.762,2.664,2.664,0,0,1-1.19.261A2.79,2.79,0,0,1,98.2,15.8" transform="translate(-17.517 -1.966)" fill="#555"/>
        <path id="パス_29087" data-name="パス 29087" d="M114.7,10.98a2.208,2.208,0,0,1,.574,1.647v3h-.7V12.7a1.711,1.711,0,0,0-.4-1.229,1.513,1.513,0,0,0-1.15-.423,1.764,1.764,0,0,0-1.321.5,1.872,1.872,0,0,0-.487,1.371v2.713h-.7V8.331h.7v3.028a1.89,1.89,0,0,1,.786-.7,2.583,2.583,0,0,1,1.15-.246,2.116,2.116,0,0,1,1.549.565" transform="translate(-19.977 -1.506)" fill="#555"/>
        <path id="パス_29088" data-name="パス 29088" d="M129.241,13.716h-4.326a1.852,1.852,0,0,0,.62,1.3,2.055,2.055,0,0,0,1.415.5,2.228,2.228,0,0,0,.885-.172,1.926,1.926,0,0,0,.7-.506l.393.452a2.211,2.211,0,0,1-.859.629,2.909,2.909,0,0,1-1.135.216,2.872,2.872,0,0,1-1.412-.339,2.45,2.45,0,0,1-.958-.939,2.685,2.685,0,0,1-.344-1.357,2.772,2.772,0,0,1,.33-1.357,2.377,2.377,0,0,1,.9-.934,2.527,2.527,0,0,1,1.293-.334,2.5,2.5,0,0,1,1.289.334,2.367,2.367,0,0,1,.894.929,2.8,2.8,0,0,1,.325,1.362Zm-3.75-1.765a1.877,1.877,0,0,0-.576,1.244h3.667a1.876,1.876,0,0,0-.574-1.244,1.9,1.9,0,0,0-2.517,0" transform="translate(-22.454 -1.966)" fill="#555"/>
        <path id="パス_29089" data-name="パス 29089" d="M147.858,8.835h2.8a4.089,4.089,0,0,1,1.926.437,3.192,3.192,0,0,1,1.3,1.219,3.432,3.432,0,0,1,.463,1.784,3.432,3.432,0,0,1-.463,1.784,3.192,3.192,0,0,1-1.3,1.219,4.089,4.089,0,0,1-1.926.437h-2.8Zm2.762,6.252a3.339,3.339,0,0,0,1.583-.359,2.617,2.617,0,0,0,1.052-.993,3.039,3.039,0,0,0,0-2.92,2.617,2.617,0,0,0-1.052-.993,3.339,3.339,0,0,0-1.583-.359h-2.035v5.623Z" transform="translate(-26.727 -1.597)" fill="#555"/>
        <path id="パス_29090" data-name="パス 29090" d="M164.457,15.8a2.466,2.466,0,0,1-.943-.939,2.841,2.841,0,0,1,0-2.713,2.431,2.431,0,0,1,.943-.934,2.881,2.881,0,0,1,2.694,0,2.4,2.4,0,0,1,.94.934,2.883,2.883,0,0,1,0,2.713,2.435,2.435,0,0,1-.94.939,2.844,2.844,0,0,1-2.694,0m2.336-.531a1.758,1.758,0,0,0,.683-.713,2.381,2.381,0,0,0,0-2.1,1.758,1.758,0,0,0-.683-.713,2.072,2.072,0,0,0-1.976,0,1.77,1.77,0,0,0-.688.713,2.325,2.325,0,0,0,0,2.1,1.77,1.77,0,0,0,.688.713,2.072,2.072,0,0,0,1.976,0" transform="translate(-29.495 -1.966)" fill="#555"/>
        <path id="パス_29091" data-name="パス 29091" d="M178.946,11.14a2.489,2.489,0,0,1,1.2-.265v.678l-.166-.01a1.653,1.653,0,0,0-1.279.5,2,2,0,0,0-.462,1.406v2.635h-.7V10.914h.668v1.013a1.692,1.692,0,0,1,.732-.786" transform="translate(-32.094 -1.966)" fill="#555"/>
      </g>
    </g>
    <path id="パス_33196" data-name="パス 33196" d="M3.262-6.706a2.464,2.464,0,0,1,.966-.882A3.017,3.017,0,0,1,5.67-7.924a3.235,3.235,0,0,1,1.75.49,3.394,3.394,0,0,1,1.239,1.4A4.669,4.669,0,0,1,9.114-3.92,4.713,4.713,0,0,1,8.659-1.8,3.434,3.434,0,0,1,7.42-.385a3.2,3.2,0,0,1-1.75.5A3.017,3.017,0,0,1,4.228-.217a2.544,2.544,0,0,1-.966-.875V0H.868V-10.36H3.262ZM6.678-3.92a1.932,1.932,0,0,0-.5-1.407,1.641,1.641,0,0,0-1.225-.511,1.615,1.615,0,0,0-1.211.518,1.957,1.957,0,0,0-.5,1.414,1.957,1.957,0,0,0,.5,1.414,1.615,1.615,0,0,0,1.211.518A1.627,1.627,0,0,0,6.174-2.5,1.966,1.966,0,0,0,6.678-3.92ZM18.354-7.812,13.454,3.71H10.878L12.67-.266,9.492-7.812h2.674l1.806,4.886,1.792-4.886Z" transform="translate(1306.75 1733) rotate(90)" fill="#555"/>
    <path id="パス_33195" data-name="パス 33195" d="M-91.54.32a12.829,12.829,0,0,1-5.2-1,8.881,8.881,0,0,1-3.6-2.74,7.207,7.207,0,0,1-1.48-3.9h6.76a2.6,2.6,0,0,0,1.08,1.88,3.821,3.821,0,0,0,2.36.72,3.368,3.368,0,0,0,1.98-.5,1.531,1.531,0,0,0,.7-1.3,1.5,1.5,0,0,0-1-1.42,20.2,20.2,0,0,0-3.24-1.02,30.419,30.419,0,0,1-4-1.18,6.911,6.911,0,0,1-2.76-1.96,5.341,5.341,0,0,1-1.16-3.62,6.147,6.147,0,0,1,1.06-3.5,7.137,7.137,0,0,1,3.12-2.5,11.947,11.947,0,0,1,4.9-.92,9.823,9.823,0,0,1,6.62,2.08,8.093,8.093,0,0,1,2.78,5.52h-6.32a2.724,2.724,0,0,0-1.02-1.84,3.538,3.538,0,0,0-2.26-.68,3.125,3.125,0,0,0-1.84.46,1.469,1.469,0,0,0-.64,1.26,1.538,1.538,0,0,0,1.02,1.44,16.337,16.337,0,0,0,3.18.96,34.789,34.789,0,0,1,4.04,1.26,6.969,6.969,0,0,1,2.74,2,5.659,5.659,0,0,1,1.22,3.7,5.873,5.873,0,0,1-1.1,3.5A7.275,7.275,0,0,1-86.76-.56,12.085,12.085,0,0,1-91.54.32Zm28.56-22.88a7.941,7.941,0,0,1,6.16,2.54,9.961,9.961,0,0,1,2.32,6.98V0h-6.8V-12.12a4.9,4.9,0,0,0-1.16-3.48,4.067,4.067,0,0,0-3.12-1.24A4.067,4.067,0,0,0-68.7-15.6a4.9,4.9,0,0,0-1.16,3.48V0H-76.7V-29.6h6.84v10.28a7.311,7.311,0,0,1,2.84-2.36A9.077,9.077,0,0,1-62.98-22.56Zm25,22.88a12.32,12.32,0,0,1-5.9-1.4,10.251,10.251,0,0,1-4.12-4,11.952,11.952,0,0,1-1.5-6.08,11.856,11.856,0,0,1,1.52-6.06,10.314,10.314,0,0,1,4.16-4.02,12.438,12.438,0,0,1,5.92-1.4,12.438,12.438,0,0,1,5.92,1.4,10.314,10.314,0,0,1,4.16,4.02,11.856,11.856,0,0,1,1.52,6.06A11.735,11.735,0,0,1-27.84-5.1a10.414,10.414,0,0,1-4.2,4.02A12.556,12.556,0,0,1-37.98.32Zm0-5.92a4.456,4.456,0,0,0,3.34-1.44,5.721,5.721,0,0,0,1.38-4.12,5.827,5.827,0,0,0-1.34-4.12,4.33,4.33,0,0,0-3.3-1.44,4.341,4.341,0,0,0-3.32,1.42,5.87,5.87,0,0,0-1.32,4.14,5.942,5.942,0,0,0,1.3,4.12A4.207,4.207,0,0,0-37.98-5.6Zm23.76-13.56a7.425,7.425,0,0,1,2.76-2.52,8.473,8.473,0,0,1,4.12-.96,9.242,9.242,0,0,1,5,1.4,9.7,9.7,0,0,1,3.54,4A13.34,13.34,0,0,1,2.5-11.2,13.466,13.466,0,0,1,1.2-5.14,9.813,9.813,0,0,1-2.34-1.1a9.145,9.145,0,0,1-5,1.42,8.5,8.5,0,0,1-4.1-.96,7.516,7.516,0,0,1-2.78-2.48V10.64h-6.84V-22.32h6.84Zm9.76,7.96a5.521,5.521,0,0,0-1.42-4.02,4.69,4.69,0,0,0-3.5-1.46,4.614,4.614,0,0,0-3.46,1.48,5.592,5.592,0,0,0-1.42,4.04,5.592,5.592,0,0,0,1.42,4.04A4.614,4.614,0,0,0-9.38-5.64,4.648,4.648,0,0,0-5.9-7.14,5.617,5.617,0,0,0-4.46-11.2Zm19-7.96a7.425,7.425,0,0,1,2.76-2.52,8.473,8.473,0,0,1,4.12-.96,9.242,9.242,0,0,1,5,1.4,9.7,9.7,0,0,1,3.54,4,13.34,13.34,0,0,1,1.3,6.04,13.466,13.466,0,0,1-1.3,6.06A9.813,9.813,0,0,1,26.42-1.1a9.145,9.145,0,0,1-5,1.42,8.5,8.5,0,0,1-4.1-.96,7.516,7.516,0,0,1-2.78-2.48V10.64H7.7V-22.32h6.84ZM24.3-11.2a5.521,5.521,0,0,0-1.42-4.02,4.69,4.69,0,0,0-3.5-1.46,4.614,4.614,0,0,0-3.46,1.48,5.592,5.592,0,0,0-1.42,4.04,5.592,5.592,0,0,0,1.42,4.04,4.614,4.614,0,0,0,3.46,1.48,4.648,4.648,0,0,0,3.48-1.5A5.617,5.617,0,0,0,24.3-11.2ZM39.9-24.64a4.146,4.146,0,0,1-2.94-1.06,3.435,3.435,0,0,1-1.14-2.62,3.479,3.479,0,0,1,1.14-2.66,4.146,4.146,0,0,1,2.94-1.06,4.091,4.091,0,0,1,2.9,1.06,3.479,3.479,0,0,1,1.14,2.66A3.435,3.435,0,0,1,42.8-25.7,4.091,4.091,0,0,1,39.9-24.64Zm3.4,2.32V0H36.46V-22.32Zm20.16-.24a8.1,8.1,0,0,1,6.26,2.54,9.907,9.907,0,0,1,2.34,6.98V0h-6.8V-12.12A4.9,4.9,0,0,0,64.1-15.6a4.067,4.067,0,0,0-3.12-1.24,4.067,4.067,0,0,0-3.12,1.24,4.9,4.9,0,0,0-1.16,3.48V0H49.86V-22.32H56.7v2.96a7.216,7.216,0,0,1,2.8-2.34A8.9,8.9,0,0,1,63.46-22.56Zm23.44-.08a8.589,8.589,0,0,1,4.14.96,7.072,7.072,0,0,1,2.74,2.52v-3.16h6.84V-.04A12.554,12.554,0,0,1,99.4,5.54a9.3,9.3,0,0,1-3.72,3.98A12.034,12.034,0,0,1,89.46,11a12.937,12.937,0,0,1-8.04-2.34A8.832,8.832,0,0,1,77.9,2.32h6.76a3.236,3.236,0,0,0,1.52,2.02,5.54,5.54,0,0,0,2.96.74,4.653,4.653,0,0,0,3.38-1.22,5.233,5.233,0,0,0,1.26-3.9V-3.2A7.586,7.586,0,0,1,91.02-.66,8.333,8.333,0,0,1,86.9.32a9.145,9.145,0,0,1-5-1.42,9.813,9.813,0,0,1-3.54-4.04,13.466,13.466,0,0,1-1.3-6.06,13.34,13.34,0,0,1,1.3-6.04,9.7,9.7,0,0,1,3.54-4A9.242,9.242,0,0,1,86.9-22.64Zm6.88,11.48a5.592,5.592,0,0,0-1.42-4.04,4.614,4.614,0,0,0-3.46-1.48,4.644,4.644,0,0,0-3.46,1.46,5.521,5.521,0,0,0-1.42,4.02,5.664,5.664,0,0,0,1.42,4.06,4.584,4.584,0,0,0,3.46,1.5,4.614,4.614,0,0,0,3.46-1.48A5.592,5.592,0,0,0,93.78-11.16Z" transform="translate(1305.75 1620) rotate(90)" fill="#333"/>
    <path id="パス_33194" data-name="パス 33194" d="M-24.78-15q0-6.88,2.66-10.84t8.58-3.96q5.92,0,8.58,3.96T-2.3-15q0,6.96-2.66,10.92T-13.54-.12q-5.92,0-8.58-3.96T-24.78-15Zm15.76,0a17.253,17.253,0,0,0-.88-6.22,3.52,3.52,0,0,0-3.64-2.18,3.52,3.52,0,0,0-3.64,2.18A17.253,17.253,0,0,0-18.06-15a26.15,26.15,0,0,0,.32,4.5,5.758,5.758,0,0,0,1.3,2.88,3.682,3.682,0,0,0,2.9,1.1,3.682,3.682,0,0,0,2.9-1.1,5.758,5.758,0,0,0,1.3-2.88A26.15,26.15,0,0,0-9.02-15ZM1.46-5.2v-5.52L14.1-28.8h7.64v17.68h3.28V-5.2H21.74V0H14.9V-5.2ZM15.38-21.28,8.66-11.12h6.72Z" transform="translate(1306.25 1465) rotate(90)" fill="#fff" opacity="0.3"/>
  </g>
</svg>
