<svg xmlns="http://www.w3.org/2000/svg" width="34.05" height="302.111" viewBox="0 0 34.05 302.111">
  <g id="グループ_6502" data-name="グループ 6502" transform="translate(-1062.04 -1439.34)">
    <g id="グループ_6199" data-name="グループ 6199" transform="translate(1106.35 1623.159) rotate(90)">
      <path id="パス_52" data-name="パス 52" d="M11.318-15.408a13.713,13.713,0,0,1-5.641,1.318H5.238V-30.5H2.88v16.83h8.045l.439-1.734Zm2.774-12.738,1.572-1.572L14.092-31.29,12.52-29.718ZM13.006-13.675h2.173V-26.2h-.092l-2.081.624Zm10.38.277A6.125,6.125,0,0,0,29.7-19.87c0-3.93-2.589-6.357-6.1-6.357a6.144,6.144,0,0,0-6.311,6.5C17.282-15.8,19.872-13.4,23.386-13.4Zm.139-.324c-2.289,0-3.884-2.45-3.884-6.149,0-3.653,1.5-6.034,3.814-6.034,2.289,0,3.884,2.474,3.884,6.172C27.339-16.1,25.836-13.721,23.524-13.721ZM38.389-26.228A6.151,6.151,0,0,0,33.9-24.216V-26.2h-.092l-2.1.624v11.906h2.2V-23.754A4.952,4.952,0,0,1,37.441-25.4c2.7,0,2.7,2.543,2.7,3.491v8.23h2.2v-8.184C42.342-24.84,40.955-26.228,38.389-26.228ZM56.352-14.114l-.509-1.664V-32.4H55.75l-2.1.694v6.75a4.981,4.981,0,0,0-3.4-1.271c-3.237,0-5.964,2.682-5.964,6.635,0,3.629,2.266,6.2,5.271,6.2a5.565,5.565,0,0,0,4.138-1.965l.6,1.9Zm-6.08-.046c-2.1,0-3.63-1.9-3.63-5.664,0-3.722,1.549-6.011,3.814-6.011a3.477,3.477,0,0,1,3.19,2.335v7.606A4.576,4.576,0,0,1,50.272-14.16ZM64-13.4a6.125,6.125,0,0,0,6.311-6.473c0-3.93-2.589-6.357-6.1-6.357a6.144,6.144,0,0,0-6.311,6.5C57.9-15.8,60.49-13.4,64-13.4Zm.139-.324c-2.289,0-3.884-2.45-3.884-6.149,0-3.653,1.5-6.034,3.814-6.034,2.289,0,3.884,2.474,3.884,6.172C67.957-16.1,66.454-13.721,64.142-13.721Zm14.1-12.461c-1.618,0-2.913,1.156-3.768,3.028V-26.2h-.092l-2.057.624v11.906h2.2v-8.808a3.356,3.356,0,0,1,2.89-2.127,3.329,3.329,0,0,1,1.271.277l.647-1.711A4.612,4.612,0,0,0,78.244-26.181Z" transform="translate(38.961 55)" fill="#555"/>
    </g>
    <path id="パス_33196" data-name="パス 33196" d="M3.262-6.706a2.464,2.464,0,0,1,.966-.882A3.017,3.017,0,0,1,5.67-7.924a3.235,3.235,0,0,1,1.75.49,3.394,3.394,0,0,1,1.239,1.4A4.669,4.669,0,0,1,9.114-3.92,4.713,4.713,0,0,1,8.659-1.8,3.434,3.434,0,0,1,7.42-.385a3.2,3.2,0,0,1-1.75.5A3.017,3.017,0,0,1,4.228-.217a2.544,2.544,0,0,1-.966-.875V0H.868V-10.36H3.262ZM6.678-3.92a1.932,1.932,0,0,0-.5-1.407,1.641,1.641,0,0,0-1.225-.511,1.615,1.615,0,0,0-1.211.518,1.957,1.957,0,0,0-.5,1.414,1.957,1.957,0,0,0,.5,1.414,1.615,1.615,0,0,0,1.211.518A1.627,1.627,0,0,0,6.174-2.5,1.966,1.966,0,0,0,6.678-3.92ZM18.354-7.812,13.454,3.71H10.878L12.67-.266,9.492-7.812h2.674l1.806,4.886,1.792-4.886Z" transform="translate(1065.75 1637) rotate(90)" fill="#555"/>
    <path id="パス_33194" data-name="パス 33194" d="M-42.18,0l-6.8-9.36V0h-6.84V-29.6h6.84v16.36l6.76-9.08h8.44l-9.28,11.2L-33.7,0ZM-15.9-22.56a8.1,8.1,0,0,1,6.26,2.54A9.907,9.907,0,0,1-7.3-13.04V0h-6.8V-12.12a4.9,4.9,0,0,0-1.16-3.48,4.067,4.067,0,0,0-3.12-1.24A4.067,4.067,0,0,0-21.5-15.6a4.9,4.9,0,0,0-1.16,3.48V0H-29.5V-22.32h6.84v2.96a7.216,7.216,0,0,1,2.8-2.34A8.9,8.9,0,0,1-15.9-22.56ZM9.22.32a12.32,12.32,0,0,1-5.9-1.4,10.251,10.251,0,0,1-4.12-4,11.952,11.952,0,0,1-1.5-6.08A11.856,11.856,0,0,1-.78-17.22a10.314,10.314,0,0,1,4.16-4.02,12.438,12.438,0,0,1,5.92-1.4,12.438,12.438,0,0,1,5.92,1.4,10.314,10.314,0,0,1,4.16,4.02,11.856,11.856,0,0,1,1.52,6.06A11.735,11.735,0,0,1,19.36-5.1a10.414,10.414,0,0,1-4.2,4.02A12.556,12.556,0,0,1,9.22.32Zm0-5.92a4.456,4.456,0,0,0,3.34-1.44,5.721,5.721,0,0,0,1.38-4.12,5.827,5.827,0,0,0-1.34-4.12,4.33,4.33,0,0,0-3.3-1.44A4.341,4.341,0,0,0,5.98-15.3a5.87,5.87,0,0,0-1.32,4.14,5.942,5.942,0,0,0,1.3,4.12A4.207,4.207,0,0,0,9.22-5.6ZM58.18-22.32,52.14,0H44.58L41.06-14.48,37.42,0H29.9L23.82-22.32h6.84L33.82-6.36l3.76-15.96h7.24l3.8,15.88,3.12-15.88Z" transform="translate(1065.75 1569) rotate(90)" fill="#333"/>
    <path id="パス_33195" data-name="パス 33195" d="M-22.66-15q0-6.88,2.66-10.84t8.58-3.96q5.92,0,8.58,3.96T-.18-15q0,6.96-2.66,10.92T-11.42-.12q-5.92,0-8.58-3.96T-22.66-15ZM-6.9-15a17.253,17.253,0,0,0-.88-6.22,3.52,3.52,0,0,0-3.64-2.18,3.52,3.52,0,0,0-3.64,2.18A17.253,17.253,0,0,0-15.94-15a26.15,26.15,0,0,0,.32,4.5,5.758,5.758,0,0,0,1.3,2.88,3.682,3.682,0,0,0,2.9,1.1,3.682,3.682,0,0,0,2.9-1.1,5.758,5.758,0,0,0,1.3-2.88A26.15,26.15,0,0,0-6.9-15ZM3.18-5.48q1.36-1.08,1.24-1Q8.34-9.72,10.6-11.8a25.586,25.586,0,0,0,3.82-4.36,7.879,7.879,0,0,0,1.56-4.44,3.908,3.908,0,0,0-.76-2.56,2.786,2.786,0,0,0-2.28-.92,2.815,2.815,0,0,0-2.38,1.14,5.256,5.256,0,0,0-.86,3.22H3.1A11.329,11.329,0,0,1,4.56-25.4,8.48,8.48,0,0,1,8.2-28.76a11.493,11.493,0,0,1,5.02-1.08q4.76,0,7.18,2.44a8.641,8.641,0,0,1,2.42,6.36A12.474,12.474,0,0,1,19.9-13.1a43,43,0,0,1-7.44,7.14h10.8V-.4H3.18Z" transform="translate(1066.25 1462) rotate(90)" fill="#fff" opacity="0.3"/>
  </g>
</svg>
