<svg xmlns="http://www.w3.org/2000/svg" width="64" height="56.889" viewBox="0 0 64 56.889">
  <path id="Icon_awesome-exclamation-triangle" data-name="Icon awesome-exclamation-triangle" d="M63.28,48.89a5.336,5.336,0,0,1-4.62,8H5.339a5.336,5.336,0,0,1-4.62-8L27.38,2.665a5.336,5.336,0,0,1,9.239,0ZM32,39.333a5.111,5.111,0,1,0,5.111,5.111A5.111,5.111,0,0,0,32,39.333ZM27.147,20.962l.824,15.111A1.333,1.333,0,0,0,29.3,37.333H34.7a1.333,1.333,0,0,0,1.331-1.261l.824-15.111a1.333,1.333,0,0,0-1.331-1.406H28.479a1.333,1.333,0,0,0-1.331,1.406Z" fill="red"/>
</svg>
