<svg xmlns="http://www.w3.org/2000/svg" width="320" height="76" viewBox="0 0 320 76">
  <g id="グループ_6395" data-name="グループ 6395" transform="translate(-560 -3198)">
    <path id="パス_33219" data-name="パス 33219" d="M32,0H288a32,32,0,0,1,0,64H32A32,32,0,0,1,32,0Z" transform="translate(560 3198)" fill="#333"/>
    <g id="グループ_5739" data-name="グループ 5739" transform="translate(-32 984)">
      <path id="パス_33220" data-name="パス 33220" d="M13.272-18.984A44.773,44.773,0,0,0,18-11.856H6.456A30.421,30.421,0,0,0,10.944-19.2L7.152-20.3A19.726,19.726,0,0,1,.1-11.328,25.937,25.937,0,0,1,3.1-8.5a19.493,19.493,0,0,0,1.68-1.512v1.536h3.6C7.92-5.3,6.672-2.5,1.416-.768A11.509,11.509,0,0,1,3.7,2.472c6.336-2.4,7.92-6.408,8.5-10.944h3.936c-.168,4.44-.384,6.432-.816,6.912a1.182,1.182,0,0,1-.96.36c-.6,0-1.728-.024-2.928-.12a8.263,8.263,0,0,1,1.152,3.528,22.43,22.43,0,0,0,3.552-.12,3.338,3.338,0,0,0,2.4-1.344C19.32-.264,19.584-3.024,19.8-9.768c.36.384.72.744,1.056,1.08a17.72,17.72,0,0,1,2.976-3.168,29.315,29.315,0,0,1-7.1-8.5Zm13.7,2.16.36,3.96A92.2,92.2,0,0,1,36.5-14.208,9.8,9.8,0,0,0,33.456-7.2c0,5.112,4.584,8.016,9.936,8.424L44.76-2.808C40.608-3.048,37.3-4.44,37.3-7.968a6.663,6.663,0,0,1,4.824-6.24,30.269,30.269,0,0,1,4.608-.288L46.7-18.24c-1.752.072-4.584.24-6.984.432-4.392.384-8.016.672-10.272.864C28.992-16.9,27.936-16.848,26.976-16.824ZM43.32-12.48l-2.088.864a19.281,19.281,0,0,1,1.824,3.288l2.136-.936A31.807,31.807,0,0,0,43.32-12.48Zm2.712-1.152-2.064.936A20.1,20.1,0,0,1,45.912-9.5l2.112-1.008C47.544-11.376,46.656-12.768,46.032-13.632Zm9.96-1.416h13.56v2.784H73.3v-6.072H64.68V-20.5H60.936v2.16h-8.5v6.072h3.552Zm12.864,4.392V-13.8H56.736v3.144Zm-.576,9.48c-.768,0-.888-.1-.888-.912V-6.24H73.7V-9.5H52.08V-6.24h5.448C57.216-3.648,56.5-1.848,51.312-.792a10.036,10.036,0,0,1,2.016,3.144C59.64.72,60.888-2.208,61.344-6.24h2.52v4.2c0,3,.744,4.008,3.864,4.008h2.736c2.472,0,3.36-.984,3.72-4.584a11.011,11.011,0,0,1-3.12-1.32c-.1,2.376-.24,2.76-.936,2.76Zm27.384-18-.816.216H78.768V-15.5H91.92a25.391,25.391,0,0,1-3.408,3.216H86.664v10.56c0,.408-.192.528-.72.528-.552,0-2.592,0-4.128-.1A14.612,14.612,0,0,1,83.232,2.28,16.02,16.02,0,0,0,88.584,1.7c1.344-.528,1.8-1.464,1.8-3.336V-9.408a40.911,40.911,0,0,0,8.04-7.728ZM112.272-6.384h2.976l.72-7.584.144-3.984h-4.7l.144,3.984ZM113.76.288a2.371,2.371,0,0,0,2.448-2.448,2.332,2.332,0,0,0-2.448-2.4,2.332,2.332,0,0,0-2.448,2.4A2.357,2.357,0,0,0,113.76.288Z" transform="translate(724.176 2256.5)" fill="#fff"/>
      <path id="パス_33221" data-name="パス 33221" d="M-10.06-20.96a8.785,8.785,0,0,1,2.8-6.6A10.465,10.465,0,0,1-.1-29.88a11.663,11.663,0,0,1,5.14,1.04A7.533,7.533,0,0,1,8.28-26a7.593,7.593,0,0,1,1.1,4.04,6.7,6.7,0,0,1-1.32,4.3A6.676,6.676,0,0,1,4.98-15.4v.16a7.216,7.216,0,0,1,3.6,2.52A7.331,7.331,0,0,1,9.9-8.2,8.347,8.347,0,0,1,8.76-3.82,7.784,7.784,0,0,1,5.44-.84,11.551,11.551,0,0,1,.26.24,11.662,11.662,0,0,1-7.4-2.12q-2.86-2.36-3.02-7.12h6.64a4.034,4.034,0,0,0,1,2.78A3.662,3.662,0,0,0,.02-5.44a3.188,3.188,0,0,0,2.42-.9A3.3,3.3,0,0,0,3.3-8.72,3.163,3.163,0,0,0,2.08-11.5a6.894,6.894,0,0,0-3.9-.86H-3.1v-5.56h1.28a6.772,6.772,0,0,0,3.3-.7,2.61,2.61,0,0,0,1.26-2.5,3.028,3.028,0,0,0-.8-2.24,2.973,2.973,0,0,0-2.2-.8,2.727,2.727,0,0,0-2.26.92,4.123,4.123,0,0,0-.86,2.28Z" transform="translate(710.372 2260)" fill="#fff"/>
      <path id="パス_33222" data-name="パス 33222" d="M-14.232-1.752v-.7h3.048v.7Zm3.048-3.168v.672h-3.048V-4.92Zm-8.088-4.512v-.5h3.048v.5Zm10.344,0v-.5h3.072v.5Zm-7.3-2.784v.48h-3.048v-.48Zm10.368.48H-8.928v-.48h3.072ZM-13.1-14.16h-9.312V2.256h3.144V-7.512H-13.1Zm11.472-4.752H-7.848c.168-.336.336-.7.48-1.032l-3.312-.816a11.047,11.047,0,0,1-2.4,3.672v-1.824h-4.776c.168-.312.312-.648.456-.96l-3.24-.888a12.5,12.5,0,0,1-3.6,4.728,20.655,20.655,0,0,1,2.832,1.872,17.674,17.674,0,0,0,1.824-2.064,10.074,10.074,0,0,1,1.008,2.064l3.024-.84a8.949,8.949,0,0,0-.7-1.32h2.328l-.36.288a20.762,20.762,0,0,1,3.072,1.608,13.5,13.5,0,0,0,1.7-1.9h.936a13.835,13.835,0,0,1,1.3,2.16h-4.776v6.648h6.192v6.384c0,.336-.12.432-.48.432-.264,0-1.032.024-1.8,0V-6.768h-9.216V.912h3.12V.1h5.76A10.771,10.771,0,0,1-7.9,2.256a8.715,8.715,0,0,0,4.032-.528c.96-.48,1.248-1.3,1.248-2.808V-14.16h-4.56l3.024-.792a10.076,10.076,0,0,0-.84-1.368h3.36ZM7.248-8.736v-1.1h3.624v1.1Zm3.624-3.72H7.248v-1.1h3.624Zm7.392,0H14.472v-1.1h3.792Zm0,3.72H14.472v-1.1h3.792ZM23.712-4.7h-9.24V-5.9h7.392V-16.368H20.352C21-17.28,21.72-18.336,22.44-19.44l-3.912-1.1a20.687,20.687,0,0,1-2.112,4.176H13.128L15-17.112a20.246,20.246,0,0,0-2.208-3.552l-3.12,1.2a20.424,20.424,0,0,1,1.776,3.1H7.728l1.584-.744a19.057,19.057,0,0,0-2.4-3.36L3.888-19.128a20.5,20.5,0,0,1,1.848,2.76H3.84V-5.9h7.032v1.2h-9.1v3.216h9.1V2.256h3.6V-1.488h9.24Z" transform="translate(672.24 2256.5)" fill="#fff"/>
    </g>
    <path id="パス_33223" data-name="パス 33223" d="M10,0,20,12H0Z" transform="translate(730 3274) rotate(180)" fill="#333"/>
  </g>
</svg>
