<svg xmlns="http://www.w3.org/2000/svg" xmlns:xlink="http://www.w3.org/1999/xlink" width="182" height="56" viewBox="0 0 182 56"><defs><linearGradient id="a" x1="0.056" y1="0.5" x2="0.951" y2="0.5" gradientUnits="objectBoundingBox"><stop offset="0" stop-color="#f76c6c"/><stop offset="1" stop-color="#ffbb61"/></linearGradient></defs><g transform="translate(-160 -3864)"><path d="M28,0A28,28,0,1,1,0,28,28,28,0,0,1,28,0Z" transform="translate(160 3864)" fill="#f76c6c" opacity="0.1"/><path d="M28,0A28,28,0,1,1,0,28,28,28,0,0,1,28,0Z" transform="translate(202 3864)" fill="#f76c6c" opacity="0.1"/><path d="M28,0A28,28,0,1,1,0,28,28,28,0,0,1,28,0Z" transform="translate(244 3864)" fill="#f76c6c" opacity="0.1"/><path d="M28,0A28,28,0,1,1,0,28,28,28,0,0,1,28,0Z" transform="translate(286 3864)" fill="#f76c6c" opacity="0.1"/><path d="M9514.145,5.215c6.432-1.44,10.048-4.256,12.575-7.391a17.961,17.961,0,0,0,3.52-8.257h-14.08c-1.567,0-3.327.1-4.159.161v-5.472c.993.127,3.1.289,4.159.289h14.114a16.823,16.823,0,0,0,2.3-.161,1.579,1.579,0,0,1-.034-.416,3.989,3.989,0,0,1,3.97-3.967,3.986,3.986,0,0,1,3.967,3.967,3.968,3.968,0,0,1-3.871,3.967c-.161.481-.288.962-.385,1.344-.767,3.008-2.079,7.872-4.83,11.584a26.242,26.242,0,0,1-13.024,8.992Zm20.673-21.247a1.706,1.706,0,0,0,1.7,1.7,1.706,1.706,0,0,0,1.7-1.7,1.706,1.706,0,0,0-1.7-1.7A1.706,1.706,0,0,0,9534.817-16.032Zm24.823,19.783a21.933,21.933,0,0,0,11.007-5.47,12.583,12.583,0,0,0,2.977-4.64h-14.559c-.8,0-2.625.031-4.065.159v-4.991c1.472.127,2.977.224,4.065.224h15.229a7.5,7.5,0,0,0,2.69-.382l3.424,2.142a12.172,12.172,0,0,0-.7,1.536,24.69,24.69,0,0,1-4.771,8.737,24.509,24.509,0,0,1-11.423,7.071Zm-84,0a21.94,21.94,0,0,0,11.01-5.47,12.621,12.621,0,0,0,2.977-4.64h-14.561c-.8,0-2.623.031-4.063.159v-4.991c1.472.127,2.974.224,4.063.224H9490.3a7.474,7.474,0,0,0,2.688-.382l3.424,2.142a12.925,12.925,0,0,0-.705,1.536,24.681,24.681,0,0,1-4.768,8.737,24.519,24.519,0,0,1-11.423,7.071ZM9448.4,7.129c0-.546.034-1.089.034-1.6h-14.049c-1.217,0-3.231.1-4.386.224V.216c1.248.1,2.722.192,4.225.192h14.241V-11.753h-13.856c-1.44,0-3.231.065-4.225.127V-17c1.279.127,3.073.224,4.225.224h16.321c1.021,0,2.558-.065,3.039-.1-.031.767-.1,2.176-.1,3.231V2.967c0,1.089.065,2.914.161,4.162Zm125.256-21.264h-12.062c-1.09,0-2.626.031-3.585.127V-19a30.809,30.809,0,0,0,3.585.192h12.127A36.023,36.023,0,0,0,9577.5-19v4.991C9576.6-14.073,9574.872-14.135,9573.655-14.135Zm-84,0h-12.065c-1.086,0-2.623.031-3.582.127V-19a30.745,30.745,0,0,0,3.582.192h12.128A36.088,36.088,0,0,0,9493.5-19v4.991C9492.6-14.073,9490.873-14.135,9489.656-14.135Z" transform="translate(-9254 3897)" fill="url(#a)"/></g></svg>