<svg xmlns="http://www.w3.org/2000/svg" width="27.001" height="27.009" viewBox="0 0 27.001 27.009"><g transform="translate(-1.499 -1.487)"><path d="M14.993,28.5A13.5,13.5,0,0,1,12.025,1.823a13.4,13.4,0,0,1,8.47.837A1.5,1.5,0,1,1,19.273,5.4,10.5,10.5,0,1,0,25.5,15v-1.1a1.5,1.5,0,0,1,3,0V15A13.52,13.52,0,0,1,14.993,28.5Z" transform="translate(0)" fill="#fff"/><path d="M17.1,19.512a1.5,1.5,0,0,1-1.061-.439l-3.6-3.6a1.5,1.5,0,0,1,2.121-2.121L17.1,15.89,28.039,4.94a1.5,1.5,0,0,1,2.122,2.12l-12,12.012A1.5,1.5,0,0,1,17.1,19.512Z" transform="translate(-2.1 -0.602)" fill="#fff"/></g></svg>