<svg xmlns="http://www.w3.org/2000/svg" width="12" height="13.053" viewBox="0 0 12 13.053"><path d="M5.526-2.5H3.632A.633.633,0,0,0,3-1.868V9.921a.633.633,0,0,0,.632.632H5.526a.633.633,0,0,0,.632-.632V-1.868A.633.633,0,0,0,5.526-2.5Zm8.842,8.421H12.474a.633.633,0,0,0-.632.632V9.921a.633.633,0,0,0,.632.632h1.895A.633.633,0,0,0,15,9.921V6.553A.633.633,0,0,0,14.368,5.921ZM9.947,1.711H8.053a.633.633,0,0,0-.632.632V9.921a.633.633,0,0,0,.632.632H9.947a.633.633,0,0,0,.632-.632V2.342A.633.633,0,0,0,9.947,1.711Z" transform="translate(-3 2.5)" fill="#888"/></svg>