<svg xmlns="http://www.w3.org/2000/svg" xmlns:xlink="http://www.w3.org/1999/xlink" width="800" height="4" viewBox="0 0 800 4"><defs><clipPath id="a"><rect width="800" height="4" fill="none"/></clipPath></defs><g clip-path="url(#a)"><g transform="translate(-321 -3622)"><circle cx="2" cy="2" r="2" transform="translate(321 3622)" fill="#121b2b"/></g><g transform="translate(-297 -3622)"><circle cx="2" cy="2" r="2" transform="translate(321 3622)" fill="#121b2b"/></g><g transform="translate(-273 -3622)"><circle cx="2" cy="2" r="2" transform="translate(321 3622)" fill="#121b2b"/></g><g transform="translate(-249 -3622)"><circle cx="2" cy="2" r="2" transform="translate(321 3622)" fill="#121b2b"/></g><g transform="translate(-225 -3622)"><circle cx="2" cy="2" r="2" transform="translate(321 3622)" fill="#121b2b"/></g><g transform="translate(-201 -3622)"><circle cx="2" cy="2" r="2" transform="translate(321 3622)" fill="#121b2b"/></g><g transform="translate(-177 -3622)"><circle cx="2" cy="2" r="2" transform="translate(321 3622)" fill="#121b2b"/></g><g transform="translate(-153 -3622)"><circle cx="2" cy="2" r="2" transform="translate(321 3622)" fill="#121b2b"/></g><g transform="translate(-129 -3622)"><circle cx="2" cy="2" r="2" transform="translate(321 3622)" fill="#121b2b"/></g><g transform="translate(-105 -3622)"><circle cx="2" cy="2" r="2" transform="translate(321 3622)" fill="#121b2b"/></g><g transform="translate(-81 -3622)"><circle cx="2" cy="2" r="2" transform="translate(321 3622)" fill="#121b2b"/></g><g transform="translate(-57 -3622)"><circle cx="2" cy="2" r="2" transform="translate(321 3622)" fill="#121b2b"/></g><g transform="translate(-33 -3622)"><circle cx="2" cy="2" r="2" transform="translate(321 3622)" fill="#121b2b"/></g><g transform="translate(-9 -3622)"><circle cx="2" cy="2" r="2" transform="translate(321 3622)" fill="#121b2b"/></g><g transform="translate(15 -3622)"><circle cx="2" cy="2" r="2" transform="translate(321 3622)" fill="#121b2b"/></g><g transform="translate(39 -3622)"><circle cx="2" cy="2" r="2" transform="translate(321 3622)" fill="#121b2b"/></g><g transform="translate(63 -3622)"><circle cx="2" cy="2" r="2" transform="translate(321 3622)" fill="#121b2b"/></g><g transform="translate(87 -3622)"><circle cx="2" cy="2" r="2" transform="translate(321 3622)" fill="#121b2b"/></g><g transform="translate(111 -3622)"><circle cx="2" cy="2" r="2" transform="translate(321 3622)" fill="#121b2b"/></g><g transform="translate(135 -3622)"><circle cx="2" cy="2" r="2" transform="translate(321 3622)" fill="#121b2b"/></g><g transform="translate(159 -3622)"><circle cx="2" cy="2" r="2" transform="translate(321 3622)" fill="#121b2b"/></g><g transform="translate(183 -3622)"><circle cx="2" cy="2" r="2" transform="translate(321 3622)" fill="#121b2b"/></g><g transform="translate(207 -3622)"><circle cx="2" cy="2" r="2" transform="translate(321 3622)" fill="#121b2b"/></g><g transform="translate(231 -3622)"><circle cx="2" cy="2" r="2" transform="translate(321 3622)" fill="#121b2b"/></g><g transform="translate(255 -3622)"><circle cx="2" cy="2" r="2" transform="translate(321 3622)" fill="#121b2b"/></g><g transform="translate(279 -3622)"><circle cx="2" cy="2" r="2" transform="translate(321 3622)" fill="#121b2b"/></g><g transform="translate(303 -3622)"><circle cx="2" cy="2" r="2" transform="translate(321 3622)" fill="#121b2b"/></g><g transform="translate(327 -3622)"><circle cx="2" cy="2" r="2" transform="translate(321 3622)" fill="#121b2b"/></g><g transform="translate(351 -3622)"><circle cx="2" cy="2" r="2" transform="translate(321 3622)" fill="#121b2b"/></g><g transform="translate(375 -3622)"><circle cx="2" cy="2" r="2" transform="translate(321 3622)" fill="#121b2b"/></g><g transform="translate(399 -3622)"><circle cx="2" cy="2" r="2" transform="translate(321 3622)" fill="#121b2b"/></g><g transform="translate(423 -3622)"><circle cx="2" cy="2" r="2" transform="translate(321 3622)" fill="#121b2b"/></g><g transform="translate(447 -3622)"><circle cx="2" cy="2" r="2" transform="translate(321 3622)" fill="#121b2b"/></g><g transform="translate(471 -3622)"><circle cx="2" cy="2" r="2" transform="translate(321 3622)" fill="#121b2b"/></g></g></svg>