<svg xmlns="http://www.w3.org/2000/svg" width="240" height="28.928" viewBox="0 0 240 28.928"><g transform="translate(-34.043 -23.928)"><path d="M1.19-9.588a14.793,14.793,0,0,1,1.881-7.465A13.434,13.434,0,0,1,8.21-22.191a14.58,14.58,0,0,1,7.3-1.841A14.365,14.365,0,0,1,23.806-21.6a12.693,12.693,0,0,1,4.976,6.716H22.269a6.751,6.751,0,0,0-2.731-3.034,8.014,8.014,0,0,0-4.066-1.011,8.365,8.365,0,0,0-4.39,1.153,7.869,7.869,0,0,0-2.994,3.257A10.737,10.737,0,0,0,7.016-9.588,10.768,10.768,0,0,0,8.088-4.672,7.842,7.842,0,0,0,11.082-1.4a8.365,8.365,0,0,0,4.39,1.153,7.89,7.89,0,0,0,4.066-1.032,6.874,6.874,0,0,0,2.731-3.055h6.514a12.624,12.624,0,0,1-4.956,6.736,14.427,14.427,0,0,1-8.314,2.407,14.58,14.58,0,0,1-7.3-1.841A13.474,13.474,0,0,1,3.071-2.143,14.682,14.682,0,0,1,1.19-9.588ZM49.174,4.856a14.632,14.632,0,0,1-7.283-1.861,13.9,13.9,0,0,1-5.26-5.158A14.43,14.43,0,0,1,34.69-9.628a14.353,14.353,0,0,1,1.942-7.424,13.9,13.9,0,0,1,5.26-5.158,14.632,14.632,0,0,1,7.283-1.861,14.6,14.6,0,0,1,7.3,1.861A13.789,13.789,0,0,1,61.7-17.052a14.47,14.47,0,0,1,1.922,7.424A14.548,14.548,0,0,1,61.7-2.164a13.747,13.747,0,0,1-5.239,5.158A14.632,14.632,0,0,1,49.174,4.856Zm0-5.057a8.628,8.628,0,0,0,4.491-1.153,7.9,7.9,0,0,0,3.034-3.3,10.82,10.82,0,0,0,1.092-4.976A10.7,10.7,0,0,0,56.7-14.584a7.8,7.8,0,0,0-3.034-3.257,8.749,8.749,0,0,0-4.491-1.133,8.859,8.859,0,0,0-4.511,1.133,7.758,7.758,0,0,0-3.055,3.257,10.7,10.7,0,0,0-1.092,4.956,10.82,10.82,0,0,0,1.092,4.976,7.863,7.863,0,0,0,3.055,3.3A8.737,8.737,0,0,0,49.174-.2ZM84.818,4.573l-6.231-11h-2.67v11H70.253v-28.24h10.6a12.378,12.378,0,0,1,5.583,1.153A8.055,8.055,0,0,1,89.9-19.4a8.5,8.5,0,0,1,1.153,4.39A8.408,8.408,0,0,1,89.43-9.972a8.314,8.314,0,0,1-4.815,3.1l6.757,11.45Zm-8.9-15.253h4.734a4.73,4.73,0,0,0,3.439-1.113,4.14,4.14,0,0,0,1.133-3.1A3.95,3.95,0,0,0,84.09-17.9a4.844,4.844,0,0,0-3.439-1.072H75.917ZM115.93-.808H104.683l-1.861,5.381H96.874l10.155-28.281h6.595L123.779,4.573h-5.988ZM114.393-5.34l-4.086-11.814L106.22-5.34Zm36.21-9.589a8.794,8.794,0,0,1-1.072,4.248,7.875,7.875,0,0,1-3.358,3.2,12.215,12.215,0,0,1-5.765,1.214h-4.734V4.573H130.01v-28.24h10.4a12.565,12.565,0,0,1,5.583,1.133,7.892,7.892,0,0,1,3.459,3.115A8.766,8.766,0,0,1,150.6-14.928Zm-10.438,4.086a4.909,4.909,0,0,0,3.479-1.072,3.95,3.95,0,0,0,1.133-3.014q0-4.127-4.612-4.127h-4.491v8.213ZM162.62-23.667V-6.189a5.992,5.992,0,0,0,1.5,4.39,5.645,5.645,0,0,0,4.208,1.517A5.7,5.7,0,0,0,172.572-1.8a5.992,5.992,0,0,0,1.5-4.39V-23.667h5.7V-6.23a11.257,11.257,0,0,1-1.558,6.089A9.879,9.879,0,0,1,174.049,3.6a13.229,13.229,0,0,1-5.806,1.254A12.875,12.875,0,0,1,162.518,3.6a9.549,9.549,0,0,1-4.066-3.742,11.612,11.612,0,0,1-1.5-6.089V-23.667Zm39.609,28.24L196-6.432h-2.67v11h-5.664v-28.24h10.6a12.378,12.378,0,0,1,5.583,1.153,8.055,8.055,0,0,1,3.459,3.115,8.5,8.5,0,0,1,1.153,4.39,8.409,8.409,0,0,1-1.618,5.037,8.314,8.314,0,0,1-4.815,3.1l6.757,11.45Zm-8.9-15.253h4.734a4.73,4.73,0,0,0,3.439-1.113,4.141,4.141,0,0,0,1.133-3.1A3.95,3.95,0,0,0,201.5-17.9a4.844,4.844,0,0,0-3.439-1.072h-4.734ZM233.341-.808H222.094l-1.861,5.381h-5.947L224.44-23.708h6.595L241.19,4.573H235.2ZM231.8-5.34l-4.086-11.814L223.631-5.34Z" transform="translate(32.853 48)" fill="#333"/></g></svg>