<svg xmlns="http://www.w3.org/2000/svg" xmlns:xlink="http://www.w3.org/1999/xlink" width="48" height="48" viewBox="0 0 48 48"><defs><linearGradient id="a" x1="0.783" y1="0.085" x2="0.212" y2="0.886" gradientUnits="objectBoundingBox"><stop offset="0" stop-color="#4c51a2"/><stop offset="0.3" stop-color="#c42b85"/><stop offset="0.579" stop-color="#d73b62"/><stop offset="0.786" stop-color="#ec6538"/><stop offset="1" stop-color="#f5d073"/></linearGradient></defs><g transform="translate(-117 -6936)"><circle cx="24" cy="24" r="24" transform="translate(117 6936)" fill="url(#a)"/><path d="M11,7.6a5.639,5.639,0,1,0,5.639,5.639A5.63,5.63,0,0,0,11,7.6ZM11,16.9a3.666,3.666,0,1,1,3.666-3.666A3.673,3.673,0,0,1,11,16.9Zm7.185-9.536A1.315,1.315,0,1,1,16.867,6.05,1.312,1.312,0,0,1,18.182,7.365ZM21.917,8.7a6.509,6.509,0,0,0-1.777-4.609,6.552,6.552,0,0,0-4.609-1.777c-1.816-.1-7.259-.1-9.075,0A6.543,6.543,0,0,0,1.849,4.087,6.531,6.531,0,0,0,.072,8.7c-.1,1.816-.1,7.259,0,9.075a6.509,6.509,0,0,0,1.777,4.609,6.56,6.56,0,0,0,4.609,1.777c1.816.1,7.259.1,9.075,0a6.509,6.509,0,0,0,4.609-1.777,6.552,6.552,0,0,0,1.777-4.609c.1-1.816.1-7.254,0-9.07ZM19.571,19.719a3.712,3.712,0,0,1-2.091,2.091c-1.448.574-4.883.442-6.483.442s-5.04.128-6.483-.442a3.712,3.712,0,0,1-2.091-2.091c-.574-1.448-.442-4.883-.442-6.483s-.128-5.04.442-6.483A3.712,3.712,0,0,1,4.514,4.661C5.962,4.087,9.4,4.219,11,4.219s5.04-.128,6.483.442a3.712,3.712,0,0,1,2.091,2.091c.574,1.448.442,4.883.442,6.483S20.146,18.276,19.571,19.719Z" transform="translate(130.005 6946.765)" fill="#fff"/></g></svg>