<svg xmlns="http://www.w3.org/2000/svg" width="48" height="48" viewBox="0 0 48 48"><g transform="translate(-290 -6936)"><circle cx="24" cy="24" r="24" transform="translate(290 6936)" fill="#06c755"/><path d="M19.365,10.149a.631.631,0,0,1,0,1.261H17.61v1.125h1.755a.63.63,0,1,1,0,1.259H16.979a.631.631,0,0,1-.627-.629V8.394a.632.632,0,0,1,.63-.63h2.386a.63.63,0,0,1,0,1.26H17.61v1.125ZM15.51,13.165a.629.629,0,0,1-.432.6.646.646,0,0,1-.2.031.618.618,0,0,1-.51-.25l-2.443-3.317v2.94a.629.629,0,1,1-1.257,0V8.394A.627.627,0,0,1,11.1,7.8a.582.582,0,0,1,.194-.033.647.647,0,0,1,.5.254l2.462,3.33V8.394a.63.63,0,0,1,1.26,0v4.771Zm-5.741,0a.629.629,0,1,1-1.258,0V8.394a.629.629,0,1,1,1.258,0ZM7.3,13.794H4.917a.634.634,0,0,1-.63-.629V8.394a.63.63,0,0,1,1.26,0v4.141H7.3a.63.63,0,0,1,0,1.259M24,10.6C24,5.229,18.615.858,12,.858S0,5.229,0,10.6c0,4.811,4.27,8.842,10.035,9.608.391.082.923.258,1.058.59a2.443,2.443,0,0,1,.038,1.08l-.164,1.02c-.045.3-.24,1.186,1.049.645a38.684,38.684,0,0,0,9.436-6.975A8.623,8.623,0,0,0,24,10.6" transform="translate(302 6947.714)" fill="#fff"/></g></svg>