<svg xmlns="http://www.w3.org/2000/svg" width="40" height="40" viewBox="0 0 40 40"><g transform="translate(-338 -6936)"><circle cx="20" cy="20" r="20" transform="translate(338 6936)" fill="#212121"/><path d="M12.873.019C14.129,0,15.376.01,16.623,0A5.975,5.975,0,0,0,18.3,4a6.764,6.764,0,0,0,4.067,1.717V9.582a10.267,10.267,0,0,1-4.029-.93,11.851,11.851,0,0,1-1.554-.892c-.01,2.8.01,5.6-.019,8.393a7.326,7.326,0,0,1-1.295,3.779A7.146,7.146,0,0,1,9.8,23.011a6.994,6.994,0,0,1-3.913-.988,7.233,7.233,0,0,1-3.5-5.477c-.019-.48-.029-.959-.01-1.429a7.221,7.221,0,0,1,8.374-6.407c.019,1.42-.038,2.839-.038,4.259A3.291,3.291,0,0,0,6.513,15a3.805,3.805,0,0,0-.134,1.544A3.265,3.265,0,0,0,9.736,19.3a3.223,3.223,0,0,0,2.657-1.544,2.213,2.213,0,0,0,.393-1.017c.1-1.717.058-3.424.067-5.141.01-3.866-.01-7.721.019-11.577Z" transform="translate(345.631 6944.49)" fill="#fff"/></g></svg>