<svg id="グループ_750" data-name="グループ 750" xmlns="http://www.w3.org/2000/svg" width="40" height="40" viewBox="0 0 40 40">
  <circle id="楕円形_27" data-name="楕円形 27" cx="20" cy="20" r="20" fill="#24305e"/>
  <path id="Icon_ionic-ios-share-alt" data-name="Icon ionic-ios-share-alt" d="M26.307,14.448,18.225,6.887A.413.413,0,0,0,17.9,6.75c-.252.011-.573.189-.573.458V11a.245.245,0,0,1-.206.235C9.088,12.466,5.7,18.481,4.506,24.725c-.046.246.286.475.441.281,2.933-3.695,6.5-6.106,12.143-6.152a.283.283,0,0,1,.241.275v3.723a.492.492,0,0,0,.831.3l8.14-7.693a.632.632,0,0,0,.2-.481A.767.767,0,0,0,26.307,14.448Z" transform="translate(4.498 4.086)" fill="#fff"/>
</svg>
