<svg xmlns="http://www.w3.org/2000/svg" xmlns:xlink="http://www.w3.org/1999/xlink" width="32" height="32" viewBox="0 0 32 32"><defs><linearGradient id="a" y1="0.5" x2="0.975" y2="0.5" gradientUnits="objectBoundingBox"><stop offset="0" stop-color="#f76c6c"/><stop offset="1" stop-color="#ffbb61"/></linearGradient></defs><g transform="translate(-1239 -10)"><rect width="32" height="32" rx="16" transform="translate(1239 10)" fill="url(#a)"/><path d="M15.6,5.2H14V3.6a.4.4,0,0,0-.4-.4h-.8a.4.4,0,0,0-.4.4V5.2H10.8a.4.4,0,0,0-.4.4v.8a.4.4,0,0,0,.4.4h1.6V8.4a.4.4,0,0,0,.4.4h.8a.4.4,0,0,0,.4-.4V6.8h1.6a.4.4,0,0,0,.4-.4V5.6A.4.4,0,0,0,15.6,5.2ZM5.6,6.4A3.2,3.2,0,1,0,2.4,3.2,3.2,3.2,0,0,0,5.6,6.4Zm2.24.8H7.422a4.352,4.352,0,0,1-3.645,0H3.36A3.361,3.361,0,0,0,0,10.56V11.6a1.2,1.2,0,0,0,1.2,1.2H10a1.2,1.2,0,0,0,1.2-1.2V10.56A3.361,3.361,0,0,0,7.84,7.2Z" transform="translate(1247 20)" fill="#fff"/></g></svg>