<svg xmlns="http://www.w3.org/2000/svg" xmlns:xlink="http://www.w3.org/1999/xlink" width="96" height="96" viewBox="0 0 96 96"><defs><clipPath id="a"><rect width="96" height="96" fill="none"/></clipPath></defs><g transform="translate(0 0)" clip-path="url(#a)"><path d="M96,48A48,48,0,1,1,48,0,48,48,0,0,1,96,48" transform="translate(0 0)" fill="#ffa8a8"/><path d="M48.288,12.632c-.056-.059-.112-.112-.174-.166A19.568,19.568,0,0,0,34.558,7.039a19.969,19.969,0,0,0-2.97.225l0,0c-.041.005-.082.018-.122.026q-.754.119-1.493.291l-.018,0c-.5.12-.982.263-1.465.421a1.673,1.673,0,0,0-.161.048c-.459.156-.911.324-1.355.51-.066.028-.133.059-.2.087q-.651.283-1.278.607l-.191.1c-.421.227-.837.462-1.238.72-.043.028-.084.056-.128.082-.418.27-.827.551-1.22.85l-.01.005c-.39.3-.768.61-1.136.934l-.14.122c-.344.311-.676.635-1,.967-.056.064-.115.12-.171.181-.314.332-.618.676-.906,1.028-.054.066-.107.135-.158.2-.291.362-.566.732-.832,1.113l-.107.163c-.268.4-.526.8-.763,1.22l-.023.041c-.24.421-.462.855-.671,1.3-.028.059-.059.12-.087.181-.2.424-.373.857-.541,1.3-.031.079-.059.158-.089.242-.161.439-.3.883-.431,1.337-.023.079-.043.161-.064.242-.125.464-.237.934-.327,1.411-.013.059-.02.12-.033.181-.089.505-.166,1.013-.219,1.531H8.663v1.549h.005l7.568,7.571a19.654,19.654,0,0,0,4.279,6.617c.092.1.191.2.291.293L31.075,51a1.317,1.317,0,0,0-.235.75V69.6a3.717,3.717,0,0,0,.837,2.348l.013.013.538.531L43.9,84.162a48.037,48.037,0,0,0,37.809-38.11Z" transform="translate(13.442 10.922)" fill="#f76c6c"/><path d="M34.559,33.541a2.121,2.121,0,0,1-2.126-2.126V12.235a.584.584,0,0,0-.168-.408.6.6,0,0,0-.822,0,.584.584,0,0,0-.168.408V26.889a2.11,2.11,0,0,1-.623,1.5,2.169,2.169,0,0,1-3,0,2.1,2.1,0,0,1-.625-1.5V18.218a.584.584,0,0,0-.168-.408.594.594,0,0,0-.819,0,.586.586,0,0,0-.163.408v3.815a2.1,2.1,0,0,1-.625,1.5,2.169,2.169,0,0,1-3,0,2.112,2.112,0,0,1-.625-1.5.58.58,0,0,0-.168-.408.569.569,0,0,0-.408-.168H8.664V19.9H21.042a2.111,2.111,0,0,1,1.5.623,2.139,2.139,0,0,1,.62,1.506.571.571,0,0,0,.171.408.594.594,0,0,0,.817,0,.559.559,0,0,0,.168-.406V18.218a2.12,2.12,0,0,1,.62-1.5,2.178,2.178,0,0,1,3.008,0,2.115,2.115,0,0,1,.62,1.5v8.671a.587.587,0,0,0,.171.408.594.594,0,0,0,.817,0,.563.563,0,0,0,.168-.408V12.235a2.091,2.091,0,0,1,.625-1.5,2.169,2.169,0,0,1,3,0,2.11,2.11,0,0,1,.623,1.5V31.416a.567.567,0,0,0,.171.408.592.592,0,0,0,.819,0,.58.58,0,0,0,.168-.408V20.346a2.107,2.107,0,0,1,.62-1.5,2.177,2.177,0,0,1,3.006,0,2.1,2.1,0,0,1,.628,1.5v3.093a.575.575,0,0,0,.163.408.594.594,0,0,0,.819,0,.58.58,0,0,0,.168-.408v-6.56a2.107,2.107,0,0,1,.623-1.5,2.175,2.175,0,0,1,3.006,0,2.112,2.112,0,0,1,.625,1.5v8.416a.561.561,0,0,0,.166.406.589.589,0,0,0,.817,0,.574.574,0,0,0,.168-.406V22.031A2.126,2.126,0,0,1,48.072,19.9H60.448v1.551H48.072a.568.568,0,0,0-.408.166.589.589,0,0,0-.168.408v3.264a2.11,2.11,0,0,1-.623,1.5,2.176,2.176,0,0,1-3.008,0,2.11,2.11,0,0,1-.623-1.5V16.879a.58.58,0,0,0-.168-.408.59.59,0,0,0-.814,0,.554.554,0,0,0-.174.406v6.56a2.117,2.117,0,0,1-.623,1.506,2.18,2.18,0,0,1-3.006,0,2.13,2.13,0,0,1-.62-1.506V20.346a.589.589,0,0,0-.168-.408.6.6,0,0,0-.822,0,.576.576,0,0,0-.166.406V31.416a2.126,2.126,0,0,1-2.123,2.126" transform="translate(13.444 15.719)" fill="#fff"/><rect width="3.777" height="4.509" transform="translate(46.114 56.837)" fill="#24305e"/><path d="M30.76,7.039A19.652,19.652,0,1,0,50.413,26.69,19.648,19.648,0,0,0,30.76,7.039m0,35.374A15.722,15.722,0,1,1,46.486,26.69,15.724,15.724,0,0,1,30.757,42.413" transform="translate(17.238 10.922)" fill="#3e4972"/><path d="M24.787,24.741V42.128a3.717,3.717,0,0,1-7.433,0V24.741Z" transform="translate(26.928 38.391)" fill="#24305e"/><path d="M24.784,25.825H17.356v-.457a1.324,1.324,0,0,1,1.322-1.327h4.784a1.32,1.32,0,0,1,1.322,1.327Z" transform="translate(26.931 37.304)" fill="#fff"/></g></svg>