<svg xmlns="http://www.w3.org/2000/svg" xmlns:xlink="http://www.w3.org/1999/xlink" width="48" height="48" viewBox="0 0 48 48"><defs><clipPath id="a"><path d="M14.647,36.209a24,24,0,1,0,24-24,24,24,0,0,0-24,24" transform="translate(-14.647 -12.209)" fill="none"/></clipPath></defs><g transform="translate(-887.376 -2151.154)"><g transform="translate(887.376 2151.154)"><g transform="translate(0 0)"><path d="M62.647,36.209a24,24,0,1,1-24-24,24,24,0,0,1,24,24" transform="translate(-14.647 -12.209)" fill="#f76c6c"/></g></g><g transform="translate(887.376 2151.154)" clip-path="url(#a)"><path d="M33.046,14.928H18.366l-1,21.354h16.7Z" transform="translate(-1.709 0.743)" fill="#24305e"/><g transform="translate(5.055 6.808)"><path d="M17.876,30.439l-.035.115-1,3.176-1.314,4.161H53.415l-1.32-4.161-1.447-4.565a5.235,5.235,0,0,0-1.17-2.029A5.358,5.358,0,0,0,47.547,25.8l-7.585-3a2.261,2.261,0,0,1-.98-.784,2.187,2.187,0,0,1-.357-1.2v-3.7H30.319v3.7a2.147,2.147,0,0,1-.363,1.2,2.213,2.213,0,0,1-.974.784l-7.591,3a5.458,5.458,0,0,0-1.931,1.331,5.336,5.336,0,0,0-1.182,2.029Z" transform="translate(-15.524 4.372)" fill="#fff"/><path d="M25.231,13.86c-4.536,0-7.769,3.3-7.769,10.311,0,5.931,3.481,10.939,7.769,10.939s7.781-5.009,7.781-10.939c0-7.009-3.245-10.311-7.781-10.311" transform="translate(-6.293 -11.152)" fill="#fff"/><path d="M31.862,13.925H17.9s-.991,6.968.282,8.392c.052-.582.571-.744,1.487-.744a8.006,8.006,0,0,0,1.343-3.256,10.241,10.241,0,0,1,.219,3.32c1,.075,2.225.173,3.648.179.369,0,.72-.012,1.049-.012a1.632,1.632,0,0,0,.605-.888,1.7,1.7,0,0,1,.305.836c2.98-.161,4.64-.507,4.738.565,1.274-1.424.282-8.392.282-8.392" transform="translate(-5.943 -10.843)" fill="#24305e"/><path d="M22.122,40.565a2.174,2.174,0,0,0,.974-.784,2.147,2.147,0,0,0,.363-1.2V37.008H21.124a48.123,48.123,0,0,1-.473-6.432c0-6.086.415-8.369,2.1-10.421a9.408,9.408,0,0,1,4.853-3.2,9.411,9.411,0,0,1,4.859,3.2c1.683,2.052,2.1,4.334,2.1,10.421a47.183,47.183,0,0,1-.473,6.432H31.764v1.573a2.187,2.187,0,0,0,.357,1.2,2.22,2.22,0,0,0,.98.784l4.346,1.729a3.679,3.679,0,0,0,.807-2.282v-3c0-5.043-.156-11.62-1.216-16.421-.928-4.115-4.455-8.092-9.429-7.02-4.974-1.072-8.484,2.9-9.424,7.02-1.072,4.8-1.222,11.378-1.222,16.421v3a3.624,3.624,0,0,0,.818,2.282Z" transform="translate(-8.67 -13.39)" fill="#24305e"/><path d="M16.664,32.151H41.4a23.881,23.881,0,0,1-1.867-9.695,27.054,27.054,0,0,1,.2-3.326h-.012l-2.029-.807-.876,3.51a7.934,7.934,0,0,1-2.836,4.386,7.7,7.7,0,0,1-4.945,1.637,7.685,7.685,0,0,1-4.939-1.637,8,8,0,0,1-2.836-4.386l-.87-3.51-2.035.807h-.012a29.577,29.577,0,0,1,.19,3.326,23.786,23.786,0,0,1-1.867,9.695" transform="translate(-10.094 10.113)" fill="#24305e"/></g></g></g></svg>