<svg xmlns="http://www.w3.org/2000/svg" xmlns:xlink="http://www.w3.org/1999/xlink" width="96" height="96" viewBox="0 0 96 96"><defs><clipPath id="a"><rect width="96" height="96" fill="none"/></clipPath></defs><g transform="translate(0 0)" clip-path="url(#a)"><path d="M96,48A48,48,0,1,1,48,0,48,48,0,0,1,96,48" transform="translate(0 0)" fill="#ffa8a8"/><path d="M76.4,53.715,30.812,8.13,29.09,9.266,26.5,6.673,25.39,8.9l1.016,1.016c-.153-.013-.309-.023-.462-.023a5.606,5.606,0,0,0-1.4.186l-2.5-2.5.145,2.478.737.737a5.609,5.609,0,0,0-1.641,1.638l-.735-.735-2.478-.148,2.5,2.5a5.525,5.525,0,0,0-.184,1.4c0,.158.018.314.031.47l-1.028-1.026L17.171,16l2.883,2.886-1.432,1.426,4.33,4.328V37.613a15.061,15.061,0,0,0-9.112-3.067,3,3,0,0,0-2.33,4.882l.018.023.408.4L22.453,50.367a1.784,1.784,0,0,0-.342,1.033V66.859a1.747,1.747,0,0,0,.513,1.238L39.445,84.918A48.057,48.057,0,0,0,76.4,53.715" transform="translate(16.837 10.355)" fill="#f76c6c"/><path d="M25.7,13.493a5.555,5.555,0,1,1-5.56-5.558,5.558,5.558,0,0,1,5.56,5.558" transform="translate(22.639 12.313)" fill="#24305e"/><rect width="1.11" height="2.22" transform="translate(42.224 17.03)" fill="#fff"/><path d="M15.965,9.5,14.858,7.582l.962-.556,1.107,1.921Z" transform="translate(23.056 10.903)" fill="#fff"/><rect width="1.111" height="2.221" transform="translate(34.906 21.899) rotate(-59.961)" fill="#fff"/><rect width="2.22" height="1.11" transform="translate(34.007 25.25)" fill="#fff"/><rect width="2.219" height="1.111" transform="translate(34.907 29.711) rotate(-29.925)" fill="#fff"/><rect width="1.11" height="2.22" transform="translate(48.182 29.566) rotate(-60.076)" fill="#fff"/><rect width="2.22" height="1.11" transform="translate(49.338 25.25)" fill="#fff"/><path d="M19.435,10.278l-.554-.962L20.8,8.206l.556.959Z" transform="translate(29.3 12.733)" fill="#fff"/><rect width="2.217" height="1.11" transform="translate(45.581 19.85) rotate(-59.962)" fill="#fff"/><path d="M38.692,21.456a2.991,2.991,0,0,0-4.238,0,2.972,2.972,0,0,0-.88,2.121,3,3,0,0,0-6,0v0a2.994,2.994,0,1,0-5.989,0V11.936a3,3,0,0,0-6,0V46.39H39.567V23.577a2.988,2.988,0,0,0-.875-2.121" transform="translate(24.194 13.873)" fill="#fff"/><path d="M25.945,35.694a3,3,0,0,1-3-3,9.113,9.113,0,0,0-9.1-9.1,3,3,0,0,1,0-6,15.119,15.119,0,0,1,15.1,15.1,3,3,0,0,1-3,3" transform="translate(16.835 27.306)" fill="#fff"/><path d="M39.162,42.48a1.756,1.756,0,0,0,1.756-1.753V25.269a1.756,1.756,0,0,0-1.756-1.756H17.015a1.76,1.76,0,0,0-1.753,1.756V40.727a1.76,1.76,0,0,0,1.753,1.753Z" transform="translate(23.683 36.486)" fill="#24305e"/><path d="M24.39,24.856A1.393,1.393,0,1,1,23,26.249a1.393,1.393,0,0,1,1.393-1.393" transform="translate(35.686 38.57)" fill="#fff"/></g></svg>