<svg xmlns="http://www.w3.org/2000/svg" xmlns:xlink="http://www.w3.org/1999/xlink" width="96" height="96.002" viewBox="0 0 96 96.002"><defs><clipPath id="a"><rect width="96" height="96.003" fill="none"/></clipPath><clipPath id="b"><path d="M14.647,22.835A10.624,10.624,0,1,0,25.273,12.209,10.625,10.625,0,0,0,14.647,22.835" transform="translate(-14.647 -12.209)" fill="none"/></clipPath></defs><g transform="translate(0 0)"><g clip-path="url(#a)"><path d="M96,48A48,48,0,1,1,48,0,48,48,0,0,1,96,48" transform="translate(0 0)" fill="#ffa8a8"/><path d="M78.055,38.713,48.7,9.363l-.574-.574a1.828,1.828,0,0,0-1-.293H13.316a1.864,1.864,0,0,0-1.86,1.86v48.93a1.867,1.867,0,0,0,.429,1.181l.248.248,21.94,21.938A47.993,47.993,0,0,0,78.055,38.713" transform="translate(17.777 13.182)" fill="#f76c6c"/><path d="M.728,0H36.8a.729.729,0,0,1,.729.729V51.917a.728.728,0,0,1-.728.728H.728A.728.728,0,0,1,0,51.917V.728A.728.728,0,0,1,.728,0Z" transform="translate(29.232 21.677)" fill="#24305e"/><rect width="31.588" height="40.254" transform="translate(32.206 26.822)" fill="#fff"/><path d="M.3,0H5.879a.3.3,0,0,1,.3.3V1.557a.3.3,0,0,1-.3.3H.3a.3.3,0,0,1-.3-.3V.3A.3.3,0,0,1,.3,0Z" transform="translate(44.91 69.771)" fill="#fff"/><path d="M.141,0H7.573a.141.141,0,0,1,.141.141V.728a.14.14,0,0,1-.14.14H.14A.14.14,0,0,1,0,.728V.141A.141.141,0,0,1,.141,0Z" transform="translate(44.144 23.816)" fill="#fff"/><path d="M0,0H12.356V2.307H0Z" transform="translate(41.821 56.955)" fill="#24305e"/><rect width="12.356" height="2.304" transform="translate(41.821 60.439)" fill="#f76c6c"/><path d="M35.9,22.835A10.626,10.626,0,1,1,25.273,12.209,10.626,10.626,0,0,1,35.9,22.835" transform="translate(22.729 18.945)" fill="#cdd3da"/></g></g><g transform="translate(37.376 31.154)"><g clip-path="url(#b)"><path d="M24.306,14.928h-6.5l-.444,9.454h7.392Z" transform="translate(-10.432 -7.99)" fill="#24305e"/><path d="M16.565,23.016l-.015.051-.444,1.406-.582,1.842H32.3l-.584-1.842-.64-2.021a2.318,2.318,0,0,0-.518-.9,2.372,2.372,0,0,0-.855-.589l-3.358-1.329a1,1,0,0,1-.434-.347.968.968,0,0,1-.158-.531V17.119H22.074v1.638a.951.951,0,0,1-.161.531.98.98,0,0,1-.431.347l-3.361,1.329a2.417,2.417,0,0,0-.855.589,2.362,2.362,0,0,0-.523.9Z" transform="translate(-13.286 -4.59)" fill="#fff"/><path d="M20.9,13.86c-2.008,0-3.44,1.462-3.44,4.565,0,2.626,1.541,4.843,3.44,4.843s3.445-2.217,3.445-4.843c0-3.1-1.437-4.565-3.445-4.565" transform="translate(-10.279 -9.647)" fill="#fff"/><path d="M23.878,13.925H17.7s-.439,3.085.125,3.715c.023-.258.253-.329.658-.329a3.545,3.545,0,0,0,.595-1.442,4.534,4.534,0,0,1,.1,1.47c.444.033.985.077,1.615.079.163,0,.319-.005.464-.005a.723.723,0,0,0,.268-.393.753.753,0,0,1,.135.37c1.319-.071,2.054-.225,2.1.25.564-.63.125-3.715.125-3.715" transform="translate(-10.165 -9.546)" fill="#24305e"/><path d="M19.247,25.421a.963.963,0,0,0,.431-.347.951.951,0,0,0,.161-.531v-.7H18.805A21.306,21.306,0,0,1,18.6,21c0-2.695.184-3.705.931-4.614a4.165,4.165,0,0,1,2.149-1.416,4.167,4.167,0,0,1,2.151,1.416c.745.908.929,1.919.929,4.614a20.889,20.889,0,0,1-.209,2.848H23.516v.7a.968.968,0,0,0,.158.531.983.983,0,0,0,.434.347l1.924.766a1.629,1.629,0,0,0,.357-1.01V23.847a37.289,37.289,0,0,0-.538-7.27c-.411-1.822-1.973-3.583-4.175-3.108-2.2-.475-3.756,1.286-4.172,3.108a36.9,36.9,0,0,0-.541,7.27v1.329a1.6,1.6,0,0,0,.362,1.01Z" transform="translate(-11.054 -10.376)" fill="#24305e"/><path d="M16.664,24.446h10.95a10.573,10.573,0,0,1-.827-4.292,11.978,11.978,0,0,1,.089-1.472h-.005l-.9-.357-.388,1.554A3.513,3.513,0,0,1,24.33,21.82a3.666,3.666,0,0,1-4.376,0A3.54,3.54,0,0,1,18.7,19.878l-.385-1.554-.9.357h-.005a13.1,13.1,0,0,1,.084,1.472,10.531,10.531,0,0,1-.827,4.292" transform="translate(-11.518 -2.72)" fill="#24305e"/></g></g></svg>