<svg xmlns="http://www.w3.org/2000/svg" xmlns:xlink="http://www.w3.org/1999/xlink" width="96" height="96" viewBox="0 0 96 96"><defs><clipPath id="a"><rect width="96" height="96" fill="none"/></clipPath></defs><g transform="translate(0 0)" clip-path="url(#a)"><path d="M96,48A48,48,0,1,1,48,0,48,48,0,0,1,96,48" transform="translate(0 0)" fill="#ffa8a8"/><path d="M82.8,36.275,55.047,8.514,55,8.466a1.873,1.873,0,0,0-1.289-.521H15.928A1.865,1.865,0,0,0,14.068,9.8v15.04L8.495,28.867V60.925L31.086,83.516c1.235.1,2.475.156,3.731.156A47.991,47.991,0,0,0,82.8,36.275" transform="translate(13.182 12.329)" fill="#f76c6c"/><path d="M34.82,8.691,8.5,27.71V59.765H61.139V27.71Z" transform="translate(13.183 13.487)" fill="#24305e"/><path d="M.728,0h40.04A.729.729,0,0,1,41.5.729V20.467a.728.728,0,0,1-.728.728H.728A.728.728,0,0,1,0,20.467V.728A.728.728,0,0,1,.728,0Z" transform="translate(27.251 40.714)" fill="#70c9e9"/><path d="M.729,0H40.768A.729.729,0,0,1,41.5.729v19.74a.729.729,0,0,1-.729.729H.728A.728.728,0,0,1,0,20.47V.729A.729.729,0,0,1,.729,0Z" transform="translate(27.251 38.855)" fill="#8fdef6"/><path d="M.729,0H40.768A.729.729,0,0,1,41.5.729V20.468a.727.727,0,0,1-.727.727H.728A.728.728,0,0,1,0,20.467V.729A.729.729,0,0,1,.729,0Z" transform="translate(27.251 36.998)" fill="#cdd3da"/><path d="M.729,0H40.768A.729.729,0,0,1,41.5.729V20.467a.728.728,0,0,1-.728.728H.728A.728.728,0,0,1,0,20.467V.729A.729.729,0,0,1,.729,0Z" transform="translate(27.251 35.139)" fill="#fff"/><path d="M.727,0H40.768A.729.729,0,0,1,41.5.729V20.463a.727.727,0,0,1-.727.727H.728A.728.728,0,0,1,0,20.462V.727A.727.727,0,0,1,.727,0Z" transform="translate(27.251 33.283)" fill="#cdd3da"/><path d="M.729,0H40.768A.729.729,0,0,1,41.5.729V20.467a.728.728,0,0,1-.728.728H.728A.728.728,0,0,1,0,20.467V.729A.729.729,0,0,1,.729,0Z" transform="translate(27.251 31.424)" fill="#fff"/><path d="M.727,0H40.768A.729.729,0,0,1,41.5.729V20.464a.728.728,0,0,1-.728.728H.728A.728.728,0,0,1,0,20.464V.727A.727.727,0,0,1,.727,0Z" transform="translate(27.251 29.565)" fill="#cdd3da"/><path d="M.729,0H40.768A.729.729,0,0,1,41.5.729V20.468a.727.727,0,0,1-.727.727H.728A.728.728,0,0,1,0,20.467V.729A.729.729,0,0,1,.729,0Z" transform="translate(27.251 27.708)" fill="#fff"/><path d="M.729,0H40.768A.729.729,0,0,1,41.5.729V20.467a.728.728,0,0,1-.728.728H.728A.728.728,0,0,1,0,20.467V.729A.729.729,0,0,1,.729,0Z" transform="translate(27.251 25.849)" fill="#cdd3da"/><path d="M.728,0h40.04A.729.729,0,0,1,41.5.729V20.465a.727.727,0,0,1-.727.727H.727A.727.727,0,0,1,0,20.465V.728A.728.728,0,0,1,.728,0Z" transform="translate(27.251 23.993)" fill="#fff"/><path d="M.729,0H40.768A.729.729,0,0,1,41.5.729V20.467a.728.728,0,0,1-.728.728H.728A.728.728,0,0,1,0,20.467V.729A.729.729,0,0,1,.729,0Z" transform="translate(27.251 22.134)" fill="#cdd3da"/><path d="M.727,0H40.768A.729.729,0,0,1,41.5.729V20.464a.728.728,0,0,1-.728.728H.728A.728.728,0,0,1,0,20.464V.727A.727.727,0,0,1,.727,0Z" transform="translate(27.251 20.275)" fill="#fff"/><path d="M46.984,26.177H13.632v-.834a1.4,1.4,0,0,0-1.4-1.4H11.4V10.9h.834a1.4,1.4,0,0,0,1.4-1.4V8.667H46.984V9.5a1.4,1.4,0,0,0,1.4,1.4h.834v13.05H48.38a1.4,1.4,0,0,0-1.4,1.4Zm-31.8-1.669H45.427a3.088,3.088,0,0,1,2.115-2.118V12.454a3.075,3.075,0,0,1-2.115-2.115H15.189a3.075,3.075,0,0,1-2.115,2.115V22.39a3.088,3.088,0,0,1,2.115,2.118" transform="translate(17.693 13.449)" fill="#cdd3da"/><path d="M22.032,20.619a5.3,5.3,0,1,1,5.3-5.3,5.3,5.3,0,0,1-5.3,5.3m0-8.924a3.626,3.626,0,1,0,3.626,3.626A3.63,3.63,0,0,0,22.032,11.7" transform="translate(25.969 15.552)" fill="#cdd3da"/><rect width="5.578" height="1.671" transform="translate(55.251 30.037)" fill="#cdd3da"/><rect width="5.581" height="1.671" transform="translate(35.171 30.037)" fill="#cdd3da"/><path d="M45.131,16.145V48.2L18.812,32.172Z" transform="translate(29.192 25.052)" fill="#3e4972"/><path d="M34.82,32.172,8.5,48.2V16.145Z" transform="translate(13.183 25.053)" fill="#3e4972"/><path d="M61.14,38.451H8.495L34.822,22.426Z" transform="translate(13.182 34.8)" fill="#24305e"/></g></svg>