<svg xmlns="http://www.w3.org/2000/svg" xmlns:xlink="http://www.w3.org/1999/xlink" width="96" height="96" viewBox="0 0 96 96"><defs><clipPath id="a"><rect width="96" height="96" fill="none"/></clipPath><clipPath id="b"><rect width="106.15" height="113.975" fill="none"/></clipPath><clipPath id="c"><path d="M48,0A48,48,0,0,0,0,48H0a48,48,0,0,0,96,0h0A48,48,0,0,0,48,0Z" transform="translate(0 0.001)" fill="none"/></clipPath><clipPath id="d"><rect width="94.934" height="93.571" fill="none"/></clipPath></defs><g clip-path="url(#a)"><g clip-path="url(#b)"><path d="M0,48H0A48,48,0,0,1,48,0h0a48,48,0,0,1,0,96h0A48,48,0,0,1,0,48" transform="translate(0 0)" fill="#3e4972"/></g><g transform="translate(0 -0.001)"><g clip-path="url(#c)"><g transform="translate(11.216 20.404)"><g clip-path="url(#d)"><path d="M110.9,71.894,74.39,35.382,57.358,52.414,33.991,29.047l-2.5,2.5h0L15.968,47.069l6.25,6.245,11.2,11.2-.393.393a2.983,2.983,0,0,0,0,4.206L54.892,90.98l.5.5,2.331,2.331.867.868,27.941,27.94H110.9Z" transform="translate(-15.968 -29.047)" fill="#24305e"/></g></g></g></g><g clip-path="url(#b)"><path d="M69.29,49.442l-4.073,1.393a7.27,7.27,0,0,0-1.47.7,7.187,7.187,0,0,0-1.268,1.012L52.96,62.059,70.139,79.236l9.514-9.516a7.007,7.007,0,0,0,1.01-1.27,7.224,7.224,0,0,0,.7-1.469L82.754,62.9Z" transform="translate(-15.759 -14.712)" fill="#cdd3da"/><rect width="3.392" height="19.042" transform="matrix(0.708, -0.706, 0.706, 0.708, 53.537, 34.721)" fill="#cdd3da"/><path d="M85.921,80.531a2.977,2.977,0,0,1-4.208,0l-8.92-8.919L77,67.4l8.922,8.919a2.977,2.977,0,0,1,0,4.208" transform="translate(-21.66 -20.057)" fill="#fff"/><path d="M79.764,86.684a2.967,2.967,0,0,1-4.207,0l-8.92-8.919,4.21-4.207,8.917,8.921a2.968,2.968,0,0,1,0,4.2" transform="translate(-19.829 -21.888)" fill="#fff"/><path d="M73.609,92.843a2.979,2.979,0,0,1-4.207,0l-8.92-8.922,4.207-4.207,8.92,8.918a2.98,2.98,0,0,1,0,4.21" transform="translate(-17.997 -23.72)" fill="#fff"/><path d="M67.457,99a2.97,2.97,0,0,1-4.207,0l-8.922-8.92,4.207-4.207,8.922,8.92a2.975,2.975,0,0,1,0,4.207" transform="translate(-16.166 -25.551)" fill="#fff"/><path d="M36.366,62.9l1.4,4.077a7.229,7.229,0,0,0,.7,1.468,7.065,7.065,0,0,0,1.009,1.27l9.516,9.516L66.16,62.059l-9.515-9.516a7.314,7.314,0,0,0-1.274-1.012,7.223,7.223,0,0,0-1.465-.7L49.83,49.442Z" transform="translate(-10.821 -14.712)" fill="#fff"/><rect width="19.042" height="3.393" transform="matrix(0.707, -0.707, 0.707, 0.707, 23.144, 45.792)" fill="#fff"/><path d="M31.093,58.648,45.569,44.172l.8.8L31.893,59.444Z" transform="translate(-9.252 -13.144)" fill="#cdd3da"/><rect width="25.483" height="12.623" transform="translate(11.22 38.423) rotate(-45)" fill="#172148"/><path d="M26.99,59.783a1.489,1.489,0,1,1,2.109,0,1.485,1.485,0,0,1-2.109,0" transform="translate(-7.902 -17.033)" fill="#fff"/><path d="M58.356,102.051a2.984,2.984,0,0,1,0-4.207l.835-.832a2.975,2.975,0,0,1,4.21,4.205l-.835.833a2.974,2.974,0,0,1-4.21,0" transform="translate(-17.106 -28.607)" fill="#cdd3da"/><path d="M52.2,95.9a2.98,2.98,0,0,1,0-4.21l.835-.833a2.974,2.974,0,1,1,4.2,4.207l-.833.837a2.979,2.979,0,0,1-4.207,0" transform="translate(-15.274 -26.776)" fill="#cdd3da"/><path d="M46.047,89.741a2.973,2.973,0,0,1,0-4.2l.834-.836a2.976,2.976,0,0,1,4.208,4.209l-.834.832a2.969,2.969,0,0,1-4.208,0" transform="translate(-13.443 -24.945)" fill="#cdd3da"/><path d="M39.892,83.587a2.986,2.986,0,0,1,0-4.208l.835-.83a2.975,2.975,0,0,1,4.208,4.207l-.835.832a2.977,2.977,0,0,1-4.208,0" transform="translate(-11.612 -23.113)" fill="#cdd3da"/><path d="M68.233,56.456l-8.919,8.921a2.964,2.964,0,0,1-2.105.87,2.816,2.816,0,0,1-.622-.067A2.972,2.972,0,0,1,54.3,63.9a2.972,2.972,0,0,1,.806-2.73l7.75-7.748a7.051,7.051,0,0,1,1.268-1.009c.014-.008.026-.014.039-.023Z" transform="translate(-16.138 -15.588)" fill="#cdd3da"/><path d="M94.18,58.648,79.7,44.172l-.8.8L93.379,59.444Z" transform="translate(-23.479 -13.144)" fill="#cdd3da"/><rect width="12.622" height="25.482" transform="translate(54.378 29.33) rotate(-45)" fill="#172148"/><path d="M103.489,59.783a1.49,1.49,0,1,0-2.11,0,1.486,1.486,0,0,0,2.11,0" transform="translate(-30.036 -17.033)" fill="#fff"/></g></g></svg>