<svg xmlns="http://www.w3.org/2000/svg" xmlns:xlink="http://www.w3.org/1999/xlink" width="96" height="96" viewBox="0 0 96 96"><defs><clipPath id="a"><rect width="96" height="96" fill="none"/></clipPath></defs><g transform="translate(0 0)" clip-path="url(#a)"><path d="M96,48A48,48,0,1,1,48,0,48,48,0,0,1,96,48" transform="translate(0 0)" fill="#ffa8a8"/><path d="M80.461,36.429,55.027,11l-.005-.005H53.833L52.108,9.263l-.013-.01,0-.005-.01-.005a2.076,2.076,0,0,0-.186-.156c-.059-.046-.11-.1-.176-.143a1.84,1.84,0,0,0-.232-.125,1.306,1.306,0,0,0-.186-.1,2.276,2.276,0,0,0-.291-.094c-.061-.013-.112-.036-.168-.051a2.653,2.653,0,0,0-.5-.051,2.472,2.472,0,0,0-2.462,2.468L46.155,9.263l-.008-.008-.01-.008-.008-.01C46.088,9.2,46.04,9.166,46,9.13a1.982,1.982,0,0,0-.23-.186c-.054-.036-.115-.061-.171-.094a1.758,1.758,0,0,0-.248-.13,2.249,2.249,0,0,0-.222-.071c-.079-.023-.156-.054-.237-.074a2.5,2.5,0,0,0-.418-.041c-.026,0-.051-.01-.077-.01h0a2.377,2.377,0,0,0-.452.048l-.1.023c-.054.013-.115.02-.166.036l.01.01a2.447,2.447,0,0,0-1.758,2.35L40.2,9.263l0-.005-.018-.015-.005-.005c-.015-.015-.038-.031-.056-.046a2.508,2.508,0,0,0-.309-.253l-.008,0a2.439,2.439,0,0,0-1.355-.413h-.005a2.431,2.431,0,0,0-.457.048l-.1.023c-.056.013-.11.02-.163.036l.01.01a2.471,2.471,0,0,0-1.761,2.35l-1.712-1.72A2.469,2.469,0,0,0,32.5,8.523h-.01a2.431,2.431,0,0,0-.457.048l-.1.023c-.054.013-.11.02-.163.036l.01.01a2.471,2.471,0,0,0-1.761,2.35l-1.694-1.7a2.471,2.471,0,0,0-1.781-.771h-.01a2.454,2.454,0,0,0-.457.048l-.092.023c-.059.013-.115.02-.168.036l.013.01a2.466,2.466,0,0,0-1.758,2.35l-1.7-1.7a2.471,2.471,0,0,0-1.781-.771h-.01a2.377,2.377,0,0,0-.452.048l-.1.023c-.054.013-.115.02-.168.036l.015.01a2.465,2.465,0,0,0-1.761,2.35H9.986V58.433l.115.12L34.281,82.731a47.983,47.983,0,0,0,46.179-46.3" transform="translate(15.496 13.225)" fill="#f76c6c"/><rect width="39.108" height="38.756" transform="translate(31.417 33.022)" fill="#cdd3da"/><rect width="39.108" height="8.804" transform="translate(31.417 24.219)" fill="#3e4972"/><rect width="5.938" height="38.756" transform="translate(25.477 33.022)" fill="#cdd3da"/><rect width="5.938" height="8.804" transform="translate(25.477 24.219)" fill="#24305e"/><path d="M51.42,12.941V44.374H18.671a6.361,6.361,0,0,1-6.359-6.364V12.941Z" transform="translate(19.105 20.081)" fill="#fff"/><path d="M21.166,22.766A6.363,6.363,0,0,1,14.8,29.13H47.553a6.361,6.361,0,0,0,6.359-6.364Z" transform="translate(22.972 35.327)" fill="#cdd3da"/><path d="M27.3,13.461V12.323a1.328,1.328,0,1,0-1.327-1.329H24.837A2.469,2.469,0,1,1,27.3,13.461" transform="translate(38.541 13.226)" fill="#24305e"/><path d="M24.973,13.461V12.323a1.328,1.328,0,1,0-1.327-1.329H22.505a2.468,2.468,0,1,1,2.468,2.468" transform="translate(34.922 13.226)" fill="#24305e"/><path d="M22.641,13.461V12.323a1.328,1.328,0,1,0-1.329-1.329H20.173a2.469,2.469,0,1,1,2.468,2.468" transform="translate(31.304 13.226)" fill="#24305e"/><path d="M20.309,13.461V12.323a1.328,1.328,0,1,0-1.329-1.329H17.841a2.469,2.469,0,1,1,2.468,2.468" transform="translate(27.685 13.226)" fill="#24305e"/><path d="M17.977,13.461V12.323a1.328,1.328,0,1,0-1.329-1.329H15.509a2.469,2.469,0,1,1,2.468,2.468" transform="translate(24.066 13.226)" fill="#24305e"/><path d="M15.645,13.461V12.323a1.328,1.328,0,1,0-1.329-1.329H13.177a2.468,2.468,0,1,1,2.468,2.468" transform="translate(20.448 13.226)" fill="#24305e"/><rect width="12.84" height="12.843" transform="translate(36.09 39.136)" fill="#24305e"/><path d="M23.865,20.025h-4.69V15.337h4.69Zm-4.078-.612H23.25V15.947H19.787Z" transform="translate(29.755 23.799)" fill="#24305e"/><path d="M25.462,20.025h-4.69V15.337h4.69Zm-4.075-.612H24.85V15.947H21.387Z" transform="translate(32.233 23.799)" fill="#24305e"/><path d="M27.06,20.025H22.37V15.337h4.69Zm-4.078-.612h3.465V15.947H22.982Z" transform="translate(34.713 23.799)" fill="#24305e"/><path d="M28.657,20.025H23.969V15.337h4.688Zm-4.078-.612h3.465V15.947H24.579Z" transform="translate(37.194 23.799)" fill="#24305e"/><path d="M23.865,21.622h-4.69V16.934h4.69Zm-4.078-.61H23.25V17.546H19.787Z" transform="translate(29.755 26.277)" fill="#24305e"/><path d="M25.462,21.622h-4.69V16.934h4.69Zm-4.075-.61H24.85V17.546H21.387Z" transform="translate(32.233 26.277)" fill="#24305e"/><path d="M27.06,21.622H22.37V16.934h4.69Zm-4.078-.61h3.465V17.546H22.982Z" transform="translate(34.713 26.277)" fill="#24305e"/><path d="M28.657,21.622H23.969V16.934h4.688Zm-4.078-.61h3.465V17.546H24.579Z" transform="translate(37.194 26.277)" fill="#24305e"/><path d="M23.865,23.222h-4.69v-4.69h4.69Zm-4.078-.612H23.25V19.144H19.787Z" transform="translate(29.755 28.757)" fill="#24305e"/><path d="M25.462,23.222h-4.69v-4.69h4.69Zm-4.075-.612H24.85V19.144H21.387Z" transform="translate(32.233 28.757)" fill="#24305e"/><path d="M27.06,23.222H22.37v-4.69h4.69Zm-4.078-.612h3.465V19.144H22.982Z" transform="translate(34.713 28.757)" fill="#24305e"/><path d="M28.657,23.222H23.969v-4.69h4.688Zm-4.078-.612h3.465V19.144H24.579Z" transform="translate(37.194 28.757)" fill="#24305e"/></g></svg>