<svg xmlns="http://www.w3.org/2000/svg" width="96" height="96.005" viewBox="0 0 96 96.005"><g transform="translate(0 0)"><path d="M96,48A48,48,0,1,1,48,0,48,48,0,0,1,96,48" transform="translate(0 0)" fill="#3e4972"/><path d="M81.311,35.47l-24.2-24.2a1.859,1.859,0,0,0-1.317-.546H11.2a1.851,1.851,0,0,0-1.855,1.858V50.13a1.852,1.852,0,0,0,.538,1.314L37.609,79.169a47.991,47.991,0,0,0,43.7-43.7" transform="translate(14.503 16.644)" fill="#24305e"/><path d="M57.654,19.61A1.851,1.851,0,0,0,55.8,17.755H11.2A1.851,1.851,0,0,0,9.344,19.61V39.223A1.86,1.86,0,0,0,11.2,41.081H55.8a1.86,1.86,0,0,0,1.855-1.858Z" transform="translate(14.5 27.552)" fill="#fff"/><path d="M57.654,18.975a1.86,1.86,0,0,0-1.855-1.86H11.2a1.86,1.86,0,0,0-1.858,1.86V38.588A1.856,1.856,0,0,0,11.2,40.443H55.8a1.856,1.856,0,0,0,1.855-1.855Z" transform="translate(14.5 26.558)" fill="#cdd3da"/><path d="M57.654,18.334A1.856,1.856,0,0,0,55.8,16.476H11.2a1.856,1.856,0,0,0-1.858,1.858V37.947a1.866,1.866,0,0,0,.544,1.314A1.844,1.844,0,0,0,11.2,39.8H55.8a1.856,1.856,0,0,0,1.855-1.858Z" transform="translate(14.5 25.567)" fill="#fff"/><path d="M57.654,17.7a1.86,1.86,0,0,0-1.855-1.86H11.2A1.86,1.86,0,0,0,9.344,17.7V37.309A1.856,1.856,0,0,0,11.2,39.167H55.8a1.856,1.856,0,0,0,1.855-1.858Z" transform="translate(14.5 24.574)" fill="#cdd3da"/><path d="M57.654,17.058A1.86,1.86,0,0,0,55.8,15.2H11.2a1.86,1.86,0,0,0-1.858,1.86V36.671A1.86,1.86,0,0,0,11.2,38.529H55.8a1.86,1.86,0,0,0,1.855-1.858Z" transform="translate(14.5 23.584)" fill="#fff"/><path d="M57.654,16.419a1.856,1.856,0,0,0-1.855-1.86H11.2a1.856,1.856,0,0,0-1.858,1.86V36.032A1.856,1.856,0,0,0,11.2,37.887H55.8a1.856,1.856,0,0,0,1.855-1.855Z" transform="translate(14.5 22.592)" fill="#cdd3da"/><path d="M57.654,15.776A1.851,1.851,0,0,0,55.8,13.921H11.2a1.851,1.851,0,0,0-1.858,1.855V35.389A1.86,1.86,0,0,0,11.2,37.247H55.8a1.86,1.86,0,0,0,1.855-1.858Z" transform="translate(14.5 21.602)" fill="#fff"/><path d="M57.654,15.141a1.86,1.86,0,0,0-1.855-1.86H11.2a1.86,1.86,0,0,0-1.858,1.86V34.754A1.856,1.856,0,0,0,11.2,36.609H55.8a1.856,1.856,0,0,0,1.855-1.855Z" transform="translate(14.5 20.609)" fill="#cdd3da"/><path d="M57.654,14.5A1.851,1.851,0,0,0,55.8,12.643H11.2A1.851,1.851,0,0,0,9.344,14.5V34.111A1.856,1.856,0,0,0,11.2,35.969H55.8a1.856,1.856,0,0,0,1.855-1.858Z" transform="translate(14.5 19.619)" fill="#fff"/><path d="M57.654,13.862A1.86,1.86,0,0,0,55.8,12H11.2a1.86,1.86,0,0,0-1.858,1.86V33.475A1.856,1.856,0,0,0,11.2,35.333H55.8a1.856,1.856,0,0,0,1.855-1.858Z" transform="translate(14.5 18.624)" fill="#cdd3da"/><path d="M57.654,13.224a1.856,1.856,0,0,0-1.855-1.86H11.2a1.856,1.856,0,0,0-1.858,1.86V32.837A1.86,1.86,0,0,0,11.2,34.695H55.8a1.86,1.86,0,0,0,1.855-1.858Z" transform="translate(14.5 17.634)" fill="#fff"/><path d="M57.654,12.583A1.856,1.856,0,0,0,55.8,10.725H11.2a1.856,1.856,0,0,0-1.858,1.858V32.2A1.856,1.856,0,0,0,11.2,34.053H55.8A1.856,1.856,0,0,0,57.654,32.2Z" transform="translate(14.5 16.643)" fill="#cdd3da"/><path d="M53.51,27.246a2.667,2.667,0,0,0-2.667,2.664H13.019a2.664,2.664,0,0,0-2.664-2.664V14.4a2.664,2.664,0,0,0,2.664-2.664H50.844A2.666,2.666,0,0,0,53.51,14.4Z" transform="translate(16.069 18.212)" fill="#fff"/><path d="M23.153,26.78a7.141,7.141,0,1,1,7.14-7.142,7.152,7.152,0,0,1-7.14,7.142m0-12.649a5.509,5.509,0,1,0,5.507,5.507,5.515,5.515,0,0,0-5.507-5.507" transform="translate(24.845 19.394)" fill="#cdd3da"/><path d="M21.542,18.706H20.065a2.54,2.54,0,1,1,0-5.081h1.477v1.628H20.065a.913.913,0,0,0-.643,1.559.9.9,0,0,0,.643.263h1.477Z" transform="translate(27.196 21.143)" fill="#cdd3da"/><path d="M21.642,16.164H20.011a.906.906,0,0,0-.911-.908V13.625a2.535,2.535,0,0,1,2.542,2.539" transform="translate(29.639 21.143)" fill="#cdd3da"/><path d="M20.067,18.512a2.535,2.535,0,0,1-2.542-2.539h1.628a.906.906,0,0,0,.914.908Z" transform="translate(27.195 24.786)" fill="#cdd3da"/><path d="M20,20.056H18.521V18.425H20a.91.91,0,0,0,.911-.908.91.91,0,0,0-.27-.646.9.9,0,0,0-.64-.265V14.978a2.539,2.539,0,1,1,0,5.078" transform="translate(28.74 23.242)" fill="#cdd3da"/><rect width="1.631" height="9.86" transform="translate(47.182 34.102)" fill="#cdd3da"/><rect width="9.347" height="1.631" transform="translate(54.314 38.218)" fill="#cdd3da"/><rect width="9.337" height="1.631" transform="translate(32.338 38.218)" fill="#cdd3da"/><rect width="4.731" height="1.631" transform="translate(53.299 34.768)" fill="#cdd3da"/><rect width="4.728" height="1.631" transform="translate(37.97 34.768)" fill="#cdd3da"/><rect width="4.945" height="1.631" transform="translate(53.084 41.668)" fill="#cdd3da"/><rect width="4.728" height="1.631" transform="translate(37.97 41.668)" fill="#cdd3da"/></g></svg>