<svg xmlns="http://www.w3.org/2000/svg" xmlns:xlink="http://www.w3.org/1999/xlink" width="48" height="48.005" viewBox="0 0 48 48.005"><defs><clipPath id="a"><path d="M14.647,36.212a24,24,0,1,0,24-24,24,24,0,0,0-24,24" transform="translate(-14.647 -12.209)" fill="none"/></clipPath></defs><g transform="translate(-160 -2197.996)"><path d="M62.646,36.209a24,24,0,1,1-24-24,24,24,0,0,1,24,24" transform="translate(145.353 2185.787)" fill="#24305e"/><g transform="translate(160 2197.996)"><g clip-path="url(#a)"><g transform="translate(3.392 6.158)"><g transform="translate(0)"><path d="M43.655,58.1l-4.574-4.167V48.693h9.143v5.245Z" transform="translate(-23.146 -30.283)" fill="#fff"/><path d="M32.819,30.726c-.042-1.3.953-.391.953-.391s-2.036-10.32,7.534-10.32,7.539,10.32,7.539,10.32,1-.907.955.391a8.647,8.647,0,0,1-.351,2.207,2.912,2.912,0,0,1-1.516,2.209s-.26,2.6-1.341,3.682-2.815,3.553-5.286,3.467c-2.468.086-4.2-2.384-5.282-3.467s-1.345-3.682-1.345-3.682a2.912,2.912,0,0,1-1.515-2.209,8.549,8.549,0,0,1-.345-2.207" transform="translate(-20.8 -19.539)" fill="#fff"/><path d="M41.586,19.254c-7.39,0-8.245,6.979-8.058,9.1.129,1.441.263,1.055.57,1.835s-.469,1.505.714,1.505c0,0,.007-.855,0-1.186-.028-.976,1.236-.651,5.478-2.366,5.391-2.179,5.007-3.819,6.817-1.807.8.886.974,1.77,1.161,3.643.034.328.014,1.734.014,1.734,1.027-.136.3-.5.612-1.274a4.381,4.381,0,0,0,.568-2.083c.192-2.122-.647-9.1-7.876-9.1" transform="translate(-21.058 -19.254)" fill="#172148"/><path d="M49.671,77.4H35.645V61.54l6.76.442,7.207-.442Z" transform="translate(-21.859 -35.096)" fill="#fff"/><path d="M41.527,60.746l-3.046,3.81-2.835-5.311,2.082-2.471Zm1.677,0,3.049,3.81,2.835-5.311-2.109-2.471Z" transform="translate(-21.859 -33.311)" fill="#cdd3da"/><path d="M44.163,81.383a29.03,29.03,0,0,0,3.715-.247C47.707,79.759,45.786,79,45.786,79L45.229,65.7c.132-.591.66-1.231.886-1.938a.445.445,0,0,0-.135-.557l-.757-1.092a.472.472,0,0,0-.286-.118H43.257a.485.485,0,0,0-.288.118L42.216,63.2a.447.447,0,0,0-.136.557c.226.707.753,1.347.884,1.938L41.716,78.531a3.784,3.784,0,0,0-1.453,2.581,28.99,28.99,0,0,0,3.9.271" transform="translate(-23.589 -35.265)" fill="#172148"/><path d="M34.174,80.554A28.99,28.99,0,0,0,54.8,71.917c-.851-2.979-1.961-6.334-2.025-6.517-.122-.38-.5-1.342-1.091-1.512s-10.193-3.565-11.5-4.111l-6.527,20.35-5.639-20.35c-1.3.546-10.909,3.944-11.5,4.111s-.966,1.133-1.1,1.512c-.066.2-1.019,3.523-1.834,6.573a28.99,28.99,0,0,0,20.574,8.581" transform="translate(-13.6 -34.436)" fill="#172148"/><path d="M42,59.612l-3.046,3.806-2.039-5.541L38.2,55.64Zm1.677,0,3.049,3.806,2.049-5.541L47.455,55.64Z" transform="translate(-22.336 -32.886)" fill="#fff"/><path d="M40.879,79.906l-3.8-16.058h0l-.008-.02-.028-.119-.021-.023-1.714-4.8s-.1-.266.249-.642c.133-.149-1.819,1.17-1.819,1.17l-.89,2.136,1.567,1.366L32.366,65.1Z" transform="translate(-20.631 -33.858)" fill="#3e4972"/><path d="M52.846,62.918l1.567-1.366-.889-2.136S51.57,58.1,51.7,58.247c.349.375.248.642.248.642l-1.712,4.8-.021.024L45.683,79.55l.01.413c.111,0,.221.008.332.009,0-.008.006-.021.009-.027C46.393,79.169,54.9,65.1,54.9,65.1Z" transform="translate(-25.62 -33.858)" fill="#3e4972"/></g></g></g></g></g></svg>