<svg xmlns="http://www.w3.org/2000/svg" xmlns:xlink="http://www.w3.org/1999/xlink" width="96" height="96.005" viewBox="0 0 96 96.005"><defs><clipPath id="a"><path d="M14.647,22.835A10.624,10.624,0,1,0,25.273,12.209,10.625,10.625,0,0,0,14.647,22.835" transform="translate(-14.647 -12.209)" fill="none"/></clipPath></defs><g transform="translate(0 0)"><g transform="translate(0 0)"><path d="M96,48A48,48,0,1,1,48,0,48,48,0,0,1,96,48" transform="translate(0 0)" fill="#3e4972"/><path d="M78.055,38.713,48.7,9.363l-.574-.574a1.828,1.828,0,0,0-1-.293H13.316a1.864,1.864,0,0,0-1.86,1.86v48.93a1.867,1.867,0,0,0,.429,1.181l.248.248,21.94,21.938A47.993,47.993,0,0,0,78.055,38.713" transform="translate(17.777 13.182)" fill="#24305e"/><path d="M.728,0H36.8a.729.729,0,0,1,.729.729V51.917a.728.728,0,0,1-.728.728H.728A.728.728,0,0,1,0,51.917V.728A.728.728,0,0,1,.728,0Z" transform="translate(29.232 21.677)" fill="#24305e"/><rect width="31.588" height="40.254" transform="translate(32.206 26.822)" fill="#fff"/><path d="M.3,0H5.879a.3.3,0,0,1,.3.3V1.557a.3.3,0,0,1-.3.3H.3a.3.3,0,0,1-.3-.3V.3A.3.3,0,0,1,.3,0Z" transform="translate(44.91 69.771)" fill="#fff"/><path d="M.141,0H7.573a.141.141,0,0,1,.141.141V.728a.14.14,0,0,1-.14.14H.14A.14.14,0,0,1,0,.728V.141A.141.141,0,0,1,.141,0Z" transform="translate(44.144 23.816)" fill="#fff"/><rect width="12.356" height="2.307" transform="translate(41.821 56.955)" fill="#24305e"/><rect width="12.356" height="2.304" transform="translate(41.821 60.439)" fill="#f76c6c"/><path d="M35.9,22.835A10.626,10.626,0,1,1,25.273,12.209,10.626,10.626,0,0,1,35.9,22.835" transform="translate(22.729 18.945)" fill="#cdd3da"/></g><g transform="translate(37.376 31.154)"><g clip-path="url(#a)"><g transform="translate(-2.263 -2.625)"><g transform="translate(0 0.143)"><path d="M41.106,52.859l-2.025-1.845V48.693h4.048v2.322Z" transform="translate(-28.262 -35.335)" fill="#fff"/><path d="M32.819,24.757c-.019-.575.422-.173.422-.173s-.9-4.568,3.335-4.568,3.337,4.568,3.337,4.568.441-.4.423.173a3.828,3.828,0,0,1-.156.977,1.289,1.289,0,0,1-.671.978,3.326,3.326,0,0,1-.594,1.63c-.479.479-1.246,1.573-2.34,1.535-1.093.038-1.86-1.055-2.338-1.535a3.325,3.325,0,0,1-.6-1.63,1.289,1.289,0,0,1-.671-.978,3.785,3.785,0,0,1-.153-.977" transform="translate(-23.733 -14.596)" fill="#fff"/><path d="M37.083,19.254c-3.271,0-3.65,3.089-3.567,4.029.057.638.116.467.252.812s-.208.666.316.666c0,0,0-.379,0-.525-.012-.432.547-.288,2.425-1.048,2.387-.965,2.216-1.691,3.018-.8A2.465,2.465,0,0,1,40.041,24c.015.145.006.768.006.768.455-.06.134-.22.271-.564a1.939,1.939,0,0,0,.252-.922c.085-.94-.287-4.029-3.487-4.029" transform="translate(-24.231 -14.046)" fill="#24305e"/><path d="M41.854,68.563H35.645V61.54l2.993.2,3.191-.2Z" transform="translate(-25.777 -44.626)" fill="#fff"/><path d="M38.249,58.532,36.9,60.219l-1.255-2.351.922-1.094Zm.742,0,1.35,1.686L41.6,57.868l-.934-1.094Z" transform="translate(-25.777 -41.179)" fill="#cdd3da"/><path d="M41.99,70.576a12.85,12.85,0,0,0,1.645-.109c-.076-.61-.927-.945-.927-.945l-.246-5.89c.058-.262.292-.545.392-.858a.2.2,0,0,0-.06-.247l-.335-.484a.209.209,0,0,0-.127-.052h-.743a.215.215,0,0,0-.128.052l-.333.484a.2.2,0,0,0-.06.247c.1.313.333.6.391.858l-.552,5.682a1.675,1.675,0,0,0-.643,1.143,12.834,12.834,0,0,0,1.727.12" transform="translate(-29.117 -44.952)" fill="#24305e"/><path d="M22.708,68.975a12.833,12.833,0,0,0,9.131-3.823c-.377-1.319-.868-2.8-.9-2.885-.054-.168-.222-.594-.483-.669s-4.512-1.578-5.089-1.82l-2.89,9.009-2.5-9.009c-.576.242-4.829,1.746-5.089,1.82s-.428.5-.485.669c-.029.09-.451,1.559-.812,2.91a12.833,12.833,0,0,0,9.108,3.8" transform="translate(-9.835 -43.35)" fill="#24305e"/><path d="M39.17,57.4l-1.348,1.685-.9-2.453.569-.99Zm.742,0,1.35,1.685.907-2.453-.586-.99Z" transform="translate(-26.698 -40.359)" fill="#fff"/><path d="M36.135,67.829,34.453,60.72h0l0-.009-.012-.053-.009-.01-.759-2.124s-.043-.118.11-.284c.059-.066-.805.518-.805.518l-.394.945.694.6-.908.967Z" transform="translate(-23.406 -42.236)" fill="#3e4972"/><path d="M48.854,60.308l.693-.6-.393-.945s-.865-.584-.806-.518c.154.166.11.284.11.284L47.7,60.649l-.009.011-2.008,7.011,0,.183c.049,0,.1,0,.147,0l0-.012c.159-.344,3.924-6.57,3.924-6.57Z" transform="translate(-33.036 -42.236)" fill="#3e4972"/></g></g></g></g></g></svg>