<svg xmlns="http://www.w3.org/2000/svg" xmlns:xlink="http://www.w3.org/1999/xlink" width="96" height="96.002" viewBox="0 0 96 96.002"><defs><clipPath id="a"><rect width="96" height="96.003" fill="none"/></clipPath></defs><g transform="translate(0 0)" clip-path="url(#a)"><path d="M96,48A48,48,0,1,1,48,0,48,48,0,0,1,96,48" transform="translate(0 0)" fill="#3e4972"/><path d="M36.769,79.521a47.993,47.993,0,0,0,46.049-47.95c0-.263-.015-.521-.02-.783L64.149,12.141l-.852-.855a3.646,3.646,0,0,0-2.156-.7,3.721,3.721,0,0,0-3.715,3.718H8.495V48.833H8.5L14.071,54.4l1.212,1.215-1.212,1.21Z" transform="translate(13.182 16.433)" fill="#24305e"/><path d="M10.681,33.57l8-7.995h-8Z" transform="translate(16.574 39.686)" fill="#fff"/><rect width="52.648" height="34.52" transform="translate(21.677 30.741)" fill="#fff"/><path d="M0,0H41.464V23.338H0Z" transform="translate(27.271 36.335)" fill="#cdd3da"/><path d="M10.681,14.238,31.427,28.628,52.178,14.238Z" transform="translate(16.574 22.094)" fill="#3e4972"/><path d="M35.1,14.306a3.717,3.717,0,1,1-3.715-3.715A3.716,3.716,0,0,1,35.1,14.306" transform="translate(42.937 16.435)" fill="#f76c6c"/></g></svg>