<svg xmlns="http://www.w3.org/2000/svg" xmlns:xlink="http://www.w3.org/1999/xlink" width="96" height="95.998" viewBox="0 0 96 95.998"><defs><clipPath id="a"><rect width="96" height="95.997" fill="none"/></clipPath></defs><g transform="translate(0 0)" clip-path="url(#a)"><path d="M96,48A48,48,0,1,1,48,0,48,48,0,0,1,96,48" transform="translate(0 0)" fill="#3e4972"/><path d="M37.136,77.591a48.006,48.006,0,0,0,45.438-43.1L60.52,12.444a2.078,2.078,0,0,0-1.485-.618H10.6A2.1,2.1,0,0,0,8.5,13.931V42.375a2.111,2.111,0,0,0,.564,1.439,1.041,1.041,0,0,0,.1.107l3.774,3.769L8.5,48.951Z" transform="translate(13.183 18.35)" fill="#24305e"/><rect width="27.821" height="1.49" transform="translate(25.55 65.066)" fill="#3e4972"/><rect width="27.821" height="1.49" transform="translate(25.55 66.556)" fill="#24305e"/><rect width="27.821" height="1.49" transform="translate(25.55 68.046)" fill="#172148"/><path d="M11.585,29.972,9,28.479V26.992L11.585,25.5Z" transform="translate(13.965 39.566)" fill="#fff"/><path d="M11.585,28.461V26.968L9,26.473v.5Z" transform="translate(13.965 41.078)" fill="#cccbca"/><path d="M9.782,27.572,8.5,26.827l1.286-.743Z" transform="translate(13.183 40.474)" fill="#24305e"/><rect width="1.49" height="1.489" transform="translate(53.37 69.535) rotate(-89.902)" fill="#cccbca"/><rect width="1.489" height="2.98" transform="translate(53.371 65.065)" fill="#fff"/><path d="M21.846,29.063H21.5v-1.49h.347a2.236,2.236,0,0,0,1.582-.653,2.281,2.281,0,0,0,.526-.837,2.233,2.233,0,0,1-2.108,2.98" transform="translate(33.36 40.473)" fill="#f76c6c"/><path d="M21.846,28.481H21.5l0-2.983.344,0a2.235,2.235,0,0,1,2.108,1.49,2.281,2.281,0,0,1-.526.837,2.236,2.236,0,0,1-1.582.653" transform="translate(33.36 39.565)" fill="#ffa8a8"/><path d="M61.14,42.377a2.108,2.108,0,0,1-2.105,2.105H10.6a2.1,2.1,0,0,1-2.1-2.105V13.931a2.1,2.1,0,0,1,2.1-2.105H59.035a2.1,2.1,0,0,1,2.105,2.105Z" transform="translate(13.183 18.35)" fill="#fff"/><path d="M30.958,31.315V24.624H24.268Z" transform="translate(37.656 38.209)" fill="#fff"/><rect width="41.228" height="2.363" transform="translate(27.387 54.765)" fill="#cdd3da"/><rect width="22.345" height="2.363" transform="translate(46.27 50.044)" fill="#cdd3da"/><rect width="22.345" height="2.36" transform="translate(46.27 45.323)" fill="#cdd3da"/><rect width="22.345" height="2.363" transform="translate(46.27 40.603)" fill="#cdd3da"/><rect width="11.171" height="2.36" transform="translate(46.27 35.882)" fill="#24305e"/><path d="M0,0H16.525V16.522H0Z" transform="translate(27.382 35.885)" fill="#f76c6c"/><path d="M18.78,15.415H15.534l-3.618,9.62h3.039l.467-1.587H18.8l.482,1.587H22.4Zm-2.71,5.953,1.049-3.458,1.062,3.458Z" transform="translate(18.49 23.919)" fill="#fff"/></g></svg>