<svg xmlns="http://www.w3.org/2000/svg" xmlns:xlink="http://www.w3.org/1999/xlink" width="352" height="338.372" viewBox="0 0 352 338.372"><defs><clipPath id="a"><rect width="21.262" height="33.912" fill="#cdd3da"/></clipPath><clipPath id="b"><rect width="21.261" height="33.912" fill="#cdd3da"/></clipPath><clipPath id="c"><rect width="21.262" height="33.912" transform="translate(0 0)" fill="#cdd3da"/></clipPath></defs><g transform="translate(-927 -1692)"><rect width="24" height="24" rx="12" transform="translate(997.744 1798)" fill="#24305e"/><rect width="16" height="16" rx="8" transform="translate(1021.744 1832)" fill="#24305e"/><rect width="352" height="96" rx="48" transform="translate(927 1692)" fill="#fff"/><path d="M48,5A43.013,43.013,0,0,0,31.264,87.623,42.726,42.726,0,0,0,48,91H304A43.013,43.013,0,0,0,320.736,8.377,42.726,42.726,0,0,0,304,5H48m0-5H304a48,48,0,0,1,0,96H48A48,48,0,0,1,48,0Z" transform="translate(927 1692)" fill="#24305e"/><text transform="translate(1103 1749)" fill="#333" font-size="20" font-family="NotoSansJP-Black, Noto Sans JP" font-weight="800" letter-spacing="0.06em"><tspan x="-158.4" y="0">新商品・サービスを拡大したい…</tspan></text><g transform="translate(555.453 256.934) rotate(20)"><g transform="translate(1194.867 1280.493) rotate(-120)"><g clip-path="url(#a)"><path d="M15.428,16.888c0,5.593-3.456,10.133-7.714,10.133S0,22.481,0,16.888,7.714,0,7.714,0,15.428,11.295,15.428,16.888Z" transform="translate(2.572 3.378)" fill="#cdd3da"/></g></g><g transform="translate(1184.236 1284.815) rotate(-60)"><g clip-path="url(#b)"><path d="M15.428,16.888c0,5.593-3.456,10.133-7.714,10.133S0,22.481,0,16.888,7.714,0,7.714,0,15.428,11.295,15.428,16.888Z" transform="translate(2.571 3.378)" fill="#cdd3da"/></g></g></g><g transform="translate(988.262 1921.11) rotate(-30)"><g transform="translate(0 18.413) rotate(-60)"><g clip-path="url(#c)"><path d="M15.428,10.133C15.428,4.539,11.973,0,7.714,0S0,4.54,0,10.133,7.714,27.021,7.714,27.021,15.428,15.726,15.428,10.133Z" transform="translate(2.572 3.514)" fill="#cdd3da"/></g></g><g transform="translate(10.631 56.647) rotate(-120)"><g clip-path="url(#b)"><path d="M15.428,10.133C15.428,4.54,11.972,0,7.714,0S0,4.539,0,10.133,7.714,27.021,7.714,27.021,15.428,15.726,15.428,10.133Z" transform="translate(2.571 3.514)" fill="#cdd3da"/></g></g></g><ellipse cx="51.171" cy="23.584" rx="51.171" ry="23.584" transform="translate(1090 1983.203)" fill="#cdd3da" opacity="0.5"/><g transform="translate(1035.608 1780.526)"><g transform="translate(48.391 20.093)"><g transform="translate(26.469 92.4)"><path d="M88.448,103.01c-3.222,4.385-13.648,2.127-14.71-1.6C74.739,98.244,88.867,99.472,88.448,103.01Z" transform="translate(-40.902 -5.99)" fill="#4d2d27" fill-rule="evenodd"/><path d="M80.636,97.305c-3.374,4.588-14.284,2.225-15.4-1.671C66.286,92.317,81.076,93.6,80.636,97.305Z" transform="translate(-52.29 -13.846)" fill="#4d2d27" fill-rule="evenodd"/><g transform="translate(0 80.434)"><g transform="translate(0.061)"><path d="M85.774,98.339a9.459,9.459,0,0,0-1.081,4.878c.129.891,1.116,2.417,1.652,4.043,1.074,3.257,1.088,5.108.1,6.476-.709.985-3.365,2.33-5.6,3.556a9.663,9.663,0,0,0-2.8,2.012c-1.4,1.591-2.12,2.679-4.083,3.666a21.161,21.161,0,0,1-5.255,1.682c-1.965.381-6.278.126-7.651-.6-.817-.433-1.4-.962-1.322-1.589.307-2.447,4.846-6.1,7.894-8.936,3.023-2.815,5.6-5.767,6.86-9,.328-.847,2.05-9.684,2.181-10.571A76.837,76.837,0,0,1,85.774,98.339Z" transform="translate(-59.73 -93.961)" fill="#f1b287" fill-rule="evenodd"/><path d="M84.649,96.7a15.279,15.279,0,0,0-.028,2.843c.129.891,1.116,2.417,1.652,4.043,1.074,3.257,1.088,5.108.1,6.476-.709.985-3.365,2.333-5.6,3.556a9.663,9.663,0,0,0-2.8,2.012c-1.4,1.591-2.12,2.679-4.083,3.666a24.106,24.106,0,0,1-8.673,2.122c-.938.059-5.417-.515-5.435-2.712,2.443,1.643,5.3,1.221,8.388-.124,3.114-1.355,4.672-4.282,7.929-6.369s5.728-2.89,6.778-5.042.379-4.5.239-8.645A7.87,7.87,0,0,0,84.649,96.7Z" transform="translate(-59.658 -90.289)" fill="#e8a476" fill-rule="evenodd"/></g><g transform="translate(0 11.777)"><path d="M87.748,106.16a3.643,3.643,0,0,1-1.121,1.879c-4.073,3.645-3.687.641-7.012,3.409-2.349,1.956-2.234,2.978-3.94,4.254a14.665,14.665,0,0,1-6.706,2.525c-1.315.194-5.393.08-7.569-1.06-1.362-.714-2.178-2.125-1.385-3.374,1.6-2.513,7.541-4.132,8.348-4.6,1.465-.828,6.729-4.885,11.31-7.321.07.115.136.227.192.337a6.389,6.389,0,0,0,4.806-2.181,1.962,1.962,0,0,1,2.246,1.1A20.524,20.524,0,0,1,87.748,106.16Z" transform="translate(-59.704 -97.63)" fill="#a17c72" fill-rule="evenodd"/><path d="M86.232,100.2c.04.105.077.213.112.321,1.074,3.257,1.09,5.108.1,6.476-.709.985-3.365,2.33-5.6,3.556a9.663,9.663,0,0,0-2.8,2.012c-1.4,1.591-2.12,2.679-4.083,3.666a21.161,21.161,0,0,1-5.255,1.682c-1.965.381-6.278.126-7.651-.6-.817-.433-1.4-.962-1.322-1.589.307-2.447,4.846-6.1,7.894-8.936a28.771,28.771,0,0,0,6.31-7.766c1.781-.346,4.9,2.679,5.889,4.551C84.1,103.285,84.253,101.053,86.232,100.2Z" transform="translate(-59.669 -98.994)" fill="#794b3e" fill-rule="evenodd"/><path d="M86.235,99.508c.04.105.077.213.112.321,1.074,3.257,1.09,5.108.1,6.476-.709.985-3.365,2.33-5.6,3.556a9.663,9.663,0,0,0-2.8,2.012c-1.4,1.591-2.12,2.679-4.083,3.666a24.105,24.105,0,0,1-8.673,2.122c-.938.059-5.55-.587-5.566-2.595.021.016.035-.271.058-.255,2.429,1.591,5.4,1.345,8.461.014,3.114-1.355,4.672-4.282,7.929-6.369s5.728-2.89,6.778-5.042a5.515,5.515,0,0,0,.5-1.661C84.548,100.977,85.082,100.009,86.235,99.508Z" transform="translate(-59.672 -98.306)" fill="#6b3a2c" fill-rule="evenodd"/><g transform="translate(4.146 3.434)"><path d="M64.69,101.108a3.928,3.928,0,0,1,2.178.587,6.245,6.245,0,0,1,1.958,1.813l.526-.374a6.851,6.851,0,0,0-2.164-2,4.917,4.917,0,0,0-2.085-.674c-.138.175-.281.349-.424.522Z" transform="translate(-57.182 -100.462)" fill="#cca69b" fill-rule="evenodd"/><path d="M64.129,101.658a4.1,4.1,0,0,1,2.012.594,6.2,6.2,0,0,1,1.958,1.813l.526-.377a6.82,6.82,0,0,0-2.164-2,5.117,5.117,0,0,0-1.781-.641C64.5,101.256,64.316,101.457,64.129,101.658Z" transform="translate(-57.922 -99.672)" fill="#cca69b" fill-rule="evenodd"/><path d="M63.536,102.25a4.188,4.188,0,0,1,1.9.594,6.22,6.22,0,0,1,1.958,1.813l.526-.377a6.878,6.878,0,0,0-2.164-2,5.259,5.259,0,0,0-1.633-.615C63.929,101.861,63.733,102.055,63.536,102.25Z" transform="translate(-58.716 -98.848)" fill="#cca69b" fill-rule="evenodd"/><path d="M62.822,102.921a4.163,4.163,0,0,1,1.965.6,6.245,6.245,0,0,1,1.958,1.813l.526-.377a6.879,6.879,0,0,0-2.164-2,5.207,5.207,0,0,0-1.652-.618C63.25,102.528,63.04,102.724,62.822,102.921Z" transform="translate(-59.673 -97.949)" fill="#cca69b" fill-rule="evenodd"/><path d="M62.143,103.528a4.238,4.238,0,0,1,1.909.594,6.248,6.248,0,0,1,1.958,1.813l.526-.374a6.825,6.825,0,0,0-2.164-2,5.208,5.208,0,0,0-1.593-.608Z" transform="translate(-60.582 -97.122)" fill="#cca69b" fill-rule="evenodd"/><path d="M61.476,104.153a4.1,4.1,0,0,1,1.984.594,6.226,6.226,0,0,1,1.961,1.813l.526-.377a6.907,6.907,0,0,0-2.164-2,5.209,5.209,0,0,0-1.675-.622Q61.788,103.858,61.476,104.153Z" transform="translate(-61.476 -96.307)" fill="#cca69b" fill-rule="evenodd"/></g></g></g><g transform="translate(30.541 95.801)"><path d="M84.811,100.793l-9.747-.264a137.373,137.373,0,0,1-.683,15.456c-.084.676-.154,1.1-.285,1.79l7.78,2.258,3.409-1.764c.711-2.071.4-3.4.073-5.8A100.122,100.122,0,0,1,84.811,100.793Z" transform="translate(-70.965 -100.529)" fill="#f1b287" fill-rule="evenodd"/><path d="M80.678,100.7l-3.5-.094c.073,4.705.971,14.251.562,19.333l3.409-1.764c.711-2.071.4-3.4.073-5.8A100.122,100.122,0,0,1,80.678,100.7Z" transform="translate(-66.831 -100.431)" fill="#e8a476" fill-rule="evenodd"/><g transform="translate(0 11.671)"><path d="M87.007,106.18c.65,1.727,1.383,3.4,1.32,4.483-.077,1.357-.8,2.553-.8,4.27,0,1.474.157,3.051.316,4.717.281,2.906-2.12,5.183-4.818,6.317-2.162.91-6.919,1.247-9.02.124a6.314,6.314,0,0,1-1.163-3.362c-.084-5.349,3.36-11.144,3.856-15.894a4.26,4.26,0,0,1,.48-.655l6.266-.206a3.733,3.733,0,0,1,.58.65c.475.676,1.261,1.306,1.757,1.184C86.231,107.7,86.661,107.212,87.007,106.18Z" transform="translate(-72.641 -104.905)" fill="#a17c72" fill-rule="evenodd"/><path d="M87.231,106.437a11.185,11.185,0,0,1,.88,3.877c-.077,1.357-.456,2.677-.449,4.394,0,1.472.073,2.723.234,4.392.423,4.427-6.764,7.239-10.353,6.935a13.428,13.428,0,0,1-4.022-.76c-.37-.14-.739-1.582-.758-2.829-.042-2.609.194-2.389,1.3-6.519.377-1.411.683-2.756,1.2-4.406.337-1.067.714-2.068,1.011-3.067l.091-.028A4.021,4.021,0,0,1,79.6,105.55l.992-.033a4.408,4.408,0,0,1,3.552,1.72c.475.676,1.261,1.306,1.757,1.184S86.87,107.716,87.231,106.437Z" transform="translate(-72.757 -105.517)" fill="#794b3e" fill-rule="evenodd"/><path d="M87.106,105.91a11.185,11.185,0,0,1,.88,3.877c-.077,1.357-.456,2.677-.449,4.394,0,1.472.073,2.723.234,4.392.423,4.427-6.764,7.239-10.353,6.935a13.428,13.428,0,0,1-4.022-.76c-.2-.075-.4-.533-.545-1.132,3.283.4,6.795.215,9.375-2.237,1.933-1.837,2.518-4.705,2.555-8.568.014-1.537.026-3.43-.016-5.3a1.322,1.322,0,0,0,1.011.386C86.268,107.77,86.746,107.19,87.106,105.91Z" transform="translate(-72.633 -104.99)" fill="#6b3a2c" fill-rule="evenodd"/><g transform="translate(2.894 3.897)"><path d="M81.433,108l-.321-.082a13.749,13.749,0,0,0-6.4-.6l.056.583a13.365,13.365,0,0,1,6.2.587l.318.084Z" transform="translate(-73.031 -107.183)" fill="#cca69b" fill-rule="evenodd"/><path d="M81.294,108.6l-.318-.084a13.779,13.779,0,0,0-6.4-.6l.056.583a13.365,13.365,0,0,1,6.2.587l.318.084Z" transform="translate(-73.213 -106.368)" fill="#cca69b" fill-rule="evenodd"/><path d="M81.082,109.31l-.318-.082a13.755,13.755,0,0,0-6.4-.6l.054.585a13.331,13.331,0,0,1,6.2.587l.318.082Z" transform="translate(-73.497 -105.421)" fill="#cca69b" fill-rule="evenodd"/><path d="M80.942,110.026l-.318-.082a13.756,13.756,0,0,0-6.4-.6l.054.583a13.362,13.362,0,0,1,6.2.587l.318.084Z" transform="translate(-73.685 -104.462)" fill="#cca69b" fill-rule="evenodd"/><path d="M80.775,110.675l-.318-.084a13.814,13.814,0,0,0-6.4-.6l.054.585a13.328,13.328,0,0,1,6.2.587l.318.082Z" transform="translate(-73.908 -103.594)" fill="#cca69b" fill-rule="evenodd"/><path d="M80.714,111.29l-.318-.082a13.762,13.762,0,0,0-6.4-.6l.056.583a13.366,13.366,0,0,1,6.2.59l.318.082Z" transform="translate(-73.994 -102.768)" fill="#cca69b" fill-rule="evenodd"/></g></g></g><path d="M63.739,61.145c-1.025,6.041,1.226,33.742,2.445,46.575C67.6,122.652,67.429,134.1,68.323,149c1.848,3.037,10.775,3.224,13.826-1.046.456-11.79,1.193-17.817.859-24.27-.276-5.37-.533-8.465-2.27-13.238,1.488-10.215,3.638-31.47,3.184-42.862l-9.551-3.821-5.094-4.183Z" transform="translate(-54.647 -59.584)" fill="#3e1209" fill-rule="evenodd"/><path d="M67.749,107.221c2.927,13.835,3.669,20.311,1.8,40.791,2.7-.2,5.44-1.221,6.879-3.236.456-11.79,1.193-17.817.859-24.27-.276-5.37-.533-8.465-2.27-13.238C76.5,97.053,78.655,75.8,78.2,64.406l-6.114-2.447C70.231,78.817,69.064,87.511,67.749,107.221Z" transform="translate(-48.926 -56.402)" fill="#2e0d06" fill-rule="evenodd"/><path d="M72.669,79.538c1.13,11.488,3.341,27.457,4.623,35.611,2.333,14.815,2.7,28.905,4.008,43.781,2.024,3.166,9.651,3.816,12.571-.122.126-11.8,1.2-21.729.683-28.168A40.666,40.666,0,0,0,91.366,117.3c.3-9.378,5.285-48.489-1.635-54.8l-10.548-.723-3.011,1.692-6.764-.789a30.367,30.367,0,0,0,.077,12.436C69.646,75.841,71.4,77.846,72.669,79.538Z" transform="translate(-47.516 -56.637)" fill="#3e1209" fill-rule="evenodd"/><path d="M76.75,71.951a36.1,36.1,0,0,1,2.286,12.677c.159,6.994.679,23.526,1.343,31.395,1.3,15.428,4.24,25,1.912,45.489a7.515,7.515,0,0,0,5.636-2.7c.126-11.8,1.2-21.729.683-28.168A40.666,40.666,0,0,0,85.421,117.3c.3-9.378,5.285-48.489-1.635-54.8l-10.548-.721C74.6,65.7,75.026,67.957,76.75,71.951Z" transform="translate(-41.572 -56.635)" fill="#2e0d06" fill-rule="evenodd"/><path d="M64.952,60.935a27.385,27.385,0,0,0,7.3,5.124c.016,7.347-.737,25.459-1.362,37.663-.3,8.29.519,16.877.6,25.386.075,7.67.276,3.772.213,11.317a6.357,6.357,0,0,1-4.291-1.774l-.239-25.178C66.663,100.6,62.907,73.621,64.952,60.935Z" transform="translate(-53.483 -57.774)" fill="#5a1e13" fill-rule="evenodd"/><path d="M78.434,64.578A48.78,48.78,0,0,1,82.1,76.593c1.93,12.286,1.044,23.6,2.265,39.593L86.9,152.195c-1.5-.131-4.41-.99-5.206-1.71-.9-13.416-.985-21.589-2.656-34.2-.342-2.574-1.9-24.331-4.9-36.722-1-4.151-3.875-4.074-4.455-6.46a24.764,24.764,0,0,1-.124-10.328C72.583,63.911,75.336,63.689,78.434,64.578Z" transform="translate(-47.156 -55.303)" fill="#5a1e13" fill-rule="evenodd"/><path d="M80.7,96.211c-2.525,3.135-12.6,1.207-15.4-1.671l-.119,7.995c1.479,1.928,12.646,3.666,14.528-.112Z" transform="translate(-52.358 -12.752)" fill="#8a4e44" fill-rule="evenodd"/><path d="M88.514,101.964c-2.412,2.995-12.036,1.153-14.71-1.6L73.689,108c1.413,1.844,12.082,3.5,13.879-.108Z" transform="translate(-40.967 -4.944)" fill="#8a4e44" fill-rule="evenodd"/></g><g transform="translate(3.341 63.497)"><path d="M61.748,51.626a9.6,9.6,0,0,1-3.552.356c-3.533.2-5.861.674-7.831,2.3-.477.4,2.258,5.917,4.974,7.265.131.063.262-.1.372-.166l2.132-1.1L63.6,57.2Z" transform="translate(-49.16 -41.343)" fill="#f1b287" fill-rule="evenodd"/><path d="M60.395,52.79c-2.249-.388-3.765-1.387-5.035-1.42-1.3-.035-3.177,1.011-5.541,1.245.428,2.356,3.521.826,4.647,1.044,1.034.2,1.09,1.458,2.057,1.486C58.043,55.19,60.238,54.458,60.395,52.79Z" transform="translate(-49.819 -41.688)" fill="#f1b287" fill-rule="evenodd"/><g transform="translate(9.118)"><path d="M82.9,58.008c-9.549,3.39-15.15,3.133-24.93,5.8-4.392.183-5.047-3.868-3.5-6.519,8.273-.639,17.56-8.606,26.25-10.056Z" transform="translate(-53.716 -47.231)" fill="#f1b287" fill-rule="evenodd"/><path d="M81.037,57.215c-9.549,3.39-15.693,3.133-25.473,5.8.295-1.771.143-1.65-.454-3A129.637,129.637,0,0,0,70.859,55.5c-.007-.58-.122-4.424-1.048-5.847a39.664,39.664,0,0,1,4.226-1.83Z" transform="translate(-51.848 -46.438)" fill="#e8a476" fill-rule="evenodd"/></g></g><path d="M100.176,42.769c-1.657-.92-4.766-2.845-8.318-4.869a54.53,54.53,0,0,0-10.431-4.027c-2.073-.613-8.353-2.471-10.508-2.241-1.97.211-3.205,1.287-4.6,3.367-3.395,5.059-4.251,16.051-4.01,25.761.136,5.5,1.334,10.77,1.4,17.6.03,2.96-1.006,15.541,1.4,18.028a13.726,13.726,0,0,1,.309,2.665c8.358,7.611,29.689,11.317,34.022,4.668a21.8,21.8,0,0,1-.548-2.408c1.767-2.628-.59-12.176.917-17.555,2.728-9.743,8.117-23.3,8.042-31.24C107.808,47.72,103.711,44.73,100.176,42.769Z" transform="translate(-29.799 -4.659)" fill="#09afb8" fill-rule="evenodd"/><path d="M95.993,39.689c-1.657-.92-4.766-2.845-8.318-4.869-.325-.185-1.383-.709-1.837-.908l.55,1.21c1.111,1,4.1,3.353,8.236,6.841-2.342,2.12-4.958,7.738-5.99,11.818-3.6,14.226-7.115,32.888-.987,46.69.075.166-13.161.105-22.256-4.717,8.016,5.952,22.792,5.971,22.88,6.165.351.76.566,1.139.91,1.888,2.791-.461,4.979-1.481,6.076-3.163a21.8,21.8,0,0,1-.548-2.408c1.767-2.628-.59-12.176.917-17.555,2.728-9.743,8.117-23.3,8.042-31.24C103.625,44.64,99.528,41.65,95.993,39.689Z" transform="translate(-25.616 -1.579)" fill="#04888f" fill-rule="evenodd"/><path d="M68.523,39.587a17.862,17.862,0,0,0-.751-3.935l-.007-.026,11.973-5.22L82.3,29.046c-1.132,5.519-.066,8.311,1.853,12.649C82.6,46.082,76.7,49.336,73.263,49.332c-3.8-.007-6.406-1.9-6.177-4.773C67.414,43.651,68.946,41.912,68.523,39.587Z" transform="translate(-23.364 -8.098)" fill="#e8a476" fill-rule="evenodd"/><path d="M83.213,42.89C78.1,40.223,74.6,42.771,68.337,41.1a43.979,43.979,0,0,0-.969-5.473l11.973-5.22L81.9,29.046c-1.132,5.517-.066,8.311,1.853,12.649A8.034,8.034,0,0,1,83.213,42.89Z" transform="translate(-22.967 -8.098)" fill="#db9669" fill-rule="evenodd"/><path d="M95.8,43.714c-5.868,7.592-9.385,25.045-10.536,34.778-.622,5.264-.632,11.455,1.17,21.687A33.163,33.163,0,0,1,64.5,92.144c-.515-6.28.159-12.16-.18-18.11-.461-8.07-1.788-16.179-1.13-24.748.5-6.542,1.813-12.967,5.653-16.975l4.235,2.225c.456,1.706-2.258,4.375-2.543,7.031-.232,2.15,2.1,4.789,5.009,5.33,4.05.749,10.489-.863,14.855-7.473C92.5,40.9,94.059,42.436,95.8,43.714Z" transform="translate(-28.807 -3.722)" fill="#0fc5cf" fill-rule="evenodd"/><g transform="translate(23.699 41.389)"><path d="M72.751,53.234c-.672,1.394.758,5.4,2.7,7.2,2.433,2.256,5.353,2.639,6.816,1.392,1.058-.9.99-3.868-.655-6.163C79.609,52.876,75.617,50.943,72.751,53.234Z" transform="translate(-39.679 -18.438)" fill="#005559" fill-rule="evenodd"/><g transform="translate(0 33.586)"><path d="M97.177,61.627c-5.428,3.184-13.032,2.036-20.718,3.57-1.39.639-2.2,2.745-4.282,3.365-2.574.767-6.43,2.195-7.857,1.394-1.762-.99-3.98-3.655-2.518-5.868,1.549-2.342,7.328-2.981,11.383-4.417,3.271-.9,8.306-3.678,12.607-5.365a45.189,45.189,0,0,1,6.444-2.1C94.463,51.538,100.443,55.974,97.177,61.627Z" transform="translate(-54.76 -52.137)" fill="#f1b287" fill-rule="evenodd"/><path d="M61.945,61.977c-.049.063-.1.129-.143.2-1.462,2.213.756,4.878,2.518,5.868,1.427.8,5.283-.627,7.857-1.394,2.082-.62,2.892-2.726,4.282-3.365,7.686-1.535,15.29-.386,20.718-3.57a6,6,0,0,0,.211-6.147c-.145,4.944-11.271,4.359-19.3,6.476a7.907,7.907,0,0,0-3.369,1.31c-1.451,1.039-2.454,2.326-3.76,2.932-2.436,1.128-4.6,1.528-5.807,1.118A24.986,24.986,0,0,1,61.945,61.977Z" transform="translate(-54.76 -50.222)" fill="#e8a476" fill-rule="evenodd"/><path d="M66.356,56.925c-1.991.873-5.25,2.12-7.253,2.953-1.411.585.019,2.513,1.35,2.11,1.3-.4,4.705-1.556,4.715-1.561C66.426,59.775,67.378,58.338,66.356,56.925Z" transform="translate(-58.52 -45.722)" fill="#f1b287" fill-rule="evenodd"/><path d="M58.739,60.416a1.041,1.041,0,0,0,1.42.578c1.3-.4,4.705-1.556,4.715-1.561a2.992,2.992,0,0,0,1.556-1.767Z" transform="translate(-58.227 -44.728)" fill="#e8a476" fill-rule="evenodd"/></g><g transform="translate(33.072)"><path d="M92.484,45.374c.119,7.37-4.176,20.847-7.735,29.369a14.53,14.53,0,0,1-1.666,3.046c-.023-4.382-4.4-7.653-8.945-7.366.662-4.111,1.664-9.441,3.285-16.76,2.452-11.058,4.864-15.482,9.312-15.866C89.608,37.55,92.4,40.252,92.484,45.374Z" transform="translate(-70.668 -37.782)" fill="#09afb8" fill-rule="evenodd"/><path d="M88.646,45.027c.119,7.37-4.176,20.847-7.735,29.369a14.53,14.53,0,0,1-1.666,3.046A6.875,6.875,0,0,0,77,72.477c3.353-7.716,7.85-21.308,8.442-34.436C87.23,39.092,88.589,41.478,88.646,45.027Z" transform="translate(-66.83 -37.436)" fill="#04888f" fill-rule="evenodd"/><path d="M72.655,55.11A21.908,21.908,0,0,1,75.13,52c4.043-3.989,12.473,3.131,11.3,7.258A7.33,7.33,0,0,1,82.164,63.7,8,8,0,0,0,72.655,55.11Z" transform="translate(-72.655 -20.314)" fill="#11cfd9" fill-rule="evenodd"/><path d="M87.493,38.236c-1.275,11.65-3.737,20.185-7.11,30.134-2.008-.983-3.11-1.6-5.594-1.467C76.269,59.015,79.589,36.7,87.493,38.236Z" transform="translate(-69.797 -37.275)" fill="#0fc5cf" fill-rule="evenodd"/></g></g><g transform="translate(0 63.736)"><path d="M59.383,70c-1.6-1.048-1.322-.945-2.11-2.7-.828-1.823-8.992-19.387-8.837-19.464,1.189-.606,1.228-.758,2.457.056L70.136,61.5a8.888,8.888,0,0,1,2.847,3.758l8.037,17.574c.4.826.309,1.394.161,1.516l-1.137.573c-.264.133-2.948-2.064-4.771-3.568l-.2.1C74.952,81.514,59.863,70.349,59.383,70Z" transform="translate(-48.335 -47.333)" fill="#acacb5" fill-rule="evenodd"/><path d="M69.585,77.83c-1.6-1.051-1.322-.948-2.11-2.7C66.7,73.415,54.234,53.74,53.5,51.814c2.244,1.437,7.188,4.572,9.75,6.4.311.222.674.028.185-.332-3.687-2.7-10.906-7.986-11.965-8.91l9.42,6.65,4.329,3.056a14.925,14.925,0,0,1,1.266.943,8.313,8.313,0,0,1,2.44,3.435L75.5,77.432c-.372-.37-5.658-11.343-6.3-12.777-.288-.611-.69-.271-.517.119,2.1,4.616,3.832,8.7,5.681,13.486l.232,1.357.655,2.721C73.661,81.246,70.083,78.188,69.585,77.83Z" transform="translate(-44.272 -45.135)" fill="#c4c4cc" fill-rule="evenodd"/><path d="M54.862,51.964c1.315.73,5.194,3.449,6.359,4.275.381.271,1.144-.1.526-.566l-4.286-3.257c.632.4,3.91,2.677,4.5,3.212a8.243,8.243,0,0,1,2.412,3.423l1.781,3.893c-.7-1.266-.681-1.317-2.223-4.235-.274-.517-.8-.068-.627.323.877,2.059,2.628,6.226,3.512,8.617Z" transform="translate(-39.722 -41.129)" fill="#d8d8e6" fill-rule="evenodd"/><path d="M48.5,47.756c.557-.14,2.817,1.614,3.39,2.031C54,51.32,58.113,54.282,60.572,55.84c.536.4.821.051.342-.342-.73-.6-8.87-6.645-9.511-7.127a4.908,4.908,0,0,0-1.71-1.022,1.047,1.047,0,0,0-.6.108C48.9,47.541,48.6,47.693,48.5,47.756Z" transform="translate(-48.25 -47.324)" fill="#8d8d99" fill-rule="evenodd"/><path d="M59.09,69.9a4.642,4.642,0,0,1-2.11-2.7L48.636,48.685c-.58-1.5-.11-1.366,1.2-.5L69.116,61.959a8.023,8.023,0,0,1,2.557,3.257L79.767,82.97c.461,1.161.519,1.605.318,1.678-.159.058-.557-.192-1.308-.721Z" transform="translate(-48.391 -47.055)" fill="#e8e8f7" fill-rule="evenodd"/><path d="M64.608,70.336c.367-.316-.314-1.923-1.184-3.776-1.163-2.473-3.053-7.146-3.327-7.88-.166-.482.1-.739.386-.215l3.446,7.085,1.406,2.9c.168.344.381,1.088.145,1.434Z" transform="translate(-32.777 -32.809)" fill="#8d8d99" fill-rule="evenodd"/><path d="M68.5,61.889,49.242,48.132c-.718-.489-.683-.328-.428.257l8.215,18.234a4.822,4.822,0,0,0,1.954,2.518c6.572,4.724,13.14,9.317,19.7,14.029.856.6.7.47.344-.435l-8.084-17.74A7.879,7.879,0,0,0,68.5,61.889Z" transform="translate(-48.047 -46.651)" fill="#b5b5c7" fill-rule="evenodd"/><path d="M52.9,60.831c.271.208.543.419.821.618L72.979,75.16c.852.6.709.484.344-.435l-8.084-17.74a7.281,7.281,0,0,0-1.453-2.19c-.335-.309-.648-.643-.973-.905C59.156,53.1,55.522,59.448,52.9,60.831Z" transform="translate(-42.345 -38.641)" fill="#d6d6e8" fill-rule="evenodd"/><g transform="translate(10.956 9.651)"><path d="M53.31,51.484c.391-.14,1.137.295,1.666.973s.636,1.341.243,1.481-1.139-.3-1.666-.973S52.917,51.624,53.31,51.484Z" transform="translate(-53.074 -51.458)" fill="#5e6382" fill-rule="evenodd"/><path d="M53.353,51.568c.33-.117.955.246,1.394.814s.533,1.121.2,1.238-.952-.248-1.392-.814S53.026,51.685,53.353,51.568Z" transform="translate(-52.963 -51.34)" fill="#2d2f3b" fill-rule="evenodd"/><path d="M53.424,51.7c.229-.082.664.171.971.566s.372.781.143.863-.664-.173-.971-.569S53.195,51.779,53.424,51.7Z" transform="translate(-52.79 -51.158)" fill="#111421" fill-rule="evenodd"/><path d="M53.492,51.825c.131-.044.377.1.55.321s.211.442.08.489-.374-.1-.547-.321S53.364,51.871,53.492,51.825Z" transform="translate(-52.617 -50.977)" fill="#5100ff" fill-rule="evenodd"/><path d="M53.522,51.879c.087-.03.253.068.37.218s.143.3.056.33-.255-.066-.372-.218S53.435,51.912,53.522,51.879Z" transform="translate(-52.544 -50.901)" fill="aqua" fill-rule="evenodd"/><path d="M53.55,51.931c.047-.019.138.035.2.119s.08.164.03.183-.14-.037-.206-.119S53.5,51.948,53.55,51.931Z" transform="translate(-52.476 -50.829)" fill="#1e00ff" fill-rule="evenodd"/></g><path d="M53.022,53.215c-1.053-.2-1.806-.285-2.038-.608l-.105-.15c-.267,0-.7.058-.693.3.04,1.605,1.8,6.317,4.059,7.995a12.147,12.147,0,0,0,2.569.442c.73-.019.688-.409.3-1.434l-1.708-4.546C54.84,53.859,54.592,53.517,53.022,53.215Z" transform="translate(-45.987 -40.468)" fill="#db9669" fill-rule="evenodd"/></g><g transform="translate(39.91)"><path d="M72.394,50.1c1.533-.615,5.044-1.254,6.437-1.9,3.049-1.4,3.278-4.52,4.839-8.25,2.84-1.263,3.961-2.5,4.506-4.043,1.3-3.662-.021-8.166-2.445-10.973A10.216,10.216,0,0,0,77.424,21.4c-6.607.094-10.192,4.345-11.643,9.747a3.71,3.71,0,0,0-.1,1.394c.117,1.17.489,1.755.583,2.555.166,1.425-.262,1.572-.559,2.368a15.892,15.892,0,0,0-.087,5.271c.129,1.24.445,5.99,1.448,6.645a13.425,13.425,0,0,0,2,.856C69.752,50.521,70.438,50.635,72.394,50.1Z" transform="translate(-65.449 -18.346)" fill="#f1b287" fill-rule="evenodd"/><path d="M71.812,50.1c1.533-.615,5.044-1.254,6.437-1.9,3.049-1.4,3.278-4.52,4.839-8.25,2.84-1.263,3.961-2.5,4.506-4.043,1.3-3.662-.021-8.166-2.445-10.973A10.216,10.216,0,0,0,76.842,21.4c-5.739.082-9.2,3.3-10.959,7.686.234.608,5.6,3.423,10.466,3.456.365,2.195-.711,4.006-.831,5.1-.028.267.657,1.561-.143,2.555-.218.271-.8.562-.728,1.065.517,3.379-3.234,7.808-5,9.214A8.538,8.538,0,0,0,71.812,50.1Z" transform="translate(-64.867 -18.346)" fill="#e8a476" fill-rule="evenodd"/><path d="M81.237,23.052c3.091,9-.082,13.159-5.854,18.14-.976-1.54-.583-2.829-.863-5.133-.353.718-.758,1.46-1.172,2.227l-.835-.484c.594-4.09-1.715-4.146-.938-6.533a9.757,9.757,0,0,0,1.051-2.581c.014-.487-.819-.351-1.533-.728C71.085,27.956,79.831,25.5,81.237,23.052Z" transform="translate(-57.888 -16.128)" fill="#8c5b3c" fill-rule="evenodd"/><path d="M74.956,27.9c2.606-.594,2.319,2.314,1.745,4.036-.4,1.182-1.385.987-1.848,1.907a2.3,2.3,0,0,1-2.244,1.432c-1.528-.2-.342-2.38-.066-3.264C72.52,30.514,73.3,28.28,74.956,27.9Z" transform="translate(-56.881 -9.734)" fill="#e8a476" fill-rule="evenodd"/><path d="M81.116,23.061c.7.54,1.252,3.39,1.266,5.147a3.79,3.79,0,0,0-1.364-2.368,5.71,5.71,0,0,1,.108,4.431c.061-1.427-.19-2.843-1.315-3.592a8.323,8.323,0,0,1-.037,6.2c.332-2.134-.194-4.464-1.577-5.55.728,1.6.145,3.421-.194,4.977a9.761,9.761,0,0,0-.959-4.373,7.231,7.231,0,0,1-.994,4.895,13.8,13.8,0,0,0-.594-4.722,6.992,6.992,0,0,1-.646,3.1,8.031,8.031,0,0,0-.608-2.742,3.35,3.35,0,0,1-1.743,3.072,6.338,6.338,0,0,0,.531-2.993c-.161-.545-.791-.232-1.9-.749C74.721,26.739,80.222,22.509,81.116,23.061Z" transform="translate(-57.9 -16.182)" fill="#4f2b0c" fill-rule="evenodd"/><path d="M88.025,27.13c.063-2.4-1.65-5.578-4.513-5.943a2.044,2.044,0,0,1,.915.618,15.965,15.965,0,0,0-14.581.356c-2.66,1.535-4.258,3.811-3.725,6.217.452,2.033,3.713,3.229,6.968,3.592C77.412,32.448,86.154,31.042,88.025,27.13Z" transform="translate(-64.686 -19.93)" fill="#361d07" fill-rule="evenodd"/><path d="M83.3,22.814a13.006,13.006,0,0,0-7.679-2.721,35.4,35.4,0,0,0-6.125.781,6.648,6.648,0,0,0,1.221.168,10.861,10.861,0,0,0-3.088,1.139,25.781,25.781,0,0,1,7.452-.5c-.215.138-.508.274-.978.538C78,21.64,80.555,21.642,83.3,22.814Z" transform="translate(-62.522 -20.093)" fill="#4a2b12" fill-rule="evenodd"/><path d="M88.306,25.689a5.79,5.79,0,0,0-.187-1.57c-.971,1.226-2.169.47-3.613.545a2.637,2.637,0,0,0,1.343.276,8.092,8.092,0,0,1-6.142.957c.2.426.4.512,1.1.749A11.192,11.192,0,0,1,74.447,25.1a9.044,9.044,0,0,0,.814,1.058c-1.869-.936-2.642-1.865-4.579-2.511a8.111,8.111,0,0,1,.793.882,4.426,4.426,0,0,1-2.707-3.243c-2.351.533-3.212,4.071-2.9,5.6.505,2.422,5.48,3.411,7.5,3.636C77.692,31.007,86.434,29.6,88.306,25.689Z" transform="translate(-64.966 -18.489)" fill="#4a2b12" fill-rule="evenodd"/><path d="M88.3,24.906c0-.117,0-.239,0-.363a4.134,4.134,0,0,1-3.269,1.628,1.57,1.57,0,0,0,1.1.119,10.071,10.071,0,0,1-6.87,1.135c.2.426.4.512,1.1.749a13.062,13.062,0,0,1-6.87-1.628A9.617,9.617,0,0,0,74.31,27.6c-1.869-.936-2.651-1.853-4.588-2.5a7.654,7.654,0,0,1,.791.882c-1.125-.391-3.3-1.968-3.135-4.111a6.313,6.313,0,0,0-1.565,3.69,3.227,3.227,0,0,0,.056.545c.505,2.422,5.48,3.411,7.5,3.636C77.689,30.225,86.43,28.818,88.3,24.906Z" transform="translate(-64.962 -17.706)" fill="#361d07" fill-rule="evenodd"/><path d="M88.295,23.7c0-.117,0-.117,0-.241a2.973,2.973,0,0,1-2.438,1.483,2.6,2.6,0,0,0,1.118-.044c-1.341,1-4.2,2.3-6.395,1.827a6.6,6.6,0,0,0,1.409.54c-1.872.337-4.785.8-6.935-.342a9.389,9.389,0,0,0,.814,1.055c-2.2-.648-2.5-1.565-4.434-2.387a5.8,5.8,0,0,1,1.32,1.628c-1.128-.391-5.772-1.306-6.282-4.441a2.469,2.469,0,0,0-.608,2.122c.447,2.431,5.48,3.411,7.5,3.636C77.681,29.015,86.423,27.609,88.295,23.7Z" transform="translate(-64.955 -16.497)" fill="#241304" fill-rule="evenodd"/></g></g></g></g></svg>