<svg xmlns="http://www.w3.org/2000/svg" width="352" height="338.372" viewBox="0 0 352 338.372"><g transform="translate(-544 -1692)"><rect width="24" height="24" rx="12" transform="translate(636.579 1798)" fill="#24305e"/><rect width="16" height="16" rx="8" transform="translate(660.579 1832)" fill="#24305e"/><rect width="352" height="96" rx="48" transform="translate(544 1692)" fill="#fff"/><path d="M48,5A43.013,43.013,0,0,0,31.264,87.623,42.726,42.726,0,0,0,48,91H304A43.013,43.013,0,0,0,320.736,8.377,42.726,42.726,0,0,0,304,5H48m0-5H304a48,48,0,0,1,0,96H48A48,48,0,0,1,48,0Z" transform="translate(544 1692)" fill="#24305e"/><text transform="translate(720 1749)" fill="#333" font-size="20" font-family="NotoSansJP-Black, Noto Sans JP" font-weight="800" letter-spacing="0.06em"><tspan x="-138.22" y="0">SNSでファンを獲得したい…</tspan></text><g transform="translate(591.578 1905.967)"><g transform="translate(0 0)"><path d="M15.077,31.1c-.881-3.471-1.936-7.466-.247-10.873,1.632-3.293,5.832-4.468,9.1-5.43,1.732-.51,3.546-.943,5.24-.077a10.106,10.106,0,0,1,3.448,3.264,24.484,24.484,0,0,1,4.452,9.763,10.089,10.089,0,0,1-2.64,9.021,9.852,9.852,0,0,1-8.084,2.856,10.553,10.553,0,0,1-7.63-4.926,11.1,11.1,0,0,1-.773-9.5,7.721,7.721,0,0,1,2.878-3.883,8.784,8.784,0,0,1,5.118-.946A5.413,5.413,0,0,1,30.348,22.3a8,8,0,0,1,1.177,4.255,21.1,21.1,0,0,1-2.466,10.8c-1.3,2.408-4.363,5.7-7.185,3.319a9.833,9.833,0,0,1-2.355-3.637,11.957,11.957,0,0,1-1.437-5.279,3.777,3.777,0,0,1,2.9-3.508c1.418-.5,3.2-1.156,4.706-.646a2.858,2.858,0,0,1,1.619,3.362,6.606,6.606,0,0,1-2.683,3.782,26.8,26.8,0,0,1-9.816,4.883c-1.7.436-3.677.842-5.368.174A9.488,9.488,0,0,1,5.7,36.531a17.142,17.142,0,0,1-3.26-8.215,16.793,16.793,0,0,1,1.268-8.874A9.912,9.912,0,0,1,6.6,15.488a10.119,10.119,0,0,1,4.752-1.665c3.277-.431,7.043-.536,10.121.84a9.987,9.987,0,0,1,5.482,7.129,15.806,15.806,0,0,1-1.673,10.337c-1.561,3.138-3.754,6.349-6.949,7.991a7.57,7.57,0,0,1-9.209-1.534,11.832,11.832,0,0,1-3.04-8.476c.137-6.742,4.564-12.229,10.14-15.57a41.189,41.189,0,0,1,9.466-4.005c3.542-1.054,7.429-2.106,11.059-.861,6.109,2.1,10.161,9.733,8.732,15.972-1.473,6.428-8.375,9.16-14.3,9.8-3.487.374-6.934-.043-9.34-2.826a15.235,15.235,0,0,1-3.182-8.369,13.74,13.74,0,0,1,.387-5.582,17.951,17.951,0,0,1,2.612-4.7c1.764-2.518,3.765-5.561,6.843-6.562,3.352-1.09,7.439.4,10.265,2.251a10.713,10.713,0,0,1,5.074,8.321,7.035,7.035,0,0,1-1.373,4.661c-1.132,1.4-2.957,1.985-4.6,2.551A47.227,47.227,0,0,1,26.3,27.635q-1.427.116-2.857.147a8.052,8.052,0,0,1-2.869-.168c-1.472-.551-2.506-2.551-3.221-3.85a19.052,19.052,0,0,1-2.317-9.619c.082-3.236.958-6.866,3.246-9.274a9.168,9.168,0,0,1,8.427-2.386c6.7,1.3,10.832,8.177,12.25,14.381.748,3.272.443,7.314-2.451,9.507a12.054,12.054,0,0,1-5.223,1.764,15.138,15.138,0,0,1-5.781.239c-3.307-.764-5.5-4.61-5.7-7.795a7.723,7.723,0,0,1,4.236-7.486c2.984-1.44,6.489-.137,8.78,1.987,2.673,2.477,4.231,6,5.515,9.346,2.6,6.776,3.772,14.977-.714,21.262-3.393,4.752-9.5,6.964-15.173,6.955-2.876,0-6.741-.344-8.891-2.477a10.321,10.321,0,0,1-2.25-4.278,43.338,43.338,0,0,1-1.51-5.73c-.614-3.443-.419-7.07,1.57-10.046a7.092,7.092,0,0,1,7.656-3.19,10.419,10.419,0,0,1,6.863,6.436,19.455,19.455,0,0,1,1.23,4.847,11.964,11.964,0,0,1-.1,5.082c-.508,1.576-1.9,2.356-3.343,2.965-1.542.652-3.492,1.591-5.174.933a6.259,6.259,0,0,1-2.878-3.056,29.221,29.221,0,0,1-2.093-4.894c-1.041-3.173-1.429-7.055.771-9.861,2-2.548,5.541-3.1,8.584-3.013,3.268.1,6.593,1.043,8.645,3.754,1.817,2.4,2.509,5.529,2.807,8.468.291,2.882.982,7.061-2.392,8.311a20.774,20.774,0,0,1-5.3,1.013,14.068,14.068,0,0,1-5.465-.434,7.793,7.793,0,0,1-3.88-2.559A10.968,10.968,0,0,1,15.52,40.1c-.657-3.579-1.422-7.542-.11-11.063,1.264-3.39,4.318-4.658,7.709-4.97,1.877-.173,3.772-.2,5.655-.236a55.357,55.357,0,0,1,5.923.019c3.461.319,6.3,3.534,8.314,6.126A23.233,23.233,0,0,1,47.5,38.941a5.183,5.183,0,0,1-.469,4.118c-.948,1.287-2.83,1.5-4.285,1.784-3.041.586-6.544,1.188-9.493-.1-3.149-1.374-4.7-4.978-5.791-8.015a31.4,31.4,0,0,1-1.836-10.824,1.149,1.149,0,0,0-2.3,0,33.465,33.465,0,0,0,2.659,13.31c1.585,3.723,3.845,7.163,8,8.182a16.718,16.718,0,0,0,5.916.21,31.549,31.549,0,0,0,5.763-1.082A5.826,5.826,0,0,0,49.6,43.042a8.939,8.939,0,0,0-.053-5.385,27.32,27.32,0,0,0-5.817-10.4,23.207,23.207,0,0,0-4.658-4.227A10.557,10.557,0,0,0,33.039,21.5c-2.425,0-4.854.023-7.277.119a25.031,25.031,0,0,0-6.227.78,9.9,9.9,0,0,0-6.92,8.314,23.115,23.115,0,0,0,.2,6.963,27.56,27.56,0,0,0,1.4,6.374c1.529,3.778,5.124,5.759,9.049,6.161a24.593,24.593,0,0,0,7.039-.534c1.8-.339,3.736-.865,4.99-2.291a7.761,7.761,0,0,0,1.537-5.419,37.855,37.855,0,0,0-.5-5.65c-.575-3.448-1.881-7.031-4.637-9.337-3.144-2.629-7.6-3.271-11.575-2.8-3.816.45-7.335,2.261-8.873,5.951-1.686,4.046-.587,8.427,1.05,12.291,1.378,3.252,3.38,7.356,7.511,7.278a14.521,14.521,0,0,0,5.957-1.9A6.6,6.6,0,0,0,29.3,43.616a15.333,15.333,0,0,0,.018-6.029A20.879,20.879,0,0,0,27.67,31.76a12.3,12.3,0,0,0-8.6-7.175,9.4,9.4,0,0,0-9.382,3.923c-2.538,3.448-2.852,7.8-2.176,11.9a41.392,41.392,0,0,0,1.712,6.514,11.7,11.7,0,0,0,2.915,5.07c2.743,2.486,7.149,3,10.708,2.944,7-.114,14.268-3.323,17.735-9.657,4.426-8.093,1.947-17.845-1.839-25.659-1.78-3.672-4.344-7.113-8.241-8.679a9.221,9.221,0,0,0-10.424,2.3,10.434,10.434,0,0,0-1.9,10.612c1.48,4.014,4.823,7.052,9.241,6.971a29.094,29.094,0,0,0,6.691-.951,9.468,9.468,0,0,0,5.23-3.1c2.718-3.391,2.669-7.924,1.463-11.908C38.59,7.564,33.11.094,24.778,0a10.95,10.95,0,0,0-9.531,5.066,18.576,18.576,0,0,0-2.411,11.652,21.2,21.2,0,0,0,4.28,10.848A6.6,6.6,0,0,0,19.384,29.6a7.163,7.163,0,0,0,3.161.491,50.364,50.364,0,0,0,6.9-.515,48.594,48.594,0,0,0,6.813-1.466,23.3,23.3,0,0,0,6.208-2.444c3.5-2.287,4.338-6.924,3.147-10.722a14.33,14.33,0,0,0-8.07-8.559C33.759,4.7,29.23,3.907,25.565,6.3a17.235,17.235,0,0,0-4.129,4.076,42.1,42.1,0,0,0-3.446,5.039C15.9,19.17,15.9,23.527,16.925,27.62c.858,3.415,2.65,6.811,5.731,8.7,3.624,2.219,8.326,1.721,12.281.8A19.131,19.131,0,0,0,44.5,32.109,13.137,13.137,0,0,0,47.954,21.5c-.911-8.055-7.613-15.365-16.1-14.629a41.667,41.667,0,0,0-12.5,3.51A30,30,0,0,0,9.292,17.108C4.225,22.467,1.763,31.214,5.74,37.9c1.973,3.317,5.523,5.787,9.5,5.454,4.341-.364,7.708-3.327,10.081-6.776a21.75,21.75,0,0,0,4.213-12.245,13.4,13.4,0,0,0-4.3-9.961c-3.193-2.748-7.5-3.244-11.563-3.039s-8.029,1.04-10.552,4.514c-4.35,5.989-3.961,14.86-.037,20.938a15.916,15.916,0,0,0,3.741,4.141,8.075,8.075,0,0,0,5.969,1.424,27.541,27.541,0,0,0,12.139-4.989c2.989-2.075,5.932-5.487,4.269-9.353-1.718-4-6.683-2.96-9.846-1.571a5.7,5.7,0,0,0-3.478,4.442c-.353,2.255.419,4.386,1.278,6.436,1.295,3.088,3.381,6.812,7.3,6.461,4.146-.371,6.586-4.686,7.893-8.157,1.413-3.751,2.2-8.547.931-12.45a6.844,6.844,0,0,0-3.405-4.2,11.756,11.756,0,0,0-6.009-.861,8.706,8.706,0,0,0-5.589,2.332,11.615,11.615,0,0,0-2.827,5.011A13.209,13.209,0,0,0,17.288,36.7a12.98,12.98,0,0,0,9.471,5.266A12.155,12.155,0,0,0,36.612,37.8a12.686,12.686,0,0,0,2.613-10.977,26.479,26.479,0,0,0-5.612-11.286,10.014,10.014,0,0,0-4.459-3.294c-2.16-.713-4.425-.1-6.515.551-3.785,1.185-8.133,2.689-9.921,6.549-1.839,3.971-.884,8.324.144,12.374a1.15,1.15,0,0,0,2.215-.611" transform="translate(0 0)" fill="#cdd3da"/></g></g><g transform="translate(822 1812.53)"><g transform="translate(0 0)"><path d="M15.077,31.1c-.881-3.471-1.936-7.466-.247-10.873,1.632-3.293,5.832-4.468,9.1-5.43,1.732-.51,3.546-.943,5.24-.077a10.106,10.106,0,0,1,3.448,3.264,24.484,24.484,0,0,1,4.452,9.763,10.089,10.089,0,0,1-2.64,9.021,9.852,9.852,0,0,1-8.084,2.856,10.553,10.553,0,0,1-7.63-4.926,11.1,11.1,0,0,1-.773-9.5,7.721,7.721,0,0,1,2.878-3.883,8.784,8.784,0,0,1,5.118-.946A5.413,5.413,0,0,1,30.348,22.3a8,8,0,0,1,1.177,4.255,21.1,21.1,0,0,1-2.466,10.8c-1.3,2.408-4.363,5.7-7.185,3.319a9.833,9.833,0,0,1-2.355-3.637,11.957,11.957,0,0,1-1.437-5.279,3.777,3.777,0,0,1,2.9-3.508c1.418-.5,3.2-1.156,4.706-.646a2.858,2.858,0,0,1,1.619,3.362,6.606,6.606,0,0,1-2.683,3.782,26.8,26.8,0,0,1-9.816,4.883c-1.7.436-3.677.842-5.368.174A9.488,9.488,0,0,1,5.7,36.531a17.142,17.142,0,0,1-3.26-8.215,16.793,16.793,0,0,1,1.268-8.874A9.912,9.912,0,0,1,6.6,15.488a10.119,10.119,0,0,1,4.752-1.665c3.277-.431,7.043-.536,10.121.84a9.987,9.987,0,0,1,5.482,7.129,15.806,15.806,0,0,1-1.673,10.337c-1.561,3.138-3.754,6.349-6.949,7.991a7.57,7.57,0,0,1-9.209-1.534,11.832,11.832,0,0,1-3.04-8.476c.137-6.742,4.564-12.229,10.14-15.57a41.189,41.189,0,0,1,9.466-4.005c3.542-1.054,7.429-2.106,11.059-.861,6.109,2.1,10.161,9.733,8.732,15.972-1.473,6.428-8.375,9.16-14.3,9.8-3.487.374-6.934-.043-9.34-2.826a15.235,15.235,0,0,1-3.182-8.369,13.74,13.74,0,0,1,.387-5.582,17.951,17.951,0,0,1,2.612-4.7c1.764-2.518,3.765-5.561,6.843-6.562,3.352-1.09,7.439.4,10.265,2.251a10.713,10.713,0,0,1,5.074,8.321,7.035,7.035,0,0,1-1.373,4.661c-1.132,1.4-2.957,1.985-4.6,2.551A47.227,47.227,0,0,1,26.3,27.635q-1.427.116-2.857.147a8.052,8.052,0,0,1-2.869-.168c-1.472-.551-2.506-2.551-3.221-3.85a19.052,19.052,0,0,1-2.317-9.619c.082-3.236.958-6.866,3.246-9.274a9.168,9.168,0,0,1,8.427-2.386c6.7,1.3,10.832,8.177,12.25,14.381.748,3.272.443,7.314-2.451,9.507a12.054,12.054,0,0,1-5.223,1.764,15.138,15.138,0,0,1-5.781.239c-3.307-.764-5.5-4.61-5.7-7.795a7.723,7.723,0,0,1,4.236-7.486c2.984-1.44,6.489-.137,8.78,1.987,2.673,2.477,4.231,6,5.515,9.346,2.6,6.776,3.772,14.977-.714,21.262-3.393,4.752-9.5,6.964-15.173,6.955-2.876,0-6.741-.344-8.891-2.477a10.321,10.321,0,0,1-2.25-4.278,43.338,43.338,0,0,1-1.51-5.73c-.614-3.443-.419-7.07,1.57-10.046a7.092,7.092,0,0,1,7.656-3.19,10.419,10.419,0,0,1,6.863,6.436,19.455,19.455,0,0,1,1.23,4.847,11.964,11.964,0,0,1-.1,5.082c-.508,1.576-1.9,2.356-3.343,2.965-1.542.652-3.492,1.591-5.174.933a6.259,6.259,0,0,1-2.878-3.056,29.221,29.221,0,0,1-2.093-4.894c-1.041-3.173-1.429-7.055.771-9.861,2-2.548,5.541-3.1,8.584-3.013,3.268.1,6.593,1.043,8.645,3.754,1.817,2.4,2.509,5.529,2.807,8.468.291,2.882.982,7.061-2.392,8.311a20.774,20.774,0,0,1-5.3,1.013,14.068,14.068,0,0,1-5.465-.434,7.793,7.793,0,0,1-3.88-2.559A10.968,10.968,0,0,1,15.52,40.1c-.657-3.579-1.422-7.542-.11-11.063,1.264-3.39,4.318-4.658,7.709-4.97,1.877-.173,3.772-.2,5.655-.236a55.357,55.357,0,0,1,5.923.019c3.461.319,6.3,3.534,8.314,6.126A23.233,23.233,0,0,1,47.5,38.941a5.183,5.183,0,0,1-.469,4.118c-.948,1.287-2.83,1.5-4.285,1.784-3.041.586-6.544,1.188-9.493-.1-3.149-1.374-4.7-4.978-5.791-8.015a31.4,31.4,0,0,1-1.836-10.824,1.149,1.149,0,0,0-2.3,0,33.465,33.465,0,0,0,2.659,13.31c1.585,3.723,3.845,7.163,8,8.182a16.718,16.718,0,0,0,5.916.21,31.549,31.549,0,0,0,5.763-1.082A5.826,5.826,0,0,0,49.6,43.042a8.939,8.939,0,0,0-.053-5.385,27.32,27.32,0,0,0-5.817-10.4,23.207,23.207,0,0,0-4.658-4.227A10.557,10.557,0,0,0,33.039,21.5c-2.425,0-4.854.023-7.277.119a25.031,25.031,0,0,0-6.227.78,9.9,9.9,0,0,0-6.92,8.314,23.115,23.115,0,0,0,.2,6.963,27.56,27.56,0,0,0,1.4,6.374c1.529,3.778,5.124,5.759,9.049,6.161a24.593,24.593,0,0,0,7.039-.534c1.8-.339,3.736-.865,4.99-2.291a7.761,7.761,0,0,0,1.537-5.419,37.855,37.855,0,0,0-.5-5.65c-.575-3.448-1.881-7.031-4.637-9.337-3.144-2.629-7.6-3.271-11.575-2.8-3.816.45-7.335,2.261-8.873,5.951-1.686,4.046-.587,8.427,1.05,12.291,1.378,3.252,3.38,7.356,7.511,7.278a14.521,14.521,0,0,0,5.957-1.9A6.6,6.6,0,0,0,29.3,43.616a15.333,15.333,0,0,0,.018-6.029A20.879,20.879,0,0,0,27.67,31.76a12.3,12.3,0,0,0-8.6-7.175,9.4,9.4,0,0,0-9.382,3.923c-2.538,3.448-2.852,7.8-2.176,11.9a41.392,41.392,0,0,0,1.712,6.514,11.7,11.7,0,0,0,2.915,5.07c2.743,2.486,7.149,3,10.708,2.944,7-.114,14.268-3.323,17.735-9.657,4.426-8.093,1.947-17.845-1.839-25.659-1.78-3.672-4.344-7.113-8.241-8.679a9.221,9.221,0,0,0-10.424,2.3,10.434,10.434,0,0,0-1.9,10.612c1.48,4.014,4.823,7.052,9.241,6.971a29.094,29.094,0,0,0,6.691-.951,9.468,9.468,0,0,0,5.23-3.1c2.718-3.391,2.669-7.924,1.463-11.908C38.59,7.564,33.11.094,24.778,0a10.95,10.95,0,0,0-9.531,5.066,18.576,18.576,0,0,0-2.411,11.652,21.2,21.2,0,0,0,4.28,10.848A6.6,6.6,0,0,0,19.384,29.6a7.163,7.163,0,0,0,3.161.491,50.364,50.364,0,0,0,6.9-.515,48.594,48.594,0,0,0,6.813-1.466,23.3,23.3,0,0,0,6.208-2.444c3.5-2.287,4.338-6.924,3.147-10.722a14.33,14.33,0,0,0-8.07-8.559C33.759,4.7,29.23,3.907,25.565,6.3a17.235,17.235,0,0,0-4.129,4.076,42.1,42.1,0,0,0-3.446,5.039C15.9,19.17,15.9,23.527,16.925,27.62c.858,3.415,2.65,6.811,5.731,8.7,3.624,2.219,8.326,1.721,12.281.8A19.131,19.131,0,0,0,44.5,32.109,13.137,13.137,0,0,0,47.954,21.5c-.911-8.055-7.613-15.365-16.1-14.629a41.667,41.667,0,0,0-12.5,3.51A30,30,0,0,0,9.292,17.108C4.225,22.467,1.763,31.214,5.74,37.9c1.973,3.317,5.523,5.787,9.5,5.454,4.341-.364,7.708-3.327,10.081-6.776a21.75,21.75,0,0,0,4.213-12.245,13.4,13.4,0,0,0-4.3-9.961c-3.193-2.748-7.5-3.244-11.563-3.039s-8.029,1.04-10.552,4.514c-4.35,5.989-3.961,14.86-.037,20.938a15.916,15.916,0,0,0,3.741,4.141,8.075,8.075,0,0,0,5.969,1.424,27.541,27.541,0,0,0,12.139-4.989c2.989-2.075,5.932-5.487,4.269-9.353-1.718-4-6.683-2.96-9.846-1.571a5.7,5.7,0,0,0-3.478,4.442c-.353,2.255.419,4.386,1.278,6.436,1.295,3.088,3.381,6.812,7.3,6.461,4.146-.371,6.586-4.686,7.893-8.157,1.413-3.751,2.2-8.547.931-12.45a6.844,6.844,0,0,0-3.405-4.2,11.756,11.756,0,0,0-6.009-.861,8.706,8.706,0,0,0-5.589,2.332,11.615,11.615,0,0,0-2.827,5.011A13.209,13.209,0,0,0,17.288,36.7a12.98,12.98,0,0,0,9.471,5.266A12.155,12.155,0,0,0,36.612,37.8a12.686,12.686,0,0,0,2.613-10.977,26.479,26.479,0,0,0-5.612-11.286,10.014,10.014,0,0,0-4.459-3.294c-2.16-.713-4.425-.1-6.515.551-3.785,1.185-8.133,2.689-9.921,6.549-1.839,3.971-.884,8.324.144,12.374a1.15,1.15,0,0,0,2.215-.611" transform="translate(0 0)" fill="#cdd3da"/></g></g><ellipse cx="51.171" cy="23.584" rx="51.171" ry="23.584" transform="translate(668.829 1983.203)" fill="#cdd3da" opacity="0.5"/><g transform="translate(511.878 1590.812)"><g transform="translate(221.377 274.375)"><path d="M205.069,236.8a10.173,10.173,0,0,0,3.7-.259c3.649-.417,6.417-.062,8.719,1.262.555.321-1.581,6.171-4.123,8.023-.121.09-.285-.056-.409-.1l-2.373-.752-6.428-2.15Z" transform="translate(-178.853 -230.397)" fill="#db9669" fill-rule="evenodd"/><path d="M205.235,237.476c2.33-.4,3.906-1.432,5.225-1.462,1.353-.034,3.3,1.057,5.746,1.3-.448,2.443-3.655.848-4.822,1.071-1.074.206-1.136,1.51-2.139,1.539C207.667,239.973,205.393,239.209,205.235,237.476Z" transform="translate(-176.886 -231.062)" fill="#db9669" fill-rule="evenodd"/><path d="M195.986,244.92c10.362,1.8,15.5,1.271,25.974,2.285-1.15-3.987.989-7.555,2.59-7.941-8.854-1.843-19.591-4.791-28.733-4.754Z" transform="translate(-194.008 -233.794)" fill="#cee6f5" fill-rule="evenodd"/><path d="M195.175,245.664c10.359,1.8,15.981,1.195,26.45,2.207-1.474-4.241.775-8.488,2.626-8.854-8.851-1.843-19.588-4.793-28.733-4.76Z" transform="translate(-195.175 -234.256)" fill="#004a85" fill-rule="evenodd"/><path d="M214.318,240.631c1.026-1.026,1.206-1.846,2.392-3.238-7.062-1.575-14.642-3.159-21.361-3.136l-.082,2.7C198.08,237.4,207.332,239.486,214.318,240.631Z" transform="translate(-195.006 -234.256)" fill="#035993" fill-rule="evenodd"/><path d="M195.175,242.754c10.359,1.8,15.981,1.195,26.45,2.207a8.734,8.734,0,0,1-.206-5.008c-6.366-.375-17.5-2.694-25.72-4.1Z" transform="translate(-195.175 -231.347)" fill="#034470" fill-rule="evenodd"/></g><g transform="translate(188.153 302.601)"><g transform="translate(1.855 107.671)"><path d="M185.229,282.48c-.651,1.9-1.243,3.362-1.181,4.554.062,1.234.4,2.435.38,4-.011,1.339-.082,2.474-.234,3.99-.161,1.55,0,2.283.682,2.9a23.761,23.761,0,0,0,5.954,3.089,6.215,6.215,0,0,0,2.731.366,12.155,12.155,0,0,0,3.661-.665c.335-.127.682-1.434.7-2.567.054-2.37-.163-2.17-1.144-5.932-.335-1.285-.606-2.511-1.068-4.01a21.389,21.389,0,0,1-1.364-5.351l-6.947-.271Z" transform="translate(-184.043 -282.48)" fill="#111214" fill-rule="evenodd"/><path d="M185.229,282.48c-.651,1.9-1.243,3.362-1.181,4.554.062,1.234.4,2.435.38,4-.011,1.339-.082,2.474-.234,3.99-.161,1.55,0,2.283.682,2.9a23.761,23.761,0,0,0,5.954,3.089,6.215,6.215,0,0,0,2.731.366,12.155,12.155,0,0,0,3.661-.665c.3-.116.617-1.2.69-2.24l-.02,0c-2.122.724-4.182,1.015-6.222.017-4.306-2.1-3.745-3.849-3.342-8.815,2.8-.49,3.9-.992,5.323-2.525-2.387.7-4.954.826-6.225-.631l-.395-3.951Z" transform="translate(-184.043 -282.48)" fill-rule="evenodd"/><path d="M190.566,284.272c-2.012,1.584-1.308,2.28-4.241,2.66a16.476,16.476,0,0,0,2.285,5.721c.118,1.1.209,2.556,2.362,2.57,4.021.025,1.231-3.294,1.217-3.418A33.317,33.317,0,0,0,190.566,284.272Z" transform="translate(-179.895 -279.222)" fill="#20232e" fill-rule="evenodd"/></g><g transform="translate(19.05 91.493)"><path d="M203.429,277.37c.744,2.624.933,3.979,2.023,5.5,2.173,3.043,5.374,5.219,10.038,8.525,2.218,1.572,2.688,3.063.44,4.436-1.767,1.079-6.1.223-8.8-.414-5.072-1.195-7.124-4.247-8.857-5.041l-1.313.3c-1.076.023-5.3-1.685-6.126-2.79a30.243,30.243,0,0,1-.665-3.931c-.155-4.295.519-3.855,1.665-7.214C195.738,277.021,199.517,277.241,203.429,277.37Z" transform="translate(-190.145 -276.739)" fill="#111214" fill-rule="evenodd"/><path d="M217.4,293.867c.023.679-.437,1.336-1.471,1.967-1.767,1.079-6.1.22-8.8-.414-5.072-1.195-7.124-4.247-8.857-5.041l-1.313.3c-1.076.023-5.3-1.685-6.126-2.79a30.243,30.243,0,0,1-.665-3.931c-.155-4.295.519-3.855,1.665-7.214,1.727.124,3.432.237,5.134.335.307,2.827-.107,7.7,2.221,9.516,2.6,2.029,4.63,2.57,6.369,3.627C211.094,293.582,214.749,296.319,217.4,293.867Z" transform="translate(-190.145 -276.739)" fill-rule="evenodd"/><path d="M197.513,278.674c-.552.817-1.64,1.277-3.438,1.727,2.9,3.269,3.308,2.965,7.206,5.154,1.964,2.243,2.238,2.669,3.489,3.39,1.5.865,3.61,1.753,4.5,1.116.383-.276-.132-1.043-1.781-2.238-1.868-1.353-3.771-2.728-5.489-4.159A20.25,20.25,0,0,1,197.513,278.674Z" transform="translate(-183.001 -273.221)" fill="#20232e" fill-rule="evenodd"/></g><g transform="translate(17.221)"><path d="M190.084,264.663a62.132,62.132,0,0,1-.555-10.018c3.162-1.265,6.484-2.46,9.688-3.863l-.228-.192c3.4-1.6,6.326-4.072,10.243-6.318,1.637,5.16,2.246,7.471,2.122,11.669a129.149,129.149,0,0,1-1.837,16.6c-.572,8.5-1.336,17.376-1.885,23.184-1.406,14.812-1.234,29.426-2.122,44.212-1.835,3.013-10.689,3.2-13.715-1.037-.451-11.7-1.184-20.935-.854-27.335.276-5.329.53-8.4,2.252-13.135C192.046,290.547,190.5,276.042,190.084,264.663Z" transform="translate(-189.496 -244.272)" fill="#2a3c4a" fill-rule="evenodd"/><path d="M200.383,288.491c-2.905,13.724-3.928,27.355-2.074,47.67-2.671-.2-5.394-1.212-6.822-3.207-.451-11.7-1.184-20.935-.854-27.335.276-5.329.53-8.4,2.252-13.135-1.477-10.131-3.607-31.215-3.156-42.518l6.064-2.426C197.632,264.262,199.078,268.935,200.383,288.491Z" transform="translate(-189.188 -238.331)" fill="#23323d" fill-rule="evenodd"/><path d="M202.237,245.436a28.419,28.419,0,0,1-7.572,5.318c-.011,5.188-.006,14.795.189,24.4.023,6.132.719,12.075.882,17.7-.482,4-2.285,9.2-2.519,15.2a110.509,110.509,0,0,0,1.217,21.572c-.039,3.215-.059,6.42-.031,9.612a6.3,6.3,0,0,0,4.255-1.758l.237-36.378c.228-5.8,1.122-14.473,1.84-23.4C202.254,267.045,203.727,254.679,202.237,245.436Z" transform="translate(-182.895 -242.156)" fill="#3a4c59" fill-rule="evenodd"/></g><g transform="translate(0 6.279)"><path d="M205.236,266.635c-1.122,11.4-3.314,27.239-4.588,35.33-2.314,14.7-2.677,31.931-3.976,46.686-2.006,3.142-9.573,3.79-12.47-.118-.127-11.706-1.189-24.813-.679-31.2a40.43,40.43,0,0,1,3.165-13.231c-.29-9.125-5.05-46.6,1.234-53.954a5.5,5.5,0,0,1,1.186-1.665l9.161-.716,10.863-1.265a31.528,31.528,0,0,1-.076,12.9,2.088,2.088,0,0,1-.245.533c-.1.769-.242,1.544-.417,2.319C208.234,262.968,206.5,264.958,205.236,266.635Z" transform="translate(-183.385 -246.5)" fill="#2a3c4a" fill-rule="evenodd"/><path d="M204.2,262.665c-1.248,2.888-7.671,2.705-10.745,4.965-.155,6.938-1.1,25.348-1.761,33.154-1.291,15.307-4.207,28.062-1.9,48.385a7.453,7.453,0,0,1-5.591-2.683c-.127-11.706-1.189-24.813-.679-31.2a40.43,40.43,0,0,1,3.165-13.231c-.3-9.305-5.244-48.1,1.623-54.36,9.756,2.81,8.587,2.223,18.506-.07C206.473,252.8,205.9,258.705,204.2,262.665Z" transform="translate(-183.385 -244.455)" fill="#23323d" fill-rule="evenodd"/><path d="M189.771,256.906c-.62,11.717-.349,21.795-.51,30.716-1.257,17.049-2.5,32.3-3.311,48.574,1.485-.129,4.331-.794,5.12-1.51.89-13.307,1.756-33.565,3.415-46.072.338-2.556,2.263-22.2,4.266-34.49A21.74,21.74,0,0,1,189.771,256.906Z" transform="translate(-178.722 -232.638)" fill="#3a4c59" fill-rule="evenodd"/></g></g><path d="M200.988,260.049c.144,1.978.189,3.782.152,5.439a104.744,104.744,0,0,1-14.809-17.553c-2.362-6.645-4.5-13.307-4.452-18.032Z" transform="translate(2.03 32.204)" fill="#11101a" fill-rule="evenodd"/><path d="M221.9,279.424a1.677,1.677,0,0,1-.3.721c-3.359,4.684-24.435,11.737-28.845,11.371,3.5-30.432-28.372-56.341,5.777-66.373l9.826,5.408,3.514-.631.451-4.326c4.757,4.729,6.955,10.99,7.8,19.7C221.226,256.694,218.833,266.917,221.9,279.424Z" transform="translate(3.311 23.552)" fill="#cee6f5" fill-rule="evenodd"/><path d="M206.378,288.154c-5.842,2.077-11.562,3.534-13.628,3.362,3.5-30.432-28.372-56.341,5.777-66.373l9.826,5.408,3.514-.631-.037-4.464c2.091,2.08,2.3,4.607,3.5,7.358l-.282.31c-2.564-.812-2.032-1.86-3.353-1.277-1.091.479-2.336,2.2-2.719,4.917-1.55-.386-4.5-1.5-6.042-1.939,5.692,8.488,11,26.729,7.017,45.779C209.461,282.972,207.446,285.711,206.378,288.154Z" transform="translate(3.311 23.552)" fill="#b8d4e6" fill-rule="evenodd"/><path d="M189.206,230.148c1.835-1.02,5.577-3.311,9.609-5.563-3.4,4.069,12.337,4.286,16.145,16.485,2.249,7.2,3.607,36.237,1.784,58.649-12.551,4.221-29.984,2.922-31.207,1.742,1.623-13.293,6.194-15.223,6.563-23.491.341-7.6-10.387-27.87-10.289-38.365C181.857,234.95,185.776,232.05,189.206,230.148Z" transform="translate(1.906 22.537)" fill="#004a85" fill-rule="evenodd"/><path d="M189.206,229.9l9.342-5.182c-1.395,2.235-5.112,4.633-9.122,8.02a18.287,18.287,0,0,1,5.18,9.145c2.111,8.344,5.337,19.323,5.893,26.954,1.479,20.377-9,21.972-9.052,36.043a21.633,21.633,0,0,1-5.892-3.585c1.355-12.8,5.907-14.223,6.546-23.573.521-7.592-10.387-27.87-10.289-38.365C181.857,234.7,185.776,231.8,189.206,229.9Z" transform="translate(1.906 22.783)" fill="#004a85" fill-rule="evenodd"/><g transform="translate(194.31 299.845)"><path d="M188,243.777a35.843,35.843,0,0,1,9.739,1.432l-2.81,10.77c-2.66.854-6.27.231-9.361-1.386Z" transform="translate(-185.57 -242.416)" fill="#004a85" fill-rule="evenodd"/><path d="M188,243.777a35.843,35.843,0,0,1,9.739,1.432c-.865,3.21-.592,3.2-4.1,3.1-6.273-.192-4.413.674-7.13,6.738-.121.268-.631-.293-.938-.451Z" transform="translate(-185.57 -242.416)" fill="#034470" fill-rule="evenodd"/><path d="M187.342,243.294c4.613.273,6.7.1,10.111.4l-1.274,4.272c-1.22.5-7.406.676-9.993-.848Z" transform="translate(-184.448 -243.294)" fill="#004a85" fill-rule="evenodd"/><path d="M187.342,243.294c4.613.273,6.7.1,10.111.4-3.435.936-9.015.09-10.342,3.849a5.5,5.5,0,0,1-.924-.426Z" transform="translate(-184.448 -243.294)" fill="#034470" fill-rule="evenodd"/><path d="M195.074,245.61l-5.842.411-2.846,5.518a19.866,19.866,0,0,0,6.36.936Z" transform="translate(-184.087 -239.083)" fill="#035993" fill-rule="evenodd"/><path d="M195.414,243.624c-2.762.578-6.639,1.378-8.406,3.238a20.405,20.405,0,0,0,7.1.175A15.947,15.947,0,0,0,195.414,243.624Z" transform="translate(-182.956 -242.694)" fill="#035993" fill-rule="evenodd"/></g><path d="M196.822,222.55c3.658-.231,5.3.533,7.228,3.4,3.368,5.022,3.895,15.708,3.655,25.342-.132,5.456-1,10.252-1.065,17.032-.082,8.127,2.39,22.431,1.992,31.029-.736,1.589-10.359,4.264-11.044,4.131a304.631,304.631,0,0,0,.744-31.432,206.991,206.991,0,0,0-2.528-27.724c-1.959-12.991-3.917-18.779-3.362-20.5C192.555,223.488,196.613,222.564,196.822,222.55Z" transform="translate(21.061 18.767)" fill="#004a85" fill-rule="evenodd"/><g transform="translate(200.103 233.275)"><path d="M187.635,233.327c-.324,3.8,10.091,8.784,14.059,6.837.417-.206.637-1.082.9-1.437a6.79,6.79,0,0,1-.392-2.545,11,11,0,0,1,.876-2.962c.473-1.285.49-4.007,1.31-7.022l-11.878-5.177-2.545-1.35C191.183,225.6,189.838,228.359,187.635,233.327Z" transform="translate(-187.622 -219.671)" fill="#e8a476" fill-rule="evenodd"/><path d="M187.638,233.327a1.652,1.652,0,0,0,.051.64c5.63-3.545,9.136-.575,15.739-2.339a43.4,43.4,0,0,1,.961-5.43l-11.878-5.177-2.545-1.35C191.186,225.6,189.842,228.359,187.638,233.327Z" transform="translate(-187.625 -219.671)" fill="#db9669" fill-rule="evenodd"/></g><g transform="translate(211.895 253.552)"><path d="M191.81,228.276c.423,2.4.516,2.4,2.573,4.159a10.684,10.684,0,0,0-.443,1.694l2.976,3.2,1.291-5a6.223,6.223,0,0,0-2.184-.758c.75-2.579.521-4.283.006-4.633A4.362,4.362,0,0,0,191.81,228.276Z" transform="translate(-191.81 -226.867)" fill="#0d4918" fill-rule="evenodd"/><path d="M195.186,234.775a8.4,8.4,0,0,0,.1-3.182c-2.037-2.009-1.8-3.956-2.316-4.306-1.928-.189.316-.685-1.155.671.423,2.4.516,2.4,2.573,4.159a9.612,9.612,0,0,0-.287,1.626" transform="translate(-191.81 -226.549)" fill="#07330d" fill-rule="evenodd"/></g><path d="M193.08,226.724c5.735,4.551,9.412,21.363,9.308,32.695-.149,16.392.014,25.965-.95,42.1a14,14,0,0,0,5.27-3.348c-.575-13.656-2.849-27.219-1.849-40.712.848-11.489,1.581-27.191-5.1-33.76C195.475,221.4,194.092,225.659,193.08,226.724Z" transform="translate(22.394 19.702)" fill="#035993" fill-rule="evenodd"/><g transform="translate(199.016 244.913)"><path d="M189.25,223.8c-.268,4.345,8.55,7.673,13.155,8.767-1.457.967-2.235,3.227-2.646,5.732-3.317-1.037-9.547-4.269-11.83-8.513A4.3,4.3,0,0,1,189.25,223.8Z" transform="translate(-187.24 -223.801)" fill="#cbf1fa" fill-rule="evenodd"/><path d="M194.746,227.156a34.045,34.045,0,0,0,3.923,1.13c-1.333.885-1.812,2.612-2.19,4.909a23.437,23.437,0,0,1-3.793-1.634C187.994,228.714,186.664,224.439,194.746,227.156Z" transform="translate(-184.181 -219.279)" fill="#e3faff" fill-rule="evenodd"/><path d="M192.6,230.842c.31-1.172.38-4.768,1.147-6.1,1.2.53,2.232,5.036,3.373,7.434A6.181,6.181,0,0,0,192.6,230.842Z" transform="translate(-177.493 -222.087)" fill="#cbf1fa" fill-rule="evenodd"/><path d="M192.677,228.29c.423-1.062.806-2.328,1.324-2.274.862.087,1.877,2.238,2.421,3.382A5.109,5.109,0,0,0,192.677,228.29Z" transform="translate(-177.355 -219.777)" fill="#e3faff" fill-rule="evenodd"/></g><path d="M190.056,224.106s-3.835,3.463-3.765,10.987c0,0,14.375.566,20.659,7.251,0,0-4.6-8.66-12.253-11.847S190.056,224.106,190.056,224.106Z" transform="translate(10.051 21.667)" fill="#001d4f" fill-rule="evenodd"/><path d="M194.738,243.11s.079-11.607-.789-13.724a13.727,13.727,0,0,1-.941-2.717l.724-2.984a6.881,6.881,0,0,1,3.627,1.9S197.151,237.113,194.738,243.11Z" transform="translate(22.263 20.901)" fill="#001d4f" fill-rule="evenodd"/><g transform="translate(181.122 255.979)"><path d="M183.621,231c-2.694,7.364-3.086,22.4-2.488,32.2.3,4.985.893,8.854,4.875,10,3.776,1.079,7.062-2.773,7.826-6.721.9-4.675,1.519-10.424,2.8-20.276C198.009,235.689,187.222,221.154,183.621,231Z" transform="translate(-180.89 -227.728)" fill="#004a85" fill-rule="evenodd"/><path d="M183.621,231c-2.694,7.364-3.086,22.4-2.488,32.2.3,4.985.893,8.854,4.875,10,2.545.727,4.87-.786,6.346-3.06-.62-.262-1.246-.533-1.877-.8-3.345-1.446-3.142-.662-3.3-4.219-.44-9.838.293-31.539,2.4-35.809a3.738,3.738,0,0,1,.273-.476C187.439,227.034,185,227.22,183.621,231Z" transform="translate(-180.89 -227.727)" fill="#034470" fill-rule="evenodd"/><g transform="translate(1.291 35.226)"><path d="M194.276,250.65l-1.5-2.277-.037-4.492c1.942-1.612,1.8-2.908,2.762-2.677C198.962,242.027,198.643,251.78,194.276,250.65Z" transform="translate(-160.643 -238.502)" fill="#003147" fill-rule="evenodd"/><g transform="translate(31.787 2.294)"><path d="M193.964,241.94c4.957.454,11.168-2.037,13.958-.234,2.415,1.558,1.372,5.165.056,6.91-1.068,1.417-5.509,1.677-8.395,2.035-2.559.318-4.374-1.8-6.177-1.434C191.732,247.106,193.161,244.189,193.964,241.94Z" transform="translate(-192.627 -241.042)" fill="#f1b287" fill-rule="evenodd"/><path d="M207.7,241.231c.076.042.152.085.225.132,2.415,1.558,1.372,5.165.056,6.91-1.068,1.417-5.509,1.677-8.395,2.035-2.559.318-4.374-1.8-6.177-1.434a3.875,3.875,0,0,1-.75-2.917c2.914-.073,5,1.434,7.1,1.477,2.908.062,5.222-.482,6.245-1.412A27.214,27.214,0,0,0,207.7,241.231Z" transform="translate(-192.628 -240.699)" fill="#db9669" fill-rule="evenodd"/><path d="M197.7,241.284c2.353,0,6.129-.18,8.477-.228,1.651-.034,1.074,2.5-.423,2.68-1.465.175-5.34.5-5.351.5C198.871,244.139,197.3,243.127,197.7,241.284Z" transform="translate(-183.518 -241.018)" fill="#f1b287" fill-rule="evenodd"/><path d="M206.618,241.585a1.127,1.127,0,0,1-1.155,1.189c-1.465.175-5.34.5-5.351.5A3.252,3.252,0,0,1,197.8,242.2Z" transform="translate(-183.225 -240.056)" fill="#db9669" fill-rule="evenodd"/></g><path d="M181.348,244.1c1.1,2.556,1.161,4.438,3.832,5.887a12.177,12.177,0,0,0,4.368.995,215.392,215.392,0,0,0,25.644,1.454,12,12,0,0,1-.972-5.659,4.591,4.591,0,0,1,1.947-3.849c-7.8-1.578-16.649-1.536-24.15-2.559a15.71,15.71,0,0,0-3.015-.124Z" transform="translate(-181.348 -240.228)" fill="#004a85" fill-rule="evenodd"/><path d="M181.348,243.823c1.1,2.556.225,4.509,2.9,5.957,1.147.62,3.663.916,5.377,1.138a191.409,191.409,0,0,0,25.571,1.24,10.5,10.5,0,0,1-.964-5.78c-7.13-.958-14.609-.972-23.778-1.634-3.632-.262-4.01.195-4.112-2.894-.006-.1-.113-1.375-.149-1.471Z" transform="translate(-181.348 -239.954)" fill="#034470" fill-rule="evenodd"/></g><path d="M185.146,228.731c-.738,11.709-1.525,24.125-1.516,35.859l26.174,2.026a3.414,3.414,0,0,1,1.426-2.564l-22.95-1.536C189.956,245.228,191.075,239.975,185.146,228.731Z" transform="translate(-175.909 -225.904)" fill="#035993" fill-rule="evenodd"/></g><g transform="translate(231.22 255.379)"><path d="M233.5,227.865,218,236.249l-19.328,36.923,4.009,2.1,12.434-11.711Z" transform="translate(-198.668 -226.878)" fill="#d2d6d9" fill-rule="evenodd"/><path d="M221.031,227.865l-15.505,8.383,4.514,2.56,15.03-8.57Z" transform="translate(-186.199 -226.878)" fill="#e3e6e8" fill-rule="evenodd"/><path d="M234.906,228.477,219.4,236.86l-19.651,37.319,1.675.915,15.091-10.921Z" transform="translate(-196.699 -225.766)" fill="#2f3133" fill-rule="evenodd"/><path d="M222.229,228.477l-15.505,8.383,2.038,1.053L223.9,229.4Z" transform="translate(-184.021 -225.766)" fill="#494d4f" fill-rule="evenodd"/><path d="M235.5,228.8l-15.505,8.383L200.343,274.5,217.109,264.5Z" transform="translate(-195.621 -225.175)" fill="#232526" fill-rule="evenodd"/><path d="M210.863,237.4c2.655-.488,2.652-1.13,2.81-.231.231,1.316-1.6,6.194-4.145,8.045a12.437,12.437,0,0,1-2.672.437c-.755-.025-.71-.431-.3-1.491l1.815-4.7C208.969,238.05,209.228,237.7,210.863,237.4Z" transform="translate(-184.859 -210.786)" fill="#db9669" fill-rule="evenodd"/><path d="M205.431,236.75c4.337-2.119,7.772-1.758,8.758.665,1.8,4.4-1.97,13.87-4.019,19.157l15.513-8.186c4.6-11.979,7.011-24.641-5.171-19.819Z" transform="translate(-186.371 -227.515)" fill="#f2f4f5" fill-rule="evenodd"/></g><g transform="translate(194.964 212.188)"><path d="M202.8,242.71c-1.558-.626-4.692-1.7-6.107-2.353-3.094-1.426-3.325-4.591-4.912-8.375-2.883-1.285-4.021-2.539-4.574-4.106-1.319-3.72.02-8.291,2.483-11.142a10.377,10.377,0,0,1,8.432-3.6c6.71.1,10.345,4.413,11.822,9.9a3.773,3.773,0,0,1,.1,1.415c-.118,1.189-.5,1.784-.592,2.6-.223,1.9.6,1.558.792,3.432a23.47,23.47,0,0,1-.059,7.448c-.144.984-.868,2.925-1.44,3.3a13.166,13.166,0,0,1-2.142,1.192A5.115,5.115,0,0,1,202.8,242.71Z" transform="translate(-184.183 -210.47)" fill="#f1b287" fill-rule="evenodd"/><path d="M202.951,242.792c-.975-.392-2.48-.654-3.9-1.26-.465-.2-1.826-.933-2.356-1.178-3.091-1.423-3.325-4.588-4.912-8.372-2.883-1.285-4.021-2.539-4.574-4.106-1.319-3.72.02-8.291,2.483-11.142a10.377,10.377,0,0,1,8.432-3.6c5.828.082,9.339,3.351,11.126,7.8-.237.62-5.684,3.475-10.624,3.508-.369,2.229.789,4.061.843,5.182.054,1.074.048,1.992.144,2.593.146.893,1.062,1.584,1.2,2.863.448,4.162,2.77,6.946,4.636,7.693A4.59,4.59,0,0,1,202.951,242.792Z" transform="translate(-184.183 -210.47)" fill="#e8a476" fill-rule="evenodd"/><path d="M193.8,216.487a3.3,3.3,0,0,1,2.48,2.283c1.474-3.027.172-4.258-1.361-4.492Z" transform="translate(-171.256 -208.389)" fill="#c1c1c1" fill-rule="evenodd"/><path d="M197,221.283c-1.747-3.759-8.279-5.112-9.308-6.9-3.723,4.151-1.429,12.174,2.5,16.229,1.933,2.136,2.356,2.928,3.151,6.18a16.539,16.539,0,0,0,1.068-4.531l.609-4.419.2-.29c.273.561.95,1.953,1.2,2.533.3,0,.778-.428,1.195-.679C196.184,224.854,198.185,223.823,197,221.283Z" transform="translate(-185.791 -208.195)" fill="#c1c1c1" fill-rule="evenodd"/><path d="M201.621,222.935c4.689-.628,11.114-3.7,6.355-6.91-3.176-2.142-8.1-4.151-12.969-3.7-4.1.383-8.53,2.486-8.719,6.056,2.1,2.77,5.588,3.689,9.491,4.106A29.259,29.259,0,0,0,201.621,222.935Z" transform="translate(-184.918 -212.053)" fill="#d4d7d8" fill-rule="evenodd"/><path d="M201.107,218.619c-1.668-.617-3.911.025-6.628-1.13-2.781-1.181-6.442-3.725-7.11-3.043a9.912,9.912,0,0,0-1.553,5.867,15.112,15.112,0,0,0,11.4,1.6c-.564-1.395-1.15-2.02-.733-2.6S197.381,219.056,201.107,218.619Z" transform="translate(-185.802 -208.292)" fill="#d4d7d8" fill-rule="evenodd"/><path d="M202.43,220.276c6.481-.457,12.656-3.286,6.428-6.431a5.013,5.013,0,0,1-1.911,1.592l.468-.961c-2.815,1.023-4.109,3.105-6.817,3.173l1.029-.893a25.959,25.959,0,0,1-8.13.034l.8-.58c-2.922.194-5.954-.631-7.659-2.2a4.373,4.373,0,0,0-.352,1.5C189.086,219.484,197.814,220.6,202.43,220.276Z" transform="translate(-184.918 -209.177)" fill="#c1c1c1" fill-rule="evenodd"/><path d="M189.946,218.632c-2.643-.6-2.353,2.35-1.77,4.1.4,1.2,1.406,1,1.877,1.933a2.331,2.331,0,0,0,2.277,1.454c1.55-.206.347-2.415.065-3.314C192.421,221.283,191.629,219.015,189.946,218.632Z" transform="translate(-182.199 -200.62)" fill="#e8a476" fill-rule="evenodd"/><path d="M186.94,215.059c1.789-1.981,5.45-2.818,7.986-2.869a46.685,46.685,0,0,1,7.251,1.043,5.132,5.132,0,0,1-.992.208,18.077,18.077,0,0,1,5.377,2.584,26.987,26.987,0,0,0-8.04-.524,5.117,5.117,0,0,0,.888.533C195.839,215.983,192.1,213.182,186.94,215.059Z" transform="translate(-183.733 -212.188)" fill="#ecf0f2" fill-rule="evenodd"/></g></g></g></svg>