<svg xmlns="http://www.w3.org/2000/svg" width="352" height="338.372" viewBox="0 0 352 338.372"><g transform="translate(-160 -1692)"><rect width="352" height="96" rx="48" transform="translate(160 1692)" fill="#fff"/><path d="M48,5A43.013,43.013,0,0,0,31.264,87.623,42.726,42.726,0,0,0,48,91H304A43.013,43.013,0,0,0,320.736,8.377,42.726,42.726,0,0,0,304,5H48m0-5H304a48,48,0,0,1,0,96H48A48,48,0,0,1,48,0Z" transform="translate(160 1692)" fill="#24305e"/><rect width="24" height="24" rx="12" transform="translate(256.646 1798)" fill="#24305e"/><rect width="16" height="16" rx="8" transform="translate(280.646 1832)" fill="#24305e"/><text transform="translate(336 1749)" fill="#333" font-size="20" font-family="NotoSansJP-Black, Noto Sans JP" font-weight="800" letter-spacing="0.06em"><tspan x="-127.62" y="0">SNSをもっと活用したい…</tspan></text><path d="M17.279-48.374q6.782,0,10.923,3.684t4.141,10.141q0,6.391-4.108,9.749t-10.89,3.358l-.261,5.021H9.062L8.736-27.506H11.67q5.673,0,8.738-1.5t3.065-5.478a6.237,6.237,0,0,0-1.663-4.565,6.058,6.058,0,0,0-4.532-1.7,6.378,6.378,0,0,0-4.663,1.63,6.013,6.013,0,0,0-1.663,4.5H2.345a13.771,13.771,0,0,1,1.7-7.108,12.147,12.147,0,0,1,5.184-4.891A17.389,17.389,0,0,1,17.279-48.374ZM13.04-.834A5.648,5.648,0,0,1,8.964-2.367a5.07,5.07,0,0,1-1.6-3.815A5.07,5.07,0,0,1,8.964-10a5.648,5.648,0,0,1,4.076-1.532A5.451,5.451,0,0,1,17.018-10a5.123,5.123,0,0,1,1.565,3.815,5.123,5.123,0,0,1-1.565,3.815A5.451,5.451,0,0,1,13.04-.834Z" transform="matrix(0.891, -0.454, 0.454, 0.891, 227.874, 1935.763)" fill="#cdd3da"/><path d="M14.936,0q6.782,0,10.923,3.684T30,13.825q0,6.391-4.108,9.749T15,26.933l-.261,5.021H6.719L6.393,20.868H9.328q5.673,0,8.738-1.5t3.065-5.478a6.237,6.237,0,0,0-1.663-4.565,6.057,6.057,0,0,0-4.532-1.7,6.378,6.378,0,0,0-4.663,1.63,6.013,6.013,0,0,0-1.663,4.5H0A13.771,13.771,0,0,1,1.7,6.652,12.147,12.147,0,0,1,6.882,1.761,17.389,17.389,0,0,1,14.936,0ZM10.7,47.54a5.648,5.648,0,0,1-4.076-1.532,5.353,5.353,0,0,1,0-7.63A5.648,5.648,0,0,1,10.7,36.845a5.451,5.451,0,0,1,3.978,1.532,5.432,5.432,0,0,1,0,7.63A5.451,5.451,0,0,1,10.7,47.54Z" transform="matrix(0.891, 0.454, -0.454, 0.891, 473.424, 1822)" fill="#cdd3da"/><ellipse cx="51.171" cy="23.584" rx="51.171" ry="23.584" transform="translate(296.646 1983.203)" fill="#cdd3da" opacity="0.5"/><g transform="translate(-449.132 1491.232)"><path d="M792.041,331.989c-1.974-.891-4.519,5.306-2.607,5.958C791.378,338.607,793.937,332.848,792.041,331.989Z" transform="translate(28.224 48.271)" fill="#131a30" fill-rule="evenodd"/><path d="M791.917,331.747c.886.616,2.092.736,2.57,1.308,2.734,3.262-3.262,5.876-3.5,5.718-.773-.523-1.552-2.3-2.942-3.832Z" transform="translate(26.937 47.973)" fill="#db9669" fill-rule="evenodd"/><path d="M783.822,334.421a70.515,70.515,0,0,0,19.236,13.066c-1.46-.888.411-6.305,2.677-5.973-5.535-4.93-11.781-10.785-17.586-13.948-3.341-1.411-6.1-.245-6.758,1.615C780.923,330.522,781.215,332.075,783.822,334.421Z" transform="translate(14.541 38.743)" fill="#1d2645" fill-rule="evenodd"/><path d="M783.822,334.421a70.515,70.515,0,0,0,19.236,13.066c-.734-.447-.627-2.033-.051-3.464-3.923-2.815-7.233-4.9-7.391-5.493-.338-1.253.042-3.563-.1-5.9a52.162,52.162,0,0,0-7.363-5.061c-3.341-1.411-6.1-.245-6.758,1.615C780.923,330.522,781.215,332.075,783.822,334.421Z" transform="translate(14.541 38.743)" fill="#131a30" fill-rule="evenodd"/><path d="M781.243,337.547c-1.536,4.982-.062,13.256,1.229,21.9.709,4.755,1.85,9.658,2.4,13.849a53.107,53.107,0,0,1,.74,9.991c-.414,5.476-2.632,6.632-3.462,13.773-1.01,8.662,3.378,18.595,3.052,28.142a6.118,6.118,0,0,1-1.1,2.342c-3.684,4.7.113,4.083-.242,10.295-.031.546,2.005,10.023,2.005,10.023s5.464,1.577,5.878,1.519,3.8-1.288,3.8-1.288c-.267-.517-.6-1.773-.815-2.246-2.461-5.426-2.793-12.073-2.8-18.195-.006-8.373,2.219-28.089,4.294-36.138,2.084-4.933,2.818-5.415,2.52-13.96-.484-13.931.425-24.211-1.232-38.933Z" transform="translate(13.416 59.112)" fill="#f1b287" fill-rule="evenodd"/><path d="M784.6,351.686a27.882,27.882,0,0,1,.1,4.448c-.414,5.476-2.632,6.632-3.462,13.773-1.01,8.662,3.378,18.595,3.052,28.142a6.117,6.117,0,0,1-1.1,2.342c-3.684,4.7.113,4.083-.242,10.295-.031.546,2,10.023,2,10.023s3.333.961,4.992,1.355a18.848,18.848,0,0,1-3.83-10.2c-.34-4.13,1-10.452,1.027-12.862.068-7.365-.206-23.676.087-26.568.487-4.758,2.084-8.551,3.836-15.295.492-1.9-.113-3.09-4.457-3.56Z" transform="translate(14.327 86.266)" fill="#e8a476" fill-rule="evenodd"/><path d="M793.8,384.827c.585,1.122,1.221,2.728,1.76,3.94a25.146,25.146,0,0,1,1.381,3.814,1.854,1.854,0,0,1-.127,1.533c-1.319,1.84-7.936-1.516-10.153-3.548-1.431-1.314-1.46-2.868-1.8-4.766-.5-2.845-.591-3.166-1.249-6.092l-.742,7.944-.633.4a91.071,91.071,0,0,0-.945-10.283c-.191-1.1-.517-2.357-.565-2.967a6.362,6.362,0,0,1,3.018-6.378c-.579,2.184.948,5.745,1.642,10.222.726,4.687,3.226,9.813,5.192,10.245.827.184,2.658-.891,3.653-1.478C794.614,387.184,794.187,385.841,793.8,384.827Z" transform="translate(13.629 118.403)" fill="#232e54" fill-rule="evenodd"/><path d="M794.952,394.617c-2.523-.278-6.632-2.532-8.288-4.051-1.431-1.314-1.46-2.868-1.8-4.766-.5-2.845-.591-3.166-1.249-6.092l-.742,7.944-.652.453-.579-.622c-.113-3.063.084-7.252-.346-9.716-.191-1.1-.517-2.357-.565-2.967a6.362,6.362,0,0,1,3.018-6.378c-.579,2.184.948,5.745,1.642,10.222.6,3.858,2.4,8.011,4.109,9.6A31.819,31.819,0,0,0,794.952,394.617Z" transform="translate(13.629 118.403)" fill="#131a30" fill-rule="evenodd"/><g transform="translate(778.638 423.554)"><path d="M784.764,359.785a47.28,47.28,0,0,0-3.831,6.723c-2.756,7.436-1.622,20.522-2.388,31.778a16.227,16.227,0,0,1-1.057,3.213,39.981,39.981,0,0,0-1.336,5.782,55.045,55.045,0,0,0-.523,10.739c.076,1.522.6,2.263.683,4.34l8.063,2.921c-.141-1.8-.312-4.55-.343-7.579-.025-2.71.076-5.642.155-8.323.09-3.081-.084-5.891.163-7.582,1.578-10.712,4.334-14.424,7.495-25.309,1.3-4.5,1.341-6.416,3.279-10.511a20.485,20.485,0,0,0,.858-9.445C795.541,353.024,789.618,356.266,784.764,359.785Z" transform="translate(-774.328 -330.881)" fill="#f1b287" fill-rule="evenodd"/><path d="M775.839,349.124c3.9,12.95,6.963,17.686,7.5,23.256a25,25,0,0,1-.7,6.516l12.034.727a58.318,58.318,0,0,0,.993-6.072,24.369,24.369,0,0,0-.475-8.014c-1.027-4.255-2.776-10.479-5.6-18.782l-13.828,1.107Z" transform="translate(-773.958 -346.756)" fill="#f1b287" fill-rule="evenodd"/><path d="M787.83,353.431a22.716,22.716,0,0,1-.706,4.638c-.967,3.554-4.958,8.236-6.2,11.583-2.753,7.433-1.623,20.522-2.385,31.778a16.311,16.311,0,0,1-1.06,3.213,39.917,39.917,0,0,0-1.333,5.78,54.613,54.613,0,0,0-.523,10.739c.076,1.522.6,2.263.681,4.343l3.009,1.089c-.664-5.52.048-12.833.872-19.7,1.409-11.761,3.912-25.14,7.1-34.161,1.086-3.084,2.112-5.345,4.4-6.887-2.787-.511.543-3.154,2.393-7.453Z" transform="translate(-774.345 -333.937)" fill="#e8a476" fill-rule="evenodd"/><path d="M778.5,370.715a16.546,16.546,0,0,0-1.867,4.848c-.433,2.357.056,6.229-.478,9.147l-.849,4.629c-.492,2.7-.115,4.684,2.506,7.409,2.379,2.474,4.871,3.732,6.4,3.245,1.128-.356,2.258-2.138,1.42-7.462-.7-4.436-.549-8.61-.638-13.312a48.56,48.56,0,0,0-.186,10.66c.1,1.279.127,3.335-1.313,3.315-5.948-.09-5.993-1.764-6.19-3.706C776.788,384.3,777.2,375.288,778.5,370.715Z" transform="translate(-775.123 -300.743)" fill="#232e54" fill-rule="evenodd"/></g><path d="M778.5,370.715a16.546,16.546,0,0,0-1.867,4.848c-.433,2.357.056,6.229-.478,9.147l-.849,4.629c-.492,2.7-.115,4.684,2.506,7.409a13.137,13.137,0,0,0,3.805,2.871c.3.137-2.067-4.285-1.634-6.787-2.464-.6-2.528-1.9-2.675-3.344C776.788,384.3,777.2,375.288,778.5,370.715Z" transform="translate(3.515 122.811)" fill="#131a30" fill-rule="evenodd"/><path d="M782.235,357.229c2.18,4.492,3.344,9.486,2.959,12.424l.005,0a6.962,6.962,0,0,1-.2.932,21.713,21.713,0,0,1-2.948,5.642,27.283,27.283,0,0,0-4.165,9.159c-1.252,4.982-.208,12.7,1.572,21.337.981,4.757,2.4,9.661,3.192,13.852.725,3.855,3.355,9.322,1.94,13.277,1.859,1.767,2.466,2.737,5.535,2.812,8.243.21,18.82-4.5,20.783-7.856a18.447,18.447,0,0,0,.959-5.674c.219-1.781.059-3.849.2-9.34.259-10-.264-19.389-.408-29.447-.264-2.818-.458-5.832-.6-8.721-.028-.707-.079-1.376-.152-2.015-.076-.7-.186-1.4-.321-2.1-.7-3.624-2.227-6.4-2.776-9.249-.83-4.308,1.01-8.548.557-13.531-.121-1.335-.247-2.681-.38-4.027-.436-4.556-.489-8.6-.984-12.578a90.488,90.488,0,0,0-1.871-11.568,6.337,6.337,0,0,0-.962-2.047c-1.308-1.939-3.656-2.92-7.745-1.142a90.645,90.645,0,0,0-12.785,6.489c-1.851,1.192-7.709,5.724-8.971,7.564a6.7,6.7,0,0,0-1.142,3.452C773.081,341.572,779.42,351.432,782.235,357.229Z" transform="translate(0.573 18.577)" fill="#ceddf0" fill-rule="evenodd"/><path d="M798,345.605c-1.949,1.028-3.856,4.045-6.932,5.794a7.416,7.416,0,0,1-9.47-1.922,19.241,19.241,0,0,1-1.063-5.076c-.278-6.5-1.147-10-4.7-15.23a24.445,24.445,0,0,0,5.729-3.989l14.07-7.967,4.486,1.229a38.568,38.568,0,0,0,5.146,10.914,10.5,10.5,0,0,1,1.578,8.251C805.8,342.22,801.538,343.733,798,345.605Z" transform="translate(4.796 20.064)" fill="#e2ecf8" fill-rule="evenodd"/><path d="M775.413,350.529c-1.252,4.982-.208,12.7,1.572,21.337.981,4.757,2.4,9.661,3.192,13.852a103.853,103.853,0,0,1,1.755,13.411c.939,1.606,3.816,2.8,5.765,2.661,2.466-14.88-2.34-31.232-2.773-43.825-.222-6.431,3.24-5.461,9.883-8.613,6.241-2.958,8.308-8.136,3.029-6.4-6.524,2.149-10.723.4-10.377-2.964.172-1.647.4-3.247.425-4.6l.188-.295a16.182,16.182,0,0,1-5.315-.5,7.717,7.717,0,0,1-.231,1.136,21.707,21.707,0,0,1-2.948,5.642A28.169,28.169,0,0,0,775.413,350.529Z" transform="translate(3.045 53.437)" fill="#ceddf0" fill-rule="evenodd"/><path d="M779.912,365.349c.866,8.356,1.5,15.879,2.391,24.372a39.8,39.8,0,0,1-.377,12.862c5.732-1.218,12.729-3.47,16.129-5.791,2.967-2.027,2.435-7.95,2.5-11.542.205-11.986-.082-23.951-.335-35.9-.138-6.4-.29-10.394-2.436-16.007-4.03,3.277-8.15,5.207-14.782,6.752,2.371,3.607,3.9,4.7,6.128,4.077,1.851-.514,4.039-.847,5.169-.193,1.3.753,1.282,2.7-.81,5.371-1.37,1.752-7.453,5.882-12.068,7.623C778.337,358.138,779.575,362.09,779.912,365.349Z" transform="translate(11.232 51.044)" fill="#e2ecf8" fill-rule="evenodd"/><g transform="translate(773.937 335.049)"><path d="M782.232,357.238c2.436,5.014,3.6,10.651,2.765,13.358-.923,2.988-9.689,11.551-8.207,22.771,1.586,4.436,6.6,6.814,12.7,5.695,1.9-.35,15.456-7.383,15.5-8.245.6-11.3.706-32.257-3.749-41.477-3.6-7.445-8.814-11.136-12.355-15.525-.976-1.431-2.9-4.2-4.078-6.4a2.028,2.028,0,0,1-.788-1.037,3.327,3.327,0,0,1,.1-2.818,31.532,31.532,0,0,0-6.62,5.324c-2.185,1.381-3.783,3.026-3.979,6-.442,6.691,5.9,16.553,8.71,22.348Zm13-37.356a16.792,16.792,0,0,0-2.745-.745c1.395-.645,2.728-1.227,3.932-1.752,4.089-1.782,6.437-.8,7.748,1.142a6.324,6.324,0,0,1,.959,2.044,90.046,90.046,0,0,1,1.87,11.571c.5,3.981.979,8.522,1.418,13.078.129,1.346.256,2.693.376,4.03.453,4.982-1.276,8.607-.45,12.917.658,3.42,2.005,5.271,2.987,10.686.36,1.989.827,7.973,1,12.43a14.55,14.55,0,0,1-5.237,4.276,189.167,189.167,0,0,0-2.005-30.306c-.731-11.772-.186-23.639-4.4-34.841C799.415,321.485,797.419,320.2,795.231,319.882Z" transform="translate(-773.364 -316.451)" fill="#1d2645" fill-rule="evenodd"/><path d="M782.232,349.647c2.436,5.014,3.6,10.651,2.765,13.358-.923,2.988-9.689,11.551-8.207,22.771a8.9,8.9,0,0,0,6.283,5.517c.056-9.842,7.7-17.283,7.242-29.45-.163-4.281-2.118-7.45.813-10.788.683-.777,2.562-1.358,4.157-1.98,3.816-1.481,5.279-3.432,6.938-4.912-2.976-6.846-7.011-10.914-10.51-14.591l-7.593,3.034a22.272,22.272,0,0,0-5.085-10.791V320.4c-2.942,1.606-5.273,3.256-5.512,6.9-.442,6.691,5.9,16.553,8.71,22.348Zm22.443-7.146c1.432-.716,2.692-1.3,4-1.922v-.2c-.084-.914-.172-1.831-.259-2.745l-.093-.952c-.714-4.188-2.379-8.335-3.656-12.278l-2.388.952A85.49,85.49,0,0,1,804.674,342.5Z" transform="translate(-773.364 -308.86)" fill="#131a30" fill-rule="evenodd"/><path d="M796.444,346.78c-1.482,1.364-3.11,3.341-5.38,4.632a7.417,7.417,0,0,1-9.466-1.925,18.976,18.976,0,0,1-1.063-5.073c-.281-6.5-1.15-10-4.705-15.23,2.031-1.154,3.825-1.7,5.107-2.956,3.459,7.491,9.984,10.78,15.507,20.551Zm-5.431-28.422c2.309.935,4.247,4.76,4.995,6.711a66.644,66.644,0,0,1,4.171,19.45c2.964-1.5,5.827-3.18,6.663-6.9a10.5,10.5,0,0,0-1.578-8.25,38.709,38.709,0,0,1-5.149-10.917l-4.486-1.229Z" transform="translate(-769.143 -314.966)" fill="#1d2645" fill-rule="evenodd"/><path d="M777.6,320.97l-1.238,1.273c1.406,2.073,3.316,5.21,3.445,8.805a27.1,27.1,0,0,0,1.729,9.24c1.507,3.414,4.162,4.027,7.484,3.1a8.154,8.154,0,0,0,5.352-4.854C791.9,333.887,779.933,323.242,777.6,320.97Z" transform="translate(-768.173 -307.773)" fill="#232e54" fill-rule="evenodd"/><path d="M791.544,322.6l-1.98,1.7,2.495.847c.748,6.136.829,11.2.084,20.026-.742-7.751-2.109-15.1-5.256-21.685a8.444,8.444,0,0,0-6.612-5.207l2.635-1.232C787.05,316.257,789.843,318.885,791.544,322.6Z" transform="translate(-761.085 -315.583)" fill="#2c3a6b" fill-rule="evenodd"/><path d="M783.378,331.915c-1.561.818-5.287,9.944-6.744,7.83-3.3-4.8-5-10.756-.222-15.172a49.827,49.827,0,0,1,7.683-5.625l-.042,3.292c-1.274,1.291-2.447,2.605-3.915,3.9A20.787,20.787,0,0,1,783.378,331.915Z" transform="translate(-773.451 -311.657)" fill="#131a30" fill-rule="evenodd"/><path d="M779.289,319.121a6.069,6.069,0,0,0-2.545,3.528c-.816,2.912.661,5.727,3.04,9.48l2.953-.847-.99,3.09c6.6,3.338,9.331,5.423,13.51,10.619-5.391-11.326-13.795-15.689-15.5-22.129-.742-2.812.29-3.575.852-4.576C780.7,318.123,779.269,319.317,779.289,319.121Z" transform="translate(-767.895 -312.957)" fill="#2c3a6b" fill-rule="evenodd"/><path d="M784.3,342.537a39.541,39.541,0,0,1-.56,12.333c-1.35,5.245-4.713,11.463-6.294,19.159,6.834-.111,19.088-7.917,19.088-7.976.3-7.687,2.126-23.44-1.822-36.924-2.523,2.792-5.231,4.01-7.371,5.222C782.636,337.011,783.85,337.543,784.3,342.537Z" transform="translate(-766.216 -292.104)" fill="#232e54" fill-rule="evenodd"/></g><path d="M787.908,327.758c-1.08.494-1.994.914-3.091,1.367.214,4.839.405,9.334,1,13.662,1.341,9.752,1.744,13.355,1.617,23.42a21.554,21.554,0,0,0,3.7-3.405c-.191-11.667-2.41-15.28-3.662-21.939C786.864,337.641,787.93,334.093,787.908,327.758Z" transform="translate(21.084 40.312)" fill="#232e54" fill-rule="evenodd"/><path d="M776.558,331.445c-.768-10.467,3.088-28.574,17.861-23.714,4.5,1.481,7.45,5.038,8.519,11.352,2.374,14.027-6.893,22.856-8.952,25.557C789.571,343.884,777.087,338.7,776.558,331.445Z" transform="translate(5.949 0.291)" fill="#241304" fill-rule="evenodd"/><g transform="translate(786.592 327.615)"><path d="M778,327.762c-.411,3.081,6.139,4.495,10.169,3.949a2.848,2.848,0,0,0,1.122-.38,1.483,1.483,0,0,0,.458-.406,10.2,10.2,0,0,0,.588-2.722,22.648,22.648,0,0,1,2.466-8.452l-10.594-4.34-2.686-1.218C780.9,320.014,779.927,322.768,778,327.762Z" transform="translate(-777.895 -313.355)" fill="#e8a476" fill-rule="evenodd"/><path d="M777.97,327.475a.83.83,0,0,0-.017.2c3.83-3.543,9.05-1.119,12.8-1.414.118-.28,1-4.617,1.1-4.731.332-.973.47-.812.911-2.065l-10.594-4.34-2.683-1.218C780.864,319.726,779.894,322.481,777.97,327.475Z" transform="translate(-777.952 -313.906)" fill="#db9669" fill-rule="evenodd"/></g><g transform="translate(780.437 306.768)"><path d="M786.813,325.419l-4.542-2.979,1.87-8.353,3.724-5.975C793.973,312.134,790.655,324.846,786.813,325.419Z" transform="translate(-763.968 -304.186)" fill="#241304" fill-rule="evenodd"/><path d="M790.3,336.735c-5.743-2.561-7.425-5.564-8.735-11.694-2.511-1.773-3.583-3.248-3.845-4.886-.61-3.89,1.434-8.148,4.252-10.517a9.7,9.7,0,0,1,8.6-2.041c6.337,1.279,8.671,5.505,9.129,11.159a17.424,17.424,0,0,1-.824,4.5c-.534,1.834.3,1.335.219,3.216a32.985,32.985,0,0,1-1.73,6.919c-.647,1.834-.751,3.724-1.659,4.016A7.672,7.672,0,0,1,790.3,336.735Z" transform="translate(-772.411 -305.654)" fill="#f1b287" fill-rule="evenodd"/><path d="M790.3,336.735c-5.757-2.564-7.425-5.564-8.735-11.694-2.511-1.773-3.583-3.248-3.845-4.886-.61-3.89,1.434-8.148,4.252-10.517a9.7,9.7,0,0,1,8.6-2.041c3.974.8,7.667,10.94,8.851,13.954-2.343-1.717-7.329-4.188-9.5-3.207-1.37.619-1.583,2.883-1.809,3.928-.475,2.193,1.989,2.374,2.02,3.42.031,1.072-2.765,3.513-2.258,6.408a18.414,18.414,0,0,0,2.779,4.79A3.737,3.737,0,0,1,790.3,336.735Z" transform="translate(-772.411 -305.654)" fill="#e8a476" fill-rule="evenodd"/><path d="M799.308,314.058c-1.387-.64-8.718-2.439-10.785,1.2-1.974,3.475-3.825,6.773-5.608,9.652-.678,1.1-1.187.812-1.277,2.658-.1,2.036-2.9-4.252-3.53-6.221-1.727-5.394-.225-9.737,4.638-12.795C788.855,304.716,797.23,308.308,799.308,314.058Z" transform="translate(-772.762 -306.397)" fill="#361d07" fill-rule="evenodd"/><g transform="translate(6.134 15.041)"><path d="M780.529,312.193c-2.346-1.189-2.717,1.752-2.551,3.586.112,1.259,1.1,1.294,1.333,2.307a2.287,2.287,0,0,0,1.82,1.931c1.5.152.852-2.272.784-3.21C782.27,315.332,782.022,312.946,780.529,312.193Z" transform="translate(-777.944 -311.918)" fill="#e8a476" fill-rule="evenodd"/><path d="M780.453,315.15c-.38-1.276-.424-2.859-2.112-2.888C779.781,312.572,779.941,313.982,780.453,315.15Z" transform="translate(-777.224 -311.257)" fill="#db9669" fill-rule="evenodd"/></g><path d="M800.356,325.206a7.277,7.277,0,0,0-2.16-4.124c-2.511-2.079-7.188-3.312-10.541-5.359-3.127,2.141-4.435,5.715-6.958,3.946-5.3-3.706-3.988-10.7,5.586-12.862C791.789,306.275,803.787,311.117,800.356,325.206Z" transform="translate(-772.412 -306.767)" fill="#361d07" fill-rule="evenodd"/><path d="M788.964,347.147c-19.566-4.8-16.711-44.4,4.114-40.043-.835,2.1.447,5.219-1.015,7.447a39.3,39.3,0,0,0-5.616,15.972C785.815,335.693,786.127,343.093,788.964,347.147Z" transform="translate(-775.763 -306.764)" fill="#361d07" fill-rule="evenodd"/><path d="M788.963,345.7c-15.226-3.735-16.871-28.542-7.039-37.309.357-.266.748-.552,1.178-.862-2.149,2.482-2.846,3.747-4.089,7.7a15.624,15.624,0,0,1,3.445-5.128,27.694,27.694,0,0,0-2.593,7.237,16.7,16.7,0,0,1,2.495-4.328,19.352,19.352,0,0,0-1.752,6.431,16.176,16.176,0,0,1,1.887-4.08,20.979,20.979,0,0,0-1.451,5.587,12.366,12.366,0,0,1,2-3.9,26.361,26.361,0,0,0-1.873,8.35c.771-2.932.821-4.3,2.419-6.843-1.19,3.472-1.184,5.158-1.553,8.7a31.588,31.588,0,0,1,1.986-5.917c-.714,3.189-1.555,6.378-2.005,9.649,1-3.256,2.18-6.183,3.33-9.054a73.752,73.752,0,0,0-1.907,11.069c.641-2.252,1.749-6.326,2.362-8.277a36.038,36.038,0,0,0-.585,8.729c1.17-8.61,2.126-11.317,3.6-13.858a40.723,40.723,0,0,0-2.371,9.471C785.813,334.242,786.126,341.642,788.963,345.7Z" transform="translate(-775.762 -305.313)" fill="#241304" fill-rule="evenodd"/><path d="M780.411,308.754c2.407,6.676,14.118,5.543,14.869,12.856C796.053,312.7,786.2,312.811,780.411,308.754Z" transform="translate(-767.339 -302.953)" fill="#241304" fill-rule="evenodd"/><path d="M781.552,307.151c.422-.126.863-.242,1.328-.345,5.262-.508,16.447,3.89,14.441,16.571-.464-7.479-13.142-9.363-16.514-12.54a74.283,74.283,0,0,1,10.788,3.98c-4.052-3.119-9.149-4.717-12.1-5.882A31.1,31.1,0,0,1,789.423,312a27.285,27.285,0,0,0-9.534-4.068c3.229-.053,5.526.824,8.437,1.673A18.017,18.017,0,0,0,781.552,307.151Z" transform="translate(-769.008 -306.768)" fill="#4a2b12" fill-rule="evenodd"/></g><path d="M774.1,325.26c-2.393,7.176-.754,18.171-.616,28.528.07,5.493,7.152,5.254,8.041.044,1.147-6.265,1.384-13.875,1.614-20.052.211-5.64.068-11.609-3.726-12.456C776.655,320.707,775,322.571,774.1,325.26Z" transform="translate(-0.678 27.728)" fill="#1d2645" fill-rule="evenodd"/><path d="M774.1,325.261c-2.393,7.176-.754,18.171-.616,28.528.053,4.232,4.269,5.061,6.609,2.839l-.031-.026c-3.456-3.081-2.194-1.694-2.2-5.581-.005-10.5-.233-19.179,1.3-29.745C776.557,320.819,774.976,322.65,774.1,325.261Z" transform="translate(-0.678 27.727)" fill="#131a30" fill-rule="evenodd"/><path d="M783.9,336.5c-1.972-.891-4.517,5.313-2.6,5.967C783.236,343.124,785.795,337.356,783.9,336.5Z" transform="translate(13.468 56.928)" fill="#131a30" fill-rule="evenodd"/><path d="M780.84,336.089a6.141,6.141,0,0,0,2.691,1.18c.658.108,1.625.257,2.292.426,1.094.28,2.5,1.2,4.415,1.974-.9,1.936-3.088.374-4.075.292a17.28,17.28,0,0,1-2.663-.181C782.224,339.456,780.587,337.573,780.84,336.089Z" transform="translate(13.828 56.312)" fill="#f1b287" fill-rule="evenodd"/><path d="M792.334,332.225a12.585,12.585,0,0,0,2.334.552c-.335,1.685-1.915,1.387-3.217,1.124Z" transform="translate(33.107 48.891)" fill="#db9669" fill-rule="evenodd"/><path d="M782.107,359.645c-.065.21-.458,1.151.973.619l17.212-10.642,2.7-2.506,18.784-17.17c1.232-1.127,1.665-2.31-.846-.745l-16.6,10.067a6.957,6.957,0,0,0-1.746,1.241Z" transform="translate(15.994 41.637)" fill="#0c0c0d" fill-rule="evenodd"/><path d="M794.277,332.816c1.162.718,1.215.149.976,1.013-.351,1.264-3.1,4.054-4.43,4.588-.008,0-.692.175-1.018-.242-.276-.351.093-.494.6-1.253l2.247-3.37C793.347,332.57,793.563,332.372,794.277,332.816Z" transform="translate(29.954 49.594)" fill="#db9669" fill-rule="evenodd"/><path d="M781.87,335.719a11.846,11.846,0,0,0,2.852,2.427,9.464,9.464,0,0,0,1.8.865c1.949.689,2.852,2.833,4.058,2.707s4.452-2.161,4.325-1.522a11.615,11.615,0,0,1-1.288,2.555,9.854,9.854,0,0,1-2.714,2.4,13.206,13.206,0,0,1-3.144,1.507,1.686,1.686,0,0,1-1.533-.2,15.861,15.861,0,0,1-2.689-2.485c-1.727-2.141-2.1-2.576-3.845-3.653Z" transform="translate(11.797 55.601)" fill="#f1b287" fill-rule="evenodd"/><path d="M781.87,335.719l.048.058-.278.9a32.485,32.485,0,0,1,3.414,3.18c1.977,1.954,2.88,3.873,4.542,3.21a41.086,41.086,0,0,0,5.045-2.17,13.055,13.055,0,0,1-1.024,1.854,9.854,9.854,0,0,1-2.714,2.4,13.206,13.206,0,0,1-3.144,1.507,1.686,1.686,0,0,1-1.533-.2,15.861,15.861,0,0,1-2.689-2.485c-1.727-2.141-2.1-2.576-3.845-3.653Z" transform="translate(11.797 55.601)" fill="#e8a476" fill-rule="evenodd"/><path d="M775.68,338.932A70.558,70.558,0,0,0,794.914,352c-1.457-.891.414-6.305,2.68-5.975-4.539-3.452-11.781-10.786-17.586-13.946-3.341-1.41-6.1-.245-6.758,1.615C772.781,335.03,773.073,336.586,775.68,338.932Z" transform="translate(-0.215 47.406)" fill="#1d2645" fill-rule="evenodd"/><path d="M775.68,338.932A70.558,70.558,0,0,0,794.914,352c-.74-.453-.622-2.071-.028-3.513A144.662,144.662,0,0,1,779.6,336.922c-3.422-3.049-2.222-1.723-2.2-5.464-2.1-.093-3.681.888-4.154,2.234S773.073,336.586,775.68,338.932Z" transform="translate(-0.215 47.406)" fill="#131a30" fill-rule="evenodd"/></g></g></svg>