<svg xmlns="http://www.w3.org/2000/svg" width="34" height="34" viewBox="0 0 34 34"><g transform="translate(0.5 0.499)"><g transform="translate(0.5 0.501)"><path d="M14.413-.5h4.174a1,1,0,0,1,.97.758l1.018,4.084a12,12,0,0,1,1.637.68l3.611-2.17A1,1,0,0,1,27.045,3L30,5.955a1,1,0,0,1,.15,1.222l-2.17,3.61a12.149,12.149,0,0,1,.68,1.637l4.085,1.019a1,1,0,0,1,.758.97v4.174a1,1,0,0,1-.758.97l-4.085,1.018a12.16,12.16,0,0,1-.681,1.637l2.17,3.61A1,1,0,0,1,30,27.046L27.045,30a1,1,0,0,1-1.222.15l-3.611-2.17a12,12,0,0,1-1.637.68l-1.018,4.086a1,1,0,0,1-.97.758H14.413a1,1,0,0,1-.97-.758l-1.018-4.086a12,12,0,0,1-1.637-.68l-3.61,2.17A1,1,0,0,1,5.955,30L3,27.046a1,1,0,0,1-.15-1.222l2.17-3.612a12.161,12.161,0,0,1-.68-1.636L.258,19.558a1,1,0,0,1-.758-.97V14.414a1,1,0,0,1,.758-.97l4.085-1.019a12.15,12.15,0,0,1,.68-1.636L2.853,7.177A1,1,0,0,1,3,5.954L5.955,3a1,1,0,0,1,1.222-.15l3.61,2.17a12,12,0,0,1,1.637-.68L13.443.259A1,1,0,0,1,14.413-.5Zm3.393,2H15.194l-.966,3.875a1,1,0,0,1-.7.721,9.988,9.988,0,0,0-2.276.948,1,1,0,0,1-1.1-.072l-3.332-2L4.969,6.816l2,3.326.019.026a1,1,0,0,1,.057,1.081A10.133,10.133,0,0,0,6.1,13.529a1,1,0,0,1-.72.7L1.5,15.2v2.611l3.875.966a1,1,0,0,1,.721.7,10.148,10.148,0,0,0,.949,2.28,1,1,0,0,1-.058,1.08l-.019.026-2,3.326L6.816,28.03l3.332-2a1,1,0,0,1,1.1-.072,9.989,9.989,0,0,0,2.276.948,1,1,0,0,1,.7.721l.966,3.876h2.611l.966-3.876a1,1,0,0,1,.7-.721,9.988,9.988,0,0,0,2.276-.948,1,1,0,0,1,1.081.056l.026.02,3.327,2,1.846-1.846-2-3.335a1,1,0,0,1-.07-1.1,10.148,10.148,0,0,0,.949-2.28,1,1,0,0,1,.721-.7l3.875-.966V15.2l-3.875-.967a1,1,0,0,1-.72-.7,10.133,10.133,0,0,0-.949-2.279,1,1,0,0,1,.07-1.1l2-3.335L26.183,4.97l-3.327,2-.026.02a1,1,0,0,1-1.081.056A9.988,9.988,0,0,0,19.472,6.1a1,1,0,0,1-.7-.721Z" transform="translate(-0.5 -0.501)" fill="#fff"/><path d="M6.957-1A7.957,7.957,0,1,1-1,6.957,7.966,7.966,0,0,1,6.957-1Zm0,13.913A5.957,5.957,0,1,0,1,6.957,5.963,5.963,0,0,0,6.957,12.913Z" transform="translate(9.043 9.042)" fill="#fff"/></g></g></svg>