<svg xmlns="http://www.w3.org/2000/svg" width="28" height="28" viewBox="0 0 28 28"><g transform="translate(-594.25 -7090)"><path d="M4,2A2,2,0,0,0,2,4V24a2,2,0,0,0,2,2H24a2,2,0,0,0,2-2V4a2,2,0,0,0-2-2H4M4,0H24a4,4,0,0,1,4,4V24a4,4,0,0,1-4,4H4a4,4,0,0,1-4-4V4A4,4,0,0,1,4,0Z" transform="translate(594.25 7090)" fill="#fff"/><path d="M27.125.75H0V-1H27.125Z" transform="translate(594.688 7104.125)" fill="#fff"/><path d="M27.125,1.75H0V0H27.125Z" transform="translate(609.125 7090) rotate(90)" fill="#fff"/></g></svg>