<svg xmlns="http://www.w3.org/2000/svg" xmlns:xlink="http://www.w3.org/1999/xlink" width="533" height="146" viewBox="0 0 533 146">
  <defs>
    <clipPath id="clip-path">
      <rect id="長方形_10368" data-name="長方形 10368" width="533" height="146" transform="translate(488 793)" fill="#fff"/>
    </clipPath>
    <clipPath id="clip-path-2">
      <rect id="長方形_10358" data-name="長方形 10358" width="110.065" height="100.602" fill="#5096ff"/>
    </clipPath>
    <clipPath id="clip-path-3">
      <rect id="長方形_10358-2" data-name="長方形 10358" width="74.952" height="66.866" fill="#005dff"/>
    </clipPath>
    <clipPath id="clip-path-4">
      <rect id="長方形_10363" data-name="長方形 10363" width="116.885" height="73.592" fill="#ff8e6f"/>
    </clipPath>
    <clipPath id="clip-path-5">
      <rect id="長方形_10362" data-name="長方形 10362" width="69.835" height="72.159" fill="#f77ee6"/>
    </clipPath>
    <clipPath id="clip-path-6">
      <rect id="長方形_10358-3" data-name="長方形 10358" width="90.311" height="75.33" fill="#96dfd3"/>
    </clipPath>
    <clipPath id="clip-path-7">
      <rect id="長方形_10362-2" data-name="長方形 10362" width="69.835" height="56.031" fill="#fbc200"/>
    </clipPath>
    <linearGradient id="linear-gradient" y1="0.5" x2="1" y2="0.5" gradientUnits="objectBoundingBox">
      <stop offset="0" stop-color="gold"/>
      <stop offset="0.091" stop-color="#ffd208"/>
      <stop offset="0.182" stop-color="#ffc322"/>
      <stop offset="0.273" stop-color="#ffac42"/>
      <stop offset="0.364" stop-color="#ff906a"/>
      <stop offset="0.455" stop-color="#ff7a96"/>
      <stop offset="0.545" stop-color="#ff74c2"/>
      <stop offset="0.636" stop-color="#f87de5"/>
      <stop offset="0.727" stop-color="#c489fa"/>
      <stop offset="0.818" stop-color="#8f91ff"/>
      <stop offset="0.909" stop-color="#6395ff"/>
      <stop offset="1" stop-color="#5096ff"/>
    </linearGradient>
    <clipPath id="clip-path-8">
      <rect id="長方形_10362-3" data-name="長方形 10362" width="49.777" height="44.005" fill="#c7de36"/>
    </clipPath>
  </defs>
  <g id="マスクグループ_99" data-name="マスクグループ 99" transform="translate(-488 -793)" clip-path="url(#clip-path)">
    <g id="グループ_5818" data-name="グループ 5818" transform="translate(31.333 18)">
      <path id="パス_29107" data-name="パス 29107" d="M10,0H523a10,10,0,0,1,10,10V136a10,10,0,0,1-10,10H10A10,10,0,0,1,0,136V10A10,10,0,0,1,10,0Z" transform="translate(457.224 779.105)" fill="#fff"/>
      <g id="グループ_5811" data-name="グループ 5811" transform="matrix(0.829, 0.559, -0.559, 0.829, 930.085, 754.63)" opacity="0.2">
        <g id="グループ_5802" data-name="グループ 5802" clip-path="url(#clip-path-2)">
          <path id="パス_29101" data-name="パス 29101" d="M80.539,20.171,51.039,0,30.252,13.126,0,62.822l13.686,16.54L26.29,94.6h49.5l12.6-15.233,13.685-16.541Z" transform="translate(3.994 3.003)" fill="#5096ff"/>
        </g>
      </g>
      <g id="グループ_5813" data-name="グループ 5813" transform="matrix(-0.545, -0.839, 0.839, -0.545, 520.145, 937.309)" opacity="0.2">
        <g id="グループ_5802-2" data-name="グループ 5802" clip-path="url(#clip-path-3)">
          <path id="パス_29101-2" data-name="パス 29101" d="M54.846,13.407,34.756,0,20.6,8.725,0,41.756,9.32,52.749,17.9,62.874H51.609L60.192,52.75l9.319-10.994Z" transform="translate(2.72 1.996)" fill="#005dff"/>
        </g>
      </g>
      <g id="グループ_5812" data-name="グループ 5812" transform="matrix(0.643, -0.766, 0.766, 0.643, 418.667, 881.639)" opacity="0.2">
        <g id="グループ_5812-2" data-name="グループ 5812" clip-path="url(#clip-path-4)">
          <path id="パス_29106" data-name="パス 29106" d="M55.891,0,0,47,17.437,69.2H88.928l20.1-18.015Z" transform="translate(3.929 2.197)" fill="#ff8e6f"/>
        </g>
      </g>
      <g id="グループ_1441" data-name="グループ 1441" transform="translate(949.423 937.309) rotate(-150)" opacity="0.2">
        <g id="グループ_5810" data-name="グループ 5810" clip-path="url(#clip-path-5)">
          <path id="パス_29105" data-name="パス 29105" d="M0,44.219,19.354,7.413,37.042,0,50.513,10.324l14.76,36.82L54.392,66.415H11.953Z" transform="translate(2.281 2.872)" fill="#f77ee6"/>
        </g>
      </g>
      <path id="パス_29108" data-name="パス 29108" d="M-116.272-11.52a5.225,5.225,0,0,1,3.136,1.936,5.5,5.5,0,0,1,1.184,3.472,5.518,5.518,0,0,1-1.968,4.464A8.3,8.3,0,0,1-119.408,0h-10.464V-22.464h10.112A8.291,8.291,0,0,1-114.4-20.9a5.186,5.186,0,0,1,1.936,4.256,5.141,5.141,0,0,1-1.04,3.3A5.379,5.379,0,0,1-116.272-11.52Zm-8.128-1.856h3.584a3.173,3.173,0,0,0,2.064-.592,2.127,2.127,0,0,0,.72-1.744,2.175,2.175,0,0,0-.72-1.76,3.115,3.115,0,0,0-2.064-.608H-124.4Zm4.032,8.96a3.245,3.245,0,0,0,2.128-.624,2.215,2.215,0,0,0,.752-1.808,2.315,2.315,0,0,0-.784-1.856,3.213,3.213,0,0,0-2.16-.672H-124.4v4.96ZM-98.736.256a9.856,9.856,0,0,1-4.72-1.12,8.2,8.2,0,0,1-3.3-3.2,9.562,9.562,0,0,1-1.2-4.864,9.485,9.485,0,0,1,1.216-4.848,8.251,8.251,0,0,1,3.328-3.216,9.95,9.95,0,0,1,4.736-1.12,9.95,9.95,0,0,1,4.736,1.12,8.251,8.251,0,0,1,3.328,3.216,9.485,9.485,0,0,1,1.216,4.848A9.388,9.388,0,0,1-90.624-4.08a8.331,8.331,0,0,1-3.36,3.216A10.045,10.045,0,0,1-98.736.256Zm0-4.736a3.565,3.565,0,0,0,2.672-1.152,4.577,4.577,0,0,0,1.1-3.3,4.662,4.662,0,0,0-1.072-3.3,3.464,3.464,0,0,0-2.64-1.152,3.473,3.473,0,0,0-2.656,1.136,4.7,4.7,0,0,0-1.056,3.312,4.754,4.754,0,0,0,1.04,3.3A3.366,3.366,0,0,0-98.736-4.48Zm19.648-19.2V0H-84.56V-23.68Zm8.64,3.968A3.317,3.317,0,0,1-72.8-20.56a2.748,2.748,0,0,1-.912-2.1,2.784,2.784,0,0,1,.912-2.128,3.317,3.317,0,0,1,2.352-.848,3.273,3.273,0,0,1,2.32.848,2.784,2.784,0,0,1,.912,2.128,2.748,2.748,0,0,1-.912,2.1A3.273,3.273,0,0,1-70.448-19.712Zm2.72,1.856V0H-73.2V-17.856Zm4.8,8.9a10.672,10.672,0,0,1,1.04-4.832,7.758,7.758,0,0,1,2.832-3.2,7.393,7.393,0,0,1,4-1.12,7.026,7.026,0,0,1,3.216.736,5.86,5.86,0,0,1,2.288,1.984V-23.68h5.472V0h-5.472V-2.56A5.574,5.574,0,0,1-51.744-.512a6.872,6.872,0,0,1-3.312.768,7.316,7.316,0,0,1-4-1.136,7.85,7.85,0,0,1-2.832-3.232A10.773,10.773,0,0,1-62.928-8.96Zm13.376.032a4.474,4.474,0,0,0-1.136-3.232,3.691,3.691,0,0,0-2.768-1.184,3.715,3.715,0,0,0-2.768,1.168A4.417,4.417,0,0,0-57.36-8.96a4.531,4.531,0,0,0,1.136,3.248,3.668,3.668,0,0,0,2.768,1.2A3.691,3.691,0,0,0-50.688-5.7,4.474,4.474,0,0,0-49.552-8.928Zm28.192-.288a13.969,13.969,0,0,1-.1,1.6H-33.84a3.721,3.721,0,0,0,1.072,2.544,3.275,3.275,0,0,0,2.32.88A2.876,2.876,0,0,0-27.6-5.92h5.824a7.992,7.992,0,0,1-1.616,3.168A8.091,8.091,0,0,1-26.32-.544a9.4,9.4,0,0,1-3.936.8,9.577,9.577,0,0,1-4.672-1.12,7.966,7.966,0,0,1-3.2-3.2A9.879,9.879,0,0,1-39.28-8.928a9.992,9.992,0,0,1,1.136-4.864,7.863,7.863,0,0,1,3.184-3.2,9.645,9.645,0,0,1,4.7-1.12,9.548,9.548,0,0,1,4.608,1.088,7.812,7.812,0,0,1,3.152,3.1A9.422,9.422,0,0,1-21.36-9.216Zm-5.6-1.44a2.813,2.813,0,0,0-.96-2.24,3.534,3.534,0,0,0-2.4-.832,3.466,3.466,0,0,0-2.32.8,3.553,3.553,0,0,0-1.168,2.272ZM-12.752-25.6l-.416,7.072h-3.68l-.416-7.072ZM-.3.256a10.263,10.263,0,0,1-4.16-.8,7.1,7.1,0,0,1-2.88-2.192,5.766,5.766,0,0,1-1.184-3.12H-3.12a2.079,2.079,0,0,0,.864,1.5,3.057,3.057,0,0,0,1.888.576,2.7,2.7,0,0,0,1.584-.4,1.225,1.225,0,0,0,.56-1.04,1.2,1.2,0,0,0-.8-1.136,16.162,16.162,0,0,0-2.592-.816,24.335,24.335,0,0,1-3.2-.944A5.529,5.529,0,0,1-7.024-9.68a4.273,4.273,0,0,1-.928-2.9,4.917,4.917,0,0,1,.848-2.8,5.709,5.709,0,0,1,2.5-2,9.557,9.557,0,0,1,3.92-.736,7.858,7.858,0,0,1,5.3,1.664,6.475,6.475,0,0,1,2.224,4.416H1.776A2.179,2.179,0,0,0,.96-13.5a2.83,2.83,0,0,0-1.808-.544,2.5,2.5,0,0,0-1.472.368,1.175,1.175,0,0,0-.512,1.008,1.23,1.23,0,0,0,.816,1.152,13.069,13.069,0,0,0,2.544.768A27.831,27.831,0,0,1,3.76-9.744a5.575,5.575,0,0,1,2.192,1.6,4.527,4.527,0,0,1,.976,2.96,4.7,4.7,0,0,1-.88,2.8A5.82,5.82,0,0,1,3.52-.448,9.668,9.668,0,0,1-.3.256Zm35.3-22.72v15.3a7.23,7.23,0,0,1-2,5.472A7.46,7.46,0,0,1,27.6.224a7.977,7.977,0,0,1-5.7-2.016A7.481,7.481,0,0,1,19.76-7.52H25.2a3.352,3.352,0,0,0,.576,2.128,2.006,2.006,0,0,0,1.664.72,1.906,1.906,0,0,0,1.536-.64,2.792,2.792,0,0,0,.544-1.856v-15.3ZM40.24-8.96a10.672,10.672,0,0,1,1.04-4.832,7.758,7.758,0,0,1,2.832-3.2,7.393,7.393,0,0,1,4-1.12,6.872,6.872,0,0,1,3.312.768,5.657,5.657,0,0,1,2.192,2.016v-2.528h5.472V0H53.616V-2.528A5.909,5.909,0,0,1,51.392-.512,6.871,6.871,0,0,1,48.08.256,7.26,7.26,0,0,1,44.112-.88,7.85,7.85,0,0,1,41.28-4.112,10.773,10.773,0,0,1,40.24-8.96Zm13.376.032A4.474,4.474,0,0,0,52.48-12.16a3.691,3.691,0,0,0-2.768-1.184,3.715,3.715,0,0,0-2.768,1.168A4.417,4.417,0,0,0,45.808-8.96a4.531,4.531,0,0,0,1.136,3.248,3.668,3.668,0,0,0,2.768,1.2A3.691,3.691,0,0,0,52.48-5.7,4.474,4.474,0,0,0,53.616-8.928Zm16.832-6.4a5.94,5.94,0,0,1,2.208-2.016,6.778,6.778,0,0,1,3.3-.768,7.393,7.393,0,0,1,4,1.12,7.758,7.758,0,0,1,2.832,3.2,10.672,10.672,0,0,1,1.04,4.832,10.773,10.773,0,0,1-1.04,4.848A7.85,7.85,0,0,1,79.952-.88a7.316,7.316,0,0,1-4,1.136,6.8,6.8,0,0,1-3.28-.768A6.013,6.013,0,0,1,70.448-2.5V8.512H64.976V-17.856h5.472ZM78.256-8.96a4.417,4.417,0,0,0-1.136-3.216,3.752,3.752,0,0,0-2.8-1.168,3.691,3.691,0,0,0-2.768,1.184,4.474,4.474,0,0,0-1.136,3.232A4.474,4.474,0,0,0,71.552-5.7,3.691,3.691,0,0,0,74.32-4.512a3.718,3.718,0,0,0,2.784-1.2A4.494,4.494,0,0,0,78.256-8.96Zm9.28,0a10.672,10.672,0,0,1,1.04-4.832,7.758,7.758,0,0,1,2.832-3.2,7.393,7.393,0,0,1,4-1.12,6.872,6.872,0,0,1,3.312.768,5.657,5.657,0,0,1,2.192,2.016v-2.528h5.472V0h-5.472V-2.528A5.909,5.909,0,0,1,98.688-.512a6.872,6.872,0,0,1-3.312.768A7.26,7.26,0,0,1,91.408-.88a7.85,7.85,0,0,1-2.832-3.232A10.773,10.773,0,0,1,87.536-8.96Zm13.376.032a4.474,4.474,0,0,0-1.136-3.232,3.691,3.691,0,0,0-2.768-1.184,3.715,3.715,0,0,0-2.768,1.168A4.417,4.417,0,0,0,93.1-8.96,4.531,4.531,0,0,0,94.24-5.712a3.668,3.668,0,0,0,2.768,1.2A3.691,3.691,0,0,0,99.776-5.7,4.474,4.474,0,0,0,100.912-8.928Zm22.24-9.12a6.48,6.48,0,0,1,5.008,2.032,7.926,7.926,0,0,1,1.872,5.584V0h-5.44V-9.7a3.919,3.919,0,0,0-.928-2.784,3.254,3.254,0,0,0-2.5-.992,3.254,3.254,0,0,0-2.5.992,3.919,3.919,0,0,0-.928,2.784V0h-5.472V-17.856h5.472v2.368a5.773,5.773,0,0,1,2.24-1.872A7.121,7.121,0,0,1,123.152-18.048Z" transform="translate(723.224 900.105)" fill="#333"/>
      <g id="グループ_5814" data-name="グループ 5814" transform="translate(681.71 752) rotate(59)" opacity="0.2">
        <g id="グループ_5802-3" data-name="グループ 5802" clip-path="url(#clip-path-6)">
          <path id="パス_29101-3" data-name="パス 29101" d="M66.084,15.1,41.878,0,24.822,9.829,0,47.041,11.23,59.426,21.572,70.833H62.185L72.527,59.426,83.756,47.041Z" transform="translate(3.277 2.249)" fill="#96dfd3"/>
        </g>
      </g>
      <g id="グループ_5815" data-name="グループ 5815" transform="translate(900.208 871.547) rotate(-150)" opacity="0.2">
        <g id="グループ_5810-2" data-name="グループ 5810" clip-path="url(#clip-path-7)">
          <path id="パス_29105-2" data-name="パス 29105" d="M0,34.336,19.354,5.756,37.042,0,50.513,8.017l14.76,28.591L54.392,51.571H11.953Z" transform="translate(2.281 2.23)" fill="#fbc200"/>
        </g>
      </g>
      <path id="パス_1882" data-name="パス 1882" d="M-249.734-90.485l3.592,8.938c6.287-2.787,18.226-7.729,25.516-7.729,5.917,0,8.981,3.417,8.981,8.044,0,8.307-10.618,12.355-25.2,12.671l3.751,8.465c19.916-.946,30.64-9.464,30.64-20.978,0-10.252-7.819-15.931-17.8-15.931-7.766,0-18.754,3.733-22.558,4.89C-244.715-91.589-247.779-90.8-249.734-90.485Zm79.243-13.091-8.77-.841a41.688,41.688,0,0,1-1.321,8.57q-2.06.158-4.121.158c-1.743,0-4.913-.105-7.343-.368l.581,7.361c2.43.158,4.6.21,6.815.21.581,0,1.109,0,1.691-.053a84.571,84.571,0,0,1-10.46,17.981l7.713,3.891a96.512,96.512,0,0,0,11.2-22.66,72.391,72.391,0,0,0,8.981-1.788l-.211-7.308c-1.8.526-4.015,1.052-6.5,1.525C-171.5-99.528-170.861-101.947-170.491-103.577Zm-2.641,36.33c0-1.525,1.638-2.576,4.226-2.576a19.794,19.794,0,0,1,3.592.368v.263c0,2.944-.951,4.784-4.121,4.784C-171.654-64.407-173.133-65.564-173.133-67.246Zm15-19.874h-8.03c.158,2.944.37,7.308.581,11.041a24.3,24.3,0,0,0-2.8-.158c-8.136,0-12.309,4.522-12.309,9.779,0,6.1,5.441,9.359,12.415,9.359,7.819,0,10.566-3.785,10.724-8.833a56.345,56.345,0,0,1,6.392,5.363l4.226-6.835a34.423,34.423,0,0,0-10.935-6.835c-.106-2.208-.211-4.259-.264-5.52C-158.182-82.336-158.288-84.859-158.13-87.12Zm8.241,3.575,4.543-6.73a107.076,107.076,0,0,0-13.471-7.2l-4.121,6.309A76.862,76.862,0,0,1-149.888-83.545Zm34.814-18.665-9.509-1a52.974,52.974,0,0,1-1,10.988c-2.377.158-4.543.315-6.075.368a60.577,60.577,0,0,1-6.181,0l.74,8.57c1.743-.315,4.807-.736,6.5-1,.74-.105,1.9-.263,3.275-.473-1.955,7.2-5.389,17.192-10.407,23.922l8.347,3.312c4.49-7.2,8.453-19.926,10.566-28.128q1.585-.158,2.536-.158c3.275,0,4.86.473,4.86,4.311,0,4.89-.634,11.041-1.955,13.67a3.579,3.579,0,0,1-3.592,2,34.509,34.509,0,0,1-6.445-1.1l1.374,8.36a32.258,32.258,0,0,0,6.445.736c4.279,0,7.4-1.314,9.192-5.1,2.272-4.627,2.958-13.249,2.958-19.4,0-7.886-4.015-10.726-10.09-10.726-.951,0-2.166.053-3.592.158.317-1.367.634-2.839.951-4.259C-115.867-98.634-115.444-100.632-115.074-102.21Zm22.875-4.784-4.966,2a58.576,58.576,0,0,1,4.173,7.256l4.966-2.1A74.949,74.949,0,0,0-92.2-106.994Zm-6.5,2.524-4.966,2a50.261,50.261,0,0,1,3.592,6.414l-4.49,1.893c3.8,4.837,7.343,14.143,8.611,20.242l8.188-3.733A92.914,92.914,0,0,0-96.32-96.531l1.743-.736C-95.528-99.108-97.377-102.525-98.7-104.47Zm34.444.946-8.717-.368a58.186,58.186,0,0,1-.423,6.046,126.647,126.647,0,0,0-1.374,16.772,61.82,61.82,0,0,0,.687,8.991l7.871-.526a43.931,43.931,0,0,1-.317-5.047c0-6.94,5.124-16.141,11.147-16.141,3.751,0,6.445,3.68,6.445,11.672,0,12.461-7.871,15.878-19.758,17.718l4.86,7.413C-49.3-59.675-40.217-67.089-40.217-82.125c0-11.882-6.075-19.138-13.63-19.138-5.494,0-9.615,3.26-12.362,6.572A76.922,76.922,0,0,1-64.254-103.524Z" transform="translate(752.458 909.099)" fill="url(#linear-gradient)"/>
      <path id="パス_29109" data-name="パス 29109" d="M-21.392.392c5.04,0,7.952-3.052,7.952-6.524,0-2.94-1.54-4.676-4.116-5.712l-2.6-1.036c-1.848-.728-3.164-1.176-3.164-2.324,0-1.12.952-1.736,2.492-1.736a6.776,6.776,0,0,1,4.284,1.6l2.492-3.136a9.7,9.7,0,0,0-6.776-2.744c-4.424,0-7.56,2.8-7.56,6.3a6.1,6.1,0,0,0,4.228,5.712l2.66,1.12c1.792.756,2.94,1.148,2.94,2.352,0,1.12-.868,1.82-2.716,1.82a8.423,8.423,0,0,1-5.068-2.128L-29.176-2.6A11.659,11.659,0,0,0-21.392.392ZM-8.288,0h4.76V-6.916c0-2.52-.42-5.376-.644-7.7h.14l2.044,4.564L3.164,0h5.1V-20.832H3.5v6.888a65.678,65.678,0,0,0,.672,7.7h-.14l-2.044-4.62-5.18-9.968h-5.1Zm29.54.392c5.04,0,7.952-3.052,7.952-6.524,0-2.94-1.54-4.676-4.116-5.712l-2.6-1.036c-1.848-.728-3.164-1.176-3.164-2.324,0-1.12.952-1.736,2.492-1.736a6.776,6.776,0,0,1,4.284,1.6l2.492-3.136a9.7,9.7,0,0,0-6.776-2.744c-4.424,0-7.56,2.8-7.56,6.3A6.1,6.1,0,0,0,18.48-9.212l2.66,1.12c1.792.756,2.94,1.148,2.94,2.352,0,1.12-.868,1.82-2.716,1.82A8.423,8.423,0,0,1,16.3-6.048L13.468-2.6A11.659,11.659,0,0,0,21.252.392Z" transform="translate(918.224 844.105)" fill="#333"/>
      <path id="パス_29110" data-name="パス 29110" d="M12.16-2.831c-.019-.836-.057-2.109-.076-3.135.988-.437,1.9-.8,2.622-1.064.722-.285,1.9-.722,2.565-.912L16.15-10.564c-.8.38-1.577.741-2.394,1.1-.665.3-1.273.551-2.033.912A2.737,2.737,0,0,0,9.215-9.88a9.059,9.059,0,0,0-1.862.19,10.73,10.73,0,0,0,.722-1.33c2.014-.076,4.313-.247,6.08-.475l.019-2.641A43.209,43.209,0,0,1,9.1-13.6a16.512,16.512,0,0,0,.418-1.71l-3-.247a10.971,10.971,0,0,1-.323,2.052H5.453a24.455,24.455,0,0,1-3.382-.228V-11.1c.988.095,2.356.133,3.135.133A17.3,17.3,0,0,1,1.178-6.118L3.61-4.294A22.869,22.869,0,0,1,5.358-6.422,4.517,4.517,0,0,1,8.132-7.676a1.413,1.413,0,0,1,1.026.38c-2.09,1.1-4.332,2.679-4.332,5.13,0,2.508,2.223,3.306,5.32,3.306A50.633,50.633,0,0,0,15.58.817l.1-2.945a28.039,28.039,0,0,1-5.472.589c-1.767,0-2.356-.323-2.356-1.121,0-.76.513-1.368,1.691-2.052-.019.7-.057,1.406-.1,1.881Zm11.3-4.56.114-1.254h3.5V-15.2H21.147v2.432h3.306V-11.1h-3.1c-.095,2.185-.342,4.9-.608,6.669l2.375.361q.057-.456.114-.969h1.216c-.133,2.565-.285,3.686-.57,3.971a.775.775,0,0,1-.665.247c-.38,0-1.1,0-1.862-.076a6.575,6.575,0,0,1,.836,2.7,13.44,13.44,0,0,0,2.3-.1A2.179,2.179,0,0,0,26.049.817c.57-.7.779-2.7.969-7.2.019-.323.038-1.007.038-1.007ZM30.1-5.852V-7.068h1.2v1.216Zm5.092-1.216v1.216H33.934V-7.068ZM38.912.855a16.6,16.6,0,0,0-2.375-4.484L34.3-2.7q.285.428.57.912l-.931.057v-1.9H37.81V-9.31H33.934v-1.406l1.919-.171a6.2,6.2,0,0,1,.456,1.1l2.508-1.121a16.513,16.513,0,0,0-2.679-4.2L33.82-14.1c.228.285.456.608.684.931l-2.679.152c.532-.8,1.064-1.691,1.558-2.584L30.4-16.264a21.875,21.875,0,0,1-1.52,3.382l-1.672.076.342,2.584c1.1-.076,2.375-.171,3.743-.285v1.2H27.607v5.681h3.686v2.071c-1.615.114-3.116.19-4.332.247l.323,2.66c2.413-.171,5.662-.418,8.8-.7a9.144,9.144,0,0,1,.4,1.235Zm6.46-16.872A20.009,20.009,0,0,1,40.337-8.74a20.389,20.389,0,0,1,1.577,2.964A18.416,18.416,0,0,0,43.453-7.41V1.767h2.774V-11.362a31.349,31.349,0,0,0,1.881-3.743ZM53.01-.95c-.855,0-.95-.152-.95-1.33V-6.669a47.406,47.406,0,0,0,6.346-3.439L56.373-12.54A35.527,35.527,0,0,1,52.06-9.519v-6.213H49.267V-2.3c0,3.021.741,3.914,3.363,3.914h2.907c2.394,0,3.116-1.292,3.42-4.674a8.113,8.113,0,0,1-2.546-1.159c-.152,2.641-.3,3.268-1.159,3.268ZM68.324-6.213a1.148,1.148,0,0,1,1.2-1.216,1.227,1.227,0,0,1,1.026.494c.209,1.444-.418,1.881-1.026,1.881A1.2,1.2,0,0,1,68.324-6.213Zm9.861-7.144c-.988-.019-3.515.019-5.263.019v-.209c.019-.342.1-1.5.152-1.862H69.787c.076.361.152,1.159.209,1.881l.019.209c-2.432.038-5.757.114-7.942.095l.076,2.736c2.3-.114,5.073-.228,7.9-.266l.019.95a3.816,3.816,0,0,0-.475-.019,3.708,3.708,0,0,0-4.009,3.667,3.488,3.488,0,0,0,3.344,3.61,2.065,2.065,0,0,0,.342-.019A10.2,10.2,0,0,1,64.961-.912L67.374,1.52c4.712-1.273,6.27-4.541,6.27-6.954A4.934,4.934,0,0,0,72.9-8.151c0-.779,0-1.729-.019-2.622,2.375.019,4.142.057,5.263.114ZM89.813-1.444c-.95,0-1.577-.418-1.577-1.007,0-.38.361-.741.969-.741.8,0,1.368.665,1.463,1.71C90.4-1.463,90.117-1.444,89.813-1.444Zm4.275-13.509a10.014,10.014,0,0,1-1.672.228c-1.121.095-4.883.152-5.89.152a15.781,15.781,0,0,1-1.919-.114l.1,2.945c.456-.076,1.121-.133,1.691-.171,1.007-.076,2.945-.152,3.895-.171-.912.817-2.66,2.166-3.7,3.04-1.121.912-3.306,2.774-4.522,3.724l2.071,2.147c1.805-2.2,3.781-3.857,6.536-3.857,2.071,0,3.724,1.007,3.724,2.622a2.5,2.5,0,0,1-1.1,2.166,3.859,3.859,0,0,0-4.1-3.116,3.444,3.444,0,0,0-3.648,3.192c0,2.071,2.2,3.306,4.864,3.306,4.864,0,6.992-2.565,6.992-5.51,0-2.831-2.546-4.9-5.776-4.9a6.332,6.332,0,0,0-1.311.114c1.026-.8,2.679-2.147,3.743-2.869.475-.323.95-.608,1.444-.912ZM107.046-12.2c-.152.57-.38,1.235-.57,1.729l1.14.228h-3.249l.836-.228a6.993,6.993,0,0,0-.513-1.729Zm2.774,9.519c-.4-.3-1.843-1.406-2.527-1.843v-.019H110.2v-2.3h-2.907V-8h3.1v-2.242h-1.634c.228-.475.475-1.1.8-1.8l-.817-.152h1.539v-2.223h-2.983v-1.615h-2.679v1.615h-2.983V-12.2h1.843l-1.007.247a7.9,7.9,0,0,1,.475,1.71H101.4V-8h3.211V-6.84H101.46v2.3H104.1a11.737,11.737,0,0,1-3.23,3.325A11.626,11.626,0,0,1,102.657.741a12.41,12.41,0,0,0,1.957-2.109V1.786h2.679V-1.805c.361.4.7.779.95,1.083Zm3.686-9.614a28.862,28.862,0,0,0,5.7-1.767L117-16.055a21.737,21.737,0,0,1-4.617,1.691l-1.5-.418v6.631c0,2.565-.19,5.795-2.261,8.094A6.233,6.233,0,0,1,110.6,1.824c2.356-2.527,2.85-6.5,2.907-9.31h1.406v9.2h2.679v-9.2h1.615v-2.546h-5.7ZM131.784-6.65V-9.1h1.957V-6.65Zm4.75,3.268V-9.1h2.774v-2.66h-2.774v-4.1h-2.793v4.1h-1.957v-4.275h-2.793v4.275h-2.052v-3.876h-2.85v3.876h-2.66V-9.1h2.66V1.805h2.85V.7h11.685v-2.66H126.939V-9.1h2.052v5.719h2.793v-.7h1.957v.7Zm22.648-9.785a14.879,14.879,0,0,0-2.489-3.078l-2.09,1.273a14.824,14.824,0,0,1,2.337,3.211Zm-13.11-2.945a20.009,20.009,0,0,1-5.035,7.277,19.838,19.838,0,0,1,1.52,2.85,21.474,21.474,0,0,0,1.653-1.767V1.767h2.869V-11.951a29.356,29.356,0,0,0,1.634-3.287Zm13.357,7.258-.38-2.622-5.282.722c-.114-1.6-.171-3.344-.19-5.187h-2.812c.057,2.014.133,3.876.266,5.567l-3.42.475.4,2.66,3.268-.456c.684,5.738,2.166,9.1,5.453,9.443,1.1.076,2.28-.741,2.812-4.655a10.56,10.56,0,0,1-2.261-1.6c-.114,2.033-.3,2.926-.684,2.888-1.254-.209-2.109-2.7-2.565-6.479Z" transform="translate(723.224 840.868)" fill="#333"/>
      <g id="グループ_5817" data-name="グループ 5817" transform="translate(514.71 822.502) rotate(-180)" opacity="0.2">
        <g id="グループ_5810-3" data-name="グループ 5810" clip-path="url(#clip-path-8)">
          <path id="パス_29105-3" data-name="パス 29105" d="M0,26.967,13.8,4.52,26.4,0,36,6.3l10.52,22.454L38.77,40.5H8.52Z" transform="translate(1.626 1.751)" fill="#c7de36"/>
        </g>
      </g>
    </g>
  </g>
</svg>
