<svg xmlns="http://www.w3.org/2000/svg" width="20.167" height="16.295" viewBox="0 0 20.167 16.295">
  <g id="グループ_128" data-name="グループ 128" transform="translate(-0.917 0.822)">
    <g id="グループ_129" data-name="グループ 129" transform="translate(0.5 0.5)">
      <g id="グループ_131" data-name="グループ 131" transform="translate(1 -1.739)">
        <g id="グループ_132" data-name="グループ 132" transform="translate(0 0)">
          <path id="パス_25" data-name="パス 25" d="M20.118,15.023,9.5,11.136v-7.5L20.158.519a.833.833,0,0,1,1.008.814V14.218A.834.834,0,0,1,20.118,15.023Z" transform="translate(-1.583 -0.083)" fill="#121b2b"/>
          <path id="パス_26" data-name="パス 26" d="M6.454,18.2l-2.142-.321c-.477-.071-.812-.328-.812-.623v-4H7.783v4.317C7.783,18,7.128,18.306,6.454,18.2Z" transform="translate(0.134 -1.512)" fill="#121b2b"/>
          <path id="パス_27" data-name="パス 27" d="M3,11.763H8v-7.5H3a2.5,2.5,0,0,0-2.5,2.5v2.5A2.5,2.5,0,0,0,3,11.763Z" transform="translate(-1.083 -0.711)" fill="#121b2b"/>
        </g>
      </g>
    </g>
  </g>
</svg>
