<svg xmlns="http://www.w3.org/2000/svg" width="40" height="40" viewBox="0 0 40 40"><g transform="translate(-1133.456 -24)"><rect width="40" height="40" rx="20" transform="translate(1133.456 24)" fill="#f2f2f2"/><g transform="translate(1143.456 33)"><g transform="translate(0 1)"><path d="M10,2a8,8,0,1,0,8,8,8.009,8.009,0,0,0-8-8m0-2A10,10,0,1,1,0,10,10,10,0,0,1,10,0Z" fill="#121b2b"/><path d="M10,1H0V-1H10Z" transform="translate(5 10)" fill="#121b2b"/><path d="M10,1H0V-1H10Z" transform="translate(10 5) rotate(90)" fill="#121b2b"/></g></g></g></svg>