<svg xmlns="http://www.w3.org/2000/svg" width="40" height="40" viewBox="0 0 40 40"><g transform="translate(-1376 -20)"><path d="M20,0A20,20,0,1,1,0,20,20,20,0,0,1,20,0Z" transform="translate(1376 20)" fill="#f2f2f2"/><path d="M9.821,0A8.809,8.809,0,0,0,2,4.139a1.092,1.092,0,0,0,.235,1.495L4.193,7.12A1.091,1.091,0,0,0,5.7,6.932C6.844,5.505,7.688,4.684,9.467,4.684c1.4,0,3.129.9,3.129,2.257,0,1.025-.846,1.552-2.228,2.326-1.611.9-3.742,2.027-3.742,4.838v.445a1.091,1.091,0,0,0,1.091,1.091h3.3A1.091,1.091,0,0,0,12.1,14.549v-.262c0-1.949,5.7-2.03,5.7-7.3C17.8,3.012,13.68,0,9.821,0ZM9.366,16.98a3.15,3.15,0,1,0,3.15,3.149A3.153,3.153,0,0,0,9.366,16.98Z" transform="translate(1386.201 28.361)" fill="#121b2b"/></g></svg>