<svg xmlns="http://www.w3.org/2000/svg" width="18" height="18" viewBox="0 0 18 18"><g transform="translate(1 1)"><path d="M8-1A9,9,0,1,1-1,8,9.01,9.01,0,0,1,8-1ZM8,15A7,7,0,1,0,1,8,7.008,7.008,0,0,0,8,15Z" fill="#fff"/><path d="M15.276,17.651a1,1,0,0,1-.836-.451c-.792-1.2-2.8-2.013-4.986-2.013S5.258,16,4.466,17.2A1,1,0,1,1,2.8,16.1c1.164-1.77,3.777-2.913,6.657-2.913s5.493,1.144,6.657,2.913a1,1,0,0,1-.835,1.55Z" transform="translate(-1.453 -3.362)" fill="#fff"/><path d="M2.783-1A3.783,3.783,0,1,1-1,2.783,3.787,3.787,0,0,1,2.783-1Zm0,5.565A1.783,1.783,0,1,0,1,2.783,1.785,1.785,0,0,0,2.783,4.565Z" transform="translate(5.217 2.586)" fill="#fff"/></g></svg>