<svg xmlns="http://www.w3.org/2000/svg" width="40" height="40" viewBox="0 0 40 40"><g transform="translate(-1308 -24)"><rect width="40" height="40" rx="20" transform="translate(1308 24)" fill="#121b2b"/><g transform="translate(1318 33)"><g transform="translate(0 1)"><path d="M10-1A11,11,0,0,1,21,10,11,11,0,0,1,10,21,11,11,0,0,1-1,10,11,11,0,0,1,10-1Zm0,20a9,9,0,1,0-9-9A9.01,9.01,0,0,0,10,19Z" fill="#fff"/><path d="M18.187,18.267a1,1,0,0,1-.836-.451c-1.034-1.572-3.623-2.628-6.442-2.628S5.5,16.244,4.466,17.816a1,1,0,0,1-1.671-1.1c1.41-2.144,4.595-3.529,8.113-3.529s6.7,1.385,8.113,3.529a1,1,0,0,1-.835,1.55Z" transform="translate(-0.908 -0.655)" fill="#fff"/><path d="M3.478-1A4.478,4.478,0,1,1-1,3.478,4.483,4.483,0,0,1,3.478-1Zm0,6.957A2.478,2.478,0,1,0,1,3.478,2.481,2.481,0,0,0,3.478,5.957Z" transform="translate(6.522 3.232)" fill="#fff"/></g></g></g></svg>