<svg xmlns="http://www.w3.org/2000/svg" width="20" height="20" viewBox="0 0 20 20"><path d="M13.375,3.375a10,10,0,0,0,0,20A10.129,10.129,0,0,0,21.1,19.723a9.763,9.763,0,0,0,2.272-6.348A10,10,0,0,0,13.375,3.375Zm5.12,7.236-6.428,6.457h0a.868.868,0,0,1-.558.264.842.842,0,0,1-.562-.274L8.25,14.365a.192.192,0,0,1,0-.274l.856-.856a.186.186,0,0,1,.269,0L11.51,15.37l5.865-5.909A.19.19,0,0,1,17.51,9.4h0a.175.175,0,0,1,.135.058l.841.87A.19.19,0,0,1,18.5,10.611Z" transform="translate(-3.375 -3.375)" fill="#ccc"/></svg>