<svg xmlns="http://www.w3.org/2000/svg" width="32" height="32" viewBox="0 0 32 32"><g transform="translate(-228 -412)"><path d="M16,1A15,15,0,0,0,5.393,26.607,15,15,0,1,0,26.607,5.393,14.9,14.9,0,0,0,16,1m0-1A16,16,0,1,1,0,16,16,16,0,0,1,16,0Z" transform="translate(228 412)" fill="#fff"/><path d="M12.64,3.085a3.739,3.739,0,0,0-5.1.372L7,4.012l-.539-.555a3.739,3.739,0,0,0-5.1-.372A3.926,3.926,0,0,0,1.088,8.77l5.291,5.463a.857.857,0,0,0,1.239,0L12.908,8.77a3.924,3.924,0,0,0-.268-5.685Z" transform="translate(237.001 420.752)" fill="#fff"/></g></svg>