<svg xmlns="http://www.w3.org/2000/svg" width="25" height="25" viewBox="0 0 25 25"><g transform="translate(0.5 0.5)"><path d="M12,17.5A8.51,8.51,0,0,1,3.5,9V.5a1,1,0,0,1,1-1h15a1,1,0,0,1,1,1V9A8.51,8.51,0,0,1,12,17.5ZM5.5,1.5V9a6.5,6.5,0,0,0,13,0V1.5Z" fill="#fff"/><path d="M12,15.5a1,1,0,0,1,.97.757,11.385,11.385,0,0,1,.231,1.531c.214,2.008.416,3.9,3.4,4.75A1,1,0,0,1,16.33,24.5H7.67A1,1,0,0,1,7.4,22.538c2.985-.846,3.187-2.742,3.4-4.75a11.385,11.385,0,0,1,.231-1.531A1,1,0,0,1,12,15.5Zm.761,7a5.44,5.44,0,0,1-.656-.961q-.055-.1-.1-.205-.05.1-.1.205a5.44,5.44,0,0,1-.656.961Z" fill="#fff"/><path d="M19.5,10.5a1,1,0,0,1-1-1v-8a1,1,0,0,1,1-1h4a1,1,0,0,1,1,1v4A5.006,5.006,0,0,1,19.5,10.5Zm1-8V8.329a3.005,3.005,0,0,0,2-2.829v-3Z" fill="#fff"/><path d="M4.5,10.5a5.006,5.006,0,0,1-5-5v-4a1,1,0,0,1,1-1h4a1,1,0,0,1,1,1v8A1,1,0,0,1,4.5,10.5Zm-3-8v3a3.005,3.005,0,0,0,2,2.829V2.5Z" fill="#fff"/></g></svg>