<svg xmlns="http://www.w3.org/2000/svg" width="13.5" height="13.486" viewBox="0 0 13.5 13.486"><g transform="translate(-2.243 0.75)"><path d="M17.4,11.554q-.134,0-.269-.01A3.746,3.746,0,0,1,14.4,10.05a.75.75,0,0,1,1.2-.9,2.248,2.248,0,0,0,3.391.243l1.8-1.8a2.248,2.248,0,1,0-3.18-3.18L16.578,5.443A.75.75,0,0,1,15.521,4.38l1.031-1.026a3.748,3.748,0,0,1,5.3,5.3l-1.8,1.8A3.746,3.746,0,0,1,17.4,11.554Z" transform="translate(-7.207 -3.007)" fill="#888"/><path d="M5.991,22.037a3.747,3.747,0,0,1-2.65-6.4l1.8-1.8a3.749,3.749,0,0,1,5.653.4.75.75,0,1,1-1.2.9A2.249,2.249,0,0,0,6.2,14.9L4.4,16.7a2.248,2.248,0,1,0,3.18,3.18l1.025-1.026a.75.75,0,0,1,1.061,1.06L8.642,20.94A3.737,3.737,0,0,1,5.991,22.037Z" transform="translate(0 -9.3)" fill="#888"/></g></svg>