<svg xmlns="http://www.w3.org/2000/svg" xmlns:xlink="http://www.w3.org/1999/xlink" width="101" height="101" viewBox="0 0 101 101"><defs><filter id="a" x="0" y="0" width="101" height="101" filterUnits="userSpaceOnUse"><feOffset input="SourceAlpha"/><feGaussianBlur stdDeviation="7.5" result="b"/><feFlood flood-opacity="0.302"/><feComposite operator="in" in2="b"/><feComposite in="SourceGraphic"/></filter></defs><g transform="translate(22.5 22.5)"><g transform="translate(-1376 -20)"><g transform="matrix(1, 0, 0, 1, 1353.5, -2.5)" filter="url(#a)"><path d="M28,0A28,28,0,1,1,0,28,28,28,0,0,1,28,0Z" transform="translate(22.5 22.5)" fill="#fff"/></g></g><g transform="translate(43.5 37.5) rotate(180)"><path d="M18,7.5v16" transform="translate(-2.5 0)" fill="none" stroke="#121b2b" stroke-linecap="round" stroke-linejoin="round" stroke-width="3"/><path d="M23.5,18l-8,8-8-8" transform="translate(0 -2.5)" fill="none" stroke="#121b2b" stroke-linecap="round" stroke-linejoin="round" stroke-width="3"/></g><path d="M2.36,0h1.3V-5.9H5.98V-7H.04v1.1H2.36Zm7.77.1A3.579,3.579,0,0,0,13.9-3.5a3.579,3.579,0,0,0-3.77-3.6A3.584,3.584,0,0,0,6.36-3.5,3.584,3.584,0,0,0,10.13.1Zm0-1.14A2.386,2.386,0,0,1,7.67-3.5a2.386,2.386,0,0,1,2.46-2.46A2.386,2.386,0,0,1,12.59-3.5,2.386,2.386,0,0,1,10.13-1.04ZM18.16-7H15.28V0h1.3V-2.02h1.58c1.84,0,2.98-.95,2.98-2.49S20-7,18.16-7ZM18.1-3.12H16.58V-5.9H18.1c1.14,0,1.73.51,1.73,1.39S19.24-3.12,18.1-3.12Z" transform="translate(18 44)" fill="#121b2b"/></g></svg>