<svg xmlns="http://www.w3.org/2000/svg" width="28.501" height="18.353" viewBox="0 0 28.501 18.353"><g transform="translate(-1346.803 -673.19)"><g transform="translate(1347.054 673.5)"><path d="M1349.729,684.138a.408.408,0,0,1-.206-.056l-2.263-1.306a.414.414,0,0,1-.152-.565l4.913-8.508a.411.411,0,0,1,.564-.151l2.264,1.306a.414.414,0,0,1,.15.564l-4.913,8.51A.413.413,0,0,1,1349.729,684.138Zm-1.7-1.871,1.547.893,4.5-7.793-1.547-.894Z" transform="translate(-1347.053 -673.496)" fill="#006eff"/><path d="M1349.729,684.388a.66.66,0,0,1-.331-.09l-2.262-1.306a.664.664,0,0,1-.244-.906l4.913-8.509a.661.661,0,0,1,.906-.242l2.263,1.306a.664.664,0,0,1,.242.906l-4.912,8.509A.666.666,0,0,1,1349.729,684.388Zm2.65-10.642a.16.16,0,0,0-.14.081l-4.913,8.509a.162.162,0,0,0-.016.124.16.16,0,0,0,.076.1l2.263,1.307a.163.163,0,0,0,.222-.059l4.912-8.51a.159.159,0,0,0,.017-.122.164.164,0,0,0-.076-.1l-2.264-1.306A.16.16,0,0,0,1352.378,673.746Zm-2.709,9.756-1.98-1.143,4.75-8.227,1.98,1.144-.125.216Zm-1.3-1.326,1.114.643,4.25-7.36-1.114-.644Z" transform="translate(-1347.053 -673.496)" fill="#006eff"/></g><g transform="translate(1367.052 673.44)"><path d="M1370.966,684.081a.45.45,0,0,1-.107-.014.417.417,0,0,1-.251-.193l-4.913-8.51a.412.412,0,0,1,.151-.564l2.263-1.306a.414.414,0,0,1,.564.151l4.913,8.51a.412.412,0,0,1-.151.564l-2.263,1.306A.414.414,0,0,1,1370.966,684.081Zm-4.348-8.771,4.5,7.794,1.547-.894-4.5-7.794Z" transform="translate(-1365.64 -673.44)" fill="#006eff"/><path d="M1370.966,684.331a.7.7,0,0,1-.166-.021l-.007,0a.663.663,0,0,1-.4-.309l-4.913-8.51a.662.662,0,0,1,.243-.905l2.262-1.306a.664.664,0,0,1,.905.242l4.913,8.51a.663.663,0,0,1-.243.905l-2.263,1.306A.667.667,0,0,1,1370.966,684.331Zm-.043-.506a.2.2,0,0,0,.043.006.163.163,0,0,0,.082-.023l2.262-1.306a.162.162,0,0,0,.076-.1.16.16,0,0,0-.016-.123l-4.913-8.51a.162.162,0,0,0-.1-.075.153.153,0,0,0-.124.016l-2.263,1.306a.162.162,0,0,0-.076.1.16.16,0,0,0,.016.122l4.913,8.51A.168.168,0,0,0,1370.922,683.825Zm.1-.379-4.75-8.227,1.98-1.144,4.75,8.227Zm-4.067-8.044,4.25,7.361,1.114-.644-4.25-7.361Z" transform="translate(-1365.64 -673.44)" fill="#006eff"/></g><g transform="translate(1351.659 683.346)"><path d="M1352.869,686.188a1.527,1.527,0,0,1-.965-.343h0a1.542,1.542,0,0,1-.229-2.165l.375-.462a1.54,1.54,0,1,1,2.394,1.938l-.375.463a1.527,1.527,0,0,1-1.035.562A1.412,1.412,0,0,1,1352.869,686.188Zm-.445-.984a.715.715,0,0,0,1-.106l.374-.464a.714.714,0,0,0-.105-1,.715.715,0,0,0-1,.106l-.375.463a.711.711,0,0,0,.105,1Z" transform="translate(-1351.334 -682.647)" fill="#006eff"/><path d="M1352.869,686.438a1.765,1.765,0,0,1-1.122-.4,1.791,1.791,0,0,1-.266-2.516l.375-.463a1.79,1.79,0,0,1,2.782,2.252l-.376.463a1.774,1.774,0,0,1-1.2.653A1.65,1.65,0,0,1,1352.869,686.438Zm.379-3.541a1.284,1.284,0,0,0-1,.478l-.375.463a1.291,1.291,0,0,0,.192,1.813,1.27,1.27,0,0,0,.807.288,1.171,1.171,0,0,0,.136-.007,1.28,1.28,0,0,0,.87-.471l.376-.463a1.293,1.293,0,0,0-.191-1.814A1.277,1.277,0,0,0,1353.248,682.9Zm-.376,2.715a.963.963,0,0,1-.748-1.57l.374-.462a.965.965,0,0,1,1.356-.143.964.964,0,0,1,.142,1.354l-.374.464a.966.966,0,0,1-.649.352A.979.979,0,0,1,1352.872,685.612Zm.376-1.889a.462.462,0,0,0-.361.171l-.375.463a.457.457,0,0,0-.1.341.465.465,0,0,0,.823.241l.373-.462a.463.463,0,0,0-.359-.754Z" transform="translate(-1351.334 -682.647)" fill="#006eff"/></g><g transform="translate(1353.355 683.284)"><path d="M1354.447,687.692a1.523,1.523,0,0,1-.966-.344h0a1.537,1.537,0,0,1-.227-2.165l1.638-2.024a1.54,1.54,0,0,1,2.393,1.938l-1.64,2.024a1.528,1.528,0,0,1-1.035.562A1.407,1.407,0,0,1,1354.447,687.692Zm1.643-4.278a.6.6,0,0,0-.076,0,.706.706,0,0,0-.48.26L1353.9,685.7a.715.715,0,0,0,.105,1h0a.715.715,0,0,0,1-.105l1.639-2.024a.714.714,0,0,0-.553-1.163Z" transform="translate(-1352.91 -682.589)" fill="#006eff"/><path d="M1354.447,687.942a1.793,1.793,0,0,1-1.778-1.6,1.781,1.781,0,0,1,.39-1.313L1354.7,683a1.79,1.79,0,0,1,2.782,2.252l-1.64,2.024a1.775,1.775,0,0,1-1.2.653A1.65,1.65,0,0,1,1354.447,687.942Zm1.643-5.1a1.284,1.284,0,0,0-1,.477l-1.638,2.024a1.287,1.287,0,0,0,.19,1.813,1.269,1.269,0,0,0,.809.289,1.159,1.159,0,0,0,.134-.008,1.28,1.28,0,0,0,.87-.471l1.64-2.024a1.289,1.289,0,0,0-1-2.1Zm-1.644,4.276a.945.945,0,0,1-.6-.215.965.965,0,0,1-.141-1.355l1.639-2.024a.955.955,0,0,1,.646-.351.861.861,0,0,1,.1-.006.963.963,0,0,1,.957.864.953.953,0,0,1-.209.707l-1.638,2.024a.955.955,0,0,1-.649.352A.974.974,0,0,1,1354.447,687.115Zm1.644-3.451-.045,0h-.006a.458.458,0,0,0-.311.169l-1.639,2.024a.464.464,0,0,0,.721.584l1.638-2.024a.452.452,0,0,0,.1-.34.461.461,0,0,0-.169-.313A.455.455,0,0,0,1356.09,683.664Z" transform="translate(-1352.91 -682.589)" fill="#006eff"/></g><g transform="translate(1355.014 685.187)"><path d="M1355.989,689.085a1.532,1.532,0,0,1-.967-.342h0a1.541,1.541,0,0,1-.228-2.165l1.336-1.651a1.54,1.54,0,0,1,2.393,1.938l-1.336,1.649A1.536,1.536,0,0,1,1355.989,689.085Zm-.448-.984a.714.714,0,0,0,1-.106l1.336-1.649a.714.714,0,0,0-1.109-.9l-1.336,1.65a.714.714,0,0,0,.106,1Z" transform="translate(-1354.452 -684.358)" fill="#006eff"/><path d="M1355.989,689.335a1.789,1.789,0,0,1-1.389-2.914l1.336-1.65a1.79,1.79,0,0,1,2.782,2.252l-1.336,1.649A1.781,1.781,0,0,1,1355.989,689.335Zm1.339-4.727a1.286,1.286,0,0,0-1,.477l-1.336,1.65a1.289,1.289,0,0,0,2,1.622l1.337-1.65a1.289,1.289,0,0,0-1-2.1Zm-1.338,3.9h0a.963.963,0,0,1-.749-1.569l1.336-1.65a.964.964,0,1,1,1.5,1.213l-1.335,1.649A.961.961,0,0,1,1355.99,688.509Zm1.337-3.076a.462.462,0,0,0-.361.171l-1.336,1.651a.464.464,0,0,0,.069.651.459.459,0,0,0,.291.1h0a.462.462,0,0,0,.361-.172l1.335-1.649a.463.463,0,0,0-.36-.755Z" transform="translate(-1354.452 -684.358)" fill="#006eff"/></g><g transform="translate(1356.809 687.073)"><path d="M1357.656,690.331a1.54,1.54,0,0,1-1.194-2.509l.925-1.141a1.539,1.539,0,1,1,2.392,1.938l-.924,1.142a1.528,1.528,0,0,1-1.035.562C1357.765,690.328,1357.71,690.331,1357.656,690.331Zm.928-3.395a.6.6,0,0,0-.077,0,.7.7,0,0,0-.48.26l-.924,1.14a.714.714,0,0,0,.105,1h0a.715.715,0,0,0,1-.106l.924-1.142a.711.711,0,0,0,.155-.524.714.714,0,0,0-.708-.639Z" transform="translate(-1356.12 -686.11)" fill="#006eff"/><path d="M1357.656,690.581a1.768,1.768,0,0,1-1.124-.4,1.793,1.793,0,0,1-.265-2.517l.925-1.141a1.775,1.775,0,0,1,1.2-.654,1.84,1.84,0,0,1,.185-.009,1.789,1.789,0,0,1,1.392,2.916l-.924,1.142a1.776,1.776,0,0,1-1.2.653C1357.777,690.578,1357.715,690.581,1357.656,690.581Zm.925-4.22a1.329,1.329,0,0,0-.134.007,1.278,1.278,0,0,0-.866.471l-.925,1.141a1.293,1.293,0,0,0,.191,1.814,1.273,1.273,0,0,0,.809.287c.042,0,.089,0,.139-.007a1.278,1.278,0,0,0,.865-.47l.924-1.142a1.289,1.289,0,0,0-1-2.1Zm-.924,3.395a.968.968,0,0,1-.6-.214l-.093-.075v-.012a.966.966,0,0,1-.049-1.27l.924-1.14a.95.95,0,0,1,.645-.351.835.835,0,0,1,.105-.006.96.96,0,0,1,.605.216.964.964,0,0,1,.143,1.354l-.925,1.142a.969.969,0,0,1-.751.357Zm-.266-.585a.458.458,0,0,0,.316.083.469.469,0,0,0,.313-.17l.923-1.141a.462.462,0,0,0,.1-.34.464.464,0,0,0-.459-.416l-.045,0h-.006a.454.454,0,0,0-.31.168l-.925,1.141a.464.464,0,0,0,.068.652Z" transform="translate(-1356.12 -686.11)" fill="#006eff"/></g><g transform="translate(1359.328 689.067)"><path d="M1361.469,689.9a5.886,5.886,0,0,1-2.806-.826.413.413,0,0,1,.421-.71c.121.071,2.956,1.712,4.1-.2a.413.413,0,1,1,.709.423A2.65,2.65,0,0,1,1361.469,689.9Z" transform="translate(-1358.461 -687.964)" fill="#006eff"/><path d="M1361.469,690.152a6.176,6.176,0,0,1-2.934-.861.662.662,0,0,1-.231-.908.662.662,0,0,1,.907-.233,5.2,5.2,0,0,0,2.256.688,1.6,1.6,0,0,0,1.5-.8.662.662,0,0,1,.909-.23.661.661,0,0,1,.229.909A2.9,2.9,0,0,1,1361.469,690.152Zm-2.595-1.594a.163.163,0,0,0-.084.3,5.653,5.653,0,0,0,2.679.791,2.4,2.4,0,0,0,2.2-1.191.162.162,0,0,0,.019-.124.159.159,0,0,0-.074-.1.162.162,0,0,0-.224.056,2.12,2.12,0,0,1-1.927,1.044,5.625,5.625,0,0,1-2.51-.758A.161.161,0,0,0,1358.874,688.558Z" transform="translate(-1358.461 -687.964)" fill="#006eff"/></g><g transform="translate(1360.889 687.538)"><path d="M1364,688.968c-1.151,0-3.041-1.117-3.9-1.664a.413.413,0,0,1,.445-.7c1.575,1.006,3.255,1.717,3.594,1.52.65-.374.65-.55.65-1.07a.413.413,0,1,1,.825,0,1.713,1.713,0,0,1-1.062,1.785A1.1,1.1,0,0,1,1364,688.968Z" transform="translate(-1359.913 -686.543)" fill="#006eff"/><path d="M1364,689.218c-1.187,0-3.037-1.067-4.034-1.7a.663.663,0,0,1,.713-1.118,9.663,9.663,0,0,0,3.3,1.514.234.234,0,0,0,.046,0c.518-.3.518-.363.518-.849a.663.663,0,1,1,1.325,0,1.957,1.957,0,0,1-1.187,2A1.346,1.346,0,0,1,1364,689.218Zm-3.676-2.425a.163.163,0,0,0-.089.3c.766.489,2.665,1.625,3.765,1.625a.863.863,0,0,0,.428-.091,1.478,1.478,0,0,0,.937-1.568.163.163,0,1,0-.325,0c0,.582-.031.858-.775,1.286a.563.563,0,0,1-.288.066,9.938,9.938,0,0,1-3.565-1.592A.162.162,0,0,0,1360.327,686.793Z" transform="translate(-1359.913 -686.543)" fill="#006eff"/></g><g transform="translate(1350.324 681.572)"><path d="M1352.361,684.145a.411.411,0,0,1-.323-.155l-1.855-2.322a.413.413,0,0,1,.646-.515l1.854,2.322a.413.413,0,0,1-.322.67Z" transform="translate(-1350.093 -680.997)" fill="#006eff"/><path d="M1352.361,684.395a.66.66,0,0,1-.518-.249l-1.855-2.322a.663.663,0,0,1,1.036-.828l1.854,2.322a.663.663,0,0,1-.517,1.076Zm-1.855-3.148a.161.161,0,0,0-.1.036.164.164,0,0,0-.025.229l1.854,2.322a.161.161,0,0,0,.128.061.157.157,0,0,0,.1-.035.161.161,0,0,0,.061-.11.159.159,0,0,0-.034-.118l-1.854-2.323A.163.163,0,0,0,1350.506,681.247Z" transform="translate(-1350.093 -680.997)" fill="#006eff"/></g><g transform="translate(1362.119 685.422)"><path d="M1365.436,687.518c-1.647,0-3.948-1.965-4.239-2.218a.413.413,0,0,1,.543-.622c1.183,1.033,3.209,2.323,4.014,1.957.379-.172.459-.783.459-1.266a.413.413,0,0,1,.825,0c0,1.055-.317,1.734-.943,2.018A1.581,1.581,0,0,1,1365.436,687.518Z" transform="translate(-1361.056 -684.576)" fill="#006eff"/><path d="M1365.436,687.768c-1.708,0-3.968-1.9-4.4-2.28a.663.663,0,0,1,.872-1c1.1.963,2.719,1.959,3.515,1.959a.562.562,0,0,0,.231-.041c.2-.089.313-.477.313-1.039a.663.663,0,0,1,1.325,0,2.209,2.209,0,0,1-1.09,2.246A1.832,1.832,0,0,1,1365.436,687.768Zm-3.967-2.942a.161.161,0,0,0-.123.056.163.163,0,0,0,.016.23c.252.22,2.512,2.156,4.074,2.156a1.338,1.338,0,0,0,.556-.109c.529-.24.8-.843.8-1.791a.163.163,0,0,0-.325,0c0,.809-.2,1.311-.606,1.494a1.052,1.052,0,0,1-.438.086c-1.071,0-2.886-1.245-3.844-2.082A.16.16,0,0,0,1361.469,684.826Z" transform="translate(-1361.056 -684.576)" fill="#006eff"/></g><g transform="translate(1355.939 675.42)"><path d="M1367.953,686.662c-1.6,0-4.283-2.034-5.2-2.765a.413.413,0,0,1,.516-.646c1.961,1.568,4.47,2.991,4.935,2.524.011-.011.023-.021.035-.031a1.113,1.113,0,0,0,.39-.838c-.036-.453-.48-.937-1.28-1.4-2.364-1.365-6.069-3.814-6.869-4.345l-.873.229a4.773,4.773,0,0,1-2.977,1.884,1.139,1.139,0,0,1-1.256-1.5,9.708,9.708,0,0,1,2.4-3.6c.094-.083,1.856-1.569,6.37-.516.4.082.754.179,1.068.264.928.251,1.439.39,2.141-.016a.413.413,0,0,1,.412.716,3.2,3.2,0,0,1-2.769.1c-.3-.082-.646-.175-1.03-.254-4.048-.944-5.613.3-5.629.312a8.856,8.856,0,0,0-2.179,3.271.311.311,0,0,0,.057.309.306.306,0,0,0,.286.108,3.987,3.987,0,0,0,2.507-1.649.411.411,0,0,1,.245-.181l1.2-.314a.415.415,0,0,1,.334.056c.042.029,4.352,2.9,6.976,4.419,1.066.615,1.637,1.308,1.693,2.058a1.933,1.933,0,0,1-.679,1.524A1.144,1.144,0,0,1,1367.953,686.662Z" transform="translate(-1355.312 -675.28)" fill="#006eff"/><path d="M1367.953,686.912c-1.651,0-4.294-1.972-5.354-2.82a.665.665,0,0,1-.1-.932.658.658,0,0,1,.518-.249.666.666,0,0,1,.414.145c1.766,1.411,3.782,2.56,4.5,2.56a.211.211,0,0,0,.107-.017.681.681,0,0,1,.052-.047.861.861,0,0,0,.3-.624c-.029-.363-.44-.79-1.156-1.2-2.243-1.3-5.652-3.538-6.789-4.291l-.68.179a4.971,4.971,0,0,1-3.085,1.911,1.4,1.4,0,0,1-.227.019,1.391,1.391,0,0,1-1.3-1.849,9.956,9.956,0,0,1,2.455-3.7l.011-.01a5.437,5.437,0,0,1,3.557-.955,13.487,13.487,0,0,1,3.032.381c.4.082.755.179,1.069.263l.011,0a4.839,4.839,0,0,0,1.179.231,1.478,1.478,0,0,0,.772-.223.663.663,0,1,1,.662,1.149,2.759,2.759,0,0,1-1.426.4,5.955,5.955,0,0,1-1.532-.277l-.031-.008c-.291-.079-.621-.168-.985-.242h-.007a12.185,12.185,0,0,0-2.737-.347,4.71,4.71,0,0,0-2.67.6,8.582,8.582,0,0,0-2.108,3.165.06.06,0,0,0,.012.065.058.058,0,0,0,.057.022,3.76,3.76,0,0,0,2.335-1.536.658.658,0,0,1,.393-.289l1.2-.314a.656.656,0,0,1,.167-.022.665.665,0,0,1,.368.111c.042.028,4.346,2.9,6.964,4.411a3.063,3.063,0,0,1,1.817,2.256,2.193,2.193,0,0,1-.76,1.727A1.386,1.386,0,0,1,1367.953,686.912Zm-4.94-3.5a.161.161,0,0,0-.126.061.164.164,0,0,0,.025.23c.795.636,3.507,2.71,5.042,2.71a.893.893,0,0,0,.65-.219l.01-.009a1.682,1.682,0,0,0,.593-1.315c-.05-.662-.577-1.288-1.568-1.86-2.631-1.519-6.956-4.4-6.993-4.429a.167.167,0,0,0-.128-.02l-1.2.314a.161.161,0,0,0-.1.071,4.246,4.246,0,0,1-2.679,1.764.586.586,0,0,1-.092.007.566.566,0,0,1-.527-.753,9.092,9.092,0,0,1,2.238-3.365l.015-.014a4.891,4.891,0,0,1,3-.725,12.678,12.678,0,0,1,2.847.359c.378.077.715.168,1.012.249l.03.008a5.522,5.522,0,0,0,1.4.26,2.278,2.278,0,0,0,1.176-.333.163.163,0,0,0,.077-.1.159.159,0,0,0-.016-.122.163.163,0,0,0-.142-.083.158.158,0,0,0-.08.022,1.978,1.978,0,0,1-1.022.29,5.2,5.2,0,0,1-1.307-.248l-.014,0c-.308-.083-.656-.178-1.042-.257h-.006a12.992,12.992,0,0,0-2.921-.369,5.06,5.06,0,0,0-3.221.825,9.452,9.452,0,0,0-2.33,3.5.891.891,0,0,0,.833,1.185.9.9,0,0,0,.146-.012,4.561,4.561,0,0,0,2.816-1.785l.052-.072,1.067-.28.093.062c1.028.682,4.56,3.01,6.856,4.336.888.512,1.36,1.049,1.4,1.6a1.319,1.319,0,0,1-.481,1.05h0l-.017.015a.624.624,0,0,1-.46.163c-.954,0-3.189-1.375-4.808-2.669A.161.161,0,0,0,1363.013,683.411Z" transform="translate(-1355.312 -675.28)" fill="#006eff"/></g><g transform="translate(1368.929 682.03)"><path d="M1367.8,684.036a.413.413,0,0,1-.208-.771c.128-.084,1.47-1.122,2.282-1.756a.413.413,0,0,1,.506.652c-1.012.789-2.246,1.745-2.376,1.82A.407.407,0,0,1,1367.8,684.036Z" transform="translate(-1367.384 -681.423)" fill="#006eff"/><path d="M1367.8,684.286a.663.663,0,0,1-.341-1.232c.128-.087,1.29-.984,2.261-1.741a.662.662,0,0,1,.929.116.662.662,0,0,1-.116.931c-2.235,1.742-2.358,1.812-2.4,1.839A.657.657,0,0,1,1367.8,684.286Zm2.327-2.613a.16.16,0,0,0-.1.034c-.657.513-2.149,1.669-2.3,1.768l-.011.007a.163.163,0,0,0,.082.3.156.156,0,0,0,.08-.021c.049-.03.377-.265,2.348-1.8a.163.163,0,0,0,.062-.109.16.16,0,0,0-.033-.119A.162.162,0,0,0,1370.125,681.673Z" transform="translate(-1367.384 -681.423)" fill="#006eff"/></g><g transform="translate(1353.716 675.696)"><path d="M1357.172,677.723a7.672,7.672,0,0,1-3.756-1.44.413.413,0,0,1,.485-.668c.02.015,1.979,1.427,3.5,1.271a.413.413,0,0,1,.083.822A3.035,3.035,0,0,1,1357.172,677.723Z" transform="translate(-1353.245 -675.537)" fill="#006eff"/><path d="M1357.172,677.973a7.869,7.869,0,0,1-3.9-1.488.663.663,0,0,1,.78-1.072l.005,0a6.736,6.736,0,0,0,3.106,1.231,2.123,2.123,0,0,0,.216-.011c.024,0,.044,0,.064,0a.663.663,0,0,1,.069,1.323A3.254,3.254,0,0,1,1357.172,677.973Zm-3.513-2.186a.163.163,0,0,0-.1.294,7.489,7.489,0,0,0,3.609,1.392,2.769,2.769,0,0,0,.286-.014.162.162,0,0,0,.146-.178.166.166,0,0,0-.181-.146,2.614,2.614,0,0,1-.264.013,7.134,7.134,0,0,1-3.4-1.33h0A.161.161,0,0,0,1353.659,675.787Z" transform="translate(-1353.245 -675.537)" fill="#006eff"/></g></g></svg>