<svg xmlns="http://www.w3.org/2000/svg" width="20.5" height="18.314" viewBox="0 0 20.5 18.314"><g transform="translate(-3522.882 -674.561)"><g transform="translate(3523.132 674.811)"><path d="M3532.114,692.625a.408.408,0,0,1-.29-.122l-5.323-5.47-2.981-.11a.4.4,0,0,1-.388-.4v-5.606a.4.4,0,0,1,.388-.4l2.981-.11,5.323-5.47a.406.406,0,0,1,.441-.091.4.4,0,0,1,.251.372v17.009a.4.4,0,0,1-.4.4Zm-8.176-6.493,2.754.1a.4.4,0,0,1,.274.122l4.745,4.874V676.2l-4.745,4.875a.4.4,0,0,1-.274.121l-2.754.1Z" transform="translate(-3523.132 -674.811)" fill="#006eff"/><path d="M3532.114,692.875a.662.662,0,0,1-.468-.2l-5.255-5.4-2.881-.107a.652.652,0,0,1-.629-.653v-5.606a.651.651,0,0,1,.628-.652l2.881-.107,5.253-5.4a.664.664,0,0,1,.469-.2.653.653,0,0,1,.652.652v17.009a.651.651,0,0,1-.652.653Zm0-17.814a.159.159,0,0,0-.112.047l-5.391,5.54-3.081.114a.152.152,0,0,0-.147.152v5.606a.153.153,0,0,0,.148.153l3.08.114.07.072,5.323,5.47a.16.16,0,0,0,.168.035.152.152,0,0,0,.094-.142V675.213a.15.15,0,0,0-.094-.14A.152.152,0,0,0,3532.114,675.061Zm-.153,16.785-5.175-5.315a.15.15,0,0,0-.1-.046l-3-.112v-5.311l2.995-.111a.154.154,0,0,0,.1-.046l5.174-5.315Zm-7.773-5.955,2.513.094a.645.645,0,0,1,.444.2l4.316,4.433v-13.8l-4.316,4.435a.659.659,0,0,1-.446.2l-2.511.093Z" transform="translate(-3523.132 -674.811)" fill="#006eff"/></g><g transform="translate(3536.147 678.232)"><path d="M3535.941,689.047a.4.4,0,0,1-.252-.718,6.1,6.1,0,0,0,.005-9.542.4.4,0,1,1,.5-.628,6.909,6.909,0,0,1-.006,10.8A.4.4,0,0,1,3535.941,689.047Z" transform="translate(-3535.538 -678.071)" fill="#006eff"/><path d="M3535.941,689.3a.653.653,0,0,1-.408-1.163,5.853,5.853,0,0,0,.006-9.152.653.653,0,0,1,.815-1.019,7.159,7.159,0,0,1-.006,11.191A.641.641,0,0,1,3535.941,689.3Zm.006-10.976a.152.152,0,0,0-.1.271,6.353,6.353,0,0,1-.006,9.933.154.154,0,0,0-.056.1.152.152,0,0,0,.033.112.154.154,0,0,0,.213.025,6.659,6.659,0,0,0,.007-10.41A.151.151,0,0,0,3535.947,678.321Z" transform="translate(-3535.538 -678.071)" fill="#006eff"/></g><g transform="translate(3539.329 676.078)"><path d="M3539.152,691.114a.4.4,0,0,1-.292-.681,9.831,9.831,0,0,0-.172-13.728.4.4,0,0,1,.569-.569,10.636,10.636,0,0,1,.187,14.852A.4.4,0,0,1,3539.152,691.114Z" transform="translate(-3538.571 -676.019)" fill="#006eff"/><path d="M3539.152,691.364a.653.653,0,0,1-.473-1.1,9.582,9.582,0,0,0-.167-13.38.652.652,0,1,1,.922-.922,10.886,10.886,0,0,1,.191,15.2A.652.652,0,0,1,3539.152,691.364Zm-.179-15.1a.152.152,0,0,0-.107.26,10.082,10.082,0,0,1,.176,14.077.154.154,0,0,0,.005.216.155.155,0,0,0,.105.042.149.149,0,0,0,.11-.047,10.386,10.386,0,0,0-.181-14.5A.151.151,0,0,0,3538.973,676.268Z" transform="translate(-3538.571 -676.019)" fill="#006eff"/></g></g></svg>