<svg xmlns="http://www.w3.org/2000/svg" width="20.501" height="22.654" viewBox="0 0 20.501 22.654"><g transform="translate(-406.891 -1779.158)"><g transform="translate(411.939 1779.408)"><g transform="translate(1.267 1.267)"><path d="M418.514,1800.581c-1.165,0-2.215-1.159-2.956-3.264-.135-.38-.258-.8-.37-1.235-.123-.487-.232-1.014-.321-1.567s-.155-1.107-.2-1.674c-.057-.675-.086-1.372-.086-2.068s.029-1.395.086-2.071c.046-.564.114-1.128.2-1.673s.2-1.08.321-1.569c.111-.437.235-.852.37-1.235.741-2.1,1.792-3.264,2.956-3.264s2.214,1.159,2.956,3.264l-.591.208c-.637-1.808-1.5-2.845-2.365-2.845s-1.728,1.037-2.366,2.845c-.129.365-.247.762-.353,1.18-.12.471-.224.981-.311,1.515s-.15,1.076-.2,1.625c-.055.659-.084,1.338-.084,2.018s.029,1.358.084,2.016c.046.552.111,1.1.2,1.627s.192,1.043.311,1.514c.106.422.225.818.353,1.18.638,1.809,1.5,2.846,2.366,2.846s1.728-1.037,2.365-2.845l.591.208C420.728,1799.422,419.678,1800.581,418.514,1800.581Z" transform="translate(-414.579 -1780.962)" fill="#006eff"/><path d="M418.514,1800.831c-1.279,0-2.413-1.218-3.192-3.431-.135-.382-.262-.805-.377-1.257-.126-.5-.236-1.032-.326-1.589s-.157-1.119-.2-1.694c-.057-.679-.086-1.382-.086-2.089s.029-1.412.087-2.092c.047-.573.116-1.142.2-1.691s.2-1.092.326-1.59c.114-.45.241-.873.377-1.257.779-2.212,1.913-3.43,3.192-3.43s2.412,1.218,3.192,3.43l.083.236-1.063.374-.083-.236c-.591-1.677-1.387-2.678-2.129-2.678s-1.538,1-2.13,2.678c-.124.352-.241.741-.347,1.158-.118.463-.221.966-.306,1.494s-.147,1.054-.193,1.606c-.055.656-.083,1.328-.083,2s.028,1.34.083,1.995c.046.552.111,1.093.193,1.608s.189,1.029.306,1.492c.1.41.22.8.346,1.158.592,1.678,1.388,2.679,2.13,2.679s1.538-1,2.129-2.678l.083-.236,1.063.374-.083.236C420.926,1799.613,419.792,1800.831,418.514,1800.831Zm0-19.619c-1.051,0-2.017,1.1-2.72,3.1-.131.37-.253.779-.364,1.213-.122.484-.229,1.005-.317,1.547s-.153,1.093-.2,1.653c-.056.667-.085,1.356-.085,2.05s.029,1.382.085,2.047c.046.562.113,1.119.2,1.656s.195,1.062.317,1.546c.111.437.233.845.363,1.213.7,2,1.67,3.1,2.721,3.1,1.008,0,1.939-1.014,2.635-2.862l-.12-.042c-.675,1.794-1.563,2.777-2.515,2.777-.993,0-1.917-1.07-2.6-3.013-.132-.373-.253-.778-.36-1.2-.12-.476-.227-.992-.315-1.534s-.151-1.082-.2-1.647c-.056-.668-.085-1.354-.085-2.036s.029-1.37.085-2.039c.047-.565.114-1.118.2-1.644.088-.543.194-1.06.315-1.537.109-.432.23-.836.36-1.2.685-1.942,1.609-3.012,2.6-3.012.952,0,1.84.984,2.515,2.777l.12-.042C420.453,1782.226,419.522,1781.212,418.514,1781.212Z" transform="translate(-414.579 -1780.962)" fill="#006eff"/></g><g transform="translate(7.921 14.72)"><path d="M423.345,1799.126l-.607-.154c.119-.47.223-.979.31-1.514l.618.1C423.576,1798.111,423.469,1798.639,423.345,1799.126Z" transform="translate(-422.738 -1797.458)" fill="#006eff"/><path d="M423.525,1799.43l-1.091-.277.061-.242c.118-.466.221-.968.305-1.493l.04-.247,1.112.181-.04.247c-.092.565-.2,1.1-.326,1.59Zm-.486-.639.122.031c.079-.334.151-.688.216-1.057l-.124-.02C423.19,1798.106,423.119,1798.457,423.04,1798.791Z" transform="translate(-422.738 -1797.458)" fill="#006eff"/></g><g transform="translate(8.426 9.007)"><path d="M423.983,1794.593l-.625-.053c.055-.656.084-1.335.084-2.016s-.029-1.361-.084-2.018l.625-.053c.057.674.086,1.371.086,2.071S424.04,1793.918,423.983,1794.593Z" transform="translate(-423.358 -1790.453)" fill="#006eff"/><path d="M424.211,1794.863l-1.123-.1.021-.249c.055-.653.083-1.324.083-1.995s-.028-1.344-.083-2l-.021-.249,1.123-.1.021.249c.057.678.087,1.382.087,2.092s-.029,1.412-.087,2.09Zm-.584-.551.126.011c.043-.587.065-1.19.065-1.8s-.022-1.214-.065-1.8l-.126.011c.043.588.065,1.189.065,1.789S423.67,1793.724,423.627,1794.311Z" transform="translate(-423.358 -1790.453)" fill="#006eff"/></g><g transform="translate(7.921 5.766)"><path d="M423.048,1788.146c-.086-.534-.191-1.044-.31-1.514l.607-.154c.124.489.232,1.017.321,1.569Z" transform="translate(-422.738 -1786.478)" fill="#006eff"/><path d="M422.841,1788.433l-.04-.247c-.085-.526-.188-1.028-.305-1.493l-.061-.242,1.091-.277.061.242c.127.5.236,1.034.326,1.591l.04.247Zm.2-1.62c.079.334.15.684.214,1.047l.125-.02c-.064-.365-.136-.719-.216-1.058Z" transform="translate(-422.738 -1786.478)" fill="#006eff"/></g><path d="M418.227,1801.562c-1.765,0-3.251-1.505-4.186-4.238-.134-.386-.257-.8-.365-1.238a20.87,20.87,0,0,1-.5-2.829l0-.019c-.06-.549-.1-1.12-.126-1.7-.015-.339-.022-.695-.022-1.055s.007-.718.022-1.058c.024-.583.067-1.16.128-1.715a21.013,21.013,0,0,1,.5-2.83c.106-.425.229-.842.365-1.237.935-2.733,2.422-4.238,4.186-4.238s3.251,1.505,4.186,4.238l-.593.2c-.488-1.425-1.6-3.815-3.593-3.815s-3.106,2.39-3.594,3.815c-.13.379-.248.779-.35,1.187a20.462,20.462,0,0,0-.486,2.746c-.06.541-.1,1.1-.125,1.673-.014.332-.021.678-.021,1.031s.007.7.021,1.029c.023.569.065,1.131.125,1.672l0,.018a20.21,20.21,0,0,0,.483,2.728c.105.419.223.819.351,1.187.488,1.426,1.6,3.816,3.594,3.816s3.106-2.39,3.593-3.815l.593.2C421.478,1800.056,419.992,1801.562,418.227,1801.562Z" transform="translate(-413.025 -1779.408)" fill="#006eff"/><path d="M418.227,1801.812c-1.88,0-3.451-1.565-4.422-4.407-.136-.393-.261-.817-.371-1.258a21.108,21.108,0,0,1-.507-2.862l0-.022c-.061-.552-.1-1.128-.127-1.711-.015-.34-.022-.7-.022-1.066s.007-.727.022-1.068c.024-.586.067-1.169.129-1.732a21.259,21.259,0,0,1,.507-2.864c.107-.431.232-.854.371-1.257.973-2.842,2.543-4.407,4.422-4.407s3.45,1.565,4.422,4.407l.081.236-1.066.365-.081-.237c-.466-1.362-1.522-3.646-3.357-3.646s-2.891,2.284-3.357,3.646c-.127.369-.243.761-.344,1.166a20.211,20.211,0,0,0-.48,2.713c-.06.541-.1,1.1-.123,1.655-.014.334-.021.677-.021,1.021s.007.686.021,1.019c.022.556.064,1.111.123,1.652l0,.021a19.963,19.963,0,0,0,.477,2.694c.105.419.221.811.344,1.167.466,1.363,1.522,3.648,3.358,3.648s2.891-2.284,3.356-3.646l.081-.237,1.066.365-.081.236C421.678,1800.246,420.107,1801.812,418.227,1801.812Zm-4.8-8.58a20.608,20.608,0,0,0,.494,2.792c.107.428.227.838.359,1.218.9,2.625,2.3,4.07,3.95,4.07,1.6,0,2.967-1.359,3.866-3.833l-.12-.041c-.548,1.5-1.709,3.748-3.746,3.748-2.147,0-3.321-2.5-3.83-3.985-.128-.368-.248-.775-.357-1.207a20.458,20.458,0,0,1-.488-2.758l0-.021c-.061-.553-.1-1.121-.126-1.689-.014-.339-.021-.689-.021-1.039s.007-.7.021-1.042c.023-.568.065-1.137.126-1.69a20.713,20.713,0,0,1,.492-2.78c.1-.418.224-.824.356-1.207.509-1.488,1.684-3.984,3.83-3.984,2.036,0,3.2,2.247,3.746,3.748l.12-.041c-.9-2.475-2.267-3.833-3.866-3.833-1.649,0-3.051,1.445-3.949,4.069-.134.39-.255.8-.359,1.217a20.758,20.758,0,0,0-.495,2.8c-.061.551-.1,1.122-.127,1.7-.014.335-.022.687-.022,1.048s.007.711.022,1.044c.023.573.066,1.139.125,1.681Z" transform="translate(-413.025 -1779.408)" fill="#006eff"/><g transform="translate(9.757 10.02)"><path d="M425.615,1793.809l-.625-.027c.014-.331.021-.678.021-1.029s-.007-.7-.021-1.031l.625-.027c.015.34.022.7.022,1.058S425.629,1793.469,425.615,1793.809Z" transform="translate(-424.989 -1791.695)" fill="#006eff"/><path d="M425.854,1794.069l-1.125-.048.01-.25c.014-.333.021-.676.021-1.019s-.007-.687-.021-1.02l-.01-.25,1.125-.048.011.25c.015.343.022.7.022,1.068s-.007.724-.022,1.067Zm-.606-.526.126.005c.008-.259.012-.525.012-.8s0-.538-.012-.8l-.126.005c.008.261.012.526.012.792S425.256,1793.282,425.248,1793.543Z" transform="translate(-424.989 -1791.695)" fill="#006eff"/></g><g transform="translate(9.146 13.779)"><path d="M424.847,1799.2l-.607-.154a20.161,20.161,0,0,0,.485-2.745l.307.034h.317l0,.036A20.9,20.9,0,0,1,424.847,1799.2Z" transform="translate(-424.24 -1796.305)" fill="#006eff"/><path d="M425.027,1799.508l-1.091-.277.062-.242a19.918,19.918,0,0,0,.479-2.711l.027-.249.542.061.565,0-.015.314a21.149,21.149,0,0,1-.508,2.864Zm-.485-.639.122.031a20.736,20.736,0,0,0,.407-2.311h-.052l-.074-.008A20.486,20.486,0,0,1,424.542,1798.869Z" transform="translate(-424.24 -1796.305)" fill="#006eff"/></g><g transform="translate(9.146 5.475)"><path d="M424.725,1789.02a20.293,20.293,0,0,0-.485-2.745l.608-.153a21.144,21.144,0,0,1,.5,2.83Z" transform="translate(-424.24 -1786.122)" fill="#006eff"/><path d="M424.5,1789.3l-.027-.248a20.042,20.042,0,0,0-.479-2.711l-.061-.242,1.092-.276.061.242a21.4,21.4,0,0,1,.507,2.863l.028.249Zm.038-2.839a20.6,20.6,0,0,1,.4,2.288l.126-.014a20.964,20.964,0,0,0-.406-2.3Z" transform="translate(-424.24 -1786.122)" fill="#006eff"/></g><g transform="translate(1.267 1.267)"><path d="M418.514,1800.581c-1.165,0-2.215-1.159-2.956-3.264-.135-.38-.258-.8-.37-1.235-.123-.487-.232-1.014-.321-1.567s-.155-1.107-.2-1.674c-.057-.675-.086-1.372-.086-2.068s.029-1.395.086-2.071c.046-.564.114-1.128.2-1.673s.2-1.08.321-1.569c.111-.437.235-.852.37-1.235.741-2.1,1.792-3.264,2.956-3.264s2.214,1.159,2.956,3.264l-.591.208c-.637-1.808-1.5-2.845-2.365-2.845s-1.728,1.037-2.366,2.845c-.129.365-.247.762-.353,1.18-.12.471-.224.981-.311,1.515s-.15,1.076-.2,1.625c-.055.659-.084,1.338-.084,2.018s.029,1.358.084,2.016c.046.552.111,1.1.2,1.627s.192,1.043.311,1.514c.106.422.225.818.353,1.18.638,1.809,1.5,2.846,2.366,2.846s1.728-1.037,2.365-2.845l.591.208C420.728,1799.422,419.678,1800.581,418.514,1800.581Z" transform="translate(-414.579 -1780.962)" fill="#006eff"/><path d="M418.514,1800.831c-1.279,0-2.413-1.218-3.192-3.431-.135-.382-.262-.805-.377-1.257-.126-.5-.236-1.032-.326-1.589s-.157-1.119-.2-1.694c-.057-.679-.086-1.382-.086-2.089s.029-1.412.087-2.092c.047-.573.116-1.142.2-1.691s.2-1.092.326-1.59c.114-.45.241-.873.377-1.257.779-2.212,1.913-3.43,3.192-3.43s2.412,1.218,3.192,3.43l.083.236-1.063.374-.083-.236c-.591-1.677-1.387-2.678-2.129-2.678s-1.538,1-2.13,2.678c-.124.352-.241.741-.347,1.158-.118.463-.221.966-.306,1.494s-.147,1.054-.193,1.606c-.055.656-.083,1.328-.083,2s.028,1.34.083,1.995c.046.552.111,1.093.193,1.608s.189,1.029.306,1.492c.1.41.22.8.346,1.158.592,1.678,1.388,2.679,2.13,2.679s1.538-1,2.129-2.678l.083-.236,1.063.374-.083.236C420.926,1799.613,419.792,1800.831,418.514,1800.831Zm0-19.619c-1.051,0-2.017,1.1-2.72,3.1-.131.37-.253.779-.364,1.213-.122.484-.229,1.005-.317,1.547s-.153,1.093-.2,1.653c-.056.667-.085,1.356-.085,2.05s.029,1.382.085,2.047c.046.562.113,1.119.2,1.656s.195,1.062.317,1.546c.111.437.233.845.363,1.213.7,2,1.67,3.1,2.721,3.1,1.008,0,1.939-1.014,2.635-2.862l-.12-.042c-.675,1.794-1.563,2.777-2.515,2.777-.993,0-1.917-1.07-2.6-3.013-.132-.373-.253-.778-.36-1.2-.12-.476-.227-.992-.315-1.534s-.151-1.082-.2-1.647c-.056-.668-.085-1.354-.085-2.036s.029-1.37.085-2.039c.047-.565.114-1.118.2-1.644.088-.543.194-1.06.315-1.537.109-.432.23-.836.36-1.2.685-1.942,1.609-3.012,2.6-3.012.952,0,1.84.984,2.515,2.777l.12-.042C420.453,1782.226,419.522,1781.212,418.514,1781.212Z" transform="translate(-414.579 -1780.962)" fill="#006eff"/></g><g transform="translate(7.921 14.72)"><path d="M423.345,1799.126l-.607-.154c.119-.47.223-.979.31-1.514l.618.1C423.576,1798.111,423.469,1798.639,423.345,1799.126Z" transform="translate(-422.738 -1797.458)" fill="#006eff"/><path d="M423.525,1799.43l-1.091-.277.061-.242c.118-.466.221-.968.305-1.493l.04-.247,1.112.181-.04.247c-.092.565-.2,1.1-.326,1.59Zm-.486-.639.122.031c.079-.334.151-.688.216-1.057l-.124-.02C423.19,1798.106,423.119,1798.457,423.04,1798.791Z" transform="translate(-422.738 -1797.458)" fill="#006eff"/></g><g transform="translate(8.426 9.007)"><path d="M423.983,1794.593l-.625-.053c.055-.656.084-1.335.084-2.016s-.029-1.361-.084-2.018l.625-.053c.057.674.086,1.371.086,2.071S424.04,1793.918,423.983,1794.593Z" transform="translate(-423.358 -1790.453)" fill="#006eff"/><path d="M424.211,1794.863l-1.123-.1.021-.249c.055-.653.083-1.324.083-1.995s-.028-1.344-.083-2l-.021-.249,1.123-.1.021.249c.057.678.087,1.382.087,2.092s-.029,1.412-.087,2.09Zm-.584-.551.126.011c.043-.587.065-1.19.065-1.8s-.022-1.214-.065-1.8l-.126.011c.043.588.065,1.189.065,1.789S423.67,1793.724,423.627,1794.311Z" transform="translate(-423.358 -1790.453)" fill="#006eff"/></g><g transform="translate(7.921 5.766)"><path d="M423.048,1788.146c-.086-.534-.191-1.044-.31-1.514l.607-.154c.124.489.232,1.017.321,1.569Z" transform="translate(-422.738 -1786.478)" fill="#006eff"/><path d="M422.841,1788.433l-.04-.247c-.085-.526-.188-1.028-.305-1.493l-.061-.242,1.091-.277.061.242c.127.5.236,1.034.326,1.591l.04.247Zm.2-1.62c.079.334.15.684.214,1.047l.125-.02c-.064-.365-.136-.719-.216-1.058Z" transform="translate(-422.738 -1786.478)" fill="#006eff"/></g></g><g transform="translate(407.142 1783.226)"><g transform="translate(1.263 1.254)"><path d="M412.362,1792.919c-.431-.352-.834-.709-1.2-1.061-.328-.319-.625-.634-.885-.939-1.452-1.694-1.931-3.182-1.348-4.191s2.111-1.338,4.3-.928l-.115.616c-1.885-.352-3.215-.125-3.648.625s.035,2.015,1.283,3.471c.247.29.531.591.845.9.35.34.739.685,1.156,1.025Z" transform="translate(-408.69 -1785.628)" fill="#006eff"/><path d="M412.4,1793.27l-.194-.158c-.436-.355-.844-.717-1.213-1.075-.335-.325-.638-.647-.9-.956-1.526-1.781-2.014-3.371-1.374-4.478a3.048,3.048,0,0,1,2.839-1.225,9.513,9.513,0,0,1,1.729.176l.246.046-.207,1.107-.246-.046a8.441,8.441,0,0,0-1.53-.158c-.95,0-1.609.235-1.856.663-.371.643.1,1.833,1.256,3.183.242.284.521.58.829.88.345.335.728.675,1.14,1.011l.194.158Zm-.844-7.392a2.7,2.7,0,0,0-2.406.975c-.526.909-.056,2.3,1.321,3.9.254.3.546.608.869.922.3.295.635.593.988.887l.08-.1c-.35-.293-.679-.588-.98-.881-.32-.311-.609-.618-.861-.913-1.34-1.563-1.805-2.9-1.309-3.758a2.479,2.479,0,0,1,2.289-.913,8.541,8.541,0,0,1,1.375.123l.023-.124A8.635,8.635,0,0,0,411.555,1785.878Z" transform="translate(-408.69 -1785.628)" fill="#006eff"/></g><g transform="translate(9.866 2.89)"><path d="M425.2,1792.227c-.347-.339-.736-.683-1.156-1.025s-.858-.67-1.311-.985c-.541-.376-1.114-.739-1.7-1.08s-1.185-.652-1.788-.936l.267-.567c.619.292,1.236.615,1.834.961s1.194.723,1.748,1.107c.466.324.92.665,1.35,1.014s.837.71,1.2,1.063Z" transform="translate(-419.24 -1787.634)" fill="#006eff"/><path d="M425.2,1792.58l-.179-.174c-.342-.333-.725-.673-1.139-1.01s-.845-.66-1.3-.974c-.532-.37-1.1-.729-1.687-1.068s-1.176-.647-1.769-.927l-.226-.106.48-1.019.226.107c.629.3,1.252.623,1.853.97s1.206.73,1.766,1.119c.471.327.93.672,1.365,1.026s.85.722,1.214,1.078l.179.175Zm-5.631-4.5c.531.257,1.062.539,1.581.838.6.346,1.179.713,1.722,1.091.461.32.908.656,1.326,1,.354.289.687.58.992.867l.088-.09c-.306-.289-.641-.583-1-.874-.425-.346-.874-.683-1.334-1-.548-.38-1.13-.749-1.731-1.1-.517-.3-1.05-.582-1.59-.843Z" transform="translate(-419.24 -1787.634)" fill="#006eff"/></g><g transform="translate(6.892 1.723)"><path d="M417.06,1787.295c-.493-.188-.987-.353-1.467-.489l.17-.6c.5.142,1.01.312,1.52.506Z" transform="translate(-415.593 -1786.203)" fill="#006eff"/><path d="M417.2,1787.618l-.234-.089c-.488-.186-.974-.349-1.446-.482l-.24-.068.307-1.084.241.068c.5.143,1.022.316,1.54.513l.234.089Zm-1.3-.983c.334.1.673.214,1.014.339l.045-.118c-.345-.126-.688-.24-1.025-.342Z" transform="translate(-415.593 -1786.203)" fill="#006eff"/></g><g transform="translate(6.285 7.971)"><path d="M424.437,1799.158a9.2,9.2,0,0,1-1.685-.173c-.4-.073-.82-.174-1.253-.3-.467-.132-.96-.3-1.463-.485h0l-.055-.02c-.517-.2-1.039-.419-1.553-.661-.619-.292-1.235-.615-1.834-.961s-1.193-.723-1.748-1.108l.357-.515c.541.376,1.114.739,1.7,1.08s1.185.652,1.788.936c.484.228.976.439,1.464.625l.046.017c.5.192,1,.356,1.465.488.416.118.818.214,1.2.284,1.885.353,3.215.126,3.649-.625s-.034-2.015-1.282-3.471l.475-.408c1.452,1.694,1.931,3.183,1.349,4.192A2.816,2.816,0,0,1,424.437,1799.158Z" transform="translate(-414.848 -1793.865)" fill="#006eff"/><path d="M424.437,1799.408a9.482,9.482,0,0,1-1.731-.177c-.4-.074-.832-.176-1.275-.3-.477-.135-.976-.3-1.483-.492l-.054-.02c-.53-.2-1.058-.427-1.572-.67-.625-.295-1.248-.621-1.852-.97s-1.205-.73-1.765-1.119l-.205-.143.642-.925.205.143c.532.37,1.1.73,1.686,1.069s1.181.65,1.769.926c.481.227.968.435,1.447.618l.044.017c.5.189.981.351,1.444.482.409.116.8.21,1.175.278a8.421,8.421,0,0,0,1.532.159c.949,0,1.608-.236,1.855-.663.371-.643-.1-1.833-1.255-3.183l-.163-.19.855-.733.163.19c1.527,1.78,2.015,3.371,1.376,4.479A3.046,3.046,0,0,1,424.437,1799.408Zm-9.241-4.019c.487.331,1,.651,1.524.955.592.342,1.2.662,1.815.951.5.237,1.019.457,1.535.654l.053.02c.494.187.98.348,1.444.479.428.122.842.22,1.23.292a8.981,8.981,0,0,0,1.639.169,2.693,2.693,0,0,0,2.4-.976c.5-.874.092-2.187-1.161-3.713l-.1.082c1.216,1.481,1.624,2.742,1.148,3.567a2.476,2.476,0,0,1-2.288.913,8.921,8.921,0,0,1-1.623-.167c-.385-.071-.8-.168-1.219-.289-.477-.135-.977-.3-1.485-.5l-.045-.017c-.492-.188-.99-.4-1.482-.633-.6-.282-1.208-.6-1.806-.946-.524-.3-1.032-.621-1.515-.949Z" transform="translate(-414.848 -1793.865)" fill="#006eff"/></g><path d="M412.216,1794.338a20.679,20.679,0,0,1-2.2-1.848c-.317-.307-.617-.622-.89-.935-1.9-2.177-2.458-4.217-1.576-5.744s2.929-2.062,5.763-1.506l-.121.614c-1.478-.29-4.1-.519-5.1,1.205s.516,3.885,1.505,5.019c.262.3.549.6.855.9a20.151,20.151,0,0,0,2.135,1.792l.128.094v.158H412.4Z" transform="translate(-407.142 -1784.09)" fill="#006eff"/><path d="M412.27,1794.687l-.2-.148a20.934,20.934,0,0,1-2.228-1.87c-.325-.315-.629-.634-.9-.949-1.974-2.264-2.543-4.407-1.6-6.034.7-1.207,2.063-1.846,3.95-1.846a10.888,10.888,0,0,1,2.078.219l.245.048-.217,1.1-.245-.048a9.766,9.766,0,0,0-1.868-.2c-1.477,0-2.476.431-2.967,1.282-.917,1.59.532,3.646,1.477,4.73.265.3.547.6.84.881a19.908,19.908,0,0,0,2.109,1.771l.23.168v.534h-.437Zm-.988-10.347c-1.7,0-2.914.552-3.517,1.6-.824,1.427-.274,3.365,1.548,5.455.266.3.56.614.875.919a20.159,20.159,0,0,0,1.974,1.677l.075-.1a20.12,20.12,0,0,1-1.96-1.666c-.3-.291-.594-.6-.868-.912-1.033-1.185-2.607-3.45-1.534-5.309.587-1.016,1.731-1.532,3.4-1.532a10,10,0,0,1,1.719.16l.024-.124A10.078,10.078,0,0,0,411.282,1784.34Z" transform="translate(-407.142 -1784.09)" fill="#006eff"/><g transform="translate(6.494 7.053)"><path d="M424.469,1800.2a10.586,10.586,0,0,1-2.029-.214c-.4-.077-.822-.179-1.254-.3a21.192,21.192,0,0,1-2.7-.983c-.522-.229-1.043-.48-1.549-.746-.316-.165-.628-.337-.926-.51s-.613-.362-.9-.547l.335-.528c.284.18.581.36.882.534s.594.335.9.5c.494.259,1,.5,1.511.728a20.554,20.554,0,0,0,2.62.953c.416.117.82.214,1.2.289,1.478.29,4.1.519,5.1-1.205s-.517-3.884-1.506-5.018l.472-.412c1.9,2.176,2.458,4.215,1.576,5.744C427.549,1799.616,426.252,1800.2,424.469,1800.2Z" transform="translate(-415.105 -1792.739)" fill="#006eff"/><path d="M424.469,1800.453a10.869,10.869,0,0,1-2.077-.219c-.408-.079-.837-.182-1.274-.306a21.465,21.465,0,0,1-2.734-.994c-.523-.229-1.049-.483-1.565-.754-.318-.166-.633-.339-.935-.515s-.616-.364-.913-.552l-.211-.134.6-.95.211.134c.277.176.571.354.874.529s.592.334.894.492c.491.258.994.5,1.5.72a20.314,20.314,0,0,0,2.588.942c.406.115.8.21,1.183.285a9.8,9.8,0,0,0,1.869.2c1.478,0,2.476-.431,2.968-1.281.917-1.589-.533-3.645-1.478-4.729l-.164-.188.849-.741.164.188c1.973,2.263,2.543,4.405,1.6,6.033C427.722,1799.815,426.356,1800.453,424.469,1800.453Zm-9.019-3.629c.224.139.453.276.683.409.3.172.6.342.917.5.506.266,1.022.514,1.534.739a20.939,20.939,0,0,0,2.67.971c.424.12.839.219,1.233.3a10.365,10.365,0,0,0,1.981.21c1.7,0,2.915-.552,3.518-1.6.8-1.385.306-3.248-1.386-5.264l-.1.083c1.025,1.225,2.389,3.354,1.372,5.118-.587,1.016-1.731,1.531-3.4,1.531a10.3,10.3,0,0,1-1.965-.206c-.392-.077-.8-.176-1.224-.294a20.8,20.8,0,0,1-2.653-.965c-.512-.225-1.026-.472-1.527-.735-.307-.161-.614-.33-.912-.5-.233-.135-.46-.271-.68-.407Z" transform="translate(-415.105 -1792.739)" fill="#006eff"/></g><g transform="translate(7.253 0.515)"><path d="M418.657,1786.278a20.6,20.6,0,0,0-2.621-.953l.171-.6a21.133,21.133,0,0,1,2.7.982Z" transform="translate(-416.036 -1784.722)" fill="#006eff"/><path d="M418.786,1786.607l-.229-.1a20.334,20.334,0,0,0-2.589-.942l-.24-.068.308-1.083.24.068a21.377,21.377,0,0,1,2.733.994l.229.1Zm-2.441-1.453a20.915,20.915,0,0,1,2.184.8l.051-.116a20.941,20.941,0,0,0-2.2-.8Z" transform="translate(-416.036 -1784.722)" fill="#006eff"/></g><g transform="translate(11.384 2.245)"><path d="M426.407,1791.164a20.535,20.535,0,0,0-2.136-1.792c-.447-.328-.913-.645-1.384-.943-.285-.181-.581-.36-.883-.535s-.6-.339-.9-.5l.29-.554c.309.161.621.333.926.509s.614.363.905.548c.483.3.961.63,1.42.967a21.025,21.025,0,0,1,2.2,1.849Z" transform="translate(-421.101 -1786.843)" fill="#006eff"/><path d="M426.413,1791.518l-.179-.174a20.269,20.269,0,0,0-2.11-1.77c-.443-.325-.9-.639-1.369-.933-.278-.177-.573-.355-.875-.53s-.6-.336-.894-.492l-.222-.116.522-1,.221.116c.312.163.626.336.935.514s.628.371.915.554c.488.308.97.637,1.433.976a21.294,21.294,0,0,1,2.228,1.871l.179.174Zm-4.975-4.225c.231.124.463.253.692.385.309.178.609.36.892.541.475.3.946.62,1.4.952a21.115,21.115,0,0,1,1.982,1.642l.088-.09a21.133,21.133,0,0,0-1.994-1.654c-.454-.333-.927-.655-1.405-.957-.281-.179-.583-.362-.9-.543-.23-.133-.463-.262-.7-.387Z" transform="translate(-421.101 -1786.843)" fill="#006eff"/></g><g transform="translate(1.263 1.254)"><path d="M412.362,1792.919c-.431-.352-.834-.709-1.2-1.061-.328-.319-.625-.634-.885-.939-1.452-1.694-1.931-3.182-1.348-4.191s2.111-1.338,4.3-.928l-.115.616c-1.885-.352-3.215-.125-3.648.625s.035,2.015,1.283,3.471c.247.29.531.591.845.9.35.34.739.685,1.156,1.025Z" transform="translate(-408.69 -1785.628)" fill="#006eff"/><path d="M412.4,1793.27l-.194-.158c-.436-.355-.844-.717-1.213-1.075-.335-.325-.638-.647-.9-.956-1.526-1.781-2.014-3.371-1.374-4.478a3.048,3.048,0,0,1,2.839-1.225,9.513,9.513,0,0,1,1.729.176l.246.046-.207,1.107-.246-.046a8.441,8.441,0,0,0-1.53-.158c-.95,0-1.609.235-1.856.663-.371.643.1,1.833,1.256,3.183.242.284.521.58.829.88.345.335.728.675,1.14,1.011l.194.158Zm-.844-7.392a2.7,2.7,0,0,0-2.406.975c-.526.909-.056,2.3,1.321,3.9.254.3.546.608.869.922.3.295.635.593.988.887l.08-.1c-.35-.293-.679-.588-.98-.881-.32-.311-.609-.618-.861-.913-1.34-1.563-1.805-2.9-1.309-3.758a2.479,2.479,0,0,1,2.289-.913,8.541,8.541,0,0,1,1.375.123l.023-.124A8.635,8.635,0,0,0,411.555,1785.878Z" transform="translate(-408.69 -1785.628)" fill="#006eff"/></g><g transform="translate(9.866 2.89)"><path d="M425.2,1792.227c-.347-.339-.736-.683-1.156-1.025s-.858-.67-1.311-.985c-.541-.376-1.114-.739-1.7-1.08s-1.185-.652-1.788-.936l.267-.567c.619.292,1.236.615,1.834.961s1.194.723,1.748,1.107c.466.324.92.665,1.35,1.014s.837.71,1.2,1.063Z" transform="translate(-419.24 -1787.634)" fill="#006eff"/><path d="M425.2,1792.58l-.179-.174c-.342-.333-.725-.673-1.139-1.01s-.845-.66-1.3-.974c-.532-.37-1.1-.729-1.687-1.068s-1.176-.647-1.769-.927l-.226-.106.48-1.019.226.107c.629.3,1.252.623,1.853.97s1.206.73,1.766,1.119c.471.327.93.672,1.365,1.026s.85.722,1.214,1.078l.179.175Zm-5.631-4.5c.531.257,1.062.539,1.581.838.6.346,1.179.713,1.722,1.091.461.32.908.656,1.326,1,.354.289.687.58.992.867l.088-.09c-.306-.289-.641-.583-1-.874-.425-.346-.874-.683-1.334-1-.548-.38-1.13-.749-1.731-1.1-.517-.3-1.05-.582-1.59-.843Z" transform="translate(-419.24 -1787.634)" fill="#006eff"/></g><g transform="translate(6.892 1.723)"><path d="M417.06,1787.295c-.493-.188-.987-.353-1.467-.489l.17-.6c.5.142,1.01.312,1.52.506Z" transform="translate(-415.593 -1786.203)" fill="#006eff"/><path d="M417.2,1787.618l-.234-.089c-.488-.186-.974-.349-1.446-.482l-.24-.068.307-1.084.241.068c.5.143,1.022.316,1.54.513l.234.089Zm-1.3-.983c.334.1.673.214,1.014.339l.045-.118c-.345-.126-.688-.24-1.025-.342Z" transform="translate(-415.593 -1786.203)" fill="#006eff"/></g><g transform="translate(6.285 7.971)"><path d="M424.437,1799.158a9.2,9.2,0,0,1-1.685-.173c-.4-.073-.82-.174-1.253-.3-.467-.132-.96-.3-1.463-.485h0l-.055-.02c-.517-.2-1.039-.419-1.553-.661-.619-.292-1.235-.615-1.834-.961s-1.193-.723-1.748-1.108l.357-.515c.541.376,1.114.739,1.7,1.08s1.185.652,1.788.936c.484.228.976.439,1.464.625l.046.017c.5.192,1,.356,1.465.488.416.118.818.214,1.2.284,1.885.353,3.215.126,3.649-.625s-.034-2.015-1.282-3.471l.475-.408c1.452,1.694,1.931,3.183,1.349,4.192A2.816,2.816,0,0,1,424.437,1799.158Z" transform="translate(-414.848 -1793.865)" fill="#006eff"/><path d="M424.437,1799.408a9.482,9.482,0,0,1-1.731-.177c-.4-.074-.832-.176-1.275-.3-.477-.135-.976-.3-1.483-.492l-.054-.02c-.53-.2-1.058-.427-1.572-.67-.625-.295-1.248-.621-1.852-.97s-1.205-.73-1.765-1.119l-.205-.143.642-.925.205.143c.532.37,1.1.73,1.686,1.069s1.181.65,1.769.926c.481.227.968.435,1.447.618l.044.017c.5.189.981.351,1.444.482.409.116.8.21,1.175.278a8.421,8.421,0,0,0,1.532.159c.949,0,1.608-.236,1.855-.663.371-.643-.1-1.833-1.255-3.183l-.163-.19.855-.733.163.19c1.527,1.78,2.015,3.371,1.376,4.479A3.046,3.046,0,0,1,424.437,1799.408Zm-9.241-4.019c.487.331,1,.651,1.524.955.592.342,1.2.662,1.815.951.5.237,1.019.457,1.535.654l.053.02c.494.187.98.348,1.444.479.428.122.842.22,1.23.292a8.981,8.981,0,0,0,1.639.169,2.693,2.693,0,0,0,2.4-.976c.5-.874.092-2.187-1.161-3.713l-.1.082c1.216,1.481,1.624,2.742,1.148,3.567a2.476,2.476,0,0,1-2.288.913,8.921,8.921,0,0,1-1.623-.167c-.385-.071-.8-.168-1.219-.289-.477-.135-.977-.3-1.485-.5l-.045-.017c-.492-.188-.99-.4-1.482-.633-.6-.282-1.208-.6-1.806-.946-.524-.3-1.032-.621-1.515-.949Z" transform="translate(-414.848 -1793.865)" fill="#006eff"/></g></g><g transform="translate(407.141 1783.226)"><g transform="translate(3.738 5.973)"><path d="M412.162,1792.924l-.437-.448c.36-.352.763-.709,1.2-1.063l.4.485C412.9,1792.241,412.51,1792.586,412.162,1792.924Z" transform="translate(-411.725 -1791.414)" fill="#006eff"/><path d="M412.158,1793.278l-.786-.805.179-.175c.363-.355.772-.717,1.214-1.078l.194-.158.712.873-.194.158c-.41.334-.793.674-1.139,1.01Zm-.078-.8.088.09c.251-.236.518-.473.8-.708l-.08-.1C412.6,1792.006,412.33,1792.246,412.08,1792.482Z" transform="translate(-411.725 -1791.414)" fill="#006eff"/></g><g transform="translate(1.263 7.972)"><path d="M411.552,1799.158a2.816,2.816,0,0,1-2.62-1.1c-.583-1.009-.1-2.5,1.349-4.192l.475.408c-1.248,1.456-1.716,2.721-1.282,3.471s1.763.979,3.647.625l.116.616A9.187,9.187,0,0,1,411.552,1799.158Z" transform="translate(-408.69 -1793.865)" fill="#006eff"/><path d="M411.552,1799.408a3.045,3.045,0,0,1-2.837-1.226c-.64-1.107-.152-2.7,1.376-4.479l.163-.19.855.733-.163.19c-1.158,1.351-1.627,2.54-1.255,3.183.247.428.906.664,1.854.664a8.39,8.39,0,0,0,1.531-.159l.246-.046.208,1.107-.246.046A9.468,9.468,0,0,1,411.552,1799.408Zm-1.242-5.188c-1.254,1.526-1.666,2.839-1.161,3.712a2.692,2.692,0,0,0,2.4.976,8.584,8.584,0,0,0,1.392-.125l-.023-.124a8.508,8.508,0,0,1-1.377.124,2.474,2.474,0,0,1-2.287-.913c-.477-.824-.069-2.085,1.148-3.567Z" transform="translate(-408.69 -1793.865)" fill="#006eff"/></g><g transform="translate(6.285 1.254)"><path d="M418.7,1796l-.267-.567c.6-.284,1.2-.6,1.788-.936s1.164-.7,1.7-1.08c.453-.315.895-.647,1.311-.985s.806-.685,1.156-1.025c.314-.3.6-.606.845-.9,1.249-1.456,1.716-2.721,1.283-3.472s-1.763-.979-3.648-.625c-.38.071-.783.166-1.2.284-.481.136-.975.3-1.467.489s-1,.4-1.508.642c-.6.284-1.2.6-1.788.936s-1.163.7-1.7,1.08l-.357-.515c.555-.385,1.143-.758,1.748-1.107s1.215-.669,1.834-.961c.52-.244,1.041-.466,1.551-.661s1.021-.365,1.519-.506c.433-.122.855-.223,1.253-.3,2.193-.411,3.722-.081,4.3.928s.1,2.5-1.349,4.192c-.259.3-.557.619-.885.938-.362.352-.765.709-1.2,1.061s-.883.691-1.35,1.014c-.555.385-1.143.758-1.748,1.108S419.315,1795.709,418.7,1796Z" transform="translate(-414.848 -1785.628)" fill="#006eff"/><path d="M418.577,1796.334l-.48-1.019.226-.106c.592-.279,1.187-.59,1.769-.926s1.153-.7,1.687-1.069c.444-.308.88-.636,1.3-.974s.8-.68,1.139-1.01c.308-.3.587-.594.829-.879,1.158-1.351,1.628-2.541,1.256-3.184-.247-.427-.906-.663-1.855-.663a8.42,8.42,0,0,0-1.53.158c-.375.07-.77.164-1.175.279-.473.134-.959.3-1.446.482s-.989.4-1.491.635c-.589.277-1.184.589-1.769.927s-1.155.7-1.686,1.068l-.205.143-.642-.926.205-.142c.562-.39,1.156-.767,1.765-1.119s1.228-.676,1.852-.97c.52-.244,1.048-.469,1.568-.668s1.036-.37,1.54-.513c.443-.125.872-.227,1.276-.3a9.478,9.478,0,0,1,1.729-.177,3.05,3.05,0,0,1,2.839,1.225c.639,1.108.151,2.7-1.375,4.479-.264.309-.567.63-.9.954-.367.357-.775.719-1.213,1.076s-.9.7-1.365,1.026c-.557.387-1.151.763-1.766,1.119-.6.347-1.223.673-1.853.97Zm.185-.781.054.114c.54-.262,1.074-.545,1.59-.843.6-.349,1.185-.718,1.731-1.1.459-.319.908-.656,1.334-1s.823-.7,1.18-1.046c.322-.313.614-.623.869-.921,1.378-1.608,1.848-2.994,1.322-3.9a2.7,2.7,0,0,0-2.406-.975,8.989,8.989,0,0,0-1.637.168c-.389.073-.8.171-1.232.292-.49.14-.994.308-1.5.5s-1.025.414-1.534.653c-.611.288-1.222.608-1.815.951-.523.3-1.035.623-1.524.955l.072.1c.482-.327.99-.646,1.515-.949.6-.344,1.2-.663,1.806-.946.514-.241,1.027-.46,1.526-.649s1-.358,1.488-.5c.42-.119.83-.216,1.219-.289a8.92,8.92,0,0,1,1.622-.167,2.476,2.476,0,0,1,2.288.913c.5.86.031,2.2-1.31,3.759-.252.3-.542.6-.86.912-.348.339-.743.689-1.172,1.04s-.872.681-1.327,1c-.545.379-1.124.746-1.722,1.091C419.822,1795.015,419.291,1795.3,418.762,1795.553Z" transform="translate(-414.848 -1785.628)" fill="#006eff"/></g><g transform="translate(6.892 11.703)"><path d="M415.763,1799.532l-.17-.6c.466-.131.959-.3,1.466-.488l.223.585C416.758,1799.226,416.247,1799.4,415.763,1799.532Z" transform="translate(-415.593 -1798.441)" fill="#006eff"/><path d="M415.591,1799.841l-.307-1.084.241-.068c.451-.127.937-.289,1.445-.481l.234-.089.4,1.053-.234.089c-.535.2-1.053.375-1.539.512Zm.31-.74.034.121c.329-.1.671-.213,1.023-.342l-.045-.118C416.564,1798.89,416.225,1799,415.9,1799.1Z" transform="translate(-415.593 -1798.441)" fill="#006eff"/></g><g transform="translate(2.874 4.269)"><path d="M411.1,1791.622l-.436-.448a21.1,21.1,0,0,1,2.2-1.849l.371.5A20.609,20.609,0,0,0,411.1,1791.622Z" transform="translate(-410.665 -1789.325)" fill="#006eff"/><path d="M411.1,1791.976l-.785-.807.179-.174a21.361,21.361,0,0,1,2.226-1.871l.2-.148.667.908-.2.148a20.363,20.363,0,0,0-2.109,1.771Zm-.076-.8.088.09a20.917,20.917,0,0,1,1.78-1.493l-.075-.1A20.917,20.917,0,0,0,411.02,1791.18Z" transform="translate(-410.665 -1789.325)" fill="#006eff"/></g><g transform="translate(0 7.053)"><path d="M411.282,1800.2c-1.783,0-3.078-.587-3.733-1.721-.882-1.528-.322-3.568,1.576-5.744l.471.412c-.989,1.134-2.5,3.294-1.505,5.018s3.622,1.5,5.1,1.205l.121.614A10.594,10.594,0,0,1,411.282,1800.2Z" transform="translate(-407.141 -1792.739)" fill="#006eff"/><path d="M411.282,1800.453c-1.886,0-3.252-.638-3.95-1.846-.939-1.628-.369-3.771,1.6-6.033l.164-.189.848.741-.164.188c-.945,1.084-2.394,3.14-1.477,4.729.491.85,1.49,1.281,2.968,1.281a9.759,9.759,0,0,0,1.867-.2l.245-.048.217,1.1-.245.048A10.873,10.873,0,0,1,411.282,1800.453Zm-2.131-7.36c-1.692,2.016-2.184,3.879-1.385,5.264a3.77,3.77,0,0,0,3.517,1.6,10.062,10.062,0,0,0,1.736-.164l-.024-.124a9.983,9.983,0,0,1-1.718.16c-1.67,0-2.814-.515-3.4-1.532-1.017-1.764.347-3.893,1.371-5.118Z" transform="translate(-407.141 -1792.739)" fill="#006eff"/></g><g transform="translate(6.494)"><path d="M420.218,1796.4h-.077v-.314l-.144-.276c.3-.157.6-.325.9-.5s.6-.354.883-.534c.44-.278.871-.571,1.284-.871l.1-.074a20.042,20.042,0,0,0,2.134-1.792c.307-.3.594-.6.855-.9.989-1.134,2.5-3.3,1.506-5.019s-3.623-1.5-5.1-1.205c-.382.075-.788.172-1.2.29a20.544,20.544,0,0,0-2.62.953c-.508.223-1.015.468-1.509.728-.3.157-.606.325-.905.5s-.6.354-.882.534l-.335-.528c.291-.185.6-.369.9-.548s.619-.348.927-.509c.506-.267,1.027-.518,1.548-.747a21.16,21.16,0,0,1,2.7-.983c.434-.122.855-.224,1.254-.3,2.834-.557,4.881-.022,5.763,1.506s.321,3.568-1.576,5.744c-.272.312-.572.627-.891.935a20.6,20.6,0,0,1-2.072,1.753h0l-.128.095c-.455.334-.933.661-1.42.968-.291.185-.6.369-.905.548s-.616.348-.925.509Z" transform="translate(-415.105 -1784.09)" fill="#006eff"/><path d="M420.28,1796.649h-.388v-.5l-.231-.443.221-.116c.3-.156.6-.321.892-.492s.594-.351.875-.529c.432-.274.86-.564,1.271-.862l.1-.073a19.806,19.806,0,0,0,2.109-1.77c.3-.291.583-.588.841-.883.945-1.084,2.395-3.14,1.478-4.73-.491-.85-1.49-1.281-2.968-1.281a9.751,9.751,0,0,0-1.867.2c-.381.075-.779.171-1.185.285a20.307,20.307,0,0,0-2.588.942c-.5.217-1,.459-1.493.72-.294.153-.6.318-.9.492s-.595.352-.873.529l-.211.134-.6-.95.211-.134c.292-.186.6-.372.913-.553s.622-.35.937-.514c.505-.267,1.031-.521,1.563-.754a21.413,21.413,0,0,1,2.734-.994c.439-.124.868-.227,1.275-.306a10.865,10.865,0,0,1,2.078-.219c1.887,0,3.252.638,3.95,1.846.939,1.628.369,3.771-1.6,6.034-.275.315-.58.635-.9.951a20.725,20.725,0,0,1-2,1.7h0l-.229.17c-.465.342-.948.671-1.435.978-.286.182-.594.368-.914.553s-.631.357-.935.514Zm.054-.736.058.112c.228-.122.46-.251.695-.387.314-.182.616-.364.9-.543.478-.3.951-.624,1.406-.958l.127-.094a20.358,20.358,0,0,0,2.047-1.731c.316-.306.611-.616.877-.921,1.822-2.09,2.372-4.027,1.548-5.455-.6-1.044-1.819-1.6-3.516-1.6a10.367,10.367,0,0,0-1.982.21c-.394.077-.809.176-1.235.3a20.9,20.9,0,0,0-2.669.971c-.52.229-1.035.478-1.531.739-.309.161-.618.331-.919.5-.233.135-.462.272-.684.41l.067.106c.22-.136.447-.273.679-.407.308-.177.616-.346.915-.5.5-.266,1.018-.514,1.524-.735a20.8,20.8,0,0,1,2.652-.965c.419-.118.831-.217,1.225-.295a10.258,10.258,0,0,1,1.963-.206c1.67,0,2.814.515,3.4,1.531,1.072,1.859-.5,4.124-1.534,5.309-.267.306-.559.613-.869.913a20.283,20.283,0,0,1-2.16,1.814l-.1.073c-.422.306-.858.6-1.3.881-.286.181-.586.363-.892.539C420.8,1795.66,420.564,1795.789,420.334,1795.913Z" transform="translate(-415.105 -1784.09)" fill="#006eff"/></g><g transform="translate(7.254 12.446)"><path d="M416.207,1800.908l-.171-.6a20.446,20.446,0,0,0,2.62-.953l.252.573A21.148,21.148,0,0,1,416.207,1800.908Z" transform="translate(-416.036 -1799.352)" fill="#006eff"/><path d="M416.035,1801.217l-.308-1.083.241-.068a20.19,20.19,0,0,0,2.588-.942l.229-.1.453,1.031-.229.1a21.393,21.393,0,0,1-2.733.994Zm.309-.741.035.122a20.946,20.946,0,0,0,2.2-.8l-.051-.115A20.749,20.749,0,0,1,416.344,1800.476Z" transform="translate(-416.036 -1799.352)" fill="#006eff"/></g><g transform="translate(3.738 5.973)"><path d="M412.162,1792.924l-.437-.448c.36-.352.763-.709,1.2-1.063l.4.485C412.9,1792.241,412.51,1792.586,412.162,1792.924Z" transform="translate(-411.725 -1791.414)" fill="#006eff"/><path d="M412.158,1793.278l-.786-.805.179-.175c.363-.355.772-.717,1.214-1.078l.194-.158.712.873-.194.158c-.41.334-.793.674-1.139,1.01Zm-.078-.8.088.09c.251-.236.518-.473.8-.708l-.08-.1C412.6,1792.006,412.33,1792.246,412.08,1792.482Z" transform="translate(-411.725 -1791.414)" fill="#006eff"/></g><g transform="translate(1.263 7.972)"><path d="M411.552,1799.158a2.816,2.816,0,0,1-2.62-1.1c-.583-1.009-.1-2.5,1.349-4.192l.475.408c-1.248,1.456-1.716,2.721-1.282,3.471s1.763.979,3.647.625l.116.616A9.187,9.187,0,0,1,411.552,1799.158Z" transform="translate(-408.69 -1793.865)" fill="#006eff"/><path d="M411.552,1799.408a3.045,3.045,0,0,1-2.837-1.226c-.64-1.107-.152-2.7,1.376-4.479l.163-.19.855.733-.163.19c-1.158,1.351-1.627,2.54-1.255,3.183.247.428.906.664,1.854.664a8.39,8.39,0,0,0,1.531-.159l.246-.046.208,1.107-.246.046A9.468,9.468,0,0,1,411.552,1799.408Zm-1.242-5.188c-1.254,1.526-1.666,2.839-1.161,3.712a2.692,2.692,0,0,0,2.4.976,8.584,8.584,0,0,0,1.392-.125l-.023-.124a8.508,8.508,0,0,1-1.377.124,2.474,2.474,0,0,1-2.287-.913c-.477-.824-.069-2.085,1.148-3.567Z" transform="translate(-408.69 -1793.865)" fill="#006eff"/></g><g transform="translate(6.285 1.254)"><path d="M418.7,1796l-.267-.567c.6-.284,1.2-.6,1.788-.936s1.164-.7,1.7-1.08c.453-.315.895-.647,1.311-.985s.806-.685,1.156-1.025c.314-.3.6-.606.845-.9,1.249-1.456,1.716-2.721,1.283-3.472s-1.763-.979-3.648-.625c-.38.071-.783.166-1.2.284-.481.136-.975.3-1.467.489s-1,.4-1.508.642c-.6.284-1.2.6-1.788.936s-1.163.7-1.7,1.08l-.357-.515c.555-.385,1.143-.758,1.748-1.107s1.215-.669,1.834-.961c.52-.244,1.041-.466,1.551-.661s1.021-.365,1.519-.506c.433-.122.855-.223,1.253-.3,2.193-.411,3.722-.081,4.3.928s.1,2.5-1.349,4.192c-.259.3-.557.619-.885.938-.362.352-.765.709-1.2,1.061s-.883.691-1.35,1.014c-.555.385-1.143.758-1.748,1.108S419.315,1795.709,418.7,1796Z" transform="translate(-414.848 -1785.628)" fill="#006eff"/><path d="M418.577,1796.334l-.48-1.019.226-.106c.592-.279,1.187-.59,1.769-.926s1.153-.7,1.687-1.069c.444-.308.88-.636,1.3-.974s.8-.68,1.139-1.01c.308-.3.587-.594.829-.879,1.158-1.351,1.628-2.541,1.256-3.184-.247-.427-.906-.663-1.855-.663a8.42,8.42,0,0,0-1.53.158c-.375.07-.77.164-1.175.279-.473.134-.959.3-1.446.482s-.989.4-1.491.635c-.589.277-1.184.589-1.769.927s-1.155.7-1.686,1.068l-.205.143-.642-.926.205-.142c.562-.39,1.156-.767,1.765-1.119s1.228-.676,1.852-.97c.52-.244,1.048-.469,1.568-.668s1.036-.37,1.54-.513c.443-.125.872-.227,1.276-.3a9.478,9.478,0,0,1,1.729-.177,3.05,3.05,0,0,1,2.839,1.225c.639,1.108.151,2.7-1.375,4.479-.264.309-.567.63-.9.954-.367.357-.775.719-1.213,1.076s-.9.7-1.365,1.026c-.557.387-1.151.763-1.766,1.119-.6.347-1.223.673-1.853.97Zm.185-.781.054.114c.54-.262,1.074-.545,1.59-.843.6-.349,1.185-.718,1.731-1.1.459-.319.908-.656,1.334-1s.823-.7,1.18-1.046c.322-.313.614-.623.869-.921,1.378-1.608,1.848-2.994,1.322-3.9a2.7,2.7,0,0,0-2.406-.975,8.989,8.989,0,0,0-1.637.168c-.389.073-.8.171-1.232.292-.49.14-.994.308-1.5.5s-1.025.414-1.534.653c-.611.288-1.222.608-1.815.951-.523.3-1.035.623-1.524.955l.072.1c.482-.327.99-.646,1.515-.949.6-.344,1.2-.663,1.806-.946.514-.241,1.027-.46,1.526-.649s1-.358,1.488-.5c.42-.119.83-.216,1.219-.289a8.92,8.92,0,0,1,1.622-.167,2.476,2.476,0,0,1,2.288.913c.5.86.031,2.2-1.31,3.759-.252.3-.542.6-.86.912-.348.339-.743.689-1.172,1.04s-.872.681-1.327,1c-.545.379-1.124.746-1.722,1.091C419.822,1795.015,419.291,1795.3,418.762,1795.553Z" transform="translate(-414.848 -1785.628)" fill="#006eff"/></g><g transform="translate(6.892 11.703)"><path d="M415.763,1799.532l-.17-.6c.466-.131.959-.3,1.466-.488l.223.585C416.758,1799.226,416.247,1799.4,415.763,1799.532Z" transform="translate(-415.593 -1798.441)" fill="#006eff"/><path d="M415.591,1799.841l-.307-1.084.241-.068c.451-.127.937-.289,1.445-.481l.234-.089.4,1.053-.234.089c-.535.2-1.053.375-1.539.512Zm.31-.74.034.121c.329-.1.671-.213,1.023-.342l-.045-.118C416.564,1798.89,416.225,1799,415.9,1799.1Z" transform="translate(-415.593 -1798.441)" fill="#006eff"/></g></g><g transform="translate(415.43 1789.128)"><path d="M418.843,1794.4a1.538,1.538,0,1,1,1.538-1.538A1.54,1.54,0,0,1,418.843,1794.4Zm0-2.45a.912.912,0,1,0,.912.912A.913.913,0,0,0,418.843,1791.953Z" transform="translate(-417.305 -1791.327)" fill="#006eff"/><path d="M418.843,1794.653a1.788,1.788,0,1,1,1.788-1.788A1.79,1.79,0,0,1,418.843,1794.653Zm0-3.076a1.288,1.288,0,1,0,1.288,1.288A1.29,1.29,0,0,0,418.843,1791.577Zm0,2.45a1.162,1.162,0,1,1,1.162-1.162A1.163,1.163,0,0,1,418.843,1794.027Zm0-1.823a.662.662,0,1,0,.662.662A.663.663,0,0,0,418.843,1792.2Z" transform="translate(-417.305 -1791.327)" fill="#006eff"/></g></g></svg>