<svg xmlns="http://www.w3.org/2000/svg" width="18.499" height="23.091" viewBox="0 0 18.499 23.091"><g transform="translate(-479.175 -1104.963)"><g transform="translate(482.341 1108.129)"><path d="M488.113,1119.985a6.084,6.084,0,1,1,6.083-6.083A6.091,6.091,0,0,1,488.113,1119.985Zm0-11.314a5.23,5.23,0,1,0,5.23,5.231A5.237,5.237,0,0,0,488.113,1108.67Z" transform="translate(-482.029 -1107.817)" fill="#006eff"/><path d="M488.113,1120.235a6.334,6.334,0,1,1,6.333-6.333A6.341,6.341,0,0,1,488.113,1120.235Zm0-12.168a5.834,5.834,0,1,0,5.833,5.834A5.841,5.841,0,0,0,488.113,1108.067Zm0,11.314a5.48,5.48,0,1,1,5.48-5.48A5.486,5.486,0,0,1,488.113,1119.381Zm0-10.461a4.98,4.98,0,1,0,4.98,4.981A4.986,4.986,0,0,0,488.113,1108.92Z" transform="translate(-482.029 -1107.817)" fill="#006eff"/></g><g transform="translate(479.425 1105.213)"><path d="M486.965,1123.213a1.906,1.906,0,0,1-.408-.044,2.282,2.282,0,0,1-1.44-1.125,33.807,33.807,0,0,0-4.275-2.712,2.222,2.222,0,0,1-.249-1.811,2.282,2.282,0,0,1-1.125-1.44,3.959,3.959,0,0,0,0-3.735,2.282,2.282,0,0,1,1.125-1.44,33.9,33.9,0,0,0,2.713-4.275,2.222,2.222,0,0,1,1.81-.249,2.283,2.283,0,0,1,1.44-1.125,3.96,3.96,0,0,0,3.736,0,2.281,2.281,0,0,1,1.439,1.125,34.249,34.249,0,0,0,4.275,2.714,2.215,2.215,0,0,1,.249,1.81,2.282,2.282,0,0,1,1.126,1.44,3.958,3.958,0,0,0,0,3.735,2.283,2.283,0,0,1-1.126,1.44,34.219,34.219,0,0,0-2.713,4.275,2.218,2.218,0,0,1-1.81.249,2.28,2.28,0,0,1-1.439,1.125,2.376,2.376,0,0,1-1.868-.468A2.591,2.591,0,0,1,486.965,1123.213Zm-1.636-2.1a.427.427,0,0,1,.384.24,1.682,1.682,0,0,0,1.027.98,1.788,1.788,0,0,0,1.414-.5.427.427,0,0,1,.542,0,1.791,1.791,0,0,0,1.414.5,1.682,1.682,0,0,0,1.027-.98.426.426,0,0,1,.516-.219,1.657,1.657,0,0,0,1.409-.047,1.638,1.638,0,0,0,.56-1.278.428.428,0,0,1,.4-.4,1.637,1.637,0,0,0,1.277-.56,1.657,1.657,0,0,0,.048-1.409.425.425,0,0,1,.218-.516,1.68,1.68,0,0,0,.98-1.028,1.785,1.785,0,0,0-.5-1.415.427.427,0,0,1,0-.541,1.786,1.786,0,0,0,.5-1.416,1.681,1.681,0,0,0-.98-1.027.425.425,0,0,1-.218-.516,1.661,1.661,0,0,0-.048-1.409,1.64,1.64,0,0,0-1.277-.56.427.427,0,0,1-.4-.4,1.64,1.64,0,0,0-.56-1.278,1.661,1.661,0,0,0-1.409-.047.427.427,0,0,1-.516-.218,1.68,1.68,0,0,0-1.027-.981,1.782,1.782,0,0,0-1.416.5.427.427,0,0,1-.541,0,1.784,1.784,0,0,0-1.414-.5,1.68,1.68,0,0,0-1.027.981.428.428,0,0,1-.517.218,1.662,1.662,0,0,0-1.409.047,1.64,1.64,0,0,0-.56,1.278.426.426,0,0,1-.4.4,1.643,1.643,0,0,0-1.278.56,1.661,1.661,0,0,0-.047,1.409.427.427,0,0,1-.218.516,1.683,1.683,0,0,0-.981,1.027,1.79,1.79,0,0,0,.5,1.416.424.424,0,0,1,0,.541,1.789,1.789,0,0,0-.5,1.415,1.682,1.682,0,0,0,.981,1.028.427.427,0,0,1,.218.516,1.657,1.657,0,0,0,.047,1.409,1.64,1.64,0,0,0,1.278.56.427.427,0,0,1,.4.4,1.638,1.638,0,0,0,.56,1.278,1.657,1.657,0,0,0,1.409.047A.426.426,0,0,1,485.329,1121.115Z" transform="translate(-479.425 -1105.213)" fill="#006eff"/><path d="M486.965,1123.463a2.16,2.16,0,0,1-.461-.049,2.472,2.472,0,0,1-1.5-1.091,3.142,3.142,0,0,1-.552.051,2.234,2.234,0,0,1-1.281-.372,4.02,4.02,0,0,0-2.531-2.53,2.41,2.41,0,0,1-.321-1.834,2.472,2.472,0,0,1-1.091-1.5,4.674,4.674,0,0,0,0-3.841,2.472,2.472,0,0,1,1.091-1.5,70.533,70.533,0,0,0,2.853-4.364,2.267,2.267,0,0,1,1.282-.372,3.14,3.14,0,0,1,.551.051,2.473,2.473,0,0,1,1.5-1.091,2.175,2.175,0,0,1,.459-.049,2.545,2.545,0,0,0,2.924,0,2.178,2.178,0,0,1,.459.049,2.47,2.47,0,0,1,1.5,1.091,3.137,3.137,0,0,1,.55-.051,2.267,2.267,0,0,1,1.282.372,4.032,4.032,0,0,0,2.531,2.531,2.4,2.4,0,0,1,.321,1.833,2.472,2.472,0,0,1,1.091,1.5,4.673,4.673,0,0,0,0,3.841,2.472,2.472,0,0,1-1.091,1.5,71.939,71.939,0,0,0-2.853,4.364,2.258,2.258,0,0,1-1.28.372,3.148,3.148,0,0,1-.552-.051,2.469,2.469,0,0,1-1.5,1.091,2.166,2.166,0,0,1-.461.049,2.538,2.538,0,0,0-2.921,0Zm-1.728-1.7.094.154a2.051,2.051,0,0,0,1.28,1.011,1.661,1.661,0,0,0,.354.038,2.34,2.34,0,0,0,1.318-.468l.142-.1.142.1a2.332,2.332,0,0,0,1.318.467,1.666,1.666,0,0,0,.354-.038,2.047,2.047,0,0,0,1.279-1.011l.094-.154.176.04a2.768,2.768,0,0,0,.614.074,1.738,1.738,0,0,0,1-.285,1.962,1.962,0,0,0,.789-1.4l.028-.18.18-.028a1.807,1.807,0,0,0,1.614-2.4l-.04-.176.154-.094a2.051,2.051,0,0,0,1.011-1.28,2.144,2.144,0,0,0-.43-1.671l-.1-.142.1-.142a2.146,2.146,0,0,0,.43-1.672,2.051,2.051,0,0,0-1.011-1.28l-.154-.094.04-.176a1.808,1.808,0,0,0-1.614-2.4l-.18-.028-.028-.18a1.962,1.962,0,0,0-.788-1.4,1.746,1.746,0,0,0-1-.286,2.762,2.762,0,0,0-.612.074l-.176.04-.094-.154a2.048,2.048,0,0,0-1.279-1.011,1.678,1.678,0,0,0-.353-.037,2.334,2.334,0,0,0-1.32.467l-.142.1-.142-.1a2.335,2.335,0,0,0-1.32-.467,1.669,1.669,0,0,0-.353.037,2.051,2.051,0,0,0-1.28,1.011l-.094.154-.176-.04a2.763,2.763,0,0,0-.613-.074,1.746,1.746,0,0,0-1,.286,1.962,1.962,0,0,0-.787,1.4l-.028.18-.18.028a1.807,1.807,0,0,0-1.615,2.4l.04.176-.154.094a2.05,2.05,0,0,0-1.011,1.28,2.146,2.146,0,0,0,.429,1.672l.1.142-.1.142a2.145,2.145,0,0,0-.429,1.671,2.051,2.051,0,0,0,1.011,1.28l.154.094-.04.176a1.806,1.806,0,0,0,1.615,2.4l.18.028.028.18a1.961,1.961,0,0,0,.787,1.4,1.743,1.743,0,0,0,1,.286,2.767,2.767,0,0,0,.614-.074Zm1.727.849a1.3,1.3,0,0,1-.277-.029,1.914,1.914,0,0,1-1.2-1.115.182.182,0,0,0-.215-.092,2.665,2.665,0,0,1-.826.147h0a1.4,1.4,0,0,1-.8-.225,1.868,1.868,0,0,1-.669-1.469.178.178,0,0,0-.166-.165,1.87,1.87,0,0,1-1.469-.669,1.835,1.835,0,0,1-.078-1.627.177.177,0,0,0-.09-.213,1.87,1.87,0,0,1-1.116-1.2,1.967,1.967,0,0,1,.549-1.626.174.174,0,0,0,0-.223,1.969,1.969,0,0,1-.55-1.629,1.869,1.869,0,0,1,1.115-1.2.178.178,0,0,0,.091-.214,1.89,1.89,0,0,1,.078-1.627,1.825,1.825,0,0,1,1.469-.669.177.177,0,0,0,.166-.166,1.87,1.87,0,0,1,.669-1.469,1.845,1.845,0,0,1,1.627-.078.183.183,0,0,0,.056.009.177.177,0,0,0,.159-.1,1.912,1.912,0,0,1,1.2-1.115,1.294,1.294,0,0,1,.279-.03,2.185,2.185,0,0,1,1.347.579.177.177,0,0,0,.113.04.174.174,0,0,0,.111-.04,2.185,2.185,0,0,1,1.347-.58,1.3,1.3,0,0,1,.282.031,1.912,1.912,0,0,1,1.2,1.116.18.18,0,0,0,.214.09,1.843,1.843,0,0,1,1.627.078,1.871,1.871,0,0,1,.669,1.469.177.177,0,0,0,.166.165,1.823,1.823,0,0,1,1.469.669,1.841,1.841,0,0,1,.079,1.626.176.176,0,0,0,.09.214,1.868,1.868,0,0,1,1.115,1.2,2.018,2.018,0,0,1-.549,1.627.176.176,0,0,0,0,.224,2.018,2.018,0,0,1,.549,1.627,1.867,1.867,0,0,1-1.114,1.2.176.176,0,0,0-.091.213,1.887,1.887,0,0,1-.079,1.628,1.867,1.867,0,0,1-1.468.669.178.178,0,0,0-.167.166,1.868,1.868,0,0,1-.669,1.469,1.841,1.841,0,0,1-1.627.077.179.179,0,0,0-.055-.009.174.174,0,0,0-.158.1,1.915,1.915,0,0,1-1.2,1.116,1.32,1.32,0,0,1-.276.029,2.257,2.257,0,0,1-1.35-.579.18.18,0,0,0-.113-.04.174.174,0,0,0-.112.04A2.265,2.265,0,0,1,486.964,1122.609Zm-1.635-1.743a.681.681,0,0,1,.609.38,1.451,1.451,0,0,0,.855.845.806.806,0,0,0,.171.018,1.789,1.789,0,0,0,1.032-.465.677.677,0,0,1,.859,0,1.782,1.782,0,0,0,1.034.465.814.814,0,0,0,.17-.018,1.451,1.451,0,0,0,.855-.845.676.676,0,0,1,.818-.347,1.391,1.391,0,0,0,1.191-.016,1.411,1.411,0,0,0,.451-1.086.679.679,0,0,1,.635-.634,1.409,1.409,0,0,0,1.085-.451,1.429,1.429,0,0,0,.018-1.191.677.677,0,0,1,.347-.819,1.453,1.453,0,0,0,.845-.856,1.559,1.559,0,0,0-.447-1.2.677.677,0,0,1,0-.858,1.559,1.559,0,0,0,.447-1.2,1.454,1.454,0,0,0-.846-.856.677.677,0,0,1-.346-.819,1.437,1.437,0,0,0-.017-1.189,1.416,1.416,0,0,0-1.086-.451.677.677,0,0,1-.635-.634,1.413,1.413,0,0,0-.451-1.087,1.4,1.4,0,0,0-1.191-.016.677.677,0,0,1-.819-.347,1.449,1.449,0,0,0-.855-.846.8.8,0,0,0-.174-.019,1.8,1.8,0,0,0-1.03.467.678.678,0,0,1-.857,0,1.8,1.8,0,0,0-1.031-.467.8.8,0,0,0-.172.018,1.449,1.449,0,0,0-.856.846.674.674,0,0,1-.608.38.683.683,0,0,1-.21-.033,1.4,1.4,0,0,0-1.192.016,1.413,1.413,0,0,0-.451,1.086.677.677,0,0,1-.635.635,1.418,1.418,0,0,0-1.085.451,1.472,1.472,0,0,0-.016,1.19.679.679,0,0,1-.347.819,1.456,1.456,0,0,0-.846.855,1.565,1.565,0,0,0,.448,1.2.674.674,0,0,1,0,.859,1.563,1.563,0,0,0-.447,1.2,1.456,1.456,0,0,0,.847.857.679.679,0,0,1,.346.818,1.432,1.432,0,0,0,.016,1.191,1.412,1.412,0,0,0,1.086.451.678.678,0,0,1,.634.634,1.411,1.411,0,0,0,.451,1.086.91.91,0,0,0,.52.139h0a2.169,2.169,0,0,0,.67-.122A.681.681,0,0,1,485.329,1120.865Z" transform="translate(-479.425 -1105.213)" fill="#006eff"/></g><g transform="translate(479.94 1120.297)"><path d="M483.79,1124.722a.372.372,0,0,1-.292-.122l-1.851-2.38-3.423,1.236a.448.448,0,0,1-.365-.029.2.2,0,0,1-.1-.249l2.513-5.79a.335.335,0,0,1,.321-.173c.183,0,.333.1.333.234v0a.171.171,0,0,1-.015.068l-2.285,5.266,3.01-1.088a.41.41,0,0,1,.443.1l1.627,2.092,2.043-4.711a.337.337,0,0,1,.321-.173c.183,0,.333.1.333.234a.174.174,0,0,1-.015.071l-2.276,5.248a.327.327,0,0,1-.284.165Z" transform="translate(-477.741 -1117.214)" fill="#006eff"/><path d="M483.79,1124.972a.617.617,0,0,1-.489-.218l-1.74-2.237-3.252,1.175a.685.685,0,0,1-.235.041.673.673,0,0,1-.341-.089.448.448,0,0,1-.209-.562l2.513-5.789a.582.582,0,0,1,.552-.327.534.534,0,0,1,.583.484.422.422,0,0,1-.035.17l-2.054,4.734,2.465-.891a.691.691,0,0,1,.236-.041.615.615,0,0,1,.489.219l1.368,1.758,1.873-4.32a.583.583,0,0,1,.552-.328.534.534,0,0,1,.583.484.424.424,0,0,1-.036.173l-2.275,5.246a.568.568,0,0,1-.495.315Zm-2.053-3.045,1.959,2.519a.179.179,0,0,0,.114.025.143.143,0,0,0,.073-.023l2.249-5.186a.2.2,0,0,0-.065-.01.161.161,0,0,0-.093.025l-2.21,5.1-1.886-2.425a.155.155,0,0,0-.094-.026A.205.205,0,0,0,481.736,1121.927Zm-3.728,1.295a.219.219,0,0,0,.13,0l.026-.01,2.489-5.738a.2.2,0,0,0-.065-.01.162.162,0,0,0-.092.024Z" transform="translate(-477.741 -1117.214)" fill="#006eff"/></g><g transform="translate(488.253 1120.297)"><path d="M489.871,1124.722h-.034a.328.328,0,0,1-.284-.165l-2.277-5.248a.175.175,0,0,1-.014-.069c0-.13.148-.237.333-.237a.327.327,0,0,1,.325.184l2.039,4.7,1.631-2.093a.411.411,0,0,1,.443-.1l3.007,1.087-2.282-5.265c-.053-.124.045-.256.221-.294a.371.371,0,0,1,.415.156l2.512,5.8a.2.2,0,0,1-.1.249.447.447,0,0,1-.366.029l-3.419-1.237-1.854,2.38A.37.37,0,0,1,489.871,1124.722Z" transform="translate(-487.263 -1117.215)" fill="#006eff"/><path d="M489.871,1124.972h-.053a.569.569,0,0,1-.494-.315l-2.277-5.249a.427.427,0,0,1-.035-.168.535.535,0,0,1,.583-.487.577.577,0,0,1,.558.344l1.867,4.305,1.372-1.761a.616.616,0,0,1,.489-.218.692.692,0,0,1,.236.041l2.462.89-2.052-4.734a.418.418,0,0,1,.013-.363.555.555,0,0,1,.384-.275.705.705,0,0,1,.151-.016.579.579,0,0,1,.548.318l2.512,5.8a.445.445,0,0,1-.206.564.669.669,0,0,1-.341.09.7.7,0,0,1-.237-.041l-3.249-1.175-1.743,2.236A.613.613,0,0,1,489.871,1124.972Zm-.019-.5h.019a.153.153,0,0,0,.094-.026l1.963-2.519a.209.209,0,0,0-.047-.005.156.156,0,0,0-.095.026l-1.889,2.425-2.212-5.1a.17.17,0,0,0-.091-.022.2.2,0,0,0-.066.011l2.25,5.186A.149.149,0,0,0,489.853,1124.471Zm5.645-1.259.024.009a.214.214,0,0,0,.131,0l-2.485-5.733a.165.165,0,0,0-.092-.024.2.2,0,0,0-.044,0l-.021.006Z" transform="translate(-487.263 -1117.215)" fill="#006eff"/></g></g></svg>