<svg xmlns="http://www.w3.org/2000/svg" width="20.5" height="16.747" viewBox="0 0 20.5 16.747"><g transform="translate(-1156.551 -1545.038)"><g transform="translate(1160.434 1549.647)"><path d="M1173.665,1551.246h-12.108a.314.314,0,0,1,0-.628h12.108a.314.314,0,1,1,0,.628Z" transform="translate(-1161.243 -1550.618)" fill="#006eff"/><path d="M1173.665,1551.5h-12.108a.564.564,0,0,1,0-1.128h12.108a.564.564,0,1,1,0,1.128Zm-12.108-.628a.064.064,0,0,0,0,.128h12.108a.064.064,0,1,0,0-.128Z" transform="translate(-1161.243 -1550.618)" fill="#006eff"/><g transform="translate(0 3.391)"><path d="M1170.758,1555.391h-9.2a.314.314,0,1,1,0-.627h9.2a.314.314,0,1,1,0,.627Z" transform="translate(-1161.243 -1554.764)" fill="#006eff"/><path d="M1170.758,1555.641h-9.2a.564.564,0,1,1,0-1.127h9.2a.564.564,0,1,1,0,1.127Zm-9.2-.627a.064.064,0,1,0,0,.127h9.2a.064.064,0,1,0,0-.127Z" transform="translate(-1161.243 -1554.764)" fill="#006eff"/></g></g><g transform="translate(1156.801 1545.288)"><path d="M1160.989,1561.535a.322.322,0,0,1-.123-.024.315.315,0,0,1-.191-.29v-2.713H1159.3a2.471,2.471,0,0,1-2.5-2.5v-8.4a2.312,2.312,0,0,1,2.5-2.323h15.119a2.227,2.227,0,0,1,2.381,2.323v8.4a2.36,2.36,0,0,1-2.381,2.5H1164.26l-3.053,2.94A.315.315,0,0,1,1160.989,1561.535Zm-1.688-15.619a1.7,1.7,0,0,0-1.872,1.7v8.4a1.829,1.829,0,0,0,1.872,1.868h1.688a.314.314,0,0,1,.314.314v2.29l2.613-2.515a.313.313,0,0,1,.218-.088h10.286a1.734,1.734,0,0,0,1.753-1.868v-8.4a1.6,1.6,0,0,0-1.753-1.7Z" transform="translate(-1156.801 -1545.288)" fill="#006eff"/><path d="M1160.989,1561.785a.574.574,0,0,1-.219-.044.567.567,0,0,1-.345-.52v-2.463H1159.3a2.719,2.719,0,0,1-2.75-2.746v-8.4a2.55,2.55,0,0,1,2.75-2.573h15.119a2.651,2.651,0,0,1,1.9.712,2.528,2.528,0,0,1,.732,1.862v8.4a2.6,2.6,0,0,1-2.631,2.746h-10.059l-2.98,2.87A.564.564,0,0,1,1160.989,1561.785Zm-1.688-16.247a2.073,2.073,0,0,0-2.25,2.073v8.4a2.224,2.224,0,0,0,2.25,2.246h1.624v2.963a.066.066,0,0,0,.04.06.071.071,0,0,0,.024,0,.065.065,0,0,0,.046-.018l3.125-3.009h10.26a2.119,2.119,0,0,0,2.131-2.246v-8.4a1.971,1.971,0,0,0-2.131-2.073Zm1.752,15.533v-2.877a.063.063,0,0,0-.064-.064H1159.3a2.073,2.073,0,0,1-2.122-2.118v-8.4a1.951,1.951,0,0,1,2.122-1.945h15.119a1.851,1.851,0,0,1,2,1.945v8.4a1.974,1.974,0,0,1-2,2.118h-10.286a.063.063,0,0,0-.043.018Zm-1.752-14.905a1.444,1.444,0,0,0-1.622,1.445v8.4a1.584,1.584,0,0,0,1.622,1.618h1.688a.565.565,0,0,1,.564.564v1.7l2.189-2.108a.566.566,0,0,1,.391-.158h10.286a1.48,1.48,0,0,0,1.5-1.618v-8.4a1.355,1.355,0,0,0-1.5-1.445Z" transform="translate(-1156.801 -1545.288)" fill="#006eff"/></g></g></svg>