<svg xmlns="http://www.w3.org/2000/svg" width="20.5" height="13.298" viewBox="0 0 20.5 13.298"><g transform="translate(-1352.38 -1868.462)"><g transform="translate(1352.63 1868.712)"><path d="M1372.341,1881.51h-19.423a.288.288,0,0,1-.288-.289V1869a.288.288,0,0,1,.288-.289h19.423a.289.289,0,0,1,.289.289v12.22A.289.289,0,0,1,1372.341,1881.51Zm-19.134-.577h18.845v-11.644h-18.845Z" transform="translate(-1352.63 -1868.712)" fill="#555"/><path d="M1372.341,1881.76h-19.423a.539.539,0,0,1-.538-.539V1869a.539.539,0,0,1,.538-.539h19.423a.54.54,0,0,1,.539.539v12.22A.54.54,0,0,1,1372.341,1881.76Zm-19.423-12.8a.038.038,0,0,0-.038.039v12.22a.038.038,0,0,0,.038.039h19.423a.039.039,0,0,0,.039-.039V1869a.039.039,0,0,0-.039-.039Zm19.384,12.221h-19.345v-12.144H1372.3Zm-18.845-.5H1371.8v-11.144h-18.345Z" transform="translate(-1352.63 -1868.712)" fill="#555"/></g><g transform="translate(1354.413 1871.979)"><path d="M1363.568,1873.6h-8.3a.289.289,0,1,1,0-.578h8.3a.289.289,0,0,1,0,.578Z" transform="translate(-1354.981 -1873.019)" fill="#555"/><path d="M1363.568,1873.847h-8.3a.539.539,0,1,1,0-1.078h8.3a.539.539,0,0,1,0,1.078Zm-8.3-.578a.039.039,0,1,0,0,.078h8.3a.039.039,0,0,0,0-.078Z" transform="translate(-1354.981 -1873.019)" fill="#555"/><g transform="translate(0 2.843)"><path d="M1363.568,1877.344h-8.3a.289.289,0,1,1,0-.577h8.3a.289.289,0,1,1,0,.577Z" transform="translate(-1354.981 -1876.767)" fill="#555"/><path d="M1363.568,1877.594h-8.3a.539.539,0,1,1,0-1.077h8.3a.539.539,0,1,1,0,1.077Zm-8.3-.577a.039.039,0,0,0-.039.038.039.039,0,0,0,.039.039h8.3a.039.039,0,0,0,.039-.039.038.038,0,0,0-.039-.038Z" transform="translate(-1354.981 -1876.767)" fill="#555"/></g><g transform="translate(0 5.687)"><path d="M1363.568,1881.092h-8.3a.289.289,0,1,1,0-.577h8.3a.289.289,0,1,1,0,.577Z" transform="translate(-1354.981 -1880.515)" fill="#555"/><path d="M1363.568,1881.342h-8.3a.539.539,0,1,1,0-1.077h8.3a.539.539,0,1,1,0,1.077Zm-8.3-.577a.039.039,0,0,0-.039.038.04.04,0,0,0,.039.039h8.3a.039.039,0,0,0,.039-.039.038.038,0,0,0-.039-.038Z" transform="translate(-1354.981 -1880.515)" fill="#555"/></g></g><g transform="translate(1366.563 1870.298)"><path d="M1374.649,1874.743h-3.363a.289.289,0,0,1-.289-.289v-3.363a.289.289,0,0,1,.289-.288h3.363a.288.288,0,0,1,.288.288v3.363A.289.289,0,0,1,1374.649,1874.743Zm-3.074-.578h2.785v-2.785h-2.785Z" transform="translate(-1370.997 -1870.803)" fill="#555"/><path d="M1374.649,1874.993h-3.363a.54.54,0,0,1-.539-.539v-3.363a.539.539,0,0,1,.539-.538h3.363a.539.539,0,0,1,.538.538v3.363A.539.539,0,0,1,1374.649,1874.993Zm-3.363-3.94a.039.039,0,0,0-.039.038v3.363a.04.04,0,0,0,.039.039h3.363a.039.039,0,0,0,.038-.039v-3.363a.038.038,0,0,0-.038-.038Zm3.324,3.362h-3.285v-3.285h3.285Zm-2.785-.5h2.285v-2.285h-2.285Z" transform="translate(-1370.997 -1870.803)" fill="#555"/></g></g></svg>