<svg xmlns="http://www.w3.org/2000/svg" width="16.501" height="23.659" viewBox="0 0 16.501 23.659"><g transform="translate(0.25 0.25)"><g transform="translate(3.559 18.508)"><path d="M2275.195,1088.52h-8a.443.443,0,1,1,0-.885h8a.443.443,0,1,1,0,.885Z" transform="translate(-2266.755 -1087.635)" fill="#555"/><path d="M2275.195,1088.77h-8a.693.693,0,1,1,0-1.385h8a.693.693,0,1,1,0,1.385Zm-8-.885a.193.193,0,1,0,0,.385h8a.193.193,0,1,0,0-.385Z" transform="translate(-2266.755 -1087.635)" fill="#555"/></g><g transform="translate(3.559 20.128)"><path d="M2275.195,1089.924h-8a.443.443,0,1,1,0-.885h8a.443.443,0,1,1,0,.885Z" transform="translate(-2266.755 -1089.039)" fill="#555"/><path d="M2275.195,1090.174h-8a.693.693,0,1,1,0-1.385h8a.693.693,0,1,1,0,1.385Zm-8-.885a.193.193,0,1,0,0,.385h8a.193.193,0,1,0,0-.385Z" transform="translate(-2266.755 -1089.039)" fill="#555"/></g><g transform="translate(3.559 16.986)"><path d="M2271.2,1092.49a4.5,4.5,0,0,1-2.923-.914l-1.385-1.357a.449.449,0,0,1-.133-.316v-3.144a.443.443,0,0,1,.885,0v2.958l1.24,1.215a4.316,4.316,0,0,0,4.648-.015l1.223-1.2v-2.958a.443.443,0,0,1,.886,0v3.144a.447.447,0,0,1-.132.316l-1.372,1.345A4.483,4.483,0,0,1,2271.2,1092.49Z" transform="translate(-2266.755 -1086.316)" fill="#555"/><path d="M2271.2,1092.74a4.717,4.717,0,0,1-3.09-.978l-.008-.008-1.385-1.357a.7.7,0,0,1-.208-.495v-3.144a.693.693,0,0,1,1.385,0v2.853l1.156,1.133a3.529,3.529,0,0,0,2.15.609,3.474,3.474,0,0,0,2.164-.622l1.142-1.12v-2.853a.693.693,0,0,1,1.386,0v3.144a.693.693,0,0,1-.206.493l-1.381,1.353A4.7,4.7,0,0,1,2271.2,1092.74Zm-2.753-1.347a4.888,4.888,0,0,0,5.518-.012l1.369-1.341a.2.2,0,0,0,.057-.138v-3.144a.193.193,0,0,0-.386,0v3.063l-1.311,1.285a3.909,3.909,0,0,1-2.494.747,3.958,3.958,0,0,1-2.475-.729l-.016-.015-1.315-1.289v-3.063a.193.193,0,0,0-.385,0v3.144a.2.2,0,0,0,.06.14Z" transform="translate(-2266.755 -1086.316)" fill="#555"/></g><path d="M2275.669,1089.47h-8a.442.442,0,0,1-.441-.485,3.529,3.529,0,0,0,.008-.74c-.012-.055-.027-.16-.044-.3a5.264,5.264,0,0,0-.792-2.487c-2.9-3.227-2.76-5.542-2.72-5.892a7.986,7.986,0,0,1,15.972,0c.041.35.176,2.665-2.729,5.9a5.279,5.279,0,0,0-.781,2.479c-.017.141-.032.245-.045.3a3.648,3.648,0,0,0,.009.74.442.442,0,0,1-.441.485Zm-7.527-.885h7.058a2.383,2.383,0,0,1,.037-.533c.008-.039.016-.115.029-.216a5.99,5.99,0,0,1,.992-2.95c2.784-3.1,2.521-5.205,2.518-5.226a.561.561,0,0,1-.005-.067,7.1,7.1,0,1,0-14.2,0,.543.543,0,0,1-.006.072c0,.016-.265,2.118,2.508,5.211a5.977,5.977,0,0,1,1,2.958c.012.1.021.177.03.218A2.536,2.536,0,0,1,2268.143,1088.585Z" transform="translate(-2263.671 -1071.599)" fill="#555"/><path d="M2275.669,1089.72h-8a.692.692,0,0,1-.69-.758,3.635,3.635,0,0,0,.013-.66c-.014-.066-.029-.169-.049-.329a5.087,5.087,0,0,0-.732-2.353c-2.907-3.241-2.833-5.594-2.781-6.071a8.236,8.236,0,0,1,16.472,0c.052.476.125,2.83-2.791,6.08a5.1,5.1,0,0,0-.722,2.346c-.019.154-.034.26-.049.323a3.633,3.633,0,0,0,.013.662.691.691,0,0,1-.69.758Zm-4-17.871a7.761,7.761,0,0,0-7.736,7.716l0,.028c-.029.248-.2,2.513,2.658,5.7l.005.006a5.459,5.459,0,0,1,.848,2.613v.005c.021.175.033.249.04.28a3.757,3.757,0,0,1,0,.816.192.192,0,0,0,.049.148.194.194,0,0,0,.143.063h8a.191.191,0,0,0,.192-.212,3.9,3.9,0,0,1,0-.817c.006-.026.019-.1.041-.276a5.469,5.469,0,0,1,.838-2.61l.005-.006c2.865-3.193,2.7-5.459,2.667-5.706l0-.028A7.759,7.759,0,0,0,2271.671,1071.849Zm3.784,16.986h-7.566l0-.253a2.182,2.182,0,0,0-.031-.476v-.007c-.01-.048-.018-.117-.031-.221v-.014a5.776,5.776,0,0,0-.943-2.824c-2.835-3.164-2.579-5.319-2.567-5.409a.283.283,0,0,0,0-.038,7.367,7.367,0,0,1,7.35-7.357h0a7.367,7.367,0,0,1,7.35,7.357.339.339,0,0,0,0,.035h0c.016.128.227,2.295-2.577,5.422a5.79,5.79,0,0,0-.933,2.817l-.008.064c-.009.076-.016.13-.024.17l0,.008a2.024,2.024,0,0,0-.031.472Zm-7.067-.5h6.564a1.9,1.9,0,0,1,.04-.335c0-.022.01-.074.017-.129l.008-.066a6.2,6.2,0,0,1,1.049-3.08l.005-.006c2.672-2.979,2.458-5.006,2.456-5.026a.791.791,0,0,1-.007-.1,6.85,6.85,0,1,0-13.7,0,.772.772,0,0,1-.008.1c0,.019-.211,2.048,2.446,5.012l.005.006a6.186,6.186,0,0,1,1.059,3.087l0,.016c.01.081.019.152.025.184A1.972,1.972,0,0,1,2268.389,1088.335Z" transform="translate(-2263.671 -1071.599)" fill="#555"/><g transform="translate(2.602 2.708)"><path d="M2266.367,1079.787a.442.442,0,0,1-.442-.443,5.4,5.4,0,0,1,5.4-5.4.443.443,0,1,1,0,.885,4.52,4.52,0,0,0-4.514,4.514A.443.443,0,0,1,2266.367,1079.787Z" transform="translate(-2265.925 -1073.945)" fill="#555"/><path d="M2266.367,1080.037a.694.694,0,0,1-.692-.693,5.656,5.656,0,0,1,5.649-5.649.693.693,0,1,1,0,1.385,4.269,4.269,0,0,0-4.264,4.264A.694.694,0,0,1,2266.367,1080.037Zm4.957-5.843a5.155,5.155,0,0,0-5.149,5.149.193.193,0,1,0,.385,0,4.769,4.769,0,0,1,4.764-4.764.193.193,0,1,0,0-.385Z" transform="translate(-2265.925 -1073.945)" fill="#555"/></g></g></svg>