<svg xmlns="http://www.w3.org/2000/svg" width="18.5" height="21.598" viewBox="0 0 18.5 21.598"><g transform="translate(-2376.745 -2258.471)"><g transform="translate(2376.995 2258.721)"><g transform="translate(0 7.985)"><g transform="translate(5.004)"><path d="M2386.754,2274.274a.328.328,0,0,1-.165-.044l-1.433-.828a1.813,1.813,0,0,1-.9-1.567v-.234c-1.566-1.018-1.5-3.268-1.493-3.366a.32.32,0,0,1,.343-.317.332.332,0,0,1,.318.343c0,.021-.061,2.1,1.322,2.865a.332.332,0,0,1,.171.29v.42a1.151,1.151,0,0,0,.573.994l1.267.733,1.268-.733a1.151,1.151,0,0,0,.573-.994v-.42a.332.332,0,0,1,.171-.29c1.389-.766,1.323-2.844,1.322-2.864a.331.331,0,0,1,.317-.344.328.328,0,0,1,.344.317c0,.1.074,2.349-1.492,3.367v.234a1.815,1.815,0,0,1-.9,1.567l-1.432.828A.333.333,0,0,1,2386.754,2274.274Z" transform="translate(-2382.758 -2267.915)" fill="#006eff"/><path d="M2386.754,2274.524a.579.579,0,0,1-.291-.078l-1.432-.828a2.064,2.064,0,0,1-1.029-1.783v-.1a4.4,4.4,0,0,1-1.492-3.51.576.576,0,0,1,.559-.558.493.493,0,0,1,.053,0,.582.582,0,0,1,.548.6c0,.02-.049,1.951,1.193,2.637a.584.584,0,0,1,.3.509v.42a.9.9,0,0,0,.448.778l1.142.661,1.143-.661a.9.9,0,0,0,.448-.778v-.42a.583.583,0,0,1,.3-.508c1.248-.688,1.195-2.616,1.194-2.636a.581.581,0,0,1,.551-.6l.042,0a.581.581,0,0,1,.568.557,4.378,4.378,0,0,1-1.492,3.51v.1a2.065,2.065,0,0,1-1.03,1.784l-1.432.828A.586.586,0,0,1,2386.754,2274.524Zm-3.686-6.359c-.028,0-.058.04-.059.08,0,.022-.081,2.2,1.379,3.146l.114.074v.37a1.562,1.562,0,0,0,.779,1.35l1.433.828a.081.081,0,0,0,.082,0l1.431-.827a1.564,1.564,0,0,0,.78-1.351v-.37l.114-.074c1.438-.935,1.382-3.059,1.379-3.149a.081.081,0,0,0-.068-.076h-.016a.079.079,0,0,0-.056.026.081.081,0,0,0-.021.058c0,.02.089,2.243-1.451,3.093a.082.082,0,0,0-.042.071v.42a1.4,1.4,0,0,1-.7,1.211l-1.393.805-1.392-.805a1.4,1.4,0,0,1-.7-1.21v-.42a.083.083,0,0,0-.043-.072c-1.536-.848-1.451-3.072-1.45-3.094a.081.081,0,0,0-.078-.082h-.024Z" transform="translate(-2382.758 -2267.915)" fill="#006eff"/></g><g transform="translate(5.424 3.589)"><path d="M2385.137,2276.511a.327.327,0,0,1-.236-.1l-1.566-1.6a.327.327,0,0,1-.082-.319,7.674,7.674,0,0,1,1.128-2.312.331.331,0,0,1,.528.4,7.149,7.149,0,0,0-.966,1.909l1.211,1.239,1.444-1.259a.332.332,0,0,1,.435,0l1.444,1.259,1.211-1.239a7.091,7.091,0,0,0-.965-1.909.331.331,0,0,1,.528-.4,7.668,7.668,0,0,1,1.128,2.311.326.326,0,0,1-.082.319l-1.565,1.6a.331.331,0,0,1-.453.018l-1.464-1.274-1.462,1.274A.331.331,0,0,1,2385.137,2276.511Z" transform="translate(-2383.241 -2272.047)" fill="#006eff"/><path d="M2385.137,2276.761a.581.581,0,0,1-.416-.176l-1.565-1.6a.578.578,0,0,1-.144-.562,7.986,7.986,0,0,1,1.169-2.394.581.581,0,0,1,.812-.114.583.583,0,0,1,.116.813l-.007.01a6.923,6.923,0,0,0-.873,1.684l.94.962,1.266-1.1a.582.582,0,0,1,.763,0l1.267,1.1.939-.961a7.011,7.011,0,0,0-.872-1.682l-.008-.01a.582.582,0,0,1,.114-.814.579.579,0,0,1,.813.114,7.936,7.936,0,0,1,1.169,2.395.577.577,0,0,1-.145.562l-1.564,1.6a.581.581,0,0,1-.8.031l-1.3-1.13-1.3,1.131A.584.584,0,0,1,2385.137,2276.761Zm-.493-4.464a.078.078,0,0,0-.063.031,7.414,7.414,0,0,0-1.087,2.229.078.078,0,0,0,.019.076l1.566,1.6a.079.079,0,0,0,.057.024.081.081,0,0,0,.054-.021l1.626-1.416,1.628,1.417a.079.079,0,0,0,.052.02.082.082,0,0,0,.059-.025l1.564-1.6a.076.076,0,0,0,.021-.076,7.377,7.377,0,0,0-1.087-2.229.08.08,0,0,0-.113-.017.082.082,0,0,0-.017.114h0a7.276,7.276,0,0,1,1,1.983l.045.143-1.48,1.516-1.622-1.414a.082.082,0,0,0-.054-.02.08.08,0,0,0-.053.02l-1.622,1.414-1.481-1.515.045-.143a7.327,7.327,0,0,1,1-1.983h0a.082.082,0,0,0-.016-.114A.08.08,0,0,0,2384.645,2272.3Z" transform="translate(-2383.241 -2272.047)" fill="#006eff"/></g><g transform="translate(0 5.071)"><path d="M2377.326,2281.8a.331.331,0,0,1-.331-.331v-3.959a2.423,2.423,0,0,1,1.647-2.295l4.253-1.439a.331.331,0,1,1,.212.626l-4.253,1.439a1.761,1.761,0,0,0-1.2,1.669v3.959A.331.331,0,0,1,2377.326,2281.8Z" transform="translate(-2376.995 -2273.754)" fill="#006eff"/><path d="M2377.326,2282.045a.582.582,0,0,1-.581-.581v-3.959a2.672,2.672,0,0,1,1.817-2.532l4.253-1.439a.588.588,0,0,1,.186-.031.58.58,0,0,1,.185,1.131l-4.252,1.439a1.511,1.511,0,0,0-1.027,1.432v3.959A.582.582,0,0,1,2377.326,2282.045ZM2383,2274a.085.085,0,0,0-.027,0l-4.252,1.439a2.172,2.172,0,0,0-1.477,2.058v3.959a.081.081,0,0,0,.081.081.08.08,0,0,0,.081-.081v-3.959a2.01,2.01,0,0,1,1.366-1.906l4.253-1.439a.078.078,0,0,0,.047-.04.081.081,0,0,0,0-.062A.08.08,0,0,0,2383,2274Z" transform="translate(-2376.995 -2273.754)" fill="#006eff"/></g><g transform="translate(11.664 5.071)"><path d="M2396.432,2281.8a.331.331,0,0,1-.331-.331v-3.959a1.761,1.761,0,0,0-1.2-1.669l-4.254-1.439a.331.331,0,0,1,.212-.626l4.254,1.439a2.421,2.421,0,0,1,1.646,2.295v3.959A.33.33,0,0,1,2396.432,2281.8Z" transform="translate(-2390.426 -2273.753)" fill="#006eff"/><path d="M2396.432,2282.045a.582.582,0,0,1-.581-.581v-3.959a1.511,1.511,0,0,0-1.026-1.432l-4.254-1.439a.581.581,0,1,1,.373-1.1l4.253,1.439a2.671,2.671,0,0,1,1.815,2.532v3.959A.581.581,0,0,1,2396.432,2282.045Zm-5.676-8.042a.081.081,0,0,0-.072.117.079.079,0,0,0,.046.04l4.255,1.439a2.011,2.011,0,0,1,1.366,1.906v3.959a.08.08,0,1,0,.161,0v-3.959a2.171,2.171,0,0,0-1.476-2.058l-4.254-1.439A.08.08,0,0,0,2390.756,2274Z" transform="translate(-2390.426 -2273.753)" fill="#006eff"/></g><g transform="translate(7.244 6.928)"><path d="M2385.668,2281.985a.288.288,0,0,1-.077-.009.33.33,0,0,1-.245-.4l.937-3.924-.635-1.285a.331.331,0,1,1,.593-.293l.687,1.391a.326.326,0,0,1,.025.224l-.964,4.041A.331.331,0,0,1,2385.668,2281.985Z" transform="translate(-2385.337 -2275.892)" fill="#006eff"/><path d="M2385.668,2282.235a.539.539,0,0,1-.138-.016.58.58,0,0,1-.427-.7l.916-3.836-.594-1.2a.581.581,0,1,1,1.041-.514l.687,1.391a.576.576,0,0,1,.044.394l-.964,4.04A.579.579,0,0,1,2385.668,2282.235Zm-.011-.5h.011a.081.081,0,0,0,.078-.062l.964-4.04a.076.076,0,0,0-.006-.053l-.687-1.393a.082.082,0,0,0-.073-.045.085.085,0,0,0-.037.009.082.082,0,0,0-.034.108l.675,1.366-.958,4.012a.08.08,0,0,0,.01.061.077.077,0,0,0,.049.035l.009,0Z" transform="translate(-2385.337 -2275.892)" fill="#006eff"/></g><g transform="translate(9.131 6.928)"><path d="M2388.8,2281.985a.331.331,0,0,1-.322-.253l-.964-4.04a.331.331,0,0,1,.025-.224l.687-1.391a.331.331,0,1,1,.593.293l-.635,1.285.938,3.924a.331.331,0,0,1-.245.4A.3.3,0,0,1,2388.8,2281.985Z" transform="translate(-2387.509 -2275.892)" fill="#006eff"/><path d="M2388.8,2282.235a.579.579,0,0,1-.565-.445l-.964-4.041a.582.582,0,0,1,.044-.393l.687-1.391a.583.583,0,0,1,.777-.265.585.585,0,0,1,.264.779l-.6,1.2.917,3.836a.582.582,0,0,1-.428.7A.548.548,0,0,1,2388.8,2282.235Zm-.275-6.093a.081.081,0,0,0-.073.045l-.687,1.391a.079.079,0,0,0-.006.055l.964,4.041a.08.08,0,0,0,.078.061h.016a.082.082,0,0,0,.063-.1l-.958-4.011.675-1.366a.082.082,0,0,0-.037-.11A.079.079,0,0,0,2388.528,2276.142Z" transform="translate(-2387.509 -2275.892)" fill="#006eff"/></g></g><g transform="translate(3.76)"><path d="M2382.9,2267.969h-.027a1.75,1.75,0,0,1-1.54-1.7,1.171,1.171,0,0,1,.372-1.133.81.81,0,0,1,.381-.142,5.141,5.141,0,0,1-.141-1.66,4.618,4.618,0,0,1,9.236.009c0,.137-.008.255-.01.365a5.35,5.35,0,0,1-.137,1.286.82.82,0,0,1,.389.142,1.173,1.173,0,0,1,.373,1.133,1.751,1.751,0,0,1-1.541,1.7.331.331,0,0,1-.055-.659,1.085,1.085,0,0,0,.937-1.1c.027-.328-.031-.494-.095-.538-.085-.061-.288-.008-.359.024a.331.331,0,0,1-.442-.428,3.765,3.765,0,0,0,.268-1.582c0-.113.007-.232.011-.361a3.956,3.956,0,0,0-7.913.013,3.888,3.888,0,0,0,.279,1.929.331.331,0,0,1-.442.428c-.083-.037-.278-.083-.36-.024-.063.045-.122.21-.094.538a1.08,1.08,0,0,0,.935,1.1.331.331,0,0,1-.026.661Z" transform="translate(-2381.325 -2258.721)" fill="#006eff"/><path d="M2390.233,2268.219a.581.581,0,0,1-.053-1.159.835.835,0,0,0,.709-.871,1.138,1.138,0,0,0-.006-.291.467.467,0,0,0-.1.026.581.581,0,0,1-.775-.753,3.526,3.526,0,0,0,.249-1.492l0-.069c0-.092.006-.187.009-.289a3.706,3.706,0,0,0-7.413.017v.007a3.653,3.653,0,0,0,.26,1.826.581.581,0,0,1-.776.752.448.448,0,0,0-.095-.026,1.116,1.116,0,0,0-.007.292c.066.785.627.863.7.869h.008a.581.581,0,0,1-.048,1.16h-.047a2,2,0,0,1-1.769-1.933,1.4,1.4,0,0,1,.477-1.358,1.018,1.018,0,0,1,.222-.119,6.112,6.112,0,0,1-.087-1.481,4.868,4.868,0,0,1,9.736.012v.008c0,.136-.008.253-.01.362v.009a6.67,6.67,0,0,1-.089,1.086,1.038,1.038,0,0,1,.234.123,1.4,1.4,0,0,1,.479,1.358,2,2,0,0,1-1.77,1.933Zm.953-2.752c.165.115.233.372.2.763a1.334,1.334,0,0,1-1.161,1.328.081.081,0,0,0-.077.086.079.079,0,0,0,.083.075h.007a1.5,1.5,0,0,0,1.308-1.475c.037-.451-.053-.757-.268-.908a.567.567,0,0,0-.272-.1l-.289-.031.074-.281a5.144,5.144,0,0,0,.129-1.222v-.007c0-.108.006-.225.01-.362a4.368,4.368,0,0,0-8.736,0v.006a4.862,4.862,0,0,0,.131,1.584l.082.284-.293.033a.559.559,0,0,0-.266.1c-.215.152-.3.457-.267.908a1.505,1.505,0,0,0,1.3,1.475h.015a.08.08,0,0,0,.077-.074.082.082,0,0,0-.073-.088,1.33,1.33,0,0,1-1.165-1.326c-.032-.383.037-.647.2-.762a.437.437,0,0,1,.262-.075.928.928,0,0,1,.344.074.078.078,0,0,0,.092-.015.079.079,0,0,0,.018-.089,4.135,4.135,0,0,1-.3-2.029,4.206,4.206,0,0,1,8.413-.01v.009c0,.1-.006.2-.009.292l0,.068a4,4,0,0,1-.288,1.671.08.08,0,0,0,.018.088.082.082,0,0,0,.09.016.949.949,0,0,1,.347-.074A.438.438,0,0,1,2391.186,2265.468Z" transform="translate(-2381.325 -2258.721)" fill="#006eff"/></g><g transform="translate(6.485 3.515)"><path d="M2389.67,2266.32a5.472,5.472,0,0,1-5.185-3.1.331.331,0,1,1,.616-.242,4.733,4.733,0,0,0,4.569,2.68.331.331,0,0,1,0,.661Z" transform="translate(-2384.463 -2262.768)" fill="#006eff"/><path d="M2389.67,2266.57a5.938,5.938,0,0,1-4.234-1.608,5.27,5.27,0,0,1-1.183-1.65.581.581,0,0,1,.54-.793.577.577,0,0,1,.541.369,4.471,4.471,0,0,0,4.337,2.521.581.581,0,0,1,0,1.161Zm-4.877-3.552a.085.085,0,0,0-.03.006.082.082,0,0,0-.045.105,4.806,4.806,0,0,0,1.077,1.484,5.415,5.415,0,0,0,3.875,1.457.081.081,0,0,0,0-.161,4.98,4.98,0,0,1-4.8-2.838A.081.081,0,0,0,2384.793,2263.018Z" transform="translate(-2384.463 -2262.768)" fill="#006eff"/></g></g></g></svg>