<svg xmlns="http://www.w3.org/2000/svg" width="14.5" height="22.799" viewBox="0 0 14.5 22.799"><g transform="translate(-2421.17 -2437.394)"><g transform="translate(2421.42 2437.644)"><path d="M2433.405,2457.722h-9.97a1.93,1.93,0,0,1-2.015-1.825v-18.649a1.929,1.929,0,0,1,2.015-1.825h9.97a1.929,1.929,0,0,1,2.015,1.825V2455.9A1.93,1.93,0,0,1,2433.405,2457.722Zm-9.97-21.569a1.158,1.158,0,0,0-1.21,1.095V2455.9a1.159,1.159,0,0,0,1.21,1.095h9.97a1.158,1.158,0,0,0,1.21-1.095v-18.649a1.158,1.158,0,0,0-1.21-1.095Z" transform="translate(-2421.42 -2435.423)" fill="#006eff"/><path d="M2433.405,2457.972h-9.97a2.179,2.179,0,0,1-2.265-2.075v-18.649a2.179,2.179,0,0,1,2.265-2.075h9.97a2.179,2.179,0,0,1,2.265,2.075V2455.9A2.179,2.179,0,0,1,2433.405,2457.972Zm-9.97-22.3a1.68,1.68,0,0,0-1.765,1.575V2455.9a1.68,1.68,0,0,0,1.765,1.575h9.97a1.68,1.68,0,0,0,1.765-1.575v-18.649a1.68,1.68,0,0,0-1.765-1.575Zm9.97,21.569h-9.97a1.408,1.408,0,0,1-1.46-1.345v-18.649a1.408,1.408,0,0,1,1.46-1.345h9.97a1.407,1.407,0,0,1,1.46,1.345V2455.9A1.407,1.407,0,0,1,2433.405,2457.242Zm-9.97-20.839a.909.909,0,0,0-.96.845V2455.9a.909.909,0,0,0,.96.845h9.97a.909.909,0,0,0,.96-.845v-18.649a.909.909,0,0,0-.96-.845Z" transform="translate(-2421.42 -2435.423)" fill="#006eff"/></g><g transform="translate(2421.42 2440.315)"><path d="M2435.017,2438.529h-13.195a.4.4,0,0,1,0-.806h13.195a.4.4,0,0,1,0,.806Z" transform="translate(-2421.42 -2437.723)" fill="#006eff"/><path d="M2435.017,2438.779h-13.195a.653.653,0,0,1,0-1.306h13.195a.653.653,0,0,1,0,1.306Zm-13.195-.806a.151.151,0,0,0-.152.153.153.153,0,0,0,.152.153h13.195a.153.153,0,0,0,0-.306Z" transform="translate(-2421.42 -2437.723)" fill="#006eff"/></g><g transform="translate(2421.42 2453.727)"><path d="M2435.017,2453.767h-13.195a.4.4,0,0,1,0-.805h13.195a.4.4,0,1,1,0,.805Z" transform="translate(-2421.42 -2452.962)" fill="#006eff"/><path d="M2435.017,2454.017h-13.195a.653.653,0,0,1,0-1.305h13.195a.653.653,0,1,1,0,1.305Zm-13.195-.805a.153.153,0,0,0,0,.305h13.195a.153.153,0,1,0,0-.305Z" transform="translate(-2421.42 -2452.962)" fill="#006eff"/></g><g transform="translate(2426.63 2455.11)"><path d="M2428.151,2457.818a1.77,1.77,0,1,1,1.769-1.77A1.771,1.771,0,0,1,2428.151,2457.818Zm0-2.733a.963.963,0,1,0,.963.963A.965.965,0,0,0,2428.151,2455.085Z" transform="translate(-2426.382 -2454.279)" fill="#006eff"/><path d="M2428.151,2458.068a2.02,2.02,0,1,1,2.019-2.02A2.022,2.022,0,0,1,2428.151,2458.068Zm0-3.539a1.52,1.52,0,1,0,1.519,1.519A1.521,1.521,0,0,0,2428.151,2454.529Zm0,2.733a1.213,1.213,0,1,1,1.213-1.214A1.215,1.215,0,0,1,2428.151,2457.262Zm0-1.927a.713.713,0,1,0,.713.713A.714.714,0,0,0,2428.151,2455.335Z" transform="translate(-2426.382 -2454.279)" fill="#006eff"/></g><g transform="translate(2423.748 2443.008)"><g transform="translate(2.29 0)"><path d="M2428.536,2447.244c-1.387,0-2.432-2.005-2.432-3.305a2.432,2.432,0,1,1,4.865,0C2430.969,2445.239,2429.924,2447.244,2428.536,2447.244Zm0-4.939a1.635,1.635,0,0,0-1.633,1.634c0,.943.792,2.506,1.633,2.506s1.633-1.563,1.633-2.506A1.635,1.635,0,0,0,2428.536,2442.305Z" transform="translate(-2426.104 -2441.506)" fill="#006eff"/><path d="M2428.536,2447.494c-1.556,0-2.682-2.124-2.682-3.555a2.682,2.682,0,1,1,5.365,0C2431.219,2445.37,2430.092,2447.494,2428.536,2447.494Zm0-5.738a2.185,2.185,0,0,0-2.182,2.183c0,1.207.977,3.055,2.182,3.055s2.183-1.849,2.183-3.055A2.185,2.185,0,0,0,2428.536,2441.756Zm0,4.939c-1.021,0-1.883-1.693-1.883-2.756a1.883,1.883,0,1,1,3.765,0C2430.418,2445,2429.557,2446.7,2428.536,2446.7Zm0-4.14a1.385,1.385,0,0,0-1.383,1.384c0,.871.755,2.256,1.383,2.256s1.383-1.365,1.383-2.256A1.385,1.385,0,0,0,2428.536,2442.555Z" transform="translate(-2426.104 -2441.506)" fill="#006eff"/></g><g transform="translate(0 4.64)"><path d="M2432.826,2450.526h-8.5a.4.4,0,0,1-.4-.4v-1.879a.4.4,0,0,1,.294-.385l3.243-.892,0-.644a.4.4,0,0,1,.4-.4h0a.4.4,0,0,1,.4.4l0,.949a.4.4,0,0,1-.294.386l-3.244.892v1.176h7.7v-1.19l-3.122-.912a.4.4,0,0,1-.288-.381l-.006-.893a.4.4,0,0,1,.4-.4h0a.4.4,0,0,1,.4.4l0,.6,3.124.911a.4.4,0,0,1,.288.383v1.89A.4.4,0,0,1,2432.826,2450.526Z" transform="translate(-2423.923 -2445.925)" fill="#006eff"/><path d="M2432.826,2450.776h-8.5a.651.651,0,0,1-.65-.65v-1.879a.65.65,0,0,1,.479-.626l3.058-.841,0-.452a.65.65,0,1,1,1.3,0l0,.948a.65.65,0,0,1-.479.628l-3.059.841v.735h7.2v-.753l-2.942-.859a.652.652,0,0,1-.468-.62l-.006-.893a.652.652,0,0,1,.645-.655h.005a.652.652,0,0,1,.65.645l0,.412,2.945.859a.655.655,0,0,1,.468.623v1.89A.651.651,0,0,1,2432.826,2450.776Zm-4.968-4.6a.15.15,0,0,0-.15.15l0,.835-.185.051-3.243.892a.149.149,0,0,0-.11.144v1.879a.148.148,0,0,0,.15.15h8.5a.15.15,0,0,0,.15-.15v-1.89a.152.152,0,0,0-.109-.144l-3.3-.963-.005-.783a.15.15,0,1,0-.3,0l.006.893a.15.15,0,0,0,.107.143l3.3.964v1.628h-8.2v-1.616l.184-.05,3.244-.892a.149.149,0,0,0,.11-.145l0-.948A.15.15,0,0,0,2427.858,2446.175Z" transform="translate(-2423.923 -2445.925)" fill="#006eff"/></g></g></g></svg>