<svg xmlns="http://www.w3.org/2000/svg" width="1360.204" height="1554.135" viewBox="0 0 1360.204 1554.135"><g transform="translate(0.001 0)"><path d="M1354.725,1544.831l5.144,1.479-.155.49a10.431,10.431,0,0,1-1.385,2.815l-.3.426-4.272-3.223.254-.391a5.161,5.161,0,0,0,.557-1.146Zm3.867,2.153-3.246-.934q-.115.267-.254.521l2.7,2.037A9.425,9.425,0,0,0,1358.592,1546.984Z" transform="translate(-0.001 -0.001)" fill="#006eff"/><path d="M1359.034,1538.8l.215.469a10.411,10.411,0,0,1,.872,3.064l.063.511-5.329.5-.07-.469a5.069,5.069,0,0,0-.357-1.257l-.187-.434Zm.017,3.147a9.408,9.408,0,0,0-.508-1.785l-3.026,1.508a6.08,6.08,0,0,1,.169.6Z" transform="translate(-0.001 0)" fill="#006eff"/><path d="M1359.77,1546.668l-5.15-1.48.1-.459a5.01,5.01,0,0,0,.117-1.091h.518v0h-.519v-.655l5.312-.5.033.514c.014.218.021.435.021.646a10.52,10.52,0,0,1-.309,2.526Zm-3.989-2.187,3.254.935a9.508,9.508,0,0,0,.168-1.778c0-.022,0-.044,0-.066l-3.369.318C1355.826,1544.087,1355.809,1544.285,1355.781,1544.481Z" transform="translate(-0.001 0)" fill="#006eff"/><path d="M1345.034,1541.442l-4.787-2.387.25-.456a10.488,10.488,0,0,1,1.959-2.55l.37-.353,3.607,3.955-.342.338a5.181,5.181,0,0,0-.821,1.052Zm-3.4-2.811,3.026,1.509a6.181,6.181,0,0,1,.4-.51l-2.274-2.494A9.478,9.478,0,0,0,1341.636,1538.631Z" transform="translate(0 0)" fill="#006eff"/><path d="M1353.324,1539.969l-.366-.3a5.047,5.047,0,0,0-1.121-.7l-.428-.2,1.922-5,.477.2a10.475,10.475,0,0,1,2.743,1.711l.389.337Zm-.651-1.7a6.029,6.029,0,0,1,.543.339l2.282-2.491a9.478,9.478,0,0,0-1.611-1Z" transform="translate(-0.001 0)" fill="#006eff"/><g transform="translate(1353.74 1536.49)"><path transform="translate(-1353.741 -1536.49)" fill="#006eff"/><path d="M1356.667,1535.772l.369.36a10.5,10.5,0,0,1,1.916,2.544l.245.454-4.79,2.387-.234-.411a5.165,5.165,0,0,0-.79-1.05l-.331-.338Zm1.148,2.93a9.484,9.484,0,0,0-1.117-1.483l-2.282,2.491a6.176,6.176,0,0,1,.375.5Z" transform="translate(-1353.741 -1536.49)" fill="#006eff"/></g><path d="M1339.644,1546.676l-.125-.5a10.515,10.515,0,0,1-.315-2.539c0-.23.007-.46.022-.685l.033-.511,5.351.48-.04.494c-.005.068-.005.143-.005.223h-.516v0h.524a5.139,5.139,0,0,0,.12,1.105l.1.459Zm.56-3.147q0,.053,0,.107a9.5,9.5,0,0,0,.173,1.791l3.255-.93a6.165,6.165,0,0,1-.057-.666Z" transform="translate(0 0)" fill="#006eff"/><path d="M1353.978,1546.521l4.28,3.225-.318.4a10.6,10.6,0,0,1-2.359,2.19l-.431.292-2.819-4.553.376-.273a5.208,5.208,0,0,0,.967-.912Zm2.849,3.4-2.7-2.034a6.213,6.213,0,0,1-.467.44l1.783,2.88A9.579,9.579,0,0,0,1356.827,1549.92Z" transform="translate(-0.001 -0.001)" fill="#006eff"/><path d="M1345.486,1546.608l.307.359a5.19,5.19,0,0,0,.993.9l.391.27-2.815,4.554-.43-.284a10.556,10.556,0,0,1-2.382-2.157l-.325-.4Zm.35,1.792a6.2,6.2,0,0,1-.482-.436l-2.69,2.044a9.561,9.561,0,0,0,1.4,1.265Z" transform="translate(0 -0.001)" fill="#006eff"/><path d="M1344.553,1543.286l-5.328-.478.067-.516a10.421,10.421,0,0,1,.905-3.1l.218-.463,4.787,2.388-.2.438a5.051,5.051,0,0,0-.379,1.274Zm-4.189-1.38,3.366.3a6.082,6.082,0,0,1,.184-.62l-3.017-1.5A9.42,9.42,0,0,0,1340.365,1541.907Z" transform="translate(0 0)" fill="#006eff"/><path d="M1352.644,1547.876l2.739,4.435-.3.337-.068.041a10.408,10.408,0,0,1-2.962,1.182l-.507.117-.99-5.262.45-.118a5.155,5.155,0,0,0,1.219-.495Zm1.417,4.2-1.773-2.872a6.158,6.158,0,0,1-.581.235l.626,3.327A9.4,9.4,0,0,0,1354.061,1552.074Z" transform="translate(-0.001 -0.001)" fill="#006eff"/><path d="M1350.918,1548.654l.993,5.262-.506.082a10.592,10.592,0,0,1-3.238.025l-.515-.075.99-5.262.462.053a5.505,5.505,0,0,0,.6.036,5.439,5.439,0,0,0,.741-.054Zm-.183,4.426-.626-3.319a5.918,5.918,0,0,1-.654.009l-.626,3.326A9.727,9.727,0,0,0,1350.735,1553.08Z" transform="translate(0 -0.001)" fill="#006eff"/><path d="M1351.758,1538.9l-.452-.149a5.072,5.072,0,0,0-1.274-.245l-.47-.029.005-5.353.516.017a10.377,10.377,0,0,1,3.113.589l.484.171Zm-1.2-1.344q.3.042.6.115l1.213-3.155a9.379,9.379,0,0,0-1.807-.343Z" transform="translate(-0.001 0)" fill="#006eff"/><path d="M1346.862,1547.943l.414.222a5.152,5.152,0,0,0,1.261.477l.466.109-.995,5.263-.5-.107a10.46,10.46,0,0,1-3.017-1.155l-.449-.257Zm.985,1.545a6.16,6.16,0,0,1-.62-.235l-1.782,2.877a9.445,9.445,0,0,0,1.774.679Z" transform="translate(0 -0.001)" fill="#006eff"/><path d="M1347.71,1538.876l-1.932-4.99.489-.17a10.424,10.424,0,0,1,3.151-.575l.513-.014v5.356l-.477.022a5.061,5.061,0,0,0-1.3.23Zm-.621-4.373,1.221,3.153a6.047,6.047,0,0,1,.62-.111v-3.379A9.417,9.417,0,0,0,1347.089,1534.5Z" transform="translate(0)" fill="#006eff"/><path d="M1344.684,1544.846l.154.45a5.087,5.087,0,0,0,.606,1.215l.266.393-4.267,3.232-.3-.418a10.437,10.437,0,0,1-1.456-2.908l-.156-.491Zm-.32,1.822a6.112,6.112,0,0,1-.3-.6l-3.252.929a9.429,9.429,0,0,0,.859,1.716Z" transform="translate(0 -0.001)" fill="#006eff"/><path d="M1346.154,1539.9l-3.605-3.955.4-.335a10.5,10.5,0,0,1,2.7-1.654l.474-.2,1.935,4.993-.435.193a5.132,5.132,0,0,0-1.1.667Zm-2.156-3.85,2.279,2.5q.248-.167.51-.309l-1.221-3.15A9.5,9.5,0,0,0,1344,1536.046Z" transform="translate(0 0)" fill="#006eff"/></g></svg>