<svg xmlns="http://www.w3.org/2000/svg" width="21" height="21.009" viewBox="0 0 21 21.009">
  <g id="グループ_2194" data-name="グループ 2194" transform="translate(-1339.203 -1533.126)">
    <path id="パス_3134" data-name="パス 3134" d="M1355.044,1545.443a5.659,5.659,0,0,1-.611,1.257l3.485,2.629a9.946,9.946,0,0,0,1.319-2.68Z" transform="translate(-0.001 -0.001)" fill="none" stroke="#006eff" stroke-width="1"/>
    <path id="パス_3253" data-name="パス 3253" d="M1358.795,1539.477h0l-3.907,1.947a5.559,5.559,0,0,1,.392,1.381l4.345-.411A9.926,9.926,0,0,0,1358.795,1539.477Z" transform="translate(-0.001 0)" fill="none" stroke="#006eff" stroke-width="1"/>
    <path id="パス_3133" data-name="パス 3133" d="M1355.339,1543.637a5.5,5.5,0,0,1-.129,1.2l4.2,1.207a10.007,10.007,0,0,0,.294-2.406c0-.206-.007-.41-.02-.614l-4.346.41v.2" transform="translate(-0.001 0)" fill="none" stroke="#006eff" stroke-width="1"/>
    <path id="パス_3135" data-name="パス 3135" d="M1344.84,1540.787a5.682,5.682,0,0,1,.9-1.153l-2.939-3.223a10,10,0,0,0-1.866,2.429Z" transform="translate(0 0)" fill="none" stroke="#006eff" stroke-width="1"/>
    <path id="パス_3136" data-name="パス 3136" d="M1352.044,1538.51a5.541,5.541,0,0,1,1.232.771l2.947-3.218a9.992,9.992,0,0,0-2.612-1.629Z" transform="translate(-0.001 0)" fill="none" stroke="#006eff" stroke-width="1"/>
    <g id="グループ_2193" data-name="グループ 2193" transform="translate(1353.74 1536.49)">
      <path id="パス_3254" data-name="パス 3254" d="M1354.607,1540.86h0Z" transform="translate(-1353.741 -1536.49)" fill="none" stroke="#006eff" stroke-width="1"/>
      <path id="パス_3255" data-name="パス 3255" d="M1356.688,1536.49l-2.947,3.217a5.662,5.662,0,0,1,.867,1.152l3.9-1.946A10.016,10.016,0,0,0,1356.688,1536.49Z" transform="translate(-1353.741 -1536.49)" fill="none" stroke="#006eff" stroke-width="1"/>
    </g>
    <path id="パス_3138" data-name="パス 3138" d="M1344.064,1543.636c0-.088,0-.175.007-.263l-4.347-.39q-.021.324-.021.652a10.008,10.008,0,0,0,.3,2.418l4.2-1.2a5.625,5.625,0,0,1-.132-1.213" transform="translate(0 0)" fill="none" stroke="#006eff" stroke-width="1"/>
    <path id="パス_3139" data-name="パス 3139" d="M1354.06,1547.209a5.709,5.709,0,0,1-1.06,1l2.3,3.715a10.1,10.1,0,0,0,2.248-2.087Z" transform="translate(-0.001 -0.001)" fill="none" stroke="#006eff" stroke-width="1"/>
    <path id="パス_3256" data-name="パス 3256" d="M1345.413,1547.292l-3.474,2.64a10.066,10.066,0,0,0,2.269,2.055l2.294-3.712A5.69,5.69,0,0,1,1345.413,1547.292Z" transform="translate(0 -0.001)" fill="none" stroke="#006eff" stroke-width="1"/>
    <path id="パス_3141" data-name="パス 3141" d="M1344.133,1542.747a5.552,5.552,0,0,1,.417-1.4l-3.9-1.945a9.937,9.937,0,0,0-.862,2.955Z" transform="translate(0 0)" fill="none" stroke="#006eff" stroke-width="1"/>
    <path id="パス_3257" data-name="パス 3257" d="M1352.471,1548.547a5.654,5.654,0,0,1-1.338.543l.808,4.293a9.925,9.925,0,0,0,2.82-1.125h0Z" transform="translate(-0.001 -0.001)" fill="none" stroke="#006eff" stroke-width="1"/>
    <path id="パス_3143" data-name="パス 3143" d="M1350.515,1549.216a5.579,5.579,0,0,1-1.469.02l-.808,4.293a10.091,10.091,0,0,0,3.086-.024Z" transform="translate(0 -0.001)" fill="none" stroke="#006eff" stroke-width="1"/>
    <path id="パス_3144" data-name="パス 3144" d="M1350.062,1538.009a5.568,5.568,0,0,1,1.4.269l1.567-4.074a9.893,9.893,0,0,0-2.963-.561Z" transform="translate(-0.001 0)" fill="none" stroke="#006eff" stroke-width="1"/>
    <path id="パス_3145" data-name="パス 3145" d="M1348.424,1549.129a5.656,5.656,0,0,1-1.384-.523l-2.3,3.713a9.972,9.972,0,0,0,2.873,1.1Z" transform="translate(0 -0.001)" fill="none" stroke="#006eff" stroke-width="1"/>
    <path id="パス_3146" data-name="パス 3146" d="M1348.007,1538.258a5.56,5.56,0,0,1,1.424-.253v-4.365a9.934,9.934,0,0,0-3,.548Z" transform="translate(0)" fill="none" stroke="#006eff" stroke-width="1"/>
    <path id="パス_3258" data-name="パス 3258" d="M1344.365,1545.457l-4.2,1.2a9.955,9.955,0,0,0,1.386,2.769l3.479-2.635A5.6,5.6,0,0,1,1344.365,1545.457Z" transform="translate(0 -0.001)" fill="none" stroke="#006eff" stroke-width="1"/>
    <path id="パス_3148" data-name="パス 3148" d="M1346.209,1539.214a5.622,5.622,0,0,1,1.209-.732l-1.577-4.069a10.017,10.017,0,0,0-2.573,1.575Z" transform="translate(0 0)" fill="none" stroke="#006eff" stroke-width="1"/>
  </g>
</svg>
