<svg xmlns="http://www.w3.org/2000/svg" xmlns:xlink="http://www.w3.org/1999/xlink" width="16" height="22.222" viewBox="0 0 16 22.222"><defs><clipPath id="a"><rect width="16" height="22.222" fill="#ccc"/></clipPath></defs><g clip-path="url(#a)"><path d="M14,8.081h0V6.061a6,6,0,1,0-12,0v2.02A2.01,2.01,0,0,0,0,10.1V20.2a2.01,2.01,0,0,0,2,2.02H14a2.01,2.01,0,0,0,2-2.02V10.1a2.01,2.01,0,0,0-2-2.02M8,2.02a4.025,4.025,0,0,1,4,4.04v2.02H4V6.061A4.025,4.025,0,0,1,8,2.02m1,13.87v1.281a1,1,0,1,1-2,0V15.891a2,2,0,1,1,2,0" fill="#ccc"/></g></svg>